<?xml version="1.0" encoding="utf-8" standalone="no"?>
<!DOCTYPE svg PUBLIC "-//W3C//DTD SVG 1.1//EN"
  "http://www.w3.org/Graphics/SVG/1.1/DTD/svg11.dtd">
<svg xmlns:xlink="http://www.w3.org/1999/xlink" width="496.513336pt" height="315.86975pt" viewBox="0 0 496.513336 315.86975" xmlns="http://www.w3.org/2000/svg" version="1.1">
 <metadata>
  <rdf:RDF xmlns:dc="http://purl.org/dc/elements/1.1/" xmlns:cc="http://creativecommons.org/ns#" xmlns:rdf="http://www.w3.org/1999/02/22-rdf-syntax-ns#">
   <cc:Work>
    <dc:type rdf:resource="http://purl.org/dc/dcmitype/StillImage"/>
    <dc:date>2026-04-26T16:36:52.106283</dc:date>
    <dc:format>image/svg+xml</dc:format>
    <dc:creator>
     <cc:Agent>
      <dc:title>Matplotlib v3.10.8, https://matplotlib.org/</dc:title>
     </cc:Agent>
    </dc:creator>
   </cc:Work>
  </rdf:RDF>
 </metadata>
 <defs>
  <style type="text/css">*{stroke-linejoin: round; stroke-linecap: butt}</style>
 </defs>
 <g id="figure_1">
  <g id="patch_1">
   <path d="M 0 315.86975 
L 496.513336 315.86975 
L 496.513336 0 
L 0 0 
z
" style="fill: #ffffff"/>
  </g>
  <g id="axes_1">
   <g id="patch_2">
    <path d="M 48.029375 273.474438 
L 489.313336 273.474438 
L 489.313336 17.798437 
L 48.029375 17.798437 
z
" style="fill: #ffffff"/>
   </g>
   <g id="patch_3">
    <path d="M 48.029375 273.474438 
L 268.671355 273.474438 
L 268.671355 17.798437 
L 48.029375 17.798437 
z
" clip-path="url(#p1d97cda355)" style="fill: #cccccc; opacity: 0.12; stroke: #cccccc; stroke-linejoin: miter"/>
   </g>
   <g id="patch_4">
    <path d="M 268.671355 273.474438 
L 489.313336 273.474438 
L 489.313336 17.798437 
L 268.671355 17.798437 
z
" clip-path="url(#p1d97cda355)" style="fill: #d94452; opacity: 0.06; stroke: #d94452; stroke-linejoin: miter"/>
   </g>
   <g id="line2d_1">
    <path d="M 268.671355 273.474438 
L 268.671355 17.798437 
" clip-path="url(#p1d97cda355)" style="fill: none; stroke-dasharray: 3.7,1.6; stroke-dashoffset: 0; stroke: #999999"/>
   </g>
   <g id="matplotlib.axis_1">
    <g id="xtick_1">
     <g id="line2d_2">
      <defs>
       <path id="m227aec1895" d="M 0 0 
L 0 3.5 
" style="stroke: #000000; stroke-width: 0.8"/>
      </defs>
      <g>
       <use xlink:href="#m227aec1895" x="48.029375" y="273.474438" style="stroke: #000000; stroke-width: 0.8"/>
      </g>
     </g>
     <g id="text_1">
      <!-- 0.0 -->
      <g transform="translate(39.282656 288.832719) scale(0.11 -0.11)">
       <defs>
        <path id="DejaVuSans-30" d="M 2034 4250 
Q 1547 4250 1301 3770 
Q 1056 3291 1056 2328 
Q 1056 1369 1301 889 
Q 1547 409 2034 409 
Q 2525 409 2770 889 
Q 3016 1369 3016 2328 
Q 3016 3291 2770 3770 
Q 2525 4250 2034 4250 
z
M 2034 4750 
Q 2819 4750 3233 4129 
Q 3647 3509 3647 2328 
Q 3647 1150 3233 529 
Q 2819 -91 2034 -91 
Q 1250 -91 836 529 
Q 422 1150 422 2328 
Q 422 3509 836 4129 
Q 1250 4750 2034 4750 
z
" transform="scale(0.015625)"/>
        <path id="DejaVuSans-2e" d="M 684 794 
L 1344 794 
L 1344 0 
L 684 0 
L 684 794 
z
" transform="scale(0.015625)"/>
       </defs>
       <use xlink:href="#DejaVuSans-30"/>
       <use xlink:href="#DejaVuSans-2e" transform="translate(63.623047 0)"/>
       <use xlink:href="#DejaVuSans-30" transform="translate(95.410156 0)"/>
      </g>
     </g>
    </g>
    <g id="xtick_2">
     <g id="line2d_3">
      <g>
       <use xlink:href="#m227aec1895" x="103.217464" y="273.474438" style="stroke: #000000; stroke-width: 0.8"/>
      </g>
     </g>
     <g id="text_2">
      <!-- 0.5 -->
      <g transform="translate(94.470745 288.832719) scale(0.11 -0.11)">
       <defs>
        <path id="DejaVuSans-35" d="M 691 4666 
L 3169 4666 
L 3169 4134 
L 1269 4134 
L 1269 2991 
Q 1406 3038 1543 3061 
Q 1681 3084 1819 3084 
Q 2600 3084 3056 2656 
Q 3513 2228 3513 1497 
Q 3513 744 3044 326 
Q 2575 -91 1722 -91 
Q 1428 -91 1123 -41 
Q 819 9 494 109 
L 494 744 
Q 775 591 1075 516 
Q 1375 441 1709 441 
Q 2250 441 2565 725 
Q 2881 1009 2881 1497 
Q 2881 1984 2565 2268 
Q 2250 2553 1709 2553 
Q 1456 2553 1204 2497 
Q 953 2441 691 2322 
L 691 4666 
z
" transform="scale(0.015625)"/>
       </defs>
       <use xlink:href="#DejaVuSans-30"/>
       <use xlink:href="#DejaVuSans-2e" transform="translate(63.623047 0)"/>
       <use xlink:href="#DejaVuSans-35" transform="translate(95.410156 0)"/>
      </g>
     </g>
    </g>
    <g id="xtick_3">
     <g id="line2d_4">
      <g>
       <use xlink:href="#m227aec1895" x="158.405553" y="273.474438" style="stroke: #000000; stroke-width: 0.8"/>
      </g>
     </g>
     <g id="text_3">
      <!-- 1.0 -->
      <g transform="translate(149.658835 288.832719) scale(0.11 -0.11)">
       <defs>
        <path id="DejaVuSans-31" d="M 794 531 
L 1825 531 
L 1825 4091 
L 703 3866 
L 703 4441 
L 1819 4666 
L 2450 4666 
L 2450 531 
L 3481 531 
L 3481 0 
L 794 0 
L 794 531 
z
" transform="scale(0.015625)"/>
       </defs>
       <use xlink:href="#DejaVuSans-31"/>
       <use xlink:href="#DejaVuSans-2e" transform="translate(63.623047 0)"/>
       <use xlink:href="#DejaVuSans-30" transform="translate(95.410156 0)"/>
      </g>
     </g>
    </g>
    <g id="xtick_4">
     <g id="line2d_5">
      <g>
       <use xlink:href="#m227aec1895" x="213.593642" y="273.474438" style="stroke: #000000; stroke-width: 0.8"/>
      </g>
     </g>
     <g id="text_4">
      <!-- 1.5 -->
      <g transform="translate(204.846924 288.832719) scale(0.11 -0.11)">
       <use xlink:href="#DejaVuSans-31"/>
       <use xlink:href="#DejaVuSans-2e" transform="translate(63.623047 0)"/>
       <use xlink:href="#DejaVuSans-35" transform="translate(95.410156 0)"/>
      </g>
     </g>
    </g>
    <g id="xtick_5">
     <g id="line2d_6">
      <g>
       <use xlink:href="#m227aec1895" x="268.781732" y="273.474438" style="stroke: #000000; stroke-width: 0.8"/>
      </g>
     </g>
     <g id="text_5">
      <!-- 2.0 -->
      <g transform="translate(260.035013 288.832719) scale(0.11 -0.11)">
       <defs>
        <path id="DejaVuSans-32" d="M 1228 531 
L 3431 531 
L 3431 0 
L 469 0 
L 469 531 
Q 828 903 1448 1529 
Q 2069 2156 2228 2338 
Q 2531 2678 2651 2914 
Q 2772 3150 2772 3378 
Q 2772 3750 2511 3984 
Q 2250 4219 1831 4219 
Q 1534 4219 1204 4116 
Q 875 4013 500 3803 
L 500 4441 
Q 881 4594 1212 4672 
Q 1544 4750 1819 4750 
Q 2544 4750 2975 4387 
Q 3406 4025 3406 3419 
Q 3406 3131 3298 2873 
Q 3191 2616 2906 2266 
Q 2828 2175 2409 1742 
Q 1991 1309 1228 531 
z
" transform="scale(0.015625)"/>
       </defs>
       <use xlink:href="#DejaVuSans-32"/>
       <use xlink:href="#DejaVuSans-2e" transform="translate(63.623047 0)"/>
       <use xlink:href="#DejaVuSans-30" transform="translate(95.410156 0)"/>
      </g>
     </g>
    </g>
    <g id="xtick_6">
     <g id="line2d_7">
      <g>
       <use xlink:href="#m227aec1895" x="323.969821" y="273.474438" style="stroke: #000000; stroke-width: 0.8"/>
      </g>
     </g>
     <g id="text_6">
      <!-- 2.5 -->
      <g transform="translate(315.223102 288.832719) scale(0.11 -0.11)">
       <use xlink:href="#DejaVuSans-32"/>
       <use xlink:href="#DejaVuSans-2e" transform="translate(63.623047 0)"/>
       <use xlink:href="#DejaVuSans-35" transform="translate(95.410156 0)"/>
      </g>
     </g>
    </g>
    <g id="xtick_7">
     <g id="line2d_8">
      <g>
       <use xlink:href="#m227aec1895" x="379.15791" y="273.474438" style="stroke: #000000; stroke-width: 0.8"/>
      </g>
     </g>
     <g id="text_7">
      <!-- 3.0 -->
      <g transform="translate(370.411191 288.832719) scale(0.11 -0.11)">
       <defs>
        <path id="DejaVuSans-33" d="M 2597 2516 
Q 3050 2419 3304 2112 
Q 3559 1806 3559 1356 
Q 3559 666 3084 287 
Q 2609 -91 1734 -91 
Q 1441 -91 1130 -33 
Q 819 25 488 141 
L 488 750 
Q 750 597 1062 519 
Q 1375 441 1716 441 
Q 2309 441 2620 675 
Q 2931 909 2931 1356 
Q 2931 1769 2642 2001 
Q 2353 2234 1838 2234 
L 1294 2234 
L 1294 2753 
L 1863 2753 
Q 2328 2753 2575 2939 
Q 2822 3125 2822 3475 
Q 2822 3834 2567 4026 
Q 2313 4219 1838 4219 
Q 1578 4219 1281 4162 
Q 984 4106 628 3988 
L 628 4550 
Q 988 4650 1302 4700 
Q 1616 4750 1894 4750 
Q 2613 4750 3031 4423 
Q 3450 4097 3450 3541 
Q 3450 3153 3228 2886 
Q 3006 2619 2597 2516 
z
" transform="scale(0.015625)"/>
       </defs>
       <use xlink:href="#DejaVuSans-33"/>
       <use xlink:href="#DejaVuSans-2e" transform="translate(63.623047 0)"/>
       <use xlink:href="#DejaVuSans-30" transform="translate(95.410156 0)"/>
      </g>
     </g>
    </g>
    <g id="xtick_8">
     <g id="line2d_9">
      <g>
       <use xlink:href="#m227aec1895" x="434.345999" y="273.474438" style="stroke: #000000; stroke-width: 0.8"/>
      </g>
     </g>
     <g id="text_8">
      <!-- 3.5 -->
      <g transform="translate(425.59928 288.832719) scale(0.11 -0.11)">
       <use xlink:href="#DejaVuSans-33"/>
       <use xlink:href="#DejaVuSans-2e" transform="translate(63.623047 0)"/>
       <use xlink:href="#DejaVuSans-35" transform="translate(95.410156 0)"/>
      </g>
     </g>
    </g>
    <g id="text_9">
     <!-- Time (s) -->
     <g transform="translate(236.452762 305.758188) scale(0.14 -0.14)">
      <defs>
       <path id="DejaVuSans-Bold-54" d="M 31 4666 
L 4331 4666 
L 4331 3756 
L 2784 3756 
L 2784 0 
L 1581 0 
L 1581 3756 
L 31 3756 
L 31 4666 
z
" transform="scale(0.015625)"/>
       <path id="DejaVuSans-Bold-69" d="M 538 3500 
L 1656 3500 
L 1656 0 
L 538 0 
L 538 3500 
z
M 538 4863 
L 1656 4863 
L 1656 3950 
L 538 3950 
L 538 4863 
z
" transform="scale(0.015625)"/>
       <path id="DejaVuSans-Bold-6d" d="M 3781 2919 
Q 3994 3244 4286 3414 
Q 4578 3584 4928 3584 
Q 5531 3584 5847 3212 
Q 6163 2841 6163 2131 
L 6163 0 
L 5038 0 
L 5038 1825 
Q 5041 1866 5042 1909 
Q 5044 1953 5044 2034 
Q 5044 2406 4934 2573 
Q 4825 2741 4581 2741 
Q 4263 2741 4089 2478 
Q 3916 2216 3909 1719 
L 3909 0 
L 2784 0 
L 2784 1825 
Q 2784 2406 2684 2573 
Q 2584 2741 2328 2741 
Q 2006 2741 1831 2477 
Q 1656 2213 1656 1722 
L 1656 0 
L 531 0 
L 531 3500 
L 1656 3500 
L 1656 2988 
Q 1863 3284 2130 3434 
Q 2397 3584 2719 3584 
Q 3081 3584 3359 3409 
Q 3638 3234 3781 2919 
z
" transform="scale(0.015625)"/>
       <path id="DejaVuSans-Bold-65" d="M 4031 1759 
L 4031 1441 
L 1416 1441 
Q 1456 1047 1700 850 
Q 1944 653 2381 653 
Q 2734 653 3104 758 
Q 3475 863 3866 1075 
L 3866 213 
Q 3469 63 3072 -14 
Q 2675 -91 2278 -91 
Q 1328 -91 801 392 
Q 275 875 275 1747 
Q 275 2603 792 3093 
Q 1309 3584 2216 3584 
Q 3041 3584 3536 3087 
Q 4031 2591 4031 1759 
z
M 2881 2131 
Q 2881 2450 2695 2645 
Q 2509 2841 2209 2841 
Q 1884 2841 1681 2658 
Q 1478 2475 1428 2131 
L 2881 2131 
z
" transform="scale(0.015625)"/>
       <path id="DejaVuSans-Bold-20" transform="scale(0.015625)"/>
       <path id="DejaVuSans-Bold-28" d="M 2413 -844 
L 1484 -844 
Q 1006 -72 778 623 
Q 550 1319 550 2003 
Q 550 2688 779 3389 
Q 1009 4091 1484 4856 
L 2413 4856 
Q 2013 4116 1813 3408 
Q 1613 2700 1613 2009 
Q 1613 1319 1811 609 
Q 2009 -100 2413 -844 
z
" transform="scale(0.015625)"/>
       <path id="DejaVuSans-Bold-73" d="M 3272 3391 
L 3272 2541 
Q 2913 2691 2578 2766 
Q 2244 2841 1947 2841 
Q 1628 2841 1473 2761 
Q 1319 2681 1319 2516 
Q 1319 2381 1436 2309 
Q 1553 2238 1856 2203 
L 2053 2175 
Q 2913 2066 3209 1816 
Q 3506 1566 3506 1031 
Q 3506 472 3093 190 
Q 2681 -91 1863 -91 
Q 1516 -91 1145 -36 
Q 775 19 384 128 
L 384 978 
Q 719 816 1070 734 
Q 1422 653 1784 653 
Q 2113 653 2278 743 
Q 2444 834 2444 1013 
Q 2444 1163 2330 1236 
Q 2216 1309 1875 1350 
L 1678 1375 
Q 931 1469 631 1722 
Q 331 1975 331 2491 
Q 331 3047 712 3315 
Q 1094 3584 1881 3584 
Q 2191 3584 2531 3537 
Q 2872 3491 3272 3391 
z
" transform="scale(0.015625)"/>
       <path id="DejaVuSans-Bold-29" d="M 513 -844 
Q 913 -100 1113 609 
Q 1313 1319 1313 2009 
Q 1313 2700 1113 3408 
Q 913 4116 513 4856 
L 1441 4856 
Q 1916 4091 2145 3389 
Q 2375 2688 2375 2003 
Q 2375 1319 2147 623 
Q 1919 -72 1441 -844 
L 513 -844 
z
" transform="scale(0.015625)"/>
      </defs>
      <use xlink:href="#DejaVuSans-Bold-54"/>
      <use xlink:href="#DejaVuSans-Bold-69" transform="translate(68.212891 0)"/>
      <use xlink:href="#DejaVuSans-Bold-6d" transform="translate(102.490234 0)"/>
      <use xlink:href="#DejaVuSans-Bold-65" transform="translate(206.689453 0)"/>
      <use xlink:href="#DejaVuSans-Bold-20" transform="translate(274.511719 0)"/>
      <use xlink:href="#DejaVuSans-Bold-28" transform="translate(309.326172 0)"/>
      <use xlink:href="#DejaVuSans-Bold-73" transform="translate(355.029297 0)"/>
      <use xlink:href="#DejaVuSans-Bold-29" transform="translate(414.550781 0)"/>
     </g>
    </g>
   </g>
   <g id="matplotlib.axis_2">
    <g id="ytick_1">
     <g id="line2d_10">
      <defs>
       <path id="mb17d04ab5a" d="M 0 0 
L -3.5 0 
" style="stroke: #000000; stroke-width: 0.8"/>
      </defs>
      <g>
       <use xlink:href="#mb17d04ab5a" x="48.029375" y="235.097552" style="stroke: #000000; stroke-width: 0.8"/>
      </g>
     </g>
     <g id="text_10">
      <!-- $\mathdefault{−2}$ -->
      <g transform="translate(24.749375 239.276693) scale(0.11 -0.11)">
       <defs>
        <path id="DejaVuSans-2212" d="M 678 2272 
L 4684 2272 
L 4684 1741 
L 678 1741 
L 678 2272 
z
" transform="scale(0.015625)"/>
       </defs>
       <use xlink:href="#DejaVuSans-2212" transform="translate(0 0.78125)"/>
       <use xlink:href="#DejaVuSans-32" transform="translate(83.789062 0.78125)"/>
      </g>
     </g>
    </g>
    <g id="ytick_2">
     <g id="line2d_11">
      <g>
       <use xlink:href="#mb17d04ab5a" x="48.029375" y="190.366995" style="stroke: #000000; stroke-width: 0.8"/>
      </g>
     </g>
     <g id="text_11">
      <!-- $\mathdefault{−1}$ -->
      <g transform="translate(24.749375 194.546136) scale(0.11 -0.11)">
       <use xlink:href="#DejaVuSans-2212" transform="translate(0 0.09375)"/>
       <use xlink:href="#DejaVuSans-31" transform="translate(83.789062 0.09375)"/>
      </g>
     </g>
    </g>
    <g id="ytick_3">
     <g id="line2d_12">
      <g>
       <use xlink:href="#mb17d04ab5a" x="48.029375" y="145.636437" style="stroke: #000000; stroke-width: 0.8"/>
      </g>
     </g>
     <g id="text_12">
      <!-- $\mathdefault{0}$ -->
      <g transform="translate(33.989375 149.815578) scale(0.11 -0.11)">
       <use xlink:href="#DejaVuSans-30" transform="translate(0 0.78125)"/>
      </g>
     </g>
    </g>
    <g id="ytick_4">
     <g id="line2d_13">
      <g>
       <use xlink:href="#mb17d04ab5a" x="48.029375" y="100.90588" style="stroke: #000000; stroke-width: 0.8"/>
      </g>
     </g>
     <g id="text_13">
      <!-- $\mathdefault{1}$ -->
      <g transform="translate(33.989375 105.085021) scale(0.11 -0.11)">
       <use xlink:href="#DejaVuSans-31" transform="translate(0 0.09375)"/>
      </g>
     </g>
    </g>
    <g id="ytick_5">
     <g id="line2d_14">
      <g>
       <use xlink:href="#mb17d04ab5a" x="48.029375" y="56.175323" style="stroke: #000000; stroke-width: 0.8"/>
      </g>
     </g>
     <g id="text_14">
      <!-- $\mathdefault{2}$ -->
      <g transform="translate(33.989375 60.354463) scale(0.11 -0.11)">
       <use xlink:href="#DejaVuSans-32" transform="translate(0 0.78125)"/>
      </g>
     </g>
    </g>
    <g id="text_15">
     <!-- I$_{sc}$ (mA/m²) -->
     <g transform="translate(17.837812 188.266437) rotate(-90) scale(0.14 -0.14)">
      <defs>
       <path id="DejaVuSans-Bold-49" d="M 588 4666 
L 1791 4666 
L 1791 0 
L 588 0 
L 588 4666 
z
" transform="scale(0.015625)"/>
       <path id="DejaVuSans-Oblique-73" d="M 3200 3397 
L 3091 2853 
Q 2863 2978 2609 3040 
Q 2356 3103 2088 3103 
Q 1634 3103 1373 2948 
Q 1113 2794 1113 2528 
Q 1113 2219 1719 2053 
Q 1766 2041 1788 2034 
L 1972 1978 
Q 2547 1819 2739 1644 
Q 2931 1469 2931 1166 
Q 2931 609 2489 259 
Q 2047 -91 1331 -91 
Q 1053 -91 747 -37 
Q 441 16 72 128 
L 184 722 
Q 500 559 806 475 
Q 1113 391 1394 391 
Q 1816 391 2080 572 
Q 2344 753 2344 1031 
Q 2344 1331 1650 1516 
L 1591 1531 
L 1394 1581 
Q 956 1697 753 1886 
Q 550 2075 550 2369 
Q 550 2928 970 3256 
Q 1391 3584 2113 3584 
Q 2397 3584 2667 3537 
Q 2938 3491 3200 3397 
z
" transform="scale(0.015625)"/>
       <path id="DejaVuSans-Oblique-63" d="M 3431 3366 
L 3316 2797 
Q 3109 2947 2876 3022 
Q 2644 3097 2394 3097 
Q 2119 3097 1870 3000 
Q 1622 2903 1453 2725 
Q 1184 2453 1037 2087 
Q 891 1722 891 1331 
Q 891 859 1127 628 
Q 1363 397 1844 397 
Q 2081 397 2348 469 
Q 2616 541 2906 684 
L 2797 116 
Q 2547 13 2283 -39 
Q 2019 -91 1741 -91 
Q 1044 -91 669 257 
Q 294 606 294 1253 
Q 294 1797 489 2255 
Q 684 2713 1069 3078 
Q 1331 3328 1684 3456 
Q 2038 3584 2456 3584 
Q 2700 3584 2940 3529 
Q 3181 3475 3431 3366 
z
" transform="scale(0.015625)"/>
       <path id="DejaVuSans-Bold-41" d="M 3419 850 
L 1538 850 
L 1241 0 
L 31 0 
L 1759 4666 
L 3194 4666 
L 4922 0 
L 3713 0 
L 3419 850 
z
M 1838 1716 
L 3116 1716 
L 2478 3572 
L 1838 1716 
z
" transform="scale(0.015625)"/>
       <path id="DejaVuSans-Bold-2f" d="M 1644 4666 
L 2338 4666 
L 691 -594 
L 0 -594 
L 1644 4666 
z
" transform="scale(0.015625)"/>
       <path id="DejaVuSans-Bold-b2" d="M 1288 2613 
L 2444 2613 
L 2444 2088 
L 341 2088 
L 341 2566 
L 1319 3397 
Q 1509 3563 1590 3688 
Q 1672 3813 1672 3938 
Q 1672 4094 1558 4191 
Q 1444 4288 1259 4288 
Q 1066 4288 844 4217 
Q 622 4147 359 4000 
L 359 4581 
Q 631 4666 886 4708 
Q 1141 4750 1375 4750 
Q 1869 4750 2150 4548 
Q 2431 4347 2431 4000 
Q 2431 3775 2320 3586 
Q 2209 3397 1894 3128 
L 1288 2613 
z
" transform="scale(0.015625)"/>
      </defs>
      <use xlink:href="#DejaVuSans-Bold-49" transform="translate(0 0.125)"/>
      <use xlink:href="#DejaVuSans-Oblique-73" transform="translate(38.164062 -16.28125) scale(0.7)"/>
      <use xlink:href="#DejaVuSans-Oblique-63" transform="translate(74.633789 -16.28125) scale(0.7)"/>
      <use xlink:href="#DejaVuSans-Bold-20" transform="translate(115.854492 0.125)"/>
      <use xlink:href="#DejaVuSans-Bold-28" transform="translate(150.668945 0.125)"/>
      <use xlink:href="#DejaVuSans-Bold-6d" transform="translate(196.37207 0.125)"/>
      <use xlink:href="#DejaVuSans-Bold-41" transform="translate(300.571289 0.125)"/>
      <use xlink:href="#DejaVuSans-Bold-2f" transform="translate(377.963867 0.125)"/>
      <use xlink:href="#DejaVuSans-Bold-6d" transform="translate(414.487305 0.125)"/>
      <use xlink:href="#DejaVuSans-Bold-b2" transform="translate(518.686523 0.125)"/>
      <use xlink:href="#DejaVuSans-Bold-29" transform="translate(562.485352 0.125)"/>
     </g>
    </g>
    <g id="text_16">
     <!-- $\times\mathdefault{10^{−3}}\mathdefault{}$ -->
     <g transform="translate(48.029375 14.798437) scale(0.1 -0.1)">
      <defs>
       <path id="DejaVuSans-d7" d="M 4488 3438 
L 3059 2003 
L 4488 575 
L 4116 197 
L 2681 1631 
L 1247 197 
L 878 575 
L 2303 2003 
L 878 3438 
L 1247 3816 
L 2681 2381 
L 4116 3816 
L 4488 3438 
z
" transform="scale(0.015625)"/>
      </defs>
      <use xlink:href="#DejaVuSans-d7" transform="translate(0 0.765625)"/>
      <use xlink:href="#DejaVuSans-31" transform="translate(83.789062 0.765625)"/>
      <use xlink:href="#DejaVuSans-30" transform="translate(147.412109 0.765625)"/>
      <use xlink:href="#DejaVuSans-2212" transform="translate(211.992188 39.046875) scale(0.7)"/>
      <use xlink:href="#DejaVuSans-33" transform="translate(270.644531 39.046875) scale(0.7)"/>
     </g>
    </g>
   </g>
   <g id="patch_5">
    <path d="M 48.029375 273.474438 
L 48.029375 17.798437 
" style="fill: none; stroke: #000000; stroke-width: 0.8; stroke-linejoin: miter; stroke-linecap: square"/>
   </g>
   <g id="patch_6">
    <path d="M 48.029375 273.474438 
L 489.313336 273.474438 
" style="fill: none; stroke: #000000; stroke-width: 0.8; stroke-linejoin: miter; stroke-linecap: square"/>
   </g>
   <g id="line2d_15">
    <path d="M 48.029375 137.61978 
L 48.691632 139.78072 
L 48.912384 140.28494 
L 49.685018 141.797598 
L 51.671789 144.210649 
L 52.334046 144.714868 
L 52.665174 144.966978 
L 53.106679 145.255103 
L 53.548184 145.183072 
L 53.65856 145.291119 
L 53.879312 145.255103 
L 54.320817 145.435182 
L 54.54157 145.579245 
L 54.651946 145.651276 
L 54.762322 145.903386 
L 54.983074 145.651276 
L 55.09345 145.759323 
L 55.314203 145.579245 
L 55.534955 145.86737 
L 55.866084 145.86737 
L 55.97646 146.11948 
L 56.086836 146.011433 
L 57.852855 147.812217 
L 58.515112 149.324875 
L 59.177369 151.593862 
L 59.398121 152.638317 
L 59.72925 155.44754 
L 60.170755 161.210052 
L 60.501883 168.845368 
L 60.833012 181.88304 
L 61.16414 204.933054 
L 61.605645 242.029167 
L 61.716021 242.641428 
L 61.936773 233.277365 
L 63.48204 131.497108 
L 63.923545 103.116744 
L 64.254673 96.273763 
L 64.475426 95.37337 
L 64.585802 95.481417 
L 64.806554 96.669941 
L 65.137683 99.803305 
L 67.124454 123.465614 
L 68.228216 131.641174 
L 68.890473 134.918603 
L 69.221601 135.891027 
L 70.656492 140.320956 
L 70.766868 140.429002 
L 71.097996 141.221347 
L 71.539501 142.12174 
L 71.649877 142.157755 
L 72.091382 142.69799 
L 73.415896 144.246665 
L 75.071539 145.219088 
L 75.402667 145.219088 
L 75.954548 145.219088 
L 76.1753 145.399166 
L 76.396053 145.435182 
L 76.727181 145.543229 
L 76.837558 145.795339 
L 76.947934 145.61526 
L 77.168686 145.651276 
L 77.941319 145.939401 
L 79.045081 147.235965 
L 79.265833 147.488076 
L 79.596962 147.740185 
L 79.707338 147.776201 
L 79.928091 148.460499 
L 80.148843 148.964719 
L 80.8111 151.413784 
L 80.921476 151.737925 
L 81.473357 156.095822 
L 81.914862 162.398565 
L 82.24599 170.970293 
L 82.577119 185.520618 
L 82.908247 210.767585 
L 83.239376 240.048308 
L 83.349752 242.965568 
L 83.460128 241.272829 
L 83.791257 222.832825 
L 85.778028 98.290641 
L 85.99878 95.553444 
L 86.109157 95.04923 
L 86.219533 95.085249 
L 86.329909 95.337351 
L 86.550661 96.958062 
L 86.992166 101.532052 
L 88.206304 117.306932 
L 89.420442 128.255697 
L 89.972323 131.749221 
L 90.744956 135.098682 
L 91.296837 137.043529 
L 91.738342 138.484156 
L 92.179846 139.636657 
L 92.621351 140.53705 
L 93.393984 142.049708 
L 94.166618 143.130179 
L 94.828875 143.886508 
L 95.160003 144.318695 
L 95.270379 144.318695 
L 95.491132 144.498774 
L 96.374141 144.750884 
L 96.484517 145.039009 
L 96.70527 145.002994 
L 96.815646 144.966978 
L 97.036398 145.183072 
L 97.367527 145.039009 
L 97.698655 145.219088 
L 97.809031 145.183072 
L 98.14016 145.471198 
L 98.360912 145.363151 
L 98.692041 145.579245 
L 98.802417 145.471198 
L 99.133546 145.723307 
L 99.243922 145.687292 
L 99.354298 145.831354 
L 99.464674 145.723307 
L 100.126931 146.515652 
L 100.237307 146.299558 
L 100.568436 146.94784 
L 100.678812 146.983856 
L 101.009941 147.560106 
L 101.230693 147.380028 
L 101.561821 148.100342 
L 101.672198 148.136358 
L 102.224079 150.045189 
L 102.996712 154.331054 
L 103.438217 159.229182 
L 103.769345 165.603957 
L 104.21085 182.387254 
L 104.652354 217.178379 
L 104.983483 242.677447 
L 105.093859 242.89354 
L 105.314612 232.953225 
L 106.859878 130.380622 
L 107.301383 102.036277 
L 107.522135 96.705949 
L 107.742887 94.653051 
L 107.853264 94.472977 
L 107.96364 94.797117 
L 108.294768 97.210174 
L 108.846649 103.476903 
L 109.840035 116.334512 
L 111.164549 128.399763 
L 111.826806 132.43352 
L 113.592825 138.988375 
L 114.917339 141.761583 
L 115.027715 141.86963 
L 115.358844 142.589943 
L 115.579596 142.842054 
L 115.689972 142.914084 
L 115.910725 143.130179 
L 116.131477 143.346272 
L 116.241853 143.238225 
L 116.462606 143.742445 
L 117.455991 144.642837 
L 117.78712 144.606821 
L 117.897496 144.714868 
L 118.007872 144.570806 
L 118.228624 144.822915 
L 118.339001 144.714868 
L 118.449377 144.894947 
L 118.559753 144.822915 
L 118.780505 145.291119 
L 118.890881 144.822915 
L 119.111634 145.075025 
L 119.994643 145.291119 
L 120.105019 145.183072 
L 120.546524 145.579245 
L 121.098405 145.795339 
L 121.208781 145.939401 
L 121.319157 145.86737 
L 121.981414 146.371589 
L 122.202167 146.767762 
L 122.312543 146.695731 
L 122.643672 147.307997 
L 122.754048 147.380028 
L 122.9748 147.668154 
L 123.195552 147.920263 
L 123.968186 150.081205 
L 124.520067 153.142536 
L 124.961571 157.284342 
L 125.2927 162.506612 
L 125.623828 171.150367 
L 125.954957 186.240936 
L 126.286085 212.820482 
L 126.617214 241.705027 
L 126.72759 243.86596 
L 126.837966 241.777055 
L 127.279471 214.657275 
L 127.831352 182.675385 
L 128.272857 155.555586 
L 128.935114 103.620969 
L 129.155866 97.066108 
L 129.376618 94.617043 
L 129.486995 94.184857 
L 129.597371 94.292903 
L 129.928499 96.309782 
L 130.590756 103.981128 
L 131.694518 118.099278 
L 132.577528 126.274838 
L 133.239785 130.920867 
L 133.902042 134.234305 
L 134.453923 135.891027 
L 135.447308 139.456579 
L 136.109565 141.005254 
L 136.882199 142.193771 
L 137.434079 143.022131 
L 137.544456 143.058147 
L 137.765208 143.382288 
L 137.98596 143.526351 
L 138.206713 143.742445 
L 139.420851 144.858931 
L 140.634989 144.966978 
L 140.745365 145.147056 
L 140.966117 145.075025 
L 141.076493 145.075025 
L 141.297246 145.363151 
L 141.517998 145.147056 
L 141.628374 145.399166 
L 141.73875 145.255103 
L 141.849127 145.327135 
L 142.069879 145.255103 
L 142.290631 145.363151 
L 142.732136 145.795339 
L 142.952888 145.86737 
L 143.504769 146.263542 
L 143.615145 146.335574 
L 143.835898 146.695731 
L 143.946274 146.731746 
L 144.498155 147.596122 
L 144.608531 147.560106 
L 144.93966 148.352451 
L 145.050036 148.388467 
L 145.822669 150.909564 
L 146.264174 153.430662 
L 146.595302 156.780119 
L 147.036807 164.019265 
L 147.367935 173.671471 
L 147.699064 190.310701 
L 148.030193 219.41134 
L 148.361321 243.757914 
L 148.471697 243.505801 
L 148.69245 232.881187 
L 150.237716 129.336175 
L 150.679221 101.099865 
L 151.010349 94.689071 
L 151.231102 94.004771 
L 151.341478 94.220865 
L 151.672606 96.561883 
L 154.211259 125.950698 
L 155.535773 134.090239 
L 157.63292 140.609081 
L 157.964049 141.257363 
L 159.288563 143.238225 
L 159.619691 143.562367 
L 159.840444 143.850492 
L 160.061196 144.03057 
L 161.606462 145.039009 
L 161.827215 145.002994 
L 162.489472 145.147056 
L 162.710224 145.183072 
L 164.917748 146.011433 
L 165.1385 146.407605 
L 165.248876 146.515652 
L 165.359253 146.443621 
L 166.131886 147.596122 
L 166.352638 147.848233 
L 166.573391 148.172373 
L 167.235648 149.829094 
L 168.008281 153.934881 
L 168.449786 159.013088 
L 168.89129 168.557247 
L 169.222419 181.342806 
L 169.553547 204.06868 
L 169.995052 242.857521 
L 170.105428 244.586268 
L 170.215804 241.993148 
L 170.657309 214.657275 
L 171.319566 176.552723 
L 171.761071 144.174633 
L 172.202576 107.870819 
L 172.533704 96.705949 
L 172.754457 94.220865 
L 172.864833 93.752659 
L 172.975209 93.896725 
L 173.195961 95.121257 
L 173.52709 98.182594 
L 174.741228 114.173567 
L 175.624237 123.645699 
L 176.727999 131.713213 
L 178.71477 139.20447 
L 179.377027 140.717128 
L 179.928908 141.905645 
L 180.039284 141.941661 
L 180.370413 142.445881 
L 180.591165 142.661975 
L 181.915679 144.246665 
L 182.577936 144.570806 
L 183.681698 145.219088 
L 184.233579 145.111041 
L 184.564708 145.291119 
L 184.895836 145.399166 
L 185.116588 145.435182 
L 186.441103 145.86737 
L 187.10336 146.803778 
L 187.324112 147.163935 
L 187.765617 147.560106 
L 187.875993 147.596122 
L 188.207121 148.02831 
L 188.317498 148.208389 
L 189.421259 152.386207 
L 189.752388 154.691211 
L 190.193893 160.165593 
L 190.525021 167.332715 
L 190.85615 179.397955 
L 191.187278 200.251017 
L 191.739159 244.658306 
L 191.849535 243.937988 
L 192.070288 232.881187 
L 193.615554 127.85953 
L 194.057059 100.307519 
L 194.277811 95.553444 
L 194.498564 93.752659 
L 194.60894 93.824697 
L 194.829692 94.689071 
L 195.381573 100.343539 
L 196.816463 118.747558 
L 197.589097 125.914679 
L 198.472106 132.001334 
L 199.023987 134.414379 
L 199.465492 136.035089 
L 200.569253 139.78072 
L 200.67963 139.960798 
L 200.790006 140.392987 
L 200.900382 140.356971 
L 201.341887 141.437441 
L 201.673015 141.977677 
L 203.328658 143.994554 
L 203.770163 144.390727 
L 204.101291 144.570806 
L 204.43242 144.678853 
L 205.094677 145.002994 
L 205.425805 145.183072 
L 205.536181 145.075025 
L 205.756934 145.183072 
L 205.86731 145.291119 
L 205.977686 145.219088 
L 206.088062 145.327135 
L 206.308815 145.219088 
L 206.971072 145.579245 
L 207.191824 145.651276 
L 207.522953 145.939401 
L 207.743705 145.86737 
L 208.074834 145.975417 
L 208.405962 146.371589 
L 208.516338 146.407605 
L 209.399348 147.668154 
L 210.061605 148.460499 
L 210.834238 150.94558 
L 211.165367 152.818395 
L 211.606871 156.52801 
L 211.938 161.354107 
L 212.269128 169.277555 
L 212.600257 182.639366 
L 212.931385 205.869465 
L 213.37289 244.154081 
L 213.483266 245.306586 
L 213.704019 236.086578 
L 215.249285 131.893287 
L 215.69079 102.036277 
L 215.911542 96.165716 
L 216.132295 93.860705 
L 216.242671 93.716651 
L 216.353047 93.788678 
L 216.573799 95.121257 
L 216.904928 98.32666 
L 218.670947 120.476315 
L 219.44358 127.355305 
L 220.216213 132.505548 
L 220.768094 134.738525 
L 221.430351 136.899466 
L 222.092608 139.420564 
L 222.975618 141.257363 
L 223.417122 142.013693 
L 223.637875 142.373849 
L 224.079379 143.130179 
L 224.410508 143.346272 
L 225.955774 144.750884 
L 226.397279 144.858931 
L 226.618032 144.966978 
L 228.273674 145.471198 
L 228.38405 145.399166 
L 228.604803 145.579245 
L 228.715179 145.543229 
L 229.377436 146.11948 
L 229.708565 146.083464 
L 229.929317 146.083464 
L 230.150069 146.443621 
L 230.591574 147.019872 
L 231.805712 148.712608 
L 232.13684 149.685032 
L 232.357593 150.297298 
L 233.130226 155.231445 
L 233.571731 160.705827 
L 233.902859 167.980995 
L 234.233988 180.22632 
L 234.565116 201.835709 
L 235.116997 245.882839 
L 235.227373 244.442213 
L 235.558502 225.570022 
L 237.545273 96.597902 
L 237.766026 93.716651 
L 237.986778 93.104379 
L 238.20753 94.112818 
L 238.649035 98.758847 
L 240.415054 121.088576 
L 241.077311 126.851091 
L 241.96032 132.649613 
L 242.401825 134.774541 
L 242.732954 135.566886 
L 243.174458 137.223607 
L 243.726339 139.2765 
L 243.947092 139.816736 
L 244.719725 141.437441 
L 245.050853 141.833614 
L 245.602734 142.842054 
L 246.044239 143.382288 
L 246.264991 143.598382 
L 246.816872 144.138618 
L 246.927248 144.066586 
L 247.148001 144.354711 
L 247.920634 144.966978 
L 248.141386 145.111041 
L 248.251762 145.219088 
L 248.472515 145.111041 
L 248.693267 145.183072 
L 249.134772 145.219088 
L 249.4659 145.399166 
L 249.686653 145.543229 
L 249.797029 145.759323 
L 250.459286 145.651276 
L 250.790415 145.86737 
L 251.342295 146.263542 
L 251.452672 146.155495 
L 251.894176 146.587684 
L 252.004553 146.623699 
L 252.225305 146.983856 
L 253.218691 148.424483 
L 253.991324 150.36933 
L 254.432828 152.170113 
L 254.984709 157.068248 
L 255.426214 164.163331 
L 255.757343 173.743498 
L 256.088471 189.986562 
L 256.4196 218.835098 
L 256.750728 245.414633 
L 256.861104 245.954866 
L 257.081857 236.482757 
L 258.516747 142.193771 
L 258.958252 106.358155 
L 259.28938 95.553444 
L 259.510133 93.320472 
L 259.620509 93.06836 
L 259.730885 93.176417 
L 259.951637 94.472977 
L 260.393142 99.551193 
L 262.600666 125.662577 
L 263.373299 131.100941 
L 263.814804 133.550006 
L 264.145932 134.954619 
L 264.587437 136.539309 
L 264.808189 137.187591 
L 265.580822 139.600641 
L 266.132703 140.897206 
L 266.684584 141.905645 
L 267.015713 142.337834 
L 267.457218 142.986116 
L 268.560979 144.246665 
L 268.671355 144.282681 
L 268.671355 144.282681 
" clip-path="url(#p1d97cda355)" style="fill: none; stroke: #333333; stroke-width: 0.8; stroke-linecap: square"/>
   </g>
   <g id="line2d_16">
    <path d="M 268.671355 146.767762 
L 268.781732 146.731746 
L 269.002484 146.911824 
L 269.11286 146.767762 
L 269.333613 146.94784 
L 269.664741 147.127919 
L 269.885493 147.199951 
L 270.326998 147.848233 
L 270.437374 147.884248 
L 271.320384 150.477376 
L 271.761888 153.35863 
L 272.093017 157.032229 
L 272.424146 163.767164 
L 272.755274 176.840843 
L 272.976026 193.191953 
L 273.307155 233.313385 
L 273.417531 232.557047 
L 274.410917 187.465469 
L 274.852421 174.319751 
L 275.073174 162.794733 
L 275.625055 123.24952 
L 275.956183 111.652464 
L 276.176936 108.591138 
L 276.397688 107.654726 
L 276.508064 107.762773 
L 276.728816 108.771212 
L 277.170321 112.840988 
L 279.267469 131.641174 
L 279.819349 134.918603 
L 281.25424 139.744705 
L 281.916497 141.005254 
L 282.909882 142.806038 
L 284.12402 143.886508 
L 284.234397 143.850492 
L 284.565525 144.210649 
L 285.558911 144.750884 
L 285.779663 144.822915 
L 286.000415 144.930962 
L 287.214553 145.61526 
L 288.097563 145.651276 
L 288.207939 145.86737 
L 288.318315 145.759323 
L 288.539068 146.047448 
L 288.649444 145.903386 
L 288.980572 146.011433 
L 289.090948 146.047448 
L 289.201325 145.939401 
L 289.311701 146.083464 
L 289.422077 146.011433 
L 289.532453 146.191511 
L 289.973958 146.155495 
L 290.19471 146.11948 
L 290.415463 146.479636 
L 290.525839 146.479636 
L 290.636215 146.623699 
L 290.746591 146.515652 
L 290.856967 146.695731 
L 290.967343 146.659715 
L 291.188096 146.767762 
L 291.298472 146.695731 
L 291.519224 146.911824 
L 291.629601 146.839793 
L 291.850353 147.019872 
L 292.291858 147.380028 
L 292.622986 147.812217 
L 292.954115 148.244405 
L 293.505996 150.045189 
L 293.837124 151.954019 
L 294.168253 154.871288 
L 294.499381 159.985508 
L 294.83051 169.673733 
L 295.161638 190.058589 
L 295.492767 226.578461 
L 295.603143 226.038217 
L 296.596529 183.791871 
L 297.038033 171.222406 
L 297.258786 159.697388 
L 297.810667 121.052568 
L 298.141795 109.743632 
L 298.362547 106.934407 
L 298.5833 106.106053 
L 298.804052 106.86238 
L 299.024805 108.555119 
L 299.687062 115.290053 
L 300.570071 124.293979 
L 301.563457 132.10938 
L 302.667218 137.475716 
L 303.881356 140.356971 
L 304.102109 140.825175 
L 304.543613 141.797598 
L 304.65399 141.941661 
L 304.874742 142.445881 
L 304.985118 142.517912 
L 305.20587 142.806038 
L 305.647375 143.310257 
L 305.978504 143.382288 
L 306.199256 143.634398 
L 307.192642 144.462759 
L 308.075651 144.858931 
L 308.627532 145.291119 
L 308.737908 145.291119 
L 308.958661 145.435182 
L 309.731294 145.507213 
L 309.952046 145.579245 
L 310.393551 145.687292 
L 310.614303 145.831354 
L 310.724679 145.831354 
L 310.835056 146.011433 
L 310.945432 145.86737 
L 311.055808 146.011433 
L 311.386936 145.903386 
L 311.497313 145.86737 
L 311.828441 146.047448 
L 312.380322 146.155495 
L 313.373708 146.695731 
L 313.59446 146.767762 
L 313.704836 146.839793 
L 313.815212 146.731746 
L 315.139727 148.172373 
L 315.691607 150.225267 
L 316.022736 151.990035 
L 316.353865 154.979336 
L 316.684993 160.381687 
L 317.016122 170.069901 
L 317.236874 182.063114 
L 317.457626 202.700082 
L 317.678379 227.154702 
L 317.788755 226.110255 
L 318.671764 185.592645 
L 319.002893 178.389516 
L 319.334021 166.324276 
L 320.217031 111.940596 
L 320.548159 106.646287 
L 320.768912 106.034015 
L 320.879288 106.142062 
L 321.10004 107.438633 
L 322.093426 117.487006 
L 322.645307 123.213501 
L 323.528316 130.560708 
L 324.632078 136.503293 
L 325.515087 139.384548 
L 326.508473 141.185332 
L 326.839601 142.157755 
L 326.949978 142.085724 
L 327.501859 142.842054 
L 328.164116 143.346272 
L 328.715996 143.994554 
L 328.936749 144.102602 
L 330.261263 144.930962 
L 330.482015 144.966978 
L 331.033896 145.363151 
L 331.144272 145.435182 
L 331.365025 145.399166 
L 331.475401 145.435182 
L 331.585777 145.291119 
L 331.806529 145.435182 
L 332.027282 145.399166 
L 332.248034 145.651276 
L 332.35841 145.795339 
L 332.468787 145.579245 
L 332.579163 145.759323 
L 332.799915 145.723307 
L 332.910291 145.939401 
L 333.020667 145.759323 
L 333.462172 145.939401 
L 333.572548 145.975417 
L 333.793301 145.759323 
L 334.565934 146.155495 
L 335.007439 146.371589 
L 335.228191 146.515652 
L 335.338567 146.479636 
L 335.448943 146.659715 
L 335.669696 146.587684 
L 335.890448 146.839793 
L 336.000824 146.695731 
L 336.331953 146.983856 
L 336.442329 147.055887 
L 336.663081 147.344013 
L 336.883834 147.45206 
L 337.214962 147.920263 
L 337.546091 148.820655 
L 337.877219 150.261282 
L 338.318724 152.710348 
L 338.760229 158.076688 
L 339.091357 166.18021 
L 339.422486 182.315226 
L 339.643238 203.4204 
L 339.86399 227.586889 
L 339.974367 226.146263 
L 340.857376 185.232497 
L 341.078128 180.946628 
L 341.409257 170.718181 
L 341.630009 158.833014 
L 342.18189 120.044129 
L 342.513019 109.131371 
L 342.733771 106.502221 
L 342.954523 105.88996 
L 343.0649 106.106053 
L 343.396028 108.375044 
L 345.824304 131.353054 
L 347.369571 138.520171 
L 347.700699 139.168454 
L 348.142204 139.924783 
L 348.473332 140.681113 
L 348.914837 141.797598 
L 349.025213 141.797598 
L 349.245966 142.265802 
L 349.577094 142.734006 
L 350.018599 143.130179 
L 350.239351 143.166195 
L 351.122361 144.138618 
L 351.453489 144.354711 
L 352.00537 144.606821 
L 352.336499 144.7869 
L 352.667627 145.002994 
L 352.998756 145.219088 
L 353.661013 145.399166 
L 353.881765 145.327135 
L 355.75816 145.831354 
L 355.868536 145.759323 
L 356.310041 146.047448 
L 356.751546 146.11948 
L 356.972298 146.263542 
L 357.082674 146.335574 
L 357.303427 146.263542 
L 357.413803 146.443621 
L 357.634555 146.407605 
L 357.855308 146.515652 
L 358.186436 146.695731 
L 358.517565 146.875809 
L 359.51095 147.956279 
L 360.173207 150.621439 
L 360.725088 155.051367 
L 361.056217 160.309659 
L 361.387345 170.574115 
L 361.718474 192.183514 
L 362.049602 227.622908 
L 362.159979 225.894162 
L 363.042988 185.448591 
L 363.374116 178.101395 
L 363.705245 165.928097 
L 364.588254 111.220277 
L 364.919383 106.250108 
L 365.140135 105.56582 
L 365.360888 106.502221 
L 365.692016 109.347464 
L 367.568411 127.895549 
L 368.009916 131.13696 
L 369.555182 138.268062 
L 369.996687 139.348532 
L 370.327816 139.852752 
L 371.210825 141.86963 
L 371.321201 141.905645 
L 371.541954 142.409865 
L 371.873082 142.661975 
L 371.983458 142.661975 
L 372.314587 143.022131 
L 372.645715 143.346272 
L 373.08722 143.886508 
L 374.190982 144.498774 
L 374.52211 144.642837 
L 374.963615 145.075025 
L 375.294744 145.147056 
L 375.515496 145.255103 
L 376.177753 145.327135 
L 376.508882 145.61526 
L 376.619258 145.471198 
L 376.950386 145.651276 
L 377.060763 145.61526 
L 377.171139 145.759323 
L 377.502267 145.543229 
L 377.72302 145.651276 
L 377.833396 145.723307 
L 378.054148 145.651276 
L 378.495653 145.939401 
L 378.606029 145.975417 
L 378.826781 145.903386 
L 378.937158 145.831354 
L 379.268286 146.11948 
L 379.820167 146.335574 
L 380.261672 146.767762 
L 380.703176 146.875809 
L 381.144681 147.091903 
L 381.806938 148.316436 
L 382.358819 150.513392 
L 382.9107 155.015352 
L 383.241829 160.561761 
L 383.572957 170.790219 
L 383.904086 192.65172 
L 384.235214 227.839002 
L 384.34559 225.894162 
L 385.2286 185.340544 
L 385.449352 180.8746 
L 385.780481 170.574115 
L 386.001233 158.004649 
L 386.553114 119.251783 
L 386.884242 108.591138 
L 387.104995 106.106053 
L 387.215371 105.601828 
L 387.436123 105.88996 
L 387.656876 107.330586 
L 388.319133 114.029501 
L 389.422895 125.122333 
L 389.974775 129.516249 
L 390.747409 134.234305 
L 390.968161 135.206729 
L 391.409666 137.187591 
L 392.292675 139.456579 
L 392.844556 140.53705 
L 393.948318 142.517912 
L 394.058694 142.481897 
L 394.279446 142.770022 
L 394.500199 142.878068 
L 395.493584 143.994554 
L 396.155841 144.318695 
L 397.590732 145.219088 
L 398.032236 145.147056 
L 398.473741 145.363151 
L 398.694494 145.291119 
L 399.025622 145.543229 
L 399.356751 145.507213 
L 399.467127 145.579245 
L 399.687879 145.543229 
L 399.798255 145.61526 
L 400.019008 145.471198 
L 400.129384 145.543229 
L 400.23976 145.471198 
L 400.460512 145.831354 
L 400.570889 145.687292 
L 400.681265 145.795339 
L 400.902017 145.687292 
L 401.122769 146.011433 
L 401.343522 145.903386 
L 401.67465 145.831354 
L 402.005779 146.371589 
L 402.336907 146.443621 
L 402.668036 146.659715 
L 402.888788 146.659715 
L 403.109541 146.839793 
L 403.440669 147.091903 
L 403.551045 147.163935 
L 404.102926 148.460499 
L 404.985936 153.718787 
L 405.206688 156.419963 
L 405.537817 163.118873 
L 405.868945 176.516703 
L 406.089697 193.047887 
L 406.420826 228.23518 
L 406.531202 225.750096 
L 407.303835 186.565076 
L 407.524588 183.251627 
L 407.855716 174.211704 
L 408.076469 165.027704 
L 408.959478 110.716063 
L 409.290607 105.925968 
L 409.511359 105.493782 
L 409.732111 106.394174 
L 410.283992 111.43637 
L 411.939635 127.787503 
L 412.491516 131.641174 
L 413.705654 137.583764 
L 414.478287 139.312516 
L 414.699039 139.636657 
L 415.913177 142.157755 
L 416.244306 142.589943 
L 416.354682 142.481897 
L 416.575434 142.806038 
L 418.010325 144.138618 
L 418.231077 144.174633 
L 418.672582 144.462759 
L 419.665967 145.147056 
L 419.88672 145.075025 
L 420.107472 145.183072 
L 420.438601 145.147056 
L 420.548977 145.255103 
L 420.659353 145.147056 
L 421.100858 145.327135 
L 421.763115 145.435182 
L 421.983867 145.219088 
L 422.535748 145.579245 
L 422.646124 145.291119 
L 422.866877 145.687292 
L 423.198005 145.579245 
L 423.308381 145.61526 
L 423.63951 146.011433 
L 423.749886 145.939401 
L 423.860262 145.651276 
L 424.301767 146.227527 
L 424.412143 146.155495 
L 424.632895 146.443621 
L 424.743272 146.371589 
L 424.853648 146.515652 
L 424.964024 146.443621 
L 425.184776 146.551668 
L 425.295153 146.479636 
L 425.95741 147.488076 
L 426.950795 151.809957 
L 427.171548 153.61074 
L 427.502676 158.256762 
L 427.833805 166.756462 
L 428.164933 183.935926 
L 428.606438 228.055095 
L 428.716814 225.425956 
L 429.489447 186.565076 
L 429.7102 183.179599 
L 430.041328 173.995611 
L 430.262081 164.739584 
L 431.034714 113.813408 
L 431.365842 106.646287 
L 431.586595 105.457762 
L 431.696971 105.241669 
L 431.807347 105.601828 
L 432.359228 110.13981 
L 433.573366 122.817334 
L 434.89788 132.721652 
L 435.560137 135.999073 
L 436.33277 138.340093 
L 436.553523 138.736266 
L 436.774275 138.988375 
L 436.884651 139.096423 
L 436.995027 139.924783 
L 437.105404 139.888768 
L 437.546908 141.077284 
L 437.657284 141.149316 
L 437.878037 141.653536 
L 437.988413 141.473457 
L 438.098789 141.941661 
L 438.209165 141.86963 
L 438.319542 141.941661 
L 438.540294 142.625959 
L 438.65067 142.337834 
L 438.761046 142.661975 
L 438.871422 142.481897 
L 439.202551 143.20221 
L 439.423303 143.418304 
L 439.644056 143.634398 
L 439.754432 143.598382 
L 439.864808 143.742445 
L 439.975184 143.634398 
L 440.08556 143.922524 
L 440.195937 143.850492 
L 440.306313 144.066586 
L 440.416689 143.994554 
L 440.637441 144.246665 
L 441.189322 144.714868 
L 441.299698 144.678853 
L 441.410075 144.822915 
L 441.520451 144.750884 
L 441.630827 144.930962 
L 441.851579 144.714868 
L 441.961955 144.930962 
L 442.072332 144.858931 
L 442.293084 145.075025 
L 442.513836 145.002994 
L 442.844965 145.183072 
L 443.28647 145.219088 
L 444.72136 145.219088 
L 444.942112 145.579245 
L 445.273241 145.579245 
L 445.604369 145.579245 
L 445.825122 145.831354 
L 445.935498 145.86737 
L 446.045874 145.723307 
L 446.377003 146.155495 
L 446.487379 145.975417 
L 446.708131 146.407605 
L 446.818507 146.083464 
L 446.928883 146.443621 
L 447.03926 146.263542 
L 447.370388 146.335574 
L 447.591141 146.695731 
L 447.811893 146.875809 
L 448.032645 147.344013 
L 448.363774 148.136358 
L 448.915655 150.477376 
L 449.357159 153.574725 
L 449.688288 158.292781 
L 450.019416 166.936536 
L 450.350545 184.512179 
L 450.571297 207.418138 
L 450.79205 228.343227 
L 450.902426 225.317909 
L 451.675059 186.276945 
L 451.895811 182.963506 
L 452.22694 173.635452 
L 452.447692 164.19935 
L 453.220326 113.561295 
L 453.441078 107.762773 
L 453.66183 105.709875 
L 453.882583 105.313708 
L 454.103335 106.358155 
L 454.434464 109.239418 
L 454.765592 112.336763 
L 455.97973 125.086325 
L 456.641987 129.948436 
L 457.304244 134.018212 
L 457.41462 134.306333 
L 457.966501 136.827434 
L 458.29763 137.979936 
L 458.628758 138.628218 
L 458.959887 139.096423 
L 459.401392 140.28494 
L 459.622144 140.789159 
L 460.174025 141.833614 
L 460.505153 142.12174 
L 460.836282 142.553927 
L 460.946658 142.481897 
L 461.277787 143.022131 
L 461.388163 143.058147 
L 461.719291 143.598382 
L 461.940044 143.598382 
L 464.147567 144.930962 
L 464.257943 144.966978 
L 464.478696 144.894947 
L 464.699448 144.966978 
L 465.030577 145.147056 
L 465.140953 145.075025 
L 465.361705 145.147056 
L 465.582458 145.039009 
L 466.244715 145.183072 
L 466.465467 145.183072 
L 466.575843 145.219088 
L 466.686219 145.399166 
L 466.796596 145.327135 
L 466.906972 145.507213 
L 467.127724 145.471198 
L 467.2381 145.543229 
L 467.458853 145.363151 
L 467.679605 145.471198 
L 468.12111 145.507213 
L 468.231486 145.795339 
L 468.341862 145.759323 
L 468.672991 146.11948 
L 468.783367 146.083464 
L 469.004119 146.335574 
L 469.114495 146.191511 
L 469.335248 146.479636 
L 469.445624 146.263542 
L 470.328633 147.524092 
L 470.659762 148.53253 
L 471.101267 150.225267 
L 471.542771 153.682771 
L 471.8739 158.436836 
L 472.205028 167.296696 
L 472.536157 185.124451 
L 472.977662 228.199161 
L 473.198414 218.727052 
L 473.860671 186.384991 
L 474.081423 183.071553 
L 474.522928 169.205527 
L 474.74368 155.44754 
L 475.185185 122.709287 
L 475.516314 109.923717 
L 475.847442 105.673867 
L 476.068195 105.313708 
L 476.399323 107.150501 
L 477.392709 117.090838 
L 478.054966 124.113894 
L 479.158728 132.001334 
L 479.820985 135.638917 
L 480.041737 136.35923 
L 480.372865 137.727827 
L 480.924746 138.916344 
L 481.145499 139.2765 
L 481.807756 141.077284 
L 482.028508 141.329395 
L 482.249261 141.761583 
L 482.470013 141.905645 
L 483.021894 142.625959 
L 483.463398 143.166195 
L 483.794527 143.562367 
L 484.346408 143.814477 
L 484.456784 143.850492 
L 484.677536 144.066586 
L 485.119041 144.462759 
L 485.670922 144.858931 
L 486.333179 144.930962 
L 486.553931 145.002994 
L 486.88506 145.075025 
L 486.995436 145.183072 
L 487.216189 145.111041 
L 487.878446 145.183072 
L 487.988822 145.291119 
L 488.209574 145.219088 
L 488.540703 145.291119 
L 488.761455 145.435182 
L 489.313336 145.471198 
L 489.313336 145.471198 
" clip-path="url(#p1d97cda355)" style="fill: none; stroke: #d94452; stroke-width: 0.8; stroke-linecap: square"/>
   </g>
   <g id="text_17">
    <g id="patch_7">
     <path d="M 99.650365 263.690638 
L 217.050365 263.690638 
Q 220.050365 263.690638 220.050365 260.690638 
L 220.050365 250.090638 
Q 220.050365 247.090638 217.050365 247.090638 
L 99.650365 247.090638 
Q 96.650365 247.090638 96.650365 250.090638 
L 96.650365 260.690638 
Q 96.650365 263.690638 99.650365 263.690638 
z
" style="fill: #ffffff; opacity: 0.85; stroke: #333333; stroke-linejoin: miter"/>
    </g>
    <!-- I$_{p-p}$ = 3.42E-03 mA/m² -->
    <g style="fill: #333333" transform="translate(99.650365 257.590638) scale(0.1 -0.1)">
     <defs>
      <path id="DejaVuSans-49" d="M 628 4666 
L 1259 4666 
L 1259 0 
L 628 0 
L 628 4666 
z
" transform="scale(0.015625)"/>
      <path id="DejaVuSans-Oblique-70" d="M 3175 2156 
Q 3175 2616 2975 2859 
Q 2775 3103 2400 3103 
Q 2144 3103 1911 2972 
Q 1678 2841 1497 2591 
Q 1319 2344 1212 1994 
Q 1106 1644 1106 1300 
Q 1106 863 1306 627 
Q 1506 391 1875 391 
Q 2147 391 2380 519 
Q 2613 647 2778 891 
Q 2956 1147 3065 1494 
Q 3175 1841 3175 2156 
z
M 1394 2969 
Q 1625 3272 1939 3428 
Q 2253 3584 2638 3584 
Q 3175 3584 3472 3232 
Q 3769 2881 3769 2247 
Q 3769 1728 3584 1258 
Q 3400 788 3053 416 
Q 2822 169 2531 39 
Q 2241 -91 1919 -91 
Q 1547 -91 1294 64 
Q 1041 219 916 525 
L 556 -1331 
L -19 -1331 
L 922 3500 
L 1497 3500 
L 1394 2969 
z
" transform="scale(0.015625)"/>
      <path id="DejaVuSans-20" transform="scale(0.015625)"/>
      <path id="DejaVuSans-3d" d="M 678 2906 
L 4684 2906 
L 4684 2381 
L 678 2381 
L 678 2906 
z
M 678 1631 
L 4684 1631 
L 4684 1100 
L 678 1100 
L 678 1631 
z
" transform="scale(0.015625)"/>
      <path id="DejaVuSans-34" d="M 2419 4116 
L 825 1625 
L 2419 1625 
L 2419 4116 
z
M 2253 4666 
L 3047 4666 
L 3047 1625 
L 3713 1625 
L 3713 1100 
L 3047 1100 
L 3047 0 
L 2419 0 
L 2419 1100 
L 313 1100 
L 313 1709 
L 2253 4666 
z
" transform="scale(0.015625)"/>
      <path id="DejaVuSans-45" d="M 628 4666 
L 3578 4666 
L 3578 4134 
L 1259 4134 
L 1259 2753 
L 3481 2753 
L 3481 2222 
L 1259 2222 
L 1259 531 
L 3634 531 
L 3634 0 
L 628 0 
L 628 4666 
z
" transform="scale(0.015625)"/>
      <path id="DejaVuSans-2d" d="M 313 2009 
L 1997 2009 
L 1997 1497 
L 313 1497 
L 313 2009 
z
" transform="scale(0.015625)"/>
      <path id="DejaVuSans-6d" d="M 3328 2828 
Q 3544 3216 3844 3400 
Q 4144 3584 4550 3584 
Q 5097 3584 5394 3201 
Q 5691 2819 5691 2113 
L 5691 0 
L 5113 0 
L 5113 2094 
Q 5113 2597 4934 2840 
Q 4756 3084 4391 3084 
Q 3944 3084 3684 2787 
Q 3425 2491 3425 1978 
L 3425 0 
L 2847 0 
L 2847 2094 
Q 2847 2600 2669 2842 
Q 2491 3084 2119 3084 
Q 1678 3084 1418 2786 
Q 1159 2488 1159 1978 
L 1159 0 
L 581 0 
L 581 3500 
L 1159 3500 
L 1159 2956 
Q 1356 3278 1631 3431 
Q 1906 3584 2284 3584 
Q 2666 3584 2933 3390 
Q 3200 3197 3328 2828 
z
" transform="scale(0.015625)"/>
      <path id="DejaVuSans-41" d="M 2188 4044 
L 1331 1722 
L 3047 1722 
L 2188 4044 
z
M 1831 4666 
L 2547 4666 
L 4325 0 
L 3669 0 
L 3244 1197 
L 1141 1197 
L 716 0 
L 50 0 
L 1831 4666 
z
" transform="scale(0.015625)"/>
      <path id="DejaVuSans-2f" d="M 1625 4666 
L 2156 4666 
L 531 -594 
L 0 -594 
L 1625 4666 
z
" transform="scale(0.015625)"/>
      <path id="DejaVuSans-b2" d="M 838 2444 
L 2163 2444 
L 2163 2088 
L 294 2088 
L 294 2431 
Q 400 2528 597 2703 
Q 1672 3656 1672 3950 
Q 1672 4156 1509 4282 
Q 1347 4409 1081 4409 
Q 919 4409 728 4354 
Q 538 4300 313 4191 
L 313 4575 
Q 553 4663 761 4706 
Q 969 4750 1147 4750 
Q 1600 4750 1872 4544 
Q 2144 4338 2144 4000 
Q 2144 3566 1109 2678 
Q 934 2528 838 2444 
z
" transform="scale(0.015625)"/>
     </defs>
     <use xlink:href="#DejaVuSans-49" transform="translate(0 0.78125)"/>
     <use xlink:href="#DejaVuSans-Oblique-70" transform="translate(30.449219 -15.625) scale(0.7)"/>
     <use xlink:href="#DejaVuSans-2212" transform="translate(88.520508 -15.625) scale(0.7)"/>
     <use xlink:href="#DejaVuSans-Oblique-70" transform="translate(160.810547 -15.625) scale(0.7)"/>
     <use xlink:href="#DejaVuSans-20" transform="translate(207.978516 0.78125)"/>
     <use xlink:href="#DejaVuSans-3d" transform="translate(239.765625 0.78125)"/>
     <use xlink:href="#DejaVuSans-20" transform="translate(323.554688 0.78125)"/>
     <use xlink:href="#DejaVuSans-33" transform="translate(355.341797 0.78125)"/>
     <use xlink:href="#DejaVuSans-2e" transform="translate(418.964844 0.78125)"/>
     <use xlink:href="#DejaVuSans-34" transform="translate(450.751953 0.78125)"/>
     <use xlink:href="#DejaVuSans-32" transform="translate(514.375 0.78125)"/>
     <use xlink:href="#DejaVuSans-45" transform="translate(577.998047 0.78125)"/>
     <use xlink:href="#DejaVuSans-2d" transform="translate(641.181641 0.78125)"/>
     <use xlink:href="#DejaVuSans-30" transform="translate(677.265625 0.78125)"/>
     <use xlink:href="#DejaVuSans-33" transform="translate(740.888672 0.78125)"/>
     <use xlink:href="#DejaVuSans-20" transform="translate(804.511719 0.78125)"/>
     <use xlink:href="#DejaVuSans-6d" transform="translate(836.298828 0.78125)"/>
     <use xlink:href="#DejaVuSans-41" transform="translate(933.710938 0.78125)"/>
     <use xlink:href="#DejaVuSans-2f" transform="translate(1002.119141 0.78125)"/>
     <use xlink:href="#DejaVuSans-6d" transform="translate(1035.810547 0.78125)"/>
     <use xlink:href="#DejaVuSans-b2" transform="translate(1133.222656 0.78125)"/>
    </g>
   </g>
   <g id="text_18">
    <g id="patch_8">
     <path d="M 320.442346 263.690638 
L 437.542346 263.690638 
Q 440.542346 263.690638 440.542346 260.690638 
L 440.542346 250.090638 
Q 440.542346 247.090638 437.542346 247.090638 
L 320.442346 247.090638 
Q 317.442346 247.090638 317.442346 250.090638 
L 317.442346 260.690638 
Q 317.442346 263.690638 320.442346 263.690638 
z
" style="fill: #ffffff; opacity: 0.85; stroke: #d94452; stroke-linejoin: miter"/>
    </g>
    <!-- I$_{p-p}$ = 2.86E-03 mA/m² -->
    <g style="fill: #d94452" transform="translate(320.442346 257.590638) scale(0.1 -0.1)">
     <defs>
      <path id="DejaVuSans-38" d="M 2034 2216 
Q 1584 2216 1326 1975 
Q 1069 1734 1069 1313 
Q 1069 891 1326 650 
Q 1584 409 2034 409 
Q 2484 409 2743 651 
Q 3003 894 3003 1313 
Q 3003 1734 2745 1975 
Q 2488 2216 2034 2216 
z
M 1403 2484 
Q 997 2584 770 2862 
Q 544 3141 544 3541 
Q 544 4100 942 4425 
Q 1341 4750 2034 4750 
Q 2731 4750 3128 4425 
Q 3525 4100 3525 3541 
Q 3525 3141 3298 2862 
Q 3072 2584 2669 2484 
Q 3125 2378 3379 2068 
Q 3634 1759 3634 1313 
Q 3634 634 3220 271 
Q 2806 -91 2034 -91 
Q 1263 -91 848 271 
Q 434 634 434 1313 
Q 434 1759 690 2068 
Q 947 2378 1403 2484 
z
M 1172 3481 
Q 1172 3119 1398 2916 
Q 1625 2713 2034 2713 
Q 2441 2713 2670 2916 
Q 2900 3119 2900 3481 
Q 2900 3844 2670 4047 
Q 2441 4250 2034 4250 
Q 1625 4250 1398 4047 
Q 1172 3844 1172 3481 
z
" transform="scale(0.015625)"/>
      <path id="DejaVuSans-36" d="M 2113 2584 
Q 1688 2584 1439 2293 
Q 1191 2003 1191 1497 
Q 1191 994 1439 701 
Q 1688 409 2113 409 
Q 2538 409 2786 701 
Q 3034 994 3034 1497 
Q 3034 2003 2786 2293 
Q 2538 2584 2113 2584 
z
M 3366 4563 
L 3366 3988 
Q 3128 4100 2886 4159 
Q 2644 4219 2406 4219 
Q 1781 4219 1451 3797 
Q 1122 3375 1075 2522 
Q 1259 2794 1537 2939 
Q 1816 3084 2150 3084 
Q 2853 3084 3261 2657 
Q 3669 2231 3669 1497 
Q 3669 778 3244 343 
Q 2819 -91 2113 -91 
Q 1303 -91 875 529 
Q 447 1150 447 2328 
Q 447 3434 972 4092 
Q 1497 4750 2381 4750 
Q 2619 4750 2861 4703 
Q 3103 4656 3366 4563 
z
" transform="scale(0.015625)"/>
     </defs>
     <use xlink:href="#DejaVuSans-49" transform="translate(0 0.78125)"/>
     <use xlink:href="#DejaVuSans-Oblique-70" transform="translate(30.449219 -15.625) scale(0.7)"/>
     <use xlink:href="#DejaVuSans-2212" transform="translate(88.520508 -15.625) scale(0.7)"/>
     <use xlink:href="#DejaVuSans-Oblique-70" transform="translate(160.810547 -15.625) scale(0.7)"/>
     <use xlink:href="#DejaVuSans-20" transform="translate(207.978516 0.78125)"/>
     <use xlink:href="#DejaVuSans-3d" transform="translate(239.765625 0.78125)"/>
     <use xlink:href="#DejaVuSans-20" transform="translate(323.554688 0.78125)"/>
     <use xlink:href="#DejaVuSans-32" transform="translate(355.341797 0.78125)"/>
     <use xlink:href="#DejaVuSans-2e" transform="translate(418.964844 0.78125)"/>
     <use xlink:href="#DejaVuSans-38" transform="translate(448.126953 0.78125)"/>
     <use xlink:href="#DejaVuSans-36" transform="translate(511.75 0.78125)"/>
     <use xlink:href="#DejaVuSans-45" transform="translate(575.373047 0.78125)"/>
     <use xlink:href="#DejaVuSans-2d" transform="translate(638.556641 0.78125)"/>
     <use xlink:href="#DejaVuSans-30" transform="translate(674.640625 0.78125)"/>
     <use xlink:href="#DejaVuSans-33" transform="translate(738.263672 0.78125)"/>
     <use xlink:href="#DejaVuSans-20" transform="translate(801.886719 0.78125)"/>
     <use xlink:href="#DejaVuSans-6d" transform="translate(833.673828 0.78125)"/>
     <use xlink:href="#DejaVuSans-41" transform="translate(931.085938 0.78125)"/>
     <use xlink:href="#DejaVuSans-2f" transform="translate(999.494141 0.78125)"/>
     <use xlink:href="#DejaVuSans-6d" transform="translate(1033.185547 0.78125)"/>
     <use xlink:href="#DejaVuSans-b2" transform="translate(1130.597656 0.78125)"/>
    </g>
   </g>
   <g id="text_19">
    <g id="patch_9">
     <path d="M 418.458411 48.3638 
L 476.074817 48.3638 
Q 481.274817 48.3638 481.274817 43.1638 
L 481.274817 30.582237 
Q 481.274817 25.382237 476.074817 25.382237 
L 418.458411 25.382237 
Q 413.258411 25.382237 413.258411 30.582237 
L 413.258411 43.1638 
Q 413.258411 48.3638 418.458411 48.3638 
z
" style="fill: #ffffff; opacity: 0.9; stroke: #f0ad4e; stroke-width: 1.5; stroke-linejoin: miter"/>
    </g>
    <!-- f = 5 Hz -->
    <g style="fill: #f0ad4e" transform="translate(418.458411 40.460206) scale(0.13 -0.13)">
     <defs>
      <path id="DejaVuSans-Bold-66" d="M 2841 4863 
L 2841 4128 
L 2222 4128 
Q 1984 4128 1890 4042 
Q 1797 3956 1797 3744 
L 1797 3500 
L 2753 3500 
L 2753 2700 
L 1797 2700 
L 1797 0 
L 678 0 
L 678 2700 
L 122 2700 
L 122 3500 
L 678 3500 
L 678 3744 
Q 678 4316 997 4589 
Q 1316 4863 1984 4863 
L 2841 4863 
z
" transform="scale(0.015625)"/>
      <path id="DejaVuSans-Bold-3d" d="M 678 3084 
L 4684 3084 
L 4684 2350 
L 678 2350 
L 678 3084 
z
M 678 1663 
L 4684 1663 
L 4684 922 
L 678 922 
L 678 1663 
z
" transform="scale(0.015625)"/>
      <path id="DejaVuSans-Bold-35" d="M 678 4666 
L 3669 4666 
L 3669 3781 
L 1638 3781 
L 1638 3059 
Q 1775 3097 1914 3117 
Q 2053 3138 2203 3138 
Q 3056 3138 3531 2711 
Q 4006 2284 4006 1522 
Q 4006 766 3489 337 
Q 2972 -91 2053 -91 
Q 1656 -91 1267 -14 
Q 878 63 494 219 
L 494 1166 
Q 875 947 1217 837 
Q 1559 728 1863 728 
Q 2300 728 2551 942 
Q 2803 1156 2803 1522 
Q 2803 1891 2551 2103 
Q 2300 2316 1863 2316 
Q 1603 2316 1309 2248 
Q 1016 2181 678 2041 
L 678 4666 
z
" transform="scale(0.015625)"/>
      <path id="DejaVuSans-Bold-48" d="M 588 4666 
L 1791 4666 
L 1791 2888 
L 3566 2888 
L 3566 4666 
L 4769 4666 
L 4769 0 
L 3566 0 
L 3566 1978 
L 1791 1978 
L 1791 0 
L 588 0 
L 588 4666 
z
" transform="scale(0.015625)"/>
      <path id="DejaVuSans-Bold-7a" d="M 366 3500 
L 3419 3500 
L 3419 2719 
L 1575 800 
L 3419 800 
L 3419 0 
L 288 0 
L 288 781 
L 2131 2700 
L 366 2700 
L 366 3500 
z
" transform="scale(0.015625)"/>
     </defs>
     <use xlink:href="#DejaVuSans-Bold-66"/>
     <use xlink:href="#DejaVuSans-Bold-20" transform="translate(43.505859 0)"/>
     <use xlink:href="#DejaVuSans-Bold-3d" transform="translate(78.320312 0)"/>
     <use xlink:href="#DejaVuSans-Bold-20" transform="translate(162.109375 0)"/>
     <use xlink:href="#DejaVuSans-Bold-35" transform="translate(196.923828 0)"/>
     <use xlink:href="#DejaVuSans-Bold-20" transform="translate(266.503906 0)"/>
     <use xlink:href="#DejaVuSans-Bold-48" transform="translate(301.318359 0)"/>
     <use xlink:href="#DejaVuSans-Bold-7a" transform="translate(385.009766 0)"/>
    </g>
   </g>
   <g id="text_20">
    <!-- Without MIC -->
    <g style="fill: #333333" transform="translate(109.618334 41.22005) scale(0.14 -0.14)">
     <defs>
      <path id="DejaVuSans-Bold-57" d="M 191 4666 
L 1344 4666 
L 2150 1275 
L 2950 4666 
L 4109 4666 
L 4909 1275 
L 5716 4666 
L 6859 4666 
L 5759 0 
L 4372 0 
L 3525 3547 
L 2688 0 
L 1300 0 
L 191 4666 
z
" transform="scale(0.015625)"/>
      <path id="DejaVuSans-Bold-74" d="M 1759 4494 
L 1759 3500 
L 2913 3500 
L 2913 2700 
L 1759 2700 
L 1759 1216 
Q 1759 972 1856 886 
Q 1953 800 2241 800 
L 2816 800 
L 2816 0 
L 1856 0 
Q 1194 0 917 276 
Q 641 553 641 1216 
L 641 2700 
L 84 2700 
L 84 3500 
L 641 3500 
L 641 4494 
L 1759 4494 
z
" transform="scale(0.015625)"/>
      <path id="DejaVuSans-Bold-68" d="M 4056 2131 
L 4056 0 
L 2931 0 
L 2931 347 
L 2931 1625 
Q 2931 2084 2911 2256 
Q 2891 2428 2841 2509 
Q 2775 2619 2662 2680 
Q 2550 2741 2406 2741 
Q 2056 2741 1856 2470 
Q 1656 2200 1656 1722 
L 1656 0 
L 538 0 
L 538 4863 
L 1656 4863 
L 1656 2988 
Q 1909 3294 2193 3439 
Q 2478 3584 2822 3584 
Q 3428 3584 3742 3212 
Q 4056 2841 4056 2131 
z
" transform="scale(0.015625)"/>
      <path id="DejaVuSans-Bold-6f" d="M 2203 2784 
Q 1831 2784 1636 2517 
Q 1441 2250 1441 1747 
Q 1441 1244 1636 976 
Q 1831 709 2203 709 
Q 2569 709 2762 976 
Q 2956 1244 2956 1747 
Q 2956 2250 2762 2517 
Q 2569 2784 2203 2784 
z
M 2203 3584 
Q 3106 3584 3614 3096 
Q 4122 2609 4122 1747 
Q 4122 884 3614 396 
Q 3106 -91 2203 -91 
Q 1297 -91 786 396 
Q 275 884 275 1747 
Q 275 2609 786 3096 
Q 1297 3584 2203 3584 
z
" transform="scale(0.015625)"/>
      <path id="DejaVuSans-Bold-75" d="M 500 1363 
L 500 3500 
L 1625 3500 
L 1625 3150 
Q 1625 2866 1622 2436 
Q 1619 2006 1619 1863 
Q 1619 1441 1641 1255 
Q 1663 1069 1716 984 
Q 1784 875 1895 815 
Q 2006 756 2150 756 
Q 2500 756 2700 1025 
Q 2900 1294 2900 1772 
L 2900 3500 
L 4019 3500 
L 4019 0 
L 2900 0 
L 2900 506 
Q 2647 200 2364 54 
Q 2081 -91 1741 -91 
Q 1134 -91 817 281 
Q 500 653 500 1363 
z
" transform="scale(0.015625)"/>
      <path id="DejaVuSans-Bold-4d" d="M 588 4666 
L 2119 4666 
L 3181 2169 
L 4250 4666 
L 5778 4666 
L 5778 0 
L 4641 0 
L 4641 3413 
L 3566 897 
L 2803 897 
L 1728 3413 
L 1728 0 
L 588 0 
L 588 4666 
z
" transform="scale(0.015625)"/>
      <path id="DejaVuSans-Bold-43" d="M 4288 256 
Q 3956 84 3597 -3 
Q 3238 -91 2847 -91 
Q 1681 -91 1000 561 
Q 319 1213 319 2328 
Q 319 3447 1000 4098 
Q 1681 4750 2847 4750 
Q 3238 4750 3597 4662 
Q 3956 4575 4288 4403 
L 4288 3438 
Q 3953 3666 3628 3772 
Q 3303 3878 2944 3878 
Q 2300 3878 1931 3465 
Q 1563 3053 1563 2328 
Q 1563 1606 1931 1193 
Q 2300 781 2944 781 
Q 3303 781 3628 887 
Q 3953 994 4288 1222 
L 4288 256 
z
" transform="scale(0.015625)"/>
     </defs>
     <use xlink:href="#DejaVuSans-Bold-57"/>
     <use xlink:href="#DejaVuSans-Bold-69" transform="translate(110.302734 0)"/>
     <use xlink:href="#DejaVuSans-Bold-74" transform="translate(144.580078 0)"/>
     <use xlink:href="#DejaVuSans-Bold-68" transform="translate(192.382812 0)"/>
     <use xlink:href="#DejaVuSans-Bold-6f" transform="translate(263.574219 0)"/>
     <use xlink:href="#DejaVuSans-Bold-75" transform="translate(332.275391 0)"/>
     <use xlink:href="#DejaVuSans-Bold-74" transform="translate(403.466797 0)"/>
     <use xlink:href="#DejaVuSans-Bold-20" transform="translate(451.269531 0)"/>
     <use xlink:href="#DejaVuSans-Bold-4d" transform="translate(486.083984 0)"/>
     <use xlink:href="#DejaVuSans-Bold-49" transform="translate(585.595703 0)"/>
     <use xlink:href="#DejaVuSans-Bold-43" transform="translate(622.802734 0)"/>
    </g>
   </g>
   <g id="text_21">
    <!-- With MIC -->
    <g style="fill: #d94452" transform="translate(343.398439 41.22005) scale(0.14 -0.14)">
     <use xlink:href="#DejaVuSans-Bold-57"/>
     <use xlink:href="#DejaVuSans-Bold-69" transform="translate(110.302734 0)"/>
     <use xlink:href="#DejaVuSans-Bold-74" transform="translate(144.580078 0)"/>
     <use xlink:href="#DejaVuSans-Bold-68" transform="translate(192.382812 0)"/>
     <use xlink:href="#DejaVuSans-Bold-20" transform="translate(263.574219 0)"/>
     <use xlink:href="#DejaVuSans-Bold-4d" transform="translate(298.388672 0)"/>
     <use xlink:href="#DejaVuSans-Bold-49" transform="translate(397.900391 0)"/>
     <use xlink:href="#DejaVuSans-Bold-43" transform="translate(435.107422 0)"/>
    </g>
   </g>
  </g>
 </g>
 <defs>
  <clipPath id="p1d97cda355">
   <rect x="48.029375" y="17.798437" width="441.283961" height="255.676"/>
  </clipPath>
 </defs>
</svg>
