<?xml version="1.0" encoding="utf-8" standalone="no"?>
<!DOCTYPE svg PUBLIC "-//W3C//DTD SVG 1.1//EN"
  "http://www.w3.org/Graphics/SVG/1.1/DTD/svg11.dtd">
<svg xmlns:xlink="http://www.w3.org/1999/xlink" width="568.525211pt" height="316.792812pt" viewBox="0 0 568.525211 316.792812" xmlns="http://www.w3.org/2000/svg" version="1.1">
 <metadata>
  <rdf:RDF xmlns:dc="http://purl.org/dc/elements/1.1/" xmlns:cc="http://creativecommons.org/ns#" xmlns:rdf="http://www.w3.org/1999/02/22-rdf-syntax-ns#">
   <cc:Work>
    <dc:type rdf:resource="http://purl.org/dc/dcmitype/StillImage"/>
    <dc:date>2026-04-26T16:36:42.088312</dc:date>
    <dc:format>image/svg+xml</dc:format>
    <dc:creator>
     <cc:Agent>
      <dc:title>Matplotlib v3.10.8, https://matplotlib.org/</dc:title>
     </cc:Agent>
    </dc:creator>
   </cc:Work>
  </rdf:RDF>
 </metadata>
 <defs>
  <style type="text/css">*{stroke-linejoin: round; stroke-linecap: butt}</style>
 </defs>
 <g id="figure_1">
  <g id="patch_1">
   <path d="M 0 316.792812 
L 568.525211 316.792812 
L 568.525211 0 
L 0 0 
z
" style="fill: #ffffff"/>
  </g>
  <g id="axes_1">
   <g id="patch_2">
    <path d="M 48.029375 274.3975 
L 557.825836 274.3975 
L 557.825836 34.3575 
L 48.029375 34.3575 
z
" style="fill: #ffffff"/>
   </g>
   <g id="patch_3">
    <path d="M 48.029375 274.3975 
L 217.961529 274.3975 
L 217.961529 34.3575 
L 48.029375 34.3575 
z
" clip-path="url(#p40eaa1a2ec)" style="fill: #4a90d9; opacity: 0.15; stroke: #4a90d9; stroke-linejoin: miter"/>
   </g>
   <g id="patch_4">
    <path d="M 217.961529 274.3975 
L 387.893682 274.3975 
L 387.893682 34.3575 
L 217.961529 34.3575 
z
" clip-path="url(#p40eaa1a2ec)" style="fill: #5cb85c; opacity: 0.15; stroke: #5cb85c; stroke-linejoin: miter"/>
   </g>
   <g id="patch_5">
    <path d="M 387.893682 274.3975 
L 557.825836 274.3975 
L 557.825836 34.3575 
L 387.893682 34.3575 
z
" clip-path="url(#p40eaa1a2ec)" style="fill: #f0ad4e; opacity: 0.15; stroke: #f0ad4e; stroke-linejoin: miter"/>
   </g>
   <g id="matplotlib.axis_1">
    <g id="xtick_1">
     <g id="line2d_1">
      <defs>
       <path id="mdf8908b7a1" d="M 0 0 
L 0 3.5 
" style="stroke: #000000; stroke-width: 0.8"/>
      </defs>
      <g>
       <use xlink:href="#mdf8908b7a1" x="48.029375" y="274.3975" style="stroke: #000000; stroke-width: 0.8"/>
      </g>
     </g>
     <g id="text_1">
      <!-- 0 -->
      <g transform="translate(44.53 289.755781) scale(0.11 -0.11)">
       <defs>
        <path id="DejaVuSans-30" d="M 2034 4250 
Q 1547 4250 1301 3770 
Q 1056 3291 1056 2328 
Q 1056 1369 1301 889 
Q 1547 409 2034 409 
Q 2525 409 2770 889 
Q 3016 1369 3016 2328 
Q 3016 3291 2770 3770 
Q 2525 4250 2034 4250 
z
M 2034 4750 
Q 2819 4750 3233 4129 
Q 3647 3509 3647 2328 
Q 3647 1150 3233 529 
Q 2819 -91 2034 -91 
Q 1250 -91 836 529 
Q 422 1150 422 2328 
Q 422 3509 836 4129 
Q 1250 4750 2034 4750 
z
" transform="scale(0.015625)"/>
       </defs>
       <use xlink:href="#DejaVuSans-30"/>
      </g>
     </g>
    </g>
    <g id="xtick_2">
     <g id="line2d_2">
      <g>
       <use xlink:href="#mdf8908b7a1" x="132.995452" y="274.3975" style="stroke: #000000; stroke-width: 0.8"/>
      </g>
     </g>
     <g id="text_2">
      <!-- 1 -->
      <g transform="translate(129.496077 289.755781) scale(0.11 -0.11)">
       <defs>
        <path id="DejaVuSans-31" d="M 794 531 
L 1825 531 
L 1825 4091 
L 703 3866 
L 703 4441 
L 1819 4666 
L 2450 4666 
L 2450 531 
L 3481 531 
L 3481 0 
L 794 0 
L 794 531 
z
" transform="scale(0.015625)"/>
       </defs>
       <use xlink:href="#DejaVuSans-31"/>
      </g>
     </g>
    </g>
    <g id="xtick_3">
     <g id="line2d_3">
      <g>
       <use xlink:href="#mdf8908b7a1" x="217.961529" y="274.3975" style="stroke: #000000; stroke-width: 0.8"/>
      </g>
     </g>
     <g id="text_3">
      <!-- 2 -->
      <g transform="translate(214.462154 289.755781) scale(0.11 -0.11)">
       <defs>
        <path id="DejaVuSans-32" d="M 1228 531 
L 3431 531 
L 3431 0 
L 469 0 
L 469 531 
Q 828 903 1448 1529 
Q 2069 2156 2228 2338 
Q 2531 2678 2651 2914 
Q 2772 3150 2772 3378 
Q 2772 3750 2511 3984 
Q 2250 4219 1831 4219 
Q 1534 4219 1204 4116 
Q 875 4013 500 3803 
L 500 4441 
Q 881 4594 1212 4672 
Q 1544 4750 1819 4750 
Q 2544 4750 2975 4387 
Q 3406 4025 3406 3419 
Q 3406 3131 3298 2873 
Q 3191 2616 2906 2266 
Q 2828 2175 2409 1742 
Q 1991 1309 1228 531 
z
" transform="scale(0.015625)"/>
       </defs>
       <use xlink:href="#DejaVuSans-32"/>
      </g>
     </g>
    </g>
    <g id="xtick_4">
     <g id="line2d_4">
      <g>
       <use xlink:href="#mdf8908b7a1" x="302.927605" y="274.3975" style="stroke: #000000; stroke-width: 0.8"/>
      </g>
     </g>
     <g id="text_4">
      <!-- 3 -->
      <g transform="translate(299.42823 289.755781) scale(0.11 -0.11)">
       <defs>
        <path id="DejaVuSans-33" d="M 2597 2516 
Q 3050 2419 3304 2112 
Q 3559 1806 3559 1356 
Q 3559 666 3084 287 
Q 2609 -91 1734 -91 
Q 1441 -91 1130 -33 
Q 819 25 488 141 
L 488 750 
Q 750 597 1062 519 
Q 1375 441 1716 441 
Q 2309 441 2620 675 
Q 2931 909 2931 1356 
Q 2931 1769 2642 2001 
Q 2353 2234 1838 2234 
L 1294 2234 
L 1294 2753 
L 1863 2753 
Q 2328 2753 2575 2939 
Q 2822 3125 2822 3475 
Q 2822 3834 2567 4026 
Q 2313 4219 1838 4219 
Q 1578 4219 1281 4162 
Q 984 4106 628 3988 
L 628 4550 
Q 988 4650 1302 4700 
Q 1616 4750 1894 4750 
Q 2613 4750 3031 4423 
Q 3450 4097 3450 3541 
Q 3450 3153 3228 2886 
Q 3006 2619 2597 2516 
z
" transform="scale(0.015625)"/>
       </defs>
       <use xlink:href="#DejaVuSans-33"/>
      </g>
     </g>
    </g>
    <g id="xtick_5">
     <g id="line2d_5">
      <g>
       <use xlink:href="#mdf8908b7a1" x="387.893682" y="274.3975" style="stroke: #000000; stroke-width: 0.8"/>
      </g>
     </g>
     <g id="text_5">
      <!-- 4 -->
      <g transform="translate(384.394307 289.755781) scale(0.11 -0.11)">
       <defs>
        <path id="DejaVuSans-34" d="M 2419 4116 
L 825 1625 
L 2419 1625 
L 2419 4116 
z
M 2253 4666 
L 3047 4666 
L 3047 1625 
L 3713 1625 
L 3713 1100 
L 3047 1100 
L 3047 0 
L 2419 0 
L 2419 1100 
L 313 1100 
L 313 1709 
L 2253 4666 
z
" transform="scale(0.015625)"/>
       </defs>
       <use xlink:href="#DejaVuSans-34"/>
      </g>
     </g>
    </g>
    <g id="xtick_6">
     <g id="line2d_6">
      <g>
       <use xlink:href="#mdf8908b7a1" x="472.859759" y="274.3975" style="stroke: #000000; stroke-width: 0.8"/>
      </g>
     </g>
     <g id="text_6">
      <!-- 5 -->
      <g transform="translate(469.360384 289.755781) scale(0.11 -0.11)">
       <defs>
        <path id="DejaVuSans-35" d="M 691 4666 
L 3169 4666 
L 3169 4134 
L 1269 4134 
L 1269 2991 
Q 1406 3038 1543 3061 
Q 1681 3084 1819 3084 
Q 2600 3084 3056 2656 
Q 3513 2228 3513 1497 
Q 3513 744 3044 326 
Q 2575 -91 1722 -91 
Q 1428 -91 1123 -41 
Q 819 9 494 109 
L 494 744 
Q 775 591 1075 516 
Q 1375 441 1709 441 
Q 2250 441 2565 725 
Q 2881 1009 2881 1497 
Q 2881 1984 2565 2268 
Q 2250 2553 1709 2553 
Q 1456 2553 1204 2497 
Q 953 2441 691 2322 
L 691 4666 
z
" transform="scale(0.015625)"/>
       </defs>
       <use xlink:href="#DejaVuSans-35"/>
      </g>
     </g>
    </g>
    <g id="xtick_7">
     <g id="line2d_7">
      <g>
       <use xlink:href="#mdf8908b7a1" x="557.825836" y="274.3975" style="stroke: #000000; stroke-width: 0.8"/>
      </g>
     </g>
     <g id="text_7">
      <!-- 6 -->
      <g transform="translate(554.326461 289.755781) scale(0.11 -0.11)">
       <defs>
        <path id="DejaVuSans-36" d="M 2113 2584 
Q 1688 2584 1439 2293 
Q 1191 2003 1191 1497 
Q 1191 994 1439 701 
Q 1688 409 2113 409 
Q 2538 409 2786 701 
Q 3034 994 3034 1497 
Q 3034 2003 2786 2293 
Q 2538 2584 2113 2584 
z
M 3366 4563 
L 3366 3988 
Q 3128 4100 2886 4159 
Q 2644 4219 2406 4219 
Q 1781 4219 1451 3797 
Q 1122 3375 1075 2522 
Q 1259 2794 1537 2939 
Q 1816 3084 2150 3084 
Q 2853 3084 3261 2657 
Q 3669 2231 3669 1497 
Q 3669 778 3244 343 
Q 2819 -91 2113 -91 
Q 1303 -91 875 529 
Q 447 1150 447 2328 
Q 447 3434 972 4092 
Q 1497 4750 2381 4750 
Q 2619 4750 2861 4703 
Q 3103 4656 3366 4563 
z
" transform="scale(0.015625)"/>
       </defs>
       <use xlink:href="#DejaVuSans-36"/>
      </g>
     </g>
    </g>
    <g id="text_8">
     <!-- Time (s) -->
     <g transform="translate(270.709012 306.68125) scale(0.14 -0.14)">
      <defs>
       <path id="DejaVuSans-Bold-54" d="M 31 4666 
L 4331 4666 
L 4331 3756 
L 2784 3756 
L 2784 0 
L 1581 0 
L 1581 3756 
L 31 3756 
L 31 4666 
z
" transform="scale(0.015625)"/>
       <path id="DejaVuSans-Bold-69" d="M 538 3500 
L 1656 3500 
L 1656 0 
L 538 0 
L 538 3500 
z
M 538 4863 
L 1656 4863 
L 1656 3950 
L 538 3950 
L 538 4863 
z
" transform="scale(0.015625)"/>
       <path id="DejaVuSans-Bold-6d" d="M 3781 2919 
Q 3994 3244 4286 3414 
Q 4578 3584 4928 3584 
Q 5531 3584 5847 3212 
Q 6163 2841 6163 2131 
L 6163 0 
L 5038 0 
L 5038 1825 
Q 5041 1866 5042 1909 
Q 5044 1953 5044 2034 
Q 5044 2406 4934 2573 
Q 4825 2741 4581 2741 
Q 4263 2741 4089 2478 
Q 3916 2216 3909 1719 
L 3909 0 
L 2784 0 
L 2784 1825 
Q 2784 2406 2684 2573 
Q 2584 2741 2328 2741 
Q 2006 2741 1831 2477 
Q 1656 2213 1656 1722 
L 1656 0 
L 531 0 
L 531 3500 
L 1656 3500 
L 1656 2988 
Q 1863 3284 2130 3434 
Q 2397 3584 2719 3584 
Q 3081 3584 3359 3409 
Q 3638 3234 3781 2919 
z
" transform="scale(0.015625)"/>
       <path id="DejaVuSans-Bold-65" d="M 4031 1759 
L 4031 1441 
L 1416 1441 
Q 1456 1047 1700 850 
Q 1944 653 2381 653 
Q 2734 653 3104 758 
Q 3475 863 3866 1075 
L 3866 213 
Q 3469 63 3072 -14 
Q 2675 -91 2278 -91 
Q 1328 -91 801 392 
Q 275 875 275 1747 
Q 275 2603 792 3093 
Q 1309 3584 2216 3584 
Q 3041 3584 3536 3087 
Q 4031 2591 4031 1759 
z
M 2881 2131 
Q 2881 2450 2695 2645 
Q 2509 2841 2209 2841 
Q 1884 2841 1681 2658 
Q 1478 2475 1428 2131 
L 2881 2131 
z
" transform="scale(0.015625)"/>
       <path id="DejaVuSans-Bold-20" transform="scale(0.015625)"/>
       <path id="DejaVuSans-Bold-28" d="M 2413 -844 
L 1484 -844 
Q 1006 -72 778 623 
Q 550 1319 550 2003 
Q 550 2688 779 3389 
Q 1009 4091 1484 4856 
L 2413 4856 
Q 2013 4116 1813 3408 
Q 1613 2700 1613 2009 
Q 1613 1319 1811 609 
Q 2009 -100 2413 -844 
z
" transform="scale(0.015625)"/>
       <path id="DejaVuSans-Bold-73" d="M 3272 3391 
L 3272 2541 
Q 2913 2691 2578 2766 
Q 2244 2841 1947 2841 
Q 1628 2841 1473 2761 
Q 1319 2681 1319 2516 
Q 1319 2381 1436 2309 
Q 1553 2238 1856 2203 
L 2053 2175 
Q 2913 2066 3209 1816 
Q 3506 1566 3506 1031 
Q 3506 472 3093 190 
Q 2681 -91 1863 -91 
Q 1516 -91 1145 -36 
Q 775 19 384 128 
L 384 978 
Q 719 816 1070 734 
Q 1422 653 1784 653 
Q 2113 653 2278 743 
Q 2444 834 2444 1013 
Q 2444 1163 2330 1236 
Q 2216 1309 1875 1350 
L 1678 1375 
Q 931 1469 631 1722 
Q 331 1975 331 2491 
Q 331 3047 712 3315 
Q 1094 3584 1881 3584 
Q 2191 3584 2531 3537 
Q 2872 3491 3272 3391 
z
" transform="scale(0.015625)"/>
       <path id="DejaVuSans-Bold-29" d="M 513 -844 
Q 913 -100 1113 609 
Q 1313 1319 1313 2009 
Q 1313 2700 1113 3408 
Q 913 4116 513 4856 
L 1441 4856 
Q 1916 4091 2145 3389 
Q 2375 2688 2375 2003 
Q 2375 1319 2147 623 
Q 1919 -72 1441 -844 
L 513 -844 
z
" transform="scale(0.015625)"/>
      </defs>
      <use xlink:href="#DejaVuSans-Bold-54"/>
      <use xlink:href="#DejaVuSans-Bold-69" transform="translate(68.212891 0)"/>
      <use xlink:href="#DejaVuSans-Bold-6d" transform="translate(102.490234 0)"/>
      <use xlink:href="#DejaVuSans-Bold-65" transform="translate(206.689453 0)"/>
      <use xlink:href="#DejaVuSans-Bold-20" transform="translate(274.511719 0)"/>
      <use xlink:href="#DejaVuSans-Bold-28" transform="translate(309.326172 0)"/>
      <use xlink:href="#DejaVuSans-Bold-73" transform="translate(355.029297 0)"/>
      <use xlink:href="#DejaVuSans-Bold-29" transform="translate(414.550781 0)"/>
     </g>
    </g>
   </g>
   <g id="matplotlib.axis_2">
    <g id="ytick_1">
     <g id="line2d_8">
      <defs>
       <path id="mfeb9d810cd" d="M 0 0 
L -3.5 0 
" style="stroke: #000000; stroke-width: 0.8"/>
      </defs>
      <g>
       <use xlink:href="#mfeb9d810cd" x="48.029375" y="234.533123" style="stroke: #000000; stroke-width: 0.8"/>
      </g>
     </g>
     <g id="text_9">
      <!-- $\mathdefault{−2}$ -->
      <g transform="translate(24.749375 238.712263) scale(0.11 -0.11)">
       <defs>
        <path id="DejaVuSans-2212" d="M 678 2272 
L 4684 2272 
L 4684 1741 
L 678 1741 
L 678 2272 
z
" transform="scale(0.015625)"/>
       </defs>
       <use xlink:href="#DejaVuSans-2212" transform="translate(0 0.78125)"/>
       <use xlink:href="#DejaVuSans-32" transform="translate(83.789062 0.78125)"/>
      </g>
     </g>
    </g>
    <g id="ytick_2">
     <g id="line2d_9">
      <g>
       <use xlink:href="#mfeb9d810cd" x="48.029375" y="194.455311" style="stroke: #000000; stroke-width: 0.8"/>
      </g>
     </g>
     <g id="text_10">
      <!-- $\mathdefault{−1}$ -->
      <g transform="translate(24.749375 198.634452) scale(0.11 -0.11)">
       <use xlink:href="#DejaVuSans-2212" transform="translate(0 0.09375)"/>
       <use xlink:href="#DejaVuSans-31" transform="translate(83.789062 0.09375)"/>
      </g>
     </g>
    </g>
    <g id="ytick_3">
     <g id="line2d_10">
      <g>
       <use xlink:href="#mfeb9d810cd" x="48.029375" y="154.3775" style="stroke: #000000; stroke-width: 0.8"/>
      </g>
     </g>
     <g id="text_11">
      <!-- $\mathdefault{0}$ -->
      <g transform="translate(33.989375 158.556641) scale(0.11 -0.11)">
       <use xlink:href="#DejaVuSans-30" transform="translate(0 0.78125)"/>
      </g>
     </g>
    </g>
    <g id="ytick_4">
     <g id="line2d_11">
      <g>
       <use xlink:href="#mfeb9d810cd" x="48.029375" y="114.299689" style="stroke: #000000; stroke-width: 0.8"/>
      </g>
     </g>
     <g id="text_12">
      <!-- $\mathdefault{1}$ -->
      <g transform="translate(33.989375 118.478829) scale(0.11 -0.11)">
       <use xlink:href="#DejaVuSans-31" transform="translate(0 0.09375)"/>
      </g>
     </g>
    </g>
    <g id="ytick_5">
     <g id="line2d_12">
      <g>
       <use xlink:href="#mfeb9d810cd" x="48.029375" y="74.221877" style="stroke: #000000; stroke-width: 0.8"/>
      </g>
     </g>
     <g id="text_13">
      <!-- $\mathdefault{2}$ -->
      <g transform="translate(33.989375 78.401018) scale(0.11 -0.11)">
       <use xlink:href="#DejaVuSans-32" transform="translate(0 0.78125)"/>
      </g>
     </g>
    </g>
    <g id="text_14">
     <!-- I$_{sc}$ (mA/m²) -->
     <g transform="translate(17.837813 197.0075) rotate(-90) scale(0.14 -0.14)">
      <defs>
       <path id="DejaVuSans-Bold-49" d="M 588 4666 
L 1791 4666 
L 1791 0 
L 588 0 
L 588 4666 
z
" transform="scale(0.015625)"/>
       <path id="DejaVuSans-Oblique-73" d="M 3200 3397 
L 3091 2853 
Q 2863 2978 2609 3040 
Q 2356 3103 2088 3103 
Q 1634 3103 1373 2948 
Q 1113 2794 1113 2528 
Q 1113 2219 1719 2053 
Q 1766 2041 1788 2034 
L 1972 1978 
Q 2547 1819 2739 1644 
Q 2931 1469 2931 1166 
Q 2931 609 2489 259 
Q 2047 -91 1331 -91 
Q 1053 -91 747 -37 
Q 441 16 72 128 
L 184 722 
Q 500 559 806 475 
Q 1113 391 1394 391 
Q 1816 391 2080 572 
Q 2344 753 2344 1031 
Q 2344 1331 1650 1516 
L 1591 1531 
L 1394 1581 
Q 956 1697 753 1886 
Q 550 2075 550 2369 
Q 550 2928 970 3256 
Q 1391 3584 2113 3584 
Q 2397 3584 2667 3537 
Q 2938 3491 3200 3397 
z
" transform="scale(0.015625)"/>
       <path id="DejaVuSans-Oblique-63" d="M 3431 3366 
L 3316 2797 
Q 3109 2947 2876 3022 
Q 2644 3097 2394 3097 
Q 2119 3097 1870 3000 
Q 1622 2903 1453 2725 
Q 1184 2453 1037 2087 
Q 891 1722 891 1331 
Q 891 859 1127 628 
Q 1363 397 1844 397 
Q 2081 397 2348 469 
Q 2616 541 2906 684 
L 2797 116 
Q 2547 13 2283 -39 
Q 2019 -91 1741 -91 
Q 1044 -91 669 257 
Q 294 606 294 1253 
Q 294 1797 489 2255 
Q 684 2713 1069 3078 
Q 1331 3328 1684 3456 
Q 2038 3584 2456 3584 
Q 2700 3584 2940 3529 
Q 3181 3475 3431 3366 
z
" transform="scale(0.015625)"/>
       <path id="DejaVuSans-Bold-41" d="M 3419 850 
L 1538 850 
L 1241 0 
L 31 0 
L 1759 4666 
L 3194 4666 
L 4922 0 
L 3713 0 
L 3419 850 
z
M 1838 1716 
L 3116 1716 
L 2478 3572 
L 1838 1716 
z
" transform="scale(0.015625)"/>
       <path id="DejaVuSans-Bold-2f" d="M 1644 4666 
L 2338 4666 
L 691 -594 
L 0 -594 
L 1644 4666 
z
" transform="scale(0.015625)"/>
       <path id="DejaVuSans-Bold-b2" d="M 1288 2613 
L 2444 2613 
L 2444 2088 
L 341 2088 
L 341 2566 
L 1319 3397 
Q 1509 3563 1590 3688 
Q 1672 3813 1672 3938 
Q 1672 4094 1558 4191 
Q 1444 4288 1259 4288 
Q 1066 4288 844 4217 
Q 622 4147 359 4000 
L 359 4581 
Q 631 4666 886 4708 
Q 1141 4750 1375 4750 
Q 1869 4750 2150 4548 
Q 2431 4347 2431 4000 
Q 2431 3775 2320 3586 
Q 2209 3397 1894 3128 
L 1288 2613 
z
" transform="scale(0.015625)"/>
      </defs>
      <use xlink:href="#DejaVuSans-Bold-49" transform="translate(0 0.125)"/>
      <use xlink:href="#DejaVuSans-Oblique-73" transform="translate(38.164062 -16.28125) scale(0.7)"/>
      <use xlink:href="#DejaVuSans-Oblique-63" transform="translate(74.633789 -16.28125) scale(0.7)"/>
      <use xlink:href="#DejaVuSans-Bold-20" transform="translate(115.854492 0.125)"/>
      <use xlink:href="#DejaVuSans-Bold-28" transform="translate(150.668945 0.125)"/>
      <use xlink:href="#DejaVuSans-Bold-6d" transform="translate(196.37207 0.125)"/>
      <use xlink:href="#DejaVuSans-Bold-41" transform="translate(300.571289 0.125)"/>
      <use xlink:href="#DejaVuSans-Bold-2f" transform="translate(377.963867 0.125)"/>
      <use xlink:href="#DejaVuSans-Bold-6d" transform="translate(414.487305 0.125)"/>
      <use xlink:href="#DejaVuSans-Bold-b2" transform="translate(518.686523 0.125)"/>
      <use xlink:href="#DejaVuSans-Bold-29" transform="translate(562.485352 0.125)"/>
     </g>
    </g>
    <g id="text_15">
     <!-- $\times\mathdefault{10^{−3}}\mathdefault{}$ -->
     <g transform="translate(48.029375 31.3575) scale(0.1 -0.1)">
      <defs>
       <path id="DejaVuSans-d7" d="M 4488 3438 
L 3059 2003 
L 4488 575 
L 4116 197 
L 2681 1631 
L 1247 197 
L 878 575 
L 2303 2003 
L 878 3438 
L 1247 3816 
L 2681 2381 
L 4116 3816 
L 4488 3438 
z
" transform="scale(0.015625)"/>
      </defs>
      <use xlink:href="#DejaVuSans-d7" transform="translate(0 0.765625)"/>
      <use xlink:href="#DejaVuSans-31" transform="translate(83.789062 0.765625)"/>
      <use xlink:href="#DejaVuSans-30" transform="translate(147.412109 0.765625)"/>
      <use xlink:href="#DejaVuSans-2212" transform="translate(211.992188 39.046875) scale(0.7)"/>
      <use xlink:href="#DejaVuSans-33" transform="translate(270.644531 39.046875) scale(0.7)"/>
     </g>
    </g>
   </g>
   <g id="patch_6">
    <path d="M 48.029375 274.3975 
L 48.029375 34.3575 
" style="fill: none; stroke: #000000; stroke-width: 0.8; stroke-linejoin: miter; stroke-linecap: square"/>
   </g>
   <g id="patch_7">
    <path d="M 48.029375 274.3975 
L 557.825836 274.3975 
" style="fill: none; stroke: #000000; stroke-width: 0.8; stroke-linejoin: miter; stroke-linecap: square"/>
   </g>
   <g id="line2d_13">
    <path d="M 48.029375 153.777676 
L 48.624138 153.842215 
L 48.709104 153.906754 
L 48.964002 153.777676 
L 49.133934 153.777676 
L 49.473798 153.809945 
L 49.728697 153.777676 
L 49.898629 153.809945 
L 50.493391 153.777676 
L 50.663323 153.680868 
L 50.918222 153.648598 
L 51.088154 153.809945 
L 51.343052 153.874484 
L 51.512984 154.003562 
L 51.767882 153.777676 
L 51.852848 153.874484 
L 52.022781 153.777676 
L 52.107747 153.777676 
L 52.192713 153.616329 
L 52.362645 153.745406 
L 52.447611 153.777676 
L 52.532577 153.939023 
L 52.617543 153.874484 
L 52.787475 153.906754 
L 52.957407 154.003562 
L 53.12734 153.745406 
L 53.212306 153.939023 
L 53.297272 153.842215 
L 53.382238 154.068101 
L 53.467204 153.939023 
L 53.637136 154.035831 
L 53.977 154.068101 
L 54.146933 154.326256 
L 54.231899 154.197178 
L 54.316865 154.261717 
L 54.401831 154.229448 
L 54.571763 154.261717 
L 54.741695 154.13264 
L 54.911627 154.390795 
L 55.081559 154.293987 
L 55.251492 154.261717 
L 55.336458 154.229448 
L 55.50639 154.455334 
L 55.676322 154.423064 
L 56.441017 154.519873 
L 56.610949 154.519873 
L 56.695915 154.455334 
L 57.035779 154.810298 
L 57.205711 154.68122 
L 58.055372 154.907106 
L 58.225304 155.003914 
L 58.480202 155.294339 
L 58.650135 155.262069 
L 58.989999 155.391147 
L 59.074965 155.391147 
L 59.244897 155.520225 
L 59.669728 155.778381 
L 60.009592 156.101074 
L 60.349456 156.294691 
L 60.604354 156.488308 
L 60.859253 156.681924 
L 61.369049 157.456391 
L 61.454015 157.424121 
L 61.708913 157.779085 
L 62.473608 159.069862 
L 62.813472 159.941136 
L 63.918031 163.619851 
L 64.852658 169.008847 
L 65.447421 174.204224 
L 66.806878 187.692832 
L 67.061776 188.725457 
L 67.146742 188.789992 
L 67.316674 188.499568 
L 67.571573 186.757025 
L 68.166335 179.012359 
L 68.591166 172.106711 
L 68.761098 169.428351 
L 69.780691 140.192249 
L 70.290487 136.094023 
L 70.630351 134.190126 
L 71.480012 128.994749 
L 71.73491 128.542982 
L 71.904843 128.542982 
L 72.159741 129.027022 
L 73.604164 136.094023 
L 74.113961 138.901463 
L 75.473418 144.613157 
L 77.087773 148.614567 
L 77.767502 149.485842 
L 78.192332 150.228039 
L 78.277298 150.163499 
L 78.532197 150.583002 
L 78.957027 150.905696 
L 79.891654 151.712433 
L 79.97662 151.87378 
L 80.061586 151.680163 
L 80.316484 151.906049 
L 80.571382 152.002858 
L 80.656349 151.938318 
L 80.996213 152.357821 
L 81.166145 152.293282 
L 81.251111 152.486898 
L 81.336077 152.357821 
L 81.421043 152.42236 
L 81.675941 152.357821 
L 81.845874 152.42236 
L 82.100772 152.551438 
L 82.185738 152.39009 
L 82.440636 152.648246 
L 82.610568 152.680515 
L 82.7805 152.745055 
L 82.950433 152.712785 
L 83.290297 152.745055 
L 83.885059 152.777323 
L 84.054992 152.841863 
L 84.139958 152.874132 
L 84.30989 153.00321 
L 84.73472 152.97094 
L 84.819686 152.874132 
L 85.159551 153.229095 
L 85.244517 153.067748 
L 85.329483 153.293635 
L 85.414449 153.261365 
L 85.669347 153.390443 
L 85.839279 153.358173 
L 87.538601 153.325904 
L 87.708533 153.261365 
L 87.793499 153.487251 
L 87.878465 153.422712 
L 88.898058 153.358173 
L 89.237922 153.196826 
L 89.407854 153.358173 
L 89.747719 153.487251 
L 89.917651 153.487251 
L 90.427447 153.358173 
L 90.682346 153.390443 
L 91.107176 153.325904 
L 91.192142 153.358173 
L 91.362074 153.325904 
L 92.126769 153.00321 
L 92.211735 153.164557 
L 92.296701 153.100018 
L 92.551599 153.229095 
L 92.721531 153.196826 
L 92.891464 153.325904 
L 93.146362 153.261365 
L 94.080989 153.55179 
L 94.250921 153.422712 
L 94.590785 153.487251 
L 94.845683 153.325904 
L 95.015615 153.487251 
L 96.205141 153.487251 
L 96.290107 153.358173 
L 96.460039 153.55179 
L 96.714937 153.55179 
L 97.479632 153.51952 
L 97.564598 153.680868 
L 97.73453 153.55179 
L 97.989428 153.713137 
L 98.074394 153.51952 
L 98.244326 153.616329 
L 98.499225 153.55179 
L 98.754123 153.55179 
L 99.009021 153.55179 
L 99.093987 153.55179 
L 99.348885 153.745406 
L 99.773716 153.809945 
L 100.623377 153.906754 
L 101.133173 154.068101 
L 101.303105 154.003562 
L 101.642969 154.068101 
L 101.812902 154.068101 
L 101.982834 154.10037 
L 102.322698 154.164909 
L 102.577596 154.261717 
L 103.257325 154.068101 
L 103.512223 154.229448 
L 103.852087 154.261717 
L 106.740934 154.326256 
L 106.910866 154.358526 
L 107.080798 154.261717 
L 107.250731 154.229448 
L 107.760527 154.229448 
L 107.845493 154.358526 
L 107.930459 154.293987 
L 108.610188 154.197178 
L 109.035018 154.13264 
L 109.289916 154.326256 
L 109.459849 154.293987 
L 109.714747 154.358526 
L 110.904272 154.423064 
L 111.074204 154.455334 
L 111.584 154.358526 
L 112.348695 154.455334 
L 112.518627 154.519873 
L 112.773526 154.326256 
L 113.368288 154.261717 
L 113.453254 154.197178 
L 113.623186 154.326256 
L 114.048017 154.390795 
L 114.132983 154.390795 
L 114.302915 154.229448 
L 114.472847 154.261717 
L 114.812711 154.164909 
L 115.06761 154.326256 
L 115.577406 154.229448 
L 115.662372 154.13264 
L 115.747338 154.229448 
L 115.91727 154.10037 
L 116.087203 154.164909 
L 116.427067 154.13264 
L 116.766931 154.197178 
L 117.021829 154.035831 
L 118.636185 153.971292 
L 118.806117 153.874484 
L 119.145981 154.068101 
L 119.40088 154.003562 
L 119.655778 153.971292 
L 119.740744 154.10037 
L 119.910676 153.874484 
L 119.995642 153.971292 
L 120.165574 153.906754 
L 120.505439 153.874484 
L 121.015235 154.035831 
L 121.185167 153.874484 
L 122.289726 153.874484 
L 122.374692 154.003562 
L 122.544624 153.809945 
L 122.714557 153.842215 
L 122.969455 153.777676 
L 123.139387 153.713137 
L 123.309319 153.874484 
L 123.734149 153.939023 
L 123.904082 154.068101 
L 123.989048 153.906754 
L 124.15898 154.003562 
L 124.243946 154.003562 
L 124.328912 153.777676 
L 124.413878 153.842215 
L 124.498844 153.971292 
L 124.58381 153.874484 
L 124.753742 153.906754 
L 124.838708 153.939023 
L 124.923675 154.10037 
L 125.008641 154.035831 
L 125.433471 153.939023 
L 125.518437 153.842215 
L 125.688369 153.971292 
L 125.858301 153.939023 
L 125.943267 154.003562 
L 126.1132 153.874484 
L 126.53803 154.035831 
L 126.622996 153.939023 
L 126.877894 154.10037 
L 127.472657 153.939023 
L 128.067419 154.068101 
L 128.152385 154.068101 
L 128.322318 153.939023 
L 128.91708 154.003562 
L 129.171978 154.164909 
L 129.426877 154.164909 
L 129.681775 154.197178 
L 129.936673 154.068101 
L 130.021639 153.939023 
L 130.106605 154.003562 
L 130.191571 154.003562 
L 130.361503 154.164909 
L 130.616402 154.003562 
L 130.701368 154.229448 
L 130.786334 154.035831 
L 130.956266 154.10037 
L 131.126198 154.068101 
L 131.720961 154.10037 
L 131.890893 154.293987 
L 132.485655 154.423064 
L 132.570621 154.390795 
L 132.740554 154.423064 
L 132.995452 154.584412 
L 133.080418 154.293987 
L 133.25035 154.455334 
L 133.505248 154.713489 
L 133.590214 154.64895 
L 133.760147 154.778028 
L 133.930079 154.68122 
L 134.015045 154.64895 
L 134.100011 154.842567 
L 134.184977 154.64895 
L 134.269943 154.874836 
L 134.354909 154.810298 
L 134.524841 154.713489 
L 134.864706 154.842567 
L 135.034638 154.907106 
L 135.119604 154.971645 
L 135.374502 154.842567 
L 135.544434 155.036184 
L 135.884298 155.068453 
L 136.054231 155.165261 
L 136.648993 155.487956 
L 137.073824 155.584764 
L 138.858111 157.004619 
L 139.113009 157.327313 
L 139.197975 157.391851 
L 139.367908 157.714546 
L 139.53784 157.811354 
L 139.792738 158.198588 
L 140.132602 158.747168 
L 140.557433 159.77979 
L 141.831924 163.974814 
L 142.171788 165.685094 
L 143.191381 172.913448 
L 144.890703 188.628649 
L 145.145601 189.177224 
L 145.230567 189.048153 
L 145.485465 187.402408 
L 145.825329 183.594615 
L 146.67499 169.331533 
L 147.694583 139.805007 
L 148.119413 135.932679 
L 148.544244 133.51247 
L 149.223972 129.73695 
L 149.648803 128.63979 
L 149.818735 128.607517 
L 150.073633 129.059285 
L 150.923294 133.060703 
L 152.367717 140.708552 
L 153.982073 146.452516 
L 155.34153 149.324495 
L 155.511462 149.518111 
L 155.851326 150.034422 
L 156.616021 151.034774 
L 157.125818 151.325199 
L 157.380716 151.615624 
L 157.890512 152.035126 
L 157.975478 151.906049 
L 158.145411 152.131935 
L 158.315343 152.131935 
L 159.24997 152.712785 
L 159.504868 152.648246 
L 159.844732 152.809593 
L 159.929698 152.745055 
L 160.09963 152.809593 
L 160.269562 152.777323 
L 160.609427 152.938671 
L 160.779359 152.938671 
L 160.864325 153.067748 
L 161.034257 152.938671 
L 161.119223 152.938671 
L 161.204189 152.777323 
L 161.459088 152.938671 
L 161.544054 152.874132 
L 161.713986 153.132287 
L 162.05385 153.196826 
L 162.138816 153.100018 
L 162.308748 153.196826 
L 162.563647 153.261365 
L 162.733579 153.164557 
L 162.903511 153.293635 
L 163.328341 153.51952 
L 163.498273 153.55179 
L 163.838138 153.680868 
L 164.00807 153.616329 
L 164.093036 153.648598 
L 164.262968 153.616329 
L 164.347934 153.584059 
L 164.517866 153.680868 
L 164.857731 153.648598 
L 165.112629 153.648598 
L 165.197595 153.51952 
L 165.452493 153.648598 
L 165.622425 153.745406 
L 165.792357 153.713137 
L 166.047256 153.842215 
L 166.981883 153.55179 
L 167.831543 153.842215 
L 168.001475 153.777676 
L 168.171408 153.809945 
L 168.256374 153.809945 
L 168.34134 153.648598 
L 168.511272 153.842215 
L 168.76617 153.713137 
L 168.851136 153.777676 
L 169.021068 153.745406 
L 169.191001 153.713137 
L 169.445899 153.51952 
L 169.870729 153.422712 
L 170.040661 153.487251 
L 170.380526 153.454982 
L 170.635424 153.584059 
L 170.890322 153.487251 
L 171.824949 153.745406 
L 171.909915 153.680868 
L 172.079847 153.874484 
L 172.249779 153.874484 
L 172.334745 153.713137 
L 172.419711 153.842215 
L 172.67461 153.713137 
L 173.09944 153.874484 
L 173.354338 153.713137 
L 173.609237 153.906754 
L 174.034067 153.680868 
L 174.713796 153.939023 
L 174.798762 153.842215 
L 174.883728 153.939023 
L 175.138626 153.777676 
L 175.223592 153.745406 
L 175.393524 153.777676 
L 175.563456 153.777676 
L 175.648422 153.906754 
L 175.733388 153.842215 
L 175.903321 153.906754 
L 176.073253 153.874484 
L 176.413117 153.906754 
L 176.583049 153.809945 
L 176.752981 153.842215 
L 176.922914 153.842215 
L 177.177812 153.939023 
L 177.602642 154.13264 
L 177.85754 154.13264 
L 177.942506 153.971292 
L 178.027473 154.035831 
L 178.282371 154.035831 
L 178.452303 154.068101 
L 178.622235 154.229448 
L 178.707201 154.164909 
L 178.792167 154.293987 
L 178.877133 154.229448 
L 179.556862 154.261717 
L 179.726794 154.326256 
L 180.066658 154.390795 
L 180.321557 154.455334 
L 180.576455 154.358526 
L 180.746387 154.390795 
L 181.001285 154.326256 
L 181.256183 154.293987 
L 181.681014 154.487603 
L 182.275776 154.358526 
L 182.955505 154.455334 
L 183.210403 154.519873 
L 183.380335 154.423064 
L 183.635234 154.487603 
L 183.805166 154.390795 
L 184.229996 154.455334 
L 184.399928 154.519873 
L 184.654827 154.519873 
L 184.909725 154.487603 
L 185.079657 154.390795 
L 185.249589 154.390795 
L 185.589453 154.358526 
L 185.759386 154.455334 
L 186.014284 154.552142 
L 186.863945 154.293987 
L 187.033877 154.390795 
L 187.203809 154.390795 
L 187.288775 154.552142 
L 187.373741 154.487603 
L 188.393334 154.519873 
L 188.563266 154.584412 
L 188.818164 154.584412 
L 188.988096 154.64895 
L 189.497893 154.552142 
L 191.791977 154.64895 
L 191.961909 154.68122 
L 192.471706 154.423064 
L 192.726604 154.519873 
L 193.2364 154.584412 
L 193.406332 154.68122 
L 193.746197 154.326256 
L 193.831163 154.487603 
L 194.001095 154.293987 
L 194.171027 154.455334 
L 194.340959 154.455334 
L 194.510891 154.423064 
L 194.595858 154.390795 
L 194.680824 154.616681 
L 194.850756 154.455334 
L 194.935722 154.455334 
L 195.105654 154.293987 
L 195.19062 154.326256 
L 195.275586 154.552142 
L 195.530484 154.261717 
L 196.210213 154.423064 
L 196.380145 154.261717 
L 196.550077 154.552142 
L 196.635043 154.164909 
L 196.720009 154.197178 
L 197.229806 154.455334 
L 197.399738 154.423064 
L 197.654636 154.519873 
L 197.739602 154.164909 
L 197.909535 154.487603 
L 197.994501 154.358526 
L 198.079467 154.229448 
L 198.334365 154.455334 
L 198.419331 154.519873 
L 198.504297 154.390795 
L 198.589263 154.455334 
L 198.759195 154.455334 
L 198.929127 154.293987 
L 199.014094 154.519873 
L 199.184026 154.261717 
L 199.268992 154.390795 
L 199.353958 154.326256 
L 199.608856 154.197178 
L 199.778788 154.326256 
L 199.94872 154.293987 
L 200.118653 154.261717 
L 200.203619 154.229448 
L 200.458517 154.390795 
L 200.543483 154.13264 
L 200.713415 154.293987 
L 200.798381 154.068101 
L 200.883347 154.10037 
L 200.968313 154.519873 
L 201.053279 154.164909 
L 201.138245 154.261717 
L 201.223212 154.261717 
L 201.393144 154.390795 
L 201.987906 154.519873 
L 202.072872 154.390795 
L 202.157838 154.487603 
L 202.412737 154.358526 
L 202.497703 154.487603 
L 202.582669 154.358526 
L 202.922533 154.64895 
L 203.262397 154.519873 
L 203.347363 154.810298 
L 203.517296 154.455334 
L 203.602262 154.519873 
L 203.687228 154.552142 
L 203.772194 154.390795 
L 203.85716 154.584412 
L 204.027092 154.519873 
L 204.197024 154.519873 
L 204.28199 154.455334 
L 204.366956 154.584412 
L 204.536889 154.455334 
L 204.706821 154.584412 
L 204.791787 154.519873 
L 204.876753 154.745759 
L 205.131651 154.423064 
L 205.301583 154.519873 
L 205.386549 154.713489 
L 205.641448 154.390795 
L 205.726414 154.616681 
L 205.81138 154.584412 
L 206.406142 154.326256 
L 206.576074 154.616681 
L 206.746007 154.487603 
L 207.000905 154.68122 
L 207.085871 154.584412 
L 207.255803 154.616681 
L 207.510701 154.616681 
L 207.595667 154.778028 
L 207.765599 154.552142 
L 207.935532 154.552142 
L 208.105464 154.423064 
L 208.19043 154.035831 
L 208.360362 154.584412 
L 208.61526 154.584412 
L 208.785192 154.68122 
L 209.125057 154.552142 
L 209.210023 154.584412 
L 209.379955 154.552142 
L 209.464921 154.745759 
L 209.634853 154.68122 
L 209.719819 154.874836 
L 209.804785 154.810298 
L 210.059684 155.132992 
L 210.14465 155.003914 
L 210.229616 155.132992 
L 210.56948 154.810298 
L 210.739412 154.939375 
L 210.824378 155.003914 
L 210.99431 154.842567 
L 211.079276 155.003914 
L 211.164242 154.874836 
L 211.249209 155.197531 
L 211.334175 155.100722 
L 211.419141 155.036184 
L 211.589073 155.262069 
L 211.843971 155.165261 
L 211.928937 155.294339 
L 212.013903 155.2298 
L 212.183835 155.036184 
L 212.268801 155.197531 
L 212.353768 155.036184 
L 212.693632 155.262069 
L 213.118462 155.326608 
L 213.713225 155.423417 
L 213.968123 155.552494 
L 214.138055 155.713842 
L 214.223021 155.713842 
L 214.392953 155.971997 
L 214.732818 155.939727 
L 214.90275 155.939727 
L 215.072682 156.068806 
L 215.242614 156.101074 
L 215.667445 156.552846 
L 216.177241 156.811002 
L 216.517105 157.004619 
L 217.026902 157.811354 
L 217.366766 158.134048 
L 217.621664 158.521281 
L 217.791596 158.61809 
L 217.876563 158.779437 
L 217.876563 158.779437 
" clip-path="url(#p40eaa1a2ec)" style="fill: none; stroke: #333333; stroke-width: 0.8; stroke-linecap: square"/>
   </g>
   <g id="line2d_14">
    <path d="M 217.961529 150.615272 
L 218.131461 150.647541 
L 218.641257 151.29293 
L 218.726223 151.29293 
L 218.981122 151.583355 
L 219.066088 151.486546 
L 219.320986 151.744701 
L 219.575884 151.712433 
L 219.915748 152.035126 
L 220.085681 152.196474 
L 220.340579 152.131935 
L 220.510511 152.228743 
L 220.765409 152.131935 
L 221.275206 152.551438 
L 221.530104 152.615976 
L 221.700036 152.680515 
L 221.954934 152.551438 
L 222.209832 152.680515 
L 222.549697 152.874132 
L 222.889561 153.132287 
L 223.144459 153.196826 
L 223.484324 153.358173 
L 223.56929 153.261365 
L 223.824188 153.390443 
L 224.928747 153.713137 
L 225.098679 153.648598 
L 225.438543 153.745406 
L 226.033306 153.874484 
L 226.713035 153.971292 
L 227.307797 154.10037 
L 227.477729 154.003562 
L 228.412356 154.10037 
L 228.667254 154.164909 
L 229.771813 154.261717 
L 230.026712 154.326256 
L 231.301203 154.390795 
L 231.386169 154.487603 
L 231.556101 154.423064 
L 231.641067 154.519873 
L 231.895965 154.390795 
L 232.150863 154.261717 
L 232.405762 154.519873 
L 232.490728 154.455334 
L 232.575694 154.616681 
L 232.66066 154.487603 
L 232.830592 154.519873 
L 233.170456 154.616681 
L 233.425355 154.487603 
L 233.765219 154.552142 
L 234.105083 154.778028 
L 234.444948 154.939375 
L 234.529914 154.874836 
L 234.699846 155.068453 
L 235.03971 154.939375 
L 235.124676 155.068453 
L 235.209642 155.003914 
L 235.549507 155.262069 
L 235.719439 155.197531 
L 236.059303 155.423417 
L 236.314201 155.358878 
L 236.484133 155.649302 
L 236.654066 155.907458 
L 236.908964 156.326961 
L 236.99393 156.359231 
L 237.333794 156.875541 
L 237.41876 156.875541 
L 238.523319 159.650712 
L 239.457946 163.974814 
L 239.882776 167.45991 
L 240.307607 172.042166 
L 240.817403 179.851368 
L 241.921962 198.728969 
L 242.006928 198.632161 
L 242.176861 197.244577 
L 242.601691 188.660921 
L 243.536318 159.005323 
L 244.046114 139.095079 
L 244.470945 131.092262 
L 244.895775 127.219933 
L 245.235639 125.251492 
L 245.490538 124.638371 
L 245.66047 124.670644 
L 245.915368 125.3483 
L 246.170266 126.671348 
L 247.189859 134.286934 
L 247.699656 137.804303 
L 248.719248 143.419184 
L 249.908774 147.646484 
L 249.99374 147.743293 
L 250.248638 148.227333 
L 251.353197 150.550733 
L 251.438163 150.421655 
L 252.287824 151.228391 
L 253.137484 151.809241 
L 253.307417 151.680163 
L 253.732247 151.906049 
L 253.987145 152.196474 
L 254.32701 152.45463 
L 254.496942 152.45463 
L 255.17667 152.615976 
L 255.261636 152.615976 
L 255.516535 152.97094 
L 255.686467 152.841863 
L 256.026331 153.067748 
L 256.366195 153.132287 
L 256.70606 153.358173 
L 257.470754 153.616329 
L 257.725653 153.55179 
L 257.895585 153.616329 
L 258.065517 153.713137 
L 258.320415 153.842215 
L 258.490347 153.777676 
L 258.660279 153.809945 
L 259.000144 153.745406 
L 259.255042 153.809945 
L 259.424974 153.906754 
L 260.019737 154.10037 
L 260.274635 154.035831 
L 260.529533 154.035831 
L 260.784431 154.10037 
L 260.954364 154.068101 
L 262.228855 154.164909 
L 262.653685 154.358526 
L 264.098108 154.423064 
L 264.268041 154.455334 
L 264.607905 154.423064 
L 264.692871 154.229448 
L 264.947769 154.552142 
L 265.032735 154.455334 
L 265.287633 154.584412 
L 266.732057 154.64895 
L 266.901989 154.68122 
L 266.986955 154.64895 
L 267.156887 154.842567 
L 267.241853 154.68122 
L 267.496751 154.810298 
L 268.686277 155.197531 
L 268.856209 155.132992 
L 269.026141 155.132992 
L 269.281039 155.487956 
L 270.1307 155.907458 
L 270.895395 156.907811 
L 271.235259 157.617738 
L 271.830021 158.779437 
L 273.019546 164.652469 
L 273.529343 169.137917 
L 273.954173 174.559183 
L 274.46397 183.336464 
L 275.398597 198.696706 
L 275.483563 198.599898 
L 275.653495 197.180041 
L 275.993359 190.661626 
L 276.84302 167.45991 
L 277.437782 141.095794 
L 277.862613 131.963533 
L 278.372409 127.155388 
L 278.79724 124.735179 
L 279.052138 124.477028 
L 279.307036 125.025603 
L 279.731866 127.381277 
L 280.411595 132.447583 
L 281.261256 138.514231 
L 282.365815 144.258193 
L 282.960577 146.323437 
L 283.810238 148.582298 
L 285.169695 150.937966 
L 285.254661 150.937966 
L 285.50956 151.196121 
L 286.614119 151.906049 
L 287.123915 151.938318 
L 287.208881 152.099666 
L 287.293847 152.035126 
L 287.548746 152.293282 
L 287.633712 152.261013 
L 287.88861 152.519168 
L 288.058542 152.519168 
L 288.143508 152.615976 
L 288.228474 152.486898 
L 288.398406 152.615976 
L 288.653305 152.615976 
L 288.993169 152.712785 
L 289.417999 153.035479 
L 289.84283 153.229095 
L 290.097728 153.229095 
L 290.26766 153.422712 
L 290.437592 153.454982 
L 290.777456 153.680868 
L 291.032355 153.745406 
L 291.202287 153.713137 
L 291.797049 153.809945 
L 292.136914 153.939023 
L 292.476778 153.971292 
L 292.816642 153.906754 
L 293.921201 154.261717 
L 294.1761 154.13264 
L 294.346032 154.13264 
L 294.430998 154.035831 
L 294.685896 154.164909 
L 295.110726 154.229448 
L 295.280659 154.261717 
L 295.450591 154.261717 
L 295.620523 154.261717 
L 295.875421 154.261717 
L 296.215285 154.326256 
L 296.640116 154.519873 
L 297.319844 154.358526 
L 298.084539 154.64895 
L 298.169505 154.519873 
L 298.254471 154.584412 
L 298.424403 154.584412 
L 298.679302 154.519873 
L 298.764268 154.584412 
L 298.849234 154.487603 
L 299.189098 154.745759 
L 299.443996 154.713489 
L 299.698895 154.778028 
L 299.953793 154.713489 
L 300.123725 154.68122 
L 300.378623 154.842567 
L 300.548555 154.874836 
L 300.633521 154.874836 
L 300.88842 155.100722 
L 300.973386 155.003914 
L 301.058352 155.132992 
L 301.228284 155.100722 
L 302.502775 155.552494 
L 302.757673 155.391147 
L 302.927605 155.552494 
L 303.607334 156.197883 
L 303.947198 156.585116 
L 304.032164 156.585116 
L 304.372029 157.165966 
L 304.711893 157.714546 
L 305.136723 158.876245 
L 305.391622 159.489365 
L 305.986384 161.909572 
L 306.581147 165.588286 
L 307.175909 171.461318 
L 307.515774 176.269463 
L 308.875231 198.954857 
L 308.960197 198.858049 
L 309.130129 197.728616 
L 309.469993 190.984312 
L 310.319654 166.685446 
L 310.914417 140.353593 
L 311.339247 131.31815 
L 311.93401 126.510005 
L 312.273874 124.928795 
L 312.528772 124.670644 
L 312.698704 124.896533 
L 313.038569 126.380925 
L 313.548365 130.091909 
L 314.992788 140.289057 
L 315.587551 143.257841 
L 316.26728 146.065282 
L 316.862042 147.711023 
L 317.966601 150.098961 
L 318.051567 150.13123 
L 318.136533 150.518464 
L 318.221499 150.453924 
L 318.64633 151.131583 
L 318.731296 151.067044 
L 319.156126 151.680163 
L 319.326058 151.744701 
L 319.580957 151.906049 
L 319.665923 151.84151 
L 319.835855 151.970588 
L 320.090753 151.938318 
L 320.345651 152.131935 
L 320.685516 152.261013 
L 320.770482 152.42236 
L 320.855448 152.357821 
L 321.110346 152.357821 
L 321.280278 152.519168 
L 321.535176 152.615976 
L 321.875041 152.938671 
L 321.960007 152.874132 
L 322.129939 153.00321 
L 322.469803 153.164557 
L 322.554769 153.035479 
L 322.724701 153.132287 
L 322.809667 153.132287 
L 322.9796 153.261365 
L 323.40443 153.454982 
L 323.574362 153.55179 
L 323.914226 153.680868 
L 324.424023 153.745406 
L 324.678921 153.874484 
L 324.763887 153.842215 
L 324.933819 153.971292 
L 325.188718 153.971292 
L 325.35865 153.874484 
L 325.613548 153.939023 
L 325.78348 153.906754 
L 326.123344 154.068101 
L 326.378243 154.13264 
L 326.548175 154.13264 
L 326.718107 154.13264 
L 326.973005 154.13264 
L 327.142937 154.164909 
L 327.397836 154.326256 
L 327.7377 154.293987 
L 327.907632 154.293987 
L 328.417429 154.197178 
L 328.672327 154.293987 
L 329.012191 154.423064 
L 330.031784 154.487603 
L 330.286682 154.552142 
L 330.796479 154.745759 
L 330.966411 154.616681 
L 331.051377 154.584412 
L 331.221309 154.68122 
L 331.391241 154.584412 
L 331.646139 154.842567 
L 331.816072 154.778028 
L 331.901038 154.939375 
L 332.07097 154.842567 
L 332.325868 154.778028 
L 332.4958 154.874836 
L 332.580766 154.778028 
L 332.665732 154.907106 
L 332.750698 154.745759 
L 332.920631 155.036184 
L 333.005597 154.939375 
L 333.090563 155.132992 
L 333.175529 155.068453 
L 333.600359 155.100722 
L 333.855257 154.778028 
L 334.110156 155.197531 
L 334.195122 155.100722 
L 334.534986 155.326608 
L 335.044783 155.617034 
L 335.129749 155.552494 
L 335.214715 155.713842 
L 335.299681 155.358878 
L 335.384647 155.423417 
L 335.469613 155.681572 
L 335.554579 155.520225 
L 335.639545 155.617034 
L 335.809477 155.520225 
L 335.979409 155.875189 
L 336.064375 155.875189 
L 336.149342 155.584764 
L 336.319274 155.971997 
L 336.40424 155.681572 
L 336.489206 156.004266 
L 336.574172 155.778381 
L 337.508799 157.198235 
L 337.593765 157.069158 
L 338.273493 158.134048 
L 338.443426 158.424473 
L 339.20812 160.973758 
L 339.972815 165.104246 
L 340.482611 169.815583 
L 341.077374 177.753855 
L 342.181933 198.277201 
L 342.351865 199.148473 
L 342.436831 199.245281 
L 342.606763 197.373657 
L 342.946628 190.822969 
L 343.881254 162.038649 
L 344.391051 140.418128 
L 344.900847 130.640494 
L 345.410644 126.348652 
L 345.665542 125.122421 
L 346.005406 124.767452 
L 346.345271 125.670996 
L 346.770101 128.220286 
L 347.364864 133.092966 
L 347.534796 134.351479 
L 347.87466 136.481264 
L 348.129558 138.385161 
L 348.384457 139.772745 
L 348.639355 141.41848 
L 349.149151 144.000042 
L 349.489016 145.323085 
L 350.593575 148.775914 
L 351.018405 149.518111 
L 351.103371 149.485842 
L 351.188337 150.034422 
L 351.273303 149.873075 
L 351.698134 150.808889 
L 352.547794 151.680163 
L 352.717726 151.776971 
L 352.887659 152.067396 
L 353.227523 152.261013 
L 353.567387 152.164205 
L 353.737319 152.293282 
L 353.822285 152.293282 
L 353.907252 152.45463 
L 353.992218 152.357821 
L 354.16215 152.519168 
L 354.417048 152.712785 
L 354.58698 152.841863 
L 354.756912 152.841863 
L 354.841878 152.809593 
L 354.926844 152.938671 
L 355.011811 152.874132 
L 355.181743 152.841863 
L 355.351675 152.874132 
L 355.436641 152.874132 
L 355.606573 153.100018 
L 355.776505 153.132287 
L 356.031403 153.261365 
L 356.286302 153.325904 
L 356.626166 153.358173 
L 356.796098 153.584059 
L 356.96603 153.584059 
L 357.560793 153.939023 
L 357.985623 153.842215 
L 358.92025 154.13264 
L 359.430047 154.035831 
L 360.449639 154.358526 
L 360.704538 154.358526 
L 361.809097 154.390795 
L 361.894063 154.487603 
L 362.063995 154.423064 
L 362.658757 154.487603 
L 362.913656 154.552142 
L 363.25352 154.616681 
L 363.508418 154.552142 
L 363.67835 154.552142 
L 364.103181 154.616681 
L 364.443045 154.778028 
L 365.377672 154.778028 
L 365.547604 154.907106 
L 366.142367 155.068453 
L 366.397265 154.971645 
L 366.907061 155.003914 
L 367.076993 155.132992 
L 367.16196 155.068453 
L 367.416858 155.262069 
L 367.756722 155.262069 
L 367.841688 155.391147 
L 367.926654 155.262069 
L 368.181552 155.423417 
L 368.351485 155.487956 
L 368.436451 155.713842 
L 368.521417 155.681572 
L 368.946247 155.778381 
L 369.116179 155.810649 
L 369.201145 155.810649 
L 369.286111 155.939727 
L 369.456044 155.875189 
L 369.710942 155.907458 
L 370.135772 156.359231 
L 370.220738 156.326961 
L 370.560603 156.681924 
L 370.645569 156.714194 
L 370.900467 157.069158 
L 371.750128 158.424473 
L 372.005026 158.940785 
L 372.429856 160.102483 
L 373.024619 162.716307 
L 373.704347 167.395374 
L 374.29911 174.268759 
L 374.978839 185.982561 
L 375.743533 198.664433 
L 375.828499 198.890322 
L 375.913465 198.728969 
L 376.168364 195.437498 
L 376.508228 188.047801 
L 377.357889 161.909572 
L 377.867685 140.579481 
L 378.292516 131.576301 
L 378.802312 126.994045 
L 379.227142 124.735179 
L 379.482041 124.541563 
L 379.821905 125.606461 
L 380.246735 128.349356 
L 382.285921 142.257489 
L 383.220548 146.323437 
L 383.730345 147.711023 
L 384.240141 149.066339 
L 384.580005 149.840805 
L 384.749937 150.034422 
L 385.004836 150.421655 
L 385.854496 151.744701 
L 385.939463 151.615624 
L 386.024429 151.680163 
L 386.194361 151.744701 
L 386.364293 151.87378 
L 386.619191 152.196474 
L 386.789123 152.293282 
L 387.128988 152.42236 
L 387.213954 152.615976 
L 387.383886 152.551438 
L 387.638784 152.551438 
L 387.808716 152.551438 
L 387.808716 152.551438 
" clip-path="url(#p40eaa1a2ec)" style="fill: none; stroke: #333333; stroke-width: 0.8; stroke-linecap: square"/>
   </g>
   <g id="line2d_15">
    <path d="M 387.893682 147.194713 
L 388.488445 149.485842 
L 388.658377 149.808536 
L 389.168173 150.937966 
L 390.697563 153.100018 
L 391.292325 153.680868 
L 391.717156 154.035831 
L 392.48185 154.068101 
L 392.566817 154.197178 
L 392.651783 154.13264 
L 392.991647 154.390795 
L 393.076613 154.616681 
L 393.416477 154.390795 
L 393.501443 154.326256 
L 393.671376 154.584412 
L 393.926274 154.584412 
L 394.01124 154.810298 
L 394.096206 154.713489 
L 395.625595 156.617386 
L 395.795527 157.101427 
L 396.560222 160.102483 
L 396.81512 162.167727 
L 397.239951 168.331191 
L 397.494849 175.172303 
L 397.834713 192.436442 
L 398.174578 227.932778 
L 398.34451 240.74373 
L 398.429476 241.292306 
L 398.599408 232.902266 
L 400.383696 110.149391 
L 400.553628 109.342655 
L 400.638594 109.439463 
L 400.808526 110.50436 
L 401.14839 114.538042 
L 402.592814 134.512823 
L 403.52744 142.38657 
L 403.952271 144.774505 
L 404.292135 145.968474 
L 405.311728 149.614919 
L 405.396694 149.711727 
L 405.651592 150.421655 
L 406.076423 151.260661 
L 406.501253 151.87378 
L 406.671185 152.099666 
L 407.265948 153.035479 
L 407.43588 153.132287 
L 408.710371 154.003562 
L 408.965269 154.003562 
L 409.3901 154.003562 
L 409.560032 154.164909 
L 409.729964 154.197178 
L 409.984862 154.293987 
L 410.069828 154.519873 
L 410.154794 154.358526 
L 410.23976 154.423064 
L 410.409693 154.423064 
L 410.919489 154.64895 
L 412.024048 156.165614 
L 412.278946 156.294691 
L 412.448878 156.907811 
L 412.618811 157.359583 
L 413.468471 161.812763 
L 413.893302 167.58899 
L 414.233166 177.0762 
L 414.488064 190.113041 
L 414.827929 222.931027 
L 415.082827 241.582729 
L 415.167793 240.066065 
L 415.507657 216.993449 
L 416.867114 113.989456 
L 417.122013 109.503998 
L 417.206979 109.052231 
L 417.291945 109.084503 
L 417.376911 109.310382 
L 417.631809 111.633783 
L 417.971673 116.248322 
L 418.9063 129.962829 
L 419.670995 138.030192 
L 420.180791 141.934792 
L 420.86052 145.226277 
L 422.050045 149.421303 
L 422.219977 149.808536 
L 422.899706 151.325199 
L 423.23957 151.84151 
L 424.344129 153.325904 
L 425.108824 153.584059 
L 425.19379 153.842215 
L 425.278756 153.777676 
L 425.788553 153.874484 
L 425.958485 153.906754 
L 426.128417 154.003562 
L 426.213383 153.971292 
L 426.468281 154.229448 
L 426.638213 154.13264 
L 426.893112 154.326256 
L 426.978078 154.229448 
L 427.232976 154.455334 
L 427.317942 154.423064 
L 427.402908 154.552142 
L 427.487874 154.455334 
L 428.422501 155.584764 
L 428.677399 156.101074 
L 428.847331 155.939727 
L 429.10223 156.585116 
L 429.187196 156.617386 
L 429.612026 158.327665 
L 430.206789 162.167727 
L 430.546653 166.556365 
L 430.886517 175.527262 
L 431.226381 193.662672 
L 431.821144 241.518194 
L 431.991076 232.611842 
L 433.265567 132.641199 
L 433.520466 115.312505 
L 433.775364 109.40719 
L 433.945296 108.535918 
L 434.115228 109.439463 
L 434.370126 111.924207 
L 436.324346 137.449344 
L 437.174007 143.677346 
L 437.428905 144.51635 
L 438.448498 148.646837 
L 439.043261 150.13123 
L 439.892921 151.87378 
L 440.402718 152.228743 
L 440.657616 152.777323 
L 440.99748 153.100018 
L 441.422311 153.454982 
L 441.847141 153.51952 
L 441.932107 153.648598 
L 442.017073 153.55179 
L 442.356938 154.068101 
L 442.441904 153.648598 
L 442.611836 153.874484 
L 443.291564 154.068101 
L 443.37653 153.971292 
L 443.716395 154.326256 
L 444.141225 154.519873 
L 444.226191 154.64895 
L 444.311157 154.584412 
L 444.820954 155.036184 
L 445.500682 156.133344 
L 445.755581 156.423769 
L 446.435309 158.843976 
L 446.690207 160.392908 
L 447.115038 164.813822 
L 447.454902 171.525864 
L 447.7098 180.9808 
L 447.964699 197.212314 
L 448.474495 242.389466 
L 448.559461 240.517842 
L 448.899325 216.218986 
L 450.258783 112.892296 
L 450.513681 108.664999 
L 450.598647 108.277767 
L 450.683613 108.374575 
L 450.938511 110.181664 
L 451.533274 118.442642 
L 452.467901 131.640847 
L 453.062663 137.836576 
L 454.167222 144.677697 
L 454.846951 147.581945 
L 455.101849 148.550028 
L 455.526679 149.743997 
L 455.611646 149.873075 
L 455.866544 150.550733 
L 456.036476 150.776619 
L 456.546272 151.712433 
L 456.716205 152.035126 
L 456.801171 152.067396 
L 457.056069 152.39009 
L 458.33056 153.680868 
L 458.500492 153.648598 
L 459.095255 153.713137 
L 459.435119 153.874484 
L 459.520085 153.874484 
L 459.690017 154.13264 
L 459.859949 153.939023 
L 459.944915 154.164909 
L 460.029882 154.035831 
L 460.114848 154.10037 
L 460.28478 154.035831 
L 460.454712 154.13264 
L 460.794576 154.519873 
L 460.964508 154.584412 
L 461.984101 155.907458 
L 462.66383 157.133696 
L 463.173626 159.102131 
L 463.513491 161.360991 
L 463.853355 165.685094 
L 464.193219 173.236134 
L 464.533084 188.435033 
L 464.787982 210.378226 
L 465.127846 242.292658 
L 465.212812 242.066769 
L 465.46771 226.25477 
L 467.082066 109.89124 
L 467.251998 108.180959 
L 467.336964 108.116414 
L 467.42193 108.31003 
L 467.676828 110.407542 
L 469.631048 136.739416 
L 470.735607 144.355001 
L 471.415336 147.033365 
L 471.840166 148.582298 
L 472.349963 150.13123 
L 472.689827 150.776619 
L 473.029691 151.29293 
L 473.879352 152.680515 
L 474.389148 153.100018 
L 474.644047 153.293635 
L 474.898945 153.55179 
L 474.983911 153.584059 
L 475.153843 153.777676 
L 475.238809 153.745406 
L 475.408741 153.777676 
L 476.003504 153.939023 
L 476.173436 153.971292 
L 477.872758 154.713489 
L 478.04269 155.068453 
L 478.722418 156.004266 
L 479.317181 157.101427 
L 479.99691 159.682981 
L 480.506706 165.007438 
L 480.761604 169.847846 
L 481.101469 181.884345 
L 481.356367 198.535353 
L 481.866163 243.034849 
L 482.036095 235.612889 
L 483.820383 108.987695 
L 483.990315 107.890525 
L 484.075281 108.019606 
L 484.245213 109.116766 
L 484.500112 111.859671 
L 485.604671 128.542982 
L 486.454331 137.997919 
L 487.303992 143.806426 
L 488.408551 148.356412 
L 489.173246 150.357116 
L 490.022907 151.84151 
L 490.107873 151.87378 
L 490.787601 152.938671 
L 492.316991 154.003562 
L 492.741821 153.906754 
L 492.996719 154.068101 
L 493.251618 154.164909 
L 493.676448 154.358526 
L 493.84638 154.390795 
L 494.101278 154.487603 
L 494.186244 154.552142 
L 494.356177 154.487603 
L 494.696041 155.003914 
L 494.950939 155.423417 
L 495.8006 156.520577 
L 495.970532 157.036888 
L 496.565295 159.424825 
L 496.905159 161.748224 
L 497.160057 164.523398 
L 497.499921 171.299975 
L 497.839786 184.62724 
L 498.094684 203.311225 
L 498.519514 243.099394 
L 498.60448 242.454001 
L 498.859379 226.190235 
L 500.473734 109.503998 
L 500.643666 107.890525 
L 500.728632 107.955071 
L 500.898564 108.729534 
L 501.323395 113.795841 
L 502.51292 131.350423 
L 503.447547 140.418128 
L 504.127275 144.322729 
L 504.552106 146.129821 
L 505.3168 149.130878 
L 505.741631 150.13123 
L 506.081495 151.002505 
L 506.421359 151.551086 
L 507.016122 152.293282 
L 507.186054 152.519168 
L 507.865783 153.358173 
L 508.80041 153.809945 
L 509.055308 153.971292 
L 509.140274 153.874484 
L 509.395172 154.068101 
L 509.480138 154.003562 
L 509.565104 154.10037 
L 509.735036 154.003562 
L 510.669663 154.64895 
L 510.839595 154.584412 
L 511.094494 154.68122 
L 511.349392 155.036184 
L 511.434358 155.068453 
L 512.199053 156.294691 
L 512.708849 157.198235 
L 513.303612 159.553903 
L 513.813408 164.136161 
L 514.153272 170.364158 
L 514.493137 182.755616 
L 514.748035 199.955209 
L 515.257831 243.680242 
L 515.427764 235.419273 
L 516.702255 133.835167 
L 516.957153 115.312505 
L 517.212051 108.697262 
L 517.381983 107.858263 
L 517.466949 107.922798 
L 517.636882 109.116766 
L 517.976746 113.311801 
L 519.676067 136.319911 
L 520.355796 142.096146 
L 520.865593 144.613157 
L 521.460355 147.001096 
L 521.885185 148.808184 
L 522.64988 150.583002 
L 523.669473 152.325551 
L 524.858998 153.584059 
L 525.198862 153.680868 
L 525.368795 153.777676 
L 526.643286 154.229448 
L 526.728252 154.164909 
L 527.068116 154.390795 
L 527.153082 154.390795 
L 527.492947 154.810298 
L 527.747845 154.778028 
L 527.917777 154.778028 
L 528.172675 155.197531 
L 529.3622 157.133696 
L 529.617098 158.004971 
L 529.787031 158.553551 
L 530.381793 162.974462 
L 530.721657 167.879414 
L 531.061522 177.398896 
L 531.401386 197.115506 
L 531.911183 244.196554 
L 531.996149 242.905778 
L 532.336013 219.413658 
L 533.780436 110.439815 
L 534.035334 107.34195 
L 534.120301 107.309678 
L 534.290233 108.213222 
L 534.715063 113.699033 
L 536.07452 133.415662 
L 536.924181 141.063521 
L 537.518944 144.645427 
L 537.858808 145.839396 
L 539.048333 150.195769 
L 539.133299 150.228039 
L 539.388197 150.712081 
L 540.40779 152.519168 
L 540.577722 152.648246 
L 541.682281 153.745406 
L 541.93718 153.906754 
L 542.022146 154.003562 
L 542.192078 153.906754 
L 542.36201 153.971292 
L 542.701874 154.003562 
L 543.041739 154.229448 
L 543.466569 154.455334 
L 543.636501 154.326256 
L 544.910992 155.262069 
L 545.16589 155.713842 
L 545.675687 156.617386 
L 545.845619 156.875541 
L 546.440382 158.61809 
L 546.865212 160.973758 
L 547.205076 164.620206 
L 547.544941 170.977279 
L 547.799839 179.560944 
L 548.054737 194.114449 
L 548.394601 231.095178 
L 548.564534 243.77705 
L 548.6495 244.261089 
L 548.819432 235.774242 
L 550.008957 141.386217 
L 550.348821 114.76392 
L 550.603719 108.180959 
L 550.773652 107.277405 
L 550.858618 107.374223 
L 551.02855 108.535918 
L 551.45338 114.312153 
L 552.897803 134.770984 
L 553.492566 140.127704 
L 554.172295 144.580888 
L 554.427193 145.516702 
L 555.191888 148.582298 
L 555.446786 149.163147 
L 555.956582 150.518464 
L 556.21148 151.034774 
L 556.466379 151.422008 
L 556.891209 152.131935 
L 557.485972 153.035479 
L 557.74087 153.164557 
L 557.74087 153.164557 
" clip-path="url(#p40eaa1a2ec)" style="fill: none; stroke: #333333; stroke-width: 0.8; stroke-linecap: square"/>
   </g>
   <g id="text_16">
    <g id="patch_8">
     <path d="M 86.035452 249.6727 
L 179.955452 249.6727 
Q 181.555452 249.6727 181.555452 248.0727 
L 181.555452 239.5927 
Q 181.555452 237.9927 179.955452 237.9927 
L 86.035452 237.9927 
Q 84.435452 237.9927 84.435452 239.5927 
L 84.435452 248.0727 
Q 84.435452 249.6727 86.035452 249.6727 
z
" style="fill: #ffffff; opacity: 0.85; stroke: #333333; stroke-linejoin: miter"/>
    </g>
    <!-- I$_{p-p}$ = 1.51E-03 mA/m² -->
    <g style="fill: #333333" transform="translate(86.035452 245.5927) scale(0.08 -0.08)">
     <defs>
      <path id="DejaVuSans-49" d="M 628 4666 
L 1259 4666 
L 1259 0 
L 628 0 
L 628 4666 
z
" transform="scale(0.015625)"/>
      <path id="DejaVuSans-Oblique-70" d="M 3175 2156 
Q 3175 2616 2975 2859 
Q 2775 3103 2400 3103 
Q 2144 3103 1911 2972 
Q 1678 2841 1497 2591 
Q 1319 2344 1212 1994 
Q 1106 1644 1106 1300 
Q 1106 863 1306 627 
Q 1506 391 1875 391 
Q 2147 391 2380 519 
Q 2613 647 2778 891 
Q 2956 1147 3065 1494 
Q 3175 1841 3175 2156 
z
M 1394 2969 
Q 1625 3272 1939 3428 
Q 2253 3584 2638 3584 
Q 3175 3584 3472 3232 
Q 3769 2881 3769 2247 
Q 3769 1728 3584 1258 
Q 3400 788 3053 416 
Q 2822 169 2531 39 
Q 2241 -91 1919 -91 
Q 1547 -91 1294 64 
Q 1041 219 916 525 
L 556 -1331 
L -19 -1331 
L 922 3500 
L 1497 3500 
L 1394 2969 
z
" transform="scale(0.015625)"/>
      <path id="DejaVuSans-20" transform="scale(0.015625)"/>
      <path id="DejaVuSans-3d" d="M 678 2906 
L 4684 2906 
L 4684 2381 
L 678 2381 
L 678 2906 
z
M 678 1631 
L 4684 1631 
L 4684 1100 
L 678 1100 
L 678 1631 
z
" transform="scale(0.015625)"/>
      <path id="DejaVuSans-2e" d="M 684 794 
L 1344 794 
L 1344 0 
L 684 0 
L 684 794 
z
" transform="scale(0.015625)"/>
      <path id="DejaVuSans-45" d="M 628 4666 
L 3578 4666 
L 3578 4134 
L 1259 4134 
L 1259 2753 
L 3481 2753 
L 3481 2222 
L 1259 2222 
L 1259 531 
L 3634 531 
L 3634 0 
L 628 0 
L 628 4666 
z
" transform="scale(0.015625)"/>
      <path id="DejaVuSans-2d" d="M 313 2009 
L 1997 2009 
L 1997 1497 
L 313 1497 
L 313 2009 
z
" transform="scale(0.015625)"/>
      <path id="DejaVuSans-6d" d="M 3328 2828 
Q 3544 3216 3844 3400 
Q 4144 3584 4550 3584 
Q 5097 3584 5394 3201 
Q 5691 2819 5691 2113 
L 5691 0 
L 5113 0 
L 5113 2094 
Q 5113 2597 4934 2840 
Q 4756 3084 4391 3084 
Q 3944 3084 3684 2787 
Q 3425 2491 3425 1978 
L 3425 0 
L 2847 0 
L 2847 2094 
Q 2847 2600 2669 2842 
Q 2491 3084 2119 3084 
Q 1678 3084 1418 2786 
Q 1159 2488 1159 1978 
L 1159 0 
L 581 0 
L 581 3500 
L 1159 3500 
L 1159 2956 
Q 1356 3278 1631 3431 
Q 1906 3584 2284 3584 
Q 2666 3584 2933 3390 
Q 3200 3197 3328 2828 
z
" transform="scale(0.015625)"/>
      <path id="DejaVuSans-41" d="M 2188 4044 
L 1331 1722 
L 3047 1722 
L 2188 4044 
z
M 1831 4666 
L 2547 4666 
L 4325 0 
L 3669 0 
L 3244 1197 
L 1141 1197 
L 716 0 
L 50 0 
L 1831 4666 
z
" transform="scale(0.015625)"/>
      <path id="DejaVuSans-2f" d="M 1625 4666 
L 2156 4666 
L 531 -594 
L 0 -594 
L 1625 4666 
z
" transform="scale(0.015625)"/>
      <path id="DejaVuSans-b2" d="M 838 2444 
L 2163 2444 
L 2163 2088 
L 294 2088 
L 294 2431 
Q 400 2528 597 2703 
Q 1672 3656 1672 3950 
Q 1672 4156 1509 4282 
Q 1347 4409 1081 4409 
Q 919 4409 728 4354 
Q 538 4300 313 4191 
L 313 4575 
Q 553 4663 761 4706 
Q 969 4750 1147 4750 
Q 1600 4750 1872 4544 
Q 2144 4338 2144 4000 
Q 2144 3566 1109 2678 
Q 934 2528 838 2444 
z
" transform="scale(0.015625)"/>
     </defs>
     <use xlink:href="#DejaVuSans-49" transform="translate(0 0.78125)"/>
     <use xlink:href="#DejaVuSans-Oblique-70" transform="translate(30.449219 -15.625) scale(0.7)"/>
     <use xlink:href="#DejaVuSans-2212" transform="translate(88.520508 -15.625) scale(0.7)"/>
     <use xlink:href="#DejaVuSans-Oblique-70" transform="translate(160.810547 -15.625) scale(0.7)"/>
     <use xlink:href="#DejaVuSans-20" transform="translate(207.978516 0.78125)"/>
     <use xlink:href="#DejaVuSans-3d" transform="translate(239.765625 0.78125)"/>
     <use xlink:href="#DejaVuSans-20" transform="translate(323.554688 0.78125)"/>
     <use xlink:href="#DejaVuSans-31" transform="translate(355.341797 0.78125)"/>
     <use xlink:href="#DejaVuSans-2e" transform="translate(418.964844 0.78125)"/>
     <use xlink:href="#DejaVuSans-35" transform="translate(450.751953 0.78125)"/>
     <use xlink:href="#DejaVuSans-31" transform="translate(514.375 0.78125)"/>
     <use xlink:href="#DejaVuSans-45" transform="translate(577.998047 0.78125)"/>
     <use xlink:href="#DejaVuSans-2d" transform="translate(641.181641 0.78125)"/>
     <use xlink:href="#DejaVuSans-30" transform="translate(677.265625 0.78125)"/>
     <use xlink:href="#DejaVuSans-33" transform="translate(740.888672 0.78125)"/>
     <use xlink:href="#DejaVuSans-20" transform="translate(804.511719 0.78125)"/>
     <use xlink:href="#DejaVuSans-6d" transform="translate(836.298828 0.78125)"/>
     <use xlink:href="#DejaVuSans-41" transform="translate(933.710938 0.78125)"/>
     <use xlink:href="#DejaVuSans-2f" transform="translate(1002.119141 0.78125)"/>
     <use xlink:href="#DejaVuSans-6d" transform="translate(1035.810547 0.78125)"/>
     <use xlink:href="#DejaVuSans-b2" transform="translate(1133.222656 0.78125)"/>
    </g>
   </g>
   <g id="text_17">
    <g id="patch_9">
     <path d="M 256.087605 249.6727 
L 349.767605 249.6727 
Q 351.367605 249.6727 351.367605 248.0727 
L 351.367605 239.5927 
Q 351.367605 237.9927 349.767605 237.9927 
L 256.087605 237.9927 
Q 254.487605 237.9927 254.487605 239.5927 
L 254.487605 248.0727 
Q 254.487605 249.6727 256.087605 249.6727 
z
" style="fill: #ffffff; opacity: 0.85; stroke: #333333; stroke-linejoin: miter"/>
    </g>
    <!-- I$_{p-p}$ = 1.87E-03 mA/m² -->
    <g style="fill: #333333" transform="translate(256.087605 245.5927) scale(0.08 -0.08)">
     <defs>
      <path id="DejaVuSans-38" d="M 2034 2216 
Q 1584 2216 1326 1975 
Q 1069 1734 1069 1313 
Q 1069 891 1326 650 
Q 1584 409 2034 409 
Q 2484 409 2743 651 
Q 3003 894 3003 1313 
Q 3003 1734 2745 1975 
Q 2488 2216 2034 2216 
z
M 1403 2484 
Q 997 2584 770 2862 
Q 544 3141 544 3541 
Q 544 4100 942 4425 
Q 1341 4750 2034 4750 
Q 2731 4750 3128 4425 
Q 3525 4100 3525 3541 
Q 3525 3141 3298 2862 
Q 3072 2584 2669 2484 
Q 3125 2378 3379 2068 
Q 3634 1759 3634 1313 
Q 3634 634 3220 271 
Q 2806 -91 2034 -91 
Q 1263 -91 848 271 
Q 434 634 434 1313 
Q 434 1759 690 2068 
Q 947 2378 1403 2484 
z
M 1172 3481 
Q 1172 3119 1398 2916 
Q 1625 2713 2034 2713 
Q 2441 2713 2670 2916 
Q 2900 3119 2900 3481 
Q 2900 3844 2670 4047 
Q 2441 4250 2034 4250 
Q 1625 4250 1398 4047 
Q 1172 3844 1172 3481 
z
" transform="scale(0.015625)"/>
      <path id="DejaVuSans-37" d="M 525 4666 
L 3525 4666 
L 3525 4397 
L 1831 0 
L 1172 0 
L 2766 4134 
L 525 4134 
L 525 4666 
z
" transform="scale(0.015625)"/>
     </defs>
     <use xlink:href="#DejaVuSans-49" transform="translate(0 0.78125)"/>
     <use xlink:href="#DejaVuSans-Oblique-70" transform="translate(30.449219 -15.625) scale(0.7)"/>
     <use xlink:href="#DejaVuSans-2212" transform="translate(88.520508 -15.625) scale(0.7)"/>
     <use xlink:href="#DejaVuSans-Oblique-70" transform="translate(160.810547 -15.625) scale(0.7)"/>
     <use xlink:href="#DejaVuSans-20" transform="translate(207.978516 0.78125)"/>
     <use xlink:href="#DejaVuSans-3d" transform="translate(239.765625 0.78125)"/>
     <use xlink:href="#DejaVuSans-20" transform="translate(323.554688 0.78125)"/>
     <use xlink:href="#DejaVuSans-31" transform="translate(355.341797 0.78125)"/>
     <use xlink:href="#DejaVuSans-2e" transform="translate(418.964844 0.78125)"/>
     <use xlink:href="#DejaVuSans-38" transform="translate(448.126953 0.78125)"/>
     <use xlink:href="#DejaVuSans-37" transform="translate(511.75 0.78125)"/>
     <use xlink:href="#DejaVuSans-45" transform="translate(575.373047 0.78125)"/>
     <use xlink:href="#DejaVuSans-2d" transform="translate(638.556641 0.78125)"/>
     <use xlink:href="#DejaVuSans-30" transform="translate(674.640625 0.78125)"/>
     <use xlink:href="#DejaVuSans-33" transform="translate(738.263672 0.78125)"/>
     <use xlink:href="#DejaVuSans-20" transform="translate(801.886719 0.78125)"/>
     <use xlink:href="#DejaVuSans-6d" transform="translate(833.673828 0.78125)"/>
     <use xlink:href="#DejaVuSans-41" transform="translate(931.085938 0.78125)"/>
     <use xlink:href="#DejaVuSans-2f" transform="translate(999.494141 0.78125)"/>
     <use xlink:href="#DejaVuSans-6d" transform="translate(1033.185547 0.78125)"/>
     <use xlink:href="#DejaVuSans-b2" transform="translate(1130.597656 0.78125)"/>
    </g>
   </g>
   <g id="text_18">
    <g id="patch_10">
     <path d="M 425.899759 249.6727 
L 519.819759 249.6727 
Q 521.419759 249.6727 521.419759 248.0727 
L 521.419759 239.5927 
Q 521.419759 237.9927 519.819759 237.9927 
L 425.899759 237.9927 
Q 424.299759 237.9927 424.299759 239.5927 
L 424.299759 248.0727 
Q 424.299759 249.6727 425.899759 249.6727 
z
" style="fill: #ffffff; opacity: 0.85; stroke: #333333; stroke-linejoin: miter"/>
    </g>
    <!-- I$_{p-p}$ = 3.42E-03 mA/m² -->
    <g style="fill: #333333" transform="translate(425.899759 245.5927) scale(0.08 -0.08)">
     <use xlink:href="#DejaVuSans-49" transform="translate(0 0.78125)"/>
     <use xlink:href="#DejaVuSans-Oblique-70" transform="translate(30.449219 -15.625) scale(0.7)"/>
     <use xlink:href="#DejaVuSans-2212" transform="translate(88.520508 -15.625) scale(0.7)"/>
     <use xlink:href="#DejaVuSans-Oblique-70" transform="translate(160.810547 -15.625) scale(0.7)"/>
     <use xlink:href="#DejaVuSans-20" transform="translate(207.978516 0.78125)"/>
     <use xlink:href="#DejaVuSans-3d" transform="translate(239.765625 0.78125)"/>
     <use xlink:href="#DejaVuSans-20" transform="translate(323.554688 0.78125)"/>
     <use xlink:href="#DejaVuSans-33" transform="translate(355.341797 0.78125)"/>
     <use xlink:href="#DejaVuSans-2e" transform="translate(418.964844 0.78125)"/>
     <use xlink:href="#DejaVuSans-34" transform="translate(450.751953 0.78125)"/>
     <use xlink:href="#DejaVuSans-32" transform="translate(514.375 0.78125)"/>
     <use xlink:href="#DejaVuSans-45" transform="translate(577.998047 0.78125)"/>
     <use xlink:href="#DejaVuSans-2d" transform="translate(641.181641 0.78125)"/>
     <use xlink:href="#DejaVuSans-30" transform="translate(677.265625 0.78125)"/>
     <use xlink:href="#DejaVuSans-33" transform="translate(740.888672 0.78125)"/>
     <use xlink:href="#DejaVuSans-20" transform="translate(804.511719 0.78125)"/>
     <use xlink:href="#DejaVuSans-6d" transform="translate(836.298828 0.78125)"/>
     <use xlink:href="#DejaVuSans-41" transform="translate(933.710938 0.78125)"/>
     <use xlink:href="#DejaVuSans-2f" transform="translate(1002.119141 0.78125)"/>
     <use xlink:href="#DejaVuSans-6d" transform="translate(1035.810547 0.78125)"/>
     <use xlink:href="#DejaVuSans-b2" transform="translate(1133.222656 0.78125)"/>
    </g>
   </g>
   <g id="text_19">
    <!-- Short-Circuit Current — Without MIC -->
    <g transform="translate(138.873855 19.3575) scale(0.16 -0.16)">
     <defs>
      <path id="DejaVuSans-Bold-53" d="M 3834 4519 
L 3834 3531 
Q 3450 3703 3084 3790 
Q 2719 3878 2394 3878 
Q 1963 3878 1756 3759 
Q 1550 3641 1550 3391 
Q 1550 3203 1689 3098 
Q 1828 2994 2194 2919 
L 2706 2816 
Q 3484 2659 3812 2340 
Q 4141 2022 4141 1434 
Q 4141 663 3683 286 
Q 3225 -91 2284 -91 
Q 1841 -91 1394 -6 
Q 947 78 500 244 
L 500 1259 
Q 947 1022 1364 901 
Q 1781 781 2169 781 
Q 2563 781 2772 912 
Q 2981 1044 2981 1288 
Q 2981 1506 2839 1625 
Q 2697 1744 2272 1838 
L 1806 1941 
Q 1106 2091 782 2419 
Q 459 2747 459 3303 
Q 459 4000 909 4375 
Q 1359 4750 2203 4750 
Q 2588 4750 2994 4692 
Q 3400 4634 3834 4519 
z
" transform="scale(0.015625)"/>
      <path id="DejaVuSans-Bold-68" d="M 4056 2131 
L 4056 0 
L 2931 0 
L 2931 347 
L 2931 1625 
Q 2931 2084 2911 2256 
Q 2891 2428 2841 2509 
Q 2775 2619 2662 2680 
Q 2550 2741 2406 2741 
Q 2056 2741 1856 2470 
Q 1656 2200 1656 1722 
L 1656 0 
L 538 0 
L 538 4863 
L 1656 4863 
L 1656 2988 
Q 1909 3294 2193 3439 
Q 2478 3584 2822 3584 
Q 3428 3584 3742 3212 
Q 4056 2841 4056 2131 
z
" transform="scale(0.015625)"/>
      <path id="DejaVuSans-Bold-6f" d="M 2203 2784 
Q 1831 2784 1636 2517 
Q 1441 2250 1441 1747 
Q 1441 1244 1636 976 
Q 1831 709 2203 709 
Q 2569 709 2762 976 
Q 2956 1244 2956 1747 
Q 2956 2250 2762 2517 
Q 2569 2784 2203 2784 
z
M 2203 3584 
Q 3106 3584 3614 3096 
Q 4122 2609 4122 1747 
Q 4122 884 3614 396 
Q 3106 -91 2203 -91 
Q 1297 -91 786 396 
Q 275 884 275 1747 
Q 275 2609 786 3096 
Q 1297 3584 2203 3584 
z
" transform="scale(0.015625)"/>
      <path id="DejaVuSans-Bold-72" d="M 3138 2547 
Q 2991 2616 2845 2648 
Q 2700 2681 2553 2681 
Q 2122 2681 1889 2404 
Q 1656 2128 1656 1613 
L 1656 0 
L 538 0 
L 538 3500 
L 1656 3500 
L 1656 2925 
Q 1872 3269 2151 3426 
Q 2431 3584 2822 3584 
Q 2878 3584 2943 3579 
Q 3009 3575 3134 3559 
L 3138 2547 
z
" transform="scale(0.015625)"/>
      <path id="DejaVuSans-Bold-74" d="M 1759 4494 
L 1759 3500 
L 2913 3500 
L 2913 2700 
L 1759 2700 
L 1759 1216 
Q 1759 972 1856 886 
Q 1953 800 2241 800 
L 2816 800 
L 2816 0 
L 1856 0 
Q 1194 0 917 276 
Q 641 553 641 1216 
L 641 2700 
L 84 2700 
L 84 3500 
L 641 3500 
L 641 4494 
L 1759 4494 
z
" transform="scale(0.015625)"/>
      <path id="DejaVuSans-Bold-2d" d="M 347 2297 
L 2309 2297 
L 2309 1388 
L 347 1388 
L 347 2297 
z
" transform="scale(0.015625)"/>
      <path id="DejaVuSans-Bold-43" d="M 4288 256 
Q 3956 84 3597 -3 
Q 3238 -91 2847 -91 
Q 1681 -91 1000 561 
Q 319 1213 319 2328 
Q 319 3447 1000 4098 
Q 1681 4750 2847 4750 
Q 3238 4750 3597 4662 
Q 3956 4575 4288 4403 
L 4288 3438 
Q 3953 3666 3628 3772 
Q 3303 3878 2944 3878 
Q 2300 3878 1931 3465 
Q 1563 3053 1563 2328 
Q 1563 1606 1931 1193 
Q 2300 781 2944 781 
Q 3303 781 3628 887 
Q 3953 994 4288 1222 
L 4288 256 
z
" transform="scale(0.015625)"/>
      <path id="DejaVuSans-Bold-63" d="M 3366 3391 
L 3366 2478 
Q 3138 2634 2908 2709 
Q 2678 2784 2431 2784 
Q 1963 2784 1702 2511 
Q 1441 2238 1441 1747 
Q 1441 1256 1702 982 
Q 1963 709 2431 709 
Q 2694 709 2930 787 
Q 3166 866 3366 1019 
L 3366 103 
Q 3103 6 2833 -42 
Q 2563 -91 2291 -91 
Q 1344 -91 809 395 
Q 275 881 275 1747 
Q 275 2613 809 3098 
Q 1344 3584 2291 3584 
Q 2566 3584 2833 3536 
Q 3100 3488 3366 3391 
z
" transform="scale(0.015625)"/>
      <path id="DejaVuSans-Bold-75" d="M 500 1363 
L 500 3500 
L 1625 3500 
L 1625 3150 
Q 1625 2866 1622 2436 
Q 1619 2006 1619 1863 
Q 1619 1441 1641 1255 
Q 1663 1069 1716 984 
Q 1784 875 1895 815 
Q 2006 756 2150 756 
Q 2500 756 2700 1025 
Q 2900 1294 2900 1772 
L 2900 3500 
L 4019 3500 
L 4019 0 
L 2900 0 
L 2900 506 
Q 2647 200 2364 54 
Q 2081 -91 1741 -91 
Q 1134 -91 817 281 
Q 500 653 500 1363 
z
" transform="scale(0.015625)"/>
      <path id="DejaVuSans-Bold-6e" d="M 4056 2131 
L 4056 0 
L 2931 0 
L 2931 347 
L 2931 1631 
Q 2931 2084 2911 2256 
Q 2891 2428 2841 2509 
Q 2775 2619 2662 2680 
Q 2550 2741 2406 2741 
Q 2056 2741 1856 2470 
Q 1656 2200 1656 1722 
L 1656 0 
L 538 0 
L 538 3500 
L 1656 3500 
L 1656 2988 
Q 1909 3294 2193 3439 
Q 2478 3584 2822 3584 
Q 3428 3584 3742 3212 
Q 4056 2841 4056 2131 
z
" transform="scale(0.015625)"/>
      <path id="DejaVuSans-Bold-2014" d="M 344 2156 
L 6056 2156 
L 6056 1350 
L 344 1350 
L 344 2156 
z
" transform="scale(0.015625)"/>
      <path id="DejaVuSans-Bold-57" d="M 191 4666 
L 1344 4666 
L 2150 1275 
L 2950 4666 
L 4109 4666 
L 4909 1275 
L 5716 4666 
L 6859 4666 
L 5759 0 
L 4372 0 
L 3525 3547 
L 2688 0 
L 1300 0 
L 191 4666 
z
" transform="scale(0.015625)"/>
      <path id="DejaVuSans-Bold-4d" d="M 588 4666 
L 2119 4666 
L 3181 2169 
L 4250 4666 
L 5778 4666 
L 5778 0 
L 4641 0 
L 4641 3413 
L 3566 897 
L 2803 897 
L 1728 3413 
L 1728 0 
L 588 0 
L 588 4666 
z
" transform="scale(0.015625)"/>
     </defs>
     <use xlink:href="#DejaVuSans-Bold-53"/>
     <use xlink:href="#DejaVuSans-Bold-68" transform="translate(72.021484 0)"/>
     <use xlink:href="#DejaVuSans-Bold-6f" transform="translate(143.212891 0)"/>
     <use xlink:href="#DejaVuSans-Bold-72" transform="translate(211.914062 0)"/>
     <use xlink:href="#DejaVuSans-Bold-74" transform="translate(261.230469 0)"/>
     <use xlink:href="#DejaVuSans-Bold-2d" transform="translate(309.033203 0)"/>
     <use xlink:href="#DejaVuSans-Bold-43" transform="translate(350.537109 0)"/>
     <use xlink:href="#DejaVuSans-Bold-69" transform="translate(423.925781 0)"/>
     <use xlink:href="#DejaVuSans-Bold-72" transform="translate(458.203125 0)"/>
     <use xlink:href="#DejaVuSans-Bold-63" transform="translate(507.519531 0)"/>
     <use xlink:href="#DejaVuSans-Bold-75" transform="translate(566.796875 0)"/>
     <use xlink:href="#DejaVuSans-Bold-69" transform="translate(637.988281 0)"/>
     <use xlink:href="#DejaVuSans-Bold-74" transform="translate(672.265625 0)"/>
     <use xlink:href="#DejaVuSans-Bold-20" transform="translate(720.068359 0)"/>
     <use xlink:href="#DejaVuSans-Bold-43" transform="translate(754.882812 0)"/>
     <use xlink:href="#DejaVuSans-Bold-75" transform="translate(828.271484 0)"/>
     <use xlink:href="#DejaVuSans-Bold-72" transform="translate(899.462891 0)"/>
     <use xlink:href="#DejaVuSans-Bold-72" transform="translate(948.779297 0)"/>
     <use xlink:href="#DejaVuSans-Bold-65" transform="translate(998.095703 0)"/>
     <use xlink:href="#DejaVuSans-Bold-6e" transform="translate(1065.917969 0)"/>
     <use xlink:href="#DejaVuSans-Bold-74" transform="translate(1137.109375 0)"/>
     <use xlink:href="#DejaVuSans-Bold-20" transform="translate(1184.912109 0)"/>
     <use xlink:href="#DejaVuSans-Bold-2014" transform="translate(1219.726562 0)"/>
     <use xlink:href="#DejaVuSans-Bold-20" transform="translate(1319.726562 0)"/>
     <use xlink:href="#DejaVuSans-Bold-57" transform="translate(1354.541016 0)"/>
     <use xlink:href="#DejaVuSans-Bold-69" transform="translate(1464.84375 0)"/>
     <use xlink:href="#DejaVuSans-Bold-74" transform="translate(1499.121094 0)"/>
     <use xlink:href="#DejaVuSans-Bold-68" transform="translate(1546.923828 0)"/>
     <use xlink:href="#DejaVuSans-Bold-6f" transform="translate(1618.115234 0)"/>
     <use xlink:href="#DejaVuSans-Bold-75" transform="translate(1686.816406 0)"/>
     <use xlink:href="#DejaVuSans-Bold-74" transform="translate(1758.007812 0)"/>
     <use xlink:href="#DejaVuSans-Bold-20" transform="translate(1805.810547 0)"/>
     <use xlink:href="#DejaVuSans-Bold-4d" transform="translate(1840.625 0)"/>
     <use xlink:href="#DejaVuSans-Bold-49" transform="translate(1940.136719 0)"/>
     <use xlink:href="#DejaVuSans-Bold-43" transform="translate(1977.34375 0)"/>
    </g>
   </g>
   <g id="text_20">
    <!-- 1 Hz -->
    <g style="fill: #4a90d9" transform="translate(116.987171 53.837069) scale(0.13 -0.13)">
     <defs>
      <path id="DejaVuSans-Bold-31" d="M 750 831 
L 1813 831 
L 1813 3847 
L 722 3622 
L 722 4441 
L 1806 4666 
L 2950 4666 
L 2950 831 
L 4013 831 
L 4013 0 
L 750 0 
L 750 831 
z
" transform="scale(0.015625)"/>
      <path id="DejaVuSans-Bold-48" d="M 588 4666 
L 1791 4666 
L 1791 2888 
L 3566 2888 
L 3566 4666 
L 4769 4666 
L 4769 0 
L 3566 0 
L 3566 1978 
L 1791 1978 
L 1791 0 
L 588 0 
L 588 4666 
z
" transform="scale(0.015625)"/>
      <path id="DejaVuSans-Bold-7a" d="M 366 3500 
L 3419 3500 
L 3419 2719 
L 1575 800 
L 3419 800 
L 3419 0 
L 288 0 
L 288 781 
L 2131 2700 
L 366 2700 
L 366 3500 
z
" transform="scale(0.015625)"/>
     </defs>
     <use xlink:href="#DejaVuSans-Bold-31"/>
     <use xlink:href="#DejaVuSans-Bold-20" transform="translate(69.580078 0)"/>
     <use xlink:href="#DejaVuSans-Bold-48" transform="translate(104.394531 0)"/>
     <use xlink:href="#DejaVuSans-Bold-7a" transform="translate(188.085938 0)"/>
    </g>
   </g>
   <g id="text_21">
    <!-- 2.5 Hz -->
    <g style="fill: #5cb85c" transform="translate(279.927762 53.837069) scale(0.13 -0.13)">
     <defs>
      <path id="DejaVuSans-Bold-32" d="M 1844 884 
L 3897 884 
L 3897 0 
L 506 0 
L 506 884 
L 2209 2388 
Q 2438 2594 2547 2791 
Q 2656 2988 2656 3200 
Q 2656 3528 2436 3728 
Q 2216 3928 1850 3928 
Q 1569 3928 1234 3808 
Q 900 3688 519 3450 
L 519 4475 
Q 925 4609 1322 4679 
Q 1719 4750 2100 4750 
Q 2938 4750 3402 4381 
Q 3866 4013 3866 3353 
Q 3866 2972 3669 2642 
Q 3472 2313 2841 1759 
L 1844 884 
z
" transform="scale(0.015625)"/>
      <path id="DejaVuSans-Bold-2e" d="M 653 1209 
L 1778 1209 
L 1778 0 
L 653 0 
L 653 1209 
z
" transform="scale(0.015625)"/>
      <path id="DejaVuSans-Bold-35" d="M 678 4666 
L 3669 4666 
L 3669 3781 
L 1638 3781 
L 1638 3059 
Q 1775 3097 1914 3117 
Q 2053 3138 2203 3138 
Q 3056 3138 3531 2711 
Q 4006 2284 4006 1522 
Q 4006 766 3489 337 
Q 2972 -91 2053 -91 
Q 1656 -91 1267 -14 
Q 878 63 494 219 
L 494 1166 
Q 875 947 1217 837 
Q 1559 728 1863 728 
Q 2300 728 2551 942 
Q 2803 1156 2803 1522 
Q 2803 1891 2551 2103 
Q 2300 2316 1863 2316 
Q 1603 2316 1309 2248 
Q 1016 2181 678 2041 
L 678 4666 
z
" transform="scale(0.015625)"/>
     </defs>
     <use xlink:href="#DejaVuSans-Bold-32"/>
     <use xlink:href="#DejaVuSans-Bold-2e" transform="translate(69.580078 0)"/>
     <use xlink:href="#DejaVuSans-Bold-35" transform="translate(107.568359 0)"/>
     <use xlink:href="#DejaVuSans-Bold-20" transform="translate(177.148438 0)"/>
     <use xlink:href="#DejaVuSans-Bold-48" transform="translate(211.962891 0)"/>
     <use xlink:href="#DejaVuSans-Bold-7a" transform="translate(295.654297 0)"/>
    </g>
   </g>
   <g id="text_22">
    <!-- 5 Hz -->
    <g style="fill: #f0ad4e" transform="translate(456.851478 53.837069) scale(0.13 -0.13)">
     <use xlink:href="#DejaVuSans-Bold-35"/>
     <use xlink:href="#DejaVuSans-Bold-20" transform="translate(69.580078 0)"/>
     <use xlink:href="#DejaVuSans-Bold-48" transform="translate(104.394531 0)"/>
     <use xlink:href="#DejaVuSans-Bold-7a" transform="translate(188.085938 0)"/>
    </g>
   </g>
  </g>
 </g>
 <defs>
  <clipPath id="p40eaa1a2ec">
   <rect x="48.029375" y="34.3575" width="509.796461" height="240.04"/>
  </clipPath>
 </defs>
</svg>
