<?xml version="1.0" encoding="utf-8" standalone="no"?>
<!DOCTYPE svg PUBLIC "-//W3C//DTD SVG 1.1//EN"
  "http://www.w3.org/Graphics/SVG/1.1/DTD/svg11.dtd">
<svg xmlns:xlink="http://www.w3.org/1999/xlink" width="496.172301pt" height="315.86975pt" viewBox="0 0 496.172301 315.86975" xmlns="http://www.w3.org/2000/svg" version="1.1">
 <metadata>
  <rdf:RDF xmlns:dc="http://purl.org/dc/elements/1.1/" xmlns:cc="http://creativecommons.org/ns#" xmlns:rdf="http://www.w3.org/1999/02/22-rdf-syntax-ns#">
   <cc:Work>
    <dc:type rdf:resource="http://purl.org/dc/dcmitype/StillImage"/>
    <dc:date>2026-04-26T16:36:50.388420</dc:date>
    <dc:format>image/svg+xml</dc:format>
    <dc:creator>
     <cc:Agent>
      <dc:title>Matplotlib v3.10.8, https://matplotlib.org/</dc:title>
     </cc:Agent>
    </dc:creator>
   </cc:Work>
  </rdf:RDF>
 </metadata>
 <defs>
  <style type="text/css">*{stroke-linejoin: round; stroke-linecap: butt}</style>
 </defs>
 <g id="figure_1">
  <g id="patch_1">
   <path d="M 0 315.86975 
L 496.172301 315.86975 
L 496.172301 0 
L 0 0 
z
" style="fill: #ffffff"/>
  </g>
  <g id="axes_1">
   <g id="patch_2">
    <path d="M 58.479375 273.474438 
L 488.972301 273.474438 
L 488.972301 17.798437 
L 58.479375 17.798437 
z
" style="fill: #ffffff"/>
   </g>
   <g id="patch_3">
    <path d="M 58.479375 273.474438 
L 273.725838 273.474438 
L 273.725838 17.798437 
L 58.479375 17.798437 
z
" clip-path="url(#pa06b40c8cc)" style="fill: #cccccc; opacity: 0.12; stroke: #cccccc; stroke-linejoin: miter"/>
   </g>
   <g id="patch_4">
    <path d="M 273.725838 273.474438 
L 488.972301 273.474438 
L 488.972301 17.798437 
L 273.725838 17.798437 
z
" clip-path="url(#pa06b40c8cc)" style="fill: #d94452; opacity: 0.06; stroke: #d94452; stroke-linejoin: miter"/>
   </g>
   <g id="line2d_1">
    <path d="M 273.725838 273.474438 
L 273.725838 17.798437 
" clip-path="url(#pa06b40c8cc)" style="fill: none; stroke-dasharray: 3.7,1.6; stroke-dashoffset: 0; stroke: #999999"/>
   </g>
   <g id="matplotlib.axis_1">
    <g id="xtick_1">
     <g id="line2d_2">
      <defs>
       <path id="m5b845bb2a6" d="M 0 0 
L 0 3.5 
" style="stroke: #000000; stroke-width: 0.8"/>
      </defs>
      <g>
       <use xlink:href="#m5b845bb2a6" x="58.479375" y="273.474438" style="stroke: #000000; stroke-width: 0.8"/>
      </g>
     </g>
     <g id="text_1">
      <!-- 0.0 -->
      <g transform="translate(49.732656 288.832719) scale(0.11 -0.11)">
       <defs>
        <path id="DejaVuSans-30" d="M 2034 4250 
Q 1547 4250 1301 3770 
Q 1056 3291 1056 2328 
Q 1056 1369 1301 889 
Q 1547 409 2034 409 
Q 2525 409 2770 889 
Q 3016 1369 3016 2328 
Q 3016 3291 2770 3770 
Q 2525 4250 2034 4250 
z
M 2034 4750 
Q 2819 4750 3233 4129 
Q 3647 3509 3647 2328 
Q 3647 1150 3233 529 
Q 2819 -91 2034 -91 
Q 1250 -91 836 529 
Q 422 1150 422 2328 
Q 422 3509 836 4129 
Q 1250 4750 2034 4750 
z
" transform="scale(0.015625)"/>
        <path id="DejaVuSans-2e" d="M 684 794 
L 1344 794 
L 1344 0 
L 684 0 
L 684 794 
z
" transform="scale(0.015625)"/>
       </defs>
       <use xlink:href="#DejaVuSans-30"/>
       <use xlink:href="#DejaVuSans-2e" transform="translate(63.623047 0)"/>
       <use xlink:href="#DejaVuSans-30" transform="translate(95.410156 0)"/>
      </g>
     </g>
    </g>
    <g id="xtick_2">
     <g id="line2d_3">
      <g>
       <use xlink:href="#m5b845bb2a6" x="112.31791" y="273.474438" style="stroke: #000000; stroke-width: 0.8"/>
      </g>
     </g>
     <g id="text_2">
      <!-- 0.5 -->
      <g transform="translate(103.571191 288.832719) scale(0.11 -0.11)">
       <defs>
        <path id="DejaVuSans-35" d="M 691 4666 
L 3169 4666 
L 3169 4134 
L 1269 4134 
L 1269 2991 
Q 1406 3038 1543 3061 
Q 1681 3084 1819 3084 
Q 2600 3084 3056 2656 
Q 3513 2228 3513 1497 
Q 3513 744 3044 326 
Q 2575 -91 1722 -91 
Q 1428 -91 1123 -41 
Q 819 9 494 109 
L 494 744 
Q 775 591 1075 516 
Q 1375 441 1709 441 
Q 2250 441 2565 725 
Q 2881 1009 2881 1497 
Q 2881 1984 2565 2268 
Q 2250 2553 1709 2553 
Q 1456 2553 1204 2497 
Q 953 2441 691 2322 
L 691 4666 
z
" transform="scale(0.015625)"/>
       </defs>
       <use xlink:href="#DejaVuSans-30"/>
       <use xlink:href="#DejaVuSans-2e" transform="translate(63.623047 0)"/>
       <use xlink:href="#DejaVuSans-35" transform="translate(95.410156 0)"/>
      </g>
     </g>
    </g>
    <g id="xtick_3">
     <g id="line2d_4">
      <g>
       <use xlink:href="#m5b845bb2a6" x="166.156445" y="273.474438" style="stroke: #000000; stroke-width: 0.8"/>
      </g>
     </g>
     <g id="text_3">
      <!-- 1.0 -->
      <g transform="translate(157.409726 288.832719) scale(0.11 -0.11)">
       <defs>
        <path id="DejaVuSans-31" d="M 794 531 
L 1825 531 
L 1825 4091 
L 703 3866 
L 703 4441 
L 1819 4666 
L 2450 4666 
L 2450 531 
L 3481 531 
L 3481 0 
L 794 0 
L 794 531 
z
" transform="scale(0.015625)"/>
       </defs>
       <use xlink:href="#DejaVuSans-31"/>
       <use xlink:href="#DejaVuSans-2e" transform="translate(63.623047 0)"/>
       <use xlink:href="#DejaVuSans-30" transform="translate(95.410156 0)"/>
      </g>
     </g>
    </g>
    <g id="xtick_4">
     <g id="line2d_5">
      <g>
       <use xlink:href="#m5b845bb2a6" x="219.99498" y="273.474438" style="stroke: #000000; stroke-width: 0.8"/>
      </g>
     </g>
     <g id="text_4">
      <!-- 1.5 -->
      <g transform="translate(211.248261 288.832719) scale(0.11 -0.11)">
       <use xlink:href="#DejaVuSans-31"/>
       <use xlink:href="#DejaVuSans-2e" transform="translate(63.623047 0)"/>
       <use xlink:href="#DejaVuSans-35" transform="translate(95.410156 0)"/>
      </g>
     </g>
    </g>
    <g id="xtick_5">
     <g id="line2d_6">
      <g>
       <use xlink:href="#m5b845bb2a6" x="273.833515" y="273.474438" style="stroke: #000000; stroke-width: 0.8"/>
      </g>
     </g>
     <g id="text_5">
      <!-- 2.0 -->
      <g transform="translate(265.086796 288.832719) scale(0.11 -0.11)">
       <defs>
        <path id="DejaVuSans-32" d="M 1228 531 
L 3431 531 
L 3431 0 
L 469 0 
L 469 531 
Q 828 903 1448 1529 
Q 2069 2156 2228 2338 
Q 2531 2678 2651 2914 
Q 2772 3150 2772 3378 
Q 2772 3750 2511 3984 
Q 2250 4219 1831 4219 
Q 1534 4219 1204 4116 
Q 875 4013 500 3803 
L 500 4441 
Q 881 4594 1212 4672 
Q 1544 4750 1819 4750 
Q 2544 4750 2975 4387 
Q 3406 4025 3406 3419 
Q 3406 3131 3298 2873 
Q 3191 2616 2906 2266 
Q 2828 2175 2409 1742 
Q 1991 1309 1228 531 
z
" transform="scale(0.015625)"/>
       </defs>
       <use xlink:href="#DejaVuSans-32"/>
       <use xlink:href="#DejaVuSans-2e" transform="translate(63.623047 0)"/>
       <use xlink:href="#DejaVuSans-30" transform="translate(95.410156 0)"/>
      </g>
     </g>
    </g>
    <g id="xtick_6">
     <g id="line2d_7">
      <g>
       <use xlink:href="#m5b845bb2a6" x="327.67205" y="273.474438" style="stroke: #000000; stroke-width: 0.8"/>
      </g>
     </g>
     <g id="text_6">
      <!-- 2.5 -->
      <g transform="translate(318.925331 288.832719) scale(0.11 -0.11)">
       <use xlink:href="#DejaVuSans-32"/>
       <use xlink:href="#DejaVuSans-2e" transform="translate(63.623047 0)"/>
       <use xlink:href="#DejaVuSans-35" transform="translate(95.410156 0)"/>
      </g>
     </g>
    </g>
    <g id="xtick_7">
     <g id="line2d_8">
      <g>
       <use xlink:href="#m5b845bb2a6" x="381.510585" y="273.474438" style="stroke: #000000; stroke-width: 0.8"/>
      </g>
     </g>
     <g id="text_7">
      <!-- 3.0 -->
      <g transform="translate(372.763866 288.832719) scale(0.11 -0.11)">
       <defs>
        <path id="DejaVuSans-33" d="M 2597 2516 
Q 3050 2419 3304 2112 
Q 3559 1806 3559 1356 
Q 3559 666 3084 287 
Q 2609 -91 1734 -91 
Q 1441 -91 1130 -33 
Q 819 25 488 141 
L 488 750 
Q 750 597 1062 519 
Q 1375 441 1716 441 
Q 2309 441 2620 675 
Q 2931 909 2931 1356 
Q 2931 1769 2642 2001 
Q 2353 2234 1838 2234 
L 1294 2234 
L 1294 2753 
L 1863 2753 
Q 2328 2753 2575 2939 
Q 2822 3125 2822 3475 
Q 2822 3834 2567 4026 
Q 2313 4219 1838 4219 
Q 1578 4219 1281 4162 
Q 984 4106 628 3988 
L 628 4550 
Q 988 4650 1302 4700 
Q 1616 4750 1894 4750 
Q 2613 4750 3031 4423 
Q 3450 4097 3450 3541 
Q 3450 3153 3228 2886 
Q 3006 2619 2597 2516 
z
" transform="scale(0.015625)"/>
       </defs>
       <use xlink:href="#DejaVuSans-33"/>
       <use xlink:href="#DejaVuSans-2e" transform="translate(63.623047 0)"/>
       <use xlink:href="#DejaVuSans-30" transform="translate(95.410156 0)"/>
      </g>
     </g>
    </g>
    <g id="xtick_8">
     <g id="line2d_9">
      <g>
       <use xlink:href="#m5b845bb2a6" x="435.34912" y="273.474438" style="stroke: #000000; stroke-width: 0.8"/>
      </g>
     </g>
     <g id="text_8">
      <!-- 3.5 -->
      <g transform="translate(426.602401 288.832719) scale(0.11 -0.11)">
       <use xlink:href="#DejaVuSans-33"/>
       <use xlink:href="#DejaVuSans-2e" transform="translate(63.623047 0)"/>
       <use xlink:href="#DejaVuSans-35" transform="translate(95.410156 0)"/>
      </g>
     </g>
    </g>
    <g id="text_9">
     <!-- Time (s) -->
     <g transform="translate(241.507244 305.758188) scale(0.14 -0.14)">
      <defs>
       <path id="DejaVuSans-Bold-54" d="M 31 4666 
L 4331 4666 
L 4331 3756 
L 2784 3756 
L 2784 0 
L 1581 0 
L 1581 3756 
L 31 3756 
L 31 4666 
z
" transform="scale(0.015625)"/>
       <path id="DejaVuSans-Bold-69" d="M 538 3500 
L 1656 3500 
L 1656 0 
L 538 0 
L 538 3500 
z
M 538 4863 
L 1656 4863 
L 1656 3950 
L 538 3950 
L 538 4863 
z
" transform="scale(0.015625)"/>
       <path id="DejaVuSans-Bold-6d" d="M 3781 2919 
Q 3994 3244 4286 3414 
Q 4578 3584 4928 3584 
Q 5531 3584 5847 3212 
Q 6163 2841 6163 2131 
L 6163 0 
L 5038 0 
L 5038 1825 
Q 5041 1866 5042 1909 
Q 5044 1953 5044 2034 
Q 5044 2406 4934 2573 
Q 4825 2741 4581 2741 
Q 4263 2741 4089 2478 
Q 3916 2216 3909 1719 
L 3909 0 
L 2784 0 
L 2784 1825 
Q 2784 2406 2684 2573 
Q 2584 2741 2328 2741 
Q 2006 2741 1831 2477 
Q 1656 2213 1656 1722 
L 1656 0 
L 531 0 
L 531 3500 
L 1656 3500 
L 1656 2988 
Q 1863 3284 2130 3434 
Q 2397 3584 2719 3584 
Q 3081 3584 3359 3409 
Q 3638 3234 3781 2919 
z
" transform="scale(0.015625)"/>
       <path id="DejaVuSans-Bold-65" d="M 4031 1759 
L 4031 1441 
L 1416 1441 
Q 1456 1047 1700 850 
Q 1944 653 2381 653 
Q 2734 653 3104 758 
Q 3475 863 3866 1075 
L 3866 213 
Q 3469 63 3072 -14 
Q 2675 -91 2278 -91 
Q 1328 -91 801 392 
Q 275 875 275 1747 
Q 275 2603 792 3093 
Q 1309 3584 2216 3584 
Q 3041 3584 3536 3087 
Q 4031 2591 4031 1759 
z
M 2881 2131 
Q 2881 2450 2695 2645 
Q 2509 2841 2209 2841 
Q 1884 2841 1681 2658 
Q 1478 2475 1428 2131 
L 2881 2131 
z
" transform="scale(0.015625)"/>
       <path id="DejaVuSans-Bold-20" transform="scale(0.015625)"/>
       <path id="DejaVuSans-Bold-28" d="M 2413 -844 
L 1484 -844 
Q 1006 -72 778 623 
Q 550 1319 550 2003 
Q 550 2688 779 3389 
Q 1009 4091 1484 4856 
L 2413 4856 
Q 2013 4116 1813 3408 
Q 1613 2700 1613 2009 
Q 1613 1319 1811 609 
Q 2009 -100 2413 -844 
z
" transform="scale(0.015625)"/>
       <path id="DejaVuSans-Bold-73" d="M 3272 3391 
L 3272 2541 
Q 2913 2691 2578 2766 
Q 2244 2841 1947 2841 
Q 1628 2841 1473 2761 
Q 1319 2681 1319 2516 
Q 1319 2381 1436 2309 
Q 1553 2238 1856 2203 
L 2053 2175 
Q 2913 2066 3209 1816 
Q 3506 1566 3506 1031 
Q 3506 472 3093 190 
Q 2681 -91 1863 -91 
Q 1516 -91 1145 -36 
Q 775 19 384 128 
L 384 978 
Q 719 816 1070 734 
Q 1422 653 1784 653 
Q 2113 653 2278 743 
Q 2444 834 2444 1013 
Q 2444 1163 2330 1236 
Q 2216 1309 1875 1350 
L 1678 1375 
Q 931 1469 631 1722 
Q 331 1975 331 2491 
Q 331 3047 712 3315 
Q 1094 3584 1881 3584 
Q 2191 3584 2531 3537 
Q 2872 3491 3272 3391 
z
" transform="scale(0.015625)"/>
       <path id="DejaVuSans-Bold-29" d="M 513 -844 
Q 913 -100 1113 609 
Q 1313 1319 1313 2009 
Q 1313 2700 1113 3408 
Q 913 4116 513 4856 
L 1441 4856 
Q 1916 4091 2145 3389 
Q 2375 2688 2375 2003 
Q 2375 1319 2147 623 
Q 1919 -72 1441 -844 
L 513 -844 
z
" transform="scale(0.015625)"/>
      </defs>
      <use xlink:href="#DejaVuSans-Bold-54"/>
      <use xlink:href="#DejaVuSans-Bold-69" transform="translate(68.212891 0)"/>
      <use xlink:href="#DejaVuSans-Bold-6d" transform="translate(102.490234 0)"/>
      <use xlink:href="#DejaVuSans-Bold-65" transform="translate(206.689453 0)"/>
      <use xlink:href="#DejaVuSans-Bold-20" transform="translate(274.511719 0)"/>
      <use xlink:href="#DejaVuSans-Bold-28" transform="translate(309.326172 0)"/>
      <use xlink:href="#DejaVuSans-Bold-73" transform="translate(355.029297 0)"/>
      <use xlink:href="#DejaVuSans-Bold-29" transform="translate(414.550781 0)"/>
     </g>
    </g>
   </g>
   <g id="matplotlib.axis_2">
    <g id="ytick_1">
     <g id="line2d_10">
      <defs>
       <path id="m9a67a28fea" d="M 0 0 
L -3.5 0 
" style="stroke: #000000; stroke-width: 0.8"/>
      </defs>
      <g>
       <use xlink:href="#m9a67a28fea" x="58.479375" y="233.478247" style="stroke: #000000; stroke-width: 0.8"/>
      </g>
     </g>
     <g id="text_10">
      <!-- $\mathdefault{−1.0}$ -->
      <g transform="translate(24.749375 237.657388) scale(0.11 -0.11)">
       <defs>
        <path id="DejaVuSans-2212" d="M 678 2272 
L 4684 2272 
L 4684 1741 
L 678 1741 
L 678 2272 
z
" transform="scale(0.015625)"/>
       </defs>
       <use xlink:href="#DejaVuSans-2212" transform="translate(0 0.78125)"/>
       <use xlink:href="#DejaVuSans-31" transform="translate(83.789062 0.78125)"/>
       <use xlink:href="#DejaVuSans-2e" transform="translate(147.412109 0.78125)"/>
       <use xlink:href="#DejaVuSans-30" transform="translate(179.199219 0.78125)"/>
      </g>
     </g>
    </g>
    <g id="ytick_2">
     <g id="line2d_11">
      <g>
       <use xlink:href="#m9a67a28fea" x="58.479375" y="189.557342" style="stroke: #000000; stroke-width: 0.8"/>
      </g>
     </g>
     <g id="text_11">
      <!-- $\mathdefault{−0.5}$ -->
      <g transform="translate(24.749375 193.736483) scale(0.11 -0.11)">
       <use xlink:href="#DejaVuSans-2212" transform="translate(0 0.78125)"/>
       <use xlink:href="#DejaVuSans-30" transform="translate(83.789062 0.78125)"/>
       <use xlink:href="#DejaVuSans-2e" transform="translate(147.412109 0.78125)"/>
       <use xlink:href="#DejaVuSans-35" transform="translate(179.199219 0.78125)"/>
      </g>
     </g>
    </g>
    <g id="ytick_3">
     <g id="line2d_12">
      <g>
       <use xlink:href="#m9a67a28fea" x="58.479375" y="145.636437" style="stroke: #000000; stroke-width: 0.8"/>
      </g>
     </g>
     <g id="text_12">
      <!-- $\mathdefault{0.0}$ -->
      <g transform="translate(33.879375 149.815578) scale(0.11 -0.11)">
       <use xlink:href="#DejaVuSans-30" transform="translate(0 0.78125)"/>
       <use xlink:href="#DejaVuSans-2e" transform="translate(63.623047 0.78125)"/>
       <use xlink:href="#DejaVuSans-30" transform="translate(95.410156 0.78125)"/>
      </g>
     </g>
    </g>
    <g id="ytick_4">
     <g id="line2d_13">
      <g>
       <use xlink:href="#m9a67a28fea" x="58.479375" y="101.715533" style="stroke: #000000; stroke-width: 0.8"/>
      </g>
     </g>
     <g id="text_13">
      <!-- $\mathdefault{0.5}$ -->
      <g transform="translate(33.879375 105.894673) scale(0.11 -0.11)">
       <use xlink:href="#DejaVuSans-30" transform="translate(0 0.78125)"/>
       <use xlink:href="#DejaVuSans-2e" transform="translate(63.623047 0.78125)"/>
       <use xlink:href="#DejaVuSans-35" transform="translate(95.410156 0.78125)"/>
      </g>
     </g>
    </g>
    <g id="ytick_5">
     <g id="line2d_14">
      <g>
       <use xlink:href="#m9a67a28fea" x="58.479375" y="57.794628" style="stroke: #000000; stroke-width: 0.8"/>
      </g>
     </g>
     <g id="text_14">
      <!-- $\mathdefault{1.0}$ -->
      <g transform="translate(33.879375 61.973768) scale(0.11 -0.11)">
       <use xlink:href="#DejaVuSans-31" transform="translate(0 0.78125)"/>
       <use xlink:href="#DejaVuSans-2e" transform="translate(63.623047 0.78125)"/>
       <use xlink:href="#DejaVuSans-30" transform="translate(95.410156 0.78125)"/>
      </g>
     </g>
    </g>
    <g id="text_15">
     <!-- I$_{sc}$ (mA/m²) -->
     <g transform="translate(17.837813 188.266437) rotate(-90) scale(0.14 -0.14)">
      <defs>
       <path id="DejaVuSans-Bold-49" d="M 588 4666 
L 1791 4666 
L 1791 0 
L 588 0 
L 588 4666 
z
" transform="scale(0.015625)"/>
       <path id="DejaVuSans-Oblique-73" d="M 3200 3397 
L 3091 2853 
Q 2863 2978 2609 3040 
Q 2356 3103 2088 3103 
Q 1634 3103 1373 2948 
Q 1113 2794 1113 2528 
Q 1113 2219 1719 2053 
Q 1766 2041 1788 2034 
L 1972 1978 
Q 2547 1819 2739 1644 
Q 2931 1469 2931 1166 
Q 2931 609 2489 259 
Q 2047 -91 1331 -91 
Q 1053 -91 747 -37 
Q 441 16 72 128 
L 184 722 
Q 500 559 806 475 
Q 1113 391 1394 391 
Q 1816 391 2080 572 
Q 2344 753 2344 1031 
Q 2344 1331 1650 1516 
L 1591 1531 
L 1394 1581 
Q 956 1697 753 1886 
Q 550 2075 550 2369 
Q 550 2928 970 3256 
Q 1391 3584 2113 3584 
Q 2397 3584 2667 3537 
Q 2938 3491 3200 3397 
z
" transform="scale(0.015625)"/>
       <path id="DejaVuSans-Oblique-63" d="M 3431 3366 
L 3316 2797 
Q 3109 2947 2876 3022 
Q 2644 3097 2394 3097 
Q 2119 3097 1870 3000 
Q 1622 2903 1453 2725 
Q 1184 2453 1037 2087 
Q 891 1722 891 1331 
Q 891 859 1127 628 
Q 1363 397 1844 397 
Q 2081 397 2348 469 
Q 2616 541 2906 684 
L 2797 116 
Q 2547 13 2283 -39 
Q 2019 -91 1741 -91 
Q 1044 -91 669 257 
Q 294 606 294 1253 
Q 294 1797 489 2255 
Q 684 2713 1069 3078 
Q 1331 3328 1684 3456 
Q 2038 3584 2456 3584 
Q 2700 3584 2940 3529 
Q 3181 3475 3431 3366 
z
" transform="scale(0.015625)"/>
       <path id="DejaVuSans-Bold-41" d="M 3419 850 
L 1538 850 
L 1241 0 
L 31 0 
L 1759 4666 
L 3194 4666 
L 4922 0 
L 3713 0 
L 3419 850 
z
M 1838 1716 
L 3116 1716 
L 2478 3572 
L 1838 1716 
z
" transform="scale(0.015625)"/>
       <path id="DejaVuSans-Bold-2f" d="M 1644 4666 
L 2338 4666 
L 691 -594 
L 0 -594 
L 1644 4666 
z
" transform="scale(0.015625)"/>
       <path id="DejaVuSans-Bold-b2" d="M 1288 2613 
L 2444 2613 
L 2444 2088 
L 341 2088 
L 341 2566 
L 1319 3397 
Q 1509 3563 1590 3688 
Q 1672 3813 1672 3938 
Q 1672 4094 1558 4191 
Q 1444 4288 1259 4288 
Q 1066 4288 844 4217 
Q 622 4147 359 4000 
L 359 4581 
Q 631 4666 886 4708 
Q 1141 4750 1375 4750 
Q 1869 4750 2150 4548 
Q 2431 4347 2431 4000 
Q 2431 3775 2320 3586 
Q 2209 3397 1894 3128 
L 1288 2613 
z
" transform="scale(0.015625)"/>
      </defs>
      <use xlink:href="#DejaVuSans-Bold-49" transform="translate(0 0.125)"/>
      <use xlink:href="#DejaVuSans-Oblique-73" transform="translate(38.164062 -16.28125) scale(0.7)"/>
      <use xlink:href="#DejaVuSans-Oblique-63" transform="translate(74.633789 -16.28125) scale(0.7)"/>
      <use xlink:href="#DejaVuSans-Bold-20" transform="translate(115.854492 0.125)"/>
      <use xlink:href="#DejaVuSans-Bold-28" transform="translate(150.668945 0.125)"/>
      <use xlink:href="#DejaVuSans-Bold-6d" transform="translate(196.37207 0.125)"/>
      <use xlink:href="#DejaVuSans-Bold-41" transform="translate(300.571289 0.125)"/>
      <use xlink:href="#DejaVuSans-Bold-2f" transform="translate(377.963867 0.125)"/>
      <use xlink:href="#DejaVuSans-Bold-6d" transform="translate(414.487305 0.125)"/>
      <use xlink:href="#DejaVuSans-Bold-b2" transform="translate(518.686523 0.125)"/>
      <use xlink:href="#DejaVuSans-Bold-29" transform="translate(562.485352 0.125)"/>
     </g>
    </g>
    <g id="text_16">
     <!-- $\times\mathdefault{10^{−3}}\mathdefault{}$ -->
     <g transform="translate(58.479375 14.798437) scale(0.1 -0.1)">
      <defs>
       <path id="DejaVuSans-d7" d="M 4488 3438 
L 3059 2003 
L 4488 575 
L 4116 197 
L 2681 1631 
L 1247 197 
L 878 575 
L 2303 2003 
L 878 3438 
L 1247 3816 
L 2681 2381 
L 4116 3816 
L 4488 3438 
z
" transform="scale(0.015625)"/>
      </defs>
      <use xlink:href="#DejaVuSans-d7" transform="translate(0 0.765625)"/>
      <use xlink:href="#DejaVuSans-31" transform="translate(83.789062 0.765625)"/>
      <use xlink:href="#DejaVuSans-30" transform="translate(147.412109 0.765625)"/>
      <use xlink:href="#DejaVuSans-2212" transform="translate(211.992188 39.046875) scale(0.7)"/>
      <use xlink:href="#DejaVuSans-33" transform="translate(270.644531 39.046875) scale(0.7)"/>
     </g>
    </g>
   </g>
   <g id="patch_5">
    <path d="M 58.479375 273.474438 
L 58.479375 17.798437 
" style="fill: none; stroke: #000000; stroke-width: 0.8; stroke-linejoin: miter; stroke-linecap: square"/>
   </g>
   <g id="patch_6">
    <path d="M 58.479375 273.474438 
L 488.972301 273.474438 
" style="fill: none; stroke: #000000; stroke-width: 0.8; stroke-linejoin: miter; stroke-linecap: square"/>
   </g>
   <g id="line2d_15">
    <path d="M 58.479375 137.390455 
L 58.694729 137.461183 
L 59.340792 138.875734 
L 59.448469 138.875734 
L 59.7715 139.512282 
L 59.879177 139.300098 
L 60.202208 139.865918 
L 60.417562 139.724464 
L 60.525239 139.795192 
L 60.740593 140.219556 
L 60.848271 140.290284 
L 61.171302 140.856104 
L 61.386656 140.573194 
L 61.709687 140.926832 
L 61.925041 140.71465 
L 62.032718 140.71465 
L 62.571104 141.56338 
L 62.786458 141.634108 
L 62.894135 141.634108 
L 63.217166 141.917018 
L 63.540197 141.634108 
L 63.647874 141.84629 
L 63.755551 141.775562 
L 64.724645 142.907203 
L 64.832322 142.907203 
L 64.939999 143.119385 
L 65.047676 143.048657 
L 65.26303 143.190113 
L 65.478385 143.402295 
L 65.586062 143.190113 
L 65.801416 143.402295 
L 66.01677 143.543751 
L 66.232124 143.826661 
L 66.447478 143.897389 
L 66.555155 143.968116 
L 66.662832 144.180299 
L 66.770509 144.038844 
L 66.985864 144.180299 
L 67.093541 144.038844 
L 67.308895 144.180299 
L 67.416572 143.968116 
L 68.493343 144.675392 
L 68.708697 144.533936 
L 69.031728 144.463209 
L 69.139405 144.392482 
L 69.354759 144.604664 
L 69.462436 144.604664 
L 69.785467 144.887574 
L 70.108499 145.029029 
L 70.216176 144.958302 
L 70.323853 145.029029 
L 70.539207 144.816847 
L 70.754561 144.746119 
L 70.862238 144.675392 
L 70.969915 144.746119 
L 71.077592 144.604664 
L 71.292946 144.816847 
L 71.5083 144.958302 
L 71.939009 145.170484 
L 72.585071 145.099757 
L 72.692748 145.029029 
L 72.908102 145.099757 
L 73.015779 145.029029 
L 73.338811 145.31194 
L 73.554165 145.524122 
L 73.661842 145.382667 
L 73.877196 145.524122 
L 74.09255 145.453395 
L 74.307904 145.382667 
L 75.061644 145.31194 
L 75.276998 145.665577 
L 75.384675 145.665577 
L 75.492352 145.87776 
L 75.600029 145.665577 
L 75.707706 145.736305 
L 75.815383 145.948487 
L 76.030737 145.665577 
L 76.246092 145.59485 
L 76.461446 145.382667 
L 76.6768 145.87776 
L 76.784477 145.948487 
L 76.892154 145.807032 
L 76.999831 146.16067 
L 77.107508 145.87776 
L 77.215185 146.089942 
L 77.322862 145.948487 
L 77.753571 146.16067 
L 77.968925 145.736305 
L 78.184279 145.87776 
L 78.399633 145.807032 
L 78.722664 146.372853 
L 78.830341 146.372853 
L 79.045695 146.655763 
L 79.153372 146.585035 
L 79.26105 147.0094 
L 79.476404 146.72649 
L 79.691758 147.150856 
L 79.799435 147.0094 
L 79.907112 147.080128 
L 80.122466 146.867945 
L 80.230143 147.150856 
L 80.33782 147.0094 
L 80.660851 147.645948 
L 80.983883 147.433766 
L 81.306914 147.999586 
L 81.737622 147.787403 
L 81.952976 148.42395 
L 82.060653 148.565406 
L 82.491362 149.90923 
L 82.599039 149.979958 
L 83.029747 151.111598 
L 83.137424 151.111598 
L 83.891164 153.728517 
L 84.106518 154.577247 
L 85.50632 164.266919 
L 85.937028 169.359304 
L 87.013799 189.51665 
L 87.552184 204.864524 
L 88.844309 242.845171 
L 88.951986 242.632989 
L 89.16734 239.591708 
L 89.598048 224.951135 
L 90.567142 183.221906 
L 91.536235 112.140708 
L 92.074621 94.60028 
L 92.613006 86.112983 
L 93.043714 81.798588 
L 93.259069 80.666944 
L 93.474423 80.38405 
L 93.5821 80.525497 
L 93.797454 81.374224 
L 94.120485 83.77896 
L 94.874225 92.83209 
L 95.735641 104.360691 
L 97.458474 121.618203 
L 98.965953 130.88352 
L 99.07363 131.095704 
L 99.288985 131.873706 
L 99.612016 132.934619 
L 100.473432 136.046631 
L 100.581109 136.258815 
L 100.796464 137.249001 
L 100.904141 136.966089 
L 101.765557 138.522096 
L 101.980911 138.734278 
L 102.196265 139.017188 
L 102.41162 139.583008 
L 102.519297 139.583008 
L 102.626974 139.795192 
L 102.734651 139.724464 
L 102.950005 140.007374 
L 103.057682 140.007374 
L 103.273036 139.724464 
L 103.596067 139.936646 
L 104.026776 140.926832 
L 104.134453 140.856104 
L 104.24213 141.068288 
L 104.349807 140.99756 
L 104.565161 141.421926 
L 104.672838 141.351198 
L 104.995869 141.492652 
L 105.103546 141.421926 
L 105.426578 141.704836 
L 105.641932 141.775562 
L 105.749609 141.775562 
L 106.07264 142.553566 
L 106.287994 142.270656 
L 106.395671 142.482837 
L 106.503348 142.412109 
L 106.718702 142.765747 
L 107.041734 142.765747 
L 107.795473 143.685206 
L 107.90315 143.685206 
L 108.118504 143.897389 
L 108.226181 143.968116 
L 108.441535 143.826661 
L 108.549213 143.968116 
L 108.764567 143.826661 
L 108.872244 143.826661 
L 108.979921 144.038844 
L 109.195275 143.968116 
L 109.410629 144.321754 
L 109.518306 144.321754 
L 109.625983 144.463209 
L 109.841337 144.321754 
L 109.949014 144.463209 
L 110.272046 144.321754 
L 110.595077 144.392482 
L 110.702754 144.463209 
L 110.918108 144.392482 
L 111.133462 144.675392 
L 111.564171 144.958302 
L 111.671848 144.887574 
L 111.779525 145.029029 
L 111.887202 144.887574 
L 111.994879 144.958302 
L 112.210233 144.816847 
L 112.31791 144.958302 
L 112.425587 144.887574 
L 112.748618 145.029029 
L 112.856295 144.887574 
L 113.179327 145.029029 
L 113.610035 145.099757 
L 113.717712 145.170484 
L 113.933066 144.958302 
L 114.040743 145.170484 
L 114.14842 145.029029 
L 114.363774 145.170484 
L 114.579128 145.170484 
L 114.90216 145.453395 
L 115.225191 145.59485 
L 115.332868 145.59485 
L 115.548222 145.382667 
L 115.655899 145.59485 
L 115.97893 145.453395 
L 116.301962 145.59485 
L 116.409639 145.453395 
L 116.73267 145.736305 
L 116.948024 145.736305 
L 117.055701 145.948487 
L 117.271055 145.807032 
L 117.486409 145.736305 
L 117.594086 145.736305 
L 117.701763 145.31194 
L 117.809441 145.736305 
L 117.917118 145.665577 
L 118.024795 146.019215 
L 118.132472 145.807032 
L 118.347826 146.16067 
L 118.56318 146.089942 
L 118.670857 146.089942 
L 118.778534 145.87776 
L 118.886211 146.16067 
L 119.31692 145.87776 
L 119.532274 146.019215 
L 119.639951 145.87776 
L 120.070659 146.089942 
L 120.178336 146.089942 
L 120.39369 146.372853 
L 120.609044 146.231398 
L 120.824399 146.655763 
L 120.932076 146.302125 
L 121.14743 146.655763 
L 121.255107 146.585035 
L 121.685815 146.797218 
L 121.901169 147.221583 
L 122.116523 147.221583 
L 122.331877 147.504493 
L 122.439555 147.504493 
L 122.654909 147.292311 
L 122.762586 147.433766 
L 122.870263 147.221583 
L 123.085617 147.292311 
L 123.193294 147.292311 
L 123.300971 147.645948 
L 123.408648 147.575221 
L 123.624002 148.14104 
L 123.731679 147.999586 
L 123.839356 148.353224 
L 123.947034 148.211768 
L 124.162388 148.494678 
L 124.270065 148.353224 
L 124.485419 148.706862 
L 125.239158 150.47505 
L 125.454513 150.899416 
L 125.885221 152.243237 
L 126.208252 153.304151 
L 126.315929 153.374879 
L 126.961992 156.840529 
L 127.285023 159.38672 
L 127.715731 162.852367 
L 128.146439 166.81311 
L 128.792502 176.007677 
L 129.438564 189.870279 
L 129.976949 205.571783 
L 131.161397 241.996443 
L 131.269074 242.774458 
L 131.376751 242.562276 
L 131.592106 239.45026 
L 132.022814 225.163317 
L 132.991907 183.151171 
L 133.961001 111.221268 
L 134.499386 94.317364 
L 135.253126 83.354596 
L 135.576157 80.666944 
L 135.899188 80.101133 
L 136.114542 80.949861 
L 136.22222 81.30349 
L 136.652928 85.19352 
L 137.837376 100.329213 
L 138.483438 108.533616 
L 139.237177 116.242921 
L 140.421625 125.720409 
L 141.390719 130.671338 
L 141.821427 132.793166 
L 141.929104 132.934619 
L 143.54426 137.885549 
L 143.867291 138.451368 
L 143.974969 138.451368 
L 144.298 138.94646 
L 144.405677 138.875734 
L 144.836385 139.724464 
L 145.051739 139.653736 
L 145.37477 140.219556 
L 145.805479 140.219556 
L 146.020833 140.361012 
L 146.12851 140.290284 
L 146.236187 140.643922 
L 146.343864 140.502466 
L 146.666895 141.068288 
L 146.774572 140.99756 
L 147.097604 141.56338 
L 147.205281 141.421926 
L 147.420635 141.775562 
L 147.528312 141.492652 
L 147.743666 141.775562 
L 147.95902 141.704836 
L 148.605083 142.199928 
L 149.358822 143.048657 
L 149.681853 143.119385 
L 149.78953 143.260841 
L 149.897207 143.119385 
L 150.112562 143.543751 
L 150.327916 143.614478 
L 150.650947 144.109571 
L 150.758624 144.109571 
L 150.973978 144.251026 
L 151.835395 144.251026 
L 152.158426 144.533936 
L 152.266103 144.392482 
L 152.589134 144.746119 
L 152.696811 144.675392 
L 152.912165 144.746119 
L 153.019842 144.675392 
L 153.12752 144.746119 
L 153.342874 144.604664 
L 153.558228 144.746119 
L 153.665905 144.604664 
L 153.773582 144.887574 
L 153.881259 144.746119 
L 154.419644 145.31194 
L 154.634998 145.453395 
L 154.742676 145.382667 
L 154.850353 145.170484 
L 154.95803 145.241212 
L 155.065707 145.099757 
L 155.173384 145.170484 
L 155.281061 145.099757 
L 155.388738 144.887574 
L 155.604092 145.099757 
L 155.927123 145.241212 
L 156.0348 145.170484 
L 156.142477 145.382667 
L 156.250155 145.31194 
L 156.357832 145.524122 
L 156.573186 145.31194 
L 156.78854 145.453395 
L 157.111571 145.31194 
L 157.326925 145.382667 
L 157.434602 145.382667 
L 157.542279 145.59485 
L 157.649956 145.524122 
L 157.972988 145.948487 
L 158.080665 145.87776 
L 158.188342 145.948487 
L 158.726727 145.59485 
L 158.834404 145.665577 
L 159.049758 145.59485 
L 159.157435 145.665577 
L 159.37279 145.948487 
L 159.803498 146.302125 
L 159.911175 145.948487 
L 160.018852 146.231398 
L 160.126529 145.948487 
L 160.341883 146.16067 
L 160.772591 145.948487 
L 160.880269 146.089942 
L 160.987946 145.87776 
L 161.095623 146.089942 
L 161.2033 146.019215 
L 161.418654 146.44358 
L 161.634008 146.372853 
L 161.741685 146.372853 
L 161.957039 146.514308 
L 162.064716 146.514308 
L 162.172393 146.372853 
L 162.28007 146.44358 
L 162.603102 146.302125 
L 162.818456 146.514308 
L 162.926133 146.655763 
L 163.03381 146.585035 
L 163.572195 147.221583 
L 163.679872 147.0094 
L 163.787549 147.292311 
L 163.895227 147.080128 
L 164.218258 147.575221 
L 164.433612 147.292311 
L 164.541289 147.575221 
L 164.648966 147.504493 
L 165.61806 148.211768 
L 165.941091 147.85813 
L 166.156445 148.211768 
L 166.264122 148.353224 
L 166.371799 148.706862 
L 166.479476 148.565406 
L 166.69483 149.060498 
L 166.802507 149.060498 
L 167.233216 150.19214 
L 167.340893 150.262868 
L 168.094632 151.960327 
L 168.740695 154.223609 
L 170.140497 163.135277 
L 170.571205 167.591112 
L 171.10959 175.088237 
L 171.755653 187.960642 
L 172.401715 206.986343 
L 173.586163 242.491542 
L 173.69384 243.340269 
L 173.801517 243.128087 
L 174.016871 240.652617 
L 174.447579 225.870575 
L 175.52435 172.612767 
L 176.170412 120.698763 
L 176.601121 101.814486 
L 176.924152 93.256454 
L 177.570214 84.556975 
L 178.000923 81.091308 
L 178.216277 80.525497 
L 178.323954 80.525497 
L 178.539308 81.020595 
L 178.862339 83.07168 
L 179.723756 93.822287 
L 181.015881 110.231071 
L 182.308005 122.184036 
L 182.52336 123.740039 
L 183.277099 128.549512 
L 183.923162 131.449342 
L 185.215286 136.258815 
L 185.322963 136.329541 
L 185.430641 137.178273 
L 185.538318 137.036817 
L 186.076703 138.522096 
L 186.18438 138.38064 
L 186.615088 139.512282 
L 186.830442 139.724464 
L 187.261151 140.219556 
L 187.368828 140.078102 
L 187.584182 140.361012 
L 187.799536 140.290284 
L 187.907213 140.290284 
L 188.122567 140.573194 
L 188.553276 140.99756 
L 188.660953 140.99756 
L 188.76863 141.351198 
L 188.983984 141.209742 
L 189.091661 141.421926 
L 189.199338 141.209742 
L 189.414692 141.56338 
L 189.630046 141.634108 
L 190.491463 142.624294 
L 190.922171 142.977931 
L 191.029848 142.695022 
L 191.245202 142.907203 
L 191.352879 142.907203 
L 191.568233 143.190113 
L 191.891265 143.331569 
L 192.214296 143.897389 
L 192.321973 143.826661 
L 192.537327 144.038844 
L 193.291067 144.109571 
L 193.506421 144.392482 
L 193.614098 144.321754 
L 193.721775 144.533936 
L 193.829452 144.463209 
L 194.044806 144.746119 
L 194.152483 144.816847 
L 194.583191 144.533936 
L 194.690869 144.675392 
L 194.798546 144.604664 
L 194.906223 144.675392 
L 195.121577 144.604664 
L 195.336931 144.816847 
L 195.444608 144.816847 
L 195.659962 144.958302 
L 195.767639 144.958302 
L 195.982993 145.241212 
L 196.09067 145.099757 
L 196.198348 145.170484 
L 196.413702 145.029029 
L 196.629056 145.099757 
L 196.84441 145.170484 
L 197.059764 145.382667 
L 197.167441 145.524122 
L 197.275118 145.453395 
L 197.382795 145.59485 
L 197.598149 145.453395 
L 197.705826 145.59485 
L 198.028858 145.241212 
L 198.136535 145.31194 
L 198.244212 145.241212 
L 198.351889 145.31194 
L 198.567243 145.241212 
L 198.890274 145.59485 
L 199.105628 145.665577 
L 199.42866 145.87776 
L 199.536337 145.807032 
L 199.751691 145.87776 
L 199.859368 145.665577 
L 200.182399 145.807032 
L 200.397753 145.665577 
L 200.613107 146.019215 
L 200.936139 146.089942 
L 201.043816 146.16067 
L 201.151493 146.089942 
L 201.366847 146.231398 
L 201.474524 146.44358 
L 201.582201 146.089942 
L 201.689878 146.16067 
L 201.797555 146.089942 
L 202.012909 146.302125 
L 202.228263 146.089942 
L 202.33594 146.372853 
L 202.443618 146.302125 
L 202.551295 146.655763 
L 202.766649 146.514308 
L 202.874326 146.867945 
L 202.982003 146.585035 
L 203.08968 146.655763 
L 203.412711 146.514308 
L 203.628065 146.72649 
L 203.735742 146.514308 
L 203.843419 146.797218 
L 203.951097 146.44358 
L 204.166451 147.080128 
L 204.274128 146.867945 
L 204.381805 147.292311 
L 204.597159 147.150856 
L 204.704836 147.080128 
L 204.812513 147.292311 
L 204.92019 147.150856 
L 205.027867 147.221583 
L 205.243221 146.797218 
L 205.350898 146.514308 
L 205.566253 147.080128 
L 205.67393 147.433766 
L 205.781607 147.221583 
L 206.104638 147.645948 
L 206.427669 147.928858 
L 206.535346 148.070314 
L 206.643023 147.999586 
L 206.858377 148.353224 
L 206.966055 148.211768 
L 207.073732 148.565406 
L 207.181409 147.787403 
L 207.289086 147.928858 
L 207.396763 148.494678 
L 207.50444 148.14104 
L 207.612117 148.353224 
L 207.827471 148.14104 
L 208.042825 148.919044 
L 208.150502 148.919044 
L 208.258179 148.282496 
L 208.473533 149.131226 
L 208.581211 148.494678 
L 208.688888 149.201954 
L 208.796565 148.706862 
L 209.227273 149.697046 
L 209.33495 149.767774 
L 209.550304 150.545778 
L 209.657981 150.616504 
L 209.873335 151.182326 
L 209.981012 151.818874 
L 210.08869 151.535964 
L 210.627075 153.021241 
L 211.057783 154.082153 
L 211.488491 156.203981 
L 211.9192 159.033082 
L 212.672939 164.408373 
L 213.319002 172.259138 
L 214.288095 190.931188 
L 216.118605 243.764633 
L 216.226283 243.976815 
L 216.441637 239.874624 
L 216.764668 229.831319 
L 217.733762 189.587362 
L 218.918209 106.199594 
L 219.348918 93.610105 
L 219.887303 85.405702 
L 220.318011 81.515694 
L 220.641042 80.666944 
L 220.748719 80.737679 
L 221.179428 82.71805 
L 221.717813 88.305536 
L 222.148521 94.458833 
L 222.256198 95.166113 
L 223.440646 110.584723 
L 223.763677 113.626004 
L 223.979032 116.030739 
L 224.625094 122.184036 
L 226.132573 131.732252 
L 226.455604 132.722438 
L 226.778635 133.995533 
L 226.886312 134.066261 
L 227.101667 134.985719 
L 227.209344 134.914991 
L 227.317021 136.117359 
L 227.424698 135.763721 
L 227.963083 137.81482 
L 228.07076 138.027002 
L 228.178437 138.522096 
L 228.286114 138.309912 
L 228.393791 138.734278 
L 228.501468 138.66355 
L 228.716823 139.441554 
L 228.8245 139.512282 
L 229.039854 139.724464 
L 229.147531 139.724464 
L 229.255208 139.936646 
L 229.470562 140.573194 
L 229.578239 140.71465 
L 229.685916 140.573194 
L 229.793593 141.068288 
L 230.008947 140.926832 
L 230.116625 141.068288 
L 230.224302 140.99756 
L 230.331979 140.785378 
L 230.547333 141.068288 
L 230.65501 141.068288 
L 230.762687 141.421926 
L 230.870364 141.209742 
L 230.978041 141.634108 
L 231.085718 141.56338 
L 231.301072 141.775562 
L 231.624104 142.270656 
L 231.731781 142.1292 
L 231.839458 142.270656 
L 231.947135 142.199928 
L 232.054812 142.482837 
L 232.270166 142.1292 
L 232.48552 142.412109 
L 232.700874 142.341384 
L 232.916228 142.836475 
L 233.023905 142.765747 
L 233.562291 143.331569 
L 233.669968 143.402295 
L 233.885322 143.331569 
L 233.992999 143.473024 
L 234.208353 143.402295 
L 234.423707 143.897389 
L 234.531384 143.755934 
L 235.177447 144.604664 
L 235.285124 144.463209 
L 235.392801 144.675392 
L 235.715832 144.533936 
L 235.823509 144.604664 
L 235.931186 144.463209 
L 236.038863 144.533936 
L 236.254218 144.463209 
L 236.577249 144.746119 
L 236.792603 145.029029 
L 236.90028 144.958302 
L 237.115634 145.099757 
L 237.330988 145.029029 
L 237.438665 145.099757 
L 237.546342 144.746119 
L 237.761697 144.887574 
L 237.869374 144.958302 
L 237.977051 144.887574 
L 239.053821 145.59485 
L 239.161498 145.524122 
L 239.376853 145.59485 
L 239.592207 145.59485 
L 239.699884 145.453395 
L 239.807561 145.524122 
L 239.915238 145.453395 
L 240.022915 145.524122 
L 240.130592 145.736305 
L 240.345946 145.665577 
L 240.776654 145.665577 
L 240.884332 145.87776 
L 240.992009 145.665577 
L 241.31504 145.807032 
L 241.422717 145.736305 
L 241.530394 145.807032 
L 241.638071 145.59485 
L 241.745748 145.948487 
L 241.853425 145.87776 
L 241.961102 146.019215 
L 242.068779 145.87776 
L 242.391811 146.231398 
L 242.607165 146.16067 
L 242.930196 146.019215 
L 243.037873 146.16067 
L 243.253227 146.019215 
L 243.576258 146.16067 
L 243.683935 146.16067 
L 244.006967 146.44358 
L 244.437675 146.72649 
L 244.545352 146.514308 
L 244.653029 146.655763 
L 244.760706 146.372853 
L 244.97606 146.655763 
L 245.191414 146.514308 
L 245.299091 146.514308 
L 245.514446 146.797218 
L 246.160508 147.221583 
L 246.698893 146.938673 
L 246.80657 147.150856 
L 246.914247 146.867945 
L 247.129602 147.080128 
L 247.237279 147.0094 
L 247.452633 147.292311 
L 247.56031 147.150856 
L 247.883341 147.575221 
L 247.991018 147.575221 
L 248.098695 147.363038 
L 248.421726 147.85813 
L 248.529404 147.575221 
L 248.744758 148.070314 
L 248.960112 147.928858 
L 249.067789 148.070314 
L 249.175466 148.565406 
L 249.283143 148.494678 
L 249.713851 148.706862 
L 250.14456 148.777588 
L 250.252237 149.060498 
L 250.359914 148.848316 
L 250.575268 148.919044 
L 250.682945 148.848316 
L 250.898299 149.272682 
L 251.113653 149.767774 
L 251.22133 149.697046 
L 251.329007 149.979958 
L 251.436684 149.90923 
L 251.759716 150.545778 
L 251.97507 150.75796 
L 252.190424 151.253052 
L 253.374872 154.506519 
L 253.590226 155.496705 
L 253.697903 155.638161 
L 254.236288 158.18435 
L 254.882351 163.064551 
L 255.420736 168.086213 
L 256.066798 177.775867 
L 256.820538 195.033401 
L 258.543371 243.198822 
L 258.651048 242.845171 
L 258.866402 238.813715 
L 259.297111 224.668219 
L 259.835496 202.389054 
L 260.158527 188.667922 
L 261.450652 102.309585 
L 261.773683 93.539371 
L 262.6351 82.01077 
L 262.958131 80.454762 
L 263.065808 80.171868 
L 263.173485 80.24258 
L 263.604193 82.576603 
L 264.034902 87.244627 
L 266.619151 118.152558 
L 267.695922 126.852051 
L 267.803599 127.205689 
L 268.234307 129.610424 
L 268.772693 132.08589 
L 269.418755 135.197901 
L 269.526432 135.197901 
L 269.741786 135.834449 
L 270.603203 138.239186 
L 270.71088 138.734278 
L 270.818557 138.66355 
L 271.033911 139.22937 
L 271.141588 139.300098 
L 271.249265 139.865918 
L 271.356942 139.583008 
L 271.679974 139.865918 
L 271.787651 139.936646 
L 272.433713 141.068288 
L 272.864421 141.351198 
L 272.972098 141.775562 
L 273.079775 141.56338 
L 273.29513 141.704836 
L 273.402807 141.56338 
L 273.510484 141.634108 
L 273.618161 141.56338 
L 273.725838 141.634108 
L 273.725838 141.634108 
" clip-path="url(#pa06b40c8cc)" style="fill: none; stroke: #333333; stroke-width: 0.8; stroke-linecap: square"/>
   </g>
   <g id="line2d_16">
    <path d="M 273.725838 142.341384 
L 274.156546 142.412109 
L 274.264223 142.482837 
L 274.479577 142.907203 
L 274.587254 142.695022 
L 274.802609 142.907203 
L 274.910286 142.907203 
L 275.017963 143.190113 
L 275.12564 143.119385 
L 275.233317 142.765747 
L 275.556348 143.048657 
L 275.664025 142.907203 
L 275.879379 143.119385 
L 275.987056 143.048657 
L 276.094733 143.402295 
L 276.202411 143.331569 
L 276.525442 143.755934 
L 276.633119 143.685206 
L 276.848473 143.897389 
L 277.171504 143.897389 
L 277.279181 143.755934 
L 277.386858 143.897389 
L 277.602212 143.685206 
L 277.709889 144.038844 
L 277.925244 143.897389 
L 278.248275 144.321754 
L 278.571306 144.321754 
L 278.678983 144.463209 
L 278.894337 144.321754 
L 279.002014 144.463209 
L 279.217368 144.251026 
L 279.325046 144.392482 
L 279.432723 144.321754 
L 280.294139 144.816847 
L 280.401816 144.816847 
L 280.61717 144.675392 
L 280.832525 144.533936 
L 280.940202 144.675392 
L 281.047879 144.604664 
L 281.155556 144.675392 
L 281.263233 144.604664 
L 281.586264 144.887574 
L 281.909295 145.170484 
L 282.124649 145.170484 
L 282.340003 144.816847 
L 283.309097 144.746119 
L 283.524451 145.099757 
L 283.632128 145.099757 
L 283.739805 145.241212 
L 283.95516 145.099757 
L 284.062837 145.241212 
L 284.385868 145.029029 
L 284.493545 145.170484 
L 284.708899 145.099757 
L 285.03193 145.170484 
L 285.570316 145.59485 
L 285.677993 145.453395 
L 285.893347 145.59485 
L 286.108701 145.453395 
L 286.431732 145.382667 
L 286.539409 145.241212 
L 286.647086 145.31194 
L 286.754763 145.59485 
L 286.970117 145.382667 
L 287.077795 145.665577 
L 287.293149 145.524122 
L 287.508503 145.736305 
L 287.723857 145.453395 
L 287.939211 145.59485 
L 288.046888 145.524122 
L 288.154565 145.665577 
L 288.369919 145.524122 
L 288.477596 145.59485 
L 288.585274 145.453395 
L 288.800628 145.59485 
L 288.908305 145.59485 
L 289.015982 145.87776 
L 289.123659 145.807032 
L 289.339013 145.524122 
L 289.44669 145.524122 
L 289.662044 145.31194 
L 289.769721 145.524122 
L 289.877398 145.31194 
L 290.092753 145.59485 
L 290.20043 145.31194 
L 290.415784 145.736305 
L 290.523461 145.665577 
L 290.631138 146.019215 
L 290.738815 145.807032 
L 290.846492 146.089942 
L 290.954169 145.948487 
L 291.169523 146.302125 
L 291.384877 145.948487 
L 291.600232 145.665577 
L 291.707909 145.948487 
L 291.815586 145.665577 
L 291.923263 145.87776 
L 292.03094 145.807032 
L 292.138617 146.019215 
L 292.353971 145.87776 
L 292.677002 146.16067 
L 292.784679 146.302125 
L 292.892356 146.231398 
L 293.10771 146.372853 
L 293.323065 146.231398 
L 293.646096 146.514308 
L 293.86145 146.372853 
L 293.969127 146.514308 
L 294.292158 147.363038 
L 294.615189 147.504493 
L 294.722867 147.433766 
L 294.938221 147.928858 
L 295.261252 148.070314 
L 295.368929 147.999586 
L 296.230346 150.404322 
L 296.4457 151.253052 
L 296.661054 151.677418 
L 296.984085 152.738331 
L 297.630147 155.708887 
L 298.168533 159.103808 
L 299.137626 168.086213 
L 300.86046 189.870279 
L 301.075814 190.365377 
L 301.291168 189.233733 
L 301.614199 183.929164 
L 302.152584 170.773843 
L 302.367939 164.832739 
L 303.444709 122.962029 
L 303.76774 119.284202 
L 304.090772 117.728194 
L 304.306126 117.30383 
L 304.52148 117.162383 
L 304.952188 117.374565 
L 305.059865 117.374565 
L 305.275219 117.516012 
L 305.382896 117.586747 
L 305.598251 118.152558 
L 305.705928 118.223293 
L 306.136636 119.496384 
L 306.890375 123.31568 
L 307.213407 125.013135 
L 308.505531 131.378614 
L 308.720886 132.08589 
L 309.151594 133.854077 
L 309.582302 135.127173 
L 309.905333 135.834449 
L 310.120688 136.683179 
L 311.197458 139.370826 
L 311.305135 139.158644 
L 311.412812 139.370826 
L 311.520489 139.300098 
L 311.735844 140.007374 
L 311.843521 140.007374 
L 312.166552 140.502466 
L 312.381906 140.785378 
L 312.812614 141.56338 
L 312.920291 141.209742 
L 313.243323 141.775562 
L 313.458677 141.492652 
L 313.781708 142.199928 
L 314.104739 142.341384 
L 314.320093 142.1292 
L 314.42777 142.553566 
L 314.535447 142.1292 
L 314.750802 142.412109 
L 314.966156 142.553566 
L 315.073833 142.553566 
L 315.289187 142.199928 
L 315.396864 142.270656 
L 315.504541 142.482837 
L 315.612218 142.341384 
L 315.827572 142.765747 
L 315.935249 142.553566 
L 316.365958 142.907203 
L 316.581312 142.765747 
L 316.688989 142.836475 
L 316.796666 142.765747 
L 316.904343 142.907203 
L 317.01202 142.695022 
L 317.227374 143.048657 
L 317.335051 143.048657 
L 317.442728 143.190113 
L 317.550405 143.048657 
L 317.76576 143.260841 
L 317.981114 143.190113 
L 318.088791 143.402295 
L 318.196468 143.331569 
L 318.304145 143.473024 
L 318.734853 143.190113 
L 318.950207 143.331569 
L 319.165561 143.543751 
L 319.488593 143.826661 
L 319.811624 144.038844 
L 319.919301 143.968116 
L 320.026978 144.109571 
L 320.134655 143.897389 
L 320.242332 144.038844 
L 320.350009 143.968116 
L 320.67304 144.251026 
L 320.996072 144.321754 
L 321.211426 144.533936 
L 321.319103 144.533936 
L 321.534457 144.675392 
L 321.642134 144.604664 
L 321.749811 144.675392 
L 321.857488 144.604664 
L 321.965165 144.392482 
L 322.180519 144.604664 
L 322.395874 144.463209 
L 322.503551 144.392482 
L 322.718905 144.675392 
L 322.826582 144.746119 
L 322.934259 144.675392 
L 323.25729 144.816847 
L 323.364967 144.816847 
L 323.580321 144.958302 
L 323.795675 144.887574 
L 323.903353 144.816847 
L 324.01103 144.887574 
L 324.118707 144.816847 
L 324.334061 144.887574 
L 324.549415 144.816847 
L 325.195477 145.241212 
L 325.303154 145.029029 
L 325.518509 145.099757 
L 326.164571 145.099757 
L 326.487602 145.453395 
L 326.702956 145.382667 
L 326.810633 145.453395 
L 326.91831 145.665577 
L 327.133665 145.524122 
L 327.241342 145.59485 
L 327.456696 145.241212 
L 327.887404 145.453395 
L 327.995081 145.453395 
L 328.102758 145.665577 
L 328.210435 145.524122 
L 328.425789 145.807032 
L 328.533467 145.736305 
L 328.641144 145.87776 
L 328.748821 145.736305 
L 328.964175 145.807032 
L 329.179529 145.59485 
L 329.287206 145.59485 
L 329.50256 145.453395 
L 329.717914 145.453395 
L 330.040945 145.736305 
L 330.363977 145.87776 
L 330.471654 145.87776 
L 330.579331 145.736305 
L 330.687008 145.87776 
L 330.902362 145.524122 
L 331.117716 145.736305 
L 331.225393 145.59485 
L 331.33307 145.665577 
L 331.548424 145.453395 
L 331.763779 145.524122 
L 332.08681 145.948487 
L 332.302164 145.736305 
L 332.409841 146.089942 
L 332.625195 145.87776 
L 332.948226 146.019215 
L 333.055903 145.524122 
L 333.163581 145.948487 
L 333.271258 145.87776 
L 333.378935 145.948487 
L 333.701966 146.372853 
L 333.809643 146.019215 
L 333.91732 146.302125 
L 334.024997 146.231398 
L 334.240351 146.514308 
L 334.671059 145.948487 
L 334.778737 146.16067 
L 334.886414 146.089942 
L 334.994091 146.231398 
L 335.101768 146.089942 
L 335.317122 146.302125 
L 335.424799 146.302125 
L 335.640153 146.585035 
L 335.855507 146.514308 
L 336.070861 147.0094 
L 336.178538 146.797218 
L 336.393893 147.080128 
L 336.609247 147.0094 
L 337.039955 147.645948 
L 337.147632 147.716676 
L 338.33208 150.19214 
L 338.439757 150.687232 
L 338.547434 150.616504 
L 338.762788 151.465236 
L 339.731882 155.355249 
L 340.16259 158.042896 
L 340.377944 159.38672 
L 340.91633 164.408373 
L 342.208454 180.604966 
L 342.74684 188.314271 
L 343.069871 190.719006 
L 343.177548 190.860476 
L 343.392902 189.728832 
L 343.608256 186.970445 
L 343.82361 182.160974 
L 344.685027 156.628344 
L 345.331089 129.044604 
L 345.654121 122.042567 
L 345.977152 119.142755 
L 346.192506 118.152558 
L 346.623214 117.586747 
L 346.946245 117.728194 
L 347.1616 117.374565 
L 347.376954 117.516012 
L 347.484631 117.516012 
L 347.915339 118.506209 
L 348.99211 123.103498 
L 349.315141 125.083861 
L 349.530495 125.932593 
L 349.961203 128.337328 
L 350.284235 129.893336 
L 350.607266 131.378614 
L 350.930297 132.510253 
L 352.65313 137.956274 
L 352.760807 137.956274 
L 353.40687 139.724464 
L 353.514547 139.583008 
L 353.729901 140.078102 
L 353.837578 140.007374 
L 354.160609 140.643922 
L 354.375963 140.856104 
L 354.48364 140.785378 
L 354.591317 140.926832 
L 354.698995 141.351198 
L 354.806672 141.068288 
L 354.914349 141.139014 
L 355.022026 141.351198 
L 355.129703 141.28047 
L 355.345057 141.84629 
L 355.560411 142.341384 
L 355.775765 141.917018 
L 355.991119 142.553566 
L 356.098796 142.412109 
L 356.206473 142.695022 
L 356.421828 142.1292 
L 356.637182 142.412109 
L 356.852536 142.341384 
L 356.960213 142.765747 
L 357.06789 142.553566 
L 357.175567 142.624294 
L 357.283244 142.907203 
L 357.390921 142.624294 
L 357.498598 142.836475 
L 358.036984 142.553566 
L 358.252338 142.836475 
L 358.360015 142.695022 
L 358.467692 142.836475 
L 358.575369 142.765747 
L 358.790723 143.190113 
L 358.8984 143.190113 
L 359.113754 143.402295 
L 359.329109 143.473024 
L 359.436786 143.543751 
L 359.544463 143.473024 
L 359.65214 143.260841 
L 359.867494 143.402295 
L 359.975171 143.190113 
L 360.298202 143.685206 
L 360.405879 143.543751 
L 360.72891 143.826661 
L 361.159619 144.038844 
L 361.267296 143.897389 
L 361.48265 144.038844 
L 361.590327 143.826661 
L 361.805681 143.968116 
L 362.990129 144.746119 
L 363.097806 144.604664 
L 363.205483 144.746119 
L 363.420837 144.463209 
L 363.528514 144.675392 
L 363.636191 144.533936 
L 364.174577 144.816847 
L 364.389931 144.887574 
L 364.497608 145.099757 
L 364.605285 144.958302 
L 364.712962 145.029029 
L 364.928316 144.887574 
L 365.035993 144.958302 
L 365.14367 144.816847 
L 365.359024 144.887574 
L 365.466702 144.816847 
L 366.112764 145.170484 
L 366.220441 145.170484 
L 366.328118 145.31194 
L 366.435795 145.241212 
L 366.543472 145.31194 
L 367.189535 144.958302 
L 367.72792 145.31194 
L 367.835597 145.241212 
L 368.050951 145.59485 
L 368.158628 145.524122 
L 368.373982 145.59485 
L 368.481659 145.59485 
L 368.697014 145.453395 
L 368.912368 145.453395 
L 369.127722 145.31194 
L 369.450753 145.59485 
L 369.666107 145.736305 
L 369.881461 145.807032 
L 369.989138 145.736305 
L 370.096816 145.807032 
L 370.204493 146.019215 
L 370.419847 145.87776 
L 370.527524 145.87776 
L 370.742878 145.736305 
L 370.958232 145.807032 
L 371.065909 145.87776 
L 371.173586 145.736305 
L 371.496617 146.019215 
L 371.604295 146.019215 
L 371.711972 145.87776 
L 371.819649 146.089942 
L 371.927326 145.948487 
L 372.14268 146.231398 
L 372.358034 145.807032 
L 372.573388 145.736305 
L 372.681065 145.87776 
L 372.788742 145.807032 
L 372.896419 145.948487 
L 373.004096 145.665577 
L 373.219451 146.089942 
L 373.434805 146.089942 
L 373.650159 145.948487 
L 373.757836 145.948487 
L 373.865513 145.807032 
L 374.080867 146.019215 
L 374.188544 145.948487 
L 374.296221 146.16067 
L 374.619252 145.87776 
L 375.157638 146.585035 
L 375.372992 146.514308 
L 375.480669 146.655763 
L 375.588346 146.44358 
L 375.8037 146.514308 
L 376.126731 146.231398 
L 376.234409 146.514308 
L 376.342086 146.372853 
L 376.449763 146.44358 
L 376.55744 146.231398 
L 376.665117 146.585035 
L 376.772794 146.44358 
L 376.988148 146.655763 
L 377.311179 146.655763 
L 377.418856 146.797218 
L 377.526533 146.514308 
L 377.741887 146.797218 
L 377.849565 146.655763 
L 378.603304 147.575221 
L 378.818658 147.645948 
L 379.141689 148.353224 
L 379.249366 148.14104 
L 379.357044 148.282496 
L 379.464721 148.070314 
L 380.864523 151.748146 
L 381.079877 152.738331 
L 381.187554 152.667603 
L 381.295231 153.233423 
L 381.402908 153.162695 
L 381.725939 154.789429 
L 382.587356 160.447632 
L 383.341095 167.591112 
L 384.094835 177.775867 
L 384.848574 188.031376 
L 385.171605 190.011726 
L 385.386959 190.153195 
L 385.602314 188.667922 
L 385.817668 185.555906 
L 386.679084 164.691283 
L 387.648178 124.518041 
L 387.971209 119.991482 
L 388.509594 117.728194 
L 388.832626 117.445278 
L 389.586365 118.011111 
L 390.340105 119.496384 
L 391.093844 123.386393 
L 391.847584 127.276417 
L 392.385969 129.610424 
L 392.709 131.307886 
L 393.46274 134.702809 
L 393.570417 134.844263 
L 393.785771 135.410083 
L 394.862542 138.734278 
L 394.970219 138.734278 
L 395.185573 139.300098 
L 395.29325 139.370826 
L 395.723958 140.078102 
L 395.939312 140.290284 
L 396.046989 140.643922 
L 396.262344 140.573194 
L 396.908406 141.634108 
L 397.231437 141.987746 
L 397.339114 141.987746 
L 397.446791 142.270656 
L 397.554468 142.058474 
L 397.662145 142.341384 
L 397.769823 142.270656 
L 397.8775 142.341384 
L 398.092854 142.624294 
L 398.308208 142.695022 
L 398.523562 142.624294 
L 398.631239 142.624294 
L 398.738916 142.765747 
L 398.846593 143.119385 
L 399.169624 142.836475 
L 399.384979 142.907203 
L 399.600333 142.624294 
L 399.70801 142.907203 
L 399.923364 142.836475 
L 400.138718 142.907203 
L 400.246395 143.119385 
L 400.354072 143.048657 
L 400.461749 143.119385 
L 400.569426 143.048657 
L 401.000135 143.260841 
L 401.107812 143.190113 
L 401.215489 143.402295 
L 401.430843 143.331569 
L 401.646197 143.473024 
L 401.861551 143.543751 
L 402.184582 143.755934 
L 402.292259 144.038844 
L 402.399937 143.897389 
L 402.722968 144.109571 
L 402.938322 143.897389 
L 403.153676 144.038844 
L 403.261353 144.038844 
L 403.476707 144.180299 
L 403.584384 144.180299 
L 403.799738 144.321754 
L 404.015093 144.392482 
L 404.445801 144.604664 
L 404.661155 144.533936 
L 405.19954 144.604664 
L 405.307217 144.816847 
L 405.414894 144.746119 
L 405.522572 144.816847 
L 405.630249 145.029029 
L 405.737926 144.887574 
L 405.95328 145.099757 
L 406.060957 144.958302 
L 406.276311 145.170484 
L 406.491665 144.958302 
L 406.814696 144.816847 
L 406.922373 144.816847 
L 407.137728 144.958302 
L 407.676113 145.31194 
L 407.891467 145.241212 
L 407.999144 145.382667 
L 408.106821 145.31194 
L 408.214498 145.382667 
L 408.429852 145.170484 
L 408.53753 145.099757 
L 408.752884 145.31194 
L 408.860561 145.170484 
L 409.291269 145.382667 
L 409.398946 145.31194 
L 409.721977 145.453395 
L 410.475717 145.453395 
L 410.691071 145.736305 
L 410.798748 145.59485 
L 411.014102 145.736305 
L 411.229456 145.807032 
L 411.337133 145.736305 
L 411.44481 145.87776 
L 411.552487 145.807032 
L 411.767842 145.87776 
L 412.413904 145.948487 
L 412.629258 146.16067 
L 412.736935 146.302125 
L 412.844612 146.089942 
L 412.952289 146.231398 
L 413.059966 146.16067 
L 413.167644 146.302125 
L 413.382998 146.089942 
L 413.598352 146.16067 
L 413.921383 146.019215 
L 414.244414 146.089942 
L 414.352091 146.302125 
L 414.459768 146.16067 
L 414.675122 146.372853 
L 414.998154 146.514308 
L 415.321185 146.302125 
L 415.428862 146.372853 
L 415.751893 146.089942 
L 415.85957 146.089942 
L 415.967247 146.44358 
L 416.182601 146.231398 
L 416.397956 146.585035 
L 416.505633 146.372853 
L 416.61331 146.72649 
L 416.828664 146.655763 
L 416.936341 146.867945 
L 417.259372 146.514308 
L 417.367049 146.938673 
L 417.474726 146.655763 
L 417.582403 146.797218 
L 417.69008 146.72649 
L 417.905435 146.797218 
L 418.013112 147.080128 
L 418.228466 146.797218 
L 418.44382 147.080128 
L 418.766851 146.797218 
L 418.874528 146.867945 
L 419.089882 146.655763 
L 419.197559 146.514308 
L 419.412914 146.797218 
L 420.166653 147.221583 
L 420.382007 147.787403 
L 420.597361 147.575221 
L 420.705038 147.645948 
L 420.812715 147.575221 
L 421.02807 147.716676 
L 421.351101 148.14104 
L 421.566455 148.282496 
L 421.889486 149.060498 
L 422.750903 150.970142 
L 423.181611 152.313965 
L 424.473736 158.608716 
L 425.012121 162.781641 
L 425.442829 167.308202 
L 426.304246 178.483147 
L 427.165663 190.153195 
L 427.381017 191.567734 
L 427.488694 191.497021 
L 427.704048 190.506824 
L 428.027079 184.848626 
L 428.996173 156.062525 
L 429.534558 131.80298 
L 429.857589 123.31568 
L 430.395975 118.718391 
L 430.611329 118.223293 
L 431.042037 118.152558 
L 431.257391 117.940376 
L 431.365068 117.940376 
L 431.472745 117.798929 
L 431.580422 117.940376 
L 431.6881 117.728194 
L 431.795777 117.869641 
L 432.011131 118.435474 
L 432.118808 118.36474 
L 432.226485 119.354937 
L 432.334162 119.284202 
L 432.657193 120.486581 
L 433.195579 123.31568 
L 435.026089 132.439528 
L 435.133766 132.65171 
L 435.564474 134.632081 
L 435.672151 134.773535 
L 435.779828 135.551539 
L 435.887505 135.410083 
L 435.995182 136.188087 
L 436.102859 136.046631 
L 436.533568 138.168458 
L 436.641245 138.027002 
L 436.748922 138.309912 
L 436.856599 139.017188 
L 437.071953 138.805006 
L 437.17963 138.875734 
L 437.394984 139.795192 
L 437.610338 139.865918 
L 437.93337 140.856104 
L 438.148724 140.99756 
L 438.364078 141.351198 
L 438.471755 141.28047 
L 438.579432 141.775562 
L 438.794786 141.492652 
L 439.01014 142.058474 
L 439.225494 142.058474 
L 439.440849 142.553566 
L 439.656203 142.907203 
L 439.76388 142.907203 
L 439.871557 143.119385 
L 439.979234 143.048657 
L 440.086911 143.119385 
L 440.194588 143.402295 
L 440.302265 143.119385 
L 440.409942 143.190113 
L 440.517619 143.119385 
L 440.625296 143.473024 
L 440.840651 142.765747 
L 441.056005 143.260841 
L 441.163682 143.331569 
L 441.379036 143.119385 
L 441.486713 143.614478 
L 441.59439 143.543751 
L 441.702067 143.826661 
L 441.917421 143.473024 
L 442.132775 143.826661 
L 442.240452 143.190113 
L 442.455807 143.685206 
L 442.563484 143.755934 
L 442.671161 143.543751 
L 442.778838 143.826661 
L 442.886515 143.473024 
L 442.994192 143.897389 
L 443.101869 143.826661 
L 443.209546 143.331569 
L 443.4249 144.038844 
L 443.532577 144.180299 
L 443.640254 143.968116 
L 443.747931 144.180299 
L 443.963286 144.038844 
L 444.070963 144.109571 
L 444.286317 144.038844 
L 444.393994 144.038844 
L 444.609348 144.180299 
L 444.717025 144.180299 
L 444.824702 144.321754 
L 444.932379 144.251026 
L 445.040056 144.321754 
L 445.147733 144.604664 
L 445.25541 144.533936 
L 445.363087 144.675392 
L 445.578442 144.604664 
L 445.793796 144.675392 
L 445.901473 144.533936 
L 446.116827 144.604664 
L 446.439858 144.604664 
L 446.655212 144.816847 
L 446.870566 145.029029 
L 446.978243 145.029029 
L 447.085921 145.170484 
L 447.193598 145.029029 
L 447.301275 145.31194 
L 447.624306 145.029029 
L 447.731983 145.029029 
L 447.947337 145.170484 
L 448.162691 145.029029 
L 448.270368 145.241212 
L 448.378045 145.170484 
L 449.024108 145.524122 
L 449.239462 145.31194 
L 449.347139 145.453395 
L 449.67017 145.170484 
L 449.885524 145.382667 
L 449.993201 145.241212 
L 450.208556 145.665577 
L 450.316233 145.524122 
L 450.531587 145.807032 
L 450.639264 145.665577 
L 450.746941 145.807032 
L 450.854618 145.736305 
L 450.962295 145.807032 
L 451.177649 145.59485 
L 451.285326 145.59485 
L 451.393003 145.453395 
L 451.50068 145.59485 
L 451.608357 145.382667 
L 451.823712 145.59485 
L 451.931389 145.453395 
L 452.25442 145.87776 
L 452.469774 146.019215 
L 452.577451 145.948487 
L 452.792805 146.019215 
L 453.115836 145.948487 
L 453.223514 145.87776 
L 453.546545 146.019215 
L 453.654222 145.948487 
L 453.869576 146.16067 
L 454.515638 146.655763 
L 454.730993 146.44358 
L 455.054024 146.372853 
L 455.161701 146.302125 
L 455.377055 146.44358 
L 455.484732 146.372853 
L 455.700086 146.585035 
L 455.807763 146.44358 
L 455.91544 146.655763 
L 456.023117 146.514308 
L 456.346149 146.72649 
L 456.453826 146.585035 
L 456.561503 146.655763 
L 456.992211 146.44358 
L 457.315242 146.514308 
L 457.422919 146.655763 
L 457.530596 146.44358 
L 457.853628 146.655763 
L 458.068982 146.585035 
L 458.176659 146.797218 
L 458.392013 146.514308 
L 458.49969 147.080128 
L 458.822721 146.655763 
L 458.930398 146.797218 
L 459.038075 146.655763 
L 459.253429 146.867945 
L 459.468784 147.292311 
L 459.684138 147.150856 
L 460.222523 147.150856 
L 460.3302 146.938673 
L 460.545554 147.080128 
L 460.760908 146.867945 
L 461.299294 147.292311 
L 461.406971 147.080128 
L 461.514648 147.150856 
L 461.622325 147.0094 
L 461.730002 147.292311 
L 462.053033 147.150856 
L 462.16071 147.221583 
L 462.268387 147.080128 
L 462.806773 147.85813 
L 463.022127 148.14104 
L 463.129804 148.070314 
L 463.345158 148.706862 
L 463.452835 148.777588 
L 463.560512 148.706862 
L 464.098898 149.484864 
L 464.206575 149.34341 
L 464.314252 149.484864 
L 464.637283 150.47505 
L 465.283345 152.596875 
L 465.929408 154.930885 
L 466.683147 159.315992 
L 467.544564 166.954564 
L 468.621335 181.595163 
L 469.15972 188.667922 
L 469.482751 190.719006 
L 469.590428 190.860476 
L 469.805782 189.799544 
L 469.913459 189.021551 
L 470.236491 182.868254 
L 471.097907 158.46726 
L 471.74397 129.681152 
L 472.067001 122.820582 
L 472.390032 119.7793 
L 472.713063 118.647656 
L 472.928417 118.294027 
L 473.251449 117.940376 
L 473.789834 117.940376 
L 474.328219 119.07202 
L 474.435896 119.213467 
L 474.974282 121.193839 
L 476.374084 128.90315 
L 477.127823 132.227344 
L 477.773886 135.339357 
L 477.98924 135.763721 
L 478.204594 136.258815 
L 478.527625 137.319726 
L 478.850656 137.81482 
L 479.389042 139.441554 
L 479.496719 139.512282 
L 479.81975 140.361012 
L 480.035104 140.43174 
L 480.142781 140.43174 
L 480.358135 140.926832 
L 480.465812 140.856104 
L 480.788843 141.421926 
L 481.004198 141.987746 
L 481.219552 142.412109 
L 481.327229 142.553566 
L 481.434906 142.482837 
L 481.542583 142.624294 
L 481.65026 142.553566 
L 481.865614 142.836475 
L 482.296322 143.119385 
L 482.511677 143.331569 
L 482.619354 143.260841 
L 482.727031 143.473024 
L 482.834708 143.119385 
L 482.942385 143.331569 
L 483.050062 143.260841 
L 483.48077 143.826661 
L 483.588447 143.755934 
L 483.696124 143.402295 
L 483.803801 143.473024 
L 483.911478 143.119385 
L 484.342187 143.402295 
L 484.449864 143.614478 
L 484.557541 143.543751 
L 484.772895 143.897389 
L 485.095926 143.826661 
L 485.203603 143.543751 
L 485.31128 143.826661 
L 485.418957 143.614478 
L 485.526635 143.685206 
L 485.634312 144.109571 
L 485.849666 143.897389 
L 486.06502 143.826661 
L 486.280374 143.897389 
L 486.711082 144.251026 
L 486.818759 144.392482 
L 486.926436 144.180299 
L 487.141791 144.251026 
L 487.249468 144.109571 
L 487.572499 144.321754 
L 487.787853 144.180299 
L 488.003207 144.533936 
L 488.218561 144.533936 
L 488.433915 144.958302 
L 488.64927 144.816847 
L 488.756947 144.746119 
L 488.864624 144.887574 
L 488.972301 144.746119 
L 488.972301 144.746119 
" clip-path="url(#pa06b40c8cc)" style="fill: none; stroke: #d94452; stroke-width: 0.8; stroke-linecap: square"/>
   </g>
   <g id="text_17">
    <g id="patch_7">
     <path d="M 107.552606 263.690638 
L 224.652606 263.690638 
Q 227.652606 263.690638 227.652606 260.690638 
L 227.652606 250.090638 
Q 227.652606 247.090638 224.652606 247.090638 
L 107.552606 247.090638 
Q 104.552606 247.090638 104.552606 250.090638 
L 104.552606 260.690638 
Q 104.552606 263.690638 107.552606 263.690638 
z
" style="fill: #ffffff; opacity: 0.85; stroke: #333333; stroke-linejoin: miter"/>
    </g>
    <!-- I$_{p-p}$ = 1.87E-03 mA/m² -->
    <g style="fill: #333333" transform="translate(107.552606 257.590638) scale(0.1 -0.1)">
     <defs>
      <path id="DejaVuSans-49" d="M 628 4666 
L 1259 4666 
L 1259 0 
L 628 0 
L 628 4666 
z
" transform="scale(0.015625)"/>
      <path id="DejaVuSans-Oblique-70" d="M 3175 2156 
Q 3175 2616 2975 2859 
Q 2775 3103 2400 3103 
Q 2144 3103 1911 2972 
Q 1678 2841 1497 2591 
Q 1319 2344 1212 1994 
Q 1106 1644 1106 1300 
Q 1106 863 1306 627 
Q 1506 391 1875 391 
Q 2147 391 2380 519 
Q 2613 647 2778 891 
Q 2956 1147 3065 1494 
Q 3175 1841 3175 2156 
z
M 1394 2969 
Q 1625 3272 1939 3428 
Q 2253 3584 2638 3584 
Q 3175 3584 3472 3232 
Q 3769 2881 3769 2247 
Q 3769 1728 3584 1258 
Q 3400 788 3053 416 
Q 2822 169 2531 39 
Q 2241 -91 1919 -91 
Q 1547 -91 1294 64 
Q 1041 219 916 525 
L 556 -1331 
L -19 -1331 
L 922 3500 
L 1497 3500 
L 1394 2969 
z
" transform="scale(0.015625)"/>
      <path id="DejaVuSans-20" transform="scale(0.015625)"/>
      <path id="DejaVuSans-3d" d="M 678 2906 
L 4684 2906 
L 4684 2381 
L 678 2381 
L 678 2906 
z
M 678 1631 
L 4684 1631 
L 4684 1100 
L 678 1100 
L 678 1631 
z
" transform="scale(0.015625)"/>
      <path id="DejaVuSans-38" d="M 2034 2216 
Q 1584 2216 1326 1975 
Q 1069 1734 1069 1313 
Q 1069 891 1326 650 
Q 1584 409 2034 409 
Q 2484 409 2743 651 
Q 3003 894 3003 1313 
Q 3003 1734 2745 1975 
Q 2488 2216 2034 2216 
z
M 1403 2484 
Q 997 2584 770 2862 
Q 544 3141 544 3541 
Q 544 4100 942 4425 
Q 1341 4750 2034 4750 
Q 2731 4750 3128 4425 
Q 3525 4100 3525 3541 
Q 3525 3141 3298 2862 
Q 3072 2584 2669 2484 
Q 3125 2378 3379 2068 
Q 3634 1759 3634 1313 
Q 3634 634 3220 271 
Q 2806 -91 2034 -91 
Q 1263 -91 848 271 
Q 434 634 434 1313 
Q 434 1759 690 2068 
Q 947 2378 1403 2484 
z
M 1172 3481 
Q 1172 3119 1398 2916 
Q 1625 2713 2034 2713 
Q 2441 2713 2670 2916 
Q 2900 3119 2900 3481 
Q 2900 3844 2670 4047 
Q 2441 4250 2034 4250 
Q 1625 4250 1398 4047 
Q 1172 3844 1172 3481 
z
" transform="scale(0.015625)"/>
      <path id="DejaVuSans-37" d="M 525 4666 
L 3525 4666 
L 3525 4397 
L 1831 0 
L 1172 0 
L 2766 4134 
L 525 4134 
L 525 4666 
z
" transform="scale(0.015625)"/>
      <path id="DejaVuSans-45" d="M 628 4666 
L 3578 4666 
L 3578 4134 
L 1259 4134 
L 1259 2753 
L 3481 2753 
L 3481 2222 
L 1259 2222 
L 1259 531 
L 3634 531 
L 3634 0 
L 628 0 
L 628 4666 
z
" transform="scale(0.015625)"/>
      <path id="DejaVuSans-2d" d="M 313 2009 
L 1997 2009 
L 1997 1497 
L 313 1497 
L 313 2009 
z
" transform="scale(0.015625)"/>
      <path id="DejaVuSans-6d" d="M 3328 2828 
Q 3544 3216 3844 3400 
Q 4144 3584 4550 3584 
Q 5097 3584 5394 3201 
Q 5691 2819 5691 2113 
L 5691 0 
L 5113 0 
L 5113 2094 
Q 5113 2597 4934 2840 
Q 4756 3084 4391 3084 
Q 3944 3084 3684 2787 
Q 3425 2491 3425 1978 
L 3425 0 
L 2847 0 
L 2847 2094 
Q 2847 2600 2669 2842 
Q 2491 3084 2119 3084 
Q 1678 3084 1418 2786 
Q 1159 2488 1159 1978 
L 1159 0 
L 581 0 
L 581 3500 
L 1159 3500 
L 1159 2956 
Q 1356 3278 1631 3431 
Q 1906 3584 2284 3584 
Q 2666 3584 2933 3390 
Q 3200 3197 3328 2828 
z
" transform="scale(0.015625)"/>
      <path id="DejaVuSans-41" d="M 2188 4044 
L 1331 1722 
L 3047 1722 
L 2188 4044 
z
M 1831 4666 
L 2547 4666 
L 4325 0 
L 3669 0 
L 3244 1197 
L 1141 1197 
L 716 0 
L 50 0 
L 1831 4666 
z
" transform="scale(0.015625)"/>
      <path id="DejaVuSans-2f" d="M 1625 4666 
L 2156 4666 
L 531 -594 
L 0 -594 
L 1625 4666 
z
" transform="scale(0.015625)"/>
      <path id="DejaVuSans-b2" d="M 838 2444 
L 2163 2444 
L 2163 2088 
L 294 2088 
L 294 2431 
Q 400 2528 597 2703 
Q 1672 3656 1672 3950 
Q 1672 4156 1509 4282 
Q 1347 4409 1081 4409 
Q 919 4409 728 4354 
Q 538 4300 313 4191 
L 313 4575 
Q 553 4663 761 4706 
Q 969 4750 1147 4750 
Q 1600 4750 1872 4544 
Q 2144 4338 2144 4000 
Q 2144 3566 1109 2678 
Q 934 2528 838 2444 
z
" transform="scale(0.015625)"/>
     </defs>
     <use xlink:href="#DejaVuSans-49" transform="translate(0 0.78125)"/>
     <use xlink:href="#DejaVuSans-Oblique-70" transform="translate(30.449219 -15.625) scale(0.7)"/>
     <use xlink:href="#DejaVuSans-2212" transform="translate(88.520508 -15.625) scale(0.7)"/>
     <use xlink:href="#DejaVuSans-Oblique-70" transform="translate(160.810547 -15.625) scale(0.7)"/>
     <use xlink:href="#DejaVuSans-20" transform="translate(207.978516 0.78125)"/>
     <use xlink:href="#DejaVuSans-3d" transform="translate(239.765625 0.78125)"/>
     <use xlink:href="#DejaVuSans-20" transform="translate(323.554688 0.78125)"/>
     <use xlink:href="#DejaVuSans-31" transform="translate(355.341797 0.78125)"/>
     <use xlink:href="#DejaVuSans-2e" transform="translate(418.964844 0.78125)"/>
     <use xlink:href="#DejaVuSans-38" transform="translate(448.126953 0.78125)"/>
     <use xlink:href="#DejaVuSans-37" transform="translate(511.75 0.78125)"/>
     <use xlink:href="#DejaVuSans-45" transform="translate(575.373047 0.78125)"/>
     <use xlink:href="#DejaVuSans-2d" transform="translate(638.556641 0.78125)"/>
     <use xlink:href="#DejaVuSans-30" transform="translate(674.640625 0.78125)"/>
     <use xlink:href="#DejaVuSans-33" transform="translate(738.263672 0.78125)"/>
     <use xlink:href="#DejaVuSans-20" transform="translate(801.886719 0.78125)"/>
     <use xlink:href="#DejaVuSans-6d" transform="translate(833.673828 0.78125)"/>
     <use xlink:href="#DejaVuSans-41" transform="translate(931.085938 0.78125)"/>
     <use xlink:href="#DejaVuSans-2f" transform="translate(999.494141 0.78125)"/>
     <use xlink:href="#DejaVuSans-6d" transform="translate(1033.185547 0.78125)"/>
     <use xlink:href="#DejaVuSans-b2" transform="translate(1130.597656 0.78125)"/>
    </g>
   </g>
   <g id="text_18">
    <g id="patch_8">
     <path d="M 322.649069 263.690638 
L 440.049069 263.690638 
Q 443.049069 263.690638 443.049069 260.690638 
L 443.049069 250.090638 
Q 443.049069 247.090638 440.049069 247.090638 
L 322.649069 247.090638 
Q 319.649069 247.090638 319.649069 250.090638 
L 319.649069 260.690638 
Q 319.649069 263.690638 322.649069 263.690638 
z
" style="fill: #ffffff; opacity: 0.85; stroke: #d94452; stroke-linejoin: miter"/>
    </g>
    <!-- I$_{p-p}$ = 8.47E-04 mA/m² -->
    <g style="fill: #d94452" transform="translate(322.649069 257.590638) scale(0.1 -0.1)">
     <defs>
      <path id="DejaVuSans-34" d="M 2419 4116 
L 825 1625 
L 2419 1625 
L 2419 4116 
z
M 2253 4666 
L 3047 4666 
L 3047 1625 
L 3713 1625 
L 3713 1100 
L 3047 1100 
L 3047 0 
L 2419 0 
L 2419 1100 
L 313 1100 
L 313 1709 
L 2253 4666 
z
" transform="scale(0.015625)"/>
     </defs>
     <use xlink:href="#DejaVuSans-49" transform="translate(0 0.78125)"/>
     <use xlink:href="#DejaVuSans-Oblique-70" transform="translate(30.449219 -15.625) scale(0.7)"/>
     <use xlink:href="#DejaVuSans-2212" transform="translate(88.520508 -15.625) scale(0.7)"/>
     <use xlink:href="#DejaVuSans-Oblique-70" transform="translate(160.810547 -15.625) scale(0.7)"/>
     <use xlink:href="#DejaVuSans-20" transform="translate(207.978516 0.78125)"/>
     <use xlink:href="#DejaVuSans-3d" transform="translate(239.765625 0.78125)"/>
     <use xlink:href="#DejaVuSans-20" transform="translate(323.554688 0.78125)"/>
     <use xlink:href="#DejaVuSans-38" transform="translate(355.341797 0.78125)"/>
     <use xlink:href="#DejaVuSans-2e" transform="translate(418.964844 0.78125)"/>
     <use xlink:href="#DejaVuSans-34" transform="translate(450.751953 0.78125)"/>
     <use xlink:href="#DejaVuSans-37" transform="translate(514.375 0.78125)"/>
     <use xlink:href="#DejaVuSans-45" transform="translate(577.998047 0.78125)"/>
     <use xlink:href="#DejaVuSans-2d" transform="translate(641.181641 0.78125)"/>
     <use xlink:href="#DejaVuSans-30" transform="translate(677.265625 0.78125)"/>
     <use xlink:href="#DejaVuSans-34" transform="translate(740.888672 0.78125)"/>
     <use xlink:href="#DejaVuSans-20" transform="translate(804.511719 0.78125)"/>
     <use xlink:href="#DejaVuSans-6d" transform="translate(836.298828 0.78125)"/>
     <use xlink:href="#DejaVuSans-41" transform="translate(933.710938 0.78125)"/>
     <use xlink:href="#DejaVuSans-2f" transform="translate(1002.119141 0.78125)"/>
     <use xlink:href="#DejaVuSans-6d" transform="translate(1035.810547 0.78125)"/>
     <use xlink:href="#DejaVuSans-b2" transform="translate(1133.222656 0.78125)"/>
    </g>
   </g>
   <g id="text_19">
    <g id="patch_9">
     <path d="M 404.457982 48.3638 
L 476.057513 48.3638 
Q 481.257513 48.3638 481.257513 43.1638 
L 481.257513 30.582237 
Q 481.257513 25.382237 476.057513 25.382237 
L 404.457982 25.382237 
Q 399.257982 25.382237 399.257982 30.582237 
L 399.257982 43.1638 
Q 399.257982 48.3638 404.457982 48.3638 
z
" style="fill: #ffffff; opacity: 0.9; stroke: #5cb85c; stroke-width: 1.5; stroke-linejoin: miter"/>
    </g>
    <!-- f = 2.5 Hz -->
    <g style="fill: #5cb85c" transform="translate(404.457982 40.460206) scale(0.13 -0.13)">
     <defs>
      <path id="DejaVuSans-Bold-66" d="M 2841 4863 
L 2841 4128 
L 2222 4128 
Q 1984 4128 1890 4042 
Q 1797 3956 1797 3744 
L 1797 3500 
L 2753 3500 
L 2753 2700 
L 1797 2700 
L 1797 0 
L 678 0 
L 678 2700 
L 122 2700 
L 122 3500 
L 678 3500 
L 678 3744 
Q 678 4316 997 4589 
Q 1316 4863 1984 4863 
L 2841 4863 
z
" transform="scale(0.015625)"/>
      <path id="DejaVuSans-Bold-3d" d="M 678 3084 
L 4684 3084 
L 4684 2350 
L 678 2350 
L 678 3084 
z
M 678 1663 
L 4684 1663 
L 4684 922 
L 678 922 
L 678 1663 
z
" transform="scale(0.015625)"/>
      <path id="DejaVuSans-Bold-32" d="M 1844 884 
L 3897 884 
L 3897 0 
L 506 0 
L 506 884 
L 2209 2388 
Q 2438 2594 2547 2791 
Q 2656 2988 2656 3200 
Q 2656 3528 2436 3728 
Q 2216 3928 1850 3928 
Q 1569 3928 1234 3808 
Q 900 3688 519 3450 
L 519 4475 
Q 925 4609 1322 4679 
Q 1719 4750 2100 4750 
Q 2938 4750 3402 4381 
Q 3866 4013 3866 3353 
Q 3866 2972 3669 2642 
Q 3472 2313 2841 1759 
L 1844 884 
z
" transform="scale(0.015625)"/>
      <path id="DejaVuSans-Bold-2e" d="M 653 1209 
L 1778 1209 
L 1778 0 
L 653 0 
L 653 1209 
z
" transform="scale(0.015625)"/>
      <path id="DejaVuSans-Bold-35" d="M 678 4666 
L 3669 4666 
L 3669 3781 
L 1638 3781 
L 1638 3059 
Q 1775 3097 1914 3117 
Q 2053 3138 2203 3138 
Q 3056 3138 3531 2711 
Q 4006 2284 4006 1522 
Q 4006 766 3489 337 
Q 2972 -91 2053 -91 
Q 1656 -91 1267 -14 
Q 878 63 494 219 
L 494 1166 
Q 875 947 1217 837 
Q 1559 728 1863 728 
Q 2300 728 2551 942 
Q 2803 1156 2803 1522 
Q 2803 1891 2551 2103 
Q 2300 2316 1863 2316 
Q 1603 2316 1309 2248 
Q 1016 2181 678 2041 
L 678 4666 
z
" transform="scale(0.015625)"/>
      <path id="DejaVuSans-Bold-48" d="M 588 4666 
L 1791 4666 
L 1791 2888 
L 3566 2888 
L 3566 4666 
L 4769 4666 
L 4769 0 
L 3566 0 
L 3566 1978 
L 1791 1978 
L 1791 0 
L 588 0 
L 588 4666 
z
" transform="scale(0.015625)"/>
      <path id="DejaVuSans-Bold-7a" d="M 366 3500 
L 3419 3500 
L 3419 2719 
L 1575 800 
L 3419 800 
L 3419 0 
L 288 0 
L 288 781 
L 2131 2700 
L 366 2700 
L 366 3500 
z
" transform="scale(0.015625)"/>
     </defs>
     <use xlink:href="#DejaVuSans-Bold-66"/>
     <use xlink:href="#DejaVuSans-Bold-20" transform="translate(43.505859 0)"/>
     <use xlink:href="#DejaVuSans-Bold-3d" transform="translate(78.320312 0)"/>
     <use xlink:href="#DejaVuSans-Bold-20" transform="translate(162.109375 0)"/>
     <use xlink:href="#DejaVuSans-Bold-32" transform="translate(196.923828 0)"/>
     <use xlink:href="#DejaVuSans-Bold-2e" transform="translate(266.503906 0)"/>
     <use xlink:href="#DejaVuSans-Bold-35" transform="translate(304.492188 0)"/>
     <use xlink:href="#DejaVuSans-Bold-20" transform="translate(374.072266 0)"/>
     <use xlink:href="#DejaVuSans-Bold-48" transform="translate(408.886719 0)"/>
     <use xlink:href="#DejaVuSans-Bold-7a" transform="translate(492.578125 0)"/>
    </g>
   </g>
   <g id="text_20">
    <!-- Without MIC -->
    <g style="fill: #333333" transform="translate(117.370575 41.22005) scale(0.14 -0.14)">
     <defs>
      <path id="DejaVuSans-Bold-57" d="M 191 4666 
L 1344 4666 
L 2150 1275 
L 2950 4666 
L 4109 4666 
L 4909 1275 
L 5716 4666 
L 6859 4666 
L 5759 0 
L 4372 0 
L 3525 3547 
L 2688 0 
L 1300 0 
L 191 4666 
z
" transform="scale(0.015625)"/>
      <path id="DejaVuSans-Bold-74" d="M 1759 4494 
L 1759 3500 
L 2913 3500 
L 2913 2700 
L 1759 2700 
L 1759 1216 
Q 1759 972 1856 886 
Q 1953 800 2241 800 
L 2816 800 
L 2816 0 
L 1856 0 
Q 1194 0 917 276 
Q 641 553 641 1216 
L 641 2700 
L 84 2700 
L 84 3500 
L 641 3500 
L 641 4494 
L 1759 4494 
z
" transform="scale(0.015625)"/>
      <path id="DejaVuSans-Bold-68" d="M 4056 2131 
L 4056 0 
L 2931 0 
L 2931 347 
L 2931 1625 
Q 2931 2084 2911 2256 
Q 2891 2428 2841 2509 
Q 2775 2619 2662 2680 
Q 2550 2741 2406 2741 
Q 2056 2741 1856 2470 
Q 1656 2200 1656 1722 
L 1656 0 
L 538 0 
L 538 4863 
L 1656 4863 
L 1656 2988 
Q 1909 3294 2193 3439 
Q 2478 3584 2822 3584 
Q 3428 3584 3742 3212 
Q 4056 2841 4056 2131 
z
" transform="scale(0.015625)"/>
      <path id="DejaVuSans-Bold-6f" d="M 2203 2784 
Q 1831 2784 1636 2517 
Q 1441 2250 1441 1747 
Q 1441 1244 1636 976 
Q 1831 709 2203 709 
Q 2569 709 2762 976 
Q 2956 1244 2956 1747 
Q 2956 2250 2762 2517 
Q 2569 2784 2203 2784 
z
M 2203 3584 
Q 3106 3584 3614 3096 
Q 4122 2609 4122 1747 
Q 4122 884 3614 396 
Q 3106 -91 2203 -91 
Q 1297 -91 786 396 
Q 275 884 275 1747 
Q 275 2609 786 3096 
Q 1297 3584 2203 3584 
z
" transform="scale(0.015625)"/>
      <path id="DejaVuSans-Bold-75" d="M 500 1363 
L 500 3500 
L 1625 3500 
L 1625 3150 
Q 1625 2866 1622 2436 
Q 1619 2006 1619 1863 
Q 1619 1441 1641 1255 
Q 1663 1069 1716 984 
Q 1784 875 1895 815 
Q 2006 756 2150 756 
Q 2500 756 2700 1025 
Q 2900 1294 2900 1772 
L 2900 3500 
L 4019 3500 
L 4019 0 
L 2900 0 
L 2900 506 
Q 2647 200 2364 54 
Q 2081 -91 1741 -91 
Q 1134 -91 817 281 
Q 500 653 500 1363 
z
" transform="scale(0.015625)"/>
      <path id="DejaVuSans-Bold-4d" d="M 588 4666 
L 2119 4666 
L 3181 2169 
L 4250 4666 
L 5778 4666 
L 5778 0 
L 4641 0 
L 4641 3413 
L 3566 897 
L 2803 897 
L 1728 3413 
L 1728 0 
L 588 0 
L 588 4666 
z
" transform="scale(0.015625)"/>
      <path id="DejaVuSans-Bold-43" d="M 4288 256 
Q 3956 84 3597 -3 
Q 3238 -91 2847 -91 
Q 1681 -91 1000 561 
Q 319 1213 319 2328 
Q 319 3447 1000 4098 
Q 1681 4750 2847 4750 
Q 3238 4750 3597 4662 
Q 3956 4575 4288 4403 
L 4288 3438 
Q 3953 3666 3628 3772 
Q 3303 3878 2944 3878 
Q 2300 3878 1931 3465 
Q 1563 3053 1563 2328 
Q 1563 1606 1931 1193 
Q 2300 781 2944 781 
Q 3303 781 3628 887 
Q 3953 994 4288 1222 
L 4288 256 
z
" transform="scale(0.015625)"/>
     </defs>
     <use xlink:href="#DejaVuSans-Bold-57"/>
     <use xlink:href="#DejaVuSans-Bold-69" transform="translate(110.302734 0)"/>
     <use xlink:href="#DejaVuSans-Bold-74" transform="translate(144.580078 0)"/>
     <use xlink:href="#DejaVuSans-Bold-68" transform="translate(192.382812 0)"/>
     <use xlink:href="#DejaVuSans-Bold-6f" transform="translate(263.574219 0)"/>
     <use xlink:href="#DejaVuSans-Bold-75" transform="translate(332.275391 0)"/>
     <use xlink:href="#DejaVuSans-Bold-74" transform="translate(403.466797 0)"/>
     <use xlink:href="#DejaVuSans-Bold-20" transform="translate(451.269531 0)"/>
     <use xlink:href="#DejaVuSans-Bold-4d" transform="translate(486.083984 0)"/>
     <use xlink:href="#DejaVuSans-Bold-49" transform="translate(585.595703 0)"/>
     <use xlink:href="#DejaVuSans-Bold-43" transform="translate(622.802734 0)"/>
    </g>
   </g>
   <g id="text_21">
    <!-- With MIC -->
    <g style="fill: #d94452" transform="translate(345.755163 41.22005) scale(0.14 -0.14)">
     <use xlink:href="#DejaVuSans-Bold-57"/>
     <use xlink:href="#DejaVuSans-Bold-69" transform="translate(110.302734 0)"/>
     <use xlink:href="#DejaVuSans-Bold-74" transform="translate(144.580078 0)"/>
     <use xlink:href="#DejaVuSans-Bold-68" transform="translate(192.382812 0)"/>
     <use xlink:href="#DejaVuSans-Bold-20" transform="translate(263.574219 0)"/>
     <use xlink:href="#DejaVuSans-Bold-4d" transform="translate(298.388672 0)"/>
     <use xlink:href="#DejaVuSans-Bold-49" transform="translate(397.900391 0)"/>
     <use xlink:href="#DejaVuSans-Bold-43" transform="translate(435.107422 0)"/>
    </g>
   </g>
  </g>
 </g>
 <defs>
  <clipPath id="pa06b40c8cc">
   <rect x="58.479375" y="17.798437" width="430.492926" height="255.676"/>
  </clipPath>
 </defs>
</svg>
