<?xml version="1.0" encoding="utf-8" standalone="no"?>
<!DOCTYPE svg PUBLIC "-//W3C//DTD SVG 1.1//EN"
  "http://www.w3.org/Graphics/SVG/1.1/DTD/svg11.dtd">
<svg xmlns:xlink="http://www.w3.org/1999/xlink" width="496.172301pt" height="315.86975pt" viewBox="0 0 496.172301 315.86975" xmlns="http://www.w3.org/2000/svg" version="1.1">
 <metadata>
  <rdf:RDF xmlns:dc="http://purl.org/dc/elements/1.1/" xmlns:cc="http://creativecommons.org/ns#" xmlns:rdf="http://www.w3.org/1999/02/22-rdf-syntax-ns#">
   <cc:Work>
    <dc:type rdf:resource="http://purl.org/dc/dcmitype/StillImage"/>
    <dc:date>2026-04-26T16:36:48.782685</dc:date>
    <dc:format>image/svg+xml</dc:format>
    <dc:creator>
     <cc:Agent>
      <dc:title>Matplotlib v3.10.8, https://matplotlib.org/</dc:title>
     </cc:Agent>
    </dc:creator>
   </cc:Work>
  </rdf:RDF>
 </metadata>
 <defs>
  <style type="text/css">*{stroke-linejoin: round; stroke-linecap: butt}</style>
 </defs>
 <g id="figure_1">
  <g id="patch_1">
   <path d="M 0 315.86975 
L 496.172301 315.86975 
L 496.172301 0 
L 0 0 
z
" style="fill: #ffffff"/>
  </g>
  <g id="axes_1">
   <g id="patch_2">
    <path d="M 58.479375 273.474438 
L 488.972301 273.474438 
L 488.972301 17.798437 
L 58.479375 17.798437 
z
" style="fill: #ffffff"/>
   </g>
   <g id="patch_3">
    <path d="M 58.479375 273.474438 
L 273.725838 273.474438 
L 273.725838 17.798437 
L 58.479375 17.798437 
z
" clip-path="url(#p3abad7e483)" style="fill: #cccccc; opacity: 0.12; stroke: #cccccc; stroke-linejoin: miter"/>
   </g>
   <g id="patch_4">
    <path d="M 273.725838 273.474438 
L 488.972301 273.474438 
L 488.972301 17.798437 
L 273.725838 17.798437 
z
" clip-path="url(#p3abad7e483)" style="fill: #d94452; opacity: 0.06; stroke: #d94452; stroke-linejoin: miter"/>
   </g>
   <g id="line2d_1">
    <path d="M 273.725838 273.474438 
L 273.725838 17.798437 
" clip-path="url(#p3abad7e483)" style="fill: none; stroke-dasharray: 3.7,1.6; stroke-dashoffset: 0; stroke: #999999"/>
   </g>
   <g id="matplotlib.axis_1">
    <g id="xtick_1">
     <g id="line2d_2">
      <defs>
       <path id="mc1f1085479" d="M 0 0 
L 0 3.5 
" style="stroke: #000000; stroke-width: 0.8"/>
      </defs>
      <g>
       <use xlink:href="#mc1f1085479" x="58.479375" y="273.474438" style="stroke: #000000; stroke-width: 0.8"/>
      </g>
     </g>
     <g id="text_1">
      <!-- 0.0 -->
      <g transform="translate(49.732656 288.832719) scale(0.11 -0.11)">
       <defs>
        <path id="DejaVuSans-30" d="M 2034 4250 
Q 1547 4250 1301 3770 
Q 1056 3291 1056 2328 
Q 1056 1369 1301 889 
Q 1547 409 2034 409 
Q 2525 409 2770 889 
Q 3016 1369 3016 2328 
Q 3016 3291 2770 3770 
Q 2525 4250 2034 4250 
z
M 2034 4750 
Q 2819 4750 3233 4129 
Q 3647 3509 3647 2328 
Q 3647 1150 3233 529 
Q 2819 -91 2034 -91 
Q 1250 -91 836 529 
Q 422 1150 422 2328 
Q 422 3509 836 4129 
Q 1250 4750 2034 4750 
z
" transform="scale(0.015625)"/>
        <path id="DejaVuSans-2e" d="M 684 794 
L 1344 794 
L 1344 0 
L 684 0 
L 684 794 
z
" transform="scale(0.015625)"/>
       </defs>
       <use xlink:href="#DejaVuSans-30"/>
       <use xlink:href="#DejaVuSans-2e" transform="translate(63.623047 0)"/>
       <use xlink:href="#DejaVuSans-30" transform="translate(95.410156 0)"/>
      </g>
     </g>
    </g>
    <g id="xtick_2">
     <g id="line2d_3">
      <g>
       <use xlink:href="#mc1f1085479" x="112.31791" y="273.474438" style="stroke: #000000; stroke-width: 0.8"/>
      </g>
     </g>
     <g id="text_2">
      <!-- 0.5 -->
      <g transform="translate(103.571191 288.832719) scale(0.11 -0.11)">
       <defs>
        <path id="DejaVuSans-35" d="M 691 4666 
L 3169 4666 
L 3169 4134 
L 1269 4134 
L 1269 2991 
Q 1406 3038 1543 3061 
Q 1681 3084 1819 3084 
Q 2600 3084 3056 2656 
Q 3513 2228 3513 1497 
Q 3513 744 3044 326 
Q 2575 -91 1722 -91 
Q 1428 -91 1123 -41 
Q 819 9 494 109 
L 494 744 
Q 775 591 1075 516 
Q 1375 441 1709 441 
Q 2250 441 2565 725 
Q 2881 1009 2881 1497 
Q 2881 1984 2565 2268 
Q 2250 2553 1709 2553 
Q 1456 2553 1204 2497 
Q 953 2441 691 2322 
L 691 4666 
z
" transform="scale(0.015625)"/>
       </defs>
       <use xlink:href="#DejaVuSans-30"/>
       <use xlink:href="#DejaVuSans-2e" transform="translate(63.623047 0)"/>
       <use xlink:href="#DejaVuSans-35" transform="translate(95.410156 0)"/>
      </g>
     </g>
    </g>
    <g id="xtick_3">
     <g id="line2d_4">
      <g>
       <use xlink:href="#mc1f1085479" x="166.156445" y="273.474438" style="stroke: #000000; stroke-width: 0.8"/>
      </g>
     </g>
     <g id="text_3">
      <!-- 1.0 -->
      <g transform="translate(157.409726 288.832719) scale(0.11 -0.11)">
       <defs>
        <path id="DejaVuSans-31" d="M 794 531 
L 1825 531 
L 1825 4091 
L 703 3866 
L 703 4441 
L 1819 4666 
L 2450 4666 
L 2450 531 
L 3481 531 
L 3481 0 
L 794 0 
L 794 531 
z
" transform="scale(0.015625)"/>
       </defs>
       <use xlink:href="#DejaVuSans-31"/>
       <use xlink:href="#DejaVuSans-2e" transform="translate(63.623047 0)"/>
       <use xlink:href="#DejaVuSans-30" transform="translate(95.410156 0)"/>
      </g>
     </g>
    </g>
    <g id="xtick_4">
     <g id="line2d_5">
      <g>
       <use xlink:href="#mc1f1085479" x="219.99498" y="273.474438" style="stroke: #000000; stroke-width: 0.8"/>
      </g>
     </g>
     <g id="text_4">
      <!-- 1.5 -->
      <g transform="translate(211.248261 288.832719) scale(0.11 -0.11)">
       <use xlink:href="#DejaVuSans-31"/>
       <use xlink:href="#DejaVuSans-2e" transform="translate(63.623047 0)"/>
       <use xlink:href="#DejaVuSans-35" transform="translate(95.410156 0)"/>
      </g>
     </g>
    </g>
    <g id="xtick_5">
     <g id="line2d_6">
      <g>
       <use xlink:href="#mc1f1085479" x="273.833515" y="273.474438" style="stroke: #000000; stroke-width: 0.8"/>
      </g>
     </g>
     <g id="text_5">
      <!-- 2.0 -->
      <g transform="translate(265.086796 288.832719) scale(0.11 -0.11)">
       <defs>
        <path id="DejaVuSans-32" d="M 1228 531 
L 3431 531 
L 3431 0 
L 469 0 
L 469 531 
Q 828 903 1448 1529 
Q 2069 2156 2228 2338 
Q 2531 2678 2651 2914 
Q 2772 3150 2772 3378 
Q 2772 3750 2511 3984 
Q 2250 4219 1831 4219 
Q 1534 4219 1204 4116 
Q 875 4013 500 3803 
L 500 4441 
Q 881 4594 1212 4672 
Q 1544 4750 1819 4750 
Q 2544 4750 2975 4387 
Q 3406 4025 3406 3419 
Q 3406 3131 3298 2873 
Q 3191 2616 2906 2266 
Q 2828 2175 2409 1742 
Q 1991 1309 1228 531 
z
" transform="scale(0.015625)"/>
       </defs>
       <use xlink:href="#DejaVuSans-32"/>
       <use xlink:href="#DejaVuSans-2e" transform="translate(63.623047 0)"/>
       <use xlink:href="#DejaVuSans-30" transform="translate(95.410156 0)"/>
      </g>
     </g>
    </g>
    <g id="xtick_6">
     <g id="line2d_7">
      <g>
       <use xlink:href="#mc1f1085479" x="327.67205" y="273.474438" style="stroke: #000000; stroke-width: 0.8"/>
      </g>
     </g>
     <g id="text_6">
      <!-- 2.5 -->
      <g transform="translate(318.925331 288.832719) scale(0.11 -0.11)">
       <use xlink:href="#DejaVuSans-32"/>
       <use xlink:href="#DejaVuSans-2e" transform="translate(63.623047 0)"/>
       <use xlink:href="#DejaVuSans-35" transform="translate(95.410156 0)"/>
      </g>
     </g>
    </g>
    <g id="xtick_7">
     <g id="line2d_8">
      <g>
       <use xlink:href="#mc1f1085479" x="381.510585" y="273.474438" style="stroke: #000000; stroke-width: 0.8"/>
      </g>
     </g>
     <g id="text_7">
      <!-- 3.0 -->
      <g transform="translate(372.763866 288.832719) scale(0.11 -0.11)">
       <defs>
        <path id="DejaVuSans-33" d="M 2597 2516 
Q 3050 2419 3304 2112 
Q 3559 1806 3559 1356 
Q 3559 666 3084 287 
Q 2609 -91 1734 -91 
Q 1441 -91 1130 -33 
Q 819 25 488 141 
L 488 750 
Q 750 597 1062 519 
Q 1375 441 1716 441 
Q 2309 441 2620 675 
Q 2931 909 2931 1356 
Q 2931 1769 2642 2001 
Q 2353 2234 1838 2234 
L 1294 2234 
L 1294 2753 
L 1863 2753 
Q 2328 2753 2575 2939 
Q 2822 3125 2822 3475 
Q 2822 3834 2567 4026 
Q 2313 4219 1838 4219 
Q 1578 4219 1281 4162 
Q 984 4106 628 3988 
L 628 4550 
Q 988 4650 1302 4700 
Q 1616 4750 1894 4750 
Q 2613 4750 3031 4423 
Q 3450 4097 3450 3541 
Q 3450 3153 3228 2886 
Q 3006 2619 2597 2516 
z
" transform="scale(0.015625)"/>
       </defs>
       <use xlink:href="#DejaVuSans-33"/>
       <use xlink:href="#DejaVuSans-2e" transform="translate(63.623047 0)"/>
       <use xlink:href="#DejaVuSans-30" transform="translate(95.410156 0)"/>
      </g>
     </g>
    </g>
    <g id="xtick_8">
     <g id="line2d_9">
      <g>
       <use xlink:href="#mc1f1085479" x="435.34912" y="273.474438" style="stroke: #000000; stroke-width: 0.8"/>
      </g>
     </g>
     <g id="text_8">
      <!-- 3.5 -->
      <g transform="translate(426.602401 288.832719) scale(0.11 -0.11)">
       <use xlink:href="#DejaVuSans-33"/>
       <use xlink:href="#DejaVuSans-2e" transform="translate(63.623047 0)"/>
       <use xlink:href="#DejaVuSans-35" transform="translate(95.410156 0)"/>
      </g>
     </g>
    </g>
    <g id="text_9">
     <!-- Time (s) -->
     <g transform="translate(241.507244 305.758188) scale(0.14 -0.14)">
      <defs>
       <path id="DejaVuSans-Bold-54" d="M 31 4666 
L 4331 4666 
L 4331 3756 
L 2784 3756 
L 2784 0 
L 1581 0 
L 1581 3756 
L 31 3756 
L 31 4666 
z
" transform="scale(0.015625)"/>
       <path id="DejaVuSans-Bold-69" d="M 538 3500 
L 1656 3500 
L 1656 0 
L 538 0 
L 538 3500 
z
M 538 4863 
L 1656 4863 
L 1656 3950 
L 538 3950 
L 538 4863 
z
" transform="scale(0.015625)"/>
       <path id="DejaVuSans-Bold-6d" d="M 3781 2919 
Q 3994 3244 4286 3414 
Q 4578 3584 4928 3584 
Q 5531 3584 5847 3212 
Q 6163 2841 6163 2131 
L 6163 0 
L 5038 0 
L 5038 1825 
Q 5041 1866 5042 1909 
Q 5044 1953 5044 2034 
Q 5044 2406 4934 2573 
Q 4825 2741 4581 2741 
Q 4263 2741 4089 2478 
Q 3916 2216 3909 1719 
L 3909 0 
L 2784 0 
L 2784 1825 
Q 2784 2406 2684 2573 
Q 2584 2741 2328 2741 
Q 2006 2741 1831 2477 
Q 1656 2213 1656 1722 
L 1656 0 
L 531 0 
L 531 3500 
L 1656 3500 
L 1656 2988 
Q 1863 3284 2130 3434 
Q 2397 3584 2719 3584 
Q 3081 3584 3359 3409 
Q 3638 3234 3781 2919 
z
" transform="scale(0.015625)"/>
       <path id="DejaVuSans-Bold-65" d="M 4031 1759 
L 4031 1441 
L 1416 1441 
Q 1456 1047 1700 850 
Q 1944 653 2381 653 
Q 2734 653 3104 758 
Q 3475 863 3866 1075 
L 3866 213 
Q 3469 63 3072 -14 
Q 2675 -91 2278 -91 
Q 1328 -91 801 392 
Q 275 875 275 1747 
Q 275 2603 792 3093 
Q 1309 3584 2216 3584 
Q 3041 3584 3536 3087 
Q 4031 2591 4031 1759 
z
M 2881 2131 
Q 2881 2450 2695 2645 
Q 2509 2841 2209 2841 
Q 1884 2841 1681 2658 
Q 1478 2475 1428 2131 
L 2881 2131 
z
" transform="scale(0.015625)"/>
       <path id="DejaVuSans-Bold-20" transform="scale(0.015625)"/>
       <path id="DejaVuSans-Bold-28" d="M 2413 -844 
L 1484 -844 
Q 1006 -72 778 623 
Q 550 1319 550 2003 
Q 550 2688 779 3389 
Q 1009 4091 1484 4856 
L 2413 4856 
Q 2013 4116 1813 3408 
Q 1613 2700 1613 2009 
Q 1613 1319 1811 609 
Q 2009 -100 2413 -844 
z
" transform="scale(0.015625)"/>
       <path id="DejaVuSans-Bold-73" d="M 3272 3391 
L 3272 2541 
Q 2913 2691 2578 2766 
Q 2244 2841 1947 2841 
Q 1628 2841 1473 2761 
Q 1319 2681 1319 2516 
Q 1319 2381 1436 2309 
Q 1553 2238 1856 2203 
L 2053 2175 
Q 2913 2066 3209 1816 
Q 3506 1566 3506 1031 
Q 3506 472 3093 190 
Q 2681 -91 1863 -91 
Q 1516 -91 1145 -36 
Q 775 19 384 128 
L 384 978 
Q 719 816 1070 734 
Q 1422 653 1784 653 
Q 2113 653 2278 743 
Q 2444 834 2444 1013 
Q 2444 1163 2330 1236 
Q 2216 1309 1875 1350 
L 1678 1375 
Q 931 1469 631 1722 
Q 331 1975 331 2491 
Q 331 3047 712 3315 
Q 1094 3584 1881 3584 
Q 2191 3584 2531 3537 
Q 2872 3491 3272 3391 
z
" transform="scale(0.015625)"/>
       <path id="DejaVuSans-Bold-29" d="M 513 -844 
Q 913 -100 1113 609 
Q 1313 1319 1313 2009 
Q 1313 2700 1113 3408 
Q 913 4116 513 4856 
L 1441 4856 
Q 1916 4091 2145 3389 
Q 2375 2688 2375 2003 
Q 2375 1319 2147 623 
Q 1919 -72 1441 -844 
L 513 -844 
z
" transform="scale(0.015625)"/>
      </defs>
      <use xlink:href="#DejaVuSans-Bold-54"/>
      <use xlink:href="#DejaVuSans-Bold-69" transform="translate(68.212891 0)"/>
      <use xlink:href="#DejaVuSans-Bold-6d" transform="translate(102.490234 0)"/>
      <use xlink:href="#DejaVuSans-Bold-65" transform="translate(206.689453 0)"/>
      <use xlink:href="#DejaVuSans-Bold-20" transform="translate(274.511719 0)"/>
      <use xlink:href="#DejaVuSans-Bold-28" transform="translate(309.326172 0)"/>
      <use xlink:href="#DejaVuSans-Bold-73" transform="translate(355.029297 0)"/>
      <use xlink:href="#DejaVuSans-Bold-29" transform="translate(414.550781 0)"/>
     </g>
    </g>
   </g>
   <g id="matplotlib.axis_2">
    <g id="ytick_1">
     <g id="line2d_10">
      <defs>
       <path id="m028bbe5db3" d="M 0 0 
L -3.5 0 
" style="stroke: #000000; stroke-width: 0.8"/>
      </defs>
      <g>
       <use xlink:href="#m028bbe5db3" x="58.479375" y="257.69902" style="stroke: #000000; stroke-width: 0.8"/>
      </g>
     </g>
     <g id="text_10">
      <!-- $\mathdefault{−1.0}$ -->
      <g transform="translate(24.749375 261.87816) scale(0.11 -0.11)">
       <defs>
        <path id="DejaVuSans-2212" d="M 678 2272 
L 4684 2272 
L 4684 1741 
L 678 1741 
L 678 2272 
z
" transform="scale(0.015625)"/>
       </defs>
       <use xlink:href="#DejaVuSans-2212" transform="translate(0 0.78125)"/>
       <use xlink:href="#DejaVuSans-31" transform="translate(83.789062 0.78125)"/>
       <use xlink:href="#DejaVuSans-2e" transform="translate(147.412109 0.78125)"/>
       <use xlink:href="#DejaVuSans-30" transform="translate(179.199219 0.78125)"/>
      </g>
     </g>
    </g>
    <g id="ytick_2">
     <g id="line2d_11">
      <g>
       <use xlink:href="#m028bbe5db3" x="58.479375" y="201.667729" style="stroke: #000000; stroke-width: 0.8"/>
      </g>
     </g>
     <g id="text_11">
      <!-- $\mathdefault{−0.5}$ -->
      <g transform="translate(24.749375 205.846869) scale(0.11 -0.11)">
       <use xlink:href="#DejaVuSans-2212" transform="translate(0 0.78125)"/>
       <use xlink:href="#DejaVuSans-30" transform="translate(83.789062 0.78125)"/>
       <use xlink:href="#DejaVuSans-2e" transform="translate(147.412109 0.78125)"/>
       <use xlink:href="#DejaVuSans-35" transform="translate(179.199219 0.78125)"/>
      </g>
     </g>
    </g>
    <g id="ytick_3">
     <g id="line2d_12">
      <g>
       <use xlink:href="#m028bbe5db3" x="58.479375" y="145.636437" style="stroke: #000000; stroke-width: 0.8"/>
      </g>
     </g>
     <g id="text_12">
      <!-- $\mathdefault{0.0}$ -->
      <g transform="translate(33.879375 149.815578) scale(0.11 -0.11)">
       <use xlink:href="#DejaVuSans-30" transform="translate(0 0.78125)"/>
       <use xlink:href="#DejaVuSans-2e" transform="translate(63.623047 0.78125)"/>
       <use xlink:href="#DejaVuSans-30" transform="translate(95.410156 0.78125)"/>
      </g>
     </g>
    </g>
    <g id="ytick_4">
     <g id="line2d_13">
      <g>
       <use xlink:href="#m028bbe5db3" x="58.479375" y="89.605146" style="stroke: #000000; stroke-width: 0.8"/>
      </g>
     </g>
     <g id="text_13">
      <!-- $\mathdefault{0.5}$ -->
      <g transform="translate(33.879375 93.784287) scale(0.11 -0.11)">
       <use xlink:href="#DejaVuSans-30" transform="translate(0 0.78125)"/>
       <use xlink:href="#DejaVuSans-2e" transform="translate(63.623047 0.78125)"/>
       <use xlink:href="#DejaVuSans-35" transform="translate(95.410156 0.78125)"/>
      </g>
     </g>
    </g>
    <g id="ytick_5">
     <g id="line2d_14">
      <g>
       <use xlink:href="#m028bbe5db3" x="58.479375" y="33.573855" style="stroke: #000000; stroke-width: 0.8"/>
      </g>
     </g>
     <g id="text_14">
      <!-- $\mathdefault{1.0}$ -->
      <g transform="translate(33.879375 37.752996) scale(0.11 -0.11)">
       <use xlink:href="#DejaVuSans-31" transform="translate(0 0.78125)"/>
       <use xlink:href="#DejaVuSans-2e" transform="translate(63.623047 0.78125)"/>
       <use xlink:href="#DejaVuSans-30" transform="translate(95.410156 0.78125)"/>
      </g>
     </g>
    </g>
    <g id="text_15">
     <!-- I$_{sc}$ (mA/m²) -->
     <g transform="translate(17.837813 188.266437) rotate(-90) scale(0.14 -0.14)">
      <defs>
       <path id="DejaVuSans-Bold-49" d="M 588 4666 
L 1791 4666 
L 1791 0 
L 588 0 
L 588 4666 
z
" transform="scale(0.015625)"/>
       <path id="DejaVuSans-Oblique-73" d="M 3200 3397 
L 3091 2853 
Q 2863 2978 2609 3040 
Q 2356 3103 2088 3103 
Q 1634 3103 1373 2948 
Q 1113 2794 1113 2528 
Q 1113 2219 1719 2053 
Q 1766 2041 1788 2034 
L 1972 1978 
Q 2547 1819 2739 1644 
Q 2931 1469 2931 1166 
Q 2931 609 2489 259 
Q 2047 -91 1331 -91 
Q 1053 -91 747 -37 
Q 441 16 72 128 
L 184 722 
Q 500 559 806 475 
Q 1113 391 1394 391 
Q 1816 391 2080 572 
Q 2344 753 2344 1031 
Q 2344 1331 1650 1516 
L 1591 1531 
L 1394 1581 
Q 956 1697 753 1886 
Q 550 2075 550 2369 
Q 550 2928 970 3256 
Q 1391 3584 2113 3584 
Q 2397 3584 2667 3537 
Q 2938 3491 3200 3397 
z
" transform="scale(0.015625)"/>
       <path id="DejaVuSans-Oblique-63" d="M 3431 3366 
L 3316 2797 
Q 3109 2947 2876 3022 
Q 2644 3097 2394 3097 
Q 2119 3097 1870 3000 
Q 1622 2903 1453 2725 
Q 1184 2453 1037 2087 
Q 891 1722 891 1331 
Q 891 859 1127 628 
Q 1363 397 1844 397 
Q 2081 397 2348 469 
Q 2616 541 2906 684 
L 2797 116 
Q 2547 13 2283 -39 
Q 2019 -91 1741 -91 
Q 1044 -91 669 257 
Q 294 606 294 1253 
Q 294 1797 489 2255 
Q 684 2713 1069 3078 
Q 1331 3328 1684 3456 
Q 2038 3584 2456 3584 
Q 2700 3584 2940 3529 
Q 3181 3475 3431 3366 
z
" transform="scale(0.015625)"/>
       <path id="DejaVuSans-Bold-41" d="M 3419 850 
L 1538 850 
L 1241 0 
L 31 0 
L 1759 4666 
L 3194 4666 
L 4922 0 
L 3713 0 
L 3419 850 
z
M 1838 1716 
L 3116 1716 
L 2478 3572 
L 1838 1716 
z
" transform="scale(0.015625)"/>
       <path id="DejaVuSans-Bold-2f" d="M 1644 4666 
L 2338 4666 
L 691 -594 
L 0 -594 
L 1644 4666 
z
" transform="scale(0.015625)"/>
       <path id="DejaVuSans-Bold-b2" d="M 1288 2613 
L 2444 2613 
L 2444 2088 
L 341 2088 
L 341 2566 
L 1319 3397 
Q 1509 3563 1590 3688 
Q 1672 3813 1672 3938 
Q 1672 4094 1558 4191 
Q 1444 4288 1259 4288 
Q 1066 4288 844 4217 
Q 622 4147 359 4000 
L 359 4581 
Q 631 4666 886 4708 
Q 1141 4750 1375 4750 
Q 1869 4750 2150 4548 
Q 2431 4347 2431 4000 
Q 2431 3775 2320 3586 
Q 2209 3397 1894 3128 
L 1288 2613 
z
" transform="scale(0.015625)"/>
      </defs>
      <use xlink:href="#DejaVuSans-Bold-49" transform="translate(0 0.125)"/>
      <use xlink:href="#DejaVuSans-Oblique-73" transform="translate(38.164062 -16.28125) scale(0.7)"/>
      <use xlink:href="#DejaVuSans-Oblique-63" transform="translate(74.633789 -16.28125) scale(0.7)"/>
      <use xlink:href="#DejaVuSans-Bold-20" transform="translate(115.854492 0.125)"/>
      <use xlink:href="#DejaVuSans-Bold-28" transform="translate(150.668945 0.125)"/>
      <use xlink:href="#DejaVuSans-Bold-6d" transform="translate(196.37207 0.125)"/>
      <use xlink:href="#DejaVuSans-Bold-41" transform="translate(300.571289 0.125)"/>
      <use xlink:href="#DejaVuSans-Bold-2f" transform="translate(377.963867 0.125)"/>
      <use xlink:href="#DejaVuSans-Bold-6d" transform="translate(414.487305 0.125)"/>
      <use xlink:href="#DejaVuSans-Bold-b2" transform="translate(518.686523 0.125)"/>
      <use xlink:href="#DejaVuSans-Bold-29" transform="translate(562.485352 0.125)"/>
     </g>
    </g>
    <g id="text_16">
     <!-- $\times\mathdefault{10^{−3}}\mathdefault{}$ -->
     <g transform="translate(58.479375 14.798437) scale(0.1 -0.1)">
      <defs>
       <path id="DejaVuSans-d7" d="M 4488 3438 
L 3059 2003 
L 4488 575 
L 4116 197 
L 2681 1631 
L 1247 197 
L 878 575 
L 2303 2003 
L 878 3438 
L 1247 3816 
L 2681 2381 
L 4116 3816 
L 4488 3438 
z
" transform="scale(0.015625)"/>
      </defs>
      <use xlink:href="#DejaVuSans-d7" transform="translate(0 0.765625)"/>
      <use xlink:href="#DejaVuSans-31" transform="translate(83.789062 0.765625)"/>
      <use xlink:href="#DejaVuSans-30" transform="translate(147.412109 0.765625)"/>
      <use xlink:href="#DejaVuSans-2212" transform="translate(211.992188 39.046875) scale(0.7)"/>
      <use xlink:href="#DejaVuSans-33" transform="translate(270.644531 39.046875) scale(0.7)"/>
     </g>
    </g>
   </g>
   <g id="patch_5">
    <path d="M 58.479375 273.474438 
L 58.479375 17.798437 
" style="fill: none; stroke: #000000; stroke-width: 0.8; stroke-linejoin: miter; stroke-linecap: square"/>
   </g>
   <g id="patch_6">
    <path d="M 58.479375 273.474438 
L 488.972301 273.474438 
" style="fill: none; stroke: #000000; stroke-width: 0.8; stroke-linejoin: miter; stroke-linecap: square"/>
   </g>
   <g id="line2d_15">
    <path d="M 58.479375 143.959254 
L 58.587052 143.959254 
L 58.694729 144.139713 
L 58.802406 143.778795 
L 59.01776 144.139713 
L 59.125437 144.229942 
L 59.233114 144.139713 
L 59.340792 144.320171 
L 59.556146 143.959254 
L 59.663823 143.959254 
L 59.7715 144.139713 
L 59.879177 143.959254 
L 60.094531 144.049483 
L 60.202208 143.959254 
L 60.309885 144.049483 
L 60.417562 143.959254 
L 60.525239 143.688566 
L 60.740593 144.139713 
L 60.955948 144.049483 
L 61.063625 144.049483 
L 61.171302 144.320171 
L 61.386656 144.049483 
L 61.60201 143.959254 
L 61.709687 143.598337 
L 61.817364 143.688566 
L 61.925041 143.598337 
L 62.032718 143.688566 
L 62.140395 143.598337 
L 62.248072 144.139713 
L 62.571104 143.869025 
L 62.894135 144.590859 
L 63.109489 144.139713 
L 63.217166 143.959254 
L 63.324843 144.229942 
L 63.540197 143.959254 
L 63.647874 143.959254 
L 63.755551 143.508107 
L 63.970906 143.869025 
L 64.078583 143.959254 
L 64.18626 144.410401 
L 64.293937 144.229942 
L 64.401614 144.50063 
L 64.509291 144.320171 
L 64.724645 144.590859 
L 64.939999 143.869025 
L 65.047676 144.410401 
L 65.155353 144.139713 
L 65.26303 144.771318 
L 65.370707 144.410401 
L 65.478385 144.771318 
L 65.801416 144.410401 
L 66.232124 145.493153 
L 66.339801 145.132236 
L 66.447478 145.312695 
L 66.555155 145.222465 
L 66.662832 145.493153 
L 66.985864 144.951777 
L 67.201218 145.673612 
L 67.308895 145.312695 
L 67.524249 145.493153 
L 67.739603 145.222465 
L 67.954957 145.854071 
L 68.062634 145.673612 
L 68.277988 145.763841 
L 68.493343 145.854071 
L 68.60102 145.9443 
L 68.816374 145.583383 
L 68.924051 145.493153 
L 69.139405 146.034529 
L 69.247082 146.124759 
L 69.462436 145.854071 
L 69.785467 146.756364 
L 69.893144 146.846594 
L 70.108499 146.485676 
L 70.43153 146.666135 
L 70.539207 146.575905 
L 70.646884 146.846594 
L 70.754561 146.756364 
L 70.969915 147.29774 
L 71.077592 147.207511 
L 71.292946 147.117282 
L 71.723655 148.200034 
L 71.831332 147.929346 
L 72.046686 148.290264 
L 72.154363 148.200034 
L 72.369717 148.470722 
L 72.477394 148.470722 
L 72.585071 148.921869 
L 72.692748 148.831639 
L 72.908102 148.921869 
L 73.015779 149.282786 
L 73.123457 149.102329 
L 73.446488 150.18508 
L 73.769519 150.545997 
L 73.984873 150.906914 
L 74.09255 150.997144 
L 74.307904 151.538522 
L 74.523258 151.628749 
L 75.061644 153.252877 
L 75.169321 153.252877 
L 75.384675 154.245402 
L 75.492352 154.155172 
L 75.707706 154.786779 
L 76.569123 157.854576 
L 78.399633 169.223473 
L 79.045695 176.712512 
L 80.014789 190.156688 
L 80.768528 206.037049 
L 82.16833 236.805231 
L 82.491362 241.136254 
L 82.706716 241.858077 
L 82.92207 241.046016 
L 83.245101 236.173647 
L 83.891164 218.308238 
L 84.860257 180.321684 
L 85.721674 116.619765 
L 86.152382 103.716963 
L 86.690767 94.513544 
L 87.121476 89.190011 
L 88.090569 75.655596 
L 88.305923 74.031473 
L 88.628955 73.30965 
L 88.736632 73.399888 
L 89.059663 74.753324 
L 90.674819 92.077359 
L 92.289975 109.852558 
L 93.797454 122.033517 
L 93.905131 122.304204 
L 94.335839 124.920857 
L 94.443516 125.191544 
L 94.981902 128.078884 
L 95.735641 130.875997 
L 95.843318 131.056454 
L 96.058672 131.868518 
L 96.166349 131.958748 
L 96.489381 133.22196 
L 96.597058 133.402417 
L 96.704735 134.034024 
L 96.812412 133.853564 
L 97.027766 134.665628 
L 97.458474 135.83861 
L 97.889183 136.19953 
L 98.104537 136.560447 
L 98.212214 136.740904 
L 98.427568 137.192051 
L 98.535245 137.282281 
L 98.965953 138.635723 
L 99.07363 138.094346 
L 99.288985 138.455263 
L 99.504339 138.90641 
L 99.612016 138.81618 
L 99.719693 138.99664 
L 99.82737 138.81618 
L 100.042724 139.447787 
L 100.258078 139.989161 
L 100.365755 139.898931 
L 100.473432 139.808704 
L 100.581109 140.350078 
L 100.688786 139.989161 
L 100.796464 140.169621 
L 100.904141 139.989161 
L 101.011818 140.169621 
L 101.227172 139.989161 
L 101.442526 140.350078 
L 101.550203 140.169621 
L 101.65788 140.530538 
L 101.765557 140.079391 
L 101.980911 140.620768 
L 102.088588 140.801226 
L 102.196265 140.710996 
L 102.519297 141.071916 
L 102.626974 140.891456 
L 103.057682 141.162143 
L 103.273036 141.071916 
L 103.380713 141.071916 
L 103.48839 140.801226 
L 103.596067 141.342603 
L 103.703744 141.071916 
L 103.811421 141.342603 
L 103.919099 141.162143 
L 104.026776 141.432833 
L 104.134453 141.342603 
L 104.24213 141.432833 
L 104.349807 141.88398 
L 104.565161 141.79375 
L 104.995869 141.70352 
L 105.103546 141.432833 
L 105.426578 142.244897 
L 105.534255 142.425354 
L 105.641932 141.974207 
L 105.749609 142.605814 
L 105.857286 142.515584 
L 106.180317 142.876502 
L 106.287994 142.696044 
L 106.611025 142.876502 
L 106.718702 142.876502 
L 106.934056 142.605814 
L 107.257088 142.696044 
L 107.472442 142.876502 
L 107.580119 142.696044 
L 107.687796 143.05696 
L 107.795473 142.876502 
L 107.90315 142.966731 
L 108.118504 142.876502 
L 108.333858 142.966731 
L 108.441535 142.966731 
L 108.65689 142.425354 
L 108.764567 142.515584 
L 108.872244 143.14719 
L 109.087598 142.966731 
L 109.302952 143.237419 
L 109.410629 143.14719 
L 109.518306 142.696044 
L 109.841337 143.14719 
L 110.056692 142.786271 
L 110.164369 142.696044 
L 110.272046 142.786271 
L 110.4874 142.605814 
L 110.595077 142.605814 
L 110.702754 142.335124 
L 110.810431 142.876502 
L 110.918108 142.786271 
L 111.241139 143.14719 
L 111.348816 143.14719 
L 111.456493 142.966731 
L 111.564171 143.14719 
L 112.102556 142.786271 
L 112.640941 142.786271 
L 112.748618 142.966731 
L 112.963972 142.786271 
L 113.071649 142.696044 
L 113.179327 142.786271 
L 113.287004 142.515584 
L 113.394681 142.696044 
L 113.717712 142.335124 
L 114.14842 141.79375 
L 114.256097 141.70352 
L 114.363774 141.79375 
L 114.471451 142.244897 
L 114.579128 142.064437 
L 114.794483 142.515584 
L 115.117514 142.335124 
L 115.332868 142.696044 
L 115.548222 142.515584 
L 115.97893 142.515584 
L 116.194285 142.876502 
L 116.301962 142.786271 
L 116.409639 142.876502 
L 116.517316 143.237419 
L 116.624993 143.05696 
L 116.840347 143.327649 
L 117.055701 142.966731 
L 117.271055 143.05696 
L 117.378732 142.966731 
L 117.486409 143.14719 
L 117.809441 142.696044 
L 118.024795 143.14719 
L 118.132472 143.14719 
L 118.240149 142.966731 
L 118.347826 143.14719 
L 118.455503 142.966731 
L 118.670857 143.237419 
L 118.778534 143.05696 
L 118.886211 143.14719 
L 118.993888 142.966731 
L 119.424597 143.327649 
L 119.639951 142.786271 
L 119.855305 143.327649 
L 120.070659 143.417878 
L 120.286013 143.327649 
L 120.39369 143.327649 
L 120.501367 143.508107 
L 120.716721 143.237419 
L 120.824399 143.417878 
L 120.932076 143.14719 
L 121.039753 143.327649 
L 121.14743 143.237419 
L 121.255107 143.688566 
L 121.470461 143.327649 
L 121.578138 143.417878 
L 121.793492 143.778795 
L 121.901169 143.237419 
L 122.116523 143.508107 
L 122.331877 143.237419 
L 122.654909 143.508107 
L 122.97794 143.14719 
L 123.516325 143.869025 
L 123.624002 143.959254 
L 123.731679 144.229942 
L 124.054711 144.049483 
L 124.270065 144.139713 
L 124.377742 143.869025 
L 124.593096 144.049483 
L 124.80845 144.229942 
L 124.916127 144.139713 
L 125.131481 144.320171 
L 125.454513 144.590859 
L 125.56219 144.50063 
L 125.777544 144.771318 
L 125.885221 144.50063 
L 126.315929 144.771318 
L 126.423606 144.771318 
L 126.531283 144.590859 
L 126.746637 144.951777 
L 126.961992 144.861548 
L 127.608054 145.312695 
L 128.146439 144.951777 
L 128.254116 145.042006 
L 128.46947 144.771318 
L 128.577148 145.042006 
L 128.684825 144.951777 
L 128.900179 145.312695 
L 129.007856 145.222465 
L 129.22321 145.312695 
L 129.330887 145.312695 
L 129.438564 145.042006 
L 129.546241 145.402924 
L 129.761595 145.042006 
L 129.869272 145.132236 
L 130.084627 145.042006 
L 130.407658 145.132236 
L 130.623012 145.402924 
L 131.915137 145.312695 
L 132.130491 145.132236 
L 132.561199 145.493153 
L 132.668876 145.402924 
L 132.991907 145.673612 
L 133.099584 145.583383 
L 133.207262 145.222465 
L 133.422616 145.402924 
L 133.63797 145.222465 
L 133.853324 145.042006 
L 133.961001 145.132236 
L 134.068678 145.042006 
L 134.284032 145.583383 
L 134.391709 145.402924 
L 134.714741 145.402924 
L 134.822418 145.583383 
L 135.145449 145.132236 
L 135.46848 145.042006 
L 135.683834 144.861548 
L 135.791511 144.951777 
L 136.114542 145.493153 
L 136.329897 145.402924 
L 136.545251 145.583383 
L 136.868282 145.493153 
L 137.083636 145.402924 
L 137.622021 145.402924 
L 137.729699 145.763841 
L 137.837376 145.583383 
L 137.945053 145.763841 
L 138.05273 145.583383 
L 138.268084 145.9443 
L 138.698792 145.673612 
L 139.560209 145.673612 
L 139.667886 145.854071 
L 139.775563 145.763841 
L 140.206271 146.034529 
L 140.421625 145.673612 
L 140.744656 145.312695 
L 141.283042 145.312695 
L 141.390719 145.132236 
L 141.606073 145.493153 
L 141.929104 145.673612 
L 142.252135 145.673612 
L 142.46749 145.222465 
L 142.575167 145.402924 
L 142.898198 145.222465 
L 143.005875 145.312695 
L 143.113552 145.042006 
L 143.328906 145.402924 
L 143.759614 145.763841 
L 143.974969 145.402924 
L 144.190323 144.951777 
L 144.298 145.222465 
L 144.405677 144.771318 
L 144.728708 145.042006 
L 144.836385 144.951777 
L 144.944062 144.681089 
L 145.267093 145.042006 
L 145.37477 145.132236 
L 145.482448 145.042006 
L 145.590125 145.132236 
L 145.805479 144.771318 
L 146.236187 144.50063 
L 146.343864 144.590859 
L 146.559218 144.410401 
L 146.774572 144.681089 
L 147.097604 144.590859 
L 147.205281 144.861548 
L 147.420635 144.681089 
L 147.528312 144.861548 
L 147.743666 144.590859 
L 148.174374 144.229942 
L 148.282051 144.410401 
L 148.389728 144.320171 
L 148.497406 144.410401 
L 148.605083 144.771318 
L 148.820437 144.590859 
L 149.251145 144.50063 
L 149.358822 144.861548 
L 149.574176 144.229942 
L 149.681853 144.50063 
L 149.78953 144.229942 
L 149.897207 144.320171 
L 150.004884 144.229942 
L 150.112562 144.410401 
L 150.327916 144.229942 
L 150.54327 144.410401 
L 150.650947 144.229942 
L 150.973978 144.681089 
L 151.189332 144.229942 
L 151.297009 144.229942 
L 151.404686 144.50063 
L 151.620041 143.959254 
L 151.727718 144.229942 
L 151.835395 144.049483 
L 151.943072 144.139713 
L 152.050749 143.959254 
L 152.158426 144.049483 
L 152.266103 143.959254 
L 152.481457 144.139713 
L 152.589134 144.229942 
L 152.696811 144.590859 
L 152.912165 144.049483 
L 153.019842 144.229942 
L 153.665905 143.778795 
L 153.881259 144.229942 
L 154.20429 144.229942 
L 154.311967 144.50063 
L 154.419644 144.410401 
L 154.527321 144.861548 
L 154.634998 144.771318 
L 154.742676 144.320171 
L 154.850353 144.681089 
L 155.065707 144.590859 
L 155.173384 143.959254 
L 155.388738 144.50063 
L 155.496415 144.229942 
L 155.604092 144.50063 
L 155.711769 144.320171 
L 155.819446 144.410401 
L 155.927123 144.861548 
L 156.250155 144.410401 
L 156.465509 144.861548 
L 156.680863 144.139713 
L 156.78854 144.590859 
L 156.896217 144.50063 
L 157.003894 144.229942 
L 157.219248 144.590859 
L 157.434602 144.229942 
L 157.542279 144.320171 
L 157.649956 144.681089 
L 157.757634 144.590859 
L 157.865311 144.771318 
L 157.972988 144.681089 
L 158.080665 144.410401 
L 158.296019 144.951777 
L 158.726727 144.590859 
L 158.942081 144.320171 
L 159.049758 144.229942 
L 159.37279 144.681089 
L 159.480467 144.410401 
L 159.588144 144.50063 
L 159.803498 144.861548 
L 160.018852 144.771318 
L 160.126529 144.320171 
L 160.341883 144.410401 
L 160.880269 144.50063 
L 160.987946 144.590859 
L 161.095623 144.861548 
L 161.2033 144.771318 
L 161.310977 145.042006 
L 161.418654 144.951777 
L 161.741685 145.132236 
L 161.849362 144.951777 
L 161.957039 145.132236 
L 162.064716 145.042006 
L 162.172393 144.681089 
L 162.28007 144.771318 
L 162.387748 144.410401 
L 162.818456 145.042006 
L 162.926133 144.951777 
L 163.141487 144.590859 
L 163.249164 145.222465 
L 163.356841 144.681089 
L 163.464518 144.951777 
L 163.572195 144.861548 
L 163.679872 144.951777 
L 163.895227 144.771318 
L 164.002904 145.042006 
L 164.110581 144.951777 
L 164.218258 145.042006 
L 164.541289 144.861548 
L 164.756643 145.402924 
L 164.86432 145.493153 
L 164.971997 145.402924 
L 165.187351 145.854071 
L 165.402705 145.673612 
L 165.510383 145.763841 
L 165.61806 145.673612 
L 165.725737 145.9443 
L 165.833414 145.763841 
L 165.941091 145.854071 
L 166.156445 146.214988 
L 166.264122 145.402924 
L 166.371799 145.9443 
L 166.479476 145.854071 
L 166.587153 146.214988 
L 166.69483 146.124759 
L 166.802507 146.575905 
L 166.910184 146.395447 
L 167.125539 146.756364 
L 167.233216 146.395447 
L 167.340893 146.485676 
L 167.44857 146.395447 
L 167.556247 146.936823 
L 167.663924 146.395447 
L 167.771601 147.027052 
L 168.094632 146.575905 
L 168.309986 147.027052 
L 168.417663 146.756364 
L 168.848372 147.29774 
L 168.956049 147.027052 
L 169.063726 147.207511 
L 169.171403 146.936823 
L 169.386757 147.478199 
L 169.494434 147.568429 
L 169.709788 147.478199 
L 170.032819 147.839117 
L 170.355851 148.290264 
L 170.463528 148.290264 
L 170.786559 148.741411 
L 171.001913 148.831639 
L 171.10959 149.012099 
L 171.217267 148.921869 
L 171.647976 149.192556 
L 171.86333 149.643703 
L 172.509392 151.177604 
L 172.617069 151.177604 
L 173.370809 152.350586 
L 173.69384 153.523567 
L 174.016871 154.064942 
L 174.232225 154.967236 
L 174.447579 155.237923 
L 174.662934 156.140217 
L 174.878288 156.591365 
L 176.601121 165.704529 
L 177.139506 170.035538 
L 178.216277 182.938345 
L 178.970016 195.209534 
L 179.93911 217.586386 
L 180.692849 233.015611 
L 181.338912 242.128764 
L 181.554266 242.940826 
L 181.661943 242.579928 
L 181.984974 237.978218 
L 182.415683 227.331153 
L 183.492453 187.449788 
L 184.138516 135.477693 
L 184.569224 111.747368 
L 184.999932 100.017553 
L 185.538318 91.175059 
L 186.830442 75.926311 
L 187.153474 73.851024 
L 187.368828 73.490099 
L 187.476505 73.580337 
L 187.799536 74.843535 
L 188.76863 84.768778 
L 191.137525 111.296232 
L 192.537327 122.304204 
L 193.829452 129.251868 
L 194.475514 131.507601 
L 194.690869 132.048978 
L 195.0139 133.13173 
L 195.767639 135.477693 
L 195.875316 135.477693 
L 196.09067 136.289757 
L 196.198348 136.379987 
L 196.306025 136.19953 
L 196.521379 136.740904 
L 197.167441 138.094346 
L 197.490472 138.72595 
L 197.705826 139.086867 
L 197.813504 138.72595 
L 198.028858 139.357557 
L 198.136535 139.267327 
L 198.351889 139.538014 
L 198.67492 140.169621 
L 198.782597 139.989161 
L 199.105628 140.801226 
L 199.320983 140.981686 
L 199.536337 140.891456 
L 199.644014 140.710996 
L 199.859368 140.981686 
L 199.967045 141.162143 
L 200.074722 141.071916 
L 200.182399 141.252373 
L 200.290076 141.071916 
L 200.397753 141.342603 
L 200.50543 141.252373 
L 200.613107 140.981686 
L 200.936139 141.52306 
L 201.043816 141.342603 
L 201.151493 141.61329 
L 201.25917 141.52306 
L 201.366847 141.61329 
L 201.474524 141.974207 
L 201.582201 141.52306 
L 201.797555 141.61329 
L 201.905232 141.162143 
L 202.120586 141.70352 
L 202.33594 141.432833 
L 202.551295 142.154667 
L 202.658972 142.244897 
L 202.766649 142.154667 
L 202.982003 142.335124 
L 203.08968 142.064437 
L 203.197357 142.425354 
L 203.305034 142.335124 
L 203.628065 142.515584 
L 203.843419 142.244897 
L 204.058774 142.605814 
L 204.381805 142.786271 
L 204.704836 143.508107 
L 204.812513 143.327649 
L 204.92019 143.417878 
L 205.027867 143.237419 
L 205.243221 143.688566 
L 205.350898 143.417878 
L 205.566253 143.598337 
L 205.67393 143.327649 
L 205.781607 143.508107 
L 205.889284 143.417878 
L 206.104638 143.688566 
L 206.427669 143.508107 
L 206.7507 143.869025 
L 206.966055 143.237419 
L 207.181409 143.688566 
L 207.289086 143.598337 
L 207.50444 143.869025 
L 207.612117 143.688566 
L 207.827471 143.959254 
L 208.042825 144.139713 
L 208.150502 144.049483 
L 208.258179 144.229942 
L 208.473533 143.959254 
L 208.581211 143.959254 
L 208.796565 143.598337 
L 208.904242 143.598337 
L 209.119596 143.237419 
L 210.08869 143.959254 
L 210.196367 143.869025 
L 210.304044 144.139713 
L 210.519398 143.959254 
L 210.627075 144.139713 
L 210.842429 144.049483 
L 210.950106 143.598337 
L 211.16546 144.139713 
L 211.380814 143.688566 
L 211.488491 143.778795 
L 211.596169 143.959254 
L 211.703846 143.688566 
L 211.9192 143.869025 
L 212.026877 143.778795 
L 212.242231 143.237419 
L 212.457585 143.14719 
L 212.565262 142.966731 
L 212.672939 143.05696 
L 212.888293 142.966731 
L 213.103647 143.14719 
L 213.211325 143.05696 
L 213.319002 143.14719 
L 213.426679 142.786271 
L 213.74971 143.327649 
L 213.857387 143.417878 
L 213.965064 143.237419 
L 214.072741 143.417878 
L 214.180418 143.14719 
L 214.288095 143.237419 
L 214.395772 143.598337 
L 214.503449 143.417878 
L 214.611126 143.508107 
L 214.718804 143.778795 
L 214.934158 143.508107 
L 215.041835 143.869025 
L 215.149512 143.778795 
L 215.257189 144.139713 
L 215.472543 143.688566 
L 215.687897 144.229942 
L 215.903251 144.229942 
L 216.010928 143.778795 
L 216.118605 144.139713 
L 216.33396 143.688566 
L 216.656991 143.959254 
L 216.764668 143.778795 
L 216.980022 144.229942 
L 217.087699 143.959254 
L 217.195376 144.139713 
L 217.303053 143.778795 
L 217.626084 144.320171 
L 218.056793 143.778795 
L 218.16447 143.688566 
L 218.379824 143.869025 
L 218.487501 143.688566 
L 219.025886 144.410401 
L 219.133563 144.139713 
L 219.24124 144.410401 
L 219.456595 144.139713 
L 219.671949 143.869025 
L 219.779626 144.139713 
L 219.99498 143.959254 
L 220.102657 143.959254 
L 220.210334 144.320171 
L 220.318011 144.139713 
L 220.533365 144.320171 
L 220.641042 144.139713 
L 220.964074 144.320171 
L 221.071751 144.229942 
L 221.179428 144.320171 
L 221.394782 144.049483 
L 221.502459 144.229942 
L 221.717813 143.959254 
L 221.933167 144.139713 
L 222.148521 144.410401 
L 222.57923 145.042006 
L 222.902261 144.771318 
L 223.009938 144.951777 
L 223.117615 144.50063 
L 223.332969 144.771318 
L 223.548323 144.681089 
L 223.763677 144.771318 
L 223.979032 145.222465 
L 224.086709 145.042006 
L 224.194386 145.402924 
L 224.40974 145.222465 
L 224.625094 145.493153 
L 224.840448 145.132236 
L 225.378833 145.493153 
L 225.701865 145.493153 
L 225.917219 145.854071 
L 226.024896 145.673612 
L 226.132573 145.854071 
L 226.347927 145.583383 
L 226.99399 145.493153 
L 227.209344 145.402924 
L 227.317021 145.402924 
L 227.640052 145.763841 
L 227.855406 145.9443 
L 228.07076 145.763841 
L 228.178437 145.854071 
L 228.501468 145.493153 
L 228.716823 145.583383 
L 228.8245 145.493153 
L 228.932177 145.673612 
L 229.039854 145.493153 
L 229.793593 146.034529 
L 230.008947 145.763841 
L 230.116625 145.9443 
L 230.224302 145.854071 
L 230.331979 145.9443 
L 230.547333 145.673612 
L 230.870364 145.673612 
L 230.978041 145.9443 
L 231.085718 145.854071 
L 231.301072 146.034529 
L 231.516426 145.9443 
L 231.731781 146.034529 
L 231.839458 145.854071 
L 231.947135 145.9443 
L 232.162489 145.673612 
L 232.270166 145.854071 
L 232.593197 145.493153 
L 232.916228 145.583383 
L 233.131583 146.034529 
L 233.23926 145.9443 
L 233.346937 146.124759 
L 233.669968 145.9443 
L 233.777645 145.9443 
L 233.885322 145.673612 
L 234.100676 145.763841 
L 234.208353 145.493153 
L 234.31603 145.583383 
L 234.423707 145.402924 
L 234.639061 145.673612 
L 234.854416 145.673612 
L 234.962093 146.124759 
L 235.177447 145.9443 
L 235.392801 146.034529 
L 235.500478 145.9443 
L 235.608155 146.034529 
L 235.823509 145.854071 
L 236.254218 145.854071 
L 236.469572 146.305217 
L 236.577249 146.214988 
L 236.792603 146.124759 
L 237.115634 146.395447 
L 237.546342 146.124759 
L 237.869374 146.124759 
L 237.977051 145.9443 
L 238.192405 146.305217 
L 238.300082 146.395447 
L 238.407759 146.214988 
L 238.515436 146.305217 
L 238.623113 146.214988 
L 238.838467 146.305217 
L 238.946144 146.214988 
L 239.053821 146.305217 
L 239.269175 146.124759 
L 239.48453 145.9443 
L 239.592207 146.034529 
L 239.807561 145.9443 
L 239.915238 145.9443 
L 240.022915 146.395447 
L 240.238269 146.034529 
L 240.884332 146.485676 
L 241.422717 145.673612 
L 242.068779 146.214988 
L 242.176456 146.124759 
L 242.391811 146.305217 
L 242.499488 146.214988 
L 242.714842 146.485676 
L 242.930196 146.214988 
L 243.037873 146.034529 
L 243.14555 145.493153 
L 243.253227 145.9443 
L 243.468581 145.402924 
L 243.683935 145.854071 
L 243.791612 145.673612 
L 244.006967 145.9443 
L 244.222321 145.673612 
L 244.329998 146.305217 
L 244.437675 145.763841 
L 244.653029 145.854071 
L 244.760706 145.312695 
L 244.97606 145.493153 
L 245.083737 146.124759 
L 245.299091 145.402924 
L 245.406768 145.312695 
L 245.514446 145.402924 
L 245.7298 145.673612 
L 245.837477 145.854071 
L 245.945154 145.763841 
L 246.160508 146.034529 
L 246.483539 145.312695 
L 246.698893 146.124759 
L 246.80657 145.042006 
L 247.021925 145.312695 
L 247.129602 145.493153 
L 247.237279 145.402924 
L 247.344956 145.854071 
L 247.452633 145.673612 
L 247.56031 145.854071 
L 247.667987 145.583383 
L 247.883341 145.854071 
L 247.991018 145.763841 
L 248.098695 146.034529 
L 248.206372 145.042006 
L 248.421726 145.9443 
L 248.637081 145.222465 
L 248.852435 145.673612 
L 249.067789 146.034529 
L 249.175466 145.673612 
L 249.39082 145.9443 
L 249.606174 145.763841 
L 249.713851 145.402924 
L 249.821528 146.034529 
L 250.036882 145.312695 
L 250.14456 145.673612 
L 250.575268 145.132236 
L 250.790622 145.493153 
L 250.898299 145.222465 
L 251.113653 145.493153 
L 251.329007 145.222465 
L 251.544361 145.854071 
L 251.652039 145.673612 
L 251.759716 144.951777 
L 251.867393 145.493153 
L 251.97507 145.402924 
L 252.082747 144.771318 
L 252.190424 144.861548 
L 252.298101 146.034529 
L 252.405778 145.042006 
L 252.728809 145.763841 
L 252.836486 145.673612 
L 252.944163 145.763841 
L 253.05184 146.124759 
L 253.159518 145.854071 
L 253.482549 146.124759 
L 253.590226 146.034529 
L 253.697903 145.673612 
L 253.80558 145.9443 
L 254.020934 145.583383 
L 254.128611 145.583383 
L 254.236288 145.9443 
L 254.343965 145.583383 
L 254.774674 146.395447 
L 254.882351 146.305217 
L 254.990028 145.9443 
L 255.097705 146.124759 
L 255.205382 146.034529 
L 255.313059 146.846594 
L 255.528413 145.854071 
L 255.63609 146.034529 
L 255.743767 146.124759 
L 255.851444 145.673612 
L 255.959121 146.214988 
L 256.066798 145.9443 
L 256.282153 146.124759 
L 256.497507 145.854071 
L 256.605184 146.214988 
L 256.820538 145.854071 
L 256.928215 146.305217 
L 257.143569 146.034529 
L 257.251246 146.666135 
L 257.574277 145.763841 
L 257.789632 146.034529 
L 257.897309 146.575905 
L 258.004986 146.305217 
L 258.22034 145.673612 
L 258.328017 146.305217 
L 258.543371 146.124759 
L 258.651048 146.214988 
L 259.189433 145.493153 
L 259.404788 146.305217 
L 259.620142 145.9443 
L 259.943173 146.485676 
L 260.05085 146.214988 
L 260.158527 146.485676 
L 260.481558 146.124759 
L 260.589235 146.305217 
L 260.696912 146.756364 
L 260.912267 146.124759 
L 261.019944 146.305217 
L 261.342975 145.763841 
L 261.450652 144.681089 
L 261.666006 146.214988 
L 261.88136 146.034529 
L 262.204391 146.485676 
L 262.419746 146.034529 
L 262.527423 146.214988 
L 262.6351 146.124759 
L 262.742777 146.214988 
L 262.850454 145.9443 
L 262.958131 146.124759 
L 263.065808 146.666135 
L 263.173485 146.395447 
L 263.281162 146.485676 
L 263.388839 147.027052 
L 263.496516 146.846594 
L 263.819547 147.748887 
L 263.927225 147.38797 
L 264.034902 147.748887 
L 264.46561 146.846594 
L 264.573287 147.29774 
L 264.680964 147.207511 
L 264.788641 147.38797 
L 265.003995 146.936823 
L 265.111672 147.38797 
L 265.219349 147.027052 
L 265.327026 147.929346 
L 265.542381 147.478199 
L 265.757735 148.109805 
L 265.973089 147.748887 
L 266.080766 147.839117 
L 266.188443 148.200034 
L 266.511474 147.478199 
L 266.619151 147.929346 
L 266.726828 147.478199 
L 266.834505 147.748887 
L 266.942182 147.658658 
L 267.157537 148.109805 
L 267.372891 148.290264 
L 267.588245 148.200034 
L 267.803599 148.290264 
L 267.911276 148.200034 
L 268.018953 148.380493 
L 268.234307 148.290264 
L 268.557339 148.651182 
L 268.665016 148.651182 
L 268.988047 149.373016 
L 269.095724 149.373016 
L 269.311078 150.09485 
L 269.526432 150.00462 
L 269.95714 150.00462 
L 270.172495 150.36554 
L 270.387849 150.455767 
L 270.603203 150.997144 
L 270.71088 151.087374 
L 271.033911 151.899439 
L 271.356942 152.350586 
L 271.572296 152.440813 
L 271.679974 152.531043 
L 271.895328 152.89196 
L 272.003005 152.98219 
L 272.326036 154.155172 
L 272.433713 154.245402 
L 273.402807 157.222969 
L 273.510484 157.222969 
L 273.725838 157.944806 
L 273.725838 157.944806 
" clip-path="url(#p3abad7e483)" style="fill: none; stroke: #333333; stroke-width: 0.8; stroke-linecap: square"/>
   </g>
   <g id="line2d_16">
    <path d="M 273.725838 137.733428 
L 274.048869 138.455263 
L 274.156546 138.455263 
L 274.264223 138.90641 
L 274.3719 138.81618 
L 274.479577 138.90641 
L 274.587254 139.267327 
L 274.694932 139.177097 
L 275.12564 139.447787 
L 275.233317 139.447787 
L 275.448671 139.718474 
L 276.310088 141.071916 
L 276.525442 140.891456 
L 276.633119 140.981686 
L 276.740796 141.252373 
L 276.95615 141.162143 
L 277.386858 141.61329 
L 277.494535 142.064437 
L 277.602212 141.79375 
L 277.817567 142.154667 
L 277.925244 142.154667 
L 278.032921 142.425354 
L 278.248275 142.335124 
L 278.355952 142.515584 
L 278.463629 142.154667 
L 278.678983 142.515584 
L 278.78666 142.425354 
L 279.002014 142.515584 
L 279.109691 142.515584 
L 279.325046 142.966731 
L 279.755754 143.05696 
L 279.863431 143.237419 
L 280.186462 142.876502 
L 280.294139 143.14719 
L 280.401816 142.966731 
L 280.61717 143.237419 
L 280.832525 143.05696 
L 280.940202 143.327649 
L 281.047879 143.237419 
L 281.263233 143.508107 
L 281.37091 143.508107 
L 281.478587 143.688566 
L 281.586264 143.508107 
L 281.693941 143.688566 
L 282.124649 143.417878 
L 282.232326 143.508107 
L 282.555358 143.327649 
L 283.20142 144.229942 
L 283.309097 144.049483 
L 283.524451 144.320171 
L 283.739805 144.049483 
L 283.847482 144.229942 
L 284.062837 143.959254 
L 284.170514 144.049483 
L 284.385868 143.959254 
L 284.493545 144.320171 
L 284.601222 144.229942 
L 284.708899 144.320171 
L 284.924253 144.590859 
L 285.03193 144.771318 
L 285.247284 144.590859 
L 285.354961 144.681089 
L 285.893347 144.229942 
L 286.001024 144.410401 
L 286.108701 144.229942 
L 286.324055 144.590859 
L 286.431732 144.229942 
L 286.647086 144.681089 
L 286.970117 144.771318 
L 287.185472 145.042006 
L 287.400826 144.771318 
L 287.508503 144.951777 
L 287.61618 144.771318 
L 287.723857 144.861548 
L 287.939211 144.771318 
L 288.154565 144.951777 
L 288.262242 145.042006 
L 288.369919 144.951777 
L 288.477596 145.042006 
L 288.585274 145.402924 
L 289.015982 145.132236 
L 289.123659 145.222465 
L 289.339013 145.042006 
L 289.44669 145.132236 
L 289.769721 144.771318 
L 289.877398 145.132236 
L 290.092753 144.951777 
L 290.20043 145.222465 
L 290.308107 145.132236 
L 290.415784 145.312695 
L 290.846492 144.951777 
L 290.954169 145.132236 
L 291.169523 144.771318 
L 291.384877 144.771318 
L 291.600232 145.042006 
L 291.815586 145.132236 
L 291.923263 145.312695 
L 292.138617 145.222465 
L 292.353971 145.312695 
L 292.461648 145.402924 
L 292.569325 145.042006 
L 292.784679 145.222465 
L 292.892356 144.951777 
L 293.215388 145.222465 
L 293.323065 144.861548 
L 293.969127 145.402924 
L 294.076804 145.222465 
L 294.184481 145.312695 
L 294.507512 145.132236 
L 294.615189 144.771318 
L 294.830544 144.951777 
L 294.938221 144.771318 
L 295.045898 144.951777 
L 295.261252 144.590859 
L 295.476606 145.042006 
L 296.122668 144.951777 
L 296.230346 144.771318 
L 296.338023 144.951777 
L 296.553377 144.681089 
L 296.661054 144.590859 
L 296.984085 144.951777 
L 297.091762 144.771318 
L 297.414793 145.132236 
L 297.52247 145.222465 
L 297.630147 145.042006 
L 297.845502 145.132236 
L 298.168533 144.951777 
L 298.383887 145.042006 
L 298.491564 144.771318 
L 298.814595 144.951777 
L 298.922272 144.861548 
L 299.029949 145.042006 
L 299.137626 144.861548 
L 299.245303 145.042006 
L 299.352981 144.951777 
L 299.460658 145.312695 
L 299.676012 145.132236 
L 299.891366 145.312695 
L 300.214397 144.951777 
L 300.752782 145.042006 
L 301.183491 145.402924 
L 301.291168 145.222465 
L 301.506522 145.493153 
L 301.721876 145.132236 
L 301.829553 145.222465 
L 302.152584 144.861548 
L 302.260261 144.771318 
L 302.367939 145.042006 
L 302.583293 144.861548 
L 302.798647 145.312695 
L 303.014001 145.042006 
L 303.229355 145.222465 
L 303.444709 145.222465 
L 303.552386 144.951777 
L 303.660063 145.042006 
L 303.875417 144.861548 
L 304.090772 145.042006 
L 304.198449 144.951777 
L 304.844511 145.402924 
L 304.952188 145.402924 
L 305.059865 145.132236 
L 305.275219 145.222465 
L 305.490574 145.042006 
L 305.705928 145.132236 
L 305.813605 145.132236 
L 305.921282 144.951777 
L 306.244313 145.312695 
L 306.35199 145.132236 
L 306.567344 145.493153 
L 306.675021 145.402924 
L 306.782698 145.493153 
L 306.998053 145.222465 
L 307.213407 145.402924 
L 307.321084 145.132236 
L 307.428761 145.222465 
L 307.644115 145.042006 
L 307.859469 145.222465 
L 307.967146 145.222465 
L 308.290177 145.583383 
L 308.397854 145.673612 
L 308.828563 145.402924 
L 309.043917 145.493153 
L 309.151594 145.402924 
L 309.259271 145.132236 
L 309.366948 145.402924 
L 309.474625 145.312695 
L 309.905333 145.673612 
L 310.01301 145.583383 
L 310.228365 145.763841 
L 310.336042 145.673612 
L 310.443719 145.763841 
L 310.551396 145.583383 
L 310.659073 145.763841 
L 310.874427 145.402924 
L 310.982104 145.493153 
L 311.089781 145.312695 
L 311.628167 145.673612 
L 311.843521 145.673612 
L 312.058875 145.854071 
L 312.489583 145.763841 
L 312.920291 145.493153 
L 313.135646 145.583383 
L 313.243323 145.763841 
L 313.351 145.493153 
L 313.566354 145.854071 
L 313.674031 145.763841 
L 313.997062 146.124759 
L 314.104739 145.854071 
L 314.212416 145.9443 
L 314.320093 145.673612 
L 314.42777 145.763841 
L 314.643124 145.493153 
L 314.750802 145.583383 
L 314.858479 145.493153 
L 314.966156 145.763841 
L 315.18151 145.583383 
L 315.396864 145.763841 
L 315.504541 145.854071 
L 315.827572 145.583383 
L 315.935249 145.673612 
L 316.150603 145.402924 
L 316.258281 145.583383 
L 316.365958 145.402924 
L 316.473635 145.583383 
L 316.581312 145.493153 
L 316.688989 145.222465 
L 316.904343 145.493153 
L 317.227374 145.493153 
L 317.335051 145.673612 
L 317.442728 145.583383 
L 317.550405 145.763841 
L 318.088791 145.402924 
L 318.734853 145.493153 
L 318.950207 145.583383 
L 319.057884 145.493153 
L 319.165561 145.854071 
L 319.273238 145.673612 
L 319.380916 145.763841 
L 319.703947 145.493153 
L 319.811624 145.583383 
L 319.919301 145.222465 
L 320.026978 145.402924 
L 320.242332 145.312695 
L 320.350009 145.312695 
L 320.457686 145.493153 
L 320.565363 145.402924 
L 320.67304 145.673612 
L 320.780717 145.493153 
L 320.996072 145.854071 
L 321.319103 145.673612 
L 321.42678 145.763841 
L 321.965165 145.402924 
L 322.072842 145.493153 
L 322.180519 145.402924 
L 322.395874 145.673612 
L 322.826582 145.673612 
L 322.934259 146.034529 
L 323.25729 145.673612 
L 323.580321 145.402924 
L 323.687998 145.493153 
L 323.795675 145.312695 
L 324.549415 145.854071 
L 324.872446 145.763841 
L 325.195477 145.583383 
L 325.518509 145.583383 
L 325.626186 145.402924 
L 325.84154 145.673612 
L 326.056894 145.673612 
L 326.164571 145.854071 
L 326.272248 145.763841 
L 326.379925 145.854071 
L 326.487602 145.763841 
L 326.595279 145.9443 
L 326.702956 145.763841 
L 326.810633 145.854071 
L 327.025988 145.583383 
L 327.349019 145.493153 
L 327.456696 145.402924 
L 327.779727 145.763841 
L 327.995081 145.673612 
L 328.318112 145.854071 
L 328.533467 145.673612 
L 328.964175 145.673612 
L 329.179529 145.402924 
L 329.394883 145.402924 
L 329.610237 145.854071 
L 329.717914 145.673612 
L 330.040945 145.854071 
L 330.363977 145.854071 
L 330.579331 145.673612 
L 330.794685 145.673612 
L 330.902362 145.493153 
L 331.010039 145.583383 
L 331.117716 145.493153 
L 331.225393 145.9443 
L 331.33307 145.763841 
L 331.548424 145.9443 
L 331.763779 146.034529 
L 332.194487 146.034529 
L 332.302164 145.763841 
L 332.409841 145.9443 
L 332.625195 145.763841 
L 332.948226 145.9443 
L 333.163581 145.9443 
L 333.486612 146.395447 
L 333.594289 146.214988 
L 333.701966 146.305217 
L 334.240351 145.9443 
L 334.348028 146.034529 
L 334.455705 145.763841 
L 334.671059 145.9443 
L 335.101768 146.214988 
L 335.640153 146.124759 
L 335.74783 145.9443 
L 335.963184 146.034529 
L 336.178538 145.9443 
L 336.50157 145.673612 
L 336.609247 146.034529 
L 336.716924 145.854071 
L 336.932278 146.124759 
L 337.255309 146.395447 
L 337.57834 146.214988 
L 337.686017 146.214988 
L 337.793695 146.034529 
L 337.901372 146.124759 
L 338.116726 146.034529 
L 338.439757 146.124759 
L 338.655111 146.485676 
L 339.193496 146.395447 
L 339.408851 146.124759 
L 339.624205 146.034529 
L 339.839559 145.9443 
L 340.054913 145.854071 
L 340.16259 145.763841 
L 340.377944 146.034529 
L 340.485621 146.124759 
L 340.593298 146.034529 
L 340.91633 146.395447 
L 341.131684 146.124759 
L 341.454715 145.763841 
L 341.562392 145.854071 
L 341.670069 145.763841 
L 341.885423 145.9443 
L 342.208454 146.034529 
L 342.423809 146.395447 
L 342.639163 146.305217 
L 342.962194 146.305217 
L 343.177548 146.034529 
L 343.285225 145.9443 
L 343.392902 146.214988 
L 343.608256 146.034529 
L 343.931288 146.034529 
L 344.038965 146.214988 
L 344.146642 146.124759 
L 344.469673 146.485676 
L 344.685027 146.124759 
L 344.792704 146.485676 
L 345.008058 145.9443 
L 345.115735 146.214988 
L 345.223412 146.034529 
L 345.546444 146.214988 
L 345.761798 146.305217 
L 346.084829 146.666135 
L 346.838568 146.575905 
L 347.1616 146.395447 
L 347.376954 146.485676 
L 347.699985 146.846594 
L 347.807662 146.756364 
L 348.023016 147.117282 
L 348.346047 146.936823 
L 349.099787 147.027052 
L 349.530495 147.658658 
L 349.638172 147.568429 
L 349.961203 147.839117 
L 350.284235 147.568429 
L 350.391912 147.748887 
L 350.607266 147.478199 
L 350.930297 147.478199 
L 351.145651 147.839117 
L 351.684037 148.290264 
L 351.899391 148.109805 
L 352.545453 148.200034 
L 352.65313 148.290264 
L 352.976161 148.831639 
L 353.083838 148.741411 
L 353.299193 149.102329 
L 353.40687 149.102329 
L 353.729901 149.463246 
L 353.837578 149.282786 
L 354.052932 149.463246 
L 354.160609 149.463246 
L 354.375963 149.733933 
L 354.48364 149.733933 
L 354.806672 150.27531 
L 354.914349 150.36554 
L 355.23738 150.997144 
L 355.345057 150.997144 
L 355.452734 151.177604 
L 355.668088 150.997144 
L 356.098796 151.267832 
L 356.206473 151.267832 
L 356.637182 152.079896 
L 357.283244 152.98219 
L 357.390921 152.89196 
L 357.606275 153.343107 
L 357.713952 153.252877 
L 358.252338 154.335632 
L 359.006077 155.95976 
L 359.113754 155.86953 
L 359.759817 157.042512 
L 360.405879 158.847097 
L 360.513556 159.027557 
L 361.051942 160.832143 
L 362.559421 165.614299 
L 362.667098 165.704529 
L 363.205483 167.238428 
L 364.282254 171.388979 
L 364.497608 171.840126 
L 364.605285 171.749896 
L 364.712962 172.110814 
L 364.820639 171.840126 
L 365.14367 172.020584 
L 365.359024 172.020584 
L 365.466702 172.291273 
L 366.328118 170.215998 
L 366.758826 167.599345 
L 367.297212 165.975216 
L 367.943274 159.027557 
L 368.158628 156.501135 
L 368.373982 149.553476 
L 369.020045 122.484664 
L 369.343076 117.612275 
L 369.450753 117.25135 
L 369.55843 117.522037 
L 369.773784 119.146177 
L 370.958232 131.056454 
L 371.173586 131.688061 
L 371.281263 131.778288 
L 371.496617 131.507601 
L 371.819649 130.15416 
L 372.358034 127.627737 
L 372.573388 126.905902 
L 372.681065 126.725445 
L 372.788742 126.815673 
L 373.004096 126.544985 
L 373.327128 126.815673 
L 373.434805 126.725445 
L 373.542482 126.815673 
L 373.757836 127.26682 
L 373.865513 127.176592 
L 374.188544 127.898427 
L 374.296221 127.898427 
L 374.511575 128.439801 
L 374.72693 128.800721 
L 375.265315 129.161638 
L 375.372992 129.071408 
L 375.480669 129.251868 
L 375.588346 129.161638 
L 375.696023 129.251868 
L 375.911377 129.522555 
L 376.019054 129.522555 
L 376.449763 130.695537 
L 376.665117 130.785767 
L 376.880471 131.327141 
L 377.095825 131.778288 
L 377.203502 131.778288 
L 378.172596 133.582877 
L 378.495627 134.304711 
L 378.926335 134.755858 
L 379.034012 134.936318 
L 379.141689 134.846088 
L 379.464721 135.567923 
L 379.572398 135.567923 
L 379.787752 136.01907 
L 379.895429 136.19953 
L 380.110783 136.740904 
L 381.079877 137.552968 
L 381.187554 137.462738 
L 381.402908 137.913886 
L 381.510585 138.004116 
L 381.725939 138.545493 
L 381.833616 138.545493 
L 382.264324 139.357557 
L 382.372002 139.267327 
L 382.695033 139.357557 
L 382.80271 139.447787 
L 382.910387 139.267327 
L 383.018064 139.628244 
L 383.125741 139.538014 
L 383.341095 140.079391 
L 383.664126 140.440308 
L 383.987158 140.981686 
L 384.094835 140.801226 
L 384.202512 140.891456 
L 384.310189 140.801226 
L 385.602314 141.974207 
L 385.709991 142.154667 
L 385.817668 141.974207 
L 386.248376 142.335124 
L 386.46373 142.064437 
L 386.571407 142.064437 
L 386.679084 142.244897 
L 386.786761 142.154667 
L 387.109793 142.605814 
L 387.971209 142.605814 
L 388.078886 142.425354 
L 388.186563 142.515584 
L 388.29424 142.425354 
L 389.263334 143.14719 
L 389.371011 143.14719 
L 389.586365 142.966731 
L 389.694042 143.14719 
L 390.124751 142.876502 
L 390.232428 143.14719 
L 390.340105 143.05696 
L 390.447782 143.327649 
L 390.555459 143.237419 
L 390.770813 143.508107 
L 390.986167 143.417878 
L 391.093844 143.598337 
L 391.201521 143.508107 
L 391.309198 143.688566 
L 391.524552 143.508107 
L 391.63223 143.598337 
L 391.739907 143.508107 
L 391.847584 143.598337 
L 392.062938 143.508107 
L 392.170615 143.688566 
L 392.278292 143.598337 
L 392.385969 143.959254 
L 392.601323 143.869025 
L 392.924354 144.229942 
L 393.139708 143.959254 
L 393.247386 144.139713 
L 393.355063 143.598337 
L 393.570417 143.778795 
L 393.678094 143.598337 
L 394.108802 144.049483 
L 394.216479 143.869025 
L 394.431833 144.229942 
L 394.53951 144.139713 
L 394.754865 144.410401 
L 394.970219 144.410401 
L 395.185573 144.139713 
L 395.400927 144.229942 
L 395.508604 143.959254 
L 395.616281 144.320171 
L 395.723958 144.139713 
L 395.831635 144.229942 
L 396.046989 144.50063 
L 396.370021 144.681089 
L 396.477698 144.50063 
L 396.693052 144.590859 
L 396.908406 144.229942 
L 397.12376 144.410401 
L 397.231437 144.139713 
L 397.339114 144.410401 
L 397.554468 144.049483 
L 397.769823 144.50063 
L 397.8775 144.410401 
L 397.985177 144.50063 
L 398.092854 144.410401 
L 398.308208 144.681089 
L 398.523562 144.320171 
L 398.631239 144.410401 
L 398.738916 144.229942 
L 398.846593 144.410401 
L 399.061947 144.139713 
L 399.384979 144.590859 
L 399.492656 144.50063 
L 399.923364 144.771318 
L 400.031041 144.681089 
L 400.138718 144.861548 
L 400.461749 144.410401 
L 401.323166 144.410401 
L 401.430843 144.590859 
L 401.646197 144.410401 
L 401.969228 144.590859 
L 402.292259 144.139713 
L 402.399937 144.229942 
L 402.507614 143.959254 
L 402.615291 144.049483 
L 402.830645 143.869025 
L 403.045999 144.410401 
L 403.153676 144.229942 
L 403.261353 144.139713 
L 403.36903 144.410401 
L 403.692061 144.229942 
L 403.907415 144.410401 
L 404.230447 144.049483 
L 404.338124 144.229942 
L 404.661155 144.049483 
L 404.876509 144.139713 
L 404.984186 144.50063 
L 405.307217 144.229942 
L 405.414894 144.320171 
L 405.522572 144.681089 
L 405.737926 144.320171 
L 405.845603 144.320171 
L 405.95328 144.139713 
L 406.060957 144.410401 
L 406.168634 144.320171 
L 406.276311 143.959254 
L 406.491665 144.139713 
L 406.814696 144.50063 
L 406.922373 144.229942 
L 407.030051 144.50063 
L 407.137728 144.229942 
L 407.245405 144.590859 
L 407.460759 144.410401 
L 407.568436 144.681089 
L 407.78379 144.229942 
L 407.891467 144.320171 
L 407.999144 144.590859 
L 408.106821 144.50063 
L 408.322175 144.590859 
L 408.429852 144.320171 
L 408.645207 144.590859 
L 408.752884 144.590859 
L 408.860561 145.042006 
L 409.075915 144.410401 
L 409.291269 144.681089 
L 409.506623 144.139713 
L 409.6143 144.320171 
L 409.721977 144.229942 
L 409.829654 144.410401 
L 410.045008 143.959254 
L 410.475717 144.681089 
L 410.583394 144.50063 
L 410.691071 145.222465 
L 410.906425 144.320171 
L 411.014102 144.229942 
L 411.121779 144.861548 
L 411.229456 144.590859 
L 411.337133 143.959254 
L 411.44481 144.139713 
L 411.552487 145.132236 
L 411.660165 144.320171 
L 411.767842 144.50063 
L 411.875519 143.688566 
L 412.090873 144.320171 
L 412.19855 144.590859 
L 412.413904 144.410401 
L 412.521581 144.861548 
L 412.629258 144.681089 
L 412.736935 144.771318 
L 413.167644 144.410401 
L 413.382998 143.778795 
L 413.598352 144.229942 
L 413.706029 144.50063 
L 413.813706 144.049483 
L 414.244414 144.861548 
L 414.352091 144.590859 
L 414.459768 145.042006 
L 414.675122 144.861548 
L 414.890477 144.410401 
L 414.998154 144.590859 
L 415.213508 144.229942 
L 415.321185 144.320171 
L 415.428862 144.229942 
L 415.644216 144.771318 
L 415.751893 144.590859 
L 415.85957 144.951777 
L 415.967247 144.229942 
L 416.074924 144.50063 
L 416.182601 144.229942 
L 416.290279 145.673612 
L 416.505633 145.132236 
L 416.61331 145.132236 
L 416.828664 144.410401 
L 416.936341 144.410401 
L 417.044018 145.042006 
L 417.151695 144.229942 
L 417.259372 145.132236 
L 417.367049 144.139713 
L 417.582403 145.402924 
L 417.797758 144.951777 
L 418.013112 145.222465 
L 418.120789 144.681089 
L 418.228466 144.861548 
L 418.336143 145.312695 
L 418.551497 144.590859 
L 418.982205 144.590859 
L 419.197559 145.042006 
L 419.305237 145.132236 
L 419.520591 145.042006 
L 419.628268 145.493153 
L 419.843622 145.222465 
L 419.951299 145.402924 
L 420.166653 145.222465 
L 420.705038 144.861548 
L 421.135747 145.132236 
L 421.566455 145.222465 
L 421.674132 145.402924 
L 421.889486 144.681089 
L 422.10484 144.951777 
L 422.212517 144.771318 
L 422.320194 144.951777 
L 422.535549 144.771318 
L 422.643226 144.681089 
L 422.85858 144.951777 
L 423.935351 144.951777 
L 424.043028 144.681089 
L 424.258382 144.861548 
L 424.366059 144.681089 
L 424.473736 144.951777 
L 424.68909 144.861548 
L 425.119798 145.132236 
L 425.335152 145.042006 
L 425.442829 145.042006 
L 425.550507 144.861548 
L 425.658184 144.951777 
L 425.873538 144.771318 
L 426.411923 144.681089 
L 426.5196 145.042006 
L 426.627277 144.861548 
L 426.842631 145.042006 
L 426.950308 144.951777 
L 427.057986 145.042006 
L 427.165663 144.951777 
L 427.27334 144.681089 
L 427.381017 144.861548 
L 427.488694 144.771318 
L 427.596371 144.50063 
L 427.704048 144.771318 
L 427.919402 144.590859 
L 428.134756 144.771318 
L 428.457787 145.042006 
L 428.565465 144.951777 
L 428.673142 145.312695 
L 428.780819 144.951777 
L 428.996173 145.042006 
L 429.426881 144.951777 
L 429.534558 144.771318 
L 429.749912 144.861548 
L 429.965266 144.951777 
L 430.072944 145.132236 
L 430.180621 145.042006 
L 430.395975 145.222465 
L 430.503652 145.132236 
L 430.611329 145.222465 
L 430.826683 145.042006 
L 430.93436 145.132236 
L 431.149714 145.042006 
L 431.257391 145.042006 
L 431.365068 144.861548 
L 431.472745 144.951777 
L 431.6881 144.771318 
L 432.334162 145.222465 
L 432.441839 145.222465 
L 432.76487 144.861548 
L 432.872547 145.042006 
L 432.980224 144.771318 
L 433.195579 144.861548 
L 433.410933 144.590859 
L 433.626287 144.861548 
L 433.733964 144.951777 
L 433.841641 145.222465 
L 433.949318 145.042006 
L 434.056995 145.222465 
L 434.272349 145.042006 
L 434.487703 144.951777 
L 434.59538 144.951777 
L 434.703058 144.771318 
L 434.810735 144.861548 
L 434.918412 144.681089 
L 435.026089 144.771318 
L 435.133766 144.681089 
L 435.672151 145.042006 
L 435.887505 144.951777 
L 436.102859 145.222465 
L 436.425891 144.861548 
L 437.17963 144.771318 
L 437.394984 145.042006 
L 437.610338 145.132236 
L 437.718015 145.222465 
L 437.825693 145.132236 
L 438.041047 145.222465 
L 438.364078 144.771318 
L 438.579432 145.042006 
L 438.687109 144.861548 
L 439.225494 145.222465 
L 439.440849 145.583383 
L 439.656203 145.222465 
L 439.76388 145.402924 
L 439.979234 145.312695 
L 440.086911 145.312695 
L 440.302265 145.042006 
L 441.056005 145.583383 
L 441.702067 145.583383 
L 441.917421 145.222465 
L 442.025098 145.132236 
L 442.240452 145.312695 
L 442.348129 145.042006 
L 442.455807 145.222465 
L 442.671161 145.132236 
L 442.886515 145.402924 
L 443.101869 145.312695 
L 443.4249 145.493153 
L 443.532577 145.132236 
L 443.640254 145.312695 
L 443.747931 145.042006 
L 443.855608 145.222465 
L 443.963286 144.951777 
L 444.393994 145.493153 
L 444.609348 145.312695 
L 444.824702 145.493153 
L 445.040056 145.583383 
L 445.578442 145.493153 
L 445.901473 145.312695 
L 446.224504 145.312695 
L 446.439858 145.673612 
L 446.547535 145.402924 
L 446.655212 145.763841 
L 446.762889 145.402924 
L 446.870566 145.673612 
L 447.085921 145.402924 
L 447.193598 145.042006 
L 447.301275 145.312695 
L 447.624306 145.042006 
L 447.947337 145.493153 
L 448.055014 145.222465 
L 448.270368 145.312695 
L 448.378045 145.673612 
L 448.5934 145.222465 
L 448.701077 145.493153 
L 449.239462 145.042006 
L 449.562493 145.402924 
L 449.67017 145.583383 
L 449.777847 145.312695 
L 449.993201 145.854071 
L 450.100879 145.583383 
L 450.316233 145.763841 
L 450.42391 145.673612 
L 450.531587 145.763841 
L 450.962295 145.312695 
L 451.177649 145.583383 
L 451.393003 145.402924 
L 451.608357 145.673612 
L 451.823712 145.763841 
L 452.039066 145.9443 
L 452.146743 145.9443 
L 452.362097 145.763841 
L 452.469774 146.034529 
L 452.900482 145.673612 
L 453.008159 145.854071 
L 453.223514 145.673612 
L 453.438868 146.124759 
L 453.654222 146.124759 
L 453.761899 146.395447 
L 453.869576 146.214988 
L 453.977253 146.395447 
L 454.192607 146.214988 
L 454.300284 146.305217 
L 454.515638 146.034529 
L 454.623315 146.214988 
L 454.730993 146.124759 
L 454.83867 146.214988 
L 454.946347 146.124759 
L 455.269378 146.575905 
L 455.484732 146.485676 
L 455.91544 146.756364 
L 456.023117 146.575905 
L 456.130794 146.666135 
L 456.346149 146.575905 
L 456.561503 146.666135 
L 456.776857 146.936823 
L 456.992211 146.846594 
L 457.207565 147.117282 
L 457.422919 147.29774 
L 457.530596 147.027052 
L 457.74595 147.207511 
L 457.853628 147.29774 
L 457.961305 147.027052 
L 458.068982 147.38797 
L 458.176659 147.207511 
L 458.284336 147.29774 
L 458.49969 147.207511 
L 459.145752 147.839117 
L 459.361107 148.109805 
L 459.468784 147.839117 
L 459.684138 148.019576 
L 459.791815 147.839117 
L 460.007169 148.200034 
L 460.114846 148.200034 
L 460.222523 148.019576 
L 460.976263 149.102329 
L 461.08394 149.012099 
L 461.406971 149.373016 
L 461.622325 149.373016 
L 461.730002 149.553476 
L 461.945356 149.373016 
L 462.268387 150.00462 
L 462.483742 150.27531 
L 462.91445 151.177604 
L 463.022127 151.087374 
L 463.129804 151.267832 
L 463.237481 151.087374 
L 463.560512 151.448292 
L 463.668189 151.267832 
L 464.960314 153.433337 
L 465.067991 153.252877 
L 465.175668 153.343107 
L 465.391022 153.974714 
L 465.4987 153.884484 
L 465.714054 154.245402 
L 466.037085 155.237923 
L 466.252439 155.59884 
L 466.57547 156.681595 
L 466.683147 156.681595 
L 467.436887 158.125263 
L 467.867595 159.478705 
L 468.621335 161.824668 
L 468.729012 161.824668 
L 469.913459 165.975216 
L 470.236491 167.328658 
L 471.420938 171.208519 
L 471.528615 171.208519 
L 471.74397 171.569436 
L 471.851647 171.479209 
L 471.959324 171.659666 
L 472.174678 171.208519 
L 472.282355 171.298749 
L 472.497709 171.028062 
L 472.713063 170.937832 
L 472.928417 170.667145 
L 473.143771 170.125768 
L 473.682157 168.501639 
L 474.112865 166.426363 
L 474.220542 166.245906 
L 474.543573 163.99017 
L 475.297313 155.328153 
L 475.512667 148.109805 
L 476.158729 121.401912 
L 476.481761 117.341588 
L 476.589438 117.161139 
L 476.697115 117.612275 
L 477.2355 123.567415 
L 477.666208 127.988657 
L 478.096917 130.785767 
L 478.312271 131.507601 
L 478.527625 131.236914 
L 478.958333 129.973703 
L 479.496719 127.35705 
L 479.81975 126.364528 
L 479.927427 126.274298 
L 480.035104 126.003608 
L 480.250458 126.184068 
L 480.573489 126.544985 
L 480.896521 127.086362 
L 481.004198 126.996132 
L 481.219552 127.35705 
L 481.434906 127.53751 
L 481.757937 128.078884 
L 481.865614 127.988657 
L 482.296322 128.800721 
L 482.511677 129.071408 
L 482.727031 129.432325 
L 482.942385 129.251868 
L 483.050062 129.342095 
L 483.157739 129.612785 
L 483.265416 129.522555 
L 483.48077 129.703013 
L 483.803801 130.515077 
L 483.911478 130.605307 
L 484.23451 131.417371 
L 485.849666 134.214481 
L 486.06502 134.665628 
L 486.495728 135.387465 
L 486.603405 135.207006 
L 487.034114 135.83861 
L 487.141791 135.83861 
L 487.680176 136.921364 
L 488.218561 137.733428 
L 488.433915 137.733428 
L 488.64927 137.913886 
L 488.972301 138.094346 
L 488.972301 138.094346 
" clip-path="url(#p3abad7e483)" style="fill: none; stroke: #d94452; stroke-width: 0.8; stroke-linecap: square"/>
   </g>
   <g id="text_17">
    <g id="patch_7">
     <path d="M 107.402606 263.690638 
L 224.802606 263.690638 
Q 227.802606 263.690638 227.802606 260.690638 
L 227.802606 250.090638 
Q 227.802606 247.090638 224.802606 247.090638 
L 107.402606 247.090638 
Q 104.402606 247.090638 104.402606 250.090638 
L 104.402606 260.690638 
Q 104.402606 263.690638 107.402606 263.690638 
z
" style="fill: #ffffff; opacity: 0.85; stroke: #333333; stroke-linejoin: miter"/>
    </g>
    <!-- I$_{p-p}$ = 1.51E-03 mA/m² -->
    <g style="fill: #333333" transform="translate(107.402606 257.590638) scale(0.1 -0.1)">
     <defs>
      <path id="DejaVuSans-49" d="M 628 4666 
L 1259 4666 
L 1259 0 
L 628 0 
L 628 4666 
z
" transform="scale(0.015625)"/>
      <path id="DejaVuSans-Oblique-70" d="M 3175 2156 
Q 3175 2616 2975 2859 
Q 2775 3103 2400 3103 
Q 2144 3103 1911 2972 
Q 1678 2841 1497 2591 
Q 1319 2344 1212 1994 
Q 1106 1644 1106 1300 
Q 1106 863 1306 627 
Q 1506 391 1875 391 
Q 2147 391 2380 519 
Q 2613 647 2778 891 
Q 2956 1147 3065 1494 
Q 3175 1841 3175 2156 
z
M 1394 2969 
Q 1625 3272 1939 3428 
Q 2253 3584 2638 3584 
Q 3175 3584 3472 3232 
Q 3769 2881 3769 2247 
Q 3769 1728 3584 1258 
Q 3400 788 3053 416 
Q 2822 169 2531 39 
Q 2241 -91 1919 -91 
Q 1547 -91 1294 64 
Q 1041 219 916 525 
L 556 -1331 
L -19 -1331 
L 922 3500 
L 1497 3500 
L 1394 2969 
z
" transform="scale(0.015625)"/>
      <path id="DejaVuSans-20" transform="scale(0.015625)"/>
      <path id="DejaVuSans-3d" d="M 678 2906 
L 4684 2906 
L 4684 2381 
L 678 2381 
L 678 2906 
z
M 678 1631 
L 4684 1631 
L 4684 1100 
L 678 1100 
L 678 1631 
z
" transform="scale(0.015625)"/>
      <path id="DejaVuSans-45" d="M 628 4666 
L 3578 4666 
L 3578 4134 
L 1259 4134 
L 1259 2753 
L 3481 2753 
L 3481 2222 
L 1259 2222 
L 1259 531 
L 3634 531 
L 3634 0 
L 628 0 
L 628 4666 
z
" transform="scale(0.015625)"/>
      <path id="DejaVuSans-2d" d="M 313 2009 
L 1997 2009 
L 1997 1497 
L 313 1497 
L 313 2009 
z
" transform="scale(0.015625)"/>
      <path id="DejaVuSans-6d" d="M 3328 2828 
Q 3544 3216 3844 3400 
Q 4144 3584 4550 3584 
Q 5097 3584 5394 3201 
Q 5691 2819 5691 2113 
L 5691 0 
L 5113 0 
L 5113 2094 
Q 5113 2597 4934 2840 
Q 4756 3084 4391 3084 
Q 3944 3084 3684 2787 
Q 3425 2491 3425 1978 
L 3425 0 
L 2847 0 
L 2847 2094 
Q 2847 2600 2669 2842 
Q 2491 3084 2119 3084 
Q 1678 3084 1418 2786 
Q 1159 2488 1159 1978 
L 1159 0 
L 581 0 
L 581 3500 
L 1159 3500 
L 1159 2956 
Q 1356 3278 1631 3431 
Q 1906 3584 2284 3584 
Q 2666 3584 2933 3390 
Q 3200 3197 3328 2828 
z
" transform="scale(0.015625)"/>
      <path id="DejaVuSans-41" d="M 2188 4044 
L 1331 1722 
L 3047 1722 
L 2188 4044 
z
M 1831 4666 
L 2547 4666 
L 4325 0 
L 3669 0 
L 3244 1197 
L 1141 1197 
L 716 0 
L 50 0 
L 1831 4666 
z
" transform="scale(0.015625)"/>
      <path id="DejaVuSans-2f" d="M 1625 4666 
L 2156 4666 
L 531 -594 
L 0 -594 
L 1625 4666 
z
" transform="scale(0.015625)"/>
      <path id="DejaVuSans-b2" d="M 838 2444 
L 2163 2444 
L 2163 2088 
L 294 2088 
L 294 2431 
Q 400 2528 597 2703 
Q 1672 3656 1672 3950 
Q 1672 4156 1509 4282 
Q 1347 4409 1081 4409 
Q 919 4409 728 4354 
Q 538 4300 313 4191 
L 313 4575 
Q 553 4663 761 4706 
Q 969 4750 1147 4750 
Q 1600 4750 1872 4544 
Q 2144 4338 2144 4000 
Q 2144 3566 1109 2678 
Q 934 2528 838 2444 
z
" transform="scale(0.015625)"/>
     </defs>
     <use xlink:href="#DejaVuSans-49" transform="translate(0 0.78125)"/>
     <use xlink:href="#DejaVuSans-Oblique-70" transform="translate(30.449219 -15.625) scale(0.7)"/>
     <use xlink:href="#DejaVuSans-2212" transform="translate(88.520508 -15.625) scale(0.7)"/>
     <use xlink:href="#DejaVuSans-Oblique-70" transform="translate(160.810547 -15.625) scale(0.7)"/>
     <use xlink:href="#DejaVuSans-20" transform="translate(207.978516 0.78125)"/>
     <use xlink:href="#DejaVuSans-3d" transform="translate(239.765625 0.78125)"/>
     <use xlink:href="#DejaVuSans-20" transform="translate(323.554688 0.78125)"/>
     <use xlink:href="#DejaVuSans-31" transform="translate(355.341797 0.78125)"/>
     <use xlink:href="#DejaVuSans-2e" transform="translate(418.964844 0.78125)"/>
     <use xlink:href="#DejaVuSans-35" transform="translate(450.751953 0.78125)"/>
     <use xlink:href="#DejaVuSans-31" transform="translate(514.375 0.78125)"/>
     <use xlink:href="#DejaVuSans-45" transform="translate(577.998047 0.78125)"/>
     <use xlink:href="#DejaVuSans-2d" transform="translate(641.181641 0.78125)"/>
     <use xlink:href="#DejaVuSans-30" transform="translate(677.265625 0.78125)"/>
     <use xlink:href="#DejaVuSans-33" transform="translate(740.888672 0.78125)"/>
     <use xlink:href="#DejaVuSans-20" transform="translate(804.511719 0.78125)"/>
     <use xlink:href="#DejaVuSans-6d" transform="translate(836.298828 0.78125)"/>
     <use xlink:href="#DejaVuSans-41" transform="translate(933.710938 0.78125)"/>
     <use xlink:href="#DejaVuSans-2f" transform="translate(1002.119141 0.78125)"/>
     <use xlink:href="#DejaVuSans-6d" transform="translate(1035.810547 0.78125)"/>
     <use xlink:href="#DejaVuSans-b2" transform="translate(1133.222656 0.78125)"/>
    </g>
   </g>
   <g id="text_18">
    <g id="patch_8">
     <path d="M 322.749069 263.690638 
L 439.949069 263.690638 
Q 442.949069 263.690638 442.949069 260.690638 
L 442.949069 250.090638 
Q 442.949069 247.090638 439.949069 247.090638 
L 322.749069 247.090638 
Q 319.749069 247.090638 319.749069 250.090638 
L 319.749069 260.690638 
Q 319.749069 263.690638 322.749069 263.690638 
z
" style="fill: #ffffff; opacity: 0.85; stroke: #d94452; stroke-linejoin: miter"/>
    </g>
    <!-- I$_{p-p}$ = 4.92E-04 mA/m² -->
    <g style="fill: #d94452" transform="translate(322.749069 257.590638) scale(0.1 -0.1)">
     <defs>
      <path id="DejaVuSans-34" d="M 2419 4116 
L 825 1625 
L 2419 1625 
L 2419 4116 
z
M 2253 4666 
L 3047 4666 
L 3047 1625 
L 3713 1625 
L 3713 1100 
L 3047 1100 
L 3047 0 
L 2419 0 
L 2419 1100 
L 313 1100 
L 313 1709 
L 2253 4666 
z
" transform="scale(0.015625)"/>
      <path id="DejaVuSans-39" d="M 703 97 
L 703 672 
Q 941 559 1184 500 
Q 1428 441 1663 441 
Q 2288 441 2617 861 
Q 2947 1281 2994 2138 
Q 2813 1869 2534 1725 
Q 2256 1581 1919 1581 
Q 1219 1581 811 2004 
Q 403 2428 403 3163 
Q 403 3881 828 4315 
Q 1253 4750 1959 4750 
Q 2769 4750 3195 4129 
Q 3622 3509 3622 2328 
Q 3622 1225 3098 567 
Q 2575 -91 1691 -91 
Q 1453 -91 1209 -44 
Q 966 3 703 97 
z
M 1959 2075 
Q 2384 2075 2632 2365 
Q 2881 2656 2881 3163 
Q 2881 3666 2632 3958 
Q 2384 4250 1959 4250 
Q 1534 4250 1286 3958 
Q 1038 3666 1038 3163 
Q 1038 2656 1286 2365 
Q 1534 2075 1959 2075 
z
" transform="scale(0.015625)"/>
     </defs>
     <use xlink:href="#DejaVuSans-49" transform="translate(0 0.78125)"/>
     <use xlink:href="#DejaVuSans-Oblique-70" transform="translate(30.449219 -15.625) scale(0.7)"/>
     <use xlink:href="#DejaVuSans-2212" transform="translate(88.520508 -15.625) scale(0.7)"/>
     <use xlink:href="#DejaVuSans-Oblique-70" transform="translate(160.810547 -15.625) scale(0.7)"/>
     <use xlink:href="#DejaVuSans-20" transform="translate(207.978516 0.78125)"/>
     <use xlink:href="#DejaVuSans-3d" transform="translate(239.765625 0.78125)"/>
     <use xlink:href="#DejaVuSans-20" transform="translate(323.554688 0.78125)"/>
     <use xlink:href="#DejaVuSans-34" transform="translate(355.341797 0.78125)"/>
     <use xlink:href="#DejaVuSans-2e" transform="translate(418.964844 0.78125)"/>
     <use xlink:href="#DejaVuSans-39" transform="translate(450.751953 0.78125)"/>
     <use xlink:href="#DejaVuSans-32" transform="translate(512.625 0.78125)"/>
     <use xlink:href="#DejaVuSans-45" transform="translate(576.248047 0.78125)"/>
     <use xlink:href="#DejaVuSans-2d" transform="translate(639.431641 0.78125)"/>
     <use xlink:href="#DejaVuSans-30" transform="translate(675.515625 0.78125)"/>
     <use xlink:href="#DejaVuSans-34" transform="translate(739.138672 0.78125)"/>
     <use xlink:href="#DejaVuSans-20" transform="translate(802.761719 0.78125)"/>
     <use xlink:href="#DejaVuSans-6d" transform="translate(834.548828 0.78125)"/>
     <use xlink:href="#DejaVuSans-41" transform="translate(931.960938 0.78125)"/>
     <use xlink:href="#DejaVuSans-2f" transform="translate(1000.369141 0.78125)"/>
     <use xlink:href="#DejaVuSans-6d" transform="translate(1034.060547 0.78125)"/>
     <use xlink:href="#DejaVuSans-b2" transform="translate(1131.472656 0.78125)"/>
    </g>
   </g>
   <g id="text_19">
    <g id="patch_9">
     <path d="M 418.441107 48.3638 
L 476.057513 48.3638 
Q 481.257513 48.3638 481.257513 43.1638 
L 481.257513 30.582237 
Q 481.257513 25.382237 476.057513 25.382237 
L 418.441107 25.382237 
Q 413.241107 25.382237 413.241107 30.582237 
L 413.241107 43.1638 
Q 413.241107 48.3638 418.441107 48.3638 
z
" style="fill: #ffffff; opacity: 0.9; stroke: #4a90d9; stroke-width: 1.5; stroke-linejoin: miter"/>
    </g>
    <!-- f = 1 Hz -->
    <g style="fill: #4a90d9" transform="translate(418.441107 40.460206) scale(0.13 -0.13)">
     <defs>
      <path id="DejaVuSans-Bold-66" d="M 2841 4863 
L 2841 4128 
L 2222 4128 
Q 1984 4128 1890 4042 
Q 1797 3956 1797 3744 
L 1797 3500 
L 2753 3500 
L 2753 2700 
L 1797 2700 
L 1797 0 
L 678 0 
L 678 2700 
L 122 2700 
L 122 3500 
L 678 3500 
L 678 3744 
Q 678 4316 997 4589 
Q 1316 4863 1984 4863 
L 2841 4863 
z
" transform="scale(0.015625)"/>
      <path id="DejaVuSans-Bold-3d" d="M 678 3084 
L 4684 3084 
L 4684 2350 
L 678 2350 
L 678 3084 
z
M 678 1663 
L 4684 1663 
L 4684 922 
L 678 922 
L 678 1663 
z
" transform="scale(0.015625)"/>
      <path id="DejaVuSans-Bold-31" d="M 750 831 
L 1813 831 
L 1813 3847 
L 722 3622 
L 722 4441 
L 1806 4666 
L 2950 4666 
L 2950 831 
L 4013 831 
L 4013 0 
L 750 0 
L 750 831 
z
" transform="scale(0.015625)"/>
      <path id="DejaVuSans-Bold-48" d="M 588 4666 
L 1791 4666 
L 1791 2888 
L 3566 2888 
L 3566 4666 
L 4769 4666 
L 4769 0 
L 3566 0 
L 3566 1978 
L 1791 1978 
L 1791 0 
L 588 0 
L 588 4666 
z
" transform="scale(0.015625)"/>
      <path id="DejaVuSans-Bold-7a" d="M 366 3500 
L 3419 3500 
L 3419 2719 
L 1575 800 
L 3419 800 
L 3419 0 
L 288 0 
L 288 781 
L 2131 2700 
L 366 2700 
L 366 3500 
z
" transform="scale(0.015625)"/>
     </defs>
     <use xlink:href="#DejaVuSans-Bold-66"/>
     <use xlink:href="#DejaVuSans-Bold-20" transform="translate(43.505859 0)"/>
     <use xlink:href="#DejaVuSans-Bold-3d" transform="translate(78.320312 0)"/>
     <use xlink:href="#DejaVuSans-Bold-20" transform="translate(162.109375 0)"/>
     <use xlink:href="#DejaVuSans-Bold-31" transform="translate(196.923828 0)"/>
     <use xlink:href="#DejaVuSans-Bold-20" transform="translate(266.503906 0)"/>
     <use xlink:href="#DejaVuSans-Bold-48" transform="translate(301.318359 0)"/>
     <use xlink:href="#DejaVuSans-Bold-7a" transform="translate(385.009766 0)"/>
    </g>
   </g>
   <g id="text_20">
    <!-- Without MIC -->
    <g style="fill: #333333" transform="translate(117.370575 41.22005) scale(0.14 -0.14)">
     <defs>
      <path id="DejaVuSans-Bold-57" d="M 191 4666 
L 1344 4666 
L 2150 1275 
L 2950 4666 
L 4109 4666 
L 4909 1275 
L 5716 4666 
L 6859 4666 
L 5759 0 
L 4372 0 
L 3525 3547 
L 2688 0 
L 1300 0 
L 191 4666 
z
" transform="scale(0.015625)"/>
      <path id="DejaVuSans-Bold-74" d="M 1759 4494 
L 1759 3500 
L 2913 3500 
L 2913 2700 
L 1759 2700 
L 1759 1216 
Q 1759 972 1856 886 
Q 1953 800 2241 800 
L 2816 800 
L 2816 0 
L 1856 0 
Q 1194 0 917 276 
Q 641 553 641 1216 
L 641 2700 
L 84 2700 
L 84 3500 
L 641 3500 
L 641 4494 
L 1759 4494 
z
" transform="scale(0.015625)"/>
      <path id="DejaVuSans-Bold-68" d="M 4056 2131 
L 4056 0 
L 2931 0 
L 2931 347 
L 2931 1625 
Q 2931 2084 2911 2256 
Q 2891 2428 2841 2509 
Q 2775 2619 2662 2680 
Q 2550 2741 2406 2741 
Q 2056 2741 1856 2470 
Q 1656 2200 1656 1722 
L 1656 0 
L 538 0 
L 538 4863 
L 1656 4863 
L 1656 2988 
Q 1909 3294 2193 3439 
Q 2478 3584 2822 3584 
Q 3428 3584 3742 3212 
Q 4056 2841 4056 2131 
z
" transform="scale(0.015625)"/>
      <path id="DejaVuSans-Bold-6f" d="M 2203 2784 
Q 1831 2784 1636 2517 
Q 1441 2250 1441 1747 
Q 1441 1244 1636 976 
Q 1831 709 2203 709 
Q 2569 709 2762 976 
Q 2956 1244 2956 1747 
Q 2956 2250 2762 2517 
Q 2569 2784 2203 2784 
z
M 2203 3584 
Q 3106 3584 3614 3096 
Q 4122 2609 4122 1747 
Q 4122 884 3614 396 
Q 3106 -91 2203 -91 
Q 1297 -91 786 396 
Q 275 884 275 1747 
Q 275 2609 786 3096 
Q 1297 3584 2203 3584 
z
" transform="scale(0.015625)"/>
      <path id="DejaVuSans-Bold-75" d="M 500 1363 
L 500 3500 
L 1625 3500 
L 1625 3150 
Q 1625 2866 1622 2436 
Q 1619 2006 1619 1863 
Q 1619 1441 1641 1255 
Q 1663 1069 1716 984 
Q 1784 875 1895 815 
Q 2006 756 2150 756 
Q 2500 756 2700 1025 
Q 2900 1294 2900 1772 
L 2900 3500 
L 4019 3500 
L 4019 0 
L 2900 0 
L 2900 506 
Q 2647 200 2364 54 
Q 2081 -91 1741 -91 
Q 1134 -91 817 281 
Q 500 653 500 1363 
z
" transform="scale(0.015625)"/>
      <path id="DejaVuSans-Bold-4d" d="M 588 4666 
L 2119 4666 
L 3181 2169 
L 4250 4666 
L 5778 4666 
L 5778 0 
L 4641 0 
L 4641 3413 
L 3566 897 
L 2803 897 
L 1728 3413 
L 1728 0 
L 588 0 
L 588 4666 
z
" transform="scale(0.015625)"/>
      <path id="DejaVuSans-Bold-43" d="M 4288 256 
Q 3956 84 3597 -3 
Q 3238 -91 2847 -91 
Q 1681 -91 1000 561 
Q 319 1213 319 2328 
Q 319 3447 1000 4098 
Q 1681 4750 2847 4750 
Q 3238 4750 3597 4662 
Q 3956 4575 4288 4403 
L 4288 3438 
Q 3953 3666 3628 3772 
Q 3303 3878 2944 3878 
Q 2300 3878 1931 3465 
Q 1563 3053 1563 2328 
Q 1563 1606 1931 1193 
Q 2300 781 2944 781 
Q 3303 781 3628 887 
Q 3953 994 4288 1222 
L 4288 256 
z
" transform="scale(0.015625)"/>
     </defs>
     <use xlink:href="#DejaVuSans-Bold-57"/>
     <use xlink:href="#DejaVuSans-Bold-69" transform="translate(110.302734 0)"/>
     <use xlink:href="#DejaVuSans-Bold-74" transform="translate(144.580078 0)"/>
     <use xlink:href="#DejaVuSans-Bold-68" transform="translate(192.382812 0)"/>
     <use xlink:href="#DejaVuSans-Bold-6f" transform="translate(263.574219 0)"/>
     <use xlink:href="#DejaVuSans-Bold-75" transform="translate(332.275391 0)"/>
     <use xlink:href="#DejaVuSans-Bold-74" transform="translate(403.466797 0)"/>
     <use xlink:href="#DejaVuSans-Bold-20" transform="translate(451.269531 0)"/>
     <use xlink:href="#DejaVuSans-Bold-4d" transform="translate(486.083984 0)"/>
     <use xlink:href="#DejaVuSans-Bold-49" transform="translate(585.595703 0)"/>
     <use xlink:href="#DejaVuSans-Bold-43" transform="translate(622.802734 0)"/>
    </g>
   </g>
   <g id="text_21">
    <!-- With MIC -->
    <g style="fill: #d94452" transform="translate(345.755163 41.22005) scale(0.14 -0.14)">
     <use xlink:href="#DejaVuSans-Bold-57"/>
     <use xlink:href="#DejaVuSans-Bold-69" transform="translate(110.302734 0)"/>
     <use xlink:href="#DejaVuSans-Bold-74" transform="translate(144.580078 0)"/>
     <use xlink:href="#DejaVuSans-Bold-68" transform="translate(192.382812 0)"/>
     <use xlink:href="#DejaVuSans-Bold-20" transform="translate(263.574219 0)"/>
     <use xlink:href="#DejaVuSans-Bold-4d" transform="translate(298.388672 0)"/>
     <use xlink:href="#DejaVuSans-Bold-49" transform="translate(397.900391 0)"/>
     <use xlink:href="#DejaVuSans-Bold-43" transform="translate(435.107422 0)"/>
    </g>
   </g>
  </g>
 </g>
 <defs>
  <clipPath id="p3abad7e483">
   <rect x="58.479375" y="17.798437" width="430.492926" height="255.676"/>
  </clipPath>
 </defs>
</svg>
