<?xml version="1.0" encoding="utf-8" standalone="no"?>
<!DOCTYPE svg PUBLIC "-//W3C//DTD SVG 1.1//EN"
  "http://www.w3.org/Graphics/SVG/1.1/DTD/svg11.dtd">
<svg xmlns:xlink="http://www.w3.org/1999/xlink" width="568.525211pt" height="316.792812pt" viewBox="0 0 568.525211 316.792812" xmlns="http://www.w3.org/2000/svg" version="1.1">
 <metadata>
  <rdf:RDF xmlns:dc="http://purl.org/dc/elements/1.1/" xmlns:cc="http://creativecommons.org/ns#" xmlns:rdf="http://www.w3.org/1999/02/22-rdf-syntax-ns#">
   <cc:Work>
    <dc:type rdf:resource="http://purl.org/dc/dcmitype/StillImage"/>
    <dc:date>2026-04-26T16:36:44.256284</dc:date>
    <dc:format>image/svg+xml</dc:format>
    <dc:creator>
     <cc:Agent>
      <dc:title>Matplotlib v3.10.8, https://matplotlib.org/</dc:title>
     </cc:Agent>
    </dc:creator>
   </cc:Work>
  </rdf:RDF>
 </metadata>
 <defs>
  <style type="text/css">*{stroke-linejoin: round; stroke-linecap: butt}</style>
 </defs>
 <g id="figure_1">
  <g id="patch_1">
   <path d="M 0 316.792812 
L 568.525211 316.792812 
L 568.525211 0 
L 0 0 
z
" style="fill: #ffffff"/>
  </g>
  <g id="axes_1">
   <g id="patch_2">
    <path d="M 48.029375 274.3975 
L 557.825836 274.3975 
L 557.825836 34.3575 
L 48.029375 34.3575 
z
" style="fill: #ffffff"/>
   </g>
   <g id="patch_3">
    <path d="M 48.029375 274.3975 
L 217.961529 274.3975 
L 217.961529 34.3575 
L 48.029375 34.3575 
z
" clip-path="url(#p81dd1489f3)" style="fill: #4a90d9; opacity: 0.15; stroke: #4a90d9; stroke-linejoin: miter"/>
   </g>
   <g id="patch_4">
    <path d="M 217.961529 274.3975 
L 387.893682 274.3975 
L 387.893682 34.3575 
L 217.961529 34.3575 
z
" clip-path="url(#p81dd1489f3)" style="fill: #5cb85c; opacity: 0.15; stroke: #5cb85c; stroke-linejoin: miter"/>
   </g>
   <g id="patch_5">
    <path d="M 387.893682 274.3975 
L 557.825836 274.3975 
L 557.825836 34.3575 
L 387.893682 34.3575 
z
" clip-path="url(#p81dd1489f3)" style="fill: #f0ad4e; opacity: 0.15; stroke: #f0ad4e; stroke-linejoin: miter"/>
   </g>
   <g id="matplotlib.axis_1">
    <g id="xtick_1">
     <g id="line2d_1">
      <defs>
       <path id="m4508dc996a" d="M 0 0 
L 0 3.5 
" style="stroke: #000000; stroke-width: 0.8"/>
      </defs>
      <g>
       <use xlink:href="#m4508dc996a" x="48.029375" y="274.3975" style="stroke: #000000; stroke-width: 0.8"/>
      </g>
     </g>
     <g id="text_1">
      <!-- 0 -->
      <g transform="translate(44.53 289.755781) scale(0.11 -0.11)">
       <defs>
        <path id="DejaVuSans-30" d="M 2034 4250 
Q 1547 4250 1301 3770 
Q 1056 3291 1056 2328 
Q 1056 1369 1301 889 
Q 1547 409 2034 409 
Q 2525 409 2770 889 
Q 3016 1369 3016 2328 
Q 3016 3291 2770 3770 
Q 2525 4250 2034 4250 
z
M 2034 4750 
Q 2819 4750 3233 4129 
Q 3647 3509 3647 2328 
Q 3647 1150 3233 529 
Q 2819 -91 2034 -91 
Q 1250 -91 836 529 
Q 422 1150 422 2328 
Q 422 3509 836 4129 
Q 1250 4750 2034 4750 
z
" transform="scale(0.015625)"/>
       </defs>
       <use xlink:href="#DejaVuSans-30"/>
      </g>
     </g>
    </g>
    <g id="xtick_2">
     <g id="line2d_2">
      <g>
       <use xlink:href="#m4508dc996a" x="132.995452" y="274.3975" style="stroke: #000000; stroke-width: 0.8"/>
      </g>
     </g>
     <g id="text_2">
      <!-- 1 -->
      <g transform="translate(129.496077 289.755781) scale(0.11 -0.11)">
       <defs>
        <path id="DejaVuSans-31" d="M 794 531 
L 1825 531 
L 1825 4091 
L 703 3866 
L 703 4441 
L 1819 4666 
L 2450 4666 
L 2450 531 
L 3481 531 
L 3481 0 
L 794 0 
L 794 531 
z
" transform="scale(0.015625)"/>
       </defs>
       <use xlink:href="#DejaVuSans-31"/>
      </g>
     </g>
    </g>
    <g id="xtick_3">
     <g id="line2d_3">
      <g>
       <use xlink:href="#m4508dc996a" x="217.961529" y="274.3975" style="stroke: #000000; stroke-width: 0.8"/>
      </g>
     </g>
     <g id="text_3">
      <!-- 2 -->
      <g transform="translate(214.462154 289.755781) scale(0.11 -0.11)">
       <defs>
        <path id="DejaVuSans-32" d="M 1228 531 
L 3431 531 
L 3431 0 
L 469 0 
L 469 531 
Q 828 903 1448 1529 
Q 2069 2156 2228 2338 
Q 2531 2678 2651 2914 
Q 2772 3150 2772 3378 
Q 2772 3750 2511 3984 
Q 2250 4219 1831 4219 
Q 1534 4219 1204 4116 
Q 875 4013 500 3803 
L 500 4441 
Q 881 4594 1212 4672 
Q 1544 4750 1819 4750 
Q 2544 4750 2975 4387 
Q 3406 4025 3406 3419 
Q 3406 3131 3298 2873 
Q 3191 2616 2906 2266 
Q 2828 2175 2409 1742 
Q 1991 1309 1228 531 
z
" transform="scale(0.015625)"/>
       </defs>
       <use xlink:href="#DejaVuSans-32"/>
      </g>
     </g>
    </g>
    <g id="xtick_4">
     <g id="line2d_4">
      <g>
       <use xlink:href="#m4508dc996a" x="302.927605" y="274.3975" style="stroke: #000000; stroke-width: 0.8"/>
      </g>
     </g>
     <g id="text_4">
      <!-- 3 -->
      <g transform="translate(299.42823 289.755781) scale(0.11 -0.11)">
       <defs>
        <path id="DejaVuSans-33" d="M 2597 2516 
Q 3050 2419 3304 2112 
Q 3559 1806 3559 1356 
Q 3559 666 3084 287 
Q 2609 -91 1734 -91 
Q 1441 -91 1130 -33 
Q 819 25 488 141 
L 488 750 
Q 750 597 1062 519 
Q 1375 441 1716 441 
Q 2309 441 2620 675 
Q 2931 909 2931 1356 
Q 2931 1769 2642 2001 
Q 2353 2234 1838 2234 
L 1294 2234 
L 1294 2753 
L 1863 2753 
Q 2328 2753 2575 2939 
Q 2822 3125 2822 3475 
Q 2822 3834 2567 4026 
Q 2313 4219 1838 4219 
Q 1578 4219 1281 4162 
Q 984 4106 628 3988 
L 628 4550 
Q 988 4650 1302 4700 
Q 1616 4750 1894 4750 
Q 2613 4750 3031 4423 
Q 3450 4097 3450 3541 
Q 3450 3153 3228 2886 
Q 3006 2619 2597 2516 
z
" transform="scale(0.015625)"/>
       </defs>
       <use xlink:href="#DejaVuSans-33"/>
      </g>
     </g>
    </g>
    <g id="xtick_5">
     <g id="line2d_5">
      <g>
       <use xlink:href="#m4508dc996a" x="387.893682" y="274.3975" style="stroke: #000000; stroke-width: 0.8"/>
      </g>
     </g>
     <g id="text_5">
      <!-- 4 -->
      <g transform="translate(384.394307 289.755781) scale(0.11 -0.11)">
       <defs>
        <path id="DejaVuSans-34" d="M 2419 4116 
L 825 1625 
L 2419 1625 
L 2419 4116 
z
M 2253 4666 
L 3047 4666 
L 3047 1625 
L 3713 1625 
L 3713 1100 
L 3047 1100 
L 3047 0 
L 2419 0 
L 2419 1100 
L 313 1100 
L 313 1709 
L 2253 4666 
z
" transform="scale(0.015625)"/>
       </defs>
       <use xlink:href="#DejaVuSans-34"/>
      </g>
     </g>
    </g>
    <g id="xtick_6">
     <g id="line2d_6">
      <g>
       <use xlink:href="#m4508dc996a" x="472.859759" y="274.3975" style="stroke: #000000; stroke-width: 0.8"/>
      </g>
     </g>
     <g id="text_6">
      <!-- 5 -->
      <g transform="translate(469.360384 289.755781) scale(0.11 -0.11)">
       <defs>
        <path id="DejaVuSans-35" d="M 691 4666 
L 3169 4666 
L 3169 4134 
L 1269 4134 
L 1269 2991 
Q 1406 3038 1543 3061 
Q 1681 3084 1819 3084 
Q 2600 3084 3056 2656 
Q 3513 2228 3513 1497 
Q 3513 744 3044 326 
Q 2575 -91 1722 -91 
Q 1428 -91 1123 -41 
Q 819 9 494 109 
L 494 744 
Q 775 591 1075 516 
Q 1375 441 1709 441 
Q 2250 441 2565 725 
Q 2881 1009 2881 1497 
Q 2881 1984 2565 2268 
Q 2250 2553 1709 2553 
Q 1456 2553 1204 2497 
Q 953 2441 691 2322 
L 691 4666 
z
" transform="scale(0.015625)"/>
       </defs>
       <use xlink:href="#DejaVuSans-35"/>
      </g>
     </g>
    </g>
    <g id="xtick_7">
     <g id="line2d_7">
      <g>
       <use xlink:href="#m4508dc996a" x="557.825836" y="274.3975" style="stroke: #000000; stroke-width: 0.8"/>
      </g>
     </g>
     <g id="text_7">
      <!-- 6 -->
      <g transform="translate(554.326461 289.755781) scale(0.11 -0.11)">
       <defs>
        <path id="DejaVuSans-36" d="M 2113 2584 
Q 1688 2584 1439 2293 
Q 1191 2003 1191 1497 
Q 1191 994 1439 701 
Q 1688 409 2113 409 
Q 2538 409 2786 701 
Q 3034 994 3034 1497 
Q 3034 2003 2786 2293 
Q 2538 2584 2113 2584 
z
M 3366 4563 
L 3366 3988 
Q 3128 4100 2886 4159 
Q 2644 4219 2406 4219 
Q 1781 4219 1451 3797 
Q 1122 3375 1075 2522 
Q 1259 2794 1537 2939 
Q 1816 3084 2150 3084 
Q 2853 3084 3261 2657 
Q 3669 2231 3669 1497 
Q 3669 778 3244 343 
Q 2819 -91 2113 -91 
Q 1303 -91 875 529 
Q 447 1150 447 2328 
Q 447 3434 972 4092 
Q 1497 4750 2381 4750 
Q 2619 4750 2861 4703 
Q 3103 4656 3366 4563 
z
" transform="scale(0.015625)"/>
       </defs>
       <use xlink:href="#DejaVuSans-36"/>
      </g>
     </g>
    </g>
    <g id="text_8">
     <!-- Time (s) -->
     <g transform="translate(270.709012 306.68125) scale(0.14 -0.14)">
      <defs>
       <path id="DejaVuSans-Bold-54" d="M 31 4666 
L 4331 4666 
L 4331 3756 
L 2784 3756 
L 2784 0 
L 1581 0 
L 1581 3756 
L 31 3756 
L 31 4666 
z
" transform="scale(0.015625)"/>
       <path id="DejaVuSans-Bold-69" d="M 538 3500 
L 1656 3500 
L 1656 0 
L 538 0 
L 538 3500 
z
M 538 4863 
L 1656 4863 
L 1656 3950 
L 538 3950 
L 538 4863 
z
" transform="scale(0.015625)"/>
       <path id="DejaVuSans-Bold-6d" d="M 3781 2919 
Q 3994 3244 4286 3414 
Q 4578 3584 4928 3584 
Q 5531 3584 5847 3212 
Q 6163 2841 6163 2131 
L 6163 0 
L 5038 0 
L 5038 1825 
Q 5041 1866 5042 1909 
Q 5044 1953 5044 2034 
Q 5044 2406 4934 2573 
Q 4825 2741 4581 2741 
Q 4263 2741 4089 2478 
Q 3916 2216 3909 1719 
L 3909 0 
L 2784 0 
L 2784 1825 
Q 2784 2406 2684 2573 
Q 2584 2741 2328 2741 
Q 2006 2741 1831 2477 
Q 1656 2213 1656 1722 
L 1656 0 
L 531 0 
L 531 3500 
L 1656 3500 
L 1656 2988 
Q 1863 3284 2130 3434 
Q 2397 3584 2719 3584 
Q 3081 3584 3359 3409 
Q 3638 3234 3781 2919 
z
" transform="scale(0.015625)"/>
       <path id="DejaVuSans-Bold-65" d="M 4031 1759 
L 4031 1441 
L 1416 1441 
Q 1456 1047 1700 850 
Q 1944 653 2381 653 
Q 2734 653 3104 758 
Q 3475 863 3866 1075 
L 3866 213 
Q 3469 63 3072 -14 
Q 2675 -91 2278 -91 
Q 1328 -91 801 392 
Q 275 875 275 1747 
Q 275 2603 792 3093 
Q 1309 3584 2216 3584 
Q 3041 3584 3536 3087 
Q 4031 2591 4031 1759 
z
M 2881 2131 
Q 2881 2450 2695 2645 
Q 2509 2841 2209 2841 
Q 1884 2841 1681 2658 
Q 1478 2475 1428 2131 
L 2881 2131 
z
" transform="scale(0.015625)"/>
       <path id="DejaVuSans-Bold-20" transform="scale(0.015625)"/>
       <path id="DejaVuSans-Bold-28" d="M 2413 -844 
L 1484 -844 
Q 1006 -72 778 623 
Q 550 1319 550 2003 
Q 550 2688 779 3389 
Q 1009 4091 1484 4856 
L 2413 4856 
Q 2013 4116 1813 3408 
Q 1613 2700 1613 2009 
Q 1613 1319 1811 609 
Q 2009 -100 2413 -844 
z
" transform="scale(0.015625)"/>
       <path id="DejaVuSans-Bold-73" d="M 3272 3391 
L 3272 2541 
Q 2913 2691 2578 2766 
Q 2244 2841 1947 2841 
Q 1628 2841 1473 2761 
Q 1319 2681 1319 2516 
Q 1319 2381 1436 2309 
Q 1553 2238 1856 2203 
L 2053 2175 
Q 2913 2066 3209 1816 
Q 3506 1566 3506 1031 
Q 3506 472 3093 190 
Q 2681 -91 1863 -91 
Q 1516 -91 1145 -36 
Q 775 19 384 128 
L 384 978 
Q 719 816 1070 734 
Q 1422 653 1784 653 
Q 2113 653 2278 743 
Q 2444 834 2444 1013 
Q 2444 1163 2330 1236 
Q 2216 1309 1875 1350 
L 1678 1375 
Q 931 1469 631 1722 
Q 331 1975 331 2491 
Q 331 3047 712 3315 
Q 1094 3584 1881 3584 
Q 2191 3584 2531 3537 
Q 2872 3491 3272 3391 
z
" transform="scale(0.015625)"/>
       <path id="DejaVuSans-Bold-29" d="M 513 -844 
Q 913 -100 1113 609 
Q 1313 1319 1313 2009 
Q 1313 2700 1113 3408 
Q 913 4116 513 4856 
L 1441 4856 
Q 1916 4091 2145 3389 
Q 2375 2688 2375 2003 
Q 2375 1319 2147 623 
Q 1919 -72 1441 -844 
L 513 -844 
z
" transform="scale(0.015625)"/>
      </defs>
      <use xlink:href="#DejaVuSans-Bold-54"/>
      <use xlink:href="#DejaVuSans-Bold-69" transform="translate(68.212891 0)"/>
      <use xlink:href="#DejaVuSans-Bold-6d" transform="translate(102.490234 0)"/>
      <use xlink:href="#DejaVuSans-Bold-65" transform="translate(206.689453 0)"/>
      <use xlink:href="#DejaVuSans-Bold-20" transform="translate(274.511719 0)"/>
      <use xlink:href="#DejaVuSans-Bold-28" transform="translate(309.326172 0)"/>
      <use xlink:href="#DejaVuSans-Bold-73" transform="translate(355.029297 0)"/>
      <use xlink:href="#DejaVuSans-Bold-29" transform="translate(414.550781 0)"/>
     </g>
    </g>
   </g>
   <g id="matplotlib.axis_2">
    <g id="ytick_1">
     <g id="line2d_8">
      <defs>
       <path id="m4226e0ea28" d="M 0 0 
L -3.5 0 
" style="stroke: #000000; stroke-width: 0.8"/>
      </defs>
      <g>
       <use xlink:href="#m4226e0ea28" x="48.029375" y="234.533123" style="stroke: #000000; stroke-width: 0.8"/>
      </g>
     </g>
     <g id="text_9">
      <!-- $\mathdefault{−2}$ -->
      <g transform="translate(24.749375 238.712263) scale(0.11 -0.11)">
       <defs>
        <path id="DejaVuSans-2212" d="M 678 2272 
L 4684 2272 
L 4684 1741 
L 678 1741 
L 678 2272 
z
" transform="scale(0.015625)"/>
       </defs>
       <use xlink:href="#DejaVuSans-2212" transform="translate(0 0.78125)"/>
       <use xlink:href="#DejaVuSans-32" transform="translate(83.789062 0.78125)"/>
      </g>
     </g>
    </g>
    <g id="ytick_2">
     <g id="line2d_9">
      <g>
       <use xlink:href="#m4226e0ea28" x="48.029375" y="194.455311" style="stroke: #000000; stroke-width: 0.8"/>
      </g>
     </g>
     <g id="text_10">
      <!-- $\mathdefault{−1}$ -->
      <g transform="translate(24.749375 198.634452) scale(0.11 -0.11)">
       <use xlink:href="#DejaVuSans-2212" transform="translate(0 0.09375)"/>
       <use xlink:href="#DejaVuSans-31" transform="translate(83.789062 0.09375)"/>
      </g>
     </g>
    </g>
    <g id="ytick_3">
     <g id="line2d_10">
      <g>
       <use xlink:href="#m4226e0ea28" x="48.029375" y="154.3775" style="stroke: #000000; stroke-width: 0.8"/>
      </g>
     </g>
     <g id="text_11">
      <!-- $\mathdefault{0}$ -->
      <g transform="translate(33.989375 158.556641) scale(0.11 -0.11)">
       <use xlink:href="#DejaVuSans-30" transform="translate(0 0.78125)"/>
      </g>
     </g>
    </g>
    <g id="ytick_4">
     <g id="line2d_11">
      <g>
       <use xlink:href="#m4226e0ea28" x="48.029375" y="114.299689" style="stroke: #000000; stroke-width: 0.8"/>
      </g>
     </g>
     <g id="text_12">
      <!-- $\mathdefault{1}$ -->
      <g transform="translate(33.989375 118.478829) scale(0.11 -0.11)">
       <use xlink:href="#DejaVuSans-31" transform="translate(0 0.09375)"/>
      </g>
     </g>
    </g>
    <g id="ytick_5">
     <g id="line2d_12">
      <g>
       <use xlink:href="#m4226e0ea28" x="48.029375" y="74.221877" style="stroke: #000000; stroke-width: 0.8"/>
      </g>
     </g>
     <g id="text_13">
      <!-- $\mathdefault{2}$ -->
      <g transform="translate(33.989375 78.401018) scale(0.11 -0.11)">
       <use xlink:href="#DejaVuSans-32" transform="translate(0 0.78125)"/>
      </g>
     </g>
    </g>
    <g id="text_14">
     <!-- I$_{sc}$ (mA/m²) -->
     <g transform="translate(17.837813 197.0075) rotate(-90) scale(0.14 -0.14)">
      <defs>
       <path id="DejaVuSans-Bold-49" d="M 588 4666 
L 1791 4666 
L 1791 0 
L 588 0 
L 588 4666 
z
" transform="scale(0.015625)"/>
       <path id="DejaVuSans-Oblique-73" d="M 3200 3397 
L 3091 2853 
Q 2863 2978 2609 3040 
Q 2356 3103 2088 3103 
Q 1634 3103 1373 2948 
Q 1113 2794 1113 2528 
Q 1113 2219 1719 2053 
Q 1766 2041 1788 2034 
L 1972 1978 
Q 2547 1819 2739 1644 
Q 2931 1469 2931 1166 
Q 2931 609 2489 259 
Q 2047 -91 1331 -91 
Q 1053 -91 747 -37 
Q 441 16 72 128 
L 184 722 
Q 500 559 806 475 
Q 1113 391 1394 391 
Q 1816 391 2080 572 
Q 2344 753 2344 1031 
Q 2344 1331 1650 1516 
L 1591 1531 
L 1394 1581 
Q 956 1697 753 1886 
Q 550 2075 550 2369 
Q 550 2928 970 3256 
Q 1391 3584 2113 3584 
Q 2397 3584 2667 3537 
Q 2938 3491 3200 3397 
z
" transform="scale(0.015625)"/>
       <path id="DejaVuSans-Oblique-63" d="M 3431 3366 
L 3316 2797 
Q 3109 2947 2876 3022 
Q 2644 3097 2394 3097 
Q 2119 3097 1870 3000 
Q 1622 2903 1453 2725 
Q 1184 2453 1037 2087 
Q 891 1722 891 1331 
Q 891 859 1127 628 
Q 1363 397 1844 397 
Q 2081 397 2348 469 
Q 2616 541 2906 684 
L 2797 116 
Q 2547 13 2283 -39 
Q 2019 -91 1741 -91 
Q 1044 -91 669 257 
Q 294 606 294 1253 
Q 294 1797 489 2255 
Q 684 2713 1069 3078 
Q 1331 3328 1684 3456 
Q 2038 3584 2456 3584 
Q 2700 3584 2940 3529 
Q 3181 3475 3431 3366 
z
" transform="scale(0.015625)"/>
       <path id="DejaVuSans-Bold-41" d="M 3419 850 
L 1538 850 
L 1241 0 
L 31 0 
L 1759 4666 
L 3194 4666 
L 4922 0 
L 3713 0 
L 3419 850 
z
M 1838 1716 
L 3116 1716 
L 2478 3572 
L 1838 1716 
z
" transform="scale(0.015625)"/>
       <path id="DejaVuSans-Bold-2f" d="M 1644 4666 
L 2338 4666 
L 691 -594 
L 0 -594 
L 1644 4666 
z
" transform="scale(0.015625)"/>
       <path id="DejaVuSans-Bold-b2" d="M 1288 2613 
L 2444 2613 
L 2444 2088 
L 341 2088 
L 341 2566 
L 1319 3397 
Q 1509 3563 1590 3688 
Q 1672 3813 1672 3938 
Q 1672 4094 1558 4191 
Q 1444 4288 1259 4288 
Q 1066 4288 844 4217 
Q 622 4147 359 4000 
L 359 4581 
Q 631 4666 886 4708 
Q 1141 4750 1375 4750 
Q 1869 4750 2150 4548 
Q 2431 4347 2431 4000 
Q 2431 3775 2320 3586 
Q 2209 3397 1894 3128 
L 1288 2613 
z
" transform="scale(0.015625)"/>
      </defs>
      <use xlink:href="#DejaVuSans-Bold-49" transform="translate(0 0.125)"/>
      <use xlink:href="#DejaVuSans-Oblique-73" transform="translate(38.164062 -16.28125) scale(0.7)"/>
      <use xlink:href="#DejaVuSans-Oblique-63" transform="translate(74.633789 -16.28125) scale(0.7)"/>
      <use xlink:href="#DejaVuSans-Bold-20" transform="translate(115.854492 0.125)"/>
      <use xlink:href="#DejaVuSans-Bold-28" transform="translate(150.668945 0.125)"/>
      <use xlink:href="#DejaVuSans-Bold-6d" transform="translate(196.37207 0.125)"/>
      <use xlink:href="#DejaVuSans-Bold-41" transform="translate(300.571289 0.125)"/>
      <use xlink:href="#DejaVuSans-Bold-2f" transform="translate(377.963867 0.125)"/>
      <use xlink:href="#DejaVuSans-Bold-6d" transform="translate(414.487305 0.125)"/>
      <use xlink:href="#DejaVuSans-Bold-b2" transform="translate(518.686523 0.125)"/>
      <use xlink:href="#DejaVuSans-Bold-29" transform="translate(562.485352 0.125)"/>
     </g>
    </g>
    <g id="text_15">
     <!-- $\times\mathdefault{10^{−3}}\mathdefault{}$ -->
     <g transform="translate(48.029375 31.3575) scale(0.1 -0.1)">
      <defs>
       <path id="DejaVuSans-d7" d="M 4488 3438 
L 3059 2003 
L 4488 575 
L 4116 197 
L 2681 1631 
L 1247 197 
L 878 575 
L 2303 2003 
L 878 3438 
L 1247 3816 
L 2681 2381 
L 4116 3816 
L 4488 3438 
z
" transform="scale(0.015625)"/>
      </defs>
      <use xlink:href="#DejaVuSans-d7" transform="translate(0 0.765625)"/>
      <use xlink:href="#DejaVuSans-31" transform="translate(83.789062 0.765625)"/>
      <use xlink:href="#DejaVuSans-30" transform="translate(147.412109 0.765625)"/>
      <use xlink:href="#DejaVuSans-2212" transform="translate(211.992188 39.046875) scale(0.7)"/>
      <use xlink:href="#DejaVuSans-33" transform="translate(270.644531 39.046875) scale(0.7)"/>
     </g>
    </g>
   </g>
   <g id="patch_6">
    <path d="M 48.029375 274.3975 
L 48.029375 34.3575 
" style="fill: none; stroke: #000000; stroke-width: 0.8; stroke-linejoin: miter; stroke-linecap: square"/>
   </g>
   <g id="patch_7">
    <path d="M 48.029375 274.3975 
L 557.825836 274.3975 
" style="fill: none; stroke: #000000; stroke-width: 0.8; stroke-linejoin: miter; stroke-linecap: square"/>
   </g>
   <g id="line2d_13">
    <path d="M 48.029375 151.551086 
L 48.284273 151.809241 
L 48.369239 151.809241 
L 48.539171 151.938318 
L 49.64373 152.42236 
L 50.068561 152.745055 
L 50.238493 152.680515 
L 50.918222 152.938671 
L 51.003188 153.100018 
L 51.088154 153.00321 
L 51.258086 153.132287 
L 51.59795 153.196826 
L 51.682916 153.261365 
L 51.767882 153.132287 
L 51.852848 153.196826 
L 52.107747 153.261365 
L 52.362645 153.358173 
L 52.617543 153.454982 
L 52.787475 153.454982 
L 52.957407 153.487251 
L 53.892034 153.584059 
L 54.316865 153.680868 
L 54.826661 153.584059 
L 55.081559 153.616329 
L 55.336458 153.777676 
L 55.846254 153.874484 
L 56.101152 153.809945 
L 56.441017 153.777676 
L 56.610949 153.874484 
L 57.205711 154.035831 
L 57.800474 153.874484 
L 57.970406 154.003562 
L 58.055372 153.874484 
L 58.225304 154.035831 
L 58.565169 154.10037 
L 58.650135 154.164909 
L 58.820067 154.068101 
L 58.989999 154.068101 
L 59.499795 154.164909 
L 59.669728 154.164909 
L 59.83966 154.261717 
L 60.434422 154.197178 
L 60.68932 154.068101 
L 60.859253 154.164909 
L 60.944219 154.13264 
L 61.199117 154.261717 
L 61.963812 154.068101 
L 62.388642 154.261717 
L 62.64354 154.229448 
L 62.813472 154.293987 
L 62.983405 154.197178 
L 63.068371 154.229448 
L 63.238303 154.164909 
L 63.408235 154.229448 
L 63.578167 154.13264 
L 64.17293 154.261717 
L 64.767692 154.068101 
L 64.937624 154.068101 
L 65.02259 154.003562 
L 65.192523 154.164909 
L 65.872251 154.13264 
L 66.127149 154.003562 
L 66.382048 154.13264 
L 66.55198 154.13264 
L 66.97681 154.197178 
L 67.486607 154.164909 
L 67.656539 154.10037 
L 68.251301 154.13264 
L 68.421233 154.229448 
L 68.591166 154.229448 
L 68.761098 154.197178 
L 69.185928 154.13264 
L 69.525792 154.197178 
L 69.695725 154.293987 
L 69.865657 154.261717 
L 69.950623 154.326256 
L 70.120555 154.197178 
L 70.290487 154.164909 
L 70.545385 154.068101 
L 70.715318 154.13264 
L 70.88525 154.164909 
L 71.055182 154.197178 
L 71.225114 154.229448 
L 71.73491 154.13264 
L 71.904843 154.13264 
L 72.584571 154.293987 
L 73.009402 154.197178 
L 73.2643 154.197178 
L 73.859062 154.293987 
L 74.113961 154.326256 
L 74.283893 154.229448 
L 74.453825 154.293987 
L 74.623757 154.229448 
L 74.878655 154.229448 
L 75.21852 154.293987 
L 75.473418 154.358526 
L 75.983214 154.293987 
L 76.06818 154.197178 
L 76.238113 154.261717 
L 76.832875 154.423064 
L 77.087773 154.358526 
L 77.172739 154.423064 
L 77.342672 154.293987 
L 77.852468 154.390795 
L 79.721722 154.487603 
L 79.806688 154.552142 
L 80.061586 154.390795 
L 80.231518 154.358526 
L 80.486416 154.326256 
L 80.656348 154.358526 
L 81.845874 154.326256 
L 82.015806 154.293987 
L 82.440636 154.390795 
L 82.7805 154.326256 
L 82.950433 154.293987 
L 83.800093 154.326256 
L 83.885059 154.455334 
L 83.970025 154.390795 
L 84.224924 154.390795 
L 84.479822 154.229448 
L 84.649754 154.261717 
L 84.989618 154.293987 
L 85.159551 154.326256 
L 85.414449 154.423064 
L 85.839279 154.358526 
L 86.773906 154.390795 
L 86.858872 154.519873 
L 86.943838 154.455334 
L 87.623567 154.293987 
L 87.878465 154.390795 
L 88.303295 154.455334 
L 88.813092 154.358526 
L 89.662753 154.423064 
L 89.832685 154.423064 
L 90.002617 154.390795 
L 90.427447 154.293987 
L 90.682346 154.423064 
L 90.937244 154.423064 
L 91.701938 154.326256 
L 91.956837 154.293987 
L 92.126769 154.455334 
L 92.296701 154.423064 
L 92.636565 154.455334 
L 93.061396 154.390795 
L 93.316294 154.326256 
L 93.40126 154.487603 
L 93.486226 154.423064 
L 93.741124 154.519873 
L 95.100582 154.552142 
L 95.270514 154.584412 
L 95.440446 154.584412 
L 95.950242 154.423064 
L 96.205141 154.519873 
L 97.394666 154.455334 
L 97.564598 154.390795 
L 97.649564 154.519873 
L 97.73453 154.455334 
L 97.989428 154.584412 
L 98.329292 154.616681 
L 98.839089 154.519873 
L 99.093987 154.552142 
L 99.348885 154.68122 
L 100.11358 154.487603 
L 100.963241 154.584412 
L 101.048207 154.64895 
L 101.303105 154.487603 
L 102.152766 154.584412 
L 102.322698 154.616681 
L 102.832495 154.519873 
L 102.917461 154.487603 
L 103.087393 154.519873 
L 103.682155 154.616681 
L 103.937054 154.616681 
L 104.02202 154.552142 
L 104.106986 154.68122 
L 104.276918 154.487603 
L 104.44685 154.519873 
L 105.381477 154.778028 
L 105.636375 154.713489 
L 106.486036 154.778028 
L 106.655968 154.907106 
L 107.080798 154.842567 
L 107.335697 154.842567 
L 107.505629 154.874836 
L 107.930459 155.068453 
L 108.270323 155.132992 
L 108.440256 155.068453 
L 108.525222 155.132992 
L 108.695154 155.036184 
L 109.035018 155.132992 
L 109.629781 155.262069 
L 110.309509 155.326608 
L 110.564408 155.520225 
L 110.649374 155.487956 
L 110.904272 155.617034 
L 111.15917 155.746111 
L 111.329102 155.746111 
L 111.753933 155.842919 
L 112.178763 156.165614 
L 113.028424 156.391499 
L 113.198356 156.488308 
L 113.453254 156.681924 
L 113.963051 157.004619 
L 114.048017 156.972349 
L 114.217949 157.133696 
L 114.387881 157.165966 
L 115.322508 158.06951 
L 115.49244 158.101779 
L 117.191762 160.167022 
L 117.786524 161.070567 
L 118.721151 162.264535 
L 119.40088 163.555312 
L 119.740744 163.716659 
L 119.82571 163.845737 
L 119.995642 163.781197 
L 120.165574 163.813467 
L 120.590405 163.716659 
L 120.930269 163.361695 
L 121.270133 162.684037 
L 121.609998 162.038649 
L 121.864896 161.651415 
L 122.459658 158.714898 
L 122.62959 157.295043 
L 123.394285 144.677697 
L 123.564217 144.225921 
L 123.734149 144.548618 
L 124.243946 147.097904 
L 124.753742 149.163147 
L 124.923675 149.389034 
L 125.093607 149.389034 
L 125.263539 149.195417 
L 126.198166 147.646484 
L 126.453064 147.581945 
L 126.622996 147.646484 
L 126.792928 147.646484 
L 126.96286 147.807831 
L 127.047826 147.775562 
L 127.642589 148.356412 
L 128.067419 148.45322 
L 128.91708 148.872722 
L 132.400689 151.389738 
L 133.080418 151.647893 
L 133.25035 151.84151 
L 133.505248 151.906049 
L 133.760147 152.099666 
L 134.184977 152.099666 
L 134.439875 152.357821 
L 134.949672 152.583707 
L 135.034638 152.712785 
L 135.119604 152.648246 
L 136.648993 153.132287 
L 137.413688 153.229095 
L 137.668586 153.293635 
L 137.923484 153.325904 
L 138.433281 153.229095 
L 139.282942 153.487251 
L 139.452874 153.422712 
L 139.622806 153.454982 
L 139.877704 153.390443 
L 140.132602 153.55179 
L 140.302534 153.584059 
L 140.642399 153.648598 
L 140.982263 153.616329 
L 141.237161 153.648598 
L 141.407093 153.616329 
L 141.746958 153.745406 
L 142.001856 153.842215 
L 142.171788 153.842215 
L 142.511652 153.680868 
L 143.021449 153.809945 
L 143.106415 153.745406 
L 143.276347 153.874484 
L 143.446279 153.906754 
L 143.701178 153.939023 
L 143.87111 153.842215 
L 144.041042 153.874484 
L 144.126008 153.777676 
L 144.210974 153.906754 
L 144.29594 153.842215 
L 144.975669 154.003562 
L 145.145601 153.939023 
L 145.315533 153.906754 
L 145.400499 153.939023 
L 145.485465 153.842215 
L 145.570431 153.939023 
L 145.740363 153.809945 
L 146.080228 153.971292 
L 146.165194 153.939023 
L 146.335126 154.035831 
L 146.67499 153.874484 
L 146.844922 153.906754 
L 147.014854 153.906754 
L 147.609617 154.068101 
L 148.20438 153.906754 
L 148.544244 153.939023 
L 149.563837 153.874484 
L 149.733769 153.809945 
L 149.988667 153.809945 
L 150.073633 153.939023 
L 150.158599 153.874484 
L 150.243565 153.842215 
L 150.413498 153.906754 
L 151.942887 153.906754 
L 152.027853 154.035831 
L 152.282751 153.906754 
L 152.367717 153.842215 
L 152.537649 153.906754 
L 152.622616 153.777676 
L 152.707582 153.842215 
L 152.96248 153.906754 
L 153.047446 153.971292 
L 153.132412 153.874484 
L 153.217378 153.971292 
L 153.302344 153.874484 
L 153.472276 153.971292 
L 153.557242 153.939023 
L 153.642208 154.035831 
L 153.897107 153.906754 
L 154.067039 153.971292 
L 154.236971 154.003562 
L 154.406903 153.971292 
L 154.661801 154.164909 
L 154.831734 153.939023 
L 155.001666 154.035831 
L 155.171598 153.842215 
L 155.426496 153.939023 
L 155.681394 153.842215 
L 155.76636 153.842215 
L 155.936293 154.035831 
L 156.021259 153.971292 
L 156.106225 154.229448 
L 156.276157 153.906754 
L 156.361123 153.874484 
L 156.446089 154.10037 
L 156.700987 153.842215 
L 156.785953 154.197178 
L 157.040852 153.680868 
L 157.29575 154.003562 
L 157.465682 153.939023 
L 157.550648 154.10037 
L 157.635614 154.035831 
L 157.805546 154.035831 
L 158.230377 153.713137 
L 158.485275 153.971292 
L 158.570241 153.809945 
L 158.910105 154.10037 
L 158.995071 154.003562 
L 159.165003 154.13264 
L 159.844732 153.874484 
L 160.184596 154.13264 
L 160.269562 153.874484 
L 160.354529 153.971292 
L 160.439495 153.874484 
L 160.524461 154.390795 
L 160.694393 154.197178 
L 160.779359 154.197178 
L 160.949291 153.939023 
L 161.034257 153.939023 
L 161.119223 154.164909 
L 161.204189 153.874484 
L 161.289155 154.197178 
L 161.374121 153.842215 
L 161.544054 154.293987 
L 161.62902 154.13264 
L 162.05385 154.10037 
L 162.138816 154.261717 
L 162.308748 154.003562 
L 162.648613 154.003562 
L 162.903511 154.197178 
L 163.073443 154.164909 
L 163.158409 154.326256 
L 163.243375 154.261717 
L 163.753172 154.13264 
L 163.923104 154.13264 
L 164.093036 154.13264 
L 164.602832 154.229448 
L 164.857731 154.164909 
L 164.942697 154.035831 
L 165.027663 154.10037 
L 165.282561 154.13264 
L 165.537459 154.035831 
L 165.707391 154.13264 
L 169.360933 154.068101 
L 169.445899 153.971292 
L 169.615831 154.003562 
L 169.955695 154.10037 
L 170.29556 154.261717 
L 170.465492 154.164909 
L 173.949101 154.068101 
L 174.034067 154.003562 
L 174.373931 154.229448 
L 174.628829 154.164909 
L 175.138626 154.10037 
L 175.393524 154.035831 
L 175.903321 154.13264 
L 178.452303 154.164909 
L 178.707201 154.358526 
L 178.877133 154.261717 
L 179.132032 154.261717 
L 180.236591 154.326256 
L 180.406523 154.390795 
L 181.086251 154.164909 
L 181.256183 154.197178 
L 181.850946 154.293987 
L 181.935912 154.326256 
L 182.020878 154.197178 
L 182.105844 154.261717 
L 182.360742 154.13264 
L 182.700607 154.326256 
L 182.870539 154.261717 
L 183.125437 154.358526 
L 183.975098 154.261717 
L 184.14503 154.261717 
L 184.314962 154.390795 
L 184.399928 154.293987 
L 184.484894 154.423064 
L 184.56986 154.293987 
L 184.739793 154.358526 
L 185.164623 154.164909 
L 185.419521 154.229448 
L 185.504487 154.326256 
L 185.674419 154.261717 
L 185.759386 154.261717 
L 185.844352 154.390795 
L 185.929318 154.326256 
L 186.014284 154.229448 
L 186.184216 154.293987 
L 186.439114 154.197178 
L 186.609046 154.197178 
L 187.373741 154.423064 
L 187.883537 154.261717 
L 188.138436 154.326256 
L 188.223402 154.293987 
L 188.393334 154.390795 
L 188.988096 154.423064 
L 189.158029 154.487603 
L 189.412927 154.390795 
L 189.582859 154.390795 
L 189.667825 154.390795 
L 189.837757 154.552142 
L 191.197214 154.64895 
L 191.367147 154.68122 
L 192.301773 154.745759 
L 192.556672 154.842567 
L 192.641638 154.810298 
L 192.896536 154.939375 
L 192.981502 154.971645 
L 193.151434 154.939375 
L 194.086061 155.003914 
L 194.425925 155.2298 
L 194.510891 155.262069 
L 194.680824 155.197531 
L 195.105654 155.294339 
L 195.275586 155.294339 
L 195.785383 155.617034 
L 195.955315 155.649302 
L 196.210213 155.713842 
L 196.635043 155.810649 
L 197.484704 156.391499 
L 197.654636 156.359231 
L 197.994501 156.456038 
L 198.334365 156.681924 
L 199.94872 157.940431 
L 200.203619 158.327665 
L 200.373551 158.392204 
L 200.628449 158.58582 
L 200.968313 158.940785 
L 201.563076 159.844328 
L 202.072872 160.425178 
L 202.582669 161.167375 
L 203.687228 163.07127 
L 203.942126 163.361695 
L 204.197024 163.619851 
L 204.451922 163.684389 
L 204.791787 163.458504 
L 205.131651 163.393965 
L 205.641448 162.909924 
L 205.896346 162.329074 
L 206.151244 161.812763 
L 206.23621 161.748224 
L 206.576074 160.554255 
L 207.170837 156.746463 
L 207.935532 144.45181 
L 208.105464 144.193658 
L 208.275396 144.709965 
L 209.210023 148.872722 
L 209.464921 149.324495 
L 209.719819 149.130878 
L 209.974717 148.775914 
L 210.484514 147.678753 
L 210.654446 147.485137 
L 210.99431 147.420598 
L 211.419141 147.678753 
L 211.843971 147.87237 
L 212.438734 148.162795 
L 212.608666 148.356412 
L 213.628259 148.808184 
L 214.307987 149.453572 
L 214.477919 149.58265 
L 214.817784 149.840805 
L 215.157648 150.066692 
L 215.497512 150.421655 
L 215.837377 150.583002 
L 215.922343 150.712081 
L 216.007309 150.647541 
L 217.366766 151.551086 
L 217.70663 151.647893 
L 217.876563 151.680163 
L 217.876563 151.680163 
" clip-path="url(#p81dd1489f3)" style="fill: none; stroke: #d94452; stroke-width: 0.8; stroke-linecap: square"/>
   </g>
   <g id="line2d_14">
    <path d="M 217.961529 152.874132 
L 218.386359 152.938671 
L 218.556291 153.132287 
L 218.726223 153.100018 
L 219.066088 153.229095 
L 219.23602 153.100018 
L 219.405952 153.196826 
L 219.575884 153.196826 
L 220.680443 153.584059 
L 220.935341 153.51952 
L 221.020307 153.487251 
L 221.105273 153.648598 
L 221.19024 153.584059 
L 221.360172 153.680868 
L 221.530104 153.777676 
L 222.634663 153.842215 
L 222.974527 154.003562 
L 223.56929 153.874484 
L 223.824188 153.939023 
L 223.99412 153.939023 
L 224.41895 154.164909 
L 224.673849 154.068101 
L 224.843781 154.003562 
L 225.013713 153.971292 
L 225.608476 154.068101 
L 225.863374 154.197178 
L 226.37317 154.10037 
L 226.543102 154.13264 
L 226.967933 154.197178 
L 227.307797 154.358526 
L 227.477729 154.358526 
L 227.987526 154.261717 
L 228.157458 154.229448 
L 228.242424 154.358526 
L 228.32739 154.293987 
L 228.412356 154.261717 
L 228.582288 154.358526 
L 228.75222 154.390795 
L 228.837186 154.423064 
L 229.007119 154.293987 
L 229.177051 154.358526 
L 229.516915 154.326256 
L 229.856779 154.358526 
L 229.941745 154.358526 
L 230.111678 154.455334 
L 230.366576 154.326256 
L 230.536508 154.229448 
L 230.621474 154.326256 
L 230.70644 154.229448 
L 230.876372 154.358526 
L 230.961338 154.229448 
L 231.131271 154.423064 
L 231.216237 154.390795 
L 231.301203 154.552142 
L 231.386169 154.455334 
L 231.471135 154.584412 
L 231.556101 154.519873 
L 231.726033 154.68122 
L 232.065897 154.390795 
L 232.150863 154.519873 
L 232.23583 154.390795 
L 232.490728 154.552142 
L 232.66066 154.487603 
L 233.340389 154.68122 
L 233.510321 154.713489 
L 233.765219 154.745759 
L 233.935151 154.778028 
L 234.275015 155.197531 
L 234.529914 155.197531 
L 234.699846 155.423417 
L 235.209642 155.681572 
L 235.46454 156.068806 
L 235.889371 156.940079 
L 236.144269 157.262774 
L 236.484133 157.972701 
L 237.588692 162.038649 
L 238.098489 165.265589 
L 238.693251 170.041462 
L 239.288014 174.333294 
L 239.542912 174.785071 
L 239.712844 174.268759 
L 239.967743 171.84855 
L 240.817403 156.036536 
L 241.242234 146.162091 
L 241.582098 142.806074 
L 241.836996 141.773449 
L 242.176861 141.41848 
L 242.431759 141.41848 
L 242.771623 141.547561 
L 242.941555 141.579833 
L 243.28142 141.999338 
L 243.70625 142.806074 
L 244.725843 145.903935 
L 245.66047 148.45322 
L 247.189859 151.131583 
L 248.549316 152.261013 
L 248.804215 152.519168 
L 248.889181 152.357821 
L 249.144079 152.615976 
L 249.314011 152.486898 
L 249.568909 152.809593 
L 249.908774 152.841863 
L 249.99374 152.777323 
L 250.078706 152.97094 
L 250.163672 152.777323 
L 250.41857 152.97094 
L 250.673468 152.874132 
L 250.8434 152.841863 
L 251.013333 152.874132 
L 251.353197 153.00321 
L 251.862993 153.100018 
L 252.117892 153.035479 
L 252.287824 153.196826 
L 252.882586 153.261365 
L 253.137484 153.390443 
L 253.562315 153.325904 
L 253.817213 153.422712 
L 254.242043 153.648598 
L 255.091704 153.745406 
L 255.856399 153.939023 
L 256.451161 153.809945 
L 256.70606 153.971292 
L 256.960958 153.971292 
L 257.385788 154.068101 
L 257.725653 154.003562 
L 257.980551 154.003562 
L 258.405381 154.10037 
L 258.745246 154.13264 
L 259.50994 154.229448 
L 259.679872 154.261717 
L 259.849805 154.293987 
L 260.019737 154.326256 
L 260.274635 154.261717 
L 260.444567 154.229448 
L 261.294228 154.487603 
L 261.46416 154.455334 
L 261.804024 154.358526 
L 262.058923 154.293987 
L 262.313821 154.390795 
L 262.738651 154.487603 
L 263.078515 154.326256 
L 263.248448 154.423064 
L 263.588312 154.293987 
L 263.928176 154.390795 
L 264.013142 154.519873 
L 264.098108 154.455334 
L 264.183074 154.423064 
L 264.268041 154.584412 
L 264.353007 154.519873 
L 264.522939 154.519873 
L 264.692871 154.552142 
L 264.777837 154.326256 
L 264.947769 154.487603 
L 265.79743 154.713489 
L 266.22226 154.584412 
L 266.477159 154.64895 
L 266.986955 154.778028 
L 267.156887 155.003914 
L 267.241853 154.907106 
L 267.411785 155.036184 
L 267.581718 155.003914 
L 268.261446 155.617034 
L 268.346412 155.681572 
L 268.516344 155.907458 
L 268.686277 156.068806 
L 269.535937 157.553199 
L 269.960768 158.65036 
L 270.1307 159.19894 
L 270.385598 160.037945 
L 270.55553 160.651064 
L 270.980361 162.942192 
L 272.169886 171.784015 
L 272.594716 174.688263 
L 272.764648 175.01096 
L 272.93458 174.494648 
L 273.189479 172.429398 
L 274.039139 156.940079 
L 274.548936 145.516702 
L 274.8888 142.580185 
L 275.228664 141.773449 
L 275.568529 141.612096 
L 275.823427 141.579833 
L 275.993359 141.547561 
L 276.248257 141.644369 
L 276.588122 142.192954 
L 276.927986 143.031953 
L 278.202477 146.678401 
L 278.457375 147.517406 
L 278.627307 147.87237 
L 279.137104 148.840453 
L 279.392002 149.485842 
L 281.006358 151.776971 
L 281.856018 152.42236 
L 282.025951 152.325551 
L 282.535747 152.874132 
L 282.705679 152.680515 
L 282.875611 152.97094 
L 282.960577 152.906401 
L 283.045543 153.035479 
L 283.215476 152.777323 
L 283.470374 152.874132 
L 283.55534 152.874132 
L 283.640306 153.067748 
L 283.810238 153.00321 
L 283.895204 153.132287 
L 283.98017 153.00321 
L 284.150102 153.067748 
L 284.489967 152.97094 
L 284.659899 153.100018 
L 284.829831 153.100018 
L 284.914797 153.067748 
L 285.169695 153.261365 
L 285.339628 153.358173 
L 286.189288 153.325904 
L 286.274254 153.487251 
L 286.35922 153.422712 
L 286.699085 153.584059 
L 287.548746 153.648598 
L 287.88861 153.777676 
L 288.568338 153.971292 
L 288.738271 153.842215 
L 288.908203 153.874484 
L 289.757864 154.10037 
L 290.182694 154.035831 
L 290.69249 154.10037 
L 291.032355 154.229448 
L 291.712083 154.068101 
L 292.731676 154.358526 
L 292.986574 154.293987 
L 293.496371 154.358526 
L 293.751269 154.455334 
L 295.280659 154.487603 
L 295.450591 154.519873 
L 295.620523 154.64895 
L 295.790455 154.455334 
L 295.960387 154.423064 
L 296.215285 154.519873 
L 296.300251 154.390795 
L 296.470184 154.584412 
L 296.895014 154.519873 
L 297.064946 154.519873 
L 297.40481 154.552142 
L 297.744675 154.616681 
L 298.084539 154.778028 
L 298.679302 154.713489 
L 298.764268 154.64895 
L 298.849234 154.778028 
L 298.9342 154.713489 
L 299.019166 154.745759 
L 299.104132 154.64895 
L 299.189098 154.810298 
L 299.274064 154.745759 
L 299.613928 154.874836 
L 299.868827 154.778028 
L 300.038759 154.907106 
L 300.208691 154.907106 
L 301.143318 155.617034 
L 301.398216 155.487956 
L 302.927605 157.811354 
L 303.352436 159.16667 
L 303.777266 160.780142 
L 304.287063 163.361695 
L 304.626927 165.556013 
L 305.816452 174.365567 
L 305.986384 174.688263 
L 306.07135 174.688263 
L 306.326249 173.462023 
L 306.666113 168.847494 
L 307.090943 163.07127 
L 307.855638 144.742235 
L 308.195502 142.418832 
L 308.4504 141.708904 
L 308.790265 141.515288 
L 309.554959 141.90253 
L 310.234688 143.064225 
L 312.35884 149.163147 
L 312.613738 149.679459 
L 312.698704 149.711727 
L 313.548365 151.228391 
L 313.633331 151.228391 
L 313.888229 151.518816 
L 314.482992 152.099666 
L 314.652924 152.067396 
L 315.332653 152.745055 
L 315.502585 152.712785 
L 315.587551 152.841863 
L 315.672517 152.745055 
L 315.842449 152.841863 
L 316.862042 153.132287 
L 317.286872 153.00321 
L 317.456805 153.100018 
L 317.711703 153.132287 
L 317.881635 153.196826 
L 318.391431 153.293635 
L 318.476398 153.261365 
L 318.64633 153.325904 
L 319.07116 153.422712 
L 319.835855 153.616329 
L 320.005787 153.648598 
L 320.430617 153.713137 
L 320.685516 153.777676 
L 321.195312 153.874484 
L 321.705108 153.906754 
L 321.875041 153.971292 
L 322.554769 154.164909 
L 322.809667 154.035831 
L 323.489396 154.13264 
L 324.084159 154.261717 
L 324.339057 154.13264 
L 324.508989 154.229448 
L 324.678921 154.197178 
L 325.103752 154.261717 
L 325.273684 154.293987 
L 325.868446 154.293987 
L 326.038378 154.423064 
L 326.208311 154.423064 
L 327.397836 154.519873 
L 327.992598 154.68122 
L 328.247496 154.616681 
L 329.182123 154.713489 
L 329.521988 154.745759 
L 330.11675 154.584412 
L 330.201716 154.745759 
L 330.286682 154.68122 
L 330.371648 154.64895 
L 330.54158 154.810298 
L 330.626547 154.713489 
L 330.796479 154.842567 
L 331.221309 154.778028 
L 331.306275 154.971645 
L 331.391241 154.842567 
L 331.476207 154.907106 
L 331.731106 154.907106 
L 331.816072 155.036184 
L 331.901038 154.971645 
L 331.986004 154.907106 
L 332.155936 155.036184 
L 332.410834 154.907106 
L 332.4958 154.939375 
L 332.750698 154.778028 
L 333.005597 154.939375 
L 333.175529 155.003914 
L 333.430427 155.100722 
L 333.515393 155.100722 
L 333.685325 155.358878 
L 333.855257 155.262069 
L 334.619952 155.584764 
L 335.129749 156.326961 
L 335.214715 156.326961 
L 335.724511 157.198235 
L 335.809477 157.198235 
L 336.999002 160.618795 
L 337.423833 162.619499 
L 339.20812 175.333646 
L 339.293086 175.301384 
L 339.463019 174.849607 
L 339.717917 172.268055 
L 340.482611 159.134401 
L 340.992408 146.517054 
L 341.332272 142.870609 
L 341.672136 141.967065 
L 341.927035 141.837984 
L 342.096967 141.837984 
L 342.266899 141.741177 
L 342.691729 141.708904 
L 342.861662 141.967065 
L 342.946628 141.934792 
L 343.031594 142.38657 
L 343.11656 142.354297 
L 343.456424 143.225568 
L 343.881254 144.45181 
L 345.240712 148.356412 
L 345.325678 148.45322 
L 345.665542 149.356764 
L 345.750508 149.421303 
L 346.005406 150.066692 
L 346.090372 150.002152 
L 346.430237 150.970236 
L 346.515203 150.905696 
L 346.855067 151.260661 
L 346.940033 151.29293 
L 347.194931 151.712433 
L 347.279898 151.744701 
L 347.534796 152.196474 
L 347.959626 152.39009 
L 348.044592 152.615976 
L 348.214524 152.486898 
L 348.384457 152.745055 
L 348.554389 152.745055 
L 348.809287 153.067748 
L 349.149151 153.196826 
L 349.489016 153.261365 
L 349.573982 153.229095 
L 349.658948 153.390443 
L 349.82888 153.067748 
L 349.998812 153.293635 
L 350.168744 153.261365 
L 350.25371 153.229095 
L 350.338676 153.454982 
L 350.423642 153.422712 
L 350.508608 153.55179 
L 350.678541 153.390443 
L 350.848473 153.55179 
L 350.933439 153.261365 
L 351.188337 153.51952 
L 351.273303 153.422712 
L 351.358269 153.55179 
L 351.443235 153.390443 
L 351.613167 153.55179 
L 351.698134 153.325904 
L 351.868066 153.648598 
L 351.953032 153.713137 
L 352.037998 153.616329 
L 352.20793 153.648598 
L 352.887659 153.713137 
L 353.227523 153.906754 
L 353.482421 153.906754 
L 354.417048 154.003562 
L 354.756912 154.164909 
L 354.841878 154.10037 
L 354.926844 154.229448 
L 355.011811 154.164909 
L 355.181743 154.10037 
L 355.861471 154.197178 
L 356.11637 154.261717 
L 356.371268 154.261717 
L 356.796098 154.164909 
L 356.96603 154.261717 
L 357.050996 154.197178 
L 357.390861 154.423064 
L 357.645759 154.455334 
L 358.155555 154.293987 
L 358.240521 154.358526 
L 358.410454 154.326256 
L 359.260114 154.552142 
L 360.194741 154.64895 
L 360.704538 154.778028 
L 361.129368 154.68122 
L 361.554198 154.810298 
L 361.639165 154.745759 
L 361.809097 154.778028 
L 362.233927 154.842567 
L 362.658757 154.745759 
L 362.913656 154.842567 
L 363.083588 154.778028 
L 363.25352 154.842567 
L 363.423452 154.810298 
L 363.508418 154.907106 
L 363.67835 154.778028 
L 363.763316 155.036184 
L 363.848283 154.939375 
L 364.273113 154.874836 
L 364.697943 155.068453 
L 365.377672 155.036184 
L 365.547604 154.939375 
L 366.142367 155.068453 
L 366.227333 155.003914 
L 366.397265 155.100722 
L 366.737129 155.036184 
L 368.606383 156.585116 
L 369.286111 157.875893 
L 369.54101 158.424473 
L 369.96584 159.586173 
L 370.815501 163.587581 
L 371.410263 167.879414 
L 372.34489 174.720536 
L 372.514822 175.01096 
L 372.769721 174.171951 
L 373.024619 171.36451 
L 373.704347 160.231561 
L 374.214144 147.097904 
L 374.469042 143.967769 
L 374.72394 142.580185 
L 375.063805 141.90253 
L 375.233737 141.837984 
L 375.403669 141.741177 
L 375.828499 141.741177 
L 376.763126 143.225568 
L 378.037617 147.194713 
L 378.377482 148.001448 
L 379.05721 149.743997 
L 380.671566 152.002858 
L 380.841498 152.002858 
L 381.01143 152.228743 
L 381.181362 152.261013 
L 381.43626 152.551438 
L 381.776125 152.97094 
L 382.031023 152.97094 
L 382.200955 153.100018 
L 382.880684 153.390443 
L 382.96565 153.229095 
L 383.305514 153.454982 
L 383.730345 153.390443 
L 383.900277 153.261365 
L 384.240141 153.454982 
L 384.325107 153.422712 
L 384.580005 153.584059 
L 384.749937 153.55179 
L 384.834904 153.422712 
L 384.91987 153.55179 
L 385.089802 153.487251 
L 385.174768 153.680868 
L 385.429666 153.55179 
L 385.76953 153.616329 
L 386.109395 153.809945 
L 386.279327 153.745406 
L 386.959055 153.809945 
L 387.383886 154.068101 
L 387.638784 153.971292 
L 387.808716 153.971292 
L 387.808716 153.971292 
" clip-path="url(#p81dd1489f3)" style="fill: none; stroke: #d94452; stroke-width: 0.8; stroke-linecap: square"/>
   </g>
   <g id="line2d_15">
    <path d="M 387.893682 155.391147 
L 387.978648 155.358878 
L 388.148581 155.520225 
L 388.233547 155.391147 
L 388.488445 155.649302 
L 388.743343 155.713842 
L 388.998241 155.971997 
L 389.762936 157.843623 
L 390.272732 161.296452 
L 390.527631 164.587934 
L 390.782529 170.622319 
L 391.037427 182.336112 
L 391.207359 196.986425 
L 391.462258 232.934539 
L 391.547224 232.256873 
L 392.396884 189.49992 
L 392.736749 175.914504 
L 393.586409 122.282708 
L 393.841308 120.346539 
L 393.926274 120.443347 
L 394.096206 121.346891 
L 394.521036 125.929147 
L 395.625595 138.223808 
L 396.475256 144.774505 
L 397.664781 149.324495 
L 397.919679 149.873075 
L 398.939272 151.938318 
L 399.788933 152.809593 
L 399.873899 152.777323 
L 400.128797 153.100018 
L 400.893492 153.584059 
L 401.063424 153.648598 
L 401.233356 153.745406 
L 402.167983 154.358526 
L 402.847712 154.390795 
L 402.932678 154.584412 
L 403.017644 154.487603 
L 403.187576 154.745759 
L 403.272542 154.616681 
L 403.612407 154.745759 
L 403.697373 154.64895 
L 403.952271 154.874836 
L 404.292135 154.842567 
L 404.462067 154.810298 
L 404.631999 155.132992 
L 404.716966 155.132992 
L 404.801932 155.262069 
L 404.886898 155.165261 
L 405.05683 155.294339 
L 405.226762 155.391147 
L 405.311728 155.326608 
L 405.651592 155.617034 
L 405.906491 155.681572 
L 406.416287 156.423769 
L 406.671185 157.004619 
L 406.841117 157.520929 
L 407.265948 160.037945 
L 407.605812 163.942545 
L 407.86071 169.621967 
L 408.115609 180.561296 
L 408.370507 204.602001 
L 408.540439 226.900163 
L 408.625405 226.416113 
L 409.475066 186.272985 
L 409.81493 173.203871 
L 410.579625 122.218162 
L 410.834523 119.184833 
L 410.919489 118.958955 
L 411.089421 119.63661 
L 411.344319 122.024547 
L 413.213573 142.257489 
L 414.1482 147.32379 
L 414.57303 148.743645 
L 415.507657 150.937966 
L 415.592623 151.067044 
L 415.762555 151.518816 
L 415.847522 151.583355 
L 416.10242 151.970588 
L 416.272352 152.131935 
L 416.442284 152.293282 
L 416.612216 152.357821 
L 416.867114 152.680515 
L 419.076232 154.293987 
L 419.331131 154.261717 
L 420.605622 154.64895 
L 421.200384 154.745759 
L 421.370317 154.810298 
L 421.540249 154.842567 
L 422.304943 155.326608 
L 422.474876 155.391147 
L 422.559842 155.455686 
L 422.644808 155.358878 
L 423.664401 156.649654 
L 424.174197 158.940785 
L 424.514061 161.748224 
L 424.76896 165.491478 
L 425.108824 176.269463 
L 425.363722 194.888913 
L 425.61862 227.416465 
L 425.703586 226.480659 
L 426.468281 188.564113 
L 426.808145 177.011664 
L 426.978078 166.524103 
L 427.402908 131.866725 
L 427.742772 120.378811 
L 427.912704 119.02349 
L 427.997671 118.894409 
L 428.082637 118.991217 
L 428.337535 121.056467 
L 430.461687 143.290114 
L 431.141415 147.033365 
L 431.651212 148.775914 
L 432.415907 150.389386 
L 432.840737 151.357469 
L 433.265567 151.938318 
L 433.86033 152.519168 
L 434.625025 153.261365 
L 434.794957 153.325904 
L 435.304753 153.745406 
L 435.474685 153.777676 
L 435.984482 154.197178 
L 436.154414 154.164909 
L 436.23938 154.197178 
L 436.324346 154.068101 
L 436.494278 154.197178 
L 436.66421 154.164909 
L 436.834143 154.390795 
L 436.919109 154.519873 
L 437.004075 154.326256 
L 437.174007 154.455334 
L 437.258973 154.455334 
L 437.343939 154.64895 
L 437.428905 154.487603 
L 437.513871 154.552142 
L 437.683803 154.68122 
L 438.108634 154.552142 
L 438.788362 154.971645 
L 438.873328 154.939375 
L 439.128227 155.165261 
L 439.213193 155.132992 
L 439.383125 155.262069 
L 439.468091 155.2298 
L 439.638023 155.455686 
L 439.722989 155.326608 
L 440.232786 155.907458 
L 440.402718 156.004266 
L 440.657616 156.423769 
L 441.507277 160.715602 
L 441.847141 165.52375 
L 442.102039 172.784367 
L 442.356938 187.241065 
L 442.696802 227.803697 
L 442.781768 226.512921 
L 443.461497 189.85489 
L 443.716395 183.465545 
L 443.971293 172.687559 
L 444.735988 121.669587 
L 444.990886 118.926682 
L 445.075852 118.765339 
L 445.160818 118.958955 
L 445.415716 120.991932 
L 447.369936 142.063873 
L 448.219597 146.872018 
L 448.559461 148.259603 
L 449.324156 149.937614 
L 449.833952 151.29293 
L 450.088851 151.615624 
L 450.428715 152.035126 
L 451.61824 153.229095 
L 452.04307 153.454982 
L 452.297969 153.616329 
L 452.552867 153.809945 
L 452.892731 154.035831 
L 453.147629 154.10037 
L 453.317561 154.164909 
L 453.487494 154.10037 
L 454.931917 154.552142 
L 455.016883 154.487603 
L 455.356747 154.745759 
L 455.696612 154.810298 
L 455.95151 155.003914 
L 456.121442 154.939375 
L 456.291374 155.068453 
L 456.37634 155.068453 
L 456.631238 155.262069 
L 456.801171 155.326608 
L 457.056069 155.487956 
L 457.820764 156.456038 
L 458.33056 158.843976 
L 458.75539 162.813115 
L 459.010289 167.524455 
L 459.265187 176.72123 
L 459.520085 196.082881 
L 459.774983 227.83597 
L 459.859949 226.287043 
L 460.539678 190.048505 
L 460.794576 183.465545 
L 461.049474 172.558478 
L 461.814169 121.346891 
L 462.069067 118.636258 
L 462.154033 118.474915 
L 462.408932 119.99157 
L 463.258592 130.156445 
L 463.938321 137.675232 
L 464.533084 142.483378 
L 465.46771 147.581945 
L 466.487303 150.034422 
L 466.827168 151.002505 
L 466.912134 151.034774 
L 467.167032 151.583355 
L 467.846761 152.228743 
L 468.781387 153.164557 
L 468.95132 153.261365 
L 469.291184 153.487251 
L 469.37615 153.487251 
L 469.716014 153.874484 
L 469.970913 153.939023 
L 470.140845 154.035831 
L 470.650641 154.10037 
L 471.075472 154.293987 
L 471.33037 154.358526 
L 471.415336 154.487603 
L 471.670234 154.293987 
L 471.840166 154.390795 
L 472.010098 154.390795 
L 472.264997 154.487603 
L 472.519895 154.68122 
L 472.774793 154.552142 
L 473.029691 154.810298 
L 473.454522 155.003914 
L 473.794386 155.391147 
L 474.13425 155.487956 
L 474.474115 155.681572 
L 474.983911 156.778733 
L 475.408741 158.747168 
L 475.833572 162.780846 
L 476.08847 167.750333 
L 476.343368 176.914856 
L 476.598266 196.502386 
L 476.853165 228.029586 
L 476.938131 226.287043 
L 477.617859 189.951697 
L 477.872758 183.465545 
L 478.127656 172.171247 
L 478.807384 123.379868 
L 479.062283 118.958955 
L 479.147249 118.507178 
L 479.232215 118.603986 
L 479.317181 118.765339 
L 479.572079 120.927386 
L 480.166842 128.091205 
L 481.356367 140.611744 
L 482.121061 145.61351 
L 482.885756 148.42095 
L 483.22562 149.098609 
L 484.160247 151.325199 
L 484.415146 151.551086 
L 484.585078 151.809241 
L 484.75501 151.906049 
L 485.519705 152.906401 
L 486.029501 153.196826 
L 487.303992 154.035831 
L 487.643856 154.003562 
L 487.898755 154.068101 
L 488.153653 154.164909 
L 488.323585 154.261717 
L 488.578483 154.326256 
L 488.748415 154.293987 
L 488.833382 154.358526 
L 489.003314 154.229448 
L 489.51311 154.519873 
L 489.683042 154.423064 
L 489.852974 154.713489 
L 490.022907 154.616681 
L 490.277805 154.552142 
L 490.532703 155.036184 
L 490.787601 155.100722 
L 491.0425 155.294339 
L 491.212432 155.294339 
L 491.46733 155.584764 
L 491.552296 155.552494 
L 491.89216 156.197883 
L 492.401957 158.295396 
L 492.741821 160.683333 
L 492.996719 164.039354 
L 493.251618 170.041462 
L 493.506516 182.045688 
L 493.761414 208.345259 
L 493.931346 228.384555 
L 494.016312 226.157962 
L 494.696041 189.790344 
L 494.950939 183.271929 
L 495.205837 171.751742 
L 495.885566 123.089444 
L 496.140464 118.797601 
L 496.310396 118.41037 
L 496.480328 119.217106 
L 496.990125 124.767452 
L 498.264616 139.191897 
L 498.944345 143.967769 
L 499.624073 147.420598 
L 500.048904 148.517759 
L 501.493327 151.647893 
L 501.578293 151.551086 
L 501.748225 151.84151 
L 502.852784 153.035479 
L 503.022716 153.067748 
L 503.532513 153.51952 
L 503.702445 153.616329 
L 503.957343 153.874484 
L 504.042309 153.777676 
L 504.127275 153.939023 
L 504.297208 153.874484 
L 504.552106 153.939023 
L 504.637072 153.842215 
L 504.807004 154.035831 
L 504.976936 154.003562 
L 505.3168 154.13264 
L 505.741631 154.197178 
L 505.911563 154.003562 
L 506.336393 154.326256 
L 506.421359 154.068101 
L 506.591292 154.423064 
L 506.84619 154.326256 
L 506.931156 154.358526 
L 507.186054 154.713489 
L 507.27102 154.64895 
L 507.355986 154.390795 
L 507.695851 154.907106 
L 507.780817 154.842567 
L 508.120681 155.165261 
L 508.205647 155.100722 
L 508.375579 155.197531 
L 508.460545 155.132992 
L 508.970342 156.036536 
L 509.735036 159.908867 
L 509.989935 162.651768 
L 510.244833 167.718071 
L 510.499731 177.237543 
L 510.754629 197.309122 
L 511.009528 228.223202 
L 511.17946 220.543091 
L 511.689256 191.048858 
L 511.944154 185.659865 
L 512.199053 176.10812 
L 512.368985 164.394317 
L 512.793815 129.995101 
L 513.048713 120.766043 
L 513.303612 118.378097 
L 513.388578 118.184481 
L 513.55851 119.184833 
L 513.98334 123.702564 
L 515.342798 139.127352 
L 516.36239 145.742587 
L 517.042119 147.969178 
L 517.297017 148.42095 
L 517.381983 148.517759 
L 517.466949 149.259955 
L 517.551916 149.227687 
L 517.89178 150.292577 
L 517.976746 150.357116 
L 518.146678 150.808889 
L 518.231644 150.647541 
L 518.31661 151.067044 
L 518.401576 151.002505 
L 518.486542 151.067044 
L 518.656475 151.680163 
L 518.741441 151.422008 
L 518.826407 151.712433 
L 518.911373 151.551086 
L 519.166271 152.196474 
L 519.336203 152.39009 
L 519.506135 152.583707 
L 519.591101 152.551438 
L 519.676067 152.680515 
L 519.761034 152.583707 
L 519.846 152.841863 
L 519.930966 152.777323 
L 520.185864 153.132287 
L 520.355796 153.229095 
L 520.69566 153.55179 
L 520.780626 153.51952 
L 521.035525 153.745406 
L 521.205457 153.55179 
L 521.460355 153.874484 
L 521.970152 153.971292 
L 522.310016 154.003562 
L 523.414575 154.003562 
L 523.584507 154.326256 
L 523.839405 154.326256 
L 524.094303 154.326256 
L 524.349202 154.584412 
L 524.434168 154.455334 
L 524.943964 155.068453 
L 525.02893 154.778028 
L 525.113896 155.100722 
L 525.283829 154.971645 
L 525.368795 154.907106 
L 525.878591 155.617034 
L 526.55832 158.263126 
L 526.898184 160.521986 
L 527.153082 164.071622 
L 527.40798 170.299623 
L 527.662879 182.594273 
L 527.917777 209.732843 
L 528.087709 228.481363 
L 528.257641 220.317202 
L 528.767438 190.790696 
L 529.022336 185.433976 
L 529.277234 175.785424 
L 529.447166 163.878006 
L 529.871997 129.769213 
L 530.126895 120.443347 
L 530.381793 118.281289 
L 530.466759 118.249026 
L 530.721657 119.830226 
L 531.31642 126.703621 
L 532.081115 135.964952 
L 532.675877 140.998986 
L 533.950368 147.775562 
L 534.035334 147.840101 
L 534.715063 149.58265 
L 534.969961 150.260308 
L 535.309826 150.970236 
L 535.64969 151.357469 
L 536.414385 152.357821 
L 536.584317 152.519168 
L 537.009147 152.777323 
L 538.45357 153.777676 
L 538.623503 153.713137 
L 538.793435 153.777676 
L 539.048333 153.939023 
L 539.133299 153.874484 
L 539.303231 153.939023 
L 539.558129 153.874484 
L 539.813028 154.003562 
L 540.237858 154.003562 
L 540.492756 154.261717 
L 540.662688 154.229448 
L 540.747654 154.293987 
L 540.917587 154.13264 
L 541.087519 154.229448 
L 541.427383 154.261717 
L 541.512349 154.519873 
L 541.597315 154.487603 
L 541.852213 154.810298 
L 541.93718 154.778028 
L 542.107112 155.003914 
L 542.192078 154.874836 
L 542.36201 155.132992 
L 542.446976 154.939375 
L 543.211671 156.294691 
L 543.381603 156.972349 
L 543.721467 158.489013 
L 544.061331 161.586877 
L 544.401196 167.976222 
L 544.656094 177.786128 
L 544.910992 198.696706 
L 545.16589 228.352282 
L 545.335823 219.865435 
L 545.845619 190.887504 
L 546.100517 185.433976 
L 546.355416 175.495 
L 546.610314 154.455334 
L 546.950178 129.317446 
L 547.205076 120.475619 
L 547.459975 118.313562 
L 547.544941 118.249026 
L 547.799839 119.894762 
L 548.6495 129.995101 
L 549.49916 139.030544 
L 550.263855 144.48408 
L 551.113516 147.90464 
L 551.45338 148.679106 
L 551.963177 150.292577 
L 553.577532 152.583707 
L 554.002362 152.777323 
L 554.257261 153.035479 
L 554.936989 153.680868 
L 555.446786 153.745406 
L 555.78665 153.874484 
L 556.21148 153.906754 
L 556.381413 154.003562 
L 556.466379 153.874484 
L 556.721277 154.068101 
L 556.891209 154.003562 
L 557.146107 154.068101 
L 557.401006 154.197178 
L 557.74087 154.229448 
L 557.74087 154.229448 
" clip-path="url(#p81dd1489f3)" style="fill: none; stroke: #d94452; stroke-width: 0.8; stroke-linecap: square"/>
   </g>
   <g id="text_16">
    <g id="patch_8">
     <path d="M 86.115452 268.8759 
L 179.875452 268.8759 
Q 181.475452 268.8759 181.475452 267.2759 
L 181.475452 258.7959 
Q 181.475452 257.1959 179.875452 257.1959 
L 86.115452 257.1959 
Q 84.515452 257.1959 84.515452 258.7959 
L 84.515452 267.2759 
Q 84.515452 268.8759 86.115452 268.8759 
z
" style="fill: #ffffff; opacity: 0.85; stroke: #d94452; stroke-linejoin: miter"/>
    </g>
    <!-- I$_{p-p}$ = 4.92E-04 mA/m² -->
    <g style="fill: #d94452" transform="translate(86.115452 264.7959) scale(0.08 -0.08)">
     <defs>
      <path id="DejaVuSans-49" d="M 628 4666 
L 1259 4666 
L 1259 0 
L 628 0 
L 628 4666 
z
" transform="scale(0.015625)"/>
      <path id="DejaVuSans-Oblique-70" d="M 3175 2156 
Q 3175 2616 2975 2859 
Q 2775 3103 2400 3103 
Q 2144 3103 1911 2972 
Q 1678 2841 1497 2591 
Q 1319 2344 1212 1994 
Q 1106 1644 1106 1300 
Q 1106 863 1306 627 
Q 1506 391 1875 391 
Q 2147 391 2380 519 
Q 2613 647 2778 891 
Q 2956 1147 3065 1494 
Q 3175 1841 3175 2156 
z
M 1394 2969 
Q 1625 3272 1939 3428 
Q 2253 3584 2638 3584 
Q 3175 3584 3472 3232 
Q 3769 2881 3769 2247 
Q 3769 1728 3584 1258 
Q 3400 788 3053 416 
Q 2822 169 2531 39 
Q 2241 -91 1919 -91 
Q 1547 -91 1294 64 
Q 1041 219 916 525 
L 556 -1331 
L -19 -1331 
L 922 3500 
L 1497 3500 
L 1394 2969 
z
" transform="scale(0.015625)"/>
      <path id="DejaVuSans-20" transform="scale(0.015625)"/>
      <path id="DejaVuSans-3d" d="M 678 2906 
L 4684 2906 
L 4684 2381 
L 678 2381 
L 678 2906 
z
M 678 1631 
L 4684 1631 
L 4684 1100 
L 678 1100 
L 678 1631 
z
" transform="scale(0.015625)"/>
      <path id="DejaVuSans-2e" d="M 684 794 
L 1344 794 
L 1344 0 
L 684 0 
L 684 794 
z
" transform="scale(0.015625)"/>
      <path id="DejaVuSans-39" d="M 703 97 
L 703 672 
Q 941 559 1184 500 
Q 1428 441 1663 441 
Q 2288 441 2617 861 
Q 2947 1281 2994 2138 
Q 2813 1869 2534 1725 
Q 2256 1581 1919 1581 
Q 1219 1581 811 2004 
Q 403 2428 403 3163 
Q 403 3881 828 4315 
Q 1253 4750 1959 4750 
Q 2769 4750 3195 4129 
Q 3622 3509 3622 2328 
Q 3622 1225 3098 567 
Q 2575 -91 1691 -91 
Q 1453 -91 1209 -44 
Q 966 3 703 97 
z
M 1959 2075 
Q 2384 2075 2632 2365 
Q 2881 2656 2881 3163 
Q 2881 3666 2632 3958 
Q 2384 4250 1959 4250 
Q 1534 4250 1286 3958 
Q 1038 3666 1038 3163 
Q 1038 2656 1286 2365 
Q 1534 2075 1959 2075 
z
" transform="scale(0.015625)"/>
      <path id="DejaVuSans-45" d="M 628 4666 
L 3578 4666 
L 3578 4134 
L 1259 4134 
L 1259 2753 
L 3481 2753 
L 3481 2222 
L 1259 2222 
L 1259 531 
L 3634 531 
L 3634 0 
L 628 0 
L 628 4666 
z
" transform="scale(0.015625)"/>
      <path id="DejaVuSans-2d" d="M 313 2009 
L 1997 2009 
L 1997 1497 
L 313 1497 
L 313 2009 
z
" transform="scale(0.015625)"/>
      <path id="DejaVuSans-6d" d="M 3328 2828 
Q 3544 3216 3844 3400 
Q 4144 3584 4550 3584 
Q 5097 3584 5394 3201 
Q 5691 2819 5691 2113 
L 5691 0 
L 5113 0 
L 5113 2094 
Q 5113 2597 4934 2840 
Q 4756 3084 4391 3084 
Q 3944 3084 3684 2787 
Q 3425 2491 3425 1978 
L 3425 0 
L 2847 0 
L 2847 2094 
Q 2847 2600 2669 2842 
Q 2491 3084 2119 3084 
Q 1678 3084 1418 2786 
Q 1159 2488 1159 1978 
L 1159 0 
L 581 0 
L 581 3500 
L 1159 3500 
L 1159 2956 
Q 1356 3278 1631 3431 
Q 1906 3584 2284 3584 
Q 2666 3584 2933 3390 
Q 3200 3197 3328 2828 
z
" transform="scale(0.015625)"/>
      <path id="DejaVuSans-41" d="M 2188 4044 
L 1331 1722 
L 3047 1722 
L 2188 4044 
z
M 1831 4666 
L 2547 4666 
L 4325 0 
L 3669 0 
L 3244 1197 
L 1141 1197 
L 716 0 
L 50 0 
L 1831 4666 
z
" transform="scale(0.015625)"/>
      <path id="DejaVuSans-2f" d="M 1625 4666 
L 2156 4666 
L 531 -594 
L 0 -594 
L 1625 4666 
z
" transform="scale(0.015625)"/>
      <path id="DejaVuSans-b2" d="M 838 2444 
L 2163 2444 
L 2163 2088 
L 294 2088 
L 294 2431 
Q 400 2528 597 2703 
Q 1672 3656 1672 3950 
Q 1672 4156 1509 4282 
Q 1347 4409 1081 4409 
Q 919 4409 728 4354 
Q 538 4300 313 4191 
L 313 4575 
Q 553 4663 761 4706 
Q 969 4750 1147 4750 
Q 1600 4750 1872 4544 
Q 2144 4338 2144 4000 
Q 2144 3566 1109 2678 
Q 934 2528 838 2444 
z
" transform="scale(0.015625)"/>
     </defs>
     <use xlink:href="#DejaVuSans-49" transform="translate(0 0.78125)"/>
     <use xlink:href="#DejaVuSans-Oblique-70" transform="translate(30.449219 -15.625) scale(0.7)"/>
     <use xlink:href="#DejaVuSans-2212" transform="translate(88.520508 -15.625) scale(0.7)"/>
     <use xlink:href="#DejaVuSans-Oblique-70" transform="translate(160.810547 -15.625) scale(0.7)"/>
     <use xlink:href="#DejaVuSans-20" transform="translate(207.978516 0.78125)"/>
     <use xlink:href="#DejaVuSans-3d" transform="translate(239.765625 0.78125)"/>
     <use xlink:href="#DejaVuSans-20" transform="translate(323.554688 0.78125)"/>
     <use xlink:href="#DejaVuSans-34" transform="translate(355.341797 0.78125)"/>
     <use xlink:href="#DejaVuSans-2e" transform="translate(418.964844 0.78125)"/>
     <use xlink:href="#DejaVuSans-39" transform="translate(450.751953 0.78125)"/>
     <use xlink:href="#DejaVuSans-32" transform="translate(512.625 0.78125)"/>
     <use xlink:href="#DejaVuSans-45" transform="translate(576.248047 0.78125)"/>
     <use xlink:href="#DejaVuSans-2d" transform="translate(639.431641 0.78125)"/>
     <use xlink:href="#DejaVuSans-30" transform="translate(675.515625 0.78125)"/>
     <use xlink:href="#DejaVuSans-34" transform="translate(739.138672 0.78125)"/>
     <use xlink:href="#DejaVuSans-20" transform="translate(802.761719 0.78125)"/>
     <use xlink:href="#DejaVuSans-6d" transform="translate(834.548828 0.78125)"/>
     <use xlink:href="#DejaVuSans-41" transform="translate(931.960938 0.78125)"/>
     <use xlink:href="#DejaVuSans-2f" transform="translate(1000.369141 0.78125)"/>
     <use xlink:href="#DejaVuSans-6d" transform="translate(1034.060547 0.78125)"/>
     <use xlink:href="#DejaVuSans-b2" transform="translate(1131.472656 0.78125)"/>
    </g>
   </g>
   <g id="text_17">
    <g id="patch_9">
     <path d="M 255.967605 268.8759 
L 349.887605 268.8759 
Q 351.487605 268.8759 351.487605 267.2759 
L 351.487605 258.7959 
Q 351.487605 257.1959 349.887605 257.1959 
L 255.967605 257.1959 
Q 254.367605 257.1959 254.367605 258.7959 
L 254.367605 267.2759 
Q 254.367605 268.8759 255.967605 268.8759 
z
" style="fill: #ffffff; opacity: 0.85; stroke: #d94452; stroke-linejoin: miter"/>
    </g>
    <!-- I$_{p-p}$ = 8.47E-04 mA/m² -->
    <g style="fill: #d94452" transform="translate(255.967605 264.7959) scale(0.08 -0.08)">
     <defs>
      <path id="DejaVuSans-38" d="M 2034 2216 
Q 1584 2216 1326 1975 
Q 1069 1734 1069 1313 
Q 1069 891 1326 650 
Q 1584 409 2034 409 
Q 2484 409 2743 651 
Q 3003 894 3003 1313 
Q 3003 1734 2745 1975 
Q 2488 2216 2034 2216 
z
M 1403 2484 
Q 997 2584 770 2862 
Q 544 3141 544 3541 
Q 544 4100 942 4425 
Q 1341 4750 2034 4750 
Q 2731 4750 3128 4425 
Q 3525 4100 3525 3541 
Q 3525 3141 3298 2862 
Q 3072 2584 2669 2484 
Q 3125 2378 3379 2068 
Q 3634 1759 3634 1313 
Q 3634 634 3220 271 
Q 2806 -91 2034 -91 
Q 1263 -91 848 271 
Q 434 634 434 1313 
Q 434 1759 690 2068 
Q 947 2378 1403 2484 
z
M 1172 3481 
Q 1172 3119 1398 2916 
Q 1625 2713 2034 2713 
Q 2441 2713 2670 2916 
Q 2900 3119 2900 3481 
Q 2900 3844 2670 4047 
Q 2441 4250 2034 4250 
Q 1625 4250 1398 4047 
Q 1172 3844 1172 3481 
z
" transform="scale(0.015625)"/>
      <path id="DejaVuSans-37" d="M 525 4666 
L 3525 4666 
L 3525 4397 
L 1831 0 
L 1172 0 
L 2766 4134 
L 525 4134 
L 525 4666 
z
" transform="scale(0.015625)"/>
     </defs>
     <use xlink:href="#DejaVuSans-49" transform="translate(0 0.78125)"/>
     <use xlink:href="#DejaVuSans-Oblique-70" transform="translate(30.449219 -15.625) scale(0.7)"/>
     <use xlink:href="#DejaVuSans-2212" transform="translate(88.520508 -15.625) scale(0.7)"/>
     <use xlink:href="#DejaVuSans-Oblique-70" transform="translate(160.810547 -15.625) scale(0.7)"/>
     <use xlink:href="#DejaVuSans-20" transform="translate(207.978516 0.78125)"/>
     <use xlink:href="#DejaVuSans-3d" transform="translate(239.765625 0.78125)"/>
     <use xlink:href="#DejaVuSans-20" transform="translate(323.554688 0.78125)"/>
     <use xlink:href="#DejaVuSans-38" transform="translate(355.341797 0.78125)"/>
     <use xlink:href="#DejaVuSans-2e" transform="translate(418.964844 0.78125)"/>
     <use xlink:href="#DejaVuSans-34" transform="translate(450.751953 0.78125)"/>
     <use xlink:href="#DejaVuSans-37" transform="translate(514.375 0.78125)"/>
     <use xlink:href="#DejaVuSans-45" transform="translate(577.998047 0.78125)"/>
     <use xlink:href="#DejaVuSans-2d" transform="translate(641.181641 0.78125)"/>
     <use xlink:href="#DejaVuSans-30" transform="translate(677.265625 0.78125)"/>
     <use xlink:href="#DejaVuSans-34" transform="translate(740.888672 0.78125)"/>
     <use xlink:href="#DejaVuSans-20" transform="translate(804.511719 0.78125)"/>
     <use xlink:href="#DejaVuSans-6d" transform="translate(836.298828 0.78125)"/>
     <use xlink:href="#DejaVuSans-41" transform="translate(933.710938 0.78125)"/>
     <use xlink:href="#DejaVuSans-2f" transform="translate(1002.119141 0.78125)"/>
     <use xlink:href="#DejaVuSans-6d" transform="translate(1035.810547 0.78125)"/>
     <use xlink:href="#DejaVuSans-b2" transform="translate(1133.222656 0.78125)"/>
    </g>
   </g>
   <g id="text_18">
    <g id="patch_10">
     <path d="M 426.019759 268.8759 
L 519.699759 268.8759 
Q 521.299759 268.8759 521.299759 267.2759 
L 521.299759 258.7959 
Q 521.299759 257.1959 519.699759 257.1959 
L 426.019759 257.1959 
Q 424.419759 257.1959 424.419759 258.7959 
L 424.419759 267.2759 
Q 424.419759 268.8759 426.019759 268.8759 
z
" style="fill: #ffffff; opacity: 0.85; stroke: #d94452; stroke-linejoin: miter"/>
    </g>
    <!-- I$_{p-p}$ = 2.86E-03 mA/m² -->
    <g style="fill: #d94452" transform="translate(426.019759 264.7959) scale(0.08 -0.08)">
     <use xlink:href="#DejaVuSans-49" transform="translate(0 0.78125)"/>
     <use xlink:href="#DejaVuSans-Oblique-70" transform="translate(30.449219 -15.625) scale(0.7)"/>
     <use xlink:href="#DejaVuSans-2212" transform="translate(88.520508 -15.625) scale(0.7)"/>
     <use xlink:href="#DejaVuSans-Oblique-70" transform="translate(160.810547 -15.625) scale(0.7)"/>
     <use xlink:href="#DejaVuSans-20" transform="translate(207.978516 0.78125)"/>
     <use xlink:href="#DejaVuSans-3d" transform="translate(239.765625 0.78125)"/>
     <use xlink:href="#DejaVuSans-20" transform="translate(323.554688 0.78125)"/>
     <use xlink:href="#DejaVuSans-32" transform="translate(355.341797 0.78125)"/>
     <use xlink:href="#DejaVuSans-2e" transform="translate(418.964844 0.78125)"/>
     <use xlink:href="#DejaVuSans-38" transform="translate(448.126953 0.78125)"/>
     <use xlink:href="#DejaVuSans-36" transform="translate(511.75 0.78125)"/>
     <use xlink:href="#DejaVuSans-45" transform="translate(575.373047 0.78125)"/>
     <use xlink:href="#DejaVuSans-2d" transform="translate(638.556641 0.78125)"/>
     <use xlink:href="#DejaVuSans-30" transform="translate(674.640625 0.78125)"/>
     <use xlink:href="#DejaVuSans-33" transform="translate(738.263672 0.78125)"/>
     <use xlink:href="#DejaVuSans-20" transform="translate(801.886719 0.78125)"/>
     <use xlink:href="#DejaVuSans-6d" transform="translate(833.673828 0.78125)"/>
     <use xlink:href="#DejaVuSans-41" transform="translate(931.085938 0.78125)"/>
     <use xlink:href="#DejaVuSans-2f" transform="translate(999.494141 0.78125)"/>
     <use xlink:href="#DejaVuSans-6d" transform="translate(1033.185547 0.78125)"/>
     <use xlink:href="#DejaVuSans-b2" transform="translate(1130.597656 0.78125)"/>
    </g>
   </g>
   <g id="text_19">
    <!-- Short-Circuit Current — With MIC -->
    <g transform="translate(153.888855 19.3575) scale(0.16 -0.16)">
     <defs>
      <path id="DejaVuSans-Bold-53" d="M 3834 4519 
L 3834 3531 
Q 3450 3703 3084 3790 
Q 2719 3878 2394 3878 
Q 1963 3878 1756 3759 
Q 1550 3641 1550 3391 
Q 1550 3203 1689 3098 
Q 1828 2994 2194 2919 
L 2706 2816 
Q 3484 2659 3812 2340 
Q 4141 2022 4141 1434 
Q 4141 663 3683 286 
Q 3225 -91 2284 -91 
Q 1841 -91 1394 -6 
Q 947 78 500 244 
L 500 1259 
Q 947 1022 1364 901 
Q 1781 781 2169 781 
Q 2563 781 2772 912 
Q 2981 1044 2981 1288 
Q 2981 1506 2839 1625 
Q 2697 1744 2272 1838 
L 1806 1941 
Q 1106 2091 782 2419 
Q 459 2747 459 3303 
Q 459 4000 909 4375 
Q 1359 4750 2203 4750 
Q 2588 4750 2994 4692 
Q 3400 4634 3834 4519 
z
" transform="scale(0.015625)"/>
      <path id="DejaVuSans-Bold-68" d="M 4056 2131 
L 4056 0 
L 2931 0 
L 2931 347 
L 2931 1625 
Q 2931 2084 2911 2256 
Q 2891 2428 2841 2509 
Q 2775 2619 2662 2680 
Q 2550 2741 2406 2741 
Q 2056 2741 1856 2470 
Q 1656 2200 1656 1722 
L 1656 0 
L 538 0 
L 538 4863 
L 1656 4863 
L 1656 2988 
Q 1909 3294 2193 3439 
Q 2478 3584 2822 3584 
Q 3428 3584 3742 3212 
Q 4056 2841 4056 2131 
z
" transform="scale(0.015625)"/>
      <path id="DejaVuSans-Bold-6f" d="M 2203 2784 
Q 1831 2784 1636 2517 
Q 1441 2250 1441 1747 
Q 1441 1244 1636 976 
Q 1831 709 2203 709 
Q 2569 709 2762 976 
Q 2956 1244 2956 1747 
Q 2956 2250 2762 2517 
Q 2569 2784 2203 2784 
z
M 2203 3584 
Q 3106 3584 3614 3096 
Q 4122 2609 4122 1747 
Q 4122 884 3614 396 
Q 3106 -91 2203 -91 
Q 1297 -91 786 396 
Q 275 884 275 1747 
Q 275 2609 786 3096 
Q 1297 3584 2203 3584 
z
" transform="scale(0.015625)"/>
      <path id="DejaVuSans-Bold-72" d="M 3138 2547 
Q 2991 2616 2845 2648 
Q 2700 2681 2553 2681 
Q 2122 2681 1889 2404 
Q 1656 2128 1656 1613 
L 1656 0 
L 538 0 
L 538 3500 
L 1656 3500 
L 1656 2925 
Q 1872 3269 2151 3426 
Q 2431 3584 2822 3584 
Q 2878 3584 2943 3579 
Q 3009 3575 3134 3559 
L 3138 2547 
z
" transform="scale(0.015625)"/>
      <path id="DejaVuSans-Bold-74" d="M 1759 4494 
L 1759 3500 
L 2913 3500 
L 2913 2700 
L 1759 2700 
L 1759 1216 
Q 1759 972 1856 886 
Q 1953 800 2241 800 
L 2816 800 
L 2816 0 
L 1856 0 
Q 1194 0 917 276 
Q 641 553 641 1216 
L 641 2700 
L 84 2700 
L 84 3500 
L 641 3500 
L 641 4494 
L 1759 4494 
z
" transform="scale(0.015625)"/>
      <path id="DejaVuSans-Bold-2d" d="M 347 2297 
L 2309 2297 
L 2309 1388 
L 347 1388 
L 347 2297 
z
" transform="scale(0.015625)"/>
      <path id="DejaVuSans-Bold-43" d="M 4288 256 
Q 3956 84 3597 -3 
Q 3238 -91 2847 -91 
Q 1681 -91 1000 561 
Q 319 1213 319 2328 
Q 319 3447 1000 4098 
Q 1681 4750 2847 4750 
Q 3238 4750 3597 4662 
Q 3956 4575 4288 4403 
L 4288 3438 
Q 3953 3666 3628 3772 
Q 3303 3878 2944 3878 
Q 2300 3878 1931 3465 
Q 1563 3053 1563 2328 
Q 1563 1606 1931 1193 
Q 2300 781 2944 781 
Q 3303 781 3628 887 
Q 3953 994 4288 1222 
L 4288 256 
z
" transform="scale(0.015625)"/>
      <path id="DejaVuSans-Bold-63" d="M 3366 3391 
L 3366 2478 
Q 3138 2634 2908 2709 
Q 2678 2784 2431 2784 
Q 1963 2784 1702 2511 
Q 1441 2238 1441 1747 
Q 1441 1256 1702 982 
Q 1963 709 2431 709 
Q 2694 709 2930 787 
Q 3166 866 3366 1019 
L 3366 103 
Q 3103 6 2833 -42 
Q 2563 -91 2291 -91 
Q 1344 -91 809 395 
Q 275 881 275 1747 
Q 275 2613 809 3098 
Q 1344 3584 2291 3584 
Q 2566 3584 2833 3536 
Q 3100 3488 3366 3391 
z
" transform="scale(0.015625)"/>
      <path id="DejaVuSans-Bold-75" d="M 500 1363 
L 500 3500 
L 1625 3500 
L 1625 3150 
Q 1625 2866 1622 2436 
Q 1619 2006 1619 1863 
Q 1619 1441 1641 1255 
Q 1663 1069 1716 984 
Q 1784 875 1895 815 
Q 2006 756 2150 756 
Q 2500 756 2700 1025 
Q 2900 1294 2900 1772 
L 2900 3500 
L 4019 3500 
L 4019 0 
L 2900 0 
L 2900 506 
Q 2647 200 2364 54 
Q 2081 -91 1741 -91 
Q 1134 -91 817 281 
Q 500 653 500 1363 
z
" transform="scale(0.015625)"/>
      <path id="DejaVuSans-Bold-6e" d="M 4056 2131 
L 4056 0 
L 2931 0 
L 2931 347 
L 2931 1631 
Q 2931 2084 2911 2256 
Q 2891 2428 2841 2509 
Q 2775 2619 2662 2680 
Q 2550 2741 2406 2741 
Q 2056 2741 1856 2470 
Q 1656 2200 1656 1722 
L 1656 0 
L 538 0 
L 538 3500 
L 1656 3500 
L 1656 2988 
Q 1909 3294 2193 3439 
Q 2478 3584 2822 3584 
Q 3428 3584 3742 3212 
Q 4056 2841 4056 2131 
z
" transform="scale(0.015625)"/>
      <path id="DejaVuSans-Bold-2014" d="M 344 2156 
L 6056 2156 
L 6056 1350 
L 344 1350 
L 344 2156 
z
" transform="scale(0.015625)"/>
      <path id="DejaVuSans-Bold-57" d="M 191 4666 
L 1344 4666 
L 2150 1275 
L 2950 4666 
L 4109 4666 
L 4909 1275 
L 5716 4666 
L 6859 4666 
L 5759 0 
L 4372 0 
L 3525 3547 
L 2688 0 
L 1300 0 
L 191 4666 
z
" transform="scale(0.015625)"/>
      <path id="DejaVuSans-Bold-4d" d="M 588 4666 
L 2119 4666 
L 3181 2169 
L 4250 4666 
L 5778 4666 
L 5778 0 
L 4641 0 
L 4641 3413 
L 3566 897 
L 2803 897 
L 1728 3413 
L 1728 0 
L 588 0 
L 588 4666 
z
" transform="scale(0.015625)"/>
     </defs>
     <use xlink:href="#DejaVuSans-Bold-53"/>
     <use xlink:href="#DejaVuSans-Bold-68" transform="translate(72.021484 0)"/>
     <use xlink:href="#DejaVuSans-Bold-6f" transform="translate(143.212891 0)"/>
     <use xlink:href="#DejaVuSans-Bold-72" transform="translate(211.914062 0)"/>
     <use xlink:href="#DejaVuSans-Bold-74" transform="translate(261.230469 0)"/>
     <use xlink:href="#DejaVuSans-Bold-2d" transform="translate(309.033203 0)"/>
     <use xlink:href="#DejaVuSans-Bold-43" transform="translate(350.537109 0)"/>
     <use xlink:href="#DejaVuSans-Bold-69" transform="translate(423.925781 0)"/>
     <use xlink:href="#DejaVuSans-Bold-72" transform="translate(458.203125 0)"/>
     <use xlink:href="#DejaVuSans-Bold-63" transform="translate(507.519531 0)"/>
     <use xlink:href="#DejaVuSans-Bold-75" transform="translate(566.796875 0)"/>
     <use xlink:href="#DejaVuSans-Bold-69" transform="translate(637.988281 0)"/>
     <use xlink:href="#DejaVuSans-Bold-74" transform="translate(672.265625 0)"/>
     <use xlink:href="#DejaVuSans-Bold-20" transform="translate(720.068359 0)"/>
     <use xlink:href="#DejaVuSans-Bold-43" transform="translate(754.882812 0)"/>
     <use xlink:href="#DejaVuSans-Bold-75" transform="translate(828.271484 0)"/>
     <use xlink:href="#DejaVuSans-Bold-72" transform="translate(899.462891 0)"/>
     <use xlink:href="#DejaVuSans-Bold-72" transform="translate(948.779297 0)"/>
     <use xlink:href="#DejaVuSans-Bold-65" transform="translate(998.095703 0)"/>
     <use xlink:href="#DejaVuSans-Bold-6e" transform="translate(1065.917969 0)"/>
     <use xlink:href="#DejaVuSans-Bold-74" transform="translate(1137.109375 0)"/>
     <use xlink:href="#DejaVuSans-Bold-20" transform="translate(1184.912109 0)"/>
     <use xlink:href="#DejaVuSans-Bold-2014" transform="translate(1219.726562 0)"/>
     <use xlink:href="#DejaVuSans-Bold-20" transform="translate(1319.726562 0)"/>
     <use xlink:href="#DejaVuSans-Bold-57" transform="translate(1354.541016 0)"/>
     <use xlink:href="#DejaVuSans-Bold-69" transform="translate(1464.84375 0)"/>
     <use xlink:href="#DejaVuSans-Bold-74" transform="translate(1499.121094 0)"/>
     <use xlink:href="#DejaVuSans-Bold-68" transform="translate(1546.923828 0)"/>
     <use xlink:href="#DejaVuSans-Bold-20" transform="translate(1618.115234 0)"/>
     <use xlink:href="#DejaVuSans-Bold-4d" transform="translate(1652.929688 0)"/>
     <use xlink:href="#DejaVuSans-Bold-49" transform="translate(1752.441406 0)"/>
     <use xlink:href="#DejaVuSans-Bold-43" transform="translate(1789.648438 0)"/>
    </g>
   </g>
   <g id="text_20">
    <!-- 1 Hz -->
    <g style="fill: #4a90d9" transform="translate(116.987171 53.837069) scale(0.13 -0.13)">
     <defs>
      <path id="DejaVuSans-Bold-31" d="M 750 831 
L 1813 831 
L 1813 3847 
L 722 3622 
L 722 4441 
L 1806 4666 
L 2950 4666 
L 2950 831 
L 4013 831 
L 4013 0 
L 750 0 
L 750 831 
z
" transform="scale(0.015625)"/>
      <path id="DejaVuSans-Bold-48" d="M 588 4666 
L 1791 4666 
L 1791 2888 
L 3566 2888 
L 3566 4666 
L 4769 4666 
L 4769 0 
L 3566 0 
L 3566 1978 
L 1791 1978 
L 1791 0 
L 588 0 
L 588 4666 
z
" transform="scale(0.015625)"/>
      <path id="DejaVuSans-Bold-7a" d="M 366 3500 
L 3419 3500 
L 3419 2719 
L 1575 800 
L 3419 800 
L 3419 0 
L 288 0 
L 288 781 
L 2131 2700 
L 366 2700 
L 366 3500 
z
" transform="scale(0.015625)"/>
     </defs>
     <use xlink:href="#DejaVuSans-Bold-31"/>
     <use xlink:href="#DejaVuSans-Bold-20" transform="translate(69.580078 0)"/>
     <use xlink:href="#DejaVuSans-Bold-48" transform="translate(104.394531 0)"/>
     <use xlink:href="#DejaVuSans-Bold-7a" transform="translate(188.085938 0)"/>
    </g>
   </g>
   <g id="text_21">
    <!-- 2.5 Hz -->
    <g style="fill: #5cb85c" transform="translate(279.927762 53.837069) scale(0.13 -0.13)">
     <defs>
      <path id="DejaVuSans-Bold-32" d="M 1844 884 
L 3897 884 
L 3897 0 
L 506 0 
L 506 884 
L 2209 2388 
Q 2438 2594 2547 2791 
Q 2656 2988 2656 3200 
Q 2656 3528 2436 3728 
Q 2216 3928 1850 3928 
Q 1569 3928 1234 3808 
Q 900 3688 519 3450 
L 519 4475 
Q 925 4609 1322 4679 
Q 1719 4750 2100 4750 
Q 2938 4750 3402 4381 
Q 3866 4013 3866 3353 
Q 3866 2972 3669 2642 
Q 3472 2313 2841 1759 
L 1844 884 
z
" transform="scale(0.015625)"/>
      <path id="DejaVuSans-Bold-2e" d="M 653 1209 
L 1778 1209 
L 1778 0 
L 653 0 
L 653 1209 
z
" transform="scale(0.015625)"/>
      <path id="DejaVuSans-Bold-35" d="M 678 4666 
L 3669 4666 
L 3669 3781 
L 1638 3781 
L 1638 3059 
Q 1775 3097 1914 3117 
Q 2053 3138 2203 3138 
Q 3056 3138 3531 2711 
Q 4006 2284 4006 1522 
Q 4006 766 3489 337 
Q 2972 -91 2053 -91 
Q 1656 -91 1267 -14 
Q 878 63 494 219 
L 494 1166 
Q 875 947 1217 837 
Q 1559 728 1863 728 
Q 2300 728 2551 942 
Q 2803 1156 2803 1522 
Q 2803 1891 2551 2103 
Q 2300 2316 1863 2316 
Q 1603 2316 1309 2248 
Q 1016 2181 678 2041 
L 678 4666 
z
" transform="scale(0.015625)"/>
     </defs>
     <use xlink:href="#DejaVuSans-Bold-32"/>
     <use xlink:href="#DejaVuSans-Bold-2e" transform="translate(69.580078 0)"/>
     <use xlink:href="#DejaVuSans-Bold-35" transform="translate(107.568359 0)"/>
     <use xlink:href="#DejaVuSans-Bold-20" transform="translate(177.148438 0)"/>
     <use xlink:href="#DejaVuSans-Bold-48" transform="translate(211.962891 0)"/>
     <use xlink:href="#DejaVuSans-Bold-7a" transform="translate(295.654297 0)"/>
    </g>
   </g>
   <g id="text_22">
    <!-- 5 Hz -->
    <g style="fill: #f0ad4e" transform="translate(456.851478 53.837069) scale(0.13 -0.13)">
     <use xlink:href="#DejaVuSans-Bold-35"/>
     <use xlink:href="#DejaVuSans-Bold-20" transform="translate(69.580078 0)"/>
     <use xlink:href="#DejaVuSans-Bold-48" transform="translate(104.394531 0)"/>
     <use xlink:href="#DejaVuSans-Bold-7a" transform="translate(188.085938 0)"/>
    </g>
   </g>
  </g>
 </g>
 <defs>
  <clipPath id="p81dd1489f3">
   <rect x="48.029375" y="34.3575" width="509.796461" height="240.04"/>
  </clipPath>
 </defs>
</svg>
