<?xml version="1.0" encoding="utf-8" standalone="no"?>
<!DOCTYPE svg PUBLIC "-//W3C//DTD SVG 1.1//EN"
  "http://www.w3.org/Graphics/SVG/1.1/DTD/svg11.dtd">
<svg xmlns:xlink="http://www.w3.org/1999/xlink" width="496.174pt" height="316.875312pt" viewBox="0 0 496.174 316.875312" xmlns="http://www.w3.org/2000/svg" version="1.1">
 <metadata>
  <rdf:RDF xmlns:dc="http://purl.org/dc/elements/1.1/" xmlns:cc="http://creativecommons.org/ns#" xmlns:rdf="http://www.w3.org/1999/02/22-rdf-syntax-ns#">
   <cc:Work>
    <dc:type rdf:resource="http://purl.org/dc/dcmitype/StillImage"/>
    <dc:date>2026-04-26T16:36:53.275962</dc:date>
    <dc:format>image/svg+xml</dc:format>
    <dc:creator>
     <cc:Agent>
      <dc:title>Matplotlib v3.10.8, https://matplotlib.org/</dc:title>
     </cc:Agent>
    </dc:creator>
   </cc:Work>
  </rdf:RDF>
 </metadata>
 <defs>
  <style type="text/css">*{stroke-linejoin: round; stroke-linecap: butt}</style>
 </defs>
 <g id="figure_1">
  <g id="patch_1">
   <path d="M 0 316.875312 
L 496.174 316.875312 
L 496.174 0 
L 0 0 
z
" style="fill: #ffffff"/>
  </g>
  <g id="axes_1">
   <g id="patch_2">
    <path d="M 61.963281 274.48 
L 480.227281 274.48 
L 480.227281 7.2 
L 61.963281 7.2 
z
" style="fill: #ffffff"/>
   </g>
   <g id="patch_3">
    <path d="M 61.963281 274.48 
L 241.219281 274.48 
L 241.219281 7.2 
L 61.963281 7.2 
z
" clip-path="url(#p36cdf8fc01)" style="fill: #cccccc; opacity: 0.12; stroke: #cccccc; stroke-linejoin: miter"/>
   </g>
   <g id="patch_4">
    <path d="M 241.219281 274.48 
L 480.227281 274.48 
L 480.227281 7.2 
L 241.219281 7.2 
z
" clip-path="url(#p36cdf8fc01)" style="fill: #d94452; opacity: 0.06; stroke: #d94452; stroke-linejoin: miter"/>
   </g>
   <g id="line2d_1">
    <path d="M 241.219281 274.48 
L 241.219281 7.2 
" clip-path="url(#p36cdf8fc01)" style="fill: none; stroke-dasharray: 3.7,1.6; stroke-dashoffset: 0; stroke: #999999"/>
   </g>
   <g id="matplotlib.axis_1">
    <g id="xtick_1">
     <g id="line2d_2">
      <defs>
       <path id="ma2c32ccd91" d="M 0 0 
L 0 3.5 
" style="stroke: #000000; stroke-width: 0.8"/>
      </defs>
      <g>
       <use xlink:href="#ma2c32ccd91" x="61.963281" y="274.48" style="stroke: #000000; stroke-width: 0.8"/>
      </g>
     </g>
     <g id="text_1">
      <!-- 0.0 -->
      <g transform="translate(53.216563 289.838281) scale(0.11 -0.11)">
       <defs>
        <path id="DejaVuSans-30" d="M 2034 4250 
Q 1547 4250 1301 3770 
Q 1056 3291 1056 2328 
Q 1056 1369 1301 889 
Q 1547 409 2034 409 
Q 2525 409 2770 889 
Q 3016 1369 3016 2328 
Q 3016 3291 2770 3770 
Q 2525 4250 2034 4250 
z
M 2034 4750 
Q 2819 4750 3233 4129 
Q 3647 3509 3647 2328 
Q 3647 1150 3233 529 
Q 2819 -91 2034 -91 
Q 1250 -91 836 529 
Q 422 1150 422 2328 
Q 422 3509 836 4129 
Q 1250 4750 2034 4750 
z
" transform="scale(0.015625)"/>
        <path id="DejaVuSans-2e" d="M 684 794 
L 1344 794 
L 1344 0 
L 684 0 
L 684 794 
z
" transform="scale(0.015625)"/>
       </defs>
       <use xlink:href="#DejaVuSans-30"/>
       <use xlink:href="#DejaVuSans-2e" transform="translate(63.623047 0)"/>
       <use xlink:href="#DejaVuSans-30" transform="translate(95.410156 0)"/>
      </g>
     </g>
    </g>
    <g id="xtick_2">
     <g id="line2d_3">
      <g>
       <use xlink:href="#ma2c32ccd91" x="121.715281" y="274.48" style="stroke: #000000; stroke-width: 0.8"/>
      </g>
     </g>
     <g id="text_2">
      <!-- 0.5 -->
      <g transform="translate(112.968563 289.838281) scale(0.11 -0.11)">
       <defs>
        <path id="DejaVuSans-35" d="M 691 4666 
L 3169 4666 
L 3169 4134 
L 1269 4134 
L 1269 2991 
Q 1406 3038 1543 3061 
Q 1681 3084 1819 3084 
Q 2600 3084 3056 2656 
Q 3513 2228 3513 1497 
Q 3513 744 3044 326 
Q 2575 -91 1722 -91 
Q 1428 -91 1123 -41 
Q 819 9 494 109 
L 494 744 
Q 775 591 1075 516 
Q 1375 441 1709 441 
Q 2250 441 2565 725 
Q 2881 1009 2881 1497 
Q 2881 1984 2565 2268 
Q 2250 2553 1709 2553 
Q 1456 2553 1204 2497 
Q 953 2441 691 2322 
L 691 4666 
z
" transform="scale(0.015625)"/>
       </defs>
       <use xlink:href="#DejaVuSans-30"/>
       <use xlink:href="#DejaVuSans-2e" transform="translate(63.623047 0)"/>
       <use xlink:href="#DejaVuSans-35" transform="translate(95.410156 0)"/>
      </g>
     </g>
    </g>
    <g id="xtick_3">
     <g id="line2d_4">
      <g>
       <use xlink:href="#ma2c32ccd91" x="181.467281" y="274.48" style="stroke: #000000; stroke-width: 0.8"/>
      </g>
     </g>
     <g id="text_3">
      <!-- 1.0 -->
      <g transform="translate(172.720562 289.838281) scale(0.11 -0.11)">
       <defs>
        <path id="DejaVuSans-31" d="M 794 531 
L 1825 531 
L 1825 4091 
L 703 3866 
L 703 4441 
L 1819 4666 
L 2450 4666 
L 2450 531 
L 3481 531 
L 3481 0 
L 794 0 
L 794 531 
z
" transform="scale(0.015625)"/>
       </defs>
       <use xlink:href="#DejaVuSans-31"/>
       <use xlink:href="#DejaVuSans-2e" transform="translate(63.623047 0)"/>
       <use xlink:href="#DejaVuSans-30" transform="translate(95.410156 0)"/>
      </g>
     </g>
    </g>
    <g id="xtick_4">
     <g id="line2d_5">
      <g>
       <use xlink:href="#ma2c32ccd91" x="241.219281" y="274.48" style="stroke: #000000; stroke-width: 0.8"/>
      </g>
     </g>
     <g id="text_4">
      <!-- 1.5 -->
      <g transform="translate(232.472562 289.838281) scale(0.11 -0.11)">
       <use xlink:href="#DejaVuSans-31"/>
       <use xlink:href="#DejaVuSans-2e" transform="translate(63.623047 0)"/>
       <use xlink:href="#DejaVuSans-35" transform="translate(95.410156 0)"/>
      </g>
     </g>
    </g>
    <g id="xtick_5">
     <g id="line2d_6">
      <g>
       <use xlink:href="#ma2c32ccd91" x="300.971281" y="274.48" style="stroke: #000000; stroke-width: 0.8"/>
      </g>
     </g>
     <g id="text_5">
      <!-- 2.0 -->
      <g transform="translate(292.224562 289.838281) scale(0.11 -0.11)">
       <defs>
        <path id="DejaVuSans-32" d="M 1228 531 
L 3431 531 
L 3431 0 
L 469 0 
L 469 531 
Q 828 903 1448 1529 
Q 2069 2156 2228 2338 
Q 2531 2678 2651 2914 
Q 2772 3150 2772 3378 
Q 2772 3750 2511 3984 
Q 2250 4219 1831 4219 
Q 1534 4219 1204 4116 
Q 875 4013 500 3803 
L 500 4441 
Q 881 4594 1212 4672 
Q 1544 4750 1819 4750 
Q 2544 4750 2975 4387 
Q 3406 4025 3406 3419 
Q 3406 3131 3298 2873 
Q 3191 2616 2906 2266 
Q 2828 2175 2409 1742 
Q 1991 1309 1228 531 
z
" transform="scale(0.015625)"/>
       </defs>
       <use xlink:href="#DejaVuSans-32"/>
       <use xlink:href="#DejaVuSans-2e" transform="translate(63.623047 0)"/>
       <use xlink:href="#DejaVuSans-30" transform="translate(95.410156 0)"/>
      </g>
     </g>
    </g>
    <g id="xtick_6">
     <g id="line2d_7">
      <g>
       <use xlink:href="#ma2c32ccd91" x="360.723281" y="274.48" style="stroke: #000000; stroke-width: 0.8"/>
      </g>
     </g>
     <g id="text_6">
      <!-- 2.5 -->
      <g transform="translate(351.976562 289.838281) scale(0.11 -0.11)">
       <use xlink:href="#DejaVuSans-32"/>
       <use xlink:href="#DejaVuSans-2e" transform="translate(63.623047 0)"/>
       <use xlink:href="#DejaVuSans-35" transform="translate(95.410156 0)"/>
      </g>
     </g>
    </g>
    <g id="xtick_7">
     <g id="line2d_8">
      <g>
       <use xlink:href="#ma2c32ccd91" x="420.475281" y="274.48" style="stroke: #000000; stroke-width: 0.8"/>
      </g>
     </g>
     <g id="text_7">
      <!-- 3.0 -->
      <g transform="translate(411.728562 289.838281) scale(0.11 -0.11)">
       <defs>
        <path id="DejaVuSans-33" d="M 2597 2516 
Q 3050 2419 3304 2112 
Q 3559 1806 3559 1356 
Q 3559 666 3084 287 
Q 2609 -91 1734 -91 
Q 1441 -91 1130 -33 
Q 819 25 488 141 
L 488 750 
Q 750 597 1062 519 
Q 1375 441 1716 441 
Q 2309 441 2620 675 
Q 2931 909 2931 1356 
Q 2931 1769 2642 2001 
Q 2353 2234 1838 2234 
L 1294 2234 
L 1294 2753 
L 1863 2753 
Q 2328 2753 2575 2939 
Q 2822 3125 2822 3475 
Q 2822 3834 2567 4026 
Q 2313 4219 1838 4219 
Q 1578 4219 1281 4162 
Q 984 4106 628 3988 
L 628 4550 
Q 988 4650 1302 4700 
Q 1616 4750 1894 4750 
Q 2613 4750 3031 4423 
Q 3450 4097 3450 3541 
Q 3450 3153 3228 2886 
Q 3006 2619 2597 2516 
z
" transform="scale(0.015625)"/>
       </defs>
       <use xlink:href="#DejaVuSans-33"/>
       <use xlink:href="#DejaVuSans-2e" transform="translate(63.623047 0)"/>
       <use xlink:href="#DejaVuSans-30" transform="translate(95.410156 0)"/>
      </g>
     </g>
    </g>
    <g id="xtick_8">
     <g id="line2d_9">
      <g>
       <use xlink:href="#ma2c32ccd91" x="480.227281" y="274.48" style="stroke: #000000; stroke-width: 0.8"/>
      </g>
     </g>
     <g id="text_8">
      <!-- 3.5 -->
      <g transform="translate(471.480562 289.838281) scale(0.11 -0.11)">
       <use xlink:href="#DejaVuSans-33"/>
       <use xlink:href="#DejaVuSans-2e" transform="translate(63.623047 0)"/>
       <use xlink:href="#DejaVuSans-35" transform="translate(95.410156 0)"/>
      </g>
     </g>
    </g>
    <g id="text_9">
     <!-- Time (s) -->
     <g transform="translate(238.876687 306.76375) scale(0.14 -0.14)">
      <defs>
       <path id="DejaVuSans-Bold-54" d="M 31 4666 
L 4331 4666 
L 4331 3756 
L 2784 3756 
L 2784 0 
L 1581 0 
L 1581 3756 
L 31 3756 
L 31 4666 
z
" transform="scale(0.015625)"/>
       <path id="DejaVuSans-Bold-69" d="M 538 3500 
L 1656 3500 
L 1656 0 
L 538 0 
L 538 3500 
z
M 538 4863 
L 1656 4863 
L 1656 3950 
L 538 3950 
L 538 4863 
z
" transform="scale(0.015625)"/>
       <path id="DejaVuSans-Bold-6d" d="M 3781 2919 
Q 3994 3244 4286 3414 
Q 4578 3584 4928 3584 
Q 5531 3584 5847 3212 
Q 6163 2841 6163 2131 
L 6163 0 
L 5038 0 
L 5038 1825 
Q 5041 1866 5042 1909 
Q 5044 1953 5044 2034 
Q 5044 2406 4934 2573 
Q 4825 2741 4581 2741 
Q 4263 2741 4089 2478 
Q 3916 2216 3909 1719 
L 3909 0 
L 2784 0 
L 2784 1825 
Q 2784 2406 2684 2573 
Q 2584 2741 2328 2741 
Q 2006 2741 1831 2477 
Q 1656 2213 1656 1722 
L 1656 0 
L 531 0 
L 531 3500 
L 1656 3500 
L 1656 2988 
Q 1863 3284 2130 3434 
Q 2397 3584 2719 3584 
Q 3081 3584 3359 3409 
Q 3638 3234 3781 2919 
z
" transform="scale(0.015625)"/>
       <path id="DejaVuSans-Bold-65" d="M 4031 1759 
L 4031 1441 
L 1416 1441 
Q 1456 1047 1700 850 
Q 1944 653 2381 653 
Q 2734 653 3104 758 
Q 3475 863 3866 1075 
L 3866 213 
Q 3469 63 3072 -14 
Q 2675 -91 2278 -91 
Q 1328 -91 801 392 
Q 275 875 275 1747 
Q 275 2603 792 3093 
Q 1309 3584 2216 3584 
Q 3041 3584 3536 3087 
Q 4031 2591 4031 1759 
z
M 2881 2131 
Q 2881 2450 2695 2645 
Q 2509 2841 2209 2841 
Q 1884 2841 1681 2658 
Q 1478 2475 1428 2131 
L 2881 2131 
z
" transform="scale(0.015625)"/>
       <path id="DejaVuSans-Bold-20" transform="scale(0.015625)"/>
       <path id="DejaVuSans-Bold-28" d="M 2413 -844 
L 1484 -844 
Q 1006 -72 778 623 
Q 550 1319 550 2003 
Q 550 2688 779 3389 
Q 1009 4091 1484 4856 
L 2413 4856 
Q 2013 4116 1813 3408 
Q 1613 2700 1613 2009 
Q 1613 1319 1811 609 
Q 2009 -100 2413 -844 
z
" transform="scale(0.015625)"/>
       <path id="DejaVuSans-Bold-73" d="M 3272 3391 
L 3272 2541 
Q 2913 2691 2578 2766 
Q 2244 2841 1947 2841 
Q 1628 2841 1473 2761 
Q 1319 2681 1319 2516 
Q 1319 2381 1436 2309 
Q 1553 2238 1856 2203 
L 2053 2175 
Q 2913 2066 3209 1816 
Q 3506 1566 3506 1031 
Q 3506 472 3093 190 
Q 2681 -91 1863 -91 
Q 1516 -91 1145 -36 
Q 775 19 384 128 
L 384 978 
Q 719 816 1070 734 
Q 1422 653 1784 653 
Q 2113 653 2278 743 
Q 2444 834 2444 1013 
Q 2444 1163 2330 1236 
Q 2216 1309 1875 1350 
L 1678 1375 
Q 931 1469 631 1722 
Q 331 1975 331 2491 
Q 331 3047 712 3315 
Q 1094 3584 1881 3584 
Q 2191 3584 2531 3537 
Q 2872 3491 3272 3391 
z
" transform="scale(0.015625)"/>
       <path id="DejaVuSans-Bold-29" d="M 513 -844 
Q 913 -100 1113 609 
Q 1313 1319 1313 2009 
Q 1313 2700 1113 3408 
Q 913 4116 513 4856 
L 1441 4856 
Q 1916 4091 2145 3389 
Q 2375 2688 2375 2003 
Q 2375 1319 2147 623 
Q 1919 -72 1441 -844 
L 513 -844 
z
" transform="scale(0.015625)"/>
      </defs>
      <use xlink:href="#DejaVuSans-Bold-54"/>
      <use xlink:href="#DejaVuSans-Bold-69" transform="translate(68.212891 0)"/>
      <use xlink:href="#DejaVuSans-Bold-6d" transform="translate(102.490234 0)"/>
      <use xlink:href="#DejaVuSans-Bold-65" transform="translate(206.689453 0)"/>
      <use xlink:href="#DejaVuSans-Bold-20" transform="translate(274.511719 0)"/>
      <use xlink:href="#DejaVuSans-Bold-28" transform="translate(309.326172 0)"/>
      <use xlink:href="#DejaVuSans-Bold-73" transform="translate(355.029297 0)"/>
      <use xlink:href="#DejaVuSans-Bold-29" transform="translate(414.550781 0)"/>
     </g>
    </g>
   </g>
   <g id="matplotlib.axis_2">
    <g id="ytick_1">
     <g id="line2d_10">
      <defs>
       <path id="m8ad9394459" d="M 0 0 
L -3.5 0 
" style="stroke: #000000; stroke-width: 0.8"/>
      </defs>
      <g>
       <use xlink:href="#m8ad9394459" x="61.963281" y="258.532191" style="stroke: #000000; stroke-width: 0.8"/>
      </g>
     </g>
     <g id="text_10">
      <!-- −300 -->
      <g transform="translate(24.749375 262.711331) scale(0.11 -0.11)">
       <defs>
        <path id="DejaVuSans-2212" d="M 678 2272 
L 4684 2272 
L 4684 1741 
L 678 1741 
L 678 2272 
z
" transform="scale(0.015625)"/>
       </defs>
       <use xlink:href="#DejaVuSans-2212"/>
       <use xlink:href="#DejaVuSans-33" transform="translate(83.789062 0)"/>
       <use xlink:href="#DejaVuSans-30" transform="translate(147.412109 0)"/>
       <use xlink:href="#DejaVuSans-30" transform="translate(211.035156 0)"/>
      </g>
     </g>
    </g>
    <g id="ytick_2">
     <g id="line2d_11">
      <g>
       <use xlink:href="#m8ad9394459" x="61.963281" y="219.301461" style="stroke: #000000; stroke-width: 0.8"/>
      </g>
     </g>
     <g id="text_11">
      <!-- −200 -->
      <g transform="translate(24.749375 223.480601) scale(0.11 -0.11)">
       <use xlink:href="#DejaVuSans-2212"/>
       <use xlink:href="#DejaVuSans-32" transform="translate(83.789062 0)"/>
       <use xlink:href="#DejaVuSans-30" transform="translate(147.412109 0)"/>
       <use xlink:href="#DejaVuSans-30" transform="translate(211.035156 0)"/>
      </g>
     </g>
    </g>
    <g id="ytick_3">
     <g id="line2d_12">
      <g>
       <use xlink:href="#m8ad9394459" x="61.963281" y="180.07073" style="stroke: #000000; stroke-width: 0.8"/>
      </g>
     </g>
     <g id="text_12">
      <!-- −100 -->
      <g transform="translate(24.749375 184.249871) scale(0.11 -0.11)">
       <use xlink:href="#DejaVuSans-2212"/>
       <use xlink:href="#DejaVuSans-31" transform="translate(83.789062 0)"/>
       <use xlink:href="#DejaVuSans-30" transform="translate(147.412109 0)"/>
       <use xlink:href="#DejaVuSans-30" transform="translate(211.035156 0)"/>
      </g>
     </g>
    </g>
    <g id="ytick_4">
     <g id="line2d_13">
      <g>
       <use xlink:href="#m8ad9394459" x="61.963281" y="140.84" style="stroke: #000000; stroke-width: 0.8"/>
      </g>
     </g>
     <g id="text_13">
      <!-- 0 -->
      <g transform="translate(47.964531 145.019141) scale(0.11 -0.11)">
       <use xlink:href="#DejaVuSans-30"/>
      </g>
     </g>
    </g>
    <g id="ytick_5">
     <g id="line2d_14">
      <g>
       <use xlink:href="#m8ad9394459" x="61.963281" y="101.60927" style="stroke: #000000; stroke-width: 0.8"/>
      </g>
     </g>
     <g id="text_14">
      <!-- 100 -->
      <g transform="translate(33.967031 105.78841) scale(0.11 -0.11)">
       <use xlink:href="#DejaVuSans-31"/>
       <use xlink:href="#DejaVuSans-30" transform="translate(63.623047 0)"/>
       <use xlink:href="#DejaVuSans-30" transform="translate(127.246094 0)"/>
      </g>
     </g>
    </g>
    <g id="ytick_6">
     <g id="line2d_15">
      <g>
       <use xlink:href="#m8ad9394459" x="61.963281" y="62.378539" style="stroke: #000000; stroke-width: 0.8"/>
      </g>
     </g>
     <g id="text_15">
      <!-- 200 -->
      <g transform="translate(33.967031 66.55768) scale(0.11 -0.11)">
       <use xlink:href="#DejaVuSans-32"/>
       <use xlink:href="#DejaVuSans-30" transform="translate(63.623047 0)"/>
       <use xlink:href="#DejaVuSans-30" transform="translate(127.246094 0)"/>
      </g>
     </g>
    </g>
    <g id="ytick_7">
     <g id="line2d_16">
      <g>
       <use xlink:href="#m8ad9394459" x="61.963281" y="23.147809" style="stroke: #000000; stroke-width: 0.8"/>
      </g>
     </g>
     <g id="text_16">
      <!-- 300 -->
      <g transform="translate(33.967031 27.32695) scale(0.11 -0.11)">
       <use xlink:href="#DejaVuSans-33"/>
       <use xlink:href="#DejaVuSans-30" transform="translate(63.623047 0)"/>
       <use xlink:href="#DejaVuSans-30" transform="translate(127.246094 0)"/>
      </g>
     </g>
    </g>
    <g id="text_17">
     <!-- V$_{oc}$ (V) -->
     <g transform="translate(17.837813 166.53) rotate(-90) scale(0.14 -0.14)">
      <defs>
       <path id="DejaVuSans-Bold-56" d="M 31 4666 
L 1241 4666 
L 2478 1222 
L 3713 4666 
L 4922 4666 
L 3194 0 
L 1759 0 
L 31 4666 
z
" transform="scale(0.015625)"/>
       <path id="DejaVuSans-Oblique-6f" d="M 1625 -91 
Q 1009 -91 651 289 
Q 294 669 294 1325 
Q 294 1706 417 2101 
Q 541 2497 738 2766 
Q 1047 3184 1428 3384 
Q 1809 3584 2291 3584 
Q 2888 3584 3255 3212 
Q 3622 2841 3622 2241 
Q 3622 1825 3500 1412 
Q 3378 1000 3181 728 
Q 2875 309 2494 109 
Q 2113 -91 1625 -91 
z
M 891 1344 
Q 891 869 1089 633 
Q 1288 397 1691 397 
Q 2269 397 2648 901 
Q 3028 1406 3028 2181 
Q 3028 2634 2825 2865 
Q 2622 3097 2228 3097 
Q 1903 3097 1650 2945 
Q 1397 2794 1197 2484 
Q 1050 2253 970 1956 
Q 891 1659 891 1344 
z
" transform="scale(0.015625)"/>
       <path id="DejaVuSans-Oblique-63" d="M 3431 3366 
L 3316 2797 
Q 3109 2947 2876 3022 
Q 2644 3097 2394 3097 
Q 2119 3097 1870 3000 
Q 1622 2903 1453 2725 
Q 1184 2453 1037 2087 
Q 891 1722 891 1331 
Q 891 859 1127 628 
Q 1363 397 1844 397 
Q 2081 397 2348 469 
Q 2616 541 2906 684 
L 2797 116 
Q 2547 13 2283 -39 
Q 2019 -91 1741 -91 
Q 1044 -91 669 257 
Q 294 606 294 1253 
Q 294 1797 489 2255 
Q 684 2713 1069 3078 
Q 1331 3328 1684 3456 
Q 2038 3584 2456 3584 
Q 2700 3584 2940 3529 
Q 3181 3475 3431 3366 
z
" transform="scale(0.015625)"/>
      </defs>
      <use xlink:href="#DejaVuSans-Bold-56" transform="translate(0 0.125)"/>
      <use xlink:href="#DejaVuSans-Oblique-6f" transform="translate(78.349609 -16.28125) scale(0.7)"/>
      <use xlink:href="#DejaVuSans-Oblique-63" transform="translate(121.176758 -16.28125) scale(0.7)"/>
      <use xlink:href="#DejaVuSans-Bold-20" transform="translate(162.397461 0.125)"/>
      <use xlink:href="#DejaVuSans-Bold-28" transform="translate(197.211914 0.125)"/>
      <use xlink:href="#DejaVuSans-Bold-56" transform="translate(242.915039 0.125)"/>
      <use xlink:href="#DejaVuSans-Bold-29" transform="translate(320.307617 0.125)"/>
     </g>
    </g>
   </g>
   <g id="patch_5">
    <path d="M 61.963281 274.48 
L 61.963281 7.2 
" style="fill: none; stroke: #000000; stroke-width: 0.8; stroke-linejoin: miter; stroke-linecap: square"/>
   </g>
   <g id="patch_6">
    <path d="M 61.963281 274.48 
L 480.227281 274.48 
" style="fill: none; stroke: #000000; stroke-width: 0.8; stroke-linejoin: miter; stroke-linecap: square"/>
   </g>
   <g id="line2d_17">
    <path d="M 61.963281 46.452823 
L 62.202289 46.970859 
L 63.038817 48.04965 
L 63.636337 48.745178 
L 64.114353 49.555625 
L 64.353361 49.703635 
L 64.950881 50.86365 
L 65.428897 52.352778 
L 65.906913 54.870757 
L 66.265425 57.882704 
L 66.623937 62.491474 
L 66.982449 70.055627 
L 67.340961 82.986628 
L 67.818977 113.74193 
L 69.133521 199.685486 
L 69.611537 221.383898 
L 69.850545 226.615363 
L 69.970049 227.002232 
L 70.089553 225.764611 
L 70.328561 219.469407 
L 70.687073 204.535513 
L 71.404097 160.037622 
L 72.718641 74.849075 
L 73.196657 56.222093 
L 73.555169 49.161529 
L 73.913681 45.158032 
L 74.391697 42.905989 
L 74.750209 41.937905 
L 75.108721 41.489662 
L 75.467233 41.317585 
L 75.945249 41.42769 
L 76.303761 41.653316 
L 76.781777 41.804334 
L 77.020785 41.653316 
L 77.259793 41.612402 
L 78.813345 41.695433 
L 79.291361 41.667756 
L 79.649873 41.713483 
L 79.888881 41.703254 
L 80.127889 41.981225 
L 80.964417 41.909627 
L 81.083921 42.130439 
L 81.203425 42.075085 
L 81.442433 42.298304 
L 81.561937 42.225502 
L 82.159457 42.725488 
L 82.398465 42.881321 
L 82.517969 42.794079 
L 82.995985 43.285642 
L 83.234993 43.549172 
L 83.474001 43.899343 
L 83.593505 43.83316 
L 83.832513 44.06781 
L 85.386065 46.467864 
L 85.625073 46.860152 
L 87.776145 49.832392 
L 88.015153 49.760793 
L 88.373665 50.588087 
L 88.732177 51.376272 
L 89.449201 54.333468 
L 89.807713 57.317738 
L 90.166225 61.639513 
L 90.524737 68.615237 
L 90.883249 80.661793 
L 91.361265 110.247461 
L 92.675809 197.011089 
L 93.273329 223.549887 
L 93.512337 227.154453 
L 93.631841 226.569636 
L 93.870849 221.207011 
L 94.229361 206.59922 
L 94.826881 170.840508 
L 96.499937 65.301239 
L 96.858449 53.898455 
L 97.216961 47.665783 
L 97.575473 44.333145 
L 98.053489 41.926473 
L 98.531505 41.078722 
L 99.129025 40.972829 
L 100.802081 41.519144 
L 102.594641 41.684001 
L 103.909185 41.578107 
L 104.387201 41.761014 
L 105.104225 41.948133 
L 105.582241 42.252577 
L 106.060257 42.759182 
L 107.374801 43.985382 
L 107.613809 44.108724 
L 107.852817 44.499206 
L 108.211329 44.818091 
L 109.645377 46.442594 
L 110.123393 47.455803 
L 110.242897 47.47265 
L 110.720913 48.15073 
L 111.318433 48.8974 
L 112.274465 50.424433 
L 113.110993 54.262471 
L 113.469505 57.377303 
L 113.828017 62.218918 
L 114.186529 69.975604 
L 114.545041 83.649061 
L 115.023057 115.143205 
L 116.218097 194.135735 
L 116.815617 222.286393 
L 117.054625 227.13881 
L 117.174129 227.231466 
L 117.413137 222.922353 
L 117.771649 209.585879 
L 118.369169 175.149028 
L 120.042225 67.811389 
L 120.520241 52.144594 
L 120.878753 46.679048 
L 121.356769 43.075057 
L 121.715281 41.892178 
L 122.193297 41.136483 
L 122.790817 41.062477 
L 123.029825 41.31939 
L 123.507841 41.357897 
L 124.224865 41.462587 
L 124.702881 41.461985 
L 124.822385 41.449952 
L 125.061393 41.548625 
L 125.897921 41.677383 
L 126.256433 41.804334 
L 126.495441 41.701449 
L 128.766017 41.593149 
L 129.005025 41.781471 
L 129.244033 41.848256 
L 129.961057 42.280254 
L 130.080561 42.284466 
L 130.558577 43.007671 
L 131.753617 44.624955 
L 131.992625 44.79643 
L 132.112129 44.871639 
L 132.590145 45.667646 
L 132.709649 45.75188 
L 132.829153 45.657417 
L 133.426673 46.4444 
L 133.785185 46.988307 
L 134.502209 47.868548 
L 135.816753 50.296879 
L 136.414273 52.491162 
L 136.772785 54.804573 
L 137.250801 59.708162 
L 137.609313 65.797632 
L 137.967825 76.021747 
L 138.326337 94.388783 
L 140.118897 210.090064 
L 140.477409 223.967441 
L 140.716417 227.199578 
L 140.835921 226.446295 
L 141.074929 220.590908 
L 141.433441 206.249052 
L 142.030961 170.220191 
L 143.704017 63.931242 
L 144.062529 52.480324 
L 144.421041 46.541265 
L 144.779553 43.443278 
L 145.138065 41.934295 
L 145.377073 41.434309 
L 146.213601 41.137084 
L 146.452609 41.557049 
L 146.930625 41.938507 
L 147.289137 42.0444 
L 148.006161 42.114194 
L 148.364673 42.066662 
L 148.723185 42.115397 
L 148.842689 41.903008 
L 149.320705 41.883755 
L 149.559713 41.838028 
L 150.037729 41.828401 
L 151.830289 41.797716 
L 152.308305 41.877738 
L 152.905825 42.107575 
L 153.503345 42.554615 
L 155.534913 45.1821 
L 156.729953 46.759674 
L 156.968961 46.955216 
L 157.924993 48.405837 
L 159.000529 49.532159 
L 160.195569 53.950807 
L 160.554081 56.729909 
L 160.912593 60.978883 
L 161.271105 67.726576 
L 161.629617 79.143189 
L 161.988129 99.477063 
L 163.541681 201.882764 
L 164.019697 222.909716 
L 164.258705 227.357815 
L 164.378209 227.241093 
L 164.617217 222.598658 
L 164.975729 209.044382 
L 165.573249 173.80551 
L 167.246305 65.688708 
L 167.604817 53.1939 
L 167.963329 46.705521 
L 168.321841 43.463133 
L 168.799857 41.812758 
L 169.158369 41.344058 
L 169.516881 41.228538 
L 169.755889 41.331423 
L 170.353409 41.884356 
L 170.592417 41.875331 
L 170.831425 41.851866 
L 171.070433 41.625037 
L 172.145969 41.5757 
L 172.504481 41.560057 
L 172.743489 41.393997 
L 174.177537 41.55404 
L 174.536049 41.5035 
L 175.253073 41.621427 
L 175.731089 41.758608 
L 176.448113 42.081102 
L 177.523649 42.926446 
L 177.882161 43.408984 
L 178.001665 43.40056 
L 178.479681 44.115944 
L 180.750257 47.390823 
L 181.586785 48.343865 
L 181.706289 48.207287 
L 182.781825 49.702431 
L 183.140337 50.59651 
L 183.857361 54.071742 
L 184.215873 57.196201 
L 184.574385 61.810988 
L 184.932897 69.257816 
L 185.291409 82.241164 
L 185.769425 113.192608 
L 186.964465 192.657446 
L 187.561985 221.593276 
L 187.800993 227.193561 
L 187.920497 227.712195 
L 188.040001 226.609346 
L 188.279009 220.495845 
L 188.637521 205.649192 
L 189.235041 169.009641 
L 190.788593 67.54966 
L 191.266609 51.284209 
L 191.625121 45.755487 
L 191.983633 43.012484 
L 192.342145 41.791699 
L 192.581153 41.538397 
L 192.820161 41.211691 
L 193.178673 41.300738 
L 193.895697 41.949337 
L 194.373713 42.016723 
L 195.210241 41.822384 
L 195.688257 41.783276 
L 196.166273 41.775454 
L 196.883297 41.812156 
L 197.958833 41.852468 
L 198.078337 41.90361 
L 198.317345 41.804334 
L 199.392881 41.739956 
L 199.631889 41.948735 
L 199.990401 42.119007 
L 200.587921 42.638247 
L 200.946433 43.153876 
L 201.424449 43.760358 
L 201.902465 44.888486 
L 202.858497 45.705551 
L 203.814529 47.111649 
L 204.053537 47.25244 
L 204.173041 47.161588 
L 204.651057 47.496115 
L 205.248577 48.556856 
L 206.324113 49.573675 
L 206.563121 50.053806 
L 207.160641 52.140991 
L 207.519153 54.225769 
L 207.877665 57.403175 
L 208.236177 62.422281 
L 208.594689 70.581482 
L 208.953201 85.124945 
L 209.550721 125.769804 
L 210.745761 202.670342 
L 211.223777 223.437977 
L 211.462785 227.445658 
L 211.582289 227.104515 
L 211.821297 221.850189 
L 212.179809 208.25921 
L 212.777329 172.440934 
L 214.450385 64.471536 
L 214.808897 52.361193 
L 215.167409 46.502759 
L 215.525921 43.451701 
L 216.003937 41.622029 
L 216.362449 41.223123 
L 216.959969 41.28329 
L 217.318481 41.712279 
L 217.557489 41.768836 
L 217.796497 41.551032 
L 218.274513 41.601572 
L 218.513521 41.421674 
L 219.350049 41.428894 
L 220.784097 41.394598 
L 221.023105 41.538999 
L 221.859633 41.736948 
L 222.098641 41.939108 
L 222.815665 41.894585 
L 223.054673 42.223096 
L 224.010705 42.496855 
L 224.369217 42.7658 
L 224.488721 42.707438 
L 224.727729 42.947504 
L 225.086241 43.517284 
L 227.117809 46.305414 
L 227.237313 46.461848 
L 227.356817 46.420935 
L 227.954337 47.124886 
L 228.073841 47.022603 
L 229.866401 49.172362 
L 230.344417 50.239119 
L 230.702929 51.68974 
L 231.061441 53.6596 
L 231.539457 57.97897 
L 231.897969 63.526941 
L 232.256481 72.68611 
L 232.614993 88.961162 
L 234.766065 222.036702 
L 235.005073 227.230263 
L 235.124577 227.621945 
L 235.244081 226.248348 
L 235.602593 215.546561 
L 236.080609 190.838628 
L 237.395153 100.60937 
L 238.112177 60.606431 
L 238.470689 50.088695 
L 238.829201 44.97753 
L 239.307217 41.899999 
L 239.785233 40.88679 
L 240.024241 40.842267 
L 240.263249 40.950567 
L 240.621761 41.360303 
L 240.980273 41.708669 
L 241.219281 41.749583 
L 241.219281 41.749583 
" clip-path="url(#p36cdf8fc01)" style="fill: none; stroke: #333333; stroke-width: 0.8; stroke-linecap: square"/>
   </g>
   <g id="line2d_18">
    <path d="M 241.219281 55.711889 
L 242.892337 56.608374 
L 243.250849 57.034956 
L 243.728865 57.65708 
L 244.565393 58.951869 
L 245.879937 63.290492 
L 246.596961 67.23081 
L 247.074977 71.382311 
L 247.552993 77.661904 
L 247.911505 85.769955 
L 248.270017 100.081765 
L 250.182081 208.424064 
L 250.540593 217.244458 
L 250.660097 217.286574 
L 250.899105 211.460063 
L 251.496625 180.089303 
L 253.289185 78.465717 
L 253.767201 66.115314 
L 254.245217 59.591439 
L 254.723233 56.084321 
L 255.201249 53.563935 
L 255.679265 52.343753 
L 256.037777 51.795634 
L 256.276785 51.640404 
L 256.635297 51.309486 
L 256.874305 51.316105 
L 256.993809 50.958714 
L 257.830337 51.229465 
L 259.025377 51.450878 
L 261.654465 53.485117 
L 262.490993 54.533824 
L 262.849505 54.685444 
L 263.925041 55.504915 
L 264.283553 55.393005 
L 264.403057 55.644502 
L 264.522561 55.506119 
L 264.761569 55.644502 
L 264.881073 55.415267 
L 265.837105 56.202248 
L 266.076113 56.511505 
L 266.434625 56.721487 
L 266.554129 56.960951 
L 266.673633 56.939893 
L 266.793137 57.045184 
L 266.912641 56.976594 
L 268.824705 59.636566 
L 269.302721 60.983098 
L 269.780737 62.634073 
L 270.856273 68.864335 
L 271.334289 73.957444 
L 271.692801 79.939211 
L 272.051313 89.623623 
L 272.409825 107.271657 
L 273.604865 180.877471 
L 274.321889 212.840879 
L 274.560897 217.403297 
L 274.680401 217.255287 
L 274.799905 215.277017 
L 275.158417 199.828698 
L 276.114449 143.902195 
L 277.189985 82.506504 
L 277.668001 68.361336 
L 278.146017 60.894651 
L 278.624033 56.87792 
L 278.982545 55.103603 
L 279.580065 53.571155 
L 279.819073 53.266712 
L 280.416593 52.357592 
L 281.372625 51.926196 
L 281.492129 51.914163 
L 281.731137 51.579635 
L 281.970145 51.659055 
L 282.089649 51.639802 
L 282.328657 51.43704 
L 283.284689 51.573619 
L 283.643201 51.763144 
L 284.240721 52.044123 
L 284.957745 52.623529 
L 285.794273 53.26972 
L 286.033281 53.368394 
L 287.945345 54.576542 
L 288.184353 54.643929 
L 289.618401 55.767844 
L 289.976913 55.979631 
L 290.335425 56.249178 
L 290.454929 56.219095 
L 290.813441 56.630636 
L 291.530465 57.320748 
L 292.366993 58.532507 
L 292.964513 59.780365 
L 293.442529 61.123286 
L 294.159553 64.125606 
L 294.637569 67.011803 
L 295.115585 71.193989 
L 295.593601 77.775017 
L 295.952113 85.973318 
L 296.310625 100.489092 
L 298.222689 209.123799 
L 298.581201 217.506181 
L 298.700705 217.569356 
L 298.939713 211.445622 
L 299.656737 172.31941 
L 301.329793 77.752743 
L 301.807809 65.555764 
L 302.405329 57.893534 
L 302.883345 54.891214 
L 303.480865 52.641579 
L 303.839377 52.061571 
L 304.436897 51.313096 
L 304.675905 51.221643 
L 304.914913 51.196975 
L 305.034417 51.139215 
L 305.153921 50.814916 
L 305.273425 50.868464 
L 305.512433 50.778816 
L 305.870945 51.032118 
L 306.109953 51.087471 
L 306.348961 51.073633 
L 306.946481 51.196975 
L 307.424497 51.381687 
L 307.783009 51.638599 
L 308.022017 51.865428 
L 308.500033 52.11151 
L 312.204657 55.018166 
L 312.443665 55.02659 
L 312.802177 55.248605 
L 313.041185 55.553049 
L 313.877713 55.984445 
L 314.714241 56.488642 
L 314.953249 56.812339 
L 315.192257 56.880327 
L 315.789777 57.513282 
L 316.148289 58.146236 
L 316.745809 59.197349 
L 317.701841 62.170187 
L 318.060353 63.791681 
L 318.777377 68.207315 
L 319.255393 72.811269 
L 319.613905 78.036141 
L 319.972417 86.384858 
L 320.330929 101.159347 
L 322.123489 204.892897 
L 322.482001 216.2114 
L 322.601505 217.529044 
L 322.721009 217.234229 
L 322.960017 210.958877 
L 323.557537 179.059254 
L 325.350097 78.178723 
L 325.708609 68.408266 
L 326.186625 61.152766 
L 326.784145 56.378536 
L 327.142657 54.706502 
L 327.381665 54.151163 
L 327.979185 52.394293 
L 328.576705 51.464717 
L 329.054721 51.130189 
L 329.652241 51.1699 
L 329.891249 50.941266 
L 330.130257 51.065811 
L 330.488769 51.086268 
L 330.608273 50.912987 
L 331.444801 51.199983 
L 331.683809 51.423202 
L 332.161825 51.566399 
L 332.281329 51.507435 
L 332.998353 52.097671 
L 333.237361 52.508009 
L 334.073889 53.164428 
L 334.193393 53.122913 
L 334.671409 53.501362 
L 334.910417 53.812424 
L 335.149425 53.958629 
L 335.388433 54.296165 
L 336.583473 55.27929 
L 336.822481 55.538007 
L 336.941985 55.598776 
L 337.180993 55.944735 
L 337.539505 56.190215 
L 338.017521 56.07289 
L 338.256529 56.399595 
L 338.376033 56.33281 
L 338.734545 56.681175 
L 339.212561 56.861074 
L 339.451569 57.175144 
L 339.571073 57.090911 
L 340.766113 58.985562 
L 341.244129 60.247259 
L 341.841649 62.437327 
L 342.439169 65.470332 
L 342.917185 68.813194 
L 343.395201 74.137944 
L 343.753713 80.423552 
L 344.112225 90.423236 
L 344.470737 108.677146 
L 345.546273 175.686914 
L 346.263297 209.4132 
L 346.502305 215.989387 
L 346.621809 217.281761 
L 346.741313 216.923169 
L 346.860817 214.76801 
L 347.219329 198.845579 
L 348.294865 135.31223 
L 349.250897 82.131667 
L 349.728913 67.851724 
L 350.206929 60.777326 
L 350.684945 56.634245 
L 351.282465 53.290176 
L 351.879985 51.708994 
L 352.238497 51.295046 
L 352.836017 50.547775 
L 353.075025 50.606739 
L 353.314033 50.527318 
L 353.792049 50.909377 
L 354.031057 50.894937 
L 354.867585 51.011661 
L 355.226097 51.082056 
L 355.943121 51.43343 
L 356.182129 51.730052 
L 356.779649 52.134975 
L 357.138161 52.482739 
L 358.691713 53.473084 
L 358.930721 53.527234 
L 360.006257 54.450192 
L 360.245265 54.742001 
L 360.842785 55.092172 
L 360.962289 55.325618 
L 361.081793 55.309373 
L 361.798817 55.891788 
L 361.918321 55.936913 
L 362.157329 55.905626 
L 362.515841 56.205858 
L 362.635345 56.065068 
L 363.113361 56.407417 
L 363.591377 56.858667 
L 364.188897 57.589694 
L 364.786417 58.780995 
L 365.383937 60.436784 
L 366.578977 66.188722 
L 367.056993 70.055034 
L 367.535009 75.955578 
L 367.893521 83.098559 
L 368.252033 95.230541 
L 368.730049 124.776481 
L 369.805585 188.271925 
L 370.403105 213.453975 
L 370.642113 217.48392 
L 370.761617 217.153606 
L 371.000625 210.392109 
L 371.717649 171.320648 
L 373.390705 77.279232 
L 373.868721 65.452879 
L 374.227233 60.379022 
L 374.705249 56.511505 
L 375.302769 53.737216 
L 375.900289 52.351575 
L 376.736817 51.146435 
L 376.975825 50.999026 
L 378.290369 50.784832 
L 379.007393 50.961121 
L 380.441441 51.746297 
L 381.516977 52.672264 
L 381.755985 53.03868 
L 382.592513 53.491134 
L 383.190033 53.938774 
L 383.309537 54.228177 
L 383.429041 54.202305 
L 383.907057 54.519985 
L 384.026561 54.564509 
L 384.146065 54.435752 
L 384.624081 54.695672 
L 385.699617 55.501305 
L 385.819121 55.367133 
L 386.058129 55.613817 
L 386.416641 56.046416 
L 388.209201 57.926628 
L 389.165233 59.751485 
L 389.762753 61.747817 
L 390.240769 63.845229 
L 390.838289 67.725981 
L 391.316305 72.499004 
L 391.674817 77.950704 
L 392.033329 86.517223 
L 392.391841 101.947527 
L 394.064897 200.187884 
L 394.542913 216.425593 
L 394.662417 217.601244 
L 394.781921 217.030265 
L 395.020929 210.002231 
L 395.737953 170.880832 
L 397.411009 76.965763 
L 397.889025 65.355409 
L 398.367041 58.934419 
L 398.845057 55.467612 
L 399.442577 52.990546 
L 399.801089 52.33533 
L 400.040097 51.988769 
L 400.279105 51.471937 
L 401.115633 50.922012 
L 402.908193 50.787239 
L 403.147201 50.839584 
L 403.386209 50.965934 
L 403.625217 51.005043 
L 404.342241 51.385898 
L 405.059265 51.933416 
L 405.298273 52.278773 
L 406.254305 53.0459 
L 406.612817 53.189698 
L 406.971329 53.513396 
L 407.210337 54.127698 
L 407.568849 54.411685 
L 407.688353 54.287742 
L 409.361409 55.382175 
L 409.480913 55.374353 
L 409.719921 54.993498 
L 409.958929 55.071715 
L 410.436945 55.375557 
L 410.795457 55.625851 
L 411.870993 56.792484 
L 412.827025 58.780995 
L 413.544049 60.820648 
L 414.141569 63.425265 
L 414.500081 65.684525 
L 414.978097 69.180812 
L 415.456113 74.424939 
L 415.814625 80.703928 
L 416.173137 90.972557 
L 416.531649 110.032094 
L 417.607185 176.540072 
L 418.324209 210.08947 
L 418.563217 216.378663 
L 418.682721 217.472488 
L 418.802225 216.74989 
L 419.041233 209.393348 
L 419.758257 169.749101 
L 421.431313 76.260009 
L 421.909329 64.656874 
L 422.387345 58.62456 
L 422.865361 55.237774 
L 423.343377 53.440594 
L 423.701889 52.739651 
L 424.299409 51.813082 
L 424.777425 51.387703 
L 425.852961 51.182535 
L 426.091969 51.023093 
L 427.406513 51.308283 
L 428.243041 51.688537 
L 429.796593 52.702347 
L 430.155105 53.006791 
L 430.633121 53.232417 
L 431.111137 53.511591 
L 431.230641 53.504972 
L 431.589153 53.758274 
L 431.708657 53.822653 
L 431.947665 54.13191 
L 432.306177 54.269692 
L 432.545185 54.350315 
L 432.784193 54.511562 
L 433.023201 54.803371 
L 434.935265 56.318972 
L 435.293777 56.617399 
L 435.413281 56.624619 
L 436.608321 58.467526 
L 436.847329 58.886889 
L 437.325345 60.162423 
L 437.803361 61.82483 
L 438.161873 63.218292 
L 438.759393 66.672463 
L 439.237409 70.97438 
L 439.715425 77.74734 
L 440.073937 86.496164 
L 440.432449 102.446306 
L 441.986001 195.321023 
L 442.464017 214.121822 
L 442.703025 217.504377 
L 442.822529 216.655429 
L 443.061537 209.273015 
L 443.898065 162.627801 
L 445.451617 76.444721 
L 445.810129 67.094225 
L 446.288145 59.859182 
L 446.766161 56.131251 
L 447.244177 53.828669 
L 447.722193 52.582014 
L 448.319713 51.509842 
L 448.917233 51.041142 
L 449.156241 50.964129 
L 449.275745 50.772197 
L 449.992769 50.857032 
L 451.546321 51.005644 
L 452.741361 51.674699 
L 453.219377 52.189125 
L 453.577889 52.699339 
L 453.936401 53.10005 
L 455.848465 54.704096 
L 456.087473 54.764263 
L 456.206977 54.730569 
L 456.804497 55.034411 
L 457.043505 55.281095 
L 457.163009 55.458587 
L 457.402017 55.356905 
L 457.880033 55.672781 
L 457.999537 55.598174 
L 459.314081 56.655304 
L 460.270113 57.804489 
L 460.867633 59.116124 
L 461.465153 60.756871 
L 462.062673 63.204453 
L 462.660193 66.630947 
L 463.138209 70.638651 
L 463.616225 76.794903 
L 463.974737 84.156889 
L 464.333249 97.046968 
L 464.930769 135.086001 
L 465.886801 190.296524 
L 466.484321 214.74334 
L 466.723329 217.992927 
L 466.842833 216.936405 
L 467.081841 209.134632 
L 467.798865 169.355612 
L 469.232913 85.320495 
L 469.710929 69.683798 
L 470.188945 61.422313 
L 470.666961 56.90319 
L 471.144977 54.344298 
L 471.503489 53.049509 
L 471.981505 52.090451 
L 472.459521 51.542934 
L 472.818033 51.342578 
L 473.057041 51.26737 
L 473.774065 51.242701 
L 474.013073 51.054379 
L 475.088609 51.055583 
L 476.283649 51.44426 
L 476.522657 51.728247 
L 476.761665 51.926196 
L 477.000673 52.335932 
L 479.032241 53.566342 
L 479.390753 53.852134 
L 480.227281 54.439362 
L 480.227281 54.439362 
" clip-path="url(#p36cdf8fc01)" style="fill: none; stroke: #d94452; stroke-width: 0.8; stroke-linecap: square"/>
   </g>
   <g id="text_18">
    <g id="patch_7">
     <path d="M 109.341281 264.116 
L 193.841281 264.116 
Q 196.841281 264.116 196.841281 261.116 
L 196.841281 250.516 
Q 196.841281 247.516 193.841281 247.516 
L 109.341281 247.516 
Q 106.341281 247.516 106.341281 250.516 
L 106.341281 261.116 
Q 106.341281 264.116 109.341281 264.116 
z
" style="fill: #ffffff; opacity: 0.85; stroke: #333333; stroke-linejoin: miter"/>
    </g>
    <!-- V$_{p-p}$ = 476.35 V -->
    <g style="fill: #333333" transform="translate(109.341281 258.016) scale(0.1 -0.1)">
     <defs>
      <path id="DejaVuSans-56" d="M 1831 0 
L 50 4666 
L 709 4666 
L 2188 738 
L 3669 4666 
L 4325 4666 
L 2547 0 
L 1831 0 
z
" transform="scale(0.015625)"/>
      <path id="DejaVuSans-Oblique-70" d="M 3175 2156 
Q 3175 2616 2975 2859 
Q 2775 3103 2400 3103 
Q 2144 3103 1911 2972 
Q 1678 2841 1497 2591 
Q 1319 2344 1212 1994 
Q 1106 1644 1106 1300 
Q 1106 863 1306 627 
Q 1506 391 1875 391 
Q 2147 391 2380 519 
Q 2613 647 2778 891 
Q 2956 1147 3065 1494 
Q 3175 1841 3175 2156 
z
M 1394 2969 
Q 1625 3272 1939 3428 
Q 2253 3584 2638 3584 
Q 3175 3584 3472 3232 
Q 3769 2881 3769 2247 
Q 3769 1728 3584 1258 
Q 3400 788 3053 416 
Q 2822 169 2531 39 
Q 2241 -91 1919 -91 
Q 1547 -91 1294 64 
Q 1041 219 916 525 
L 556 -1331 
L -19 -1331 
L 922 3500 
L 1497 3500 
L 1394 2969 
z
" transform="scale(0.015625)"/>
      <path id="DejaVuSans-20" transform="scale(0.015625)"/>
      <path id="DejaVuSans-3d" d="M 678 2906 
L 4684 2906 
L 4684 2381 
L 678 2381 
L 678 2906 
z
M 678 1631 
L 4684 1631 
L 4684 1100 
L 678 1100 
L 678 1631 
z
" transform="scale(0.015625)"/>
      <path id="DejaVuSans-34" d="M 2419 4116 
L 825 1625 
L 2419 1625 
L 2419 4116 
z
M 2253 4666 
L 3047 4666 
L 3047 1625 
L 3713 1625 
L 3713 1100 
L 3047 1100 
L 3047 0 
L 2419 0 
L 2419 1100 
L 313 1100 
L 313 1709 
L 2253 4666 
z
" transform="scale(0.015625)"/>
      <path id="DejaVuSans-37" d="M 525 4666 
L 3525 4666 
L 3525 4397 
L 1831 0 
L 1172 0 
L 2766 4134 
L 525 4134 
L 525 4666 
z
" transform="scale(0.015625)"/>
      <path id="DejaVuSans-36" d="M 2113 2584 
Q 1688 2584 1439 2293 
Q 1191 2003 1191 1497 
Q 1191 994 1439 701 
Q 1688 409 2113 409 
Q 2538 409 2786 701 
Q 3034 994 3034 1497 
Q 3034 2003 2786 2293 
Q 2538 2584 2113 2584 
z
M 3366 4563 
L 3366 3988 
Q 3128 4100 2886 4159 
Q 2644 4219 2406 4219 
Q 1781 4219 1451 3797 
Q 1122 3375 1075 2522 
Q 1259 2794 1537 2939 
Q 1816 3084 2150 3084 
Q 2853 3084 3261 2657 
Q 3669 2231 3669 1497 
Q 3669 778 3244 343 
Q 2819 -91 2113 -91 
Q 1303 -91 875 529 
Q 447 1150 447 2328 
Q 447 3434 972 4092 
Q 1497 4750 2381 4750 
Q 2619 4750 2861 4703 
Q 3103 4656 3366 4563 
z
" transform="scale(0.015625)"/>
     </defs>
     <use xlink:href="#DejaVuSans-56" transform="translate(0 0.78125)"/>
     <use xlink:href="#DejaVuSans-Oblique-70" transform="translate(69.365234 -15.625) scale(0.7)"/>
     <use xlink:href="#DejaVuSans-2212" transform="translate(127.436523 -15.625) scale(0.7)"/>
     <use xlink:href="#DejaVuSans-Oblique-70" transform="translate(199.726562 -15.625) scale(0.7)"/>
     <use xlink:href="#DejaVuSans-20" transform="translate(246.894531 0.78125)"/>
     <use xlink:href="#DejaVuSans-3d" transform="translate(278.681641 0.78125)"/>
     <use xlink:href="#DejaVuSans-20" transform="translate(362.470703 0.78125)"/>
     <use xlink:href="#DejaVuSans-34" transform="translate(394.257812 0.78125)"/>
     <use xlink:href="#DejaVuSans-37" transform="translate(457.880859 0.78125)"/>
     <use xlink:href="#DejaVuSans-36" transform="translate(521.503906 0.78125)"/>
     <use xlink:href="#DejaVuSans-2e" transform="translate(585.126953 0.78125)"/>
     <use xlink:href="#DejaVuSans-33" transform="translate(616.914062 0.78125)"/>
     <use xlink:href="#DejaVuSans-35" transform="translate(680.537109 0.78125)"/>
     <use xlink:href="#DejaVuSans-20" transform="translate(744.160156 0.78125)"/>
     <use xlink:href="#DejaVuSans-56" transform="translate(775.947266 0.78125)"/>
    </g>
   </g>
   <g id="text_19">
    <g id="patch_8">
     <path d="M 318.473281 264.116 
L 402.973281 264.116 
Q 405.973281 264.116 405.973281 261.116 
L 405.973281 250.516 
Q 405.973281 247.516 402.973281 247.516 
L 318.473281 247.516 
Q 315.473281 247.516 315.473281 250.516 
L 315.473281 261.116 
Q 315.473281 264.116 318.473281 264.116 
z
" style="fill: #ffffff; opacity: 0.85; stroke: #d94452; stroke-linejoin: miter"/>
    </g>
    <!-- V$_{p-p}$ = 426.94 V -->
    <g style="fill: #d94452" transform="translate(318.473281 258.016) scale(0.1 -0.1)">
     <defs>
      <path id="DejaVuSans-39" d="M 703 97 
L 703 672 
Q 941 559 1184 500 
Q 1428 441 1663 441 
Q 2288 441 2617 861 
Q 2947 1281 2994 2138 
Q 2813 1869 2534 1725 
Q 2256 1581 1919 1581 
Q 1219 1581 811 2004 
Q 403 2428 403 3163 
Q 403 3881 828 4315 
Q 1253 4750 1959 4750 
Q 2769 4750 3195 4129 
Q 3622 3509 3622 2328 
Q 3622 1225 3098 567 
Q 2575 -91 1691 -91 
Q 1453 -91 1209 -44 
Q 966 3 703 97 
z
M 1959 2075 
Q 2384 2075 2632 2365 
Q 2881 2656 2881 3163 
Q 2881 3666 2632 3958 
Q 2384 4250 1959 4250 
Q 1534 4250 1286 3958 
Q 1038 3666 1038 3163 
Q 1038 2656 1286 2365 
Q 1534 2075 1959 2075 
z
" transform="scale(0.015625)"/>
     </defs>
     <use xlink:href="#DejaVuSans-56" transform="translate(0 0.78125)"/>
     <use xlink:href="#DejaVuSans-Oblique-70" transform="translate(69.365234 -15.625) scale(0.7)"/>
     <use xlink:href="#DejaVuSans-2212" transform="translate(127.436523 -15.625) scale(0.7)"/>
     <use xlink:href="#DejaVuSans-Oblique-70" transform="translate(199.726562 -15.625) scale(0.7)"/>
     <use xlink:href="#DejaVuSans-20" transform="translate(246.894531 0.78125)"/>
     <use xlink:href="#DejaVuSans-3d" transform="translate(278.681641 0.78125)"/>
     <use xlink:href="#DejaVuSans-20" transform="translate(362.470703 0.78125)"/>
     <use xlink:href="#DejaVuSans-34" transform="translate(394.257812 0.78125)"/>
     <use xlink:href="#DejaVuSans-32" transform="translate(457.880859 0.78125)"/>
     <use xlink:href="#DejaVuSans-36" transform="translate(521.503906 0.78125)"/>
     <use xlink:href="#DejaVuSans-2e" transform="translate(585.126953 0.78125)"/>
     <use xlink:href="#DejaVuSans-39" transform="translate(616.914062 0.78125)"/>
     <use xlink:href="#DejaVuSans-34" transform="translate(680.537109 0.78125)"/>
     <use xlink:href="#DejaVuSans-20" transform="translate(744.160156 0.78125)"/>
     <use xlink:href="#DejaVuSans-56" transform="translate(775.947266 0.78125)"/>
    </g>
   </g>
   <g id="text_20">
    <g id="patch_9">
     <path d="M 410.062955 38.345562 
L 467.679361 38.345562 
Q 472.879361 38.345562 472.879361 33.145562 
L 472.879361 20.564 
Q 472.879361 15.364 467.679361 15.364 
L 410.062955 15.364 
Q 404.862955 15.364 404.862955 20.564 
L 404.862955 33.145562 
Q 404.862955 38.345562 410.062955 38.345562 
z
" style="fill: #ffffff; opacity: 0.9; stroke: #f0ad4e; stroke-width: 1.5; stroke-linejoin: miter"/>
    </g>
    <!-- f = 5 Hz -->
    <g style="fill: #f0ad4e" transform="translate(410.062955 30.441969) scale(0.13 -0.13)">
     <defs>
      <path id="DejaVuSans-Bold-66" d="M 2841 4863 
L 2841 4128 
L 2222 4128 
Q 1984 4128 1890 4042 
Q 1797 3956 1797 3744 
L 1797 3500 
L 2753 3500 
L 2753 2700 
L 1797 2700 
L 1797 0 
L 678 0 
L 678 2700 
L 122 2700 
L 122 3500 
L 678 3500 
L 678 3744 
Q 678 4316 997 4589 
Q 1316 4863 1984 4863 
L 2841 4863 
z
" transform="scale(0.015625)"/>
      <path id="DejaVuSans-Bold-3d" d="M 678 3084 
L 4684 3084 
L 4684 2350 
L 678 2350 
L 678 3084 
z
M 678 1663 
L 4684 1663 
L 4684 922 
L 678 922 
L 678 1663 
z
" transform="scale(0.015625)"/>
      <path id="DejaVuSans-Bold-35" d="M 678 4666 
L 3669 4666 
L 3669 3781 
L 1638 3781 
L 1638 3059 
Q 1775 3097 1914 3117 
Q 2053 3138 2203 3138 
Q 3056 3138 3531 2711 
Q 4006 2284 4006 1522 
Q 4006 766 3489 337 
Q 2972 -91 2053 -91 
Q 1656 -91 1267 -14 
Q 878 63 494 219 
L 494 1166 
Q 875 947 1217 837 
Q 1559 728 1863 728 
Q 2300 728 2551 942 
Q 2803 1156 2803 1522 
Q 2803 1891 2551 2103 
Q 2300 2316 1863 2316 
Q 1603 2316 1309 2248 
Q 1016 2181 678 2041 
L 678 4666 
z
" transform="scale(0.015625)"/>
      <path id="DejaVuSans-Bold-48" d="M 588 4666 
L 1791 4666 
L 1791 2888 
L 3566 2888 
L 3566 4666 
L 4769 4666 
L 4769 0 
L 3566 0 
L 3566 1978 
L 1791 1978 
L 1791 0 
L 588 0 
L 588 4666 
z
" transform="scale(0.015625)"/>
      <path id="DejaVuSans-Bold-7a" d="M 366 3500 
L 3419 3500 
L 3419 2719 
L 1575 800 
L 3419 800 
L 3419 0 
L 288 0 
L 288 781 
L 2131 2700 
L 366 2700 
L 366 3500 
z
" transform="scale(0.015625)"/>
     </defs>
     <use xlink:href="#DejaVuSans-Bold-66"/>
     <use xlink:href="#DejaVuSans-Bold-20" transform="translate(43.505859 0)"/>
     <use xlink:href="#DejaVuSans-Bold-3d" transform="translate(78.320312 0)"/>
     <use xlink:href="#DejaVuSans-Bold-20" transform="translate(162.109375 0)"/>
     <use xlink:href="#DejaVuSans-Bold-35" transform="translate(196.923828 0)"/>
     <use xlink:href="#DejaVuSans-Bold-20" transform="translate(266.503906 0)"/>
     <use xlink:href="#DejaVuSans-Bold-48" transform="translate(301.318359 0)"/>
     <use xlink:href="#DejaVuSans-Bold-7a" transform="translate(385.009766 0)"/>
    </g>
   </g>
   <g id="text_21">
    <!-- Without MIC -->
    <g style="fill: #333333" transform="translate(102.85925 31.201812) scale(0.14 -0.14)">
     <defs>
      <path id="DejaVuSans-Bold-57" d="M 191 4666 
L 1344 4666 
L 2150 1275 
L 2950 4666 
L 4109 4666 
L 4909 1275 
L 5716 4666 
L 6859 4666 
L 5759 0 
L 4372 0 
L 3525 3547 
L 2688 0 
L 1300 0 
L 191 4666 
z
" transform="scale(0.015625)"/>
      <path id="DejaVuSans-Bold-74" d="M 1759 4494 
L 1759 3500 
L 2913 3500 
L 2913 2700 
L 1759 2700 
L 1759 1216 
Q 1759 972 1856 886 
Q 1953 800 2241 800 
L 2816 800 
L 2816 0 
L 1856 0 
Q 1194 0 917 276 
Q 641 553 641 1216 
L 641 2700 
L 84 2700 
L 84 3500 
L 641 3500 
L 641 4494 
L 1759 4494 
z
" transform="scale(0.015625)"/>
      <path id="DejaVuSans-Bold-68" d="M 4056 2131 
L 4056 0 
L 2931 0 
L 2931 347 
L 2931 1625 
Q 2931 2084 2911 2256 
Q 2891 2428 2841 2509 
Q 2775 2619 2662 2680 
Q 2550 2741 2406 2741 
Q 2056 2741 1856 2470 
Q 1656 2200 1656 1722 
L 1656 0 
L 538 0 
L 538 4863 
L 1656 4863 
L 1656 2988 
Q 1909 3294 2193 3439 
Q 2478 3584 2822 3584 
Q 3428 3584 3742 3212 
Q 4056 2841 4056 2131 
z
" transform="scale(0.015625)"/>
      <path id="DejaVuSans-Bold-6f" d="M 2203 2784 
Q 1831 2784 1636 2517 
Q 1441 2250 1441 1747 
Q 1441 1244 1636 976 
Q 1831 709 2203 709 
Q 2569 709 2762 976 
Q 2956 1244 2956 1747 
Q 2956 2250 2762 2517 
Q 2569 2784 2203 2784 
z
M 2203 3584 
Q 3106 3584 3614 3096 
Q 4122 2609 4122 1747 
Q 4122 884 3614 396 
Q 3106 -91 2203 -91 
Q 1297 -91 786 396 
Q 275 884 275 1747 
Q 275 2609 786 3096 
Q 1297 3584 2203 3584 
z
" transform="scale(0.015625)"/>
      <path id="DejaVuSans-Bold-75" d="M 500 1363 
L 500 3500 
L 1625 3500 
L 1625 3150 
Q 1625 2866 1622 2436 
Q 1619 2006 1619 1863 
Q 1619 1441 1641 1255 
Q 1663 1069 1716 984 
Q 1784 875 1895 815 
Q 2006 756 2150 756 
Q 2500 756 2700 1025 
Q 2900 1294 2900 1772 
L 2900 3500 
L 4019 3500 
L 4019 0 
L 2900 0 
L 2900 506 
Q 2647 200 2364 54 
Q 2081 -91 1741 -91 
Q 1134 -91 817 281 
Q 500 653 500 1363 
z
" transform="scale(0.015625)"/>
      <path id="DejaVuSans-Bold-4d" d="M 588 4666 
L 2119 4666 
L 3181 2169 
L 4250 4666 
L 5778 4666 
L 5778 0 
L 4641 0 
L 4641 3413 
L 3566 897 
L 2803 897 
L 1728 3413 
L 1728 0 
L 588 0 
L 588 4666 
z
" transform="scale(0.015625)"/>
      <path id="DejaVuSans-Bold-49" d="M 588 4666 
L 1791 4666 
L 1791 0 
L 588 0 
L 588 4666 
z
" transform="scale(0.015625)"/>
      <path id="DejaVuSans-Bold-43" d="M 4288 256 
Q 3956 84 3597 -3 
Q 3238 -91 2847 -91 
Q 1681 -91 1000 561 
Q 319 1213 319 2328 
Q 319 3447 1000 4098 
Q 1681 4750 2847 4750 
Q 3238 4750 3597 4662 
Q 3956 4575 4288 4403 
L 4288 3438 
Q 3953 3666 3628 3772 
Q 3303 3878 2944 3878 
Q 2300 3878 1931 3465 
Q 1563 3053 1563 2328 
Q 1563 1606 1931 1193 
Q 2300 781 2944 781 
Q 3303 781 3628 887 
Q 3953 994 4288 1222 
L 4288 256 
z
" transform="scale(0.015625)"/>
     </defs>
     <use xlink:href="#DejaVuSans-Bold-57"/>
     <use xlink:href="#DejaVuSans-Bold-69" transform="translate(110.302734 0)"/>
     <use xlink:href="#DejaVuSans-Bold-74" transform="translate(144.580078 0)"/>
     <use xlink:href="#DejaVuSans-Bold-68" transform="translate(192.382812 0)"/>
     <use xlink:href="#DejaVuSans-Bold-6f" transform="translate(263.574219 0)"/>
     <use xlink:href="#DejaVuSans-Bold-75" transform="translate(332.275391 0)"/>
     <use xlink:href="#DejaVuSans-Bold-74" transform="translate(403.466797 0)"/>
     <use xlink:href="#DejaVuSans-Bold-20" transform="translate(451.269531 0)"/>
     <use xlink:href="#DejaVuSans-Bold-4d" transform="translate(486.083984 0)"/>
     <use xlink:href="#DejaVuSans-Bold-49" transform="translate(585.595703 0)"/>
     <use xlink:href="#DejaVuSans-Bold-43" transform="translate(622.802734 0)"/>
    </g>
   </g>
   <g id="text_22">
    <!-- With MIC -->
    <g style="fill: #d94452" transform="translate(325.129375 31.201812) scale(0.14 -0.14)">
     <use xlink:href="#DejaVuSans-Bold-57"/>
     <use xlink:href="#DejaVuSans-Bold-69" transform="translate(110.302734 0)"/>
     <use xlink:href="#DejaVuSans-Bold-74" transform="translate(144.580078 0)"/>
     <use xlink:href="#DejaVuSans-Bold-68" transform="translate(192.382812 0)"/>
     <use xlink:href="#DejaVuSans-Bold-20" transform="translate(263.574219 0)"/>
     <use xlink:href="#DejaVuSans-Bold-4d" transform="translate(298.388672 0)"/>
     <use xlink:href="#DejaVuSans-Bold-49" transform="translate(397.900391 0)"/>
     <use xlink:href="#DejaVuSans-Bold-43" transform="translate(435.107422 0)"/>
    </g>
   </g>
  </g>
 </g>
 <defs>
  <clipPath id="p36cdf8fc01">
   <rect x="61.963281" y="7.2" width="418.264" height="267.28"/>
  </clipPath>
 </defs>
</svg>
