<?xml version="1.0" encoding="utf-8" standalone="no"?>
<!DOCTYPE svg PUBLIC "-//W3C//DTD SVG 1.1//EN"
  "http://www.w3.org/Graphics/SVG/1.1/DTD/svg11.dtd">
<svg xmlns:xlink="http://www.w3.org/1999/xlink" width="568.169156pt" height="316.792812pt" viewBox="0 0 568.169156 316.792812" xmlns="http://www.w3.org/2000/svg" version="1.1">
 <metadata>
  <rdf:RDF xmlns:dc="http://purl.org/dc/elements/1.1/" xmlns:cc="http://creativecommons.org/ns#" xmlns:rdf="http://www.w3.org/1999/02/22-rdf-syntax-ns#">
   <cc:Work>
    <dc:type rdf:resource="http://purl.org/dc/dcmitype/StillImage"/>
    <dc:date>2026-04-26T16:36:45.965100</dc:date>
    <dc:format>image/svg+xml</dc:format>
    <dc:creator>
     <cc:Agent>
      <dc:title>Matplotlib v3.10.8, https://matplotlib.org/</dc:title>
     </cc:Agent>
    </dc:creator>
   </cc:Work>
  </rdf:RDF>
 </metadata>
 <defs>
  <style type="text/css">*{stroke-linejoin: round; stroke-linecap: butt}</style>
 </defs>
 <g id="figure_1">
  <g id="patch_1">
   <path d="M 0 316.792812 
L 568.169156 316.792812 
L 568.169156 0 
L 0 0 
z
" style="fill: #ffffff"/>
  </g>
  <g id="axes_1">
   <g id="patch_2">
    <path d="M 61.963281 274.3975 
L 557.469781 274.3975 
L 557.469781 34.3575 
L 61.963281 34.3575 
z
" style="fill: #ffffff"/>
   </g>
   <g id="patch_3">
    <path d="M 392.300948 274.3975 
L 557.469781 274.3975 
L 557.469781 34.3575 
L 392.300948 34.3575 
z
" clip-path="url(#p2374deeba4)" style="fill: #f0ad4e; opacity: 0.15; stroke: #f0ad4e; stroke-linejoin: miter"/>
   </g>
   <g id="matplotlib.axis_1">
    <g id="xtick_1">
     <g id="line2d_1">
      <defs>
       <path id="mb7719118c8" d="M 0 0 
L 0 3.5 
" style="stroke: #000000; stroke-width: 0.8"/>
      </defs>
      <g>
       <use xlink:href="#mb7719118c8" x="61.963281" y="274.3975" style="stroke: #000000; stroke-width: 0.8"/>
      </g>
     </g>
     <g id="text_1">
      <!-- 0 -->
      <g transform="translate(58.463906 289.755781) scale(0.11 -0.11)">
       <defs>
        <path id="DejaVuSans-30" d="M 2034 4250 
Q 1547 4250 1301 3770 
Q 1056 3291 1056 2328 
Q 1056 1369 1301 889 
Q 1547 409 2034 409 
Q 2525 409 2770 889 
Q 3016 1369 3016 2328 
Q 3016 3291 2770 3770 
Q 2525 4250 2034 4250 
z
M 2034 4750 
Q 2819 4750 3233 4129 
Q 3647 3509 3647 2328 
Q 3647 1150 3233 529 
Q 2819 -91 2034 -91 
Q 1250 -91 836 529 
Q 422 1150 422 2328 
Q 422 3509 836 4129 
Q 1250 4750 2034 4750 
z
" transform="scale(0.015625)"/>
       </defs>
       <use xlink:href="#DejaVuSans-30"/>
      </g>
     </g>
    </g>
    <g id="xtick_2">
     <g id="line2d_2">
      <g>
       <use xlink:href="#mb7719118c8" x="144.547698" y="274.3975" style="stroke: #000000; stroke-width: 0.8"/>
      </g>
     </g>
     <g id="text_2">
      <!-- 1 -->
      <g transform="translate(141.048323 289.755781) scale(0.11 -0.11)">
       <defs>
        <path id="DejaVuSans-31" d="M 794 531 
L 1825 531 
L 1825 4091 
L 703 3866 
L 703 4441 
L 1819 4666 
L 2450 4666 
L 2450 531 
L 3481 531 
L 3481 0 
L 794 0 
L 794 531 
z
" transform="scale(0.015625)"/>
       </defs>
       <use xlink:href="#DejaVuSans-31"/>
      </g>
     </g>
    </g>
    <g id="xtick_3">
     <g id="line2d_3">
      <g>
       <use xlink:href="#mb7719118c8" x="227.132115" y="274.3975" style="stroke: #000000; stroke-width: 0.8"/>
      </g>
     </g>
     <g id="text_3">
      <!-- 2 -->
      <g transform="translate(223.63274 289.755781) scale(0.11 -0.11)">
       <defs>
        <path id="DejaVuSans-32" d="M 1228 531 
L 3431 531 
L 3431 0 
L 469 0 
L 469 531 
Q 828 903 1448 1529 
Q 2069 2156 2228 2338 
Q 2531 2678 2651 2914 
Q 2772 3150 2772 3378 
Q 2772 3750 2511 3984 
Q 2250 4219 1831 4219 
Q 1534 4219 1204 4116 
Q 875 4013 500 3803 
L 500 4441 
Q 881 4594 1212 4672 
Q 1544 4750 1819 4750 
Q 2544 4750 2975 4387 
Q 3406 4025 3406 3419 
Q 3406 3131 3298 2873 
Q 3191 2616 2906 2266 
Q 2828 2175 2409 1742 
Q 1991 1309 1228 531 
z
" transform="scale(0.015625)"/>
       </defs>
       <use xlink:href="#DejaVuSans-32"/>
      </g>
     </g>
    </g>
    <g id="xtick_4">
     <g id="line2d_4">
      <g>
       <use xlink:href="#mb7719118c8" x="309.716531" y="274.3975" style="stroke: #000000; stroke-width: 0.8"/>
      </g>
     </g>
     <g id="text_4">
      <!-- 3 -->
      <g transform="translate(306.217156 289.755781) scale(0.11 -0.11)">
       <defs>
        <path id="DejaVuSans-33" d="M 2597 2516 
Q 3050 2419 3304 2112 
Q 3559 1806 3559 1356 
Q 3559 666 3084 287 
Q 2609 -91 1734 -91 
Q 1441 -91 1130 -33 
Q 819 25 488 141 
L 488 750 
Q 750 597 1062 519 
Q 1375 441 1716 441 
Q 2309 441 2620 675 
Q 2931 909 2931 1356 
Q 2931 1769 2642 2001 
Q 2353 2234 1838 2234 
L 1294 2234 
L 1294 2753 
L 1863 2753 
Q 2328 2753 2575 2939 
Q 2822 3125 2822 3475 
Q 2822 3834 2567 4026 
Q 2313 4219 1838 4219 
Q 1578 4219 1281 4162 
Q 984 4106 628 3988 
L 628 4550 
Q 988 4650 1302 4700 
Q 1616 4750 1894 4750 
Q 2613 4750 3031 4423 
Q 3450 4097 3450 3541 
Q 3450 3153 3228 2886 
Q 3006 2619 2597 2516 
z
" transform="scale(0.015625)"/>
       </defs>
       <use xlink:href="#DejaVuSans-33"/>
      </g>
     </g>
    </g>
    <g id="xtick_5">
     <g id="line2d_5">
      <g>
       <use xlink:href="#mb7719118c8" x="392.300948" y="274.3975" style="stroke: #000000; stroke-width: 0.8"/>
      </g>
     </g>
     <g id="text_5">
      <!-- 4 -->
      <g transform="translate(388.801573 289.755781) scale(0.11 -0.11)">
       <defs>
        <path id="DejaVuSans-34" d="M 2419 4116 
L 825 1625 
L 2419 1625 
L 2419 4116 
z
M 2253 4666 
L 3047 4666 
L 3047 1625 
L 3713 1625 
L 3713 1100 
L 3047 1100 
L 3047 0 
L 2419 0 
L 2419 1100 
L 313 1100 
L 313 1709 
L 2253 4666 
z
" transform="scale(0.015625)"/>
       </defs>
       <use xlink:href="#DejaVuSans-34"/>
      </g>
     </g>
    </g>
    <g id="xtick_6">
     <g id="line2d_6">
      <g>
       <use xlink:href="#mb7719118c8" x="474.885365" y="274.3975" style="stroke: #000000; stroke-width: 0.8"/>
      </g>
     </g>
     <g id="text_6">
      <!-- 5 -->
      <g transform="translate(471.38599 289.755781) scale(0.11 -0.11)">
       <defs>
        <path id="DejaVuSans-35" d="M 691 4666 
L 3169 4666 
L 3169 4134 
L 1269 4134 
L 1269 2991 
Q 1406 3038 1543 3061 
Q 1681 3084 1819 3084 
Q 2600 3084 3056 2656 
Q 3513 2228 3513 1497 
Q 3513 744 3044 326 
Q 2575 -91 1722 -91 
Q 1428 -91 1123 -41 
Q 819 9 494 109 
L 494 744 
Q 775 591 1075 516 
Q 1375 441 1709 441 
Q 2250 441 2565 725 
Q 2881 1009 2881 1497 
Q 2881 1984 2565 2268 
Q 2250 2553 1709 2553 
Q 1456 2553 1204 2497 
Q 953 2441 691 2322 
L 691 4666 
z
" transform="scale(0.015625)"/>
       </defs>
       <use xlink:href="#DejaVuSans-35"/>
      </g>
     </g>
    </g>
    <g id="xtick_7">
     <g id="line2d_7">
      <g>
       <use xlink:href="#mb7719118c8" x="557.469781" y="274.3975" style="stroke: #000000; stroke-width: 0.8"/>
      </g>
     </g>
     <g id="text_7">
      <!-- 6 -->
      <g transform="translate(553.970406 289.755781) scale(0.11 -0.11)">
       <defs>
        <path id="DejaVuSans-36" d="M 2113 2584 
Q 1688 2584 1439 2293 
Q 1191 2003 1191 1497 
Q 1191 994 1439 701 
Q 1688 409 2113 409 
Q 2538 409 2786 701 
Q 3034 994 3034 1497 
Q 3034 2003 2786 2293 
Q 2538 2584 2113 2584 
z
M 3366 4563 
L 3366 3988 
Q 3128 4100 2886 4159 
Q 2644 4219 2406 4219 
Q 1781 4219 1451 3797 
Q 1122 3375 1075 2522 
Q 1259 2794 1537 2939 
Q 1816 3084 2150 3084 
Q 2853 3084 3261 2657 
Q 3669 2231 3669 1497 
Q 3669 778 3244 343 
Q 2819 -91 2113 -91 
Q 1303 -91 875 529 
Q 447 1150 447 2328 
Q 447 3434 972 4092 
Q 1497 4750 2381 4750 
Q 2619 4750 2861 4703 
Q 3103 4656 3366 4563 
z
" transform="scale(0.015625)"/>
       </defs>
       <use xlink:href="#DejaVuSans-36"/>
      </g>
     </g>
    </g>
    <g id="text_8">
     <!-- Time (s) -->
     <g transform="translate(277.497937 306.68125) scale(0.14 -0.14)">
      <defs>
       <path id="DejaVuSans-Bold-54" d="M 31 4666 
L 4331 4666 
L 4331 3756 
L 2784 3756 
L 2784 0 
L 1581 0 
L 1581 3756 
L 31 3756 
L 31 4666 
z
" transform="scale(0.015625)"/>
       <path id="DejaVuSans-Bold-69" d="M 538 3500 
L 1656 3500 
L 1656 0 
L 538 0 
L 538 3500 
z
M 538 4863 
L 1656 4863 
L 1656 3950 
L 538 3950 
L 538 4863 
z
" transform="scale(0.015625)"/>
       <path id="DejaVuSans-Bold-6d" d="M 3781 2919 
Q 3994 3244 4286 3414 
Q 4578 3584 4928 3584 
Q 5531 3584 5847 3212 
Q 6163 2841 6163 2131 
L 6163 0 
L 5038 0 
L 5038 1825 
Q 5041 1866 5042 1909 
Q 5044 1953 5044 2034 
Q 5044 2406 4934 2573 
Q 4825 2741 4581 2741 
Q 4263 2741 4089 2478 
Q 3916 2216 3909 1719 
L 3909 0 
L 2784 0 
L 2784 1825 
Q 2784 2406 2684 2573 
Q 2584 2741 2328 2741 
Q 2006 2741 1831 2477 
Q 1656 2213 1656 1722 
L 1656 0 
L 531 0 
L 531 3500 
L 1656 3500 
L 1656 2988 
Q 1863 3284 2130 3434 
Q 2397 3584 2719 3584 
Q 3081 3584 3359 3409 
Q 3638 3234 3781 2919 
z
" transform="scale(0.015625)"/>
       <path id="DejaVuSans-Bold-65" d="M 4031 1759 
L 4031 1441 
L 1416 1441 
Q 1456 1047 1700 850 
Q 1944 653 2381 653 
Q 2734 653 3104 758 
Q 3475 863 3866 1075 
L 3866 213 
Q 3469 63 3072 -14 
Q 2675 -91 2278 -91 
Q 1328 -91 801 392 
Q 275 875 275 1747 
Q 275 2603 792 3093 
Q 1309 3584 2216 3584 
Q 3041 3584 3536 3087 
Q 4031 2591 4031 1759 
z
M 2881 2131 
Q 2881 2450 2695 2645 
Q 2509 2841 2209 2841 
Q 1884 2841 1681 2658 
Q 1478 2475 1428 2131 
L 2881 2131 
z
" transform="scale(0.015625)"/>
       <path id="DejaVuSans-Bold-20" transform="scale(0.015625)"/>
       <path id="DejaVuSans-Bold-28" d="M 2413 -844 
L 1484 -844 
Q 1006 -72 778 623 
Q 550 1319 550 2003 
Q 550 2688 779 3389 
Q 1009 4091 1484 4856 
L 2413 4856 
Q 2013 4116 1813 3408 
Q 1613 2700 1613 2009 
Q 1613 1319 1811 609 
Q 2009 -100 2413 -844 
z
" transform="scale(0.015625)"/>
       <path id="DejaVuSans-Bold-73" d="M 3272 3391 
L 3272 2541 
Q 2913 2691 2578 2766 
Q 2244 2841 1947 2841 
Q 1628 2841 1473 2761 
Q 1319 2681 1319 2516 
Q 1319 2381 1436 2309 
Q 1553 2238 1856 2203 
L 2053 2175 
Q 2913 2066 3209 1816 
Q 3506 1566 3506 1031 
Q 3506 472 3093 190 
Q 2681 -91 1863 -91 
Q 1516 -91 1145 -36 
Q 775 19 384 128 
L 384 978 
Q 719 816 1070 734 
Q 1422 653 1784 653 
Q 2113 653 2278 743 
Q 2444 834 2444 1013 
Q 2444 1163 2330 1236 
Q 2216 1309 1875 1350 
L 1678 1375 
Q 931 1469 631 1722 
Q 331 1975 331 2491 
Q 331 3047 712 3315 
Q 1094 3584 1881 3584 
Q 2191 3584 2531 3537 
Q 2872 3491 3272 3391 
z
" transform="scale(0.015625)"/>
       <path id="DejaVuSans-Bold-29" d="M 513 -844 
Q 913 -100 1113 609 
Q 1313 1319 1313 2009 
Q 1313 2700 1113 3408 
Q 913 4116 513 4856 
L 1441 4856 
Q 1916 4091 2145 3389 
Q 2375 2688 2375 2003 
Q 2375 1319 2147 623 
Q 1919 -72 1441 -844 
L 513 -844 
z
" transform="scale(0.015625)"/>
      </defs>
      <use xlink:href="#DejaVuSans-Bold-54"/>
      <use xlink:href="#DejaVuSans-Bold-69" transform="translate(68.212891 0)"/>
      <use xlink:href="#DejaVuSans-Bold-6d" transform="translate(102.490234 0)"/>
      <use xlink:href="#DejaVuSans-Bold-65" transform="translate(206.689453 0)"/>
      <use xlink:href="#DejaVuSans-Bold-20" transform="translate(274.511719 0)"/>
      <use xlink:href="#DejaVuSans-Bold-28" transform="translate(309.326172 0)"/>
      <use xlink:href="#DejaVuSans-Bold-73" transform="translate(355.029297 0)"/>
      <use xlink:href="#DejaVuSans-Bold-29" transform="translate(414.550781 0)"/>
     </g>
    </g>
   </g>
   <g id="matplotlib.axis_2">
    <g id="ytick_1">
     <g id="line2d_8">
      <defs>
       <path id="m97349de485" d="M 0 0 
L -3.5 0 
" style="stroke: #000000; stroke-width: 0.8"/>
      </defs>
      <g>
       <use xlink:href="#m97349de485" x="61.963281" y="254.38936" style="stroke: #000000; stroke-width: 0.8"/>
      </g>
     </g>
     <g id="text_9">
      <!-- −300 -->
      <g transform="translate(24.749375 258.568501) scale(0.11 -0.11)">
       <defs>
        <path id="DejaVuSans-2212" d="M 678 2272 
L 4684 2272 
L 4684 1741 
L 678 1741 
L 678 2272 
z
" transform="scale(0.015625)"/>
       </defs>
       <use xlink:href="#DejaVuSans-2212"/>
       <use xlink:href="#DejaVuSans-33" transform="translate(83.789062 0)"/>
       <use xlink:href="#DejaVuSans-30" transform="translate(147.412109 0)"/>
       <use xlink:href="#DejaVuSans-30" transform="translate(211.035156 0)"/>
      </g>
     </g>
    </g>
    <g id="ytick_2">
     <g id="line2d_9">
      <g>
       <use xlink:href="#m97349de485" x="61.963281" y="221.052073" style="stroke: #000000; stroke-width: 0.8"/>
      </g>
     </g>
     <g id="text_10">
      <!-- −200 -->
      <g transform="translate(24.749375 225.231214) scale(0.11 -0.11)">
       <use xlink:href="#DejaVuSans-2212"/>
       <use xlink:href="#DejaVuSans-32" transform="translate(83.789062 0)"/>
       <use xlink:href="#DejaVuSans-30" transform="translate(147.412109 0)"/>
       <use xlink:href="#DejaVuSans-30" transform="translate(211.035156 0)"/>
      </g>
     </g>
    </g>
    <g id="ytick_3">
     <g id="line2d_10">
      <g>
       <use xlink:href="#m97349de485" x="61.963281" y="187.714787" style="stroke: #000000; stroke-width: 0.8"/>
      </g>
     </g>
     <g id="text_11">
      <!-- −100 -->
      <g transform="translate(24.749375 191.893927) scale(0.11 -0.11)">
       <use xlink:href="#DejaVuSans-2212"/>
       <use xlink:href="#DejaVuSans-31" transform="translate(83.789062 0)"/>
       <use xlink:href="#DejaVuSans-30" transform="translate(147.412109 0)"/>
       <use xlink:href="#DejaVuSans-30" transform="translate(211.035156 0)"/>
      </g>
     </g>
    </g>
    <g id="ytick_4">
     <g id="line2d_11">
      <g>
       <use xlink:href="#m97349de485" x="61.963281" y="154.3775" style="stroke: #000000; stroke-width: 0.8"/>
      </g>
     </g>
     <g id="text_12">
      <!-- 0 -->
      <g transform="translate(47.964531 158.556641) scale(0.11 -0.11)">
       <use xlink:href="#DejaVuSans-30"/>
      </g>
     </g>
    </g>
    <g id="ytick_5">
     <g id="line2d_12">
      <g>
       <use xlink:href="#m97349de485" x="61.963281" y="121.040213" style="stroke: #000000; stroke-width: 0.8"/>
      </g>
     </g>
     <g id="text_13">
      <!-- 100 -->
      <g transform="translate(33.967031 125.219354) scale(0.11 -0.11)">
       <use xlink:href="#DejaVuSans-31"/>
       <use xlink:href="#DejaVuSans-30" transform="translate(63.623047 0)"/>
       <use xlink:href="#DejaVuSans-30" transform="translate(127.246094 0)"/>
      </g>
     </g>
    </g>
    <g id="ytick_6">
     <g id="line2d_13">
      <g>
       <use xlink:href="#m97349de485" x="61.963281" y="87.702927" style="stroke: #000000; stroke-width: 0.8"/>
      </g>
     </g>
     <g id="text_14">
      <!-- 200 -->
      <g transform="translate(33.967031 91.882067) scale(0.11 -0.11)">
       <use xlink:href="#DejaVuSans-32"/>
       <use xlink:href="#DejaVuSans-30" transform="translate(63.623047 0)"/>
       <use xlink:href="#DejaVuSans-30" transform="translate(127.246094 0)"/>
      </g>
     </g>
    </g>
    <g id="ytick_7">
     <g id="line2d_14">
      <g>
       <use xlink:href="#m97349de485" x="61.963281" y="54.36564" style="stroke: #000000; stroke-width: 0.8"/>
      </g>
     </g>
     <g id="text_15">
      <!-- 300 -->
      <g transform="translate(33.967031 58.544781) scale(0.11 -0.11)">
       <use xlink:href="#DejaVuSans-33"/>
       <use xlink:href="#DejaVuSans-30" transform="translate(63.623047 0)"/>
       <use xlink:href="#DejaVuSans-30" transform="translate(127.246094 0)"/>
      </g>
     </g>
    </g>
    <g id="text_16">
     <!-- V$_{oc}$ (V) -->
     <g transform="translate(17.837813 180.0675) rotate(-90) scale(0.14 -0.14)">
      <defs>
       <path id="DejaVuSans-Bold-56" d="M 31 4666 
L 1241 4666 
L 2478 1222 
L 3713 4666 
L 4922 4666 
L 3194 0 
L 1759 0 
L 31 4666 
z
" transform="scale(0.015625)"/>
       <path id="DejaVuSans-Oblique-6f" d="M 1625 -91 
Q 1009 -91 651 289 
Q 294 669 294 1325 
Q 294 1706 417 2101 
Q 541 2497 738 2766 
Q 1047 3184 1428 3384 
Q 1809 3584 2291 3584 
Q 2888 3584 3255 3212 
Q 3622 2841 3622 2241 
Q 3622 1825 3500 1412 
Q 3378 1000 3181 728 
Q 2875 309 2494 109 
Q 2113 -91 1625 -91 
z
M 891 1344 
Q 891 869 1089 633 
Q 1288 397 1691 397 
Q 2269 397 2648 901 
Q 3028 1406 3028 2181 
Q 3028 2634 2825 2865 
Q 2622 3097 2228 3097 
Q 1903 3097 1650 2945 
Q 1397 2794 1197 2484 
Q 1050 2253 970 1956 
Q 891 1659 891 1344 
z
" transform="scale(0.015625)"/>
       <path id="DejaVuSans-Oblique-63" d="M 3431 3366 
L 3316 2797 
Q 3109 2947 2876 3022 
Q 2644 3097 2394 3097 
Q 2119 3097 1870 3000 
Q 1622 2903 1453 2725 
Q 1184 2453 1037 2087 
Q 891 1722 891 1331 
Q 891 859 1127 628 
Q 1363 397 1844 397 
Q 2081 397 2348 469 
Q 2616 541 2906 684 
L 2797 116 
Q 2547 13 2283 -39 
Q 2019 -91 1741 -91 
Q 1044 -91 669 257 
Q 294 606 294 1253 
Q 294 1797 489 2255 
Q 684 2713 1069 3078 
Q 1331 3328 1684 3456 
Q 2038 3584 2456 3584 
Q 2700 3584 2940 3529 
Q 3181 3475 3431 3366 
z
" transform="scale(0.015625)"/>
      </defs>
      <use xlink:href="#DejaVuSans-Bold-56" transform="translate(0 0.125)"/>
      <use xlink:href="#DejaVuSans-Oblique-6f" transform="translate(78.349609 -16.28125) scale(0.7)"/>
      <use xlink:href="#DejaVuSans-Oblique-63" transform="translate(121.176758 -16.28125) scale(0.7)"/>
      <use xlink:href="#DejaVuSans-Bold-20" transform="translate(162.397461 0.125)"/>
      <use xlink:href="#DejaVuSans-Bold-28" transform="translate(197.211914 0.125)"/>
      <use xlink:href="#DejaVuSans-Bold-56" transform="translate(242.915039 0.125)"/>
      <use xlink:href="#DejaVuSans-Bold-29" transform="translate(320.307617 0.125)"/>
     </g>
    </g>
   </g>
   <g id="patch_4">
    <path d="M 61.963281 274.3975 
L 61.963281 34.3575 
" style="fill: none; stroke: #000000; stroke-width: 0.8; stroke-linejoin: miter; stroke-linecap: square"/>
   </g>
   <g id="patch_5">
    <path d="M 61.963281 274.3975 
L 557.469781 274.3975 
" style="fill: none; stroke: #000000; stroke-width: 0.8; stroke-linejoin: miter; stroke-linecap: square"/>
   </g>
   <g id="line2d_15">
    <path d="M 392.300948 74.169654 
L 392.548701 74.763764 
L 394.200389 77.467936 
L 394.613312 78.796758 
L 394.943649 80.715088 
L 395.273987 83.882479 
L 395.604325 89.629794 
L 395.934662 100.736858 
L 396.265 123.988841 
L 397.256013 204.382912 
L 397.668935 225.626039 
L 397.834104 227.595995 
L 397.999273 224.301829 
L 398.32961 208.504343 
L 398.907701 163.669243 
L 399.898714 89.096513 
L 400.229052 78.107034 
L 400.55939 73.069373 
L 400.972312 70.814107 
L 401.302649 70.058431 
L 401.632987 69.805858 
L 402.045909 69.93419 
L 402.706584 70.091154 
L 402.954338 70.055364 
L 403.202091 70.043604 
L 404.771195 70.336569 
L 405.018948 70.341682 
L 405.597039 70.449563 
L 405.762208 70.639249 
L 405.927377 70.644361 
L 407.000974 71.702205 
L 407.166143 71.999771 
L 407.248727 71.94353 
L 407.661649 72.686935 
L 407.744234 72.709431 
L 409.808844 76.551207 
L 410.221766 77.009316 
L 410.304351 76.980684 
L 410.634688 77.85242 
L 411.047611 79.360191 
L 411.377948 81.557681 
L 411.79087 87.074921 
L 412.121208 95.735512 
L 412.368961 108.392767 
L 413.029636 164.104846 
L 413.772896 217.404677 
L 414.020649 226.836236 
L 414.103234 227.725349 
L 414.185818 227.228386 
L 414.350987 222.671362 
L 414.681325 204.93715 
L 415.424585 145.210005 
L 416.167844 90.186563 
L 416.498182 78.3729 
L 416.82852 73.092892 
L 417.241442 70.323276 
L 417.571779 69.602879 
L 417.984701 69.512893 
L 419.223468 69.991453 
L 420.627403 70.119274 
L 421.040325 70.036958 
L 421.288078 70.027243 
L 421.618416 70.182673 
L 422.196507 70.386675 
L 422.609429 70.817686 
L 425.086961 73.949803 
L 425.417299 74.548003 
L 425.582468 75.021961 
L 425.665052 75.036277 
L 425.99539 75.612493 
L 426.73865 76.720952 
L 427.234156 78.196513 
L 427.564494 80.099504 
L 427.894831 83.453002 
L 428.225169 89.421702 
L 428.472922 97.283669 
L 428.720676 111.433859 
L 430.207195 223.588593 
L 430.372364 227.712055 
L 430.454948 227.790792 
L 430.620117 224.129017 
L 430.950455 207.732823 
L 431.528546 162.848638 
L 432.436974 92.319625 
L 432.767312 79.006378 
L 433.09765 73.377676 
L 433.427987 70.862679 
L 433.758325 69.839091 
L 434.088663 69.531811 
L 434.336416 69.589074 
L 434.501585 69.807392 
L 434.914507 69.865167 
L 435.244845 69.975092 
L 435.492598 69.889197 
L 436.070689 70.008837 
L 436.483611 70.111605 
L 436.731364 70.219485 
L 436.896533 70.132056 
L 438.465637 70.040026 
L 438.630806 70.200057 
L 438.795974 70.256809 
L 439.621819 71.11423 
L 442.925195 76.356408 
L 443.503286 77.989444 
L 443.833624 79.856646 
L 444.163962 83.075676 
L 444.494299 88.592915 
L 444.824637 99.296581 
L 445.154975 121.789827 
L 446.228572 208.100422 
L 446.641494 227.050461 
L 446.724078 227.763694 
L 446.806663 227.123574 
L 447.054416 218.706398 
L 447.384754 198.731245 
L 448.210598 129.914047 
L 448.788689 89.022375 
L 449.119027 77.203087 
L 449.449364 72.291201 
L 449.779702 70.329923 
L 450.027455 69.863122 
L 450.522962 69.652473 
L 450.770715 70.120808 
L 451.018468 70.333502 
L 452.504988 70.31305 
L 453.330832 70.241471 
L 453.908923 70.226644 
L 454.321845 70.183696 
L 455.395442 70.657655 
L 455.808364 71.193479 
L 458.203312 75.132398 
L 458.53365 75.721907 
L 459.359494 76.786397 
L 460.185338 80.541252 
L 460.515676 83.959171 
L 460.846014 90.002518 
L 461.176351 101.949104 
L 461.506689 126.327432 
L 462.497702 206.250103 
L 462.910624 226.619965 
L 462.993209 227.89816 
L 463.075793 227.798973 
L 463.240962 223.853949 
L 463.5713 207.270627 
L 464.231975 154.464163 
L 465.057819 90.515824 
L 465.388157 77.619781 
L 465.718494 72.333126 
L 466.048832 70.406615 
L 466.37917 69.828354 
L 466.626923 69.730188 
L 466.874676 69.932656 
L 467.287598 70.248629 
L 467.535351 70.259877 
L 467.70052 70.067123 
L 468.526364 70.021619 
L 469.352209 70.006792 
L 469.517377 69.996566 
L 469.682546 69.981228 
L 470.095468 69.963844 
L 470.673559 70.073259 
L 471.003897 70.213861 
L 471.169066 70.201079 
L 472.242663 71.324879 
L 472.655585 71.861214 
L 473.233676 72.909854 
L 473.481429 73.412444 
L 474.307274 74.980036 
L 474.389858 74.966743 
L 474.967949 75.776614 
L 475.050533 75.660553 
L 475.876378 77.146851 
L 476.206715 78.479763 
L 476.537053 80.64402 
L 476.867391 84.428527 
L 477.197728 91.067005 
L 477.445481 100.150419 
L 477.775819 123.412628 
L 478.766832 204.157949 
L 479.179754 225.957858 
L 479.344923 228.199303 
L 479.510092 225.188897 
L 479.84043 209.45072 
L 480.41852 164.355377 
L 481.409533 87.616862 
L 481.739871 76.348735 
L 482.070209 71.835137 
L 482.400546 70.208749 
L 482.565715 69.993499 
L 482.730884 69.715872 
L 482.978637 69.791542 
L 483.556728 70.369803 
L 484.134819 70.286975 
L 484.795495 70.183696 
L 485.869092 70.265501 
L 486.282014 70.260388 
L 486.364598 70.303847 
L 486.529767 70.219485 
L 487.273027 70.164778 
L 487.52078 70.359577 
L 488.098871 70.928123 
L 488.429209 71.474173 
L 488.759547 72.146509 
L 489.0073 72.84032 
L 489.667975 73.534641 
L 490.411235 74.863975 
L 490.741573 74.824095 
L 490.989326 75.266866 
L 491.319663 75.957608 
L 492.062923 76.821675 
L 492.310676 77.54514 
L 492.723599 79.494658 
L 493.053936 82.43504 
L 493.384274 87.740097 
L 493.714612 97.993837 
L 493.962365 112.994283 
L 495.3663 221.169222 
L 495.614053 227.972807 
L 495.696638 227.682913 
L 495.861806 223.217919 
L 496.192144 206.40861 
L 496.852819 153.116429 
L 497.678664 89.481503 
L 498.009001 77.048168 
L 498.339339 72.32239 
L 498.669677 70.260388 
L 499.000014 69.725587 
L 499.412936 69.776715 
L 499.743274 70.172448 
L 499.825858 70.18932 
L 499.991027 70.004236 
L 500.321365 70.047183 
L 500.486534 69.89431 
L 501.229793 69.892776 
L 502.385975 70.009349 
L 502.551144 70.123364 
L 502.798897 70.162222 
L 502.964066 70.334013 
L 503.459573 70.296178 
L 503.624742 70.575338 
L 504.285417 70.807972 
L 505.028677 71.675107 
L 506.515196 74.177323 
L 506.597781 74.142556 
L 507.010703 74.740756 
L 507.093287 74.653838 
L 508.414638 76.660621 
L 508.662391 77.387153 
L 508.992729 79.099948 
L 509.323066 81.914555 
L 509.653404 86.86325 
L 509.983742 96.46204 
L 510.231495 110.29217 
L 511.800599 226.183332 
L 511.965768 228.122612 
L 512.130936 224.599904 
L 512.461274 208.557004 
L 513.039365 162.966742 
L 514.030378 86.197034 
L 514.360716 75.494382 
L 514.691053 71.318742 
L 514.938807 70.047694 
L 515.269144 69.397854 
L 515.516898 69.493975 
L 515.764651 69.842159 
L 516.012404 70.138192 
L 516.260157 70.187275 
L 516.425326 70.042582 
L 516.673079 70.041559 
L 516.838248 70.069169 
L 517.003417 70.202613 
L 519.068027 70.290554 
L 519.233196 70.192388 
L 520.719716 70.451097 
L 521.793313 72.035561 
L 522.041066 72.660859 
L 524.270846 76.531778 
L 524.931521 77.785442 
L 525.179274 78.6899 
L 525.757365 83.689214 
L 526.005118 87.950745 
L 526.252872 95.118906 
L 526.500625 107.926478 
L 527.326469 177.632783 
L 527.987144 221.918757 
L 528.234898 228.241228 
L 528.317482 227.697739 
L 528.482651 222.788956 
L 528.812989 205.560398 
L 529.473664 151.382167 
L 530.299508 87.522783 
L 530.629846 75.934596 
L 530.960183 71.316697 
L 531.290521 69.566066 
L 531.620859 69.369734 
L 532.281534 69.83449 
L 532.446703 69.67497 
L 532.694456 69.913739 
L 532.694456 69.913739 
" clip-path="url(#p2374deeba4)" style="fill: none; stroke: #333333; stroke-width: 0.8; stroke-linecap: square"/>
   </g>
   <g id="line2d_16">
    <path d="M 392.300948 82.037775 
L 393.45713 82.799585 
L 393.704883 83.162084 
L 394.200389 83.956616 
L 394.613312 84.791028 
L 395.604325 88.966666 
L 396.099831 92.588584 
L 396.512753 97.748435 
L 396.843091 104.906366 
L 397.090844 114.693292 
L 397.503766 145.987168 
L 398.32961 203.285203 
L 398.659948 217.878639 
L 398.825117 219.339874 
L 398.990286 214.388651 
L 399.485792 181.6714 
L 400.724558 98.050593 
L 401.137481 87.75646 
L 401.550403 82.797028 
L 402.293662 79.175618 
L 402.624 78.686321 
L 402.954338 78.296724 
L 403.119506 78.302348 
L 403.202091 77.998647 
L 403.284675 78.046196 
L 403.36726 77.992 
L 403.697597 78.224122 
L 404.440857 78.364214 
L 404.853779 78.556967 
L 405.018948 78.815164 
L 405.349286 79.038595 
L 406.009961 79.673607 
L 406.588052 80.380199 
L 406.91839 80.969707 
L 408.074572 81.824571 
L 408.23974 81.766796 
L 408.322325 81.980511 
L 408.487494 81.920692 
L 408.570078 81.980511 
L 408.652662 81.785713 
L 408.735247 81.859338 
L 409.065585 82.17531 
L 409.148169 82.168152 
L 409.478507 82.717269 
L 409.72626 82.895706 
L 409.891429 83.081302 
L 410.799857 84.197941 
L 411.047611 84.651448 
L 411.212779 84.89942 
L 411.79087 86.83002 
L 412.203792 88.93241 
L 412.53413 91.095131 
L 412.864468 94.121917 
L 413.27739 100.686255 
L 413.607727 110.855113 
L 413.855481 125.851968 
L 414.846494 198.801797 
L 415.259416 218.089285 
L 415.342 219.439061 
L 415.424585 219.313287 
L 415.589753 214.239357 
L 416.08526 181.451039 
L 417.324026 97.789328 
L 417.654364 89.104198 
L 418.067286 83.610989 
L 418.480208 81.223814 
L 418.562792 81.106219 
L 418.810546 80.218634 
L 418.975714 79.959925 
L 419.471221 79.132159 
L 419.718974 78.909752 
L 419.801559 78.963947 
L 419.966728 78.832548 
L 420.131896 78.810563 
L 420.297065 78.52629 
L 420.37965 78.60605 
L 420.544818 78.577418 
L 420.709987 78.405116 
L 421.370663 78.521177 
L 421.618416 78.682231 
L 422.031338 78.921 
L 422.609429 79.505395 
L 423.435273 80.178754 
L 423.683026 80.322935 
L 424.343702 80.852112 
L 424.921792 81.343966 
L 425.086961 81.430884 
L 425.747637 82.085325 
L 425.99539 82.265296 
L 426.243143 82.49435 
L 426.325728 82.468786 
L 426.573481 82.818503 
L 427.068987 83.404943 
L 427.729663 84.614636 
L 427.977416 85.216415 
L 428.638091 87.794809 
L 429.133598 90.936634 
L 429.54652 95.194074 
L 429.876858 100.786466 
L 430.207195 111.034572 
L 430.454948 126.176119 
L 431.363377 194.107232 
L 431.858884 218.220684 
L 432.024052 219.580174 
L 432.189221 214.37638 
L 432.767312 175.12447 
L 433.923494 97.49483 
L 434.253832 88.812767 
L 434.666754 83.095617 
L 435.327429 79.428703 
L 435.657767 78.783465 
L 436.070689 78.209806 
L 436.401026 78.152031 
L 436.483611 77.87645 
L 436.566195 77.921955 
L 436.731364 77.845774 
L 436.979117 78.061023 
L 437.309455 78.096302 
L 438.300468 78.576395 
L 438.548221 78.798292 
L 438.878559 79.059557 
L 439.291481 79.450177 
L 440.447663 80.639419 
L 442.099351 81.993805 
L 442.26452 81.994828 
L 442.512273 82.269386 
L 443.090364 82.69784 
L 443.255533 82.97291 
L 443.420702 83.030685 
L 443.916208 83.817548 
L 444.576884 85.285949 
L 444.989806 86.687884 
L 445.81565 91.901933 
L 446.228572 96.568398 
L 446.55891 102.994177 
L 446.806663 111.431326 
L 447.054416 126.794256 
L 448.045429 199.578941 
L 448.458351 218.426218 
L 448.540936 219.545919 
L 448.62352 219.295392 
L 448.788689 213.962756 
L 449.36678 174.669942 
L 450.440377 101.129525 
L 450.770715 91.006165 
L 451.183637 84.759328 
L 451.596559 81.597561 
L 452.009481 79.89806 
L 452.670157 78.428635 
L 453.000494 78.144362 
L 453.413416 78.178107 
L 453.578585 77.98382 
L 453.743754 78.089655 
L 454.569598 78.138738 
L 455.147689 78.515042 
L 455.312858 78.544696 
L 456.221286 79.651111 
L 456.46904 79.873007 
L 456.634208 79.908285 
L 457.129715 80.4845 
L 457.294884 80.742187 
L 458.863988 82.444244 
L 459.194325 82.344544 
L 459.359494 82.622171 
L 459.442079 82.565418 
L 459.772416 82.887526 
L 460.102754 83.160039 
L 460.846014 84.349792 
L 461.258936 85.396897 
L 461.424105 85.891818 
L 461.919611 88.196165 
L 462.415118 91.548638 
L 462.745455 95.247758 
L 463.075793 101.068693 
L 463.406131 111.534604 
L 463.653884 127.046316 
L 464.562312 194.698271 
L 465.057819 218.237556 
L 465.140403 219.335783 
L 465.222988 219.031061 
L 465.388157 213.557823 
L 465.966248 174.294664 
L 467.122429 97.483072 
L 467.535352 87.395495 
L 468.030858 82.185024 
L 468.44378 79.672584 
L 468.939287 78.325356 
L 469.104455 78.146919 
L 469.599962 77.699547 
L 469.765131 77.632057 
L 470.095468 77.956722 
L 470.260637 77.944451 
L 471.581988 78.402048 
L 471.829741 78.706773 
L 472.407832 79.293725 
L 473.481429 80.135295 
L 473.646598 80.18131 
L 474.389858 80.965617 
L 474.555027 81.213589 
L 475.215702 81.794405 
L 475.463456 82.053114 
L 475.711209 82.228995 
L 475.876378 82.202408 
L 476.124131 82.457538 
L 476.2893 82.389026 
L 476.702222 82.806743 
L 476.784806 82.788337 
L 477.032559 83.181513 
L 477.280313 83.633486 
L 477.775819 84.884593 
L 478.023572 85.748659 
L 478.436495 87.641424 
L 478.849417 90.301622 
L 479.262339 94.226218 
L 479.592676 99.240353 
L 479.923014 108.131012 
L 480.170767 120.839385 
L 481.409534 208.932791 
L 481.739871 219.507573 
L 481.822456 219.226881 
L 481.987624 213.481131 
L 482.6483 168.10665 
L 483.639313 100.36516 
L 484.052235 88.457427 
L 484.465157 83.351769 
L 484.960663 80.359748 
L 485.373586 79.182265 
L 486.116845 78.032903 
L 487.190443 77.847818 
L 487.355611 77.921955 
L 488.016287 78.280363 
L 488.594378 78.752788 
L 489.172469 79.36377 
L 490.163482 80.303507 
L 490.411235 80.531027 
L 490.576404 80.754968 
L 490.989326 81.06276 
L 491.154495 80.989136 
L 492.145508 81.858826 
L 492.228092 81.744811 
L 492.55843 82.190648 
L 492.888767 82.601208 
L 493.053936 82.708577 
L 494.127534 84.457161 
L 494.705625 86.161775 
L 495.283715 88.949283 
L 495.779222 93.123385 
L 496.192144 99.191269 
L 496.522482 108.215373 
L 496.770235 121.327656 
L 498.009001 209.14804 
L 498.339339 219.607272 
L 498.421923 219.122069 
L 498.587092 213.149822 
L 499.247768 167.887823 
L 500.321365 96.966166 
L 500.734287 87.160817 
L 501.064625 83.10482 
L 501.477547 80.498305 
L 501.890469 79.16846 
L 502.138222 78.58202 
L 502.46856 78.218498 
L 502.633729 78.009895 
L 502.964066 77.947519 
L 503.624742 77.787999 
L 504.120248 77.86418 
L 504.946092 78.295702 
L 505.524183 78.826924 
L 505.689352 79.1204 
L 506.515196 79.840285 
L 506.845534 80.169551 
L 507.010703 80.69157 
L 507.258456 80.932895 
L 507.34104 80.82757 
L 507.423625 80.901195 
L 508.166885 81.513711 
L 508.579807 81.750946 
L 508.744975 81.427305 
L 509.240482 81.751969 
L 509.57082 82.062828 
L 510.231495 82.956038 
L 510.974755 84.906067 
L 511.470261 86.758952 
L 511.965768 89.67837 
L 512.709027 97.939654 
L 513.039365 105.669708 
L 513.287118 116.328876 
L 513.865209 161.177783 
L 514.608469 209.400612 
L 514.856222 218.568354 
L 514.938807 219.497859 
L 515.021391 218.883813 
L 515.18656 212.632408 
L 515.847235 166.837143 
L 516.838248 99.49905 
L 517.25117 88.095951 
L 517.664092 82.859916 
L 518.077014 80.438996 
L 518.407352 79.512042 
L 518.902859 78.609629 
L 519.315781 78.31513 
L 519.893872 78.188844 
L 520.05904 78.053354 
L 521.050053 78.328424 
L 521.628144 78.678652 
L 522.949495 79.771262 
L 523.940508 80.43235 
L 524.188261 80.760593 
L 524.35343 80.812232 
L 524.518599 80.880744 
L 524.683768 81.017768 
L 524.931521 81.339875 
L 525.09669 81.422192 
L 526.665794 83.101753 
L 527.90456 86.102977 
L 528.400067 88.416527 
L 528.895573 92.150927 
L 529.225911 96.201809 
L 529.556248 102.817784 
L 529.804002 111.792799 
L 530.134339 135.184347 
L 531.042768 200.674101 
L 531.45569 218.731452 
L 531.538274 219.524956 
L 531.620859 218.803542 
L 531.786028 212.530153 
L 532.529287 160.815806 
L 533.437716 99.656014 
L 533.768054 89.803631 
L 534.180976 83.6432 
L 534.593898 80.840353 
L 535.00682 79.378086 
L 535.419742 78.466981 
L 535.915248 78.03188 
L 535.997833 78.003248 
L 536.163002 77.866225 
L 536.658508 77.916331 
L 536.906262 77.907127 
L 537.154015 77.8923 
L 538.145028 78.3228 
L 538.55795 78.749209 
L 538.970872 79.234416 
L 539.218625 79.739562 
L 540.044469 80.638396 
L 540.457391 81.163483 
L 540.62256 81.181378 
L 540.787729 81.232506 
L 540.952898 81.278521 
L 542.026495 82.004542 
L 542.191664 82.012722 
L 542.439417 82.251491 
L 543.43043 83.400853 
L 543.760768 84.007745 
L 544.256275 85.428085 
L 544.751781 87.473724 
L 545.329872 91.316516 
L 545.742794 95.805055 
L 546.073132 101.622921 
L 546.403469 112.722308 
L 546.733807 136.167538 
L 547.642236 201.36535 
L 548.055158 219.233527 
L 548.137742 219.940114 
L 548.220327 219.042309 
L 548.385495 212.412558 
L 549.046171 166.282405 
L 550.037184 99.575232 
L 550.450106 88.236553 
L 550.863028 83.050113 
L 551.27595 80.400139 
L 551.771456 78.960368 
L 552.101794 78.495102 
L 552.349547 78.324845 
L 552.514716 78.260934 
L 553.010223 78.239972 
L 553.175392 78.079941 
L 554.001236 78.104482 
L 554.744496 78.411252 
L 554.992249 78.704216 
L 555.652924 79.488012 
L 557.469781 80.956414 
L 557.469781 80.956414 
" clip-path="url(#p2374deeba4)" style="fill: none; stroke: #d94452; stroke-width: 0.8; stroke-linecap: square"/>
   </g>
   <g id="text_17">
    <g id="patch_6">
     <path d="M 441.405365 249.6727 
L 508.365365 249.6727 
Q 509.965365 249.6727 509.965365 248.0727 
L 509.965365 239.5927 
Q 509.965365 237.9927 508.365365 237.9927 
L 441.405365 237.9927 
Q 439.805365 237.9927 439.805365 239.5927 
L 439.805365 248.0727 
Q 439.805365 249.6727 441.405365 249.6727 
z
" style="fill: #ffffff; opacity: 0.85; stroke: #333333; stroke-linejoin: miter"/>
    </g>
    <!-- V$_{p-p}$ = 476.71 V -->
    <g style="fill: #333333" transform="translate(441.405365 245.5927) scale(0.08 -0.08)">
     <defs>
      <path id="DejaVuSans-56" d="M 1831 0 
L 50 4666 
L 709 4666 
L 2188 738 
L 3669 4666 
L 4325 4666 
L 2547 0 
L 1831 0 
z
" transform="scale(0.015625)"/>
      <path id="DejaVuSans-Oblique-70" d="M 3175 2156 
Q 3175 2616 2975 2859 
Q 2775 3103 2400 3103 
Q 2144 3103 1911 2972 
Q 1678 2841 1497 2591 
Q 1319 2344 1212 1994 
Q 1106 1644 1106 1300 
Q 1106 863 1306 627 
Q 1506 391 1875 391 
Q 2147 391 2380 519 
Q 2613 647 2778 891 
Q 2956 1147 3065 1494 
Q 3175 1841 3175 2156 
z
M 1394 2969 
Q 1625 3272 1939 3428 
Q 2253 3584 2638 3584 
Q 3175 3584 3472 3232 
Q 3769 2881 3769 2247 
Q 3769 1728 3584 1258 
Q 3400 788 3053 416 
Q 2822 169 2531 39 
Q 2241 -91 1919 -91 
Q 1547 -91 1294 64 
Q 1041 219 916 525 
L 556 -1331 
L -19 -1331 
L 922 3500 
L 1497 3500 
L 1394 2969 
z
" transform="scale(0.015625)"/>
      <path id="DejaVuSans-20" transform="scale(0.015625)"/>
      <path id="DejaVuSans-3d" d="M 678 2906 
L 4684 2906 
L 4684 2381 
L 678 2381 
L 678 2906 
z
M 678 1631 
L 4684 1631 
L 4684 1100 
L 678 1100 
L 678 1631 
z
" transform="scale(0.015625)"/>
      <path id="DejaVuSans-37" d="M 525 4666 
L 3525 4666 
L 3525 4397 
L 1831 0 
L 1172 0 
L 2766 4134 
L 525 4134 
L 525 4666 
z
" transform="scale(0.015625)"/>
      <path id="DejaVuSans-2e" d="M 684 794 
L 1344 794 
L 1344 0 
L 684 0 
L 684 794 
z
" transform="scale(0.015625)"/>
     </defs>
     <use xlink:href="#DejaVuSans-56" transform="translate(0 0.78125)"/>
     <use xlink:href="#DejaVuSans-Oblique-70" transform="translate(69.365234 -15.625) scale(0.7)"/>
     <use xlink:href="#DejaVuSans-2212" transform="translate(127.436523 -15.625) scale(0.7)"/>
     <use xlink:href="#DejaVuSans-Oblique-70" transform="translate(199.726562 -15.625) scale(0.7)"/>
     <use xlink:href="#DejaVuSans-20" transform="translate(246.894531 0.78125)"/>
     <use xlink:href="#DejaVuSans-3d" transform="translate(278.681641 0.78125)"/>
     <use xlink:href="#DejaVuSans-20" transform="translate(362.470703 0.78125)"/>
     <use xlink:href="#DejaVuSans-34" transform="translate(394.257812 0.78125)"/>
     <use xlink:href="#DejaVuSans-37" transform="translate(457.880859 0.78125)"/>
     <use xlink:href="#DejaVuSans-36" transform="translate(521.503906 0.78125)"/>
     <use xlink:href="#DejaVuSans-2e" transform="translate(585.126953 0.78125)"/>
     <use xlink:href="#DejaVuSans-37" transform="translate(609.164062 0.78125)"/>
     <use xlink:href="#DejaVuSans-31" transform="translate(672.787109 0.78125)"/>
     <use xlink:href="#DejaVuSans-20" transform="translate(736.410156 0.78125)"/>
     <use xlink:href="#DejaVuSans-56" transform="translate(768.197266 0.78125)"/>
    </g>
   </g>
   <g id="text_18">
    <g id="patch_7">
     <path d="M 441.085365 268.8759 
L 508.685365 268.8759 
Q 510.285365 268.8759 510.285365 267.2759 
L 510.285365 258.7959 
Q 510.285365 257.1959 508.685365 257.1959 
L 441.085365 257.1959 
Q 439.485365 257.1959 439.485365 258.7959 
L 439.485365 267.2759 
Q 439.485365 268.8759 441.085365 268.8759 
z
" style="fill: #ffffff; opacity: 0.85; stroke: #d94452; stroke-linejoin: miter"/>
    </g>
    <!-- V$_{p-p}$ = 426.94 V -->
    <g style="fill: #d94452" transform="translate(441.085365 264.7959) scale(0.08 -0.08)">
     <defs>
      <path id="DejaVuSans-39" d="M 703 97 
L 703 672 
Q 941 559 1184 500 
Q 1428 441 1663 441 
Q 2288 441 2617 861 
Q 2947 1281 2994 2138 
Q 2813 1869 2534 1725 
Q 2256 1581 1919 1581 
Q 1219 1581 811 2004 
Q 403 2428 403 3163 
Q 403 3881 828 4315 
Q 1253 4750 1959 4750 
Q 2769 4750 3195 4129 
Q 3622 3509 3622 2328 
Q 3622 1225 3098 567 
Q 2575 -91 1691 -91 
Q 1453 -91 1209 -44 
Q 966 3 703 97 
z
M 1959 2075 
Q 2384 2075 2632 2365 
Q 2881 2656 2881 3163 
Q 2881 3666 2632 3958 
Q 2384 4250 1959 4250 
Q 1534 4250 1286 3958 
Q 1038 3666 1038 3163 
Q 1038 2656 1286 2365 
Q 1534 2075 1959 2075 
z
" transform="scale(0.015625)"/>
     </defs>
     <use xlink:href="#DejaVuSans-56" transform="translate(0 0.78125)"/>
     <use xlink:href="#DejaVuSans-Oblique-70" transform="translate(69.365234 -15.625) scale(0.7)"/>
     <use xlink:href="#DejaVuSans-2212" transform="translate(127.436523 -15.625) scale(0.7)"/>
     <use xlink:href="#DejaVuSans-Oblique-70" transform="translate(199.726562 -15.625) scale(0.7)"/>
     <use xlink:href="#DejaVuSans-20" transform="translate(246.894531 0.78125)"/>
     <use xlink:href="#DejaVuSans-3d" transform="translate(278.681641 0.78125)"/>
     <use xlink:href="#DejaVuSans-20" transform="translate(362.470703 0.78125)"/>
     <use xlink:href="#DejaVuSans-34" transform="translate(394.257812 0.78125)"/>
     <use xlink:href="#DejaVuSans-32" transform="translate(457.880859 0.78125)"/>
     <use xlink:href="#DejaVuSans-36" transform="translate(521.503906 0.78125)"/>
     <use xlink:href="#DejaVuSans-2e" transform="translate(585.126953 0.78125)"/>
     <use xlink:href="#DejaVuSans-39" transform="translate(616.914062 0.78125)"/>
     <use xlink:href="#DejaVuSans-34" transform="translate(680.537109 0.78125)"/>
     <use xlink:href="#DejaVuSans-20" transform="translate(744.160156 0.78125)"/>
     <use xlink:href="#DejaVuSans-56" transform="translate(775.947266 0.78125)"/>
    </g>
   </g>
   <g id="text_19">
    <!-- Open-Circuit Voltage — Bare vs MIC -->
    <g transform="translate(149.242781 19.3575) scale(0.16 -0.16)">
     <defs>
      <path id="DejaVuSans-Bold-4f" d="M 2719 3878 
Q 2169 3878 1866 3472 
Q 1563 3066 1563 2328 
Q 1563 1594 1866 1187 
Q 2169 781 2719 781 
Q 3272 781 3575 1187 
Q 3878 1594 3878 2328 
Q 3878 3066 3575 3472 
Q 3272 3878 2719 3878 
z
M 2719 4750 
Q 3844 4750 4481 4106 
Q 5119 3463 5119 2328 
Q 5119 1197 4481 553 
Q 3844 -91 2719 -91 
Q 1597 -91 958 553 
Q 319 1197 319 2328 
Q 319 3463 958 4106 
Q 1597 4750 2719 4750 
z
" transform="scale(0.015625)"/>
      <path id="DejaVuSans-Bold-70" d="M 1656 506 
L 1656 -1331 
L 538 -1331 
L 538 3500 
L 1656 3500 
L 1656 2988 
Q 1888 3294 2169 3439 
Q 2450 3584 2816 3584 
Q 3463 3584 3878 3070 
Q 4294 2556 4294 1747 
Q 4294 938 3878 423 
Q 3463 -91 2816 -91 
Q 2450 -91 2169 54 
Q 1888 200 1656 506 
z
M 2400 2772 
Q 2041 2772 1848 2508 
Q 1656 2244 1656 1747 
Q 1656 1250 1848 986 
Q 2041 722 2400 722 
Q 2759 722 2948 984 
Q 3138 1247 3138 1747 
Q 3138 2247 2948 2509 
Q 2759 2772 2400 2772 
z
" transform="scale(0.015625)"/>
      <path id="DejaVuSans-Bold-6e" d="M 4056 2131 
L 4056 0 
L 2931 0 
L 2931 347 
L 2931 1631 
Q 2931 2084 2911 2256 
Q 2891 2428 2841 2509 
Q 2775 2619 2662 2680 
Q 2550 2741 2406 2741 
Q 2056 2741 1856 2470 
Q 1656 2200 1656 1722 
L 1656 0 
L 538 0 
L 538 3500 
L 1656 3500 
L 1656 2988 
Q 1909 3294 2193 3439 
Q 2478 3584 2822 3584 
Q 3428 3584 3742 3212 
Q 4056 2841 4056 2131 
z
" transform="scale(0.015625)"/>
      <path id="DejaVuSans-Bold-2d" d="M 347 2297 
L 2309 2297 
L 2309 1388 
L 347 1388 
L 347 2297 
z
" transform="scale(0.015625)"/>
      <path id="DejaVuSans-Bold-43" d="M 4288 256 
Q 3956 84 3597 -3 
Q 3238 -91 2847 -91 
Q 1681 -91 1000 561 
Q 319 1213 319 2328 
Q 319 3447 1000 4098 
Q 1681 4750 2847 4750 
Q 3238 4750 3597 4662 
Q 3956 4575 4288 4403 
L 4288 3438 
Q 3953 3666 3628 3772 
Q 3303 3878 2944 3878 
Q 2300 3878 1931 3465 
Q 1563 3053 1563 2328 
Q 1563 1606 1931 1193 
Q 2300 781 2944 781 
Q 3303 781 3628 887 
Q 3953 994 4288 1222 
L 4288 256 
z
" transform="scale(0.015625)"/>
      <path id="DejaVuSans-Bold-72" d="M 3138 2547 
Q 2991 2616 2845 2648 
Q 2700 2681 2553 2681 
Q 2122 2681 1889 2404 
Q 1656 2128 1656 1613 
L 1656 0 
L 538 0 
L 538 3500 
L 1656 3500 
L 1656 2925 
Q 1872 3269 2151 3426 
Q 2431 3584 2822 3584 
Q 2878 3584 2943 3579 
Q 3009 3575 3134 3559 
L 3138 2547 
z
" transform="scale(0.015625)"/>
      <path id="DejaVuSans-Bold-63" d="M 3366 3391 
L 3366 2478 
Q 3138 2634 2908 2709 
Q 2678 2784 2431 2784 
Q 1963 2784 1702 2511 
Q 1441 2238 1441 1747 
Q 1441 1256 1702 982 
Q 1963 709 2431 709 
Q 2694 709 2930 787 
Q 3166 866 3366 1019 
L 3366 103 
Q 3103 6 2833 -42 
Q 2563 -91 2291 -91 
Q 1344 -91 809 395 
Q 275 881 275 1747 
Q 275 2613 809 3098 
Q 1344 3584 2291 3584 
Q 2566 3584 2833 3536 
Q 3100 3488 3366 3391 
z
" transform="scale(0.015625)"/>
      <path id="DejaVuSans-Bold-75" d="M 500 1363 
L 500 3500 
L 1625 3500 
L 1625 3150 
Q 1625 2866 1622 2436 
Q 1619 2006 1619 1863 
Q 1619 1441 1641 1255 
Q 1663 1069 1716 984 
Q 1784 875 1895 815 
Q 2006 756 2150 756 
Q 2500 756 2700 1025 
Q 2900 1294 2900 1772 
L 2900 3500 
L 4019 3500 
L 4019 0 
L 2900 0 
L 2900 506 
Q 2647 200 2364 54 
Q 2081 -91 1741 -91 
Q 1134 -91 817 281 
Q 500 653 500 1363 
z
" transform="scale(0.015625)"/>
      <path id="DejaVuSans-Bold-74" d="M 1759 4494 
L 1759 3500 
L 2913 3500 
L 2913 2700 
L 1759 2700 
L 1759 1216 
Q 1759 972 1856 886 
Q 1953 800 2241 800 
L 2816 800 
L 2816 0 
L 1856 0 
Q 1194 0 917 276 
Q 641 553 641 1216 
L 641 2700 
L 84 2700 
L 84 3500 
L 641 3500 
L 641 4494 
L 1759 4494 
z
" transform="scale(0.015625)"/>
      <path id="DejaVuSans-Bold-6f" d="M 2203 2784 
Q 1831 2784 1636 2517 
Q 1441 2250 1441 1747 
Q 1441 1244 1636 976 
Q 1831 709 2203 709 
Q 2569 709 2762 976 
Q 2956 1244 2956 1747 
Q 2956 2250 2762 2517 
Q 2569 2784 2203 2784 
z
M 2203 3584 
Q 3106 3584 3614 3096 
Q 4122 2609 4122 1747 
Q 4122 884 3614 396 
Q 3106 -91 2203 -91 
Q 1297 -91 786 396 
Q 275 884 275 1747 
Q 275 2609 786 3096 
Q 1297 3584 2203 3584 
z
" transform="scale(0.015625)"/>
      <path id="DejaVuSans-Bold-6c" d="M 538 4863 
L 1656 4863 
L 1656 0 
L 538 0 
L 538 4863 
z
" transform="scale(0.015625)"/>
      <path id="DejaVuSans-Bold-61" d="M 2106 1575 
Q 1756 1575 1579 1456 
Q 1403 1338 1403 1106 
Q 1403 894 1545 773 
Q 1688 653 1941 653 
Q 2256 653 2472 879 
Q 2688 1106 2688 1447 
L 2688 1575 
L 2106 1575 
z
M 3816 1997 
L 3816 0 
L 2688 0 
L 2688 519 
Q 2463 200 2181 54 
Q 1900 -91 1497 -91 
Q 953 -91 614 226 
Q 275 544 275 1050 
Q 275 1666 698 1953 
Q 1122 2241 2028 2241 
L 2688 2241 
L 2688 2328 
Q 2688 2594 2478 2717 
Q 2269 2841 1825 2841 
Q 1466 2841 1156 2769 
Q 847 2697 581 2553 
L 581 3406 
Q 941 3494 1303 3539 
Q 1666 3584 2028 3584 
Q 2975 3584 3395 3211 
Q 3816 2838 3816 1997 
z
" transform="scale(0.015625)"/>
      <path id="DejaVuSans-Bold-67" d="M 2919 594 
Q 2688 288 2409 144 
Q 2131 0 1766 0 
Q 1125 0 706 504 
Q 288 1009 288 1791 
Q 288 2575 706 3076 
Q 1125 3578 1766 3578 
Q 2131 3578 2409 3434 
Q 2688 3291 2919 2981 
L 2919 3500 
L 4044 3500 
L 4044 353 
Q 4044 -491 3511 -936 
Q 2978 -1381 1966 -1381 
Q 1638 -1381 1331 -1331 
Q 1025 -1281 716 -1178 
L 716 -306 
Q 1009 -475 1290 -558 
Q 1572 -641 1856 -641 
Q 2406 -641 2662 -400 
Q 2919 -159 2919 353 
L 2919 594 
z
M 2181 2772 
Q 1834 2772 1640 2515 
Q 1447 2259 1447 1791 
Q 1447 1309 1634 1061 
Q 1822 813 2181 813 
Q 2531 813 2725 1069 
Q 2919 1325 2919 1791 
Q 2919 2259 2725 2515 
Q 2531 2772 2181 2772 
z
" transform="scale(0.015625)"/>
      <path id="DejaVuSans-Bold-2014" d="M 344 2156 
L 6056 2156 
L 6056 1350 
L 344 1350 
L 344 2156 
z
" transform="scale(0.015625)"/>
      <path id="DejaVuSans-Bold-42" d="M 2456 2859 
Q 2741 2859 2887 2984 
Q 3034 3109 3034 3353 
Q 3034 3594 2887 3720 
Q 2741 3847 2456 3847 
L 1791 3847 
L 1791 2859 
L 2456 2859 
z
M 2497 819 
Q 2859 819 3042 972 
Q 3225 1125 3225 1434 
Q 3225 1738 3044 1889 
Q 2863 2041 2497 2041 
L 1791 2041 
L 1791 819 
L 2497 819 
z
M 3616 2497 
Q 4003 2384 4215 2081 
Q 4428 1778 4428 1338 
Q 4428 663 3972 331 
Q 3516 0 2584 0 
L 588 0 
L 588 4666 
L 2394 4666 
Q 3366 4666 3802 4372 
Q 4238 4078 4238 3431 
Q 4238 3091 4078 2852 
Q 3919 2613 3616 2497 
z
" transform="scale(0.015625)"/>
      <path id="DejaVuSans-Bold-76" d="M 97 3500 
L 1216 3500 
L 2088 1081 
L 2956 3500 
L 4078 3500 
L 2700 0 
L 1472 0 
L 97 3500 
z
" transform="scale(0.015625)"/>
      <path id="DejaVuSans-Bold-4d" d="M 588 4666 
L 2119 4666 
L 3181 2169 
L 4250 4666 
L 5778 4666 
L 5778 0 
L 4641 0 
L 4641 3413 
L 3566 897 
L 2803 897 
L 1728 3413 
L 1728 0 
L 588 0 
L 588 4666 
z
" transform="scale(0.015625)"/>
      <path id="DejaVuSans-Bold-49" d="M 588 4666 
L 1791 4666 
L 1791 0 
L 588 0 
L 588 4666 
z
" transform="scale(0.015625)"/>
     </defs>
     <use xlink:href="#DejaVuSans-Bold-4f"/>
     <use xlink:href="#DejaVuSans-Bold-70" transform="translate(85.009766 0)"/>
     <use xlink:href="#DejaVuSans-Bold-65" transform="translate(156.591797 0)"/>
     <use xlink:href="#DejaVuSans-Bold-6e" transform="translate(224.414062 0)"/>
     <use xlink:href="#DejaVuSans-Bold-2d" transform="translate(295.605469 0)"/>
     <use xlink:href="#DejaVuSans-Bold-43" transform="translate(337.109375 0)"/>
     <use xlink:href="#DejaVuSans-Bold-69" transform="translate(410.498047 0)"/>
     <use xlink:href="#DejaVuSans-Bold-72" transform="translate(444.775391 0)"/>
     <use xlink:href="#DejaVuSans-Bold-63" transform="translate(494.091797 0)"/>
     <use xlink:href="#DejaVuSans-Bold-75" transform="translate(553.369141 0)"/>
     <use xlink:href="#DejaVuSans-Bold-69" transform="translate(624.560547 0)"/>
     <use xlink:href="#DejaVuSans-Bold-74" transform="translate(658.837891 0)"/>
     <use xlink:href="#DejaVuSans-Bold-20" transform="translate(706.640625 0)"/>
     <use xlink:href="#DejaVuSans-Bold-56" transform="translate(741.455078 0)"/>
     <use xlink:href="#DejaVuSans-Bold-6f" transform="translate(813.347656 0)"/>
     <use xlink:href="#DejaVuSans-Bold-6c" transform="translate(882.048828 0)"/>
     <use xlink:href="#DejaVuSans-Bold-74" transform="translate(916.326172 0)"/>
     <use xlink:href="#DejaVuSans-Bold-61" transform="translate(964.128906 0)"/>
     <use xlink:href="#DejaVuSans-Bold-67" transform="translate(1031.609375 0)"/>
     <use xlink:href="#DejaVuSans-Bold-65" transform="translate(1103.191406 0)"/>
     <use xlink:href="#DejaVuSans-Bold-20" transform="translate(1171.013672 0)"/>
     <use xlink:href="#DejaVuSans-Bold-2014" transform="translate(1205.828125 0)"/>
     <use xlink:href="#DejaVuSans-Bold-20" transform="translate(1305.828125 0)"/>
     <use xlink:href="#DejaVuSans-Bold-42" transform="translate(1340.642578 0)"/>
     <use xlink:href="#DejaVuSans-Bold-61" transform="translate(1416.863281 0)"/>
     <use xlink:href="#DejaVuSans-Bold-72" transform="translate(1484.34375 0)"/>
     <use xlink:href="#DejaVuSans-Bold-65" transform="translate(1533.660156 0)"/>
     <use xlink:href="#DejaVuSans-Bold-20" transform="translate(1601.482422 0)"/>
     <use xlink:href="#DejaVuSans-Bold-76" transform="translate(1636.296875 0)"/>
     <use xlink:href="#DejaVuSans-Bold-73" transform="translate(1701.482422 0)"/>
     <use xlink:href="#DejaVuSans-Bold-20" transform="translate(1761.003906 0)"/>
     <use xlink:href="#DejaVuSans-Bold-4d" transform="translate(1795.818359 0)"/>
     <use xlink:href="#DejaVuSans-Bold-49" transform="translate(1895.330078 0)"/>
     <use xlink:href="#DejaVuSans-Bold-43" transform="translate(1932.537109 0)"/>
    </g>
   </g>
   <g id="text_20">
    <!-- 5 Hz -->
    <g style="fill: #f0ad4e" transform="translate(458.877083 53.837069) scale(0.13 -0.13)">
     <defs>
      <path id="DejaVuSans-Bold-35" d="M 678 4666 
L 3669 4666 
L 3669 3781 
L 1638 3781 
L 1638 3059 
Q 1775 3097 1914 3117 
Q 2053 3138 2203 3138 
Q 3056 3138 3531 2711 
Q 4006 2284 4006 1522 
Q 4006 766 3489 337 
Q 2972 -91 2053 -91 
Q 1656 -91 1267 -14 
Q 878 63 494 219 
L 494 1166 
Q 875 947 1217 837 
Q 1559 728 1863 728 
Q 2300 728 2551 942 
Q 2803 1156 2803 1522 
Q 2803 1891 2551 2103 
Q 2300 2316 1863 2316 
Q 1603 2316 1309 2248 
Q 1016 2181 678 2041 
L 678 4666 
z
" transform="scale(0.015625)"/>
      <path id="DejaVuSans-Bold-48" d="M 588 4666 
L 1791 4666 
L 1791 2888 
L 3566 2888 
L 3566 4666 
L 4769 4666 
L 4769 0 
L 3566 0 
L 3566 1978 
L 1791 1978 
L 1791 0 
L 588 0 
L 588 4666 
z
" transform="scale(0.015625)"/>
      <path id="DejaVuSans-Bold-7a" d="M 366 3500 
L 3419 3500 
L 3419 2719 
L 1575 800 
L 3419 800 
L 3419 0 
L 288 0 
L 288 781 
L 2131 2700 
L 366 2700 
L 366 3500 
z
" transform="scale(0.015625)"/>
     </defs>
     <use xlink:href="#DejaVuSans-Bold-35"/>
     <use xlink:href="#DejaVuSans-Bold-20" transform="translate(69.580078 0)"/>
     <use xlink:href="#DejaVuSans-Bold-48" transform="translate(104.394531 0)"/>
     <use xlink:href="#DejaVuSans-Bold-7a" transform="translate(188.085938 0)"/>
    </g>
   </g>
   <g id="legend_1">
    <g id="patch_8">
     <path d="M 69.663281 75.449375 
L 171.75875 75.449375 
Q 173.95875 75.449375 173.95875 73.249375 
L 173.95875 42.0575 
Q 173.95875 39.8575 171.75875 39.8575 
L 69.663281 39.8575 
Q 67.463281 39.8575 67.463281 42.0575 
L 67.463281 73.249375 
Q 67.463281 75.449375 69.663281 75.449375 
z
" style="fill: #ffffff; opacity: 0.9; stroke: #808080; stroke-linejoin: miter"/>
    </g>
    <g id="patch_9">
     <path d="M 71.863281 52.615781 
L 93.863281 52.615781 
L 93.863281 44.915781 
L 71.863281 44.915781 
z
" style="fill: #333333; stroke: #333333; stroke-linejoin: miter"/>
    </g>
    <g id="text_21">
     <!-- Without MIC -->
     <g transform="translate(102.663281 52.615781) scale(0.11 -0.11)">
      <defs>
       <path id="DejaVuSans-57" d="M 213 4666 
L 850 4666 
L 1831 722 
L 2809 4666 
L 3519 4666 
L 4500 722 
L 5478 4666 
L 6119 4666 
L 4947 0 
L 4153 0 
L 3169 4050 
L 2175 0 
L 1381 0 
L 213 4666 
z
" transform="scale(0.015625)"/>
       <path id="DejaVuSans-69" d="M 603 3500 
L 1178 3500 
L 1178 0 
L 603 0 
L 603 3500 
z
M 603 4863 
L 1178 4863 
L 1178 4134 
L 603 4134 
L 603 4863 
z
" transform="scale(0.015625)"/>
       <path id="DejaVuSans-74" d="M 1172 4494 
L 1172 3500 
L 2356 3500 
L 2356 3053 
L 1172 3053 
L 1172 1153 
Q 1172 725 1289 603 
Q 1406 481 1766 481 
L 2356 481 
L 2356 0 
L 1766 0 
Q 1100 0 847 248 
Q 594 497 594 1153 
L 594 3053 
L 172 3053 
L 172 3500 
L 594 3500 
L 594 4494 
L 1172 4494 
z
" transform="scale(0.015625)"/>
       <path id="DejaVuSans-68" d="M 3513 2113 
L 3513 0 
L 2938 0 
L 2938 2094 
Q 2938 2591 2744 2837 
Q 2550 3084 2163 3084 
Q 1697 3084 1428 2787 
Q 1159 2491 1159 1978 
L 1159 0 
L 581 0 
L 581 4863 
L 1159 4863 
L 1159 2956 
Q 1366 3272 1645 3428 
Q 1925 3584 2291 3584 
Q 2894 3584 3203 3211 
Q 3513 2838 3513 2113 
z
" transform="scale(0.015625)"/>
       <path id="DejaVuSans-6f" d="M 1959 3097 
Q 1497 3097 1228 2736 
Q 959 2375 959 1747 
Q 959 1119 1226 758 
Q 1494 397 1959 397 
Q 2419 397 2687 759 
Q 2956 1122 2956 1747 
Q 2956 2369 2687 2733 
Q 2419 3097 1959 3097 
z
M 1959 3584 
Q 2709 3584 3137 3096 
Q 3566 2609 3566 1747 
Q 3566 888 3137 398 
Q 2709 -91 1959 -91 
Q 1206 -91 779 398 
Q 353 888 353 1747 
Q 353 2609 779 3096 
Q 1206 3584 1959 3584 
z
" transform="scale(0.015625)"/>
       <path id="DejaVuSans-75" d="M 544 1381 
L 544 3500 
L 1119 3500 
L 1119 1403 
Q 1119 906 1312 657 
Q 1506 409 1894 409 
Q 2359 409 2629 706 
Q 2900 1003 2900 1516 
L 2900 3500 
L 3475 3500 
L 3475 0 
L 2900 0 
L 2900 538 
Q 2691 219 2414 64 
Q 2138 -91 1772 -91 
Q 1169 -91 856 284 
Q 544 659 544 1381 
z
M 1991 3584 
L 1991 3584 
z
" transform="scale(0.015625)"/>
       <path id="DejaVuSans-4d" d="M 628 4666 
L 1569 4666 
L 2759 1491 
L 3956 4666 
L 4897 4666 
L 4897 0 
L 4281 0 
L 4281 4097 
L 3078 897 
L 2444 897 
L 1241 4097 
L 1241 0 
L 628 0 
L 628 4666 
z
" transform="scale(0.015625)"/>
       <path id="DejaVuSans-49" d="M 628 4666 
L 1259 4666 
L 1259 0 
L 628 0 
L 628 4666 
z
" transform="scale(0.015625)"/>
       <path id="DejaVuSans-43" d="M 4122 4306 
L 4122 3641 
Q 3803 3938 3442 4084 
Q 3081 4231 2675 4231 
Q 1875 4231 1450 3742 
Q 1025 3253 1025 2328 
Q 1025 1406 1450 917 
Q 1875 428 2675 428 
Q 3081 428 3442 575 
Q 3803 722 4122 1019 
L 4122 359 
Q 3791 134 3420 21 
Q 3050 -91 2638 -91 
Q 1578 -91 968 557 
Q 359 1206 359 2328 
Q 359 3453 968 4101 
Q 1578 4750 2638 4750 
Q 3056 4750 3426 4639 
Q 3797 4528 4122 4306 
z
" transform="scale(0.015625)"/>
      </defs>
      <use xlink:href="#DejaVuSans-57"/>
      <use xlink:href="#DejaVuSans-69" transform="translate(96.626953 0)"/>
      <use xlink:href="#DejaVuSans-74" transform="translate(124.410156 0)"/>
      <use xlink:href="#DejaVuSans-68" transform="translate(163.619141 0)"/>
      <use xlink:href="#DejaVuSans-6f" transform="translate(226.998047 0)"/>
      <use xlink:href="#DejaVuSans-75" transform="translate(288.179688 0)"/>
      <use xlink:href="#DejaVuSans-74" transform="translate(351.558594 0)"/>
      <use xlink:href="#DejaVuSans-20" transform="translate(390.767578 0)"/>
      <use xlink:href="#DejaVuSans-4d" transform="translate(422.554688 0)"/>
      <use xlink:href="#DejaVuSans-49" transform="translate(508.833984 0)"/>
      <use xlink:href="#DejaVuSans-43" transform="translate(538.326172 0)"/>
     </g>
    </g>
    <g id="patch_10">
     <path d="M 71.863281 68.761719 
L 93.863281 68.761719 
L 93.863281 61.061719 
L 71.863281 61.061719 
z
" style="fill: #d94452; stroke: #d94452; stroke-linejoin: miter"/>
    </g>
    <g id="text_22">
     <!-- With MIC -->
     <g transform="translate(102.663281 68.761719) scale(0.11 -0.11)">
      <use xlink:href="#DejaVuSans-57"/>
      <use xlink:href="#DejaVuSans-69" transform="translate(96.626953 0)"/>
      <use xlink:href="#DejaVuSans-74" transform="translate(124.410156 0)"/>
      <use xlink:href="#DejaVuSans-68" transform="translate(163.619141 0)"/>
      <use xlink:href="#DejaVuSans-20" transform="translate(226.998047 0)"/>
      <use xlink:href="#DejaVuSans-4d" transform="translate(258.785156 0)"/>
      <use xlink:href="#DejaVuSans-49" transform="translate(345.064453 0)"/>
      <use xlink:href="#DejaVuSans-43" transform="translate(374.556641 0)"/>
     </g>
    </g>
   </g>
  </g>
 </g>
 <defs>
  <clipPath id="p2374deeba4">
   <rect x="61.963281" y="34.3575" width="495.5065" height="240.04"/>
  </clipPath>
 </defs>
</svg>
