<?xml version="1.0" encoding="utf-8" standalone="no"?>
<!DOCTYPE svg PUBLIC "-//W3C//DTD SVG 1.1//EN"
  "http://www.w3.org/Graphics/SVG/1.1/DTD/svg11.dtd">
<svg xmlns:xlink="http://www.w3.org/1999/xlink" width="999.659281pt" height="352.192813pt" viewBox="0 0 999.659281 352.192813" xmlns="http://www.w3.org/2000/svg" version="1.1">
 <metadata>
  <rdf:RDF xmlns:dc="http://purl.org/dc/elements/1.1/" xmlns:cc="http://creativecommons.org/ns#" xmlns:rdf="http://www.w3.org/1999/02/22-rdf-syntax-ns#">
   <cc:Work>
    <dc:type rdf:resource="http://purl.org/dc/dcmitype/StillImage"/>
    <dc:date>2026-04-26T15:27:23.532717</dc:date>
    <dc:format>image/svg+xml</dc:format>
    <dc:creator>
     <cc:Agent>
      <dc:title>Matplotlib v3.10.8, https://matplotlib.org/</dc:title>
     </cc:Agent>
    </dc:creator>
   </cc:Work>
  </rdf:RDF>
 </metadata>
 <defs>
  <style type="text/css">*{stroke-linejoin: round; stroke-linecap: butt}</style>
 </defs>
 <g id="figure_1">
  <g id="patch_1">
   <path d="M 0 352.192813 
L 999.659281 352.192813 
L 999.659281 0 
L 0 0 
z
" style="fill: #ffffff"/>
  </g>
  <g id="axes_1">
   <g id="patch_2">
    <path d="M 61.963281 309.7975 
L 992.459281 309.7975 
L 992.459281 34.3575 
L 61.963281 34.3575 
z
" style="fill: #ffffff"/>
   </g>
   <g id="patch_3">
    <path d="M 527.211281 309.7975 
L 743.6057 309.7975 
L 743.6057 34.3575 
L 527.211281 34.3575 
z
" clip-path="url(#pf37976efee)" style="fill: #f0ad4e; opacity: 0.15; stroke: #f0ad4e; stroke-linejoin: miter"/>
   </g>
   <g id="matplotlib.axis_1">
    <g id="xtick_1">
     <g id="line2d_1">
      <defs>
       <path id="mb02ac28434" d="M 0 0 
L 0 3.5 
" style="stroke: #000000; stroke-width: 0.8"/>
      </defs>
      <g>
       <use xlink:href="#mb02ac28434" x="94.422444" y="309.7975" style="stroke: #000000; stroke-width: 0.8"/>
      </g>
     </g>
     <g id="text_1">
      <!-- 0 -->
      <g transform="translate(90.923069 325.155781) scale(0.11 -0.11)">
       <defs>
        <path id="DejaVuSans-30" d="M 2034 4250 
Q 1547 4250 1301 3770 
Q 1056 3291 1056 2328 
Q 1056 1369 1301 889 
Q 1547 409 2034 409 
Q 2525 409 2770 889 
Q 3016 1369 3016 2328 
Q 3016 3291 2770 3770 
Q 2525 4250 2034 4250 
z
M 2034 4750 
Q 2819 4750 3233 4129 
Q 3647 3509 3647 2328 
Q 3647 1150 3233 529 
Q 2819 -91 2034 -91 
Q 1250 -91 836 529 
Q 422 1150 422 2328 
Q 422 3509 836 4129 
Q 1250 4750 2034 4750 
z
" transform="scale(0.015625)"/>
       </defs>
       <use xlink:href="#DejaVuSans-30"/>
      </g>
     </g>
    </g>
    <g id="xtick_2">
     <g id="line2d_2">
      <g>
       <use xlink:href="#mb02ac28434" x="202.619653" y="309.7975" style="stroke: #000000; stroke-width: 0.8"/>
      </g>
     </g>
     <g id="text_2">
      <!-- 1 -->
      <g transform="translate(199.120278 325.155781) scale(0.11 -0.11)">
       <defs>
        <path id="DejaVuSans-31" d="M 794 531 
L 1825 531 
L 1825 4091 
L 703 3866 
L 703 4441 
L 1819 4666 
L 2450 4666 
L 2450 531 
L 3481 531 
L 3481 0 
L 794 0 
L 794 531 
z
" transform="scale(0.015625)"/>
       </defs>
       <use xlink:href="#DejaVuSans-31"/>
      </g>
     </g>
    </g>
    <g id="xtick_3">
     <g id="line2d_3">
      <g>
       <use xlink:href="#mb02ac28434" x="310.816863" y="309.7975" style="stroke: #000000; stroke-width: 0.8"/>
      </g>
     </g>
     <g id="text_3">
      <!-- 2 -->
      <g transform="translate(307.317488 325.155781) scale(0.11 -0.11)">
       <defs>
        <path id="DejaVuSans-32" d="M 1228 531 
L 3431 531 
L 3431 0 
L 469 0 
L 469 531 
Q 828 903 1448 1529 
Q 2069 2156 2228 2338 
Q 2531 2678 2651 2914 
Q 2772 3150 2772 3378 
Q 2772 3750 2511 3984 
Q 2250 4219 1831 4219 
Q 1534 4219 1204 4116 
Q 875 4013 500 3803 
L 500 4441 
Q 881 4594 1212 4672 
Q 1544 4750 1819 4750 
Q 2544 4750 2975 4387 
Q 3406 4025 3406 3419 
Q 3406 3131 3298 2873 
Q 3191 2616 2906 2266 
Q 2828 2175 2409 1742 
Q 1991 1309 1228 531 
z
" transform="scale(0.015625)"/>
       </defs>
       <use xlink:href="#DejaVuSans-32"/>
      </g>
     </g>
    </g>
    <g id="xtick_4">
     <g id="line2d_4">
      <g>
       <use xlink:href="#mb02ac28434" x="419.014072" y="309.7975" style="stroke: #000000; stroke-width: 0.8"/>
      </g>
     </g>
     <g id="text_4">
      <!-- 3 -->
      <g transform="translate(415.514697 325.155781) scale(0.11 -0.11)">
       <defs>
        <path id="DejaVuSans-33" d="M 2597 2516 
Q 3050 2419 3304 2112 
Q 3559 1806 3559 1356 
Q 3559 666 3084 287 
Q 2609 -91 1734 -91 
Q 1441 -91 1130 -33 
Q 819 25 488 141 
L 488 750 
Q 750 597 1062 519 
Q 1375 441 1716 441 
Q 2309 441 2620 675 
Q 2931 909 2931 1356 
Q 2931 1769 2642 2001 
Q 2353 2234 1838 2234 
L 1294 2234 
L 1294 2753 
L 1863 2753 
Q 2328 2753 2575 2939 
Q 2822 3125 2822 3475 
Q 2822 3834 2567 4026 
Q 2313 4219 1838 4219 
Q 1578 4219 1281 4162 
Q 984 4106 628 3988 
L 628 4550 
Q 988 4650 1302 4700 
Q 1616 4750 1894 4750 
Q 2613 4750 3031 4423 
Q 3450 4097 3450 3541 
Q 3450 3153 3228 2886 
Q 3006 2619 2597 2516 
z
" transform="scale(0.015625)"/>
       </defs>
       <use xlink:href="#DejaVuSans-33"/>
      </g>
     </g>
    </g>
    <g id="xtick_5">
     <g id="line2d_5">
      <g>
       <use xlink:href="#mb02ac28434" x="527.211281" y="309.7975" style="stroke: #000000; stroke-width: 0.8"/>
      </g>
     </g>
     <g id="text_5">
      <!-- 4 -->
      <g transform="translate(523.711906 325.155781) scale(0.11 -0.11)">
       <defs>
        <path id="DejaVuSans-34" d="M 2419 4116 
L 825 1625 
L 2419 1625 
L 2419 4116 
z
M 2253 4666 
L 3047 4666 
L 3047 1625 
L 3713 1625 
L 3713 1100 
L 3047 1100 
L 3047 0 
L 2419 0 
L 2419 1100 
L 313 1100 
L 313 1709 
L 2253 4666 
z
" transform="scale(0.015625)"/>
       </defs>
       <use xlink:href="#DejaVuSans-34"/>
      </g>
     </g>
    </g>
    <g id="xtick_6">
     <g id="line2d_6">
      <g>
       <use xlink:href="#mb02ac28434" x="635.408491" y="309.7975" style="stroke: #000000; stroke-width: 0.8"/>
      </g>
     </g>
     <g id="text_6">
      <!-- 5 -->
      <g transform="translate(631.909116 325.155781) scale(0.11 -0.11)">
       <defs>
        <path id="DejaVuSans-35" d="M 691 4666 
L 3169 4666 
L 3169 4134 
L 1269 4134 
L 1269 2991 
Q 1406 3038 1543 3061 
Q 1681 3084 1819 3084 
Q 2600 3084 3056 2656 
Q 3513 2228 3513 1497 
Q 3513 744 3044 326 
Q 2575 -91 1722 -91 
Q 1428 -91 1123 -41 
Q 819 9 494 109 
L 494 744 
Q 775 591 1075 516 
Q 1375 441 1709 441 
Q 2250 441 2565 725 
Q 2881 1009 2881 1497 
Q 2881 1984 2565 2268 
Q 2250 2553 1709 2553 
Q 1456 2553 1204 2497 
Q 953 2441 691 2322 
L 691 4666 
z
" transform="scale(0.015625)"/>
       </defs>
       <use xlink:href="#DejaVuSans-35"/>
      </g>
     </g>
    </g>
    <g id="xtick_7">
     <g id="line2d_7">
      <g>
       <use xlink:href="#mb02ac28434" x="743.6057" y="309.7975" style="stroke: #000000; stroke-width: 0.8"/>
      </g>
     </g>
     <g id="text_7">
      <!-- 6 -->
      <g transform="translate(740.106325 325.155781) scale(0.11 -0.11)">
       <defs>
        <path id="DejaVuSans-36" d="M 2113 2584 
Q 1688 2584 1439 2293 
Q 1191 2003 1191 1497 
Q 1191 994 1439 701 
Q 1688 409 2113 409 
Q 2538 409 2786 701 
Q 3034 994 3034 1497 
Q 3034 2003 2786 2293 
Q 2538 2584 2113 2584 
z
M 3366 4563 
L 3366 3988 
Q 3128 4100 2886 4159 
Q 2644 4219 2406 4219 
Q 1781 4219 1451 3797 
Q 1122 3375 1075 2522 
Q 1259 2794 1537 2939 
Q 1816 3084 2150 3084 
Q 2853 3084 3261 2657 
Q 3669 2231 3669 1497 
Q 3669 778 3244 343 
Q 2819 -91 2113 -91 
Q 1303 -91 875 529 
Q 447 1150 447 2328 
Q 447 3434 972 4092 
Q 1497 4750 2381 4750 
Q 2619 4750 2861 4703 
Q 3103 4656 3366 4563 
z
" transform="scale(0.015625)"/>
       </defs>
       <use xlink:href="#DejaVuSans-36"/>
      </g>
     </g>
    </g>
    <g id="xtick_8">
     <g id="line2d_8">
      <g>
       <use xlink:href="#mb02ac28434" x="851.802909" y="309.7975" style="stroke: #000000; stroke-width: 0.8"/>
      </g>
     </g>
     <g id="text_8">
      <!-- 7 -->
      <g transform="translate(848.303534 325.155781) scale(0.11 -0.11)">
       <defs>
        <path id="DejaVuSans-37" d="M 525 4666 
L 3525 4666 
L 3525 4397 
L 1831 0 
L 1172 0 
L 2766 4134 
L 525 4134 
L 525 4666 
z
" transform="scale(0.015625)"/>
       </defs>
       <use xlink:href="#DejaVuSans-37"/>
      </g>
     </g>
    </g>
    <g id="xtick_9">
     <g id="line2d_9">
      <g>
       <use xlink:href="#mb02ac28434" x="960.000118" y="309.7975" style="stroke: #000000; stroke-width: 0.8"/>
      </g>
     </g>
     <g id="text_9">
      <!-- 8 -->
      <g transform="translate(956.500743 325.155781) scale(0.11 -0.11)">
       <defs>
        <path id="DejaVuSans-38" d="M 2034 2216 
Q 1584 2216 1326 1975 
Q 1069 1734 1069 1313 
Q 1069 891 1326 650 
Q 1584 409 2034 409 
Q 2484 409 2743 651 
Q 3003 894 3003 1313 
Q 3003 1734 2745 1975 
Q 2488 2216 2034 2216 
z
M 1403 2484 
Q 997 2584 770 2862 
Q 544 3141 544 3541 
Q 544 4100 942 4425 
Q 1341 4750 2034 4750 
Q 2731 4750 3128 4425 
Q 3525 4100 3525 3541 
Q 3525 3141 3298 2862 
Q 3072 2584 2669 2484 
Q 3125 2378 3379 2068 
Q 3634 1759 3634 1313 
Q 3634 634 3220 271 
Q 2806 -91 2034 -91 
Q 1263 -91 848 271 
Q 434 634 434 1313 
Q 434 1759 690 2068 
Q 947 2378 1403 2484 
z
M 1172 3481 
Q 1172 3119 1398 2916 
Q 1625 2713 2034 2713 
Q 2441 2713 2670 2916 
Q 2900 3119 2900 3481 
Q 2900 3844 2670 4047 
Q 2441 4250 2034 4250 
Q 1625 4250 1398 4047 
Q 1172 3844 1172 3481 
z
" transform="scale(0.015625)"/>
       </defs>
       <use xlink:href="#DejaVuSans-38"/>
      </g>
     </g>
    </g>
    <g id="text_10">
     <!-- Time (s) -->
     <g transform="translate(494.992687 342.08125) scale(0.14 -0.14)">
      <defs>
       <path id="DejaVuSans-Bold-54" d="M 31 4666 
L 4331 4666 
L 4331 3756 
L 2784 3756 
L 2784 0 
L 1581 0 
L 1581 3756 
L 31 3756 
L 31 4666 
z
" transform="scale(0.015625)"/>
       <path id="DejaVuSans-Bold-69" d="M 538 3500 
L 1656 3500 
L 1656 0 
L 538 0 
L 538 3500 
z
M 538 4863 
L 1656 4863 
L 1656 3950 
L 538 3950 
L 538 4863 
z
" transform="scale(0.015625)"/>
       <path id="DejaVuSans-Bold-6d" d="M 3781 2919 
Q 3994 3244 4286 3414 
Q 4578 3584 4928 3584 
Q 5531 3584 5847 3212 
Q 6163 2841 6163 2131 
L 6163 0 
L 5038 0 
L 5038 1825 
Q 5041 1866 5042 1909 
Q 5044 1953 5044 2034 
Q 5044 2406 4934 2573 
Q 4825 2741 4581 2741 
Q 4263 2741 4089 2478 
Q 3916 2216 3909 1719 
L 3909 0 
L 2784 0 
L 2784 1825 
Q 2784 2406 2684 2573 
Q 2584 2741 2328 2741 
Q 2006 2741 1831 2477 
Q 1656 2213 1656 1722 
L 1656 0 
L 531 0 
L 531 3500 
L 1656 3500 
L 1656 2988 
Q 1863 3284 2130 3434 
Q 2397 3584 2719 3584 
Q 3081 3584 3359 3409 
Q 3638 3234 3781 2919 
z
" transform="scale(0.015625)"/>
       <path id="DejaVuSans-Bold-65" d="M 4031 1759 
L 4031 1441 
L 1416 1441 
Q 1456 1047 1700 850 
Q 1944 653 2381 653 
Q 2734 653 3104 758 
Q 3475 863 3866 1075 
L 3866 213 
Q 3469 63 3072 -14 
Q 2675 -91 2278 -91 
Q 1328 -91 801 392 
Q 275 875 275 1747 
Q 275 2603 792 3093 
Q 1309 3584 2216 3584 
Q 3041 3584 3536 3087 
Q 4031 2591 4031 1759 
z
M 2881 2131 
Q 2881 2450 2695 2645 
Q 2509 2841 2209 2841 
Q 1884 2841 1681 2658 
Q 1478 2475 1428 2131 
L 2881 2131 
z
" transform="scale(0.015625)"/>
       <path id="DejaVuSans-Bold-20" transform="scale(0.015625)"/>
       <path id="DejaVuSans-Bold-28" d="M 2413 -844 
L 1484 -844 
Q 1006 -72 778 623 
Q 550 1319 550 2003 
Q 550 2688 779 3389 
Q 1009 4091 1484 4856 
L 2413 4856 
Q 2013 4116 1813 3408 
Q 1613 2700 1613 2009 
Q 1613 1319 1811 609 
Q 2009 -100 2413 -844 
z
" transform="scale(0.015625)"/>
       <path id="DejaVuSans-Bold-73" d="M 3272 3391 
L 3272 2541 
Q 2913 2691 2578 2766 
Q 2244 2841 1947 2841 
Q 1628 2841 1473 2761 
Q 1319 2681 1319 2516 
Q 1319 2381 1436 2309 
Q 1553 2238 1856 2203 
L 2053 2175 
Q 2913 2066 3209 1816 
Q 3506 1566 3506 1031 
Q 3506 472 3093 190 
Q 2681 -91 1863 -91 
Q 1516 -91 1145 -36 
Q 775 19 384 128 
L 384 978 
Q 719 816 1070 734 
Q 1422 653 1784 653 
Q 2113 653 2278 743 
Q 2444 834 2444 1013 
Q 2444 1163 2330 1236 
Q 2216 1309 1875 1350 
L 1678 1375 
Q 931 1469 631 1722 
Q 331 1975 331 2491 
Q 331 3047 712 3315 
Q 1094 3584 1881 3584 
Q 2191 3584 2531 3537 
Q 2872 3491 3272 3391 
z
" transform="scale(0.015625)"/>
       <path id="DejaVuSans-Bold-29" d="M 513 -844 
Q 913 -100 1113 609 
Q 1313 1319 1313 2009 
Q 1313 2700 1113 3408 
Q 913 4116 513 4856 
L 1441 4856 
Q 1916 4091 2145 3389 
Q 2375 2688 2375 2003 
Q 2375 1319 2147 623 
Q 1919 -72 1441 -844 
L 513 -844 
z
" transform="scale(0.015625)"/>
      </defs>
      <use xlink:href="#DejaVuSans-Bold-54"/>
      <use xlink:href="#DejaVuSans-Bold-69" transform="translate(68.212891 0)"/>
      <use xlink:href="#DejaVuSans-Bold-6d" transform="translate(102.490234 0)"/>
      <use xlink:href="#DejaVuSans-Bold-65" transform="translate(206.689453 0)"/>
      <use xlink:href="#DejaVuSans-Bold-20" transform="translate(274.511719 0)"/>
      <use xlink:href="#DejaVuSans-Bold-28" transform="translate(309.326172 0)"/>
      <use xlink:href="#DejaVuSans-Bold-73" transform="translate(355.029297 0)"/>
      <use xlink:href="#DejaVuSans-Bold-29" transform="translate(414.550781 0)"/>
     </g>
    </g>
   </g>
   <g id="matplotlib.axis_2">
    <g id="ytick_1">
     <g id="line2d_10">
      <defs>
       <path id="m44abf68ab4" d="M 0 0 
L -3.5 0 
" style="stroke: #000000; stroke-width: 0.8"/>
      </defs>
      <g>
       <use xlink:href="#m44abf68ab4" x="61.963281" y="270.333961" style="stroke: #000000; stroke-width: 0.8"/>
      </g>
     </g>
     <g id="text_11">
      <!-- −200 -->
      <g transform="translate(24.749375 274.513102) scale(0.11 -0.11)">
       <defs>
        <path id="DejaVuSans-2212" d="M 678 2272 
L 4684 2272 
L 4684 1741 
L 678 1741 
L 678 2272 
z
" transform="scale(0.015625)"/>
       </defs>
       <use xlink:href="#DejaVuSans-2212"/>
       <use xlink:href="#DejaVuSans-32" transform="translate(83.789062 0)"/>
       <use xlink:href="#DejaVuSans-30" transform="translate(147.412109 0)"/>
       <use xlink:href="#DejaVuSans-30" transform="translate(211.035156 0)"/>
      </g>
     </g>
    </g>
    <g id="ytick_2">
     <g id="line2d_11">
      <g>
       <use xlink:href="#m44abf68ab4" x="61.963281" y="221.205731" style="stroke: #000000; stroke-width: 0.8"/>
      </g>
     </g>
     <g id="text_12">
      <!-- −100 -->
      <g transform="translate(24.749375 225.384871) scale(0.11 -0.11)">
       <use xlink:href="#DejaVuSans-2212"/>
       <use xlink:href="#DejaVuSans-31" transform="translate(83.789062 0)"/>
       <use xlink:href="#DejaVuSans-30" transform="translate(147.412109 0)"/>
       <use xlink:href="#DejaVuSans-30" transform="translate(211.035156 0)"/>
      </g>
     </g>
    </g>
    <g id="ytick_3">
     <g id="line2d_12">
      <g>
       <use xlink:href="#m44abf68ab4" x="61.963281" y="172.0775" style="stroke: #000000; stroke-width: 0.8"/>
      </g>
     </g>
     <g id="text_13">
      <!-- 0 -->
      <g transform="translate(47.964531 176.256641) scale(0.11 -0.11)">
       <use xlink:href="#DejaVuSans-30"/>
      </g>
     </g>
    </g>
    <g id="ytick_4">
     <g id="line2d_13">
      <g>
       <use xlink:href="#m44abf68ab4" x="61.963281" y="122.949269" style="stroke: #000000; stroke-width: 0.8"/>
      </g>
     </g>
     <g id="text_14">
      <!-- 100 -->
      <g transform="translate(33.967031 127.12841) scale(0.11 -0.11)">
       <use xlink:href="#DejaVuSans-31"/>
       <use xlink:href="#DejaVuSans-30" transform="translate(63.623047 0)"/>
       <use xlink:href="#DejaVuSans-30" transform="translate(127.246094 0)"/>
      </g>
     </g>
    </g>
    <g id="ytick_5">
     <g id="line2d_14">
      <g>
       <use xlink:href="#m44abf68ab4" x="61.963281" y="73.821039" style="stroke: #000000; stroke-width: 0.8"/>
      </g>
     </g>
     <g id="text_15">
      <!-- 200 -->
      <g transform="translate(33.967031 78.000179) scale(0.11 -0.11)">
       <use xlink:href="#DejaVuSans-32"/>
       <use xlink:href="#DejaVuSans-30" transform="translate(63.623047 0)"/>
       <use xlink:href="#DejaVuSans-30" transform="translate(127.246094 0)"/>
      </g>
     </g>
    </g>
    <g id="text_16">
     <!-- V$_{oc}$ (V) -->
     <g transform="translate(17.837813 197.7675) rotate(-90) scale(0.14 -0.14)">
      <defs>
       <path id="DejaVuSans-Bold-56" d="M 31 4666 
L 1241 4666 
L 2478 1222 
L 3713 4666 
L 4922 4666 
L 3194 0 
L 1759 0 
L 31 4666 
z
" transform="scale(0.015625)"/>
       <path id="DejaVuSans-Oblique-6f" d="M 1625 -91 
Q 1009 -91 651 289 
Q 294 669 294 1325 
Q 294 1706 417 2101 
Q 541 2497 738 2766 
Q 1047 3184 1428 3384 
Q 1809 3584 2291 3584 
Q 2888 3584 3255 3212 
Q 3622 2841 3622 2241 
Q 3622 1825 3500 1412 
Q 3378 1000 3181 728 
Q 2875 309 2494 109 
Q 2113 -91 1625 -91 
z
M 891 1344 
Q 891 869 1089 633 
Q 1288 397 1691 397 
Q 2269 397 2648 901 
Q 3028 1406 3028 2181 
Q 3028 2634 2825 2865 
Q 2622 3097 2228 3097 
Q 1903 3097 1650 2945 
Q 1397 2794 1197 2484 
Q 1050 2253 970 1956 
Q 891 1659 891 1344 
z
" transform="scale(0.015625)"/>
       <path id="DejaVuSans-Oblique-63" d="M 3431 3366 
L 3316 2797 
Q 3109 2947 2876 3022 
Q 2644 3097 2394 3097 
Q 2119 3097 1870 3000 
Q 1622 2903 1453 2725 
Q 1184 2453 1037 2087 
Q 891 1722 891 1331 
Q 891 859 1127 628 
Q 1363 397 1844 397 
Q 2081 397 2348 469 
Q 2616 541 2906 684 
L 2797 116 
Q 2547 13 2283 -39 
Q 2019 -91 1741 -91 
Q 1044 -91 669 257 
Q 294 606 294 1253 
Q 294 1797 489 2255 
Q 684 2713 1069 3078 
Q 1331 3328 1684 3456 
Q 2038 3584 2456 3584 
Q 2700 3584 2940 3529 
Q 3181 3475 3431 3366 
z
" transform="scale(0.015625)"/>
      </defs>
      <use xlink:href="#DejaVuSans-Bold-56" transform="translate(0 0.125)"/>
      <use xlink:href="#DejaVuSans-Oblique-6f" transform="translate(78.349609 -16.28125) scale(0.7)"/>
      <use xlink:href="#DejaVuSans-Oblique-63" transform="translate(121.176758 -16.28125) scale(0.7)"/>
      <use xlink:href="#DejaVuSans-Bold-20" transform="translate(162.397461 0.125)"/>
      <use xlink:href="#DejaVuSans-Bold-28" transform="translate(197.211914 0.125)"/>
      <use xlink:href="#DejaVuSans-Bold-56" transform="translate(242.915039 0.125)"/>
      <use xlink:href="#DejaVuSans-Bold-29" transform="translate(320.307617 0.125)"/>
     </g>
    </g>
   </g>
   <g id="patch_4">
    <path d="M 61.963281 309.7975 
L 61.963281 34.3575 
" style="fill: none; stroke: #000000; stroke-width: 0.8; stroke-linejoin: miter; stroke-linecap: square"/>
   </g>
   <g id="patch_5">
    <path d="M 61.963281 309.7975 
L 992.459281 309.7975 
" style="fill: none; stroke: #000000; stroke-width: 0.8; stroke-linejoin: miter; stroke-linecap: square"/>
   </g>
   <g id="line2d_15">
    <path d="M 527.211281 79.862074 
L 528.185056 80.101675 
L 528.726042 80.500255 
L 529.050634 80.826504 
L 529.158831 80.79938 
L 531.322775 83.375464 
L 531.647367 83.913435 
L 532.080156 84.343661 
L 532.188353 84.31503 
L 532.512945 84.680459 
L 532.621142 84.753544 
L 532.837536 85.182263 
L 533.270325 85.666739 
L 533.486719 86.240876 
L 533.594917 86.119569 
L 534.2441 86.659047 
L 534.893283 87.459976 
L 535.109678 87.366547 
L 536.19165 89.653301 
L 536.732636 91.766759 
L 537.490016 96.710214 
L 537.922805 100.902468 
L 538.355594 107.287289 
L 538.680185 114.810584 
L 539.004777 127.215533 
L 539.329369 149.798932 
L 540.303144 225.875556 
L 540.952327 263.689326 
L 541.168721 270.262488 
L 541.276918 270.951901 
L 541.385116 269.744109 
L 541.60151 260.628786 
L 542.358891 207.143857 
L 543.765454 108.25924 
L 544.198243 94.987799 
L 544.631032 88.120007 
L 544.955624 85.243293 
L 545.49661 82.704883 
L 545.821201 81.507633 
L 546.037596 81.201728 
L 546.362187 80.744377 
L 546.686779 80.422649 
L 546.794976 80.463336 
L 546.903173 80.167225 
L 547.119568 80.164965 
L 547.335962 79.905021 
L 547.876948 79.872622 
L 548.093343 79.889952 
L 548.417934 79.78296 
L 548.742526 79.786728 
L 550.14909 80.369907 
L 551.555653 81.558115 
L 551.988442 81.882857 
L 552.529428 82.40802 
L 553.070414 82.8827 
L 553.286809 83.283542 
L 553.719598 83.791374 
L 553.827795 83.938299 
L 554.044189 84.428049 
L 554.476978 84.880879 
L 554.693372 85.054929 
L 554.80157 84.973555 
L 555.234358 85.322407 
L 555.342556 85.409055 
L 555.450753 85.24028 
L 555.883542 85.55372 
L 556.424528 85.601188 
L 556.749119 86.093952 
L 556.965514 86.469175 
L 557.290105 87.227157 
L 557.614697 88.119255 
L 558.155683 90.195039 
L 559.237655 96.466093 
L 559.670444 100.69602 
L 560.103233 107.052963 
L 560.427825 114.540845 
L 560.752416 126.939767 
L 561.077008 149.765026 
L 562.050783 225.744455 
L 562.699966 263.613981 
L 562.91636 270.029669 
L 563.024558 270.922516 
L 563.132755 269.600199 
L 563.349149 260.270141 
L 564.214727 198.7315 
L 565.404896 113.350366 
L 565.837685 97.983557 
L 566.378671 88.651197 
L 566.81146 84.780668 
L 567.460643 81.60935 
L 567.785235 80.809928 
L 568.650812 79.629254 
L 569.51639 79.726451 
L 569.732785 79.562196 
L 571.680334 79.840224 
L 573.627884 81.773605 
L 573.736081 81.730658 
L 574.601659 82.666457 
L 574.709856 82.598645 
L 575.359039 83.134356 
L 575.467237 83.055996 
L 576.657406 83.975972 
L 576.8738 83.956382 
L 577.090195 84.2977 
L 577.522984 84.829644 
L 577.631181 84.758065 
L 577.955772 85.006707 
L 578.172167 85.593653 
L 579.037745 87.355999 
L 580.011519 90.797055 
L 580.985294 96.494725 
L 581.52628 101.957312 
L 581.959069 109.218406 
L 582.283661 118.132586 
L 582.608252 133.638012 
L 584.555802 267.758749 
L 584.772197 270.665588 
L 584.880394 269.147371 
L 585.096788 259.288386 
L 585.854169 204.836768 
L 587.152535 111.623437 
L 587.585324 96.530886 
L 588.018113 88.844836 
L 588.450902 84.226121 
L 588.883691 81.791688 
L 589.424677 79.916323 
L 590.290254 78.917233 
L 590.506649 78.861477 
L 590.83124 78.947372 
L 591.480424 78.817776 
L 591.805015 78.85997 
L 592.02141 78.887848 
L 592.454198 79.108612 
L 593.644368 79.889199 
L 593.860762 80.371414 
L 594.077157 80.555258 
L 594.401748 80.791092 
L 594.942734 81.170083 
L 595.48372 81.614625 
L 595.700115 82.288973 
L 595.916509 82.483366 
L 596.024706 82.326646 
L 597.647665 84.053579 
L 597.755862 84.133446 
L 597.864059 83.70774 
L 598.405045 84.325578 
L 598.621439 84.699295 
L 599.162425 85.248568 
L 599.270623 85.213156 
L 599.703411 85.744346 
L 599.919806 86.24389 
L 601.001778 87.939177 
L 601.434567 89.192936 
L 601.975553 91.399824 
L 602.191947 92.297949 
L 602.732933 96.007236 
L 603.273919 101.478112 
L 603.706708 108.623927 
L 604.0313 117.725718 
L 604.355891 133.51143 
L 606.195244 264.030643 
L 606.411638 270.27153 
L 606.519836 270.701 
L 606.628033 269.136823 
L 606.844427 259.218315 
L 607.601808 205.215004 
L 609.008371 106.588066 
L 609.44116 94.154472 
L 609.982146 86.321496 
L 610.414935 83.014555 
L 610.847724 81.061584 
L 610.955921 80.903357 
L 611.496907 79.197521 
L 611.929696 78.263229 
L 612.146091 78.200691 
L 612.362485 78.190143 
L 612.578879 78.137401 
L 612.687077 78.244392 
L 612.795274 78.163772 
L 612.903471 78.293367 
L 613.228063 78.136647 
L 613.444457 78.371727 
L 613.552654 78.377002 
L 613.877246 78.581943 
L 614.959218 79.13423 
L 615.824796 80.174007 
L 616.365782 80.694648 
L 616.473979 80.617796 
L 617.123162 81.253717 
L 617.339557 81.512154 
L 617.555951 81.977793 
L 617.98874 82.309316 
L 618.421529 82.522545 
L 619.070712 83.103464 
L 619.287106 83.285802 
L 619.395304 83.245115 
L 619.611698 83.430467 
L 619.719895 83.328749 
L 619.93629 83.504306 
L 620.801867 84.664636 
L 620.910065 84.626962 
L 621.126459 84.94417 
L 621.342853 85.483648 
L 621.451051 85.464812 
L 621.775642 86.220533 
L 622.64122 87.442647 
L 623.939586 92.466724 
L 624.480572 96.183546 
L 624.913361 100.540053 
L 625.34615 106.906791 
L 625.670742 114.714894 
L 625.995333 127.848438 
L 626.319925 151.592913 
L 627.2937 227.188079 
L 627.942883 264.531692 
L 628.159278 270.599283 
L 628.267475 270.888611 
L 628.375672 269.010242 
L 628.700264 252.159929 
L 629.674038 179.79258 
L 630.647813 111.007859 
L 631.080602 96.064494 
L 631.513391 87.976095 
L 631.94618 83.543485 
L 632.378969 80.932742 
L 633.028152 78.84264 
L 633.677335 77.900814 
L 633.89373 77.948282 
L 634.218321 77.908348 
L 634.759307 77.926431 
L 634.867505 77.93472 
L 635.083899 78.046232 
L 635.624885 78.138154 
L 635.841279 78.42899 
L 635.949477 78.461389 
L 636.165871 78.366453 
L 636.706857 78.658043 
L 636.923251 78.965455 
L 637.464238 79.468013 
L 637.897026 79.968312 
L 638.005224 79.850772 
L 639.628182 81.519689 
L 640.493759 82.157117 
L 641.575731 83.121547 
L 642.00852 84.208038 
L 642.333112 84.526752 
L 642.657704 84.952458 
L 642.874098 85.014995 
L 643.090492 85.238773 
L 643.306887 85.672767 
L 643.523281 85.907846 
L 643.739676 86.512122 
L 643.847873 86.735147 
L 644.064267 86.720078 
L 644.388859 87.218116 
L 644.929845 88.724284 
L 646.120014 94.755737 
L 646.661 99.996055 
L 646.985592 104.525858 
L 647.310184 111.296448 
L 647.634775 122.578746 
L 647.959367 142.78047 
L 649.149536 234.923075 
L 649.690522 264.778073 
L 649.906917 269.959599 
L 650.015114 270.163032 
L 650.123311 268.133219 
L 650.447903 250.820282 
L 651.421678 178.341421 
L 652.287255 115.952058 
L 652.720044 98.746811 
L 653.152833 89.550074 
L 653.585622 84.529012 
L 654.018411 81.55058 
L 654.234805 80.896576 
L 654.451199 80.07681 
L 654.992185 78.780103 
L 655.100383 79.000867 
L 655.857763 78.301655 
L 655.96596 78.422209 
L 656.182355 78.321999 
L 656.398749 78.29186 
L 656.615144 77.861634 
L 657.264327 77.654432 
L 657.480721 77.328937 
L 658.887285 78.086165 
L 659.103679 78.353644 
L 659.428271 78.817023 
L 659.752863 79.231427 
L 659.969257 79.583293 
L 660.293849 79.857553 
L 660.943032 80.496488 
L 661.159426 80.913906 
L 661.267624 81.032199 
L 661.375821 80.970416 
L 661.80861 81.390093 
L 664.729934 84.064127 
L 664.946329 84.431063 
L 665.162723 84.898962 
L 665.811906 85.885996 
L 666.136498 86.661307 
L 666.785681 88.729558 
L 667.543062 92.029716 
L 668.192245 97.017626 
L 668.625034 102.284314 
L 669.057823 110.824028 
L 669.382414 121.978239 
L 669.707006 142.358533 
L 670.897175 234.461205 
L 671.438161 264.252914 
L 671.654556 269.715479 
L 671.762753 269.798359 
L 671.87095 267.683405 
L 672.195542 250.085661 
L 673.169317 177.428228 
L 674.034894 114.912284 
L 674.467683 97.431269 
L 675.008669 86.97776 
L 675.441458 82.837492 
L 675.874247 80.410593 
L 676.198838 79.257798 
L 676.52343 78.658043 
L 676.739825 78.609068 
L 676.956219 78.053013 
L 677.389008 77.705667 
L 677.605402 77.729024 
L 677.713599 77.533878 
L 677.929994 77.558742 
L 678.254585 77.502233 
L 678.47098 77.208383 
L 678.795571 77.048649 
L 679.120163 77.050909 
L 679.336558 77.189546 
L 679.552952 77.463053 
L 680.310332 77.771972 
L 680.41853 77.717723 
L 680.851318 78.277544 
L 681.608699 79.009156 
L 681.716896 78.89915 
L 683.231657 80.219968 
L 683.448051 80.665263 
L 685.503798 82.653648 
L 685.720193 82.553438 
L 686.152982 82.970102 
L 686.261179 83.049968 
L 686.369376 82.958046 
L 686.802165 83.557801 
L 687.451348 84.462708 
L 688.100531 85.815171 
L 689.182504 90.369842 
L 690.048081 97.609092 
L 690.48087 103.610403 
L 690.805462 110.524151 
L 691.130053 121.850904 
L 691.454645 142.442166 
L 692.536617 227.473639 
L 693.1858 264.283805 
L 693.402195 269.499237 
L 693.510392 269.476633 
L 693.618589 267.227564 
L 693.943181 249.420359 
L 694.916956 176.414074 
L 695.782533 114.164099 
L 696.215322 97.43579 
L 696.648111 88.280493 
L 696.972703 84.779914 
L 697.513689 81.123368 
L 698.054675 78.860724 
L 698.271069 78.538996 
L 698.379266 78.42673 
L 698.595661 77.833756 
L 699.02845 77.450244 
L 699.244844 77.087829 
L 699.353041 77.084815 
L 699.569436 76.911519 
L 699.677633 76.906245 
L 699.78583 76.723907 
L 699.894027 76.790212 
L 700.110422 77.020017 
L 700.975999 77.015497 
L 701.192394 77.074266 
L 701.408788 77.31236 
L 701.949774 77.609978 
L 702.166169 77.925678 
L 702.382563 77.781013 
L 703.248141 78.672358 
L 703.572732 78.906685 
L 703.897324 78.899904 
L 704.221916 79.227659 
L 704.43831 79.639049 
L 705.953071 81.081174 
L 706.169465 81.38934 
L 706.277663 81.492564 
L 706.710451 81.222071 
L 707.684226 82.013206 
L 707.792424 81.980054 
L 707.900621 82.0991 
L 708.225212 81.930325 
L 708.549804 82.357537 
L 708.982593 83.410123 
L 709.307185 83.949601 
L 709.848171 85.329188 
L 711.03834 90.840755 
L 711.579326 94.939581 
L 712.012115 99.729329 
L 712.444904 107.389758 
L 712.769495 117.074727 
L 713.094087 134.120222 
L 714.717045 254.488106 
L 715.041637 267.858207 
L 715.149834 269.659723 
L 715.258031 269.455536 
L 715.474425 262.430302 
L 716.015411 226.280928 
L 717.63837 108.635214 
L 718.071158 93.898294 
L 718.503947 86.25293 
L 718.936736 82.374113 
L 719.477722 79.485343 
L 719.910511 78.358918 
L 720.3433 77.695872 
L 721.208878 76.959741 
L 721.425272 77.116461 
L 721.641666 76.85953 
L 722.074455 76.829392 
L 723.372822 76.925081 
L 723.481019 76.962001 
L 723.589216 76.773635 
L 723.913808 76.998167 
L 724.454794 77.539153 
L 725.212174 78.309944 
L 725.428569 78.508104 
L 725.644963 78.821544 
L 726.402344 79.602883 
L 727.592513 80.764721 
L 727.917105 80.923701 
L 728.458091 81.231113 
L 728.782682 81.659079 
L 728.890879 81.650037 
L 729.540063 82.43213 
L 729.972851 82.759886 
L 730.622035 84.467229 
L 731.59581 86.376499 
L 732.028598 87.91582 
L 732.894176 92.009373 
L 733.435162 96.636375 
L 733.976148 103.906513 
L 734.408937 114.207815 
L 734.733529 128.329142 
L 735.05812 152.943107 
L 736.140092 235.644133 
L 736.681078 264.939313 
L 736.897473 269.74185 
L 737.00567 269.629585 
L 737.222065 262.184676 
L 737.871248 217.257519 
L 739.386009 107.744625 
L 739.818798 93.581088 
L 740.251586 86.239368 
L 740.684375 82.132252 
L 741.117164 79.6609 
L 741.225361 79.509454 
L 741.441756 78.966208 
L 741.982742 77.959584 
L 742.090939 77.87821 
L 742.199136 77.609224 
L 742.415531 77.727518 
L 742.848319 77.529357 
L 743.389305 77.625801 
L 743.497503 77.347773 
L 743.497503 77.347773 
" clip-path="url(#pf37976efee)" style="fill: none; stroke: #d94452; stroke-width: 0.8; stroke-linecap: square"/>
   </g>
   <g id="text_17">
    <g id="patch_6">
     <path d="M 597.383491 297.8611 
L 673.433491 297.8611 
Q 675.233491 297.8611 675.233491 296.0611 
L 675.233491 286.5211 
Q 675.233491 284.7211 673.433491 284.7211 
L 597.383491 284.7211 
Q 595.583491 284.7211 595.583491 286.5211 
L 595.583491 296.0611 
Q 595.583491 297.8611 597.383491 297.8611 
z
" style="fill: #ffffff; opacity: 0.85; stroke: #d94452; stroke-linejoin: miter"/>
    </g>
    <!-- V$_{p-p}$ = 395.35 V -->
    <g style="fill: #d94452" transform="translate(597.383491 293.2711) scale(0.09 -0.09)">
     <defs>
      <path id="DejaVuSans-56" d="M 1831 0 
L 50 4666 
L 709 4666 
L 2188 738 
L 3669 4666 
L 4325 4666 
L 2547 0 
L 1831 0 
z
" transform="scale(0.015625)"/>
      <path id="DejaVuSans-Oblique-70" d="M 3175 2156 
Q 3175 2616 2975 2859 
Q 2775 3103 2400 3103 
Q 2144 3103 1911 2972 
Q 1678 2841 1497 2591 
Q 1319 2344 1212 1994 
Q 1106 1644 1106 1300 
Q 1106 863 1306 627 
Q 1506 391 1875 391 
Q 2147 391 2380 519 
Q 2613 647 2778 891 
Q 2956 1147 3065 1494 
Q 3175 1841 3175 2156 
z
M 1394 2969 
Q 1625 3272 1939 3428 
Q 2253 3584 2638 3584 
Q 3175 3584 3472 3232 
Q 3769 2881 3769 2247 
Q 3769 1728 3584 1258 
Q 3400 788 3053 416 
Q 2822 169 2531 39 
Q 2241 -91 1919 -91 
Q 1547 -91 1294 64 
Q 1041 219 916 525 
L 556 -1331 
L -19 -1331 
L 922 3500 
L 1497 3500 
L 1394 2969 
z
" transform="scale(0.015625)"/>
      <path id="DejaVuSans-20" transform="scale(0.015625)"/>
      <path id="DejaVuSans-3d" d="M 678 2906 
L 4684 2906 
L 4684 2381 
L 678 2381 
L 678 2906 
z
M 678 1631 
L 4684 1631 
L 4684 1100 
L 678 1100 
L 678 1631 
z
" transform="scale(0.015625)"/>
      <path id="DejaVuSans-39" d="M 703 97 
L 703 672 
Q 941 559 1184 500 
Q 1428 441 1663 441 
Q 2288 441 2617 861 
Q 2947 1281 2994 2138 
Q 2813 1869 2534 1725 
Q 2256 1581 1919 1581 
Q 1219 1581 811 2004 
Q 403 2428 403 3163 
Q 403 3881 828 4315 
Q 1253 4750 1959 4750 
Q 2769 4750 3195 4129 
Q 3622 3509 3622 2328 
Q 3622 1225 3098 567 
Q 2575 -91 1691 -91 
Q 1453 -91 1209 -44 
Q 966 3 703 97 
z
M 1959 2075 
Q 2384 2075 2632 2365 
Q 2881 2656 2881 3163 
Q 2881 3666 2632 3958 
Q 2384 4250 1959 4250 
Q 1534 4250 1286 3958 
Q 1038 3666 1038 3163 
Q 1038 2656 1286 2365 
Q 1534 2075 1959 2075 
z
" transform="scale(0.015625)"/>
      <path id="DejaVuSans-2e" d="M 684 794 
L 1344 794 
L 1344 0 
L 684 0 
L 684 794 
z
" transform="scale(0.015625)"/>
     </defs>
     <use xlink:href="#DejaVuSans-56" transform="translate(0 0.78125)"/>
     <use xlink:href="#DejaVuSans-Oblique-70" transform="translate(69.365234 -15.625) scale(0.7)"/>
     <use xlink:href="#DejaVuSans-2212" transform="translate(127.436523 -15.625) scale(0.7)"/>
     <use xlink:href="#DejaVuSans-Oblique-70" transform="translate(199.726562 -15.625) scale(0.7)"/>
     <use xlink:href="#DejaVuSans-20" transform="translate(246.894531 0.78125)"/>
     <use xlink:href="#DejaVuSans-3d" transform="translate(278.681641 0.78125)"/>
     <use xlink:href="#DejaVuSans-20" transform="translate(362.470703 0.78125)"/>
     <use xlink:href="#DejaVuSans-33" transform="translate(394.257812 0.78125)"/>
     <use xlink:href="#DejaVuSans-39" transform="translate(457.880859 0.78125)"/>
     <use xlink:href="#DejaVuSans-35" transform="translate(521.503906 0.78125)"/>
     <use xlink:href="#DejaVuSans-2e" transform="translate(585.126953 0.78125)"/>
     <use xlink:href="#DejaVuSans-33" transform="translate(616.914062 0.78125)"/>
     <use xlink:href="#DejaVuSans-35" transform="translate(680.537109 0.78125)"/>
     <use xlink:href="#DejaVuSans-20" transform="translate(744.160156 0.78125)"/>
     <use xlink:href="#DejaVuSans-56" transform="translate(775.947266 0.78125)"/>
    </g>
   </g>
   <g id="text_18">
    <!-- Open-Circuit Voltage — With MIC -->
    <g transform="translate(379.281281 19.3575) scale(0.16 -0.16)">
     <defs>
      <path id="DejaVuSans-Bold-4f" d="M 2719 3878 
Q 2169 3878 1866 3472 
Q 1563 3066 1563 2328 
Q 1563 1594 1866 1187 
Q 2169 781 2719 781 
Q 3272 781 3575 1187 
Q 3878 1594 3878 2328 
Q 3878 3066 3575 3472 
Q 3272 3878 2719 3878 
z
M 2719 4750 
Q 3844 4750 4481 4106 
Q 5119 3463 5119 2328 
Q 5119 1197 4481 553 
Q 3844 -91 2719 -91 
Q 1597 -91 958 553 
Q 319 1197 319 2328 
Q 319 3463 958 4106 
Q 1597 4750 2719 4750 
z
" transform="scale(0.015625)"/>
      <path id="DejaVuSans-Bold-70" d="M 1656 506 
L 1656 -1331 
L 538 -1331 
L 538 3500 
L 1656 3500 
L 1656 2988 
Q 1888 3294 2169 3439 
Q 2450 3584 2816 3584 
Q 3463 3584 3878 3070 
Q 4294 2556 4294 1747 
Q 4294 938 3878 423 
Q 3463 -91 2816 -91 
Q 2450 -91 2169 54 
Q 1888 200 1656 506 
z
M 2400 2772 
Q 2041 2772 1848 2508 
Q 1656 2244 1656 1747 
Q 1656 1250 1848 986 
Q 2041 722 2400 722 
Q 2759 722 2948 984 
Q 3138 1247 3138 1747 
Q 3138 2247 2948 2509 
Q 2759 2772 2400 2772 
z
" transform="scale(0.015625)"/>
      <path id="DejaVuSans-Bold-6e" d="M 4056 2131 
L 4056 0 
L 2931 0 
L 2931 347 
L 2931 1631 
Q 2931 2084 2911 2256 
Q 2891 2428 2841 2509 
Q 2775 2619 2662 2680 
Q 2550 2741 2406 2741 
Q 2056 2741 1856 2470 
Q 1656 2200 1656 1722 
L 1656 0 
L 538 0 
L 538 3500 
L 1656 3500 
L 1656 2988 
Q 1909 3294 2193 3439 
Q 2478 3584 2822 3584 
Q 3428 3584 3742 3212 
Q 4056 2841 4056 2131 
z
" transform="scale(0.015625)"/>
      <path id="DejaVuSans-Bold-2d" d="M 347 2297 
L 2309 2297 
L 2309 1388 
L 347 1388 
L 347 2297 
z
" transform="scale(0.015625)"/>
      <path id="DejaVuSans-Bold-43" d="M 4288 256 
Q 3956 84 3597 -3 
Q 3238 -91 2847 -91 
Q 1681 -91 1000 561 
Q 319 1213 319 2328 
Q 319 3447 1000 4098 
Q 1681 4750 2847 4750 
Q 3238 4750 3597 4662 
Q 3956 4575 4288 4403 
L 4288 3438 
Q 3953 3666 3628 3772 
Q 3303 3878 2944 3878 
Q 2300 3878 1931 3465 
Q 1563 3053 1563 2328 
Q 1563 1606 1931 1193 
Q 2300 781 2944 781 
Q 3303 781 3628 887 
Q 3953 994 4288 1222 
L 4288 256 
z
" transform="scale(0.015625)"/>
      <path id="DejaVuSans-Bold-72" d="M 3138 2547 
Q 2991 2616 2845 2648 
Q 2700 2681 2553 2681 
Q 2122 2681 1889 2404 
Q 1656 2128 1656 1613 
L 1656 0 
L 538 0 
L 538 3500 
L 1656 3500 
L 1656 2925 
Q 1872 3269 2151 3426 
Q 2431 3584 2822 3584 
Q 2878 3584 2943 3579 
Q 3009 3575 3134 3559 
L 3138 2547 
z
" transform="scale(0.015625)"/>
      <path id="DejaVuSans-Bold-63" d="M 3366 3391 
L 3366 2478 
Q 3138 2634 2908 2709 
Q 2678 2784 2431 2784 
Q 1963 2784 1702 2511 
Q 1441 2238 1441 1747 
Q 1441 1256 1702 982 
Q 1963 709 2431 709 
Q 2694 709 2930 787 
Q 3166 866 3366 1019 
L 3366 103 
Q 3103 6 2833 -42 
Q 2563 -91 2291 -91 
Q 1344 -91 809 395 
Q 275 881 275 1747 
Q 275 2613 809 3098 
Q 1344 3584 2291 3584 
Q 2566 3584 2833 3536 
Q 3100 3488 3366 3391 
z
" transform="scale(0.015625)"/>
      <path id="DejaVuSans-Bold-75" d="M 500 1363 
L 500 3500 
L 1625 3500 
L 1625 3150 
Q 1625 2866 1622 2436 
Q 1619 2006 1619 1863 
Q 1619 1441 1641 1255 
Q 1663 1069 1716 984 
Q 1784 875 1895 815 
Q 2006 756 2150 756 
Q 2500 756 2700 1025 
Q 2900 1294 2900 1772 
L 2900 3500 
L 4019 3500 
L 4019 0 
L 2900 0 
L 2900 506 
Q 2647 200 2364 54 
Q 2081 -91 1741 -91 
Q 1134 -91 817 281 
Q 500 653 500 1363 
z
" transform="scale(0.015625)"/>
      <path id="DejaVuSans-Bold-74" d="M 1759 4494 
L 1759 3500 
L 2913 3500 
L 2913 2700 
L 1759 2700 
L 1759 1216 
Q 1759 972 1856 886 
Q 1953 800 2241 800 
L 2816 800 
L 2816 0 
L 1856 0 
Q 1194 0 917 276 
Q 641 553 641 1216 
L 641 2700 
L 84 2700 
L 84 3500 
L 641 3500 
L 641 4494 
L 1759 4494 
z
" transform="scale(0.015625)"/>
      <path id="DejaVuSans-Bold-6f" d="M 2203 2784 
Q 1831 2784 1636 2517 
Q 1441 2250 1441 1747 
Q 1441 1244 1636 976 
Q 1831 709 2203 709 
Q 2569 709 2762 976 
Q 2956 1244 2956 1747 
Q 2956 2250 2762 2517 
Q 2569 2784 2203 2784 
z
M 2203 3584 
Q 3106 3584 3614 3096 
Q 4122 2609 4122 1747 
Q 4122 884 3614 396 
Q 3106 -91 2203 -91 
Q 1297 -91 786 396 
Q 275 884 275 1747 
Q 275 2609 786 3096 
Q 1297 3584 2203 3584 
z
" transform="scale(0.015625)"/>
      <path id="DejaVuSans-Bold-6c" d="M 538 4863 
L 1656 4863 
L 1656 0 
L 538 0 
L 538 4863 
z
" transform="scale(0.015625)"/>
      <path id="DejaVuSans-Bold-61" d="M 2106 1575 
Q 1756 1575 1579 1456 
Q 1403 1338 1403 1106 
Q 1403 894 1545 773 
Q 1688 653 1941 653 
Q 2256 653 2472 879 
Q 2688 1106 2688 1447 
L 2688 1575 
L 2106 1575 
z
M 3816 1997 
L 3816 0 
L 2688 0 
L 2688 519 
Q 2463 200 2181 54 
Q 1900 -91 1497 -91 
Q 953 -91 614 226 
Q 275 544 275 1050 
Q 275 1666 698 1953 
Q 1122 2241 2028 2241 
L 2688 2241 
L 2688 2328 
Q 2688 2594 2478 2717 
Q 2269 2841 1825 2841 
Q 1466 2841 1156 2769 
Q 847 2697 581 2553 
L 581 3406 
Q 941 3494 1303 3539 
Q 1666 3584 2028 3584 
Q 2975 3584 3395 3211 
Q 3816 2838 3816 1997 
z
" transform="scale(0.015625)"/>
      <path id="DejaVuSans-Bold-67" d="M 2919 594 
Q 2688 288 2409 144 
Q 2131 0 1766 0 
Q 1125 0 706 504 
Q 288 1009 288 1791 
Q 288 2575 706 3076 
Q 1125 3578 1766 3578 
Q 2131 3578 2409 3434 
Q 2688 3291 2919 2981 
L 2919 3500 
L 4044 3500 
L 4044 353 
Q 4044 -491 3511 -936 
Q 2978 -1381 1966 -1381 
Q 1638 -1381 1331 -1331 
Q 1025 -1281 716 -1178 
L 716 -306 
Q 1009 -475 1290 -558 
Q 1572 -641 1856 -641 
Q 2406 -641 2662 -400 
Q 2919 -159 2919 353 
L 2919 594 
z
M 2181 2772 
Q 1834 2772 1640 2515 
Q 1447 2259 1447 1791 
Q 1447 1309 1634 1061 
Q 1822 813 2181 813 
Q 2531 813 2725 1069 
Q 2919 1325 2919 1791 
Q 2919 2259 2725 2515 
Q 2531 2772 2181 2772 
z
" transform="scale(0.015625)"/>
      <path id="DejaVuSans-Bold-2014" d="M 344 2156 
L 6056 2156 
L 6056 1350 
L 344 1350 
L 344 2156 
z
" transform="scale(0.015625)"/>
      <path id="DejaVuSans-Bold-57" d="M 191 4666 
L 1344 4666 
L 2150 1275 
L 2950 4666 
L 4109 4666 
L 4909 1275 
L 5716 4666 
L 6859 4666 
L 5759 0 
L 4372 0 
L 3525 3547 
L 2688 0 
L 1300 0 
L 191 4666 
z
" transform="scale(0.015625)"/>
      <path id="DejaVuSans-Bold-68" d="M 4056 2131 
L 4056 0 
L 2931 0 
L 2931 347 
L 2931 1625 
Q 2931 2084 2911 2256 
Q 2891 2428 2841 2509 
Q 2775 2619 2662 2680 
Q 2550 2741 2406 2741 
Q 2056 2741 1856 2470 
Q 1656 2200 1656 1722 
L 1656 0 
L 538 0 
L 538 4863 
L 1656 4863 
L 1656 2988 
Q 1909 3294 2193 3439 
Q 2478 3584 2822 3584 
Q 3428 3584 3742 3212 
Q 4056 2841 4056 2131 
z
" transform="scale(0.015625)"/>
      <path id="DejaVuSans-Bold-4d" d="M 588 4666 
L 2119 4666 
L 3181 2169 
L 4250 4666 
L 5778 4666 
L 5778 0 
L 4641 0 
L 4641 3413 
L 3566 897 
L 2803 897 
L 1728 3413 
L 1728 0 
L 588 0 
L 588 4666 
z
" transform="scale(0.015625)"/>
      <path id="DejaVuSans-Bold-49" d="M 588 4666 
L 1791 4666 
L 1791 0 
L 588 0 
L 588 4666 
z
" transform="scale(0.015625)"/>
     </defs>
     <use xlink:href="#DejaVuSans-Bold-4f"/>
     <use xlink:href="#DejaVuSans-Bold-70" transform="translate(85.009766 0)"/>
     <use xlink:href="#DejaVuSans-Bold-65" transform="translate(156.591797 0)"/>
     <use xlink:href="#DejaVuSans-Bold-6e" transform="translate(224.414062 0)"/>
     <use xlink:href="#DejaVuSans-Bold-2d" transform="translate(295.605469 0)"/>
     <use xlink:href="#DejaVuSans-Bold-43" transform="translate(337.109375 0)"/>
     <use xlink:href="#DejaVuSans-Bold-69" transform="translate(410.498047 0)"/>
     <use xlink:href="#DejaVuSans-Bold-72" transform="translate(444.775391 0)"/>
     <use xlink:href="#DejaVuSans-Bold-63" transform="translate(494.091797 0)"/>
     <use xlink:href="#DejaVuSans-Bold-75" transform="translate(553.369141 0)"/>
     <use xlink:href="#DejaVuSans-Bold-69" transform="translate(624.560547 0)"/>
     <use xlink:href="#DejaVuSans-Bold-74" transform="translate(658.837891 0)"/>
     <use xlink:href="#DejaVuSans-Bold-20" transform="translate(706.640625 0)"/>
     <use xlink:href="#DejaVuSans-Bold-56" transform="translate(741.455078 0)"/>
     <use xlink:href="#DejaVuSans-Bold-6f" transform="translate(813.347656 0)"/>
     <use xlink:href="#DejaVuSans-Bold-6c" transform="translate(882.048828 0)"/>
     <use xlink:href="#DejaVuSans-Bold-74" transform="translate(916.326172 0)"/>
     <use xlink:href="#DejaVuSans-Bold-61" transform="translate(964.128906 0)"/>
     <use xlink:href="#DejaVuSans-Bold-67" transform="translate(1031.609375 0)"/>
     <use xlink:href="#DejaVuSans-Bold-65" transform="translate(1103.191406 0)"/>
     <use xlink:href="#DejaVuSans-Bold-20" transform="translate(1171.013672 0)"/>
     <use xlink:href="#DejaVuSans-Bold-2014" transform="translate(1205.828125 0)"/>
     <use xlink:href="#DejaVuSans-Bold-20" transform="translate(1305.828125 0)"/>
     <use xlink:href="#DejaVuSans-Bold-57" transform="translate(1340.642578 0)"/>
     <use xlink:href="#DejaVuSans-Bold-69" transform="translate(1450.945312 0)"/>
     <use xlink:href="#DejaVuSans-Bold-74" transform="translate(1485.222656 0)"/>
     <use xlink:href="#DejaVuSans-Bold-68" transform="translate(1533.025391 0)"/>
     <use xlink:href="#DejaVuSans-Bold-20" transform="translate(1604.216797 0)"/>
     <use xlink:href="#DejaVuSans-Bold-4d" transform="translate(1639.03125 0)"/>
     <use xlink:href="#DejaVuSans-Bold-49" transform="translate(1738.542969 0)"/>
     <use xlink:href="#DejaVuSans-Bold-43" transform="translate(1775.75 0)"/>
    </g>
   </g>
   <g id="text_19">
    <!-- 5 Hz -->
    <g style="fill: #f0ad4e" transform="translate(619.400209 58.007469) scale(0.13 -0.13)">
     <defs>
      <path id="DejaVuSans-Bold-35" d="M 678 4666 
L 3669 4666 
L 3669 3781 
L 1638 3781 
L 1638 3059 
Q 1775 3097 1914 3117 
Q 2053 3138 2203 3138 
Q 3056 3138 3531 2711 
Q 4006 2284 4006 1522 
Q 4006 766 3489 337 
Q 2972 -91 2053 -91 
Q 1656 -91 1267 -14 
Q 878 63 494 219 
L 494 1166 
Q 875 947 1217 837 
Q 1559 728 1863 728 
Q 2300 728 2551 942 
Q 2803 1156 2803 1522 
Q 2803 1891 2551 2103 
Q 2300 2316 1863 2316 
Q 1603 2316 1309 2248 
Q 1016 2181 678 2041 
L 678 4666 
z
" transform="scale(0.015625)"/>
      <path id="DejaVuSans-Bold-48" d="M 588 4666 
L 1791 4666 
L 1791 2888 
L 3566 2888 
L 3566 4666 
L 4769 4666 
L 4769 0 
L 3566 0 
L 3566 1978 
L 1791 1978 
L 1791 0 
L 588 0 
L 588 4666 
z
" transform="scale(0.015625)"/>
      <path id="DejaVuSans-Bold-7a" d="M 366 3500 
L 3419 3500 
L 3419 2719 
L 1575 800 
L 3419 800 
L 3419 0 
L 288 0 
L 288 781 
L 2131 2700 
L 366 2700 
L 366 3500 
z
" transform="scale(0.015625)"/>
     </defs>
     <use xlink:href="#DejaVuSans-Bold-35"/>
     <use xlink:href="#DejaVuSans-Bold-20" transform="translate(69.580078 0)"/>
     <use xlink:href="#DejaVuSans-Bold-48" transform="translate(104.394531 0)"/>
     <use xlink:href="#DejaVuSans-Bold-7a" transform="translate(188.085938 0)"/>
    </g>
   </g>
  </g>
 </g>
 <defs>
  <clipPath id="pf37976efee">
   <rect x="61.963281" y="34.3575" width="930.496" height="275.44"/>
  </clipPath>
 </defs>
</svg>
