<?xml version="1.0" encoding="utf-8" standalone="no"?>
<!DOCTYPE svg PUBLIC "-//W3C//DTD SVG 1.1//EN"
  "http://www.w3.org/Graphics/SVG/1.1/DTD/svg11.dtd">
<svg xmlns:xlink="http://www.w3.org/1999/xlink" width="711.676pt" height="352.515313pt" viewBox="0 0 711.676 352.515313" xmlns="http://www.w3.org/2000/svg" version="1.1">
 <metadata>
  <rdf:RDF xmlns:dc="http://purl.org/dc/elements/1.1/" xmlns:cc="http://creativecommons.org/ns#" xmlns:rdf="http://www.w3.org/1999/02/22-rdf-syntax-ns#">
   <cc:Work>
    <dc:type rdf:resource="http://purl.org/dc/dcmitype/StillImage"/>
    <dc:date>2026-04-26T15:27:29.887403</dc:date>
    <dc:format>image/svg+xml</dc:format>
    <dc:creator>
     <cc:Agent>
      <dc:title>Matplotlib v3.10.8, https://matplotlib.org/</dc:title>
     </cc:Agent>
    </dc:creator>
   </cc:Work>
  </rdf:RDF>
 </metadata>
 <defs>
  <style type="text/css">*{stroke-linejoin: round; stroke-linecap: butt}</style>
 </defs>
 <g id="figure_1">
  <g id="patch_1">
   <path d="M 0 352.515313 
L 711.676 352.515313 
L 711.676 0 
L 0 0 
z
" style="fill: #ffffff"/>
  </g>
  <g id="axes_1">
   <g id="patch_2">
    <path d="M 61.963281 310.12 
L 695.729281 310.12 
L 695.729281 7.2 
L 61.963281 7.2 
z
" style="fill: #ffffff"/>
   </g>
   <g id="patch_3">
    <path d="M 61.963281 310.12 
L 378.846281 310.12 
L 378.846281 7.2 
L 61.963281 7.2 
z
" clip-path="url(#p25d8f4ac8f)" style="fill: #cccccc; opacity: 0.12; stroke: #cccccc; stroke-linejoin: miter"/>
   </g>
   <g id="patch_4">
    <path d="M 378.846281 310.12 
L 695.729281 310.12 
L 695.729281 7.2 
L 378.846281 7.2 
z
" clip-path="url(#p25d8f4ac8f)" style="fill: #d94452; opacity: 0.06; stroke: #d94452; stroke-linejoin: miter"/>
   </g>
   <g id="line2d_1">
    <path d="M 378.846281 310.12 
L 378.846281 7.2 
" clip-path="url(#p25d8f4ac8f)" style="fill: none; stroke-dasharray: 3.7,1.6; stroke-dashoffset: 0; stroke: #999999"/>
   </g>
   <g id="matplotlib.axis_1">
    <g id="xtick_1">
     <g id="line2d_2">
      <defs>
       <path id="m16241b0110" d="M 0 0 
L 0 3.5 
" style="stroke: #000000; stroke-width: 0.8"/>
      </defs>
      <g>
       <use xlink:href="#m16241b0110" x="61.963281" y="310.12" style="stroke: #000000; stroke-width: 0.8"/>
      </g>
     </g>
     <g id="text_1">
      <!-- 0.0 -->
      <g transform="translate(53.216563 325.478281) scale(0.11 -0.11)">
       <defs>
        <path id="DejaVuSans-30" d="M 2034 4250 
Q 1547 4250 1301 3770 
Q 1056 3291 1056 2328 
Q 1056 1369 1301 889 
Q 1547 409 2034 409 
Q 2525 409 2770 889 
Q 3016 1369 3016 2328 
Q 3016 3291 2770 3770 
Q 2525 4250 2034 4250 
z
M 2034 4750 
Q 2819 4750 3233 4129 
Q 3647 3509 3647 2328 
Q 3647 1150 3233 529 
Q 2819 -91 2034 -91 
Q 1250 -91 836 529 
Q 422 1150 422 2328 
Q 422 3509 836 4129 
Q 1250 4750 2034 4750 
z
" transform="scale(0.015625)"/>
        <path id="DejaVuSans-2e" d="M 684 794 
L 1344 794 
L 1344 0 
L 684 0 
L 684 794 
z
" transform="scale(0.015625)"/>
       </defs>
       <use xlink:href="#DejaVuSans-30"/>
       <use xlink:href="#DejaVuSans-2e" transform="translate(63.623047 0)"/>
       <use xlink:href="#DejaVuSans-30" transform="translate(95.410156 0)"/>
      </g>
     </g>
    </g>
    <g id="xtick_2">
     <g id="line2d_3">
      <g>
       <use xlink:href="#m16241b0110" x="141.184031" y="310.12" style="stroke: #000000; stroke-width: 0.8"/>
      </g>
     </g>
     <g id="text_2">
      <!-- 0.5 -->
      <g transform="translate(132.437313 325.478281) scale(0.11 -0.11)">
       <defs>
        <path id="DejaVuSans-35" d="M 691 4666 
L 3169 4666 
L 3169 4134 
L 1269 4134 
L 1269 2991 
Q 1406 3038 1543 3061 
Q 1681 3084 1819 3084 
Q 2600 3084 3056 2656 
Q 3513 2228 3513 1497 
Q 3513 744 3044 326 
Q 2575 -91 1722 -91 
Q 1428 -91 1123 -41 
Q 819 9 494 109 
L 494 744 
Q 775 591 1075 516 
Q 1375 441 1709 441 
Q 2250 441 2565 725 
Q 2881 1009 2881 1497 
Q 2881 1984 2565 2268 
Q 2250 2553 1709 2553 
Q 1456 2553 1204 2497 
Q 953 2441 691 2322 
L 691 4666 
z
" transform="scale(0.015625)"/>
       </defs>
       <use xlink:href="#DejaVuSans-30"/>
       <use xlink:href="#DejaVuSans-2e" transform="translate(63.623047 0)"/>
       <use xlink:href="#DejaVuSans-35" transform="translate(95.410156 0)"/>
      </g>
     </g>
    </g>
    <g id="xtick_3">
     <g id="line2d_4">
      <g>
       <use xlink:href="#m16241b0110" x="220.404781" y="310.12" style="stroke: #000000; stroke-width: 0.8"/>
      </g>
     </g>
     <g id="text_3">
      <!-- 1.0 -->
      <g transform="translate(211.658062 325.478281) scale(0.11 -0.11)">
       <defs>
        <path id="DejaVuSans-31" d="M 794 531 
L 1825 531 
L 1825 4091 
L 703 3866 
L 703 4441 
L 1819 4666 
L 2450 4666 
L 2450 531 
L 3481 531 
L 3481 0 
L 794 0 
L 794 531 
z
" transform="scale(0.015625)"/>
       </defs>
       <use xlink:href="#DejaVuSans-31"/>
       <use xlink:href="#DejaVuSans-2e" transform="translate(63.623047 0)"/>
       <use xlink:href="#DejaVuSans-30" transform="translate(95.410156 0)"/>
      </g>
     </g>
    </g>
    <g id="xtick_4">
     <g id="line2d_5">
      <g>
       <use xlink:href="#m16241b0110" x="299.625531" y="310.12" style="stroke: #000000; stroke-width: 0.8"/>
      </g>
     </g>
     <g id="text_4">
      <!-- 1.5 -->
      <g transform="translate(290.878812 325.478281) scale(0.11 -0.11)">
       <use xlink:href="#DejaVuSans-31"/>
       <use xlink:href="#DejaVuSans-2e" transform="translate(63.623047 0)"/>
       <use xlink:href="#DejaVuSans-35" transform="translate(95.410156 0)"/>
      </g>
     </g>
    </g>
    <g id="xtick_5">
     <g id="line2d_6">
      <g>
       <use xlink:href="#m16241b0110" x="378.846281" y="310.12" style="stroke: #000000; stroke-width: 0.8"/>
      </g>
     </g>
     <g id="text_5">
      <!-- 2.0 -->
      <g transform="translate(370.099562 325.478281) scale(0.11 -0.11)">
       <defs>
        <path id="DejaVuSans-32" d="M 1228 531 
L 3431 531 
L 3431 0 
L 469 0 
L 469 531 
Q 828 903 1448 1529 
Q 2069 2156 2228 2338 
Q 2531 2678 2651 2914 
Q 2772 3150 2772 3378 
Q 2772 3750 2511 3984 
Q 2250 4219 1831 4219 
Q 1534 4219 1204 4116 
Q 875 4013 500 3803 
L 500 4441 
Q 881 4594 1212 4672 
Q 1544 4750 1819 4750 
Q 2544 4750 2975 4387 
Q 3406 4025 3406 3419 
Q 3406 3131 3298 2873 
Q 3191 2616 2906 2266 
Q 2828 2175 2409 1742 
Q 1991 1309 1228 531 
z
" transform="scale(0.015625)"/>
       </defs>
       <use xlink:href="#DejaVuSans-32"/>
       <use xlink:href="#DejaVuSans-2e" transform="translate(63.623047 0)"/>
       <use xlink:href="#DejaVuSans-30" transform="translate(95.410156 0)"/>
      </g>
     </g>
    </g>
    <g id="xtick_6">
     <g id="line2d_7">
      <g>
       <use xlink:href="#m16241b0110" x="458.067031" y="310.12" style="stroke: #000000; stroke-width: 0.8"/>
      </g>
     </g>
     <g id="text_6">
      <!-- 2.5 -->
      <g transform="translate(449.320312 325.478281) scale(0.11 -0.11)">
       <use xlink:href="#DejaVuSans-32"/>
       <use xlink:href="#DejaVuSans-2e" transform="translate(63.623047 0)"/>
       <use xlink:href="#DejaVuSans-35" transform="translate(95.410156 0)"/>
      </g>
     </g>
    </g>
    <g id="xtick_7">
     <g id="line2d_8">
      <g>
       <use xlink:href="#m16241b0110" x="537.287781" y="310.12" style="stroke: #000000; stroke-width: 0.8"/>
      </g>
     </g>
     <g id="text_7">
      <!-- 3.0 -->
      <g transform="translate(528.541062 325.478281) scale(0.11 -0.11)">
       <defs>
        <path id="DejaVuSans-33" d="M 2597 2516 
Q 3050 2419 3304 2112 
Q 3559 1806 3559 1356 
Q 3559 666 3084 287 
Q 2609 -91 1734 -91 
Q 1441 -91 1130 -33 
Q 819 25 488 141 
L 488 750 
Q 750 597 1062 519 
Q 1375 441 1716 441 
Q 2309 441 2620 675 
Q 2931 909 2931 1356 
Q 2931 1769 2642 2001 
Q 2353 2234 1838 2234 
L 1294 2234 
L 1294 2753 
L 1863 2753 
Q 2328 2753 2575 2939 
Q 2822 3125 2822 3475 
Q 2822 3834 2567 4026 
Q 2313 4219 1838 4219 
Q 1578 4219 1281 4162 
Q 984 4106 628 3988 
L 628 4550 
Q 988 4650 1302 4700 
Q 1616 4750 1894 4750 
Q 2613 4750 3031 4423 
Q 3450 4097 3450 3541 
Q 3450 3153 3228 2886 
Q 3006 2619 2597 2516 
z
" transform="scale(0.015625)"/>
       </defs>
       <use xlink:href="#DejaVuSans-33"/>
       <use xlink:href="#DejaVuSans-2e" transform="translate(63.623047 0)"/>
       <use xlink:href="#DejaVuSans-30" transform="translate(95.410156 0)"/>
      </g>
     </g>
    </g>
    <g id="xtick_8">
     <g id="line2d_9">
      <g>
       <use xlink:href="#m16241b0110" x="616.508531" y="310.12" style="stroke: #000000; stroke-width: 0.8"/>
      </g>
     </g>
     <g id="text_8">
      <!-- 3.5 -->
      <g transform="translate(607.761813 325.478281) scale(0.11 -0.11)">
       <use xlink:href="#DejaVuSans-33"/>
       <use xlink:href="#DejaVuSans-2e" transform="translate(63.623047 0)"/>
       <use xlink:href="#DejaVuSans-35" transform="translate(95.410156 0)"/>
      </g>
     </g>
    </g>
    <g id="xtick_9">
     <g id="line2d_10">
      <g>
       <use xlink:href="#m16241b0110" x="695.729281" y="310.12" style="stroke: #000000; stroke-width: 0.8"/>
      </g>
     </g>
     <g id="text_9">
      <!-- 4.0 -->
      <g transform="translate(686.982562 325.478281) scale(0.11 -0.11)">
       <defs>
        <path id="DejaVuSans-34" d="M 2419 4116 
L 825 1625 
L 2419 1625 
L 2419 4116 
z
M 2253 4666 
L 3047 4666 
L 3047 1625 
L 3713 1625 
L 3713 1100 
L 3047 1100 
L 3047 0 
L 2419 0 
L 2419 1100 
L 313 1100 
L 313 1709 
L 2253 4666 
z
" transform="scale(0.015625)"/>
       </defs>
       <use xlink:href="#DejaVuSans-34"/>
       <use xlink:href="#DejaVuSans-2e" transform="translate(63.623047 0)"/>
       <use xlink:href="#DejaVuSans-30" transform="translate(95.410156 0)"/>
      </g>
     </g>
    </g>
    <g id="text_10">
     <!-- Time (s) -->
     <g transform="translate(346.627687 342.40375) scale(0.14 -0.14)">
      <defs>
       <path id="DejaVuSans-Bold-54" d="M 31 4666 
L 4331 4666 
L 4331 3756 
L 2784 3756 
L 2784 0 
L 1581 0 
L 1581 3756 
L 31 3756 
L 31 4666 
z
" transform="scale(0.015625)"/>
       <path id="DejaVuSans-Bold-69" d="M 538 3500 
L 1656 3500 
L 1656 0 
L 538 0 
L 538 3500 
z
M 538 4863 
L 1656 4863 
L 1656 3950 
L 538 3950 
L 538 4863 
z
" transform="scale(0.015625)"/>
       <path id="DejaVuSans-Bold-6d" d="M 3781 2919 
Q 3994 3244 4286 3414 
Q 4578 3584 4928 3584 
Q 5531 3584 5847 3212 
Q 6163 2841 6163 2131 
L 6163 0 
L 5038 0 
L 5038 1825 
Q 5041 1866 5042 1909 
Q 5044 1953 5044 2034 
Q 5044 2406 4934 2573 
Q 4825 2741 4581 2741 
Q 4263 2741 4089 2478 
Q 3916 2216 3909 1719 
L 3909 0 
L 2784 0 
L 2784 1825 
Q 2784 2406 2684 2573 
Q 2584 2741 2328 2741 
Q 2006 2741 1831 2477 
Q 1656 2213 1656 1722 
L 1656 0 
L 531 0 
L 531 3500 
L 1656 3500 
L 1656 2988 
Q 1863 3284 2130 3434 
Q 2397 3584 2719 3584 
Q 3081 3584 3359 3409 
Q 3638 3234 3781 2919 
z
" transform="scale(0.015625)"/>
       <path id="DejaVuSans-Bold-65" d="M 4031 1759 
L 4031 1441 
L 1416 1441 
Q 1456 1047 1700 850 
Q 1944 653 2381 653 
Q 2734 653 3104 758 
Q 3475 863 3866 1075 
L 3866 213 
Q 3469 63 3072 -14 
Q 2675 -91 2278 -91 
Q 1328 -91 801 392 
Q 275 875 275 1747 
Q 275 2603 792 3093 
Q 1309 3584 2216 3584 
Q 3041 3584 3536 3087 
Q 4031 2591 4031 1759 
z
M 2881 2131 
Q 2881 2450 2695 2645 
Q 2509 2841 2209 2841 
Q 1884 2841 1681 2658 
Q 1478 2475 1428 2131 
L 2881 2131 
z
" transform="scale(0.015625)"/>
       <path id="DejaVuSans-Bold-20" transform="scale(0.015625)"/>
       <path id="DejaVuSans-Bold-28" d="M 2413 -844 
L 1484 -844 
Q 1006 -72 778 623 
Q 550 1319 550 2003 
Q 550 2688 779 3389 
Q 1009 4091 1484 4856 
L 2413 4856 
Q 2013 4116 1813 3408 
Q 1613 2700 1613 2009 
Q 1613 1319 1811 609 
Q 2009 -100 2413 -844 
z
" transform="scale(0.015625)"/>
       <path id="DejaVuSans-Bold-73" d="M 3272 3391 
L 3272 2541 
Q 2913 2691 2578 2766 
Q 2244 2841 1947 2841 
Q 1628 2841 1473 2761 
Q 1319 2681 1319 2516 
Q 1319 2381 1436 2309 
Q 1553 2238 1856 2203 
L 2053 2175 
Q 2913 2066 3209 1816 
Q 3506 1566 3506 1031 
Q 3506 472 3093 190 
Q 2681 -91 1863 -91 
Q 1516 -91 1145 -36 
Q 775 19 384 128 
L 384 978 
Q 719 816 1070 734 
Q 1422 653 1784 653 
Q 2113 653 2278 743 
Q 2444 834 2444 1013 
Q 2444 1163 2330 1236 
Q 2216 1309 1875 1350 
L 1678 1375 
Q 931 1469 631 1722 
Q 331 1975 331 2491 
Q 331 3047 712 3315 
Q 1094 3584 1881 3584 
Q 2191 3584 2531 3537 
Q 2872 3491 3272 3391 
z
" transform="scale(0.015625)"/>
       <path id="DejaVuSans-Bold-29" d="M 513 -844 
Q 913 -100 1113 609 
Q 1313 1319 1313 2009 
Q 1313 2700 1113 3408 
Q 913 4116 513 4856 
L 1441 4856 
Q 1916 4091 2145 3389 
Q 2375 2688 2375 2003 
Q 2375 1319 2147 623 
Q 1919 -72 1441 -844 
L 513 -844 
z
" transform="scale(0.015625)"/>
      </defs>
      <use xlink:href="#DejaVuSans-Bold-54"/>
      <use xlink:href="#DejaVuSans-Bold-69" transform="translate(68.212891 0)"/>
      <use xlink:href="#DejaVuSans-Bold-6d" transform="translate(102.490234 0)"/>
      <use xlink:href="#DejaVuSans-Bold-65" transform="translate(206.689453 0)"/>
      <use xlink:href="#DejaVuSans-Bold-20" transform="translate(274.511719 0)"/>
      <use xlink:href="#DejaVuSans-Bold-28" transform="translate(309.326172 0)"/>
      <use xlink:href="#DejaVuSans-Bold-73" transform="translate(355.029297 0)"/>
      <use xlink:href="#DejaVuSans-Bold-29" transform="translate(414.550781 0)"/>
     </g>
    </g>
   </g>
   <g id="matplotlib.axis_2">
    <g id="ytick_1">
     <g id="line2d_11">
      <defs>
       <path id="m672ce92f5e" d="M 0 0 
L -3.5 0 
" style="stroke: #000000; stroke-width: 0.8"/>
      </defs>
      <g>
       <use xlink:href="#m672ce92f5e" x="61.963281" y="291.929186" style="stroke: #000000; stroke-width: 0.8"/>
      </g>
     </g>
     <g id="text_11">
      <!-- −300 -->
      <g transform="translate(24.749375 296.108326) scale(0.11 -0.11)">
       <defs>
        <path id="DejaVuSans-2212" d="M 678 2272 
L 4684 2272 
L 4684 1741 
L 678 1741 
L 678 2272 
z
" transform="scale(0.015625)"/>
       </defs>
       <use xlink:href="#DejaVuSans-2212"/>
       <use xlink:href="#DejaVuSans-33" transform="translate(83.789062 0)"/>
       <use xlink:href="#DejaVuSans-30" transform="translate(147.412109 0)"/>
       <use xlink:href="#DejaVuSans-30" transform="translate(211.035156 0)"/>
      </g>
     </g>
    </g>
    <g id="ytick_2">
     <g id="line2d_12">
      <g>
       <use xlink:href="#m672ce92f5e" x="61.963281" y="247.506124" style="stroke: #000000; stroke-width: 0.8"/>
      </g>
     </g>
     <g id="text_12">
      <!-- −200 -->
      <g transform="translate(24.749375 251.685264) scale(0.11 -0.11)">
       <use xlink:href="#DejaVuSans-2212"/>
       <use xlink:href="#DejaVuSans-32" transform="translate(83.789062 0)"/>
       <use xlink:href="#DejaVuSans-30" transform="translate(147.412109 0)"/>
       <use xlink:href="#DejaVuSans-30" transform="translate(211.035156 0)"/>
      </g>
     </g>
    </g>
    <g id="ytick_3">
     <g id="line2d_13">
      <g>
       <use xlink:href="#m672ce92f5e" x="61.963281" y="203.083062" style="stroke: #000000; stroke-width: 0.8"/>
      </g>
     </g>
     <g id="text_13">
      <!-- −100 -->
      <g transform="translate(24.749375 207.262203) scale(0.11 -0.11)">
       <use xlink:href="#DejaVuSans-2212"/>
       <use xlink:href="#DejaVuSans-31" transform="translate(83.789062 0)"/>
       <use xlink:href="#DejaVuSans-30" transform="translate(147.412109 0)"/>
       <use xlink:href="#DejaVuSans-30" transform="translate(211.035156 0)"/>
      </g>
     </g>
    </g>
    <g id="ytick_4">
     <g id="line2d_14">
      <g>
       <use xlink:href="#m672ce92f5e" x="61.963281" y="158.66" style="stroke: #000000; stroke-width: 0.8"/>
      </g>
     </g>
     <g id="text_14">
      <!-- 0 -->
      <g transform="translate(47.964531 162.839141) scale(0.11 -0.11)">
       <use xlink:href="#DejaVuSans-30"/>
      </g>
     </g>
    </g>
    <g id="ytick_5">
     <g id="line2d_15">
      <g>
       <use xlink:href="#m672ce92f5e" x="61.963281" y="114.236938" style="stroke: #000000; stroke-width: 0.8"/>
      </g>
     </g>
     <g id="text_15">
      <!-- 100 -->
      <g transform="translate(33.967031 118.416079) scale(0.11 -0.11)">
       <use xlink:href="#DejaVuSans-31"/>
       <use xlink:href="#DejaVuSans-30" transform="translate(63.623047 0)"/>
       <use xlink:href="#DejaVuSans-30" transform="translate(127.246094 0)"/>
      </g>
     </g>
    </g>
    <g id="ytick_6">
     <g id="line2d_16">
      <g>
       <use xlink:href="#m672ce92f5e" x="61.963281" y="69.813876" style="stroke: #000000; stroke-width: 0.8"/>
      </g>
     </g>
     <g id="text_16">
      <!-- 200 -->
      <g transform="translate(33.967031 73.993017) scale(0.11 -0.11)">
       <use xlink:href="#DejaVuSans-32"/>
       <use xlink:href="#DejaVuSans-30" transform="translate(63.623047 0)"/>
       <use xlink:href="#DejaVuSans-30" transform="translate(127.246094 0)"/>
      </g>
     </g>
    </g>
    <g id="ytick_7">
     <g id="line2d_17">
      <g>
       <use xlink:href="#m672ce92f5e" x="61.963281" y="25.390814" style="stroke: #000000; stroke-width: 0.8"/>
      </g>
     </g>
     <g id="text_17">
      <!-- 300 -->
      <g transform="translate(33.967031 29.569955) scale(0.11 -0.11)">
       <use xlink:href="#DejaVuSans-33"/>
       <use xlink:href="#DejaVuSans-30" transform="translate(63.623047 0)"/>
       <use xlink:href="#DejaVuSans-30" transform="translate(127.246094 0)"/>
      </g>
     </g>
    </g>
    <g id="text_18">
     <!-- V$_{oc}$ (V) -->
     <g transform="translate(17.837813 184.35) rotate(-90) scale(0.14 -0.14)">
      <defs>
       <path id="DejaVuSans-Bold-56" d="M 31 4666 
L 1241 4666 
L 2478 1222 
L 3713 4666 
L 4922 4666 
L 3194 0 
L 1759 0 
L 31 4666 
z
" transform="scale(0.015625)"/>
       <path id="DejaVuSans-Oblique-6f" d="M 1625 -91 
Q 1009 -91 651 289 
Q 294 669 294 1325 
Q 294 1706 417 2101 
Q 541 2497 738 2766 
Q 1047 3184 1428 3384 
Q 1809 3584 2291 3584 
Q 2888 3584 3255 3212 
Q 3622 2841 3622 2241 
Q 3622 1825 3500 1412 
Q 3378 1000 3181 728 
Q 2875 309 2494 109 
Q 2113 -91 1625 -91 
z
M 891 1344 
Q 891 869 1089 633 
Q 1288 397 1691 397 
Q 2269 397 2648 901 
Q 3028 1406 3028 2181 
Q 3028 2634 2825 2865 
Q 2622 3097 2228 3097 
Q 1903 3097 1650 2945 
Q 1397 2794 1197 2484 
Q 1050 2253 970 1956 
Q 891 1659 891 1344 
z
" transform="scale(0.015625)"/>
       <path id="DejaVuSans-Oblique-63" d="M 3431 3366 
L 3316 2797 
Q 3109 2947 2876 3022 
Q 2644 3097 2394 3097 
Q 2119 3097 1870 3000 
Q 1622 2903 1453 2725 
Q 1184 2453 1037 2087 
Q 891 1722 891 1331 
Q 891 859 1127 628 
Q 1363 397 1844 397 
Q 2081 397 2348 469 
Q 2616 541 2906 684 
L 2797 116 
Q 2547 13 2283 -39 
Q 2019 -91 1741 -91 
Q 1044 -91 669 257 
Q 294 606 294 1253 
Q 294 1797 489 2255 
Q 684 2713 1069 3078 
Q 1331 3328 1684 3456 
Q 2038 3584 2456 3584 
Q 2700 3584 2940 3529 
Q 3181 3475 3431 3366 
z
" transform="scale(0.015625)"/>
      </defs>
      <use xlink:href="#DejaVuSans-Bold-56" transform="translate(0 0.125)"/>
      <use xlink:href="#DejaVuSans-Oblique-6f" transform="translate(78.349609 -16.28125) scale(0.7)"/>
      <use xlink:href="#DejaVuSans-Oblique-63" transform="translate(121.176758 -16.28125) scale(0.7)"/>
      <use xlink:href="#DejaVuSans-Bold-20" transform="translate(162.397461 0.125)"/>
      <use xlink:href="#DejaVuSans-Bold-28" transform="translate(197.211914 0.125)"/>
      <use xlink:href="#DejaVuSans-Bold-56" transform="translate(242.915039 0.125)"/>
      <use xlink:href="#DejaVuSans-Bold-29" transform="translate(320.307617 0.125)"/>
     </g>
    </g>
   </g>
   <g id="patch_5">
    <path d="M 61.963281 310.12 
L 61.963281 7.2 
" style="fill: none; stroke: #000000; stroke-width: 0.8; stroke-linejoin: miter; stroke-linecap: square"/>
   </g>
   <g id="patch_6">
    <path d="M 61.963281 310.12 
L 695.729281 310.12 
" style="fill: none; stroke: #000000; stroke-width: 0.8; stroke-linejoin: miter; stroke-linecap: square"/>
   </g>
   <g id="line2d_18">
    <path d="M 61.963281 52.202739 
L 64.339904 54.816209 
L 64.656787 55.293801 
L 64.97367 55.461402 
L 65.132111 55.684187 
L 65.290553 55.70667 
L 65.765877 56.774949 
L 66.241202 57.946105 
L 66.716526 59.71408 
L 67.350292 63.410135 
L 67.825617 67.946231 
L 68.300941 75.188446 
L 68.776266 87.182031 
L 69.25159 108.852751 
L 71.31133 225.293903 
L 71.945096 249.864179 
L 72.261979 255.788048 
L 72.42042 256.226121 
L 72.578862 254.824696 
L 72.895745 247.696299 
L 73.371069 230.785849 
L 74.163277 189.485639 
L 76.223016 77.441477 
L 76.698341 62.842601 
L 77.173665 54.847545 
L 77.64899 50.314171 
L 78.124314 48.082229 
L 79.074963 46.301989 
L 79.391846 46.066941 
L 80.025612 45.99881 
L 80.659378 46.180037 
L 80.976261 46.419855 
L 81.768469 46.345593 
L 82.085352 46.299265 
L 83.828208 46.385109 
L 84.778857 46.361944 
L 85.09574 46.350362 
L 85.412623 46.427349 
L 85.571065 46.402141 
L 85.729506 46.672618 
L 86.046389 46.706683 
L 86.521714 46.711452 
L 86.680155 46.73121 
L 86.838597 46.590862 
L 86.997038 46.635827 
L 87.15548 46.885865 
L 87.313921 46.823185 
L 87.472363 47.048014 
L 88.26457 47.288514 
L 88.739895 47.681624 
L 88.898336 47.736129 
L 89.056778 47.63734 
L 89.532102 48.063153 
L 90.007427 48.492373 
L 90.165868 48.823486 
L 90.32431 48.88889 
L 90.482751 48.813947 
L 90.641193 49.073523 
L 90.799634 49.079655 
L 92.859374 51.797365 
L 93.017815 52.208871 
L 93.176257 52.241573 
L 96.028204 55.6072 
L 96.345087 55.526125 
L 96.820411 56.462914 
L 97.137294 57.018855 
L 97.454177 57.862305 
L 98.087943 59.963436 
L 98.404826 61.625128 
L 99.197034 68.977037 
L 99.672358 76.876024 
L 99.989241 84.996425 
L 100.464566 105.405386 
L 102.841188 236.426289 
L 103.316513 252.316845 
L 103.633396 256.398489 
L 103.791837 255.736269 
L 104.10872 249.663881 
L 104.584045 233.122695 
L 105.217811 201.498266 
L 107.594433 73.123406 
L 108.069758 60.211421 
L 108.545082 53.153832 
L 109.020407 49.380107 
L 109.495731 47.17678 
L 109.812614 46.351043 
L 110.287939 45.69495 
L 110.921705 45.470121 
L 111.238588 45.628183 
L 111.713912 45.750136 
L 112.189237 45.957932 
L 112.50612 45.990635 
L 112.981444 46.09828 
L 113.298327 46.193663 
L 115.67495 46.380339 
L 117.417806 46.26043 
L 117.893131 46.404866 
L 118.526897 46.551346 
L 119.002221 46.67943 
L 119.635987 47.024169 
L 120.111312 47.445894 
L 121.220402 48.463759 
L 121.378844 48.474659 
L 122.171051 49.006756 
L 122.329493 49.125983 
L 122.487934 49.51705 
L 122.804817 49.64786 
L 123.755466 50.45929 
L 124.072349 50.65346 
L 124.389232 51.129009 
L 124.547674 51.21894 
L 124.864557 51.654292 
L 125.022998 51.76875 
L 125.656764 52.916061 
L 125.815206 52.935138 
L 126.29053 53.518331 
L 127.399621 54.748761 
L 127.558062 54.739904 
L 128.033387 55.460039 
L 128.825594 57.146258 
L 129.45936 59.682059 
L 129.934685 62.82081 
L 130.410009 67.531318 
L 130.885334 74.971792 
L 131.360658 87.669158 
L 131.835983 110.130182 
L 133.737281 219.009622 
L 134.371047 246.018261 
L 134.68793 254.426137 
L 134.846371 256.380775 
L 135.004813 256.485694 
L 135.163254 254.794719 
L 135.480137 247.257544 
L 135.955462 229.757772 
L 136.589228 197.509954 
L 138.807409 75.965783 
L 139.282733 61.572657 
L 139.758058 53.623248 
L 140.233382 49.641727 
L 140.708707 47.373676 
L 141.02559 46.616069 
L 141.659356 45.760355 
L 142.451563 45.676555 
L 142.768446 45.967471 
L 143.402212 46.011074 
L 144.352861 46.12962 
L 144.828186 46.118038 
L 146.095718 46.265881 
L 146.887925 46.498204 
L 147.046367 46.516599 
L 147.36325 46.400097 
L 150.373638 46.277463 
L 150.690521 46.49071 
L 151.007404 46.566335 
L 151.958053 47.055509 
L 152.116495 47.060278 
L 152.274936 47.224472 
L 152.591819 47.708877 
L 155.602208 50.986617 
L 155.760649 50.879652 
L 156.552857 51.770794 
L 156.86974 52.196607 
L 157.503506 52.813866 
L 157.97883 53.383434 
L 159.721687 56.133164 
L 160.355453 57.960412 
L 160.830777 60.263208 
L 161.306102 63.647908 
L 161.781426 68.771966 
L 162.256751 76.892374 
L 162.573634 85.262813 
L 163.048958 106.060793 
L 165.267139 230.247611 
L 165.900905 252.789664 
L 166.217788 256.449586 
L 166.37623 255.596604 
L 166.693113 248.966234 
L 167.168437 232.726181 
L 167.802203 200.872835 
L 170.178826 71.572085 
L 170.65415 58.605596 
L 171.129475 51.880481 
L 171.604799 48.372464 
L 172.080124 46.663761 
L 172.397007 46.097599 
L 173.506097 45.761036 
L 173.82298 46.236584 
L 174.298305 46.619476 
L 175.090512 46.819778 
L 175.248954 46.767318 
L 175.565837 46.834767 
L 176.674927 46.844987 
L 176.833369 46.868832 
L 176.99181 46.628333 
L 177.467135 46.616751 
L 180.794406 46.468909 
L 182.854146 47.100475 
L 183.32947 47.530376 
L 183.963236 48.148316 
L 184.597002 48.966559 
L 184.913885 49.293583 
L 185.230768 49.582455 
L 186.973625 51.619545 
L 187.448949 52.127796 
L 187.765832 52.349219 
L 188.874923 53.848762 
L 190.459338 55.267231 
L 190.934662 56.400915 
L 191.409987 57.718551 
L 191.885311 59.481757 
L 192.360636 62.246473 
L 192.83596 66.409218 
L 193.311285 72.878159 
L 193.786609 83.755781 
L 194.103492 95.240425 
L 194.737258 131.167276 
L 196.163232 212.388099 
L 196.955439 246.935286 
L 197.272322 254.925527 
L 197.430764 256.628766 
L 197.589205 256.496595 
L 197.906088 251.239718 
L 198.381413 235.891483 
L 199.015179 204.887717 
L 201.550243 67.878762 
L 202.025567 56.377744 
L 202.500892 50.536956 
L 202.817775 48.394946 
L 203.451541 46.526138 
L 203.926865 45.995404 
L 204.40219 45.864594 
L 204.719073 45.981097 
L 205.51128 46.607213 
L 205.828163 46.596993 
L 206.145046 46.570422 
L 206.303488 46.334692 
L 207.57102 46.269968 
L 208.363227 46.239991 
L 208.68011 46.051952 
L 210.581408 46.233178 
L 211.056733 46.175949 
L 211.84894 46.295858 
L 212.641148 46.464821 
L 213.591797 46.829998 
L 215.01777 47.787227 
L 215.493095 48.33363 
L 215.651536 48.324092 
L 216.126861 48.875946 
L 216.760627 49.745967 
L 218.028159 51.295927 
L 218.345042 51.823936 
L 219.295691 52.842481 
L 220.404781 53.921661 
L 220.563223 53.767006 
L 221.989196 55.460039 
L 222.464521 56.472452 
L 223.256728 59.530129 
L 223.732053 62.491742 
L 224.365819 69.171207 
L 224.841143 77.603651 
L 225.316468 92.305393 
L 225.791792 117.398261 
L 227.217766 200.982508 
L 228.009973 238.966162 
L 228.485298 254.043248 
L 228.643739 256.442773 
L 228.802181 257.03005 
L 228.960622 255.781235 
L 229.277505 248.858589 
L 229.75283 232.046928 
L 230.545037 190.557997 
L 232.604777 75.669413 
L 233.080101 60.46963 
L 233.555426 52.606065 
L 234.03075 48.66951 
L 234.506075 46.840898 
L 234.822958 46.403503 
L 235.298282 45.845518 
L 235.615165 45.876176 
L 236.09049 46.175949 
L 236.565814 46.61607 
L 237.041139 46.718265 
L 237.674905 46.676706 
L 238.150229 46.575873 
L 238.783995 46.545214 
L 239.25932 46.468909 
L 240.209969 46.502292 
L 240.843735 46.519325 
L 242.269708 46.629014 
L 242.586591 46.516599 
L 243.53724 46.455964 
L 243.854123 46.445744 
L 244.012565 46.4437 
L 244.329448 46.680112 
L 244.646331 46.793208 
L 245.121655 47.116826 
L 245.59698 47.460883 
L 245.913863 47.875114 
L 246.70607 48.73151 
L 247.339836 50.00895 
L 247.656719 50.314172 
L 247.973602 50.459971 
L 248.607368 50.934156 
L 249.082693 51.499636 
L 249.241134 51.637259 
L 249.558017 52.195926 
L 250.191783 52.685782 
L 250.350225 52.582905 
L 250.983991 52.961708 
L 251.776198 54.162842 
L 252.568406 54.757618 
L 252.726847 54.684719 
L 253.202172 55.31424 
L 253.519055 55.857919 
L 254.311262 58.22135 
L 254.786587 60.582057 
L 255.261911 64.180004 
L 255.737236 69.863408 
L 256.21256 79.102508 
L 256.529443 88.936372 
L 257.004768 112.567181 
L 258.589183 205.178615 
L 259.38139 242.057885 
L 259.856715 255.291383 
L 260.015156 256.728236 
L 260.173598 256.341941 
L 260.490481 250.392186 
L 260.965805 235.002391 
L 261.599571 203.429741 
L 263.976194 72.183889 
L 264.451518 58.470697 
L 264.926843 51.836877 
L 265.402167 48.382002 
L 265.877492 46.571103 
L 266.352816 45.926592 
L 266.669699 45.861869 
L 266.828141 45.927274 
L 266.986582 45.834617 
L 267.145024 45.988591 
L 267.303465 45.926592 
L 267.77879 46.41236 
L 268.095673 46.476403 
L 268.254114 46.22909 
L 269.046322 46.287001 
L 269.363205 46.083292 
L 270.155412 45.950438 
L 270.313854 46.101687 
L 271.422944 46.120763 
L 271.739827 46.181399 
L 271.898269 46.022656 
L 272.373593 46.052633 
L 272.690476 46.216146 
L 273.799567 46.440294 
L 273.958008 46.657629 
L 274.750216 46.618113 
L 275.067099 46.618795 
L 275.22554 46.962852 
L 276.651514 47.300777 
L 277.126838 47.605319 
L 277.28528 47.539233 
L 277.602163 47.811072 
L 277.919046 48.278445 
L 279.028136 49.660805 
L 280.137227 51.105844 
L 280.295668 51.13991 
L 280.929434 51.790552 
L 281.087876 51.744224 
L 281.880083 52.541346 
L 282.038525 52.425525 
L 284.256706 54.575029 
L 285.207355 56.500385 
L 285.999562 59.940953 
L 286.474887 63.429892 
L 286.79177 66.621783 
L 287.267094 73.986632 
L 287.742419 86.462578 
L 288.217743 108.621107 
L 290.119041 218.344676 
L 290.752807 245.604714 
L 291.06969 254.3437 
L 291.228132 256.484332 
L 291.386573 256.927855 
L 291.545015 255.372457 
L 291.861898 247.90205 
L 292.337222 230.856022 
L 293.12943 188.697374 
L 295.189169 73.972296 
L 295.664494 58.880838 
L 296.139818 51.622267 
L 296.615143 47.981396 
L 296.932026 46.624926 
L 297.565792 45.477615 
L 297.882675 45.427199 
L 298.199558 45.549833 
L 298.516441 45.790332 
L 298.991765 46.40691 
L 299.625531 46.473677 
L 299.783973 46.274738 
L 300.734622 46.316297 
L 301.051505 46.494117 
L 301.685271 46.528863 
L 302.002154 46.656947 
L 305.012542 46.611301 
L 305.170984 46.460733 
L 306.438516 46.518643 
L 307.389165 46.602443 
L 307.864489 46.78367 
L 308.022931 46.729847 
L 308.815138 47.273525 
L 309.924229 48.39631 
L 310.399553 49.339912 
L 311.191761 50.452477 
L 311.508644 50.840818 
L 313.093059 52.736198 
L 313.2515 53.21379 
L 313.568383 53.33983 
L 313.726825 53.403191 
L 315.31124 55.237253 
L 315.628123 55.552696 
L 316.261889 56.598492 
L 316.737213 57.803713 
L 317.687862 62.997948 
L 318.163187 67.906715 
L 318.638511 75.918797 
L 319.113836 89.892234 
L 319.58916 114.266336 
L 321.015134 198.394941 
L 321.965783 243.33736 
L 322.441107 256.013556 
L 322.599549 257.085916 
L 322.75799 256.361699 
L 323.074873 249.820579 
L 323.550198 233.99816 
L 324.183964 201.668588 
L 326.560586 69.573828 
L 327.035911 56.50242 
L 327.511235 50.365949 
L 327.98656 47.169967 
L 328.461884 45.645896 
L 329.09565 45.384277 
L 330.363182 46.00358 
L 330.680065 45.791014 
L 330.838507 45.98791 
L 331.15539 46.109181 
L 331.789156 46.319022 
L 332.106039 46.169817 
L 332.26448 46.310847 
L 332.898246 46.326516 
L 333.215129 46.442338 
L 334.32422 46.46959 
L 336.383959 46.501611 
L 336.700842 46.65831 
L 336.859284 46.670574 
L 337.017725 46.554071 
L 337.49305 46.64264 
L 337.651491 46.440975 
L 338.60214 46.633784 
L 339.711231 47.420687 
L 340.820321 48.642259 
L 341.137204 49.228178 
L 342.404736 50.581924 
L 342.563178 50.624165 
L 342.880061 51.141272 
L 343.196944 51.720378 
L 343.83071 52.400316 
L 344.147593 52.50183 
L 344.306034 52.453458 
L 345.256683 53.724084 
L 346.207332 54.485097 
L 346.365774 54.437406 
L 346.99954 55.142553 
L 347.474864 56.174724 
L 348.10863 58.014235 
L 348.583955 60.220967 
L 349.059279 63.711269 
L 349.534604 69.086044 
L 350.009928 77.737185 
L 350.485253 92.969657 
L 350.960577 119.081745 
L 352.386551 202.41255 
L 353.178758 239.945185 
L 353.654083 254.360733 
L 353.812524 256.365105 
L 353.970966 256.519078 
L 354.129407 254.764742 
L 354.44629 247.16625 
L 354.921615 229.839528 
L 355.713822 187.179444 
L 357.61512 78.767272 
L 358.090445 61.711637 
L 358.565769 52.657843 
L 359.041094 48.309783 
L 359.516418 46.308803 
L 360.150184 45.74741 
L 360.625509 46.01448 
L 361.734599 47.184275 
L 365.061871 158.540536 
L 365.695637 158.591633 
L 366.646286 158.633192 
L 367.596935 158.659763 
L 367.755376 158.663851 
L 368.072259 158.528273 
L 368.389142 158.61616 
L 369.022908 158.62161 
L 369.656674 158.506471 
L 369.815116 158.558931 
L 369.973557 158.799429 
L 370.607323 158.71086 
L 371.082648 158.622973 
L 371.399531 158.720398 
L 372.033297 158.725167 
L 372.191738 158.701322 
L 372.35018 158.922062 
L 372.825504 158.88936 
L 372.983946 159.124408 
L 373.142387 159.132583 
L 373.45927 158.793297 
L 374.093036 158.577326 
L 374.726802 158.760595 
L 375.51901 158.979291 
L 375.677451 158.772177 
L 375.835893 158.851207 
L 375.994334 158.791253 
L 376.152776 158.971116 
L 376.311217 158.758551 
L 376.944983 158.97861 
L 377.103425 159.083529 
L 377.261866 159.030388 
L 377.420308 159.127132 
L 378.68784 158.843713 
L 378.68784 158.843713 
" clip-path="url(#p25d8f4ac8f)" style="fill: none; stroke: #333333; stroke-width: 0.8; stroke-linecap: square"/>
   </g>
   <g id="line2d_19">
    <path d="M 378.846281 75.276342 
L 380.272255 75.492996 
L 381.064462 75.853403 
L 381.539787 76.148406 
L 381.698228 76.123879 
L 384.708617 78.117363 
L 385.0255 78.706005 
L 385.659266 79.1434 
L 385.976149 79.328713 
L 386.13459 79.302824 
L 386.609915 79.633255 
L 386.768356 79.699341 
L 387.085239 80.087 
L 387.719005 80.525076 
L 387.877447 80.698126 
L 388.035888 81.044226 
L 388.19433 80.934537 
L 389.144979 81.422347 
L 390.095628 82.146569 
L 390.412511 82.062088 
L 391.838484 83.826654 
L 392.47225 85.262833 
L 392.947575 86.615894 
L 393.581341 88.945937 
L 394.53199 94.30163 
L 395.007314 98.348545 
L 395.482639 104.071453 
L 395.957963 113.604176 
L 396.274846 123.614479 
L 396.908612 155.228692 
L 398.176144 213.829738 
L 398.80991 237.233634 
L 399.285235 247.441495 
L 399.443676 248.064881 
L 399.602118 246.972764 
L 399.919001 238.730445 
L 400.86965 197.718449 
L 402.929389 105.291645 
L 403.404714 94.006621 
L 403.880038 86.985836 
L 404.355363 82.743387 
L 404.830687 80.142185 
L 405.464453 78.130307 
L 405.781336 77.429249 
L 406.098219 76.764301 
L 406.415102 76.487693 
L 406.731985 76.127967 
L 407.20731 75.852041 
L 408.633283 75.311769 
L 410.37614 75.208212 
L 412.435879 75.735538 
L 414.337177 76.791553 
L 414.812502 76.933264 
L 415.763151 77.472172 
L 417.82289 78.962174 
L 418.139773 79.405019 
L 418.456656 79.582839 
L 418.931981 79.911225 
L 419.090422 79.971861 
L 419.248864 79.89828 
L 419.724188 80.187833 
L 420.041071 80.292071 
L 420.199513 80.13946 
L 420.833279 80.422881 
L 421.625486 80.465803 
L 422.100811 80.911373 
L 422.417694 81.25066 
L 422.734577 81.748009 
L 423.209901 82.454516 
L 423.843667 83.695163 
L 425.586524 89.587721 
L 426.061848 92.027454 
L 426.695614 96.663012 
L 427.170939 101.800004 
L 427.646263 109.716008 
L 428.121588 123.423034 
L 428.913795 163.183511 
L 430.022886 213.705743 
L 430.815093 241.429737 
L 431.131976 247.230975 
L 431.290418 248.038311 
L 431.448859 246.842636 
L 431.765742 238.406148 
L 432.716391 197.510653 
L 434.776131 105.557353 
L 435.251455 94.338414 
L 435.72678 87.61672 
L 436.360546 82.12136 
L 436.83587 79.723867 
L 437.628078 77.157411 
L 438.261844 76.133417 
L 438.737168 75.672177 
L 439.054051 75.293375 
L 439.687817 75.078765 
L 440.0047 75.062414 
L 440.321583 75.037887 
L 440.638466 75.178235 
L 442.381323 75.01336 
L 443.331972 75.185729 
L 443.648855 75.27498 
L 443.807296 75.168697 
L 446.025477 76.463166 
L 446.34236 76.814036 
L 447.926775 77.529401 
L 448.243658 77.81214 
L 448.4021 77.750823 
L 449.352749 78.235227 
L 449.51119 78.164372 
L 451.254047 78.996239 
L 451.57093 78.978525 
L 451.887813 79.287154 
L 452.521579 79.768152 
L 452.68002 79.703428 
L 453.155345 79.928257 
L 453.472228 80.45899 
L 454.581318 81.838622 
L 455.056643 82.625522 
L 455.84885 84.250422 
L 457.433265 89.563876 
L 458.067031 92.96424 
L 458.542356 96.596245 
L 459.01768 101.821124 
L 459.493005 109.881564 
L 459.968329 123.901986 
L 460.760537 163.95065 
L 461.869627 214.497409 
L 462.661835 241.743134 
L 462.978718 247.303874 
L 463.137159 247.805989 
L 463.295601 246.433177 
L 463.612484 237.518419 
L 464.404691 203.198798 
L 466.464431 108.839163 
L 466.939755 96.102295 
L 467.41508 88.223076 
L 467.890404 83.398796 
L 468.365729 80.065198 
L 468.841053 77.9593 
L 469.633261 75.869754 
L 470.108585 75.197993 
L 471.534559 74.371576 
L 472.009883 74.449244 
L 472.960532 74.33206 
L 473.435857 74.370213 
L 473.75274 74.395421 
L 474.386506 74.595042 
L 476.129362 75.300869 
L 476.446245 75.736901 
L 476.763128 75.903138 
L 477.080011 76.018959 
L 477.872219 76.419563 
L 478.505985 76.666875 
L 478.822868 76.861045 
L 478.981309 77.394503 
L 479.456634 77.646584 
L 479.615075 77.504874 
L 481.833256 78.979207 
L 482.150139 79.138631 
L 482.308581 78.753697 
L 483.100788 79.312362 
L 483.417671 79.650287 
L 484.209879 80.146955 
L 484.36832 80.114933 
L 485.002086 80.59525 
L 485.318969 81.046952 
L 486.903384 82.579875 
L 487.53715 83.713558 
L 487.854033 84.44323 
L 488.170916 85.226724 
L 489.121565 88.36547 
L 489.59689 90.706415 
L 490.230656 94.822142 
L 490.70598 99.319396 
L 491.181305 106.340176 
L 491.656629 118.005357 
L 492.131954 139.141913 
L 493.399486 201.150127 
L 494.350135 237.433935 
L 494.667018 245.189812 
L 494.825459 247.449671 
L 494.983901 247.83801 
L 495.142342 246.423639 
L 495.459225 237.455059 
L 496.251433 203.493118 
L 498.469614 103.666749 
L 498.944938 92.84705 
L 499.420263 86.50484 
L 500.054029 81.117124 
L 500.687795 78.1269 
L 501.321561 76.360971 
L 501.480002 76.217898 
L 502.113768 74.836903 
L 502.430651 74.38997 
L 502.905976 73.830624 
L 503.222859 73.774075 
L 503.698183 73.736604 
L 503.856625 73.716846 
L 504.015066 73.813591 
L 504.173508 73.740692 
L 504.331949 73.857875 
L 504.807274 73.716165 
L 505.124157 73.928731 
L 505.44104 74.045914 
L 507.183896 74.507155 
L 509.402077 76.029178 
L 509.560519 75.959686 
L 510.511168 76.534703 
L 510.828051 76.768389 
L 511.144934 77.189432 
L 511.7787 77.489204 
L 512.412466 77.682012 
L 513.363115 78.207294 
L 513.679998 78.372169 
L 513.996881 78.406234 
L 514.155322 78.502978 
L 514.313764 78.411003 
L 514.630647 78.569746 
L 515.581296 79.376405 
L 516.373503 79.871709 
L 516.690386 80.35952 
L 516.848828 80.342488 
L 517.324152 81.025831 
L 518.591684 82.130899 
L 520.334541 86.153291 
L 520.968307 88.450633 
L 521.602073 91.79513 
L 522.235839 96.459985 
L 522.711163 101.733237 
L 523.186488 109.998747 
L 523.503371 118.666897 
L 523.978695 140.137288 
L 525.246227 201.834831 
L 526.196876 237.968071 
L 526.513759 245.798209 
L 526.672201 247.746035 
L 526.830642 248.007653 
L 526.989084 246.309181 
L 527.305967 237.006085 
L 527.939733 210.480495 
L 530.316355 103.439195 
L 530.79168 92.372185 
L 531.425446 84.138687 
L 531.90077 80.374508 
L 532.376095 77.89594 
L 533.326744 75.098523 
L 533.96051 74.196481 
L 534.752717 73.502918 
L 535.0696 73.54584 
L 535.544925 73.509731 
L 537.604664 73.717528 
L 537.763106 73.953258 
L 538.079989 74.009805 
L 538.396872 73.923961 
L 539.189079 74.187625 
L 539.505962 74.465595 
L 540.29817 74.920022 
L 540.931936 75.372405 
L 541.090377 75.266123 
L 543.467 76.775202 
L 544.734532 77.351581 
L 546.318947 78.223645 
L 546.794271 78.975119 
L 547.111154 79.281022 
L 547.428037 79.494269 
L 547.903362 79.879204 
L 548.220245 79.935752 
L 548.537128 80.138097 
L 548.854011 80.530526 
L 549.170894 80.743092 
L 549.487777 81.289494 
L 549.646218 81.491159 
L 549.963101 81.477533 
L 550.438426 81.927872 
L 551.230633 83.28979 
L 552.97349 88.743591 
L 553.607256 92.347664 
L 554.241022 97.577996 
L 554.716346 103.700145 
L 555.191671 113.901901 
L 555.508554 124.753606 
L 558.043618 238.230371 
L 558.360501 245.392838 
L 558.518942 247.167615 
L 558.677384 247.351565 
L 558.835825 245.516153 
L 559.152708 236.02025 
L 559.944916 201.768757 
L 562.163097 103.118986 
L 562.638421 92.352428 
L 563.113746 85.651171 
L 563.58907 81.351491 
L 564.222836 77.975652 
L 564.698161 76.367103 
L 565.015044 75.967861 
L 565.331927 75.182322 
L 565.807251 74.459463 
L 565.965693 74.297995 
L 566.124134 74.497616 
L 567.233225 73.86537 
L 567.391666 73.974378 
L 567.708549 73.883765 
L 568.025432 73.856513 
L 568.342315 73.467491 
L 569.292964 73.280133 
L 569.609847 72.985812 
L 571.669587 73.670518 
L 571.98647 73.912379 
L 572.303353 74.237359 
L 572.937119 74.706094 
L 573.254002 75.024261 
L 573.729326 75.272254 
L 574.679975 75.849997 
L 574.996858 76.227437 
L 575.1553 76.334401 
L 575.313741 76.278534 
L 575.947507 76.658018 
L 578.007247 77.828491 
L 578.165688 77.718121 
L 579.43322 78.490715 
L 579.591662 78.501616 
L 579.908545 78.843628 
L 580.542311 79.407744 
L 580.859194 79.830831 
L 581.651401 80.535977 
L 582.285167 81.424391 
L 582.760492 82.340739 
L 583.394258 83.669273 
L 584.186465 85.600076 
L 585.295556 90.788852 
L 585.77088 94.172183 
L 586.246205 98.897671 
L 586.721529 106.047217 
L 587.196854 118.246535 
L 587.672178 140.060981 
L 588.93971 201.923399 
L 589.890359 237.715311 
L 590.207242 245.134627 
L 590.365684 246.946875 
L 590.524125 247.021818 
L 590.682567 245.10942 
L 590.99945 235.500421 
L 591.950099 193.582296 
L 594.009838 102.058885 
L 594.485163 91.162879 
L 595.118929 83.056102 
L 595.752695 78.592228 
L 596.544902 75.772328 
L 597.020227 74.729939 
L 597.495551 74.187625 
L 597.812434 74.14334 
L 598.129317 73.640541 
L 598.763083 73.326461 
L 599.079966 73.347582 
L 599.238408 73.171125 
L 599.713732 73.175213 
L 600.030615 73.14251 
L 600.189057 72.907462 
L 601.456589 72.750763 
L 602.248796 73.207234 
L 603.357887 73.430019 
L 604.942302 74.505111 
L 605.100743 74.405641 
L 607.318924 75.59996 
L 607.635807 76.002608 
L 610.646196 77.800558 
L 610.963079 77.709945 
L 611.596845 78.086704 
L 611.755286 78.158922 
L 611.913728 78.075803 
L 612.547494 78.618118 
L 613.498143 79.436359 
L 614.448792 80.659292 
L 615.874765 84.179567 
L 616.666973 87.496814 
L 617.300739 91.323671 
L 617.934505 96.750217 
L 618.409829 103.001814 
L 618.885154 113.243767 
L 619.202037 124.306673 
L 621.578659 232.950324 
L 622.053984 245.086256 
L 622.212425 246.751344 
L 622.370867 246.730904 
L 622.529308 244.697236 
L 622.846191 234.789829 
L 623.638399 200.378912 
L 625.698138 106.293152 
L 626.173463 93.948709 
L 626.807229 84.631266 
L 627.124112 81.54498 
L 628.074761 76.90533 
L 628.866968 74.660447 
L 629.183851 74.14334 
L 629.500734 73.978465 
L 629.817617 73.442283 
L 630.451383 73.095501 
L 630.609825 72.800498 
L 631.402032 72.603602 
L 631.560474 72.438727 
L 631.718915 72.498682 
L 632.035798 72.706479 
L 633.30333 72.702391 
L 633.620213 72.755532 
L 633.937096 72.970823 
L 634.729304 73.239936 
L 635.046187 73.525401 
L 635.36307 73.394591 
L 636.630602 74.200569 
L 637.105926 74.412454 
L 637.581251 74.406322 
L 638.056575 74.702688 
L 638.373458 75.074677 
L 640.274756 76.119791 
L 640.433198 76.157263 
L 640.908522 76.657337 
L 641.066964 76.750675 
L 641.70073 76.506088 
L 643.126703 77.221453 
L 643.285145 77.191476 
L 643.443586 77.299121 
L 643.918911 77.14651 
L 644.394235 77.532807 
L 644.86956 78.280875 
L 646.295533 80.219853 
L 647.879948 84.604016 
L 648.513714 87.260403 
L 649.14748 90.852894 
L 649.622805 94.651136 
L 650.098129 100.167611 
L 650.573454 108.925019 
L 650.890337 118.021025 
L 651.365661 140.375058 
L 652.633193 202.326726 
L 653.583842 238.083892 
L 653.900725 245.26748 
L 654.059167 246.896459 
L 654.217608 246.711828 
L 654.37605 244.572558 
L 654.692933 234.650844 
L 655.48514 200.209951 
L 657.54488 106.020632 
L 658.020204 93.661201 
L 658.495529 85.801056 
L 658.970853 81.055125 
L 659.446178 78.120087 
L 660.396827 74.935692 
L 660.872151 74.142659 
L 661.505917 73.390504 
L 662.931891 72.651975 
L 663.248774 72.793685 
L 663.565657 72.561362 
L 664.199423 72.53411 
L 666.734487 72.602239 
L 668.002019 73.392547 
L 668.794226 73.872864 
L 669.111109 74.052046 
L 669.427992 74.335467 
L 670.378641 74.948637 
L 672.755264 76.236294 
L 673.547471 76.514264 
L 674.022796 76.901242 
L 674.181237 76.893067 
L 675.131886 77.600256 
L 675.765652 77.896621 
L 676.55786 79.24287 
L 677.191626 79.864897 
L 677.508509 80.231436 
L 677.983833 80.882077 
L 678.617599 82.130899 
L 679.251365 83.658373 
L 679.409807 83.932936 
L 679.72669 85.165407 
L 680.043573 86.260255 
L 680.677339 89.500515 
L 681.152663 92.704665 
L 681.627988 97.017968 
L 682.103312 103.454877 
L 682.578637 114.010909 
L 683.053961 132.84673 
L 684.321493 196.0915 
L 685.272142 233.683399 
L 685.747467 245.539999 
L 685.905908 246.970721 
L 686.06435 246.869208 
L 686.222791 244.592997 
L 686.539674 234.230485 
L 687.331882 199.512983 
L 689.391621 105.144482 
L 689.866946 93.107986 
L 690.34227 85.709762 
L 690.817595 81.042862 
L 691.292919 78.11123 
L 691.768244 76.018959 
L 692.40201 74.535769 
L 692.560451 74.466276 
L 693.194217 73.707989 
L 693.669542 73.239255 
L 693.986425 73.346219 
L 694.620191 73.167037 
L 695.412398 73.254244 
L 695.57084 73.002844 
L 695.57084 73.002844 
" clip-path="url(#p25d8f4ac8f)" style="fill: none; stroke: #d94452; stroke-width: 0.8; stroke-linecap: square"/>
   </g>
   <g id="text_19">
    <g id="patch_7">
     <path d="M 178.554781 297.974 
L 262.254781 297.974 
Q 265.254781 297.974 265.254781 294.974 
L 265.254781 284.374 
Q 265.254781 281.374 262.254781 281.374 
L 178.554781 281.374 
Q 175.554781 281.374 175.554781 284.374 
L 175.554781 294.974 
Q 175.554781 297.974 178.554781 297.974 
z
" style="fill: #ffffff; opacity: 0.85; stroke: #333333; stroke-linejoin: miter"/>
    </g>
    <!-- V$_{p-p}$ = 476.71 V -->
    <g style="fill: #333333" transform="translate(178.554781 291.874) scale(0.1 -0.1)">
     <defs>
      <path id="DejaVuSans-56" d="M 1831 0 
L 50 4666 
L 709 4666 
L 2188 738 
L 3669 4666 
L 4325 4666 
L 2547 0 
L 1831 0 
z
" transform="scale(0.015625)"/>
      <path id="DejaVuSans-Oblique-70" d="M 3175 2156 
Q 3175 2616 2975 2859 
Q 2775 3103 2400 3103 
Q 2144 3103 1911 2972 
Q 1678 2841 1497 2591 
Q 1319 2344 1212 1994 
Q 1106 1644 1106 1300 
Q 1106 863 1306 627 
Q 1506 391 1875 391 
Q 2147 391 2380 519 
Q 2613 647 2778 891 
Q 2956 1147 3065 1494 
Q 3175 1841 3175 2156 
z
M 1394 2969 
Q 1625 3272 1939 3428 
Q 2253 3584 2638 3584 
Q 3175 3584 3472 3232 
Q 3769 2881 3769 2247 
Q 3769 1728 3584 1258 
Q 3400 788 3053 416 
Q 2822 169 2531 39 
Q 2241 -91 1919 -91 
Q 1547 -91 1294 64 
Q 1041 219 916 525 
L 556 -1331 
L -19 -1331 
L 922 3500 
L 1497 3500 
L 1394 2969 
z
" transform="scale(0.015625)"/>
      <path id="DejaVuSans-20" transform="scale(0.015625)"/>
      <path id="DejaVuSans-3d" d="M 678 2906 
L 4684 2906 
L 4684 2381 
L 678 2381 
L 678 2906 
z
M 678 1631 
L 4684 1631 
L 4684 1100 
L 678 1100 
L 678 1631 
z
" transform="scale(0.015625)"/>
      <path id="DejaVuSans-37" d="M 525 4666 
L 3525 4666 
L 3525 4397 
L 1831 0 
L 1172 0 
L 2766 4134 
L 525 4134 
L 525 4666 
z
" transform="scale(0.015625)"/>
      <path id="DejaVuSans-36" d="M 2113 2584 
Q 1688 2584 1439 2293 
Q 1191 2003 1191 1497 
Q 1191 994 1439 701 
Q 1688 409 2113 409 
Q 2538 409 2786 701 
Q 3034 994 3034 1497 
Q 3034 2003 2786 2293 
Q 2538 2584 2113 2584 
z
M 3366 4563 
L 3366 3988 
Q 3128 4100 2886 4159 
Q 2644 4219 2406 4219 
Q 1781 4219 1451 3797 
Q 1122 3375 1075 2522 
Q 1259 2794 1537 2939 
Q 1816 3084 2150 3084 
Q 2853 3084 3261 2657 
Q 3669 2231 3669 1497 
Q 3669 778 3244 343 
Q 2819 -91 2113 -91 
Q 1303 -91 875 529 
Q 447 1150 447 2328 
Q 447 3434 972 4092 
Q 1497 4750 2381 4750 
Q 2619 4750 2861 4703 
Q 3103 4656 3366 4563 
z
" transform="scale(0.015625)"/>
     </defs>
     <use xlink:href="#DejaVuSans-56" transform="translate(0 0.78125)"/>
     <use xlink:href="#DejaVuSans-Oblique-70" transform="translate(69.365234 -15.625) scale(0.7)"/>
     <use xlink:href="#DejaVuSans-2212" transform="translate(127.436523 -15.625) scale(0.7)"/>
     <use xlink:href="#DejaVuSans-Oblique-70" transform="translate(199.726562 -15.625) scale(0.7)"/>
     <use xlink:href="#DejaVuSans-20" transform="translate(246.894531 0.78125)"/>
     <use xlink:href="#DejaVuSans-3d" transform="translate(278.681641 0.78125)"/>
     <use xlink:href="#DejaVuSans-20" transform="translate(362.470703 0.78125)"/>
     <use xlink:href="#DejaVuSans-34" transform="translate(394.257812 0.78125)"/>
     <use xlink:href="#DejaVuSans-37" transform="translate(457.880859 0.78125)"/>
     <use xlink:href="#DejaVuSans-36" transform="translate(521.503906 0.78125)"/>
     <use xlink:href="#DejaVuSans-2e" transform="translate(585.126953 0.78125)"/>
     <use xlink:href="#DejaVuSans-37" transform="translate(609.164062 0.78125)"/>
     <use xlink:href="#DejaVuSans-31" transform="translate(672.787109 0.78125)"/>
     <use xlink:href="#DejaVuSans-20" transform="translate(736.410156 0.78125)"/>
     <use xlink:href="#DejaVuSans-56" transform="translate(768.197266 0.78125)"/>
    </g>
   </g>
   <g id="text_20">
    <g id="patch_8">
     <path d="M 495.037781 297.974 
L 579.537781 297.974 
Q 582.537781 297.974 582.537781 294.974 
L 582.537781 284.374 
Q 582.537781 281.374 579.537781 281.374 
L 495.037781 281.374 
Q 492.037781 281.374 492.037781 284.374 
L 492.037781 294.974 
Q 492.037781 297.974 495.037781 297.974 
z
" style="fill: #ffffff; opacity: 0.85; stroke: #d94452; stroke-linejoin: miter"/>
    </g>
    <!-- V$_{p-p}$ = 395.35 V -->
    <g style="fill: #d94452" transform="translate(495.037781 291.874) scale(0.1 -0.1)">
     <defs>
      <path id="DejaVuSans-39" d="M 703 97 
L 703 672 
Q 941 559 1184 500 
Q 1428 441 1663 441 
Q 2288 441 2617 861 
Q 2947 1281 2994 2138 
Q 2813 1869 2534 1725 
Q 2256 1581 1919 1581 
Q 1219 1581 811 2004 
Q 403 2428 403 3163 
Q 403 3881 828 4315 
Q 1253 4750 1959 4750 
Q 2769 4750 3195 4129 
Q 3622 3509 3622 2328 
Q 3622 1225 3098 567 
Q 2575 -91 1691 -91 
Q 1453 -91 1209 -44 
Q 966 3 703 97 
z
M 1959 2075 
Q 2384 2075 2632 2365 
Q 2881 2656 2881 3163 
Q 2881 3666 2632 3958 
Q 2384 4250 1959 4250 
Q 1534 4250 1286 3958 
Q 1038 3666 1038 3163 
Q 1038 2656 1286 2365 
Q 1534 2075 1959 2075 
z
" transform="scale(0.015625)"/>
     </defs>
     <use xlink:href="#DejaVuSans-56" transform="translate(0 0.78125)"/>
     <use xlink:href="#DejaVuSans-Oblique-70" transform="translate(69.365234 -15.625) scale(0.7)"/>
     <use xlink:href="#DejaVuSans-2212" transform="translate(127.436523 -15.625) scale(0.7)"/>
     <use xlink:href="#DejaVuSans-Oblique-70" transform="translate(199.726562 -15.625) scale(0.7)"/>
     <use xlink:href="#DejaVuSans-20" transform="translate(246.894531 0.78125)"/>
     <use xlink:href="#DejaVuSans-3d" transform="translate(278.681641 0.78125)"/>
     <use xlink:href="#DejaVuSans-20" transform="translate(362.470703 0.78125)"/>
     <use xlink:href="#DejaVuSans-33" transform="translate(394.257812 0.78125)"/>
     <use xlink:href="#DejaVuSans-39" transform="translate(457.880859 0.78125)"/>
     <use xlink:href="#DejaVuSans-35" transform="translate(521.503906 0.78125)"/>
     <use xlink:href="#DejaVuSans-2e" transform="translate(585.126953 0.78125)"/>
     <use xlink:href="#DejaVuSans-33" transform="translate(616.914062 0.78125)"/>
     <use xlink:href="#DejaVuSans-35" transform="translate(680.537109 0.78125)"/>
     <use xlink:href="#DejaVuSans-20" transform="translate(744.160156 0.78125)"/>
     <use xlink:href="#DejaVuSans-56" transform="translate(775.947266 0.78125)"/>
    </g>
   </g>
   <g id="text_21">
    <g id="patch_9">
     <path d="M 619.099895 40.127563 
L 676.716301 40.127563 
Q 681.916301 40.127563 681.916301 34.927563 
L 681.916301 22.346 
Q 681.916301 17.146 676.716301 17.146 
L 619.099895 17.146 
Q 613.899895 17.146 613.899895 22.346 
L 613.899895 34.927563 
Q 613.899895 40.127563 619.099895 40.127563 
z
" style="fill: #ffffff; opacity: 0.9; stroke: #f0ad4e; stroke-width: 1.5; stroke-linejoin: miter"/>
    </g>
    <!-- f = 5 Hz -->
    <g style="fill: #f0ad4e" transform="translate(619.099895 32.223969) scale(0.13 -0.13)">
     <defs>
      <path id="DejaVuSans-Bold-66" d="M 2841 4863 
L 2841 4128 
L 2222 4128 
Q 1984 4128 1890 4042 
Q 1797 3956 1797 3744 
L 1797 3500 
L 2753 3500 
L 2753 2700 
L 1797 2700 
L 1797 0 
L 678 0 
L 678 2700 
L 122 2700 
L 122 3500 
L 678 3500 
L 678 3744 
Q 678 4316 997 4589 
Q 1316 4863 1984 4863 
L 2841 4863 
z
" transform="scale(0.015625)"/>
      <path id="DejaVuSans-Bold-3d" d="M 678 3084 
L 4684 3084 
L 4684 2350 
L 678 2350 
L 678 3084 
z
M 678 1663 
L 4684 1663 
L 4684 922 
L 678 922 
L 678 1663 
z
" transform="scale(0.015625)"/>
      <path id="DejaVuSans-Bold-35" d="M 678 4666 
L 3669 4666 
L 3669 3781 
L 1638 3781 
L 1638 3059 
Q 1775 3097 1914 3117 
Q 2053 3138 2203 3138 
Q 3056 3138 3531 2711 
Q 4006 2284 4006 1522 
Q 4006 766 3489 337 
Q 2972 -91 2053 -91 
Q 1656 -91 1267 -14 
Q 878 63 494 219 
L 494 1166 
Q 875 947 1217 837 
Q 1559 728 1863 728 
Q 2300 728 2551 942 
Q 2803 1156 2803 1522 
Q 2803 1891 2551 2103 
Q 2300 2316 1863 2316 
Q 1603 2316 1309 2248 
Q 1016 2181 678 2041 
L 678 4666 
z
" transform="scale(0.015625)"/>
      <path id="DejaVuSans-Bold-48" d="M 588 4666 
L 1791 4666 
L 1791 2888 
L 3566 2888 
L 3566 4666 
L 4769 4666 
L 4769 0 
L 3566 0 
L 3566 1978 
L 1791 1978 
L 1791 0 
L 588 0 
L 588 4666 
z
" transform="scale(0.015625)"/>
      <path id="DejaVuSans-Bold-7a" d="M 366 3500 
L 3419 3500 
L 3419 2719 
L 1575 800 
L 3419 800 
L 3419 0 
L 288 0 
L 288 781 
L 2131 2700 
L 366 2700 
L 366 3500 
z
" transform="scale(0.015625)"/>
     </defs>
     <use xlink:href="#DejaVuSans-Bold-66"/>
     <use xlink:href="#DejaVuSans-Bold-20" transform="translate(43.505859 0)"/>
     <use xlink:href="#DejaVuSans-Bold-3d" transform="translate(78.320312 0)"/>
     <use xlink:href="#DejaVuSans-Bold-20" transform="translate(162.109375 0)"/>
     <use xlink:href="#DejaVuSans-Bold-35" transform="translate(196.923828 0)"/>
     <use xlink:href="#DejaVuSans-Bold-20" transform="translate(266.503906 0)"/>
     <use xlink:href="#DejaVuSans-Bold-48" transform="translate(301.318359 0)"/>
     <use xlink:href="#DejaVuSans-Bold-7a" transform="translate(385.009766 0)"/>
    </g>
   </g>
   <g id="text_22">
    <!-- Without MIC -->
    <g style="fill: #333333" transform="translate(171.67275 32.983812) scale(0.14 -0.14)">
     <defs>
      <path id="DejaVuSans-Bold-57" d="M 191 4666 
L 1344 4666 
L 2150 1275 
L 2950 4666 
L 4109 4666 
L 4909 1275 
L 5716 4666 
L 6859 4666 
L 5759 0 
L 4372 0 
L 3525 3547 
L 2688 0 
L 1300 0 
L 191 4666 
z
" transform="scale(0.015625)"/>
      <path id="DejaVuSans-Bold-74" d="M 1759 4494 
L 1759 3500 
L 2913 3500 
L 2913 2700 
L 1759 2700 
L 1759 1216 
Q 1759 972 1856 886 
Q 1953 800 2241 800 
L 2816 800 
L 2816 0 
L 1856 0 
Q 1194 0 917 276 
Q 641 553 641 1216 
L 641 2700 
L 84 2700 
L 84 3500 
L 641 3500 
L 641 4494 
L 1759 4494 
z
" transform="scale(0.015625)"/>
      <path id="DejaVuSans-Bold-68" d="M 4056 2131 
L 4056 0 
L 2931 0 
L 2931 347 
L 2931 1625 
Q 2931 2084 2911 2256 
Q 2891 2428 2841 2509 
Q 2775 2619 2662 2680 
Q 2550 2741 2406 2741 
Q 2056 2741 1856 2470 
Q 1656 2200 1656 1722 
L 1656 0 
L 538 0 
L 538 4863 
L 1656 4863 
L 1656 2988 
Q 1909 3294 2193 3439 
Q 2478 3584 2822 3584 
Q 3428 3584 3742 3212 
Q 4056 2841 4056 2131 
z
" transform="scale(0.015625)"/>
      <path id="DejaVuSans-Bold-6f" d="M 2203 2784 
Q 1831 2784 1636 2517 
Q 1441 2250 1441 1747 
Q 1441 1244 1636 976 
Q 1831 709 2203 709 
Q 2569 709 2762 976 
Q 2956 1244 2956 1747 
Q 2956 2250 2762 2517 
Q 2569 2784 2203 2784 
z
M 2203 3584 
Q 3106 3584 3614 3096 
Q 4122 2609 4122 1747 
Q 4122 884 3614 396 
Q 3106 -91 2203 -91 
Q 1297 -91 786 396 
Q 275 884 275 1747 
Q 275 2609 786 3096 
Q 1297 3584 2203 3584 
z
" transform="scale(0.015625)"/>
      <path id="DejaVuSans-Bold-75" d="M 500 1363 
L 500 3500 
L 1625 3500 
L 1625 3150 
Q 1625 2866 1622 2436 
Q 1619 2006 1619 1863 
Q 1619 1441 1641 1255 
Q 1663 1069 1716 984 
Q 1784 875 1895 815 
Q 2006 756 2150 756 
Q 2500 756 2700 1025 
Q 2900 1294 2900 1772 
L 2900 3500 
L 4019 3500 
L 4019 0 
L 2900 0 
L 2900 506 
Q 2647 200 2364 54 
Q 2081 -91 1741 -91 
Q 1134 -91 817 281 
Q 500 653 500 1363 
z
" transform="scale(0.015625)"/>
      <path id="DejaVuSans-Bold-4d" d="M 588 4666 
L 2119 4666 
L 3181 2169 
L 4250 4666 
L 5778 4666 
L 5778 0 
L 4641 0 
L 4641 3413 
L 3566 897 
L 2803 897 
L 1728 3413 
L 1728 0 
L 588 0 
L 588 4666 
z
" transform="scale(0.015625)"/>
      <path id="DejaVuSans-Bold-49" d="M 588 4666 
L 1791 4666 
L 1791 0 
L 588 0 
L 588 4666 
z
" transform="scale(0.015625)"/>
      <path id="DejaVuSans-Bold-43" d="M 4288 256 
Q 3956 84 3597 -3 
Q 3238 -91 2847 -91 
Q 1681 -91 1000 561 
Q 319 1213 319 2328 
Q 319 3447 1000 4098 
Q 1681 4750 2847 4750 
Q 3238 4750 3597 4662 
Q 3956 4575 4288 4403 
L 4288 3438 
Q 3953 3666 3628 3772 
Q 3303 3878 2944 3878 
Q 2300 3878 1931 3465 
Q 1563 3053 1563 2328 
Q 1563 1606 1931 1193 
Q 2300 781 2944 781 
Q 3303 781 3628 887 
Q 3953 994 4288 1222 
L 4288 256 
z
" transform="scale(0.015625)"/>
     </defs>
     <use xlink:href="#DejaVuSans-Bold-57"/>
     <use xlink:href="#DejaVuSans-Bold-69" transform="translate(110.302734 0)"/>
     <use xlink:href="#DejaVuSans-Bold-74" transform="translate(144.580078 0)"/>
     <use xlink:href="#DejaVuSans-Bold-68" transform="translate(192.382812 0)"/>
     <use xlink:href="#DejaVuSans-Bold-6f" transform="translate(263.574219 0)"/>
     <use xlink:href="#DejaVuSans-Bold-75" transform="translate(332.275391 0)"/>
     <use xlink:href="#DejaVuSans-Bold-74" transform="translate(403.466797 0)"/>
     <use xlink:href="#DejaVuSans-Bold-20" transform="translate(451.269531 0)"/>
     <use xlink:href="#DejaVuSans-Bold-4d" transform="translate(486.083984 0)"/>
     <use xlink:href="#DejaVuSans-Bold-49" transform="translate(585.595703 0)"/>
     <use xlink:href="#DejaVuSans-Bold-43" transform="translate(622.802734 0)"/>
    </g>
   </g>
   <g id="text_23">
    <!-- With MIC -->
    <g style="fill: #d94452" transform="translate(501.693875 32.983812) scale(0.14 -0.14)">
     <use xlink:href="#DejaVuSans-Bold-57"/>
     <use xlink:href="#DejaVuSans-Bold-69" transform="translate(110.302734 0)"/>
     <use xlink:href="#DejaVuSans-Bold-74" transform="translate(144.580078 0)"/>
     <use xlink:href="#DejaVuSans-Bold-68" transform="translate(192.382812 0)"/>
     <use xlink:href="#DejaVuSans-Bold-20" transform="translate(263.574219 0)"/>
     <use xlink:href="#DejaVuSans-Bold-4d" transform="translate(298.388672 0)"/>
     <use xlink:href="#DejaVuSans-Bold-49" transform="translate(397.900391 0)"/>
     <use xlink:href="#DejaVuSans-Bold-43" transform="translate(435.107422 0)"/>
    </g>
   </g>
  </g>
 </g>
 <defs>
  <clipPath id="p25d8f4ac8f">
   <rect x="61.963281" y="7.2" width="633.766" height="302.92"/>
  </clipPath>
 </defs>
</svg>
