<?xml version="1.0" encoding="utf-8" standalone="no"?>
<!DOCTYPE svg PUBLIC "-//W3C//DTD SVG 1.1//EN"
  "http://www.w3.org/Graphics/SVG/1.1/DTD/svg11.dtd">
<svg xmlns:xlink="http://www.w3.org/1999/xlink" width="711.676pt" height="352.515313pt" viewBox="0 0 711.676 352.515313" xmlns="http://www.w3.org/2000/svg" version="1.1">
 <metadata>
  <rdf:RDF xmlns:dc="http://purl.org/dc/elements/1.1/" xmlns:cc="http://creativecommons.org/ns#" xmlns:rdf="http://www.w3.org/1999/02/22-rdf-syntax-ns#">
   <cc:Work>
    <dc:type rdf:resource="http://purl.org/dc/dcmitype/StillImage"/>
    <dc:date>2026-04-26T15:59:23.721189</dc:date>
    <dc:format>image/svg+xml</dc:format>
    <dc:creator>
     <cc:Agent>
      <dc:title>Matplotlib v3.10.8, https://matplotlib.org/</dc:title>
     </cc:Agent>
    </dc:creator>
   </cc:Work>
  </rdf:RDF>
 </metadata>
 <defs>
  <style type="text/css">*{stroke-linejoin: round; stroke-linecap: butt}</style>
 </defs>
 <g id="figure_1">
  <g id="patch_1">
   <path d="M 0 352.515313 
L 711.676 352.515313 
L 711.676 0 
L 0 0 
z
" style="fill: #ffffff"/>
  </g>
  <g id="axes_1">
   <g id="patch_2">
    <path d="M 61.963281 310.12 
L 695.729281 310.12 
L 695.729281 7.2 
L 61.963281 7.2 
z
" style="fill: #ffffff"/>
   </g>
   <g id="patch_3">
    <path d="M 61.963281 310.12 
L 378.846281 310.12 
L 378.846281 7.2 
L 61.963281 7.2 
z
" clip-path="url(#pcd0dedc1fe)" style="fill: #cccccc; opacity: 0.12; stroke: #cccccc; stroke-linejoin: miter"/>
   </g>
   <g id="patch_4">
    <path d="M 378.846281 310.12 
L 695.729281 310.12 
L 695.729281 7.2 
L 378.846281 7.2 
z
" clip-path="url(#pcd0dedc1fe)" style="fill: #d94452; opacity: 0.06; stroke: #d94452; stroke-linejoin: miter"/>
   </g>
   <g id="line2d_1">
    <path d="M 378.846281 310.12 
L 378.846281 7.2 
" clip-path="url(#pcd0dedc1fe)" style="fill: none; stroke-dasharray: 3.7,1.6; stroke-dashoffset: 0; stroke: #999999"/>
   </g>
   <g id="matplotlib.axis_1">
    <g id="xtick_1">
     <g id="line2d_2">
      <defs>
       <path id="m9f461cffc1" d="M 0 0 
L 0 3.5 
" style="stroke: #000000; stroke-width: 0.8"/>
      </defs>
      <g>
       <use xlink:href="#m9f461cffc1" x="61.963281" y="310.12" style="stroke: #000000; stroke-width: 0.8"/>
      </g>
     </g>
     <g id="text_1">
      <!-- 0.0 -->
      <g transform="translate(53.216563 325.478281) scale(0.11 -0.11)">
       <defs>
        <path id="DejaVuSans-30" d="M 2034 4250 
Q 1547 4250 1301 3770 
Q 1056 3291 1056 2328 
Q 1056 1369 1301 889 
Q 1547 409 2034 409 
Q 2525 409 2770 889 
Q 3016 1369 3016 2328 
Q 3016 3291 2770 3770 
Q 2525 4250 2034 4250 
z
M 2034 4750 
Q 2819 4750 3233 4129 
Q 3647 3509 3647 2328 
Q 3647 1150 3233 529 
Q 2819 -91 2034 -91 
Q 1250 -91 836 529 
Q 422 1150 422 2328 
Q 422 3509 836 4129 
Q 1250 4750 2034 4750 
z
" transform="scale(0.015625)"/>
        <path id="DejaVuSans-2e" d="M 684 794 
L 1344 794 
L 1344 0 
L 684 0 
L 684 794 
z
" transform="scale(0.015625)"/>
       </defs>
       <use xlink:href="#DejaVuSans-30"/>
       <use xlink:href="#DejaVuSans-2e" transform="translate(63.623047 0)"/>
       <use xlink:href="#DejaVuSans-30" transform="translate(95.410156 0)"/>
      </g>
     </g>
    </g>
    <g id="xtick_2">
     <g id="line2d_3">
      <g>
       <use xlink:href="#m9f461cffc1" x="141.184031" y="310.12" style="stroke: #000000; stroke-width: 0.8"/>
      </g>
     </g>
     <g id="text_2">
      <!-- 0.5 -->
      <g transform="translate(132.437313 325.478281) scale(0.11 -0.11)">
       <defs>
        <path id="DejaVuSans-35" d="M 691 4666 
L 3169 4666 
L 3169 4134 
L 1269 4134 
L 1269 2991 
Q 1406 3038 1543 3061 
Q 1681 3084 1819 3084 
Q 2600 3084 3056 2656 
Q 3513 2228 3513 1497 
Q 3513 744 3044 326 
Q 2575 -91 1722 -91 
Q 1428 -91 1123 -41 
Q 819 9 494 109 
L 494 744 
Q 775 591 1075 516 
Q 1375 441 1709 441 
Q 2250 441 2565 725 
Q 2881 1009 2881 1497 
Q 2881 1984 2565 2268 
Q 2250 2553 1709 2553 
Q 1456 2553 1204 2497 
Q 953 2441 691 2322 
L 691 4666 
z
" transform="scale(0.015625)"/>
       </defs>
       <use xlink:href="#DejaVuSans-30"/>
       <use xlink:href="#DejaVuSans-2e" transform="translate(63.623047 0)"/>
       <use xlink:href="#DejaVuSans-35" transform="translate(95.410156 0)"/>
      </g>
     </g>
    </g>
    <g id="xtick_3">
     <g id="line2d_4">
      <g>
       <use xlink:href="#m9f461cffc1" x="220.404781" y="310.12" style="stroke: #000000; stroke-width: 0.8"/>
      </g>
     </g>
     <g id="text_3">
      <!-- 1.0 -->
      <g transform="translate(211.658062 325.478281) scale(0.11 -0.11)">
       <defs>
        <path id="DejaVuSans-31" d="M 794 531 
L 1825 531 
L 1825 4091 
L 703 3866 
L 703 4441 
L 1819 4666 
L 2450 4666 
L 2450 531 
L 3481 531 
L 3481 0 
L 794 0 
L 794 531 
z
" transform="scale(0.015625)"/>
       </defs>
       <use xlink:href="#DejaVuSans-31"/>
       <use xlink:href="#DejaVuSans-2e" transform="translate(63.623047 0)"/>
       <use xlink:href="#DejaVuSans-30" transform="translate(95.410156 0)"/>
      </g>
     </g>
    </g>
    <g id="xtick_4">
     <g id="line2d_5">
      <g>
       <use xlink:href="#m9f461cffc1" x="299.625531" y="310.12" style="stroke: #000000; stroke-width: 0.8"/>
      </g>
     </g>
     <g id="text_4">
      <!-- 1.5 -->
      <g transform="translate(290.878812 325.478281) scale(0.11 -0.11)">
       <use xlink:href="#DejaVuSans-31"/>
       <use xlink:href="#DejaVuSans-2e" transform="translate(63.623047 0)"/>
       <use xlink:href="#DejaVuSans-35" transform="translate(95.410156 0)"/>
      </g>
     </g>
    </g>
    <g id="xtick_5">
     <g id="line2d_6">
      <g>
       <use xlink:href="#m9f461cffc1" x="378.846281" y="310.12" style="stroke: #000000; stroke-width: 0.8"/>
      </g>
     </g>
     <g id="text_5">
      <!-- 2.0 -->
      <g transform="translate(370.099562 325.478281) scale(0.11 -0.11)">
       <defs>
        <path id="DejaVuSans-32" d="M 1228 531 
L 3431 531 
L 3431 0 
L 469 0 
L 469 531 
Q 828 903 1448 1529 
Q 2069 2156 2228 2338 
Q 2531 2678 2651 2914 
Q 2772 3150 2772 3378 
Q 2772 3750 2511 3984 
Q 2250 4219 1831 4219 
Q 1534 4219 1204 4116 
Q 875 4013 500 3803 
L 500 4441 
Q 881 4594 1212 4672 
Q 1544 4750 1819 4750 
Q 2544 4750 2975 4387 
Q 3406 4025 3406 3419 
Q 3406 3131 3298 2873 
Q 3191 2616 2906 2266 
Q 2828 2175 2409 1742 
Q 1991 1309 1228 531 
z
" transform="scale(0.015625)"/>
       </defs>
       <use xlink:href="#DejaVuSans-32"/>
       <use xlink:href="#DejaVuSans-2e" transform="translate(63.623047 0)"/>
       <use xlink:href="#DejaVuSans-30" transform="translate(95.410156 0)"/>
      </g>
     </g>
    </g>
    <g id="xtick_6">
     <g id="line2d_7">
      <g>
       <use xlink:href="#m9f461cffc1" x="458.067031" y="310.12" style="stroke: #000000; stroke-width: 0.8"/>
      </g>
     </g>
     <g id="text_6">
      <!-- 2.5 -->
      <g transform="translate(449.320312 325.478281) scale(0.11 -0.11)">
       <use xlink:href="#DejaVuSans-32"/>
       <use xlink:href="#DejaVuSans-2e" transform="translate(63.623047 0)"/>
       <use xlink:href="#DejaVuSans-35" transform="translate(95.410156 0)"/>
      </g>
     </g>
    </g>
    <g id="xtick_7">
     <g id="line2d_8">
      <g>
       <use xlink:href="#m9f461cffc1" x="537.287781" y="310.12" style="stroke: #000000; stroke-width: 0.8"/>
      </g>
     </g>
     <g id="text_7">
      <!-- 3.0 -->
      <g transform="translate(528.541062 325.478281) scale(0.11 -0.11)">
       <defs>
        <path id="DejaVuSans-33" d="M 2597 2516 
Q 3050 2419 3304 2112 
Q 3559 1806 3559 1356 
Q 3559 666 3084 287 
Q 2609 -91 1734 -91 
Q 1441 -91 1130 -33 
Q 819 25 488 141 
L 488 750 
Q 750 597 1062 519 
Q 1375 441 1716 441 
Q 2309 441 2620 675 
Q 2931 909 2931 1356 
Q 2931 1769 2642 2001 
Q 2353 2234 1838 2234 
L 1294 2234 
L 1294 2753 
L 1863 2753 
Q 2328 2753 2575 2939 
Q 2822 3125 2822 3475 
Q 2822 3834 2567 4026 
Q 2313 4219 1838 4219 
Q 1578 4219 1281 4162 
Q 984 4106 628 3988 
L 628 4550 
Q 988 4650 1302 4700 
Q 1616 4750 1894 4750 
Q 2613 4750 3031 4423 
Q 3450 4097 3450 3541 
Q 3450 3153 3228 2886 
Q 3006 2619 2597 2516 
z
" transform="scale(0.015625)"/>
       </defs>
       <use xlink:href="#DejaVuSans-33"/>
       <use xlink:href="#DejaVuSans-2e" transform="translate(63.623047 0)"/>
       <use xlink:href="#DejaVuSans-30" transform="translate(95.410156 0)"/>
      </g>
     </g>
    </g>
    <g id="xtick_8">
     <g id="line2d_9">
      <g>
       <use xlink:href="#m9f461cffc1" x="616.508531" y="310.12" style="stroke: #000000; stroke-width: 0.8"/>
      </g>
     </g>
     <g id="text_8">
      <!-- 3.5 -->
      <g transform="translate(607.761813 325.478281) scale(0.11 -0.11)">
       <use xlink:href="#DejaVuSans-33"/>
       <use xlink:href="#DejaVuSans-2e" transform="translate(63.623047 0)"/>
       <use xlink:href="#DejaVuSans-35" transform="translate(95.410156 0)"/>
      </g>
     </g>
    </g>
    <g id="xtick_9">
     <g id="line2d_10">
      <g>
       <use xlink:href="#m9f461cffc1" x="695.729281" y="310.12" style="stroke: #000000; stroke-width: 0.8"/>
      </g>
     </g>
     <g id="text_9">
      <!-- 4.0 -->
      <g transform="translate(686.982562 325.478281) scale(0.11 -0.11)">
       <defs>
        <path id="DejaVuSans-34" d="M 2419 4116 
L 825 1625 
L 2419 1625 
L 2419 4116 
z
M 2253 4666 
L 3047 4666 
L 3047 1625 
L 3713 1625 
L 3713 1100 
L 3047 1100 
L 3047 0 
L 2419 0 
L 2419 1100 
L 313 1100 
L 313 1709 
L 2253 4666 
z
" transform="scale(0.015625)"/>
       </defs>
       <use xlink:href="#DejaVuSans-34"/>
       <use xlink:href="#DejaVuSans-2e" transform="translate(63.623047 0)"/>
       <use xlink:href="#DejaVuSans-30" transform="translate(95.410156 0)"/>
      </g>
     </g>
    </g>
    <g id="text_10">
     <!-- Time (s) -->
     <g transform="translate(346.627687 342.40375) scale(0.14 -0.14)">
      <defs>
       <path id="DejaVuSans-Bold-54" d="M 31 4666 
L 4331 4666 
L 4331 3756 
L 2784 3756 
L 2784 0 
L 1581 0 
L 1581 3756 
L 31 3756 
L 31 4666 
z
" transform="scale(0.015625)"/>
       <path id="DejaVuSans-Bold-69" d="M 538 3500 
L 1656 3500 
L 1656 0 
L 538 0 
L 538 3500 
z
M 538 4863 
L 1656 4863 
L 1656 3950 
L 538 3950 
L 538 4863 
z
" transform="scale(0.015625)"/>
       <path id="DejaVuSans-Bold-6d" d="M 3781 2919 
Q 3994 3244 4286 3414 
Q 4578 3584 4928 3584 
Q 5531 3584 5847 3212 
Q 6163 2841 6163 2131 
L 6163 0 
L 5038 0 
L 5038 1825 
Q 5041 1866 5042 1909 
Q 5044 1953 5044 2034 
Q 5044 2406 4934 2573 
Q 4825 2741 4581 2741 
Q 4263 2741 4089 2478 
Q 3916 2216 3909 1719 
L 3909 0 
L 2784 0 
L 2784 1825 
Q 2784 2406 2684 2573 
Q 2584 2741 2328 2741 
Q 2006 2741 1831 2477 
Q 1656 2213 1656 1722 
L 1656 0 
L 531 0 
L 531 3500 
L 1656 3500 
L 1656 2988 
Q 1863 3284 2130 3434 
Q 2397 3584 2719 3584 
Q 3081 3584 3359 3409 
Q 3638 3234 3781 2919 
z
" transform="scale(0.015625)"/>
       <path id="DejaVuSans-Bold-65" d="M 4031 1759 
L 4031 1441 
L 1416 1441 
Q 1456 1047 1700 850 
Q 1944 653 2381 653 
Q 2734 653 3104 758 
Q 3475 863 3866 1075 
L 3866 213 
Q 3469 63 3072 -14 
Q 2675 -91 2278 -91 
Q 1328 -91 801 392 
Q 275 875 275 1747 
Q 275 2603 792 3093 
Q 1309 3584 2216 3584 
Q 3041 3584 3536 3087 
Q 4031 2591 4031 1759 
z
M 2881 2131 
Q 2881 2450 2695 2645 
Q 2509 2841 2209 2841 
Q 1884 2841 1681 2658 
Q 1478 2475 1428 2131 
L 2881 2131 
z
" transform="scale(0.015625)"/>
       <path id="DejaVuSans-Bold-20" transform="scale(0.015625)"/>
       <path id="DejaVuSans-Bold-28" d="M 2413 -844 
L 1484 -844 
Q 1006 -72 778 623 
Q 550 1319 550 2003 
Q 550 2688 779 3389 
Q 1009 4091 1484 4856 
L 2413 4856 
Q 2013 4116 1813 3408 
Q 1613 2700 1613 2009 
Q 1613 1319 1811 609 
Q 2009 -100 2413 -844 
z
" transform="scale(0.015625)"/>
       <path id="DejaVuSans-Bold-73" d="M 3272 3391 
L 3272 2541 
Q 2913 2691 2578 2766 
Q 2244 2841 1947 2841 
Q 1628 2841 1473 2761 
Q 1319 2681 1319 2516 
Q 1319 2381 1436 2309 
Q 1553 2238 1856 2203 
L 2053 2175 
Q 2913 2066 3209 1816 
Q 3506 1566 3506 1031 
Q 3506 472 3093 190 
Q 2681 -91 1863 -91 
Q 1516 -91 1145 -36 
Q 775 19 384 128 
L 384 978 
Q 719 816 1070 734 
Q 1422 653 1784 653 
Q 2113 653 2278 743 
Q 2444 834 2444 1013 
Q 2444 1163 2330 1236 
Q 2216 1309 1875 1350 
L 1678 1375 
Q 931 1469 631 1722 
Q 331 1975 331 2491 
Q 331 3047 712 3315 
Q 1094 3584 1881 3584 
Q 2191 3584 2531 3537 
Q 2872 3491 3272 3391 
z
" transform="scale(0.015625)"/>
       <path id="DejaVuSans-Bold-29" d="M 513 -844 
Q 913 -100 1113 609 
Q 1313 1319 1313 2009 
Q 1313 2700 1113 3408 
Q 913 4116 513 4856 
L 1441 4856 
Q 1916 4091 2145 3389 
Q 2375 2688 2375 2003 
Q 2375 1319 2147 623 
Q 1919 -72 1441 -844 
L 513 -844 
z
" transform="scale(0.015625)"/>
      </defs>
      <use xlink:href="#DejaVuSans-Bold-54"/>
      <use xlink:href="#DejaVuSans-Bold-69" transform="translate(68.212891 0)"/>
      <use xlink:href="#DejaVuSans-Bold-6d" transform="translate(102.490234 0)"/>
      <use xlink:href="#DejaVuSans-Bold-65" transform="translate(206.689453 0)"/>
      <use xlink:href="#DejaVuSans-Bold-20" transform="translate(274.511719 0)"/>
      <use xlink:href="#DejaVuSans-Bold-28" transform="translate(309.326172 0)"/>
      <use xlink:href="#DejaVuSans-Bold-73" transform="translate(355.029297 0)"/>
      <use xlink:href="#DejaVuSans-Bold-29" transform="translate(414.550781 0)"/>
     </g>
    </g>
   </g>
   <g id="matplotlib.axis_2">
    <g id="ytick_1">
     <g id="line2d_11">
      <defs>
       <path id="m788bf6c0e7" d="M 0 0 
L -3.5 0 
" style="stroke: #000000; stroke-width: 0.8"/>
      </defs>
      <g>
       <use xlink:href="#m788bf6c0e7" x="61.963281" y="291.929186" style="stroke: #000000; stroke-width: 0.8"/>
      </g>
     </g>
     <g id="text_11">
      <!-- −300 -->
      <g transform="translate(24.749375 296.108326) scale(0.11 -0.11)">
       <defs>
        <path id="DejaVuSans-2212" d="M 678 2272 
L 4684 2272 
L 4684 1741 
L 678 1741 
L 678 2272 
z
" transform="scale(0.015625)"/>
       </defs>
       <use xlink:href="#DejaVuSans-2212"/>
       <use xlink:href="#DejaVuSans-33" transform="translate(83.789062 0)"/>
       <use xlink:href="#DejaVuSans-30" transform="translate(147.412109 0)"/>
       <use xlink:href="#DejaVuSans-30" transform="translate(211.035156 0)"/>
      </g>
     </g>
    </g>
    <g id="ytick_2">
     <g id="line2d_12">
      <g>
       <use xlink:href="#m788bf6c0e7" x="61.963281" y="247.506124" style="stroke: #000000; stroke-width: 0.8"/>
      </g>
     </g>
     <g id="text_12">
      <!-- −200 -->
      <g transform="translate(24.749375 251.685264) scale(0.11 -0.11)">
       <use xlink:href="#DejaVuSans-2212"/>
       <use xlink:href="#DejaVuSans-32" transform="translate(83.789062 0)"/>
       <use xlink:href="#DejaVuSans-30" transform="translate(147.412109 0)"/>
       <use xlink:href="#DejaVuSans-30" transform="translate(211.035156 0)"/>
      </g>
     </g>
    </g>
    <g id="ytick_3">
     <g id="line2d_13">
      <g>
       <use xlink:href="#m788bf6c0e7" x="61.963281" y="203.083062" style="stroke: #000000; stroke-width: 0.8"/>
      </g>
     </g>
     <g id="text_13">
      <!-- −100 -->
      <g transform="translate(24.749375 207.262203) scale(0.11 -0.11)">
       <use xlink:href="#DejaVuSans-2212"/>
       <use xlink:href="#DejaVuSans-31" transform="translate(83.789062 0)"/>
       <use xlink:href="#DejaVuSans-30" transform="translate(147.412109 0)"/>
       <use xlink:href="#DejaVuSans-30" transform="translate(211.035156 0)"/>
      </g>
     </g>
    </g>
    <g id="ytick_4">
     <g id="line2d_14">
      <g>
       <use xlink:href="#m788bf6c0e7" x="61.963281" y="158.66" style="stroke: #000000; stroke-width: 0.8"/>
      </g>
     </g>
     <g id="text_14">
      <!-- 0 -->
      <g transform="translate(47.964531 162.839141) scale(0.11 -0.11)">
       <use xlink:href="#DejaVuSans-30"/>
      </g>
     </g>
    </g>
    <g id="ytick_5">
     <g id="line2d_15">
      <g>
       <use xlink:href="#m788bf6c0e7" x="61.963281" y="114.236938" style="stroke: #000000; stroke-width: 0.8"/>
      </g>
     </g>
     <g id="text_15">
      <!-- 100 -->
      <g transform="translate(33.967031 118.416079) scale(0.11 -0.11)">
       <use xlink:href="#DejaVuSans-31"/>
       <use xlink:href="#DejaVuSans-30" transform="translate(63.623047 0)"/>
       <use xlink:href="#DejaVuSans-30" transform="translate(127.246094 0)"/>
      </g>
     </g>
    </g>
    <g id="ytick_6">
     <g id="line2d_16">
      <g>
       <use xlink:href="#m788bf6c0e7" x="61.963281" y="69.813876" style="stroke: #000000; stroke-width: 0.8"/>
      </g>
     </g>
     <g id="text_16">
      <!-- 200 -->
      <g transform="translate(33.967031 73.993017) scale(0.11 -0.11)">
       <use xlink:href="#DejaVuSans-32"/>
       <use xlink:href="#DejaVuSans-30" transform="translate(63.623047 0)"/>
       <use xlink:href="#DejaVuSans-30" transform="translate(127.246094 0)"/>
      </g>
     </g>
    </g>
    <g id="ytick_7">
     <g id="line2d_17">
      <g>
       <use xlink:href="#m788bf6c0e7" x="61.963281" y="25.390814" style="stroke: #000000; stroke-width: 0.8"/>
      </g>
     </g>
     <g id="text_17">
      <!-- 300 -->
      <g transform="translate(33.967031 29.569955) scale(0.11 -0.11)">
       <use xlink:href="#DejaVuSans-33"/>
       <use xlink:href="#DejaVuSans-30" transform="translate(63.623047 0)"/>
       <use xlink:href="#DejaVuSans-30" transform="translate(127.246094 0)"/>
      </g>
     </g>
    </g>
    <g id="text_18">
     <!-- V$_{oc}$ (V) -->
     <g transform="translate(17.837813 184.35) rotate(-90) scale(0.14 -0.14)">
      <defs>
       <path id="DejaVuSans-Bold-56" d="M 31 4666 
L 1241 4666 
L 2478 1222 
L 3713 4666 
L 4922 4666 
L 3194 0 
L 1759 0 
L 31 4666 
z
" transform="scale(0.015625)"/>
       <path id="DejaVuSans-Oblique-6f" d="M 1625 -91 
Q 1009 -91 651 289 
Q 294 669 294 1325 
Q 294 1706 417 2101 
Q 541 2497 738 2766 
Q 1047 3184 1428 3384 
Q 1809 3584 2291 3584 
Q 2888 3584 3255 3212 
Q 3622 2841 3622 2241 
Q 3622 1825 3500 1412 
Q 3378 1000 3181 728 
Q 2875 309 2494 109 
Q 2113 -91 1625 -91 
z
M 891 1344 
Q 891 869 1089 633 
Q 1288 397 1691 397 
Q 2269 397 2648 901 
Q 3028 1406 3028 2181 
Q 3028 2634 2825 2865 
Q 2622 3097 2228 3097 
Q 1903 3097 1650 2945 
Q 1397 2794 1197 2484 
Q 1050 2253 970 1956 
Q 891 1659 891 1344 
z
" transform="scale(0.015625)"/>
       <path id="DejaVuSans-Oblique-63" d="M 3431 3366 
L 3316 2797 
Q 3109 2947 2876 3022 
Q 2644 3097 2394 3097 
Q 2119 3097 1870 3000 
Q 1622 2903 1453 2725 
Q 1184 2453 1037 2087 
Q 891 1722 891 1331 
Q 891 859 1127 628 
Q 1363 397 1844 397 
Q 2081 397 2348 469 
Q 2616 541 2906 684 
L 2797 116 
Q 2547 13 2283 -39 
Q 2019 -91 1741 -91 
Q 1044 -91 669 257 
Q 294 606 294 1253 
Q 294 1797 489 2255 
Q 684 2713 1069 3078 
Q 1331 3328 1684 3456 
Q 2038 3584 2456 3584 
Q 2700 3584 2940 3529 
Q 3181 3475 3431 3366 
z
" transform="scale(0.015625)"/>
      </defs>
      <use xlink:href="#DejaVuSans-Bold-56" transform="translate(0 0.125)"/>
      <use xlink:href="#DejaVuSans-Oblique-6f" transform="translate(78.349609 -16.28125) scale(0.7)"/>
      <use xlink:href="#DejaVuSans-Oblique-63" transform="translate(121.176758 -16.28125) scale(0.7)"/>
      <use xlink:href="#DejaVuSans-Bold-20" transform="translate(162.397461 0.125)"/>
      <use xlink:href="#DejaVuSans-Bold-28" transform="translate(197.211914 0.125)"/>
      <use xlink:href="#DejaVuSans-Bold-56" transform="translate(242.915039 0.125)"/>
      <use xlink:href="#DejaVuSans-Bold-29" transform="translate(320.307617 0.125)"/>
     </g>
    </g>
   </g>
   <g id="patch_5">
    <path d="M 61.963281 310.12 
L 61.963281 7.2 
" style="fill: none; stroke: #000000; stroke-width: 0.8; stroke-linejoin: miter; stroke-linecap: square"/>
   </g>
   <g id="patch_6">
    <path d="M 61.963281 310.12 
L 695.729281 310.12 
" style="fill: none; stroke: #000000; stroke-width: 0.8; stroke-linejoin: miter; stroke-linecap: square"/>
   </g>
   <g id="line2d_18">
    <path d="M 61.963281 51.780332 
L 62.280164 52.366932 
L 63.072372 53.26625 
L 63.864579 54.05179 
L 64.181462 54.376089 
L 64.815228 55.293801 
L 65.132111 55.461402 
L 65.290553 55.684187 
L 65.448994 55.70667 
L 65.924319 56.774949 
L 66.399643 57.946105 
L 66.874968 59.71408 
L 67.508734 63.410135 
L 67.984058 67.946231 
L 68.459383 75.188446 
L 68.934707 87.182031 
L 69.410032 108.852751 
L 71.469771 225.293903 
L 72.103537 249.864179 
L 72.42042 255.788048 
L 72.578862 256.226121 
L 72.737303 254.824696 
L 73.054186 247.696299 
L 73.529511 230.785849 
L 74.321718 189.485639 
L 76.381458 77.441477 
L 76.856782 62.842601 
L 77.332107 54.847545 
L 77.807431 50.314171 
L 78.282756 48.082229 
L 79.233405 46.301989 
L 79.550288 46.066941 
L 80.184054 45.99881 
L 80.81782 46.180037 
L 81.134703 46.419855 
L 81.92691 46.345593 
L 82.243793 46.299265 
L 83.98665 46.385109 
L 84.937299 46.361944 
L 85.254182 46.350362 
L 85.571065 46.427349 
L 85.729506 46.402141 
L 85.887948 46.672618 
L 86.204831 46.706683 
L 86.680155 46.711452 
L 86.838597 46.73121 
L 86.997038 46.590862 
L 87.15548 46.635827 
L 87.313921 46.885865 
L 87.472363 46.823185 
L 87.630804 47.048014 
L 88.423012 47.288514 
L 88.898336 47.681624 
L 89.056778 47.736129 
L 89.215219 47.63734 
L 89.690544 48.063153 
L 90.165868 48.492373 
L 90.32431 48.823486 
L 90.482751 48.88889 
L 90.641193 48.813947 
L 90.799634 49.073523 
L 90.958076 49.079655 
L 93.017815 51.797365 
L 93.176257 52.208871 
L 93.334698 52.241573 
L 96.186645 55.6072 
L 96.503528 55.526125 
L 96.978853 56.462914 
L 97.295736 57.018855 
L 97.612619 57.862305 
L 98.246385 59.963436 
L 98.563268 61.625128 
L 99.355475 68.977037 
L 99.8308 76.876024 
L 100.147683 84.996425 
L 100.623007 105.405386 
L 102.99963 236.426289 
L 103.474954 252.316845 
L 103.791837 256.398489 
L 103.950279 255.736269 
L 104.267162 249.663881 
L 104.742486 233.122695 
L 105.376252 201.498266 
L 107.752875 73.123406 
L 108.228199 60.211421 
L 108.703524 53.153832 
L 109.178848 49.380107 
L 109.654173 47.17678 
L 109.971056 46.351043 
L 110.44638 45.69495 
L 111.080146 45.470121 
L 111.397029 45.628183 
L 111.872354 45.750136 
L 112.347678 45.957932 
L 112.664561 45.990635 
L 113.139886 46.09828 
L 113.456769 46.193663 
L 115.833391 46.380339 
L 117.576248 46.26043 
L 118.051572 46.404866 
L 118.685338 46.551346 
L 119.160663 46.67943 
L 119.794429 47.024169 
L 120.269753 47.445894 
L 121.378844 48.463759 
L 121.537285 48.474659 
L 122.329493 49.006756 
L 122.487934 49.125983 
L 122.646376 49.51705 
L 122.963259 49.64786 
L 123.913908 50.45929 
L 124.230791 50.65346 
L 124.547674 51.129009 
L 124.706115 51.21894 
L 125.022998 51.654292 
L 125.18144 51.76875 
L 125.815206 52.916061 
L 125.973647 52.935138 
L 126.448972 53.518331 
L 127.558062 54.748761 
L 127.716504 54.739904 
L 128.191828 55.460039 
L 128.984036 57.146258 
L 129.617802 59.682059 
L 130.093126 62.82081 
L 130.568451 67.531318 
L 131.043775 74.971792 
L 131.5191 87.669158 
L 131.994424 110.130182 
L 133.895722 219.009622 
L 134.529488 246.018261 
L 134.846371 254.426137 
L 135.004813 256.380775 
L 135.163254 256.485694 
L 135.321696 254.794719 
L 135.638579 247.257544 
L 136.113903 229.757772 
L 136.747669 197.509954 
L 138.96585 75.965783 
L 139.441175 61.572657 
L 139.916499 53.623248 
L 140.391824 49.641727 
L 140.867148 47.373676 
L 141.184031 46.616069 
L 141.817797 45.760355 
L 142.610005 45.676555 
L 142.926888 45.967471 
L 143.560654 46.011074 
L 144.511303 46.12962 
L 144.986627 46.118038 
L 146.254159 46.265881 
L 147.046367 46.498204 
L 147.204808 46.516599 
L 147.521691 46.400097 
L 150.53208 46.277463 
L 150.848963 46.49071 
L 151.165846 46.566335 
L 152.116495 47.055509 
L 152.274936 47.060278 
L 152.433378 47.224472 
L 152.750261 47.708877 
L 155.760649 50.986617 
L 155.919091 50.879652 
L 156.711298 51.770794 
L 157.028181 52.196607 
L 157.661947 52.813866 
L 158.137272 53.383434 
L 159.880128 56.133164 
L 160.513894 57.960412 
L 160.989219 60.263208 
L 161.464543 63.647908 
L 161.939868 68.771966 
L 162.415192 76.892374 
L 162.732075 85.262813 
L 163.2074 106.060793 
L 165.425581 230.247611 
L 166.059347 252.789664 
L 166.37623 256.449586 
L 166.534671 255.596604 
L 166.851554 248.966234 
L 167.326879 232.726181 
L 167.960645 200.872835 
L 170.337267 71.572085 
L 170.812592 58.605596 
L 171.287916 51.880481 
L 171.763241 48.372464 
L 172.238565 46.663761 
L 172.555448 46.097599 
L 173.664539 45.761036 
L 173.981422 46.236584 
L 174.456746 46.619476 
L 175.248954 46.819778 
L 175.407395 46.767318 
L 175.724278 46.834767 
L 176.833369 46.844987 
L 176.99181 46.868832 
L 177.150252 46.628333 
L 177.625576 46.616751 
L 180.952848 46.468909 
L 183.012587 47.100475 
L 183.487912 47.530376 
L 184.121678 48.148316 
L 184.755444 48.966559 
L 185.072327 49.293583 
L 185.38921 49.582455 
L 187.132066 51.619545 
L 187.607391 52.127796 
L 187.924274 52.349219 
L 189.033364 53.848762 
L 190.617779 55.267231 
L 191.093104 56.400915 
L 191.568428 57.718551 
L 192.043753 59.481757 
L 192.519077 62.246473 
L 192.994402 66.409218 
L 193.469726 72.878159 
L 193.945051 83.755781 
L 194.261934 95.240425 
L 194.8957 131.167276 
L 196.321673 212.388099 
L 197.113881 246.935286 
L 197.430764 254.925527 
L 197.589205 256.628766 
L 197.747647 256.496595 
L 198.06453 251.239718 
L 198.539854 235.891483 
L 199.17362 204.887717 
L 201.708684 67.878762 
L 202.184009 56.377744 
L 202.659333 50.536956 
L 202.976216 48.394946 
L 203.609982 46.526138 
L 204.085307 45.995404 
L 204.560631 45.864594 
L 204.877514 45.981097 
L 205.669722 46.607213 
L 205.986605 46.596993 
L 206.303488 46.570422 
L 206.461929 46.334692 
L 207.729461 46.269968 
L 208.521669 46.239991 
L 208.838552 46.051952 
L 210.73985 46.233178 
L 211.215174 46.175949 
L 212.007382 46.295858 
L 212.799589 46.464821 
L 213.750238 46.829998 
L 215.176212 47.787227 
L 215.651536 48.33363 
L 215.809978 48.324092 
L 216.285302 48.875946 
L 216.919068 49.745967 
L 218.1866 51.295927 
L 218.503483 51.823936 
L 219.454132 52.842481 
L 220.563223 53.921661 
L 220.721664 53.767006 
L 222.147638 55.460039 
L 222.622962 56.472452 
L 223.41517 59.530129 
L 223.890494 62.491742 
L 224.52426 69.171207 
L 224.999585 77.603651 
L 225.474909 92.305393 
L 225.950234 117.398261 
L 227.376207 200.982508 
L 228.168415 238.966162 
L 228.643739 254.043248 
L 228.802181 256.442773 
L 228.960622 257.03005 
L 229.119064 255.781235 
L 229.435947 248.858589 
L 229.911271 232.046928 
L 230.703479 190.557997 
L 232.763218 75.669413 
L 233.238543 60.46963 
L 233.713867 52.606065 
L 234.189192 48.66951 
L 234.664516 46.840898 
L 234.981399 46.403503 
L 235.456724 45.845518 
L 235.773607 45.876176 
L 236.248931 46.175949 
L 236.724256 46.61607 
L 237.19958 46.718265 
L 237.833346 46.676706 
L 238.308671 46.575873 
L 238.942437 46.545214 
L 239.417761 46.468909 
L 240.36841 46.502292 
L 241.002176 46.519325 
L 242.42815 46.629014 
L 242.745033 46.516599 
L 243.695682 46.455964 
L 244.012565 46.445744 
L 244.171006 46.4437 
L 244.487889 46.680112 
L 244.804772 46.793208 
L 245.280097 47.116826 
L 245.755421 47.460883 
L 246.072304 47.875114 
L 246.864512 48.73151 
L 247.498278 50.00895 
L 247.815161 50.314172 
L 248.132044 50.459971 
L 248.76581 50.934156 
L 249.241134 51.499636 
L 249.399576 51.637259 
L 249.716459 52.195926 
L 250.350225 52.685782 
L 250.508666 52.582905 
L 251.142432 52.961708 
L 251.93464 54.162842 
L 252.726847 54.757618 
L 252.885289 54.684719 
L 253.360613 55.31424 
L 253.677496 55.857919 
L 254.469704 58.22135 
L 254.945028 60.582057 
L 255.420353 64.180004 
L 255.895677 69.863408 
L 256.371002 79.102508 
L 256.687885 88.936372 
L 257.163209 112.567181 
L 258.747624 205.178615 
L 259.539832 242.057885 
L 260.015156 255.291383 
L 260.173598 256.728236 
L 260.332039 256.341941 
L 260.648922 250.392186 
L 261.124247 235.002391 
L 261.758013 203.429741 
L 264.134635 72.183889 
L 264.60996 58.470697 
L 265.085284 51.836877 
L 265.560609 48.382002 
L 266.035933 46.571103 
L 266.511258 45.926592 
L 266.828141 45.861869 
L 266.986582 45.927274 
L 267.145024 45.834617 
L 267.303465 45.988591 
L 267.461907 45.926592 
L 267.937231 46.41236 
L 268.254114 46.476403 
L 268.412556 46.22909 
L 269.204763 46.287001 
L 269.521646 46.083292 
L 270.313854 45.950438 
L 270.472295 46.101687 
L 271.581386 46.120763 
L 271.898269 46.181399 
L 272.05671 46.022656 
L 272.532035 46.052633 
L 272.848918 46.216146 
L 273.958008 46.440294 
L 274.11645 46.657629 
L 274.908657 46.618113 
L 275.22554 46.618795 
L 275.383982 46.962852 
L 276.809955 47.300777 
L 277.28528 47.605319 
L 277.443721 47.539233 
L 277.760604 47.811072 
L 278.077487 48.278445 
L 279.186578 49.660805 
L 280.295668 51.105844 
L 280.45411 51.13991 
L 281.087876 51.790552 
L 281.246317 51.744224 
L 282.038525 52.541346 
L 282.196966 52.425525 
L 284.415147 54.575029 
L 285.365796 56.500385 
L 286.158004 59.940953 
L 286.633328 63.429892 
L 286.950211 66.621783 
L 287.425536 73.986632 
L 287.90086 86.462578 
L 288.376185 108.621107 
L 290.277483 218.344676 
L 290.911249 245.604714 
L 291.228132 254.3437 
L 291.386573 256.484332 
L 291.545015 256.927855 
L 291.703456 255.372457 
L 292.020339 247.90205 
L 292.495664 230.856022 
L 293.287871 188.697374 
L 295.347611 73.972296 
L 295.822935 58.880838 
L 296.29826 51.622267 
L 296.773584 47.981396 
L 297.090467 46.624926 
L 297.724233 45.477615 
L 298.041116 45.427199 
L 298.357999 45.549833 
L 298.674882 45.790332 
L 299.150207 46.40691 
L 299.783973 46.473677 
L 299.942414 46.274738 
L 300.893063 46.316297 
L 301.209946 46.494117 
L 301.843712 46.528863 
L 302.160595 46.656947 
L 305.170984 46.611301 
L 305.329425 46.460733 
L 306.596957 46.518643 
L 307.547606 46.602443 
L 308.022931 46.78367 
L 308.181372 46.729847 
L 308.97358 47.273525 
L 310.08267 48.39631 
L 310.557995 49.339912 
L 311.350202 50.452477 
L 311.667085 50.840818 
L 313.2515 52.736198 
L 313.409942 53.21379 
L 313.726825 53.33983 
L 313.885266 53.403191 
L 315.469681 55.237253 
L 315.786564 55.552696 
L 316.42033 56.598492 
L 316.895655 57.803713 
L 317.846304 62.997948 
L 318.321628 67.906715 
L 318.796953 75.918797 
L 319.272277 89.892234 
L 319.747602 114.266336 
L 321.173575 198.394941 
L 322.124224 243.33736 
L 322.599549 256.013556 
L 322.75799 257.085916 
L 322.916432 256.361699 
L 323.233315 249.820579 
L 323.708639 233.99816 
L 324.342405 201.668588 
L 326.719028 69.573828 
L 327.194352 56.50242 
L 327.669677 50.365949 
L 328.145001 47.169967 
L 328.620326 45.645896 
L 329.254092 45.384277 
L 330.521624 46.00358 
L 330.838507 45.791014 
L 330.996948 45.98791 
L 331.313831 46.109181 
L 331.313831 46.109181 
" clip-path="url(#pcd0dedc1fe)" style="fill: none; stroke: #333333; stroke-width: 0.8; stroke-linecap: square"/>
   </g>
   <g id="line2d_19">
    <path d="M 378.846281 62.26487 
L 380.906021 63.184626 
L 381.381345 63.523914 
L 381.85667 64.112557 
L 382.490436 64.821791 
L 383.124202 65.65979 
L 383.599526 66.64495 
L 383.757968 66.991732 
L 384.074851 67.97553 
L 384.867058 70.269468 
L 385.659266 73.564235 
L 386.293032 77.434017 
L 386.768356 81.515002 
L 387.243681 87.120051 
L 387.719005 96.301232 
L 388.035888 105.77945 
L 388.511213 129.484503 
L 389.778745 196.238652 
L 390.729394 235.189064 
L 391.046277 243.277415 
L 391.204718 245.176869 
L 391.36316 245.22456 
L 391.521601 242.930635 
L 391.838484 232.450257 
L 392.630692 195.030045 
L 394.690431 93.173373 
L 395.165756 79.960267 
L 395.64108 71.827597 
L 396.116405 66.657893 
L 396.591729 63.276601 
L 397.225495 60.495532 
L 397.542378 59.387737 
L 398.176144 58.222713 
L 398.80991 57.654509 
L 399.285235 57.279793 
L 399.602118 57.287288 
L 399.760559 56.882595 
L 399.919001 56.945956 
L 400.077442 56.873738 
L 400.552767 57.15239 
L 402.929389 57.626575 
L 403.087831 57.922941 
L 403.880038 58.268361 
L 404.830687 58.872675 
L 405.939778 59.743377 
L 407.048868 60.930884 
L 407.524193 61.102572 
L 408.950166 62.030503 
L 409.425491 61.903781 
L 409.583932 62.188564 
L 409.742374 62.031866 
L 410.059257 62.188564 
L 410.217698 61.928989 
L 411.48523 62.82013 
L 411.802113 63.170318 
L 412.277438 63.408092 
L 412.435879 63.67925 
L 412.594321 63.655405 
L 412.752762 63.774632 
L 412.911204 63.696964 
L 413.703411 64.437537 
L 414.337177 65.143365 
L 414.495619 65.444499 
L 414.65406 65.488784 
L 415.763151 67.324207 
L 417.189124 71.997926 
L 417.981332 76.149086 
L 418.456656 79.774281 
L 418.931981 84.87517 
L 419.407305 92.699888 
L 419.88263 105.955225 
L 420.357954 129.690936 
L 421.625486 196.787777 
L 422.576135 235.630543 
L 422.893018 243.558109 
L 423.05146 245.356731 
L 423.209901 245.189132 
L 423.368343 242.94903 
L 423.685226 232.290152 
L 424.635875 186.624204 
L 426.537173 92.605851 
L 427.012497 79.529686 
L 427.646263 69.757127 
L 428.280029 64.361231 
L 428.913795 61.576075 
L 429.706003 59.840802 
L 430.022886 59.496064 
L 430.815093 58.466619 
L 432.082625 57.978127 
L 432.241067 57.964501 
L 432.55795 57.585697 
L 432.874833 57.675629 
L 433.033274 57.653828 
L 433.350157 57.424229 
L 434.617689 57.578885 
L 434.934572 57.750572 
L 435.885221 58.111661 
L 436.677429 58.670328 
L 438.737168 59.813551 
L 439.370934 60.143981 
L 440.0047 60.501664 
L 440.796908 60.979256 
L 441.113791 61.055562 
L 443.015089 62.328231 
L 443.490413 62.568049 
L 443.965738 62.873272 
L 444.124179 62.839207 
L 444.441062 63.224141 
L 444.916387 63.577055 
L 446.183919 64.780913 
L 446.659243 65.458807 
L 447.293009 66.500515 
L 448.243658 68.883022 
L 448.877424 71.113598 
L 449.51119 74.1229 
L 450.144956 78.405551 
L 450.620281 83.075859 
L 451.095605 89.83639 
L 451.57093 100.904083 
L 451.887813 112.968501 
L 454.264435 230.664573 
L 454.73976 243.733202 
L 454.898201 245.473232 
L 455.056643 245.544769 
L 455.215084 243.162957 
L 455.531967 232.167519 
L 456.482616 186.306039 
L 458.383914 92.350364 
L 458.859239 79.161784 
L 459.334563 71.292776 
L 459.968329 64.735264 
L 460.443654 62.059798 
L 461.07742 59.551931 
L 461.552744 58.47752 
L 462.978718 57.180323 
L 463.295601 57.15239 
L 463.454042 57.086985 
L 463.612484 56.719764 
L 463.770925 56.7804 
L 464.087808 56.678886 
L 464.404691 56.954813 
L 466.147548 57.17828 
L 466.781314 57.426955 
L 467.41508 57.909315 
L 467.890404 58.100761 
L 468.999495 58.816808 
L 470.58391 59.994095 
L 472.485208 61.16457 
L 472.960532 61.479331 
L 473.118974 61.41597 
L 473.75274 61.740269 
L 474.069623 62.085007 
L 475.020272 62.473348 
L 475.812479 62.854877 
L 476.287804 63.144429 
L 476.604687 63.510969 
L 476.763128 63.491893 
L 477.396894 63.985154 
L 477.713777 64.304684 
L 478.03066 64.846999 
L 478.664426 65.67546 
L 479.298192 66.91202 
L 479.931958 68.461297 
L 481.19949 73.651441 
L 481.833256 77.540981 
L 482.308581 81.627416 
L 482.783905 87.543819 
L 483.25923 96.997519 
L 483.576113 106.887922 
L 484.051437 130.847778 
L 485.318969 197.668012 
L 486.269618 236.44878 
L 486.586501 244.007083 
L 486.744943 245.499122 
L 486.903384 245.165286 
L 487.061826 242.594075 
L 487.378709 231.745796 
L 488.329358 185.700366 
L 490.230656 92.507064 
L 490.864422 76.64166 
L 491.498188 68.425867 
L 492.131954 63.835267 
L 492.76572 61.126417 
L 493.082603 60.497576 
L 493.716369 58.745953 
L 494.667018 57.455569 
L 495.300784 57.076766 
L 496.092991 57.121732 
L 496.251433 56.868969 
L 496.409874 56.862837 
L 496.726757 57.003867 
L 497.202082 57.027031 
L 497.360523 56.830816 
L 498.469614 57.155797 
L 498.786497 57.408559 
L 499.420263 57.570709 
L 499.578704 57.503941 
L 500.529353 58.172297 
L 500.846236 58.636945 
L 501.955327 59.380244 
L 502.113768 59.333234 
L 502.747534 59.761772 
L 503.064417 60.114004 
L 503.3813 60.27956 
L 503.698183 60.66177 
L 505.282598 61.775015 
L 505.599481 62.067974 
L 505.757923 62.136786 
L 506.074806 62.528534 
L 506.55013 62.806504 
L 507.183896 62.67365 
L 507.500779 63.043597 
L 507.659221 62.967972 
L 508.134545 63.362445 
L 508.768311 63.566154 
L 509.085194 63.921793 
L 509.243636 63.826411 
L 510.828051 65.971826 
L 511.144934 66.741014 
L 511.461817 67.400513 
L 512.095583 69.352437 
L 512.729349 71.828282 
L 513.521556 75.952872 
L 513.996881 79.86762 
L 514.472205 85.089098 
L 514.94753 93.381868 
L 515.422854 107.08141 
L 515.898179 131.41598 
L 517.324152 205.353722 
L 518.11636 236.309115 
L 518.433243 243.755685 
L 518.591684 245.219109 
L 518.750126 244.813057 
L 518.908567 242.372654 
L 519.22545 231.138762 
L 520.017658 193.305683 
L 522.077397 92.181403 
L 522.552722 79.204026 
L 523.028046 71.343874 
L 523.503371 66.610203 
L 523.978695 63.309303 
L 524.770903 59.522635 
L 525.56311 57.732177 
L 525.879993 57.317946 
L 526.038435 57.263442 
L 526.830642 56.417267 
L 527.147525 56.484034 
L 527.305967 56.365488 
L 527.62285 56.529681 
L 528.098174 56.826728 
L 528.415057 56.810377 
L 529.524148 56.942549 
L 529.841031 56.971846 
L 530.950121 57.420141 
L 531.267004 57.756022 
L 532.059212 58.214538 
L 532.534536 58.60833 
L 533.326744 59.204468 
L 534.277393 59.770629 
L 534.435834 59.658895 
L 535.544925 60.203255 
L 535.861808 60.568432 
L 536.337132 60.836183 
L 536.495574 61.14345 
L 536.970898 61.322631 
L 537.446223 61.563131 
L 537.604664 61.827475 
L 537.763106 61.80908 
L 538.713755 62.468579 
L 538.872196 62.519677 
L 539.030638 62.428382 
L 539.505962 62.674332 
L 539.664404 62.824218 
L 539.822845 62.664794 
L 540.456611 63.052453 
L 541.090377 63.563429 
L 541.724143 64.174556 
L 542.357909 65.104531 
L 543.467 67.615122 
L 545.051415 74.128351 
L 545.685181 78.506383 
L 546.160505 83.166471 
L 546.63583 90.136842 
L 547.111154 101.562898 
L 547.428037 113.969327 
L 549.487777 218.989875 
L 550.121543 240.884702 
L 550.438426 245.448025 
L 550.596867 245.073993 
L 550.755309 242.349489 
L 551.072192 230.823321 
L 551.864399 193.174874 
L 553.924139 91.625463 
L 554.399463 78.992822 
L 554.874788 70.819273 
L 555.508554 65.076596 
L 555.983878 62.396361 
L 556.934527 59.322333 
L 557.409852 58.459806 
L 558.518942 57.095161 
L 558.677384 57.072678 
L 558.994267 56.897584 
L 560.261799 56.704094 
L 561.529331 56.88532 
L 563.430629 57.774418 
L 564.856602 58.82294 
L 565.173485 59.237852 
L 565.965693 59.580546 
L 567.866991 60.849809 
L 568.183874 60.96563 
L 568.342315 60.819832 
L 568.976081 61.114154 
L 570.402055 62.026415 
L 570.560496 61.874485 
L 570.877379 62.153818 
L 571.194262 62.468579 
L 571.828028 63.015664 
L 571.98647 63.025202 
L 572.937119 63.90953 
L 573.09556 64.132996 
L 573.254002 64.160248 
L 574.204651 65.488784 
L 575.1553 67.230869 
L 576.581273 72.233656 
L 577.215039 75.869072 
L 577.848805 81.273821 
L 578.32413 87.447074 
L 578.799454 97.147404 
L 579.116337 107.519484 
L 579.591662 132.279183 
L 580.859194 198.557786 
L 581.651401 231.643597 
L 582.126726 244.249625 
L 582.285167 245.580878 
L 582.443609 244.934327 
L 582.60205 242.019061 
L 583.077375 223.576373 
L 584.344907 160.344534 
L 585.612439 97.066992 
L 586.087763 82.157456 
L 586.721529 70.944632 
L 587.355295 64.700518 
L 587.989061 61.333532 
L 588.622827 59.183347 
L 589.098152 58.441411 
L 589.415035 58.048982 
L 589.731918 57.463744 
L 590.682567 56.908485 
L 591.157891 56.814465 
L 591.950099 56.710907 
L 592.742306 56.60735 
L 593.534514 56.747698 
L 593.851397 56.890771 
L 594.16828 56.935055 
L 594.960487 57.278431 
L 596.069578 57.986302 
L 596.228019 58.324228 
L 596.544902 58.494553 
L 597.653993 59.246027 
L 597.970876 59.33664 
L 598.4462 59.628918 
L 598.604642 59.775398 
L 598.763083 60.357229 
L 599.396849 60.792579 
L 599.555291 60.652231 
L 600.822823 61.368278 
L 600.981264 61.401662 
L 601.456589 61.745038 
L 601.931913 61.882661 
L 602.090355 61.475924 
L 602.248796 61.451397 
L 602.565679 61.539966 
L 603.041004 61.798861 
L 603.991653 62.429064 
L 604.625419 62.962522 
L 605.417626 63.944957 
L 607.477366 68.555998 
L 608.428015 72.446221 
L 609.695547 81.688051 
L 610.170871 87.797943 
L 610.646196 97.583435 
L 610.963079 107.958922 
L 611.596845 141.878656 
L 612.864377 206.293229 
L 613.656584 237.074892 
L 613.973467 244.196483 
L 614.131909 245.43508 
L 614.29035 244.616843 
L 614.607233 236.286636 
L 615.399441 199.557944 
L 617.617622 90.345984 
L 618.092946 77.829844 
L 618.568271 70.337594 
L 619.043595 65.563044 
L 619.51892 62.486974 
L 619.994244 60.666539 
L 620.311127 59.69296 
L 620.62801 59.192204 
L 621.261776 58.190011 
L 621.895542 57.588423 
L 622.529308 57.30432 
L 623.638399 57.136039 
L 623.79684 56.941187 
L 625.381255 57.164654 
L 625.85658 57.322034 
L 626.96567 57.788725 
L 628.391644 58.613099 
L 628.866968 58.857004 
L 629.183851 59.115899 
L 630.609825 59.773354 
L 630.768266 59.76586 
L 631.085149 59.983195 
L 631.402032 60.125586 
L 631.718915 60.475775 
L 632.19424 60.631793 
L 632.511123 60.723087 
L 632.828006 60.905676 
L 633.144889 61.236106 
L 633.778655 61.552911 
L 633.937096 61.597196 
L 634.412421 62.041404 
L 636.630602 63.682656 
L 637.422809 64.723002 
L 637.898134 65.385226 
L 638.056575 65.798094 
L 638.215017 65.860093 
L 638.690341 66.836396 
L 639.957873 70.764773 
L 640.591639 73.746823 
L 641.225405 78.124855 
L 641.70073 82.837404 
L 642.176054 89.954934 
L 642.651379 101.914446 
L 642.968262 115.184759 
L 644.86956 213.55994 
L 645.503326 237.500021 
L 645.820209 244.413817 
L 645.97865 245.471189 
L 646.137092 244.50988 
L 646.453975 236.150376 
L 647.404624 191.419173 
L 649.464363 90.401169 
L 649.939688 78.114627 
L 650.415012 70.552204 
L 651.048778 64.404153 
L 651.524103 61.896286 
L 652.157869 59.690916 
L 652.791635 58.423697 
L 653.108518 57.89637 
L 653.583842 57.376538 
L 654.217608 56.975933 
L 654.534491 56.888727 
L 654.692933 56.671392 
L 655.643582 56.767455 
L 657.703321 56.935736 
L 659.287736 57.693343 
L 659.763061 58.134144 
L 660.238385 58.529299 
L 660.555268 59.085921 
L 662.773449 60.753064 
L 663.090332 61.099846 
L 663.407215 61.123692 
L 663.724098 61.191822 
L 663.88254 61.153669 
L 664.357864 61.428233 
L 664.674747 61.497726 
L 664.99163 61.777059 
L 665.150072 61.978043 
L 665.466955 61.862903 
L 666.100721 62.220586 
L 666.259162 62.136104 
L 667.843577 63.152605 
L 668.318902 63.628834 
L 668.477343 63.654723 
L 668.952668 64.241323 
L 669.427992 64.889921 
L 669.903317 65.704756 
L 671.487732 70.126395 
L 672.121498 72.889747 
L 672.755264 76.656655 
L 673.230588 80.610236 
L 673.705913 86.138299 
L 674.022796 91.165604 
L 674.49812 103.153047 
L 674.815003 116.42881 
L 676.716301 214.662277 
L 677.350067 238.310763 
L 677.66695 245.082849 
L 677.825392 246.024401 
L 677.983833 244.828044 
L 678.300716 235.993678 
L 679.092924 199.100793 
L 681.311105 90.423653 
L 681.786429 78.086013 
L 682.261754 70.524952 
L 682.737078 65.869629 
L 683.212403 62.739055 
L 683.846169 60.082664 
L 684.638376 58.37805 
L 685.272142 57.684486 
L 685.747467 57.406516 
L 686.222791 57.232102 
L 687.17344 57.204169 
L 687.331882 56.978658 
L 687.807206 56.950044 
L 688.282531 56.956857 
L 689.074738 57.023624 
L 690.500712 57.432405 
L 690.817595 57.753979 
L 691.134478 57.978127 
L 691.451361 58.442093 
L 694.144866 59.835352 
L 694.461749 60.072445 
L 695.729281 60.823919 
L 695.729281 60.823919 
" clip-path="url(#pcd0dedc1fe)" style="fill: none; stroke: #d94452; stroke-width: 0.8; stroke-linecap: square"/>
   </g>
   <g id="text_19">
    <g id="patch_7">
     <path d="M 178.554781 297.974 
L 262.254781 297.974 
Q 265.254781 297.974 265.254781 294.974 
L 265.254781 284.374 
Q 265.254781 281.374 262.254781 281.374 
L 178.554781 281.374 
Q 175.554781 281.374 175.554781 284.374 
L 175.554781 294.974 
Q 175.554781 297.974 178.554781 297.974 
z
" style="fill: #ffffff; opacity: 0.85; stroke: #333333; stroke-linejoin: miter"/>
    </g>
    <!-- V$_{p-p}$ = 476.71 V -->
    <g style="fill: #333333" transform="translate(178.554781 291.874) scale(0.1 -0.1)">
     <defs>
      <path id="DejaVuSans-56" d="M 1831 0 
L 50 4666 
L 709 4666 
L 2188 738 
L 3669 4666 
L 4325 4666 
L 2547 0 
L 1831 0 
z
" transform="scale(0.015625)"/>
      <path id="DejaVuSans-Oblique-70" d="M 3175 2156 
Q 3175 2616 2975 2859 
Q 2775 3103 2400 3103 
Q 2144 3103 1911 2972 
Q 1678 2841 1497 2591 
Q 1319 2344 1212 1994 
Q 1106 1644 1106 1300 
Q 1106 863 1306 627 
Q 1506 391 1875 391 
Q 2147 391 2380 519 
Q 2613 647 2778 891 
Q 2956 1147 3065 1494 
Q 3175 1841 3175 2156 
z
M 1394 2969 
Q 1625 3272 1939 3428 
Q 2253 3584 2638 3584 
Q 3175 3584 3472 3232 
Q 3769 2881 3769 2247 
Q 3769 1728 3584 1258 
Q 3400 788 3053 416 
Q 2822 169 2531 39 
Q 2241 -91 1919 -91 
Q 1547 -91 1294 64 
Q 1041 219 916 525 
L 556 -1331 
L -19 -1331 
L 922 3500 
L 1497 3500 
L 1394 2969 
z
" transform="scale(0.015625)"/>
      <path id="DejaVuSans-20" transform="scale(0.015625)"/>
      <path id="DejaVuSans-3d" d="M 678 2906 
L 4684 2906 
L 4684 2381 
L 678 2381 
L 678 2906 
z
M 678 1631 
L 4684 1631 
L 4684 1100 
L 678 1100 
L 678 1631 
z
" transform="scale(0.015625)"/>
      <path id="DejaVuSans-37" d="M 525 4666 
L 3525 4666 
L 3525 4397 
L 1831 0 
L 1172 0 
L 2766 4134 
L 525 4134 
L 525 4666 
z
" transform="scale(0.015625)"/>
      <path id="DejaVuSans-36" d="M 2113 2584 
Q 1688 2584 1439 2293 
Q 1191 2003 1191 1497 
Q 1191 994 1439 701 
Q 1688 409 2113 409 
Q 2538 409 2786 701 
Q 3034 994 3034 1497 
Q 3034 2003 2786 2293 
Q 2538 2584 2113 2584 
z
M 3366 4563 
L 3366 3988 
Q 3128 4100 2886 4159 
Q 2644 4219 2406 4219 
Q 1781 4219 1451 3797 
Q 1122 3375 1075 2522 
Q 1259 2794 1537 2939 
Q 1816 3084 2150 3084 
Q 2853 3084 3261 2657 
Q 3669 2231 3669 1497 
Q 3669 778 3244 343 
Q 2819 -91 2113 -91 
Q 1303 -91 875 529 
Q 447 1150 447 2328 
Q 447 3434 972 4092 
Q 1497 4750 2381 4750 
Q 2619 4750 2861 4703 
Q 3103 4656 3366 4563 
z
" transform="scale(0.015625)"/>
     </defs>
     <use xlink:href="#DejaVuSans-56" transform="translate(0 0.78125)"/>
     <use xlink:href="#DejaVuSans-Oblique-70" transform="translate(69.365234 -15.625) scale(0.7)"/>
     <use xlink:href="#DejaVuSans-2212" transform="translate(127.436523 -15.625) scale(0.7)"/>
     <use xlink:href="#DejaVuSans-Oblique-70" transform="translate(199.726562 -15.625) scale(0.7)"/>
     <use xlink:href="#DejaVuSans-20" transform="translate(246.894531 0.78125)"/>
     <use xlink:href="#DejaVuSans-3d" transform="translate(278.681641 0.78125)"/>
     <use xlink:href="#DejaVuSans-20" transform="translate(362.470703 0.78125)"/>
     <use xlink:href="#DejaVuSans-34" transform="translate(394.257812 0.78125)"/>
     <use xlink:href="#DejaVuSans-37" transform="translate(457.880859 0.78125)"/>
     <use xlink:href="#DejaVuSans-36" transform="translate(521.503906 0.78125)"/>
     <use xlink:href="#DejaVuSans-2e" transform="translate(585.126953 0.78125)"/>
     <use xlink:href="#DejaVuSans-37" transform="translate(609.164062 0.78125)"/>
     <use xlink:href="#DejaVuSans-31" transform="translate(672.787109 0.78125)"/>
     <use xlink:href="#DejaVuSans-20" transform="translate(736.410156 0.78125)"/>
     <use xlink:href="#DejaVuSans-56" transform="translate(768.197266 0.78125)"/>
    </g>
   </g>
   <g id="text_20">
    <g id="patch_8">
     <path d="M 495.037781 297.974 
L 579.537781 297.974 
Q 582.537781 297.974 582.537781 294.974 
L 582.537781 284.374 
Q 582.537781 281.374 579.537781 281.374 
L 495.037781 281.374 
Q 492.037781 281.374 492.037781 284.374 
L 492.037781 294.974 
Q 492.037781 297.974 495.037781 297.974 
z
" style="fill: #ffffff; opacity: 0.85; stroke: #d94452; stroke-linejoin: miter"/>
    </g>
    <!-- V$_{p-p}$ = 426.94 V -->
    <g style="fill: #d94452" transform="translate(495.037781 291.874) scale(0.1 -0.1)">
     <defs>
      <path id="DejaVuSans-39" d="M 703 97 
L 703 672 
Q 941 559 1184 500 
Q 1428 441 1663 441 
Q 2288 441 2617 861 
Q 2947 1281 2994 2138 
Q 2813 1869 2534 1725 
Q 2256 1581 1919 1581 
Q 1219 1581 811 2004 
Q 403 2428 403 3163 
Q 403 3881 828 4315 
Q 1253 4750 1959 4750 
Q 2769 4750 3195 4129 
Q 3622 3509 3622 2328 
Q 3622 1225 3098 567 
Q 2575 -91 1691 -91 
Q 1453 -91 1209 -44 
Q 966 3 703 97 
z
M 1959 2075 
Q 2384 2075 2632 2365 
Q 2881 2656 2881 3163 
Q 2881 3666 2632 3958 
Q 2384 4250 1959 4250 
Q 1534 4250 1286 3958 
Q 1038 3666 1038 3163 
Q 1038 2656 1286 2365 
Q 1534 2075 1959 2075 
z
" transform="scale(0.015625)"/>
     </defs>
     <use xlink:href="#DejaVuSans-56" transform="translate(0 0.78125)"/>
     <use xlink:href="#DejaVuSans-Oblique-70" transform="translate(69.365234 -15.625) scale(0.7)"/>
     <use xlink:href="#DejaVuSans-2212" transform="translate(127.436523 -15.625) scale(0.7)"/>
     <use xlink:href="#DejaVuSans-Oblique-70" transform="translate(199.726562 -15.625) scale(0.7)"/>
     <use xlink:href="#DejaVuSans-20" transform="translate(246.894531 0.78125)"/>
     <use xlink:href="#DejaVuSans-3d" transform="translate(278.681641 0.78125)"/>
     <use xlink:href="#DejaVuSans-20" transform="translate(362.470703 0.78125)"/>
     <use xlink:href="#DejaVuSans-34" transform="translate(394.257812 0.78125)"/>
     <use xlink:href="#DejaVuSans-32" transform="translate(457.880859 0.78125)"/>
     <use xlink:href="#DejaVuSans-36" transform="translate(521.503906 0.78125)"/>
     <use xlink:href="#DejaVuSans-2e" transform="translate(585.126953 0.78125)"/>
     <use xlink:href="#DejaVuSans-39" transform="translate(616.914062 0.78125)"/>
     <use xlink:href="#DejaVuSans-34" transform="translate(680.537109 0.78125)"/>
     <use xlink:href="#DejaVuSans-20" transform="translate(744.160156 0.78125)"/>
     <use xlink:href="#DejaVuSans-56" transform="translate(775.947266 0.78125)"/>
    </g>
   </g>
   <g id="text_21">
    <g id="patch_9">
     <path d="M 619.099895 40.127563 
L 676.716301 40.127563 
Q 681.916301 40.127563 681.916301 34.927563 
L 681.916301 22.346 
Q 681.916301 17.146 676.716301 17.146 
L 619.099895 17.146 
Q 613.899895 17.146 613.899895 22.346 
L 613.899895 34.927563 
Q 613.899895 40.127563 619.099895 40.127563 
z
" style="fill: #ffffff; opacity: 0.9; stroke: #f0ad4e; stroke-width: 1.5; stroke-linejoin: miter"/>
    </g>
    <!-- f = 5 Hz -->
    <g style="fill: #f0ad4e" transform="translate(619.099895 32.223969) scale(0.13 -0.13)">
     <defs>
      <path id="DejaVuSans-Bold-66" d="M 2841 4863 
L 2841 4128 
L 2222 4128 
Q 1984 4128 1890 4042 
Q 1797 3956 1797 3744 
L 1797 3500 
L 2753 3500 
L 2753 2700 
L 1797 2700 
L 1797 0 
L 678 0 
L 678 2700 
L 122 2700 
L 122 3500 
L 678 3500 
L 678 3744 
Q 678 4316 997 4589 
Q 1316 4863 1984 4863 
L 2841 4863 
z
" transform="scale(0.015625)"/>
      <path id="DejaVuSans-Bold-3d" d="M 678 3084 
L 4684 3084 
L 4684 2350 
L 678 2350 
L 678 3084 
z
M 678 1663 
L 4684 1663 
L 4684 922 
L 678 922 
L 678 1663 
z
" transform="scale(0.015625)"/>
      <path id="DejaVuSans-Bold-35" d="M 678 4666 
L 3669 4666 
L 3669 3781 
L 1638 3781 
L 1638 3059 
Q 1775 3097 1914 3117 
Q 2053 3138 2203 3138 
Q 3056 3138 3531 2711 
Q 4006 2284 4006 1522 
Q 4006 766 3489 337 
Q 2972 -91 2053 -91 
Q 1656 -91 1267 -14 
Q 878 63 494 219 
L 494 1166 
Q 875 947 1217 837 
Q 1559 728 1863 728 
Q 2300 728 2551 942 
Q 2803 1156 2803 1522 
Q 2803 1891 2551 2103 
Q 2300 2316 1863 2316 
Q 1603 2316 1309 2248 
Q 1016 2181 678 2041 
L 678 4666 
z
" transform="scale(0.015625)"/>
      <path id="DejaVuSans-Bold-48" d="M 588 4666 
L 1791 4666 
L 1791 2888 
L 3566 2888 
L 3566 4666 
L 4769 4666 
L 4769 0 
L 3566 0 
L 3566 1978 
L 1791 1978 
L 1791 0 
L 588 0 
L 588 4666 
z
" transform="scale(0.015625)"/>
      <path id="DejaVuSans-Bold-7a" d="M 366 3500 
L 3419 3500 
L 3419 2719 
L 1575 800 
L 3419 800 
L 3419 0 
L 288 0 
L 288 781 
L 2131 2700 
L 366 2700 
L 366 3500 
z
" transform="scale(0.015625)"/>
     </defs>
     <use xlink:href="#DejaVuSans-Bold-66"/>
     <use xlink:href="#DejaVuSans-Bold-20" transform="translate(43.505859 0)"/>
     <use xlink:href="#DejaVuSans-Bold-3d" transform="translate(78.320312 0)"/>
     <use xlink:href="#DejaVuSans-Bold-20" transform="translate(162.109375 0)"/>
     <use xlink:href="#DejaVuSans-Bold-35" transform="translate(196.923828 0)"/>
     <use xlink:href="#DejaVuSans-Bold-20" transform="translate(266.503906 0)"/>
     <use xlink:href="#DejaVuSans-Bold-48" transform="translate(301.318359 0)"/>
     <use xlink:href="#DejaVuSans-Bold-7a" transform="translate(385.009766 0)"/>
    </g>
   </g>
   <g id="text_22">
    <!-- Without MIC -->
    <g style="fill: #333333" transform="translate(171.67275 32.983812) scale(0.14 -0.14)">
     <defs>
      <path id="DejaVuSans-Bold-57" d="M 191 4666 
L 1344 4666 
L 2150 1275 
L 2950 4666 
L 4109 4666 
L 4909 1275 
L 5716 4666 
L 6859 4666 
L 5759 0 
L 4372 0 
L 3525 3547 
L 2688 0 
L 1300 0 
L 191 4666 
z
" transform="scale(0.015625)"/>
      <path id="DejaVuSans-Bold-74" d="M 1759 4494 
L 1759 3500 
L 2913 3500 
L 2913 2700 
L 1759 2700 
L 1759 1216 
Q 1759 972 1856 886 
Q 1953 800 2241 800 
L 2816 800 
L 2816 0 
L 1856 0 
Q 1194 0 917 276 
Q 641 553 641 1216 
L 641 2700 
L 84 2700 
L 84 3500 
L 641 3500 
L 641 4494 
L 1759 4494 
z
" transform="scale(0.015625)"/>
      <path id="DejaVuSans-Bold-68" d="M 4056 2131 
L 4056 0 
L 2931 0 
L 2931 347 
L 2931 1625 
Q 2931 2084 2911 2256 
Q 2891 2428 2841 2509 
Q 2775 2619 2662 2680 
Q 2550 2741 2406 2741 
Q 2056 2741 1856 2470 
Q 1656 2200 1656 1722 
L 1656 0 
L 538 0 
L 538 4863 
L 1656 4863 
L 1656 2988 
Q 1909 3294 2193 3439 
Q 2478 3584 2822 3584 
Q 3428 3584 3742 3212 
Q 4056 2841 4056 2131 
z
" transform="scale(0.015625)"/>
      <path id="DejaVuSans-Bold-6f" d="M 2203 2784 
Q 1831 2784 1636 2517 
Q 1441 2250 1441 1747 
Q 1441 1244 1636 976 
Q 1831 709 2203 709 
Q 2569 709 2762 976 
Q 2956 1244 2956 1747 
Q 2956 2250 2762 2517 
Q 2569 2784 2203 2784 
z
M 2203 3584 
Q 3106 3584 3614 3096 
Q 4122 2609 4122 1747 
Q 4122 884 3614 396 
Q 3106 -91 2203 -91 
Q 1297 -91 786 396 
Q 275 884 275 1747 
Q 275 2609 786 3096 
Q 1297 3584 2203 3584 
z
" transform="scale(0.015625)"/>
      <path id="DejaVuSans-Bold-75" d="M 500 1363 
L 500 3500 
L 1625 3500 
L 1625 3150 
Q 1625 2866 1622 2436 
Q 1619 2006 1619 1863 
Q 1619 1441 1641 1255 
Q 1663 1069 1716 984 
Q 1784 875 1895 815 
Q 2006 756 2150 756 
Q 2500 756 2700 1025 
Q 2900 1294 2900 1772 
L 2900 3500 
L 4019 3500 
L 4019 0 
L 2900 0 
L 2900 506 
Q 2647 200 2364 54 
Q 2081 -91 1741 -91 
Q 1134 -91 817 281 
Q 500 653 500 1363 
z
" transform="scale(0.015625)"/>
      <path id="DejaVuSans-Bold-4d" d="M 588 4666 
L 2119 4666 
L 3181 2169 
L 4250 4666 
L 5778 4666 
L 5778 0 
L 4641 0 
L 4641 3413 
L 3566 897 
L 2803 897 
L 1728 3413 
L 1728 0 
L 588 0 
L 588 4666 
z
" transform="scale(0.015625)"/>
      <path id="DejaVuSans-Bold-49" d="M 588 4666 
L 1791 4666 
L 1791 0 
L 588 0 
L 588 4666 
z
" transform="scale(0.015625)"/>
      <path id="DejaVuSans-Bold-43" d="M 4288 256 
Q 3956 84 3597 -3 
Q 3238 -91 2847 -91 
Q 1681 -91 1000 561 
Q 319 1213 319 2328 
Q 319 3447 1000 4098 
Q 1681 4750 2847 4750 
Q 3238 4750 3597 4662 
Q 3956 4575 4288 4403 
L 4288 3438 
Q 3953 3666 3628 3772 
Q 3303 3878 2944 3878 
Q 2300 3878 1931 3465 
Q 1563 3053 1563 2328 
Q 1563 1606 1931 1193 
Q 2300 781 2944 781 
Q 3303 781 3628 887 
Q 3953 994 4288 1222 
L 4288 256 
z
" transform="scale(0.015625)"/>
     </defs>
     <use xlink:href="#DejaVuSans-Bold-57"/>
     <use xlink:href="#DejaVuSans-Bold-69" transform="translate(110.302734 0)"/>
     <use xlink:href="#DejaVuSans-Bold-74" transform="translate(144.580078 0)"/>
     <use xlink:href="#DejaVuSans-Bold-68" transform="translate(192.382812 0)"/>
     <use xlink:href="#DejaVuSans-Bold-6f" transform="translate(263.574219 0)"/>
     <use xlink:href="#DejaVuSans-Bold-75" transform="translate(332.275391 0)"/>
     <use xlink:href="#DejaVuSans-Bold-74" transform="translate(403.466797 0)"/>
     <use xlink:href="#DejaVuSans-Bold-20" transform="translate(451.269531 0)"/>
     <use xlink:href="#DejaVuSans-Bold-4d" transform="translate(486.083984 0)"/>
     <use xlink:href="#DejaVuSans-Bold-49" transform="translate(585.595703 0)"/>
     <use xlink:href="#DejaVuSans-Bold-43" transform="translate(622.802734 0)"/>
    </g>
   </g>
   <g id="text_23">
    <!-- With MIC -->
    <g style="fill: #d94452" transform="translate(501.693875 32.983812) scale(0.14 -0.14)">
     <use xlink:href="#DejaVuSans-Bold-57"/>
     <use xlink:href="#DejaVuSans-Bold-69" transform="translate(110.302734 0)"/>
     <use xlink:href="#DejaVuSans-Bold-74" transform="translate(144.580078 0)"/>
     <use xlink:href="#DejaVuSans-Bold-68" transform="translate(192.382812 0)"/>
     <use xlink:href="#DejaVuSans-Bold-20" transform="translate(263.574219 0)"/>
     <use xlink:href="#DejaVuSans-Bold-4d" transform="translate(298.388672 0)"/>
     <use xlink:href="#DejaVuSans-Bold-49" transform="translate(397.900391 0)"/>
     <use xlink:href="#DejaVuSans-Bold-43" transform="translate(435.107422 0)"/>
    </g>
   </g>
  </g>
 </g>
 <defs>
  <clipPath id="pcd0dedc1fe">
   <rect x="61.963281" y="7.2" width="633.766" height="302.92"/>
  </clipPath>
 </defs>
</svg>
