<?xml version="1.0" encoding="utf-8" standalone="no"?>
<!DOCTYPE svg PUBLIC "-//W3C//DTD SVG 1.1//EN"
  "http://www.w3.org/Graphics/SVG/1.1/DTD/svg11.dtd">
<svg xmlns:xlink="http://www.w3.org/1999/xlink" width="999.648656pt" height="352.192813pt" viewBox="0 0 999.648656 352.192813" xmlns="http://www.w3.org/2000/svg" version="1.1">
 <metadata>
  <rdf:RDF xmlns:dc="http://purl.org/dc/elements/1.1/" xmlns:cc="http://creativecommons.org/ns#" xmlns:rdf="http://www.w3.org/1999/02/22-rdf-syntax-ns#">
   <cc:Work>
    <dc:type rdf:resource="http://purl.org/dc/dcmitype/StillImage"/>
    <dc:date>2026-04-26T15:59:15.673513</dc:date>
    <dc:format>image/svg+xml</dc:format>
    <dc:creator>
     <cc:Agent>
      <dc:title>Matplotlib v3.10.8, https://matplotlib.org/</dc:title>
     </cc:Agent>
    </dc:creator>
   </cc:Work>
  </rdf:RDF>
 </metadata>
 <defs>
  <style type="text/css">*{stroke-linejoin: round; stroke-linecap: butt}</style>
 </defs>
 <g id="figure_1">
  <g id="patch_1">
   <path d="M 0 352.192813 
L 999.648656 352.192813 
L 999.648656 0 
L 0 0 
z
" style="fill: #ffffff"/>
  </g>
  <g id="axes_1">
   <g id="patch_2">
    <path d="M 61.963281 309.7975 
L 988.949281 309.7975 
L 988.949281 34.3575 
L 61.963281 34.3575 
z
" style="fill: #ffffff"/>
   </g>
   <g id="patch_3">
    <path d="M 679.953948 309.7975 
L 988.949281 309.7975 
L 988.949281 34.3575 
L 679.953948 34.3575 
z
" clip-path="url(#pea4f32004f)" style="fill: #f0ad4e; opacity: 0.15; stroke: #f0ad4e; stroke-linejoin: miter"/>
   </g>
   <g id="matplotlib.axis_1">
    <g id="xtick_1">
     <g id="line2d_1">
      <defs>
       <path id="mf32a57e287" d="M 0 0 
L 0 3.5 
" style="stroke: #000000; stroke-width: 0.8"/>
      </defs>
      <g>
       <use xlink:href="#mf32a57e287" x="61.963281" y="309.7975" style="stroke: #000000; stroke-width: 0.8"/>
      </g>
     </g>
     <g id="text_1">
      <!-- 0 -->
      <g transform="translate(58.463906 325.155781) scale(0.11 -0.11)">
       <defs>
        <path id="DejaVuSans-30" d="M 2034 4250 
Q 1547 4250 1301 3770 
Q 1056 3291 1056 2328 
Q 1056 1369 1301 889 
Q 1547 409 2034 409 
Q 2525 409 2770 889 
Q 3016 1369 3016 2328 
Q 3016 3291 2770 3770 
Q 2525 4250 2034 4250 
z
M 2034 4750 
Q 2819 4750 3233 4129 
Q 3647 3509 3647 2328 
Q 3647 1150 3233 529 
Q 2819 -91 2034 -91 
Q 1250 -91 836 529 
Q 422 1150 422 2328 
Q 422 3509 836 4129 
Q 1250 4750 2034 4750 
z
" transform="scale(0.015625)"/>
       </defs>
       <use xlink:href="#DejaVuSans-30"/>
      </g>
     </g>
    </g>
    <g id="xtick_2">
     <g id="line2d_2">
      <g>
       <use xlink:href="#mf32a57e287" x="216.460948" y="309.7975" style="stroke: #000000; stroke-width: 0.8"/>
      </g>
     </g>
     <g id="text_2">
      <!-- 1 -->
      <g transform="translate(212.961573 325.155781) scale(0.11 -0.11)">
       <defs>
        <path id="DejaVuSans-31" d="M 794 531 
L 1825 531 
L 1825 4091 
L 703 3866 
L 703 4441 
L 1819 4666 
L 2450 4666 
L 2450 531 
L 3481 531 
L 3481 0 
L 794 0 
L 794 531 
z
" transform="scale(0.015625)"/>
       </defs>
       <use xlink:href="#DejaVuSans-31"/>
      </g>
     </g>
    </g>
    <g id="xtick_3">
     <g id="line2d_3">
      <g>
       <use xlink:href="#mf32a57e287" x="370.958615" y="309.7975" style="stroke: #000000; stroke-width: 0.8"/>
      </g>
     </g>
     <g id="text_3">
      <!-- 2 -->
      <g transform="translate(367.45924 325.155781) scale(0.11 -0.11)">
       <defs>
        <path id="DejaVuSans-32" d="M 1228 531 
L 3431 531 
L 3431 0 
L 469 0 
L 469 531 
Q 828 903 1448 1529 
Q 2069 2156 2228 2338 
Q 2531 2678 2651 2914 
Q 2772 3150 2772 3378 
Q 2772 3750 2511 3984 
Q 2250 4219 1831 4219 
Q 1534 4219 1204 4116 
Q 875 4013 500 3803 
L 500 4441 
Q 881 4594 1212 4672 
Q 1544 4750 1819 4750 
Q 2544 4750 2975 4387 
Q 3406 4025 3406 3419 
Q 3406 3131 3298 2873 
Q 3191 2616 2906 2266 
Q 2828 2175 2409 1742 
Q 1991 1309 1228 531 
z
" transform="scale(0.015625)"/>
       </defs>
       <use xlink:href="#DejaVuSans-32"/>
      </g>
     </g>
    </g>
    <g id="xtick_4">
     <g id="line2d_4">
      <g>
       <use xlink:href="#mf32a57e287" x="525.456281" y="309.7975" style="stroke: #000000; stroke-width: 0.8"/>
      </g>
     </g>
     <g id="text_4">
      <!-- 3 -->
      <g transform="translate(521.956906 325.155781) scale(0.11 -0.11)">
       <defs>
        <path id="DejaVuSans-33" d="M 2597 2516 
Q 3050 2419 3304 2112 
Q 3559 1806 3559 1356 
Q 3559 666 3084 287 
Q 2609 -91 1734 -91 
Q 1441 -91 1130 -33 
Q 819 25 488 141 
L 488 750 
Q 750 597 1062 519 
Q 1375 441 1716 441 
Q 2309 441 2620 675 
Q 2931 909 2931 1356 
Q 2931 1769 2642 2001 
Q 2353 2234 1838 2234 
L 1294 2234 
L 1294 2753 
L 1863 2753 
Q 2328 2753 2575 2939 
Q 2822 3125 2822 3475 
Q 2822 3834 2567 4026 
Q 2313 4219 1838 4219 
Q 1578 4219 1281 4162 
Q 984 4106 628 3988 
L 628 4550 
Q 988 4650 1302 4700 
Q 1616 4750 1894 4750 
Q 2613 4750 3031 4423 
Q 3450 4097 3450 3541 
Q 3450 3153 3228 2886 
Q 3006 2619 2597 2516 
z
" transform="scale(0.015625)"/>
       </defs>
       <use xlink:href="#DejaVuSans-33"/>
      </g>
     </g>
    </g>
    <g id="xtick_5">
     <g id="line2d_5">
      <g>
       <use xlink:href="#mf32a57e287" x="679.953948" y="309.7975" style="stroke: #000000; stroke-width: 0.8"/>
      </g>
     </g>
     <g id="text_5">
      <!-- 4 -->
      <g transform="translate(676.454573 325.155781) scale(0.11 -0.11)">
       <defs>
        <path id="DejaVuSans-34" d="M 2419 4116 
L 825 1625 
L 2419 1625 
L 2419 4116 
z
M 2253 4666 
L 3047 4666 
L 3047 1625 
L 3713 1625 
L 3713 1100 
L 3047 1100 
L 3047 0 
L 2419 0 
L 2419 1100 
L 313 1100 
L 313 1709 
L 2253 4666 
z
" transform="scale(0.015625)"/>
       </defs>
       <use xlink:href="#DejaVuSans-34"/>
      </g>
     </g>
    </g>
    <g id="xtick_6">
     <g id="line2d_6">
      <g>
       <use xlink:href="#mf32a57e287" x="834.451615" y="309.7975" style="stroke: #000000; stroke-width: 0.8"/>
      </g>
     </g>
     <g id="text_6">
      <!-- 5 -->
      <g transform="translate(830.95224 325.155781) scale(0.11 -0.11)">
       <defs>
        <path id="DejaVuSans-35" d="M 691 4666 
L 3169 4666 
L 3169 4134 
L 1269 4134 
L 1269 2991 
Q 1406 3038 1543 3061 
Q 1681 3084 1819 3084 
Q 2600 3084 3056 2656 
Q 3513 2228 3513 1497 
Q 3513 744 3044 326 
Q 2575 -91 1722 -91 
Q 1428 -91 1123 -41 
Q 819 9 494 109 
L 494 744 
Q 775 591 1075 516 
Q 1375 441 1709 441 
Q 2250 441 2565 725 
Q 2881 1009 2881 1497 
Q 2881 1984 2565 2268 
Q 2250 2553 1709 2553 
Q 1456 2553 1204 2497 
Q 953 2441 691 2322 
L 691 4666 
z
" transform="scale(0.015625)"/>
       </defs>
       <use xlink:href="#DejaVuSans-35"/>
      </g>
     </g>
    </g>
    <g id="xtick_7">
     <g id="line2d_7">
      <g>
       <use xlink:href="#mf32a57e287" x="988.949281" y="309.7975" style="stroke: #000000; stroke-width: 0.8"/>
      </g>
     </g>
     <g id="text_7">
      <!-- 6 -->
      <g transform="translate(985.449906 325.155781) scale(0.11 -0.11)">
       <defs>
        <path id="DejaVuSans-36" d="M 2113 2584 
Q 1688 2584 1439 2293 
Q 1191 2003 1191 1497 
Q 1191 994 1439 701 
Q 1688 409 2113 409 
Q 2538 409 2786 701 
Q 3034 994 3034 1497 
Q 3034 2003 2786 2293 
Q 2538 2584 2113 2584 
z
M 3366 4563 
L 3366 3988 
Q 3128 4100 2886 4159 
Q 2644 4219 2406 4219 
Q 1781 4219 1451 3797 
Q 1122 3375 1075 2522 
Q 1259 2794 1537 2939 
Q 1816 3084 2150 3084 
Q 2853 3084 3261 2657 
Q 3669 2231 3669 1497 
Q 3669 778 3244 343 
Q 2819 -91 2113 -91 
Q 1303 -91 875 529 
Q 447 1150 447 2328 
Q 447 3434 972 4092 
Q 1497 4750 2381 4750 
Q 2619 4750 2861 4703 
Q 3103 4656 3366 4563 
z
" transform="scale(0.015625)"/>
       </defs>
       <use xlink:href="#DejaVuSans-36"/>
      </g>
     </g>
    </g>
    <g id="text_8">
     <!-- Time (s) -->
     <g transform="translate(493.237687 342.08125) scale(0.14 -0.14)">
      <defs>
       <path id="DejaVuSans-Bold-54" d="M 31 4666 
L 4331 4666 
L 4331 3756 
L 2784 3756 
L 2784 0 
L 1581 0 
L 1581 3756 
L 31 3756 
L 31 4666 
z
" transform="scale(0.015625)"/>
       <path id="DejaVuSans-Bold-69" d="M 538 3500 
L 1656 3500 
L 1656 0 
L 538 0 
L 538 3500 
z
M 538 4863 
L 1656 4863 
L 1656 3950 
L 538 3950 
L 538 4863 
z
" transform="scale(0.015625)"/>
       <path id="DejaVuSans-Bold-6d" d="M 3781 2919 
Q 3994 3244 4286 3414 
Q 4578 3584 4928 3584 
Q 5531 3584 5847 3212 
Q 6163 2841 6163 2131 
L 6163 0 
L 5038 0 
L 5038 1825 
Q 5041 1866 5042 1909 
Q 5044 1953 5044 2034 
Q 5044 2406 4934 2573 
Q 4825 2741 4581 2741 
Q 4263 2741 4089 2478 
Q 3916 2216 3909 1719 
L 3909 0 
L 2784 0 
L 2784 1825 
Q 2784 2406 2684 2573 
Q 2584 2741 2328 2741 
Q 2006 2741 1831 2477 
Q 1656 2213 1656 1722 
L 1656 0 
L 531 0 
L 531 3500 
L 1656 3500 
L 1656 2988 
Q 1863 3284 2130 3434 
Q 2397 3584 2719 3584 
Q 3081 3584 3359 3409 
Q 3638 3234 3781 2919 
z
" transform="scale(0.015625)"/>
       <path id="DejaVuSans-Bold-65" d="M 4031 1759 
L 4031 1441 
L 1416 1441 
Q 1456 1047 1700 850 
Q 1944 653 2381 653 
Q 2734 653 3104 758 
Q 3475 863 3866 1075 
L 3866 213 
Q 3469 63 3072 -14 
Q 2675 -91 2278 -91 
Q 1328 -91 801 392 
Q 275 875 275 1747 
Q 275 2603 792 3093 
Q 1309 3584 2216 3584 
Q 3041 3584 3536 3087 
Q 4031 2591 4031 1759 
z
M 2881 2131 
Q 2881 2450 2695 2645 
Q 2509 2841 2209 2841 
Q 1884 2841 1681 2658 
Q 1478 2475 1428 2131 
L 2881 2131 
z
" transform="scale(0.015625)"/>
       <path id="DejaVuSans-Bold-20" transform="scale(0.015625)"/>
       <path id="DejaVuSans-Bold-28" d="M 2413 -844 
L 1484 -844 
Q 1006 -72 778 623 
Q 550 1319 550 2003 
Q 550 2688 779 3389 
Q 1009 4091 1484 4856 
L 2413 4856 
Q 2013 4116 1813 3408 
Q 1613 2700 1613 2009 
Q 1613 1319 1811 609 
Q 2009 -100 2413 -844 
z
" transform="scale(0.015625)"/>
       <path id="DejaVuSans-Bold-73" d="M 3272 3391 
L 3272 2541 
Q 2913 2691 2578 2766 
Q 2244 2841 1947 2841 
Q 1628 2841 1473 2761 
Q 1319 2681 1319 2516 
Q 1319 2381 1436 2309 
Q 1553 2238 1856 2203 
L 2053 2175 
Q 2913 2066 3209 1816 
Q 3506 1566 3506 1031 
Q 3506 472 3093 190 
Q 2681 -91 1863 -91 
Q 1516 -91 1145 -36 
Q 775 19 384 128 
L 384 978 
Q 719 816 1070 734 
Q 1422 653 1784 653 
Q 2113 653 2278 743 
Q 2444 834 2444 1013 
Q 2444 1163 2330 1236 
Q 2216 1309 1875 1350 
L 1678 1375 
Q 931 1469 631 1722 
Q 331 1975 331 2491 
Q 331 3047 712 3315 
Q 1094 3584 1881 3584 
Q 2191 3584 2531 3537 
Q 2872 3491 3272 3391 
z
" transform="scale(0.015625)"/>
       <path id="DejaVuSans-Bold-29" d="M 513 -844 
Q 913 -100 1113 609 
Q 1313 1319 1313 2009 
Q 1313 2700 1113 3408 
Q 913 4116 513 4856 
L 1441 4856 
Q 1916 4091 2145 3389 
Q 2375 2688 2375 2003 
Q 2375 1319 2147 623 
Q 1919 -72 1441 -844 
L 513 -844 
z
" transform="scale(0.015625)"/>
      </defs>
      <use xlink:href="#DejaVuSans-Bold-54"/>
      <use xlink:href="#DejaVuSans-Bold-69" transform="translate(68.212891 0)"/>
      <use xlink:href="#DejaVuSans-Bold-6d" transform="translate(102.490234 0)"/>
      <use xlink:href="#DejaVuSans-Bold-65" transform="translate(206.689453 0)"/>
      <use xlink:href="#DejaVuSans-Bold-20" transform="translate(274.511719 0)"/>
      <use xlink:href="#DejaVuSans-Bold-28" transform="translate(309.326172 0)"/>
      <use xlink:href="#DejaVuSans-Bold-73" transform="translate(355.029297 0)"/>
      <use xlink:href="#DejaVuSans-Bold-29" transform="translate(414.550781 0)"/>
     </g>
    </g>
   </g>
   <g id="matplotlib.axis_2">
    <g id="ytick_1">
     <g id="line2d_8">
      <defs>
       <path id="mbc9aa28def" d="M 0 0 
L -3.5 0 
" style="stroke: #000000; stroke-width: 0.8"/>
      </defs>
      <g>
       <use xlink:href="#mbc9aa28def" x="61.963281" y="286.838651" style="stroke: #000000; stroke-width: 0.8"/>
      </g>
     </g>
     <g id="text_9">
      <!-- −300 -->
      <g transform="translate(24.749375 291.017792) scale(0.11 -0.11)">
       <defs>
        <path id="DejaVuSans-2212" d="M 678 2272 
L 4684 2272 
L 4684 1741 
L 678 1741 
L 678 2272 
z
" transform="scale(0.015625)"/>
       </defs>
       <use xlink:href="#DejaVuSans-2212"/>
       <use xlink:href="#DejaVuSans-33" transform="translate(83.789062 0)"/>
       <use xlink:href="#DejaVuSans-30" transform="translate(147.412109 0)"/>
       <use xlink:href="#DejaVuSans-30" transform="translate(211.035156 0)"/>
      </g>
     </g>
    </g>
    <g id="ytick_2">
     <g id="line2d_9">
      <g>
       <use xlink:href="#mbc9aa28def" x="61.963281" y="248.584934" style="stroke: #000000; stroke-width: 0.8"/>
      </g>
     </g>
     <g id="text_10">
      <!-- −200 -->
      <g transform="translate(24.749375 252.764075) scale(0.11 -0.11)">
       <use xlink:href="#DejaVuSans-2212"/>
       <use xlink:href="#DejaVuSans-32" transform="translate(83.789062 0)"/>
       <use xlink:href="#DejaVuSans-30" transform="translate(147.412109 0)"/>
       <use xlink:href="#DejaVuSans-30" transform="translate(211.035156 0)"/>
      </g>
     </g>
    </g>
    <g id="ytick_3">
     <g id="line2d_10">
      <g>
       <use xlink:href="#mbc9aa28def" x="61.963281" y="210.331217" style="stroke: #000000; stroke-width: 0.8"/>
      </g>
     </g>
     <g id="text_11">
      <!-- −100 -->
      <g transform="translate(24.749375 214.510358) scale(0.11 -0.11)">
       <use xlink:href="#DejaVuSans-2212"/>
       <use xlink:href="#DejaVuSans-31" transform="translate(83.789062 0)"/>
       <use xlink:href="#DejaVuSans-30" transform="translate(147.412109 0)"/>
       <use xlink:href="#DejaVuSans-30" transform="translate(211.035156 0)"/>
      </g>
     </g>
    </g>
    <g id="ytick_4">
     <g id="line2d_11">
      <g>
       <use xlink:href="#mbc9aa28def" x="61.963281" y="172.0775" style="stroke: #000000; stroke-width: 0.8"/>
      </g>
     </g>
     <g id="text_12">
      <!-- 0 -->
      <g transform="translate(47.964531 176.256641) scale(0.11 -0.11)">
       <use xlink:href="#DejaVuSans-30"/>
      </g>
     </g>
    </g>
    <g id="ytick_5">
     <g id="line2d_12">
      <g>
       <use xlink:href="#mbc9aa28def" x="61.963281" y="133.823783" style="stroke: #000000; stroke-width: 0.8"/>
      </g>
     </g>
     <g id="text_13">
      <!-- 100 -->
      <g transform="translate(33.967031 138.002924) scale(0.11 -0.11)">
       <use xlink:href="#DejaVuSans-31"/>
       <use xlink:href="#DejaVuSans-30" transform="translate(63.623047 0)"/>
       <use xlink:href="#DejaVuSans-30" transform="translate(127.246094 0)"/>
      </g>
     </g>
    </g>
    <g id="ytick_6">
     <g id="line2d_13">
      <g>
       <use xlink:href="#mbc9aa28def" x="61.963281" y="95.570066" style="stroke: #000000; stroke-width: 0.8"/>
      </g>
     </g>
     <g id="text_14">
      <!-- 200 -->
      <g transform="translate(33.967031 99.749207) scale(0.11 -0.11)">
       <use xlink:href="#DejaVuSans-32"/>
       <use xlink:href="#DejaVuSans-30" transform="translate(63.623047 0)"/>
       <use xlink:href="#DejaVuSans-30" transform="translate(127.246094 0)"/>
      </g>
     </g>
    </g>
    <g id="ytick_7">
     <g id="line2d_14">
      <g>
       <use xlink:href="#mbc9aa28def" x="61.963281" y="57.316349" style="stroke: #000000; stroke-width: 0.8"/>
      </g>
     </g>
     <g id="text_15">
      <!-- 300 -->
      <g transform="translate(33.967031 61.49549) scale(0.11 -0.11)">
       <use xlink:href="#DejaVuSans-33"/>
       <use xlink:href="#DejaVuSans-30" transform="translate(63.623047 0)"/>
       <use xlink:href="#DejaVuSans-30" transform="translate(127.246094 0)"/>
      </g>
     </g>
    </g>
    <g id="text_16">
     <!-- V$_{oc}$ (V) -->
     <g transform="translate(17.837813 197.7675) rotate(-90) scale(0.14 -0.14)">
      <defs>
       <path id="DejaVuSans-Bold-56" d="M 31 4666 
L 1241 4666 
L 2478 1222 
L 3713 4666 
L 4922 4666 
L 3194 0 
L 1759 0 
L 31 4666 
z
" transform="scale(0.015625)"/>
       <path id="DejaVuSans-Oblique-6f" d="M 1625 -91 
Q 1009 -91 651 289 
Q 294 669 294 1325 
Q 294 1706 417 2101 
Q 541 2497 738 2766 
Q 1047 3184 1428 3384 
Q 1809 3584 2291 3584 
Q 2888 3584 3255 3212 
Q 3622 2841 3622 2241 
Q 3622 1825 3500 1412 
Q 3378 1000 3181 728 
Q 2875 309 2494 109 
Q 2113 -91 1625 -91 
z
M 891 1344 
Q 891 869 1089 633 
Q 1288 397 1691 397 
Q 2269 397 2648 901 
Q 3028 1406 3028 2181 
Q 3028 2634 2825 2865 
Q 2622 3097 2228 3097 
Q 1903 3097 1650 2945 
Q 1397 2794 1197 2484 
Q 1050 2253 970 1956 
Q 891 1659 891 1344 
z
" transform="scale(0.015625)"/>
       <path id="DejaVuSans-Oblique-63" d="M 3431 3366 
L 3316 2797 
Q 3109 2947 2876 3022 
Q 2644 3097 2394 3097 
Q 2119 3097 1870 3000 
Q 1622 2903 1453 2725 
Q 1184 2453 1037 2087 
Q 891 1722 891 1331 
Q 891 859 1127 628 
Q 1363 397 1844 397 
Q 2081 397 2348 469 
Q 2616 541 2906 684 
L 2797 116 
Q 2547 13 2283 -39 
Q 2019 -91 1741 -91 
Q 1044 -91 669 257 
Q 294 606 294 1253 
Q 294 1797 489 2255 
Q 684 2713 1069 3078 
Q 1331 3328 1684 3456 
Q 2038 3584 2456 3584 
Q 2700 3584 2940 3529 
Q 3181 3475 3431 3366 
z
" transform="scale(0.015625)"/>
      </defs>
      <use xlink:href="#DejaVuSans-Bold-56" transform="translate(0 0.125)"/>
      <use xlink:href="#DejaVuSans-Oblique-6f" transform="translate(78.349609 -16.28125) scale(0.7)"/>
      <use xlink:href="#DejaVuSans-Oblique-63" transform="translate(121.176758 -16.28125) scale(0.7)"/>
      <use xlink:href="#DejaVuSans-Bold-20" transform="translate(162.397461 0.125)"/>
      <use xlink:href="#DejaVuSans-Bold-28" transform="translate(197.211914 0.125)"/>
      <use xlink:href="#DejaVuSans-Bold-56" transform="translate(242.915039 0.125)"/>
      <use xlink:href="#DejaVuSans-Bold-29" transform="translate(320.307617 0.125)"/>
     </g>
    </g>
   </g>
   <g id="patch_4">
    <path d="M 61.963281 309.7975 
L 61.963281 34.3575 
" style="fill: none; stroke: #000000; stroke-width: 0.8; stroke-linejoin: miter; stroke-linecap: square"/>
   </g>
   <g id="patch_5">
    <path d="M 61.963281 309.7975 
L 988.949281 309.7975 
" style="fill: none; stroke: #000000; stroke-width: 0.8; stroke-linejoin: miter; stroke-linecap: square"/>
   </g>
   <g id="line2d_15">
    <path d="M 679.953948 80.040968 
L 680.262943 80.546103 
L 681.035432 81.320525 
L 681.962418 82.114896 
L 683.507394 83.825665 
L 684.125385 84.972045 
L 684.588878 86.300884 
L 685.052371 88.249259 
L 685.515864 91.186196 
L 685.979357 95.680188 
L 686.44285 103.055961 
L 686.906343 115.664925 
L 687.369836 137.207261 
L 688.914813 216.050664 
L 689.687301 246.366774 
L 689.996296 253.833447 
L 690.150794 255.716689 
L 690.305292 256.093924 
L 690.459789 254.887124 
L 690.768785 248.748698 
L 691.232278 234.186722 
L 692.004766 198.622164 
L 694.013236 102.138368 
L 694.476729 89.566941 
L 694.940222 82.682215 
L 695.403715 78.778423 
L 695.867208 76.856447 
L 696.794194 75.323441 
L 697.257687 75.092288 
L 697.566682 75.04066 
L 698.33917 75.218425 
L 698.648166 75.424938 
L 699.420654 75.360989 
L 699.729649 75.321095 
L 701.738119 75.402057 
L 702.35611 75.37507 
L 702.819603 75.419658 
L 703.128598 75.409684 
L 703.437593 75.680732 
L 704.519077 75.610917 
L 704.673575 75.82623 
L 704.828072 75.772255 
L 705.137068 75.989915 
L 705.291565 75.918926 
L 706.064054 76.40646 
L 706.373049 76.558412 
L 706.527547 76.473342 
L 707.145537 76.952663 
L 707.454533 77.209631 
L 707.763528 77.551081 
L 707.918026 77.486546 
L 708.072523 77.710072 
L 708.227021 77.715352 
L 710.235491 80.055635 
L 710.389988 80.409992 
L 710.544486 80.438153 
L 713.325444 83.336371 
L 713.634439 83.266556 
L 714.097932 84.073246 
L 714.406928 84.55198 
L 714.715923 85.278294 
L 715.333914 87.087626 
L 715.642909 88.518547 
L 716.415397 94.849445 
L 716.87889 101.651443 
L 717.187886 108.644107 
L 717.651379 126.218731 
L 719.968844 239.043835 
L 720.432337 252.727556 
L 720.741332 256.242353 
L 720.89583 255.672101 
L 721.204825 250.443028 
L 721.668318 236.199033 
L 722.440806 201.330867 
L 724.449276 103.583366 
L 724.912769 90.283867 
L 725.376262 82.871127 
L 725.839755 78.80541 
L 726.457746 76.076744 
L 726.766741 75.365683 
L 727.230234 74.800706 
L 728.002722 74.697449 
L 730.16569 75.230159 
L 732.483155 75.39091 
L 734.182629 75.287654 
L 734.80062 75.466006 
L 735.727606 75.648464 
L 736.345596 75.945327 
L 736.809089 76.308484 
L 737.890573 77.18499 
L 738.199568 77.309954 
L 738.663061 77.634977 
L 738.972057 77.755247 
L 739.126554 78.092004 
L 739.590047 78.338998 
L 740.671531 79.070593 
L 740.980526 79.480098 
L 741.135024 79.55754 
L 741.444019 79.932432 
L 741.598517 80.030994 
L 742.216508 81.01897 
L 742.371005 81.035397 
L 742.834498 81.537598 
L 743.915982 82.59715 
L 744.07048 82.589523 
L 744.533973 83.209647 
L 745.306461 84.66169 
L 745.924452 86.845326 
L 746.387945 89.548176 
L 746.851438 93.604503 
L 747.314931 100.011665 
L 747.778424 110.945659 
L 748.241917 130.287361 
L 750.095889 224.045943 
L 750.713879 247.303701 
L 751.022875 254.543916 
L 751.177372 256.2271 
L 751.33187 256.317448 
L 751.486368 254.86131 
L 751.795363 248.370877 
L 752.258856 233.301421 
L 752.876847 205.532086 
L 755.039814 100.867614 
L 755.503307 88.473363 
L 755.9668 81.627945 
L 756.430293 78.199366 
L 756.893786 76.246295 
L 757.357279 75.395017 
L 757.666274 74.936817 
L 758.284265 74.713877 
L 758.59326 74.784865 
L 758.902256 75.03538 
L 759.674744 75.101675 
L 760.138237 75.194958 
L 760.447232 75.17501 
L 761.065223 75.174424 
L 761.374218 75.26184 
L 762.301204 75.350429 
L 763.22819 75.411444 
L 766.318144 75.302321 
L 766.627139 75.485953 
L 766.936134 75.551075 
L 767.86312 75.972314 
L 768.017618 75.976421 
L 768.172116 76.117812 
L 768.481111 76.534944 
L 771.416567 79.357481 
L 771.571064 79.265372 
L 772.343553 80.032755 
L 772.652548 80.399432 
L 773.425036 81.067665 
L 773.579534 81.173268 
L 774.043027 81.759365 
L 774.352022 82.181191 
L 774.815515 82.788995 
L 775.742501 84.424083 
L 776.205994 85.928926 
L 776.669487 88.184724 
L 777.13298 91.521192 
L 777.596473 96.591306 
L 778.059966 104.915743 
L 778.368962 113.751757 
L 778.832455 134.683947 
L 780.377431 213.808959 
L 781.14992 244.881887 
L 781.613413 255.467936 
L 781.76791 256.286354 
L 781.922408 255.551832 
L 782.231403 249.842268 
L 782.694896 235.857586 
L 783.467385 200.725999 
L 785.475854 102.286795 
L 785.939347 88.869373 
L 786.40284 81.585116 
L 786.866333 77.88549 
L 787.329826 76.067357 
L 787.638822 75.360402 
L 787.947817 75.099328 
L 788.565808 74.954417 
L 788.720305 74.794839 
L 788.874803 74.857614 
L 789.183798 75.26712 
L 789.801789 75.639078 
L 790.574277 75.724147 
L 790.883273 75.782228 
L 792.891742 75.585689 
L 793.200738 75.541101 
L 793.818728 75.531714 
L 796.136193 75.501793 
L 796.754184 75.579823 
L 797.526672 75.803936 
L 798.299161 76.239842 
L 800.771123 78.620606 
L 802.007105 79.902511 
L 802.470598 80.340177 
L 802.779593 80.530849 
L 803.861077 81.82214 
L 805.406053 83.043616 
L 805.869546 84.019858 
L 806.333039 85.154504 
L 806.796532 86.672841 
L 807.260025 89.053602 
L 807.723518 92.638236 
L 808.187011 98.20879 
L 808.650504 107.57576 
L 808.9595 117.46545 
L 809.57749 148.402885 
L 810.967969 218.343997 
L 811.740458 248.093373 
L 812.049453 254.973952 
L 812.203951 256.440651 
L 812.358448 256.326835 
L 812.667444 251.800017 
L 813.130937 238.5833 
L 813.748927 211.885247 
L 816.22089 93.903695 
L 816.684383 83.999904 
L 817.147876 78.970268 
L 817.456871 77.125734 
L 818.074862 75.51646 
L 818.538355 75.059434 
L 819.001848 74.94679 
L 819.310843 75.047113 
L 820.083332 75.586276 
L 820.392327 75.577476 
L 820.701322 75.554595 
L 820.85582 75.351602 
L 822.246299 75.291761 
L 822.86429 75.270053 
L 823.173285 75.108128 
L 825.027257 75.264186 
L 825.49075 75.214905 
L 826.417736 75.329895 
L 827.035727 75.463659 
L 827.962713 75.778122 
L 829.353192 76.602413 
L 829.816685 77.072934 
L 829.971182 77.06472 
L 830.434675 77.539934 
L 831.052666 78.28913 
L 832.288647 79.623836 
L 832.597643 80.078516 
L 833.524629 80.955608 
L 834.606112 81.884915 
L 834.76061 81.751738 
L 836.151089 83.209647 
L 836.614582 84.08146 
L 837.38707 86.714495 
L 837.850563 89.264808 
L 838.468554 95.016649 
L 838.932047 102.278019 
L 839.39554 114.938027 
L 839.859033 136.546071 
L 841.249512 208.522382 
L 842.176498 246.414295 
L 842.485493 254.214202 
L 842.639991 256.280487 
L 842.794489 256.786205 
L 842.948986 255.710822 
L 843.257982 249.749573 
L 843.721475 235.272666 
L 844.493963 199.545596 
L 846.502433 100.612403 
L 846.965926 87.523522 
L 847.429419 80.752025 
L 847.892912 77.362168 
L 848.356405 75.787508 
L 848.6654 75.410857 
L 849.128893 74.930363 
L 849.592386 75.017192 
L 850.519372 75.649638 
L 851.137363 75.715346 
L 852.218846 75.525847 
L 852.836837 75.487713 
L 853.454828 75.480086 
L 854.381814 75.515874 
L 855.772293 75.555182 
L 855.92679 75.60505 
L 856.235786 75.508247 
L 857.626265 75.445472 
L 857.93526 75.649051 
L 858.398753 75.815083 
L 859.171241 76.321391 
L 859.480237 76.678095 
L 860.252725 77.415557 
L 860.870716 78.51559 
L 861.952199 79.166222 
L 862.724688 79.917764 
L 863.033683 80.398845 
L 863.651674 80.820671 
L 863.806171 80.732082 
L 864.424162 81.058278 
L 865.19665 82.092602 
L 865.969139 82.604777 
L 866.123636 82.542001 
L 866.587129 83.084097 
L 866.896125 83.552271 
L 867.668613 85.587476 
L 868.132106 87.620335 
L 868.595599 90.718609 
L 869.059092 95.612719 
L 869.522585 103.56872 
L 869.83158 112.036886 
L 870.295073 132.385916 
L 871.994548 219.226951 
L 872.767036 248.71936 
L 873.076031 255.288999 
L 873.230529 256.526306 
L 873.385027 256.193659 
L 873.694022 251.070188 
L 874.157515 237.817683 
L 874.775506 210.629751 
L 877.092971 97.610938 
L 877.556464 85.802194 
L 878.019957 80.08966 
L 878.48345 77.114587 
L 878.946943 75.555182 
L 879.410436 75.000178 
L 879.719431 74.944443 
L 879.873929 75.000765 
L 880.028426 74.920976 
L 880.182924 75.053567 
L 880.337422 75.000178 
L 880.800915 75.418484 
L 881.10991 75.473633 
L 881.264408 75.260666 
L 882.036896 75.310534 
L 882.345891 75.135116 
L 883.427375 75.142156 
L 885.281347 75.108715 
L 885.590342 75.249519 
L 886.671826 75.442538 
L 886.826324 75.629691 
L 887.907807 75.59625 
L 888.062305 75.892525 
L 889.452784 76.18352 
L 889.916277 76.445768 
L 890.070775 76.38886 
L 890.37977 76.622947 
L 890.688765 77.025412 
L 891.770249 78.215794 
L 892.851733 79.460151 
L 893.160728 79.630289 
L 894.551207 80.696294 
L 894.705705 80.596558 
L 897.02317 82.692779 
L 897.486663 83.406773 
L 897.795658 84.105513 
L 898.568146 87.068265 
L 899.031639 90.072671 
L 899.340635 92.821281 
L 899.804128 99.163322 
L 900.267621 109.906644 
L 900.731114 128.987862 
L 902.585086 223.473343 
L 903.203076 246.947587 
L 903.512072 254.472928 
L 903.666569 256.316275 
L 903.821067 256.698203 
L 903.975565 255.358814 
L 904.28456 248.925875 
L 904.748053 234.247149 
L 905.520541 197.943371 
L 907.529011 99.150976 
L 907.992504 86.155376 
L 908.455997 79.904854 
L 908.91949 76.769617 
L 909.228485 75.601529 
L 909.846476 74.613554 
L 910.155471 74.570139 
L 910.464467 74.675742 
L 910.92796 75.075274 
L 911.391453 75.414964 
L 911.854946 75.471286 
L 912.009443 75.299974 
L 912.936429 75.335762 
L 913.245425 75.488886 
L 913.863415 75.518807 
L 914.172411 75.629104 
L 917.107866 75.589796 
L 917.262364 75.460139 
L 918.961838 75.588036 
L 919.270834 75.530541 
L 920.81581 76.160053 
L 921.897294 77.126909 
L 922.360787 77.939466 
L 923.133275 78.897521 
L 923.442271 79.231931 
L 924.987247 80.864086 
L 925.141745 81.275351 
L 925.45074 81.383887 
L 925.759736 81.606827 
L 926.068731 82.074414 
L 927.304712 83.132205 
L 927.768205 83.710089 
L 928.386196 84.78196 
L 928.695191 85.953567 
L 929.313182 88.653484 
L 929.776675 92.275079 
L 930.240168 98.102013 
L 930.703661 108.014596 
L 931.167154 125.840906 
L 933.330121 233.673364 
L 933.948112 253.470879 
L 934.257107 256.834312 
L 934.411605 256.210672 
L 934.7206 250.577964 
L 935.184093 236.952917 
L 935.802084 209.113181 
L 938.119549 95.363355 
L 938.583042 84.107265 
L 939.046535 78.82301 
L 939.510028 76.070876 
L 939.973521 74.758464 
L 940.591512 74.533178 
L 941.827493 75.066474 
L 942.136488 74.883428 
L 942.445484 75.060607 
L 942.599981 75.15741 
L 942.599981 75.15741 
" clip-path="url(#pea4f32004f)" style="fill: none; stroke: #333333; stroke-width: 0.8; stroke-linecap: square"/>
   </g>
   <g id="line2d_16">
    <path d="M 679.953948 89.069444 
L 681.962418 89.861466 
L 682.425911 90.153635 
L 682.889404 90.660529 
L 683.661892 91.429671 
L 684.279883 92.228734 
L 685.979357 96.459307 
L 686.751845 99.520032 
L 687.369836 103.180933 
L 687.833329 107.097039 
L 688.296822 112.714522 
L 688.760315 122.008734 
L 689.06931 132.33432 
L 691.541273 237.978431 
L 691.850268 244.943496 
L 692.004766 246.579159 
L 692.159264 246.620227 
L 692.313761 244.644876 
L 692.622757 235.619982 
L 693.549743 196.401004 
L 695.403715 115.685464 
L 695.867208 104.307356 
L 696.330701 97.304127 
L 696.948691 91.809254 
L 697.72118 88.149524 
L 698.184673 86.591879 
L 698.802663 85.58865 
L 699.575152 84.955032 
L 699.884147 84.77668 
L 700.193142 84.783133 
L 700.34764 84.434643 
L 701.274626 84.693371 
L 702.510607 84.818921 
L 703.437593 85.075302 
L 703.746589 85.371577 
L 704.364579 85.627958 
L 705.446063 86.245736 
L 706.682044 87.167416 
L 706.99104 87.509452 
L 707.145537 87.583961 
L 707.454533 87.920717 
L 707.918026 88.068562 
L 709.308505 88.867625 
L 709.771998 88.758502 
L 709.926495 89.003735 
L 710.080993 88.868798 
L 710.389988 89.003735 
L 710.544486 88.780209 
L 711.780467 89.547591 
L 712.089463 89.849146 
L 712.552956 90.053899 
L 712.707453 90.287399 
L 712.861951 90.266865 
L 713.016449 90.369534 
L 713.170946 90.302652 
L 713.943435 90.940377 
L 714.561425 91.548182 
L 714.715923 91.807495 
L 714.870421 91.84563 
L 715.951904 93.426155 
L 717.342383 97.450801 
L 718.114872 101.02546 
L 718.578365 104.147199 
L 719.041858 108.539691 
L 719.505351 115.277735 
L 719.968844 126.69221 
L 720.432337 147.131575 
L 721.668318 204.910203 
L 722.595304 238.3586 
L 722.904299 245.185208 
L 723.058797 246.734042 
L 723.213295 246.589719 
L 723.367792 244.660716 
L 723.676788 235.482112 
L 724.603774 196.158117 
L 726.612243 110.869394 
L 727.075736 101.403865 
L 727.539229 95.521198 
L 728.15722 90.874668 
L 728.775211 88.476307 
L 729.547699 86.982024 
L 729.856694 86.685162 
L 730.629183 85.798683 
L 731.865164 85.378031 
L 732.019662 85.366297 
L 732.328657 85.040101 
L 732.637652 85.117543 
L 732.79215 85.098769 
L 733.101145 84.901057 
L 734.337127 85.034234 
L 734.80062 85.219039 
L 735.573108 85.493021 
L 736.500094 86.057997 
L 737.581578 86.688095 
L 737.890573 86.784311 
L 740.362536 87.962372 
L 740.671531 88.028081 
L 742.525503 89.124006 
L 742.988996 89.330518 
L 743.452489 89.593352 
L 743.606987 89.564018 
L 743.915982 89.895494 
L 744.379475 90.199396 
L 745.615456 91.236066 
L 746.078949 91.819816 
L 746.851438 93.036597 
L 747.469428 94.346074 
L 748.241917 96.689286 
L 748.859907 99.280665 
L 749.477898 102.968554 
L 749.941391 106.990263 
L 750.404884 112.811911 
L 750.868377 122.342556 
L 751.177372 132.731503 
L 753.494837 234.082288 
L 753.95833 245.335984 
L 754.112828 246.834365 
L 754.267326 246.895966 
L 754.421823 244.844934 
L 754.730819 235.37651 
L 755.657805 195.884138 
L 757.511777 114.976752 
L 757.97527 103.619764 
L 758.438763 96.84358 
L 759.056753 91.196757 
L 759.520246 88.892852 
L 760.138237 86.73327 
L 760.60173 85.80807 
L 761.992209 84.691024 
L 762.301204 84.66697 
L 762.455702 84.610648 
L 762.6102 84.294426 
L 762.764697 84.346641 
L 763.073693 84.259225 
L 763.382688 84.496832 
L 765.082162 84.689264 
L 765.700153 84.903404 
L 766.318144 85.318776 
L 766.936134 85.558729 
L 771.725562 88.392998 
L 772.034557 88.401211 
L 772.49805 88.617697 
L 772.807046 88.914559 
L 773.888529 89.335212 
L 774.970013 89.826852 
L 775.279008 90.142488 
L 775.588004 90.208783 
L 776.360492 90.825974 
L 776.669487 91.292974 
L 777.287478 92.006381 
L 778.059966 93.36866 
L 778.523459 94.405329 
L 779.759441 98.874681 
L 780.377431 102.224053 
L 780.840924 105.742976 
L 781.304417 110.837726 
L 781.76791 118.978524 
L 782.076906 127.495377 
L 782.540399 148.127758 
L 783.77638 205.668193 
L 784.703366 239.063202 
L 785.012361 245.571829 
L 785.166859 246.856659 
L 785.321357 246.569185 
L 785.475854 244.355056 
L 785.78485 235.013355 
L 786.711836 195.362579 
L 788.565808 115.11169 
L 789.183798 101.449627 
L 789.801789 94.37482 
L 790.41978 90.421748 
L 791.03777 88.089095 
L 791.346766 87.547586 
L 791.964756 86.039223 
L 792.891742 84.928044 
L 793.509733 84.601848 
L 794.282221 84.640569 
L 794.436719 84.42291 
L 794.591217 84.417629 
L 794.900212 84.539073 
L 795.363705 84.55902 
L 795.518203 84.390055 
L 796.599686 84.669903 
L 796.908682 84.887563 
L 797.526672 85.027194 
L 797.68117 84.969699 
L 798.608156 85.545235 
L 798.917151 85.945354 
L 799.998635 86.585426 
L 800.153133 86.544945 
L 800.771123 86.913969 
L 801.080119 87.217284 
L 801.389114 87.359848 
L 801.698109 87.688977 
L 803.243086 88.647618 
L 803.552081 88.899892 
L 803.706579 88.959147 
L 804.015574 89.29649 
L 804.479067 89.535857 
L 805.097058 89.421454 
L 805.406053 89.740023 
L 805.560551 89.674901 
L 806.024044 90.014591 
L 806.642035 90.190009 
L 806.95103 90.496258 
L 807.105528 90.414122 
L 808.650504 92.261588 
L 808.9595 92.923954 
L 809.268495 93.491863 
L 810.040983 95.62739 
L 810.658974 97.933641 
L 811.276965 100.856496 
L 811.740458 104.227575 
L 812.203951 108.72391 
L 812.667444 115.865004 
L 813.130937 127.661994 
L 813.59443 148.61705 
L 814.984909 212.286534 
L 815.757397 238.942933 
L 816.066392 245.355345 
L 816.22089 246.615534 
L 816.375388 246.265872 
L 816.529885 244.164385 
L 816.993378 228.638492 
L 818.22936 173.898286 
L 819.465341 119.737086 
L 819.928834 106.792542 
L 820.392327 98.683418 
L 820.85582 94.008729 
L 821.473811 89.968829 
L 822.246299 86.708042 
L 823.018787 85.166238 
L 823.327783 84.809534 
L 823.636778 84.604781 
L 824.409266 84.11314 
L 825.027257 84.130741 
L 825.49075 84.386535 
L 825.799745 84.372455 
L 826.881229 84.486271 
L 827.344722 84.554914 
L 828.271708 84.897537 
L 828.580703 85.186772 
L 829.353192 85.58161 
L 829.816685 85.920713 
L 830.898168 86.608893 
L 831.516159 86.921595 
L 831.670657 86.825379 
L 832.75214 87.294139 
L 833.061136 87.608602 
L 835.996591 89.288863 
L 836.151089 89.210248 
L 836.614582 89.422041 
L 836.76908 89.551111 
L 836.923577 89.413827 
L 837.541568 89.74765 
L 838.159559 90.187662 
L 838.777549 90.713918 
L 839.550038 91.809255 
L 840.168028 92.900486 
L 841.40401 96.520322 
L 842.022 99.285359 
L 842.639991 103.055383 
L 843.103484 107.068292 
L 843.566977 113.070638 
L 844.03047 122.909876 
L 844.339465 133.593337 
L 846.347935 224.028939 
L 846.965926 242.883076 
L 847.274921 246.812658 
L 847.429419 246.490571 
L 847.583916 244.144438 
L 847.892912 234.21899 
L 848.819898 194.83046 
L 850.67387 114.352524 
L 851.137363 103.474267 
L 851.600856 96.435836 
L 852.218846 91.490685 
L 852.682339 89.182673 
L 853.609325 86.535558 
L 854.072818 85.792816 
L 855.154302 84.617689 
L 855.463297 84.473951 
L 857.162772 84.265092 
L 858.089758 84.43699 
L 859.94373 85.202612 
L 861.334209 86.105518 
L 861.643204 86.462809 
L 862.724688 86.903995 
L 863.497176 87.340487 
L 863.651674 87.622682 
L 863.806171 87.597455 
L 864.424162 87.907224 
L 864.57866 87.950638 
L 864.733157 87.825088 
L 865.351148 88.078535 
L 866.741627 88.864104 
L 866.896125 88.733274 
L 867.20512 88.973815 
L 867.668613 89.39564 
L 869.986078 91.229026 
L 871.067562 92.695147 
L 871.685552 94.188256 
L 872.303543 95.905478 
L 873.076031 99.111114 
L 873.539524 101.789908 
L 874.003017 105.438488 
L 874.46651 110.754416 
L 874.930003 119.107593 
L 875.238999 128.039229 
L 875.702492 149.360373 
L 876.938473 206.434398 
L 877.710961 234.925348 
L 878.174454 245.780688 
L 878.328952 246.92706 
L 878.48345 246.370301 
L 878.637947 243.859898 
L 879.10144 227.978477 
L 880.337422 173.528091 
L 881.573403 119.038349 
L 882.036896 106.199405 
L 882.654887 96.543786 
L 883.272877 91.166836 
L 883.890868 88.267447 
L 884.508859 86.415874 
L 884.972352 85.776976 
L 885.281347 85.439046 
L 885.590342 84.935084 
L 886.671826 84.398856 
L 888.989291 84.267438 
L 889.298286 84.31848 
L 889.607282 84.441684 
L 889.916277 84.479818 
L 890.843263 84.851189 
L 891.770249 85.385071 
L 891.924747 85.676066 
L 892.38824 85.920713 
L 894.242212 86.925702 
L 894.396709 87.42673 
L 895.0147 87.801621 
L 895.169198 87.680764 
L 897.332165 88.747941 
L 897.486663 88.740314 
L 897.64116 88.390064 
L 897.795658 88.368944 
L 898.104653 88.445213 
L 898.722644 88.741488 
L 899.186137 88.985548 
L 900.576616 90.123127 
L 901.812597 92.062116 
L 902.739583 94.050972 
L 903.357574 95.923665 
L 904.28456 100.314401 
L 904.902551 104.452861 
L 905.366044 109.054798 
L 905.829537 116.186506 
L 906.29303 128.417639 
L 906.91102 157.6267 
L 908.147002 213.095565 
L 908.91949 239.602361 
L 909.228485 245.734927 
L 909.382983 246.801511 
L 909.537481 246.096908 
L 909.846476 238.923576 
L 910.618964 207.295657 
L 912.781932 113.250734 
L 913.245425 102.4728 
L 913.708918 96.021051 
L 914.172411 91.909577 
L 914.635904 89.260702 
L 915.099397 87.693084 
L 915.408392 86.854713 
L 915.717387 86.423501 
L 916.335378 85.560489 
L 916.953369 85.042448 
L 917.725857 84.775507 
L 918.18935 84.742066 
L 918.498345 84.648783 
L 918.652843 84.65289 
L 918.807341 84.485098 
L 920.352317 84.67753 
L 920.970308 84.856469 
L 922.82428 85.704227 
L 924.987247 86.739723 
L 926.223229 87.227257 
L 926.532224 87.528813 
L 926.995717 87.663163 
L 927.304712 87.741779 
L 927.613708 87.89901 
L 927.922703 88.183552 
L 930.394666 89.661408 
L 930.858159 89.952402 
L 931.012656 89.959443 
L 932.557633 91.756454 
L 932.712131 92.111984 
L 932.866628 92.165372 
L 933.330121 93.00609 
L 934.566103 96.388905 
L 935.184093 98.956816 
L 935.802084 102.72684 
L 936.265577 106.784924 
L 936.72907 112.913993 
L 937.192563 123.212602 
L 937.501558 134.639973 
L 939.35553 219.353097 
L 939.973521 239.96845 
L 940.282516 245.922078 
L 940.437014 246.832605 
L 940.591512 246.0048 
L 940.900507 238.80624 
L 941.827493 200.287175 
L 943.835963 113.298256 
L 944.299456 102.718033 
L 944.762949 96.205857 
L 945.380939 90.911629 
L 945.844432 88.752047 
L 946.462423 86.852953 
L 947.234911 85.442566 
L 948.316395 84.574274 
L 949.243381 84.272132 
L 949.552376 84.356027 
L 950.015869 84.340187 
L 950.324865 84.330214 
L 951.715344 84.421736 
L 953.414818 85.132797 
L 954.032809 85.634411 
L 954.496302 86.131919 
L 954.805297 86.432301 
L 955.886781 87.053599 
L 956.195776 87.402676 
L 956.659269 87.694258 
L 956.813767 87.767593 
L 957.122762 88.066215 
L 957.431757 88.086749 
L 957.740753 88.145417 
L 957.89525 88.112563 
L 958.513241 88.330809 
L 958.976734 88.649378 
L 959.131232 88.82245 
L 959.440227 88.723301 
L 960.058218 89.03131 
L 960.212715 88.958561 
L 961.757692 89.833892 
L 962.221185 90.243984 
L 962.53018 90.394762 
L 962.993673 90.919844 
L 963.766162 92.031608 
L 965.311138 95.839183 
L 965.929129 98.218769 
L 966.54712 101.462539 
L 967.010613 104.867059 
L 967.474106 109.6274 
L 967.783101 113.956528 
L 968.246594 124.279191 
L 968.710087 143.194363 
L 969.946068 201.968 
L 970.873054 236.376794 
L 971.336547 246.498197 
L 971.491045 247.308989 
L 971.645543 246.278778 
L 971.954538 238.671303 
L 972.881524 199.882951 
L 974.735496 117.940668 
L 975.353487 102.693393 
L 975.81698 96.182389 
L 976.280473 92.173585 
L 976.743966 89.477775 
L 977.361956 87.190296 
L 978.134445 85.722414 
L 978.752435 85.12517 
L 979.215928 84.885803 
L 979.679421 84.735612 
L 980.606407 84.711558 
L 980.760905 84.517366 
L 981.842389 84.496832 
L 982.151384 84.515019 
L 982.769375 84.678117 
L 983.387365 84.795454 
L 983.850858 84.908097 
L 984.159854 85.185012 
L 984.468849 85.378031 
L 984.777844 85.777562 
L 987.404305 86.97733 
L 987.7133 87.181496 
L 988.949281 87.828608 
L 988.949281 87.828608 
" clip-path="url(#pea4f32004f)" style="fill: none; stroke: #d94452; stroke-width: 0.8; stroke-linecap: square"/>
   </g>
   <g id="text_17">
    <g id="patch_6">
     <path d="M 800.971615 280.8247 
L 867.931615 280.8247 
Q 869.531615 280.8247 869.531615 279.2247 
L 869.531615 270.7447 
Q 869.531615 269.1447 867.931615 269.1447 
L 800.971615 269.1447 
Q 799.371615 269.1447 799.371615 270.7447 
L 799.371615 279.2247 
Q 799.371615 280.8247 800.971615 280.8247 
z
" style="fill: #ffffff; opacity: 0.85; stroke: #333333; stroke-linejoin: miter"/>
    </g>
    <!-- V$_{p-p}$ = 476.71 V -->
    <g style="fill: #333333" transform="translate(800.971615 276.7447) scale(0.08 -0.08)">
     <defs>
      <path id="DejaVuSans-56" d="M 1831 0 
L 50 4666 
L 709 4666 
L 2188 738 
L 3669 4666 
L 4325 4666 
L 2547 0 
L 1831 0 
z
" transform="scale(0.015625)"/>
      <path id="DejaVuSans-Oblique-70" d="M 3175 2156 
Q 3175 2616 2975 2859 
Q 2775 3103 2400 3103 
Q 2144 3103 1911 2972 
Q 1678 2841 1497 2591 
Q 1319 2344 1212 1994 
Q 1106 1644 1106 1300 
Q 1106 863 1306 627 
Q 1506 391 1875 391 
Q 2147 391 2380 519 
Q 2613 647 2778 891 
Q 2956 1147 3065 1494 
Q 3175 1841 3175 2156 
z
M 1394 2969 
Q 1625 3272 1939 3428 
Q 2253 3584 2638 3584 
Q 3175 3584 3472 3232 
Q 3769 2881 3769 2247 
Q 3769 1728 3584 1258 
Q 3400 788 3053 416 
Q 2822 169 2531 39 
Q 2241 -91 1919 -91 
Q 1547 -91 1294 64 
Q 1041 219 916 525 
L 556 -1331 
L -19 -1331 
L 922 3500 
L 1497 3500 
L 1394 2969 
z
" transform="scale(0.015625)"/>
      <path id="DejaVuSans-20" transform="scale(0.015625)"/>
      <path id="DejaVuSans-3d" d="M 678 2906 
L 4684 2906 
L 4684 2381 
L 678 2381 
L 678 2906 
z
M 678 1631 
L 4684 1631 
L 4684 1100 
L 678 1100 
L 678 1631 
z
" transform="scale(0.015625)"/>
      <path id="DejaVuSans-37" d="M 525 4666 
L 3525 4666 
L 3525 4397 
L 1831 0 
L 1172 0 
L 2766 4134 
L 525 4134 
L 525 4666 
z
" transform="scale(0.015625)"/>
      <path id="DejaVuSans-2e" d="M 684 794 
L 1344 794 
L 1344 0 
L 684 0 
L 684 794 
z
" transform="scale(0.015625)"/>
     </defs>
     <use xlink:href="#DejaVuSans-56" transform="translate(0 0.78125)"/>
     <use xlink:href="#DejaVuSans-Oblique-70" transform="translate(69.365234 -15.625) scale(0.7)"/>
     <use xlink:href="#DejaVuSans-2212" transform="translate(127.436523 -15.625) scale(0.7)"/>
     <use xlink:href="#DejaVuSans-Oblique-70" transform="translate(199.726562 -15.625) scale(0.7)"/>
     <use xlink:href="#DejaVuSans-20" transform="translate(246.894531 0.78125)"/>
     <use xlink:href="#DejaVuSans-3d" transform="translate(278.681641 0.78125)"/>
     <use xlink:href="#DejaVuSans-20" transform="translate(362.470703 0.78125)"/>
     <use xlink:href="#DejaVuSans-34" transform="translate(394.257812 0.78125)"/>
     <use xlink:href="#DejaVuSans-37" transform="translate(457.880859 0.78125)"/>
     <use xlink:href="#DejaVuSans-36" transform="translate(521.503906 0.78125)"/>
     <use xlink:href="#DejaVuSans-2e" transform="translate(585.126953 0.78125)"/>
     <use xlink:href="#DejaVuSans-37" transform="translate(609.164062 0.78125)"/>
     <use xlink:href="#DejaVuSans-31" transform="translate(672.787109 0.78125)"/>
     <use xlink:href="#DejaVuSans-20" transform="translate(736.410156 0.78125)"/>
     <use xlink:href="#DejaVuSans-56" transform="translate(768.197266 0.78125)"/>
    </g>
   </g>
   <g id="text_18">
    <g id="patch_7">
     <path d="M 800.651615 302.8599 
L 868.251615 302.8599 
Q 869.851615 302.8599 869.851615 301.2599 
L 869.851615 292.7799 
Q 869.851615 291.1799 868.251615 291.1799 
L 800.651615 291.1799 
Q 799.051615 291.1799 799.051615 292.7799 
L 799.051615 301.2599 
Q 799.051615 302.8599 800.651615 302.8599 
z
" style="fill: #ffffff; opacity: 0.85; stroke: #d94452; stroke-linejoin: miter"/>
    </g>
    <!-- V$_{p-p}$ = 426.94 V -->
    <g style="fill: #d94452" transform="translate(800.651615 298.7799) scale(0.08 -0.08)">
     <defs>
      <path id="DejaVuSans-39" d="M 703 97 
L 703 672 
Q 941 559 1184 500 
Q 1428 441 1663 441 
Q 2288 441 2617 861 
Q 2947 1281 2994 2138 
Q 2813 1869 2534 1725 
Q 2256 1581 1919 1581 
Q 1219 1581 811 2004 
Q 403 2428 403 3163 
Q 403 3881 828 4315 
Q 1253 4750 1959 4750 
Q 2769 4750 3195 4129 
Q 3622 3509 3622 2328 
Q 3622 1225 3098 567 
Q 2575 -91 1691 -91 
Q 1453 -91 1209 -44 
Q 966 3 703 97 
z
M 1959 2075 
Q 2384 2075 2632 2365 
Q 2881 2656 2881 3163 
Q 2881 3666 2632 3958 
Q 2384 4250 1959 4250 
Q 1534 4250 1286 3958 
Q 1038 3666 1038 3163 
Q 1038 2656 1286 2365 
Q 1534 2075 1959 2075 
z
" transform="scale(0.015625)"/>
     </defs>
     <use xlink:href="#DejaVuSans-56" transform="translate(0 0.78125)"/>
     <use xlink:href="#DejaVuSans-Oblique-70" transform="translate(69.365234 -15.625) scale(0.7)"/>
     <use xlink:href="#DejaVuSans-2212" transform="translate(127.436523 -15.625) scale(0.7)"/>
     <use xlink:href="#DejaVuSans-Oblique-70" transform="translate(199.726562 -15.625) scale(0.7)"/>
     <use xlink:href="#DejaVuSans-20" transform="translate(246.894531 0.78125)"/>
     <use xlink:href="#DejaVuSans-3d" transform="translate(278.681641 0.78125)"/>
     <use xlink:href="#DejaVuSans-20" transform="translate(362.470703 0.78125)"/>
     <use xlink:href="#DejaVuSans-34" transform="translate(394.257812 0.78125)"/>
     <use xlink:href="#DejaVuSans-32" transform="translate(457.880859 0.78125)"/>
     <use xlink:href="#DejaVuSans-36" transform="translate(521.503906 0.78125)"/>
     <use xlink:href="#DejaVuSans-2e" transform="translate(585.126953 0.78125)"/>
     <use xlink:href="#DejaVuSans-39" transform="translate(616.914062 0.78125)"/>
     <use xlink:href="#DejaVuSans-34" transform="translate(680.537109 0.78125)"/>
     <use xlink:href="#DejaVuSans-20" transform="translate(744.160156 0.78125)"/>
     <use xlink:href="#DejaVuSans-56" transform="translate(775.947266 0.78125)"/>
    </g>
   </g>
   <g id="text_19">
    <!-- Open-Circuit Voltage — Bare vs MIC -->
    <g transform="translate(364.982531 19.3575) scale(0.16 -0.16)">
     <defs>
      <path id="DejaVuSans-Bold-4f" d="M 2719 3878 
Q 2169 3878 1866 3472 
Q 1563 3066 1563 2328 
Q 1563 1594 1866 1187 
Q 2169 781 2719 781 
Q 3272 781 3575 1187 
Q 3878 1594 3878 2328 
Q 3878 3066 3575 3472 
Q 3272 3878 2719 3878 
z
M 2719 4750 
Q 3844 4750 4481 4106 
Q 5119 3463 5119 2328 
Q 5119 1197 4481 553 
Q 3844 -91 2719 -91 
Q 1597 -91 958 553 
Q 319 1197 319 2328 
Q 319 3463 958 4106 
Q 1597 4750 2719 4750 
z
" transform="scale(0.015625)"/>
      <path id="DejaVuSans-Bold-70" d="M 1656 506 
L 1656 -1331 
L 538 -1331 
L 538 3500 
L 1656 3500 
L 1656 2988 
Q 1888 3294 2169 3439 
Q 2450 3584 2816 3584 
Q 3463 3584 3878 3070 
Q 4294 2556 4294 1747 
Q 4294 938 3878 423 
Q 3463 -91 2816 -91 
Q 2450 -91 2169 54 
Q 1888 200 1656 506 
z
M 2400 2772 
Q 2041 2772 1848 2508 
Q 1656 2244 1656 1747 
Q 1656 1250 1848 986 
Q 2041 722 2400 722 
Q 2759 722 2948 984 
Q 3138 1247 3138 1747 
Q 3138 2247 2948 2509 
Q 2759 2772 2400 2772 
z
" transform="scale(0.015625)"/>
      <path id="DejaVuSans-Bold-6e" d="M 4056 2131 
L 4056 0 
L 2931 0 
L 2931 347 
L 2931 1631 
Q 2931 2084 2911 2256 
Q 2891 2428 2841 2509 
Q 2775 2619 2662 2680 
Q 2550 2741 2406 2741 
Q 2056 2741 1856 2470 
Q 1656 2200 1656 1722 
L 1656 0 
L 538 0 
L 538 3500 
L 1656 3500 
L 1656 2988 
Q 1909 3294 2193 3439 
Q 2478 3584 2822 3584 
Q 3428 3584 3742 3212 
Q 4056 2841 4056 2131 
z
" transform="scale(0.015625)"/>
      <path id="DejaVuSans-Bold-2d" d="M 347 2297 
L 2309 2297 
L 2309 1388 
L 347 1388 
L 347 2297 
z
" transform="scale(0.015625)"/>
      <path id="DejaVuSans-Bold-43" d="M 4288 256 
Q 3956 84 3597 -3 
Q 3238 -91 2847 -91 
Q 1681 -91 1000 561 
Q 319 1213 319 2328 
Q 319 3447 1000 4098 
Q 1681 4750 2847 4750 
Q 3238 4750 3597 4662 
Q 3956 4575 4288 4403 
L 4288 3438 
Q 3953 3666 3628 3772 
Q 3303 3878 2944 3878 
Q 2300 3878 1931 3465 
Q 1563 3053 1563 2328 
Q 1563 1606 1931 1193 
Q 2300 781 2944 781 
Q 3303 781 3628 887 
Q 3953 994 4288 1222 
L 4288 256 
z
" transform="scale(0.015625)"/>
      <path id="DejaVuSans-Bold-72" d="M 3138 2547 
Q 2991 2616 2845 2648 
Q 2700 2681 2553 2681 
Q 2122 2681 1889 2404 
Q 1656 2128 1656 1613 
L 1656 0 
L 538 0 
L 538 3500 
L 1656 3500 
L 1656 2925 
Q 1872 3269 2151 3426 
Q 2431 3584 2822 3584 
Q 2878 3584 2943 3579 
Q 3009 3575 3134 3559 
L 3138 2547 
z
" transform="scale(0.015625)"/>
      <path id="DejaVuSans-Bold-63" d="M 3366 3391 
L 3366 2478 
Q 3138 2634 2908 2709 
Q 2678 2784 2431 2784 
Q 1963 2784 1702 2511 
Q 1441 2238 1441 1747 
Q 1441 1256 1702 982 
Q 1963 709 2431 709 
Q 2694 709 2930 787 
Q 3166 866 3366 1019 
L 3366 103 
Q 3103 6 2833 -42 
Q 2563 -91 2291 -91 
Q 1344 -91 809 395 
Q 275 881 275 1747 
Q 275 2613 809 3098 
Q 1344 3584 2291 3584 
Q 2566 3584 2833 3536 
Q 3100 3488 3366 3391 
z
" transform="scale(0.015625)"/>
      <path id="DejaVuSans-Bold-75" d="M 500 1363 
L 500 3500 
L 1625 3500 
L 1625 3150 
Q 1625 2866 1622 2436 
Q 1619 2006 1619 1863 
Q 1619 1441 1641 1255 
Q 1663 1069 1716 984 
Q 1784 875 1895 815 
Q 2006 756 2150 756 
Q 2500 756 2700 1025 
Q 2900 1294 2900 1772 
L 2900 3500 
L 4019 3500 
L 4019 0 
L 2900 0 
L 2900 506 
Q 2647 200 2364 54 
Q 2081 -91 1741 -91 
Q 1134 -91 817 281 
Q 500 653 500 1363 
z
" transform="scale(0.015625)"/>
      <path id="DejaVuSans-Bold-74" d="M 1759 4494 
L 1759 3500 
L 2913 3500 
L 2913 2700 
L 1759 2700 
L 1759 1216 
Q 1759 972 1856 886 
Q 1953 800 2241 800 
L 2816 800 
L 2816 0 
L 1856 0 
Q 1194 0 917 276 
Q 641 553 641 1216 
L 641 2700 
L 84 2700 
L 84 3500 
L 641 3500 
L 641 4494 
L 1759 4494 
z
" transform="scale(0.015625)"/>
      <path id="DejaVuSans-Bold-6f" d="M 2203 2784 
Q 1831 2784 1636 2517 
Q 1441 2250 1441 1747 
Q 1441 1244 1636 976 
Q 1831 709 2203 709 
Q 2569 709 2762 976 
Q 2956 1244 2956 1747 
Q 2956 2250 2762 2517 
Q 2569 2784 2203 2784 
z
M 2203 3584 
Q 3106 3584 3614 3096 
Q 4122 2609 4122 1747 
Q 4122 884 3614 396 
Q 3106 -91 2203 -91 
Q 1297 -91 786 396 
Q 275 884 275 1747 
Q 275 2609 786 3096 
Q 1297 3584 2203 3584 
z
" transform="scale(0.015625)"/>
      <path id="DejaVuSans-Bold-6c" d="M 538 4863 
L 1656 4863 
L 1656 0 
L 538 0 
L 538 4863 
z
" transform="scale(0.015625)"/>
      <path id="DejaVuSans-Bold-61" d="M 2106 1575 
Q 1756 1575 1579 1456 
Q 1403 1338 1403 1106 
Q 1403 894 1545 773 
Q 1688 653 1941 653 
Q 2256 653 2472 879 
Q 2688 1106 2688 1447 
L 2688 1575 
L 2106 1575 
z
M 3816 1997 
L 3816 0 
L 2688 0 
L 2688 519 
Q 2463 200 2181 54 
Q 1900 -91 1497 -91 
Q 953 -91 614 226 
Q 275 544 275 1050 
Q 275 1666 698 1953 
Q 1122 2241 2028 2241 
L 2688 2241 
L 2688 2328 
Q 2688 2594 2478 2717 
Q 2269 2841 1825 2841 
Q 1466 2841 1156 2769 
Q 847 2697 581 2553 
L 581 3406 
Q 941 3494 1303 3539 
Q 1666 3584 2028 3584 
Q 2975 3584 3395 3211 
Q 3816 2838 3816 1997 
z
" transform="scale(0.015625)"/>
      <path id="DejaVuSans-Bold-67" d="M 2919 594 
Q 2688 288 2409 144 
Q 2131 0 1766 0 
Q 1125 0 706 504 
Q 288 1009 288 1791 
Q 288 2575 706 3076 
Q 1125 3578 1766 3578 
Q 2131 3578 2409 3434 
Q 2688 3291 2919 2981 
L 2919 3500 
L 4044 3500 
L 4044 353 
Q 4044 -491 3511 -936 
Q 2978 -1381 1966 -1381 
Q 1638 -1381 1331 -1331 
Q 1025 -1281 716 -1178 
L 716 -306 
Q 1009 -475 1290 -558 
Q 1572 -641 1856 -641 
Q 2406 -641 2662 -400 
Q 2919 -159 2919 353 
L 2919 594 
z
M 2181 2772 
Q 1834 2772 1640 2515 
Q 1447 2259 1447 1791 
Q 1447 1309 1634 1061 
Q 1822 813 2181 813 
Q 2531 813 2725 1069 
Q 2919 1325 2919 1791 
Q 2919 2259 2725 2515 
Q 2531 2772 2181 2772 
z
" transform="scale(0.015625)"/>
      <path id="DejaVuSans-Bold-2014" d="M 344 2156 
L 6056 2156 
L 6056 1350 
L 344 1350 
L 344 2156 
z
" transform="scale(0.015625)"/>
      <path id="DejaVuSans-Bold-42" d="M 2456 2859 
Q 2741 2859 2887 2984 
Q 3034 3109 3034 3353 
Q 3034 3594 2887 3720 
Q 2741 3847 2456 3847 
L 1791 3847 
L 1791 2859 
L 2456 2859 
z
M 2497 819 
Q 2859 819 3042 972 
Q 3225 1125 3225 1434 
Q 3225 1738 3044 1889 
Q 2863 2041 2497 2041 
L 1791 2041 
L 1791 819 
L 2497 819 
z
M 3616 2497 
Q 4003 2384 4215 2081 
Q 4428 1778 4428 1338 
Q 4428 663 3972 331 
Q 3516 0 2584 0 
L 588 0 
L 588 4666 
L 2394 4666 
Q 3366 4666 3802 4372 
Q 4238 4078 4238 3431 
Q 4238 3091 4078 2852 
Q 3919 2613 3616 2497 
z
" transform="scale(0.015625)"/>
      <path id="DejaVuSans-Bold-76" d="M 97 3500 
L 1216 3500 
L 2088 1081 
L 2956 3500 
L 4078 3500 
L 2700 0 
L 1472 0 
L 97 3500 
z
" transform="scale(0.015625)"/>
      <path id="DejaVuSans-Bold-4d" d="M 588 4666 
L 2119 4666 
L 3181 2169 
L 4250 4666 
L 5778 4666 
L 5778 0 
L 4641 0 
L 4641 3413 
L 3566 897 
L 2803 897 
L 1728 3413 
L 1728 0 
L 588 0 
L 588 4666 
z
" transform="scale(0.015625)"/>
      <path id="DejaVuSans-Bold-49" d="M 588 4666 
L 1791 4666 
L 1791 0 
L 588 0 
L 588 4666 
z
" transform="scale(0.015625)"/>
     </defs>
     <use xlink:href="#DejaVuSans-Bold-4f"/>
     <use xlink:href="#DejaVuSans-Bold-70" transform="translate(85.009766 0)"/>
     <use xlink:href="#DejaVuSans-Bold-65" transform="translate(156.591797 0)"/>
     <use xlink:href="#DejaVuSans-Bold-6e" transform="translate(224.414062 0)"/>
     <use xlink:href="#DejaVuSans-Bold-2d" transform="translate(295.605469 0)"/>
     <use xlink:href="#DejaVuSans-Bold-43" transform="translate(337.109375 0)"/>
     <use xlink:href="#DejaVuSans-Bold-69" transform="translate(410.498047 0)"/>
     <use xlink:href="#DejaVuSans-Bold-72" transform="translate(444.775391 0)"/>
     <use xlink:href="#DejaVuSans-Bold-63" transform="translate(494.091797 0)"/>
     <use xlink:href="#DejaVuSans-Bold-75" transform="translate(553.369141 0)"/>
     <use xlink:href="#DejaVuSans-Bold-69" transform="translate(624.560547 0)"/>
     <use xlink:href="#DejaVuSans-Bold-74" transform="translate(658.837891 0)"/>
     <use xlink:href="#DejaVuSans-Bold-20" transform="translate(706.640625 0)"/>
     <use xlink:href="#DejaVuSans-Bold-56" transform="translate(741.455078 0)"/>
     <use xlink:href="#DejaVuSans-Bold-6f" transform="translate(813.347656 0)"/>
     <use xlink:href="#DejaVuSans-Bold-6c" transform="translate(882.048828 0)"/>
     <use xlink:href="#DejaVuSans-Bold-74" transform="translate(916.326172 0)"/>
     <use xlink:href="#DejaVuSans-Bold-61" transform="translate(964.128906 0)"/>
     <use xlink:href="#DejaVuSans-Bold-67" transform="translate(1031.609375 0)"/>
     <use xlink:href="#DejaVuSans-Bold-65" transform="translate(1103.191406 0)"/>
     <use xlink:href="#DejaVuSans-Bold-20" transform="translate(1171.013672 0)"/>
     <use xlink:href="#DejaVuSans-Bold-2014" transform="translate(1205.828125 0)"/>
     <use xlink:href="#DejaVuSans-Bold-20" transform="translate(1305.828125 0)"/>
     <use xlink:href="#DejaVuSans-Bold-42" transform="translate(1340.642578 0)"/>
     <use xlink:href="#DejaVuSans-Bold-61" transform="translate(1416.863281 0)"/>
     <use xlink:href="#DejaVuSans-Bold-72" transform="translate(1484.34375 0)"/>
     <use xlink:href="#DejaVuSans-Bold-65" transform="translate(1533.660156 0)"/>
     <use xlink:href="#DejaVuSans-Bold-20" transform="translate(1601.482422 0)"/>
     <use xlink:href="#DejaVuSans-Bold-76" transform="translate(1636.296875 0)"/>
     <use xlink:href="#DejaVuSans-Bold-73" transform="translate(1701.482422 0)"/>
     <use xlink:href="#DejaVuSans-Bold-20" transform="translate(1761.003906 0)"/>
     <use xlink:href="#DejaVuSans-Bold-4d" transform="translate(1795.818359 0)"/>
     <use xlink:href="#DejaVuSans-Bold-49" transform="translate(1895.330078 0)"/>
     <use xlink:href="#DejaVuSans-Bold-43" transform="translate(1932.537109 0)"/>
    </g>
   </g>
   <g id="text_20">
    <!-- 5 Hz -->
    <g style="fill: #f0ad4e" transform="translate(818.443333 55.253069) scale(0.13 -0.13)">
     <defs>
      <path id="DejaVuSans-Bold-35" d="M 678 4666 
L 3669 4666 
L 3669 3781 
L 1638 3781 
L 1638 3059 
Q 1775 3097 1914 3117 
Q 2053 3138 2203 3138 
Q 3056 3138 3531 2711 
Q 4006 2284 4006 1522 
Q 4006 766 3489 337 
Q 2972 -91 2053 -91 
Q 1656 -91 1267 -14 
Q 878 63 494 219 
L 494 1166 
Q 875 947 1217 837 
Q 1559 728 1863 728 
Q 2300 728 2551 942 
Q 2803 1156 2803 1522 
Q 2803 1891 2551 2103 
Q 2300 2316 1863 2316 
Q 1603 2316 1309 2248 
Q 1016 2181 678 2041 
L 678 4666 
z
" transform="scale(0.015625)"/>
      <path id="DejaVuSans-Bold-48" d="M 588 4666 
L 1791 4666 
L 1791 2888 
L 3566 2888 
L 3566 4666 
L 4769 4666 
L 4769 0 
L 3566 0 
L 3566 1978 
L 1791 1978 
L 1791 0 
L 588 0 
L 588 4666 
z
" transform="scale(0.015625)"/>
      <path id="DejaVuSans-Bold-7a" d="M 366 3500 
L 3419 3500 
L 3419 2719 
L 1575 800 
L 3419 800 
L 3419 0 
L 288 0 
L 288 781 
L 2131 2700 
L 366 2700 
L 366 3500 
z
" transform="scale(0.015625)"/>
     </defs>
     <use xlink:href="#DejaVuSans-Bold-35"/>
     <use xlink:href="#DejaVuSans-Bold-20" transform="translate(69.580078 0)"/>
     <use xlink:href="#DejaVuSans-Bold-48" transform="translate(104.394531 0)"/>
     <use xlink:href="#DejaVuSans-Bold-7a" transform="translate(188.085938 0)"/>
    </g>
   </g>
   <g id="legend_1">
    <g id="patch_8">
     <path d="M 69.663281 75.449375 
L 171.75875 75.449375 
Q 173.95875 75.449375 173.95875 73.249375 
L 173.95875 42.0575 
Q 173.95875 39.8575 171.75875 39.8575 
L 69.663281 39.8575 
Q 67.463281 39.8575 67.463281 42.0575 
L 67.463281 73.249375 
Q 67.463281 75.449375 69.663281 75.449375 
z
" style="fill: #ffffff; opacity: 0.9; stroke: #808080; stroke-linejoin: miter"/>
    </g>
    <g id="patch_9">
     <path d="M 71.863281 52.615781 
L 93.863281 52.615781 
L 93.863281 44.915781 
L 71.863281 44.915781 
z
" style="fill: #333333; stroke: #333333; stroke-linejoin: miter"/>
    </g>
    <g id="text_21">
     <!-- Without MIC -->
     <g transform="translate(102.663281 52.615781) scale(0.11 -0.11)">
      <defs>
       <path id="DejaVuSans-57" d="M 213 4666 
L 850 4666 
L 1831 722 
L 2809 4666 
L 3519 4666 
L 4500 722 
L 5478 4666 
L 6119 4666 
L 4947 0 
L 4153 0 
L 3169 4050 
L 2175 0 
L 1381 0 
L 213 4666 
z
" transform="scale(0.015625)"/>
       <path id="DejaVuSans-69" d="M 603 3500 
L 1178 3500 
L 1178 0 
L 603 0 
L 603 3500 
z
M 603 4863 
L 1178 4863 
L 1178 4134 
L 603 4134 
L 603 4863 
z
" transform="scale(0.015625)"/>
       <path id="DejaVuSans-74" d="M 1172 4494 
L 1172 3500 
L 2356 3500 
L 2356 3053 
L 1172 3053 
L 1172 1153 
Q 1172 725 1289 603 
Q 1406 481 1766 481 
L 2356 481 
L 2356 0 
L 1766 0 
Q 1100 0 847 248 
Q 594 497 594 1153 
L 594 3053 
L 172 3053 
L 172 3500 
L 594 3500 
L 594 4494 
L 1172 4494 
z
" transform="scale(0.015625)"/>
       <path id="DejaVuSans-68" d="M 3513 2113 
L 3513 0 
L 2938 0 
L 2938 2094 
Q 2938 2591 2744 2837 
Q 2550 3084 2163 3084 
Q 1697 3084 1428 2787 
Q 1159 2491 1159 1978 
L 1159 0 
L 581 0 
L 581 4863 
L 1159 4863 
L 1159 2956 
Q 1366 3272 1645 3428 
Q 1925 3584 2291 3584 
Q 2894 3584 3203 3211 
Q 3513 2838 3513 2113 
z
" transform="scale(0.015625)"/>
       <path id="DejaVuSans-6f" d="M 1959 3097 
Q 1497 3097 1228 2736 
Q 959 2375 959 1747 
Q 959 1119 1226 758 
Q 1494 397 1959 397 
Q 2419 397 2687 759 
Q 2956 1122 2956 1747 
Q 2956 2369 2687 2733 
Q 2419 3097 1959 3097 
z
M 1959 3584 
Q 2709 3584 3137 3096 
Q 3566 2609 3566 1747 
Q 3566 888 3137 398 
Q 2709 -91 1959 -91 
Q 1206 -91 779 398 
Q 353 888 353 1747 
Q 353 2609 779 3096 
Q 1206 3584 1959 3584 
z
" transform="scale(0.015625)"/>
       <path id="DejaVuSans-75" d="M 544 1381 
L 544 3500 
L 1119 3500 
L 1119 1403 
Q 1119 906 1312 657 
Q 1506 409 1894 409 
Q 2359 409 2629 706 
Q 2900 1003 2900 1516 
L 2900 3500 
L 3475 3500 
L 3475 0 
L 2900 0 
L 2900 538 
Q 2691 219 2414 64 
Q 2138 -91 1772 -91 
Q 1169 -91 856 284 
Q 544 659 544 1381 
z
M 1991 3584 
L 1991 3584 
z
" transform="scale(0.015625)"/>
       <path id="DejaVuSans-4d" d="M 628 4666 
L 1569 4666 
L 2759 1491 
L 3956 4666 
L 4897 4666 
L 4897 0 
L 4281 0 
L 4281 4097 
L 3078 897 
L 2444 897 
L 1241 4097 
L 1241 0 
L 628 0 
L 628 4666 
z
" transform="scale(0.015625)"/>
       <path id="DejaVuSans-49" d="M 628 4666 
L 1259 4666 
L 1259 0 
L 628 0 
L 628 4666 
z
" transform="scale(0.015625)"/>
       <path id="DejaVuSans-43" d="M 4122 4306 
L 4122 3641 
Q 3803 3938 3442 4084 
Q 3081 4231 2675 4231 
Q 1875 4231 1450 3742 
Q 1025 3253 1025 2328 
Q 1025 1406 1450 917 
Q 1875 428 2675 428 
Q 3081 428 3442 575 
Q 3803 722 4122 1019 
L 4122 359 
Q 3791 134 3420 21 
Q 3050 -91 2638 -91 
Q 1578 -91 968 557 
Q 359 1206 359 2328 
Q 359 3453 968 4101 
Q 1578 4750 2638 4750 
Q 3056 4750 3426 4639 
Q 3797 4528 4122 4306 
z
" transform="scale(0.015625)"/>
      </defs>
      <use xlink:href="#DejaVuSans-57"/>
      <use xlink:href="#DejaVuSans-69" transform="translate(96.626953 0)"/>
      <use xlink:href="#DejaVuSans-74" transform="translate(124.410156 0)"/>
      <use xlink:href="#DejaVuSans-68" transform="translate(163.619141 0)"/>
      <use xlink:href="#DejaVuSans-6f" transform="translate(226.998047 0)"/>
      <use xlink:href="#DejaVuSans-75" transform="translate(288.179688 0)"/>
      <use xlink:href="#DejaVuSans-74" transform="translate(351.558594 0)"/>
      <use xlink:href="#DejaVuSans-20" transform="translate(390.767578 0)"/>
      <use xlink:href="#DejaVuSans-4d" transform="translate(422.554688 0)"/>
      <use xlink:href="#DejaVuSans-49" transform="translate(508.833984 0)"/>
      <use xlink:href="#DejaVuSans-43" transform="translate(538.326172 0)"/>
     </g>
    </g>
    <g id="patch_10">
     <path d="M 71.863281 68.761719 
L 93.863281 68.761719 
L 93.863281 61.061719 
L 71.863281 61.061719 
z
" style="fill: #d94452; stroke: #d94452; stroke-linejoin: miter"/>
    </g>
    <g id="text_22">
     <!-- With MIC -->
     <g transform="translate(102.663281 68.761719) scale(0.11 -0.11)">
      <use xlink:href="#DejaVuSans-57"/>
      <use xlink:href="#DejaVuSans-69" transform="translate(96.626953 0)"/>
      <use xlink:href="#DejaVuSans-74" transform="translate(124.410156 0)"/>
      <use xlink:href="#DejaVuSans-68" transform="translate(163.619141 0)"/>
      <use xlink:href="#DejaVuSans-20" transform="translate(226.998047 0)"/>
      <use xlink:href="#DejaVuSans-4d" transform="translate(258.785156 0)"/>
      <use xlink:href="#DejaVuSans-49" transform="translate(345.064453 0)"/>
      <use xlink:href="#DejaVuSans-43" transform="translate(374.556641 0)"/>
     </g>
    </g>
   </g>
  </g>
 </g>
 <defs>
  <clipPath id="pea4f32004f">
   <rect x="61.963281" y="34.3575" width="926.986" height="275.44"/>
  </clipPath>
 </defs>
</svg>
