<?xml version="1.0" encoding="utf-8" standalone="no"?>
<!DOCTYPE svg PUBLIC "-//W3C//DTD SVG 1.1//EN"
  "http://www.w3.org/Graphics/SVG/1.1/DTD/svg11.dtd">
<svg xmlns:xlink="http://www.w3.org/1999/xlink" width="424.525211pt" height="352.792812pt" viewBox="0 0 424.525211 352.792812" xmlns="http://www.w3.org/2000/svg" version="1.1">
 <metadata>
  <rdf:RDF xmlns:dc="http://purl.org/dc/elements/1.1/" xmlns:cc="http://creativecommons.org/ns#" xmlns:rdf="http://www.w3.org/1999/02/22-rdf-syntax-ns#">
   <cc:Work>
    <dc:type rdf:resource="http://purl.org/dc/dcmitype/StillImage"/>
    <dc:date>2026-04-26T16:42:28.843759</dc:date>
    <dc:format>image/svg+xml</dc:format>
    <dc:creator>
     <cc:Agent>
      <dc:title>Matplotlib v3.10.8, https://matplotlib.org/</dc:title>
     </cc:Agent>
    </dc:creator>
   </cc:Work>
  </rdf:RDF>
 </metadata>
 <defs>
  <style type="text/css">*{stroke-linejoin: round; stroke-linecap: butt}</style>
 </defs>
 <g id="figure_1">
  <g id="patch_1">
   <path d="M 0 352.792812 
L 424.525211 352.792812 
L 424.525211 0 
L 0 0 
z
" style="fill: #ffffff"/>
  </g>
  <g id="axes_1">
   <g id="patch_2">
    <path d="M 48.029375 310.3975 
L 413.825836 310.3975 
L 413.825836 34.3575 
L 48.029375 34.3575 
z
" style="fill: #ffffff"/>
   </g>
   <g id="patch_3">
    <path d="M 48.029375 310.3975 
L 169.961529 310.3975 
L 169.961529 34.3575 
L 48.029375 34.3575 
z
" clip-path="url(#p9fc8747bac)" style="fill: #4a90d9; opacity: 0.15; stroke: #4a90d9; stroke-linejoin: miter"/>
   </g>
   <g id="patch_4">
    <path d="M 169.961529 310.3975 
L 291.893682 310.3975 
L 291.893682 34.3575 
L 169.961529 34.3575 
z
" clip-path="url(#p9fc8747bac)" style="fill: #5cb85c; opacity: 0.15; stroke: #5cb85c; stroke-linejoin: miter"/>
   </g>
   <g id="patch_5">
    <path d="M 291.893682 310.3975 
L 413.825836 310.3975 
L 413.825836 34.3575 
L 291.893682 34.3575 
z
" clip-path="url(#p9fc8747bac)" style="fill: #f0ad4e; opacity: 0.15; stroke: #f0ad4e; stroke-linejoin: miter"/>
   </g>
   <g id="matplotlib.axis_1">
    <g id="xtick_1">
     <g id="line2d_1">
      <defs>
       <path id="mb3714c133e" d="M 0 0 
L 0 3.5 
" style="stroke: #000000; stroke-width: 0.8"/>
      </defs>
      <g>
       <use xlink:href="#mb3714c133e" x="48.029375" y="310.3975" style="stroke: #000000; stroke-width: 0.8"/>
      </g>
     </g>
     <g id="text_1">
      <!-- 0 -->
      <g transform="translate(44.53 325.755781) scale(0.11 -0.11)">
       <defs>
        <path id="DejaVuSans-30" d="M 2034 4250 
Q 1547 4250 1301 3770 
Q 1056 3291 1056 2328 
Q 1056 1369 1301 889 
Q 1547 409 2034 409 
Q 2525 409 2770 889 
Q 3016 1369 3016 2328 
Q 3016 3291 2770 3770 
Q 2525 4250 2034 4250 
z
M 2034 4750 
Q 2819 4750 3233 4129 
Q 3647 3509 3647 2328 
Q 3647 1150 3233 529 
Q 2819 -91 2034 -91 
Q 1250 -91 836 529 
Q 422 1150 422 2328 
Q 422 3509 836 4129 
Q 1250 4750 2034 4750 
z
" transform="scale(0.015625)"/>
       </defs>
       <use xlink:href="#DejaVuSans-30"/>
      </g>
     </g>
    </g>
    <g id="xtick_2">
     <g id="line2d_2">
      <g>
       <use xlink:href="#mb3714c133e" x="108.995452" y="310.3975" style="stroke: #000000; stroke-width: 0.8"/>
      </g>
     </g>
     <g id="text_2">
      <!-- 1 -->
      <g transform="translate(105.496077 325.755781) scale(0.11 -0.11)">
       <defs>
        <path id="DejaVuSans-31" d="M 794 531 
L 1825 531 
L 1825 4091 
L 703 3866 
L 703 4441 
L 1819 4666 
L 2450 4666 
L 2450 531 
L 3481 531 
L 3481 0 
L 794 0 
L 794 531 
z
" transform="scale(0.015625)"/>
       </defs>
       <use xlink:href="#DejaVuSans-31"/>
      </g>
     </g>
    </g>
    <g id="xtick_3">
     <g id="line2d_3">
      <g>
       <use xlink:href="#mb3714c133e" x="169.961529" y="310.3975" style="stroke: #000000; stroke-width: 0.8"/>
      </g>
     </g>
     <g id="text_3">
      <!-- 2 -->
      <g transform="translate(166.462154 325.755781) scale(0.11 -0.11)">
       <defs>
        <path id="DejaVuSans-32" d="M 1228 531 
L 3431 531 
L 3431 0 
L 469 0 
L 469 531 
Q 828 903 1448 1529 
Q 2069 2156 2228 2338 
Q 2531 2678 2651 2914 
Q 2772 3150 2772 3378 
Q 2772 3750 2511 3984 
Q 2250 4219 1831 4219 
Q 1534 4219 1204 4116 
Q 875 4013 500 3803 
L 500 4441 
Q 881 4594 1212 4672 
Q 1544 4750 1819 4750 
Q 2544 4750 2975 4387 
Q 3406 4025 3406 3419 
Q 3406 3131 3298 2873 
Q 3191 2616 2906 2266 
Q 2828 2175 2409 1742 
Q 1991 1309 1228 531 
z
" transform="scale(0.015625)"/>
       </defs>
       <use xlink:href="#DejaVuSans-32"/>
      </g>
     </g>
    </g>
    <g id="xtick_4">
     <g id="line2d_4">
      <g>
       <use xlink:href="#mb3714c133e" x="230.927605" y="310.3975" style="stroke: #000000; stroke-width: 0.8"/>
      </g>
     </g>
     <g id="text_4">
      <!-- 3 -->
      <g transform="translate(227.42823 325.755781) scale(0.11 -0.11)">
       <defs>
        <path id="DejaVuSans-33" d="M 2597 2516 
Q 3050 2419 3304 2112 
Q 3559 1806 3559 1356 
Q 3559 666 3084 287 
Q 2609 -91 1734 -91 
Q 1441 -91 1130 -33 
Q 819 25 488 141 
L 488 750 
Q 750 597 1062 519 
Q 1375 441 1716 441 
Q 2309 441 2620 675 
Q 2931 909 2931 1356 
Q 2931 1769 2642 2001 
Q 2353 2234 1838 2234 
L 1294 2234 
L 1294 2753 
L 1863 2753 
Q 2328 2753 2575 2939 
Q 2822 3125 2822 3475 
Q 2822 3834 2567 4026 
Q 2313 4219 1838 4219 
Q 1578 4219 1281 4162 
Q 984 4106 628 3988 
L 628 4550 
Q 988 4650 1302 4700 
Q 1616 4750 1894 4750 
Q 2613 4750 3031 4423 
Q 3450 4097 3450 3541 
Q 3450 3153 3228 2886 
Q 3006 2619 2597 2516 
z
" transform="scale(0.015625)"/>
       </defs>
       <use xlink:href="#DejaVuSans-33"/>
      </g>
     </g>
    </g>
    <g id="xtick_5">
     <g id="line2d_5">
      <g>
       <use xlink:href="#mb3714c133e" x="291.893682" y="310.3975" style="stroke: #000000; stroke-width: 0.8"/>
      </g>
     </g>
     <g id="text_5">
      <!-- 4 -->
      <g transform="translate(288.394307 325.755781) scale(0.11 -0.11)">
       <defs>
        <path id="DejaVuSans-34" d="M 2419 4116 
L 825 1625 
L 2419 1625 
L 2419 4116 
z
M 2253 4666 
L 3047 4666 
L 3047 1625 
L 3713 1625 
L 3713 1100 
L 3047 1100 
L 3047 0 
L 2419 0 
L 2419 1100 
L 313 1100 
L 313 1709 
L 2253 4666 
z
" transform="scale(0.015625)"/>
       </defs>
       <use xlink:href="#DejaVuSans-34"/>
      </g>
     </g>
    </g>
    <g id="xtick_6">
     <g id="line2d_6">
      <g>
       <use xlink:href="#mb3714c133e" x="352.859759" y="310.3975" style="stroke: #000000; stroke-width: 0.8"/>
      </g>
     </g>
     <g id="text_6">
      <!-- 5 -->
      <g transform="translate(349.360384 325.755781) scale(0.11 -0.11)">
       <defs>
        <path id="DejaVuSans-35" d="M 691 4666 
L 3169 4666 
L 3169 4134 
L 1269 4134 
L 1269 2991 
Q 1406 3038 1543 3061 
Q 1681 3084 1819 3084 
Q 2600 3084 3056 2656 
Q 3513 2228 3513 1497 
Q 3513 744 3044 326 
Q 2575 -91 1722 -91 
Q 1428 -91 1123 -41 
Q 819 9 494 109 
L 494 744 
Q 775 591 1075 516 
Q 1375 441 1709 441 
Q 2250 441 2565 725 
Q 2881 1009 2881 1497 
Q 2881 1984 2565 2268 
Q 2250 2553 1709 2553 
Q 1456 2553 1204 2497 
Q 953 2441 691 2322 
L 691 4666 
z
" transform="scale(0.015625)"/>
       </defs>
       <use xlink:href="#DejaVuSans-35"/>
      </g>
     </g>
    </g>
    <g id="xtick_7">
     <g id="line2d_7">
      <g>
       <use xlink:href="#mb3714c133e" x="413.825836" y="310.3975" style="stroke: #000000; stroke-width: 0.8"/>
      </g>
     </g>
     <g id="text_7">
      <!-- 6 -->
      <g transform="translate(410.326461 325.755781) scale(0.11 -0.11)">
       <defs>
        <path id="DejaVuSans-36" d="M 2113 2584 
Q 1688 2584 1439 2293 
Q 1191 2003 1191 1497 
Q 1191 994 1439 701 
Q 1688 409 2113 409 
Q 2538 409 2786 701 
Q 3034 994 3034 1497 
Q 3034 2003 2786 2293 
Q 2538 2584 2113 2584 
z
M 3366 4563 
L 3366 3988 
Q 3128 4100 2886 4159 
Q 2644 4219 2406 4219 
Q 1781 4219 1451 3797 
Q 1122 3375 1075 2522 
Q 1259 2794 1537 2939 
Q 1816 3084 2150 3084 
Q 2853 3084 3261 2657 
Q 3669 2231 3669 1497 
Q 3669 778 3244 343 
Q 2819 -91 2113 -91 
Q 1303 -91 875 529 
Q 447 1150 447 2328 
Q 447 3434 972 4092 
Q 1497 4750 2381 4750 
Q 2619 4750 2861 4703 
Q 3103 4656 3366 4563 
z
" transform="scale(0.015625)"/>
       </defs>
       <use xlink:href="#DejaVuSans-36"/>
      </g>
     </g>
    </g>
    <g id="text_8">
     <!-- Time (s) -->
     <g transform="translate(198.709012 342.68125) scale(0.14 -0.14)">
      <defs>
       <path id="DejaVuSans-Bold-54" d="M 31 4666 
L 4331 4666 
L 4331 3756 
L 2784 3756 
L 2784 0 
L 1581 0 
L 1581 3756 
L 31 3756 
L 31 4666 
z
" transform="scale(0.015625)"/>
       <path id="DejaVuSans-Bold-69" d="M 538 3500 
L 1656 3500 
L 1656 0 
L 538 0 
L 538 3500 
z
M 538 4863 
L 1656 4863 
L 1656 3950 
L 538 3950 
L 538 4863 
z
" transform="scale(0.015625)"/>
       <path id="DejaVuSans-Bold-6d" d="M 3781 2919 
Q 3994 3244 4286 3414 
Q 4578 3584 4928 3584 
Q 5531 3584 5847 3212 
Q 6163 2841 6163 2131 
L 6163 0 
L 5038 0 
L 5038 1825 
Q 5041 1866 5042 1909 
Q 5044 1953 5044 2034 
Q 5044 2406 4934 2573 
Q 4825 2741 4581 2741 
Q 4263 2741 4089 2478 
Q 3916 2216 3909 1719 
L 3909 0 
L 2784 0 
L 2784 1825 
Q 2784 2406 2684 2573 
Q 2584 2741 2328 2741 
Q 2006 2741 1831 2477 
Q 1656 2213 1656 1722 
L 1656 0 
L 531 0 
L 531 3500 
L 1656 3500 
L 1656 2988 
Q 1863 3284 2130 3434 
Q 2397 3584 2719 3584 
Q 3081 3584 3359 3409 
Q 3638 3234 3781 2919 
z
" transform="scale(0.015625)"/>
       <path id="DejaVuSans-Bold-65" d="M 4031 1759 
L 4031 1441 
L 1416 1441 
Q 1456 1047 1700 850 
Q 1944 653 2381 653 
Q 2734 653 3104 758 
Q 3475 863 3866 1075 
L 3866 213 
Q 3469 63 3072 -14 
Q 2675 -91 2278 -91 
Q 1328 -91 801 392 
Q 275 875 275 1747 
Q 275 2603 792 3093 
Q 1309 3584 2216 3584 
Q 3041 3584 3536 3087 
Q 4031 2591 4031 1759 
z
M 2881 2131 
Q 2881 2450 2695 2645 
Q 2509 2841 2209 2841 
Q 1884 2841 1681 2658 
Q 1478 2475 1428 2131 
L 2881 2131 
z
" transform="scale(0.015625)"/>
       <path id="DejaVuSans-Bold-20" transform="scale(0.015625)"/>
       <path id="DejaVuSans-Bold-28" d="M 2413 -844 
L 1484 -844 
Q 1006 -72 778 623 
Q 550 1319 550 2003 
Q 550 2688 779 3389 
Q 1009 4091 1484 4856 
L 2413 4856 
Q 2013 4116 1813 3408 
Q 1613 2700 1613 2009 
Q 1613 1319 1811 609 
Q 2009 -100 2413 -844 
z
" transform="scale(0.015625)"/>
       <path id="DejaVuSans-Bold-73" d="M 3272 3391 
L 3272 2541 
Q 2913 2691 2578 2766 
Q 2244 2841 1947 2841 
Q 1628 2841 1473 2761 
Q 1319 2681 1319 2516 
Q 1319 2381 1436 2309 
Q 1553 2238 1856 2203 
L 2053 2175 
Q 2913 2066 3209 1816 
Q 3506 1566 3506 1031 
Q 3506 472 3093 190 
Q 2681 -91 1863 -91 
Q 1516 -91 1145 -36 
Q 775 19 384 128 
L 384 978 
Q 719 816 1070 734 
Q 1422 653 1784 653 
Q 2113 653 2278 743 
Q 2444 834 2444 1013 
Q 2444 1163 2330 1236 
Q 2216 1309 1875 1350 
L 1678 1375 
Q 931 1469 631 1722 
Q 331 1975 331 2491 
Q 331 3047 712 3315 
Q 1094 3584 1881 3584 
Q 2191 3584 2531 3537 
Q 2872 3491 3272 3391 
z
" transform="scale(0.015625)"/>
       <path id="DejaVuSans-Bold-29" d="M 513 -844 
Q 913 -100 1113 609 
Q 1313 1319 1313 2009 
Q 1313 2700 1113 3408 
Q 913 4116 513 4856 
L 1441 4856 
Q 1916 4091 2145 3389 
Q 2375 2688 2375 2003 
Q 2375 1319 2147 623 
Q 1919 -72 1441 -844 
L 513 -844 
z
" transform="scale(0.015625)"/>
      </defs>
      <use xlink:href="#DejaVuSans-Bold-54"/>
      <use xlink:href="#DejaVuSans-Bold-69" transform="translate(68.212891 0)"/>
      <use xlink:href="#DejaVuSans-Bold-6d" transform="translate(102.490234 0)"/>
      <use xlink:href="#DejaVuSans-Bold-65" transform="translate(206.689453 0)"/>
      <use xlink:href="#DejaVuSans-Bold-20" transform="translate(274.511719 0)"/>
      <use xlink:href="#DejaVuSans-Bold-28" transform="translate(309.326172 0)"/>
      <use xlink:href="#DejaVuSans-Bold-73" transform="translate(355.029297 0)"/>
      <use xlink:href="#DejaVuSans-Bold-29" transform="translate(414.550781 0)"/>
     </g>
    </g>
   </g>
   <g id="matplotlib.axis_2">
    <g id="ytick_1">
     <g id="line2d_8">
      <defs>
       <path id="m9d379f7870" d="M 0 0 
L -3.5 0 
" style="stroke: #000000; stroke-width: 0.8"/>
      </defs>
      <g>
       <use xlink:href="#m9d379f7870" x="48.029375" y="264.554462" style="stroke: #000000; stroke-width: 0.8"/>
      </g>
     </g>
     <g id="text_9">
      <!-- $\mathdefault{−2}$ -->
      <g transform="translate(24.749375 268.733603) scale(0.11 -0.11)">
       <defs>
        <path id="DejaVuSans-2212" d="M 678 2272 
L 4684 2272 
L 4684 1741 
L 678 1741 
L 678 2272 
z
" transform="scale(0.015625)"/>
       </defs>
       <use xlink:href="#DejaVuSans-2212" transform="translate(0 0.78125)"/>
       <use xlink:href="#DejaVuSans-32" transform="translate(83.789062 0.78125)"/>
      </g>
     </g>
    </g>
    <g id="ytick_2">
     <g id="line2d_9">
      <g>
       <use xlink:href="#m9d379f7870" x="48.029375" y="218.465981" style="stroke: #000000; stroke-width: 0.8"/>
      </g>
     </g>
     <g id="text_10">
      <!-- $\mathdefault{−1}$ -->
      <g transform="translate(24.749375 222.645122) scale(0.11 -0.11)">
       <use xlink:href="#DejaVuSans-2212" transform="translate(0 0.09375)"/>
       <use xlink:href="#DejaVuSans-31" transform="translate(83.789062 0.09375)"/>
      </g>
     </g>
    </g>
    <g id="ytick_3">
     <g id="line2d_10">
      <g>
       <use xlink:href="#m9d379f7870" x="48.029375" y="172.3775" style="stroke: #000000; stroke-width: 0.8"/>
      </g>
     </g>
     <g id="text_11">
      <!-- $\mathdefault{0}$ -->
      <g transform="translate(33.989375 176.556641) scale(0.11 -0.11)">
       <use xlink:href="#DejaVuSans-30" transform="translate(0 0.78125)"/>
      </g>
     </g>
    </g>
    <g id="ytick_4">
     <g id="line2d_11">
      <g>
       <use xlink:href="#m9d379f7870" x="48.029375" y="126.289019" style="stroke: #000000; stroke-width: 0.8"/>
      </g>
     </g>
     <g id="text_12">
      <!-- $\mathdefault{1}$ -->
      <g transform="translate(33.989375 130.468159) scale(0.11 -0.11)">
       <use xlink:href="#DejaVuSans-31" transform="translate(0 0.09375)"/>
      </g>
     </g>
    </g>
    <g id="ytick_5">
     <g id="line2d_12">
      <g>
       <use xlink:href="#m9d379f7870" x="48.029375" y="80.200538" style="stroke: #000000; stroke-width: 0.8"/>
      </g>
     </g>
     <g id="text_13">
      <!-- $\mathdefault{2}$ -->
      <g transform="translate(33.989375 84.379678) scale(0.11 -0.11)">
       <use xlink:href="#DejaVuSans-32" transform="translate(0 0.78125)"/>
      </g>
     </g>
    </g>
    <g id="text_14">
     <!-- I$_{sc}$ (mA/m²) -->
     <g transform="translate(17.837812 215.0075) rotate(-90) scale(0.14 -0.14)">
      <defs>
       <path id="DejaVuSans-Bold-49" d="M 588 4666 
L 1791 4666 
L 1791 0 
L 588 0 
L 588 4666 
z
" transform="scale(0.015625)"/>
       <path id="DejaVuSans-Oblique-73" d="M 3200 3397 
L 3091 2853 
Q 2863 2978 2609 3040 
Q 2356 3103 2088 3103 
Q 1634 3103 1373 2948 
Q 1113 2794 1113 2528 
Q 1113 2219 1719 2053 
Q 1766 2041 1788 2034 
L 1972 1978 
Q 2547 1819 2739 1644 
Q 2931 1469 2931 1166 
Q 2931 609 2489 259 
Q 2047 -91 1331 -91 
Q 1053 -91 747 -37 
Q 441 16 72 128 
L 184 722 
Q 500 559 806 475 
Q 1113 391 1394 391 
Q 1816 391 2080 572 
Q 2344 753 2344 1031 
Q 2344 1331 1650 1516 
L 1591 1531 
L 1394 1581 
Q 956 1697 753 1886 
Q 550 2075 550 2369 
Q 550 2928 970 3256 
Q 1391 3584 2113 3584 
Q 2397 3584 2667 3537 
Q 2938 3491 3200 3397 
z
" transform="scale(0.015625)"/>
       <path id="DejaVuSans-Oblique-63" d="M 3431 3366 
L 3316 2797 
Q 3109 2947 2876 3022 
Q 2644 3097 2394 3097 
Q 2119 3097 1870 3000 
Q 1622 2903 1453 2725 
Q 1184 2453 1037 2087 
Q 891 1722 891 1331 
Q 891 859 1127 628 
Q 1363 397 1844 397 
Q 2081 397 2348 469 
Q 2616 541 2906 684 
L 2797 116 
Q 2547 13 2283 -39 
Q 2019 -91 1741 -91 
Q 1044 -91 669 257 
Q 294 606 294 1253 
Q 294 1797 489 2255 
Q 684 2713 1069 3078 
Q 1331 3328 1684 3456 
Q 2038 3584 2456 3584 
Q 2700 3584 2940 3529 
Q 3181 3475 3431 3366 
z
" transform="scale(0.015625)"/>
       <path id="DejaVuSans-Bold-41" d="M 3419 850 
L 1538 850 
L 1241 0 
L 31 0 
L 1759 4666 
L 3194 4666 
L 4922 0 
L 3713 0 
L 3419 850 
z
M 1838 1716 
L 3116 1716 
L 2478 3572 
L 1838 1716 
z
" transform="scale(0.015625)"/>
       <path id="DejaVuSans-Bold-2f" d="M 1644 4666 
L 2338 4666 
L 691 -594 
L 0 -594 
L 1644 4666 
z
" transform="scale(0.015625)"/>
       <path id="DejaVuSans-Bold-b2" d="M 1288 2613 
L 2444 2613 
L 2444 2088 
L 341 2088 
L 341 2566 
L 1319 3397 
Q 1509 3563 1590 3688 
Q 1672 3813 1672 3938 
Q 1672 4094 1558 4191 
Q 1444 4288 1259 4288 
Q 1066 4288 844 4217 
Q 622 4147 359 4000 
L 359 4581 
Q 631 4666 886 4708 
Q 1141 4750 1375 4750 
Q 1869 4750 2150 4548 
Q 2431 4347 2431 4000 
Q 2431 3775 2320 3586 
Q 2209 3397 1894 3128 
L 1288 2613 
z
" transform="scale(0.015625)"/>
      </defs>
      <use xlink:href="#DejaVuSans-Bold-49" transform="translate(0 0.125)"/>
      <use xlink:href="#DejaVuSans-Oblique-73" transform="translate(38.164062 -16.28125) scale(0.7)"/>
      <use xlink:href="#DejaVuSans-Oblique-63" transform="translate(74.633789 -16.28125) scale(0.7)"/>
      <use xlink:href="#DejaVuSans-Bold-20" transform="translate(115.854492 0.125)"/>
      <use xlink:href="#DejaVuSans-Bold-28" transform="translate(150.668945 0.125)"/>
      <use xlink:href="#DejaVuSans-Bold-6d" transform="translate(196.37207 0.125)"/>
      <use xlink:href="#DejaVuSans-Bold-41" transform="translate(300.571289 0.125)"/>
      <use xlink:href="#DejaVuSans-Bold-2f" transform="translate(377.963867 0.125)"/>
      <use xlink:href="#DejaVuSans-Bold-6d" transform="translate(414.487305 0.125)"/>
      <use xlink:href="#DejaVuSans-Bold-b2" transform="translate(518.686523 0.125)"/>
      <use xlink:href="#DejaVuSans-Bold-29" transform="translate(562.485352 0.125)"/>
     </g>
    </g>
    <g id="text_15">
     <!-- $\times\mathdefault{10^{−3}}\mathdefault{}$ -->
     <g transform="translate(48.029375 31.3575) scale(0.1 -0.1)">
      <defs>
       <path id="DejaVuSans-d7" d="M 4488 3438 
L 3059 2003 
L 4488 575 
L 4116 197 
L 2681 1631 
L 1247 197 
L 878 575 
L 2303 2003 
L 878 3438 
L 1247 3816 
L 2681 2381 
L 4116 3816 
L 4488 3438 
z
" transform="scale(0.015625)"/>
      </defs>
      <use xlink:href="#DejaVuSans-d7" transform="translate(0 0.765625)"/>
      <use xlink:href="#DejaVuSans-31" transform="translate(83.789062 0.765625)"/>
      <use xlink:href="#DejaVuSans-30" transform="translate(147.412109 0.765625)"/>
      <use xlink:href="#DejaVuSans-2212" transform="translate(211.992188 39.046875) scale(0.7)"/>
      <use xlink:href="#DejaVuSans-33" transform="translate(270.644531 39.046875) scale(0.7)"/>
     </g>
    </g>
   </g>
   <g id="patch_6">
    <path d="M 48.029375 310.3975 
L 48.029375 34.3575 
" style="fill: none; stroke: #000000; stroke-width: 0.8; stroke-linejoin: miter; stroke-linecap: square"/>
   </g>
   <g id="patch_7">
    <path d="M 48.029375 310.3975 
L 413.825836 310.3975 
" style="fill: none; stroke: #000000; stroke-width: 0.8; stroke-linejoin: miter; stroke-linecap: square"/>
   </g>
   <g id="line2d_13">
    <path d="M 48.029375 169.127194 
L 48.212273 169.424066 
L 48.273239 169.424066 
L 48.334205 169.609611 
L 48.395171 169.572502 
L 49.18773 170.129138 
L 49.492561 170.500229 
L 49.614493 170.42601 
L 50.102222 170.722882 
L 50.28512 170.945537 
L 50.407052 170.945537 
L 50.468018 171.056863 
L 50.528984 171.019754 
L 51.077679 171.093973 
L 51.321543 171.316627 
L 51.382509 171.242409 
L 51.443475 171.316627 
L 51.565407 171.353736 
L 51.626374 171.353736 
L 51.68734 171.242409 
L 51.748306 171.353736 
L 51.809272 171.279518 
L 51.870238 171.353736 
L 51.99217 171.316627 
L 52.053136 171.316627 
L 52.236034 171.465063 
L 52.540865 171.57639 
L 52.906661 171.465063 
L 53.089559 171.502172 
L 53.333424 171.724826 
L 53.516322 171.836153 
L 53.638254 171.799044 
L 53.821152 171.724826 
L 54.065017 171.687717 
L 54.125983 171.836153 
L 54.186949 171.799044 
L 54.613711 171.984589 
L 55.040474 171.799044 
L 55.162406 171.94748 
L 55.223372 171.799044 
L 55.345304 171.984589 
L 55.589169 172.058808 
L 55.650135 172.133026 
L 55.772067 172.021699 
L 55.833033 172.095917 
L 55.893999 172.021699 
L 56.259795 172.133026 
L 56.381728 172.133026 
L 56.442694 172.281462 
L 56.50366 172.244353 
L 56.747524 172.207244 
L 56.869456 172.133026 
L 56.991388 172.095917 
L 57.296219 172.095917 
L 57.479117 172.244353 
L 58.027812 172.021699 
L 58.332642 172.244353 
L 58.51554 172.207244 
L 58.637472 172.281462 
L 58.698438 172.133026 
L 58.759405 172.170135 
L 58.820371 172.207244 
L 58.881337 172.095917 
L 58.942303 172.133026 
L 59.064235 172.207244 
L 59.125201 172.058808 
L 59.186167 172.095917 
L 59.61293 172.244353 
L 60.039692 172.021699 
L 60.100658 172.095917 
L 60.161624 172.021699 
L 60.22259 171.94748 
L 60.405489 172.133026 
L 60.527421 172.170135 
L 60.710319 172.095917 
L 60.893217 171.984589 
L 61.137082 172.021699 
L 61.31998 172.095917 
L 61.62481 172.170135 
L 61.990607 172.133026 
L 62.051573 172.021699 
L 62.112539 172.058808 
L 62.539301 172.095917 
L 62.600267 172.244353 
L 62.661233 172.207244 
L 62.783166 172.207244 
L 62.905098 172.170135 
L 63.209928 172.095917 
L 63.453792 172.170135 
L 63.575725 172.281462 
L 63.697657 172.244353 
L 63.758623 172.318571 
L 63.880555 172.170135 
L 63.941521 172.207244 
L 64.185385 172.021699 
L 64.246351 172.133026 
L 64.307318 172.095917 
L 64.42925 172.133026 
L 64.490216 172.244353 
L 64.551182 172.170135 
L 64.673114 172.207244 
L 64.856012 172.207244 
L 65.03891 172.095917 
L 65.160843 172.095917 
L 65.648571 172.281462 
L 65.709537 172.281462 
L 65.770503 172.170135 
L 65.831469 172.207244 
L 66.197266 172.170135 
L 66.319198 172.133026 
L 66.380164 172.133026 
L 66.563062 172.281462 
L 66.745961 172.318571 
L 66.867893 172.207244 
L 66.989825 172.281462 
L 67.172723 172.170135 
L 67.294655 172.207244 
L 67.53852 172.281462 
L 67.721418 172.35568 
L 68.087214 172.281462 
L 68.14818 172.170135 
L 68.209146 172.281462 
L 68.331079 172.281462 
L 68.513977 172.392789 
L 68.635909 172.392789 
L 68.818807 172.429898 
L 69.062672 172.281462 
L 69.428468 172.392789 
L 70.708756 172.467007 
L 70.95262 172.504116 
L 71.135518 172.35568 
L 71.318416 172.318571 
L 71.379382 172.429898 
L 71.440348 172.35568 
L 71.623247 172.429898 
L 71.806145 172.429898 
L 72.050009 172.281462 
L 72.232907 172.35568 
L 72.476772 172.318571 
L 72.781602 172.35568 
L 72.903534 172.392789 
L 73.086433 172.281462 
L 73.696093 172.318571 
L 73.757059 172.467007 
L 73.818025 172.392789 
L 74.000924 172.392789 
L 74.183822 172.207244 
L 74.305754 172.244353 
L 74.549618 172.281462 
L 74.732517 172.392789 
L 74.854449 172.429898 
L 75.159279 172.35568 
L 75.829906 172.392789 
L 75.890872 172.541225 
L 75.951838 172.467007 
L 76.439567 172.281462 
L 76.561499 172.35568 
L 76.927295 172.467007 
L 77.293092 172.35568 
L 77.658888 172.392789 
L 77.841787 172.467007 
L 78.024685 172.429898 
L 78.146617 172.392789 
L 78.451447 172.281462 
L 78.634346 172.429898 
L 78.817244 172.429898 
L 79.304972 172.392789 
L 79.487871 172.281462 
L 79.548837 172.281462 
L 79.670769 172.467007 
L 79.731735 172.392789 
L 80.036565 172.467007 
L 80.341396 172.392789 
L 80.524294 172.318571 
L 80.58526 172.504116 
L 80.646226 172.429898 
L 80.829124 172.541225 
L 81.133955 172.541225 
L 81.194921 172.429898 
L 81.255887 172.504116 
L 81.499751 172.467007 
L 81.98748 172.652552 
L 82.414242 172.429898 
L 82.597141 172.541225 
L 83.450666 172.467007 
L 83.572598 172.392789 
L 83.755496 172.578334 
L 83.938394 172.652552 
L 84.121292 172.652552 
L 84.487089 172.541225 
L 84.669987 172.578334 
L 84.852885 172.72677 
L 85.40158 172.504116 
L 85.889309 172.541225 
L 86.072207 172.689661 
L 86.255105 172.504116 
L 86.8038 172.541225 
L 86.986698 172.652552 
L 87.230562 172.652552 
L 87.413461 172.504116 
L 87.474427 172.615443 
L 87.535393 172.541225 
L 87.901189 172.578334 
L 88.084087 172.72677 
L 88.20602 172.578334 
L 88.266986 172.72677 
L 88.388918 172.504116 
L 88.449884 172.615443 
L 88.51085 172.541225 
L 89.181477 172.838097 
L 89.364375 172.763879 
L 89.852104 172.838097 
L 90.2179 172.949424 
L 90.400798 172.912315 
L 90.583697 172.912315 
L 90.705629 172.949424 
L 91.010459 173.172079 
L 91.254323 173.246297 
L 91.376256 173.172079 
L 91.437222 173.246297 
L 91.62012 173.13497 
L 92.229781 173.394733 
L 92.717509 173.468951 
L 92.900408 173.691605 
L 92.961374 173.654497 
L 93.205238 173.87715 
L 93.571034 173.951369 
L 94.180695 174.582222 
L 94.485526 174.619331 
L 94.668424 174.693549 
L 94.72939 174.693549 
L 95.156152 175.287294 
L 95.765813 175.695493 
L 96.192576 176.474782 
L 96.985135 177.588054 
L 98.326388 180.593885 
L 98.448321 180.742321 
L 98.753151 181.447393 
L 99.24088 182.931754 
L 99.484744 183.117299 
L 99.54571 183.265735 
L 99.606676 183.154409 
L 99.972472 183.339954 
L 100.521167 182.152465 
L 101.191794 179.295069 
L 101.55759 175.732602 
L 102.167251 160.851877 
L 102.228217 160.703438 
L 102.289183 160.814764 
L 102.472082 161.965149 
L 103.203675 166.640889 
L 103.325607 166.640889 
L 103.447539 166.418234 
L 104.0572 164.599891 
L 104.118166 164.637 
L 104.301064 164.562782 
L 104.422996 164.637 
L 104.544928 164.637 
L 104.66686 164.822545 
L 104.727826 164.785437 
L 105.215555 165.453399 
L 105.642318 165.638945 
L 105.76425 165.638945 
L 106.191012 166.232689 
L 106.434877 166.492451 
L 106.800673 166.937761 
L 106.983571 167.123306 
L 107.4713 167.791269 
L 108.507723 168.904539 
L 109.056418 169.238521 
L 109.239316 169.461175 
L 109.605113 169.758047 
L 109.727045 169.795157 
L 110.275739 170.240465 
L 110.458638 170.463119 
L 110.519604 170.388901 
L 111.616993 170.945537 
L 112.104722 171.019754 
L 112.531484 171.168191 
L 112.897281 171.056863 
L 113.506942 171.353736 
L 113.628874 171.279518 
L 113.750806 171.316627 
L 113.933704 171.242409 
L 114.116602 171.427954 
L 114.238534 171.465063 
L 114.482399 171.539281 
L 114.726263 171.502172 
L 114.909161 171.539281 
L 115.031093 171.502172 
L 115.274958 171.650608 
L 115.39689 171.724826 
L 115.579788 171.761935 
L 115.823652 171.57639 
L 116.189449 171.724826 
L 116.250415 171.650608 
L 116.372347 171.799044 
L 116.494279 171.836153 
L 116.677178 171.873262 
L 116.79911 171.761935 
L 116.921042 171.799044 
L 116.982008 171.687717 
L 117.042974 171.836153 
L 117.10394 171.761935 
L 117.591669 171.94748 
L 117.713601 171.873262 
L 117.835533 171.836153 
L 117.896499 171.873262 
L 118.079397 171.761935 
L 118.201329 171.799044 
L 118.384228 171.910371 
L 118.445194 171.873262 
L 118.567126 171.984589 
L 118.81099 171.799044 
L 118.932922 171.836153 
L 118.993888 171.761935 
L 119.054854 171.836153 
L 119.481617 172.021699 
L 119.90838 171.836153 
L 120.152244 171.873262 
L 120.761905 171.836153 
L 120.944803 171.687717 
L 121.066735 171.687717 
L 121.188667 171.724826 
L 121.249633 171.873262 
L 121.310599 171.799044 
L 121.371565 171.761935 
L 121.432531 171.873262 
L 121.493498 171.836153 
L 121.798328 171.799044 
L 121.92026 171.724826 
L 122.042192 171.761935 
L 122.22509 171.724826 
L 122.651853 171.984589 
L 122.895717 171.761935 
L 122.956683 171.873262 
L 123.017649 171.836153 
L 123.078616 171.687717 
L 123.139582 171.761935 
L 123.32248 171.836153 
L 123.383446 171.910371 
L 123.566344 171.799044 
L 123.62731 171.94748 
L 123.688276 171.910371 
L 123.749242 171.873262 
L 123.810208 171.984589 
L 123.871175 171.873262 
L 123.993107 171.836153 
L 124.176005 171.94748 
L 124.236971 171.94748 
L 124.297937 171.836153 
L 124.358903 171.910371 
L 124.541801 172.133026 
L 124.663734 171.873262 
L 124.785666 171.984589 
L 124.907598 171.761935 
L 125.090496 171.873262 
L 125.212428 171.687717 
L 125.273394 171.761935 
L 125.33436 171.761935 
L 125.456293 171.984589 
L 125.517259 171.910371 
L 125.578225 172.207244 
L 125.700157 171.836153 
L 125.761123 171.799044 
L 125.822089 172.058808 
L 125.883055 171.94748 
L 125.944021 171.687717 
L 126.004987 171.761935 
L 126.065953 172.170135 
L 126.126919 171.836153 
L 126.187885 171.910371 
L 126.248852 171.57639 
L 126.309818 171.799044 
L 126.797546 171.984589 
L 127.102377 171.613499 
L 127.285275 171.910371 
L 127.346241 171.724826 
L 127.407207 171.836153 
L 127.590105 172.058808 
L 127.651071 171.94748 
L 127.712037 172.133026 
L 127.773003 172.095917 
L 128.260732 171.799044 
L 128.504596 172.095917 
L 128.565562 171.799044 
L 128.626529 171.910371 
L 128.687495 171.799044 
L 128.748461 172.392789 
L 128.809427 172.170135 
L 128.931359 172.170135 
L 129.114257 171.873262 
L 129.175223 172.133026 
L 129.236189 171.799044 
L 129.297155 172.170135 
L 129.358121 171.761935 
L 129.419088 171.94748 
L 129.480054 172.281462 
L 129.54102 172.095917 
L 129.662952 172.170135 
L 129.723918 172.207244 
L 129.784884 171.984589 
L 129.84585 172.058808 
L 129.906816 172.244353 
L 130.089714 171.94748 
L 130.272613 171.94748 
L 130.455511 172.170135 
L 130.577443 172.133026 
L 130.638409 172.318571 
L 130.699375 172.244353 
L 131.065172 172.095917 
L 131.187104 172.095917 
L 131.309036 172.095917 
L 131.674832 172.207244 
L 131.857731 172.133026 
L 131.918697 171.984589 
L 131.979663 172.058808 
L 132.162561 172.095917 
L 132.345459 171.984589 
L 132.528357 172.095917 
L 133.077052 172.095917 
L 133.138018 171.984589 
L 133.198984 172.021699 
L 133.442849 172.058808 
L 133.625747 172.133026 
L 133.747679 172.170135 
L 134.174442 172.021699 
L 134.479272 171.984589 
L 134.540238 172.133026 
L 134.601204 172.058808 
L 134.845068 172.133026 
L 135.332797 171.94748 
L 135.576661 172.095917 
L 135.75956 172.244353 
L 135.820526 172.095917 
L 135.881492 172.133026 
L 136.186322 172.095917 
L 136.308254 172.058808 
L 136.491152 172.095917 
L 136.674051 172.170135 
L 136.856949 172.207244 
L 137.161779 172.133026 
L 137.344678 172.095917 
L 137.46661 172.021699 
L 137.893372 172.207244 
L 138.07627 172.058808 
L 138.137237 172.133026 
L 138.198203 172.021699 
L 138.259169 172.058808 
L 138.381101 172.021699 
L 138.442067 171.94748 
L 138.685931 172.207244 
L 138.868829 172.133026 
L 139.112694 172.095917 
L 139.295592 171.984589 
L 139.722355 172.133026 
L 139.844287 172.095917 
L 139.966219 172.207244 
L 140.210083 172.058808 
L 140.758778 172.133026 
L 141.063608 172.207244 
L 141.246506 172.021699 
L 141.368439 172.133026 
L 141.490371 172.095917 
L 141.856167 172.35568 
L 141.917133 172.244353 
L 142.100032 172.244353 
L 142.28293 172.170135 
L 142.465828 172.170135 
L 142.648726 172.318571 
L 143.197421 172.244353 
L 143.380319 172.207244 
L 143.441285 172.244353 
L 143.502251 172.133026 
L 143.563217 172.207244 
L 143.68515 172.170135 
L 143.868048 172.244353 
L 144.233844 172.244353 
L 144.416742 172.095917 
L 144.660607 172.318571 
L 144.782539 172.244353 
L 144.965437 172.35568 
L 145.453166 172.281462 
L 145.69703 172.244353 
L 145.818962 172.392789 
L 145.879928 172.281462 
L 145.940894 172.429898 
L 146.00186 172.281462 
L 146.062827 172.392789 
L 146.184759 172.281462 
L 146.245725 172.133026 
L 146.306691 172.244353 
L 146.550555 172.207244 
L 146.611521 172.207244 
L 146.672487 172.318571 
L 146.733453 172.207244 
L 146.977318 172.318571 
L 147.038284 172.207244 
L 147.09925 172.318571 
L 147.465046 172.170135 
L 148.013741 172.429898 
L 148.379537 172.244353 
L 148.562436 172.318571 
L 148.623402 172.281462 
L 148.8063 172.392789 
L 149.050164 172.504116 
L 149.172096 172.429898 
L 149.233063 172.541225 
L 149.294029 172.504116 
L 149.476927 172.392789 
L 149.537893 172.467007 
L 149.598859 172.392789 
L 149.659825 172.392789 
L 149.842723 172.578334 
L 149.903689 172.578334 
L 150.086588 172.689661 
L 150.20852 172.615443 
L 150.269486 172.652552 
L 150.391418 172.541225 
L 150.574316 172.615443 
L 150.696248 172.652552 
L 151.183977 172.838097 
L 151.366875 172.763879 
L 151.549773 172.800988 
L 151.732672 172.912315 
L 151.793638 172.875206 
L 151.976536 173.023643 
L 152.037502 173.060751 
L 152.098468 172.949424 
L 152.159434 173.023643 
L 152.708129 173.060751 
L 153.073925 173.357624 
L 153.134891 173.394733 
L 153.195858 173.283406 
L 153.256824 173.320515 
L 153.561654 173.431842 
L 153.62262 173.357624 
L 153.683586 173.431842 
L 154.049383 173.802933 
L 154.171315 173.840041 
L 154.354213 173.914259 
L 154.598077 173.914259 
L 154.963874 174.396677 
L 155.085806 174.545113 
L 155.268704 174.693549 
L 155.390636 174.656441 
L 155.451602 174.656441 
L 155.634501 174.767767 
L 155.878365 175.02753 
L 157.03672 176.474782 
L 157.219619 176.920091 
L 157.341551 176.994309 
L 157.524449 177.216963 
L 157.768313 177.625163 
L 158.256042 178.812651 
L 158.987635 180.371231 
L 159.84116 182.671991 
L 159.902126 182.7091 
L 160.085024 183.005973 
L 160.267922 183.08019 
L 160.511787 182.820427 
L 160.755651 182.746209 
L 161.121448 182.189574 
L 161.304346 181.521611 
L 161.914007 178.441562 
L 162.157871 176.363455 
L 162.401735 169.127194 
L 162.706566 161.594058 
L 162.889464 160.666336 
L 163.011396 161.260077 
L 163.742989 166.269798 
L 163.864921 166.56667 
L 163.925887 166.529561 
L 164.169751 166.084253 
L 164.35265 165.490507 
L 164.65748 164.488563 
L 164.96231 164.377237 
L 165.267141 164.674109 
L 165.571971 164.896763 
L 165.998734 165.230745 
L 166.181632 165.490507 
L 166.36453 165.713162 
L 166.425496 165.638945 
L 166.547428 165.676053 
L 166.730327 165.787381 
L 166.852259 165.972926 
L 167.522886 166.97487 
L 167.827716 167.271742 
L 168.803173 168.347903 
L 168.864139 168.347903 
L 169.290902 168.941649 
L 169.900563 169.27563 
L 169.900563 169.27563 
" clip-path="url(#p9fc8747bac)" style="fill: none; stroke: #d94452; stroke-width: 0.8; stroke-linecap: square"/>
   </g>
   <g id="line2d_14">
    <path d="M 169.961529 170.648665 
L 170.266359 170.722882 
L 170.388291 170.945537 
L 170.449257 170.83421 
L 170.754088 171.056863 
L 170.815054 170.871318 
L 170.87602 170.908427 
L 170.997952 171.019754 
L 171.058918 170.945537 
L 171.119884 171.019754 
L 171.912443 171.465063 
L 172.095341 171.390845 
L 172.156307 171.353736 
L 172.217273 171.539281 
L 172.27824 171.465063 
L 172.339206 171.465063 
L 172.58307 171.687717 
L 173.314663 171.761935 
L 173.558527 171.94748 
L 173.98529 171.799044 
L 174.168188 171.873262 
L 174.29012 171.873262 
L 174.59495 172.133026 
L 174.716883 172.133026 
L 174.899781 171.94748 
L 175.021713 171.910371 
L 175.387509 171.910371 
L 175.631374 172.170135 
L 175.99717 172.058808 
L 176.119102 172.095917 
L 176.423933 172.170135 
L 176.667797 172.35568 
L 176.728763 172.281462 
L 176.789729 172.35568 
L 177.033594 172.281462 
L 177.277458 172.207244 
L 177.338424 172.35568 
L 177.39939 172.281462 
L 177.460356 172.244353 
L 177.521322 172.392789 
L 177.582288 172.35568 
L 177.70422 172.392789 
L 177.765186 172.429898 
L 177.887119 172.281462 
L 178.009051 172.35568 
L 178.252915 172.318571 
L 178.496779 172.35568 
L 178.557745 172.35568 
L 178.618712 172.504116 
L 178.679678 172.467007 
L 178.923542 172.244353 
L 178.984508 172.207244 
L 179.167406 172.35568 
L 179.228372 172.35568 
L 179.289338 172.207244 
L 179.533203 172.578334 
L 179.594169 172.467007 
L 179.777067 172.652552 
L 179.838033 172.72677 
L 179.898999 172.652552 
L 180.081897 172.392789 
L 180.142863 172.541225 
L 180.20383 172.392789 
L 180.264796 172.504116 
L 180.325762 172.467007 
L 180.386728 172.578334 
L 180.447694 172.504116 
L 180.630592 172.578334 
L 180.874456 172.72677 
L 180.996389 172.72677 
L 181.118321 172.763879 
L 181.301219 172.800988 
L 181.423151 172.838097 
L 181.667015 173.320515 
L 181.849914 173.320515 
L 182.032812 173.617387 
L 182.21571 173.617387 
L 183.130201 176.103693 
L 183.556964 177.959143 
L 184.288557 183.377062 
L 185.32498 195.585931 
L 185.446912 195.845697 
L 185.568844 195.251951 
L 185.751743 192.468771 
L 186.422369 171.539281 
L 186.788166 160.480784 
L 187.092996 157.883157 
L 187.336861 157.474951 
L 187.519759 157.474951 
L 187.763623 157.62339 
L 187.885555 157.660503 
L 188.678114 160.332356 
L 189.409707 163.783492 
L 190.202266 166.715106 
L 191.177723 169.090085 
L 191.238689 168.978758 
L 191.787384 169.832266 
L 191.84835 169.832266 
L 192.092215 170.240465 
L 192.153181 170.054919 
L 192.214147 170.203355 
L 192.336079 170.351791 
L 192.458011 170.203355 
L 192.701875 170.611555 
L 192.884774 170.611555 
L 192.94574 170.537337 
L 193.006706 170.759991 
L 193.067672 170.537337 
L 193.128638 170.685773 
L 193.433468 170.648665 
L 193.5554 170.611555 
L 193.799265 170.871318 
L 193.860231 170.759991 
L 193.921197 170.797101 
L 194.286993 170.908427 
L 194.469892 170.83421 
L 194.65279 171.019754 
L 194.835688 171.131082 
L 195.140518 171.168191 
L 195.262451 171.205299 
L 195.384383 171.131082 
L 195.506315 171.168191 
L 195.628247 171.205299 
L 195.994043 171.539281 
L 196.481772 171.613499 
L 197.030467 171.873262 
L 197.335297 171.799044 
L 197.457229 171.761935 
L 197.640128 171.836153 
L 198.005924 171.94748 
L 198.859449 171.984589 
L 199.103313 172.170135 
L 199.164279 172.058808 
L 199.225246 172.095917 
L 199.712974 172.170135 
L 200.139737 172.318571 
L 200.322635 172.244353 
L 200.444567 172.207244 
L 201.054228 172.504116 
L 201.17616 172.467007 
L 201.298092 172.392789 
L 201.663889 172.281462 
L 201.907753 172.467007 
L 202.273549 172.392789 
L 202.334515 172.318571 
L 202.456448 172.429898 
L 202.700312 172.281462 
L 202.822244 172.318571 
L 203.005142 172.541225 
L 203.066108 172.467007 
L 203.127074 172.429898 
L 203.188041 172.615443 
L 203.249007 172.541225 
L 203.370939 172.541225 
L 203.492871 172.578334 
L 203.553837 172.318571 
L 203.614803 172.541225 
L 203.736735 172.541225 
L 203.919633 172.763879 
L 203.9806 172.578334 
L 204.041566 172.72677 
L 204.102532 172.689661 
L 204.224464 172.838097 
L 204.468328 172.541225 
L 204.651226 172.689661 
L 204.712192 172.615443 
L 204.773159 172.689661 
L 205.138955 172.838097 
L 205.260887 173.097861 
L 205.321853 172.986533 
L 205.443785 173.13497 
L 205.565718 173.097861 
L 206.236344 174.136914 
L 206.358277 174.322459 
L 206.967937 176.029474 
L 208.004361 182.226682 
L 209.284648 196.105463 
L 209.345614 195.845697 
L 209.467546 194.955083 
L 209.711411 189.945357 
L 210.199139 175.324402 
L 210.625902 161.000314 
L 210.869766 158.476903 
L 211.052664 157.883157 
L 211.296529 157.697604 
L 211.479427 157.660503 
L 211.540393 157.549176 
L 211.601359 157.62339 
L 211.723291 157.62339 
L 212.028122 158.365576 
L 212.393918 159.775711 
L 213.186477 163.523729 
L 213.491307 164.896763 
L 213.857104 166.010034 
L 214.100968 166.900651 
L 214.405799 167.791269 
L 215.015459 169.090085 
L 215.198358 169.386957 
L 215.808018 170.129138 
L 215.868984 169.980702 
L 215.929951 170.01781 
L 216.295747 170.648665 
L 216.356713 170.574446 
L 216.417679 170.42601 
L 216.539611 170.759991 
L 216.600577 170.685773 
L 216.661543 170.83421 
L 216.783476 170.537337 
L 216.844442 170.611555 
L 216.966374 170.648665 
L 217.02734 170.648665 
L 217.088306 170.871318 
L 217.149272 170.759991 
L 217.454102 170.871318 
L 217.697967 170.759991 
L 217.819899 170.908427 
L 217.880865 170.83421 
L 217.941831 170.908427 
L 218.002797 170.871318 
L 218.246661 171.205299 
L 218.73439 171.205299 
L 218.795356 171.093973 
L 218.856322 171.168191 
L 218.917288 171.168191 
L 218.978254 171.353736 
L 219.03922 171.279518 
L 219.283085 171.465063 
L 219.344051 171.465063 
L 219.405017 171.57639 
L 219.465983 171.539281 
L 219.526949 171.465063 
L 219.587915 171.539281 
L 219.648881 171.539281 
L 219.709847 171.427954 
L 219.770813 171.502172 
L 219.892746 171.539281 
L 220.13661 171.687717 
L 220.624338 171.910371 
L 220.746271 171.761935 
L 220.807237 171.873262 
L 220.868203 171.799044 
L 221.477864 172.058808 
L 221.782694 171.984589 
L 222.14849 172.058808 
L 222.392355 172.207244 
L 222.880083 172.021699 
L 223.611676 172.35568 
L 223.794574 172.281462 
L 224.160371 172.35568 
L 224.343269 172.467007 
L 224.526167 172.467007 
L 224.587133 172.578334 
L 224.6481 172.504116 
L 225.440659 172.504116 
L 225.623557 172.615443 
L 225.684523 172.689661 
L 225.867421 172.429898 
L 226.050319 172.467007 
L 226.111285 172.541225 
L 226.172251 172.392789 
L 226.35515 172.615443 
L 226.599014 172.541225 
L 226.65998 172.467007 
L 226.720946 172.541225 
L 226.96481 172.578334 
L 227.208675 172.652552 
L 227.452539 172.838097 
L 227.879302 172.763879 
L 227.940268 172.689661 
L 228.001234 172.838097 
L 228.0622 172.763879 
L 228.123166 172.800988 
L 228.184132 172.689661 
L 228.245098 172.875206 
L 228.306064 172.800988 
L 228.549928 172.949424 
L 228.732827 172.838097 
L 228.854759 172.986533 
L 228.915725 172.912315 
L 228.976691 172.986533 
L 229.647318 173.802933 
L 229.830216 173.654497 
L 230.988572 176.734546 
L 231.17147 177.513835 
L 231.842097 182.115355 
L 232.390791 188.386783 
L 233.000452 195.363277 
L 233.18335 195.73437 
L 233.366249 194.324224 
L 233.793011 185.603604 
L 233.975909 179.740378 
L 234.463638 161.297186 
L 234.768468 158.180024 
L 235.012333 157.660503 
L 235.317163 157.697604 
L 235.98779 158.662444 
L 236.658417 161.890931 
L 236.963247 163.263966 
L 237.146145 163.969037 
L 237.511942 165.676053 
L 238.731263 169.052975 
L 238.914162 169.201411 
L 239.09706 169.498285 
L 240.011551 170.611555 
L 240.072517 170.500229 
L 240.133483 170.648665 
L 240.194449 170.611555 
L 240.926042 170.945537 
L 241.230872 170.797101 
L 241.291839 170.945537 
L 241.352805 170.908427 
L 241.535703 170.945537 
L 241.718601 171.056863 
L 241.840533 171.056863 
L 242.023431 171.131082 
L 242.084398 171.093973 
L 242.145364 171.205299 
L 242.20633 171.168191 
L 242.450194 171.242409 
L 243.059855 171.502172 
L 243.181787 171.539281 
L 243.486617 171.613499 
L 243.669516 171.687717 
L 244.035312 171.799044 
L 244.401108 171.836153 
L 244.644973 172.058808 
L 244.705939 171.984589 
L 244.766905 172.058808 
L 245.010769 172.133026 
L 245.193667 171.984589 
L 245.559464 172.058808 
L 245.986226 172.244353 
L 246.291057 172.095917 
L 246.412989 172.207244 
L 246.534921 172.170135 
L 246.839752 172.244353 
L 246.961684 172.281462 
L 247.388446 172.281462 
L 247.510378 172.429898 
L 247.571344 172.35568 
L 247.632311 172.429898 
L 248.42487 172.467007 
L 248.668734 172.72677 
L 248.7297 172.615443 
L 248.790666 172.689661 
L 249.03453 172.615443 
L 249.217429 172.615443 
L 249.522259 172.615443 
L 249.705157 172.763879 
L 249.827089 172.800988 
L 249.949021 172.838097 
L 250.43675 172.615443 
L 250.497716 172.800988 
L 250.558682 172.72677 
L 250.619648 172.689661 
L 250.74158 172.875206 
L 250.802547 172.763879 
L 250.863513 172.949424 
L 250.924479 172.912315 
L 250.985445 172.912315 
L 251.046411 173.023643 
L 251.107377 172.949424 
L 251.229309 172.838097 
L 251.290275 173.060751 
L 251.351241 172.912315 
L 251.534139 172.986533 
L 251.595106 172.986533 
L 251.656072 173.13497 
L 251.717038 173.060751 
L 251.778004 172.986533 
L 251.899936 173.13497 
L 252.082834 172.986533 
L 252.1438 173.023643 
L 252.326698 172.838097 
L 252.509597 173.023643 
L 252.631529 173.097861 
L 252.814427 173.209188 
L 252.875393 173.209188 
L 252.997325 173.50606 
L 253.119257 173.394733 
L 253.667952 173.765823 
L 254.033749 174.619331 
L 254.094715 174.619331 
L 255.070172 177.922035 
L 255.435968 179.963031 
L 255.679833 181.855593 
L 256.96012 196.476545 
L 257.021086 196.439443 
L 257.143019 195.919911 
L 257.386883 191.355504 
L 257.996544 172.095917 
L 258.36234 160.666336 
L 258.728136 158.10581 
L 258.911035 157.957371 
L 259.032967 157.957371 
L 259.215865 157.846044 
L 259.398763 157.734717 
L 259.642628 158.068697 
L 259.825526 158.736658 
L 259.947458 159.181976 
L 260.435187 161.55695 
L 260.740017 162.967093 
L 261.105813 164.785437 
L 262.142237 168.459231 
L 262.203203 168.385013 
L 262.325135 168.904539 
L 262.447067 168.793213 
L 262.508033 168.830322 
L 262.690931 169.312739 
L 262.751898 169.349847 
L 262.995762 169.906483 
L 263.239626 170.092029 
L 263.300592 170.351791 
L 263.361558 170.203355 
L 263.422524 170.203355 
L 263.544457 170.500229 
L 263.666389 170.500229 
L 263.849287 170.871318 
L 264.093151 171.019754 
L 264.337016 171.093973 
L 264.397982 171.056863 
L 264.458948 171.242409 
L 264.58088 170.871318 
L 264.763778 171.168191 
L 264.88571 171.056863 
L 265.068608 171.427954 
L 265.190541 171.242409 
L 265.251507 171.316627 
L 265.312473 171.427954 
L 265.373439 171.093973 
L 265.434405 171.279518 
L 265.556337 171.390845 
L 265.617303 171.279518 
L 265.678269 171.427954 
L 265.739235 171.242409 
L 265.800201 171.465063 
L 265.861167 171.427954 
L 265.922134 171.168191 
L 266.105032 171.613499 
L 266.165998 171.502172 
L 266.226964 171.613499 
L 266.348896 171.539281 
L 266.531794 171.539281 
L 266.775659 171.613499 
L 267.019523 171.836153 
L 267.202421 171.836153 
L 267.751116 171.836153 
L 267.99498 172.058808 
L 268.177878 172.058808 
L 268.238844 172.207244 
L 268.299811 172.133026 
L 268.360777 172.021699 
L 268.421743 172.058808 
L 268.726573 172.058808 
L 268.909471 172.170135 
L 269.09237 172.244353 
L 269.275268 172.244353 
L 269.580098 172.133026 
L 269.70203 172.244353 
L 269.762996 172.170135 
L 270.006861 172.429898 
L 270.189759 172.467007 
L 270.555555 172.281462 
L 270.616521 172.35568 
L 270.677488 172.244353 
L 270.738454 172.318571 
L 271.348114 172.578334 
L 271.957775 172.652552 
L 272.384538 172.838097 
L 272.689368 172.72677 
L 272.994198 172.875206 
L 273.055165 172.800988 
L 273.116131 172.912315 
L 273.177097 172.838097 
L 273.481927 172.912315 
L 273.786757 172.800988 
L 273.969656 172.912315 
L 274.030622 172.800988 
L 274.091588 172.838097 
L 274.21352 172.912315 
L 274.335452 172.875206 
L 274.396418 172.986533 
L 274.457384 172.875206 
L 274.51835 172.838097 
L 274.579316 173.13497 
L 274.640283 173.023643 
L 274.945113 172.949424 
L 275.249943 173.172079 
L 275.554774 173.172079 
L 275.61574 173.060751 
L 275.676706 173.097861 
L 275.737672 173.13497 
L 275.859604 173.023643 
L 276.286367 173.172079 
L 276.347333 173.097861 
L 276.408299 173.246297 
L 276.469265 173.209188 
L 276.713129 173.13497 
L 278.054383 174.916203 
L 279.212738 179.554833 
L 279.761433 184.267683 
L 280.249162 190.353563 
L 280.675924 195.474604 
L 280.858822 196.105463 
L 281.041721 195.140624 
L 281.285585 190.390664 
L 281.773314 176.140802 
L 282.13911 162.336239 
L 282.44394 158.810883 
L 282.687805 158.031596 
L 282.809737 157.957371 
L 282.992635 157.846044 
L 283.175533 157.883157 
L 283.236499 157.846044 
L 283.968092 159.887038 
L 284.94355 164.674109 
L 285.126448 165.342071 
L 285.614176 167.197523 
L 285.858041 167.71705 
L 286.040939 168.088141 
L 286.528668 169.349847 
L 286.589634 169.386957 
L 286.772532 169.646721 
L 286.833498 169.646721 
L 286.95543 169.906483 
L 287.016396 169.869374 
L 287.26026 170.277574 
L 287.504125 170.759991 
L 287.687023 170.759991 
L 287.869921 170.945537 
L 287.930887 170.945537 
L 288.174752 171.168191 
L 288.235718 171.131082 
L 288.296684 171.242409 
L 288.35765 171.056863 
L 288.418616 171.168191 
L 288.540548 171.205299 
L 288.723446 171.427954 
L 288.784412 171.390845 
L 288.967311 171.056863 
L 289.637937 171.427954 
L 289.698904 171.279518 
L 289.75987 171.427954 
L 289.820836 171.316627 
L 289.881802 171.353736 
L 289.942768 171.57639 
L 290.003734 171.465063 
L 290.36953 171.502172 
L 290.613395 171.724826 
L 290.674361 171.613499 
L 290.735327 171.650608 
L 291.223055 171.724826 
L 291.527886 172.021699 
L 291.710784 171.910371 
L 291.77175 171.984589 
L 291.832716 171.910371 
" clip-path="url(#p9fc8747bac)" style="fill: none; stroke: #d94452; stroke-width: 0.8; stroke-linecap: square"/>
   </g>
   <g id="line2d_15">
    <path d="M 291.893682 173.543169 
L 291.954648 173.50606 
L 292.076581 173.691605 
L 292.137547 173.543169 
L 292.320445 173.840041 
L 292.503343 173.914259 
L 292.686241 174.211131 
L 293.234936 176.363455 
L 293.600732 180.334122 
L 293.783631 184.119243 
L 294.027495 194.546878 
L 294.210393 211.802578 
L 294.454258 262.716131 
L 294.57619 256.333383 
L 295.002952 217.368926 
L 295.18585 209.538919 
L 295.429715 190.056684 
L 295.856477 140.145025 
L 296.100342 133.613838 
L 296.161308 133.242745 
L 296.222274 133.354072 
L 296.344206 134.393125 
L 296.710002 140.850098 
L 297.563527 155.693723 
L 298.173188 162.336239 
L 299.026713 166.900651 
L 299.514442 168.756103 
L 300.002171 169.943593 
L 302.014051 172.281462 
L 302.440814 172.318571 
L 302.50178 172.429898 
L 302.562746 172.392789 
L 302.623712 172.392789 
L 302.684678 172.615443 
L 302.745644 172.504116 
L 302.867576 172.800988 
L 302.989508 172.72677 
L 303.172407 172.800988 
L 303.233373 172.689661 
L 303.416271 172.949424 
L 303.660135 172.912315 
L 303.782067 172.875206 
L 303.903999 173.246297 
L 303.964966 173.246297 
L 304.147864 173.468951 
L 304.20883 173.431842 
L 304.330762 173.543169 
L 304.391728 173.468951 
L 304.696558 173.802933 
L 304.940423 174.174022 
L 305.245253 174.879094 
L 305.428151 175.584166 
L 305.732982 178.070471 
L 306.037812 183.377062 
L 306.281676 193.210957 
L 306.464575 209.316265 
L 306.708439 255.77675 
L 306.830371 249.913523 
L 307.257134 213.212712 
L 307.440032 206.124892 
L 307.62293 194.027357 
L 308.232591 133.613838 
L 308.415489 131.647058 
L 308.537421 132.426345 
L 308.781286 136.285691 
L 310.061573 158.43979 
L 310.793166 164.711218 
L 311.524759 167.754159 
L 311.829589 169.015866 
L 311.951522 169.164303 
L 312.13442 169.609611 
L 312.256352 169.795157 
L 312.43925 170.01781 
L 312.500216 170.054919 
L 312.683114 170.42601 
L 314.268232 172.281462 
L 314.451131 172.244353 
L 315.365622 172.689661 
L 315.670452 172.72677 
L 315.914317 172.875206 
L 316.036249 172.912315 
L 316.584943 173.468951 
L 316.706876 173.543169 
L 316.767842 173.617387 
L 316.828808 173.50606 
L 316.889774 173.617387 
L 317.072672 173.802933 
L 317.743299 176.103693 
L 318.109095 179.777486 
L 318.35296 185.158297 
L 318.596824 197.552711 
L 318.779722 218.964612 
L 318.96262 256.370485 
L 319.023586 255.29433 
L 319.633247 209.056511 
L 319.877112 193.693376 
L 320.486772 133.279858 
L 320.669671 131.572833 
L 320.730637 131.684159 
L 320.913535 134.059145 
L 322.498653 160.258131 
L 322.986381 164.340127 
L 323.413144 166.381125 
L 323.535076 166.492451 
L 324.022805 168.793213 
L 324.083771 168.718994 
L 324.449567 169.572502 
L 324.87633 170.240465 
L 325.425025 171.093973 
L 325.546957 171.168191 
L 325.912753 171.650608 
L 326.034685 171.687717 
L 326.400482 172.170135 
L 326.522414 172.133026 
L 326.58338 172.170135 
L 326.644346 172.021699 
L 326.705312 172.133026 
L 327.010143 172.392789 
L 327.071109 172.541225 
L 327.132075 172.318571 
L 327.193041 172.504116 
L 327.314973 172.467007 
L 327.375939 172.689661 
L 327.436905 172.504116 
L 327.741735 172.72677 
L 327.863668 172.504116 
L 328.412362 173.060751 
L 328.473328 173.023643 
L 328.778159 173.431842 
L 328.900091 173.357624 
L 329.143955 173.617387 
L 329.204921 173.617387 
L 329.936514 175.658383 
L 330.241345 178.144689 
L 330.485209 182.078246 
L 330.668107 187.34773 
L 330.911971 203.156171 
L 331.09487 231.91566 
L 331.216802 256.815792 
L 331.277768 255.331431 
L 331.826463 211.468598 
L 332.131293 193.43361 
L 332.679988 134.764218 
L 332.862886 131.609946 
L 332.923852 131.424405 
L 333.045784 132.277906 
L 333.350615 137.287632 
L 334.20414 153.318738 
L 334.691868 159.478844 
L 335.362495 165.045199 
L 335.728292 166.344015 
L 335.91119 166.97487 
L 336.459884 169.127194 
L 336.581817 169.386957 
L 336.825681 169.795157 
L 336.947613 169.832266 
L 337.496308 170.945537 
L 337.92307 171.316627 
L 338.227901 171.650608 
L 338.654663 172.095917 
L 338.776595 172.133026 
L 339.142392 172.207244 
L 339.934951 172.615443 
L 340.056883 172.504116 
L 340.117849 172.615443 
L 340.239781 172.689661 
L 340.361713 172.800988 
L 340.422679 172.72677 
L 340.483646 172.800988 
L 340.72751 173.097861 
L 340.788476 173.023643 
L 340.849442 173.023643 
L 340.910408 173.209188 
L 340.971374 173.172079 
L 341.03234 173.172079 
L 341.276205 173.50606 
L 341.459103 173.50606 
L 342.190696 175.43573 
L 342.495526 178.293125 
L 342.73939 182.078246 
L 342.983255 190.279338 
L 343.166153 203.712805 
L 343.349051 232.991815 
L 343.470983 256.852904 
L 343.531949 255.071677 
L 344.080644 211.505699 
L 344.385474 193.285171 
L 344.934169 134.393125 
L 345.117067 131.275965 
L 345.178033 131.090425 
L 345.360932 132.834539 
L 347.128948 161.222969 
L 347.860541 165.898707 
L 348.165371 166.789325 
L 348.531168 168.496341 
L 348.592134 168.533449 
L 348.775032 169.164303 
L 349.262761 169.906483 
L 349.933387 170.982646 
L 349.994354 170.982646 
L 350.299184 171.353736 
L 350.36015 171.353736 
L 350.604014 171.799044 
L 350.66498 171.799044 
L 350.847879 171.984589 
L 351.274641 172.058808 
L 351.579472 172.281462 
L 351.640438 172.281462 
L 351.823336 172.504116 
L 352.006234 172.281462 
L 352.189132 172.467007 
L 352.311064 172.392789 
L 352.615895 172.72677 
L 352.798793 172.578334 
L 353.042657 172.912315 
L 353.286522 173.097861 
L 353.530386 173.543169 
L 353.713284 173.580278 
L 354.079081 174.062695 
L 354.566809 176.363455 
L 354.932606 180.816539 
L 355.17647 187.755924 
L 355.359368 198.294897 
L 355.542266 220.820066 
L 355.725165 257.075558 
L 355.786131 255.071677 
L 356.334825 211.431485 
L 356.639656 192.839864 
L 357.188351 134.207584 
L 357.371249 131.127526 
L 357.493181 131.424405 
L 357.676079 133.910706 
L 358.28574 145.711385 
L 359.078299 158.031596 
L 359.99279 165.41629 
L 360.114722 165.676053 
L 360.480519 167.123306 
L 361.090179 169.164303 
L 361.151146 169.127194 
L 361.334044 169.461175 
L 361.516942 169.832266 
L 361.760806 170.463119 
L 362.004671 170.722882 
L 363.10206 171.94748 
L 363.345924 171.873262 
L 363.589789 172.095917 
L 363.711721 172.021699 
L 363.894619 172.281462 
L 363.955585 172.244353 
L 364.138483 172.318571 
L 364.260415 172.281462 
L 364.321382 172.35568 
L 364.443314 172.207244 
L 364.80911 172.541225 
L 364.931042 172.429898 
L 365.052974 172.763879 
L 365.113941 172.615443 
L 365.296839 172.689661 
L 365.357805 172.578334 
L 365.601669 173.13497 
L 365.784567 173.320515 
L 365.845533 173.320515 
L 366.089398 173.617387 
L 366.150364 173.617387 
L 366.638092 174.990421 
L 366.820991 176.400565 
L 367.125821 179.62905 
L 367.369685 185.38095 
L 367.61355 198.331998 
L 367.796448 221.22826 
L 367.979346 257.483763 
L 368.040312 254.923237 
L 368.528041 213.101386 
L 368.771905 201.820251 
L 368.954803 184.453224 
L 369.3206 140.033699 
L 369.564464 131.461506 
L 369.686396 131.016199 
L 369.808328 131.943926 
L 370.296057 140.627445 
L 371.088616 154.914436 
L 371.698277 161.594058 
L 372.003107 164.080365 
L 372.490836 165.972926 
L 373.527259 169.424066 
L 373.649191 169.572502 
L 374.13692 170.537337 
L 374.319818 170.648665 
L 374.502716 170.871318 
L 374.868513 171.390845 
L 374.929479 171.390845 
L 375.173343 171.799044 
L 375.234309 171.687717 
L 375.295275 171.873262 
L 375.356241 171.761935 
L 375.600106 171.873262 
L 375.661072 171.761935 
L 375.722038 171.873262 
L 375.783004 171.984589 
L 375.84397 171.873262 
L 376.1488 172.095917 
L 376.453631 172.170135 
L 376.575563 171.94748 
L 376.880393 172.318571 
L 376.941359 172.021699 
L 377.002326 172.244353 
L 377.063292 172.429898 
L 377.124258 172.35568 
L 377.307156 172.35568 
L 377.490054 172.763879 
L 377.55102 172.689661 
L 377.611986 172.392789 
L 377.672952 172.578334 
L 378.038749 173.209188 
L 378.099715 173.13497 
L 378.282613 173.320515 
L 378.465511 173.394733 
L 378.770342 174.28535 
L 379.380003 179.517723 
L 379.623867 185.38095 
L 379.867731 198.665978 
L 380.050629 221.747792 
L 380.233528 257.298211 
L 380.294494 254.589257 
L 380.782222 213.027172 
L 381.026087 201.597597 
L 381.208985 183.896589 
L 381.574781 139.588392 
L 381.818646 131.275965 
L 381.940578 130.756433 
L 382.06251 131.906813 
L 382.428306 138.289572 
L 383.281831 153.875383 
L 383.708594 159.070649 
L 384.196323 163.263966 
L 384.501153 164.859654 
L 384.805983 165.638945 
L 384.988882 166.826433 
L 385.293712 168.12525 
L 385.354678 168.273686 
L 385.415644 168.088141 
L 385.47661 168.570558 
L 385.537576 168.496341 
L 385.598542 168.570558 
L 385.720475 169.27563 
L 385.781441 168.978758 
L 385.964339 169.461175 
L 386.269169 170.277574 
L 386.452067 170.42601 
L 386.513034 170.314683 
L 386.695932 170.759991 
L 386.756898 170.685773 
L 386.939796 171.056863 
L 387.18366 171.427954 
L 387.244626 171.390845 
L 387.427525 171.650608 
L 387.549457 171.427954 
L 387.732355 171.799044 
L 388.037185 171.836153 
L 388.220084 171.984589 
L 388.463948 171.836153 
L 388.646846 172.021699 
L 388.890711 171.873262 
L 389.012643 172.021699 
L 389.073609 171.94748 
L 389.134575 171.94748 
L 389.317473 172.35568 
L 389.500371 172.281462 
L 389.622303 172.318571 
L 389.805202 172.615443 
L 389.866168 172.467007 
L 389.927134 172.578334 
L 390.049066 172.912315 
L 390.110032 172.72677 
L 390.231964 173.172079 
L 390.29293 172.838097 
L 390.353896 173.209188 
L 390.414862 173.023643 
L 390.597761 173.097861 
L 391.268388 175.769711 
L 391.756116 181.818483 
L 391.99998 190.687543 
L 392.182879 204.826084 
L 392.365777 236.03476 
L 392.487709 257.59509 
L 392.609641 248.206509 
L 393.036404 212.804518 
L 393.219302 205.160064 
L 393.463166 183.302845 
L 393.828963 139.328625 
L 394.072827 131.238853 
L 394.194759 130.830658 
L 394.377657 132.648999 
L 394.926352 142.965318 
L 395.779877 156.992543 
L 396.694368 164.785437 
L 396.755334 164.859654 
L 397.486927 167.939705 
L 398.035622 169.201411 
L 398.096588 169.127194 
L 398.523351 170.277574 
L 398.645283 170.277574 
L 399.92557 171.687717 
L 399.986536 171.57639 
L 400.047503 171.613499 
L 400.169435 171.687717 
L 400.352333 171.873262 
L 400.413299 171.799044 
L 400.474265 171.910371 
L 400.535231 171.873262 
L 400.718129 171.799044 
L 400.901028 171.94748 
L 401.205858 171.94748 
L 401.388756 172.244353 
L 401.510688 172.207244 
L 401.571654 172.281462 
L 401.754553 172.095917 
L 401.998417 172.392789 
L 402.059383 172.244353 
L 402.242281 172.689661 
L 402.364213 172.875206 
L 402.42518 172.838097 
L 402.547112 173.097861 
L 402.608078 172.949424 
L 402.73001 173.246297 
L 402.790976 173.023643 
L 402.851942 173.172079 
L 403.339671 174.582222 
L 403.522569 175.732602 
L 403.888365 179.554833 
L 404.13223 185.566491 
L 404.376094 199.296837 
L 404.558992 223.343479 
L 404.74189 257.446651 
L 404.802857 254.069725 
L 405.290585 212.878732 
L 405.473483 205.160064 
L 405.717348 182.486446 
L 406.083144 138.957544 
L 406.327008 131.201751 
L 406.448941 130.830658 
L 406.631839 132.723213 
L 408.399855 161.000314 
L 409.070482 165.119418 
L 409.619177 167.679941 
L 410.777532 170.314683 
L 411.082362 170.537337 
L 411.326227 170.945537 
L 411.570091 171.279518 
L 411.935888 171.613499 
L 412.05782 171.650608 
L 412.301684 171.724826 
L 412.484582 171.910371 
L 412.66748 171.836153 
L 412.789413 171.94748 
L 412.850379 171.799044 
L 412.911345 171.910371 
L 412.972311 171.910371 
L 413.033277 172.021699 
L 413.094243 171.910371 
L 413.581972 172.170135 
L 413.642938 172.095917 
L 413.703904 172.281462 
L 413.76487 172.207244 
" clip-path="url(#p9fc8747bac)" style="fill: none; stroke: #d94452; stroke-width: 0.8; stroke-linecap: square"/>
   </g>
   <g id="text_16">
    <g id="patch_8">
     <path d="M 62.115452 303.4359 
L 155.875452 303.4359 
Q 157.475452 303.4359 157.475452 301.8359 
L 157.475452 293.3559 
Q 157.475452 291.7559 155.875452 291.7559 
L 62.115452 291.7559 
Q 60.515452 291.7559 60.515452 293.3559 
L 60.515452 301.8359 
Q 60.515452 303.4359 62.115452 303.4359 
z
" style="fill: #ffffff; opacity: 0.85; stroke: #d94452; stroke-linejoin: miter"/>
    </g>
    <!-- I$_{p-p}$ = 4.92E-04 mA/m² -->
    <g style="fill: #d94452" transform="translate(62.115452 299.3559) scale(0.08 -0.08)">
     <defs>
      <path id="DejaVuSans-49" d="M 628 4666 
L 1259 4666 
L 1259 0 
L 628 0 
L 628 4666 
z
" transform="scale(0.015625)"/>
      <path id="DejaVuSans-Oblique-70" d="M 3175 2156 
Q 3175 2616 2975 2859 
Q 2775 3103 2400 3103 
Q 2144 3103 1911 2972 
Q 1678 2841 1497 2591 
Q 1319 2344 1212 1994 
Q 1106 1644 1106 1300 
Q 1106 863 1306 627 
Q 1506 391 1875 391 
Q 2147 391 2380 519 
Q 2613 647 2778 891 
Q 2956 1147 3065 1494 
Q 3175 1841 3175 2156 
z
M 1394 2969 
Q 1625 3272 1939 3428 
Q 2253 3584 2638 3584 
Q 3175 3584 3472 3232 
Q 3769 2881 3769 2247 
Q 3769 1728 3584 1258 
Q 3400 788 3053 416 
Q 2822 169 2531 39 
Q 2241 -91 1919 -91 
Q 1547 -91 1294 64 
Q 1041 219 916 525 
L 556 -1331 
L -19 -1331 
L 922 3500 
L 1497 3500 
L 1394 2969 
z
" transform="scale(0.015625)"/>
      <path id="DejaVuSans-20" transform="scale(0.015625)"/>
      <path id="DejaVuSans-3d" d="M 678 2906 
L 4684 2906 
L 4684 2381 
L 678 2381 
L 678 2906 
z
M 678 1631 
L 4684 1631 
L 4684 1100 
L 678 1100 
L 678 1631 
z
" transform="scale(0.015625)"/>
      <path id="DejaVuSans-2e" d="M 684 794 
L 1344 794 
L 1344 0 
L 684 0 
L 684 794 
z
" transform="scale(0.015625)"/>
      <path id="DejaVuSans-39" d="M 703 97 
L 703 672 
Q 941 559 1184 500 
Q 1428 441 1663 441 
Q 2288 441 2617 861 
Q 2947 1281 2994 2138 
Q 2813 1869 2534 1725 
Q 2256 1581 1919 1581 
Q 1219 1581 811 2004 
Q 403 2428 403 3163 
Q 403 3881 828 4315 
Q 1253 4750 1959 4750 
Q 2769 4750 3195 4129 
Q 3622 3509 3622 2328 
Q 3622 1225 3098 567 
Q 2575 -91 1691 -91 
Q 1453 -91 1209 -44 
Q 966 3 703 97 
z
M 1959 2075 
Q 2384 2075 2632 2365 
Q 2881 2656 2881 3163 
Q 2881 3666 2632 3958 
Q 2384 4250 1959 4250 
Q 1534 4250 1286 3958 
Q 1038 3666 1038 3163 
Q 1038 2656 1286 2365 
Q 1534 2075 1959 2075 
z
" transform="scale(0.015625)"/>
      <path id="DejaVuSans-45" d="M 628 4666 
L 3578 4666 
L 3578 4134 
L 1259 4134 
L 1259 2753 
L 3481 2753 
L 3481 2222 
L 1259 2222 
L 1259 531 
L 3634 531 
L 3634 0 
L 628 0 
L 628 4666 
z
" transform="scale(0.015625)"/>
      <path id="DejaVuSans-2d" d="M 313 2009 
L 1997 2009 
L 1997 1497 
L 313 1497 
L 313 2009 
z
" transform="scale(0.015625)"/>
      <path id="DejaVuSans-6d" d="M 3328 2828 
Q 3544 3216 3844 3400 
Q 4144 3584 4550 3584 
Q 5097 3584 5394 3201 
Q 5691 2819 5691 2113 
L 5691 0 
L 5113 0 
L 5113 2094 
Q 5113 2597 4934 2840 
Q 4756 3084 4391 3084 
Q 3944 3084 3684 2787 
Q 3425 2491 3425 1978 
L 3425 0 
L 2847 0 
L 2847 2094 
Q 2847 2600 2669 2842 
Q 2491 3084 2119 3084 
Q 1678 3084 1418 2786 
Q 1159 2488 1159 1978 
L 1159 0 
L 581 0 
L 581 3500 
L 1159 3500 
L 1159 2956 
Q 1356 3278 1631 3431 
Q 1906 3584 2284 3584 
Q 2666 3584 2933 3390 
Q 3200 3197 3328 2828 
z
" transform="scale(0.015625)"/>
      <path id="DejaVuSans-41" d="M 2188 4044 
L 1331 1722 
L 3047 1722 
L 2188 4044 
z
M 1831 4666 
L 2547 4666 
L 4325 0 
L 3669 0 
L 3244 1197 
L 1141 1197 
L 716 0 
L 50 0 
L 1831 4666 
z
" transform="scale(0.015625)"/>
      <path id="DejaVuSans-2f" d="M 1625 4666 
L 2156 4666 
L 531 -594 
L 0 -594 
L 1625 4666 
z
" transform="scale(0.015625)"/>
      <path id="DejaVuSans-b2" d="M 838 2444 
L 2163 2444 
L 2163 2088 
L 294 2088 
L 294 2431 
Q 400 2528 597 2703 
Q 1672 3656 1672 3950 
Q 1672 4156 1509 4282 
Q 1347 4409 1081 4409 
Q 919 4409 728 4354 
Q 538 4300 313 4191 
L 313 4575 
Q 553 4663 761 4706 
Q 969 4750 1147 4750 
Q 1600 4750 1872 4544 
Q 2144 4338 2144 4000 
Q 2144 3566 1109 2678 
Q 934 2528 838 2444 
z
" transform="scale(0.015625)"/>
     </defs>
     <use xlink:href="#DejaVuSans-49" transform="translate(0 0.78125)"/>
     <use xlink:href="#DejaVuSans-Oblique-70" transform="translate(30.449219 -15.625) scale(0.7)"/>
     <use xlink:href="#DejaVuSans-2212" transform="translate(88.520508 -15.625) scale(0.7)"/>
     <use xlink:href="#DejaVuSans-Oblique-70" transform="translate(160.810547 -15.625) scale(0.7)"/>
     <use xlink:href="#DejaVuSans-20" transform="translate(207.978516 0.78125)"/>
     <use xlink:href="#DejaVuSans-3d" transform="translate(239.765625 0.78125)"/>
     <use xlink:href="#DejaVuSans-20" transform="translate(323.554688 0.78125)"/>
     <use xlink:href="#DejaVuSans-34" transform="translate(355.341797 0.78125)"/>
     <use xlink:href="#DejaVuSans-2e" transform="translate(418.964844 0.78125)"/>
     <use xlink:href="#DejaVuSans-39" transform="translate(450.751953 0.78125)"/>
     <use xlink:href="#DejaVuSans-32" transform="translate(512.625 0.78125)"/>
     <use xlink:href="#DejaVuSans-45" transform="translate(576.248047 0.78125)"/>
     <use xlink:href="#DejaVuSans-2d" transform="translate(639.431641 0.78125)"/>
     <use xlink:href="#DejaVuSans-30" transform="translate(675.515625 0.78125)"/>
     <use xlink:href="#DejaVuSans-34" transform="translate(739.138672 0.78125)"/>
     <use xlink:href="#DejaVuSans-20" transform="translate(802.761719 0.78125)"/>
     <use xlink:href="#DejaVuSans-6d" transform="translate(834.548828 0.78125)"/>
     <use xlink:href="#DejaVuSans-41" transform="translate(931.960938 0.78125)"/>
     <use xlink:href="#DejaVuSans-2f" transform="translate(1000.369141 0.78125)"/>
     <use xlink:href="#DejaVuSans-6d" transform="translate(1034.060547 0.78125)"/>
     <use xlink:href="#DejaVuSans-b2" transform="translate(1131.472656 0.78125)"/>
    </g>
   </g>
   <g id="text_17">
    <g id="patch_9">
     <path d="M 183.967605 303.4359 
L 277.887605 303.4359 
Q 279.487605 303.4359 279.487605 301.8359 
L 279.487605 293.3559 
Q 279.487605 291.7559 277.887605 291.7559 
L 183.967605 291.7559 
Q 182.367605 291.7559 182.367605 293.3559 
L 182.367605 301.8359 
Q 182.367605 303.4359 183.967605 303.4359 
z
" style="fill: #ffffff; opacity: 0.85; stroke: #d94452; stroke-linejoin: miter"/>
    </g>
    <!-- I$_{p-p}$ = 8.47E-04 mA/m² -->
    <g style="fill: #d94452" transform="translate(183.967605 299.3559) scale(0.08 -0.08)">
     <defs>
      <path id="DejaVuSans-38" d="M 2034 2216 
Q 1584 2216 1326 1975 
Q 1069 1734 1069 1313 
Q 1069 891 1326 650 
Q 1584 409 2034 409 
Q 2484 409 2743 651 
Q 3003 894 3003 1313 
Q 3003 1734 2745 1975 
Q 2488 2216 2034 2216 
z
M 1403 2484 
Q 997 2584 770 2862 
Q 544 3141 544 3541 
Q 544 4100 942 4425 
Q 1341 4750 2034 4750 
Q 2731 4750 3128 4425 
Q 3525 4100 3525 3541 
Q 3525 3141 3298 2862 
Q 3072 2584 2669 2484 
Q 3125 2378 3379 2068 
Q 3634 1759 3634 1313 
Q 3634 634 3220 271 
Q 2806 -91 2034 -91 
Q 1263 -91 848 271 
Q 434 634 434 1313 
Q 434 1759 690 2068 
Q 947 2378 1403 2484 
z
M 1172 3481 
Q 1172 3119 1398 2916 
Q 1625 2713 2034 2713 
Q 2441 2713 2670 2916 
Q 2900 3119 2900 3481 
Q 2900 3844 2670 4047 
Q 2441 4250 2034 4250 
Q 1625 4250 1398 4047 
Q 1172 3844 1172 3481 
z
" transform="scale(0.015625)"/>
      <path id="DejaVuSans-37" d="M 525 4666 
L 3525 4666 
L 3525 4397 
L 1831 0 
L 1172 0 
L 2766 4134 
L 525 4134 
L 525 4666 
z
" transform="scale(0.015625)"/>
     </defs>
     <use xlink:href="#DejaVuSans-49" transform="translate(0 0.78125)"/>
     <use xlink:href="#DejaVuSans-Oblique-70" transform="translate(30.449219 -15.625) scale(0.7)"/>
     <use xlink:href="#DejaVuSans-2212" transform="translate(88.520508 -15.625) scale(0.7)"/>
     <use xlink:href="#DejaVuSans-Oblique-70" transform="translate(160.810547 -15.625) scale(0.7)"/>
     <use xlink:href="#DejaVuSans-20" transform="translate(207.978516 0.78125)"/>
     <use xlink:href="#DejaVuSans-3d" transform="translate(239.765625 0.78125)"/>
     <use xlink:href="#DejaVuSans-20" transform="translate(323.554688 0.78125)"/>
     <use xlink:href="#DejaVuSans-38" transform="translate(355.341797 0.78125)"/>
     <use xlink:href="#DejaVuSans-2e" transform="translate(418.964844 0.78125)"/>
     <use xlink:href="#DejaVuSans-34" transform="translate(450.751953 0.78125)"/>
     <use xlink:href="#DejaVuSans-37" transform="translate(514.375 0.78125)"/>
     <use xlink:href="#DejaVuSans-45" transform="translate(577.998047 0.78125)"/>
     <use xlink:href="#DejaVuSans-2d" transform="translate(641.181641 0.78125)"/>
     <use xlink:href="#DejaVuSans-30" transform="translate(677.265625 0.78125)"/>
     <use xlink:href="#DejaVuSans-34" transform="translate(740.888672 0.78125)"/>
     <use xlink:href="#DejaVuSans-20" transform="translate(804.511719 0.78125)"/>
     <use xlink:href="#DejaVuSans-6d" transform="translate(836.298828 0.78125)"/>
     <use xlink:href="#DejaVuSans-41" transform="translate(933.710938 0.78125)"/>
     <use xlink:href="#DejaVuSans-2f" transform="translate(1002.119141 0.78125)"/>
     <use xlink:href="#DejaVuSans-6d" transform="translate(1035.810547 0.78125)"/>
     <use xlink:href="#DejaVuSans-b2" transform="translate(1133.222656 0.78125)"/>
    </g>
   </g>
   <g id="text_18">
    <g id="patch_10">
     <path d="M 306.019759 303.4359 
L 399.699759 303.4359 
Q 401.299759 303.4359 401.299759 301.8359 
L 401.299759 293.3559 
Q 401.299759 291.7559 399.699759 291.7559 
L 306.019759 291.7559 
Q 304.419759 291.7559 304.419759 293.3559 
L 304.419759 301.8359 
Q 304.419759 303.4359 306.019759 303.4359 
z
" style="fill: #ffffff; opacity: 0.85; stroke: #d94452; stroke-linejoin: miter"/>
    </g>
    <!-- I$_{p-p}$ = 2.86E-03 mA/m² -->
    <g style="fill: #d94452" transform="translate(306.019759 299.3559) scale(0.08 -0.08)">
     <use xlink:href="#DejaVuSans-49" transform="translate(0 0.78125)"/>
     <use xlink:href="#DejaVuSans-Oblique-70" transform="translate(30.449219 -15.625) scale(0.7)"/>
     <use xlink:href="#DejaVuSans-2212" transform="translate(88.520508 -15.625) scale(0.7)"/>
     <use xlink:href="#DejaVuSans-Oblique-70" transform="translate(160.810547 -15.625) scale(0.7)"/>
     <use xlink:href="#DejaVuSans-20" transform="translate(207.978516 0.78125)"/>
     <use xlink:href="#DejaVuSans-3d" transform="translate(239.765625 0.78125)"/>
     <use xlink:href="#DejaVuSans-20" transform="translate(323.554688 0.78125)"/>
     <use xlink:href="#DejaVuSans-32" transform="translate(355.341797 0.78125)"/>
     <use xlink:href="#DejaVuSans-2e" transform="translate(418.964844 0.78125)"/>
     <use xlink:href="#DejaVuSans-38" transform="translate(448.126953 0.78125)"/>
     <use xlink:href="#DejaVuSans-36" transform="translate(511.75 0.78125)"/>
     <use xlink:href="#DejaVuSans-45" transform="translate(575.373047 0.78125)"/>
     <use xlink:href="#DejaVuSans-2d" transform="translate(638.556641 0.78125)"/>
     <use xlink:href="#DejaVuSans-30" transform="translate(674.640625 0.78125)"/>
     <use xlink:href="#DejaVuSans-33" transform="translate(738.263672 0.78125)"/>
     <use xlink:href="#DejaVuSans-20" transform="translate(801.886719 0.78125)"/>
     <use xlink:href="#DejaVuSans-6d" transform="translate(833.673828 0.78125)"/>
     <use xlink:href="#DejaVuSans-41" transform="translate(931.085938 0.78125)"/>
     <use xlink:href="#DejaVuSans-2f" transform="translate(999.494141 0.78125)"/>
     <use xlink:href="#DejaVuSans-6d" transform="translate(1033.185547 0.78125)"/>
     <use xlink:href="#DejaVuSans-b2" transform="translate(1130.597656 0.78125)"/>
    </g>
   </g>
   <g id="text_19">
    <!-- Short-Circuit Current — With MIC -->
    <g transform="translate(81.888855 19.3575) scale(0.16 -0.16)">
     <defs>
      <path id="DejaVuSans-Bold-53" d="M 3834 4519 
L 3834 3531 
Q 3450 3703 3084 3790 
Q 2719 3878 2394 3878 
Q 1963 3878 1756 3759 
Q 1550 3641 1550 3391 
Q 1550 3203 1689 3098 
Q 1828 2994 2194 2919 
L 2706 2816 
Q 3484 2659 3812 2340 
Q 4141 2022 4141 1434 
Q 4141 663 3683 286 
Q 3225 -91 2284 -91 
Q 1841 -91 1394 -6 
Q 947 78 500 244 
L 500 1259 
Q 947 1022 1364 901 
Q 1781 781 2169 781 
Q 2563 781 2772 912 
Q 2981 1044 2981 1288 
Q 2981 1506 2839 1625 
Q 2697 1744 2272 1838 
L 1806 1941 
Q 1106 2091 782 2419 
Q 459 2747 459 3303 
Q 459 4000 909 4375 
Q 1359 4750 2203 4750 
Q 2588 4750 2994 4692 
Q 3400 4634 3834 4519 
z
" transform="scale(0.015625)"/>
      <path id="DejaVuSans-Bold-68" d="M 4056 2131 
L 4056 0 
L 2931 0 
L 2931 347 
L 2931 1625 
Q 2931 2084 2911 2256 
Q 2891 2428 2841 2509 
Q 2775 2619 2662 2680 
Q 2550 2741 2406 2741 
Q 2056 2741 1856 2470 
Q 1656 2200 1656 1722 
L 1656 0 
L 538 0 
L 538 4863 
L 1656 4863 
L 1656 2988 
Q 1909 3294 2193 3439 
Q 2478 3584 2822 3584 
Q 3428 3584 3742 3212 
Q 4056 2841 4056 2131 
z
" transform="scale(0.015625)"/>
      <path id="DejaVuSans-Bold-6f" d="M 2203 2784 
Q 1831 2784 1636 2517 
Q 1441 2250 1441 1747 
Q 1441 1244 1636 976 
Q 1831 709 2203 709 
Q 2569 709 2762 976 
Q 2956 1244 2956 1747 
Q 2956 2250 2762 2517 
Q 2569 2784 2203 2784 
z
M 2203 3584 
Q 3106 3584 3614 3096 
Q 4122 2609 4122 1747 
Q 4122 884 3614 396 
Q 3106 -91 2203 -91 
Q 1297 -91 786 396 
Q 275 884 275 1747 
Q 275 2609 786 3096 
Q 1297 3584 2203 3584 
z
" transform="scale(0.015625)"/>
      <path id="DejaVuSans-Bold-72" d="M 3138 2547 
Q 2991 2616 2845 2648 
Q 2700 2681 2553 2681 
Q 2122 2681 1889 2404 
Q 1656 2128 1656 1613 
L 1656 0 
L 538 0 
L 538 3500 
L 1656 3500 
L 1656 2925 
Q 1872 3269 2151 3426 
Q 2431 3584 2822 3584 
Q 2878 3584 2943 3579 
Q 3009 3575 3134 3559 
L 3138 2547 
z
" transform="scale(0.015625)"/>
      <path id="DejaVuSans-Bold-74" d="M 1759 4494 
L 1759 3500 
L 2913 3500 
L 2913 2700 
L 1759 2700 
L 1759 1216 
Q 1759 972 1856 886 
Q 1953 800 2241 800 
L 2816 800 
L 2816 0 
L 1856 0 
Q 1194 0 917 276 
Q 641 553 641 1216 
L 641 2700 
L 84 2700 
L 84 3500 
L 641 3500 
L 641 4494 
L 1759 4494 
z
" transform="scale(0.015625)"/>
      <path id="DejaVuSans-Bold-2d" d="M 347 2297 
L 2309 2297 
L 2309 1388 
L 347 1388 
L 347 2297 
z
" transform="scale(0.015625)"/>
      <path id="DejaVuSans-Bold-43" d="M 4288 256 
Q 3956 84 3597 -3 
Q 3238 -91 2847 -91 
Q 1681 -91 1000 561 
Q 319 1213 319 2328 
Q 319 3447 1000 4098 
Q 1681 4750 2847 4750 
Q 3238 4750 3597 4662 
Q 3956 4575 4288 4403 
L 4288 3438 
Q 3953 3666 3628 3772 
Q 3303 3878 2944 3878 
Q 2300 3878 1931 3465 
Q 1563 3053 1563 2328 
Q 1563 1606 1931 1193 
Q 2300 781 2944 781 
Q 3303 781 3628 887 
Q 3953 994 4288 1222 
L 4288 256 
z
" transform="scale(0.015625)"/>
      <path id="DejaVuSans-Bold-63" d="M 3366 3391 
L 3366 2478 
Q 3138 2634 2908 2709 
Q 2678 2784 2431 2784 
Q 1963 2784 1702 2511 
Q 1441 2238 1441 1747 
Q 1441 1256 1702 982 
Q 1963 709 2431 709 
Q 2694 709 2930 787 
Q 3166 866 3366 1019 
L 3366 103 
Q 3103 6 2833 -42 
Q 2563 -91 2291 -91 
Q 1344 -91 809 395 
Q 275 881 275 1747 
Q 275 2613 809 3098 
Q 1344 3584 2291 3584 
Q 2566 3584 2833 3536 
Q 3100 3488 3366 3391 
z
" transform="scale(0.015625)"/>
      <path id="DejaVuSans-Bold-75" d="M 500 1363 
L 500 3500 
L 1625 3500 
L 1625 3150 
Q 1625 2866 1622 2436 
Q 1619 2006 1619 1863 
Q 1619 1441 1641 1255 
Q 1663 1069 1716 984 
Q 1784 875 1895 815 
Q 2006 756 2150 756 
Q 2500 756 2700 1025 
Q 2900 1294 2900 1772 
L 2900 3500 
L 4019 3500 
L 4019 0 
L 2900 0 
L 2900 506 
Q 2647 200 2364 54 
Q 2081 -91 1741 -91 
Q 1134 -91 817 281 
Q 500 653 500 1363 
z
" transform="scale(0.015625)"/>
      <path id="DejaVuSans-Bold-6e" d="M 4056 2131 
L 4056 0 
L 2931 0 
L 2931 347 
L 2931 1631 
Q 2931 2084 2911 2256 
Q 2891 2428 2841 2509 
Q 2775 2619 2662 2680 
Q 2550 2741 2406 2741 
Q 2056 2741 1856 2470 
Q 1656 2200 1656 1722 
L 1656 0 
L 538 0 
L 538 3500 
L 1656 3500 
L 1656 2988 
Q 1909 3294 2193 3439 
Q 2478 3584 2822 3584 
Q 3428 3584 3742 3212 
Q 4056 2841 4056 2131 
z
" transform="scale(0.015625)"/>
      <path id="DejaVuSans-Bold-2014" d="M 344 2156 
L 6056 2156 
L 6056 1350 
L 344 1350 
L 344 2156 
z
" transform="scale(0.015625)"/>
      <path id="DejaVuSans-Bold-57" d="M 191 4666 
L 1344 4666 
L 2150 1275 
L 2950 4666 
L 4109 4666 
L 4909 1275 
L 5716 4666 
L 6859 4666 
L 5759 0 
L 4372 0 
L 3525 3547 
L 2688 0 
L 1300 0 
L 191 4666 
z
" transform="scale(0.015625)"/>
      <path id="DejaVuSans-Bold-4d" d="M 588 4666 
L 2119 4666 
L 3181 2169 
L 4250 4666 
L 5778 4666 
L 5778 0 
L 4641 0 
L 4641 3413 
L 3566 897 
L 2803 897 
L 1728 3413 
L 1728 0 
L 588 0 
L 588 4666 
z
" transform="scale(0.015625)"/>
     </defs>
     <use xlink:href="#DejaVuSans-Bold-53"/>
     <use xlink:href="#DejaVuSans-Bold-68" transform="translate(72.021484 0)"/>
     <use xlink:href="#DejaVuSans-Bold-6f" transform="translate(143.212891 0)"/>
     <use xlink:href="#DejaVuSans-Bold-72" transform="translate(211.914062 0)"/>
     <use xlink:href="#DejaVuSans-Bold-74" transform="translate(261.230469 0)"/>
     <use xlink:href="#DejaVuSans-Bold-2d" transform="translate(309.033203 0)"/>
     <use xlink:href="#DejaVuSans-Bold-43" transform="translate(350.537109 0)"/>
     <use xlink:href="#DejaVuSans-Bold-69" transform="translate(423.925781 0)"/>
     <use xlink:href="#DejaVuSans-Bold-72" transform="translate(458.203125 0)"/>
     <use xlink:href="#DejaVuSans-Bold-63" transform="translate(507.519531 0)"/>
     <use xlink:href="#DejaVuSans-Bold-75" transform="translate(566.796875 0)"/>
     <use xlink:href="#DejaVuSans-Bold-69" transform="translate(637.988281 0)"/>
     <use xlink:href="#DejaVuSans-Bold-74" transform="translate(672.265625 0)"/>
     <use xlink:href="#DejaVuSans-Bold-20" transform="translate(720.068359 0)"/>
     <use xlink:href="#DejaVuSans-Bold-43" transform="translate(754.882812 0)"/>
     <use xlink:href="#DejaVuSans-Bold-75" transform="translate(828.271484 0)"/>
     <use xlink:href="#DejaVuSans-Bold-72" transform="translate(899.462891 0)"/>
     <use xlink:href="#DejaVuSans-Bold-72" transform="translate(948.779297 0)"/>
     <use xlink:href="#DejaVuSans-Bold-65" transform="translate(998.095703 0)"/>
     <use xlink:href="#DejaVuSans-Bold-6e" transform="translate(1065.917969 0)"/>
     <use xlink:href="#DejaVuSans-Bold-74" transform="translate(1137.109375 0)"/>
     <use xlink:href="#DejaVuSans-Bold-20" transform="translate(1184.912109 0)"/>
     <use xlink:href="#DejaVuSans-Bold-2014" transform="translate(1219.726562 0)"/>
     <use xlink:href="#DejaVuSans-Bold-20" transform="translate(1319.726562 0)"/>
     <use xlink:href="#DejaVuSans-Bold-57" transform="translate(1354.541016 0)"/>
     <use xlink:href="#DejaVuSans-Bold-69" transform="translate(1464.84375 0)"/>
     <use xlink:href="#DejaVuSans-Bold-74" transform="translate(1499.121094 0)"/>
     <use xlink:href="#DejaVuSans-Bold-68" transform="translate(1546.923828 0)"/>
     <use xlink:href="#DejaVuSans-Bold-20" transform="translate(1618.115234 0)"/>
     <use xlink:href="#DejaVuSans-Bold-4d" transform="translate(1652.929688 0)"/>
     <use xlink:href="#DejaVuSans-Bold-49" transform="translate(1752.441406 0)"/>
     <use xlink:href="#DejaVuSans-Bold-43" transform="translate(1789.648438 0)"/>
    </g>
   </g>
   <g id="text_20">
    <!-- 1 Hz -->
    <g style="fill: #4a90d9" transform="translate(92.987171 55.277069) scale(0.13 -0.13)">
     <defs>
      <path id="DejaVuSans-Bold-31" d="M 750 831 
L 1813 831 
L 1813 3847 
L 722 3622 
L 722 4441 
L 1806 4666 
L 2950 4666 
L 2950 831 
L 4013 831 
L 4013 0 
L 750 0 
L 750 831 
z
" transform="scale(0.015625)"/>
      <path id="DejaVuSans-Bold-48" d="M 588 4666 
L 1791 4666 
L 1791 2888 
L 3566 2888 
L 3566 4666 
L 4769 4666 
L 4769 0 
L 3566 0 
L 3566 1978 
L 1791 1978 
L 1791 0 
L 588 0 
L 588 4666 
z
" transform="scale(0.015625)"/>
      <path id="DejaVuSans-Bold-7a" d="M 366 3500 
L 3419 3500 
L 3419 2719 
L 1575 800 
L 3419 800 
L 3419 0 
L 288 0 
L 288 781 
L 2131 2700 
L 366 2700 
L 366 3500 
z
" transform="scale(0.015625)"/>
     </defs>
     <use xlink:href="#DejaVuSans-Bold-31"/>
     <use xlink:href="#DejaVuSans-Bold-20" transform="translate(69.580078 0)"/>
     <use xlink:href="#DejaVuSans-Bold-48" transform="translate(104.394531 0)"/>
     <use xlink:href="#DejaVuSans-Bold-7a" transform="translate(188.085938 0)"/>
    </g>
   </g>
   <g id="text_21">
    <!-- 2.5 Hz -->
    <g style="fill: #5cb85c" transform="translate(207.927762 55.277069) scale(0.13 -0.13)">
     <defs>
      <path id="DejaVuSans-Bold-32" d="M 1844 884 
L 3897 884 
L 3897 0 
L 506 0 
L 506 884 
L 2209 2388 
Q 2438 2594 2547 2791 
Q 2656 2988 2656 3200 
Q 2656 3528 2436 3728 
Q 2216 3928 1850 3928 
Q 1569 3928 1234 3808 
Q 900 3688 519 3450 
L 519 4475 
Q 925 4609 1322 4679 
Q 1719 4750 2100 4750 
Q 2938 4750 3402 4381 
Q 3866 4013 3866 3353 
Q 3866 2972 3669 2642 
Q 3472 2313 2841 1759 
L 1844 884 
z
" transform="scale(0.015625)"/>
      <path id="DejaVuSans-Bold-2e" d="M 653 1209 
L 1778 1209 
L 1778 0 
L 653 0 
L 653 1209 
z
" transform="scale(0.015625)"/>
      <path id="DejaVuSans-Bold-35" d="M 678 4666 
L 3669 4666 
L 3669 3781 
L 1638 3781 
L 1638 3059 
Q 1775 3097 1914 3117 
Q 2053 3138 2203 3138 
Q 3056 3138 3531 2711 
Q 4006 2284 4006 1522 
Q 4006 766 3489 337 
Q 2972 -91 2053 -91 
Q 1656 -91 1267 -14 
Q 878 63 494 219 
L 494 1166 
Q 875 947 1217 837 
Q 1559 728 1863 728 
Q 2300 728 2551 942 
Q 2803 1156 2803 1522 
Q 2803 1891 2551 2103 
Q 2300 2316 1863 2316 
Q 1603 2316 1309 2248 
Q 1016 2181 678 2041 
L 678 4666 
z
" transform="scale(0.015625)"/>
     </defs>
     <use xlink:href="#DejaVuSans-Bold-32"/>
     <use xlink:href="#DejaVuSans-Bold-2e" transform="translate(69.580078 0)"/>
     <use xlink:href="#DejaVuSans-Bold-35" transform="translate(107.568359 0)"/>
     <use xlink:href="#DejaVuSans-Bold-20" transform="translate(177.148438 0)"/>
     <use xlink:href="#DejaVuSans-Bold-48" transform="translate(211.962891 0)"/>
     <use xlink:href="#DejaVuSans-Bold-7a" transform="translate(295.654297 0)"/>
    </g>
   </g>
   <g id="text_22">
    <!-- 5 Hz -->
    <g style="fill: #f0ad4e" transform="translate(336.851478 55.277069) scale(0.13 -0.13)">
     <use xlink:href="#DejaVuSans-Bold-35"/>
     <use xlink:href="#DejaVuSans-Bold-20" transform="translate(69.580078 0)"/>
     <use xlink:href="#DejaVuSans-Bold-48" transform="translate(104.394531 0)"/>
     <use xlink:href="#DejaVuSans-Bold-7a" transform="translate(188.085938 0)"/>
    </g>
   </g>
  </g>
 </g>
 <defs>
  <clipPath id="p9fc8747bac">
   <rect x="48.029375" y="34.3575" width="365.796461" height="276.04"/>
  </clipPath>
 </defs>
</svg>
