<?xml version="1.0" encoding="utf-8" standalone="no"?>
<!DOCTYPE svg PUBLIC "-//W3C//DTD SVG 1.1//EN"
  "http://www.w3.org/Graphics/SVG/1.1/DTD/svg11.dtd">
<svg xmlns:xlink="http://www.w3.org/1999/xlink" width="424.172301pt" height="352.5975pt" viewBox="0 0 424.172301 352.5975" xmlns="http://www.w3.org/2000/svg" version="1.1">
 <metadata>
  <rdf:RDF xmlns:dc="http://purl.org/dc/elements/1.1/" xmlns:cc="http://creativecommons.org/ns#" xmlns:rdf="http://www.w3.org/1999/02/22-rdf-syntax-ns#">
   <cc:Work>
    <dc:type rdf:resource="http://purl.org/dc/dcmitype/StillImage"/>
    <dc:date>2026-04-26T16:42:32.395475</dc:date>
    <dc:format>image/svg+xml</dc:format>
    <dc:creator>
     <cc:Agent>
      <dc:title>Matplotlib v3.10.8, https://matplotlib.org/</dc:title>
     </cc:Agent>
    </dc:creator>
   </cc:Work>
  </rdf:RDF>
 </metadata>
 <defs>
  <style type="text/css">*{stroke-linejoin: round; stroke-linecap: butt}</style>
 </defs>
 <g id="figure_1">
  <g id="patch_1">
   <path d="M 0 352.5975 
L 424.172301 352.5975 
L 424.172301 0 
L 0 0 
z
" style="fill: #ffffff"/>
  </g>
  <g id="axes_1">
   <g id="patch_2">
    <path d="M 58.479375 310.202188 
L 416.972301 310.202188 
L 416.972301 22.842187 
L 58.479375 22.842187 
z
" style="fill: #ffffff"/>
   </g>
   <g id="patch_3">
    <path d="M 58.479375 310.202188 
L 237.725838 310.202188 
L 237.725838 22.842187 
L 58.479375 22.842187 
z
" clip-path="url(#p4428327783)" style="fill: #cccccc; opacity: 0.12; stroke: #cccccc; stroke-linejoin: miter"/>
   </g>
   <g id="patch_4">
    <path d="M 237.725838 310.202188 
L 416.972301 310.202188 
L 416.972301 22.842187 
L 237.725838 22.842187 
z
" clip-path="url(#p4428327783)" style="fill: #d94452; opacity: 0.06; stroke: #d94452; stroke-linejoin: miter"/>
   </g>
   <g id="line2d_1">
    <path d="M 237.725838 310.202188 
L 237.725838 22.842187 
" clip-path="url(#p4428327783)" style="fill: none; stroke-dasharray: 3.7,1.6; stroke-dashoffset: 0; stroke: #999999"/>
   </g>
   <g id="matplotlib.axis_1">
    <g id="xtick_1">
     <g id="line2d_2">
      <defs>
       <path id="m0327288d1a" d="M 0 0 
L 0 3.5 
" style="stroke: #000000; stroke-width: 0.8"/>
      </defs>
      <g>
       <use xlink:href="#m0327288d1a" x="58.479375" y="310.202188" style="stroke: #000000; stroke-width: 0.8"/>
      </g>
     </g>
     <g id="text_1">
      <!-- 0.0 -->
      <g transform="translate(49.732656 325.560469) scale(0.11 -0.11)">
       <defs>
        <path id="DejaVuSans-30" d="M 2034 4250 
Q 1547 4250 1301 3770 
Q 1056 3291 1056 2328 
Q 1056 1369 1301 889 
Q 1547 409 2034 409 
Q 2525 409 2770 889 
Q 3016 1369 3016 2328 
Q 3016 3291 2770 3770 
Q 2525 4250 2034 4250 
z
M 2034 4750 
Q 2819 4750 3233 4129 
Q 3647 3509 3647 2328 
Q 3647 1150 3233 529 
Q 2819 -91 2034 -91 
Q 1250 -91 836 529 
Q 422 1150 422 2328 
Q 422 3509 836 4129 
Q 1250 4750 2034 4750 
z
" transform="scale(0.015625)"/>
        <path id="DejaVuSans-2e" d="M 684 794 
L 1344 794 
L 1344 0 
L 684 0 
L 684 794 
z
" transform="scale(0.015625)"/>
       </defs>
       <use xlink:href="#DejaVuSans-30"/>
       <use xlink:href="#DejaVuSans-2e" transform="translate(63.623047 0)"/>
       <use xlink:href="#DejaVuSans-30" transform="translate(95.410156 0)"/>
      </g>
     </g>
    </g>
    <g id="xtick_2">
     <g id="line2d_3">
      <g>
       <use xlink:href="#m0327288d1a" x="103.313408" y="310.202188" style="stroke: #000000; stroke-width: 0.8"/>
      </g>
     </g>
     <g id="text_2">
      <!-- 0.5 -->
      <g transform="translate(94.566689 325.560469) scale(0.11 -0.11)">
       <defs>
        <path id="DejaVuSans-35" d="M 691 4666 
L 3169 4666 
L 3169 4134 
L 1269 4134 
L 1269 2991 
Q 1406 3038 1543 3061 
Q 1681 3084 1819 3084 
Q 2600 3084 3056 2656 
Q 3513 2228 3513 1497 
Q 3513 744 3044 326 
Q 2575 -91 1722 -91 
Q 1428 -91 1123 -41 
Q 819 9 494 109 
L 494 744 
Q 775 591 1075 516 
Q 1375 441 1709 441 
Q 2250 441 2565 725 
Q 2881 1009 2881 1497 
Q 2881 1984 2565 2268 
Q 2250 2553 1709 2553 
Q 1456 2553 1204 2497 
Q 953 2441 691 2322 
L 691 4666 
z
" transform="scale(0.015625)"/>
       </defs>
       <use xlink:href="#DejaVuSans-30"/>
       <use xlink:href="#DejaVuSans-2e" transform="translate(63.623047 0)"/>
       <use xlink:href="#DejaVuSans-35" transform="translate(95.410156 0)"/>
      </g>
     </g>
    </g>
    <g id="xtick_3">
     <g id="line2d_4">
      <g>
       <use xlink:href="#m0327288d1a" x="148.14744" y="310.202188" style="stroke: #000000; stroke-width: 0.8"/>
      </g>
     </g>
     <g id="text_3">
      <!-- 1.0 -->
      <g transform="translate(139.400722 325.560469) scale(0.11 -0.11)">
       <defs>
        <path id="DejaVuSans-31" d="M 794 531 
L 1825 531 
L 1825 4091 
L 703 3866 
L 703 4441 
L 1819 4666 
L 2450 4666 
L 2450 531 
L 3481 531 
L 3481 0 
L 794 0 
L 794 531 
z
" transform="scale(0.015625)"/>
       </defs>
       <use xlink:href="#DejaVuSans-31"/>
       <use xlink:href="#DejaVuSans-2e" transform="translate(63.623047 0)"/>
       <use xlink:href="#DejaVuSans-30" transform="translate(95.410156 0)"/>
      </g>
     </g>
    </g>
    <g id="xtick_4">
     <g id="line2d_5">
      <g>
       <use xlink:href="#m0327288d1a" x="192.981473" y="310.202188" style="stroke: #000000; stroke-width: 0.8"/>
      </g>
     </g>
     <g id="text_4">
      <!-- 1.5 -->
      <g transform="translate(184.234754 325.560469) scale(0.11 -0.11)">
       <use xlink:href="#DejaVuSans-31"/>
       <use xlink:href="#DejaVuSans-2e" transform="translate(63.623047 0)"/>
       <use xlink:href="#DejaVuSans-35" transform="translate(95.410156 0)"/>
      </g>
     </g>
    </g>
    <g id="xtick_5">
     <g id="line2d_6">
      <g>
       <use xlink:href="#m0327288d1a" x="237.815506" y="310.202188" style="stroke: #000000; stroke-width: 0.8"/>
      </g>
     </g>
     <g id="text_5">
      <!-- 2.0 -->
      <g transform="translate(229.068787 325.560469) scale(0.11 -0.11)">
       <defs>
        <path id="DejaVuSans-32" d="M 1228 531 
L 3431 531 
L 3431 0 
L 469 0 
L 469 531 
Q 828 903 1448 1529 
Q 2069 2156 2228 2338 
Q 2531 2678 2651 2914 
Q 2772 3150 2772 3378 
Q 2772 3750 2511 3984 
Q 2250 4219 1831 4219 
Q 1534 4219 1204 4116 
Q 875 4013 500 3803 
L 500 4441 
Q 881 4594 1212 4672 
Q 1544 4750 1819 4750 
Q 2544 4750 2975 4387 
Q 3406 4025 3406 3419 
Q 3406 3131 3298 2873 
Q 3191 2616 2906 2266 
Q 2828 2175 2409 1742 
Q 1991 1309 1228 531 
z
" transform="scale(0.015625)"/>
       </defs>
       <use xlink:href="#DejaVuSans-32"/>
       <use xlink:href="#DejaVuSans-2e" transform="translate(63.623047 0)"/>
       <use xlink:href="#DejaVuSans-30" transform="translate(95.410156 0)"/>
      </g>
     </g>
    </g>
    <g id="xtick_6">
     <g id="line2d_7">
      <g>
       <use xlink:href="#m0327288d1a" x="282.649539" y="310.202188" style="stroke: #000000; stroke-width: 0.8"/>
      </g>
     </g>
     <g id="text_6">
      <!-- 2.5 -->
      <g transform="translate(273.90282 325.560469) scale(0.11 -0.11)">
       <use xlink:href="#DejaVuSans-32"/>
       <use xlink:href="#DejaVuSans-2e" transform="translate(63.623047 0)"/>
       <use xlink:href="#DejaVuSans-35" transform="translate(95.410156 0)"/>
      </g>
     </g>
    </g>
    <g id="xtick_7">
     <g id="line2d_8">
      <g>
       <use xlink:href="#m0327288d1a" x="327.483571" y="310.202188" style="stroke: #000000; stroke-width: 0.8"/>
      </g>
     </g>
     <g id="text_7">
      <!-- 3.0 -->
      <g transform="translate(318.736853 325.560469) scale(0.11 -0.11)">
       <defs>
        <path id="DejaVuSans-33" d="M 2597 2516 
Q 3050 2419 3304 2112 
Q 3559 1806 3559 1356 
Q 3559 666 3084 287 
Q 2609 -91 1734 -91 
Q 1441 -91 1130 -33 
Q 819 25 488 141 
L 488 750 
Q 750 597 1062 519 
Q 1375 441 1716 441 
Q 2309 441 2620 675 
Q 2931 909 2931 1356 
Q 2931 1769 2642 2001 
Q 2353 2234 1838 2234 
L 1294 2234 
L 1294 2753 
L 1863 2753 
Q 2328 2753 2575 2939 
Q 2822 3125 2822 3475 
Q 2822 3834 2567 4026 
Q 2313 4219 1838 4219 
Q 1578 4219 1281 4162 
Q 984 4106 628 3988 
L 628 4550 
Q 988 4650 1302 4700 
Q 1616 4750 1894 4750 
Q 2613 4750 3031 4423 
Q 3450 4097 3450 3541 
Q 3450 3153 3228 2886 
Q 3006 2619 2597 2516 
z
" transform="scale(0.015625)"/>
       </defs>
       <use xlink:href="#DejaVuSans-33"/>
       <use xlink:href="#DejaVuSans-2e" transform="translate(63.623047 0)"/>
       <use xlink:href="#DejaVuSans-30" transform="translate(95.410156 0)"/>
      </g>
     </g>
    </g>
    <g id="xtick_8">
     <g id="line2d_9">
      <g>
       <use xlink:href="#m0327288d1a" x="372.317604" y="310.202188" style="stroke: #000000; stroke-width: 0.8"/>
      </g>
     </g>
     <g id="text_8">
      <!-- 3.5 -->
      <g transform="translate(363.570885 325.560469) scale(0.11 -0.11)">
       <use xlink:href="#DejaVuSans-33"/>
       <use xlink:href="#DejaVuSans-2e" transform="translate(63.623047 0)"/>
       <use xlink:href="#DejaVuSans-35" transform="translate(95.410156 0)"/>
      </g>
     </g>
    </g>
    <g id="text_9">
     <!-- Time (s) -->
     <g transform="translate(205.507244 342.485938) scale(0.14 -0.14)">
      <defs>
       <path id="DejaVuSans-Bold-54" d="M 31 4666 
L 4331 4666 
L 4331 3756 
L 2784 3756 
L 2784 0 
L 1581 0 
L 1581 3756 
L 31 3756 
L 31 4666 
z
" transform="scale(0.015625)"/>
       <path id="DejaVuSans-Bold-69" d="M 538 3500 
L 1656 3500 
L 1656 0 
L 538 0 
L 538 3500 
z
M 538 4863 
L 1656 4863 
L 1656 3950 
L 538 3950 
L 538 4863 
z
" transform="scale(0.015625)"/>
       <path id="DejaVuSans-Bold-6d" d="M 3781 2919 
Q 3994 3244 4286 3414 
Q 4578 3584 4928 3584 
Q 5531 3584 5847 3212 
Q 6163 2841 6163 2131 
L 6163 0 
L 5038 0 
L 5038 1825 
Q 5041 1866 5042 1909 
Q 5044 1953 5044 2034 
Q 5044 2406 4934 2573 
Q 4825 2741 4581 2741 
Q 4263 2741 4089 2478 
Q 3916 2216 3909 1719 
L 3909 0 
L 2784 0 
L 2784 1825 
Q 2784 2406 2684 2573 
Q 2584 2741 2328 2741 
Q 2006 2741 1831 2477 
Q 1656 2213 1656 1722 
L 1656 0 
L 531 0 
L 531 3500 
L 1656 3500 
L 1656 2988 
Q 1863 3284 2130 3434 
Q 2397 3584 2719 3584 
Q 3081 3584 3359 3409 
Q 3638 3234 3781 2919 
z
" transform="scale(0.015625)"/>
       <path id="DejaVuSans-Bold-65" d="M 4031 1759 
L 4031 1441 
L 1416 1441 
Q 1456 1047 1700 850 
Q 1944 653 2381 653 
Q 2734 653 3104 758 
Q 3475 863 3866 1075 
L 3866 213 
Q 3469 63 3072 -14 
Q 2675 -91 2278 -91 
Q 1328 -91 801 392 
Q 275 875 275 1747 
Q 275 2603 792 3093 
Q 1309 3584 2216 3584 
Q 3041 3584 3536 3087 
Q 4031 2591 4031 1759 
z
M 2881 2131 
Q 2881 2450 2695 2645 
Q 2509 2841 2209 2841 
Q 1884 2841 1681 2658 
Q 1478 2475 1428 2131 
L 2881 2131 
z
" transform="scale(0.015625)"/>
       <path id="DejaVuSans-Bold-20" transform="scale(0.015625)"/>
       <path id="DejaVuSans-Bold-28" d="M 2413 -844 
L 1484 -844 
Q 1006 -72 778 623 
Q 550 1319 550 2003 
Q 550 2688 779 3389 
Q 1009 4091 1484 4856 
L 2413 4856 
Q 2013 4116 1813 3408 
Q 1613 2700 1613 2009 
Q 1613 1319 1811 609 
Q 2009 -100 2413 -844 
z
" transform="scale(0.015625)"/>
       <path id="DejaVuSans-Bold-73" d="M 3272 3391 
L 3272 2541 
Q 2913 2691 2578 2766 
Q 2244 2841 1947 2841 
Q 1628 2841 1473 2761 
Q 1319 2681 1319 2516 
Q 1319 2381 1436 2309 
Q 1553 2238 1856 2203 
L 2053 2175 
Q 2913 2066 3209 1816 
Q 3506 1566 3506 1031 
Q 3506 472 3093 190 
Q 2681 -91 1863 -91 
Q 1516 -91 1145 -36 
Q 775 19 384 128 
L 384 978 
Q 719 816 1070 734 
Q 1422 653 1784 653 
Q 2113 653 2278 743 
Q 2444 834 2444 1013 
Q 2444 1163 2330 1236 
Q 2216 1309 1875 1350 
L 1678 1375 
Q 931 1469 631 1722 
Q 331 1975 331 2491 
Q 331 3047 712 3315 
Q 1094 3584 1881 3584 
Q 2191 3584 2531 3537 
Q 2872 3491 3272 3391 
z
" transform="scale(0.015625)"/>
       <path id="DejaVuSans-Bold-29" d="M 513 -844 
Q 913 -100 1113 609 
Q 1313 1319 1313 2009 
Q 1313 2700 1113 3408 
Q 913 4116 513 4856 
L 1441 4856 
Q 1916 4091 2145 3389 
Q 2375 2688 2375 2003 
Q 2375 1319 2147 623 
Q 1919 -72 1441 -844 
L 513 -844 
z
" transform="scale(0.015625)"/>
      </defs>
      <use xlink:href="#DejaVuSans-Bold-54"/>
      <use xlink:href="#DejaVuSans-Bold-69" transform="translate(68.212891 0)"/>
      <use xlink:href="#DejaVuSans-Bold-6d" transform="translate(102.490234 0)"/>
      <use xlink:href="#DejaVuSans-Bold-65" transform="translate(206.689453 0)"/>
      <use xlink:href="#DejaVuSans-Bold-20" transform="translate(274.511719 0)"/>
      <use xlink:href="#DejaVuSans-Bold-28" transform="translate(309.326172 0)"/>
      <use xlink:href="#DejaVuSans-Bold-73" transform="translate(355.029297 0)"/>
      <use xlink:href="#DejaVuSans-Bold-29" transform="translate(414.550781 0)"/>
     </g>
    </g>
   </g>
   <g id="matplotlib.axis_2">
    <g id="ytick_1">
     <g id="line2d_10">
      <defs>
       <path id="mf910331f5c" d="M 0 0 
L -3.5 0 
" style="stroke: #000000; stroke-width: 0.8"/>
      </defs>
      <g>
       <use xlink:href="#mf910331f5c" x="58.479375" y="292.471841" style="stroke: #000000; stroke-width: 0.8"/>
      </g>
     </g>
     <g id="text_10">
      <!-- $\mathdefault{−1.0}$ -->
      <g transform="translate(24.749375 296.650982) scale(0.11 -0.11)">
       <defs>
        <path id="DejaVuSans-2212" d="M 678 2272 
L 4684 2272 
L 4684 1741 
L 678 1741 
L 678 2272 
z
" transform="scale(0.015625)"/>
       </defs>
       <use xlink:href="#DejaVuSans-2212" transform="translate(0 0.78125)"/>
       <use xlink:href="#DejaVuSans-31" transform="translate(83.789062 0.78125)"/>
       <use xlink:href="#DejaVuSans-2e" transform="translate(147.412109 0.78125)"/>
       <use xlink:href="#DejaVuSans-30" transform="translate(179.199219 0.78125)"/>
      </g>
     </g>
    </g>
    <g id="ytick_2">
     <g id="line2d_11">
      <g>
       <use xlink:href="#mf910331f5c" x="58.479375" y="229.497014" style="stroke: #000000; stroke-width: 0.8"/>
      </g>
     </g>
     <g id="text_11">
      <!-- $\mathdefault{−0.5}$ -->
      <g transform="translate(24.749375 233.676155) scale(0.11 -0.11)">
       <use xlink:href="#DejaVuSans-2212" transform="translate(0 0.78125)"/>
       <use xlink:href="#DejaVuSans-30" transform="translate(83.789062 0.78125)"/>
       <use xlink:href="#DejaVuSans-2e" transform="translate(147.412109 0.78125)"/>
       <use xlink:href="#DejaVuSans-35" transform="translate(179.199219 0.78125)"/>
      </g>
     </g>
    </g>
    <g id="ytick_3">
     <g id="line2d_12">
      <g>
       <use xlink:href="#mf910331f5c" x="58.479375" y="166.522187" style="stroke: #000000; stroke-width: 0.8"/>
      </g>
     </g>
     <g id="text_12">
      <!-- $\mathdefault{0.0}$ -->
      <g transform="translate(33.879375 170.701328) scale(0.11 -0.11)">
       <use xlink:href="#DejaVuSans-30" transform="translate(0 0.78125)"/>
       <use xlink:href="#DejaVuSans-2e" transform="translate(63.623047 0.78125)"/>
       <use xlink:href="#DejaVuSans-30" transform="translate(95.410156 0.78125)"/>
      </g>
     </g>
    </g>
    <g id="ytick_4">
     <g id="line2d_13">
      <g>
       <use xlink:href="#mf910331f5c" x="58.479375" y="103.547361" style="stroke: #000000; stroke-width: 0.8"/>
      </g>
     </g>
     <g id="text_13">
      <!-- $\mathdefault{0.5}$ -->
      <g transform="translate(33.879375 107.726501) scale(0.11 -0.11)">
       <use xlink:href="#DejaVuSans-30" transform="translate(0 0.78125)"/>
       <use xlink:href="#DejaVuSans-2e" transform="translate(63.623047 0.78125)"/>
       <use xlink:href="#DejaVuSans-35" transform="translate(95.410156 0.78125)"/>
      </g>
     </g>
    </g>
    <g id="ytick_5">
     <g id="line2d_14">
      <g>
       <use xlink:href="#mf910331f5c" x="58.479375" y="40.572534" style="stroke: #000000; stroke-width: 0.8"/>
      </g>
     </g>
     <g id="text_14">
      <!-- $\mathdefault{1.0}$ -->
      <g transform="translate(33.879375 44.751675) scale(0.11 -0.11)">
       <use xlink:href="#DejaVuSans-31" transform="translate(0 0.78125)"/>
       <use xlink:href="#DejaVuSans-2e" transform="translate(63.623047 0.78125)"/>
       <use xlink:href="#DejaVuSans-30" transform="translate(95.410156 0.78125)"/>
      </g>
     </g>
    </g>
    <g id="text_15">
     <!-- I$_{sc}$ (mA/m²) -->
     <g transform="translate(17.837813 209.152187) rotate(-90) scale(0.14 -0.14)">
      <defs>
       <path id="DejaVuSans-Bold-49" d="M 588 4666 
L 1791 4666 
L 1791 0 
L 588 0 
L 588 4666 
z
" transform="scale(0.015625)"/>
       <path id="DejaVuSans-Oblique-73" d="M 3200 3397 
L 3091 2853 
Q 2863 2978 2609 3040 
Q 2356 3103 2088 3103 
Q 1634 3103 1373 2948 
Q 1113 2794 1113 2528 
Q 1113 2219 1719 2053 
Q 1766 2041 1788 2034 
L 1972 1978 
Q 2547 1819 2739 1644 
Q 2931 1469 2931 1166 
Q 2931 609 2489 259 
Q 2047 -91 1331 -91 
Q 1053 -91 747 -37 
Q 441 16 72 128 
L 184 722 
Q 500 559 806 475 
Q 1113 391 1394 391 
Q 1816 391 2080 572 
Q 2344 753 2344 1031 
Q 2344 1331 1650 1516 
L 1591 1531 
L 1394 1581 
Q 956 1697 753 1886 
Q 550 2075 550 2369 
Q 550 2928 970 3256 
Q 1391 3584 2113 3584 
Q 2397 3584 2667 3537 
Q 2938 3491 3200 3397 
z
" transform="scale(0.015625)"/>
       <path id="DejaVuSans-Oblique-63" d="M 3431 3366 
L 3316 2797 
Q 3109 2947 2876 3022 
Q 2644 3097 2394 3097 
Q 2119 3097 1870 3000 
Q 1622 2903 1453 2725 
Q 1184 2453 1037 2087 
Q 891 1722 891 1331 
Q 891 859 1127 628 
Q 1363 397 1844 397 
Q 2081 397 2348 469 
Q 2616 541 2906 684 
L 2797 116 
Q 2547 13 2283 -39 
Q 2019 -91 1741 -91 
Q 1044 -91 669 257 
Q 294 606 294 1253 
Q 294 1797 489 2255 
Q 684 2713 1069 3078 
Q 1331 3328 1684 3456 
Q 2038 3584 2456 3584 
Q 2700 3584 2940 3529 
Q 3181 3475 3431 3366 
z
" transform="scale(0.015625)"/>
       <path id="DejaVuSans-Bold-41" d="M 3419 850 
L 1538 850 
L 1241 0 
L 31 0 
L 1759 4666 
L 3194 4666 
L 4922 0 
L 3713 0 
L 3419 850 
z
M 1838 1716 
L 3116 1716 
L 2478 3572 
L 1838 1716 
z
" transform="scale(0.015625)"/>
       <path id="DejaVuSans-Bold-2f" d="M 1644 4666 
L 2338 4666 
L 691 -594 
L 0 -594 
L 1644 4666 
z
" transform="scale(0.015625)"/>
       <path id="DejaVuSans-Bold-b2" d="M 1288 2613 
L 2444 2613 
L 2444 2088 
L 341 2088 
L 341 2566 
L 1319 3397 
Q 1509 3563 1590 3688 
Q 1672 3813 1672 3938 
Q 1672 4094 1558 4191 
Q 1444 4288 1259 4288 
Q 1066 4288 844 4217 
Q 622 4147 359 4000 
L 359 4581 
Q 631 4666 886 4708 
Q 1141 4750 1375 4750 
Q 1869 4750 2150 4548 
Q 2431 4347 2431 4000 
Q 2431 3775 2320 3586 
Q 2209 3397 1894 3128 
L 1288 2613 
z
" transform="scale(0.015625)"/>
      </defs>
      <use xlink:href="#DejaVuSans-Bold-49" transform="translate(0 0.125)"/>
      <use xlink:href="#DejaVuSans-Oblique-73" transform="translate(38.164062 -16.28125) scale(0.7)"/>
      <use xlink:href="#DejaVuSans-Oblique-63" transform="translate(74.633789 -16.28125) scale(0.7)"/>
      <use xlink:href="#DejaVuSans-Bold-20" transform="translate(115.854492 0.125)"/>
      <use xlink:href="#DejaVuSans-Bold-28" transform="translate(150.668945 0.125)"/>
      <use xlink:href="#DejaVuSans-Bold-6d" transform="translate(196.37207 0.125)"/>
      <use xlink:href="#DejaVuSans-Bold-41" transform="translate(300.571289 0.125)"/>
      <use xlink:href="#DejaVuSans-Bold-2f" transform="translate(377.963867 0.125)"/>
      <use xlink:href="#DejaVuSans-Bold-6d" transform="translate(414.487305 0.125)"/>
      <use xlink:href="#DejaVuSans-Bold-b2" transform="translate(518.686523 0.125)"/>
      <use xlink:href="#DejaVuSans-Bold-29" transform="translate(562.485352 0.125)"/>
     </g>
    </g>
    <g id="text_16">
     <!-- $\times\mathdefault{10^{−3}}\mathdefault{}$ -->
     <g transform="translate(58.479375 19.842187) scale(0.1 -0.1)">
      <defs>
       <path id="DejaVuSans-d7" d="M 4488 3438 
L 3059 2003 
L 4488 575 
L 4116 197 
L 2681 1631 
L 1247 197 
L 878 575 
L 2303 2003 
L 878 3438 
L 1247 3816 
L 2681 2381 
L 4116 3816 
L 4488 3438 
z
" transform="scale(0.015625)"/>
      </defs>
      <use xlink:href="#DejaVuSans-d7" transform="translate(0 0.765625)"/>
      <use xlink:href="#DejaVuSans-31" transform="translate(83.789062 0.765625)"/>
      <use xlink:href="#DejaVuSans-30" transform="translate(147.412109 0.765625)"/>
      <use xlink:href="#DejaVuSans-2212" transform="translate(211.992188 39.046875) scale(0.7)"/>
      <use xlink:href="#DejaVuSans-33" transform="translate(270.644531 39.046875) scale(0.7)"/>
     </g>
    </g>
   </g>
   <g id="patch_5">
    <path d="M 58.479375 310.202188 
L 58.479375 22.842187 
" style="fill: none; stroke: #000000; stroke-width: 0.8; stroke-linejoin: miter; stroke-linecap: square"/>
   </g>
   <g id="patch_6">
    <path d="M 58.479375 310.202188 
L 416.972301 310.202188 
" style="fill: none; stroke: #000000; stroke-width: 0.8; stroke-linejoin: miter; stroke-linecap: square"/>
   </g>
   <g id="line2d_15">
    <path d="M 58.479375 164.637163 
L 58.569043 164.637163 
L 58.658711 164.839985 
L 58.748379 164.434342 
L 58.927715 164.839985 
L 59.017383 164.941396 
L 59.107051 164.839985 
L 59.19672 165.042806 
L 59.376056 164.637163 
L 59.465724 164.637163 
L 59.555392 164.839985 
L 59.64506 164.637163 
L 59.824396 164.738574 
L 59.914064 164.637163 
L 60.003732 164.738574 
L 60.0934 164.637163 
L 60.183068 164.332931 
L 60.362404 164.839985 
L 60.541741 164.738574 
L 60.631409 164.738574 
L 60.721077 165.042806 
L 60.900413 164.738574 
L 61.079749 164.637163 
L 61.169417 164.23152 
L 61.259085 164.332931 
L 61.348753 164.23152 
L 61.438421 164.332931 
L 61.528089 164.23152 
L 61.617757 164.839985 
L 61.707425 164.738574 
L 61.797093 164.738574 
L 61.886761 164.535752 
L 62.155766 165.347039 
L 62.42477 164.637163 
L 62.514438 164.941396 
L 62.693774 164.637163 
L 62.783442 164.637163 
L 62.87311 164.130109 
L 63.052446 164.535752 
L 63.142114 164.637163 
L 63.231782 165.144217 
L 63.321451 164.941396 
L 63.411119 165.245628 
L 63.500787 165.042806 
L 63.680123 165.347039 
L 63.859459 164.535752 
L 63.949127 165.144217 
L 64.038795 164.839985 
L 64.128463 165.549861 
L 64.218131 165.144217 
L 64.307799 165.549861 
L 64.397467 165.44845 
L 64.487135 165.44845 
L 64.576803 165.144217 
L 64.935476 166.361147 
L 65.025144 165.955504 
L 65.114812 166.158326 
L 65.20448 166.056915 
L 65.294148 166.361147 
L 65.563152 165.752682 
L 65.742488 166.563969 
L 65.832156 166.158326 
L 65.921824 166.259736 
L 66.011493 166.361147 
L 66.190829 166.056915 
L 66.370165 166.76679 
L 66.459833 166.563969 
L 66.639169 166.66538 
L 66.818505 166.76679 
L 66.908173 166.868201 
L 67.087509 166.462558 
L 67.177177 166.361147 
L 67.446182 167.071023 
L 67.625518 166.76679 
L 67.98419 167.882309 
L 68.163526 167.476666 
L 68.342862 167.780898 
L 68.43253 167.679488 
L 68.522198 167.578077 
L 68.611866 167.882309 
L 68.701534 167.780898 
L 68.880871 168.389363 
L 68.970539 168.287953 
L 69.149875 168.186542 
L 69.508547 169.403471 
L 69.598215 169.099239 
L 69.777551 169.504882 
L 69.867219 169.403471 
L 70.046555 169.707703 
L 70.136224 169.707703 
L 70.225892 170.214757 
L 70.31556 170.113346 
L 70.494896 170.214757 
L 70.584564 170.6204 
L 70.674232 170.41758 
L 70.943236 171.634509 
L 71.21224 172.040152 
L 71.391576 172.445795 
L 71.481244 172.547206 
L 71.660581 173.155672 
L 71.839917 173.257081 
L 72.288257 175.082475 
L 72.377925 175.082475 
L 72.557261 176.197996 
L 72.646929 176.096584 
L 72.915934 177.212105 
L 73.722946 181.268537 
L 73.99195 183.499574 
L 74.260955 185.6292 
L 74.978299 192.11949 
L 75.247303 195.567459 
L 76.233652 212.503068 
L 76.861328 228.830205 
L 78.296017 271.219884 
L 78.565022 274.465039 
L 78.65469 274.66785 
L 78.834026 273.755156 
L 79.10303 268.278991 
L 79.641038 248.199656 
L 80.448051 205.505715 
L 81.255064 129.447616 
L 81.613736 117.075487 
L 82.869089 92.22984 
L 83.317429 86.04376 
L 83.586433 85.232486 
L 83.676101 85.333907 
L 83.945106 86.855064 
L 85.379795 107.745704 
L 87.262824 133.909697 
L 88.518177 144.355001 
L 89.056185 147.802967 
L 89.414858 149.729774 
L 89.594194 150.135417 
L 89.77353 151.048114 
L 89.863198 151.149525 
L 90.132202 152.569277 
L 90.22187 152.772097 
L 90.311538 153.481974 
L 90.401206 153.279151 
L 90.670211 154.597492 
L 91.028883 155.6116 
L 91.118551 155.6116 
L 92.015231 157.842638 
L 92.194568 158.653927 
L 92.284236 158.045461 
L 92.55324 158.755335 
L 92.642908 158.958158 
L 92.732576 158.856747 
L 92.822244 159.05957 
L 92.911912 158.856747 
L 93.180916 159.769444 
L 93.270584 160.175087 
L 93.360252 160.073675 
L 93.449921 159.972267 
L 93.539589 160.58073 
L 93.629257 160.175087 
L 93.718925 160.37791 
L 93.808593 160.175087 
L 93.898261 160.37791 
L 94.077597 160.175087 
L 94.256933 160.58073 
L 94.346601 160.37791 
L 94.436269 160.783553 
L 94.525937 160.276498 
L 94.705273 160.884964 
L 94.794942 161.087784 
L 94.88461 160.986373 
L 95.153614 161.392019 
L 95.243282 161.189196 
L 95.601954 161.493427 
L 95.78129 161.392019 
L 95.870958 161.392019 
L 95.960626 161.087784 
L 96.050294 161.69625 
L 96.139963 161.392019 
L 96.229631 161.69625 
L 96.319299 161.493427 
L 96.408967 161.797662 
L 96.498635 161.69625 
L 96.588303 161.797662 
L 96.677971 162.304716 
L 96.767639 162.203305 
L 97.215979 162.101893 
L 97.305647 161.797662 
L 97.66432 162.913179 
L 97.753988 162.406124 
L 97.843656 163.116002 
L 97.933324 163.01459 
L 98.202328 163.420234 
L 98.291996 163.217413 
L 98.561 163.420234 
L 98.650668 163.420234 
L 98.830004 163.116002 
L 99.099009 163.217413 
L 99.278345 163.420234 
L 99.368013 163.217413 
L 99.457681 163.623055 
L 99.547349 163.420234 
L 99.637017 163.521645 
L 99.816353 163.420234 
L 99.995689 163.521645 
L 100.085357 163.521645 
L 100.264694 162.913179 
L 100.354362 163.01459 
L 100.44403 163.724466 
L 100.623366 163.521645 
L 100.802702 163.825877 
L 100.89237 163.724466 
L 100.982038 163.217413 
L 101.251042 163.724466 
L 101.430378 163.318822 
L 101.520046 163.217413 
L 101.609714 163.318822 
L 101.789051 163.116002 
L 101.878719 163.116002 
L 101.968387 162.811767 
L 102.058055 163.420234 
L 102.147723 163.318822 
L 102.416727 163.724466 
L 102.506395 163.724466 
L 102.596063 163.521645 
L 102.685731 163.724466 
L 103.134072 163.318822 
L 103.582412 163.318822 
L 103.67208 163.521645 
L 103.851416 163.318822 
L 103.941084 163.217413 
L 104.030752 163.318822 
L 104.12042 163.01459 
L 104.210088 163.217413 
L 104.479093 162.811767 
L 104.837765 162.203305 
L 104.927433 162.101893 
L 105.017101 162.203305 
L 105.106769 162.710359 
L 105.196437 162.507536 
L 105.375773 163.01459 
L 105.644777 162.811767 
L 105.824114 163.217413 
L 106.00345 163.01459 
L 106.362122 163.01459 
L 106.541458 163.420234 
L 106.631126 163.318822 
L 106.720794 163.420234 
L 106.810462 163.825877 
L 106.90013 163.623055 
L 107.079466 163.927288 
L 107.258803 163.521645 
L 107.438139 163.623055 
L 107.527807 163.521645 
L 107.617475 163.724466 
L 107.886479 163.217413 
L 108.065815 163.724466 
L 108.155483 163.724466 
L 108.245151 163.521645 
L 108.334819 163.724466 
L 108.424487 163.521645 
L 108.603824 163.825877 
L 108.693492 163.623055 
L 108.78316 163.724466 
L 108.872828 163.521645 
L 109.2315 163.927288 
L 109.410836 163.318822 
L 109.590172 163.927288 
L 109.769508 164.028698 
L 109.948845 163.927288 
L 110.038513 163.927288 
L 110.128181 164.130109 
L 110.307517 163.825877 
L 110.397185 164.028698 
L 110.486853 163.724466 
L 110.576521 163.927288 
L 110.666189 163.825877 
L 110.755857 164.332931 
L 110.935193 163.927288 
L 111.024861 164.028698 
L 111.204198 164.434342 
L 111.293866 163.825877 
L 111.473202 164.130109 
L 111.652538 163.825877 
L 111.921542 164.130109 
L 112.190546 163.724466 
L 112.638887 164.535752 
L 112.728555 164.637163 
L 112.818223 164.941396 
L 113.087227 164.738574 
L 113.266563 164.839985 
L 113.356231 164.535752 
L 113.535567 164.738574 
L 113.714903 164.941396 
L 113.804571 164.839985 
L 113.983908 165.042806 
L 114.252912 165.347039 
L 114.34258 165.245628 
L 114.521916 165.549861 
L 114.611584 165.245628 
L 114.970256 165.549861 
L 115.059924 165.549861 
L 115.149592 165.347039 
L 115.328929 165.752682 
L 115.508265 165.651271 
L 116.046273 166.158326 
L 116.494613 165.752682 
L 116.584281 165.854093 
L 116.763618 165.549861 
L 116.853286 165.854093 
L 116.942954 165.752682 
L 117.12229 166.158326 
L 117.211958 166.056915 
L 117.391294 166.158326 
L 117.480962 166.158326 
L 117.57063 165.854093 
L 117.660298 166.259736 
L 117.839634 165.854093 
L 117.929302 165.955504 
L 118.108639 165.854093 
L 118.377643 165.955504 
L 118.556979 166.259736 
L 119.632996 166.158326 
L 119.812332 165.955504 
L 120.171004 166.361147 
L 120.260672 166.259736 
L 120.529676 166.563969 
L 120.619344 166.462558 
L 120.709012 166.056915 
L 120.798681 166.158326 
L 120.888349 166.259736 
L 121.067685 166.056915 
L 121.247021 165.854093 
L 121.336689 165.955504 
L 121.426357 165.854093 
L 121.605693 166.462558 
L 121.695361 166.259736 
L 121.964365 166.259736 
L 122.054033 166.462558 
L 122.323038 165.955504 
L 122.592042 165.854093 
L 122.771378 165.651271 
L 122.861046 165.752682 
L 123.13005 166.361147 
L 123.309386 166.259736 
L 123.488722 166.462558 
L 123.757727 166.361147 
L 123.937063 166.259736 
L 124.385403 166.259736 
L 124.475071 166.66538 
L 124.564739 166.462558 
L 124.654407 166.66538 
L 124.744075 166.462558 
L 124.923412 166.868201 
L 125.282084 166.563969 
L 125.999428 166.563969 
L 126.089096 166.76679 
L 126.178764 166.66538 
L 126.537437 166.969612 
L 126.716773 166.563969 
L 126.985777 166.158326 
L 127.434117 166.158326 
L 127.523785 165.955504 
L 127.703122 166.361147 
L 127.972126 166.563969 
L 128.24113 166.563969 
L 128.420466 166.056915 
L 128.510134 166.259736 
L 128.779138 166.056915 
L 128.868806 166.158326 
L 128.958474 165.854093 
L 129.137811 166.259736 
L 129.496483 166.66538 
L 129.675819 166.259736 
L 129.855155 165.752682 
L 129.944823 166.056915 
L 130.034491 165.549861 
L 130.124159 165.651271 
L 130.303495 165.854093 
L 130.393164 165.752682 
L 130.482832 165.44845 
L 130.751836 165.854093 
L 130.841504 165.955504 
L 130.931172 165.854093 
L 131.02084 165.955504 
L 131.200176 165.549861 
L 131.558848 165.245628 
L 131.648516 165.347039 
L 131.827853 165.144217 
L 132.007189 165.44845 
L 132.276193 165.347039 
L 132.365861 165.651271 
L 132.545197 165.44845 
L 132.634865 165.651271 
L 132.814201 165.347039 
L 133.172874 164.941396 
L 133.262542 165.144217 
L 133.35221 165.042806 
L 133.441878 165.144217 
L 133.531546 165.549861 
L 133.710882 165.347039 
L 134.069554 165.245628 
L 134.159222 165.651271 
L 134.338558 164.941396 
L 134.428226 165.245628 
L 134.517895 164.941396 
L 134.607563 165.042806 
L 134.697231 164.941396 
L 134.786899 165.144217 
L 134.966235 164.941396 
L 135.145571 165.144217 
L 135.235239 164.941396 
L 135.504243 165.44845 
L 135.683579 164.941396 
L 135.773247 164.941396 
L 135.862916 165.245628 
L 136.042252 164.637163 
L 136.13192 164.941396 
L 136.221588 164.738574 
L 136.311256 164.839985 
L 136.400924 164.637163 
L 136.490592 164.738574 
L 136.58026 164.637163 
L 136.759596 164.839985 
L 136.849264 164.941396 
L 136.938932 165.347039 
L 137.118268 164.738574 
L 137.207936 164.941396 
L 137.745945 164.434342 
L 137.925281 164.941396 
L 138.194285 164.941396 
L 138.283953 165.245628 
L 138.373621 165.144217 
L 138.463289 165.651271 
L 138.552957 165.549861 
L 138.642626 165.042806 
L 138.732294 165.44845 
L 138.821962 165.347039 
L 138.91163 165.347039 
L 139.001298 164.637163 
L 139.180634 165.245628 
L 139.270302 164.941396 
L 139.35997 165.245628 
L 139.449638 165.042806 
L 139.539306 165.144217 
L 139.628974 165.651271 
L 139.897978 165.144217 
L 140.077315 165.651271 
L 140.256651 164.839985 
L 140.346319 165.347039 
L 140.435987 165.245628 
L 140.525655 164.941396 
L 140.704991 165.347039 
L 140.884327 164.941396 
L 140.973995 165.042806 
L 141.063663 165.44845 
L 141.153331 165.347039 
L 141.242999 165.549861 
L 141.332668 165.44845 
L 141.422336 165.144217 
L 141.601672 165.752682 
L 141.960344 165.347039 
L 142.13968 165.042806 
L 142.229348 164.941396 
L 142.498352 165.44845 
L 142.58802 165.144217 
L 142.677688 165.245628 
L 142.857025 165.651271 
L 143.036361 165.549861 
L 143.126029 165.042806 
L 143.215697 165.144217 
L 143.753705 165.245628 
L 143.843373 165.347039 
L 143.933041 165.651271 
L 144.022709 165.549861 
L 144.112378 165.854093 
L 144.202046 165.752682 
L 144.47105 165.955504 
L 144.560718 165.752682 
L 144.650386 165.955504 
L 144.740054 165.854093 
L 145.009058 165.144217 
L 145.36773 165.854093 
L 145.457399 165.752682 
L 145.636735 165.347039 
L 145.726403 166.056915 
L 145.816071 165.44845 
L 145.905739 165.752682 
L 145.995407 165.651271 
L 146.085075 165.752682 
L 146.264411 165.549861 
L 146.354079 165.854093 
L 146.443747 165.752682 
L 146.533415 165.854093 
L 146.802419 165.651271 
L 146.981756 166.259736 
L 147.071424 166.361147 
L 147.161092 166.259736 
L 147.340428 166.76679 
L 147.519764 166.563969 
L 147.609432 166.66538 
L 147.6991 166.563969 
L 147.788768 166.868201 
L 147.878436 166.66538 
L 147.968104 166.76679 
L 148.14744 167.172433 
L 148.237109 166.259736 
L 148.326777 166.868201 
L 148.416445 166.76679 
L 148.685449 167.578077 
L 148.775117 167.375255 
L 148.954453 167.780898 
L 149.044121 167.375255 
L 149.133789 167.476666 
L 149.223457 167.375255 
L 149.313125 167.98372 
L 149.402793 167.375255 
L 149.492461 168.085131 
L 149.761466 167.578077 
L 149.940802 168.085131 
L 150.03047 167.780898 
L 150.389142 168.389363 
L 150.47881 168.085131 
L 150.568478 168.287953 
L 150.658146 167.98372 
L 150.837482 168.592185 
L 150.927151 168.693596 
L 151.106487 168.592185 
L 151.375491 168.997828 
L 151.644495 169.504882 
L 151.734163 169.504882 
L 152.003167 170.011938 
L 152.182503 170.113346 
L 152.272171 170.316169 
L 152.36184 170.214757 
L 152.630844 170.6204 
L 152.720512 170.518989 
L 152.899848 171.026043 
L 153.437856 172.750029 
L 153.527524 172.750029 
L 154.155201 174.06837 
L 154.424205 175.38671 
L 154.693209 175.995173 
L 154.872545 177.009281 
L 155.051882 177.313513 
L 155.231218 178.327622 
L 155.410554 178.834676 
L 156.934911 189.888452 
L 157.652255 199.218245 
L 158.459268 213.517152 
L 158.997276 227.410438 
L 160.162961 262.599984 
L 160.790638 274.972081 
L 160.969974 275.884775 
L 161.059642 275.479155 
L 161.328646 270.30719 
L 161.687318 258.340713 
L 162.583999 213.517152 
L 163.660016 120.726264 
L 164.108356 108.556977 
L 164.467028 102.269507 
L 165.632713 85.840949 
L 165.812049 85.435297 
L 165.901717 85.536718 
L 166.170722 86.956454 
L 166.977734 98.111657 
L 168.950432 127.926459 
L 170.205785 141.008443 
L 171.730142 150.642471 
L 171.909478 151.250937 
L 172.178482 152.467866 
L 172.806158 155.104546 
L 172.895827 155.104546 
L 173.075163 156.017243 
L 173.164831 156.118655 
L 173.254499 155.915835 
L 173.433835 156.524298 
L 173.971843 158.045461 
L 174.240848 158.755335 
L 174.420184 159.160978 
L 174.509852 158.755335 
L 174.689188 159.465213 
L 174.778856 159.363801 
L 174.958192 159.668033 
L 175.227196 160.37791 
L 175.316864 160.175087 
L 175.675537 161.290607 
L 175.944541 161.189196 
L 176.034209 160.986373 
L 176.213545 161.290607 
L 176.303213 161.493427 
L 176.392881 161.392019 
L 176.482549 161.594839 
L 176.572217 161.392019 
L 176.661885 161.69625 
L 176.751553 161.594839 
L 176.841221 161.290607 
L 177.110226 161.89907 
L 177.199894 161.69625 
L 177.289562 162.000482 
L 177.37923 161.89907 
L 177.468898 162.000482 
L 177.558566 162.406124 
L 177.648234 161.89907 
L 177.737902 162.000482 
L 177.82757 162.000482 
L 177.917238 161.493427 
L 178.096574 162.101893 
L 178.27591 161.797662 
L 178.455247 162.608948 
L 178.544915 162.710359 
L 178.634583 162.608948 
L 178.813919 162.811767 
L 178.903587 162.507536 
L 178.993255 162.913179 
L 179.082923 162.811767 
L 179.351927 163.01459 
L 179.531263 162.710359 
L 179.7106 163.116002 
L 179.889936 163.420234 
L 179.979604 163.318822 
L 180.248608 164.130109 
L 180.338276 163.927288 
L 180.427944 164.028698 
L 180.517612 163.825877 
L 180.696948 164.332931 
L 180.786616 164.028698 
L 180.965952 164.23152 
L 181.055621 163.927288 
L 181.145289 164.130109 
L 181.234957 164.028698 
L 181.414293 164.332931 
L 181.593629 164.028698 
L 181.683297 164.130109 
L 181.952301 164.535752 
L 182.131637 163.825877 
L 182.310973 164.332931 
L 182.400641 164.23152 
L 182.579978 164.535752 
L 182.669646 164.332931 
L 182.848982 164.637163 
L 183.028318 164.839985 
L 183.117986 164.738574 
L 183.207654 164.941396 
L 183.38699 164.637163 
L 183.476658 164.637163 
L 183.655994 164.23152 
L 183.745662 164.23152 
L 183.924999 163.825877 
L 184.642343 164.738574 
L 184.732011 164.637163 
L 184.821679 164.535752 
L 184.911347 164.839985 
L 185.090683 164.637163 
L 185.180352 164.839985 
L 185.359688 164.738574 
L 185.449356 164.23152 
L 185.628692 164.839985 
L 185.808028 164.332931 
L 185.897696 164.434342 
L 185.987364 164.637163 
L 186.077032 164.332931 
L 186.256368 164.535752 
L 186.346036 164.434342 
L 186.525373 163.825877 
L 186.704709 163.724466 
L 186.794377 163.521645 
L 186.884045 163.623055 
L 187.063381 163.521645 
L 187.242717 163.724466 
L 187.332385 163.623055 
L 187.422053 163.724466 
L 187.511721 163.318822 
L 187.780725 163.927288 
L 187.870393 164.028698 
L 187.960062 163.825877 
L 188.04973 164.028698 
L 188.139398 163.724466 
L 188.229066 163.825877 
L 188.318734 164.23152 
L 188.408402 164.028698 
L 188.49807 164.130109 
L 188.587738 164.434342 
L 188.767074 164.130109 
L 189.036078 164.839985 
L 189.215414 164.332931 
L 189.394751 164.941396 
L 189.574087 164.941396 
L 189.663755 164.434342 
L 189.753423 164.839985 
L 189.932759 164.332931 
L 190.201763 164.637163 
L 190.291431 164.434342 
L 190.470767 164.941396 
L 190.560435 164.637163 
L 190.650104 164.839985 
L 190.739772 164.434342 
L 191.008776 165.042806 
L 191.367448 164.434342 
L 191.457116 164.332931 
L 191.636452 164.535752 
L 191.72612 164.332931 
L 192.174461 165.144217 
L 192.264129 164.839985 
L 192.353797 165.144217 
L 192.533133 164.839985 
L 192.712469 164.535752 
L 192.802137 164.839985 
L 192.981473 164.637163 
L 193.071141 164.637163 
L 193.160809 165.042806 
L 193.250477 164.839985 
L 193.429814 165.042806 
L 193.519482 164.839985 
L 193.788486 165.042806 
L 193.878154 164.941396 
L 193.967822 165.042806 
L 194.147158 164.738574 
L 194.236826 164.941396 
L 194.416162 164.637163 
L 194.595498 164.839985 
L 194.774835 165.144217 
L 195.133507 165.854093 
L 195.402511 165.549861 
L 195.492179 165.752682 
L 195.581847 165.245628 
L 195.761183 165.549861 
L 195.940519 165.44845 
L 196.119856 165.549861 
L 196.299192 166.056915 
L 196.38886 165.854093 
L 196.478528 166.259736 
L 196.657864 166.056915 
L 196.8372 166.361147 
L 197.016536 165.955504 
L 197.375208 166.462558 
L 197.464876 166.361147 
L 197.733881 166.361147 
L 197.913217 166.76679 
L 198.002885 166.563969 
L 198.092553 166.76679 
L 198.271889 166.462558 
L 198.809897 166.361147 
L 198.989234 166.259736 
L 199.078902 166.259736 
L 199.347906 166.66538 
L 199.527242 166.868201 
L 199.706578 166.66538 
L 199.796246 166.76679 
L 200.06525 166.361147 
L 200.244587 166.462558 
L 200.334255 166.361147 
L 200.423923 166.563969 
L 200.513591 166.361147 
L 201.141267 166.969612 
L 201.320603 166.66538 
L 201.410271 166.868201 
L 201.499939 166.76679 
L 201.589608 166.868201 
L 201.768944 166.563969 
L 202.037948 166.563969 
L 202.127616 166.868201 
L 202.217284 166.76679 
L 202.39662 166.969612 
L 202.575956 166.868201 
L 202.755292 166.969612 
L 202.84496 166.76679 
L 202.934628 166.868201 
L 203.113965 166.563969 
L 203.203633 166.76679 
L 203.472637 166.361147 
L 203.741641 166.462558 
L 203.920977 166.969612 
L 204.010645 166.868201 
L 204.100313 167.071023 
L 204.369318 166.868201 
L 204.458986 166.868201 
L 204.548654 166.563969 
L 204.72799 166.66538 
L 204.817658 166.361147 
L 204.907326 166.462558 
L 204.996994 166.259736 
L 205.17633 166.563969 
L 205.355666 166.563969 
L 205.445334 167.071023 
L 205.62467 166.868201 
L 205.804007 166.969612 
L 205.893675 166.868201 
L 205.983343 166.969612 
L 206.162679 166.76679 
L 206.521351 166.76679 
L 206.700687 167.273844 
L 206.790355 167.172433 
L 206.969691 167.071023 
L 207.238696 167.375255 
L 207.597368 167.071023 
L 207.866372 167.071023 
L 207.95604 166.868201 
L 208.135376 167.273844 
L 208.225044 167.375255 
L 208.314712 167.172433 
L 208.40438 167.273844 
L 208.494049 167.172433 
L 208.673385 167.273844 
L 208.763053 167.172433 
L 208.852721 167.273844 
L 209.032057 167.071023 
L 209.211393 166.868201 
L 209.301061 166.969612 
L 209.480397 166.868201 
L 209.570065 166.868201 
L 209.659733 167.375255 
L 209.83907 166.969612 
L 210.377078 167.476666 
L 210.825418 166.563969 
L 211.363427 167.172433 
L 211.453095 167.071023 
L 211.632431 167.273844 
L 211.722099 167.172433 
L 211.901435 167.476666 
L 212.080771 167.172433 
L 212.170439 166.969612 
L 212.260107 166.361147 
L 212.349775 166.868201 
L 212.529111 166.259736 
L 212.708448 166.76679 
L 212.798116 166.563969 
L 212.977452 166.868201 
L 213.156788 166.563969 
L 213.246456 167.273844 
L 213.336124 166.66538 
L 213.425792 166.76679 
L 213.51546 166.76679 
L 213.605128 166.158326 
L 213.694796 166.259736 
L 213.784464 166.361147 
L 213.874132 167.071023 
L 214.143137 166.158326 
L 214.232805 166.259736 
L 214.412141 166.563969 
L 214.501809 166.76679 
L 214.591477 166.66538 
L 214.770813 166.969612 
L 215.039817 166.158326 
L 215.219153 167.071023 
L 215.308822 165.854093 
L 215.39849 165.955504 
L 215.577826 166.361147 
L 215.667494 166.259736 
L 215.757162 166.76679 
L 215.84683 166.563969 
L 215.936498 166.76679 
L 216.026166 166.462558 
L 216.205502 166.76679 
L 216.29517 166.66538 
L 216.384838 166.969612 
L 216.474506 165.854093 
L 216.653843 166.868201 
L 216.833179 166.056915 
L 217.102183 166.76679 
L 217.191851 166.969612 
L 217.281519 166.563969 
L 217.460855 166.868201 
L 217.640191 166.66538 
L 217.729859 166.259736 
L 217.819527 166.969612 
L 217.998863 166.158326 
L 218.088532 166.563969 
L 218.447204 165.955504 
L 218.62654 166.361147 
L 218.716208 166.056915 
L 218.895544 166.361147 
L 219.07488 166.056915 
L 219.254216 166.76679 
L 219.343884 166.563969 
L 219.433553 165.752682 
L 219.523221 166.361147 
L 219.612889 166.259736 
L 219.702557 165.549861 
L 219.792225 165.651271 
L 219.881893 166.969612 
L 219.971561 165.854093 
L 220.240565 166.66538 
L 220.330233 166.563969 
L 220.419901 166.66538 
L 220.509569 167.071023 
L 220.599237 166.76679 
L 220.868242 167.071023 
L 220.95791 166.969612 
L 221.047578 166.563969 
L 221.137246 166.868201 
L 221.316582 166.462558 
L 221.40625 166.462558 
L 221.495918 166.868201 
L 221.585586 166.462558 
L 221.944258 167.375255 
L 222.033926 167.273844 
L 222.123594 166.868201 
L 222.213263 167.071023 
L 222.302931 166.969612 
L 222.392599 167.882309 
L 222.571935 166.76679 
L 222.661603 166.969612 
L 222.751271 167.071023 
L 222.840939 166.563969 
L 222.930607 167.172433 
L 223.020275 166.868201 
L 223.199611 167.071023 
L 223.378947 166.76679 
L 223.468615 167.172433 
L 223.647952 166.76679 
L 223.73762 167.273844 
L 223.827288 167.172433 
L 223.916956 166.969612 
L 224.006624 167.679488 
L 224.275628 166.66538 
L 224.454964 166.969612 
L 224.544632 167.578077 
L 224.6343 167.273844 
L 224.813636 166.563969 
L 224.903305 167.273844 
L 224.992973 167.172433 
L 225.082641 167.071023 
L 225.172309 167.172433 
L 225.620649 166.361147 
L 225.799985 167.273844 
L 225.979321 166.868201 
L 226.248326 167.476666 
L 226.337994 167.172433 
L 226.427662 167.476666 
L 226.696666 167.071023 
L 226.786334 167.273844 
L 226.876002 167.780898 
L 227.055338 167.071023 
L 227.145006 167.273844 
L 227.41401 166.66538 
L 227.503678 165.44845 
L 227.683015 167.172433 
L 227.862351 166.969612 
L 228.131355 167.476666 
L 228.310691 166.969612 
L 228.400359 167.172433 
L 228.490027 167.071023 
L 228.579695 167.172433 
L 228.669363 166.868201 
L 228.759031 167.071023 
L 228.848699 167.679488 
L 228.938367 167.375255 
L 229.028036 167.476666 
L 229.117704 168.085131 
L 229.207372 167.882309 
L 229.476376 168.896417 
L 229.566044 168.490774 
L 229.655712 168.896417 
L 230.014384 167.882309 
L 230.104052 168.389363 
L 230.19372 168.287953 
L 230.283388 168.490774 
L 230.462725 167.98372 
L 230.552393 168.490774 
L 230.642061 168.085131 
L 230.731729 169.099239 
L 230.911065 168.592185 
L 231.090401 169.30206 
L 231.269737 168.896417 
L 231.359405 168.997828 
L 231.449073 169.403471 
L 231.718078 168.592185 
L 231.807746 169.099239 
L 231.897414 168.592185 
L 231.987082 168.896417 
L 232.07675 168.795007 
L 232.256086 169.30206 
L 232.435422 169.504882 
L 232.614758 169.403471 
L 232.794094 169.504882 
L 232.883762 169.403471 
L 232.97343 169.606293 
L 233.152767 169.504882 
L 233.421771 169.910526 
L 233.511439 169.910526 
L 233.780443 170.721812 
L 233.870111 170.721812 
L 234.049447 171.533098 
L 234.228783 171.431686 
L 234.587456 171.431686 
L 234.766792 171.837332 
L 234.946128 171.938741 
L 235.3048 173.054261 
L 235.573804 173.764135 
L 235.663472 173.764135 
L 235.842809 174.06837 
L 236.022145 174.27119 
L 236.201481 174.676832 
L 236.291149 174.778244 
L 236.649821 176.197996 
L 237.456834 179.54455 
L 237.546502 179.54455 
L 237.725838 180.355839 
L 237.725838 180.355839 
" clip-path="url(#p4428327783)" style="fill: none; stroke: #333333; stroke-width: 0.8; stroke-linecap: square"/>
   </g>
   <g id="line2d_16">
    <path d="M 237.725838 157.639818 
L 237.994842 158.451104 
L 238.08451 158.451104 
L 238.174178 158.958158 
L 238.263846 158.856747 
L 238.353514 158.958158 
L 238.443182 159.363801 
L 238.53285 159.26239 
L 238.891523 159.566624 
L 238.981191 159.566624 
L 239.160527 159.870856 
L 239.877871 161.392019 
L 240.057208 161.189196 
L 240.146876 161.290607 
L 240.236544 161.594839 
L 240.41588 161.493427 
L 240.774552 162.000482 
L 240.86422 162.507536 
L 240.953888 162.203305 
L 241.133224 162.608948 
L 241.222892 162.608948 
L 241.312561 162.913179 
L 241.491897 162.811767 
L 241.581565 163.01459 
L 241.671233 162.608948 
L 241.850569 163.01459 
L 241.940237 162.913179 
L 242.119573 163.01459 
L 242.209241 163.01459 
L 242.388577 163.521645 
L 242.74725 163.623055 
L 242.836918 163.825877 
L 243.105922 163.420234 
L 243.19559 163.724466 
L 243.285258 163.521645 
L 243.464594 163.825877 
L 243.64393 163.623055 
L 243.733598 163.927288 
L 243.823266 163.825877 
L 244.002602 164.130109 
L 244.092271 164.130109 
L 244.181939 164.332931 
L 244.271607 164.130109 
L 244.361275 164.332931 
L 244.719947 164.028698 
L 244.809615 164.130109 
L 245.078619 163.927288 
L 245.616628 164.941396 
L 245.706296 164.738574 
L 245.885632 165.042806 
L 246.064968 164.738574 
L 246.154636 164.941396 
L 246.333972 164.637163 
L 246.42364 164.738574 
L 246.602976 164.637163 
L 246.692644 165.042806 
L 246.782313 164.941396 
L 246.871981 165.042806 
L 247.051317 165.347039 
L 247.140985 165.549861 
L 247.320321 165.347039 
L 247.409989 165.44845 
L 247.858329 164.941396 
L 247.947997 165.144217 
L 248.037665 164.941396 
L 248.217002 165.347039 
L 248.30667 164.941396 
L 248.486006 165.44845 
L 248.75501 165.549861 
L 248.934346 165.854093 
L 249.113682 165.549861 
L 249.20335 165.752682 
L 249.293018 165.549861 
L 249.382686 165.651271 
L 249.562023 165.549861 
L 249.741359 165.752682 
L 249.831027 165.854093 
L 249.920695 165.752682 
L 250.010363 165.854093 
L 250.100031 166.259736 
L 250.189699 166.158326 
L 250.279367 166.158326 
L 250.458703 165.955504 
L 250.548371 166.056915 
L 250.727707 165.854093 
L 250.817375 165.955504 
L 251.08638 165.549861 
L 251.176048 165.955504 
L 251.265716 165.854093 
L 251.355384 165.752682 
L 251.445052 166.056915 
L 251.53472 165.955504 
L 251.624388 166.158326 
L 251.98306 165.752682 
L 252.072728 165.955504 
L 252.252064 165.549861 
L 252.431401 165.549861 
L 252.610737 165.854093 
L 252.790073 165.955504 
L 252.879741 166.158326 
L 253.059077 166.056915 
L 253.238413 166.158326 
L 253.328081 166.259736 
L 253.417749 165.854093 
L 253.507417 165.955504 
L 253.597085 166.056915 
L 253.686754 165.752682 
L 253.955758 166.056915 
L 254.045426 165.651271 
L 254.135094 165.752682 
L 254.583434 166.259736 
L 254.673102 166.056915 
L 254.76277 166.158326 
L 254.942106 165.854093 
L 255.031775 165.955504 
L 255.121443 165.549861 
L 255.300779 165.752682 
L 255.390447 165.549861 
L 255.480115 165.752682 
L 255.659451 165.347039 
L 255.838787 165.854093 
L 256.376796 165.752682 
L 256.466464 165.549861 
L 256.556132 165.752682 
L 256.735468 165.44845 
L 256.825136 165.347039 
L 257.09414 165.752682 
L 257.183808 165.549861 
L 257.452812 165.955504 
L 257.54248 166.056915 
L 257.632148 165.854093 
L 257.811485 165.955504 
L 258.080489 165.752682 
L 258.259825 165.854093 
L 258.349493 165.549861 
L 258.618497 165.752682 
L 258.708165 165.651271 
L 258.797833 165.854093 
L 258.887501 165.651271 
L 258.977169 165.854093 
L 259.066837 165.752682 
L 259.156506 166.158326 
L 259.246174 166.056915 
L 259.335842 165.955504 
L 259.515178 166.158326 
L 259.784182 165.752682 
L 260.232522 165.854093 
L 260.591195 166.259736 
L 260.680863 166.056915 
L 260.860199 166.361147 
L 261.039535 165.955504 
L 261.129203 166.056915 
L 261.398207 165.651271 
L 261.487875 165.549861 
L 261.577543 165.854093 
L 261.756879 165.651271 
L 261.936216 166.158326 
L 262.115552 165.854093 
L 262.294888 166.056915 
L 262.474224 166.056915 
L 262.563892 165.752682 
L 262.65356 165.854093 
L 262.832896 165.651271 
L 263.012232 165.854093 
L 263.1019 165.752682 
L 263.639909 166.259736 
L 263.729577 166.259736 
L 263.819245 165.955504 
L 263.998581 166.056915 
L 264.177917 165.854093 
L 264.357253 165.955504 
L 264.446921 165.955504 
L 264.536589 165.752682 
L 264.805594 166.158326 
L 264.895262 165.955504 
L 265.074598 166.361147 
L 265.164266 166.259736 
L 265.253934 166.361147 
L 265.43327 166.056915 
L 265.612606 166.259736 
L 265.702274 165.955504 
L 265.791942 166.056915 
L 265.971279 165.854093 
L 266.150615 166.056915 
L 266.240283 166.056915 
L 266.509287 166.462558 
L 266.598955 166.563969 
L 266.957627 166.259736 
L 267.136963 166.361147 
L 267.226631 166.259736 
L 267.316299 165.955504 
L 267.405968 166.259736 
L 267.495636 166.158326 
L 267.854308 166.563969 
L 267.943976 166.462558 
L 268.123312 166.66538 
L 268.21298 166.563969 
L 268.302648 166.66538 
L 268.392316 166.462558 
L 268.481984 166.66538 
L 268.66132 166.259736 
L 268.750989 166.361147 
L 268.840657 166.158326 
L 269.288997 166.563969 
L 269.468333 166.563969 
L 269.647669 166.76679 
L 270.006341 166.66538 
L 270.365014 166.361147 
L 270.54435 166.462558 
L 270.634018 166.66538 
L 270.723686 166.361147 
L 270.903022 166.76679 
L 270.99269 166.66538 
L 271.261694 167.071023 
L 271.351362 166.76679 
L 271.441031 166.868201 
L 271.530699 166.563969 
L 271.620367 166.66538 
L 271.799703 166.361147 
L 271.889371 166.462558 
L 271.979039 166.361147 
L 272.068707 166.66538 
L 272.248043 166.462558 
L 272.427379 166.66538 
L 272.517047 166.76679 
L 272.786051 166.462558 
L 272.87572 166.563969 
L 273.055056 166.259736 
L 273.144724 166.462558 
L 273.234392 166.259736 
L 273.32406 166.462558 
L 273.413728 166.361147 
L 273.503396 166.056915 
L 273.682732 166.361147 
L 273.951736 166.361147 
L 274.041404 166.563969 
L 274.131072 166.462558 
L 274.220741 166.66538 
L 274.669081 166.259736 
L 275.207089 166.361147 
L 275.386425 166.462558 
L 275.476093 166.361147 
L 275.565762 166.76679 
L 275.65543 166.563969 
L 275.745098 166.66538 
L 276.014102 166.361147 
L 276.10377 166.462558 
L 276.193438 166.056915 
L 276.283106 166.259736 
L 276.462442 166.158326 
L 276.55211 166.158326 
L 276.641778 166.361147 
L 276.731446 166.259736 
L 276.821114 166.563969 
L 276.910783 166.361147 
L 277.090119 166.76679 
L 277.359123 166.563969 
L 277.448791 166.66538 
L 277.897131 166.259736 
L 277.986799 166.361147 
L 278.076467 166.259736 
L 278.255803 166.563969 
L 278.614476 166.563969 
L 278.704144 166.969612 
L 278.973148 166.563969 
L 279.242152 166.259736 
L 279.33182 166.361147 
L 279.421488 166.158326 
L 280.049165 166.76679 
L 280.318169 166.66538 
L 280.587173 166.462558 
L 280.856177 166.462558 
L 280.945845 166.259736 
L 281.125182 166.563969 
L 281.304518 166.563969 
L 281.394186 166.76679 
L 281.483854 166.66538 
L 281.573522 166.76679 
L 281.66319 166.66538 
L 281.752858 166.868201 
L 281.842526 166.66538 
L 281.932194 166.76679 
L 282.11153 166.462558 
L 282.380534 166.361147 
L 282.470203 166.259736 
L 282.739207 166.66538 
L 282.918543 166.563969 
L 283.187547 166.76679 
L 283.366883 166.563969 
L 283.725555 166.563969 
L 283.904892 166.259736 
L 284.084228 166.259736 
L 284.263564 166.76679 
L 284.353232 166.563969 
L 284.622236 166.76679 
L 284.89124 166.76679 
L 285.070576 166.563969 
L 285.249913 166.563969 
L 285.339581 166.361147 
L 285.429249 166.462558 
L 285.518917 166.361147 
L 285.608585 166.868201 
L 285.698253 166.66538 
L 285.877589 166.868201 
L 286.056925 166.969612 
L 286.415597 166.969612 
L 286.505266 166.66538 
L 286.594934 166.868201 
L 286.77427 166.66538 
L 287.043274 166.868201 
L 287.22261 166.868201 
L 287.491614 167.375255 
L 287.581282 167.172433 
L 287.67095 167.273844 
L 288.119291 166.868201 
L 288.208959 166.969612 
L 288.298627 166.66538 
L 288.477963 166.868201 
L 288.836635 167.172433 
L 289.284976 167.071023 
L 289.374644 166.868201 
L 289.55398 166.969612 
L 289.733316 166.868201 
L 290.00232 166.563969 
L 290.091988 166.969612 
L 290.181656 166.76679 
L 290.360992 167.071023 
L 290.629997 167.375255 
L 290.899001 167.172433 
L 290.988669 167.172433 
L 291.078337 166.969612 
L 291.168005 167.071023 
L 291.347341 166.969612 
L 291.616345 167.071023 
L 291.795681 167.476666 
L 292.244022 167.375255 
L 292.423358 167.071023 
L 292.602694 166.969612 
L 292.78203 166.868201 
L 292.961366 166.76679 
L 293.051034 166.66538 
L 293.23037 166.969612 
L 293.320038 167.071023 
L 293.409707 166.969612 
L 293.678711 167.375255 
L 293.858047 167.071023 
L 294.127051 166.66538 
L 294.216719 166.76679 
L 294.306387 166.66538 
L 294.485723 166.868201 
L 294.754728 166.969612 
L 294.934064 167.375255 
L 295.1134 167.273844 
L 295.382404 167.273844 
L 295.56174 166.969612 
L 295.651408 166.868201 
L 295.741076 167.172433 
L 295.920412 166.969612 
L 296.189417 166.969612 
L 296.279085 167.172433 
L 296.368753 167.071023 
L 296.637757 167.476666 
L 296.817093 167.071023 
L 296.906761 167.476666 
L 297.086097 166.868201 
L 297.175765 167.172433 
L 297.265433 166.969612 
L 297.534438 167.172433 
L 297.713774 167.273844 
L 297.982778 167.679488 
L 298.610454 167.578077 
L 298.879459 167.375255 
L 299.058795 167.476666 
L 299.327799 167.882309 
L 299.417467 167.780898 
L 299.596803 168.186542 
L 299.865807 167.98372 
L 300.493484 168.085131 
L 300.852156 168.795007 
L 300.941824 168.693596 
L 301.210828 168.997828 
L 301.479832 168.693596 
L 301.569501 168.896417 
L 301.748837 168.592185 
L 302.017841 168.592185 
L 302.197177 168.997828 
L 302.645517 169.504882 
L 302.824853 169.30206 
L 303.362862 169.403471 
L 303.45253 169.504882 
L 303.721534 170.113346 
L 303.811202 170.011938 
L 303.990538 170.41758 
L 304.080206 170.41758 
L 304.349211 170.823223 
L 304.438879 170.6204 
L 304.618215 170.823223 
L 304.707883 170.823223 
L 304.887219 171.127455 
L 304.976887 171.127455 
L 305.245891 171.735921 
L 305.335559 171.837332 
L 305.604563 172.547206 
L 305.694232 172.547206 
L 305.7839 172.750029 
L 305.963236 172.547206 
L 306.321908 172.851438 
L 306.411576 172.851438 
L 306.770248 173.764135 
L 307.308257 174.778244 
L 307.397925 174.676832 
L 307.577261 175.183887 
L 307.666929 175.082475 
L 308.115269 176.299407 
L 308.742946 178.124802 
L 308.832614 178.02339 
L 309.370622 179.341731 
L 309.908631 181.369945 
L 309.998299 181.572768 
L 310.625975 184.51368 
L 310.715643 184.716503 
L 311.253652 187.15036 
L 311.79166 189.077166 
L 312.24 190.80115 
L 313.226349 195.770279 
L 313.316017 195.973102 
L 313.405685 195.871691 
L 313.495353 196.277333 
L 313.585021 195.973102 
L 313.764357 196.277333 
L 313.854025 196.175922 
L 314.033362 196.175922 
L 314.12303 196.480156 
L 314.840374 194.147707 
L 315.199046 191.206792 
L 315.647387 189.381398 
L 316.185395 181.572768 
L 316.454399 175.690941 
L 317.261412 136.039314 
L 317.440748 134.61955 
L 317.530416 134.923781 
L 317.709752 136.749188 
L 318.696101 150.135417 
L 318.875437 150.845294 
L 318.965105 150.946702 
L 319.144441 150.642471 
L 319.413446 149.121308 
L 319.951454 145.673341 
L 320.13079 145.267699 
L 320.220458 145.369107 
L 320.399794 145.064876 
L 320.668798 145.369107 
L 320.758467 145.267699 
L 320.848135 145.369107 
L 321.027471 145.876161 
L 321.117139 145.774753 
L 321.386143 146.586039 
L 321.475811 146.586039 
L 321.655147 147.194502 
L 321.834483 147.600148 
L 322.282824 148.005791 
L 322.372492 147.904379 
L 322.46216 148.107202 
L 322.551828 148.005791 
L 322.641496 148.107202 
L 322.820832 148.411433 
L 322.9105 148.411433 
L 323.269172 149.729774 
L 323.448508 149.831185 
L 323.717513 150.743882 
L 324.255521 151.757991 
L 324.345189 151.8594 
L 324.972866 153.786206 
L 325.331538 154.29326 
L 325.421206 154.496083 
L 325.510874 154.394672 
L 325.779878 155.205957 
L 325.869546 155.205957 
L 326.228219 156.422886 
L 327.124899 157.436995 
L 327.214567 157.335584 
L 327.393903 157.842638 
L 327.483571 157.944049 
L 327.662908 158.552515 
L 327.752576 158.552515 
L 328.111248 159.465213 
L 328.200916 159.363801 
L 328.46992 159.465213 
L 328.559588 159.566624 
L 328.649256 159.363801 
L 328.91826 160.175087 
L 329.276933 160.682141 
L 329.545937 161.290607 
L 329.635605 161.087784 
L 329.725273 161.189196 
L 329.814941 161.087784 
L 330.890958 162.406124 
L 330.980626 162.608948 
L 331.070294 162.406124 
L 331.428966 162.811767 
L 331.608302 162.507536 
L 331.697971 162.507536 
L 331.787639 162.710359 
L 331.877307 162.608948 
L 332.146311 163.116002 
L 332.863655 163.116002 
L 332.953323 162.913179 
L 333.042991 163.01459 
L 333.13266 162.913179 
L 333.939672 163.724466 
L 334.02934 163.724466 
L 334.208676 163.521645 
L 334.298344 163.724466 
L 334.657017 163.420234 
L 334.746685 163.724466 
L 334.836353 163.623055 
L 334.926021 163.927288 
L 335.015689 163.825877 
L 335.195025 164.130109 
L 335.374361 164.028698 
L 335.464029 164.23152 
L 335.553697 164.130109 
L 335.643365 164.332931 
L 335.822702 164.130109 
L 335.91237 164.23152 
L 336.002038 164.130109 
L 336.091706 164.23152 
L 336.271042 164.130109 
L 336.36071 164.332931 
L 336.450378 164.23152 
L 336.540046 164.637163 
L 336.629714 164.535752 
L 336.719382 164.535752 
L 336.988386 164.941396 
L 337.167723 164.637163 
L 337.257391 164.839985 
L 337.347059 164.23152 
L 337.436727 164.332931 
L 337.526395 164.434342 
L 337.616063 164.23152 
L 337.974735 164.738574 
L 338.064403 164.535752 
L 338.243739 164.941396 
L 338.333407 164.839985 
L 338.512743 165.144217 
L 338.69208 165.144217 
L 338.871416 164.839985 
L 339.050752 164.941396 
L 339.14042 164.637163 
L 339.230088 165.042806 
L 339.319756 164.839985 
L 339.409424 164.941396 
L 339.58876 165.245628 
L 339.857764 165.44845 
L 339.947433 165.245628 
L 340.126769 165.347039 
L 340.306105 164.941396 
L 340.485441 165.144217 
L 340.575109 164.839985 
L 340.664777 165.144217 
L 340.844113 164.738574 
L 341.023449 165.245628 
L 341.113117 165.144217 
L 341.202785 165.245628 
L 341.292454 165.144217 
L 341.47179 165.44845 
L 341.651126 165.042806 
L 341.740794 165.144217 
L 341.830462 164.941396 
L 341.92013 165.144217 
L 342.099466 164.839985 
L 342.36847 165.347039 
L 342.458138 165.245628 
L 342.816811 165.549861 
L 342.906479 165.44845 
L 342.996147 165.651271 
L 343.265151 165.144217 
L 343.982495 165.144217 
L 344.072164 165.347039 
L 344.2515 165.144217 
L 344.520504 165.347039 
L 344.789508 164.839985 
L 344.879176 164.941396 
L 344.968844 164.637163 
L 345.058512 164.738574 
L 345.237848 164.535752 
L 345.417185 165.144217 
L 345.506853 164.941396 
L 345.596521 164.839985 
L 345.686189 165.144217 
L 345.955193 164.941396 
L 346.134529 165.144217 
L 346.403533 164.738574 
L 346.493201 164.941396 
L 346.762206 164.738574 
L 346.941542 164.839985 
L 347.03121 165.245628 
L 347.120878 165.144217 
L 347.210546 165.144217 
L 347.300214 164.941396 
L 347.389882 165.042806 
L 347.47955 165.44845 
L 347.658886 165.042806 
L 347.748554 165.042806 
L 347.838222 164.839985 
L 347.92789 165.144217 
L 348.017558 165.042806 
L 348.107226 164.637163 
L 348.286563 164.839985 
L 348.555567 165.245628 
L 348.645235 164.941396 
L 348.734903 165.245628 
L 348.824571 164.941396 
L 348.914239 165.347039 
L 349.003907 165.245628 
L 349.093575 165.144217 
L 349.183243 165.44845 
L 349.362579 164.941396 
L 349.452247 165.042806 
L 349.541916 165.347039 
L 349.631584 165.245628 
L 349.81092 165.347039 
L 349.900588 165.042806 
L 350.079924 165.347039 
L 350.169592 165.347039 
L 350.25926 165.854093 
L 350.438596 165.144217 
L 350.617932 165.44845 
L 350.797268 164.839985 
L 350.886937 165.042806 
L 350.976605 164.941396 
L 351.066273 165.144217 
L 351.245609 164.637163 
L 351.604281 165.44845 
L 351.693949 165.245628 
L 351.783617 166.056915 
L 351.962953 165.042806 
L 352.052621 164.941396 
L 352.142289 165.651271 
L 352.231958 165.347039 
L 352.321626 164.637163 
L 352.411294 164.839985 
L 352.500962 165.955504 
L 352.769966 164.332931 
L 352.949302 165.042806 
L 353.03897 165.347039 
L 353.218306 165.144217 
L 353.307974 165.651271 
L 353.397642 165.44845 
L 353.48731 165.549861 
L 353.845983 165.144217 
L 354.025319 164.434342 
L 354.204655 164.941396 
L 354.294323 165.245628 
L 354.383991 164.738574 
L 354.742663 165.651271 
L 354.832331 165.347039 
L 354.921999 165.854093 
L 355.011668 165.752682 
L 355.101336 165.651271 
L 355.280672 165.144217 
L 355.37034 165.347039 
L 355.549676 164.941396 
L 355.639344 165.042806 
L 355.729012 164.941396 
L 355.908348 165.549861 
L 355.998016 165.347039 
L 356.087684 165.752682 
L 356.177352 164.941396 
L 356.26702 165.245628 
L 356.356689 164.941396 
L 356.446357 166.563969 
L 356.625693 165.955504 
L 356.715361 165.955504 
L 356.894697 165.144217 
L 356.984365 165.144217 
L 357.074033 165.854093 
L 357.163701 164.941396 
L 357.253369 165.955504 
L 357.343037 164.839985 
L 357.522373 166.259736 
L 357.612041 165.752682 
L 357.70171 165.752682 
L 357.881046 166.056915 
L 357.970714 165.44845 
L 358.060382 165.651271 
L 358.15005 166.158326 
L 358.329386 165.347039 
L 358.688058 165.347039 
L 358.867394 165.854093 
L 358.957062 165.955504 
L 359.136399 165.854093 
L 359.226067 166.361147 
L 359.405403 166.056915 
L 359.495071 166.259736 
L 359.674407 166.056915 
L 360.122747 165.651271 
L 360.48142 165.955504 
L 360.840092 166.056915 
L 360.92976 166.259736 
L 361.109096 165.44845 
L 361.288432 165.752682 
L 361.3781 165.549861 
L 361.467768 165.752682 
L 361.647104 165.549861 
L 361.736772 165.44845 
L 361.916109 165.752682 
L 362.812789 165.752682 
L 362.902457 165.44845 
L 363.081793 165.651271 
L 363.171461 165.44845 
L 363.26113 165.752682 
L 363.440466 165.651271 
L 363.70947 166.056915 
L 363.799138 165.955504 
L 363.978474 165.854093 
L 364.068142 165.854093 
L 364.15781 165.651271 
L 364.247478 165.752682 
L 364.426814 165.549861 
L 364.875155 165.44845 
L 364.964823 165.854093 
L 365.054491 165.651271 
L 365.233827 165.854093 
L 365.323495 165.752682 
L 365.413163 165.854093 
L 365.502831 165.752682 
L 365.592499 165.44845 
L 365.682167 165.651271 
L 365.771835 165.549861 
L 365.861503 165.245628 
L 365.951172 165.549861 
L 366.130508 165.347039 
L 366.309844 165.549861 
L 366.578848 165.854093 
L 366.668516 165.752682 
L 366.758184 166.158326 
L 366.847852 165.752682 
L 366.93752 165.854093 
L 367.385861 165.752682 
L 367.475529 165.549861 
L 367.654865 165.651271 
L 367.834201 165.752682 
L 367.923869 165.955504 
L 368.013537 165.854093 
L 368.192873 166.056915 
L 368.282541 165.955504 
L 368.372209 166.056915 
L 368.551545 165.854093 
L 368.641213 165.955504 
L 368.82055 165.854093 
L 368.910218 165.854093 
L 368.999886 165.651271 
L 369.089554 165.752682 
L 369.26889 165.549861 
L 369.71723 166.158326 
L 369.806898 166.056915 
L 369.896566 166.056915 
L 370.165571 165.651271 
L 370.255239 165.854093 
L 370.344907 165.549861 
L 370.524243 165.651271 
L 370.703579 165.347039 
L 370.882915 165.651271 
L 370.972583 165.752682 
L 371.062251 166.056915 
L 371.151919 165.854093 
L 371.241587 166.056915 
L 371.420924 165.854093 
L 371.60026 165.752682 
L 371.689928 165.752682 
L 371.779596 165.549861 
L 371.869264 165.651271 
L 371.958932 165.44845 
L 372.0486 165.549861 
L 372.138268 165.44845 
L 372.586608 165.854093 
L 372.765945 165.752682 
L 372.945281 166.056915 
L 373.214285 165.651271 
L 373.841961 165.549861 
L 374.021297 165.854093 
L 374.200634 165.955504 
L 374.290302 166.056915 
L 374.37997 165.955504 
L 374.559306 166.056915 
L 374.82831 165.549861 
L 375.007646 165.854093 
L 375.097314 165.651271 
L 375.455986 166.158326 
L 375.545655 166.056915 
L 375.724991 166.462558 
L 375.904327 166.056915 
L 375.993995 166.259736 
L 376.173331 166.158326 
L 376.262999 166.158326 
L 376.442335 165.854093 
L 377.070012 166.462558 
L 377.60802 166.462558 
L 377.787356 166.056915 
L 377.877024 165.955504 
L 378.05636 166.158326 
L 378.146028 165.854093 
L 378.235696 166.056915 
L 378.415033 165.955504 
L 378.594369 166.259736 
L 378.773705 166.158326 
L 379.042709 166.361147 
L 379.132377 165.955504 
L 379.222045 166.158326 
L 379.311713 165.854093 
L 379.401381 166.056915 
L 379.491049 165.752682 
L 379.849722 166.361147 
L 380.029058 166.158326 
L 380.208394 166.361147 
L 380.38773 166.462558 
L 380.83607 166.361147 
L 381.105075 166.158326 
L 381.374079 166.158326 
L 381.553415 166.563969 
L 381.643083 166.259736 
L 381.732751 166.66538 
L 381.822419 166.259736 
L 381.912087 166.563969 
L 382.091423 166.259736 
L 382.181091 165.854093 
L 382.270759 166.158326 
L 382.539764 165.854093 
L 382.808768 166.361147 
L 382.898436 166.056915 
L 383.077772 166.158326 
L 383.16744 166.563969 
L 383.346776 166.056915 
L 383.436444 166.361147 
L 383.884785 165.854093 
L 384.153789 166.259736 
L 384.243457 166.462558 
L 384.333125 166.158326 
L 384.512461 166.76679 
L 384.602129 166.462558 
L 384.781465 166.66538 
L 384.871133 166.563969 
L 384.960801 166.66538 
L 385.319474 166.158326 
L 385.49881 166.462558 
L 385.678146 166.259736 
L 385.857482 166.563969 
L 386.036818 166.66538 
L 386.216154 166.868201 
L 386.305822 166.868201 
L 386.485159 166.66538 
L 386.574827 166.969612 
L 386.933499 166.563969 
L 387.023167 166.76679 
L 387.202503 166.563969 
L 387.381839 167.071023 
L 387.561175 167.071023 
L 387.650843 167.375255 
L 387.740511 167.172433 
L 387.83018 167.375255 
L 388.009516 167.172433 
L 388.099184 167.273844 
L 388.27852 166.969612 
L 388.368188 167.172433 
L 388.457856 167.071023 
L 388.547524 167.172433 
L 388.637192 167.071023 
L 388.906196 167.578077 
L 389.085532 167.476666 
L 389.444205 167.780898 
L 389.533873 167.578077 
L 389.623541 167.679488 
L 389.802877 167.578077 
L 389.982213 167.679488 
L 390.161549 167.98372 
L 390.340885 167.882309 
L 390.520221 168.186542 
L 390.699558 168.389363 
L 390.789226 168.085131 
L 390.968562 168.287953 
L 391.05823 168.389363 
L 391.147898 168.085131 
L 391.237566 168.490774 
L 391.327234 168.287953 
L 391.416902 168.389363 
L 391.596238 168.287953 
L 392.134247 168.997828 
L 392.313583 169.30206 
L 392.403251 168.997828 
L 392.582587 169.20065 
L 392.672255 168.997828 
L 392.851591 169.403471 
L 392.941259 169.403471 
L 393.030927 169.20065 
L 393.658604 170.41758 
L 393.748272 170.316169 
L 394.017276 170.721812 
L 394.196612 170.721812 
L 394.28628 170.924635 
L 394.465616 170.721812 
L 394.734621 171.431686 
L 394.913957 171.735921 
L 395.272629 172.750029 
L 395.362297 172.648618 
L 395.451965 172.851438 
L 395.541633 172.648618 
L 395.810637 173.054261 
L 395.900305 172.851438 
L 396.976322 175.285298 
L 397.06599 175.082475 
L 397.155658 175.183887 
L 397.334994 175.893764 
L 397.424663 175.792353 
L 397.603999 176.197996 
L 397.873003 177.313513 
L 398.052339 177.719156 
L 398.321343 178.936088 
L 398.411011 178.936088 
L 399.038688 180.558659 
L 399.39736 182.079822 
L 400.025036 184.716503 
L 400.114704 184.716503 
L 401.459725 191.308204 
L 401.639062 192.220901 
L 401.908066 193.43783 
L 402.356406 195.263225 
L 402.446074 195.263225 
L 402.62541 195.668868 
L 402.715078 195.567459 
L 402.804746 195.770279 
L 402.984083 195.263225 
L 403.073751 195.364636 
L 403.253087 195.060405 
L 403.432423 194.958993 
L 403.611759 194.654762 
L 403.791095 194.046296 
L 404.239435 192.220901 
L 404.598108 189.888452 
L 404.687776 189.685632 
L 404.95678 187.15036 
L 405.584456 177.414924 
L 405.853461 163.318822 
L 406.301801 139.28446 
L 406.570805 134.720971 
L 406.660473 134.51816 
L 406.839809 136.140722 
L 407.826158 149.222719 
L 408.095162 150.642471 
L 408.274498 150.33824 
L 408.633171 148.918488 
L 409.171179 145.470518 
L 409.350515 144.862056 
L 409.440183 144.760644 
L 409.529851 144.45641 
L 409.709187 144.659233 
L 409.978192 145.064876 
L 410.247196 145.673341 
L 410.336864 145.57193 
L 410.5162 145.977573 
L 410.695536 146.180396 
L 410.96454 146.788859 
L 411.054208 146.68745 
L 411.412881 147.600148 
L 411.592217 147.904379 
L 411.771553 148.310022 
L 411.950889 148.107202 
L 412.040557 148.20861 
L 412.130225 148.512845 
L 412.219893 148.411433 
L 412.399229 148.614253 
L 412.668234 149.526951 
L 412.757902 149.628362 
L 413.116574 150.743882 
L 413.475246 151.757991 
L 413.654582 151.960811 
L 413.923587 152.569277 
L 414.371927 153.684794 
L 414.640931 154.394672 
L 414.909935 155.003138 
L 414.999603 154.800315 
L 415.358276 155.510189 
L 415.447944 155.510189 
L 415.896284 156.727121 
L 416.344624 157.639818 
L 416.52396 157.639818 
L 416.703297 157.842638 
L 416.972301 158.045461 
L 416.972301 158.045461 
" clip-path="url(#p4428327783)" style="fill: none; stroke: #d94452; stroke-width: 0.8; stroke-linecap: square"/>
   </g>
   <g id="text_17">
    <g id="patch_7">
     <path d="M 89.402606 298.834187 
L 206.802606 298.834187 
Q 209.802606 298.834187 209.802606 295.834187 
L 209.802606 285.234187 
Q 209.802606 282.234187 206.802606 282.234187 
L 89.402606 282.234187 
Q 86.402606 282.234187 86.402606 285.234187 
L 86.402606 295.834187 
Q 86.402606 298.834187 89.402606 298.834187 
z
" style="fill: #ffffff; opacity: 0.85; stroke: #333333; stroke-linejoin: miter"/>
    </g>
    <!-- I$_{p-p}$ = 1.51E-03 mA/m² -->
    <g style="fill: #333333" transform="translate(89.402606 292.734188) scale(0.1 -0.1)">
     <defs>
      <path id="DejaVuSans-49" d="M 628 4666 
L 1259 4666 
L 1259 0 
L 628 0 
L 628 4666 
z
" transform="scale(0.015625)"/>
      <path id="DejaVuSans-Oblique-70" d="M 3175 2156 
Q 3175 2616 2975 2859 
Q 2775 3103 2400 3103 
Q 2144 3103 1911 2972 
Q 1678 2841 1497 2591 
Q 1319 2344 1212 1994 
Q 1106 1644 1106 1300 
Q 1106 863 1306 627 
Q 1506 391 1875 391 
Q 2147 391 2380 519 
Q 2613 647 2778 891 
Q 2956 1147 3065 1494 
Q 3175 1841 3175 2156 
z
M 1394 2969 
Q 1625 3272 1939 3428 
Q 2253 3584 2638 3584 
Q 3175 3584 3472 3232 
Q 3769 2881 3769 2247 
Q 3769 1728 3584 1258 
Q 3400 788 3053 416 
Q 2822 169 2531 39 
Q 2241 -91 1919 -91 
Q 1547 -91 1294 64 
Q 1041 219 916 525 
L 556 -1331 
L -19 -1331 
L 922 3500 
L 1497 3500 
L 1394 2969 
z
" transform="scale(0.015625)"/>
      <path id="DejaVuSans-20" transform="scale(0.015625)"/>
      <path id="DejaVuSans-3d" d="M 678 2906 
L 4684 2906 
L 4684 2381 
L 678 2381 
L 678 2906 
z
M 678 1631 
L 4684 1631 
L 4684 1100 
L 678 1100 
L 678 1631 
z
" transform="scale(0.015625)"/>
      <path id="DejaVuSans-45" d="M 628 4666 
L 3578 4666 
L 3578 4134 
L 1259 4134 
L 1259 2753 
L 3481 2753 
L 3481 2222 
L 1259 2222 
L 1259 531 
L 3634 531 
L 3634 0 
L 628 0 
L 628 4666 
z
" transform="scale(0.015625)"/>
      <path id="DejaVuSans-2d" d="M 313 2009 
L 1997 2009 
L 1997 1497 
L 313 1497 
L 313 2009 
z
" transform="scale(0.015625)"/>
      <path id="DejaVuSans-6d" d="M 3328 2828 
Q 3544 3216 3844 3400 
Q 4144 3584 4550 3584 
Q 5097 3584 5394 3201 
Q 5691 2819 5691 2113 
L 5691 0 
L 5113 0 
L 5113 2094 
Q 5113 2597 4934 2840 
Q 4756 3084 4391 3084 
Q 3944 3084 3684 2787 
Q 3425 2491 3425 1978 
L 3425 0 
L 2847 0 
L 2847 2094 
Q 2847 2600 2669 2842 
Q 2491 3084 2119 3084 
Q 1678 3084 1418 2786 
Q 1159 2488 1159 1978 
L 1159 0 
L 581 0 
L 581 3500 
L 1159 3500 
L 1159 2956 
Q 1356 3278 1631 3431 
Q 1906 3584 2284 3584 
Q 2666 3584 2933 3390 
Q 3200 3197 3328 2828 
z
" transform="scale(0.015625)"/>
      <path id="DejaVuSans-41" d="M 2188 4044 
L 1331 1722 
L 3047 1722 
L 2188 4044 
z
M 1831 4666 
L 2547 4666 
L 4325 0 
L 3669 0 
L 3244 1197 
L 1141 1197 
L 716 0 
L 50 0 
L 1831 4666 
z
" transform="scale(0.015625)"/>
      <path id="DejaVuSans-2f" d="M 1625 4666 
L 2156 4666 
L 531 -594 
L 0 -594 
L 1625 4666 
z
" transform="scale(0.015625)"/>
      <path id="DejaVuSans-b2" d="M 838 2444 
L 2163 2444 
L 2163 2088 
L 294 2088 
L 294 2431 
Q 400 2528 597 2703 
Q 1672 3656 1672 3950 
Q 1672 4156 1509 4282 
Q 1347 4409 1081 4409 
Q 919 4409 728 4354 
Q 538 4300 313 4191 
L 313 4575 
Q 553 4663 761 4706 
Q 969 4750 1147 4750 
Q 1600 4750 1872 4544 
Q 2144 4338 2144 4000 
Q 2144 3566 1109 2678 
Q 934 2528 838 2444 
z
" transform="scale(0.015625)"/>
     </defs>
     <use xlink:href="#DejaVuSans-49" transform="translate(0 0.78125)"/>
     <use xlink:href="#DejaVuSans-Oblique-70" transform="translate(30.449219 -15.625) scale(0.7)"/>
     <use xlink:href="#DejaVuSans-2212" transform="translate(88.520508 -15.625) scale(0.7)"/>
     <use xlink:href="#DejaVuSans-Oblique-70" transform="translate(160.810547 -15.625) scale(0.7)"/>
     <use xlink:href="#DejaVuSans-20" transform="translate(207.978516 0.78125)"/>
     <use xlink:href="#DejaVuSans-3d" transform="translate(239.765625 0.78125)"/>
     <use xlink:href="#DejaVuSans-20" transform="translate(323.554688 0.78125)"/>
     <use xlink:href="#DejaVuSans-31" transform="translate(355.341797 0.78125)"/>
     <use xlink:href="#DejaVuSans-2e" transform="translate(418.964844 0.78125)"/>
     <use xlink:href="#DejaVuSans-35" transform="translate(450.751953 0.78125)"/>
     <use xlink:href="#DejaVuSans-31" transform="translate(514.375 0.78125)"/>
     <use xlink:href="#DejaVuSans-45" transform="translate(577.998047 0.78125)"/>
     <use xlink:href="#DejaVuSans-2d" transform="translate(641.181641 0.78125)"/>
     <use xlink:href="#DejaVuSans-30" transform="translate(677.265625 0.78125)"/>
     <use xlink:href="#DejaVuSans-33" transform="translate(740.888672 0.78125)"/>
     <use xlink:href="#DejaVuSans-20" transform="translate(804.511719 0.78125)"/>
     <use xlink:href="#DejaVuSans-6d" transform="translate(836.298828 0.78125)"/>
     <use xlink:href="#DejaVuSans-41" transform="translate(933.710938 0.78125)"/>
     <use xlink:href="#DejaVuSans-2f" transform="translate(1002.119141 0.78125)"/>
     <use xlink:href="#DejaVuSans-6d" transform="translate(1035.810547 0.78125)"/>
     <use xlink:href="#DejaVuSans-b2" transform="translate(1133.222656 0.78125)"/>
    </g>
   </g>
   <g id="text_18">
    <g id="patch_8">
     <path d="M 268.749069 298.834187 
L 385.949069 298.834187 
Q 388.949069 298.834187 388.949069 295.834187 
L 388.949069 285.234187 
Q 388.949069 282.234187 385.949069 282.234187 
L 268.749069 282.234187 
Q 265.749069 282.234187 265.749069 285.234187 
L 265.749069 295.834187 
Q 265.749069 298.834187 268.749069 298.834187 
z
" style="fill: #ffffff; opacity: 0.85; stroke: #d94452; stroke-linejoin: miter"/>
    </g>
    <!-- I$_{p-p}$ = 4.92E-04 mA/m² -->
    <g style="fill: #d94452" transform="translate(268.749069 292.734188) scale(0.1 -0.1)">
     <defs>
      <path id="DejaVuSans-34" d="M 2419 4116 
L 825 1625 
L 2419 1625 
L 2419 4116 
z
M 2253 4666 
L 3047 4666 
L 3047 1625 
L 3713 1625 
L 3713 1100 
L 3047 1100 
L 3047 0 
L 2419 0 
L 2419 1100 
L 313 1100 
L 313 1709 
L 2253 4666 
z
" transform="scale(0.015625)"/>
      <path id="DejaVuSans-39" d="M 703 97 
L 703 672 
Q 941 559 1184 500 
Q 1428 441 1663 441 
Q 2288 441 2617 861 
Q 2947 1281 2994 2138 
Q 2813 1869 2534 1725 
Q 2256 1581 1919 1581 
Q 1219 1581 811 2004 
Q 403 2428 403 3163 
Q 403 3881 828 4315 
Q 1253 4750 1959 4750 
Q 2769 4750 3195 4129 
Q 3622 3509 3622 2328 
Q 3622 1225 3098 567 
Q 2575 -91 1691 -91 
Q 1453 -91 1209 -44 
Q 966 3 703 97 
z
M 1959 2075 
Q 2384 2075 2632 2365 
Q 2881 2656 2881 3163 
Q 2881 3666 2632 3958 
Q 2384 4250 1959 4250 
Q 1534 4250 1286 3958 
Q 1038 3666 1038 3163 
Q 1038 2656 1286 2365 
Q 1534 2075 1959 2075 
z
" transform="scale(0.015625)"/>
     </defs>
     <use xlink:href="#DejaVuSans-49" transform="translate(0 0.78125)"/>
     <use xlink:href="#DejaVuSans-Oblique-70" transform="translate(30.449219 -15.625) scale(0.7)"/>
     <use xlink:href="#DejaVuSans-2212" transform="translate(88.520508 -15.625) scale(0.7)"/>
     <use xlink:href="#DejaVuSans-Oblique-70" transform="translate(160.810547 -15.625) scale(0.7)"/>
     <use xlink:href="#DejaVuSans-20" transform="translate(207.978516 0.78125)"/>
     <use xlink:href="#DejaVuSans-3d" transform="translate(239.765625 0.78125)"/>
     <use xlink:href="#DejaVuSans-20" transform="translate(323.554688 0.78125)"/>
     <use xlink:href="#DejaVuSans-34" transform="translate(355.341797 0.78125)"/>
     <use xlink:href="#DejaVuSans-2e" transform="translate(418.964844 0.78125)"/>
     <use xlink:href="#DejaVuSans-39" transform="translate(450.751953 0.78125)"/>
     <use xlink:href="#DejaVuSans-32" transform="translate(512.625 0.78125)"/>
     <use xlink:href="#DejaVuSans-45" transform="translate(576.248047 0.78125)"/>
     <use xlink:href="#DejaVuSans-2d" transform="translate(639.431641 0.78125)"/>
     <use xlink:href="#DejaVuSans-30" transform="translate(675.515625 0.78125)"/>
     <use xlink:href="#DejaVuSans-34" transform="translate(739.138672 0.78125)"/>
     <use xlink:href="#DejaVuSans-20" transform="translate(802.761719 0.78125)"/>
     <use xlink:href="#DejaVuSans-6d" transform="translate(834.548828 0.78125)"/>
     <use xlink:href="#DejaVuSans-41" transform="translate(931.960938 0.78125)"/>
     <use xlink:href="#DejaVuSans-2f" transform="translate(1000.369141 0.78125)"/>
     <use xlink:href="#DejaVuSans-6d" transform="translate(1034.060547 0.78125)"/>
     <use xlink:href="#DejaVuSans-b2" transform="translate(1131.472656 0.78125)"/>
    </g>
   </g>
   <g id="text_19">
    <!-- Short-Circuit Current | f = 1 Hz -->
    <g transform="translate(151.014119 14.842187) scale(0.1 -0.1)">
     <defs>
      <path id="DejaVuSans-Bold-53" d="M 3834 4519 
L 3834 3531 
Q 3450 3703 3084 3790 
Q 2719 3878 2394 3878 
Q 1963 3878 1756 3759 
Q 1550 3641 1550 3391 
Q 1550 3203 1689 3098 
Q 1828 2994 2194 2919 
L 2706 2816 
Q 3484 2659 3812 2340 
Q 4141 2022 4141 1434 
Q 4141 663 3683 286 
Q 3225 -91 2284 -91 
Q 1841 -91 1394 -6 
Q 947 78 500 244 
L 500 1259 
Q 947 1022 1364 901 
Q 1781 781 2169 781 
Q 2563 781 2772 912 
Q 2981 1044 2981 1288 
Q 2981 1506 2839 1625 
Q 2697 1744 2272 1838 
L 1806 1941 
Q 1106 2091 782 2419 
Q 459 2747 459 3303 
Q 459 4000 909 4375 
Q 1359 4750 2203 4750 
Q 2588 4750 2994 4692 
Q 3400 4634 3834 4519 
z
" transform="scale(0.015625)"/>
      <path id="DejaVuSans-Bold-68" d="M 4056 2131 
L 4056 0 
L 2931 0 
L 2931 347 
L 2931 1625 
Q 2931 2084 2911 2256 
Q 2891 2428 2841 2509 
Q 2775 2619 2662 2680 
Q 2550 2741 2406 2741 
Q 2056 2741 1856 2470 
Q 1656 2200 1656 1722 
L 1656 0 
L 538 0 
L 538 4863 
L 1656 4863 
L 1656 2988 
Q 1909 3294 2193 3439 
Q 2478 3584 2822 3584 
Q 3428 3584 3742 3212 
Q 4056 2841 4056 2131 
z
" transform="scale(0.015625)"/>
      <path id="DejaVuSans-Bold-6f" d="M 2203 2784 
Q 1831 2784 1636 2517 
Q 1441 2250 1441 1747 
Q 1441 1244 1636 976 
Q 1831 709 2203 709 
Q 2569 709 2762 976 
Q 2956 1244 2956 1747 
Q 2956 2250 2762 2517 
Q 2569 2784 2203 2784 
z
M 2203 3584 
Q 3106 3584 3614 3096 
Q 4122 2609 4122 1747 
Q 4122 884 3614 396 
Q 3106 -91 2203 -91 
Q 1297 -91 786 396 
Q 275 884 275 1747 
Q 275 2609 786 3096 
Q 1297 3584 2203 3584 
z
" transform="scale(0.015625)"/>
      <path id="DejaVuSans-Bold-72" d="M 3138 2547 
Q 2991 2616 2845 2648 
Q 2700 2681 2553 2681 
Q 2122 2681 1889 2404 
Q 1656 2128 1656 1613 
L 1656 0 
L 538 0 
L 538 3500 
L 1656 3500 
L 1656 2925 
Q 1872 3269 2151 3426 
Q 2431 3584 2822 3584 
Q 2878 3584 2943 3579 
Q 3009 3575 3134 3559 
L 3138 2547 
z
" transform="scale(0.015625)"/>
      <path id="DejaVuSans-Bold-74" d="M 1759 4494 
L 1759 3500 
L 2913 3500 
L 2913 2700 
L 1759 2700 
L 1759 1216 
Q 1759 972 1856 886 
Q 1953 800 2241 800 
L 2816 800 
L 2816 0 
L 1856 0 
Q 1194 0 917 276 
Q 641 553 641 1216 
L 641 2700 
L 84 2700 
L 84 3500 
L 641 3500 
L 641 4494 
L 1759 4494 
z
" transform="scale(0.015625)"/>
      <path id="DejaVuSans-Bold-2d" d="M 347 2297 
L 2309 2297 
L 2309 1388 
L 347 1388 
L 347 2297 
z
" transform="scale(0.015625)"/>
      <path id="DejaVuSans-Bold-43" d="M 4288 256 
Q 3956 84 3597 -3 
Q 3238 -91 2847 -91 
Q 1681 -91 1000 561 
Q 319 1213 319 2328 
Q 319 3447 1000 4098 
Q 1681 4750 2847 4750 
Q 3238 4750 3597 4662 
Q 3956 4575 4288 4403 
L 4288 3438 
Q 3953 3666 3628 3772 
Q 3303 3878 2944 3878 
Q 2300 3878 1931 3465 
Q 1563 3053 1563 2328 
Q 1563 1606 1931 1193 
Q 2300 781 2944 781 
Q 3303 781 3628 887 
Q 3953 994 4288 1222 
L 4288 256 
z
" transform="scale(0.015625)"/>
      <path id="DejaVuSans-Bold-63" d="M 3366 3391 
L 3366 2478 
Q 3138 2634 2908 2709 
Q 2678 2784 2431 2784 
Q 1963 2784 1702 2511 
Q 1441 2238 1441 1747 
Q 1441 1256 1702 982 
Q 1963 709 2431 709 
Q 2694 709 2930 787 
Q 3166 866 3366 1019 
L 3366 103 
Q 3103 6 2833 -42 
Q 2563 -91 2291 -91 
Q 1344 -91 809 395 
Q 275 881 275 1747 
Q 275 2613 809 3098 
Q 1344 3584 2291 3584 
Q 2566 3584 2833 3536 
Q 3100 3488 3366 3391 
z
" transform="scale(0.015625)"/>
      <path id="DejaVuSans-Bold-75" d="M 500 1363 
L 500 3500 
L 1625 3500 
L 1625 3150 
Q 1625 2866 1622 2436 
Q 1619 2006 1619 1863 
Q 1619 1441 1641 1255 
Q 1663 1069 1716 984 
Q 1784 875 1895 815 
Q 2006 756 2150 756 
Q 2500 756 2700 1025 
Q 2900 1294 2900 1772 
L 2900 3500 
L 4019 3500 
L 4019 0 
L 2900 0 
L 2900 506 
Q 2647 200 2364 54 
Q 2081 -91 1741 -91 
Q 1134 -91 817 281 
Q 500 653 500 1363 
z
" transform="scale(0.015625)"/>
      <path id="DejaVuSans-Bold-6e" d="M 4056 2131 
L 4056 0 
L 2931 0 
L 2931 347 
L 2931 1631 
Q 2931 2084 2911 2256 
Q 2891 2428 2841 2509 
Q 2775 2619 2662 2680 
Q 2550 2741 2406 2741 
Q 2056 2741 1856 2470 
Q 1656 2200 1656 1722 
L 1656 0 
L 538 0 
L 538 3500 
L 1656 3500 
L 1656 2988 
Q 1909 3294 2193 3439 
Q 2478 3584 2822 3584 
Q 3428 3584 3742 3212 
Q 4056 2841 4056 2131 
z
" transform="scale(0.015625)"/>
      <path id="DejaVuSans-Bold-7c" d="M 1522 4891 
L 1522 -1509 
L 813 -1509 
L 813 4891 
L 1522 4891 
z
" transform="scale(0.015625)"/>
      <path id="DejaVuSans-Bold-66" d="M 2841 4863 
L 2841 4128 
L 2222 4128 
Q 1984 4128 1890 4042 
Q 1797 3956 1797 3744 
L 1797 3500 
L 2753 3500 
L 2753 2700 
L 1797 2700 
L 1797 0 
L 678 0 
L 678 2700 
L 122 2700 
L 122 3500 
L 678 3500 
L 678 3744 
Q 678 4316 997 4589 
Q 1316 4863 1984 4863 
L 2841 4863 
z
" transform="scale(0.015625)"/>
      <path id="DejaVuSans-Bold-3d" d="M 678 3084 
L 4684 3084 
L 4684 2350 
L 678 2350 
L 678 3084 
z
M 678 1663 
L 4684 1663 
L 4684 922 
L 678 922 
L 678 1663 
z
" transform="scale(0.015625)"/>
      <path id="DejaVuSans-Bold-31" d="M 750 831 
L 1813 831 
L 1813 3847 
L 722 3622 
L 722 4441 
L 1806 4666 
L 2950 4666 
L 2950 831 
L 4013 831 
L 4013 0 
L 750 0 
L 750 831 
z
" transform="scale(0.015625)"/>
      <path id="DejaVuSans-Bold-48" d="M 588 4666 
L 1791 4666 
L 1791 2888 
L 3566 2888 
L 3566 4666 
L 4769 4666 
L 4769 0 
L 3566 0 
L 3566 1978 
L 1791 1978 
L 1791 0 
L 588 0 
L 588 4666 
z
" transform="scale(0.015625)"/>
      <path id="DejaVuSans-Bold-7a" d="M 366 3500 
L 3419 3500 
L 3419 2719 
L 1575 800 
L 3419 800 
L 3419 0 
L 288 0 
L 288 781 
L 2131 2700 
L 366 2700 
L 366 3500 
z
" transform="scale(0.015625)"/>
     </defs>
     <use xlink:href="#DejaVuSans-Bold-53"/>
     <use xlink:href="#DejaVuSans-Bold-68" transform="translate(72.021484 0)"/>
     <use xlink:href="#DejaVuSans-Bold-6f" transform="translate(143.212891 0)"/>
     <use xlink:href="#DejaVuSans-Bold-72" transform="translate(211.914062 0)"/>
     <use xlink:href="#DejaVuSans-Bold-74" transform="translate(261.230469 0)"/>
     <use xlink:href="#DejaVuSans-Bold-2d" transform="translate(309.033203 0)"/>
     <use xlink:href="#DejaVuSans-Bold-43" transform="translate(350.537109 0)"/>
     <use xlink:href="#DejaVuSans-Bold-69" transform="translate(423.925781 0)"/>
     <use xlink:href="#DejaVuSans-Bold-72" transform="translate(458.203125 0)"/>
     <use xlink:href="#DejaVuSans-Bold-63" transform="translate(507.519531 0)"/>
     <use xlink:href="#DejaVuSans-Bold-75" transform="translate(566.796875 0)"/>
     <use xlink:href="#DejaVuSans-Bold-69" transform="translate(637.988281 0)"/>
     <use xlink:href="#DejaVuSans-Bold-74" transform="translate(672.265625 0)"/>
     <use xlink:href="#DejaVuSans-Bold-20" transform="translate(720.068359 0)"/>
     <use xlink:href="#DejaVuSans-Bold-43" transform="translate(754.882812 0)"/>
     <use xlink:href="#DejaVuSans-Bold-75" transform="translate(828.271484 0)"/>
     <use xlink:href="#DejaVuSans-Bold-72" transform="translate(899.462891 0)"/>
     <use xlink:href="#DejaVuSans-Bold-72" transform="translate(948.779297 0)"/>
     <use xlink:href="#DejaVuSans-Bold-65" transform="translate(998.095703 0)"/>
     <use xlink:href="#DejaVuSans-Bold-6e" transform="translate(1065.917969 0)"/>
     <use xlink:href="#DejaVuSans-Bold-74" transform="translate(1137.109375 0)"/>
     <use xlink:href="#DejaVuSans-Bold-20" transform="translate(1184.912109 0)"/>
     <use xlink:href="#DejaVuSans-Bold-7c" transform="translate(1219.726562 0)"/>
     <use xlink:href="#DejaVuSans-Bold-20" transform="translate(1256.25 0)"/>
     <use xlink:href="#DejaVuSans-Bold-66" transform="translate(1291.064453 0)"/>
     <use xlink:href="#DejaVuSans-Bold-20" transform="translate(1334.570312 0)"/>
     <use xlink:href="#DejaVuSans-Bold-3d" transform="translate(1369.384766 0)"/>
     <use xlink:href="#DejaVuSans-Bold-20" transform="translate(1453.173828 0)"/>
     <use xlink:href="#DejaVuSans-Bold-31" transform="translate(1487.988281 0)"/>
     <use xlink:href="#DejaVuSans-Bold-20" transform="translate(1557.568359 0)"/>
     <use xlink:href="#DejaVuSans-Bold-48" transform="translate(1592.382812 0)"/>
     <use xlink:href="#DejaVuSans-Bold-7a" transform="translate(1676.074219 0)"/>
    </g>
   </g>
   <g id="text_20">
    <!-- Without MIC -->
    <g style="fill: #333333" transform="translate(99.370575 47.848) scale(0.14 -0.14)">
     <defs>
      <path id="DejaVuSans-Bold-57" d="M 191 4666 
L 1344 4666 
L 2150 1275 
L 2950 4666 
L 4109 4666 
L 4909 1275 
L 5716 4666 
L 6859 4666 
L 5759 0 
L 4372 0 
L 3525 3547 
L 2688 0 
L 1300 0 
L 191 4666 
z
" transform="scale(0.015625)"/>
      <path id="DejaVuSans-Bold-4d" d="M 588 4666 
L 2119 4666 
L 3181 2169 
L 4250 4666 
L 5778 4666 
L 5778 0 
L 4641 0 
L 4641 3413 
L 3566 897 
L 2803 897 
L 1728 3413 
L 1728 0 
L 588 0 
L 588 4666 
z
" transform="scale(0.015625)"/>
     </defs>
     <use xlink:href="#DejaVuSans-Bold-57"/>
     <use xlink:href="#DejaVuSans-Bold-69" transform="translate(110.302734 0)"/>
     <use xlink:href="#DejaVuSans-Bold-74" transform="translate(144.580078 0)"/>
     <use xlink:href="#DejaVuSans-Bold-68" transform="translate(192.382812 0)"/>
     <use xlink:href="#DejaVuSans-Bold-6f" transform="translate(263.574219 0)"/>
     <use xlink:href="#DejaVuSans-Bold-75" transform="translate(332.275391 0)"/>
     <use xlink:href="#DejaVuSans-Bold-74" transform="translate(403.466797 0)"/>
     <use xlink:href="#DejaVuSans-Bold-20" transform="translate(451.269531 0)"/>
     <use xlink:href="#DejaVuSans-Bold-4d" transform="translate(486.083984 0)"/>
     <use xlink:href="#DejaVuSans-Bold-49" transform="translate(585.595703 0)"/>
     <use xlink:href="#DejaVuSans-Bold-43" transform="translate(622.802734 0)"/>
    </g>
   </g>
   <g id="text_21">
    <!-- With MIC -->
    <g style="fill: #d94452" transform="translate(291.755163 47.848) scale(0.14 -0.14)">
     <use xlink:href="#DejaVuSans-Bold-57"/>
     <use xlink:href="#DejaVuSans-Bold-69" transform="translate(110.302734 0)"/>
     <use xlink:href="#DejaVuSans-Bold-74" transform="translate(144.580078 0)"/>
     <use xlink:href="#DejaVuSans-Bold-68" transform="translate(192.382812 0)"/>
     <use xlink:href="#DejaVuSans-Bold-20" transform="translate(263.574219 0)"/>
     <use xlink:href="#DejaVuSans-Bold-4d" transform="translate(298.388672 0)"/>
     <use xlink:href="#DejaVuSans-Bold-49" transform="translate(397.900391 0)"/>
     <use xlink:href="#DejaVuSans-Bold-43" transform="translate(435.107422 0)"/>
    </g>
   </g>
  </g>
 </g>
 <defs>
  <clipPath id="p4428327783">
   <rect x="58.479375" y="22.842187" width="358.492926" height="287.36"/>
  </clipPath>
 </defs>
</svg>
