<?xml version="1.0" encoding="utf-8" standalone="no"?>
<!DOCTYPE svg PUBLIC "-//W3C//DTD SVG 1.1//EN"
  "http://www.w3.org/Graphics/SVG/1.1/DTD/svg11.dtd">
<svg xmlns:xlink="http://www.w3.org/1999/xlink" width="424.513336pt" height="352.5975pt" viewBox="0 0 424.513336 352.5975" xmlns="http://www.w3.org/2000/svg" version="1.1">
 <metadata>
  <rdf:RDF xmlns:dc="http://purl.org/dc/elements/1.1/" xmlns:cc="http://creativecommons.org/ns#" xmlns:rdf="http://www.w3.org/1999/02/22-rdf-syntax-ns#">
   <cc:Work>
    <dc:type rdf:resource="http://purl.org/dc/dcmitype/StillImage"/>
    <dc:date>2026-04-26T16:42:35.047693</dc:date>
    <dc:format>image/svg+xml</dc:format>
    <dc:creator>
     <cc:Agent>
      <dc:title>Matplotlib v3.10.8, https://matplotlib.org/</dc:title>
     </cc:Agent>
    </dc:creator>
   </cc:Work>
  </rdf:RDF>
 </metadata>
 <defs>
  <style type="text/css">*{stroke-linejoin: round; stroke-linecap: butt}</style>
 </defs>
 <g id="figure_1">
  <g id="patch_1">
   <path d="M 0 352.5975 
L 424.513336 352.5975 
L 424.513336 0 
L 0 0 
z
" style="fill: #ffffff"/>
  </g>
  <g id="axes_1">
   <g id="patch_2">
    <path d="M 48.029375 310.202188 
L 417.313336 310.202188 
L 417.313336 22.842187 
L 48.029375 22.842187 
z
" style="fill: #ffffff"/>
   </g>
   <g id="patch_3">
    <path d="M 48.029375 310.202188 
L 232.671355 310.202188 
L 232.671355 22.842187 
L 48.029375 22.842187 
z
" clip-path="url(#p044283c31a)" style="fill: #cccccc; opacity: 0.12; stroke: #cccccc; stroke-linejoin: miter"/>
   </g>
   <g id="patch_4">
    <path d="M 232.671355 310.202188 
L 417.313336 310.202188 
L 417.313336 22.842187 
L 232.671355 22.842187 
z
" clip-path="url(#p044283c31a)" style="fill: #d94452; opacity: 0.06; stroke: #d94452; stroke-linejoin: miter"/>
   </g>
   <g id="line2d_1">
    <path d="M 232.671355 310.202188 
L 232.671355 22.842187 
" clip-path="url(#p044283c31a)" style="fill: none; stroke-dasharray: 3.7,1.6; stroke-dashoffset: 0; stroke: #999999"/>
   </g>
   <g id="matplotlib.axis_1">
    <g id="xtick_1">
     <g id="line2d_2">
      <defs>
       <path id="me279bdc408" d="M 0 0 
L 0 3.5 
" style="stroke: #000000; stroke-width: 0.8"/>
      </defs>
      <g>
       <use xlink:href="#me279bdc408" x="48.029375" y="310.202188" style="stroke: #000000; stroke-width: 0.8"/>
      </g>
     </g>
     <g id="text_1">
      <!-- 0.0 -->
      <g transform="translate(39.282656 325.560469) scale(0.11 -0.11)">
       <defs>
        <path id="DejaVuSans-30" d="M 2034 4250 
Q 1547 4250 1301 3770 
Q 1056 3291 1056 2328 
Q 1056 1369 1301 889 
Q 1547 409 2034 409 
Q 2525 409 2770 889 
Q 3016 1369 3016 2328 
Q 3016 3291 2770 3770 
Q 2525 4250 2034 4250 
z
M 2034 4750 
Q 2819 4750 3233 4129 
Q 3647 3509 3647 2328 
Q 3647 1150 3233 529 
Q 2819 -91 2034 -91 
Q 1250 -91 836 529 
Q 422 1150 422 2328 
Q 422 3509 836 4129 
Q 1250 4750 2034 4750 
z
" transform="scale(0.015625)"/>
        <path id="DejaVuSans-2e" d="M 684 794 
L 1344 794 
L 1344 0 
L 684 0 
L 684 794 
z
" transform="scale(0.015625)"/>
       </defs>
       <use xlink:href="#DejaVuSans-30"/>
       <use xlink:href="#DejaVuSans-2e" transform="translate(63.623047 0)"/>
       <use xlink:href="#DejaVuSans-30" transform="translate(95.410156 0)"/>
      </g>
     </g>
    </g>
    <g id="xtick_2">
     <g id="line2d_3">
      <g>
       <use xlink:href="#me279bdc408" x="94.212962" y="310.202188" style="stroke: #000000; stroke-width: 0.8"/>
      </g>
     </g>
     <g id="text_2">
      <!-- 0.5 -->
      <g transform="translate(85.466243 325.560469) scale(0.11 -0.11)">
       <defs>
        <path id="DejaVuSans-35" d="M 691 4666 
L 3169 4666 
L 3169 4134 
L 1269 4134 
L 1269 2991 
Q 1406 3038 1543 3061 
Q 1681 3084 1819 3084 
Q 2600 3084 3056 2656 
Q 3513 2228 3513 1497 
Q 3513 744 3044 326 
Q 2575 -91 1722 -91 
Q 1428 -91 1123 -41 
Q 819 9 494 109 
L 494 744 
Q 775 591 1075 516 
Q 1375 441 1709 441 
Q 2250 441 2565 725 
Q 2881 1009 2881 1497 
Q 2881 1984 2565 2268 
Q 2250 2553 1709 2553 
Q 1456 2553 1204 2497 
Q 953 2441 691 2322 
L 691 4666 
z
" transform="scale(0.015625)"/>
       </defs>
       <use xlink:href="#DejaVuSans-30"/>
       <use xlink:href="#DejaVuSans-2e" transform="translate(63.623047 0)"/>
       <use xlink:href="#DejaVuSans-35" transform="translate(95.410156 0)"/>
      </g>
     </g>
    </g>
    <g id="xtick_3">
     <g id="line2d_4">
      <g>
       <use xlink:href="#me279bdc408" x="140.396549" y="310.202188" style="stroke: #000000; stroke-width: 0.8"/>
      </g>
     </g>
     <g id="text_3">
      <!-- 1.0 -->
      <g transform="translate(131.64983 325.560469) scale(0.11 -0.11)">
       <defs>
        <path id="DejaVuSans-31" d="M 794 531 
L 1825 531 
L 1825 4091 
L 703 3866 
L 703 4441 
L 1819 4666 
L 2450 4666 
L 2450 531 
L 3481 531 
L 3481 0 
L 794 0 
L 794 531 
z
" transform="scale(0.015625)"/>
       </defs>
       <use xlink:href="#DejaVuSans-31"/>
       <use xlink:href="#DejaVuSans-2e" transform="translate(63.623047 0)"/>
       <use xlink:href="#DejaVuSans-30" transform="translate(95.410156 0)"/>
      </g>
     </g>
    </g>
    <g id="xtick_4">
     <g id="line2d_5">
      <g>
       <use xlink:href="#me279bdc408" x="186.580136" y="310.202188" style="stroke: #000000; stroke-width: 0.8"/>
      </g>
     </g>
     <g id="text_4">
      <!-- 1.5 -->
      <g transform="translate(177.833417 325.560469) scale(0.11 -0.11)">
       <use xlink:href="#DejaVuSans-31"/>
       <use xlink:href="#DejaVuSans-2e" transform="translate(63.623047 0)"/>
       <use xlink:href="#DejaVuSans-35" transform="translate(95.410156 0)"/>
      </g>
     </g>
    </g>
    <g id="xtick_5">
     <g id="line2d_6">
      <g>
       <use xlink:href="#me279bdc408" x="232.763723" y="310.202188" style="stroke: #000000; stroke-width: 0.8"/>
      </g>
     </g>
     <g id="text_5">
      <!-- 2.0 -->
      <g transform="translate(224.017004 325.560469) scale(0.11 -0.11)">
       <defs>
        <path id="DejaVuSans-32" d="M 1228 531 
L 3431 531 
L 3431 0 
L 469 0 
L 469 531 
Q 828 903 1448 1529 
Q 2069 2156 2228 2338 
Q 2531 2678 2651 2914 
Q 2772 3150 2772 3378 
Q 2772 3750 2511 3984 
Q 2250 4219 1831 4219 
Q 1534 4219 1204 4116 
Q 875 4013 500 3803 
L 500 4441 
Q 881 4594 1212 4672 
Q 1544 4750 1819 4750 
Q 2544 4750 2975 4387 
Q 3406 4025 3406 3419 
Q 3406 3131 3298 2873 
Q 3191 2616 2906 2266 
Q 2828 2175 2409 1742 
Q 1991 1309 1228 531 
z
" transform="scale(0.015625)"/>
       </defs>
       <use xlink:href="#DejaVuSans-32"/>
       <use xlink:href="#DejaVuSans-2e" transform="translate(63.623047 0)"/>
       <use xlink:href="#DejaVuSans-30" transform="translate(95.410156 0)"/>
      </g>
     </g>
    </g>
    <g id="xtick_6">
     <g id="line2d_7">
      <g>
       <use xlink:href="#me279bdc408" x="278.94731" y="310.202188" style="stroke: #000000; stroke-width: 0.8"/>
      </g>
     </g>
     <g id="text_6">
      <!-- 2.5 -->
      <g transform="translate(270.200591 325.560469) scale(0.11 -0.11)">
       <use xlink:href="#DejaVuSans-32"/>
       <use xlink:href="#DejaVuSans-2e" transform="translate(63.623047 0)"/>
       <use xlink:href="#DejaVuSans-35" transform="translate(95.410156 0)"/>
      </g>
     </g>
    </g>
    <g id="xtick_7">
     <g id="line2d_8">
      <g>
       <use xlink:href="#me279bdc408" x="325.130896" y="310.202188" style="stroke: #000000; stroke-width: 0.8"/>
      </g>
     </g>
     <g id="text_7">
      <!-- 3.0 -->
      <g transform="translate(316.384178 325.560469) scale(0.11 -0.11)">
       <defs>
        <path id="DejaVuSans-33" d="M 2597 2516 
Q 3050 2419 3304 2112 
Q 3559 1806 3559 1356 
Q 3559 666 3084 287 
Q 2609 -91 1734 -91 
Q 1441 -91 1130 -33 
Q 819 25 488 141 
L 488 750 
Q 750 597 1062 519 
Q 1375 441 1716 441 
Q 2309 441 2620 675 
Q 2931 909 2931 1356 
Q 2931 1769 2642 2001 
Q 2353 2234 1838 2234 
L 1294 2234 
L 1294 2753 
L 1863 2753 
Q 2328 2753 2575 2939 
Q 2822 3125 2822 3475 
Q 2822 3834 2567 4026 
Q 2313 4219 1838 4219 
Q 1578 4219 1281 4162 
Q 984 4106 628 3988 
L 628 4550 
Q 988 4650 1302 4700 
Q 1616 4750 1894 4750 
Q 2613 4750 3031 4423 
Q 3450 4097 3450 3541 
Q 3450 3153 3228 2886 
Q 3006 2619 2597 2516 
z
" transform="scale(0.015625)"/>
       </defs>
       <use xlink:href="#DejaVuSans-33"/>
       <use xlink:href="#DejaVuSans-2e" transform="translate(63.623047 0)"/>
       <use xlink:href="#DejaVuSans-30" transform="translate(95.410156 0)"/>
      </g>
     </g>
    </g>
    <g id="xtick_8">
     <g id="line2d_9">
      <g>
       <use xlink:href="#me279bdc408" x="371.314483" y="310.202188" style="stroke: #000000; stroke-width: 0.8"/>
      </g>
     </g>
     <g id="text_8">
      <!-- 3.5 -->
      <g transform="translate(362.567765 325.560469) scale(0.11 -0.11)">
       <use xlink:href="#DejaVuSans-33"/>
       <use xlink:href="#DejaVuSans-2e" transform="translate(63.623047 0)"/>
       <use xlink:href="#DejaVuSans-35" transform="translate(95.410156 0)"/>
      </g>
     </g>
    </g>
    <g id="text_9">
     <!-- Time (s) -->
     <g transform="translate(200.452762 342.485938) scale(0.14 -0.14)">
      <defs>
       <path id="DejaVuSans-Bold-54" d="M 31 4666 
L 4331 4666 
L 4331 3756 
L 2784 3756 
L 2784 0 
L 1581 0 
L 1581 3756 
L 31 3756 
L 31 4666 
z
" transform="scale(0.015625)"/>
       <path id="DejaVuSans-Bold-69" d="M 538 3500 
L 1656 3500 
L 1656 0 
L 538 0 
L 538 3500 
z
M 538 4863 
L 1656 4863 
L 1656 3950 
L 538 3950 
L 538 4863 
z
" transform="scale(0.015625)"/>
       <path id="DejaVuSans-Bold-6d" d="M 3781 2919 
Q 3994 3244 4286 3414 
Q 4578 3584 4928 3584 
Q 5531 3584 5847 3212 
Q 6163 2841 6163 2131 
L 6163 0 
L 5038 0 
L 5038 1825 
Q 5041 1866 5042 1909 
Q 5044 1953 5044 2034 
Q 5044 2406 4934 2573 
Q 4825 2741 4581 2741 
Q 4263 2741 4089 2478 
Q 3916 2216 3909 1719 
L 3909 0 
L 2784 0 
L 2784 1825 
Q 2784 2406 2684 2573 
Q 2584 2741 2328 2741 
Q 2006 2741 1831 2477 
Q 1656 2213 1656 1722 
L 1656 0 
L 531 0 
L 531 3500 
L 1656 3500 
L 1656 2988 
Q 1863 3284 2130 3434 
Q 2397 3584 2719 3584 
Q 3081 3584 3359 3409 
Q 3638 3234 3781 2919 
z
" transform="scale(0.015625)"/>
       <path id="DejaVuSans-Bold-65" d="M 4031 1759 
L 4031 1441 
L 1416 1441 
Q 1456 1047 1700 850 
Q 1944 653 2381 653 
Q 2734 653 3104 758 
Q 3475 863 3866 1075 
L 3866 213 
Q 3469 63 3072 -14 
Q 2675 -91 2278 -91 
Q 1328 -91 801 392 
Q 275 875 275 1747 
Q 275 2603 792 3093 
Q 1309 3584 2216 3584 
Q 3041 3584 3536 3087 
Q 4031 2591 4031 1759 
z
M 2881 2131 
Q 2881 2450 2695 2645 
Q 2509 2841 2209 2841 
Q 1884 2841 1681 2658 
Q 1478 2475 1428 2131 
L 2881 2131 
z
" transform="scale(0.015625)"/>
       <path id="DejaVuSans-Bold-20" transform="scale(0.015625)"/>
       <path id="DejaVuSans-Bold-28" d="M 2413 -844 
L 1484 -844 
Q 1006 -72 778 623 
Q 550 1319 550 2003 
Q 550 2688 779 3389 
Q 1009 4091 1484 4856 
L 2413 4856 
Q 2013 4116 1813 3408 
Q 1613 2700 1613 2009 
Q 1613 1319 1811 609 
Q 2009 -100 2413 -844 
z
" transform="scale(0.015625)"/>
       <path id="DejaVuSans-Bold-73" d="M 3272 3391 
L 3272 2541 
Q 2913 2691 2578 2766 
Q 2244 2841 1947 2841 
Q 1628 2841 1473 2761 
Q 1319 2681 1319 2516 
Q 1319 2381 1436 2309 
Q 1553 2238 1856 2203 
L 2053 2175 
Q 2913 2066 3209 1816 
Q 3506 1566 3506 1031 
Q 3506 472 3093 190 
Q 2681 -91 1863 -91 
Q 1516 -91 1145 -36 
Q 775 19 384 128 
L 384 978 
Q 719 816 1070 734 
Q 1422 653 1784 653 
Q 2113 653 2278 743 
Q 2444 834 2444 1013 
Q 2444 1163 2330 1236 
Q 2216 1309 1875 1350 
L 1678 1375 
Q 931 1469 631 1722 
Q 331 1975 331 2491 
Q 331 3047 712 3315 
Q 1094 3584 1881 3584 
Q 2191 3584 2531 3537 
Q 2872 3491 3272 3391 
z
" transform="scale(0.015625)"/>
       <path id="DejaVuSans-Bold-29" d="M 513 -844 
Q 913 -100 1113 609 
Q 1313 1319 1313 2009 
Q 1313 2700 1113 3408 
Q 913 4116 513 4856 
L 1441 4856 
Q 1916 4091 2145 3389 
Q 2375 2688 2375 2003 
Q 2375 1319 2147 623 
Q 1919 -72 1441 -844 
L 513 -844 
z
" transform="scale(0.015625)"/>
      </defs>
      <use xlink:href="#DejaVuSans-Bold-54"/>
      <use xlink:href="#DejaVuSans-Bold-69" transform="translate(68.212891 0)"/>
      <use xlink:href="#DejaVuSans-Bold-6d" transform="translate(102.490234 0)"/>
      <use xlink:href="#DejaVuSans-Bold-65" transform="translate(206.689453 0)"/>
      <use xlink:href="#DejaVuSans-Bold-20" transform="translate(274.511719 0)"/>
      <use xlink:href="#DejaVuSans-Bold-28" transform="translate(309.326172 0)"/>
      <use xlink:href="#DejaVuSans-Bold-73" transform="translate(355.029297 0)"/>
      <use xlink:href="#DejaVuSans-Bold-29" transform="translate(414.550781 0)"/>
     </g>
    </g>
   </g>
   <g id="matplotlib.axis_2">
    <g id="ytick_1">
     <g id="line2d_10">
      <defs>
       <path id="m88477187d3" d="M 0 0 
L -3.5 0 
" style="stroke: #000000; stroke-width: 0.8"/>
      </defs>
      <g>
       <use xlink:href="#m88477187d3" x="48.029375" y="267.069544" style="stroke: #000000; stroke-width: 0.8"/>
      </g>
     </g>
     <g id="text_10">
      <!-- $\mathdefault{−2}$ -->
      <g transform="translate(24.749375 271.248685) scale(0.11 -0.11)">
       <defs>
        <path id="DejaVuSans-2212" d="M 678 2272 
L 4684 2272 
L 4684 1741 
L 678 1741 
L 678 2272 
z
" transform="scale(0.015625)"/>
       </defs>
       <use xlink:href="#DejaVuSans-2212" transform="translate(0 0.78125)"/>
       <use xlink:href="#DejaVuSans-32" transform="translate(83.789062 0.78125)"/>
      </g>
     </g>
    </g>
    <g id="ytick_2">
     <g id="line2d_11">
      <g>
       <use xlink:href="#m88477187d3" x="48.029375" y="216.795866" style="stroke: #000000; stroke-width: 0.8"/>
      </g>
     </g>
     <g id="text_11">
      <!-- $\mathdefault{−1}$ -->
      <g transform="translate(24.749375 220.975006) scale(0.11 -0.11)">
       <use xlink:href="#DejaVuSans-2212" transform="translate(0 0.09375)"/>
       <use xlink:href="#DejaVuSans-31" transform="translate(83.789062 0.09375)"/>
      </g>
     </g>
    </g>
    <g id="ytick_3">
     <g id="line2d_12">
      <g>
       <use xlink:href="#m88477187d3" x="48.029375" y="166.522188" style="stroke: #000000; stroke-width: 0.8"/>
      </g>
     </g>
     <g id="text_12">
      <!-- $\mathdefault{0}$ -->
      <g transform="translate(33.989375 170.701328) scale(0.11 -0.11)">
       <use xlink:href="#DejaVuSans-30" transform="translate(0 0.78125)"/>
      </g>
     </g>
    </g>
    <g id="ytick_4">
     <g id="line2d_13">
      <g>
       <use xlink:href="#m88477187d3" x="48.029375" y="116.248509" style="stroke: #000000; stroke-width: 0.8"/>
      </g>
     </g>
     <g id="text_13">
      <!-- $\mathdefault{1}$ -->
      <g transform="translate(33.989375 120.42765) scale(0.11 -0.11)">
       <use xlink:href="#DejaVuSans-31" transform="translate(0 0.09375)"/>
      </g>
     </g>
    </g>
    <g id="ytick_5">
     <g id="line2d_14">
      <g>
       <use xlink:href="#m88477187d3" x="48.029375" y="65.974831" style="stroke: #000000; stroke-width: 0.8"/>
      </g>
     </g>
     <g id="text_14">
      <!-- $\mathdefault{2}$ -->
      <g transform="translate(33.989375 70.153972) scale(0.11 -0.11)">
       <use xlink:href="#DejaVuSans-32" transform="translate(0 0.78125)"/>
      </g>
     </g>
    </g>
    <g id="text_15">
     <!-- I$_{sc}$ (mA/m²) -->
     <g transform="translate(17.837812 209.152187) rotate(-90) scale(0.14 -0.14)">
      <defs>
       <path id="DejaVuSans-Bold-49" d="M 588 4666 
L 1791 4666 
L 1791 0 
L 588 0 
L 588 4666 
z
" transform="scale(0.015625)"/>
       <path id="DejaVuSans-Oblique-73" d="M 3200 3397 
L 3091 2853 
Q 2863 2978 2609 3040 
Q 2356 3103 2088 3103 
Q 1634 3103 1373 2948 
Q 1113 2794 1113 2528 
Q 1113 2219 1719 2053 
Q 1766 2041 1788 2034 
L 1972 1978 
Q 2547 1819 2739 1644 
Q 2931 1469 2931 1166 
Q 2931 609 2489 259 
Q 2047 -91 1331 -91 
Q 1053 -91 747 -37 
Q 441 16 72 128 
L 184 722 
Q 500 559 806 475 
Q 1113 391 1394 391 
Q 1816 391 2080 572 
Q 2344 753 2344 1031 
Q 2344 1331 1650 1516 
L 1591 1531 
L 1394 1581 
Q 956 1697 753 1886 
Q 550 2075 550 2369 
Q 550 2928 970 3256 
Q 1391 3584 2113 3584 
Q 2397 3584 2667 3537 
Q 2938 3491 3200 3397 
z
" transform="scale(0.015625)"/>
       <path id="DejaVuSans-Oblique-63" d="M 3431 3366 
L 3316 2797 
Q 3109 2947 2876 3022 
Q 2644 3097 2394 3097 
Q 2119 3097 1870 3000 
Q 1622 2903 1453 2725 
Q 1184 2453 1037 2087 
Q 891 1722 891 1331 
Q 891 859 1127 628 
Q 1363 397 1844 397 
Q 2081 397 2348 469 
Q 2616 541 2906 684 
L 2797 116 
Q 2547 13 2283 -39 
Q 2019 -91 1741 -91 
Q 1044 -91 669 257 
Q 294 606 294 1253 
Q 294 1797 489 2255 
Q 684 2713 1069 3078 
Q 1331 3328 1684 3456 
Q 2038 3584 2456 3584 
Q 2700 3584 2940 3529 
Q 3181 3475 3431 3366 
z
" transform="scale(0.015625)"/>
       <path id="DejaVuSans-Bold-41" d="M 3419 850 
L 1538 850 
L 1241 0 
L 31 0 
L 1759 4666 
L 3194 4666 
L 4922 0 
L 3713 0 
L 3419 850 
z
M 1838 1716 
L 3116 1716 
L 2478 3572 
L 1838 1716 
z
" transform="scale(0.015625)"/>
       <path id="DejaVuSans-Bold-2f" d="M 1644 4666 
L 2338 4666 
L 691 -594 
L 0 -594 
L 1644 4666 
z
" transform="scale(0.015625)"/>
       <path id="DejaVuSans-Bold-b2" d="M 1288 2613 
L 2444 2613 
L 2444 2088 
L 341 2088 
L 341 2566 
L 1319 3397 
Q 1509 3563 1590 3688 
Q 1672 3813 1672 3938 
Q 1672 4094 1558 4191 
Q 1444 4288 1259 4288 
Q 1066 4288 844 4217 
Q 622 4147 359 4000 
L 359 4581 
Q 631 4666 886 4708 
Q 1141 4750 1375 4750 
Q 1869 4750 2150 4548 
Q 2431 4347 2431 4000 
Q 2431 3775 2320 3586 
Q 2209 3397 1894 3128 
L 1288 2613 
z
" transform="scale(0.015625)"/>
      </defs>
      <use xlink:href="#DejaVuSans-Bold-49" transform="translate(0 0.125)"/>
      <use xlink:href="#DejaVuSans-Oblique-73" transform="translate(38.164062 -16.28125) scale(0.7)"/>
      <use xlink:href="#DejaVuSans-Oblique-63" transform="translate(74.633789 -16.28125) scale(0.7)"/>
      <use xlink:href="#DejaVuSans-Bold-20" transform="translate(115.854492 0.125)"/>
      <use xlink:href="#DejaVuSans-Bold-28" transform="translate(150.668945 0.125)"/>
      <use xlink:href="#DejaVuSans-Bold-6d" transform="translate(196.37207 0.125)"/>
      <use xlink:href="#DejaVuSans-Bold-41" transform="translate(300.571289 0.125)"/>
      <use xlink:href="#DejaVuSans-Bold-2f" transform="translate(377.963867 0.125)"/>
      <use xlink:href="#DejaVuSans-Bold-6d" transform="translate(414.487305 0.125)"/>
      <use xlink:href="#DejaVuSans-Bold-b2" transform="translate(518.686523 0.125)"/>
      <use xlink:href="#DejaVuSans-Bold-29" transform="translate(562.485352 0.125)"/>
     </g>
    </g>
    <g id="text_16">
     <!-- $\times\mathdefault{10^{−3}}\mathdefault{}$ -->
     <g transform="translate(48.029375 19.842187) scale(0.1 -0.1)">
      <defs>
       <path id="DejaVuSans-d7" d="M 4488 3438 
L 3059 2003 
L 4488 575 
L 4116 197 
L 2681 1631 
L 1247 197 
L 878 575 
L 2303 2003 
L 878 3438 
L 1247 3816 
L 2681 2381 
L 4116 3816 
L 4488 3438 
z
" transform="scale(0.015625)"/>
      </defs>
      <use xlink:href="#DejaVuSans-d7" transform="translate(0 0.765625)"/>
      <use xlink:href="#DejaVuSans-31" transform="translate(83.789062 0.765625)"/>
      <use xlink:href="#DejaVuSans-30" transform="translate(147.412109 0.765625)"/>
      <use xlink:href="#DejaVuSans-2212" transform="translate(211.992188 39.046875) scale(0.7)"/>
      <use xlink:href="#DejaVuSans-33" transform="translate(270.644531 39.046875) scale(0.7)"/>
     </g>
    </g>
   </g>
   <g id="patch_5">
    <path d="M 48.029375 310.202188 
L 48.029375 22.842187 
" style="fill: none; stroke: #000000; stroke-width: 0.8; stroke-linejoin: miter; stroke-linecap: square"/>
   </g>
   <g id="patch_6">
    <path d="M 48.029375 310.202188 
L 417.313336 310.202188 
" style="fill: none; stroke: #000000; stroke-width: 0.8; stroke-linejoin: miter; stroke-linecap: square"/>
   </g>
   <g id="line2d_15">
    <path d="M 48.029375 157.512086 
L 48.675945 160.386083 
L 48.86068 160.790871 
L 49.414883 162.20763 
L 51.077492 164.919711 
L 51.631695 165.486415 
L 51.908796 165.769767 
L 52.278265 166.093598 
L 52.647734 166.01264 
L 52.740101 166.134076 
L 52.924835 166.093598 
L 53.017202 166.134076 
L 53.10957 166.295992 
L 53.201937 166.215034 
L 53.571405 166.538865 
L 53.663773 166.822217 
L 53.848507 166.538865 
L 53.940874 166.660301 
L 54.125608 166.457907 
L 54.310343 166.781738 
L 54.495077 166.741259 
L 54.587444 166.781738 
L 54.679812 167.06509 
L 54.772179 166.943653 
L 56.250053 168.967595 
L 56.804257 170.667705 
L 57.35846 173.217871 
L 57.543194 174.391758 
L 57.912663 178.884906 
L 58.282131 186.373491 
L 58.559233 196.695582 
L 58.836334 214.263392 
L 59.113436 245.189195 
L 59.390537 274.860142 
L 59.482905 275.548275 
L 59.667639 265.023795 
L 61.053147 140.591929 
L 61.330248 118.733349 
L 61.60735 111.042368 
L 61.792084 110.030397 
L 61.884451 110.151833 
L 62.069185 111.487642 
L 62.346287 115.009301 
L 64.101263 142.615872 
L 64.747833 149.375834 
L 65.671505 155.164313 
L 66.964646 160.547998 
L 67.057013 160.669434 
L 67.334114 161.559968 
L 67.703583 162.57194 
L 67.79595 162.612419 
L 68.257786 163.381517 
L 68.44252 163.664868 
L 69.089091 164.838755 
L 69.181458 164.838755 
L 69.550927 165.162585 
L 70.659333 166.053119 
L 70.844067 166.01264 
L 71.028801 166.053119 
L 71.213536 165.972161 
L 71.675371 166.336471 
L 71.860106 166.295992 
L 72.04484 166.417428 
L 72.137207 166.70078 
L 72.229575 166.498386 
L 72.414309 166.538865 
L 72.599043 166.619822 
L 72.783778 166.579344 
L 72.968512 166.660301 
L 73.337981 167.38892 
L 73.430348 167.38892 
L 74.35402 168.80568 
L 74.538754 168.927116 
L 74.723488 169.696214 
L 74.908223 170.262917 
L 75.831894 175.848994 
L 76.29373 183.094704 
L 76.570832 191.190463 
L 76.847933 204.750871 
L 77.125035 228.390484 
L 77.586871 275.912584 
L 77.679238 274.010077 
L 78.048706 245.067746 
L 79.526581 115.859353 
L 79.803683 110.232786 
L 79.89605 109.666089 
L 79.988417 109.706571 
L 80.080784 109.989914 
L 80.265519 111.811467 
L 80.634987 116.952278 
L 81.743393 135.89638 
L 82.574698 146.016095 
L 83.128901 150.914033 
L 83.867838 155.042877 
L 85.160979 160.305124 
L 85.345713 160.790871 
L 85.992283 162.490981 
L 86.638854 163.705347 
L 87.193057 164.555402 
L 87.470158 165.041148 
L 87.562525 165.041148 
L 87.74726 165.243542 
L 88.486197 165.526894 
L 88.578564 165.850725 
L 88.670931 165.769767 
L 89.132767 165.931682 
L 89.317502 165.850725 
L 89.594603 166.053119 
L 89.68697 166.01264 
L 89.964072 166.336471 
L 90.148806 166.215034 
L 90.425908 166.457907 
L 90.518275 166.336471 
L 90.795376 166.619822 
L 90.887744 166.579344 
L 90.980111 166.741259 
L 91.072478 166.619822 
L 91.626681 167.510357 
L 91.719048 167.267484 
L 91.99615 167.996102 
L 92.088517 168.036582 
L 92.365618 168.684242 
L 92.550353 168.481848 
L 92.827454 169.291425 
L 92.919821 169.331904 
L 93.381657 171.477282 
L 94.028228 176.294262 
L 94.397696 181.799378 
L 94.767165 193.052487 
L 95.136634 215.801578 
L 95.783204 275.83163 
L 95.967938 264.659487 
L 97.353446 139.256132 
L 97.630547 117.518988 
L 97.907649 110.11135 
L 98.092383 109.018425 
L 98.277118 110.151833 
L 98.554219 113.2687 
L 100.678664 145.287478 
L 101.602336 153.099895 
L 101.879437 154.152343 
L 102.895476 159.050281 
L 104.003882 162.167151 
L 104.09625 162.288588 
L 104.465718 163.300558 
L 104.650453 163.462474 
L 104.835187 163.705347 
L 105.019921 163.948219 
L 105.112288 163.826783 
L 105.38939 164.514923 
L 105.666491 164.919711 
L 105.758859 164.919711 
L 106.220695 165.364979 
L 106.405429 165.364979 
L 106.497796 165.486415 
L 106.590163 165.3245 
L 106.774898 165.607852 
L 106.867265 165.486415 
L 106.959632 165.688809 
L 107.051999 165.607852 
L 107.236733 166.134076 
L 107.329101 165.607852 
L 107.513835 165.891203 
L 107.606202 165.931682 
L 107.698569 166.093598 
L 107.790936 165.972161 
L 108.068038 166.134076 
L 108.252772 166.134076 
L 108.34514 166.01264 
L 108.714608 166.457907 
L 108.899343 166.538865 
L 108.99171 166.70078 
L 109.084077 166.619822 
L 110.007749 167.550835 
L 110.100116 167.793708 
L 110.192483 167.712751 
L 110.469585 168.400891 
L 110.561952 168.481848 
L 110.839053 168.927116 
L 111.023788 169.412861 
L 111.393256 170.667705 
L 112.039826 174.95846 
L 112.409295 179.613529 
L 112.778764 188.033126 
L 113.055865 199.893415 
L 113.332967 220.254255 
L 113.88717 276.924555 
L 113.979537 274.576787 
L 114.349006 244.096258 
L 114.995576 194.631169 
L 115.365045 154.111864 
L 115.734513 119.300059 
L 116.011615 110.11135 
L 116.196349 108.6946 
L 116.288716 108.816036 
L 116.565818 111.082851 
L 117.120021 119.70485 
L 118.13606 136.867881 
L 119.152099 148.201956 
L 119.706302 152.654621 
L 119.983403 154.030905 
L 120.445239 156.054847 
L 121.73838 161.317096 
L 122.38495 162.652898 
L 123.03152 163.867262 
L 124.324661 165.445936 
L 124.417028 165.486415 
L 124.601762 165.648331 
L 124.786496 165.607852 
L 125.433067 165.688809 
L 125.802535 165.891203 
L 125.894903 165.891203 
L 126.079637 166.215034 
L 126.264371 165.972161 
L 126.356738 166.255513 
L 126.449106 166.093598 
L 126.541473 166.174555 
L 126.726207 166.093598 
L 126.910941 166.215034 
L 127.28041 166.70078 
L 127.465144 166.781738 
L 127.92698 167.227005 
L 128.019348 167.307962 
L 128.388816 167.996102 
L 129.035386 169.291425 
L 129.681957 171.436803 
L 130.051425 173.703617 
L 130.420894 177.7515 
L 130.697996 182.60896 
L 130.975097 190.178492 
L 131.252199 203.091236 
L 131.5293 225.88081 
L 131.991136 276.803119 
L 132.083503 276.519764 
L 132.268238 264.578521 
L 133.653745 137.960806 
L 133.930847 116.466534 
L 134.207948 109.261297 
L 134.392683 108.492198 
L 134.48505 108.73507 
L 134.762151 111.366194 
L 136.886596 144.396943 
L 138.087369 153.949947 
L 138.826307 157.309692 
L 139.103408 158.645492 
L 139.195776 158.76693 
L 139.565244 160.345604 
L 140.488916 162.490981 
L 141.874424 164.798275 
L 142.243892 165.041148 
L 142.890463 165.769767 
L 142.98283 165.729288 
L 143.075197 165.850725 
L 143.259931 165.810246 
L 143.537033 165.891203 
L 143.721767 165.891203 
L 143.998869 166.01264 
L 144.645439 166.376949 
L 144.737806 166.457907 
L 144.92254 166.336471 
L 145.107275 166.417428 
L 145.199642 166.457907 
L 145.384376 166.70078 
L 145.476743 166.660301 
L 145.846212 166.943653 
L 146.030946 167.38892 
L 146.123314 167.510357 
L 146.215681 167.429399 
L 147.046985 169.008074 
L 147.23172 169.372382 
L 147.785923 171.234408 
L 148.432493 175.848994 
L 148.894329 183.701885 
L 149.17143 192.283401 
L 149.448532 206.653377 
L 149.725633 232.195498 
L 150.187469 277.734125 
L 150.372204 268.424005 
L 151.757711 142.049175 
L 152.034813 118.530959 
L 152.311914 109.585135 
L 152.496649 108.208843 
L 152.589016 108.370762 
L 152.77375 109.747042 
L 153.050852 113.187747 
L 154.159258 132.617594 
L 154.805828 141.806302 
L 155.821867 151.359307 
L 156.37607 154.516652 
L 157.02264 157.835916 
L 157.576843 159.7789 
L 158.315781 162.005236 
L 158.592882 162.612419 
L 159.239452 163.58391 
L 159.608921 164.393487 
L 159.97839 164.798275 
L 160.255491 165.081627 
L 161.456264 166.01264 
L 161.640999 166.01264 
L 161.825733 165.891203 
L 162.010467 165.931682 
L 162.287569 166.134076 
L 162.472303 166.134076 
L 162.657038 166.336471 
L 162.841772 166.336471 
L 163.211241 166.538865 
L 163.395975 166.579344 
L 163.580709 166.741259 
L 163.765444 166.660301 
L 164.134912 167.307962 
L 164.412014 167.834187 
L 164.596748 168.238976 
L 164.966217 168.684242 
L 165.058584 168.724721 
L 165.705154 170.627227 
L 166.259357 173.420265 
L 166.628826 176.69905 
L 166.998295 182.851832 
L 167.367764 194.590686 
L 167.644865 210.822687 
L 167.921967 238.95546 
L 168.291435 277.81509 
L 168.383802 277.005508 
L 168.660904 256.604211 
L 170.323513 112.216259 
L 170.600615 108.208843 
L 170.692982 108.289809 
L 170.877716 109.261297 
L 171.339552 115.616481 
L 172.632692 137.636981 
L 173.648731 149.011526 
L 174.295302 153.42372 
L 175.496075 159.41459 
L 175.588442 159.495549 
L 175.865544 160.628956 
L 175.957911 160.588477 
L 176.327379 161.802841 
L 176.604481 162.410024 
L 177.989989 164.676838 
L 178.359457 165.122106 
L 178.636559 165.3245 
L 178.91366 165.445936 
L 179.190762 165.567373 
L 179.375496 165.769767 
L 179.560231 165.891203 
L 179.744965 166.01264 
L 179.837332 165.891203 
L 180.022066 166.01264 
L 180.114434 166.134076 
L 180.206801 166.053119 
L 180.299168 166.174555 
L 180.483902 166.053119 
L 181.038105 166.457907 
L 181.22284 166.538865 
L 181.499941 166.862695 
L 181.684676 166.781738 
L 181.961777 166.903174 
L 182.238879 167.348441 
L 182.331246 167.38892 
L 183.070183 168.80568 
L 183.624386 169.696214 
L 184.363324 173.015477 
L 184.917527 178.76347 
L 185.286995 186.57588 
L 185.564097 197.181326 
L 185.841198 215.153927 
L 186.1183 246.524992 
L 186.395401 277.24838 
L 186.487769 278.543707 
L 186.672503 268.181133 
L 188.058011 140.753848 
L 188.335112 117.518988 
L 188.612214 109.220815 
L 188.796948 108.168373 
L 188.889315 108.249326 
L 189.074049 109.747042 
L 189.443518 115.009301 
L 191.198494 142.858744 
L 192.122166 151.764085 
L 192.584002 154.273779 
L 193.230572 157.269213 
L 193.600041 159.171718 
L 194.154244 160.952786 
L 194.246611 161.033743 
L 194.893181 162.814813 
L 194.985549 162.855291 
L 195.355017 163.705347 
L 195.539752 163.745826 
L 195.816853 164.231572 
L 196.001587 164.353008 
L 196.740525 165.445936 
L 197.017626 165.526894 
L 197.109994 165.648331 
L 197.202361 165.526894 
L 197.479462 165.769767 
L 198.310767 166.134076 
L 198.403134 166.295992 
L 198.495501 166.134076 
L 198.680236 166.417428 
L 198.772603 166.255513 
L 198.86497 166.336471 
L 198.957337 166.255513 
L 199.142071 166.457907 
L 199.234439 166.417428 
L 199.788642 167.06509 
L 200.065743 167.024611 
L 200.250477 167.024611 
L 200.435212 167.429399 
L 200.804681 168.077061 
L 201.820719 169.979565 
L 202.097821 171.072493 
L 202.282555 171.760633 
L 202.929125 177.306232 
L 203.298594 183.459013 
L 203.575696 191.635737 
L 203.852797 205.398534 
L 204.129899 229.685811 
L 204.591735 279.19137 
L 204.684102 277.572218 
L 204.961203 256.361339 
L 206.71618 109.180344 
L 206.900914 107.52071 
L 206.993281 107.480227 
L 207.178015 108.613634 
L 207.547484 113.83541 
L 209.117726 140.227621 
L 209.949031 148.930573 
L 210.503234 153.42372 
L 210.872702 154.961919 
L 210.96507 155.204792 
L 211.426905 157.593043 
L 212.535312 161.640926 
L 213.089515 162.774334 
L 213.366616 163.381517 
L 213.736085 163.988698 
L 214.013186 164.353008 
L 214.382655 164.838755 
L 214.475022 164.757796 
L 214.752124 165.203064 
L 215.029225 165.567373 
L 215.398694 165.810246 
L 215.583428 166.053119 
L 215.768163 165.931682 
L 215.952897 166.01264 
L 216.322366 166.053119 
L 216.599467 166.255513 
L 216.784202 166.417428 
L 216.876569 166.660301 
L 216.968936 166.619822 
L 217.15367 166.619822 
L 217.338405 166.457907 
L 218.169709 167.227005 
L 218.262076 167.105568 
L 218.631545 167.591314 
L 218.723912 167.631793 
L 219.001014 168.198497 
L 219.46285 169.210467 
L 219.739951 169.655735 
L 220.386521 171.841591 
L 220.848357 174.796545 
L 221.217826 179.370657 
L 221.587295 187.344979 
L 221.864396 198.112345 
L 222.141498 216.368288 
L 222.418599 248.791807 
L 222.695701 278.665143 
L 222.788068 279.272323 
L 222.972802 268.626407 
L 224.173575 162.652898 
L 224.543044 122.376443 
L 224.820146 110.232786 
L 225.00488 107.723099 
L 225.097247 107.439744 
L 225.189614 107.561192 
L 225.374349 109.018425 
L 225.836185 116.264144 
L 227.406427 141.927738 
L 227.96063 147.959084 
L 229.069036 155.407186 
L 229.90034 159.252675 
L 230.085075 159.738421 
L 230.731645 161.681405 
L 231.008746 162.329066 
L 231.285848 162.814813 
L 231.655317 163.543432 
L 232.578988 164.960191 
L 232.671355 165.00067 
L 232.671355 165.00067 
" clip-path="url(#p044283c31a)" style="fill: none; stroke: #333333; stroke-width: 0.8; stroke-linecap: square"/>
   </g>
   <g id="line2d_16">
    <path d="M 232.671355 167.793708 
L 232.763723 167.75323 
L 232.948457 167.955623 
L 233.040824 167.793708 
L 233.225559 167.996102 
L 233.50266 168.198497 
L 233.687394 168.279455 
L 234.611066 170.424833 
L 234.980535 172.610688 
L 235.350004 176.253783 
L 235.627105 181.43507 
L 235.904207 190.704719 
L 236.181308 209.527373 
L 236.366042 237.862523 
L 236.550777 265.064278 
L 236.643144 264.214213 
L 237.474449 213.534776 
L 237.843917 198.760008 
L 238.028652 185.806781 
L 238.582855 136.017816 
L 238.859956 126.262423 
L 239.04469 124.23848 
L 239.137058 123.833689 
L 239.229425 123.955125 
L 239.414159 125.088532 
L 239.875995 130.836523 
L 241.076768 146.258967 
L 242.00044 154.476173 
L 243.29358 160.183688 
L 243.570682 160.871828 
L 244.586721 163.341038 
L 245.60276 164.555402 
L 245.695127 164.514923 
L 245.972228 164.919711 
L 246.803533 165.526894 
L 246.988267 165.607852 
L 247.173002 165.729288 
L 248.189041 166.498386 
L 248.927978 166.538865 
L 249.020345 166.781738 
L 249.112712 166.660301 
L 249.297447 166.984132 
L 249.389814 166.822217 
L 249.666915 166.943653 
L 249.759283 166.984132 
L 249.85165 166.862695 
L 249.944017 167.024611 
L 250.036384 166.943653 
L 250.221118 167.105568 
L 250.313486 166.984132 
L 250.49822 167.105568 
L 250.682954 167.06509 
L 250.867689 167.469878 
L 250.960056 167.469878 
L 251.052423 167.631793 
L 251.14479 167.510357 
L 251.329525 167.672272 
L 251.514259 167.793708 
L 251.606626 167.712751 
L 251.79136 167.955623 
L 251.883728 167.874666 
L 252.068462 168.077061 
L 252.437931 168.481848 
L 252.715032 168.967595 
L 252.992134 169.45334 
L 253.546337 172.084463 
L 253.823438 174.553673 
L 254.10054 178.520597 
L 254.377641 185.644874 
L 254.654743 199.367188 
L 254.931844 229.523892 
L 255.116579 257.494746 
L 255.208946 256.887553 
L 256.04025 209.405937 
L 256.409719 195.278832 
L 256.594453 182.325605 
L 257.056289 138.891824 
L 257.333391 126.181457 
L 257.610492 122.376443 
L 257.70286 122.093101 
L 257.887594 122.943153 
L 258.164695 125.938585 
L 260.196773 151.318824 
L 261.212812 157.674001 
L 261.582281 159.171718 
L 262.136484 160.588477 
L 262.321218 161.114702 
L 262.690687 162.20763 
L 262.783054 162.369545 
L 262.967788 162.936249 
L 263.060156 163.017207 
L 263.24489 163.341038 
L 263.614359 163.907741 
L 263.89146 163.988698 
L 264.076195 164.272051 
L 264.907499 165.203064 
L 265.276968 165.445936 
L 266.385374 166.295992 
L 266.477741 166.295992 
L 266.662475 166.376949 
L 266.754843 166.295992 
L 266.939577 166.417428 
L 267.031944 166.376949 
L 267.216678 166.457907 
L 267.309046 166.457907 
L 267.49378 166.579344 
L 267.586147 166.579344 
L 267.770882 166.741259 
L 267.863249 166.741259 
L 267.955616 166.943653 
L 268.047983 166.781738 
L 268.14035 166.943653 
L 268.417452 166.822217 
L 268.509819 166.781738 
L 268.78692 166.984132 
L 268.879288 166.984132 
L 269.064022 167.06509 
L 269.156389 167.024611 
L 270.080061 167.712751 
L 270.264795 167.793708 
L 270.357162 167.874666 
L 270.44953 167.75323 
L 271.557936 169.372382 
L 272.112139 172.24638 
L 272.481607 175.768037 
L 272.758709 180.463581 
L 273.128178 193.983506 
L 273.405279 217.339777 
L 273.682381 258.142397 
L 273.774748 256.968519 
L 274.606052 209.405937 
L 274.975521 194.914524 
L 275.160255 181.758908 
L 275.622091 138.284631 
L 275.899193 125.736195 
L 276.176294 122.174054 
L 276.268662 122.012135 
L 276.361029 122.133571 
L 276.545763 123.590817 
L 277.377068 134.884409 
L 277.931271 142.453953 
L 278.577841 149.578236 
L 279.501513 156.257241 
L 280.24045 159.495549 
L 281.071755 161.51949 
L 281.53359 162.733855 
L 281.903059 163.381517 
L 282.457262 163.948219 
L 282.919098 164.676838 
L 283.011465 164.676838 
L 283.473301 165.122106 
L 283.658035 165.203064 
L 283.935137 165.405458 
L 284.951176 166.295992 
L 285.13591 166.255513 
L 285.228277 166.295992 
L 285.320645 166.134076 
L 285.505379 166.295992 
L 285.690113 166.255513 
L 285.874848 166.538865 
L 285.967215 166.70078 
L 286.059582 166.457907 
L 286.244316 166.619822 
L 286.336683 166.619822 
L 286.429051 166.862695 
L 286.521418 166.660301 
L 286.890887 166.862695 
L 286.983254 166.903174 
L 287.167988 166.660301 
L 287.814558 167.105568 
L 288.184027 167.348441 
L 288.368761 167.510357 
L 288.461128 167.469878 
L 288.645863 167.631793 
L 288.73823 167.591314 
L 288.922964 167.874666 
L 289.015331 167.712751 
L 289.292433 168.036582 
L 289.3848 168.117538 
L 289.569535 168.44137 
L 289.754269 168.562806 
L 290.03137 169.089031 
L 290.955042 174.472715 
L 291.324511 180.504064 
L 291.601612 189.611794 
L 291.878714 207.746302 
L 292.248183 258.628141 
L 292.34055 257.008989 
L 293.079487 211.025089 
L 293.264221 206.208103 
L 293.541323 194.712122 
L 293.726057 181.354117 
L 294.187893 137.758417 
L 294.464995 125.493323 
L 294.742096 122.052618 
L 294.834463 121.850229 
L 294.926831 122.093101 
L 295.203932 124.643271 
L 297.23601 150.468771 
L 298.621518 158.847887 
L 299.360455 160.628956 
L 300.007025 162.652898 
L 300.099392 162.733855 
L 300.468861 163.421995 
L 300.561228 163.421995 
L 300.83833 163.705347 
L 300.930697 163.745826 
L 301.669634 164.838755 
L 301.946736 165.081627 
L 302.408572 165.364979 
L 302.685673 165.567373 
L 302.870408 165.729288 
L 303.516978 166.215034 
L 303.609345 166.174555 
L 303.794079 166.255513 
L 303.978814 166.174555 
L 305.456688 166.781738 
L 305.641423 166.660301 
L 306.010891 166.984132 
L 306.38036 167.06509 
L 306.565095 167.227005 
L 306.657462 167.307962 
L 306.842196 167.227005 
L 307.02693 167.38892 
L 307.119298 167.38892 
L 307.304032 167.510357 
L 307.581133 167.712751 
L 307.858235 167.915145 
L 308.68954 169.12951 
L 309.243743 172.124943 
L 309.705578 177.103838 
L 309.98268 183.013751 
L 310.259781 194.550203 
L 310.536883 218.837492 
L 310.813985 258.668624 
L 310.906352 256.725647 
L 311.645289 211.267961 
L 311.922391 203.010283 
L 312.199492 189.328439 
L 312.93843 127.841092 
L 313.215531 122.255007 
L 313.400265 121.48592 
L 313.585 122.538362 
L 313.862101 125.736195 
L 315.617078 148.809137 
L 316.817851 157.188254 
L 317.372054 159.212196 
L 318.942296 163.098164 
L 319.496499 163.664868 
L 320.143069 164.63636 
L 320.512538 164.879232 
L 320.882006 165.243542 
L 321.066741 165.284021 
L 321.620944 165.891203 
L 321.713311 165.891203 
L 321.990413 166.093598 
L 322.636983 166.174555 
L 322.914084 166.498386 
L 323.006451 166.336471 
L 323.283553 166.538865 
L 323.37592 166.498386 
L 323.468287 166.660301 
L 323.745389 166.417428 
L 323.930123 166.538865 
L 324.02249 166.619822 
L 324.207225 166.538865 
L 324.576693 166.862695 
L 324.669061 166.903174 
L 324.853795 166.822217 
L 324.946162 166.741259 
L 325.223264 167.06509 
L 325.6851 167.307962 
L 326.054568 167.793708 
L 326.33167 167.834187 
L 326.885873 168.360412 
L 327.070607 168.684242 
L 327.255341 169.210467 
L 327.62481 170.870099 
L 328.179013 175.727558 
L 328.456115 180.66597 
L 328.733216 190.097539 
L 329.010318 208.92018 
L 329.379786 258.911496 
L 329.472154 256.725647 
L 330.211091 211.146525 
L 330.488193 203.010283 
L 330.765294 188.842695 
L 331.504231 127.638702 
L 331.781333 122.093101 
L 331.8737 121.526391 
L 331.966067 121.647827 
L 332.058435 121.850229 
L 332.335536 124.562305 
L 332.889739 132.374722 
L 334.367614 150.06398 
L 335.014184 154.800003 
L 335.383653 157.026339 
L 336.12259 159.576506 
L 336.676793 161.033743 
L 337.230996 162.693376 
L 337.415731 162.774334 
L 337.692832 163.2196 
L 338.154668 163.745826 
L 338.524137 164.433966 
L 338.708871 164.555402 
L 338.985973 164.798275 
L 339.07834 164.798275 
L 339.263074 164.919711 
L 339.909644 165.607852 
L 340.556214 166.053119 
L 340.648582 166.01264 
L 340.833316 166.053119 
L 340.925683 165.972161 
L 341.295152 166.215034 
L 341.479886 166.134076 
L 341.756988 166.417428 
L 341.849355 166.376949 
L 341.941722 166.457907 
L 342.034089 166.376949 
L 342.126456 166.457907 
L 342.311191 166.417428 
L 342.403558 166.498386 
L 342.588292 166.336471 
L 342.680659 166.417428 
L 342.773027 166.336471 
L 342.957761 166.741259 
L 343.050128 166.579344 
L 343.142495 166.70078 
L 343.32723 166.579344 
L 343.511964 166.943653 
L 343.696698 166.822217 
L 343.9738 166.741259 
L 344.250901 167.348441 
L 344.343269 167.348441 
L 344.62037 167.550835 
L 344.712737 167.550835 
L 344.897472 167.631793 
L 344.989839 167.672272 
L 345.26694 168.036582 
L 345.359308 167.996102 
L 345.728776 168.80568 
L 346.282979 171.436803 
L 346.652448 174.432235 
L 346.929549 178.642034 
L 347.206651 186.171089 
L 347.483753 201.229212 
L 347.760854 234.219441 
L 347.945588 259.35677 
L 348.037956 256.563728 
L 348.684526 212.522804 
L 348.961627 205.924748 
L 349.238729 194.145425 
L 349.423463 179.694482 
L 349.885299 136.382137 
L 350.162401 124.602788 
L 350.347135 121.890699 
L 350.531869 121.404955 
L 350.716604 122.416926 
L 351.270807 129.37929 
L 352.656314 147.47334 
L 353.302884 152.897493 
L 354.226556 158.159747 
L 355.150228 160.831349 
L 355.612064 162.086194 
L 356.166267 163.098164 
L 356.258634 162.976728 
L 356.443368 163.341038 
L 357.644142 164.838755 
L 357.736509 164.798275 
L 359.029649 165.972161 
L 359.214384 165.891203 
L 359.399118 166.01264 
L 359.676219 165.972161 
L 359.768587 166.093598 
L 359.860954 165.972161 
L 360.230423 166.174555 
L 360.692258 166.336471 
L 360.784626 166.295992 
L 360.96936 166.053119 
L 361.431196 166.457907 
L 361.523563 166.134076 
L 361.708297 166.579344 
L 361.985399 166.457907 
L 362.077766 166.498386 
L 362.354868 166.943653 
L 362.447235 166.862695 
L 362.539602 166.538865 
L 362.909071 167.186526 
L 363.001438 167.105568 
L 363.186172 167.429399 
L 363.278539 167.348441 
L 363.370906 167.510357 
L 363.463274 167.429399 
L 363.648008 167.550835 
L 363.740375 167.469878 
L 364.294578 168.603285 
L 365.125883 173.460744 
L 365.402984 176.901444 
L 365.680086 183.256623 
L 365.957187 195.197866 
L 366.234289 220.375691 
L 366.51139 259.154368 
L 366.603758 256.19942 
L 367.250328 212.522804 
L 367.527429 205.762842 
L 367.804531 193.781116 
L 367.989265 179.0873 
L 368.451101 135.936863 
L 368.728203 124.359916 
L 369.005304 121.364472 
L 369.097671 121.1216 
L 369.282406 122.376443 
L 369.744241 128.043493 
L 371.222116 147.392374 
L 372.330522 155.690537 
L 373.06946 158.483577 
L 373.346561 159.050281 
L 373.438928 159.171718 
L 373.531296 160.10273 
L 373.623663 160.062252 
L 373.993131 161.398053 
L 374.085499 161.479011 
L 374.270233 162.045715 
L 374.3626 161.843321 
L 374.454967 162.369545 
L 374.547334 162.288588 
L 374.639702 162.369545 
L 374.824436 163.138643 
L 374.916803 162.814813 
L 375.00917 163.179122 
L 375.101538 162.976728 
L 375.378639 163.786304 
L 375.563373 164.029177 
L 375.748108 164.272051 
L 375.840475 164.231572 
L 375.932842 164.393487 
L 376.025209 164.272051 
L 376.117576 164.595881 
L 376.209944 164.514923 
L 376.302311 164.757796 
L 376.394678 164.676838 
L 376.579412 164.960191 
L 377.041248 165.486415 
L 377.133615 165.445936 
L 377.225982 165.607852 
L 377.31835 165.526894 
L 377.410717 165.729288 
L 377.595451 165.486415 
L 377.687818 165.729288 
L 377.780186 165.648331 
L 377.96492 165.891203 
L 378.149654 165.810246 
L 378.426756 166.01264 
L 378.703857 166.053119 
L 378.888592 166.053119 
L 378.980959 165.931682 
L 379.25806 166.134076 
L 379.535162 165.972161 
L 379.719896 166.053119 
L 379.812263 166.134076 
L 379.996998 166.053119 
L 380.181732 166.457907 
L 380.274099 166.498386 
L 380.458834 166.457907 
L 380.643568 166.417428 
L 380.735935 166.457907 
L 380.920669 166.741259 
L 381.013037 166.781738 
L 381.105404 166.619822 
L 381.382505 167.105568 
L 381.474872 166.903174 
L 381.659607 167.38892 
L 381.751974 167.024611 
L 381.844341 167.429399 
L 382.029076 167.267484 
L 382.121443 167.186526 
L 382.675646 168.077061 
L 383.414583 171.396324 
L 383.784052 174.229841 
L 384.061153 178.682512 
L 384.338255 186.494927 
L 384.615356 201.917358 
L 384.892458 235.960029 
L 385.077192 259.478206 
L 385.261927 249.237068 
L 385.81613 212.198966 
L 386.000864 208.474918 
L 386.370333 193.376325 
L 386.555067 178.43964 
L 387.016903 135.653508 
L 387.294004 123.955125 
L 387.571106 121.243036 
L 387.663473 121.202565 
L 387.940575 123.186025 
L 388.587145 131.808024 
L 389.326082 142.332517 
L 389.972652 148.89009 
L 390.526856 153.464203 
L 390.71159 154.476173 
L 391.173426 157.188254 
L 391.819996 159.131239 
L 391.912363 159.171718 
L 392.281832 160.507519 
L 392.558933 161.357575 
L 392.928402 162.248109 
L 393.205504 162.57194 
L 393.482605 163.057685 
L 393.574972 162.976728 
L 393.852074 163.58391 
L 393.944441 163.624389 
L 394.31391 164.191093 
L 394.683378 164.433966 
L 395.145214 164.960191 
L 395.422316 165.243542 
L 395.514683 165.243542 
L 395.976519 165.688809 
L 396.715456 165.769767 
L 396.992558 165.972161 
L 397.084925 165.891203 
L 397.269659 165.972161 
L 397.454394 165.850725 
L 398.008597 166.01264 
L 398.193331 166.01264 
L 398.285698 166.053119 
L 398.378065 166.255513 
L 398.470432 166.174555 
L 398.655167 166.336471 
L 398.932268 166.255513 
L 399.117003 166.215034 
L 399.486471 166.538865 
L 399.578839 166.376949 
L 399.671206 166.70078 
L 399.763573 166.660301 
L 400.040674 167.06509 
L 400.133042 167.024611 
L 400.317776 167.307962 
L 400.410143 167.146047 
L 400.594877 167.469878 
L 400.687245 167.227005 
L 401.426182 168.643764 
L 401.703284 169.777171 
L 402.072752 171.679676 
L 402.442221 175.565643 
L 402.81169 183.580449 
L 403.088791 195.886012 
L 403.365893 222.116279 
L 403.642994 259.316287 
L 403.827729 248.670371 
L 404.381932 212.320402 
L 404.566666 208.596355 
L 404.936135 193.012017 
L 405.120869 177.549105 
L 405.582705 135.086811 
L 405.859806 123.995608 
L 406.044541 121.607357 
L 406.229275 121.202565 
L 406.506377 123.266979 
L 407.430048 135.936863 
L 408.261353 146.339932 
L 409.00029 152.776057 
L 409.923962 157.957353 
L 410.201064 158.605014 
L 410.940001 161.074223 
L 411.30947 162.126672 
L 411.586571 162.329066 
L 412.048407 163.138643 
L 412.417876 163.745826 
L 412.694977 164.191093 
L 413.156813 164.474445 
L 413.24918 164.514923 
L 413.433915 164.757796 
L 413.803383 165.203064 
L 414.265219 165.648331 
L 414.819422 165.729288 
L 415.004157 165.810246 
L 415.281258 165.891203 
L 415.373625 166.01264 
L 415.55836 165.931682 
L 415.650727 165.931682 
L 415.835461 166.053119 
L 415.927828 165.891203 
L 416.20493 166.134076 
L 416.389664 166.053119 
L 416.666766 166.134076 
L 416.8515 166.295992 
L 417.128602 166.215034 
L 417.220969 166.417428 
L 417.313336 166.336471 
L 417.313336 166.336471 
" clip-path="url(#p044283c31a)" style="fill: none; stroke: #d94452; stroke-width: 0.8; stroke-linecap: square"/>
   </g>
   <g id="text_17">
    <g id="patch_7">
     <path d="M 81.650365 298.834188 
L 199.050365 298.834188 
Q 202.050365 298.834188 202.050365 295.834188 
L 202.050365 285.234188 
Q 202.050365 282.234188 199.050365 282.234188 
L 81.650365 282.234188 
Q 78.650365 282.234188 78.650365 285.234188 
L 78.650365 295.834188 
Q 78.650365 298.834188 81.650365 298.834188 
z
" style="fill: #ffffff; opacity: 0.85; stroke: #333333; stroke-linejoin: miter"/>
    </g>
    <!-- I$_{p-p}$ = 3.42E-03 mA/m² -->
    <g style="fill: #333333" transform="translate(81.650365 292.734188) scale(0.1 -0.1)">
     <defs>
      <path id="DejaVuSans-49" d="M 628 4666 
L 1259 4666 
L 1259 0 
L 628 0 
L 628 4666 
z
" transform="scale(0.015625)"/>
      <path id="DejaVuSans-Oblique-70" d="M 3175 2156 
Q 3175 2616 2975 2859 
Q 2775 3103 2400 3103 
Q 2144 3103 1911 2972 
Q 1678 2841 1497 2591 
Q 1319 2344 1212 1994 
Q 1106 1644 1106 1300 
Q 1106 863 1306 627 
Q 1506 391 1875 391 
Q 2147 391 2380 519 
Q 2613 647 2778 891 
Q 2956 1147 3065 1494 
Q 3175 1841 3175 2156 
z
M 1394 2969 
Q 1625 3272 1939 3428 
Q 2253 3584 2638 3584 
Q 3175 3584 3472 3232 
Q 3769 2881 3769 2247 
Q 3769 1728 3584 1258 
Q 3400 788 3053 416 
Q 2822 169 2531 39 
Q 2241 -91 1919 -91 
Q 1547 -91 1294 64 
Q 1041 219 916 525 
L 556 -1331 
L -19 -1331 
L 922 3500 
L 1497 3500 
L 1394 2969 
z
" transform="scale(0.015625)"/>
      <path id="DejaVuSans-20" transform="scale(0.015625)"/>
      <path id="DejaVuSans-3d" d="M 678 2906 
L 4684 2906 
L 4684 2381 
L 678 2381 
L 678 2906 
z
M 678 1631 
L 4684 1631 
L 4684 1100 
L 678 1100 
L 678 1631 
z
" transform="scale(0.015625)"/>
      <path id="DejaVuSans-34" d="M 2419 4116 
L 825 1625 
L 2419 1625 
L 2419 4116 
z
M 2253 4666 
L 3047 4666 
L 3047 1625 
L 3713 1625 
L 3713 1100 
L 3047 1100 
L 3047 0 
L 2419 0 
L 2419 1100 
L 313 1100 
L 313 1709 
L 2253 4666 
z
" transform="scale(0.015625)"/>
      <path id="DejaVuSans-45" d="M 628 4666 
L 3578 4666 
L 3578 4134 
L 1259 4134 
L 1259 2753 
L 3481 2753 
L 3481 2222 
L 1259 2222 
L 1259 531 
L 3634 531 
L 3634 0 
L 628 0 
L 628 4666 
z
" transform="scale(0.015625)"/>
      <path id="DejaVuSans-2d" d="M 313 2009 
L 1997 2009 
L 1997 1497 
L 313 1497 
L 313 2009 
z
" transform="scale(0.015625)"/>
      <path id="DejaVuSans-6d" d="M 3328 2828 
Q 3544 3216 3844 3400 
Q 4144 3584 4550 3584 
Q 5097 3584 5394 3201 
Q 5691 2819 5691 2113 
L 5691 0 
L 5113 0 
L 5113 2094 
Q 5113 2597 4934 2840 
Q 4756 3084 4391 3084 
Q 3944 3084 3684 2787 
Q 3425 2491 3425 1978 
L 3425 0 
L 2847 0 
L 2847 2094 
Q 2847 2600 2669 2842 
Q 2491 3084 2119 3084 
Q 1678 3084 1418 2786 
Q 1159 2488 1159 1978 
L 1159 0 
L 581 0 
L 581 3500 
L 1159 3500 
L 1159 2956 
Q 1356 3278 1631 3431 
Q 1906 3584 2284 3584 
Q 2666 3584 2933 3390 
Q 3200 3197 3328 2828 
z
" transform="scale(0.015625)"/>
      <path id="DejaVuSans-41" d="M 2188 4044 
L 1331 1722 
L 3047 1722 
L 2188 4044 
z
M 1831 4666 
L 2547 4666 
L 4325 0 
L 3669 0 
L 3244 1197 
L 1141 1197 
L 716 0 
L 50 0 
L 1831 4666 
z
" transform="scale(0.015625)"/>
      <path id="DejaVuSans-2f" d="M 1625 4666 
L 2156 4666 
L 531 -594 
L 0 -594 
L 1625 4666 
z
" transform="scale(0.015625)"/>
      <path id="DejaVuSans-b2" d="M 838 2444 
L 2163 2444 
L 2163 2088 
L 294 2088 
L 294 2431 
Q 400 2528 597 2703 
Q 1672 3656 1672 3950 
Q 1672 4156 1509 4282 
Q 1347 4409 1081 4409 
Q 919 4409 728 4354 
Q 538 4300 313 4191 
L 313 4575 
Q 553 4663 761 4706 
Q 969 4750 1147 4750 
Q 1600 4750 1872 4544 
Q 2144 4338 2144 4000 
Q 2144 3566 1109 2678 
Q 934 2528 838 2444 
z
" transform="scale(0.015625)"/>
     </defs>
     <use xlink:href="#DejaVuSans-49" transform="translate(0 0.78125)"/>
     <use xlink:href="#DejaVuSans-Oblique-70" transform="translate(30.449219 -15.625) scale(0.7)"/>
     <use xlink:href="#DejaVuSans-2212" transform="translate(88.520508 -15.625) scale(0.7)"/>
     <use xlink:href="#DejaVuSans-Oblique-70" transform="translate(160.810547 -15.625) scale(0.7)"/>
     <use xlink:href="#DejaVuSans-20" transform="translate(207.978516 0.78125)"/>
     <use xlink:href="#DejaVuSans-3d" transform="translate(239.765625 0.78125)"/>
     <use xlink:href="#DejaVuSans-20" transform="translate(323.554688 0.78125)"/>
     <use xlink:href="#DejaVuSans-33" transform="translate(355.341797 0.78125)"/>
     <use xlink:href="#DejaVuSans-2e" transform="translate(418.964844 0.78125)"/>
     <use xlink:href="#DejaVuSans-34" transform="translate(450.751953 0.78125)"/>
     <use xlink:href="#DejaVuSans-32" transform="translate(514.375 0.78125)"/>
     <use xlink:href="#DejaVuSans-45" transform="translate(577.998047 0.78125)"/>
     <use xlink:href="#DejaVuSans-2d" transform="translate(641.181641 0.78125)"/>
     <use xlink:href="#DejaVuSans-30" transform="translate(677.265625 0.78125)"/>
     <use xlink:href="#DejaVuSans-33" transform="translate(740.888672 0.78125)"/>
     <use xlink:href="#DejaVuSans-20" transform="translate(804.511719 0.78125)"/>
     <use xlink:href="#DejaVuSans-6d" transform="translate(836.298828 0.78125)"/>
     <use xlink:href="#DejaVuSans-41" transform="translate(933.710938 0.78125)"/>
     <use xlink:href="#DejaVuSans-2f" transform="translate(1002.119141 0.78125)"/>
     <use xlink:href="#DejaVuSans-6d" transform="translate(1035.810547 0.78125)"/>
     <use xlink:href="#DejaVuSans-b2" transform="translate(1133.222656 0.78125)"/>
    </g>
   </g>
   <g id="text_18">
    <g id="patch_8">
     <path d="M 266.442346 298.834188 
L 383.542346 298.834188 
Q 386.542346 298.834188 386.542346 295.834188 
L 386.542346 285.234188 
Q 386.542346 282.234188 383.542346 282.234188 
L 266.442346 282.234188 
Q 263.442346 282.234188 263.442346 285.234188 
L 263.442346 295.834188 
Q 263.442346 298.834188 266.442346 298.834188 
z
" style="fill: #ffffff; opacity: 0.85; stroke: #d94452; stroke-linejoin: miter"/>
    </g>
    <!-- I$_{p-p}$ = 2.86E-03 mA/m² -->
    <g style="fill: #d94452" transform="translate(266.442346 292.734188) scale(0.1 -0.1)">
     <defs>
      <path id="DejaVuSans-38" d="M 2034 2216 
Q 1584 2216 1326 1975 
Q 1069 1734 1069 1313 
Q 1069 891 1326 650 
Q 1584 409 2034 409 
Q 2484 409 2743 651 
Q 3003 894 3003 1313 
Q 3003 1734 2745 1975 
Q 2488 2216 2034 2216 
z
M 1403 2484 
Q 997 2584 770 2862 
Q 544 3141 544 3541 
Q 544 4100 942 4425 
Q 1341 4750 2034 4750 
Q 2731 4750 3128 4425 
Q 3525 4100 3525 3541 
Q 3525 3141 3298 2862 
Q 3072 2584 2669 2484 
Q 3125 2378 3379 2068 
Q 3634 1759 3634 1313 
Q 3634 634 3220 271 
Q 2806 -91 2034 -91 
Q 1263 -91 848 271 
Q 434 634 434 1313 
Q 434 1759 690 2068 
Q 947 2378 1403 2484 
z
M 1172 3481 
Q 1172 3119 1398 2916 
Q 1625 2713 2034 2713 
Q 2441 2713 2670 2916 
Q 2900 3119 2900 3481 
Q 2900 3844 2670 4047 
Q 2441 4250 2034 4250 
Q 1625 4250 1398 4047 
Q 1172 3844 1172 3481 
z
" transform="scale(0.015625)"/>
      <path id="DejaVuSans-36" d="M 2113 2584 
Q 1688 2584 1439 2293 
Q 1191 2003 1191 1497 
Q 1191 994 1439 701 
Q 1688 409 2113 409 
Q 2538 409 2786 701 
Q 3034 994 3034 1497 
Q 3034 2003 2786 2293 
Q 2538 2584 2113 2584 
z
M 3366 4563 
L 3366 3988 
Q 3128 4100 2886 4159 
Q 2644 4219 2406 4219 
Q 1781 4219 1451 3797 
Q 1122 3375 1075 2522 
Q 1259 2794 1537 2939 
Q 1816 3084 2150 3084 
Q 2853 3084 3261 2657 
Q 3669 2231 3669 1497 
Q 3669 778 3244 343 
Q 2819 -91 2113 -91 
Q 1303 -91 875 529 
Q 447 1150 447 2328 
Q 447 3434 972 4092 
Q 1497 4750 2381 4750 
Q 2619 4750 2861 4703 
Q 3103 4656 3366 4563 
z
" transform="scale(0.015625)"/>
     </defs>
     <use xlink:href="#DejaVuSans-49" transform="translate(0 0.78125)"/>
     <use xlink:href="#DejaVuSans-Oblique-70" transform="translate(30.449219 -15.625) scale(0.7)"/>
     <use xlink:href="#DejaVuSans-2212" transform="translate(88.520508 -15.625) scale(0.7)"/>
     <use xlink:href="#DejaVuSans-Oblique-70" transform="translate(160.810547 -15.625) scale(0.7)"/>
     <use xlink:href="#DejaVuSans-20" transform="translate(207.978516 0.78125)"/>
     <use xlink:href="#DejaVuSans-3d" transform="translate(239.765625 0.78125)"/>
     <use xlink:href="#DejaVuSans-20" transform="translate(323.554688 0.78125)"/>
     <use xlink:href="#DejaVuSans-32" transform="translate(355.341797 0.78125)"/>
     <use xlink:href="#DejaVuSans-2e" transform="translate(418.964844 0.78125)"/>
     <use xlink:href="#DejaVuSans-38" transform="translate(448.126953 0.78125)"/>
     <use xlink:href="#DejaVuSans-36" transform="translate(511.75 0.78125)"/>
     <use xlink:href="#DejaVuSans-45" transform="translate(575.373047 0.78125)"/>
     <use xlink:href="#DejaVuSans-2d" transform="translate(638.556641 0.78125)"/>
     <use xlink:href="#DejaVuSans-30" transform="translate(674.640625 0.78125)"/>
     <use xlink:href="#DejaVuSans-33" transform="translate(738.263672 0.78125)"/>
     <use xlink:href="#DejaVuSans-20" transform="translate(801.886719 0.78125)"/>
     <use xlink:href="#DejaVuSans-6d" transform="translate(833.673828 0.78125)"/>
     <use xlink:href="#DejaVuSans-41" transform="translate(931.085938 0.78125)"/>
     <use xlink:href="#DejaVuSans-2f" transform="translate(999.494141 0.78125)"/>
     <use xlink:href="#DejaVuSans-6d" transform="translate(1033.185547 0.78125)"/>
     <use xlink:href="#DejaVuSans-b2" transform="translate(1130.597656 0.78125)"/>
    </g>
   </g>
   <g id="text_19">
    <!-- Short-Circuit Current | f = 5 Hz -->
    <g transform="translate(145.959637 14.842187) scale(0.1 -0.1)">
     <defs>
      <path id="DejaVuSans-Bold-53" d="M 3834 4519 
L 3834 3531 
Q 3450 3703 3084 3790 
Q 2719 3878 2394 3878 
Q 1963 3878 1756 3759 
Q 1550 3641 1550 3391 
Q 1550 3203 1689 3098 
Q 1828 2994 2194 2919 
L 2706 2816 
Q 3484 2659 3812 2340 
Q 4141 2022 4141 1434 
Q 4141 663 3683 286 
Q 3225 -91 2284 -91 
Q 1841 -91 1394 -6 
Q 947 78 500 244 
L 500 1259 
Q 947 1022 1364 901 
Q 1781 781 2169 781 
Q 2563 781 2772 912 
Q 2981 1044 2981 1288 
Q 2981 1506 2839 1625 
Q 2697 1744 2272 1838 
L 1806 1941 
Q 1106 2091 782 2419 
Q 459 2747 459 3303 
Q 459 4000 909 4375 
Q 1359 4750 2203 4750 
Q 2588 4750 2994 4692 
Q 3400 4634 3834 4519 
z
" transform="scale(0.015625)"/>
      <path id="DejaVuSans-Bold-68" d="M 4056 2131 
L 4056 0 
L 2931 0 
L 2931 347 
L 2931 1625 
Q 2931 2084 2911 2256 
Q 2891 2428 2841 2509 
Q 2775 2619 2662 2680 
Q 2550 2741 2406 2741 
Q 2056 2741 1856 2470 
Q 1656 2200 1656 1722 
L 1656 0 
L 538 0 
L 538 4863 
L 1656 4863 
L 1656 2988 
Q 1909 3294 2193 3439 
Q 2478 3584 2822 3584 
Q 3428 3584 3742 3212 
Q 4056 2841 4056 2131 
z
" transform="scale(0.015625)"/>
      <path id="DejaVuSans-Bold-6f" d="M 2203 2784 
Q 1831 2784 1636 2517 
Q 1441 2250 1441 1747 
Q 1441 1244 1636 976 
Q 1831 709 2203 709 
Q 2569 709 2762 976 
Q 2956 1244 2956 1747 
Q 2956 2250 2762 2517 
Q 2569 2784 2203 2784 
z
M 2203 3584 
Q 3106 3584 3614 3096 
Q 4122 2609 4122 1747 
Q 4122 884 3614 396 
Q 3106 -91 2203 -91 
Q 1297 -91 786 396 
Q 275 884 275 1747 
Q 275 2609 786 3096 
Q 1297 3584 2203 3584 
z
" transform="scale(0.015625)"/>
      <path id="DejaVuSans-Bold-72" d="M 3138 2547 
Q 2991 2616 2845 2648 
Q 2700 2681 2553 2681 
Q 2122 2681 1889 2404 
Q 1656 2128 1656 1613 
L 1656 0 
L 538 0 
L 538 3500 
L 1656 3500 
L 1656 2925 
Q 1872 3269 2151 3426 
Q 2431 3584 2822 3584 
Q 2878 3584 2943 3579 
Q 3009 3575 3134 3559 
L 3138 2547 
z
" transform="scale(0.015625)"/>
      <path id="DejaVuSans-Bold-74" d="M 1759 4494 
L 1759 3500 
L 2913 3500 
L 2913 2700 
L 1759 2700 
L 1759 1216 
Q 1759 972 1856 886 
Q 1953 800 2241 800 
L 2816 800 
L 2816 0 
L 1856 0 
Q 1194 0 917 276 
Q 641 553 641 1216 
L 641 2700 
L 84 2700 
L 84 3500 
L 641 3500 
L 641 4494 
L 1759 4494 
z
" transform="scale(0.015625)"/>
      <path id="DejaVuSans-Bold-2d" d="M 347 2297 
L 2309 2297 
L 2309 1388 
L 347 1388 
L 347 2297 
z
" transform="scale(0.015625)"/>
      <path id="DejaVuSans-Bold-43" d="M 4288 256 
Q 3956 84 3597 -3 
Q 3238 -91 2847 -91 
Q 1681 -91 1000 561 
Q 319 1213 319 2328 
Q 319 3447 1000 4098 
Q 1681 4750 2847 4750 
Q 3238 4750 3597 4662 
Q 3956 4575 4288 4403 
L 4288 3438 
Q 3953 3666 3628 3772 
Q 3303 3878 2944 3878 
Q 2300 3878 1931 3465 
Q 1563 3053 1563 2328 
Q 1563 1606 1931 1193 
Q 2300 781 2944 781 
Q 3303 781 3628 887 
Q 3953 994 4288 1222 
L 4288 256 
z
" transform="scale(0.015625)"/>
      <path id="DejaVuSans-Bold-63" d="M 3366 3391 
L 3366 2478 
Q 3138 2634 2908 2709 
Q 2678 2784 2431 2784 
Q 1963 2784 1702 2511 
Q 1441 2238 1441 1747 
Q 1441 1256 1702 982 
Q 1963 709 2431 709 
Q 2694 709 2930 787 
Q 3166 866 3366 1019 
L 3366 103 
Q 3103 6 2833 -42 
Q 2563 -91 2291 -91 
Q 1344 -91 809 395 
Q 275 881 275 1747 
Q 275 2613 809 3098 
Q 1344 3584 2291 3584 
Q 2566 3584 2833 3536 
Q 3100 3488 3366 3391 
z
" transform="scale(0.015625)"/>
      <path id="DejaVuSans-Bold-75" d="M 500 1363 
L 500 3500 
L 1625 3500 
L 1625 3150 
Q 1625 2866 1622 2436 
Q 1619 2006 1619 1863 
Q 1619 1441 1641 1255 
Q 1663 1069 1716 984 
Q 1784 875 1895 815 
Q 2006 756 2150 756 
Q 2500 756 2700 1025 
Q 2900 1294 2900 1772 
L 2900 3500 
L 4019 3500 
L 4019 0 
L 2900 0 
L 2900 506 
Q 2647 200 2364 54 
Q 2081 -91 1741 -91 
Q 1134 -91 817 281 
Q 500 653 500 1363 
z
" transform="scale(0.015625)"/>
      <path id="DejaVuSans-Bold-6e" d="M 4056 2131 
L 4056 0 
L 2931 0 
L 2931 347 
L 2931 1631 
Q 2931 2084 2911 2256 
Q 2891 2428 2841 2509 
Q 2775 2619 2662 2680 
Q 2550 2741 2406 2741 
Q 2056 2741 1856 2470 
Q 1656 2200 1656 1722 
L 1656 0 
L 538 0 
L 538 3500 
L 1656 3500 
L 1656 2988 
Q 1909 3294 2193 3439 
Q 2478 3584 2822 3584 
Q 3428 3584 3742 3212 
Q 4056 2841 4056 2131 
z
" transform="scale(0.015625)"/>
      <path id="DejaVuSans-Bold-7c" d="M 1522 4891 
L 1522 -1509 
L 813 -1509 
L 813 4891 
L 1522 4891 
z
" transform="scale(0.015625)"/>
      <path id="DejaVuSans-Bold-66" d="M 2841 4863 
L 2841 4128 
L 2222 4128 
Q 1984 4128 1890 4042 
Q 1797 3956 1797 3744 
L 1797 3500 
L 2753 3500 
L 2753 2700 
L 1797 2700 
L 1797 0 
L 678 0 
L 678 2700 
L 122 2700 
L 122 3500 
L 678 3500 
L 678 3744 
Q 678 4316 997 4589 
Q 1316 4863 1984 4863 
L 2841 4863 
z
" transform="scale(0.015625)"/>
      <path id="DejaVuSans-Bold-3d" d="M 678 3084 
L 4684 3084 
L 4684 2350 
L 678 2350 
L 678 3084 
z
M 678 1663 
L 4684 1663 
L 4684 922 
L 678 922 
L 678 1663 
z
" transform="scale(0.015625)"/>
      <path id="DejaVuSans-Bold-35" d="M 678 4666 
L 3669 4666 
L 3669 3781 
L 1638 3781 
L 1638 3059 
Q 1775 3097 1914 3117 
Q 2053 3138 2203 3138 
Q 3056 3138 3531 2711 
Q 4006 2284 4006 1522 
Q 4006 766 3489 337 
Q 2972 -91 2053 -91 
Q 1656 -91 1267 -14 
Q 878 63 494 219 
L 494 1166 
Q 875 947 1217 837 
Q 1559 728 1863 728 
Q 2300 728 2551 942 
Q 2803 1156 2803 1522 
Q 2803 1891 2551 2103 
Q 2300 2316 1863 2316 
Q 1603 2316 1309 2248 
Q 1016 2181 678 2041 
L 678 4666 
z
" transform="scale(0.015625)"/>
      <path id="DejaVuSans-Bold-48" d="M 588 4666 
L 1791 4666 
L 1791 2888 
L 3566 2888 
L 3566 4666 
L 4769 4666 
L 4769 0 
L 3566 0 
L 3566 1978 
L 1791 1978 
L 1791 0 
L 588 0 
L 588 4666 
z
" transform="scale(0.015625)"/>
      <path id="DejaVuSans-Bold-7a" d="M 366 3500 
L 3419 3500 
L 3419 2719 
L 1575 800 
L 3419 800 
L 3419 0 
L 288 0 
L 288 781 
L 2131 2700 
L 366 2700 
L 366 3500 
z
" transform="scale(0.015625)"/>
     </defs>
     <use xlink:href="#DejaVuSans-Bold-53"/>
     <use xlink:href="#DejaVuSans-Bold-68" transform="translate(72.021484 0)"/>
     <use xlink:href="#DejaVuSans-Bold-6f" transform="translate(143.212891 0)"/>
     <use xlink:href="#DejaVuSans-Bold-72" transform="translate(211.914062 0)"/>
     <use xlink:href="#DejaVuSans-Bold-74" transform="translate(261.230469 0)"/>
     <use xlink:href="#DejaVuSans-Bold-2d" transform="translate(309.033203 0)"/>
     <use xlink:href="#DejaVuSans-Bold-43" transform="translate(350.537109 0)"/>
     <use xlink:href="#DejaVuSans-Bold-69" transform="translate(423.925781 0)"/>
     <use xlink:href="#DejaVuSans-Bold-72" transform="translate(458.203125 0)"/>
     <use xlink:href="#DejaVuSans-Bold-63" transform="translate(507.519531 0)"/>
     <use xlink:href="#DejaVuSans-Bold-75" transform="translate(566.796875 0)"/>
     <use xlink:href="#DejaVuSans-Bold-69" transform="translate(637.988281 0)"/>
     <use xlink:href="#DejaVuSans-Bold-74" transform="translate(672.265625 0)"/>
     <use xlink:href="#DejaVuSans-Bold-20" transform="translate(720.068359 0)"/>
     <use xlink:href="#DejaVuSans-Bold-43" transform="translate(754.882812 0)"/>
     <use xlink:href="#DejaVuSans-Bold-75" transform="translate(828.271484 0)"/>
     <use xlink:href="#DejaVuSans-Bold-72" transform="translate(899.462891 0)"/>
     <use xlink:href="#DejaVuSans-Bold-72" transform="translate(948.779297 0)"/>
     <use xlink:href="#DejaVuSans-Bold-65" transform="translate(998.095703 0)"/>
     <use xlink:href="#DejaVuSans-Bold-6e" transform="translate(1065.917969 0)"/>
     <use xlink:href="#DejaVuSans-Bold-74" transform="translate(1137.109375 0)"/>
     <use xlink:href="#DejaVuSans-Bold-20" transform="translate(1184.912109 0)"/>
     <use xlink:href="#DejaVuSans-Bold-7c" transform="translate(1219.726562 0)"/>
     <use xlink:href="#DejaVuSans-Bold-20" transform="translate(1256.25 0)"/>
     <use xlink:href="#DejaVuSans-Bold-66" transform="translate(1291.064453 0)"/>
     <use xlink:href="#DejaVuSans-Bold-20" transform="translate(1334.570312 0)"/>
     <use xlink:href="#DejaVuSans-Bold-3d" transform="translate(1369.384766 0)"/>
     <use xlink:href="#DejaVuSans-Bold-20" transform="translate(1453.173828 0)"/>
     <use xlink:href="#DejaVuSans-Bold-35" transform="translate(1487.988281 0)"/>
     <use xlink:href="#DejaVuSans-Bold-20" transform="translate(1557.568359 0)"/>
     <use xlink:href="#DejaVuSans-Bold-48" transform="translate(1592.382812 0)"/>
     <use xlink:href="#DejaVuSans-Bold-7a" transform="translate(1676.074219 0)"/>
    </g>
   </g>
   <g id="text_20">
    <!-- Without MIC -->
    <g style="fill: #333333" transform="translate(91.618334 47.848) scale(0.14 -0.14)">
     <defs>
      <path id="DejaVuSans-Bold-57" d="M 191 4666 
L 1344 4666 
L 2150 1275 
L 2950 4666 
L 4109 4666 
L 4909 1275 
L 5716 4666 
L 6859 4666 
L 5759 0 
L 4372 0 
L 3525 3547 
L 2688 0 
L 1300 0 
L 191 4666 
z
" transform="scale(0.015625)"/>
      <path id="DejaVuSans-Bold-4d" d="M 588 4666 
L 2119 4666 
L 3181 2169 
L 4250 4666 
L 5778 4666 
L 5778 0 
L 4641 0 
L 4641 3413 
L 3566 897 
L 2803 897 
L 1728 3413 
L 1728 0 
L 588 0 
L 588 4666 
z
" transform="scale(0.015625)"/>
     </defs>
     <use xlink:href="#DejaVuSans-Bold-57"/>
     <use xlink:href="#DejaVuSans-Bold-69" transform="translate(110.302734 0)"/>
     <use xlink:href="#DejaVuSans-Bold-74" transform="translate(144.580078 0)"/>
     <use xlink:href="#DejaVuSans-Bold-68" transform="translate(192.382812 0)"/>
     <use xlink:href="#DejaVuSans-Bold-6f" transform="translate(263.574219 0)"/>
     <use xlink:href="#DejaVuSans-Bold-75" transform="translate(332.275391 0)"/>
     <use xlink:href="#DejaVuSans-Bold-74" transform="translate(403.466797 0)"/>
     <use xlink:href="#DejaVuSans-Bold-20" transform="translate(451.269531 0)"/>
     <use xlink:href="#DejaVuSans-Bold-4d" transform="translate(486.083984 0)"/>
     <use xlink:href="#DejaVuSans-Bold-49" transform="translate(585.595703 0)"/>
     <use xlink:href="#DejaVuSans-Bold-43" transform="translate(622.802734 0)"/>
    </g>
   </g>
   <g id="text_21">
    <!-- With MIC -->
    <g style="fill: #d94452" transform="translate(289.398439 47.848) scale(0.14 -0.14)">
     <use xlink:href="#DejaVuSans-Bold-57"/>
     <use xlink:href="#DejaVuSans-Bold-69" transform="translate(110.302734 0)"/>
     <use xlink:href="#DejaVuSans-Bold-74" transform="translate(144.580078 0)"/>
     <use xlink:href="#DejaVuSans-Bold-68" transform="translate(192.382812 0)"/>
     <use xlink:href="#DejaVuSans-Bold-20" transform="translate(263.574219 0)"/>
     <use xlink:href="#DejaVuSans-Bold-4d" transform="translate(298.388672 0)"/>
     <use xlink:href="#DejaVuSans-Bold-49" transform="translate(397.900391 0)"/>
     <use xlink:href="#DejaVuSans-Bold-43" transform="translate(435.107422 0)"/>
    </g>
   </g>
  </g>
 </g>
 <defs>
  <clipPath id="p044283c31a">
   <rect x="48.029375" y="22.842187" width="369.283961" height="287.36"/>
  </clipPath>
 </defs>
</svg>
