<?xml version="1.0" encoding="utf-8" standalone="no"?>
<!DOCTYPE svg PUBLIC "-//W3C//DTD SVG 1.1//EN"
  "http://www.w3.org/Graphics/SVG/1.1/DTD/svg11.dtd">
<svg xmlns:xlink="http://www.w3.org/1999/xlink" width="424.172301pt" height="352.5975pt" viewBox="0 0 424.172301 352.5975" xmlns="http://www.w3.org/2000/svg" version="1.1">
 <metadata>
  <rdf:RDF xmlns:dc="http://purl.org/dc/elements/1.1/" xmlns:cc="http://creativecommons.org/ns#" xmlns:rdf="http://www.w3.org/1999/02/22-rdf-syntax-ns#">
   <cc:Work>
    <dc:type rdf:resource="http://purl.org/dc/dcmitype/StillImage"/>
    <dc:date>2026-04-26T16:42:33.675379</dc:date>
    <dc:format>image/svg+xml</dc:format>
    <dc:creator>
     <cc:Agent>
      <dc:title>Matplotlib v3.10.8, https://matplotlib.org/</dc:title>
     </cc:Agent>
    </dc:creator>
   </cc:Work>
  </rdf:RDF>
 </metadata>
 <defs>
  <style type="text/css">*{stroke-linejoin: round; stroke-linecap: butt}</style>
 </defs>
 <g id="figure_1">
  <g id="patch_1">
   <path d="M 0 352.5975 
L 424.172301 352.5975 
L 424.172301 0 
L 0 0 
z
" style="fill: #ffffff"/>
  </g>
  <g id="axes_1">
   <g id="patch_2">
    <path d="M 58.479375 310.202188 
L 416.972301 310.202188 
L 416.972301 22.842187 
L 58.479375 22.842187 
z
" style="fill: #ffffff"/>
   </g>
   <g id="patch_3">
    <path d="M 58.479375 310.202188 
L 237.725838 310.202188 
L 237.725838 22.842187 
L 58.479375 22.842187 
z
" clip-path="url(#p97af11b190)" style="fill: #cccccc; opacity: 0.12; stroke: #cccccc; stroke-linejoin: miter"/>
   </g>
   <g id="patch_4">
    <path d="M 237.725838 310.202188 
L 416.972301 310.202188 
L 416.972301 22.842187 
L 237.725838 22.842187 
z
" clip-path="url(#p97af11b190)" style="fill: #d94452; opacity: 0.06; stroke: #d94452; stroke-linejoin: miter"/>
   </g>
   <g id="line2d_1">
    <path d="M 237.725838 310.202188 
L 237.725838 22.842187 
" clip-path="url(#p97af11b190)" style="fill: none; stroke-dasharray: 3.7,1.6; stroke-dashoffset: 0; stroke: #999999"/>
   </g>
   <g id="matplotlib.axis_1">
    <g id="xtick_1">
     <g id="line2d_2">
      <defs>
       <path id="m72e28303af" d="M 0 0 
L 0 3.5 
" style="stroke: #000000; stroke-width: 0.8"/>
      </defs>
      <g>
       <use xlink:href="#m72e28303af" x="58.479375" y="310.202188" style="stroke: #000000; stroke-width: 0.8"/>
      </g>
     </g>
     <g id="text_1">
      <!-- 0.0 -->
      <g transform="translate(49.732656 325.560469) scale(0.11 -0.11)">
       <defs>
        <path id="DejaVuSans-30" d="M 2034 4250 
Q 1547 4250 1301 3770 
Q 1056 3291 1056 2328 
Q 1056 1369 1301 889 
Q 1547 409 2034 409 
Q 2525 409 2770 889 
Q 3016 1369 3016 2328 
Q 3016 3291 2770 3770 
Q 2525 4250 2034 4250 
z
M 2034 4750 
Q 2819 4750 3233 4129 
Q 3647 3509 3647 2328 
Q 3647 1150 3233 529 
Q 2819 -91 2034 -91 
Q 1250 -91 836 529 
Q 422 1150 422 2328 
Q 422 3509 836 4129 
Q 1250 4750 2034 4750 
z
" transform="scale(0.015625)"/>
        <path id="DejaVuSans-2e" d="M 684 794 
L 1344 794 
L 1344 0 
L 684 0 
L 684 794 
z
" transform="scale(0.015625)"/>
       </defs>
       <use xlink:href="#DejaVuSans-30"/>
       <use xlink:href="#DejaVuSans-2e" transform="translate(63.623047 0)"/>
       <use xlink:href="#DejaVuSans-30" transform="translate(95.410156 0)"/>
      </g>
     </g>
    </g>
    <g id="xtick_2">
     <g id="line2d_3">
      <g>
       <use xlink:href="#m72e28303af" x="103.313408" y="310.202188" style="stroke: #000000; stroke-width: 0.8"/>
      </g>
     </g>
     <g id="text_2">
      <!-- 0.5 -->
      <g transform="translate(94.566689 325.560469) scale(0.11 -0.11)">
       <defs>
        <path id="DejaVuSans-35" d="M 691 4666 
L 3169 4666 
L 3169 4134 
L 1269 4134 
L 1269 2991 
Q 1406 3038 1543 3061 
Q 1681 3084 1819 3084 
Q 2600 3084 3056 2656 
Q 3513 2228 3513 1497 
Q 3513 744 3044 326 
Q 2575 -91 1722 -91 
Q 1428 -91 1123 -41 
Q 819 9 494 109 
L 494 744 
Q 775 591 1075 516 
Q 1375 441 1709 441 
Q 2250 441 2565 725 
Q 2881 1009 2881 1497 
Q 2881 1984 2565 2268 
Q 2250 2553 1709 2553 
Q 1456 2553 1204 2497 
Q 953 2441 691 2322 
L 691 4666 
z
" transform="scale(0.015625)"/>
       </defs>
       <use xlink:href="#DejaVuSans-30"/>
       <use xlink:href="#DejaVuSans-2e" transform="translate(63.623047 0)"/>
       <use xlink:href="#DejaVuSans-35" transform="translate(95.410156 0)"/>
      </g>
     </g>
    </g>
    <g id="xtick_3">
     <g id="line2d_4">
      <g>
       <use xlink:href="#m72e28303af" x="148.14744" y="310.202188" style="stroke: #000000; stroke-width: 0.8"/>
      </g>
     </g>
     <g id="text_3">
      <!-- 1.0 -->
      <g transform="translate(139.400722 325.560469) scale(0.11 -0.11)">
       <defs>
        <path id="DejaVuSans-31" d="M 794 531 
L 1825 531 
L 1825 4091 
L 703 3866 
L 703 4441 
L 1819 4666 
L 2450 4666 
L 2450 531 
L 3481 531 
L 3481 0 
L 794 0 
L 794 531 
z
" transform="scale(0.015625)"/>
       </defs>
       <use xlink:href="#DejaVuSans-31"/>
       <use xlink:href="#DejaVuSans-2e" transform="translate(63.623047 0)"/>
       <use xlink:href="#DejaVuSans-30" transform="translate(95.410156 0)"/>
      </g>
     </g>
    </g>
    <g id="xtick_4">
     <g id="line2d_5">
      <g>
       <use xlink:href="#m72e28303af" x="192.981473" y="310.202188" style="stroke: #000000; stroke-width: 0.8"/>
      </g>
     </g>
     <g id="text_4">
      <!-- 1.5 -->
      <g transform="translate(184.234754 325.560469) scale(0.11 -0.11)">
       <use xlink:href="#DejaVuSans-31"/>
       <use xlink:href="#DejaVuSans-2e" transform="translate(63.623047 0)"/>
       <use xlink:href="#DejaVuSans-35" transform="translate(95.410156 0)"/>
      </g>
     </g>
    </g>
    <g id="xtick_5">
     <g id="line2d_6">
      <g>
       <use xlink:href="#m72e28303af" x="237.815506" y="310.202188" style="stroke: #000000; stroke-width: 0.8"/>
      </g>
     </g>
     <g id="text_5">
      <!-- 2.0 -->
      <g transform="translate(229.068787 325.560469) scale(0.11 -0.11)">
       <defs>
        <path id="DejaVuSans-32" d="M 1228 531 
L 3431 531 
L 3431 0 
L 469 0 
L 469 531 
Q 828 903 1448 1529 
Q 2069 2156 2228 2338 
Q 2531 2678 2651 2914 
Q 2772 3150 2772 3378 
Q 2772 3750 2511 3984 
Q 2250 4219 1831 4219 
Q 1534 4219 1204 4116 
Q 875 4013 500 3803 
L 500 4441 
Q 881 4594 1212 4672 
Q 1544 4750 1819 4750 
Q 2544 4750 2975 4387 
Q 3406 4025 3406 3419 
Q 3406 3131 3298 2873 
Q 3191 2616 2906 2266 
Q 2828 2175 2409 1742 
Q 1991 1309 1228 531 
z
" transform="scale(0.015625)"/>
       </defs>
       <use xlink:href="#DejaVuSans-32"/>
       <use xlink:href="#DejaVuSans-2e" transform="translate(63.623047 0)"/>
       <use xlink:href="#DejaVuSans-30" transform="translate(95.410156 0)"/>
      </g>
     </g>
    </g>
    <g id="xtick_6">
     <g id="line2d_7">
      <g>
       <use xlink:href="#m72e28303af" x="282.649539" y="310.202188" style="stroke: #000000; stroke-width: 0.8"/>
      </g>
     </g>
     <g id="text_6">
      <!-- 2.5 -->
      <g transform="translate(273.90282 325.560469) scale(0.11 -0.11)">
       <use xlink:href="#DejaVuSans-32"/>
       <use xlink:href="#DejaVuSans-2e" transform="translate(63.623047 0)"/>
       <use xlink:href="#DejaVuSans-35" transform="translate(95.410156 0)"/>
      </g>
     </g>
    </g>
    <g id="xtick_7">
     <g id="line2d_8">
      <g>
       <use xlink:href="#m72e28303af" x="327.483571" y="310.202188" style="stroke: #000000; stroke-width: 0.8"/>
      </g>
     </g>
     <g id="text_7">
      <!-- 3.0 -->
      <g transform="translate(318.736853 325.560469) scale(0.11 -0.11)">
       <defs>
        <path id="DejaVuSans-33" d="M 2597 2516 
Q 3050 2419 3304 2112 
Q 3559 1806 3559 1356 
Q 3559 666 3084 287 
Q 2609 -91 1734 -91 
Q 1441 -91 1130 -33 
Q 819 25 488 141 
L 488 750 
Q 750 597 1062 519 
Q 1375 441 1716 441 
Q 2309 441 2620 675 
Q 2931 909 2931 1356 
Q 2931 1769 2642 2001 
Q 2353 2234 1838 2234 
L 1294 2234 
L 1294 2753 
L 1863 2753 
Q 2328 2753 2575 2939 
Q 2822 3125 2822 3475 
Q 2822 3834 2567 4026 
Q 2313 4219 1838 4219 
Q 1578 4219 1281 4162 
Q 984 4106 628 3988 
L 628 4550 
Q 988 4650 1302 4700 
Q 1616 4750 1894 4750 
Q 2613 4750 3031 4423 
Q 3450 4097 3450 3541 
Q 3450 3153 3228 2886 
Q 3006 2619 2597 2516 
z
" transform="scale(0.015625)"/>
       </defs>
       <use xlink:href="#DejaVuSans-33"/>
       <use xlink:href="#DejaVuSans-2e" transform="translate(63.623047 0)"/>
       <use xlink:href="#DejaVuSans-30" transform="translate(95.410156 0)"/>
      </g>
     </g>
    </g>
    <g id="xtick_8">
     <g id="line2d_9">
      <g>
       <use xlink:href="#m72e28303af" x="372.317604" y="310.202188" style="stroke: #000000; stroke-width: 0.8"/>
      </g>
     </g>
     <g id="text_8">
      <!-- 3.5 -->
      <g transform="translate(363.570885 325.560469) scale(0.11 -0.11)">
       <use xlink:href="#DejaVuSans-33"/>
       <use xlink:href="#DejaVuSans-2e" transform="translate(63.623047 0)"/>
       <use xlink:href="#DejaVuSans-35" transform="translate(95.410156 0)"/>
      </g>
     </g>
    </g>
    <g id="text_9">
     <!-- Time (s) -->
     <g transform="translate(205.507244 342.485938) scale(0.14 -0.14)">
      <defs>
       <path id="DejaVuSans-Bold-54" d="M 31 4666 
L 4331 4666 
L 4331 3756 
L 2784 3756 
L 2784 0 
L 1581 0 
L 1581 3756 
L 31 3756 
L 31 4666 
z
" transform="scale(0.015625)"/>
       <path id="DejaVuSans-Bold-69" d="M 538 3500 
L 1656 3500 
L 1656 0 
L 538 0 
L 538 3500 
z
M 538 4863 
L 1656 4863 
L 1656 3950 
L 538 3950 
L 538 4863 
z
" transform="scale(0.015625)"/>
       <path id="DejaVuSans-Bold-6d" d="M 3781 2919 
Q 3994 3244 4286 3414 
Q 4578 3584 4928 3584 
Q 5531 3584 5847 3212 
Q 6163 2841 6163 2131 
L 6163 0 
L 5038 0 
L 5038 1825 
Q 5041 1866 5042 1909 
Q 5044 1953 5044 2034 
Q 5044 2406 4934 2573 
Q 4825 2741 4581 2741 
Q 4263 2741 4089 2478 
Q 3916 2216 3909 1719 
L 3909 0 
L 2784 0 
L 2784 1825 
Q 2784 2406 2684 2573 
Q 2584 2741 2328 2741 
Q 2006 2741 1831 2477 
Q 1656 2213 1656 1722 
L 1656 0 
L 531 0 
L 531 3500 
L 1656 3500 
L 1656 2988 
Q 1863 3284 2130 3434 
Q 2397 3584 2719 3584 
Q 3081 3584 3359 3409 
Q 3638 3234 3781 2919 
z
" transform="scale(0.015625)"/>
       <path id="DejaVuSans-Bold-65" d="M 4031 1759 
L 4031 1441 
L 1416 1441 
Q 1456 1047 1700 850 
Q 1944 653 2381 653 
Q 2734 653 3104 758 
Q 3475 863 3866 1075 
L 3866 213 
Q 3469 63 3072 -14 
Q 2675 -91 2278 -91 
Q 1328 -91 801 392 
Q 275 875 275 1747 
Q 275 2603 792 3093 
Q 1309 3584 2216 3584 
Q 3041 3584 3536 3087 
Q 4031 2591 4031 1759 
z
M 2881 2131 
Q 2881 2450 2695 2645 
Q 2509 2841 2209 2841 
Q 1884 2841 1681 2658 
Q 1478 2475 1428 2131 
L 2881 2131 
z
" transform="scale(0.015625)"/>
       <path id="DejaVuSans-Bold-20" transform="scale(0.015625)"/>
       <path id="DejaVuSans-Bold-28" d="M 2413 -844 
L 1484 -844 
Q 1006 -72 778 623 
Q 550 1319 550 2003 
Q 550 2688 779 3389 
Q 1009 4091 1484 4856 
L 2413 4856 
Q 2013 4116 1813 3408 
Q 1613 2700 1613 2009 
Q 1613 1319 1811 609 
Q 2009 -100 2413 -844 
z
" transform="scale(0.015625)"/>
       <path id="DejaVuSans-Bold-73" d="M 3272 3391 
L 3272 2541 
Q 2913 2691 2578 2766 
Q 2244 2841 1947 2841 
Q 1628 2841 1473 2761 
Q 1319 2681 1319 2516 
Q 1319 2381 1436 2309 
Q 1553 2238 1856 2203 
L 2053 2175 
Q 2913 2066 3209 1816 
Q 3506 1566 3506 1031 
Q 3506 472 3093 190 
Q 2681 -91 1863 -91 
Q 1516 -91 1145 -36 
Q 775 19 384 128 
L 384 978 
Q 719 816 1070 734 
Q 1422 653 1784 653 
Q 2113 653 2278 743 
Q 2444 834 2444 1013 
Q 2444 1163 2330 1236 
Q 2216 1309 1875 1350 
L 1678 1375 
Q 931 1469 631 1722 
Q 331 1975 331 2491 
Q 331 3047 712 3315 
Q 1094 3584 1881 3584 
Q 2191 3584 2531 3537 
Q 2872 3491 3272 3391 
z
" transform="scale(0.015625)"/>
       <path id="DejaVuSans-Bold-29" d="M 513 -844 
Q 913 -100 1113 609 
Q 1313 1319 1313 2009 
Q 1313 2700 1113 3408 
Q 913 4116 513 4856 
L 1441 4856 
Q 1916 4091 2145 3389 
Q 2375 2688 2375 2003 
Q 2375 1319 2147 623 
Q 1919 -72 1441 -844 
L 513 -844 
z
" transform="scale(0.015625)"/>
      </defs>
      <use xlink:href="#DejaVuSans-Bold-54"/>
      <use xlink:href="#DejaVuSans-Bold-69" transform="translate(68.212891 0)"/>
      <use xlink:href="#DejaVuSans-Bold-6d" transform="translate(102.490234 0)"/>
      <use xlink:href="#DejaVuSans-Bold-65" transform="translate(206.689453 0)"/>
      <use xlink:href="#DejaVuSans-Bold-20" transform="translate(274.511719 0)"/>
      <use xlink:href="#DejaVuSans-Bold-28" transform="translate(309.326172 0)"/>
      <use xlink:href="#DejaVuSans-Bold-73" transform="translate(355.029297 0)"/>
      <use xlink:href="#DejaVuSans-Bold-29" transform="translate(414.550781 0)"/>
     </g>
    </g>
   </g>
   <g id="matplotlib.axis_2">
    <g id="ytick_1">
     <g id="line2d_10">
      <defs>
       <path id="m51c1fd7407" d="M 0 0 
L -3.5 0 
" style="stroke: #000000; stroke-width: 0.8"/>
      </defs>
      <g>
       <use xlink:href="#m51c1fd7407" x="58.479375" y="265.249571" style="stroke: #000000; stroke-width: 0.8"/>
      </g>
     </g>
     <g id="text_10">
      <!-- $\mathdefault{−1.0}$ -->
      <g transform="translate(24.749375 269.428711) scale(0.11 -0.11)">
       <defs>
        <path id="DejaVuSans-2212" d="M 678 2272 
L 4684 2272 
L 4684 1741 
L 678 1741 
L 678 2272 
z
" transform="scale(0.015625)"/>
       </defs>
       <use xlink:href="#DejaVuSans-2212" transform="translate(0 0.78125)"/>
       <use xlink:href="#DejaVuSans-31" transform="translate(83.789062 0.78125)"/>
       <use xlink:href="#DejaVuSans-2e" transform="translate(147.412109 0.78125)"/>
       <use xlink:href="#DejaVuSans-30" transform="translate(179.199219 0.78125)"/>
      </g>
     </g>
    </g>
    <g id="ytick_2">
     <g id="line2d_11">
      <g>
       <use xlink:href="#m51c1fd7407" x="58.479375" y="215.885879" style="stroke: #000000; stroke-width: 0.8"/>
      </g>
     </g>
     <g id="text_11">
      <!-- $\mathdefault{−0.5}$ -->
      <g transform="translate(24.749375 220.06502) scale(0.11 -0.11)">
       <use xlink:href="#DejaVuSans-2212" transform="translate(0 0.78125)"/>
       <use xlink:href="#DejaVuSans-30" transform="translate(83.789062 0.78125)"/>
       <use xlink:href="#DejaVuSans-2e" transform="translate(147.412109 0.78125)"/>
       <use xlink:href="#DejaVuSans-35" transform="translate(179.199219 0.78125)"/>
      </g>
     </g>
    </g>
    <g id="ytick_3">
     <g id="line2d_12">
      <g>
       <use xlink:href="#m51c1fd7407" x="58.479375" y="166.522187" style="stroke: #000000; stroke-width: 0.8"/>
      </g>
     </g>
     <g id="text_12">
      <!-- $\mathdefault{0.0}$ -->
      <g transform="translate(33.879375 170.701328) scale(0.11 -0.11)">
       <use xlink:href="#DejaVuSans-30" transform="translate(0 0.78125)"/>
       <use xlink:href="#DejaVuSans-2e" transform="translate(63.623047 0.78125)"/>
       <use xlink:href="#DejaVuSans-30" transform="translate(95.410156 0.78125)"/>
      </g>
     </g>
    </g>
    <g id="ytick_4">
     <g id="line2d_13">
      <g>
       <use xlink:href="#m51c1fd7407" x="58.479375" y="117.158496" style="stroke: #000000; stroke-width: 0.8"/>
      </g>
     </g>
     <g id="text_13">
      <!-- $\mathdefault{0.5}$ -->
      <g transform="translate(33.879375 121.337637) scale(0.11 -0.11)">
       <use xlink:href="#DejaVuSans-30" transform="translate(0 0.78125)"/>
       <use xlink:href="#DejaVuSans-2e" transform="translate(63.623047 0.78125)"/>
       <use xlink:href="#DejaVuSans-35" transform="translate(95.410156 0.78125)"/>
      </g>
     </g>
    </g>
    <g id="ytick_5">
     <g id="line2d_14">
      <g>
       <use xlink:href="#m51c1fd7407" x="58.479375" y="67.794804" style="stroke: #000000; stroke-width: 0.8"/>
      </g>
     </g>
     <g id="text_14">
      <!-- $\mathdefault{1.0}$ -->
      <g transform="translate(33.879375 71.973945) scale(0.11 -0.11)">
       <use xlink:href="#DejaVuSans-31" transform="translate(0 0.78125)"/>
       <use xlink:href="#DejaVuSans-2e" transform="translate(63.623047 0.78125)"/>
       <use xlink:href="#DejaVuSans-30" transform="translate(95.410156 0.78125)"/>
      </g>
     </g>
    </g>
    <g id="text_15">
     <!-- I$_{sc}$ (mA/m²) -->
     <g transform="translate(17.837813 209.152187) rotate(-90) scale(0.14 -0.14)">
      <defs>
       <path id="DejaVuSans-Bold-49" d="M 588 4666 
L 1791 4666 
L 1791 0 
L 588 0 
L 588 4666 
z
" transform="scale(0.015625)"/>
       <path id="DejaVuSans-Oblique-73" d="M 3200 3397 
L 3091 2853 
Q 2863 2978 2609 3040 
Q 2356 3103 2088 3103 
Q 1634 3103 1373 2948 
Q 1113 2794 1113 2528 
Q 1113 2219 1719 2053 
Q 1766 2041 1788 2034 
L 1972 1978 
Q 2547 1819 2739 1644 
Q 2931 1469 2931 1166 
Q 2931 609 2489 259 
Q 2047 -91 1331 -91 
Q 1053 -91 747 -37 
Q 441 16 72 128 
L 184 722 
Q 500 559 806 475 
Q 1113 391 1394 391 
Q 1816 391 2080 572 
Q 2344 753 2344 1031 
Q 2344 1331 1650 1516 
L 1591 1531 
L 1394 1581 
Q 956 1697 753 1886 
Q 550 2075 550 2369 
Q 550 2928 970 3256 
Q 1391 3584 2113 3584 
Q 2397 3584 2667 3537 
Q 2938 3491 3200 3397 
z
" transform="scale(0.015625)"/>
       <path id="DejaVuSans-Oblique-63" d="M 3431 3366 
L 3316 2797 
Q 3109 2947 2876 3022 
Q 2644 3097 2394 3097 
Q 2119 3097 1870 3000 
Q 1622 2903 1453 2725 
Q 1184 2453 1037 2087 
Q 891 1722 891 1331 
Q 891 859 1127 628 
Q 1363 397 1844 397 
Q 2081 397 2348 469 
Q 2616 541 2906 684 
L 2797 116 
Q 2547 13 2283 -39 
Q 2019 -91 1741 -91 
Q 1044 -91 669 257 
Q 294 606 294 1253 
Q 294 1797 489 2255 
Q 684 2713 1069 3078 
Q 1331 3328 1684 3456 
Q 2038 3584 2456 3584 
Q 2700 3584 2940 3529 
Q 3181 3475 3431 3366 
z
" transform="scale(0.015625)"/>
       <path id="DejaVuSans-Bold-41" d="M 3419 850 
L 1538 850 
L 1241 0 
L 31 0 
L 1759 4666 
L 3194 4666 
L 4922 0 
L 3713 0 
L 3419 850 
z
M 1838 1716 
L 3116 1716 
L 2478 3572 
L 1838 1716 
z
" transform="scale(0.015625)"/>
       <path id="DejaVuSans-Bold-2f" d="M 1644 4666 
L 2338 4666 
L 691 -594 
L 0 -594 
L 1644 4666 
z
" transform="scale(0.015625)"/>
       <path id="DejaVuSans-Bold-b2" d="M 1288 2613 
L 2444 2613 
L 2444 2088 
L 341 2088 
L 341 2566 
L 1319 3397 
Q 1509 3563 1590 3688 
Q 1672 3813 1672 3938 
Q 1672 4094 1558 4191 
Q 1444 4288 1259 4288 
Q 1066 4288 844 4217 
Q 622 4147 359 4000 
L 359 4581 
Q 631 4666 886 4708 
Q 1141 4750 1375 4750 
Q 1869 4750 2150 4548 
Q 2431 4347 2431 4000 
Q 2431 3775 2320 3586 
Q 2209 3397 1894 3128 
L 1288 2613 
z
" transform="scale(0.015625)"/>
      </defs>
      <use xlink:href="#DejaVuSans-Bold-49" transform="translate(0 0.125)"/>
      <use xlink:href="#DejaVuSans-Oblique-73" transform="translate(38.164062 -16.28125) scale(0.7)"/>
      <use xlink:href="#DejaVuSans-Oblique-63" transform="translate(74.633789 -16.28125) scale(0.7)"/>
      <use xlink:href="#DejaVuSans-Bold-20" transform="translate(115.854492 0.125)"/>
      <use xlink:href="#DejaVuSans-Bold-28" transform="translate(150.668945 0.125)"/>
      <use xlink:href="#DejaVuSans-Bold-6d" transform="translate(196.37207 0.125)"/>
      <use xlink:href="#DejaVuSans-Bold-41" transform="translate(300.571289 0.125)"/>
      <use xlink:href="#DejaVuSans-Bold-2f" transform="translate(377.963867 0.125)"/>
      <use xlink:href="#DejaVuSans-Bold-6d" transform="translate(414.487305 0.125)"/>
      <use xlink:href="#DejaVuSans-Bold-b2" transform="translate(518.686523 0.125)"/>
      <use xlink:href="#DejaVuSans-Bold-29" transform="translate(562.485352 0.125)"/>
     </g>
    </g>
    <g id="text_16">
     <!-- $\times\mathdefault{10^{−3}}\mathdefault{}$ -->
     <g transform="translate(58.479375 19.842187) scale(0.1 -0.1)">
      <defs>
       <path id="DejaVuSans-d7" d="M 4488 3438 
L 3059 2003 
L 4488 575 
L 4116 197 
L 2681 1631 
L 1247 197 
L 878 575 
L 2303 2003 
L 878 3438 
L 1247 3816 
L 2681 2381 
L 4116 3816 
L 4488 3438 
z
" transform="scale(0.015625)"/>
      </defs>
      <use xlink:href="#DejaVuSans-d7" transform="translate(0 0.765625)"/>
      <use xlink:href="#DejaVuSans-31" transform="translate(83.789062 0.765625)"/>
      <use xlink:href="#DejaVuSans-30" transform="translate(147.412109 0.765625)"/>
      <use xlink:href="#DejaVuSans-2212" transform="translate(211.992188 39.046875) scale(0.7)"/>
      <use xlink:href="#DejaVuSans-33" transform="translate(270.644531 39.046875) scale(0.7)"/>
     </g>
    </g>
   </g>
   <g id="patch_5">
    <path d="M 58.479375 310.202188 
L 58.479375 22.842187 
" style="fill: none; stroke: #000000; stroke-width: 0.8; stroke-linejoin: miter; stroke-linecap: square"/>
   </g>
   <g id="patch_6">
    <path d="M 58.479375 310.202188 
L 416.972301 310.202188 
" style="fill: none; stroke: #000000; stroke-width: 0.8; stroke-linejoin: miter; stroke-linecap: square"/>
   </g>
   <g id="line2d_15">
    <path d="M 58.479375 157.254342 
L 58.658711 157.333835 
L 59.19672 158.923681 
L 59.286388 158.923681 
L 59.555392 159.639112 
L 59.64506 159.400633 
L 59.914064 160.036571 
L 60.0934 159.877588 
L 60.183068 159.957081 
L 60.452072 160.513525 
L 60.721077 161.149463 
L 60.900413 160.831494 
L 61.169417 161.228956 
L 61.348753 160.99048 
L 61.438421 160.99048 
L 61.886761 161.944386 
L 62.066098 162.023879 
L 62.155766 162.023879 
L 62.335102 162.421341 
L 62.42477 162.341848 
L 62.693774 162.023879 
L 62.783442 162.262355 
L 62.87311 162.182862 
L 63.680123 163.45474 
L 63.769791 163.45474 
L 63.859459 163.693216 
L 63.949127 163.613723 
L 64.128463 163.772709 
L 64.307799 164.011185 
L 64.397467 163.772709 
L 64.576803 164.011185 
L 64.75614 164.17017 
L 64.935476 164.488139 
L 65.114812 164.567631 
L 65.20448 164.647124 
L 65.294148 164.885601 
L 65.383816 164.726616 
L 65.563152 164.885601 
L 65.65282 164.726616 
L 65.832156 164.885601 
L 65.921824 164.647124 
L 66.818505 165.442046 
L 66.997841 165.283062 
L 67.266845 165.20357 
L 67.356513 165.124077 
L 67.53585 165.362554 
L 67.625518 165.362554 
L 67.894522 165.680523 
L 68.163526 165.839508 
L 68.253194 165.760016 
L 68.342862 165.839508 
L 68.522198 165.601031 
L 68.701534 165.521539 
L 68.791203 165.442046 
L 68.880871 165.521539 
L 68.970539 165.362554 
L 69.149875 165.601031 
L 69.329211 165.760016 
L 69.687883 165.998492 
L 70.225892 165.919 
L 70.31556 165.839508 
L 70.494896 165.919 
L 70.584564 165.839508 
L 70.853568 166.157477 
L 71.032904 166.395954 
L 71.122572 166.236969 
L 71.301908 166.395954 
L 71.481244 166.316461 
L 71.660581 166.236969 
L 72.288257 166.157477 
L 72.467593 166.554938 
L 72.557261 166.554938 
L 72.646929 166.793415 
L 72.736597 166.554938 
L 72.826265 166.634431 
L 72.915934 166.872907 
L 73.09527 166.554938 
L 73.274606 166.475446 
L 73.453942 166.236969 
L 73.633278 166.793415 
L 73.722946 166.872907 
L 73.812614 166.713923 
L 73.902282 167.111384 
L 73.99195 166.793415 
L 74.081618 167.031892 
L 74.171286 166.872907 
L 74.529959 167.111384 
L 74.709295 166.634431 
L 74.888631 166.793415 
L 75.067967 166.713923 
L 75.336971 167.349861 
L 75.426639 167.349861 
L 75.605976 167.66783 
L 75.695644 167.588338 
L 75.785312 168.065291 
L 75.964648 167.747322 
L 76.143984 168.224276 
L 76.233652 168.065291 
L 76.32332 168.144784 
L 76.502656 167.906307 
L 76.592324 168.224276 
L 76.681992 168.065291 
L 76.950996 168.780722 
L 77.220001 168.542245 
L 77.489005 169.178184 
L 77.847677 168.939706 
L 78.027013 169.655136 
L 78.116681 169.814121 
L 78.475354 171.324475 
L 78.565022 171.403968 
L 78.923694 172.675843 
L 79.013362 172.675843 
L 80.089379 178.796748 
L 80.806723 185.315113 
L 81.344732 193.18485 
L 82.241412 215.840144 
L 82.689753 233.089965 
L 83.765769 275.777266 
L 83.855438 275.53879 
L 84.034774 272.120626 
L 84.483114 250.975714 
L 84.931454 226.492088 
L 85.11079 216.555572 
L 85.469463 177.922332 
L 86.007471 128.875585 
L 86.455811 109.161504 
L 86.904152 99.622439 
L 87.262824 94.773395 
L 87.531828 93.263038 
L 87.621496 93.183563 
L 87.711164 93.342539 
L 87.980169 95.011871 
L 88.249173 98.271059 
L 89.32519 117.031236 
L 89.863198 125.695897 
L 90.939215 139.527554 
L 92.194568 149.941052 
L 92.284236 150.17953 
L 92.463572 151.053944 
L 92.911912 153.041252 
L 93.718925 157.095359 
L 93.808593 156.777388 
L 94.525937 158.52622 
L 94.705273 158.764696 
L 94.88461 159.082665 
L 95.063946 159.718602 
L 95.153614 159.718602 
L 95.243282 159.957081 
L 95.33295 159.877588 
L 95.512286 160.195557 
L 95.601954 160.195557 
L 95.78129 159.877588 
L 96.050294 160.116064 
L 96.408967 161.228956 
L 96.498635 161.149463 
L 96.588303 161.387942 
L 96.677971 161.308449 
L 96.857307 161.785403 
L 96.946975 161.70591 
L 97.215979 161.864894 
L 97.305647 161.785403 
L 97.574652 162.103372 
L 97.753988 162.182862 
L 97.843656 162.182862 
L 98.11266 163.057278 
L 98.291996 162.73931 
L 98.381664 162.977786 
L 98.471332 162.898293 
L 98.650668 163.295754 
L 98.919673 163.295754 
L 99.547349 164.329155 
L 99.637017 164.329155 
L 99.816353 164.567631 
L 99.906021 164.647124 
L 100.085357 164.488139 
L 100.175025 164.647124 
L 100.354362 164.488139 
L 100.44403 164.488139 
L 100.533698 164.726616 
L 100.713034 164.647124 
L 100.89237 165.044585 
L 100.982038 165.044585 
L 101.071706 165.20357 
L 101.251042 165.044585 
L 101.34071 165.20357 
L 101.609714 165.044585 
L 101.878719 165.124077 
L 101.968387 165.20357 
L 102.147723 165.124077 
L 102.327059 165.442046 
L 102.685731 165.760016 
L 102.775399 165.680523 
L 102.865067 165.839508 
L 102.954735 165.680523 
L 103.044404 165.760016 
L 103.22374 165.601031 
L 103.313408 165.760016 
L 103.403076 165.680523 
L 103.67208 165.839508 
L 103.761748 165.680523 
L 104.030752 165.839508 
L 104.389425 165.919 
L 104.479093 165.998492 
L 104.658429 165.760016 
L 104.748097 165.998492 
L 104.837765 165.839508 
L 105.017101 165.998492 
L 105.196437 165.998492 
L 105.465441 166.316461 
L 105.734446 166.475446 
L 105.824114 166.475446 
L 106.00345 166.236969 
L 106.093118 166.475446 
L 106.362122 166.316461 
L 106.631126 166.475446 
L 106.720794 166.316461 
L 106.989798 166.634431 
L 107.169135 166.634431 
L 107.258803 166.872907 
L 107.438139 166.713923 
L 107.617475 166.634431 
L 107.707143 166.634431 
L 107.796811 166.157477 
L 107.886479 166.634431 
L 107.976147 166.554938 
L 108.065815 166.9524 
L 108.155483 166.713923 
L 108.334819 167.111384 
L 108.514156 167.031892 
L 108.603824 167.031892 
L 108.693492 166.793415 
L 108.78316 167.111384 
L 108.872828 167.031892 
L 109.052164 166.793415 
L 109.2315 166.872907 
L 109.321168 166.9524 
L 109.410836 166.793415 
L 109.769508 167.031892 
L 109.859177 167.031892 
L 110.038513 167.349861 
L 110.217849 167.190876 
L 110.397185 167.66783 
L 110.486853 167.270369 
L 110.666189 167.66783 
L 110.755857 167.588338 
L 111.114529 167.826815 
L 111.293866 168.303768 
L 111.473202 168.303768 
L 111.652538 168.621737 
L 111.742206 168.621737 
L 111.921542 168.38326 
L 112.01121 168.542245 
L 112.100878 168.303768 
L 112.280214 168.38326 
L 112.369882 168.38326 
L 112.638887 169.257676 
L 112.728555 169.337167 
L 112.818223 169.178184 
L 112.907891 169.575645 
L 112.997559 169.41666 
L 113.176895 169.734628 
L 113.266563 169.575645 
L 113.445899 169.973107 
L 115.059924 175.776041 
L 115.956605 183.804759 
L 116.494613 190.323126 
L 117.032622 200.657106 
L 117.57063 216.237595 
L 118.108639 237.859485 
L 119.094987 275.697791 
L 119.184655 275.459315 
L 119.363991 271.961651 
L 119.722664 255.904234 
L 120.619344 198.749298 
L 121.247021 133.80413 
L 121.695361 111.307788 
L 122.23337 99.463439 
L 122.68171 93.501514 
L 122.950714 92.865587 
L 123.219718 94.216942 
L 123.668059 100.019891 
L 124.385403 112.500192 
L 125.282084 127.444729 
L 126.447769 141.594362 
L 127.075445 146.681868 
L 127.972126 152.246329 
L 129.317147 157.810789 
L 129.586151 158.446727 
L 129.675819 158.446727 
L 129.944823 159.003172 
L 130.034491 158.923681 
L 130.393164 159.877588 
L 130.5725 159.798095 
L 130.841504 160.434033 
L 131.200176 160.434033 
L 131.379512 160.593018 
L 131.46918 160.513525 
L 131.558848 160.910987 
L 131.648516 160.752001 
L 131.917521 161.387942 
L 132.007189 161.308449 
L 132.276193 161.944386 
L 132.365861 161.785403 
L 132.545197 162.182862 
L 132.634865 161.864894 
L 132.814201 162.182862 
L 132.993537 162.103372 
L 133.531546 162.659817 
L 134.069554 163.693216 
L 134.159222 163.613723 
L 134.428226 163.693216 
L 134.517895 163.852202 
L 134.607563 163.693216 
L 134.786899 164.17017 
L 134.966235 164.249662 
L 135.235239 164.806108 
L 135.324907 164.806108 
L 135.504243 164.965093 
L 136.221588 164.965093 
L 136.490592 165.283062 
L 136.58026 165.124077 
L 136.849264 165.521539 
L 136.938932 165.442046 
L 137.118268 165.521539 
L 137.207936 165.442046 
L 137.297605 165.521539 
L 137.476941 165.362554 
L 137.656277 165.521539 
L 137.745945 165.362554 
L 137.835613 165.680523 
L 137.925281 165.521539 
L 138.373621 166.157477 
L 138.552957 166.316461 
L 138.642626 166.236969 
L 138.732294 165.998492 
L 138.821962 166.077985 
L 138.91163 165.919 
L 139.001298 165.998492 
L 139.090966 165.919 
L 139.180634 165.680523 
L 139.35997 165.919 
L 139.628974 166.077985 
L 139.718642 165.998492 
L 139.80831 166.236969 
L 139.897978 166.157477 
L 139.987647 166.395954 
L 140.166983 166.157477 
L 140.346319 166.316461 
L 140.615323 166.157477 
L 140.794659 166.236969 
L 140.884327 166.236969 
L 140.973995 166.475446 
L 141.063663 166.395954 
L 141.332668 166.872907 
L 141.422336 166.793415 
L 141.512004 166.872907 
L 141.960344 166.475446 
L 142.050012 166.554938 
L 142.229348 166.475446 
L 142.319016 166.554938 
L 142.498352 166.872907 
L 142.857025 167.270369 
L 142.946693 166.872907 
L 143.036361 167.190876 
L 143.126029 166.872907 
L 143.305365 167.111384 
L 143.664037 166.872907 
L 143.753705 167.031892 
L 143.843373 166.793415 
L 143.933041 167.031892 
L 144.022709 166.9524 
L 144.202046 167.429353 
L 144.381382 167.349861 
L 144.47105 167.349861 
L 144.650386 167.508846 
L 144.740054 167.508846 
L 144.829722 167.349861 
L 144.91939 167.429353 
L 145.188394 167.270369 
L 145.36773 167.508846 
L 145.457399 167.66783 
L 145.547067 167.588338 
L 145.995407 168.303768 
L 146.085075 168.065291 
L 146.174743 168.38326 
L 146.264411 168.144784 
L 146.533415 168.701229 
L 146.712751 168.38326 
L 146.802419 168.701229 
L 146.892088 168.621737 
L 147.6991 169.41666 
L 147.968104 169.019198 
L 148.14744 169.41666 
L 148.237109 169.575645 
L 148.326777 169.973107 
L 148.416445 169.814121 
L 149.044121 171.642444 
L 149.133789 171.721937 
L 149.761466 173.62975 
L 150.389142 176.888933 
L 151.465159 186.189526 
L 151.913499 192.628398 
L 152.36184 201.770011 
L 152.81018 214.091311 
L 153.437856 239.449341 
L 154.334537 275.379815 
L 154.424205 276.333719 
L 154.513873 276.095243 
L 154.693209 273.313006 
L 155.051882 256.699138 
L 155.948562 196.84149 
L 156.576239 131.975798 
L 157.024579 109.717956 
L 157.562587 99.224963 
L 158.010928 93.978466 
L 158.190264 93.342539 
L 158.279932 93.342539 
L 158.459268 93.898991 
L 158.81794 97.555631 
L 159.355949 106.697244 
L 160.880306 131.816822 
L 161.418314 138.335174 
L 162.853003 150.100037 
L 164.018688 155.982467 
L 164.108356 156.061957 
L 164.198024 157.015866 
L 164.287692 156.85688 
L 164.736033 158.52622 
L 164.825701 158.367234 
L 165.274041 159.877588 
L 165.363709 159.877588 
L 165.632713 160.513525 
L 165.722381 160.434033 
L 165.812049 160.275049 
L 165.991386 160.593018 
L 166.170722 160.513525 
L 166.26039 160.513525 
L 166.439726 160.831494 
L 166.798398 161.308449 
L 166.888066 161.308449 
L 166.977734 161.70591 
L 167.15707 161.546925 
L 167.246738 161.785403 
L 167.336406 161.546925 
L 167.515743 161.944386 
L 167.695079 162.023879 
L 168.322755 163.216264 
L 168.412423 163.136771 
L 168.771096 163.534233 
L 168.860764 163.216264 
L 169.0401 163.45474 
L 169.129768 163.45474 
L 169.309104 163.772709 
L 169.578108 163.931695 
L 169.847112 164.567631 
L 169.93678 164.488139 
L 170.116117 164.726616 
L 170.743793 164.806108 
L 170.923129 165.124077 
L 171.012797 165.044585 
L 171.102465 165.283062 
L 171.192133 165.20357 
L 171.371469 165.521539 
L 171.461138 165.601031 
L 171.81981 165.283062 
L 171.909478 165.442046 
L 171.999146 165.362554 
L 172.088814 165.442046 
L 172.26815 165.362554 
L 172.447486 165.601031 
L 172.537154 165.601031 
L 172.71649 165.760016 
L 172.806158 165.760016 
L 172.985495 166.077985 
L 173.075163 165.919 
L 173.164831 165.998492 
L 173.344167 165.839508 
L 173.523503 165.919 
L 173.702839 165.998492 
L 173.882175 166.236969 
L 173.971843 166.395954 
L 174.061511 166.316461 
L 174.151179 166.475446 
L 174.330516 166.316461 
L 174.420184 166.475446 
L 174.689188 166.077985 
L 174.778856 166.157477 
L 174.868524 166.077985 
L 174.958192 166.157477 
L 175.137528 166.077985 
L 175.406532 166.475446 
L 175.585869 166.554938 
L 175.854873 166.793415 
L 175.944541 166.713923 
L 176.123877 166.793415 
L 176.213545 166.554938 
L 176.482549 166.713923 
L 176.661885 166.554938 
L 176.841221 166.9524 
L 177.110226 167.031892 
L 177.199894 167.111384 
L 177.289562 167.031892 
L 177.468898 167.190876 
L 177.558566 167.429353 
L 177.648234 167.031892 
L 177.737902 167.111384 
L 177.82757 167.031892 
L 178.006906 167.270369 
L 178.186242 167.031892 
L 178.455247 167.66783 
L 178.634583 167.508846 
L 178.724251 167.906307 
L 178.813919 167.588338 
L 178.903587 167.66783 
L 179.172591 167.508846 
L 179.351927 167.747322 
L 179.441595 167.508846 
L 179.531263 167.826815 
L 179.620931 167.429353 
L 179.800268 168.144784 
L 179.889936 167.906307 
L 179.979604 168.38326 
L 180.15894 168.224276 
L 180.248608 168.144784 
L 180.338276 168.38326 
L 180.427944 168.224276 
L 180.517612 168.303768 
L 180.696948 167.826815 
L 180.786616 167.508846 
L 180.965952 168.144784 
L 181.055621 168.542245 
L 181.145289 168.303768 
L 181.414293 168.780722 
L 181.683297 169.098691 
L 181.772965 169.257676 
L 181.862633 169.178184 
L 182.041969 169.575645 
L 182.131637 169.41666 
L 182.221305 169.814121 
L 182.310973 168.939706 
L 182.400641 169.098691 
L 182.49031 169.734628 
L 182.579978 169.337167 
L 182.669646 169.575645 
L 182.848982 169.337167 
L 183.028318 170.211583 
L 183.117986 170.211583 
L 183.207654 169.496152 
L 183.38699 170.450059 
L 183.476658 169.734628 
L 183.566326 170.529552 
L 183.655994 169.973107 
L 184.373339 172.119396 
L 184.552675 172.755336 
L 184.642343 173.470766 
L 184.732011 173.152798 
L 185.27002 175.06061 
L 185.628692 176.491471 
L 186.435704 182.77136 
L 187.242717 192.946374 
L 187.780725 204.552247 
L 188.408402 224.107328 
L 189.574087 274.664387 
L 189.753423 276.810671 
L 189.843091 277.049147 
L 190.022427 272.438603 
L 190.381099 256.301686 
L 191.367448 185.394606 
L 191.905456 132.134774 
L 192.443465 108.048624 
L 192.891805 98.827511 
L 193.250477 94.455443 
L 193.519482 93.501514 
L 193.60915 93.581015 
L 193.967822 95.806799 
L 194.416162 102.0867 
L 194.864503 109.797456 
L 196.030187 129.511538 
L 196.478528 135.950414 
L 197.016536 142.071317 
L 198.451225 152.723283 
L 198.899566 154.551606 
L 198.989234 154.472113 
L 199.078902 155.823481 
L 199.16857 155.426019 
L 199.61691 157.731296 
L 199.706578 157.969772 
L 199.796246 158.52622 
L 199.885914 158.287741 
L 200.154918 159.321141 
L 200.423923 159.877588 
L 200.603259 159.877588 
L 200.692927 160.116064 
L 200.872263 160.831494 
L 200.961931 160.99048 
L 201.051599 160.831494 
L 201.141267 161.387942 
L 201.230935 161.308449 
L 201.320603 161.228956 
L 201.410271 161.387942 
L 201.499939 161.308449 
L 201.589608 161.069973 
L 201.768944 161.387942 
L 201.858612 161.387942 
L 201.94828 161.785403 
L 202.037948 161.546925 
L 202.127616 162.023879 
L 202.217284 161.944386 
L 202.39662 162.182862 
L 202.665624 162.73931 
L 202.755292 162.580324 
L 202.84496 162.73931 
L 202.934628 162.659817 
L 203.024297 162.977786 
L 203.203633 162.580324 
L 203.382969 162.898293 
L 203.562305 162.818802 
L 203.741641 163.375247 
L 203.831309 163.295754 
L 204.279649 163.931695 
L 204.369318 164.011185 
L 204.548654 163.931695 
L 204.638322 164.090678 
L 204.817658 164.011185 
L 204.996994 164.567631 
L 205.086662 164.408647 
L 205.62467 165.362554 
L 205.714339 165.20357 
L 205.804007 165.442046 
L 206.073011 165.283062 
L 206.162679 165.362554 
L 206.252347 165.20357 
L 206.342015 165.283062 
L 206.521351 165.20357 
L 206.790355 165.521539 
L 206.969691 165.839508 
L 207.059359 165.760016 
L 207.238696 165.919 
L 207.418032 165.839508 
L 207.5077 165.919 
L 207.597368 165.521539 
L 207.776704 165.680523 
L 207.866372 165.760016 
L 207.95604 165.680523 
L 208.852721 166.475446 
L 208.942389 166.395954 
L 209.121725 166.475446 
L 209.301061 166.475446 
L 209.390729 166.316461 
L 209.480397 166.395954 
L 209.570065 166.316461 
L 209.659733 166.395954 
L 209.749401 166.634431 
L 209.928738 166.554938 
L 210.28741 166.554938 
L 210.377078 166.793415 
L 210.466746 166.554938 
L 210.73575 166.713923 
L 210.825418 166.634431 
L 210.915086 166.713923 
L 211.004754 166.475446 
L 211.094422 166.872907 
L 211.184091 166.793415 
L 211.273759 166.9524 
L 211.363427 166.793415 
L 211.632431 167.190876 
L 211.811767 167.111384 
L 212.080771 166.9524 
L 212.170439 167.111384 
L 212.349775 166.9524 
L 212.61878 167.111384 
L 212.708448 167.111384 
L 212.977452 167.429353 
L 213.336124 167.747322 
L 213.425792 167.508846 
L 213.51546 167.66783 
L 213.605128 167.349861 
L 213.784464 167.66783 
L 213.963801 167.508846 
L 214.053469 167.508846 
L 214.232805 167.826815 
L 214.770813 168.303768 
L 215.219153 167.985799 
L 215.308822 168.224276 
L 215.39849 167.906307 
L 215.577826 168.144784 
L 215.667494 168.065291 
L 215.84683 168.38326 
L 215.936498 168.224276 
L 216.205502 168.701229 
L 216.29517 168.701229 
L 216.384838 168.462753 
L 216.653843 169.019198 
L 216.743511 168.701229 
L 216.922847 169.257676 
L 217.102183 169.098691 
L 217.191851 169.257676 
L 217.281519 169.814121 
L 217.371187 169.734628 
L 217.729859 169.973107 
L 218.088532 170.052597 
L 218.1782 170.370566 
L 218.267868 170.13209 
L 218.447204 170.211583 
L 218.536872 170.13209 
L 218.716208 170.609045 
L 218.895544 171.165489 
L 218.985212 171.085997 
L 219.254216 171.642444 
L 219.343884 171.721937 
L 219.702557 172.755336 
L 219.792225 172.834826 
L 220.778574 176.491471 
L 221.047578 177.763349 
L 221.495918 180.625068 
L 222.123594 187.063942 
L 222.840939 198.590322 
L 223.468615 215.522167 
L 224.096292 240.403245 
L 224.992973 275.618291 
L 225.082641 276.174743 
L 225.172309 275.777266 
L 225.441313 267.669083 
L 225.799985 249.465358 
L 226.248326 226.412612 
L 226.427662 214.88624 
L 227.503678 117.826165 
L 227.772683 107.969124 
L 228.490027 95.011871 
L 228.759031 93.263038 
L 228.848699 92.945087 
L 228.938367 93.024562 
L 229.29704 95.647823 
L 229.74538 102.404651 
L 231.807746 135.632438 
L 232.794094 145.807455 
L 233.152767 148.510191 
L 233.690775 151.92836 
L 234.139115 154.790082 
L 234.228783 154.790082 
L 234.587456 156.379928 
L 234.677124 156.459419 
L 235.663472 160.036571 
L 235.75314 159.718602 
L 235.932477 160.116064 
L 236.022145 160.036571 
L 236.111813 160.116064 
L 236.649821 161.387942 
L 237.008493 161.70591 
L 237.098161 162.182862 
L 237.187829 161.944386 
L 237.367166 162.103372 
L 237.456834 161.944386 
L 237.546502 162.023879 
L 237.63617 161.944386 
L 237.725838 162.023879 
L 237.725838 162.023879 
" clip-path="url(#p97af11b190)" style="fill: none; stroke: #333333; stroke-width: 0.8; stroke-linecap: square"/>
   </g>
   <g id="line2d_16">
    <path d="M 237.725838 162.818802 
L 238.08451 162.898293 
L 238.174178 162.977786 
L 238.353514 163.45474 
L 238.443182 163.216264 
L 238.622519 163.45474 
L 238.712187 163.45474 
L 238.801855 163.772709 
L 238.891523 163.693216 
L 238.981191 163.295754 
L 239.070859 163.375247 
L 239.250195 163.613723 
L 239.339863 163.45474 
L 239.519199 163.693216 
L 239.608867 163.613723 
L 239.698535 164.011185 
L 239.788203 163.931695 
L 240.057208 164.408647 
L 240.146876 164.329155 
L 240.326212 164.567631 
L 240.595216 164.567631 
L 240.684884 164.408647 
L 240.774552 164.567631 
L 240.953888 164.329155 
L 241.043556 164.726616 
L 241.222892 164.567631 
L 241.491897 165.044585 
L 241.760901 165.044585 
L 241.850569 165.20357 
L 242.029905 165.044585 
L 242.119573 165.20357 
L 242.298909 164.965093 
L 242.388577 165.124077 
L 242.478245 165.044585 
L 243.19559 165.601031 
L 243.285258 165.601031 
L 243.464594 165.442046 
L 243.64393 165.283062 
L 243.733598 165.442046 
L 243.823266 165.362554 
L 243.912934 165.442046 
L 244.002602 165.362554 
L 244.271607 165.680523 
L 244.540611 165.998492 
L 244.719947 165.998492 
L 244.899283 165.601031 
L 245.706296 165.521539 
L 245.885632 165.919 
L 245.9753 165.919 
L 246.064968 166.077985 
L 246.244304 165.919 
L 246.333972 166.077985 
L 246.602976 165.839508 
L 246.692644 165.998492 
L 246.871981 165.919 
L 247.140985 165.998492 
L 247.589325 166.475446 
L 247.678993 166.316461 
L 247.858329 166.475446 
L 248.037665 166.316461 
L 248.30667 166.236969 
L 248.396338 166.077985 
L 248.486006 166.157477 
L 248.575674 166.475446 
L 248.75501 166.236969 
L 248.844678 166.554938 
L 248.934346 166.475446 
L 249.024014 166.395954 
L 249.20335 166.634431 
L 249.382686 166.316461 
L 249.562023 166.475446 
L 249.651691 166.395954 
L 249.741359 166.554938 
L 249.920695 166.395954 
L 250.010363 166.475446 
L 250.100031 166.316461 
L 250.279367 166.475446 
L 250.369035 166.475446 
L 250.458703 166.793415 
L 250.548371 166.713923 
L 250.727707 166.395954 
L 250.817375 166.395954 
L 250.996712 166.157477 
L 251.08638 166.395954 
L 251.176048 166.157477 
L 251.355384 166.475446 
L 251.445052 166.157477 
L 251.624388 166.634431 
L 251.714056 166.554938 
L 251.803724 166.9524 
L 251.893392 166.713923 
L 251.98306 167.031892 
L 252.072728 166.872907 
L 252.252064 167.270369 
L 252.431401 166.872907 
L 252.610737 166.554938 
L 252.700405 166.872907 
L 252.790073 166.554938 
L 252.879741 166.793415 
L 252.969409 166.713923 
L 253.059077 166.9524 
L 253.238413 166.793415 
L 253.507417 167.111384 
L 253.597085 167.270369 
L 253.686754 167.190876 
L 253.86609 167.349861 
L 254.045426 167.190876 
L 254.31443 167.508846 
L 254.493766 167.349861 
L 254.583434 167.508846 
L 254.852438 168.462753 
L 255.121443 168.621737 
L 255.211111 168.542245 
L 255.390447 169.098691 
L 255.659451 169.257676 
L 255.749119 169.178184 
L 256.466464 171.88092 
L 256.735468 172.993812 
L 257.183808 174.981118 
L 257.54248 176.968426 
L 258.797833 190.084647 
L 260.232522 215.681143 
L 260.501527 216.794048 
L 260.680863 215.522167 
L 260.949867 209.560243 
L 261.846548 170.609045 
L 262.294888 146.284409 
L 262.65356 138.017223 
L 262.922564 135.473462 
L 263.281237 134.599034 
L 263.370905 134.519558 
L 263.729577 134.758034 
L 263.819245 134.758034 
L 263.998581 134.91701 
L 264.088249 134.99651 
L 264.357253 135.711938 
L 264.895262 138.017223 
L 265.88161 145.3305 
L 266.060947 146.284409 
L 266.957627 151.92836 
L 268.481984 158.367234 
L 268.840657 159.003172 
L 268.930325 159.480126 
L 269.019993 159.24165 
L 269.109661 159.480126 
L 269.199329 159.400633 
L 269.378665 160.195557 
L 269.468333 160.195557 
L 269.737337 160.752001 
L 270.09601 161.70591 
L 270.185678 161.626418 
L 270.275346 161.944386 
L 270.365014 161.546925 
L 270.634018 162.182862 
L 270.813354 161.864894 
L 271.082358 162.659817 
L 271.351362 162.818802 
L 271.530699 162.580324 
L 271.620367 163.057278 
L 271.710035 162.580324 
L 271.889371 162.898293 
L 272.068707 163.057278 
L 272.158375 163.057278 
L 272.337711 162.659817 
L 272.427379 162.73931 
L 272.517047 162.977786 
L 272.606715 162.818802 
L 272.786051 163.295754 
L 272.87572 163.057278 
L 273.234392 163.45474 
L 273.413728 163.295754 
L 273.503396 163.375247 
L 273.593064 163.295754 
L 273.682732 163.45474 
L 273.7724 163.216264 
L 273.951736 163.613723 
L 274.041404 163.613723 
L 274.131072 163.772709 
L 274.220741 163.613723 
L 274.400077 163.852202 
L 274.579413 163.772709 
L 274.669081 164.011185 
L 274.758749 163.931695 
L 274.848417 164.090678 
L 275.207089 163.772709 
L 275.386425 163.931695 
L 275.565762 164.17017 
L 275.834766 164.488139 
L 276.10377 164.726616 
L 276.193438 164.647124 
L 276.283106 164.806108 
L 276.372774 164.567631 
L 276.462442 164.726616 
L 276.55211 164.647124 
L 276.821114 164.965093 
L 277.090119 165.044585 
L 277.269455 165.283062 
L 277.359123 165.283062 
L 277.538459 165.442046 
L 277.628127 165.362554 
L 277.717795 165.442046 
L 277.807463 165.362554 
L 277.897131 165.124077 
L 278.076467 165.362554 
L 278.255803 165.20357 
L 278.345472 165.124077 
L 278.524808 165.442046 
L 278.614476 165.521539 
L 278.704144 165.442046 
L 278.973148 165.601031 
L 279.062816 165.601031 
L 279.242152 165.760016 
L 279.421488 165.680523 
L 279.511156 165.601031 
L 279.600824 165.680523 
L 279.690493 165.601031 
L 279.869829 165.680523 
L 280.049165 165.601031 
L 280.587173 166.077985 
L 280.676841 165.839508 
L 280.856177 165.919 
L 281.394186 165.919 
L 281.66319 166.316461 
L 281.842526 166.236969 
L 281.932194 166.316461 
L 282.021862 166.554938 
L 282.201198 166.395954 
L 282.290866 166.475446 
L 282.470203 166.077985 
L 282.828875 166.316461 
L 282.918543 166.316461 
L 283.008211 166.554938 
L 283.097879 166.395954 
L 283.277215 166.713923 
L 283.366883 166.634431 
L 283.456551 166.793415 
L 283.546219 166.634431 
L 283.725555 166.713923 
L 283.904892 166.475446 
L 283.99456 166.475446 
L 284.173896 166.316461 
L 284.353232 166.316461 
L 284.622236 166.634431 
L 284.89124 166.793415 
L 284.980908 166.793415 
L 285.070576 166.634431 
L 285.160245 166.793415 
L 285.339581 166.395954 
L 285.518917 166.634431 
L 285.608585 166.475446 
L 285.698253 166.554938 
L 285.877589 166.316461 
L 286.056925 166.395954 
L 286.325929 166.872907 
L 286.505266 166.634431 
L 286.594934 167.031892 
L 286.77427 166.793415 
L 287.043274 166.9524 
L 287.132942 166.395954 
L 287.22261 166.872907 
L 287.312278 166.793415 
L 287.401946 166.872907 
L 287.67095 167.349861 
L 287.760618 166.9524 
L 287.850286 167.270369 
L 287.939955 167.190876 
L 288.119291 167.508846 
L 288.477963 166.872907 
L 288.567631 167.111384 
L 288.657299 167.031892 
L 288.746967 167.190876 
L 288.836635 167.031892 
L 289.015971 167.270369 
L 289.105639 167.270369 
L 289.284976 167.588338 
L 289.464312 167.508846 
L 289.643648 168.065291 
L 289.733316 167.826815 
L 289.912652 168.144784 
L 290.091988 168.065291 
L 290.45066 168.780722 
L 290.540328 168.860214 
L 291.526677 171.642444 
L 291.616345 172.198889 
L 291.706013 172.119396 
L 291.885349 173.073305 
L 292.871698 178.876239 
L 293.499375 185.156127 
L 294.216719 196.126062 
L 295.472072 217.191499 
L 295.56174 217.3505 
L 295.741076 216.07862 
L 295.920412 212.978407 
L 296.099749 207.572935 
L 296.906761 172.834826 
L 297.444769 144.694563 
L 297.803442 137.46077 
L 298.162114 135.473462 
L 298.431118 134.99651 
L 298.700122 135.155486 
L 298.879459 134.758034 
L 299.058795 134.91701 
L 299.148463 134.91701 
L 299.507135 136.029914 
L 300.403816 141.196911 
L 300.762488 143.740656 
L 301.928173 151.21293 
L 302.376513 153.756683 
L 302.466181 153.836175 
L 302.824853 155.664498 
L 304.080206 159.877588 
L 304.169874 159.718602 
L 304.349211 160.275049 
L 304.438879 160.195557 
L 304.797551 161.069973 
L 304.887219 161.149463 
L 304.976887 161.069973 
L 305.066555 161.228956 
L 305.156223 161.70591 
L 305.245891 161.387942 
L 305.335559 161.467432 
L 305.425227 161.70591 
L 305.514895 161.626418 
L 305.694232 162.262355 
L 305.873568 162.818802 
L 306.052904 162.341848 
L 306.23224 163.057278 
L 306.321908 162.898293 
L 306.411576 163.216264 
L 306.590912 162.580324 
L 306.770248 162.898293 
L 306.949584 162.818802 
L 307.039253 163.295754 
L 307.128921 163.057278 
L 307.218589 163.136771 
L 307.308257 163.45474 
L 307.397925 163.136771 
L 307.487593 163.375247 
L 307.935933 163.057278 
L 308.115269 163.375247 
L 308.204937 163.216264 
L 308.294605 163.375247 
L 308.384273 163.295754 
L 308.56361 163.772709 
L 308.653278 163.772709 
L 308.832614 164.011185 
L 309.01195 164.090678 
L 309.101618 164.17017 
L 309.191286 164.090678 
L 309.280954 163.852202 
L 309.46029 164.011185 
L 309.549958 163.772709 
L 309.818963 164.329155 
L 309.908631 164.17017 
L 310.177635 164.488139 
L 310.536307 164.726616 
L 310.625975 164.567631 
L 310.805311 164.726616 
L 310.894979 164.488139 
L 311.074315 164.647124 
L 312.060664 165.521539 
L 312.150332 165.362554 
L 312.24 165.521539 
L 312.419336 165.20357 
L 312.509004 165.442046 
L 312.598673 165.283062 
L 313.047013 165.601031 
L 313.226349 165.680523 
L 313.316017 165.919 
L 313.405685 165.760016 
L 313.495353 165.839508 
L 313.674689 165.680523 
L 313.764357 165.760016 
L 313.854025 165.601031 
L 314.033362 165.680523 
L 314.12303 165.601031 
L 314.661038 165.998492 
L 314.750706 165.998492 
L 314.840374 166.157477 
L 314.930042 166.077985 
L 315.01971 166.157477 
L 315.557719 165.760016 
L 316.006059 166.157477 
L 316.095727 166.077985 
L 316.275063 166.475446 
L 316.364731 166.395954 
L 316.544067 166.475446 
L 316.633736 166.475446 
L 316.813072 166.316461 
L 316.992408 166.316461 
L 317.171744 166.157477 
L 317.440748 166.475446 
L 317.620084 166.634431 
L 317.79942 166.713923 
L 317.889088 166.634431 
L 317.978756 166.713923 
L 318.068425 166.9524 
L 318.247761 166.793415 
L 318.337429 166.793415 
L 318.516765 166.634431 
L 318.696101 166.713923 
L 318.785769 166.793415 
L 318.875437 166.634431 
L 319.144441 166.9524 
L 319.234109 166.9524 
L 319.323777 166.793415 
L 319.413446 167.031892 
L 319.503114 166.872907 
L 319.68245 167.190876 
L 319.861786 166.713923 
L 320.041122 166.634431 
L 320.13079 166.793415 
L 320.220458 166.713923 
L 320.310126 166.872907 
L 320.399794 166.554938 
L 320.57913 167.031892 
L 320.758467 167.031892 
L 320.937803 166.872907 
L 321.027471 166.872907 
L 321.117139 166.713923 
L 321.296475 166.9524 
L 321.386143 166.872907 
L 321.475811 167.111384 
L 321.744815 166.793415 
L 322.193156 167.588338 
L 322.372492 167.508846 
L 322.46216 167.66783 
L 322.551828 167.429353 
L 322.731164 167.508846 
L 323.000168 167.190876 
L 323.089836 167.508846 
L 323.179504 167.349861 
L 323.269172 167.429353 
L 323.35884 167.190876 
L 323.448508 167.588338 
L 323.538177 167.429353 
L 323.717513 167.66783 
L 323.986517 167.66783 
L 324.076185 167.826815 
L 324.165853 167.508846 
L 324.345189 167.826815 
L 324.434857 167.66783 
L 325.062534 168.701229 
L 325.24187 168.780722 
L 325.510874 169.575645 
L 325.600542 169.337167 
L 325.69021 169.496152 
L 325.779878 169.257676 
L 327.035231 174.106704 
L 327.304235 175.06061 
L 327.393903 174.981118 
L 327.842244 178.319794 
L 328.290584 182.294408 
L 328.738924 187.381911 
L 329.366601 197.477418 
L 330.442618 215.760643 
L 330.621954 216.555572 
L 330.711622 216.555572 
L 330.980626 213.534859 
L 331.24963 205.267675 
L 331.877307 182.294408 
L 332.504983 145.568976 
L 332.863655 137.699246 
L 333.311996 135.155486 
L 333.581 134.83751 
L 334.208676 135.473462 
L 334.836353 137.142794 
L 335.553697 142.230303 
L 336.181374 146.3639 
L 337.167723 152.564298 
L 337.885067 155.823481 
L 339.050752 159.718602 
L 339.14042 159.718602 
L 339.319756 160.275049 
L 339.499092 160.513525 
L 339.58876 160.910987 
L 339.678428 160.831494 
L 339.768096 160.831494 
L 340.306105 162.023879 
L 340.485441 162.500834 
L 340.575109 162.421341 
L 340.664777 162.421341 
L 340.754445 162.73931 
L 340.844113 162.500834 
L 340.933781 162.818802 
L 341.023449 162.73931 
L 341.113117 162.818802 
L 341.292454 163.136771 
L 341.47179 163.216264 
L 341.651126 163.136771 
L 341.740794 163.136771 
L 341.830462 163.295754 
L 341.92013 163.693216 
L 342.189134 163.375247 
L 342.36847 163.45474 
L 342.547806 163.136771 
L 342.637474 163.45474 
L 342.727143 163.375247 
L 342.996147 163.45474 
L 343.085815 163.693216 
L 343.175483 163.613723 
L 343.265151 163.693216 
L 343.354819 163.613723 
L 343.713491 163.852202 
L 343.803159 163.772709 
L 343.892827 164.011185 
L 344.072164 163.931695 
L 344.2515 164.090678 
L 344.430836 164.17017 
L 344.69984 164.408647 
L 344.789508 164.726616 
L 344.879176 164.567631 
L 345.14818 164.806108 
L 345.327516 164.567631 
L 345.506853 164.726616 
L 345.596521 164.726616 
L 345.775857 164.885601 
L 345.865525 164.885601 
L 346.044861 165.044585 
L 346.224197 165.124077 
L 346.582869 165.362554 
L 346.762206 165.283062 
L 347.210546 165.362554 
L 347.300214 165.601031 
L 347.389882 165.521539 
L 347.47955 165.601031 
L 347.569218 165.839508 
L 347.658886 165.680523 
L 347.838222 165.919 
L 347.92789 165.760016 
L 348.107226 165.998492 
L 348.286563 165.760016 
L 348.555567 165.601031 
L 348.645235 165.601031 
L 348.824571 165.760016 
L 349.272911 166.157477 
L 349.452247 166.077985 
L 349.541916 166.236969 
L 349.631584 166.157477 
L 349.721252 166.236969 
L 349.900588 165.998492 
L 349.990256 165.919 
L 350.169592 166.157477 
L 350.25926 165.998492 
L 350.617932 166.236969 
L 350.7076 166.157477 
L 350.976605 166.316461 
L 351.604281 166.316461 
L 351.783617 166.634431 
L 351.873285 166.475446 
L 352.052621 166.634431 
L 352.231958 166.713923 
L 352.321626 166.634431 
L 352.411294 166.793415 
L 352.500962 166.713923 
L 352.680298 166.793415 
L 353.218306 166.872907 
L 353.397642 167.111384 
L 353.48731 167.270369 
L 353.576978 167.031892 
L 353.666647 167.190876 
L 353.756315 167.111384 
L 353.845983 167.270369 
L 354.025319 167.031892 
L 354.204655 167.111384 
L 354.473659 166.9524 
L 354.742663 167.031892 
L 354.832331 167.270369 
L 354.921999 167.111384 
L 355.101336 167.349861 
L 355.37034 167.508846 
L 355.639344 167.270369 
L 355.729012 167.349861 
L 355.998016 167.031892 
L 356.087684 167.031892 
L 356.177352 167.429353 
L 356.356689 167.190876 
L 356.536025 167.588338 
L 356.625693 167.349861 
L 356.715361 167.747322 
L 356.805029 167.66783 
L 356.894697 167.66783 
L 356.984365 167.906307 
L 357.253369 167.508846 
L 357.343037 167.985799 
L 357.432705 167.66783 
L 357.522373 167.826815 
L 357.612041 167.747322 
L 357.791378 167.826815 
L 357.881046 168.144784 
L 358.060382 167.826815 
L 358.239718 168.144784 
L 358.508722 167.826815 
L 358.59839 167.906307 
L 358.777726 167.66783 
L 358.867394 167.508846 
L 359.04673 167.826815 
L 359.674407 168.303768 
L 359.853743 168.939706 
L 360.033079 168.701229 
L 360.122747 168.780722 
L 360.212415 168.701229 
L 360.391751 168.860214 
L 360.660756 169.337167 
L 360.840092 169.496152 
L 361.198764 170.609045 
L 362.364449 175.06061 
L 362.812789 177.922332 
L 363.171461 180.3071 
L 363.799138 186.825466 
L 365.682167 218.145403 
L 365.771835 218.065928 
L 365.951172 216.953023 
L 366.220176 210.593647 
L 367.027188 178.240301 
L 367.565197 147.158823 
L 367.923869 138.176198 
L 368.282541 135.950414 
L 368.461877 135.711938 
L 368.551545 135.632438 
L 368.641213 135.711938 
L 368.730882 135.632438 
L 368.910218 135.393962 
L 368.999886 135.393962 
L 369.089554 135.234986 
L 369.179222 135.393962 
L 369.26889 135.155486 
L 369.358558 135.314462 
L 369.537894 135.950414 
L 369.627562 135.870914 
L 369.71723 136.983818 
L 369.806898 136.904318 
L 370.075903 138.255699 
L 370.613911 142.071317 
L 372.0486 151.689884 
L 372.138268 151.92836 
L 372.49694 154.154144 
L 372.586608 154.313127 
L 372.855613 155.902974 
L 372.945281 155.743988 
L 373.303953 158.128758 
L 373.393621 157.969772 
L 373.483289 158.287741 
L 373.572957 159.082665 
L 373.752293 158.844189 
L 373.841961 158.923681 
L 374.021297 159.957081 
L 374.200634 160.036571 
L 374.469638 161.149463 
L 374.648974 161.308449 
L 374.82831 161.70591 
L 374.917978 161.626418 
L 375.007646 162.182862 
L 375.186982 161.864894 
L 375.366318 162.500834 
L 375.545655 162.500834 
L 375.724991 163.057278 
L 375.904327 163.45474 
L 375.993995 163.45474 
L 376.083663 163.693216 
L 376.173331 163.613723 
L 376.262999 163.693216 
L 376.352667 164.011185 
L 376.442335 163.693216 
L 376.532003 163.772709 
L 376.621671 163.693216 
L 376.711339 164.090678 
L 376.890676 163.295754 
L 377.070012 163.852202 
L 377.15968 163.931695 
L 377.339016 163.693216 
L 377.428684 164.249662 
L 377.518352 164.17017 
L 377.60802 164.488139 
L 377.787356 164.090678 
L 377.966692 164.488139 
L 378.05636 163.772709 
L 378.235696 164.329155 
L 378.325365 164.408647 
L 378.415033 164.17017 
L 378.504701 164.488139 
L 378.594369 164.090678 
L 378.684037 164.567631 
L 378.773705 164.488139 
L 378.863373 163.931695 
L 379.042709 164.726616 
L 379.132377 164.885601 
L 379.222045 164.647124 
L 379.311713 164.885601 
L 379.491049 164.726616 
L 379.580717 164.806108 
L 379.760054 164.726616 
L 379.849722 164.726616 
L 380.029058 164.885601 
L 380.118726 164.885601 
L 380.208394 165.044585 
L 380.298062 164.965093 
L 380.38773 165.044585 
L 380.477398 165.362554 
L 380.567066 165.283062 
L 380.656734 165.442046 
L 380.83607 165.362554 
L 381.015407 165.442046 
L 381.105075 165.283062 
L 381.284411 165.362554 
L 381.553415 165.362554 
L 381.732751 165.601031 
L 381.912087 165.839508 
L 382.001755 165.839508 
L 382.091423 165.998492 
L 382.181091 165.839508 
L 382.270759 166.157477 
L 382.450096 165.760016 
L 382.539764 165.839508 
L 382.629432 165.839508 
L 382.808768 165.998492 
L 382.988104 165.839508 
L 383.077772 166.077985 
L 383.16744 165.998492 
L 383.705448 166.395954 
L 383.884785 166.157477 
L 383.974453 166.316461 
L 384.243457 165.998492 
L 384.422793 166.236969 
L 384.512461 166.077985 
L 384.691797 166.554938 
L 384.781465 166.395954 
L 384.960801 166.713923 
L 385.050469 166.554938 
L 385.140138 166.713923 
L 385.229806 166.634431 
L 385.319474 166.713923 
L 385.49881 166.475446 
L 385.588478 166.475446 
L 385.678146 166.316461 
L 385.767814 166.475446 
L 385.857482 166.236969 
L 386.036818 166.475446 
L 386.126486 166.316461 
L 386.39549 166.793415 
L 386.574827 166.9524 
L 386.664495 166.872907 
L 386.843831 166.9524 
L 387.112835 166.872907 
L 387.202503 166.793415 
L 387.471507 166.9524 
L 387.561175 166.872907 
L 387.740511 167.111384 
L 388.27852 167.66783 
L 388.457856 167.429353 
L 388.72686 167.349861 
L 388.816528 167.270369 
L 388.995864 167.429353 
L 389.085532 167.349861 
L 389.264869 167.588338 
L 389.354537 167.429353 
L 389.444205 167.66783 
L 389.533873 167.508846 
L 389.802877 167.747322 
L 389.892545 167.588338 
L 389.982213 167.66783 
L 390.340885 167.429353 
L 390.60989 167.508846 
L 390.699558 167.66783 
L 390.789226 167.429353 
L 391.05823 167.66783 
L 391.237566 167.588338 
L 391.327234 167.826815 
L 391.50657 167.508846 
L 391.596238 168.144784 
L 391.865242 167.66783 
L 391.954911 167.826815 
L 392.044579 167.66783 
L 392.223915 167.906307 
L 392.403251 168.38326 
L 392.582587 168.224276 
L 393.030927 168.224276 
L 393.120595 167.985799 
L 393.299931 168.144784 
L 393.479268 167.906307 
L 393.927608 168.38326 
L 394.017276 168.144784 
L 394.106944 168.224276 
L 394.196612 168.065291 
L 394.28628 168.38326 
L 394.375948 168.303768 
L 394.555284 168.224276 
L 394.644952 168.303768 
L 394.734621 168.144784 
L 395.182961 169.019198 
L 395.362297 169.337167 
L 395.451965 169.257676 
L 395.631301 169.973107 
L 395.720969 170.052597 
L 395.810637 169.973107 
L 396.258978 170.847521 
L 396.348646 170.688537 
L 396.438314 170.847521 
L 396.796986 172.437367 
L 397.962671 178.001825 
L 398.590347 183.804759 
L 399.128356 190.482109 
L 400.204373 210.355171 
L 400.563045 215.999119 
L 400.832049 217.3505 
L 401.011385 216.158095 
L 401.190721 213.455359 
L 401.459725 205.108675 
L 402.087402 180.943037 
L 402.62541 148.589684 
L 402.894415 140.878934 
L 403.163419 137.46077 
L 403.432423 136.18889 
L 403.611759 135.791438 
L 403.880763 135.393962 
L 404.329104 135.393962 
L 404.777444 136.665842 
L 404.867112 136.824818 
L 405.315452 139.050602 
L 406.570805 148.192222 
L 407.377818 153.279728 
L 407.467486 153.518207 
L 407.915826 155.664498 
L 409.440183 160.672511 
L 409.619519 160.672511 
L 409.798856 161.228956 
L 409.888524 161.149463 
L 410.157528 161.785403 
L 410.336864 162.421341 
L 410.5162 162.898293 
L 410.605868 163.057278 
L 410.695536 162.977786 
L 410.785204 163.136771 
L 410.874872 163.057278 
L 411.054208 163.375247 
L 411.412881 163.693216 
L 411.592217 163.931695 
L 411.681885 163.852202 
L 411.771553 164.090678 
L 411.861221 163.693216 
L 411.950889 163.931695 
L 412.040557 163.852202 
L 412.399229 164.488139 
L 412.488898 164.408647 
L 412.757902 163.693216 
L 413.116574 164.011185 
L 413.206242 164.249662 
L 413.29591 164.17017 
L 413.475246 164.567631 
L 413.74425 164.488139 
L 413.833918 164.17017 
L 413.923587 164.488139 
L 414.013255 164.249662 
L 414.102923 164.329155 
L 414.192591 164.806108 
L 414.371927 164.567631 
L 414.551263 164.488139 
L 414.730599 164.567631 
L 415.089271 164.965093 
L 415.178939 165.124077 
L 415.268608 164.885601 
L 415.447944 164.965093 
L 415.537612 164.806108 
L 415.806616 165.044585 
L 415.985952 164.885601 
L 416.165288 165.283062 
L 416.344624 165.283062 
L 416.52396 165.760016 
L 416.703297 165.601031 
L 416.792965 165.521539 
L 416.882633 165.680523 
L 416.972301 165.521539 
L 416.972301 165.521539 
" clip-path="url(#p97af11b190)" style="fill: none; stroke: #d94452; stroke-width: 0.8; stroke-linecap: square"/>
   </g>
   <g id="text_17">
    <g id="patch_7">
     <path d="M 89.552606 298.834187 
L 206.652606 298.834187 
Q 209.652606 298.834187 209.652606 295.834187 
L 209.652606 285.234187 
Q 209.652606 282.234187 206.652606 282.234187 
L 89.552606 282.234187 
Q 86.552606 282.234187 86.552606 285.234187 
L 86.552606 295.834187 
Q 86.552606 298.834187 89.552606 298.834187 
z
" style="fill: #ffffff; opacity: 0.85; stroke: #333333; stroke-linejoin: miter"/>
    </g>
    <!-- I$_{p-p}$ = 1.87E-03 mA/m² -->
    <g style="fill: #333333" transform="translate(89.552606 292.734187) scale(0.1 -0.1)">
     <defs>
      <path id="DejaVuSans-49" d="M 628 4666 
L 1259 4666 
L 1259 0 
L 628 0 
L 628 4666 
z
" transform="scale(0.015625)"/>
      <path id="DejaVuSans-Oblique-70" d="M 3175 2156 
Q 3175 2616 2975 2859 
Q 2775 3103 2400 3103 
Q 2144 3103 1911 2972 
Q 1678 2841 1497 2591 
Q 1319 2344 1212 1994 
Q 1106 1644 1106 1300 
Q 1106 863 1306 627 
Q 1506 391 1875 391 
Q 2147 391 2380 519 
Q 2613 647 2778 891 
Q 2956 1147 3065 1494 
Q 3175 1841 3175 2156 
z
M 1394 2969 
Q 1625 3272 1939 3428 
Q 2253 3584 2638 3584 
Q 3175 3584 3472 3232 
Q 3769 2881 3769 2247 
Q 3769 1728 3584 1258 
Q 3400 788 3053 416 
Q 2822 169 2531 39 
Q 2241 -91 1919 -91 
Q 1547 -91 1294 64 
Q 1041 219 916 525 
L 556 -1331 
L -19 -1331 
L 922 3500 
L 1497 3500 
L 1394 2969 
z
" transform="scale(0.015625)"/>
      <path id="DejaVuSans-20" transform="scale(0.015625)"/>
      <path id="DejaVuSans-3d" d="M 678 2906 
L 4684 2906 
L 4684 2381 
L 678 2381 
L 678 2906 
z
M 678 1631 
L 4684 1631 
L 4684 1100 
L 678 1100 
L 678 1631 
z
" transform="scale(0.015625)"/>
      <path id="DejaVuSans-38" d="M 2034 2216 
Q 1584 2216 1326 1975 
Q 1069 1734 1069 1313 
Q 1069 891 1326 650 
Q 1584 409 2034 409 
Q 2484 409 2743 651 
Q 3003 894 3003 1313 
Q 3003 1734 2745 1975 
Q 2488 2216 2034 2216 
z
M 1403 2484 
Q 997 2584 770 2862 
Q 544 3141 544 3541 
Q 544 4100 942 4425 
Q 1341 4750 2034 4750 
Q 2731 4750 3128 4425 
Q 3525 4100 3525 3541 
Q 3525 3141 3298 2862 
Q 3072 2584 2669 2484 
Q 3125 2378 3379 2068 
Q 3634 1759 3634 1313 
Q 3634 634 3220 271 
Q 2806 -91 2034 -91 
Q 1263 -91 848 271 
Q 434 634 434 1313 
Q 434 1759 690 2068 
Q 947 2378 1403 2484 
z
M 1172 3481 
Q 1172 3119 1398 2916 
Q 1625 2713 2034 2713 
Q 2441 2713 2670 2916 
Q 2900 3119 2900 3481 
Q 2900 3844 2670 4047 
Q 2441 4250 2034 4250 
Q 1625 4250 1398 4047 
Q 1172 3844 1172 3481 
z
" transform="scale(0.015625)"/>
      <path id="DejaVuSans-37" d="M 525 4666 
L 3525 4666 
L 3525 4397 
L 1831 0 
L 1172 0 
L 2766 4134 
L 525 4134 
L 525 4666 
z
" transform="scale(0.015625)"/>
      <path id="DejaVuSans-45" d="M 628 4666 
L 3578 4666 
L 3578 4134 
L 1259 4134 
L 1259 2753 
L 3481 2753 
L 3481 2222 
L 1259 2222 
L 1259 531 
L 3634 531 
L 3634 0 
L 628 0 
L 628 4666 
z
" transform="scale(0.015625)"/>
      <path id="DejaVuSans-2d" d="M 313 2009 
L 1997 2009 
L 1997 1497 
L 313 1497 
L 313 2009 
z
" transform="scale(0.015625)"/>
      <path id="DejaVuSans-6d" d="M 3328 2828 
Q 3544 3216 3844 3400 
Q 4144 3584 4550 3584 
Q 5097 3584 5394 3201 
Q 5691 2819 5691 2113 
L 5691 0 
L 5113 0 
L 5113 2094 
Q 5113 2597 4934 2840 
Q 4756 3084 4391 3084 
Q 3944 3084 3684 2787 
Q 3425 2491 3425 1978 
L 3425 0 
L 2847 0 
L 2847 2094 
Q 2847 2600 2669 2842 
Q 2491 3084 2119 3084 
Q 1678 3084 1418 2786 
Q 1159 2488 1159 1978 
L 1159 0 
L 581 0 
L 581 3500 
L 1159 3500 
L 1159 2956 
Q 1356 3278 1631 3431 
Q 1906 3584 2284 3584 
Q 2666 3584 2933 3390 
Q 3200 3197 3328 2828 
z
" transform="scale(0.015625)"/>
      <path id="DejaVuSans-41" d="M 2188 4044 
L 1331 1722 
L 3047 1722 
L 2188 4044 
z
M 1831 4666 
L 2547 4666 
L 4325 0 
L 3669 0 
L 3244 1197 
L 1141 1197 
L 716 0 
L 50 0 
L 1831 4666 
z
" transform="scale(0.015625)"/>
      <path id="DejaVuSans-2f" d="M 1625 4666 
L 2156 4666 
L 531 -594 
L 0 -594 
L 1625 4666 
z
" transform="scale(0.015625)"/>
      <path id="DejaVuSans-b2" d="M 838 2444 
L 2163 2444 
L 2163 2088 
L 294 2088 
L 294 2431 
Q 400 2528 597 2703 
Q 1672 3656 1672 3950 
Q 1672 4156 1509 4282 
Q 1347 4409 1081 4409 
Q 919 4409 728 4354 
Q 538 4300 313 4191 
L 313 4575 
Q 553 4663 761 4706 
Q 969 4750 1147 4750 
Q 1600 4750 1872 4544 
Q 2144 4338 2144 4000 
Q 2144 3566 1109 2678 
Q 934 2528 838 2444 
z
" transform="scale(0.015625)"/>
     </defs>
     <use xlink:href="#DejaVuSans-49" transform="translate(0 0.78125)"/>
     <use xlink:href="#DejaVuSans-Oblique-70" transform="translate(30.449219 -15.625) scale(0.7)"/>
     <use xlink:href="#DejaVuSans-2212" transform="translate(88.520508 -15.625) scale(0.7)"/>
     <use xlink:href="#DejaVuSans-Oblique-70" transform="translate(160.810547 -15.625) scale(0.7)"/>
     <use xlink:href="#DejaVuSans-20" transform="translate(207.978516 0.78125)"/>
     <use xlink:href="#DejaVuSans-3d" transform="translate(239.765625 0.78125)"/>
     <use xlink:href="#DejaVuSans-20" transform="translate(323.554688 0.78125)"/>
     <use xlink:href="#DejaVuSans-31" transform="translate(355.341797 0.78125)"/>
     <use xlink:href="#DejaVuSans-2e" transform="translate(418.964844 0.78125)"/>
     <use xlink:href="#DejaVuSans-38" transform="translate(448.126953 0.78125)"/>
     <use xlink:href="#DejaVuSans-37" transform="translate(511.75 0.78125)"/>
     <use xlink:href="#DejaVuSans-45" transform="translate(575.373047 0.78125)"/>
     <use xlink:href="#DejaVuSans-2d" transform="translate(638.556641 0.78125)"/>
     <use xlink:href="#DejaVuSans-30" transform="translate(674.640625 0.78125)"/>
     <use xlink:href="#DejaVuSans-33" transform="translate(738.263672 0.78125)"/>
     <use xlink:href="#DejaVuSans-20" transform="translate(801.886719 0.78125)"/>
     <use xlink:href="#DejaVuSans-6d" transform="translate(833.673828 0.78125)"/>
     <use xlink:href="#DejaVuSans-41" transform="translate(931.085938 0.78125)"/>
     <use xlink:href="#DejaVuSans-2f" transform="translate(999.494141 0.78125)"/>
     <use xlink:href="#DejaVuSans-6d" transform="translate(1033.185547 0.78125)"/>
     <use xlink:href="#DejaVuSans-b2" transform="translate(1130.597656 0.78125)"/>
    </g>
   </g>
   <g id="text_18">
    <g id="patch_8">
     <path d="M 268.649069 298.834187 
L 386.049069 298.834187 
Q 389.049069 298.834187 389.049069 295.834187 
L 389.049069 285.234187 
Q 389.049069 282.234187 386.049069 282.234187 
L 268.649069 282.234187 
Q 265.649069 282.234187 265.649069 285.234187 
L 265.649069 295.834187 
Q 265.649069 298.834187 268.649069 298.834187 
z
" style="fill: #ffffff; opacity: 0.85; stroke: #d94452; stroke-linejoin: miter"/>
    </g>
    <!-- I$_{p-p}$ = 8.47E-04 mA/m² -->
    <g style="fill: #d94452" transform="translate(268.649069 292.734187) scale(0.1 -0.1)">
     <defs>
      <path id="DejaVuSans-34" d="M 2419 4116 
L 825 1625 
L 2419 1625 
L 2419 4116 
z
M 2253 4666 
L 3047 4666 
L 3047 1625 
L 3713 1625 
L 3713 1100 
L 3047 1100 
L 3047 0 
L 2419 0 
L 2419 1100 
L 313 1100 
L 313 1709 
L 2253 4666 
z
" transform="scale(0.015625)"/>
     </defs>
     <use xlink:href="#DejaVuSans-49" transform="translate(0 0.78125)"/>
     <use xlink:href="#DejaVuSans-Oblique-70" transform="translate(30.449219 -15.625) scale(0.7)"/>
     <use xlink:href="#DejaVuSans-2212" transform="translate(88.520508 -15.625) scale(0.7)"/>
     <use xlink:href="#DejaVuSans-Oblique-70" transform="translate(160.810547 -15.625) scale(0.7)"/>
     <use xlink:href="#DejaVuSans-20" transform="translate(207.978516 0.78125)"/>
     <use xlink:href="#DejaVuSans-3d" transform="translate(239.765625 0.78125)"/>
     <use xlink:href="#DejaVuSans-20" transform="translate(323.554688 0.78125)"/>
     <use xlink:href="#DejaVuSans-38" transform="translate(355.341797 0.78125)"/>
     <use xlink:href="#DejaVuSans-2e" transform="translate(418.964844 0.78125)"/>
     <use xlink:href="#DejaVuSans-34" transform="translate(450.751953 0.78125)"/>
     <use xlink:href="#DejaVuSans-37" transform="translate(514.375 0.78125)"/>
     <use xlink:href="#DejaVuSans-45" transform="translate(577.998047 0.78125)"/>
     <use xlink:href="#DejaVuSans-2d" transform="translate(641.181641 0.78125)"/>
     <use xlink:href="#DejaVuSans-30" transform="translate(677.265625 0.78125)"/>
     <use xlink:href="#DejaVuSans-34" transform="translate(740.888672 0.78125)"/>
     <use xlink:href="#DejaVuSans-20" transform="translate(804.511719 0.78125)"/>
     <use xlink:href="#DejaVuSans-6d" transform="translate(836.298828 0.78125)"/>
     <use xlink:href="#DejaVuSans-41" transform="translate(933.710938 0.78125)"/>
     <use xlink:href="#DejaVuSans-2f" transform="translate(1002.119141 0.78125)"/>
     <use xlink:href="#DejaVuSans-6d" transform="translate(1035.810547 0.78125)"/>
     <use xlink:href="#DejaVuSans-b2" transform="translate(1133.222656 0.78125)"/>
    </g>
   </g>
   <g id="text_19">
    <!-- Short-Circuit Current | f = 2.5 Hz -->
    <g transform="translate(145.635994 14.842187) scale(0.1 -0.1)">
     <defs>
      <path id="DejaVuSans-Bold-53" d="M 3834 4519 
L 3834 3531 
Q 3450 3703 3084 3790 
Q 2719 3878 2394 3878 
Q 1963 3878 1756 3759 
Q 1550 3641 1550 3391 
Q 1550 3203 1689 3098 
Q 1828 2994 2194 2919 
L 2706 2816 
Q 3484 2659 3812 2340 
Q 4141 2022 4141 1434 
Q 4141 663 3683 286 
Q 3225 -91 2284 -91 
Q 1841 -91 1394 -6 
Q 947 78 500 244 
L 500 1259 
Q 947 1022 1364 901 
Q 1781 781 2169 781 
Q 2563 781 2772 912 
Q 2981 1044 2981 1288 
Q 2981 1506 2839 1625 
Q 2697 1744 2272 1838 
L 1806 1941 
Q 1106 2091 782 2419 
Q 459 2747 459 3303 
Q 459 4000 909 4375 
Q 1359 4750 2203 4750 
Q 2588 4750 2994 4692 
Q 3400 4634 3834 4519 
z
" transform="scale(0.015625)"/>
      <path id="DejaVuSans-Bold-68" d="M 4056 2131 
L 4056 0 
L 2931 0 
L 2931 347 
L 2931 1625 
Q 2931 2084 2911 2256 
Q 2891 2428 2841 2509 
Q 2775 2619 2662 2680 
Q 2550 2741 2406 2741 
Q 2056 2741 1856 2470 
Q 1656 2200 1656 1722 
L 1656 0 
L 538 0 
L 538 4863 
L 1656 4863 
L 1656 2988 
Q 1909 3294 2193 3439 
Q 2478 3584 2822 3584 
Q 3428 3584 3742 3212 
Q 4056 2841 4056 2131 
z
" transform="scale(0.015625)"/>
      <path id="DejaVuSans-Bold-6f" d="M 2203 2784 
Q 1831 2784 1636 2517 
Q 1441 2250 1441 1747 
Q 1441 1244 1636 976 
Q 1831 709 2203 709 
Q 2569 709 2762 976 
Q 2956 1244 2956 1747 
Q 2956 2250 2762 2517 
Q 2569 2784 2203 2784 
z
M 2203 3584 
Q 3106 3584 3614 3096 
Q 4122 2609 4122 1747 
Q 4122 884 3614 396 
Q 3106 -91 2203 -91 
Q 1297 -91 786 396 
Q 275 884 275 1747 
Q 275 2609 786 3096 
Q 1297 3584 2203 3584 
z
" transform="scale(0.015625)"/>
      <path id="DejaVuSans-Bold-72" d="M 3138 2547 
Q 2991 2616 2845 2648 
Q 2700 2681 2553 2681 
Q 2122 2681 1889 2404 
Q 1656 2128 1656 1613 
L 1656 0 
L 538 0 
L 538 3500 
L 1656 3500 
L 1656 2925 
Q 1872 3269 2151 3426 
Q 2431 3584 2822 3584 
Q 2878 3584 2943 3579 
Q 3009 3575 3134 3559 
L 3138 2547 
z
" transform="scale(0.015625)"/>
      <path id="DejaVuSans-Bold-74" d="M 1759 4494 
L 1759 3500 
L 2913 3500 
L 2913 2700 
L 1759 2700 
L 1759 1216 
Q 1759 972 1856 886 
Q 1953 800 2241 800 
L 2816 800 
L 2816 0 
L 1856 0 
Q 1194 0 917 276 
Q 641 553 641 1216 
L 641 2700 
L 84 2700 
L 84 3500 
L 641 3500 
L 641 4494 
L 1759 4494 
z
" transform="scale(0.015625)"/>
      <path id="DejaVuSans-Bold-2d" d="M 347 2297 
L 2309 2297 
L 2309 1388 
L 347 1388 
L 347 2297 
z
" transform="scale(0.015625)"/>
      <path id="DejaVuSans-Bold-43" d="M 4288 256 
Q 3956 84 3597 -3 
Q 3238 -91 2847 -91 
Q 1681 -91 1000 561 
Q 319 1213 319 2328 
Q 319 3447 1000 4098 
Q 1681 4750 2847 4750 
Q 3238 4750 3597 4662 
Q 3956 4575 4288 4403 
L 4288 3438 
Q 3953 3666 3628 3772 
Q 3303 3878 2944 3878 
Q 2300 3878 1931 3465 
Q 1563 3053 1563 2328 
Q 1563 1606 1931 1193 
Q 2300 781 2944 781 
Q 3303 781 3628 887 
Q 3953 994 4288 1222 
L 4288 256 
z
" transform="scale(0.015625)"/>
      <path id="DejaVuSans-Bold-63" d="M 3366 3391 
L 3366 2478 
Q 3138 2634 2908 2709 
Q 2678 2784 2431 2784 
Q 1963 2784 1702 2511 
Q 1441 2238 1441 1747 
Q 1441 1256 1702 982 
Q 1963 709 2431 709 
Q 2694 709 2930 787 
Q 3166 866 3366 1019 
L 3366 103 
Q 3103 6 2833 -42 
Q 2563 -91 2291 -91 
Q 1344 -91 809 395 
Q 275 881 275 1747 
Q 275 2613 809 3098 
Q 1344 3584 2291 3584 
Q 2566 3584 2833 3536 
Q 3100 3488 3366 3391 
z
" transform="scale(0.015625)"/>
      <path id="DejaVuSans-Bold-75" d="M 500 1363 
L 500 3500 
L 1625 3500 
L 1625 3150 
Q 1625 2866 1622 2436 
Q 1619 2006 1619 1863 
Q 1619 1441 1641 1255 
Q 1663 1069 1716 984 
Q 1784 875 1895 815 
Q 2006 756 2150 756 
Q 2500 756 2700 1025 
Q 2900 1294 2900 1772 
L 2900 3500 
L 4019 3500 
L 4019 0 
L 2900 0 
L 2900 506 
Q 2647 200 2364 54 
Q 2081 -91 1741 -91 
Q 1134 -91 817 281 
Q 500 653 500 1363 
z
" transform="scale(0.015625)"/>
      <path id="DejaVuSans-Bold-6e" d="M 4056 2131 
L 4056 0 
L 2931 0 
L 2931 347 
L 2931 1631 
Q 2931 2084 2911 2256 
Q 2891 2428 2841 2509 
Q 2775 2619 2662 2680 
Q 2550 2741 2406 2741 
Q 2056 2741 1856 2470 
Q 1656 2200 1656 1722 
L 1656 0 
L 538 0 
L 538 3500 
L 1656 3500 
L 1656 2988 
Q 1909 3294 2193 3439 
Q 2478 3584 2822 3584 
Q 3428 3584 3742 3212 
Q 4056 2841 4056 2131 
z
" transform="scale(0.015625)"/>
      <path id="DejaVuSans-Bold-7c" d="M 1522 4891 
L 1522 -1509 
L 813 -1509 
L 813 4891 
L 1522 4891 
z
" transform="scale(0.015625)"/>
      <path id="DejaVuSans-Bold-66" d="M 2841 4863 
L 2841 4128 
L 2222 4128 
Q 1984 4128 1890 4042 
Q 1797 3956 1797 3744 
L 1797 3500 
L 2753 3500 
L 2753 2700 
L 1797 2700 
L 1797 0 
L 678 0 
L 678 2700 
L 122 2700 
L 122 3500 
L 678 3500 
L 678 3744 
Q 678 4316 997 4589 
Q 1316 4863 1984 4863 
L 2841 4863 
z
" transform="scale(0.015625)"/>
      <path id="DejaVuSans-Bold-3d" d="M 678 3084 
L 4684 3084 
L 4684 2350 
L 678 2350 
L 678 3084 
z
M 678 1663 
L 4684 1663 
L 4684 922 
L 678 922 
L 678 1663 
z
" transform="scale(0.015625)"/>
      <path id="DejaVuSans-Bold-32" d="M 1844 884 
L 3897 884 
L 3897 0 
L 506 0 
L 506 884 
L 2209 2388 
Q 2438 2594 2547 2791 
Q 2656 2988 2656 3200 
Q 2656 3528 2436 3728 
Q 2216 3928 1850 3928 
Q 1569 3928 1234 3808 
Q 900 3688 519 3450 
L 519 4475 
Q 925 4609 1322 4679 
Q 1719 4750 2100 4750 
Q 2938 4750 3402 4381 
Q 3866 4013 3866 3353 
Q 3866 2972 3669 2642 
Q 3472 2313 2841 1759 
L 1844 884 
z
" transform="scale(0.015625)"/>
      <path id="DejaVuSans-Bold-2e" d="M 653 1209 
L 1778 1209 
L 1778 0 
L 653 0 
L 653 1209 
z
" transform="scale(0.015625)"/>
      <path id="DejaVuSans-Bold-35" d="M 678 4666 
L 3669 4666 
L 3669 3781 
L 1638 3781 
L 1638 3059 
Q 1775 3097 1914 3117 
Q 2053 3138 2203 3138 
Q 3056 3138 3531 2711 
Q 4006 2284 4006 1522 
Q 4006 766 3489 337 
Q 2972 -91 2053 -91 
Q 1656 -91 1267 -14 
Q 878 63 494 219 
L 494 1166 
Q 875 947 1217 837 
Q 1559 728 1863 728 
Q 2300 728 2551 942 
Q 2803 1156 2803 1522 
Q 2803 1891 2551 2103 
Q 2300 2316 1863 2316 
Q 1603 2316 1309 2248 
Q 1016 2181 678 2041 
L 678 4666 
z
" transform="scale(0.015625)"/>
      <path id="DejaVuSans-Bold-48" d="M 588 4666 
L 1791 4666 
L 1791 2888 
L 3566 2888 
L 3566 4666 
L 4769 4666 
L 4769 0 
L 3566 0 
L 3566 1978 
L 1791 1978 
L 1791 0 
L 588 0 
L 588 4666 
z
" transform="scale(0.015625)"/>
      <path id="DejaVuSans-Bold-7a" d="M 366 3500 
L 3419 3500 
L 3419 2719 
L 1575 800 
L 3419 800 
L 3419 0 
L 288 0 
L 288 781 
L 2131 2700 
L 366 2700 
L 366 3500 
z
" transform="scale(0.015625)"/>
     </defs>
     <use xlink:href="#DejaVuSans-Bold-53"/>
     <use xlink:href="#DejaVuSans-Bold-68" transform="translate(72.021484 0)"/>
     <use xlink:href="#DejaVuSans-Bold-6f" transform="translate(143.212891 0)"/>
     <use xlink:href="#DejaVuSans-Bold-72" transform="translate(211.914062 0)"/>
     <use xlink:href="#DejaVuSans-Bold-74" transform="translate(261.230469 0)"/>
     <use xlink:href="#DejaVuSans-Bold-2d" transform="translate(309.033203 0)"/>
     <use xlink:href="#DejaVuSans-Bold-43" transform="translate(350.537109 0)"/>
     <use xlink:href="#DejaVuSans-Bold-69" transform="translate(423.925781 0)"/>
     <use xlink:href="#DejaVuSans-Bold-72" transform="translate(458.203125 0)"/>
     <use xlink:href="#DejaVuSans-Bold-63" transform="translate(507.519531 0)"/>
     <use xlink:href="#DejaVuSans-Bold-75" transform="translate(566.796875 0)"/>
     <use xlink:href="#DejaVuSans-Bold-69" transform="translate(637.988281 0)"/>
     <use xlink:href="#DejaVuSans-Bold-74" transform="translate(672.265625 0)"/>
     <use xlink:href="#DejaVuSans-Bold-20" transform="translate(720.068359 0)"/>
     <use xlink:href="#DejaVuSans-Bold-43" transform="translate(754.882812 0)"/>
     <use xlink:href="#DejaVuSans-Bold-75" transform="translate(828.271484 0)"/>
     <use xlink:href="#DejaVuSans-Bold-72" transform="translate(899.462891 0)"/>
     <use xlink:href="#DejaVuSans-Bold-72" transform="translate(948.779297 0)"/>
     <use xlink:href="#DejaVuSans-Bold-65" transform="translate(998.095703 0)"/>
     <use xlink:href="#DejaVuSans-Bold-6e" transform="translate(1065.917969 0)"/>
     <use xlink:href="#DejaVuSans-Bold-74" transform="translate(1137.109375 0)"/>
     <use xlink:href="#DejaVuSans-Bold-20" transform="translate(1184.912109 0)"/>
     <use xlink:href="#DejaVuSans-Bold-7c" transform="translate(1219.726562 0)"/>
     <use xlink:href="#DejaVuSans-Bold-20" transform="translate(1256.25 0)"/>
     <use xlink:href="#DejaVuSans-Bold-66" transform="translate(1291.064453 0)"/>
     <use xlink:href="#DejaVuSans-Bold-20" transform="translate(1334.570312 0)"/>
     <use xlink:href="#DejaVuSans-Bold-3d" transform="translate(1369.384766 0)"/>
     <use xlink:href="#DejaVuSans-Bold-20" transform="translate(1453.173828 0)"/>
     <use xlink:href="#DejaVuSans-Bold-32" transform="translate(1487.988281 0)"/>
     <use xlink:href="#DejaVuSans-Bold-2e" transform="translate(1557.568359 0)"/>
     <use xlink:href="#DejaVuSans-Bold-35" transform="translate(1595.556641 0)"/>
     <use xlink:href="#DejaVuSans-Bold-20" transform="translate(1665.136719 0)"/>
     <use xlink:href="#DejaVuSans-Bold-48" transform="translate(1699.951172 0)"/>
     <use xlink:href="#DejaVuSans-Bold-7a" transform="translate(1783.642578 0)"/>
    </g>
   </g>
   <g id="text_20">
    <!-- Without MIC -->
    <g style="fill: #333333" transform="translate(99.370575 47.848) scale(0.14 -0.14)">
     <defs>
      <path id="DejaVuSans-Bold-57" d="M 191 4666 
L 1344 4666 
L 2150 1275 
L 2950 4666 
L 4109 4666 
L 4909 1275 
L 5716 4666 
L 6859 4666 
L 5759 0 
L 4372 0 
L 3525 3547 
L 2688 0 
L 1300 0 
L 191 4666 
z
" transform="scale(0.015625)"/>
      <path id="DejaVuSans-Bold-4d" d="M 588 4666 
L 2119 4666 
L 3181 2169 
L 4250 4666 
L 5778 4666 
L 5778 0 
L 4641 0 
L 4641 3413 
L 3566 897 
L 2803 897 
L 1728 3413 
L 1728 0 
L 588 0 
L 588 4666 
z
" transform="scale(0.015625)"/>
     </defs>
     <use xlink:href="#DejaVuSans-Bold-57"/>
     <use xlink:href="#DejaVuSans-Bold-69" transform="translate(110.302734 0)"/>
     <use xlink:href="#DejaVuSans-Bold-74" transform="translate(144.580078 0)"/>
     <use xlink:href="#DejaVuSans-Bold-68" transform="translate(192.382812 0)"/>
     <use xlink:href="#DejaVuSans-Bold-6f" transform="translate(263.574219 0)"/>
     <use xlink:href="#DejaVuSans-Bold-75" transform="translate(332.275391 0)"/>
     <use xlink:href="#DejaVuSans-Bold-74" transform="translate(403.466797 0)"/>
     <use xlink:href="#DejaVuSans-Bold-20" transform="translate(451.269531 0)"/>
     <use xlink:href="#DejaVuSans-Bold-4d" transform="translate(486.083984 0)"/>
     <use xlink:href="#DejaVuSans-Bold-49" transform="translate(585.595703 0)"/>
     <use xlink:href="#DejaVuSans-Bold-43" transform="translate(622.802734 0)"/>
    </g>
   </g>
   <g id="text_21">
    <!-- With MIC -->
    <g style="fill: #d94452" transform="translate(291.755163 47.848) scale(0.14 -0.14)">
     <use xlink:href="#DejaVuSans-Bold-57"/>
     <use xlink:href="#DejaVuSans-Bold-69" transform="translate(110.302734 0)"/>
     <use xlink:href="#DejaVuSans-Bold-74" transform="translate(144.580078 0)"/>
     <use xlink:href="#DejaVuSans-Bold-68" transform="translate(192.382812 0)"/>
     <use xlink:href="#DejaVuSans-Bold-20" transform="translate(263.574219 0)"/>
     <use xlink:href="#DejaVuSans-Bold-4d" transform="translate(298.388672 0)"/>
     <use xlink:href="#DejaVuSans-Bold-49" transform="translate(397.900391 0)"/>
     <use xlink:href="#DejaVuSans-Bold-43" transform="translate(435.107422 0)"/>
    </g>
   </g>
  </g>
 </g>
 <defs>
  <clipPath id="p97af11b190">
   <rect x="58.479375" y="22.842187" width="358.492926" height="287.36"/>
  </clipPath>
 </defs>
</svg>
