<?xml version="1.0" encoding="utf-8" standalone="no"?>
<!DOCTYPE svg PUBLIC "-//W3C//DTD SVG 1.1//EN"
  "http://www.w3.org/Graphics/SVG/1.1/DTD/svg11.dtd">
<svg xmlns:xlink="http://www.w3.org/1999/xlink" width="424.174pt" height="352.5975pt" viewBox="0 0 424.174 352.5975" xmlns="http://www.w3.org/2000/svg" version="1.1">
 <metadata>
  <rdf:RDF xmlns:dc="http://purl.org/dc/elements/1.1/" xmlns:cc="http://creativecommons.org/ns#" xmlns:rdf="http://www.w3.org/1999/02/22-rdf-syntax-ns#">
   <cc:Work>
    <dc:type rdf:resource="http://purl.org/dc/dcmitype/StillImage"/>
    <dc:date>2026-04-26T16:42:36.605973</dc:date>
    <dc:format>image/svg+xml</dc:format>
    <dc:creator>
     <cc:Agent>
      <dc:title>Matplotlib v3.10.8, https://matplotlib.org/</dc:title>
     </cc:Agent>
    </dc:creator>
   </cc:Work>
  </rdf:RDF>
 </metadata>
 <defs>
  <style type="text/css">*{stroke-linejoin: round; stroke-linecap: butt}</style>
 </defs>
 <g id="figure_1">
  <g id="patch_1">
   <path d="M 0 352.5975 
L 424.174 352.5975 
L 424.174 0 
L 0 0 
z
" style="fill: #ffffff"/>
  </g>
  <g id="axes_1">
   <g id="patch_2">
    <path d="M 61.963281 310.202188 
L 408.227281 310.202188 
L 408.227281 22.842187 
L 61.963281 22.842187 
z
" style="fill: #ffffff"/>
   </g>
   <g id="patch_3">
    <path d="M 61.963281 310.202188 
L 210.362138 310.202188 
L 210.362138 22.842187 
L 61.963281 22.842187 
z
" clip-path="url(#p33fe1b6416)" style="fill: #cccccc; opacity: 0.12; stroke: #cccccc; stroke-linejoin: miter"/>
   </g>
   <g id="patch_4">
    <path d="M 210.362138 310.202188 
L 408.227281 310.202188 
L 408.227281 22.842187 
L 210.362138 22.842187 
z
" clip-path="url(#p33fe1b6416)" style="fill: #d94452; opacity: 0.06; stroke: #d94452; stroke-linejoin: miter"/>
   </g>
   <g id="line2d_1">
    <path d="M 210.362138 310.202188 
L 210.362138 22.842187 
" clip-path="url(#p33fe1b6416)" style="fill: none; stroke-dasharray: 3.7,1.6; stroke-dashoffset: 0; stroke: #999999"/>
   </g>
   <g id="matplotlib.axis_1">
    <g id="xtick_1">
     <g id="line2d_2">
      <defs>
       <path id="m0d4260509f" d="M 0 0 
L 0 3.5 
" style="stroke: #000000; stroke-width: 0.8"/>
      </defs>
      <g>
       <use xlink:href="#m0d4260509f" x="61.963281" y="310.202188" style="stroke: #000000; stroke-width: 0.8"/>
      </g>
     </g>
     <g id="text_1">
      <!-- 0.0 -->
      <g transform="translate(53.216563 325.560469) scale(0.11 -0.11)">
       <defs>
        <path id="DejaVuSans-30" d="M 2034 4250 
Q 1547 4250 1301 3770 
Q 1056 3291 1056 2328 
Q 1056 1369 1301 889 
Q 1547 409 2034 409 
Q 2525 409 2770 889 
Q 3016 1369 3016 2328 
Q 3016 3291 2770 3770 
Q 2525 4250 2034 4250 
z
M 2034 4750 
Q 2819 4750 3233 4129 
Q 3647 3509 3647 2328 
Q 3647 1150 3233 529 
Q 2819 -91 2034 -91 
Q 1250 -91 836 529 
Q 422 1150 422 2328 
Q 422 3509 836 4129 
Q 1250 4750 2034 4750 
z
" transform="scale(0.015625)"/>
        <path id="DejaVuSans-2e" d="M 684 794 
L 1344 794 
L 1344 0 
L 684 0 
L 684 794 
z
" transform="scale(0.015625)"/>
       </defs>
       <use xlink:href="#DejaVuSans-30"/>
       <use xlink:href="#DejaVuSans-2e" transform="translate(63.623047 0)"/>
       <use xlink:href="#DejaVuSans-30" transform="translate(95.410156 0)"/>
      </g>
     </g>
    </g>
    <g id="xtick_2">
     <g id="line2d_3">
      <g>
       <use xlink:href="#m0d4260509f" x="111.429567" y="310.202188" style="stroke: #000000; stroke-width: 0.8"/>
      </g>
     </g>
     <g id="text_2">
      <!-- 0.5 -->
      <g transform="translate(102.682848 325.560469) scale(0.11 -0.11)">
       <defs>
        <path id="DejaVuSans-35" d="M 691 4666 
L 3169 4666 
L 3169 4134 
L 1269 4134 
L 1269 2991 
Q 1406 3038 1543 3061 
Q 1681 3084 1819 3084 
Q 2600 3084 3056 2656 
Q 3513 2228 3513 1497 
Q 3513 744 3044 326 
Q 2575 -91 1722 -91 
Q 1428 -91 1123 -41 
Q 819 9 494 109 
L 494 744 
Q 775 591 1075 516 
Q 1375 441 1709 441 
Q 2250 441 2565 725 
Q 2881 1009 2881 1497 
Q 2881 1984 2565 2268 
Q 2250 2553 1709 2553 
Q 1456 2553 1204 2497 
Q 953 2441 691 2322 
L 691 4666 
z
" transform="scale(0.015625)"/>
       </defs>
       <use xlink:href="#DejaVuSans-30"/>
       <use xlink:href="#DejaVuSans-2e" transform="translate(63.623047 0)"/>
       <use xlink:href="#DejaVuSans-35" transform="translate(95.410156 0)"/>
      </g>
     </g>
    </g>
    <g id="xtick_3">
     <g id="line2d_4">
      <g>
       <use xlink:href="#m0d4260509f" x="160.895853" y="310.202188" style="stroke: #000000; stroke-width: 0.8"/>
      </g>
     </g>
     <g id="text_3">
      <!-- 1.0 -->
      <g transform="translate(152.149134 325.560469) scale(0.11 -0.11)">
       <defs>
        <path id="DejaVuSans-31" d="M 794 531 
L 1825 531 
L 1825 4091 
L 703 3866 
L 703 4441 
L 1819 4666 
L 2450 4666 
L 2450 531 
L 3481 531 
L 3481 0 
L 794 0 
L 794 531 
z
" transform="scale(0.015625)"/>
       </defs>
       <use xlink:href="#DejaVuSans-31"/>
       <use xlink:href="#DejaVuSans-2e" transform="translate(63.623047 0)"/>
       <use xlink:href="#DejaVuSans-30" transform="translate(95.410156 0)"/>
      </g>
     </g>
    </g>
    <g id="xtick_4">
     <g id="line2d_5">
      <g>
       <use xlink:href="#m0d4260509f" x="210.362138" y="310.202188" style="stroke: #000000; stroke-width: 0.8"/>
      </g>
     </g>
     <g id="text_4">
      <!-- 1.5 -->
      <g transform="translate(201.61542 325.560469) scale(0.11 -0.11)">
       <use xlink:href="#DejaVuSans-31"/>
       <use xlink:href="#DejaVuSans-2e" transform="translate(63.623047 0)"/>
       <use xlink:href="#DejaVuSans-35" transform="translate(95.410156 0)"/>
      </g>
     </g>
    </g>
    <g id="xtick_5">
     <g id="line2d_6">
      <g>
       <use xlink:href="#m0d4260509f" x="259.828424" y="310.202188" style="stroke: #000000; stroke-width: 0.8"/>
      </g>
     </g>
     <g id="text_5">
      <!-- 2.0 -->
      <g transform="translate(251.081705 325.560469) scale(0.11 -0.11)">
       <defs>
        <path id="DejaVuSans-32" d="M 1228 531 
L 3431 531 
L 3431 0 
L 469 0 
L 469 531 
Q 828 903 1448 1529 
Q 2069 2156 2228 2338 
Q 2531 2678 2651 2914 
Q 2772 3150 2772 3378 
Q 2772 3750 2511 3984 
Q 2250 4219 1831 4219 
Q 1534 4219 1204 4116 
Q 875 4013 500 3803 
L 500 4441 
Q 881 4594 1212 4672 
Q 1544 4750 1819 4750 
Q 2544 4750 2975 4387 
Q 3406 4025 3406 3419 
Q 3406 3131 3298 2873 
Q 3191 2616 2906 2266 
Q 2828 2175 2409 1742 
Q 1991 1309 1228 531 
z
" transform="scale(0.015625)"/>
       </defs>
       <use xlink:href="#DejaVuSans-32"/>
       <use xlink:href="#DejaVuSans-2e" transform="translate(63.623047 0)"/>
       <use xlink:href="#DejaVuSans-30" transform="translate(95.410156 0)"/>
      </g>
     </g>
    </g>
    <g id="xtick_6">
     <g id="line2d_7">
      <g>
       <use xlink:href="#m0d4260509f" x="309.29471" y="310.202188" style="stroke: #000000; stroke-width: 0.8"/>
      </g>
     </g>
     <g id="text_6">
      <!-- 2.5 -->
      <g transform="translate(300.547991 325.560469) scale(0.11 -0.11)">
       <use xlink:href="#DejaVuSans-32"/>
       <use xlink:href="#DejaVuSans-2e" transform="translate(63.623047 0)"/>
       <use xlink:href="#DejaVuSans-35" transform="translate(95.410156 0)"/>
      </g>
     </g>
    </g>
    <g id="xtick_7">
     <g id="line2d_8">
      <g>
       <use xlink:href="#m0d4260509f" x="358.760996" y="310.202188" style="stroke: #000000; stroke-width: 0.8"/>
      </g>
     </g>
     <g id="text_7">
      <!-- 3.0 -->
      <g transform="translate(350.014277 325.560469) scale(0.11 -0.11)">
       <defs>
        <path id="DejaVuSans-33" d="M 2597 2516 
Q 3050 2419 3304 2112 
Q 3559 1806 3559 1356 
Q 3559 666 3084 287 
Q 2609 -91 1734 -91 
Q 1441 -91 1130 -33 
Q 819 25 488 141 
L 488 750 
Q 750 597 1062 519 
Q 1375 441 1716 441 
Q 2309 441 2620 675 
Q 2931 909 2931 1356 
Q 2931 1769 2642 2001 
Q 2353 2234 1838 2234 
L 1294 2234 
L 1294 2753 
L 1863 2753 
Q 2328 2753 2575 2939 
Q 2822 3125 2822 3475 
Q 2822 3834 2567 4026 
Q 2313 4219 1838 4219 
Q 1578 4219 1281 4162 
Q 984 4106 628 3988 
L 628 4550 
Q 988 4650 1302 4700 
Q 1616 4750 1894 4750 
Q 2613 4750 3031 4423 
Q 3450 4097 3450 3541 
Q 3450 3153 3228 2886 
Q 3006 2619 2597 2516 
z
" transform="scale(0.015625)"/>
       </defs>
       <use xlink:href="#DejaVuSans-33"/>
       <use xlink:href="#DejaVuSans-2e" transform="translate(63.623047 0)"/>
       <use xlink:href="#DejaVuSans-30" transform="translate(95.410156 0)"/>
      </g>
     </g>
    </g>
    <g id="xtick_8">
     <g id="line2d_9">
      <g>
       <use xlink:href="#m0d4260509f" x="408.227281" y="310.202188" style="stroke: #000000; stroke-width: 0.8"/>
      </g>
     </g>
     <g id="text_8">
      <!-- 3.5 -->
      <g transform="translate(399.480562 325.560469) scale(0.11 -0.11)">
       <use xlink:href="#DejaVuSans-33"/>
       <use xlink:href="#DejaVuSans-2e" transform="translate(63.623047 0)"/>
       <use xlink:href="#DejaVuSans-35" transform="translate(95.410156 0)"/>
      </g>
     </g>
    </g>
    <g id="text_9">
     <!-- Time (s) -->
     <g transform="translate(202.876687 342.485938) scale(0.14 -0.14)">
      <defs>
       <path id="DejaVuSans-Bold-54" d="M 31 4666 
L 4331 4666 
L 4331 3756 
L 2784 3756 
L 2784 0 
L 1581 0 
L 1581 3756 
L 31 3756 
L 31 4666 
z
" transform="scale(0.015625)"/>
       <path id="DejaVuSans-Bold-69" d="M 538 3500 
L 1656 3500 
L 1656 0 
L 538 0 
L 538 3500 
z
M 538 4863 
L 1656 4863 
L 1656 3950 
L 538 3950 
L 538 4863 
z
" transform="scale(0.015625)"/>
       <path id="DejaVuSans-Bold-6d" d="M 3781 2919 
Q 3994 3244 4286 3414 
Q 4578 3584 4928 3584 
Q 5531 3584 5847 3212 
Q 6163 2841 6163 2131 
L 6163 0 
L 5038 0 
L 5038 1825 
Q 5041 1866 5042 1909 
Q 5044 1953 5044 2034 
Q 5044 2406 4934 2573 
Q 4825 2741 4581 2741 
Q 4263 2741 4089 2478 
Q 3916 2216 3909 1719 
L 3909 0 
L 2784 0 
L 2784 1825 
Q 2784 2406 2684 2573 
Q 2584 2741 2328 2741 
Q 2006 2741 1831 2477 
Q 1656 2213 1656 1722 
L 1656 0 
L 531 0 
L 531 3500 
L 1656 3500 
L 1656 2988 
Q 1863 3284 2130 3434 
Q 2397 3584 2719 3584 
Q 3081 3584 3359 3409 
Q 3638 3234 3781 2919 
z
" transform="scale(0.015625)"/>
       <path id="DejaVuSans-Bold-65" d="M 4031 1759 
L 4031 1441 
L 1416 1441 
Q 1456 1047 1700 850 
Q 1944 653 2381 653 
Q 2734 653 3104 758 
Q 3475 863 3866 1075 
L 3866 213 
Q 3469 63 3072 -14 
Q 2675 -91 2278 -91 
Q 1328 -91 801 392 
Q 275 875 275 1747 
Q 275 2603 792 3093 
Q 1309 3584 2216 3584 
Q 3041 3584 3536 3087 
Q 4031 2591 4031 1759 
z
M 2881 2131 
Q 2881 2450 2695 2645 
Q 2509 2841 2209 2841 
Q 1884 2841 1681 2658 
Q 1478 2475 1428 2131 
L 2881 2131 
z
" transform="scale(0.015625)"/>
       <path id="DejaVuSans-Bold-20" transform="scale(0.015625)"/>
       <path id="DejaVuSans-Bold-28" d="M 2413 -844 
L 1484 -844 
Q 1006 -72 778 623 
Q 550 1319 550 2003 
Q 550 2688 779 3389 
Q 1009 4091 1484 4856 
L 2413 4856 
Q 2013 4116 1813 3408 
Q 1613 2700 1613 2009 
Q 1613 1319 1811 609 
Q 2009 -100 2413 -844 
z
" transform="scale(0.015625)"/>
       <path id="DejaVuSans-Bold-73" d="M 3272 3391 
L 3272 2541 
Q 2913 2691 2578 2766 
Q 2244 2841 1947 2841 
Q 1628 2841 1473 2761 
Q 1319 2681 1319 2516 
Q 1319 2381 1436 2309 
Q 1553 2238 1856 2203 
L 2053 2175 
Q 2913 2066 3209 1816 
Q 3506 1566 3506 1031 
Q 3506 472 3093 190 
Q 2681 -91 1863 -91 
Q 1516 -91 1145 -36 
Q 775 19 384 128 
L 384 978 
Q 719 816 1070 734 
Q 1422 653 1784 653 
Q 2113 653 2278 743 
Q 2444 834 2444 1013 
Q 2444 1163 2330 1236 
Q 2216 1309 1875 1350 
L 1678 1375 
Q 931 1469 631 1722 
Q 331 1975 331 2491 
Q 331 3047 712 3315 
Q 1094 3584 1881 3584 
Q 2191 3584 2531 3537 
Q 2872 3491 3272 3391 
z
" transform="scale(0.015625)"/>
       <path id="DejaVuSans-Bold-29" d="M 513 -844 
Q 913 -100 1113 609 
Q 1313 1319 1313 2009 
Q 1313 2700 1113 3408 
Q 913 4116 513 4856 
L 1441 4856 
Q 1916 4091 2145 3389 
Q 2375 2688 2375 2003 
Q 2375 1319 2147 623 
Q 1919 -72 1441 -844 
L 513 -844 
z
" transform="scale(0.015625)"/>
      </defs>
      <use xlink:href="#DejaVuSans-Bold-54"/>
      <use xlink:href="#DejaVuSans-Bold-69" transform="translate(68.212891 0)"/>
      <use xlink:href="#DejaVuSans-Bold-6d" transform="translate(102.490234 0)"/>
      <use xlink:href="#DejaVuSans-Bold-65" transform="translate(206.689453 0)"/>
      <use xlink:href="#DejaVuSans-Bold-20" transform="translate(274.511719 0)"/>
      <use xlink:href="#DejaVuSans-Bold-28" transform="translate(309.326172 0)"/>
      <use xlink:href="#DejaVuSans-Bold-73" transform="translate(355.029297 0)"/>
      <use xlink:href="#DejaVuSans-Bold-29" transform="translate(414.550781 0)"/>
     </g>
    </g>
   </g>
   <g id="matplotlib.axis_2">
    <g id="ytick_1">
     <g id="line2d_10">
      <defs>
       <path id="m1d61619f06" d="M 0 0 
L -3.5 0 
" style="stroke: #000000; stroke-width: 0.8"/>
      </defs>
      <g>
       <use xlink:href="#m1d61619f06" x="61.963281" y="293.056264" style="stroke: #000000; stroke-width: 0.8"/>
      </g>
     </g>
     <g id="text_10">
      <!-- −300 -->
      <g transform="translate(24.749375 297.235405) scale(0.11 -0.11)">
       <defs>
        <path id="DejaVuSans-2212" d="M 678 2272 
L 4684 2272 
L 4684 1741 
L 678 1741 
L 678 2272 
z
" transform="scale(0.015625)"/>
       </defs>
       <use xlink:href="#DejaVuSans-2212"/>
       <use xlink:href="#DejaVuSans-33" transform="translate(83.789062 0)"/>
       <use xlink:href="#DejaVuSans-30" transform="translate(147.412109 0)"/>
       <use xlink:href="#DejaVuSans-30" transform="translate(211.035156 0)"/>
      </g>
     </g>
    </g>
    <g id="ytick_2">
     <g id="line2d_11">
      <g>
       <use xlink:href="#m1d61619f06" x="61.963281" y="250.878239" style="stroke: #000000; stroke-width: 0.8"/>
      </g>
     </g>
     <g id="text_11">
      <!-- −200 -->
      <g transform="translate(24.749375 255.057379) scale(0.11 -0.11)">
       <use xlink:href="#DejaVuSans-2212"/>
       <use xlink:href="#DejaVuSans-32" transform="translate(83.789062 0)"/>
       <use xlink:href="#DejaVuSans-30" transform="translate(147.412109 0)"/>
       <use xlink:href="#DejaVuSans-30" transform="translate(211.035156 0)"/>
      </g>
     </g>
    </g>
    <g id="ytick_3">
     <g id="line2d_12">
      <g>
       <use xlink:href="#m1d61619f06" x="61.963281" y="208.700213" style="stroke: #000000; stroke-width: 0.8"/>
      </g>
     </g>
     <g id="text_12">
      <!-- −100 -->
      <g transform="translate(24.749375 212.879354) scale(0.11 -0.11)">
       <use xlink:href="#DejaVuSans-2212"/>
       <use xlink:href="#DejaVuSans-31" transform="translate(83.789062 0)"/>
       <use xlink:href="#DejaVuSans-30" transform="translate(147.412109 0)"/>
       <use xlink:href="#DejaVuSans-30" transform="translate(211.035156 0)"/>
      </g>
     </g>
    </g>
    <g id="ytick_4">
     <g id="line2d_13">
      <g>
       <use xlink:href="#m1d61619f06" x="61.963281" y="166.522187" style="stroke: #000000; stroke-width: 0.8"/>
      </g>
     </g>
     <g id="text_13">
      <!-- 0 -->
      <g transform="translate(47.964531 170.701328) scale(0.11 -0.11)">
       <use xlink:href="#DejaVuSans-30"/>
      </g>
     </g>
    </g>
    <g id="ytick_5">
     <g id="line2d_14">
      <g>
       <use xlink:href="#m1d61619f06" x="61.963281" y="124.344162" style="stroke: #000000; stroke-width: 0.8"/>
      </g>
     </g>
     <g id="text_14">
      <!-- 100 -->
      <g transform="translate(33.967031 128.523303) scale(0.11 -0.11)">
       <use xlink:href="#DejaVuSans-31"/>
       <use xlink:href="#DejaVuSans-30" transform="translate(63.623047 0)"/>
       <use xlink:href="#DejaVuSans-30" transform="translate(127.246094 0)"/>
      </g>
     </g>
    </g>
    <g id="ytick_6">
     <g id="line2d_15">
      <g>
       <use xlink:href="#m1d61619f06" x="61.963281" y="82.166136" style="stroke: #000000; stroke-width: 0.8"/>
      </g>
     </g>
     <g id="text_15">
      <!-- 200 -->
      <g transform="translate(33.967031 86.345277) scale(0.11 -0.11)">
       <use xlink:href="#DejaVuSans-32"/>
       <use xlink:href="#DejaVuSans-30" transform="translate(63.623047 0)"/>
       <use xlink:href="#DejaVuSans-30" transform="translate(127.246094 0)"/>
      </g>
     </g>
    </g>
    <g id="ytick_7">
     <g id="line2d_16">
      <g>
       <use xlink:href="#m1d61619f06" x="61.963281" y="39.988111" style="stroke: #000000; stroke-width: 0.8"/>
      </g>
     </g>
     <g id="text_16">
      <!-- 300 -->
      <g transform="translate(33.967031 44.167252) scale(0.11 -0.11)">
       <use xlink:href="#DejaVuSans-33"/>
       <use xlink:href="#DejaVuSans-30" transform="translate(63.623047 0)"/>
       <use xlink:href="#DejaVuSans-30" transform="translate(127.246094 0)"/>
      </g>
     </g>
    </g>
    <g id="text_17">
     <!-- V$_{oc}$ (V) -->
     <g transform="translate(17.837813 192.212187) rotate(-90) scale(0.14 -0.14)">
      <defs>
       <path id="DejaVuSans-Bold-56" d="M 31 4666 
L 1241 4666 
L 2478 1222 
L 3713 4666 
L 4922 4666 
L 3194 0 
L 1759 0 
L 31 4666 
z
" transform="scale(0.015625)"/>
       <path id="DejaVuSans-Oblique-6f" d="M 1625 -91 
Q 1009 -91 651 289 
Q 294 669 294 1325 
Q 294 1706 417 2101 
Q 541 2497 738 2766 
Q 1047 3184 1428 3384 
Q 1809 3584 2291 3584 
Q 2888 3584 3255 3212 
Q 3622 2841 3622 2241 
Q 3622 1825 3500 1412 
Q 3378 1000 3181 728 
Q 2875 309 2494 109 
Q 2113 -91 1625 -91 
z
M 891 1344 
Q 891 869 1089 633 
Q 1288 397 1691 397 
Q 2269 397 2648 901 
Q 3028 1406 3028 2181 
Q 3028 2634 2825 2865 
Q 2622 3097 2228 3097 
Q 1903 3097 1650 2945 
Q 1397 2794 1197 2484 
Q 1050 2253 970 1956 
Q 891 1659 891 1344 
z
" transform="scale(0.015625)"/>
       <path id="DejaVuSans-Oblique-63" d="M 3431 3366 
L 3316 2797 
Q 3109 2947 2876 3022 
Q 2644 3097 2394 3097 
Q 2119 3097 1870 3000 
Q 1622 2903 1453 2725 
Q 1184 2453 1037 2087 
Q 891 1722 891 1331 
Q 891 859 1127 628 
Q 1363 397 1844 397 
Q 2081 397 2348 469 
Q 2616 541 2906 684 
L 2797 116 
Q 2547 13 2283 -39 
Q 2019 -91 1741 -91 
Q 1044 -91 669 257 
Q 294 606 294 1253 
Q 294 1797 489 2255 
Q 684 2713 1069 3078 
Q 1331 3328 1684 3456 
Q 2038 3584 2456 3584 
Q 2700 3584 2940 3529 
Q 3181 3475 3431 3366 
z
" transform="scale(0.015625)"/>
      </defs>
      <use xlink:href="#DejaVuSans-Bold-56" transform="translate(0 0.125)"/>
      <use xlink:href="#DejaVuSans-Oblique-6f" transform="translate(78.349609 -16.28125) scale(0.7)"/>
      <use xlink:href="#DejaVuSans-Oblique-63" transform="translate(121.176758 -16.28125) scale(0.7)"/>
      <use xlink:href="#DejaVuSans-Bold-20" transform="translate(162.397461 0.125)"/>
      <use xlink:href="#DejaVuSans-Bold-28" transform="translate(197.211914 0.125)"/>
      <use xlink:href="#DejaVuSans-Bold-56" transform="translate(242.915039 0.125)"/>
      <use xlink:href="#DejaVuSans-Bold-29" transform="translate(320.307617 0.125)"/>
     </g>
    </g>
   </g>
   <g id="patch_5">
    <path d="M 61.963281 310.202188 
L 61.963281 22.842187 
" style="fill: none; stroke: #000000; stroke-width: 0.8; stroke-linejoin: miter; stroke-linecap: square"/>
   </g>
   <g id="patch_6">
    <path d="M 61.963281 310.202188 
L 408.227281 310.202188 
" style="fill: none; stroke: #000000; stroke-width: 0.8; stroke-linejoin: miter; stroke-linecap: square"/>
   </g>
   <g id="line2d_17">
    <path d="M 61.963281 65.043965 
L 62.260079 65.795628 
L 64.23873 69.216921 
L 64.634461 70.480904 
L 65.030191 72.57676 
L 65.425921 76.086025 
L 65.821652 82.287555 
L 66.118449 90.419982 
L 66.415247 104.322454 
L 66.810977 137.388315 
L 67.899236 229.788571 
L 68.393898 256.665177 
L 68.591764 259.157548 
L 68.690696 257.826947 
L 68.987494 246.556624 
L 69.383224 220.57528 
L 71.262943 75.547173 
L 71.658673 66.280131 
L 71.955471 62.902825 
L 72.252269 61.230667 
L 72.647999 59.960215 
L 73.142662 59.522931 
L 73.538392 59.641308 
L 73.83519 59.883885 
L 74.23092 60.046249 
L 74.428785 59.883885 
L 74.62665 59.839898 
L 75.912774 59.929166 
L 76.308504 59.89941 
L 76.605302 59.948572 
L 76.803167 59.937575 
L 77.001032 60.236429 
L 77.69356 60.159451 
L 77.792493 60.396853 
L 77.891425 60.337341 
L 78.08929 60.577329 
L 78.188223 60.499058 
L 79.375414 61.638843 
L 80.859402 63.868603 
L 81.1562 64.551698 
L 81.255133 64.637731 
L 81.55193 65.481896 
L 83.332717 68.677432 
L 83.530582 68.600454 
L 83.82738 69.4899 
L 84.124177 70.337299 
L 84.717773 73.516661 
L 85.01457 76.725131 
L 85.311368 81.371589 
L 85.608166 88.87138 
L 85.904964 101.82296 
L 86.300694 133.631317 
L 87.487885 233.854121 
L 87.883615 255.445837 
L 88.08148 259.321205 
L 88.180413 258.692452 
L 88.378278 252.926948 
L 88.675076 237.221714 
L 89.268671 190.178408 
L 90.554794 85.30841 
L 90.950525 70.361874 
L 91.346255 63.681656 
L 91.741985 60.673066 
L 92.038783 59.63484 
L 92.335581 59.220843 
L 92.632378 59.052657 
L 92.929176 59.220196 
L 93.423839 59.515816 
L 93.621704 59.546865 
L 93.918502 59.649071 
L 94.2153 59.757745 
L 95.600356 59.916875 
L 96.688614 59.803026 
L 97.084344 59.999674 
L 97.67794 60.200851 
L 98.07367 60.528167 
L 98.4694 61.072832 
L 99.557658 62.391152 
L 99.755524 62.523761 
L 99.953389 62.943579 
L 100.250186 63.28642 
L 101.437377 65.032968 
L 101.833108 66.122297 
L 101.93204 66.140409 
L 102.32777 66.869432 
L 102.822433 67.672197 
L 103.613894 69.313951 
L 104.306422 73.44033 
L 104.702152 78.269207 
L 105.097882 87.063383 
L 105.39468 99.119055 
L 105.691478 120.444952 
L 107.076534 237.724316 
L 107.472264 257.448531 
L 107.670129 259.404003 
L 107.867994 254.771159 
L 108.263725 234.026846 
L 108.85732 186.058518 
L 110.044511 88.007141 
L 110.440241 71.163344 
L 110.835972 64.041962 
L 111.231702 60.860011 
L 111.627432 59.564978 
L 111.92423 59.299761 
L 112.122095 59.170387 
L 112.31996 59.248658 
L 112.517825 59.524872 
L 112.913556 59.566271 
L 113.507151 59.678827 
L 113.803949 59.66783 
L 114.694342 59.872241 
L 115.287937 59.939515 
L 117.266589 59.819198 
L 117.464454 60.021668 
L 117.662319 60.093471 
L 118.255914 60.557923 
L 118.354847 60.562451 
L 119.146308 62.000443 
L 119.838836 63.24502 
L 120.036701 63.343991 
L 120.432431 64.1998 
L 120.531364 64.290362 
L 120.630296 64.188803 
L 121.124959 65.034909 
L 121.421757 65.619679 
L 122.015352 66.56605 
L 123.10361 69.176815 
L 123.598273 71.535948 
L 123.994004 75.091787 
L 124.389734 81.176882 
L 124.686532 88.886904 
L 124.983329 102.21302 
L 125.37906 134.640427 
L 126.467318 227.491552 
L 126.961981 255.894761 
L 127.159846 259.369719 
L 127.258778 258.559845 
L 127.456644 252.264558 
L 127.852374 230.057681 
L 128.643834 162.572748 
L 129.534228 89.57191 
L 129.929958 71.524296 
L 130.325688 63.790977 
L 130.622486 61.154984 
L 131.018216 59.648424 
L 131.710744 59.32887 
L 131.908609 59.780385 
L 132.30434 60.190501 
L 132.601137 60.30435 
L 133.194733 60.379387 
L 133.49153 60.328284 
L 133.788328 60.380681 
L 133.986193 60.17627 
L 136.261642 60.000968 
L 137.547766 60.600617 
L 137.943496 61.139459 
L 138.438159 62.010146 
L 139.130687 63.119528 
L 140.812541 65.99357 
L 141.208271 66.861022 
L 142.395462 68.793869 
L 142.69226 69.768054 
L 143.285855 73.105252 
L 143.681585 77.429571 
L 144.077316 85.075558 
L 144.374113 95.40345 
L 144.670911 113.637332 
L 146.352765 250.33625 
L 146.649562 259.539844 
L 146.748495 259.414353 
L 146.94636 254.423145 
L 147.34209 233.44208 
L 148.034618 175.609688 
L 149.122877 85.724988 
L 149.518607 69.409034 
L 149.914337 62.720408 
L 150.211135 60.721581 
L 150.507933 59.834076 
L 150.80473 59.483472 
L 150.903663 59.369623 
L 151.299393 59.683355 
L 151.794056 60.083121 
L 152.090854 60.097352 
L 152.288719 59.853482 
L 152.684449 59.777151 
L 153.574842 59.643896 
L 153.772708 59.62449 
L 153.970573 59.714405 
L 155.058831 59.726049 
L 155.553494 59.760333 
L 155.949224 59.927872 
L 156.740685 60.343809 
L 157.631078 61.252662 
L 157.927876 61.771451 
L 158.026808 61.762395 
L 158.422538 62.531523 
L 160.500122 66.410154 
L 160.994785 67.077077 
L 161.093718 66.930237 
L 162.083044 68.810687 
L 162.478774 70.497075 
L 162.775572 72.402105 
L 163.171302 76.594464 
L 163.567032 83.775999 
L 163.86383 93.343823 
L 164.160628 110.386181 
L 166.040346 257.084992 
L 166.238212 259.920848 
L 166.337144 258.735145 
L 166.535009 252.162354 
L 166.831807 236.200313 
L 167.425402 188.016579 
L 168.711526 82.057248 
L 169.107256 67.800918 
L 169.502986 62.090357 
L 169.799784 60.354159 
L 170.096582 59.760333 
L 170.294447 59.409082 
L 170.591245 59.504819 
L 171.18484 60.202145 
L 171.58057 60.274594 
L 172.273098 60.065655 
L 172.668829 60.023609 
L 173.064559 60.015199 
L 173.658154 60.054658 
L 174.548548 60.097999 
L 174.64748 60.152983 
L 174.845345 60.046249 
L 175.735738 59.977034 
L 175.933604 60.201498 
L 176.131469 60.308878 
L 176.527199 60.730638 
L 176.725064 60.942811 
L 177.021862 61.497178 
L 177.417592 62.149223 
L 177.912255 63.453959 
L 178.11012 63.776747 
L 178.307985 63.877659 
L 179.000513 64.908123 
L 179.297311 65.592511 
L 179.594109 65.903655 
L 179.693041 65.805978 
L 180.088772 66.165637 
L 180.583434 67.306069 
L 181.473828 68.399278 
L 181.770625 69.314598 
L 182.265288 71.781111 
L 182.562086 74.387994 
L 182.858884 78.359768 
L 183.155681 84.641508 
L 183.452479 95.186101 
L 183.749277 114.164526 
L 185.43113 251.026455 
L 185.727928 259.634287 
L 185.826861 259.267515 
L 186.024726 253.618446 
L 186.321524 239.006415 
L 186.915119 191.776164 
L 188.201242 84.416374 
L 188.596973 68.685835 
L 188.89377 63.785802 
L 189.289501 60.566332 
L 189.586298 59.651658 
L 189.784164 59.421373 
L 190.278826 59.486059 
L 190.575624 59.947278 
L 190.773489 60.008084 
L 190.971354 59.773917 
L 191.367085 59.828254 
L 191.56495 59.63484 
L 192.158545 59.652305 
L 192.851073 59.670417 
L 193.048938 59.727989 
L 193.246804 59.576622 
L 193.543601 59.740926 
L 194.335062 59.9738 
L 194.532927 60.191148 
L 195.126522 60.143279 
L 195.324388 60.496471 
L 196.115848 60.790796 
L 196.412646 61.079947 
L 196.511578 61.017201 
L 196.709444 61.275302 
L 197.006241 61.887887 
L 198.787028 65.053668 
L 198.88596 65.009681 
L 199.380623 65.766519 
L 199.479556 65.656551 
L 200.963544 67.967816 
L 201.359274 69.114715 
L 201.656072 70.674318 
L 202.051802 73.732715 
L 202.447533 79.135364 
L 202.74433 86.128011 
L 203.041128 97.973452 
L 203.337926 119.012142 
L 204.722982 237.190005 
L 205.118712 257.37026 
L 205.316577 259.823818 
L 205.514442 255.366921 
L 205.910173 235.069593 
L 206.503768 186.354134 
L 207.690959 86.114399 
L 208.086689 68.952991 
L 208.48242 62.510175 
L 208.779217 60.149101 
L 209.174948 59.059772 
L 209.372813 59.011904 
L 209.570678 59.12834 
L 209.867476 59.568859 
L 210.164273 59.943397 
L 210.362138 59.987384 
L 210.362138 59.987384 
" clip-path="url(#p33fe1b6416)" style="fill: none; stroke: #333333; stroke-width: 0.8; stroke-linecap: square"/>
   </g>
   <g id="line2d_18">
    <path d="M 210.362138 74.998639 
L 211.648262 75.871913 
L 211.94506 76.194054 
L 212.439722 77.089967 
L 213.13225 78.482029 
L 214.319441 83.765008 
L 214.814104 87.382944 
L 215.308767 93.275915 
L 215.704497 101.069379 
L 216.001295 111.31705 
L 216.298093 130.29352 
L 217.386351 215.803347 
L 217.881014 243.562285 
L 218.078879 248.666699 
L 218.177812 248.711979 
L 218.375677 242.447738 
L 218.969272 201.054177 
L 220.354328 99.461899 
L 220.750058 86.183645 
L 221.244721 78.019517 
L 221.937249 72.689316 
L 222.33298 71.377465 
L 222.72871 70.758411 
L 223.12444 70.265497 
L 223.322305 70.272612 
L 223.421238 69.888371 
L 223.52017 69.94853 
L 223.619103 69.879962 
L 224.014833 70.173641 
L 224.410564 70.306249 
L 225.202024 70.513247 
L 225.399889 70.594753 
L 225.597754 70.921422 
L 225.894552 71.103193 
L 227.279608 72.604576 
L 227.972136 73.732069 
L 228.268934 73.895081 
L 229.25826 74.728895 
L 229.456125 74.655799 
L 229.555057 74.92619 
L 229.65399 74.77741 
L 229.851855 74.92619 
L 229.950788 74.679733 
L 230.742248 75.525838 
L 230.940113 75.858328 
L 231.236911 76.084086 
L 231.434776 76.318899 
L 231.533709 76.432101 
L 231.632641 76.358358 
L 233.215562 79.218167 
L 233.710225 81.061743 
L 234.105956 83.134958 
L 234.699551 87.224461 
L 235.194214 93.034633 
L 235.589944 101.046092 
L 235.886742 111.458067 
L 236.18354 130.431949 
L 237.271798 216.278793 
L 237.766461 243.932292 
L 237.964326 248.837471 
L 238.063258 248.678342 
L 238.261124 242.258853 
L 238.854719 200.775377 
L 240.239775 99.034967 
L 240.635505 86.099552 
L 241.031236 79.183881 
L 241.426966 75.454035 
L 241.921629 73.270205 
L 242.218426 72.58517 
L 242.910954 71.322481 
L 243.207752 71.041093 
L 243.306685 71.109661 
L 243.50455 70.943415 
L 243.702415 70.9156 
L 243.90028 70.555941 
L 244.098145 70.641328 
L 244.197078 70.620628 
L 244.394943 70.402633 
L 245.186404 70.549472 
L 245.483201 70.753236 
L 245.878932 70.973172 
L 246.57146 71.678259 
L 247.263988 72.372997 
L 247.461853 72.479084 
L 249.044774 73.777997 
L 249.242639 73.850446 
L 250.42983 75.058798 
L 250.726628 75.286496 
L 251.023425 75.576294 
L 251.122358 75.54395 
L 251.419156 75.986409 
L 252.012751 76.728367 
L 252.705279 78.031162 
L 253.199942 79.372768 
L 253.694605 81.282326 
L 254.189268 84.044455 
L 254.68393 88.107437 
L 255.079661 93.103848 
L 255.475391 101.17676 
L 255.772189 111.685118 
L 256.068986 130.842062 
L 257.058312 210.128394 
L 257.651908 244.166456 
L 257.849773 248.948085 
L 257.948705 249.016006 
L 258.14657 242.432213 
L 258.839098 192.771061 
L 260.125222 98.695361 
L 260.520952 85.582057 
L 261.015615 77.344186 
L 261.411345 74.116309 
L 262.004941 71.402693 
L 262.895334 70.171054 
L 263.093199 70.144532 
L 263.192132 70.082433 
L 263.291064 69.73377 
L 263.389997 69.791341 
L 263.587862 69.694958 
L 263.88466 69.96729 
L 264.082525 70.026802 
L 264.28039 70.011923 
L 264.775053 70.144532 
L 265.170783 70.343121 
L 265.467581 70.619334 
L 265.665446 70.863204 
L 266.061176 71.127774 
L 269.128086 74.252799 
L 269.325951 74.261855 
L 269.622749 74.50055 
L 269.820614 74.827866 
L 270.513142 75.291671 
L 271.20567 75.833747 
L 271.403535 76.181763 
L 271.6014 76.254859 
L 272.194996 77.250391 
L 272.887524 78.745952 
L 273.777917 82.412405 
L 274.173647 85.089148 
L 274.66831 89.502732 
L 275.06404 94.988822 
L 275.45977 104.461553 
L 275.756568 117.366548 
L 276.251231 157.036891 
L 277.141624 223.710631 
L 277.636287 247.556031 
L 277.73522 248.972666 
L 277.834152 248.655702 
L 278.032017 241.9089 
L 278.625613 199.935099 
L 280.010669 99.153344 
L 280.406399 86.345363 
L 280.802129 79.590115 
L 281.296792 75.00252 
L 281.692522 73.32066 
L 282.187185 71.431802 
L 282.780781 70.319834 
L 283.077578 70.072729 
L 283.572241 70.115423 
L 283.770106 69.869612 
L 283.967972 70.003514 
L 284.264769 70.025508 
L 284.462634 69.874141 
L 284.858365 70.02098 
L 285.05623 70.147766 
L 285.254095 70.387755 
L 285.649825 70.54171 
L 285.748758 70.478317 
L 286.342353 71.112895 
L 286.540218 71.554061 
L 287.232746 72.259795 
L 287.331679 72.215161 
L 287.727409 72.622042 
L 287.925274 72.956473 
L 288.12314 73.113662 
L 288.419937 73.572293 
L 289.211398 74.358886 
L 289.804993 75.248978 
L 290.101791 75.512901 
L 290.497521 75.386761 
L 290.695386 75.738011 
L 290.794319 75.666208 
L 291.091117 76.040745 
L 291.486847 76.23416 
L 291.684712 76.571825 
L 291.783645 76.481263 
L 292.871903 78.962653 
L 293.267633 80.284207 
L 293.861229 83.391765 
L 294.454824 87.994881 
L 294.850554 93.173063 
L 295.147352 99.07638 
L 295.44415 108.05684 
L 295.740948 124.066141 
L 297.224936 235.290817 
L 297.521734 247.317338 
L 297.620666 248.706805 
L 297.719599 248.321273 
L 297.917464 241.396583 
L 298.51106 199.41696 
L 299.896116 98.554345 
L 300.291846 85.598876 
L 300.786509 77.855212 
L 301.380104 72.870439 
L 301.874767 70.947297 
L 302.171565 70.301721 
L 302.36943 70.075964 
L 302.76516 69.44656 
L 302.864093 69.533887 
L 303.16089 69.424566 
L 303.556621 69.835328 
L 303.754486 69.819803 
L 304.447014 69.945296 
L 304.644879 69.973112 
L 305.337407 70.398752 
L 305.535272 70.717658 
L 306.029935 71.153001 
L 306.425665 71.61616 
L 307.414991 72.630451 
L 307.513924 72.524364 
L 308.206452 73.041213 
L 308.404317 73.387935 
L 310.284036 75.240568 
L 310.481901 75.206931 
L 310.778698 75.529719 
L 310.877631 75.378352 
L 311.273361 75.74642 
L 311.669092 76.231572 
L 312.163754 77.017518 
L 312.658417 78.298319 
L 313.15308 80.078502 
L 314.142406 86.262568 
L 314.637069 91.717609 
L 315.032799 98.96059 
L 315.329597 108.01156 
L 315.626394 124.090075 
L 317.110383 235.545035 
L 317.407181 247.532744 
L 317.506113 248.924151 
L 317.605046 248.569022 
L 317.802911 241.299552 
L 318.495439 191.60929 
L 319.781562 98.186276 
L 320.177293 85.471442 
L 320.573023 78.678029 
L 321.067686 74.591111 
L 321.661281 71.881376 
L 322.452742 70.206631 
L 322.848472 69.902603 
L 323.837798 69.701426 
L 324.431393 69.890959 
L 325.618584 70.735124 
L 326.508977 71.730656 
L 326.706842 72.124599 
L 327.39937 72.611045 
L 327.894033 73.092315 
L 328.091898 73.375644 
L 328.487629 73.717191 
L 328.586561 73.76506 
L 328.784426 73.671911 
L 329.773752 74.658386 
L 330.169482 74.844038 
L 330.367348 75.001874 
L 330.763078 75.601522 
L 331.554538 76.560182 
L 332.939594 79.713668 
L 333.92892 85.213994 
L 334.423583 90.23434 
L 334.819313 96.701081 
L 335.116111 104.48872 
L 335.412909 117.966192 
L 335.907572 158.340972 
L 336.797965 224.340032 
L 337.292628 247.786315 
L 337.39156 249.05029 
L 337.490493 248.436415 
L 337.688358 240.880384 
L 338.380886 191.253514 
L 339.667009 97.849258 
L 340.06274 85.36665 
L 340.45847 78.463269 
L 340.8542 74.73601 
L 341.348863 72.072849 
L 341.645661 71.368409 
L 341.843526 70.995812 
L 342.041391 70.440151 
L 342.733919 69.848913 
L 344.217908 69.704014 
L 344.415773 69.760292 
L 344.613638 69.896134 
L 344.811503 69.938181 
L 345.405098 70.347649 
L 345.998694 70.9363 
L 346.196559 71.307603 
L 347.086952 72.147887 
L 347.581615 72.634979 
L 347.77948 73.295433 
L 348.076278 73.600755 
L 348.17521 73.4675 
L 349.560266 74.644155 
L 349.659199 74.635746 
L 349.857064 74.226278 
L 350.054929 74.31037 
L 350.45066 74.63704 
L 350.747457 74.906137 
L 351.63785 76.160416 
L 352.528244 78.627575 
L 353.121839 80.971828 
L 353.715434 84.665449 
L 354.605828 95.117548 
L 355.001558 104.897541 
L 355.298356 118.383422 
L 355.891951 166.951401 
L 356.683412 224.689339 
L 357.079142 244.958867 
L 357.277007 248.911861 
L 357.37594 248.134976 
L 357.573805 240.225757 
L 358.266333 189.933261 
L 359.552456 97.090482 
L 359.948186 84.615636 
L 360.442849 77.010401 
L 360.83858 73.880849 
L 361.432175 71.803105 
L 361.926838 70.806926 
L 362.322568 70.349589 
L 363.212961 70.129007 
L 363.410826 69.957587 
L 364.400152 70.237681 
L 364.894815 70.467967 
L 366.082006 71.450561 
L 369.742511 74.554887 
L 371.028634 75.972177 
L 371.127567 75.97994 
L 372.41369 78.691615 
L 372.908353 80.566241 
L 373.699814 85.06392 
L 374.194477 90.057098 
L 374.590207 96.467562 
L 374.887005 104.391043 
L 375.183802 118.196475 
L 375.777398 167.503178 
L 376.568858 225.096217 
L 376.964589 245.309468 
L 377.162454 248.946145 
L 377.261386 248.033418 
L 377.459252 240.096384 
L 378.250712 182.318356 
L 379.437903 97.289071 
L 379.833633 84.823927 
L 380.328296 77.029807 
L 380.724026 74.05615 
L 381.119757 72.187992 
L 381.812285 70.480904 
L 382.306948 69.976992 
L 382.504813 69.894193 
L 382.702678 69.720832 
L 382.900543 69.786813 
L 383.494138 69.773229 
L 384.384532 69.874141 
L 385.47279 70.658146 
L 385.967453 71.345122 
L 386.066385 71.451855 
L 386.363183 72.090962 
L 387.055711 72.775997 
L 387.253576 73.160884 
L 387.649306 73.563236 
L 387.847172 73.892493 
L 388.045037 73.915133 
L 388.242902 73.97982 
L 388.341834 73.943596 
L 388.836497 74.270265 
L 389.034362 74.535481 
L 389.133295 74.726307 
L 389.33116 74.616987 
L 389.72689 74.956593 
L 389.825823 74.876381 
L 390.914081 76.01293 
L 391.804474 77.491026 
L 392.299137 78.964594 
L 392.7938 80.876092 
L 393.486328 85.08656 
L 393.980991 89.779591 
L 394.376721 95.697142 
L 394.772452 105.580633 
L 395.069249 119.439108 
L 395.662845 168.572447 
L 396.454305 225.970779 
L 396.850036 245.977679 
L 397.047901 249.471398 
L 397.146833 248.335503 
L 397.344698 239.947604 
L 398.037226 189.245643 
L 399.32335 97.186866 
L 399.71908 84.846568 
L 400.11481 78.421223 
L 400.510541 74.688788 
L 401.005204 72.136243 
L 401.499866 70.905897 
L 401.895597 70.480257 
L 402.291327 70.220215 
L 402.884922 70.193694 
L 403.082788 69.991224 
L 403.973181 69.992518 
L 404.863574 70.343768 
L 404.962506 70.410395 
L 405.259304 70.781052 
L 406.050765 71.772702 
L 408.227281 73.630511 
L 408.227281 73.630511 
" clip-path="url(#p33fe1b6416)" style="fill: none; stroke: #d94452; stroke-width: 0.8; stroke-linecap: square"/>
   </g>
   <g id="text_18">
    <g id="patch_7">
     <path d="M 93.91271 298.834187 
L 178.41271 298.834187 
Q 181.41271 298.834187 181.41271 295.834187 
L 181.41271 285.234187 
Q 181.41271 282.234187 178.41271 282.234187 
L 93.91271 282.234187 
Q 90.91271 282.234187 90.91271 285.234187 
L 90.91271 295.834187 
Q 90.91271 298.834187 93.91271 298.834187 
z
" style="fill: #ffffff; opacity: 0.85; stroke: #333333; stroke-linejoin: miter"/>
    </g>
    <!-- V$_{p-p}$ = 476.35 V -->
    <g style="fill: #333333" transform="translate(93.91271 292.734187) scale(0.1 -0.1)">
     <defs>
      <path id="DejaVuSans-56" d="M 1831 0 
L 50 4666 
L 709 4666 
L 2188 738 
L 3669 4666 
L 4325 4666 
L 2547 0 
L 1831 0 
z
" transform="scale(0.015625)"/>
      <path id="DejaVuSans-Oblique-70" d="M 3175 2156 
Q 3175 2616 2975 2859 
Q 2775 3103 2400 3103 
Q 2144 3103 1911 2972 
Q 1678 2841 1497 2591 
Q 1319 2344 1212 1994 
Q 1106 1644 1106 1300 
Q 1106 863 1306 627 
Q 1506 391 1875 391 
Q 2147 391 2380 519 
Q 2613 647 2778 891 
Q 2956 1147 3065 1494 
Q 3175 1841 3175 2156 
z
M 1394 2969 
Q 1625 3272 1939 3428 
Q 2253 3584 2638 3584 
Q 3175 3584 3472 3232 
Q 3769 2881 3769 2247 
Q 3769 1728 3584 1258 
Q 3400 788 3053 416 
Q 2822 169 2531 39 
Q 2241 -91 1919 -91 
Q 1547 -91 1294 64 
Q 1041 219 916 525 
L 556 -1331 
L -19 -1331 
L 922 3500 
L 1497 3500 
L 1394 2969 
z
" transform="scale(0.015625)"/>
      <path id="DejaVuSans-20" transform="scale(0.015625)"/>
      <path id="DejaVuSans-3d" d="M 678 2906 
L 4684 2906 
L 4684 2381 
L 678 2381 
L 678 2906 
z
M 678 1631 
L 4684 1631 
L 4684 1100 
L 678 1100 
L 678 1631 
z
" transform="scale(0.015625)"/>
      <path id="DejaVuSans-34" d="M 2419 4116 
L 825 1625 
L 2419 1625 
L 2419 4116 
z
M 2253 4666 
L 3047 4666 
L 3047 1625 
L 3713 1625 
L 3713 1100 
L 3047 1100 
L 3047 0 
L 2419 0 
L 2419 1100 
L 313 1100 
L 313 1709 
L 2253 4666 
z
" transform="scale(0.015625)"/>
      <path id="DejaVuSans-37" d="M 525 4666 
L 3525 4666 
L 3525 4397 
L 1831 0 
L 1172 0 
L 2766 4134 
L 525 4134 
L 525 4666 
z
" transform="scale(0.015625)"/>
      <path id="DejaVuSans-36" d="M 2113 2584 
Q 1688 2584 1439 2293 
Q 1191 2003 1191 1497 
Q 1191 994 1439 701 
Q 1688 409 2113 409 
Q 2538 409 2786 701 
Q 3034 994 3034 1497 
Q 3034 2003 2786 2293 
Q 2538 2584 2113 2584 
z
M 3366 4563 
L 3366 3988 
Q 3128 4100 2886 4159 
Q 2644 4219 2406 4219 
Q 1781 4219 1451 3797 
Q 1122 3375 1075 2522 
Q 1259 2794 1537 2939 
Q 1816 3084 2150 3084 
Q 2853 3084 3261 2657 
Q 3669 2231 3669 1497 
Q 3669 778 3244 343 
Q 2819 -91 2113 -91 
Q 1303 -91 875 529 
Q 447 1150 447 2328 
Q 447 3434 972 4092 
Q 1497 4750 2381 4750 
Q 2619 4750 2861 4703 
Q 3103 4656 3366 4563 
z
" transform="scale(0.015625)"/>
     </defs>
     <use xlink:href="#DejaVuSans-56" transform="translate(0 0.78125)"/>
     <use xlink:href="#DejaVuSans-Oblique-70" transform="translate(69.365234 -15.625) scale(0.7)"/>
     <use xlink:href="#DejaVuSans-2212" transform="translate(127.436523 -15.625) scale(0.7)"/>
     <use xlink:href="#DejaVuSans-Oblique-70" transform="translate(199.726562 -15.625) scale(0.7)"/>
     <use xlink:href="#DejaVuSans-20" transform="translate(246.894531 0.78125)"/>
     <use xlink:href="#DejaVuSans-3d" transform="translate(278.681641 0.78125)"/>
     <use xlink:href="#DejaVuSans-20" transform="translate(362.470703 0.78125)"/>
     <use xlink:href="#DejaVuSans-34" transform="translate(394.257812 0.78125)"/>
     <use xlink:href="#DejaVuSans-37" transform="translate(457.880859 0.78125)"/>
     <use xlink:href="#DejaVuSans-36" transform="translate(521.503906 0.78125)"/>
     <use xlink:href="#DejaVuSans-2e" transform="translate(585.126953 0.78125)"/>
     <use xlink:href="#DejaVuSans-33" transform="translate(616.914062 0.78125)"/>
     <use xlink:href="#DejaVuSans-35" transform="translate(680.537109 0.78125)"/>
     <use xlink:href="#DejaVuSans-20" transform="translate(744.160156 0.78125)"/>
     <use xlink:href="#DejaVuSans-56" transform="translate(775.947266 0.78125)"/>
    </g>
   </g>
   <g id="text_19">
    <g id="patch_8">
     <path d="M 267.04471 298.834187 
L 351.54471 298.834187 
Q 354.54471 298.834187 354.54471 295.834187 
L 354.54471 285.234187 
Q 354.54471 282.234187 351.54471 282.234187 
L 267.04471 282.234187 
Q 264.04471 282.234187 264.04471 285.234187 
L 264.04471 295.834187 
Q 264.04471 298.834187 267.04471 298.834187 
z
" style="fill: #ffffff; opacity: 0.85; stroke: #d94452; stroke-linejoin: miter"/>
    </g>
    <!-- V$_{p-p}$ = 426.94 V -->
    <g style="fill: #d94452" transform="translate(267.04471 292.734187) scale(0.1 -0.1)">
     <defs>
      <path id="DejaVuSans-39" d="M 703 97 
L 703 672 
Q 941 559 1184 500 
Q 1428 441 1663 441 
Q 2288 441 2617 861 
Q 2947 1281 2994 2138 
Q 2813 1869 2534 1725 
Q 2256 1581 1919 1581 
Q 1219 1581 811 2004 
Q 403 2428 403 3163 
Q 403 3881 828 4315 
Q 1253 4750 1959 4750 
Q 2769 4750 3195 4129 
Q 3622 3509 3622 2328 
Q 3622 1225 3098 567 
Q 2575 -91 1691 -91 
Q 1453 -91 1209 -44 
Q 966 3 703 97 
z
M 1959 2075 
Q 2384 2075 2632 2365 
Q 2881 2656 2881 3163 
Q 2881 3666 2632 3958 
Q 2384 4250 1959 4250 
Q 1534 4250 1286 3958 
Q 1038 3666 1038 3163 
Q 1038 2656 1286 2365 
Q 1534 2075 1959 2075 
z
" transform="scale(0.015625)"/>
     </defs>
     <use xlink:href="#DejaVuSans-56" transform="translate(0 0.78125)"/>
     <use xlink:href="#DejaVuSans-Oblique-70" transform="translate(69.365234 -15.625) scale(0.7)"/>
     <use xlink:href="#DejaVuSans-2212" transform="translate(127.436523 -15.625) scale(0.7)"/>
     <use xlink:href="#DejaVuSans-Oblique-70" transform="translate(199.726562 -15.625) scale(0.7)"/>
     <use xlink:href="#DejaVuSans-20" transform="translate(246.894531 0.78125)"/>
     <use xlink:href="#DejaVuSans-3d" transform="translate(278.681641 0.78125)"/>
     <use xlink:href="#DejaVuSans-20" transform="translate(362.470703 0.78125)"/>
     <use xlink:href="#DejaVuSans-34" transform="translate(394.257812 0.78125)"/>
     <use xlink:href="#DejaVuSans-32" transform="translate(457.880859 0.78125)"/>
     <use xlink:href="#DejaVuSans-36" transform="translate(521.503906 0.78125)"/>
     <use xlink:href="#DejaVuSans-2e" transform="translate(585.126953 0.78125)"/>
     <use xlink:href="#DejaVuSans-39" transform="translate(616.914062 0.78125)"/>
     <use xlink:href="#DejaVuSans-34" transform="translate(680.537109 0.78125)"/>
     <use xlink:href="#DejaVuSans-20" transform="translate(744.160156 0.78125)"/>
     <use xlink:href="#DejaVuSans-56" transform="translate(775.947266 0.78125)"/>
    </g>
   </g>
   <g id="text_20">
    <!-- Open-Circuit Voltage | f = 5 Hz -->
    <g transform="translate(149.076531 14.842187) scale(0.1 -0.1)">
     <defs>
      <path id="DejaVuSans-Bold-4f" d="M 2719 3878 
Q 2169 3878 1866 3472 
Q 1563 3066 1563 2328 
Q 1563 1594 1866 1187 
Q 2169 781 2719 781 
Q 3272 781 3575 1187 
Q 3878 1594 3878 2328 
Q 3878 3066 3575 3472 
Q 3272 3878 2719 3878 
z
M 2719 4750 
Q 3844 4750 4481 4106 
Q 5119 3463 5119 2328 
Q 5119 1197 4481 553 
Q 3844 -91 2719 -91 
Q 1597 -91 958 553 
Q 319 1197 319 2328 
Q 319 3463 958 4106 
Q 1597 4750 2719 4750 
z
" transform="scale(0.015625)"/>
      <path id="DejaVuSans-Bold-70" d="M 1656 506 
L 1656 -1331 
L 538 -1331 
L 538 3500 
L 1656 3500 
L 1656 2988 
Q 1888 3294 2169 3439 
Q 2450 3584 2816 3584 
Q 3463 3584 3878 3070 
Q 4294 2556 4294 1747 
Q 4294 938 3878 423 
Q 3463 -91 2816 -91 
Q 2450 -91 2169 54 
Q 1888 200 1656 506 
z
M 2400 2772 
Q 2041 2772 1848 2508 
Q 1656 2244 1656 1747 
Q 1656 1250 1848 986 
Q 2041 722 2400 722 
Q 2759 722 2948 984 
Q 3138 1247 3138 1747 
Q 3138 2247 2948 2509 
Q 2759 2772 2400 2772 
z
" transform="scale(0.015625)"/>
      <path id="DejaVuSans-Bold-6e" d="M 4056 2131 
L 4056 0 
L 2931 0 
L 2931 347 
L 2931 1631 
Q 2931 2084 2911 2256 
Q 2891 2428 2841 2509 
Q 2775 2619 2662 2680 
Q 2550 2741 2406 2741 
Q 2056 2741 1856 2470 
Q 1656 2200 1656 1722 
L 1656 0 
L 538 0 
L 538 3500 
L 1656 3500 
L 1656 2988 
Q 1909 3294 2193 3439 
Q 2478 3584 2822 3584 
Q 3428 3584 3742 3212 
Q 4056 2841 4056 2131 
z
" transform="scale(0.015625)"/>
      <path id="DejaVuSans-Bold-2d" d="M 347 2297 
L 2309 2297 
L 2309 1388 
L 347 1388 
L 347 2297 
z
" transform="scale(0.015625)"/>
      <path id="DejaVuSans-Bold-43" d="M 4288 256 
Q 3956 84 3597 -3 
Q 3238 -91 2847 -91 
Q 1681 -91 1000 561 
Q 319 1213 319 2328 
Q 319 3447 1000 4098 
Q 1681 4750 2847 4750 
Q 3238 4750 3597 4662 
Q 3956 4575 4288 4403 
L 4288 3438 
Q 3953 3666 3628 3772 
Q 3303 3878 2944 3878 
Q 2300 3878 1931 3465 
Q 1563 3053 1563 2328 
Q 1563 1606 1931 1193 
Q 2300 781 2944 781 
Q 3303 781 3628 887 
Q 3953 994 4288 1222 
L 4288 256 
z
" transform="scale(0.015625)"/>
      <path id="DejaVuSans-Bold-72" d="M 3138 2547 
Q 2991 2616 2845 2648 
Q 2700 2681 2553 2681 
Q 2122 2681 1889 2404 
Q 1656 2128 1656 1613 
L 1656 0 
L 538 0 
L 538 3500 
L 1656 3500 
L 1656 2925 
Q 1872 3269 2151 3426 
Q 2431 3584 2822 3584 
Q 2878 3584 2943 3579 
Q 3009 3575 3134 3559 
L 3138 2547 
z
" transform="scale(0.015625)"/>
      <path id="DejaVuSans-Bold-63" d="M 3366 3391 
L 3366 2478 
Q 3138 2634 2908 2709 
Q 2678 2784 2431 2784 
Q 1963 2784 1702 2511 
Q 1441 2238 1441 1747 
Q 1441 1256 1702 982 
Q 1963 709 2431 709 
Q 2694 709 2930 787 
Q 3166 866 3366 1019 
L 3366 103 
Q 3103 6 2833 -42 
Q 2563 -91 2291 -91 
Q 1344 -91 809 395 
Q 275 881 275 1747 
Q 275 2613 809 3098 
Q 1344 3584 2291 3584 
Q 2566 3584 2833 3536 
Q 3100 3488 3366 3391 
z
" transform="scale(0.015625)"/>
      <path id="DejaVuSans-Bold-75" d="M 500 1363 
L 500 3500 
L 1625 3500 
L 1625 3150 
Q 1625 2866 1622 2436 
Q 1619 2006 1619 1863 
Q 1619 1441 1641 1255 
Q 1663 1069 1716 984 
Q 1784 875 1895 815 
Q 2006 756 2150 756 
Q 2500 756 2700 1025 
Q 2900 1294 2900 1772 
L 2900 3500 
L 4019 3500 
L 4019 0 
L 2900 0 
L 2900 506 
Q 2647 200 2364 54 
Q 2081 -91 1741 -91 
Q 1134 -91 817 281 
Q 500 653 500 1363 
z
" transform="scale(0.015625)"/>
      <path id="DejaVuSans-Bold-74" d="M 1759 4494 
L 1759 3500 
L 2913 3500 
L 2913 2700 
L 1759 2700 
L 1759 1216 
Q 1759 972 1856 886 
Q 1953 800 2241 800 
L 2816 800 
L 2816 0 
L 1856 0 
Q 1194 0 917 276 
Q 641 553 641 1216 
L 641 2700 
L 84 2700 
L 84 3500 
L 641 3500 
L 641 4494 
L 1759 4494 
z
" transform="scale(0.015625)"/>
      <path id="DejaVuSans-Bold-6f" d="M 2203 2784 
Q 1831 2784 1636 2517 
Q 1441 2250 1441 1747 
Q 1441 1244 1636 976 
Q 1831 709 2203 709 
Q 2569 709 2762 976 
Q 2956 1244 2956 1747 
Q 2956 2250 2762 2517 
Q 2569 2784 2203 2784 
z
M 2203 3584 
Q 3106 3584 3614 3096 
Q 4122 2609 4122 1747 
Q 4122 884 3614 396 
Q 3106 -91 2203 -91 
Q 1297 -91 786 396 
Q 275 884 275 1747 
Q 275 2609 786 3096 
Q 1297 3584 2203 3584 
z
" transform="scale(0.015625)"/>
      <path id="DejaVuSans-Bold-6c" d="M 538 4863 
L 1656 4863 
L 1656 0 
L 538 0 
L 538 4863 
z
" transform="scale(0.015625)"/>
      <path id="DejaVuSans-Bold-61" d="M 2106 1575 
Q 1756 1575 1579 1456 
Q 1403 1338 1403 1106 
Q 1403 894 1545 773 
Q 1688 653 1941 653 
Q 2256 653 2472 879 
Q 2688 1106 2688 1447 
L 2688 1575 
L 2106 1575 
z
M 3816 1997 
L 3816 0 
L 2688 0 
L 2688 519 
Q 2463 200 2181 54 
Q 1900 -91 1497 -91 
Q 953 -91 614 226 
Q 275 544 275 1050 
Q 275 1666 698 1953 
Q 1122 2241 2028 2241 
L 2688 2241 
L 2688 2328 
Q 2688 2594 2478 2717 
Q 2269 2841 1825 2841 
Q 1466 2841 1156 2769 
Q 847 2697 581 2553 
L 581 3406 
Q 941 3494 1303 3539 
Q 1666 3584 2028 3584 
Q 2975 3584 3395 3211 
Q 3816 2838 3816 1997 
z
" transform="scale(0.015625)"/>
      <path id="DejaVuSans-Bold-67" d="M 2919 594 
Q 2688 288 2409 144 
Q 2131 0 1766 0 
Q 1125 0 706 504 
Q 288 1009 288 1791 
Q 288 2575 706 3076 
Q 1125 3578 1766 3578 
Q 2131 3578 2409 3434 
Q 2688 3291 2919 2981 
L 2919 3500 
L 4044 3500 
L 4044 353 
Q 4044 -491 3511 -936 
Q 2978 -1381 1966 -1381 
Q 1638 -1381 1331 -1331 
Q 1025 -1281 716 -1178 
L 716 -306 
Q 1009 -475 1290 -558 
Q 1572 -641 1856 -641 
Q 2406 -641 2662 -400 
Q 2919 -159 2919 353 
L 2919 594 
z
M 2181 2772 
Q 1834 2772 1640 2515 
Q 1447 2259 1447 1791 
Q 1447 1309 1634 1061 
Q 1822 813 2181 813 
Q 2531 813 2725 1069 
Q 2919 1325 2919 1791 
Q 2919 2259 2725 2515 
Q 2531 2772 2181 2772 
z
" transform="scale(0.015625)"/>
      <path id="DejaVuSans-Bold-7c" d="M 1522 4891 
L 1522 -1509 
L 813 -1509 
L 813 4891 
L 1522 4891 
z
" transform="scale(0.015625)"/>
      <path id="DejaVuSans-Bold-66" d="M 2841 4863 
L 2841 4128 
L 2222 4128 
Q 1984 4128 1890 4042 
Q 1797 3956 1797 3744 
L 1797 3500 
L 2753 3500 
L 2753 2700 
L 1797 2700 
L 1797 0 
L 678 0 
L 678 2700 
L 122 2700 
L 122 3500 
L 678 3500 
L 678 3744 
Q 678 4316 997 4589 
Q 1316 4863 1984 4863 
L 2841 4863 
z
" transform="scale(0.015625)"/>
      <path id="DejaVuSans-Bold-3d" d="M 678 3084 
L 4684 3084 
L 4684 2350 
L 678 2350 
L 678 3084 
z
M 678 1663 
L 4684 1663 
L 4684 922 
L 678 922 
L 678 1663 
z
" transform="scale(0.015625)"/>
      <path id="DejaVuSans-Bold-35" d="M 678 4666 
L 3669 4666 
L 3669 3781 
L 1638 3781 
L 1638 3059 
Q 1775 3097 1914 3117 
Q 2053 3138 2203 3138 
Q 3056 3138 3531 2711 
Q 4006 2284 4006 1522 
Q 4006 766 3489 337 
Q 2972 -91 2053 -91 
Q 1656 -91 1267 -14 
Q 878 63 494 219 
L 494 1166 
Q 875 947 1217 837 
Q 1559 728 1863 728 
Q 2300 728 2551 942 
Q 2803 1156 2803 1522 
Q 2803 1891 2551 2103 
Q 2300 2316 1863 2316 
Q 1603 2316 1309 2248 
Q 1016 2181 678 2041 
L 678 4666 
z
" transform="scale(0.015625)"/>
      <path id="DejaVuSans-Bold-48" d="M 588 4666 
L 1791 4666 
L 1791 2888 
L 3566 2888 
L 3566 4666 
L 4769 4666 
L 4769 0 
L 3566 0 
L 3566 1978 
L 1791 1978 
L 1791 0 
L 588 0 
L 588 4666 
z
" transform="scale(0.015625)"/>
      <path id="DejaVuSans-Bold-7a" d="M 366 3500 
L 3419 3500 
L 3419 2719 
L 1575 800 
L 3419 800 
L 3419 0 
L 288 0 
L 288 781 
L 2131 2700 
L 366 2700 
L 366 3500 
z
" transform="scale(0.015625)"/>
     </defs>
     <use xlink:href="#DejaVuSans-Bold-4f"/>
     <use xlink:href="#DejaVuSans-Bold-70" transform="translate(85.009766 0)"/>
     <use xlink:href="#DejaVuSans-Bold-65" transform="translate(156.591797 0)"/>
     <use xlink:href="#DejaVuSans-Bold-6e" transform="translate(224.414062 0)"/>
     <use xlink:href="#DejaVuSans-Bold-2d" transform="translate(295.605469 0)"/>
     <use xlink:href="#DejaVuSans-Bold-43" transform="translate(337.109375 0)"/>
     <use xlink:href="#DejaVuSans-Bold-69" transform="translate(410.498047 0)"/>
     <use xlink:href="#DejaVuSans-Bold-72" transform="translate(444.775391 0)"/>
     <use xlink:href="#DejaVuSans-Bold-63" transform="translate(494.091797 0)"/>
     <use xlink:href="#DejaVuSans-Bold-75" transform="translate(553.369141 0)"/>
     <use xlink:href="#DejaVuSans-Bold-69" transform="translate(624.560547 0)"/>
     <use xlink:href="#DejaVuSans-Bold-74" transform="translate(658.837891 0)"/>
     <use xlink:href="#DejaVuSans-Bold-20" transform="translate(706.640625 0)"/>
     <use xlink:href="#DejaVuSans-Bold-56" transform="translate(741.455078 0)"/>
     <use xlink:href="#DejaVuSans-Bold-6f" transform="translate(813.347656 0)"/>
     <use xlink:href="#DejaVuSans-Bold-6c" transform="translate(882.048828 0)"/>
     <use xlink:href="#DejaVuSans-Bold-74" transform="translate(916.326172 0)"/>
     <use xlink:href="#DejaVuSans-Bold-61" transform="translate(964.128906 0)"/>
     <use xlink:href="#DejaVuSans-Bold-67" transform="translate(1031.609375 0)"/>
     <use xlink:href="#DejaVuSans-Bold-65" transform="translate(1103.191406 0)"/>
     <use xlink:href="#DejaVuSans-Bold-20" transform="translate(1171.013672 0)"/>
     <use xlink:href="#DejaVuSans-Bold-7c" transform="translate(1205.828125 0)"/>
     <use xlink:href="#DejaVuSans-Bold-20" transform="translate(1242.351562 0)"/>
     <use xlink:href="#DejaVuSans-Bold-66" transform="translate(1277.166016 0)"/>
     <use xlink:href="#DejaVuSans-Bold-20" transform="translate(1320.671875 0)"/>
     <use xlink:href="#DejaVuSans-Bold-3d" transform="translate(1355.486328 0)"/>
     <use xlink:href="#DejaVuSans-Bold-20" transform="translate(1439.275391 0)"/>
     <use xlink:href="#DejaVuSans-Bold-35" transform="translate(1474.089844 0)"/>
     <use xlink:href="#DejaVuSans-Bold-20" transform="translate(1543.669922 0)"/>
     <use xlink:href="#DejaVuSans-Bold-48" transform="translate(1578.484375 0)"/>
     <use xlink:href="#DejaVuSans-Bold-7a" transform="translate(1662.175781 0)"/>
    </g>
   </g>
   <g id="text_21">
    <!-- Without MIC -->
    <g style="fill: #333333" transform="translate(87.430679 47.848) scale(0.14 -0.14)">
     <defs>
      <path id="DejaVuSans-Bold-57" d="M 191 4666 
L 1344 4666 
L 2150 1275 
L 2950 4666 
L 4109 4666 
L 4909 1275 
L 5716 4666 
L 6859 4666 
L 5759 0 
L 4372 0 
L 3525 3547 
L 2688 0 
L 1300 0 
L 191 4666 
z
" transform="scale(0.015625)"/>
      <path id="DejaVuSans-Bold-68" d="M 4056 2131 
L 4056 0 
L 2931 0 
L 2931 347 
L 2931 1625 
Q 2931 2084 2911 2256 
Q 2891 2428 2841 2509 
Q 2775 2619 2662 2680 
Q 2550 2741 2406 2741 
Q 2056 2741 1856 2470 
Q 1656 2200 1656 1722 
L 1656 0 
L 538 0 
L 538 4863 
L 1656 4863 
L 1656 2988 
Q 1909 3294 2193 3439 
Q 2478 3584 2822 3584 
Q 3428 3584 3742 3212 
Q 4056 2841 4056 2131 
z
" transform="scale(0.015625)"/>
      <path id="DejaVuSans-Bold-4d" d="M 588 4666 
L 2119 4666 
L 3181 2169 
L 4250 4666 
L 5778 4666 
L 5778 0 
L 4641 0 
L 4641 3413 
L 3566 897 
L 2803 897 
L 1728 3413 
L 1728 0 
L 588 0 
L 588 4666 
z
" transform="scale(0.015625)"/>
      <path id="DejaVuSans-Bold-49" d="M 588 4666 
L 1791 4666 
L 1791 0 
L 588 0 
L 588 4666 
z
" transform="scale(0.015625)"/>
     </defs>
     <use xlink:href="#DejaVuSans-Bold-57"/>
     <use xlink:href="#DejaVuSans-Bold-69" transform="translate(110.302734 0)"/>
     <use xlink:href="#DejaVuSans-Bold-74" transform="translate(144.580078 0)"/>
     <use xlink:href="#DejaVuSans-Bold-68" transform="translate(192.382812 0)"/>
     <use xlink:href="#DejaVuSans-Bold-6f" transform="translate(263.574219 0)"/>
     <use xlink:href="#DejaVuSans-Bold-75" transform="translate(332.275391 0)"/>
     <use xlink:href="#DejaVuSans-Bold-74" transform="translate(403.466797 0)"/>
     <use xlink:href="#DejaVuSans-Bold-20" transform="translate(451.269531 0)"/>
     <use xlink:href="#DejaVuSans-Bold-4d" transform="translate(486.083984 0)"/>
     <use xlink:href="#DejaVuSans-Bold-49" transform="translate(585.595703 0)"/>
     <use xlink:href="#DejaVuSans-Bold-43" transform="translate(622.802734 0)"/>
    </g>
   </g>
   <g id="text_22">
    <!-- With MIC -->
    <g style="fill: #d94452" transform="translate(273.700804 47.848) scale(0.14 -0.14)">
     <use xlink:href="#DejaVuSans-Bold-57"/>
     <use xlink:href="#DejaVuSans-Bold-69" transform="translate(110.302734 0)"/>
     <use xlink:href="#DejaVuSans-Bold-74" transform="translate(144.580078 0)"/>
     <use xlink:href="#DejaVuSans-Bold-68" transform="translate(192.382812 0)"/>
     <use xlink:href="#DejaVuSans-Bold-20" transform="translate(263.574219 0)"/>
     <use xlink:href="#DejaVuSans-Bold-4d" transform="translate(298.388672 0)"/>
     <use xlink:href="#DejaVuSans-Bold-49" transform="translate(397.900391 0)"/>
     <use xlink:href="#DejaVuSans-Bold-43" transform="translate(435.107422 0)"/>
    </g>
   </g>
  </g>
 </g>
 <defs>
  <clipPath id="p33fe1b6416">
   <rect x="61.963281" y="22.842187" width="346.264" height="287.36"/>
  </clipPath>
 </defs>
</svg>
