<?xml version="1.0" encoding="utf-8" standalone="no"?>
<!DOCTYPE svg PUBLIC "-//W3C//DTD SVG 1.1//EN"
  "http://www.w3.org/Graphics/SVG/1.1/DTD/svg11.dtd">
<svg xmlns:xlink="http://www.w3.org/1999/xlink" width="711.334086pt" height="349.93775pt" viewBox="0 0 711.334086 349.93775" xmlns="http://www.w3.org/2000/svg" version="1.1">
 <metadata>
  <rdf:RDF xmlns:dc="http://purl.org/dc/elements/1.1/" xmlns:cc="http://creativecommons.org/ns#" xmlns:rdf="http://www.w3.org/1999/02/22-rdf-syntax-ns#">
   <cc:Work>
    <dc:type rdf:resource="http://purl.org/dc/dcmitype/StillImage"/>
    <dc:date>2026-04-25T01:44:05.012641</dc:date>
    <dc:format>image/svg+xml</dc:format>
    <dc:creator>
     <cc:Agent>
      <dc:title>Matplotlib v3.10.8, https://matplotlib.org/</dc:title>
     </cc:Agent>
    </dc:creator>
   </cc:Work>
  </rdf:RDF>
 </metadata>
 <defs>
  <style type="text/css">*{stroke-linejoin: round; stroke-linecap: butt}</style>
 </defs>
 <g id="figure_1">
  <g id="patch_1">
   <path d="M 0 349.93775 
L 711.334086 349.93775 
L 711.334086 0 
L 0 0 
z
" style="fill: #ffffff"/>
  </g>
  <g id="axes_1">
   <g id="patch_2">
    <path d="M 48.029375 307.542437 
L 697.135336 307.542437 
L 697.135336 17.798437 
L 48.029375 17.798437 
z
" style="fill: #ffffff"/>
   </g>
   <g id="patch_3">
    <path d="M 48.029375 307.542437 
L 372.582355 307.542437 
L 372.582355 17.798437 
L 48.029375 17.798437 
z
" clip-path="url(#pf5d9eca34a)" style="fill: #cccccc; opacity: 0.12; stroke: #cccccc; stroke-linejoin: miter"/>
   </g>
   <g id="patch_4">
    <path d="M 372.582355 307.542437 
L 697.135336 307.542437 
L 697.135336 17.798437 
L 372.582355 17.798437 
z
" clip-path="url(#pf5d9eca34a)" style="fill: #d94452; opacity: 0.06; stroke: #d94452; stroke-linejoin: miter"/>
   </g>
   <g id="line2d_1">
    <path d="M 372.582355 307.542437 
L 372.582355 17.798437 
" clip-path="url(#pf5d9eca34a)" style="fill: none; stroke-dasharray: 3.7,1.6; stroke-dashoffset: 0; stroke: #999999"/>
   </g>
   <g id="matplotlib.axis_1">
    <g id="xtick_1">
     <g id="line2d_2">
      <defs>
       <path id="m7ba4ed5979" d="M 0 0 
L 0 3.5 
" style="stroke: #000000; stroke-width: 0.8"/>
      </defs>
      <g>
       <use xlink:href="#m7ba4ed5979" x="48.029375" y="307.542437" style="stroke: #000000; stroke-width: 0.8"/>
      </g>
     </g>
     <g id="text_1">
      <!-- 0 -->
      <g transform="translate(44.53 322.900719) scale(0.11 -0.11)">
       <defs>
        <path id="DejaVuSans-30" d="M 2034 4250 
Q 1547 4250 1301 3770 
Q 1056 3291 1056 2328 
Q 1056 1369 1301 889 
Q 1547 409 2034 409 
Q 2525 409 2770 889 
Q 3016 1369 3016 2328 
Q 3016 3291 2770 3770 
Q 2525 4250 2034 4250 
z
M 2034 4750 
Q 2819 4750 3233 4129 
Q 3647 3509 3647 2328 
Q 3647 1150 3233 529 
Q 2819 -91 2034 -91 
Q 1250 -91 836 529 
Q 422 1150 422 2328 
Q 422 3509 836 4129 
Q 1250 4750 2034 4750 
z
" transform="scale(0.015625)"/>
       </defs>
       <use xlink:href="#DejaVuSans-30"/>
      </g>
     </g>
    </g>
    <g id="xtick_2">
     <g id="line2d_3">
      <g>
       <use xlink:href="#m7ba4ed5979" x="177.850567" y="307.542437" style="stroke: #000000; stroke-width: 0.8"/>
      </g>
     </g>
     <g id="text_2">
      <!-- 2 -->
      <g transform="translate(174.351192 322.900719) scale(0.11 -0.11)">
       <defs>
        <path id="DejaVuSans-32" d="M 1228 531 
L 3431 531 
L 3431 0 
L 469 0 
L 469 531 
Q 828 903 1448 1529 
Q 2069 2156 2228 2338 
Q 2531 2678 2651 2914 
Q 2772 3150 2772 3378 
Q 2772 3750 2511 3984 
Q 2250 4219 1831 4219 
Q 1534 4219 1204 4116 
Q 875 4013 500 3803 
L 500 4441 
Q 881 4594 1212 4672 
Q 1544 4750 1819 4750 
Q 2544 4750 2975 4387 
Q 3406 4025 3406 3419 
Q 3406 3131 3298 2873 
Q 3191 2616 2906 2266 
Q 2828 2175 2409 1742 
Q 1991 1309 1228 531 
z
" transform="scale(0.015625)"/>
       </defs>
       <use xlink:href="#DejaVuSans-32"/>
      </g>
     </g>
    </g>
    <g id="xtick_3">
     <g id="line2d_4">
      <g>
       <use xlink:href="#m7ba4ed5979" x="307.671759" y="307.542437" style="stroke: #000000; stroke-width: 0.8"/>
      </g>
     </g>
     <g id="text_3">
      <!-- 4 -->
      <g transform="translate(304.172384 322.900719) scale(0.11 -0.11)">
       <defs>
        <path id="DejaVuSans-34" d="M 2419 4116 
L 825 1625 
L 2419 1625 
L 2419 4116 
z
M 2253 4666 
L 3047 4666 
L 3047 1625 
L 3713 1625 
L 3713 1100 
L 3047 1100 
L 3047 0 
L 2419 0 
L 2419 1100 
L 313 1100 
L 313 1709 
L 2253 4666 
z
" transform="scale(0.015625)"/>
       </defs>
       <use xlink:href="#DejaVuSans-34"/>
      </g>
     </g>
    </g>
    <g id="xtick_4">
     <g id="line2d_5">
      <g>
       <use xlink:href="#m7ba4ed5979" x="437.492952" y="307.542437" style="stroke: #000000; stroke-width: 0.8"/>
      </g>
     </g>
     <g id="text_4">
      <!-- 6 -->
      <g transform="translate(433.993577 322.900719) scale(0.11 -0.11)">
       <defs>
        <path id="DejaVuSans-36" d="M 2113 2584 
Q 1688 2584 1439 2293 
Q 1191 2003 1191 1497 
Q 1191 994 1439 701 
Q 1688 409 2113 409 
Q 2538 409 2786 701 
Q 3034 994 3034 1497 
Q 3034 2003 2786 2293 
Q 2538 2584 2113 2584 
z
M 3366 4563 
L 3366 3988 
Q 3128 4100 2886 4159 
Q 2644 4219 2406 4219 
Q 1781 4219 1451 3797 
Q 1122 3375 1075 2522 
Q 1259 2794 1537 2939 
Q 1816 3084 2150 3084 
Q 2853 3084 3261 2657 
Q 3669 2231 3669 1497 
Q 3669 778 3244 343 
Q 2819 -91 2113 -91 
Q 1303 -91 875 529 
Q 447 1150 447 2328 
Q 447 3434 972 4092 
Q 1497 4750 2381 4750 
Q 2619 4750 2861 4703 
Q 3103 4656 3366 4563 
z
" transform="scale(0.015625)"/>
       </defs>
       <use xlink:href="#DejaVuSans-36"/>
      </g>
     </g>
    </g>
    <g id="xtick_5">
     <g id="line2d_6">
      <g>
       <use xlink:href="#m7ba4ed5979" x="567.314144" y="307.542437" style="stroke: #000000; stroke-width: 0.8"/>
      </g>
     </g>
     <g id="text_5">
      <!-- 8 -->
      <g transform="translate(563.814769 322.900719) scale(0.11 -0.11)">
       <defs>
        <path id="DejaVuSans-38" d="M 2034 2216 
Q 1584 2216 1326 1975 
Q 1069 1734 1069 1313 
Q 1069 891 1326 650 
Q 1584 409 2034 409 
Q 2484 409 2743 651 
Q 3003 894 3003 1313 
Q 3003 1734 2745 1975 
Q 2488 2216 2034 2216 
z
M 1403 2484 
Q 997 2584 770 2862 
Q 544 3141 544 3541 
Q 544 4100 942 4425 
Q 1341 4750 2034 4750 
Q 2731 4750 3128 4425 
Q 3525 4100 3525 3541 
Q 3525 3141 3298 2862 
Q 3072 2584 2669 2484 
Q 3125 2378 3379 2068 
Q 3634 1759 3634 1313 
Q 3634 634 3220 271 
Q 2806 -91 2034 -91 
Q 1263 -91 848 271 
Q 434 634 434 1313 
Q 434 1759 690 2068 
Q 947 2378 1403 2484 
z
M 1172 3481 
Q 1172 3119 1398 2916 
Q 1625 2713 2034 2713 
Q 2441 2713 2670 2916 
Q 2900 3119 2900 3481 
Q 2900 3844 2670 4047 
Q 2441 4250 2034 4250 
Q 1625 4250 1398 4047 
Q 1172 3844 1172 3481 
z
" transform="scale(0.015625)"/>
       </defs>
       <use xlink:href="#DejaVuSans-38"/>
      </g>
     </g>
    </g>
    <g id="xtick_6">
     <g id="line2d_7">
      <g>
       <use xlink:href="#m7ba4ed5979" x="697.135336" y="307.542437" style="stroke: #000000; stroke-width: 0.8"/>
      </g>
     </g>
     <g id="text_6">
      <!-- 10 -->
      <g transform="translate(690.136586 322.900719) scale(0.11 -0.11)">
       <defs>
        <path id="DejaVuSans-31" d="M 794 531 
L 1825 531 
L 1825 4091 
L 703 3866 
L 703 4441 
L 1819 4666 
L 2450 4666 
L 2450 531 
L 3481 531 
L 3481 0 
L 794 0 
L 794 531 
z
" transform="scale(0.015625)"/>
       </defs>
       <use xlink:href="#DejaVuSans-31"/>
       <use xlink:href="#DejaVuSans-30" transform="translate(63.623047 0)"/>
      </g>
     </g>
    </g>
    <g id="text_7">
     <!-- Time (s) -->
     <g transform="translate(340.363762 339.826187) scale(0.14 -0.14)">
      <defs>
       <path id="DejaVuSans-Bold-54" d="M 31 4666 
L 4331 4666 
L 4331 3756 
L 2784 3756 
L 2784 0 
L 1581 0 
L 1581 3756 
L 31 3756 
L 31 4666 
z
" transform="scale(0.015625)"/>
       <path id="DejaVuSans-Bold-69" d="M 538 3500 
L 1656 3500 
L 1656 0 
L 538 0 
L 538 3500 
z
M 538 4863 
L 1656 4863 
L 1656 3950 
L 538 3950 
L 538 4863 
z
" transform="scale(0.015625)"/>
       <path id="DejaVuSans-Bold-6d" d="M 3781 2919 
Q 3994 3244 4286 3414 
Q 4578 3584 4928 3584 
Q 5531 3584 5847 3212 
Q 6163 2841 6163 2131 
L 6163 0 
L 5038 0 
L 5038 1825 
Q 5041 1866 5042 1909 
Q 5044 1953 5044 2034 
Q 5044 2406 4934 2573 
Q 4825 2741 4581 2741 
Q 4263 2741 4089 2478 
Q 3916 2216 3909 1719 
L 3909 0 
L 2784 0 
L 2784 1825 
Q 2784 2406 2684 2573 
Q 2584 2741 2328 2741 
Q 2006 2741 1831 2477 
Q 1656 2213 1656 1722 
L 1656 0 
L 531 0 
L 531 3500 
L 1656 3500 
L 1656 2988 
Q 1863 3284 2130 3434 
Q 2397 3584 2719 3584 
Q 3081 3584 3359 3409 
Q 3638 3234 3781 2919 
z
" transform="scale(0.015625)"/>
       <path id="DejaVuSans-Bold-65" d="M 4031 1759 
L 4031 1441 
L 1416 1441 
Q 1456 1047 1700 850 
Q 1944 653 2381 653 
Q 2734 653 3104 758 
Q 3475 863 3866 1075 
L 3866 213 
Q 3469 63 3072 -14 
Q 2675 -91 2278 -91 
Q 1328 -91 801 392 
Q 275 875 275 1747 
Q 275 2603 792 3093 
Q 1309 3584 2216 3584 
Q 3041 3584 3536 3087 
Q 4031 2591 4031 1759 
z
M 2881 2131 
Q 2881 2450 2695 2645 
Q 2509 2841 2209 2841 
Q 1884 2841 1681 2658 
Q 1478 2475 1428 2131 
L 2881 2131 
z
" transform="scale(0.015625)"/>
       <path id="DejaVuSans-Bold-20" transform="scale(0.015625)"/>
       <path id="DejaVuSans-Bold-28" d="M 2413 -844 
L 1484 -844 
Q 1006 -72 778 623 
Q 550 1319 550 2003 
Q 550 2688 779 3389 
Q 1009 4091 1484 4856 
L 2413 4856 
Q 2013 4116 1813 3408 
Q 1613 2700 1613 2009 
Q 1613 1319 1811 609 
Q 2009 -100 2413 -844 
z
" transform="scale(0.015625)"/>
       <path id="DejaVuSans-Bold-73" d="M 3272 3391 
L 3272 2541 
Q 2913 2691 2578 2766 
Q 2244 2841 1947 2841 
Q 1628 2841 1473 2761 
Q 1319 2681 1319 2516 
Q 1319 2381 1436 2309 
Q 1553 2238 1856 2203 
L 2053 2175 
Q 2913 2066 3209 1816 
Q 3506 1566 3506 1031 
Q 3506 472 3093 190 
Q 2681 -91 1863 -91 
Q 1516 -91 1145 -36 
Q 775 19 384 128 
L 384 978 
Q 719 816 1070 734 
Q 1422 653 1784 653 
Q 2113 653 2278 743 
Q 2444 834 2444 1013 
Q 2444 1163 2330 1236 
Q 2216 1309 1875 1350 
L 1678 1375 
Q 931 1469 631 1722 
Q 331 1975 331 2491 
Q 331 3047 712 3315 
Q 1094 3584 1881 3584 
Q 2191 3584 2531 3537 
Q 2872 3491 3272 3391 
z
" transform="scale(0.015625)"/>
       <path id="DejaVuSans-Bold-29" d="M 513 -844 
Q 913 -100 1113 609 
Q 1313 1319 1313 2009 
Q 1313 2700 1113 3408 
Q 913 4116 513 4856 
L 1441 4856 
Q 1916 4091 2145 3389 
Q 2375 2688 2375 2003 
Q 2375 1319 2147 623 
Q 1919 -72 1441 -844 
L 513 -844 
z
" transform="scale(0.015625)"/>
      </defs>
      <use xlink:href="#DejaVuSans-Bold-54"/>
      <use xlink:href="#DejaVuSans-Bold-69" transform="translate(68.212891 0)"/>
      <use xlink:href="#DejaVuSans-Bold-6d" transform="translate(102.490234 0)"/>
      <use xlink:href="#DejaVuSans-Bold-65" transform="translate(206.689453 0)"/>
      <use xlink:href="#DejaVuSans-Bold-20" transform="translate(274.511719 0)"/>
      <use xlink:href="#DejaVuSans-Bold-28" transform="translate(309.326172 0)"/>
      <use xlink:href="#DejaVuSans-Bold-73" transform="translate(355.029297 0)"/>
      <use xlink:href="#DejaVuSans-Bold-29" transform="translate(414.550781 0)"/>
     </g>
    </g>
   </g>
   <g id="matplotlib.axis_2">
    <g id="ytick_1">
     <g id="line2d_8">
      <defs>
       <path id="mf9eb13e09f" d="M 0 0 
L -3.5 0 
" style="stroke: #000000; stroke-width: 0.8"/>
      </defs>
      <g>
       <use xlink:href="#mf9eb13e09f" x="48.029375" y="302.666172" style="stroke: #000000; stroke-width: 0.8"/>
      </g>
     </g>
     <g id="text_8">
      <!-- $\mathdefault{−8}$ -->
      <g transform="translate(24.749375 306.845313) scale(0.11 -0.11)">
       <defs>
        <path id="DejaVuSans-2212" d="M 678 2272 
L 4684 2272 
L 4684 1741 
L 678 1741 
L 678 2272 
z
" transform="scale(0.015625)"/>
       </defs>
       <use xlink:href="#DejaVuSans-2212" transform="translate(0 0.78125)"/>
       <use xlink:href="#DejaVuSans-38" transform="translate(83.789062 0.78125)"/>
      </g>
     </g>
    </g>
    <g id="ytick_2">
     <g id="line2d_9">
      <g>
       <use xlink:href="#mf9eb13e09f" x="48.029375" y="267.667238" style="stroke: #000000; stroke-width: 0.8"/>
      </g>
     </g>
     <g id="text_9">
      <!-- $\mathdefault{−6}$ -->
      <g transform="translate(24.749375 271.846379) scale(0.11 -0.11)">
       <use xlink:href="#DejaVuSans-2212" transform="translate(0 0.78125)"/>
       <use xlink:href="#DejaVuSans-36" transform="translate(83.789062 0.78125)"/>
      </g>
     </g>
    </g>
    <g id="ytick_3">
     <g id="line2d_10">
      <g>
       <use xlink:href="#mf9eb13e09f" x="48.029375" y="232.668305" style="stroke: #000000; stroke-width: 0.8"/>
      </g>
     </g>
     <g id="text_10">
      <!-- $\mathdefault{−4}$ -->
      <g transform="translate(24.749375 236.847445) scale(0.11 -0.11)">
       <use xlink:href="#DejaVuSans-2212" transform="translate(0 0.09375)"/>
       <use xlink:href="#DejaVuSans-34" transform="translate(83.789062 0.09375)"/>
      </g>
     </g>
    </g>
    <g id="ytick_4">
     <g id="line2d_11">
      <g>
       <use xlink:href="#mf9eb13e09f" x="48.029375" y="197.669371" style="stroke: #000000; stroke-width: 0.8"/>
      </g>
     </g>
     <g id="text_11">
      <!-- $\mathdefault{−2}$ -->
      <g transform="translate(24.749375 201.848512) scale(0.11 -0.11)">
       <use xlink:href="#DejaVuSans-2212" transform="translate(0 0.78125)"/>
       <use xlink:href="#DejaVuSans-32" transform="translate(83.789062 0.78125)"/>
      </g>
     </g>
    </g>
    <g id="ytick_5">
     <g id="line2d_12">
      <g>
       <use xlink:href="#mf9eb13e09f" x="48.029375" y="162.670437" style="stroke: #000000; stroke-width: 0.8"/>
      </g>
     </g>
     <g id="text_12">
      <!-- $\mathdefault{0}$ -->
      <g transform="translate(33.989375 166.849578) scale(0.11 -0.11)">
       <use xlink:href="#DejaVuSans-30" transform="translate(0 0.78125)"/>
      </g>
     </g>
    </g>
    <g id="ytick_6">
     <g id="line2d_13">
      <g>
       <use xlink:href="#mf9eb13e09f" x="48.029375" y="127.671504" style="stroke: #000000; stroke-width: 0.8"/>
      </g>
     </g>
     <g id="text_13">
      <!-- $\mathdefault{2}$ -->
      <g transform="translate(33.989375 131.850645) scale(0.11 -0.11)">
       <use xlink:href="#DejaVuSans-32" transform="translate(0 0.78125)"/>
      </g>
     </g>
    </g>
    <g id="ytick_7">
     <g id="line2d_14">
      <g>
       <use xlink:href="#mf9eb13e09f" x="48.029375" y="92.67257" style="stroke: #000000; stroke-width: 0.8"/>
      </g>
     </g>
     <g id="text_14">
      <!-- $\mathdefault{4}$ -->
      <g transform="translate(33.989375 96.851711) scale(0.11 -0.11)">
       <use xlink:href="#DejaVuSans-34" transform="translate(0 0.09375)"/>
      </g>
     </g>
    </g>
    <g id="ytick_8">
     <g id="line2d_15">
      <g>
       <use xlink:href="#mf9eb13e09f" x="48.029375" y="57.673637" style="stroke: #000000; stroke-width: 0.8"/>
      </g>
     </g>
     <g id="text_15">
      <!-- $\mathdefault{6}$ -->
      <g transform="translate(33.989375 61.852777) scale(0.11 -0.11)">
       <use xlink:href="#DejaVuSans-36" transform="translate(0 0.78125)"/>
      </g>
     </g>
    </g>
    <g id="ytick_9">
     <g id="line2d_16">
      <g>
       <use xlink:href="#mf9eb13e09f" x="48.029375" y="22.674703" style="stroke: #000000; stroke-width: 0.8"/>
      </g>
     </g>
     <g id="text_16">
      <!-- $\mathdefault{8}$ -->
      <g transform="translate(33.989375 26.853844) scale(0.11 -0.11)">
       <use xlink:href="#DejaVuSans-38" transform="translate(0 0.78125)"/>
      </g>
     </g>
    </g>
    <g id="text_17">
     <!-- I$_{sc}$ (mA/m²) -->
     <g transform="translate(17.837812 205.300437) rotate(-90) scale(0.14 -0.14)">
      <defs>
       <path id="DejaVuSans-Bold-49" d="M 588 4666 
L 1791 4666 
L 1791 0 
L 588 0 
L 588 4666 
z
" transform="scale(0.015625)"/>
       <path id="DejaVuSans-Oblique-73" d="M 3200 3397 
L 3091 2853 
Q 2863 2978 2609 3040 
Q 2356 3103 2088 3103 
Q 1634 3103 1373 2948 
Q 1113 2794 1113 2528 
Q 1113 2219 1719 2053 
Q 1766 2041 1788 2034 
L 1972 1978 
Q 2547 1819 2739 1644 
Q 2931 1469 2931 1166 
Q 2931 609 2489 259 
Q 2047 -91 1331 -91 
Q 1053 -91 747 -37 
Q 441 16 72 128 
L 184 722 
Q 500 559 806 475 
Q 1113 391 1394 391 
Q 1816 391 2080 572 
Q 2344 753 2344 1031 
Q 2344 1331 1650 1516 
L 1591 1531 
L 1394 1581 
Q 956 1697 753 1886 
Q 550 2075 550 2369 
Q 550 2928 970 3256 
Q 1391 3584 2113 3584 
Q 2397 3584 2667 3537 
Q 2938 3491 3200 3397 
z
" transform="scale(0.015625)"/>
       <path id="DejaVuSans-Oblique-63" d="M 3431 3366 
L 3316 2797 
Q 3109 2947 2876 3022 
Q 2644 3097 2394 3097 
Q 2119 3097 1870 3000 
Q 1622 2903 1453 2725 
Q 1184 2453 1037 2087 
Q 891 1722 891 1331 
Q 891 859 1127 628 
Q 1363 397 1844 397 
Q 2081 397 2348 469 
Q 2616 541 2906 684 
L 2797 116 
Q 2547 13 2283 -39 
Q 2019 -91 1741 -91 
Q 1044 -91 669 257 
Q 294 606 294 1253 
Q 294 1797 489 2255 
Q 684 2713 1069 3078 
Q 1331 3328 1684 3456 
Q 2038 3584 2456 3584 
Q 2700 3584 2940 3529 
Q 3181 3475 3431 3366 
z
" transform="scale(0.015625)"/>
       <path id="DejaVuSans-Bold-41" d="M 3419 850 
L 1538 850 
L 1241 0 
L 31 0 
L 1759 4666 
L 3194 4666 
L 4922 0 
L 3713 0 
L 3419 850 
z
M 1838 1716 
L 3116 1716 
L 2478 3572 
L 1838 1716 
z
" transform="scale(0.015625)"/>
       <path id="DejaVuSans-Bold-2f" d="M 1644 4666 
L 2338 4666 
L 691 -594 
L 0 -594 
L 1644 4666 
z
" transform="scale(0.015625)"/>
       <path id="DejaVuSans-Bold-b2" d="M 1288 2613 
L 2444 2613 
L 2444 2088 
L 341 2088 
L 341 2566 
L 1319 3397 
Q 1509 3563 1590 3688 
Q 1672 3813 1672 3938 
Q 1672 4094 1558 4191 
Q 1444 4288 1259 4288 
Q 1066 4288 844 4217 
Q 622 4147 359 4000 
L 359 4581 
Q 631 4666 886 4708 
Q 1141 4750 1375 4750 
Q 1869 4750 2150 4548 
Q 2431 4347 2431 4000 
Q 2431 3775 2320 3586 
Q 2209 3397 1894 3128 
L 1288 2613 
z
" transform="scale(0.015625)"/>
      </defs>
      <use xlink:href="#DejaVuSans-Bold-49" transform="translate(0 0.125)"/>
      <use xlink:href="#DejaVuSans-Oblique-73" transform="translate(38.164062 -16.28125) scale(0.7)"/>
      <use xlink:href="#DejaVuSans-Oblique-63" transform="translate(74.633789 -16.28125) scale(0.7)"/>
      <use xlink:href="#DejaVuSans-Bold-20" transform="translate(115.854492 0.125)"/>
      <use xlink:href="#DejaVuSans-Bold-28" transform="translate(150.668945 0.125)"/>
      <use xlink:href="#DejaVuSans-Bold-6d" transform="translate(196.37207 0.125)"/>
      <use xlink:href="#DejaVuSans-Bold-41" transform="translate(300.571289 0.125)"/>
      <use xlink:href="#DejaVuSans-Bold-2f" transform="translate(377.963867 0.125)"/>
      <use xlink:href="#DejaVuSans-Bold-6d" transform="translate(414.487305 0.125)"/>
      <use xlink:href="#DejaVuSans-Bold-b2" transform="translate(518.686523 0.125)"/>
      <use xlink:href="#DejaVuSans-Bold-29" transform="translate(562.485352 0.125)"/>
     </g>
    </g>
    <g id="text_18">
     <!-- $\times\mathdefault{10^{−3}}\mathdefault{}$ -->
     <g transform="translate(48.029375 14.798437) scale(0.1 -0.1)">
      <defs>
       <path id="DejaVuSans-d7" d="M 4488 3438 
L 3059 2003 
L 4488 575 
L 4116 197 
L 2681 1631 
L 1247 197 
L 878 575 
L 2303 2003 
L 878 3438 
L 1247 3816 
L 2681 2381 
L 4116 3816 
L 4488 3438 
z
" transform="scale(0.015625)"/>
       <path id="DejaVuSans-33" d="M 2597 2516 
Q 3050 2419 3304 2112 
Q 3559 1806 3559 1356 
Q 3559 666 3084 287 
Q 2609 -91 1734 -91 
Q 1441 -91 1130 -33 
Q 819 25 488 141 
L 488 750 
Q 750 597 1062 519 
Q 1375 441 1716 441 
Q 2309 441 2620 675 
Q 2931 909 2931 1356 
Q 2931 1769 2642 2001 
Q 2353 2234 1838 2234 
L 1294 2234 
L 1294 2753 
L 1863 2753 
Q 2328 2753 2575 2939 
Q 2822 3125 2822 3475 
Q 2822 3834 2567 4026 
Q 2313 4219 1838 4219 
Q 1578 4219 1281 4162 
Q 984 4106 628 3988 
L 628 4550 
Q 988 4650 1302 4700 
Q 1616 4750 1894 4750 
Q 2613 4750 3031 4423 
Q 3450 4097 3450 3541 
Q 3450 3153 3228 2886 
Q 3006 2619 2597 2516 
z
" transform="scale(0.015625)"/>
      </defs>
      <use xlink:href="#DejaVuSans-d7" transform="translate(0 0.765625)"/>
      <use xlink:href="#DejaVuSans-31" transform="translate(83.789062 0.765625)"/>
      <use xlink:href="#DejaVuSans-30" transform="translate(147.412109 0.765625)"/>
      <use xlink:href="#DejaVuSans-2212" transform="translate(211.992188 39.046875) scale(0.7)"/>
      <use xlink:href="#DejaVuSans-33" transform="translate(270.644531 39.046875) scale(0.7)"/>
     </g>
    </g>
   </g>
   <g id="patch_5">
    <path d="M 48.029375 307.542437 
L 48.029375 17.798437 
" style="fill: none; stroke: #000000; stroke-width: 0.8; stroke-linejoin: miter; stroke-linecap: square"/>
   </g>
   <g id="patch_6">
    <path d="M 48.029375 307.542437 
L 697.135336 307.542437 
" style="fill: none; stroke: #000000; stroke-width: 0.8; stroke-linejoin: miter; stroke-linecap: square"/>
   </g>
   <g id="line2d_17">
    <path d="M 48.029375 246.483652 
L 48.483749 188.263736 
L 48.808302 174.131438 
L 49.197766 154.320851 
L 49.457408 151.263309 
L 49.587229 151.249222 
L 49.781961 151.939633 
L 50.171425 154.165859 
L 50.950352 158.096982 
L 51.404726 159.745515 
L 51.924011 160.914988 
L 52.638027 161.971741 
L 52.832759 162.197181 
L 53.287133 162.929863 
L 53.676597 164.606577 
L 53.871329 166.705993 
L 54.06606 171.848855 
L 54.195882 182.275475 
L 54.325703 234.183102 
L 54.390613 269.520826 
L 54.455524 267.39324 
L 54.715166 235.817552 
L 55.039719 190.405417 
L 55.299362 180.2606 
L 56.013378 151.474664 
L 56.1432 151.17877 
L 56.273021 151.347849 
L 56.727395 153.84179 
L 57.31159 156.983868 
L 57.960696 159.548254 
L 58.479981 160.830448 
L 59.258908 161.971741 
L 59.583461 162.380352 
L 59.972925 163.197574 
L 60.232567 164.197966 
L 60.492209 166.734172 
L 60.686941 171.989752 
L 60.816762 182.176844 
L 60.946584 235.000327 
L 61.011494 269.76035 
L 61.076405 266.8578 
L 61.336047 235.183503 
L 61.6606 189.982717 
L 61.920243 179.908349 
L 62.244796 160.971348 
L 62.504438 152.756854 
L 62.69917 151.09423 
L 62.76408 151.05196 
L 63.153544 152.545504 
L 63.86756 156.631617 
L 64.451756 159.139644 
L 65.035951 160.703637 
L 66.593805 163.211664 
L 66.853448 164.282507 
L 67.04818 165.902861 
L 67.242911 169.70717 
L 67.372733 175.878602 
L 67.502554 201.733793 
L 67.632375 270.662097 
L 67.697286 267.505937 
L 67.956928 235.423027 
L 68.281481 190.34906 
L 68.606034 177.231245 
L 69.190229 151.911455 
L 69.384961 151.192861 
L 69.514782 151.446481 
L 69.774425 152.644135 
L 70.553352 157.068408 
L 71.786653 160.999528 
L 72.111206 161.50677 
L 72.370849 161.78857 
L 73.344507 163.662545 
L 73.60415 165.268809 
L 73.798882 168.114994 
L 73.993613 176.033595 
L 74.123435 202.790546 
L 74.253256 271.986588 
L 74.318166 268.393641 
L 74.577809 235.76116 
L 74.902362 190.997201 
L 75.162004 180.542402 
L 75.876021 151.601474 
L 76.005842 151.361941 
L 76.135663 151.559204 
L 76.395305 152.742767 
L 77.368964 157.998351 
L 78.01807 160.154126 
L 78.472445 161.126339 
L 79.446104 162.422622 
L 79.705746 162.845323 
L 79.965388 163.690725 
L 80.225031 165.296989 
L 80.419762 168.227717 
L 80.614494 176.244945 
L 80.744315 204.199546 
L 80.874137 272.3952 
L 80.939047 268.661339 
L 81.19869 235.958423 
L 81.523243 191.067649 
L 81.782885 180.443771 
L 82.496902 151.643743 
L 82.626723 151.376032 
L 82.756544 151.601474 
L 83.016186 152.799124 
L 84.249488 158.914203 
L 84.833683 160.605007 
L 85.288057 161.408139 
L 86.521358 163.465285 
L 86.781001 164.817928 
L 86.975733 167.015973 
L 87.170464 172.567445 
L 87.300286 184.403069 
L 87.495017 272.07111 
L 87.624839 261.559968 
L 87.884481 223.037911 
L 88.144123 190.814029 
L 88.403766 180.232421 
L 89.117782 151.474664 
L 89.247604 151.17877 
L 89.377425 151.376032 
L 89.701978 152.982295 
L 90.545815 157.674278 
L 91.324743 160.280936 
L 91.908938 161.45041 
L 92.038759 161.6054 
L 92.558044 162.309902 
L 92.752776 162.507162 
L 93.142239 163.423014 
L 93.401882 164.832018 
L 93.596613 167.001883 
L 93.791345 172.609715 
L 93.921166 184.684867 
L 94.115898 272.014762 
L 94.245719 261.264096 
L 94.505362 222.643385 
L 94.765004 190.17998 
L 95.024647 179.62655 
L 95.738663 151.192861 
L 95.868484 150.953328 
L 95.933395 150.981511 
L 96.128127 151.812823 
L 96.582501 154.504023 
L 97.62107 159.350994 
L 98.205266 160.802268 
L 99.049104 162.112641 
L 99.243835 162.323992 
L 99.698209 163.239844 
L 99.957852 164.338867 
L 100.217494 167.072332 
L 100.412226 172.750616 
L 100.542047 185.558449 
L 100.736779 272.3952 
L 100.8666 261.038659 
L 101.061332 234.267625 
L 101.385885 189.869999 
L 101.710438 176.414024 
L 102.294633 151.404211 
L 102.489365 150.741978 
L 102.684097 151.291492 
L 104.11213 158.829662 
L 104.761236 160.619098 
L 105.345431 161.64767 
L 106.31909 163.239844 
L 106.643643 164.761568 
L 106.838375 167.030063 
L 107.033107 172.722437 
L 107.162928 185.727529 
L 107.35766 273.649212 
L 107.487481 261.968581 
L 107.682213 234.605802 
L 108.006766 190.785851 
L 108.331319 177.273515 
L 108.850604 152.897755 
L 109.045335 151.319671 
L 109.110246 151.221039 
L 109.175157 151.319671 
L 109.369888 152.010082 
L 111.057564 159.942775 
L 111.77158 161.422229 
L 112.81015 162.929863 
L 113.134703 163.972526 
L 113.329435 165.353349 
L 113.524166 168.396797 
L 113.718898 177.329876 
L 113.848719 210.356878 
L 113.978541 273.973259 
L 114.043451 268.858602 
L 114.303094 234.380365 
L 114.627647 190.884478 
L 114.9522 177.048074 
L 115.471484 152.686405 
L 115.666216 151.164682 
L 115.731127 151.122412 
L 115.860948 151.404211 
L 116.12059 152.672314 
L 117.288981 158.731032 
L 117.873176 160.393657 
L 118.457372 161.54904 
L 118.846835 161.943561 
L 119.171388 162.422622 
L 119.690673 163.676635 
L 119.885405 164.761568 
L 120.080137 167.142785 
L 120.274868 173.074689 
L 120.40469 187.826945 
L 120.599421 274.903224 
L 120.664332 269.774437 
L 120.923974 235.098937 
L 121.248527 191.039471 
L 121.57308 177.090344 
L 122.092365 152.756854 
L 122.287097 151.305579 
L 122.416918 151.347849 
L 122.61165 152.066443 
L 124.104594 159.350994 
L 124.558968 160.619098 
L 126.181733 163.211664 
L 126.441375 164.338867 
L 126.636107 166.156481 
L 126.830839 170.439851 
L 126.96066 177.597588 
L 127.090481 211.216365 
L 127.220302 274.663656 
L 127.285213 269.464477 
L 127.544855 234.563541 
L 127.869408 191.448079 
L 128.193961 177.188975 
L 128.713246 152.700497 
L 128.907978 151.263309 
L 129.037799 151.291492 
L 129.297441 152.334154 
L 130.400921 158.181522 
L 130.985117 160.154126 
L 131.699133 161.47859 
L 131.893865 161.67585 
L 132.41315 162.450802 
L 132.607882 162.718513 
L 132.867524 163.394834 
L 133.127166 164.832018 
L 133.321898 167.213233 
L 133.51663 173.314217 
L 133.646451 189.630466 
L 133.841183 273.930997 
L 133.906094 268.478164 
L 134.165736 233.577227 
L 134.490289 190.64495 
L 134.814842 176.597196 
L 135.334127 152.489143 
L 135.528859 151.108321 
L 135.593769 151.080143 
L 135.788501 151.545112 
L 137.021802 158.125161 
L 137.995461 160.929078 
L 139.488405 163.380744 
L 139.748047 164.803838 
L 139.942779 167.283682 
L 140.137511 173.398757 
L 140.267332 190.320877 
L 140.462064 275.64997 
L 140.526974 269.943525 
L 140.786617 234.352191 
L 141.046259 193.293874 
L 141.305902 183.374499 
L 142.019918 151.897363 
L 142.149739 151.249222 
L 142.21465 151.263309 
L 142.344471 151.460572 
L 142.539203 152.320063 
L 143.512862 157.56156 
L 144.097057 159.787785 
L 144.486521 160.717728 
L 144.875984 161.379959 
L 145.395269 162.070371 
L 146.044375 163.183484 
L 146.304017 164.338867 
L 146.56366 167.241412 
L 146.758392 173.46921 
L 146.888213 190.17998 
L 147.082945 274.790484 
L 147.147855 269.23904 
L 147.407498 233.999927 
L 147.732051 190.320877 
L 148.056604 176.146313 
L 148.575888 152.150983 
L 148.77062 150.826518 
L 148.835531 150.812431 
L 149.030263 151.361941 
L 150.782849 159.928685 
L 151.237223 160.886808 
L 151.951239 161.943561 
L 152.470524 162.619882 
L 152.795077 163.676635 
L 153.054719 165.423799 
L 153.249451 168.692687 
L 153.379272 173.59602 
L 153.509094 191.011288 
L 153.703825 276.227671 
L 153.768736 270.352138 
L 154.028378 234.366278 
L 154.288021 192.842992 
L 154.547663 182.839076 
L 155.26168 151.460572 
L 155.456412 150.88288 
L 155.651143 151.418302 
L 156.300249 155.194433 
L 156.754623 157.491107 
L 157.598461 160.351387 
L 158.377388 161.63358 
L 159.286137 163.183484 
L 159.61069 164.832018 
L 159.805421 167.297773 
L 160.000153 173.610107 
L 160.129974 190.828121 
L 160.324706 275.43862 
L 160.389617 269.619435 
L 160.649259 233.732229 
L 160.908902 192.490741 
L 161.168544 182.486825 
L 161.882561 151.502842 
L 162.012382 150.939241 
L 162.142203 151.023781 
L 162.336935 151.812823 
L 163.700057 158.871933 
L 164.349163 160.633187 
L 165.06318 161.73221 
L 165.193001 161.816751 
L 165.647375 162.521252 
L 166.16666 164.296596 
L 166.361392 166.269202 
L 166.556123 170.792102 
L 166.685945 178.781147 
L 166.815766 216.514241 
L 166.945587 277.411204 
L 167.205229 247.371357 
L 167.594693 191.560802 
L 167.919246 176.991717 
L 168.438531 152.475056 
L 168.633263 151.1365 
L 168.698173 151.080143 
L 168.892905 151.686013 
L 169.801653 156.561168 
L 170.320938 158.843753 
L 170.710402 160.055496 
L 171.164776 161.013618 
L 171.554239 161.53495 
L 172.073524 162.211272 
L 172.72263 163.916165 
L 172.917362 165.423799 
L 173.112094 168.819496 
L 173.241915 173.835548 
L 173.371736 191.856691 
L 173.566468 277.425335 
L 173.631378 271.310234 
L 173.891021 234.633976 
L 174.150663 193.364323 
L 174.475216 179.88017 
L 175.124322 151.714192 
L 175.319054 151.150591 
L 175.513786 151.643743 
L 177.07164 159.252364 
L 177.526014 160.506377 
L 178.17512 161.53495 
L 178.694405 162.211272 
L 179.2786 163.549825 
L 179.473332 164.747478 
L 179.668064 167.340043 
L 179.862796 174.046898 
L 179.992617 192.533011 
L 180.187349 278.312995 
L 180.252259 271.972501 
L 180.511902 234.718498 
L 180.771544 194.435163 
L 181.031186 183.769015 
L 181.745203 151.967812 
L 181.939935 151.376032 
L 182.134667 151.812823 
L 183.497789 158.604222 
L 183.952163 160.111856 
L 184.341627 160.929078 
L 185.120554 161.957651 
L 185.250375 162.098551 
L 185.899481 163.535735 
L 186.094213 164.719298 
L 186.288945 167.382313 
L 186.483676 174.103259 
L 186.613498 191.363539 
L 186.808229 277.312594 
L 186.87314 270.958013 
L 187.132782 233.816751 
L 187.392425 192.800722 
L 187.652067 182.627726 
L 188.366084 151.404211 
L 188.495905 150.88288 
L 188.560816 150.896971 
L 188.690637 151.206952 
L 189.01519 152.827307 
L 189.988849 157.927898 
L 190.573044 160.069586 
L 190.637955 160.097766 
L 191.22215 161.253149 
L 191.481792 161.56313 
L 192.065988 162.464892 
L 192.130898 162.493072 
L 192.520362 163.535735 
L 192.780004 165.437889 
L 192.974736 168.974489 
L 193.104557 174.258248 
L 193.234378 192.941623 
L 193.42911 278.045253 
L 193.494021 271.507496 
L 193.753663 233.816751 
L 194.013306 193.927924 
L 194.272948 183.360407 
L 194.986965 151.855093 
L 195.181696 151.221039 
L 195.376428 151.798732 
L 195.765892 153.813607 
L 196.67464 158.364692 
L 197.388657 160.478197 
L 199.011422 163.028493 
L 199.271064 164.282507 
L 199.465796 166.325562 
L 199.660527 171.228893 
L 199.790349 180.021071 
L 199.92017 223.319696 
L 200.049991 279.01748 
L 200.309633 247.343139 
L 200.634186 194.181544 
L 200.893829 183.487217 
L 201.607845 151.855093 
L 201.802577 151.249222 
L 201.932398 151.460572 
L 202.451683 154.165859 
L 203.295521 158.378781 
L 204.139359 160.844538 
L 204.26918 160.957258 
L 205.437571 162.605792 
L 205.697213 163.324384 
L 205.956855 164.888378 
L 206.151587 167.495036 
L 206.346319 174.54005 
L 206.47614 194.632426 
L 206.670872 278.538432 
L 206.735782 271.916109 
L 206.995425 233.506792 
L 207.255067 193.336144 
L 207.51471 182.726358 
L 208.228726 151.488751 
L 208.423458 150.981511 
L 208.553279 151.277401 
L 209.007653 153.67271 
L 209.851491 157.970168 
L 210.500597 160.224576 
L 211.539167 161.873111 
L 211.733898 162.070371 
L 212.253183 163.098944 
L 212.512826 164.381137 
L 212.707557 166.424192 
L 212.902289 171.327524 
L 213.03211 180.697391 
L 213.161931 223.981919 
L 213.291753 278.143907 
L 213.616306 232.957265 
L 213.875948 192.885262 
L 214.13559 182.374107 
L 214.849607 151.319671 
L 215.044339 150.868788 
L 215.17416 151.150591 
L 217.056567 160.027316 
L 217.900405 161.43632 
L 218.809153 162.972133 
L 219.068796 163.972526 
L 219.263527 165.57879 
L 219.458259 169.185839 
L 219.58808 174.79367 
L 219.717902 195.125574 
L 219.912633 278.228429 
L 219.977544 271.465235 
L 220.237186 232.788176 
L 220.496829 193.307961 
L 220.756471 182.740445 
L 221.470488 151.474664 
L 221.66522 150.995598 
L 221.795041 151.277401 
L 222.119594 152.954117 
L 223.223074 158.618312 
L 223.87218 160.478197 
L 224.261643 161.168609 
L 225.040571 162.154911 
L 225.430034 162.943953 
L 225.689677 163.958436 
L 225.884408 165.59288 
L 226.07914 169.298557 
L 226.208961 175.061381 
L 226.338782 197.675868 
L 226.533514 279.01748 
L 226.598425 272.07111 
L 226.858067 232.407738 
L 227.11771 193.646121 
L 227.377352 183.008156 
L 228.091369 151.671922 
L 228.2861 151.164682 
L 228.415922 151.432394 
L 228.675564 152.742767 
L 229.779044 158.336511 
L 230.233418 159.900506 
L 231.012345 161.351779 
L 231.401809 161.816751 
L 232.050915 162.943953 
L 232.245647 163.662545 
L 232.505289 165.62106 
L 232.700021 169.354919 
L 232.829842 175.202283 
L 232.959663 197.971758 
L 233.154395 277.960731 
L 233.219306 271.098884 
L 233.478948 231.844167 
L 233.73859 193.491133 
L 233.998233 182.712266 
L 234.712249 151.531021 
L 234.842071 151.066051 
L 234.971892 151.206952 
L 235.101713 151.671922 
L 236.659567 159.308724 
L 237.308673 160.900898 
L 238.541975 162.648063 
L 238.801617 163.408925 
L 238.996349 164.395227 
L 239.19108 166.607362 
L 239.385812 171.862942 
L 239.515633 182.106395 
L 239.645455 230.209717 
L 239.775276 278.002992 
L 240.034918 244.933768 
L 240.359471 192.983893 
L 240.619114 182.247297 
L 241.33313 151.221039 
L 241.462951 150.79834 
L 241.527862 150.826518 
L 241.657683 151.164682 
L 241.982236 152.813215 
L 242.696253 156.885236 
L 243.54009 160.083676 
L 243.994465 160.971348 
L 245.357587 163.113034 
L 245.68214 165.043368 
L 245.876872 167.945914 
L 246.071604 175.498172 
L 246.201425 199.380762 
L 246.396157 278.679303 
L 246.72071 231.985038 
L 246.980352 193.660213 
L 247.239994 182.698175 
L 247.954011 151.573291 
L 248.083832 151.1365 
L 248.148743 151.164682 
L 248.278564 151.460572 
L 248.732938 153.827699 
L 249.382044 157.279757 
L 249.966239 159.576435 
L 250.420614 160.689547 
L 251.718826 162.521252 
L 252.043379 163.423014 
L 252.303021 165.071549 
L 252.497753 168.030454 
L 252.627574 172.074297 
L 252.757395 182.345924 
L 252.887216 232.266867 
L 252.952127 278.862478 
L 253.017037 278.369343 
L 253.34159 231.097378 
L 253.601233 193.209334 
L 253.860875 182.303654 
L 254.574892 151.418302 
L 254.769624 150.981511 
L 254.964355 151.559204 
L 256.652031 159.815965 
L 257.430958 161.323599 
L 257.560779 161.47859 
L 257.885332 161.887201 
L 258.404617 162.690333 
L 258.794081 164.197966 
L 259.053723 166.790533 
L 259.248455 172.144745 
L 259.378276 182.641813 
L 259.508097 232.957265 
L 259.573008 278.496171 
L 259.637918 278.200255 
L 259.962471 231.336902 
L 260.222114 193.392501 
L 260.546667 179.091128 
L 261.130862 151.967812 
L 261.325594 150.896971 
L 261.455415 151.05196 
L 261.650147 151.841002 
L 262.818537 158.096982 
L 263.337822 159.956866 
L 263.922018 161.084068 
L 265.155319 163.084854 
L 265.414961 164.141606 
L 265.674604 166.846893 
L 265.869335 172.313825 
L 265.999157 183.529487 
L 266.128978 236.042989 
L 266.193888 281.638244 
L 266.258799 279.214743 
L 266.583352 231.055116 
L 266.842994 193.575673 
L 267.102637 182.416376 
L 267.816653 151.531021 
L 267.946475 151.108321 
L 268.076296 151.263309 
L 268.271028 152.038265 
L 269.374508 157.85745 
L 269.828882 159.590525 
L 270.283256 160.647277 
L 270.932362 161.67585 
L 271.646379 162.774873 
L 271.906021 163.578005 
L 272.165663 165.212449 
L 272.360395 168.199534 
L 272.555127 176.244945 
L 272.684948 202.691915 
L 272.814769 280.11649 
L 272.87968 278.312995 
L 273.139322 244.017934 
L 273.463875 192.05395 
L 273.723518 181.176452 
L 274.437534 150.981511 
L 274.567355 150.657439 
L 274.632266 150.685621 
L 274.826998 151.432394 
L 276.384852 159.336904 
L 277.098869 161.041798 
L 277.423422 161.520859 
L 278.397081 163.127124 
L 278.656723 164.183876 
L 278.851455 165.959221 
L 279.046186 170.017151 
L 279.176008 176.639466 
L 279.305829 205.08722 
L 279.43565 282.694993 
L 279.500561 278.975219 
L 279.825114 230.096977 
L 280.084756 193.660213 
L 280.409309 179.217938 
L 280.993504 152.038265 
L 281.188236 151.09423 
L 281.253147 151.108321 
L 281.447879 151.728283 
L 283.070643 159.632795 
L 283.914481 161.422229 
L 284.953051 162.943953 
L 285.277604 164.268417 
L 285.472336 166.015581 
L 285.667067 170.12987 
L 285.796888 176.681736 
L 285.92671 204.777239 
L 286.056531 283.202215 
L 286.121441 279.90514 
L 286.445994 231.139639 
L 286.705637 194.392893 
L 287.03019 179.485649 
L 287.614385 152.249614 
L 287.809117 151.235131 
L 287.938938 151.432394 
L 288.13367 152.263706 
L 289.756435 159.801875 
L 290.27572 161.013618 
L 291.703753 163.366654 
L 291.963395 164.747478 
L 292.158127 167.128694 
L 292.352859 172.891517 
L 292.48268 185.361191 
L 292.612501 244.440633 
L 292.677412 283.610827 
L 292.742322 279.736096 
L 293.001965 244.032021 
L 293.326518 193.448863 
L 293.651071 178.738877 
L 294.235266 151.869185 
L 294.429998 150.981511 
L 294.559819 151.1365 
L 294.884372 152.728675 
L 295.72821 157.43475 
L 296.701869 160.619098 
L 297.221153 161.49268 
L 298.194812 162.929863 
L 298.519365 164.338867 
L 298.714097 166.156481 
L 298.908829 170.425759 
L 299.03865 177.090344 
L 299.168471 205.735357 
L 299.298292 283.145867 
L 299.363203 279.285178 
L 299.687756 230.336501 
L 299.947398 193.477041 
L 300.207041 181.740053 
L 300.921057 151.1365 
L 301.050879 150.812431 
L 301.1807 151.00969 
L 301.505253 152.630044 
L 302.478912 157.94199 
L 303.192928 160.337297 
L 303.647302 161.239059 
L 303.971855 161.66176 
L 304.945514 163.451195 
L 305.140246 164.395227 
L 305.399889 167.283682 
L 305.59462 173.145137 
L 305.724441 185.671172 
L 305.919173 283.145867 
L 306.048994 270.986187 
L 306.243726 242.313005 
L 306.503369 201.776063 
L 306.957743 180.119703 
L 307.347206 159.491894 
L 307.606849 155.800304 
L 307.801581 155.278973 
L 307.931402 155.405783 
L 308.191044 156.194825 
L 309.294524 159.872325 
L 309.87872 161.168609 
L 310.138362 161.520859 
L 311.04711 162.535342 
L 311.306753 162.859413 
L 311.631306 163.718905 
L 311.955859 165.987401 
L 312.150591 169.735348 
L 312.280412 175.794062 
L 312.410233 201.494265 
L 312.540054 263.856642 
L 312.604965 260.362305 
L 312.864607 229.09662 
L 313.18916 188.024203 
L 313.513713 175.30091 
L 314.097908 152.221436 
L 314.29264 151.516934 
L 314.552283 152.291884 
L 314.941746 154.546293 
L 315.461031 157.2234 
L 316.175047 159.900506 
L 316.694332 161.027708 
L 316.953975 161.45041 
L 317.213617 161.830841 
L 317.732902 162.394442 
L 318.122365 163.197574 
L 318.446918 164.733388 
L 318.706561 168.143177 
L 318.836382 172.243376 
L 318.966203 183.684475 
L 319.160935 264.758389 
L 319.290756 254.416336 
L 319.485488 228.969792 
L 319.810041 188.136926 
L 320.134594 175.469994 
L 320.718789 152.066443 
L 320.913521 151.460572 
L 321.043342 151.714192 
L 321.367895 153.419086 
L 322.211733 157.73064 
L 322.731018 159.717335 
L 323.380124 161.140428 
L 324.613425 162.887593 
L 324.808157 163.563915 
L 325.002889 164.338867 
L 325.19762 166.057851 
L 325.392352 169.83398 
L 325.522173 176.174492 
L 325.651994 203.664128 
L 325.781816 264.589301 
L 325.846726 260.615959 
L 326.106369 228.744356 
L 326.430922 187.953755 
L 326.755475 175.160013 
L 327.33967 151.939633 
L 327.469491 151.390124 
L 327.599312 151.418302 
L 327.923865 152.925938 
L 329.027345 158.576042 
L 329.54663 160.168216 
L 329.936094 160.985438 
L 330.520289 161.90129 
L 331.299216 163.042584 
L 331.68868 164.789748 
L 331.883412 167.100515 
L 332.078144 172.539266 
L 332.207965 184.445339 
L 332.402696 264.857043 
L 332.467607 260.54548 
L 332.727249 228.265308 
L 333.051802 187.869215 
L 333.376355 175.103651 
L 333.960551 151.897363 
L 334.155283 151.333762 
L 334.220193 151.404211 
L 334.544746 152.925938 
L 335.518405 158.125161 
L 336.621885 161.168609 
L 337.335902 162.070371 
L 337.725365 162.633972 
L 338.17974 163.986616 
L 338.374471 165.339259 
L 338.569203 168.340435 
L 338.699024 172.666076 
L 338.828846 185.318921 
L 339.023577 266.040575 
L 339.088488 261.559968 
L 339.34813 228.955705 
L 339.672683 188.489177 
L 339.997236 175.512264 
L 340.516521 152.813215 
L 340.711253 151.545112 
L 340.776163 151.531021 
L 340.970895 152.052352 
L 341.360359 154.194041 
L 342.009465 157.60383 
L 342.918213 160.562737 
L 343.762051 161.85902 
L 343.891872 161.971741 
L 344.216425 162.507162 
L 344.411157 162.774873 
L 344.670799 163.493465 
L 344.930442 164.789748 
L 345.125173 167.086424 
L 345.319905 172.863334 
L 345.449726 186.136142 
L 345.644458 266.280143 
L 345.709369 261.376792 
L 345.969011 228.307569 
L 346.228653 189.926356 
L 346.553206 178.006196 
L 346.812849 163.352564 
L 347.072491 153.869969 
L 347.267223 151.643743 
L 347.332134 151.488751 
L 347.397044 151.531021 
L 347.526865 151.756462 
L 348.435614 156.617525 
L 348.954898 158.801483 
L 349.539094 160.562737 
L 349.798736 161.069979 
L 350.123289 161.59131 
L 350.318021 161.77448 
L 351.161859 163.028493 
L 351.551322 164.775658 
L 351.746054 167.128694 
L 351.940786 172.919696 
L 352.070607 186.41794 
L 352.265339 267.548242 
L 352.330249 262.588543 
L 352.589892 229.293839 
L 352.849534 190.64495 
L 353.174087 178.316177 
L 353.888104 151.74237 
L 354.017925 151.559204 
L 354.212657 152.108713 
L 354.667031 154.504023 
L 355.316137 157.843358 
L 356.224885 160.703637 
L 357.912561 163.451195 
L 358.172203 164.832018 
L 358.366935 167.156872 
L 358.561667 172.990149 
L 358.691488 187.206982 
L 358.88622 267.731374 
L 358.95113 262.532195 
L 359.210773 228.744356 
L 359.470415 190.51814 
L 359.730057 181.289175 
L 360.444074 152.235523 
L 360.638806 151.615561 
L 360.833538 152.080535 
L 361.677375 156.645708 
L 362.261571 159.069193 
L 363.105408 161.140428 
L 364.533442 163.465285 
L 364.728173 164.395227 
L 364.987816 167.156872 
L 365.182548 173.131046 
L 365.312369 187.474694 
L 365.5071 266.702843 
L 365.572011 261.376792 
L 365.831653 227.532605 
L 366.091296 189.729097 
L 366.350938 180.528311 
L 367.064955 151.855093 
L 367.194776 151.291492 
L 367.259687 151.319671 
L 367.389508 151.559204 
L 367.714061 153.221828 
L 368.363167 156.871149 
L 369.271915 160.210486 
L 369.985932 161.520859 
L 370.440306 162.140821 
L 370.829769 162.591702 
L 371.154322 163.437104 
L 371.413965 164.846108 
L 371.608697 167.170963 
L 371.803428 173.257856 
L 371.93325 188.785067 
L 372.127981 267.717287 
L 372.192892 262.334932 
L 372.452534 228.124393 
L 372.517445 215.232011 
L 372.517445 215.232011 
" clip-path="url(#pf5d9eca34a)" style="fill: none; stroke: #333333; stroke-width: 0.8; stroke-linecap: square"/>
   </g>
   <g id="line2d_18">
    <path d="M 372.582355 162.746693 
L 372.712177 162.915773 
L 373.03673 163.676635 
L 373.231461 165.057458 
L 373.426193 168.861766 
L 373.556014 177.358055 
L 373.685836 222.868822 
L 373.750746 221.995249 
L 374.010389 195.576457 
L 374.270031 175.455902 
L 374.334942 175.639074 
L 374.529673 171.877034 
L 375.24369 156.673886 
L 375.438422 156.349814 
L 375.633153 156.758426 
L 376.087528 158.195609 
L 376.541902 159.449624 
L 377.126097 160.788178 
L 377.515561 161.323599 
L 377.969935 161.816751 
L 378.619041 162.239451 
L 379.138326 162.662153 
L 379.5927 163.535735 
L 379.787432 164.733388 
L 379.982163 167.931827 
L 380.111985 173.990541 
L 380.176895 183.89583 
L 380.306716 223.826918 
L 380.501448 209.581914 
L 380.826001 175.751792 
L 380.890912 175.822241 
L 380.955822 175.441811 
L 381.929481 156.476628 
L 382.124213 156.645708 
L 382.513677 157.744731 
L 383.292604 159.956866 
L 384.136442 161.422229 
L 384.460995 161.7463 
L 384.785548 161.999921 
L 385.629385 162.633972 
L 386.213581 163.704815 
L 386.408312 165.141999 
L 386.603044 169.115386 
L 386.732865 177.794846 
L 386.862687 223.178781 
L 386.927597 222.107945 
L 387.18724 195.210114 
L 387.446882 175.512264 
L 387.511793 175.610891 
L 387.836346 169.044938 
L 388.420541 156.758426 
L 388.550362 156.434358 
L 388.615273 156.462537 
L 388.939826 157.237487 
L 390.043306 160.295027 
L 390.692412 161.337689 
L 391.146786 161.873111 
L 391.730981 162.225361 
L 392.574819 163.084854 
L 392.834461 163.887986 
L 393.029193 165.62106 
L 393.223925 170.439851 
L 393.353746 184.54397 
L 393.483567 223.291522 
L 393.678299 208.792907 
L 394.002852 175.427719 
L 394.067763 175.582712 
L 394.132673 175.202283 
L 395.041422 156.518898 
L 395.171243 156.392084 
L 395.430885 156.899328 
L 396.274723 159.449624 
L 396.729097 160.548647 
L 397.767667 161.929471 
L 398.286952 162.239451 
L 398.871147 162.718513 
L 399.26061 163.310294 
L 399.520253 164.592487 
L 399.714985 167.410496 
L 399.844806 172.384273 
L 399.909716 178.68252 
L 400.039538 223.784657 
L 400.104448 221.981162 
L 400.364091 194.716966 
L 400.558822 176.160405 
L 400.753554 174.62459 
L 401.597392 156.758426 
L 401.727213 156.504807 
L 401.857034 156.589347 
L 402.246498 157.660191 
L 403.155246 160.266846 
L 403.54471 160.943168 
L 403.999084 161.56313 
L 405.75167 163.169394 
L 406.011312 163.958436 
L 406.206044 165.79014 
L 406.335865 168.368618 
L 406.465687 175.019111 
L 406.660418 223.953745 
L 406.725329 219.76901 
L 406.984971 189.982717 
L 407.179703 175.681344 
L 407.244614 175.878602 
L 407.309524 175.357271 
L 408.218273 156.716156 
L 408.348094 156.603438 
L 408.607736 157.040229 
L 410.035769 160.816358 
L 411.009428 161.985831 
L 411.13925 162.084461 
L 411.269071 162.183091 
L 411.463803 162.295812 
L 411.593624 162.366262 
L 412.30764 163.113034 
L 412.567283 163.887986 
L 412.762014 165.423799 
L 412.956746 169.49582 
L 413.086567 179.401109 
L 413.216389 225.052755 
L 413.281299 222.967432 
L 413.540942 195.012856 
L 413.735673 176.695823 
L 413.930405 175.075473 
L 414.774243 157.026138 
L 414.968975 156.772518 
L 415.098796 156.941598 
L 416.332097 160.351387 
L 416.786471 161.112249 
L 417.175935 161.64767 
L 417.69522 162.056281 
L 418.344326 162.521252 
L 418.539058 162.577612 
L 419.058342 163.634365 
L 419.317985 165.113818 
L 419.512716 168.565877 
L 419.642538 175.512264 
L 419.837269 224.348271 
L 419.90218 219.924012 
L 420.161822 190.26452 
L 420.356554 176.202675 
L 420.421465 176.385841 
L 420.486375 175.822241 
L 421.330213 157.012046 
L 421.524945 156.617525 
L 421.719677 156.941598 
L 421.979319 157.632009 
L 422.433693 159.111463 
L 423.14771 160.675458 
L 423.796816 161.70403 
L 424.381011 162.197181 
L 424.705564 162.563522 
L 424.770475 162.450802 
L 424.835385 162.507162 
L 425.095028 162.676243 
L 425.289759 162.859413 
L 425.484491 163.225754 
L 425.809044 164.367047 
L 426.003776 166.410102 
L 426.133597 169.6649 
L 426.263418 180.190151 
L 426.39324 224.615969 
L 426.45815 222.079771 
L 426.717793 194.012464 
L 426.912524 176.188583 
L 427.042346 175.836332 
L 427.431809 167.142785 
L 427.756362 158.547862 
L 428.016005 156.673886 
L 428.145826 156.659795 
L 428.405468 157.181126 
L 429.444038 160.210486 
L 429.573859 160.379567 
L 430.028233 161.267239 
L 430.287875 161.59131 
L 430.677339 161.929471 
L 431.001892 162.253542 
L 431.131713 162.408532 
L 431.261534 162.394442 
L 431.521177 162.521252 
L 431.650998 162.577612 
L 432.040461 163.127124 
L 432.429925 164.578397 
L 432.624657 167.015973 
L 432.754478 171.130262 
L 432.819389 175.667252 
L 433.01412 223.263348 
L 433.079031 218.88135 
L 433.338673 188.827337 
L 433.533405 175.329092 
L 433.598316 175.568621 
L 433.728137 173.426935 
L 434.117601 163.042584 
L 434.377243 157.94199 
L 434.636885 156.476628 
L 434.701796 156.462537 
L 435.285991 158.082891 
L 435.610544 159.083283 
L 436.25965 160.590917 
L 436.843846 161.56313 
L 437.038577 161.68994 
L 437.557862 162.197181 
L 437.817505 162.380352 
L 438.012236 162.464892 
L 438.4017 162.746693 
L 438.920985 164.000706 
L 439.115716 165.52243 
L 439.310448 169.79171 
L 439.440269 180.99328 
L 439.570091 225.362759 
L 439.635001 222.488384 
L 439.894644 193.970194 
L 440.089375 176.597196 
L 440.219197 176.202675 
L 440.673571 164.606577 
L 440.933213 158.702852 
L 441.192856 156.800696 
L 441.387587 156.828879 
L 441.64723 157.448837 
L 443.010352 160.971348 
L 443.399816 161.520859 
L 444.633117 162.493072 
L 444.762938 162.521252 
L 445.282223 163.310294 
L 445.541865 164.197966 
L 445.736597 166.001491 
L 445.931329 171.397973 
L 445.99624 176.512656 
L 446.190971 223.55922 
L 446.255882 218.951785 
L 446.515524 188.376454 
L 446.710256 175.526351 
L 446.775167 175.779971 
L 446.969899 172.144745 
L 447.748826 156.589347 
L 447.943558 156.589347 
L 448.073379 156.814788 
L 449.047038 159.815965 
L 449.890875 161.408139 
L 451.318909 162.521252 
L 451.51364 162.718513 
L 451.643462 162.873503 
L 452.162746 164.395227 
L 452.357478 166.536912 
L 452.487299 170.00306 
L 452.61712 182.247297 
L 452.746942 225.235931 
L 452.811852 222.206598 
L 453.071495 193.195243 
L 453.266226 176.244945 
L 453.396048 175.878602 
L 453.850422 164.507947 
L 454.110064 158.547862 
L 454.369707 156.758426 
L 454.499528 156.687978 
L 454.75917 157.237487 
L 455.538097 159.576435 
L 456.317024 161.154519 
L 456.836309 161.7463 
L 457.355594 162.295812 
L 457.615236 162.352172 
L 458.329253 163.084854 
L 458.653806 163.845716 
L 458.848538 165.212449 
L 459.043269 168.932219 
L 459.173091 176.864902 
L 459.367822 223.009693 
L 459.432733 218.261387 
L 459.692375 187.671952 
L 459.887107 175.230461 
L 459.952018 175.512264 
L 460.14675 171.862942 
L 460.860766 156.758426 
L 461.055498 156.462537 
L 461.185319 156.617525 
L 461.444962 157.448837 
L 461.964246 158.956473 
L 462.743173 160.858628 
L 463.132637 161.408139 
L 463.45719 161.76039 
L 464.106296 162.323992 
L 464.49576 162.521252 
L 464.690491 162.718513 
L 464.885223 163.014403 
L 465.144865 163.521645 
L 465.339597 164.338867 
L 465.534329 166.593272 
L 465.66415 170.143961 
L 465.793971 182.824985 
L 465.923793 225.940416 
L 465.988703 222.502471 
L 466.248346 193.336144 
L 466.443077 176.583104 
L 466.572899 176.259032 
L 467.027273 164.451587 
L 467.286915 158.660582 
L 467.546558 156.842966 
L 467.676379 156.814788 
L 467.8062 156.997959 
L 469.558786 161.253149 
L 470.597356 162.225361 
L 470.986819 162.507162 
L 471.376283 162.887593 
L 471.700836 163.394834 
L 471.895567 164.141606 
L 472.090299 166.086031 
L 472.22012 169.073116 
L 472.349942 177.259424 
L 472.479763 223.939658 
L 472.544673 223.319696 
L 472.804316 196.760016 
L 473.063958 175.582712 
L 473.128869 175.779971 
L 473.323601 171.989752 
L 474.037617 156.800696 
L 474.167438 156.504807 
L 474.29726 156.575255 
L 474.491991 157.040229 
L 475.790203 160.647277 
L 476.958594 162.056281 
L 477.088415 162.126731 
L 478.256806 163.282114 
L 478.451538 163.958436 
L 478.646269 165.64924 
L 478.841001 170.313041 
L 478.905912 174.032811 
L 479.100644 224.954146 
L 479.230465 215.950627 
L 479.425197 191.701699 
L 479.619928 175.892693 
L 479.684839 175.934963 
L 479.74975 175.596804 
L 480.658498 156.772518 
L 480.788319 156.659795 
L 480.91814 156.744335 
L 481.372515 158.054713 
L 481.95671 159.717335 
L 482.411084 160.675458 
L 483.384743 161.971741 
L 483.839117 162.267632 
L 484.033849 162.394442 
L 484.812776 163.197574 
L 484.942597 163.507555 
L 485.137329 164.648848 
L 485.332061 167.382313 
L 485.461882 172.144745 
L 485.526793 178.696607 
L 485.656614 224.44688 
L 485.721524 223.376044 
L 485.981167 195.773715 
L 486.240809 175.709522 
L 486.30572 175.86451 
L 486.630273 169.256287 
L 487.214468 156.814788 
L 487.344289 156.532985 
L 487.4092 156.561168 
L 487.603932 156.857058 
L 488.188127 158.660582 
L 488.772322 160.266846 
L 489.745981 161.7463 
L 490.200356 162.098551 
L 490.330177 162.140821 
L 490.524909 162.338082 
L 490.71964 162.464892 
L 491.368746 163.141214 
L 491.628389 163.930256 
L 491.82312 165.71969 
L 492.017852 170.510299 
L 492.082763 174.483689 
L 492.277495 225.531847 
L 492.407316 216.07741 
L 492.602048 191.913053 
L 492.796779 176.301302 
L 492.86169 176.301302 
L 492.926601 175.90678 
L 493.835349 156.857058 
L 493.96517 156.673886 
L 494.094991 156.772518 
L 494.484455 157.843358 
L 495.393203 160.323206 
L 496.301952 161.71812 
L 496.951058 162.267632 
L 497.405432 162.521252 
L 497.535253 162.605792 
L 497.794895 162.873503 
L 498.119448 163.563915 
L 498.31418 164.648848 
L 498.508912 167.466853 
L 498.638733 172.356095 
L 498.703644 180.021071 
L 498.833465 225.137322 
L 498.898375 223.432436 
L 499.158018 195.618727 
L 499.35275 176.639466 
L 499.612392 173.426935 
L 499.936945 165.001098 
L 500.196587 158.632402 
L 500.45623 156.631617 
L 500.650962 156.659795 
L 500.910604 157.26567 
L 501.884263 160.111856 
L 502.922832 161.70403 
L 503.182475 161.90129 
L 503.70176 162.323992 
L 503.961402 162.493072 
L 504.415776 162.915773 
L 504.675419 163.423014 
L 504.87015 164.381137 
L 505.064882 166.734172 
L 505.194703 170.566661 
L 505.259614 175.08956 
L 505.454346 225.743197 
L 505.519256 221.642984 
L 505.778899 191.603072 
L 505.97363 176.456294 
L 506.038541 176.512656 
L 506.103452 175.963142 
L 506.947289 157.152947 
L 507.142021 156.673886 
L 507.271842 156.772518 
L 507.401664 157.082499 
L 509.15425 161.337689 
L 509.608624 161.77448 
L 510.906836 162.732603 
L 511.36121 163.803445 
L 511.555942 165.282899 
L 511.750673 169.383097 
L 511.880495 180.641034 
L 512.010316 225.052755 
L 512.075226 223.080172 
L 512.334869 195.041034 
L 512.529601 176.512656 
L 512.724332 174.821849 
L 513.56817 156.702065 
L 513.697991 156.476628 
L 513.892723 156.631617 
L 514.412008 158.280149 
L 515.061114 160.027316 
L 515.450577 160.816358 
L 515.77513 161.365869 
L 517.073342 162.366262 
L 517.268074 162.464892 
L 517.527717 162.760783 
L 517.982091 163.958436 
L 518.176823 165.69151 
L 518.371554 170.693471 
L 518.501375 188.869607 
L 518.631197 225.855894 
L 518.825928 210.441444 
L 519.150481 176.399933 
L 519.215392 176.498564 
L 519.345213 174.356879 
L 520.189051 156.814788 
L 520.318872 156.631617 
L 520.513604 156.828879 
L 522.071458 160.914988 
L 522.396011 161.422229 
L 522.720564 161.67585 
L 523.629313 162.338082 
L 523.824044 162.436712 
L 523.953866 162.521252 
L 524.538061 163.761175 
L 524.732793 165.268809 
L 524.927525 169.41128 
L 525.057346 179.485649 
L 525.187167 224.742796 
L 525.252077 222.601124 
L 525.51172 194.364715 
L 525.706452 176.160405 
L 525.901183 174.469602 
L 526.745021 156.518898 
L 526.874842 156.293457 
L 527.069574 156.532985 
L 527.588859 158.195609 
L 528.108144 159.618705 
L 528.887071 161.239059 
L 529.211624 161.54904 
L 530.120372 162.225361 
L 530.380015 162.366262 
L 530.899299 163.042584 
L 531.094031 163.578005 
L 531.288763 164.860198 
L 531.483495 168.354527 
L 531.613316 175.230461 
L 531.808048 224.785057 
L 531.872958 220.40306 
L 532.132601 189.729097 
L 532.327332 175.709522 
L 532.392243 175.878602 
L 532.522064 173.751008 
L 532.911528 163.225754 
L 533.17117 157.970168 
L 533.430813 156.420267 
L 533.625544 156.547077 
L 535.572862 161.337689 
L 536.351789 162.028101 
L 536.935985 162.366262 
L 537.650001 163.451195 
L 537.844733 164.550217 
L 538.039465 167.565485 
L 538.169286 172.835156 
L 538.234197 180.17606 
L 538.364018 225.827719 
L 538.428928 223.192868 
L 538.688571 194.392893 
L 538.883303 176.371754 
L 539.013124 176.019503 
L 539.402587 167.227325 
L 539.72714 158.392871 
L 539.986783 156.504807 
L 540.116604 156.476628 
L 540.311336 156.772518 
L 540.960442 158.787392 
L 541.155174 159.280544 
L 541.804279 160.816358 
L 542.258654 161.43632 
L 542.388475 161.53495 
L 542.842849 161.985831 
L 544.07615 162.873503 
L 544.465614 164.874288 
L 544.660346 168.424975 
L 544.790167 175.737701 
L 544.984899 225.588195 
L 545.049809 221.008935 
L 545.309452 189.898177 
L 545.504183 176.132222 
L 545.569094 176.315393 
L 545.698915 174.103259 
L 546.542753 156.687978 
L 546.672574 156.589347 
L 546.932217 157.012046 
L 548.100607 160.252756 
L 548.619892 161.154519 
L 549.46373 161.957651 
L 549.658462 161.999921 
L 550.307568 162.605792 
L 550.437389 162.690333 
L 550.761942 163.113034 
L 550.891763 163.662545 
L 551.086495 165.268809 
L 551.281227 169.693079 
L 551.411048 181.430072 
L 551.540869 226.067243 
L 551.605779 223.080172 
L 551.865422 193.787023 
L 552.060154 176.329484 
L 552.189975 175.920872 
L 552.579438 167.128694 
L 552.839081 159.336904 
L 553.098723 156.758426 
L 553.228544 156.518898 
L 553.423276 156.673886 
L 554.721488 160.309116 
L 554.91622 160.647277 
L 555.110952 160.985438 
L 555.435505 161.394049 
L 555.695147 161.71812 
L 555.889879 161.85902 
L 556.149521 161.985831 
L 556.279342 162.056281 
L 556.538985 162.253542 
L 557.05827 162.704423 
L 557.188091 162.803053 
L 557.382823 163.225754 
L 557.577554 164.338867 
L 557.772286 166.917343 
L 557.902107 171.186623 
L 557.967018 176.146313 
L 558.16175 225.095017 
L 558.22666 220.346711 
L 558.486303 189.306398 
L 558.681034 176.075865 
L 558.745945 176.301302 
L 558.875766 173.877818 
L 559.26523 163.000313 
L 559.524872 157.913811 
L 559.719604 156.547077 
L 559.849425 156.434358 
L 560.044157 156.730248 
L 561.017816 159.548254 
L 561.277458 160.154126 
L 562.316028 161.78857 
L 562.380938 161.73221 
L 562.57567 161.971741 
L 562.705491 161.985831 
L 563.159866 162.295812 
L 563.419508 162.464892 
L 563.873882 162.986223 
L 564.068614 163.648455 
L 564.263346 165.367439 
L 564.458078 169.87625 
L 564.587899 182.247297 
L 564.71772 225.658631 
L 564.782631 222.417948 
L 565.042273 192.8289 
L 565.237005 175.963142 
L 565.366826 175.709522 
L 565.8212 164.155696 
L 566.080842 158.195609 
L 566.340485 156.504807 
L 566.535217 156.504807 
L 566.92468 157.491107 
L 567.314144 158.702852 
L 567.508876 159.210094 
L 567.898339 160.182306 
L 568.02816 160.407747 
L 568.417624 161.182699 
L 569.06673 161.78857 
L 569.13164 161.76039 
L 569.391283 162.014011 
L 570.300031 162.704423 
L 570.559674 163.282114 
L 570.754405 164.352957 
L 570.949137 167.015973 
L 571.078958 171.468421 
L 571.143869 176.724006 
L 571.338601 224.644143 
L 571.403511 219.698575 
L 571.598243 197.534971 
L 571.857885 175.794062 
L 571.922796 176.005412 
L 572.117528 172.116567 
L 572.896455 156.547077 
L 573.026276 156.406175 
L 573.350829 157.082499 
L 573.805203 158.435142 
L 574.713952 160.689547 
L 575.363058 161.6054 
L 575.687611 161.816751 
L 576.077074 162.098551 
L 577.050733 163.056674 
L 577.245465 163.704815 
L 577.440197 165.40971 
L 577.634929 170.031238 
L 577.76475 182.669996 
L 577.894571 225.714979 
L 577.959482 222.206598 
L 578.219124 192.406201 
L 578.413856 175.963142 
L 578.478766 175.920872 
L 578.543677 175.653161 
L 578.998051 163.958436 
L 579.257693 158.209701 
L 579.517336 156.490715 
L 579.647157 156.462537 
L 579.841889 156.814788 
L 581.659385 161.323599 
L 582.17867 161.7463 
L 582.243581 161.73221 
L 582.438313 161.915381 
L 583.411972 162.648063 
L 583.736525 163.338474 
L 583.866346 163.930256 
L 584.061078 165.91695 
L 584.190899 168.861766 
L 584.32072 176.864902 
L 584.450541 224.742796 
L 584.580362 219.416746 
L 584.840005 188.235553 
L 585.034736 175.850423 
L 585.099647 176.033595 
L 585.294379 171.989752 
L 586.008395 156.603438 
L 586.138217 156.392084 
L 586.332948 156.547077 
L 586.852233 158.054713 
L 587.436429 159.689155 
L 588.150445 161.140428 
L 588.604819 161.66176 
L 589.967942 162.676243 
L 590.162674 162.986223 
L 590.422316 163.803445 
L 590.617048 165.494249 
L 590.81178 170.200322 
L 590.941601 184.121266 
L 591.071422 225.968634 
L 591.266154 211.300931 
L 591.590707 176.118135 
L 591.655617 176.202675 
L 591.720528 175.836332 
L 592.629276 156.603438 
L 592.759097 156.406175 
L 592.953829 156.532985 
L 594.057309 159.759605 
L 594.706415 161.140428 
L 595.160789 161.66176 
L 595.874806 162.197181 
L 596.004627 162.211272 
L 596.718644 162.887593 
L 597.043197 163.972526 
L 597.237929 165.97331 
L 597.36775 169.030846 
L 597.497571 177.978017 
L 597.627392 225.602282 
L 597.692303 224.517359 
L 597.951945 196.745929 
L 598.211587 176.005412 
L 598.276498 176.188583 
L 598.53614 170.482121 
L 598.730872 165.170179 
L 598.990515 158.590132 
L 599.250157 156.518898 
L 599.444889 156.504807 
L 599.639621 156.899328 
L 601.197475 160.985438 
L 601.71676 161.59131 
L 602.755329 162.380352 
L 603.014972 162.535342 
L 603.209703 162.760783 
L 603.469346 163.352564 
L 603.664078 164.240236 
L 603.858809 166.607362 
L 603.988631 170.383489 
L 604.118452 184.910309 
L 604.248273 225.686805 
L 604.443005 210.807752 
L 604.767558 175.751792 
L 604.832468 175.850423 
L 604.897379 175.427719 
L 605.741217 156.899328 
L 605.935948 156.377997 
L 606.06577 156.476628 
L 606.390323 157.378389 
L 606.844697 158.815573 
L 607.104339 159.463714 
L 607.428892 160.266846 
L 608.013088 161.309509 
L 608.792015 162.056281 
L 608.986746 162.112641 
L 609.181478 162.225361 
L 609.311299 162.281722 
L 610.025316 163.225754 
L 610.284958 164.522037 
L 610.47969 167.340043 
L 610.609511 172.271555 
L 610.674422 178.612067 
L 610.804243 226.137679 
L 610.869154 224.475054 
L 611.128796 196.280959 
L 611.323528 176.738093 
L 611.58317 173.426935 
L 612.427008 156.561168 
L 612.556829 156.490715 
L 612.751561 156.800696 
L 613.984862 160.224576 
L 614.633968 161.379959 
L 615.477806 162.140821 
L 616.126912 162.478982 
L 616.776018 163.859805 
L 616.97075 165.60697 
L 617.165482 170.637114 
L 617.230392 174.892301 
L 617.295303 186.713834 
L 617.425124 226.334941 
L 617.619856 211.061363 
L 617.944409 176.174492 
L 618.009319 176.315393 
L 618.07423 175.779971 
L 618.918068 157.012046 
L 619.112799 156.518898 
L 619.242621 156.631617 
L 619.761905 158.125161 
L 620.605743 160.337297 
L 621.060117 161.168609 
L 621.579402 161.80266 
L 621.709223 161.830841 
L 621.903955 161.999921 
L 622.942525 162.774873 
L 623.267078 163.465285 
L 623.461809 164.493857 
L 623.656541 167.466853 
L 623.786362 172.623806 
L 623.851273 178.978409 
L 623.981094 226.208158 
L 624.046005 224.010094 
L 624.305647 195.534187 
L 624.500379 176.484473 
L 624.695111 174.87821 
L 625.538948 156.730248 
L 625.66877 156.448445 
L 625.798591 156.561168 
L 627.680998 161.196789 
L 628.070462 161.67585 
L 628.654657 162.169001 
L 628.784478 162.197181 
L 629.173942 162.464892 
L 629.887958 163.563915 
L 630.08269 164.902468 
L 630.277422 168.396797 
L 630.407243 175.371362 
L 630.601975 226.729467 
L 630.666886 222.234773 
L 630.926528 191.039471 
L 631.12126 176.399933 
L 631.18617 176.540834 
L 631.315991 174.356879 
L 632.159829 156.828879 
L 632.22474 156.673886 
L 632.28965 156.702065 
L 632.419472 156.814788 
L 633.068578 158.604222 
L 633.587862 160.055496 
L 634.626432 161.67585 
L 635.015895 161.985831 
L 635.275538 162.140821 
L 635.859733 162.619882 
L 636.184286 162.943953 
L 636.508839 163.775265 
L 636.63866 164.648848 
L 636.833392 167.635933 
L 636.963213 172.905604 
L 637.028124 180.401501 
L 637.157945 226.334941 
L 637.222856 223.812831 
L 637.482498 195.125574 
L 637.67723 176.484473 
L 637.871962 174.83594 
L 638.650889 157.096586 
L 638.845621 156.518898 
L 638.975442 156.645708 
L 639.235084 157.26567 
L 640.208743 160.111856 
L 641.182402 161.63358 
L 642.934988 163.253934 
L 643.12972 163.986616 
L 643.324452 165.87468 
L 643.454273 168.608147 
L 643.584094 175.737701 
L 643.778826 226.08133 
L 643.843737 221.516157 
L 644.103379 190.489957 
L 644.298111 176.259032 
L 644.363021 176.399933 
L 644.492843 174.131438 
L 645.33668 156.786605 
L 645.531412 156.687978 
L 645.791054 157.293849 
L 646.634892 159.689155 
L 647.089266 160.675458 
L 647.933104 161.816751 
L 648.192746 161.999921 
L 648.517299 162.253542 
L 648.971674 162.549432 
L 649.490958 163.211664 
L 649.750601 164.268417 
L 649.945333 166.494642 
L 650.075154 169.932611 
L 650.204975 180.767844 
L 650.334796 226.71538 
L 650.399707 223.700134 
L 650.659349 194.139274 
L 650.854081 176.385841 
L 650.983902 176.104043 
L 651.438276 164.578397 
L 651.697919 158.547862 
L 651.957561 156.702065 
L 652.152293 156.702065 
L 652.541756 157.702461 
L 652.801399 158.576042 
L 653.190862 159.675065 
L 653.645237 160.647277 
L 654.553985 161.85902 
L 654.943448 162.112641 
L 655.268001 162.380352 
L 655.397823 162.450802 
L 655.982018 163.056674 
L 656.24166 163.803445 
L 656.371482 164.550217 
L 656.566213 167.185055 
L 656.696035 171.454334 
L 656.760945 176.385841 
L 656.955677 225.052755 
L 657.020588 220.30445 
L 657.28023 189.024595 
L 657.474962 175.653161 
L 657.539872 175.878602 
L 657.669694 173.483297 
L 658.059157 162.986223 
L 658.318799 157.94199 
L 658.578442 156.504807 
L 658.708263 156.561168 
L 658.902995 156.969776 
L 660.201207 160.562737 
L 661.239776 161.957651 
L 662.408167 162.817143 
L 662.797631 163.718905 
L 662.992362 164.860198 
L 663.187094 167.945914 
L 663.316915 173.610107 
L 663.381826 182.500916 
L 663.511647 227.377603 
L 663.576558 224.122834 
L 663.8362 194.139274 
L 664.030932 176.695823 
L 664.160753 176.329484 
L 664.615127 164.648848 
L 664.87477 158.660582 
L 665.134412 156.814788 
L 665.329144 156.828879 
L 665.588786 157.420659 
L 666.627356 160.280936 
L 667.406283 161.63358 
L 667.601015 161.73221 
L 667.860657 162.014011 
L 667.990478 162.042191 
L 668.315031 162.380352 
L 668.444852 162.422622 
L 669.158869 163.169394 
L 669.483422 164.183876 
L 669.678154 166.071941 
L 669.807975 168.932219 
L 669.937796 176.780363 
L 670.132528 225.095017 
L 670.197439 220.30445 
L 670.39217 198.732621 
L 670.651813 175.822241 
L 670.716723 176.047682 
L 670.911455 172.116567 
L 671.625472 156.814788 
L 671.755293 156.476628 
L 671.820203 156.504807 
L 672.079846 156.983868 
L 673.183326 160.210486 
L 673.962253 161.53495 
L 674.027164 161.54904 
L 674.221896 161.77448 
L 674.611359 162.126731 
L 674.935912 162.394442 
L 675.520107 162.746693 
L 675.84466 163.394834 
L 676.104303 164.395227 
L 676.299035 166.691902 
L 676.428856 170.21441 
L 676.558677 182.712266 
L 676.688498 226.743554 
L 676.753409 223.277435 
L 677.013051 193.617943 
L 677.207783 176.371754 
L 677.337604 176.019503 
L 678.246352 156.772518 
L 678.376174 156.645708 
L 678.505995 156.758426 
L 678.765637 157.30794 
L 679.609475 159.858235 
L 679.998939 160.647277 
L 680.648045 161.68994 
L 680.842776 161.80266 
L 681.621703 162.521252 
L 681.751525 162.478982 
L 682.076078 162.732603 
L 682.530452 163.648455 
L 682.790094 165.339259 
L 682.919915 167.354135 
L 683.049737 171.919304 
L 683.114647 177.484865 
L 683.309379 225.630457 
L 683.37429 220.698932 
L 683.569021 198.352192 
L 683.828664 176.244945 
L 683.893574 176.428116 
L 684.088306 172.342003 
L 684.802323 156.941598 
L 684.997054 156.617525 
L 685.126876 156.758426 
L 685.451429 157.716548 
L 685.840892 158.998743 
L 687.074194 161.464499 
L 688.89169 163.169394 
L 689.216243 164.028886 
L 689.410975 165.64924 
L 689.605707 170.383489 
L 689.735528 184.332621 
L 689.865349 227.448082 
L 690.060081 212.625378 
L 690.384634 176.625374 
L 690.449545 176.625374 
L 690.514455 176.259032 
L 691.423203 156.927506 
L 691.553025 156.730248 
L 691.812667 157.096586 
L 692.851237 160.125946 
L 693.045968 160.562737 
L 693.305611 160.985438 
L 693.759985 161.63358 
L 693.954717 161.77448 
L 694.409091 162.267632 
L 695.38275 163.028493 
L 695.772213 163.944346 
L 695.966945 165.353349 
L 696.161677 169.199926 
L 696.291498 177.625766 
L 696.421319 226.194071 
L 696.48623 225.545934 
L 696.745872 197.746321 
L 697.005515 176.075865 
L 697.070425 176.202675 
L 697.070425 176.202675 
" clip-path="url(#pf5d9eca34a)" style="fill: none; stroke: #d94452; stroke-width: 0.8; stroke-linecap: square"/>
   </g>
   <g id="text_19">
    <g id="patch_7">
     <path d="M 151.605865 296.055237 
L 269.005865 296.055237 
Q 272.005865 296.055237 272.005865 293.055237 
L 272.005865 282.455237 
Q 272.005865 279.455237 269.005865 279.455237 
L 151.605865 279.455237 
Q 148.605865 279.455237 148.605865 282.455237 
L 148.605865 293.055237 
Q 148.605865 296.055237 151.605865 296.055237 
z
" style="fill: #ffffff; opacity: 0.85; stroke: #333333; stroke-linejoin: miter"/>
    </g>
    <!-- I$_{p-p}$ = 7.60E-03 mA/m² -->
    <g style="fill: #333333" transform="translate(151.605865 289.955237) scale(0.1 -0.1)">
     <defs>
      <path id="DejaVuSans-49" d="M 628 4666 
L 1259 4666 
L 1259 0 
L 628 0 
L 628 4666 
z
" transform="scale(0.015625)"/>
      <path id="DejaVuSans-Oblique-70" d="M 3175 2156 
Q 3175 2616 2975 2859 
Q 2775 3103 2400 3103 
Q 2144 3103 1911 2972 
Q 1678 2841 1497 2591 
Q 1319 2344 1212 1994 
Q 1106 1644 1106 1300 
Q 1106 863 1306 627 
Q 1506 391 1875 391 
Q 2147 391 2380 519 
Q 2613 647 2778 891 
Q 2956 1147 3065 1494 
Q 3175 1841 3175 2156 
z
M 1394 2969 
Q 1625 3272 1939 3428 
Q 2253 3584 2638 3584 
Q 3175 3584 3472 3232 
Q 3769 2881 3769 2247 
Q 3769 1728 3584 1258 
Q 3400 788 3053 416 
Q 2822 169 2531 39 
Q 2241 -91 1919 -91 
Q 1547 -91 1294 64 
Q 1041 219 916 525 
L 556 -1331 
L -19 -1331 
L 922 3500 
L 1497 3500 
L 1394 2969 
z
" transform="scale(0.015625)"/>
      <path id="DejaVuSans-20" transform="scale(0.015625)"/>
      <path id="DejaVuSans-3d" d="M 678 2906 
L 4684 2906 
L 4684 2381 
L 678 2381 
L 678 2906 
z
M 678 1631 
L 4684 1631 
L 4684 1100 
L 678 1100 
L 678 1631 
z
" transform="scale(0.015625)"/>
      <path id="DejaVuSans-37" d="M 525 4666 
L 3525 4666 
L 3525 4397 
L 1831 0 
L 1172 0 
L 2766 4134 
L 525 4134 
L 525 4666 
z
" transform="scale(0.015625)"/>
      <path id="DejaVuSans-2e" d="M 684 794 
L 1344 794 
L 1344 0 
L 684 0 
L 684 794 
z
" transform="scale(0.015625)"/>
      <path id="DejaVuSans-45" d="M 628 4666 
L 3578 4666 
L 3578 4134 
L 1259 4134 
L 1259 2753 
L 3481 2753 
L 3481 2222 
L 1259 2222 
L 1259 531 
L 3634 531 
L 3634 0 
L 628 0 
L 628 4666 
z
" transform="scale(0.015625)"/>
      <path id="DejaVuSans-2d" d="M 313 2009 
L 1997 2009 
L 1997 1497 
L 313 1497 
L 313 2009 
z
" transform="scale(0.015625)"/>
      <path id="DejaVuSans-6d" d="M 3328 2828 
Q 3544 3216 3844 3400 
Q 4144 3584 4550 3584 
Q 5097 3584 5394 3201 
Q 5691 2819 5691 2113 
L 5691 0 
L 5113 0 
L 5113 2094 
Q 5113 2597 4934 2840 
Q 4756 3084 4391 3084 
Q 3944 3084 3684 2787 
Q 3425 2491 3425 1978 
L 3425 0 
L 2847 0 
L 2847 2094 
Q 2847 2600 2669 2842 
Q 2491 3084 2119 3084 
Q 1678 3084 1418 2786 
Q 1159 2488 1159 1978 
L 1159 0 
L 581 0 
L 581 3500 
L 1159 3500 
L 1159 2956 
Q 1356 3278 1631 3431 
Q 1906 3584 2284 3584 
Q 2666 3584 2933 3390 
Q 3200 3197 3328 2828 
z
" transform="scale(0.015625)"/>
      <path id="DejaVuSans-41" d="M 2188 4044 
L 1331 1722 
L 3047 1722 
L 2188 4044 
z
M 1831 4666 
L 2547 4666 
L 4325 0 
L 3669 0 
L 3244 1197 
L 1141 1197 
L 716 0 
L 50 0 
L 1831 4666 
z
" transform="scale(0.015625)"/>
      <path id="DejaVuSans-2f" d="M 1625 4666 
L 2156 4666 
L 531 -594 
L 0 -594 
L 1625 4666 
z
" transform="scale(0.015625)"/>
      <path id="DejaVuSans-b2" d="M 838 2444 
L 2163 2444 
L 2163 2088 
L 294 2088 
L 294 2431 
Q 400 2528 597 2703 
Q 1672 3656 1672 3950 
Q 1672 4156 1509 4282 
Q 1347 4409 1081 4409 
Q 919 4409 728 4354 
Q 538 4300 313 4191 
L 313 4575 
Q 553 4663 761 4706 
Q 969 4750 1147 4750 
Q 1600 4750 1872 4544 
Q 2144 4338 2144 4000 
Q 2144 3566 1109 2678 
Q 934 2528 838 2444 
z
" transform="scale(0.015625)"/>
     </defs>
     <use xlink:href="#DejaVuSans-49" transform="translate(0 0.78125)"/>
     <use xlink:href="#DejaVuSans-Oblique-70" transform="translate(30.449219 -15.625) scale(0.7)"/>
     <use xlink:href="#DejaVuSans-2212" transform="translate(88.520508 -15.625) scale(0.7)"/>
     <use xlink:href="#DejaVuSans-Oblique-70" transform="translate(160.810547 -15.625) scale(0.7)"/>
     <use xlink:href="#DejaVuSans-20" transform="translate(207.978516 0.78125)"/>
     <use xlink:href="#DejaVuSans-3d" transform="translate(239.765625 0.78125)"/>
     <use xlink:href="#DejaVuSans-20" transform="translate(323.554688 0.78125)"/>
     <use xlink:href="#DejaVuSans-37" transform="translate(355.341797 0.78125)"/>
     <use xlink:href="#DejaVuSans-2e" transform="translate(418.964844 0.78125)"/>
     <use xlink:href="#DejaVuSans-36" transform="translate(450.751953 0.78125)"/>
     <use xlink:href="#DejaVuSans-30" transform="translate(514.375 0.78125)"/>
     <use xlink:href="#DejaVuSans-45" transform="translate(577.998047 0.78125)"/>
     <use xlink:href="#DejaVuSans-2d" transform="translate(641.181641 0.78125)"/>
     <use xlink:href="#DejaVuSans-30" transform="translate(677.265625 0.78125)"/>
     <use xlink:href="#DejaVuSans-33" transform="translate(740.888672 0.78125)"/>
     <use xlink:href="#DejaVuSans-20" transform="translate(804.511719 0.78125)"/>
     <use xlink:href="#DejaVuSans-6d" transform="translate(836.298828 0.78125)"/>
     <use xlink:href="#DejaVuSans-41" transform="translate(933.710938 0.78125)"/>
     <use xlink:href="#DejaVuSans-2f" transform="translate(1002.119141 0.78125)"/>
     <use xlink:href="#DejaVuSans-6d" transform="translate(1035.810547 0.78125)"/>
     <use xlink:href="#DejaVuSans-b2" transform="translate(1133.222656 0.78125)"/>
    </g>
   </g>
   <g id="text_20">
    <g id="patch_8">
     <path d="M 476.158846 296.055237 
L 593.558846 296.055237 
Q 596.558846 296.055237 596.558846 293.055237 
L 596.558846 282.455237 
Q 596.558846 279.455237 593.558846 279.455237 
L 476.158846 279.455237 
Q 473.158846 279.455237 473.158846 282.455237 
L 473.158846 293.055237 
Q 473.158846 296.055237 476.158846 296.055237 
z
" style="fill: #ffffff; opacity: 0.85; stroke: #d94452; stroke-linejoin: miter"/>
    </g>
    <!-- I$_{p-p}$ = 4.07E-03 mA/m² -->
    <g style="fill: #d94452" transform="translate(476.158846 289.955237) scale(0.1 -0.1)">
     <use xlink:href="#DejaVuSans-49" transform="translate(0 0.78125)"/>
     <use xlink:href="#DejaVuSans-Oblique-70" transform="translate(30.449219 -15.625) scale(0.7)"/>
     <use xlink:href="#DejaVuSans-2212" transform="translate(88.520508 -15.625) scale(0.7)"/>
     <use xlink:href="#DejaVuSans-Oblique-70" transform="translate(160.810547 -15.625) scale(0.7)"/>
     <use xlink:href="#DejaVuSans-20" transform="translate(207.978516 0.78125)"/>
     <use xlink:href="#DejaVuSans-3d" transform="translate(239.765625 0.78125)"/>
     <use xlink:href="#DejaVuSans-20" transform="translate(323.554688 0.78125)"/>
     <use xlink:href="#DejaVuSans-34" transform="translate(355.341797 0.78125)"/>
     <use xlink:href="#DejaVuSans-2e" transform="translate(418.964844 0.78125)"/>
     <use xlink:href="#DejaVuSans-30" transform="translate(450.751953 0.78125)"/>
     <use xlink:href="#DejaVuSans-37" transform="translate(514.375 0.78125)"/>
     <use xlink:href="#DejaVuSans-45" transform="translate(577.998047 0.78125)"/>
     <use xlink:href="#DejaVuSans-2d" transform="translate(641.181641 0.78125)"/>
     <use xlink:href="#DejaVuSans-30" transform="translate(677.265625 0.78125)"/>
     <use xlink:href="#DejaVuSans-33" transform="translate(740.888672 0.78125)"/>
     <use xlink:href="#DejaVuSans-20" transform="translate(804.511719 0.78125)"/>
     <use xlink:href="#DejaVuSans-6d" transform="translate(836.298828 0.78125)"/>
     <use xlink:href="#DejaVuSans-41" transform="translate(933.710938 0.78125)"/>
     <use xlink:href="#DejaVuSans-2f" transform="translate(1002.119141 0.78125)"/>
     <use xlink:href="#DejaVuSans-6d" transform="translate(1035.810547 0.78125)"/>
     <use xlink:href="#DejaVuSans-b2" transform="translate(1133.222656 0.78125)"/>
    </g>
   </g>
   <g id="text_21">
    <g id="patch_9">
     <path d="M 611.000595 50.0672 
L 677.662157 50.0672 
Q 682.862157 50.0672 682.862157 44.8672 
L 682.862157 32.285638 
Q 682.862157 27.085638 677.662157 27.085638 
L 611.000595 27.085638 
Q 605.800595 27.085638 605.800595 32.285638 
L 605.800595 44.8672 
Q 605.800595 50.0672 611.000595 50.0672 
z
" style="fill: #ffffff; opacity: 0.9; stroke: #e8667a; stroke-width: 1.5; stroke-linejoin: miter"/>
    </g>
    <!-- f = 10 Hz -->
    <g style="fill: #e8667a" transform="translate(611.000595 42.163606) scale(0.13 -0.13)">
     <defs>
      <path id="DejaVuSans-Bold-66" d="M 2841 4863 
L 2841 4128 
L 2222 4128 
Q 1984 4128 1890 4042 
Q 1797 3956 1797 3744 
L 1797 3500 
L 2753 3500 
L 2753 2700 
L 1797 2700 
L 1797 0 
L 678 0 
L 678 2700 
L 122 2700 
L 122 3500 
L 678 3500 
L 678 3744 
Q 678 4316 997 4589 
Q 1316 4863 1984 4863 
L 2841 4863 
z
" transform="scale(0.015625)"/>
      <path id="DejaVuSans-Bold-3d" d="M 678 3084 
L 4684 3084 
L 4684 2350 
L 678 2350 
L 678 3084 
z
M 678 1663 
L 4684 1663 
L 4684 922 
L 678 922 
L 678 1663 
z
" transform="scale(0.015625)"/>
      <path id="DejaVuSans-Bold-31" d="M 750 831 
L 1813 831 
L 1813 3847 
L 722 3622 
L 722 4441 
L 1806 4666 
L 2950 4666 
L 2950 831 
L 4013 831 
L 4013 0 
L 750 0 
L 750 831 
z
" transform="scale(0.015625)"/>
      <path id="DejaVuSans-Bold-30" d="M 2944 2338 
Q 2944 3213 2780 3570 
Q 2616 3928 2228 3928 
Q 1841 3928 1675 3570 
Q 1509 3213 1509 2338 
Q 1509 1453 1675 1090 
Q 1841 728 2228 728 
Q 2613 728 2778 1090 
Q 2944 1453 2944 2338 
z
M 4147 2328 
Q 4147 1169 3647 539 
Q 3147 -91 2228 -91 
Q 1306 -91 806 539 
Q 306 1169 306 2328 
Q 306 3491 806 4120 
Q 1306 4750 2228 4750 
Q 3147 4750 3647 4120 
Q 4147 3491 4147 2328 
z
" transform="scale(0.015625)"/>
      <path id="DejaVuSans-Bold-48" d="M 588 4666 
L 1791 4666 
L 1791 2888 
L 3566 2888 
L 3566 4666 
L 4769 4666 
L 4769 0 
L 3566 0 
L 3566 1978 
L 1791 1978 
L 1791 0 
L 588 0 
L 588 4666 
z
" transform="scale(0.015625)"/>
      <path id="DejaVuSans-Bold-7a" d="M 366 3500 
L 3419 3500 
L 3419 2719 
L 1575 800 
L 3419 800 
L 3419 0 
L 288 0 
L 288 781 
L 2131 2700 
L 366 2700 
L 366 3500 
z
" transform="scale(0.015625)"/>
     </defs>
     <use xlink:href="#DejaVuSans-Bold-66"/>
     <use xlink:href="#DejaVuSans-Bold-20" transform="translate(43.505859 0)"/>
     <use xlink:href="#DejaVuSans-Bold-3d" transform="translate(78.320312 0)"/>
     <use xlink:href="#DejaVuSans-Bold-20" transform="translate(162.109375 0)"/>
     <use xlink:href="#DejaVuSans-Bold-31" transform="translate(196.923828 0)"/>
     <use xlink:href="#DejaVuSans-Bold-30" transform="translate(266.503906 0)"/>
     <use xlink:href="#DejaVuSans-Bold-20" transform="translate(336.083984 0)"/>
     <use xlink:href="#DejaVuSans-Bold-48" transform="translate(370.898438 0)"/>
     <use xlink:href="#DejaVuSans-Bold-7a" transform="translate(454.589844 0)"/>
    </g>
   </g>
   <g id="text_22">
    <!-- Without MIC -->
    <g style="fill: #333333" transform="translate(161.573834 42.92345) scale(0.14 -0.14)">
     <defs>
      <path id="DejaVuSans-Bold-57" d="M 191 4666 
L 1344 4666 
L 2150 1275 
L 2950 4666 
L 4109 4666 
L 4909 1275 
L 5716 4666 
L 6859 4666 
L 5759 0 
L 4372 0 
L 3525 3547 
L 2688 0 
L 1300 0 
L 191 4666 
z
" transform="scale(0.015625)"/>
      <path id="DejaVuSans-Bold-74" d="M 1759 4494 
L 1759 3500 
L 2913 3500 
L 2913 2700 
L 1759 2700 
L 1759 1216 
Q 1759 972 1856 886 
Q 1953 800 2241 800 
L 2816 800 
L 2816 0 
L 1856 0 
Q 1194 0 917 276 
Q 641 553 641 1216 
L 641 2700 
L 84 2700 
L 84 3500 
L 641 3500 
L 641 4494 
L 1759 4494 
z
" transform="scale(0.015625)"/>
      <path id="DejaVuSans-Bold-68" d="M 4056 2131 
L 4056 0 
L 2931 0 
L 2931 347 
L 2931 1625 
Q 2931 2084 2911 2256 
Q 2891 2428 2841 2509 
Q 2775 2619 2662 2680 
Q 2550 2741 2406 2741 
Q 2056 2741 1856 2470 
Q 1656 2200 1656 1722 
L 1656 0 
L 538 0 
L 538 4863 
L 1656 4863 
L 1656 2988 
Q 1909 3294 2193 3439 
Q 2478 3584 2822 3584 
Q 3428 3584 3742 3212 
Q 4056 2841 4056 2131 
z
" transform="scale(0.015625)"/>
      <path id="DejaVuSans-Bold-6f" d="M 2203 2784 
Q 1831 2784 1636 2517 
Q 1441 2250 1441 1747 
Q 1441 1244 1636 976 
Q 1831 709 2203 709 
Q 2569 709 2762 976 
Q 2956 1244 2956 1747 
Q 2956 2250 2762 2517 
Q 2569 2784 2203 2784 
z
M 2203 3584 
Q 3106 3584 3614 3096 
Q 4122 2609 4122 1747 
Q 4122 884 3614 396 
Q 3106 -91 2203 -91 
Q 1297 -91 786 396 
Q 275 884 275 1747 
Q 275 2609 786 3096 
Q 1297 3584 2203 3584 
z
" transform="scale(0.015625)"/>
      <path id="DejaVuSans-Bold-75" d="M 500 1363 
L 500 3500 
L 1625 3500 
L 1625 3150 
Q 1625 2866 1622 2436 
Q 1619 2006 1619 1863 
Q 1619 1441 1641 1255 
Q 1663 1069 1716 984 
Q 1784 875 1895 815 
Q 2006 756 2150 756 
Q 2500 756 2700 1025 
Q 2900 1294 2900 1772 
L 2900 3500 
L 4019 3500 
L 4019 0 
L 2900 0 
L 2900 506 
Q 2647 200 2364 54 
Q 2081 -91 1741 -91 
Q 1134 -91 817 281 
Q 500 653 500 1363 
z
" transform="scale(0.015625)"/>
      <path id="DejaVuSans-Bold-4d" d="M 588 4666 
L 2119 4666 
L 3181 2169 
L 4250 4666 
L 5778 4666 
L 5778 0 
L 4641 0 
L 4641 3413 
L 3566 897 
L 2803 897 
L 1728 3413 
L 1728 0 
L 588 0 
L 588 4666 
z
" transform="scale(0.015625)"/>
      <path id="DejaVuSans-Bold-43" d="M 4288 256 
Q 3956 84 3597 -3 
Q 3238 -91 2847 -91 
Q 1681 -91 1000 561 
Q 319 1213 319 2328 
Q 319 3447 1000 4098 
Q 1681 4750 2847 4750 
Q 3238 4750 3597 4662 
Q 3956 4575 4288 4403 
L 4288 3438 
Q 3953 3666 3628 3772 
Q 3303 3878 2944 3878 
Q 2300 3878 1931 3465 
Q 1563 3053 1563 2328 
Q 1563 1606 1931 1193 
Q 2300 781 2944 781 
Q 3303 781 3628 887 
Q 3953 994 4288 1222 
L 4288 256 
z
" transform="scale(0.015625)"/>
     </defs>
     <use xlink:href="#DejaVuSans-Bold-57"/>
     <use xlink:href="#DejaVuSans-Bold-69" transform="translate(110.302734 0)"/>
     <use xlink:href="#DejaVuSans-Bold-74" transform="translate(144.580078 0)"/>
     <use xlink:href="#DejaVuSans-Bold-68" transform="translate(192.382812 0)"/>
     <use xlink:href="#DejaVuSans-Bold-6f" transform="translate(263.574219 0)"/>
     <use xlink:href="#DejaVuSans-Bold-75" transform="translate(332.275391 0)"/>
     <use xlink:href="#DejaVuSans-Bold-74" transform="translate(403.466797 0)"/>
     <use xlink:href="#DejaVuSans-Bold-20" transform="translate(451.269531 0)"/>
     <use xlink:href="#DejaVuSans-Bold-4d" transform="translate(486.083984 0)"/>
     <use xlink:href="#DejaVuSans-Bold-49" transform="translate(585.595703 0)"/>
     <use xlink:href="#DejaVuSans-Bold-43" transform="translate(622.802734 0)"/>
    </g>
   </g>
   <g id="text_23">
    <!-- With MIC -->
    <g style="fill: #d94452" transform="translate(499.264939 42.92345) scale(0.14 -0.14)">
     <use xlink:href="#DejaVuSans-Bold-57"/>
     <use xlink:href="#DejaVuSans-Bold-69" transform="translate(110.302734 0)"/>
     <use xlink:href="#DejaVuSans-Bold-74" transform="translate(144.580078 0)"/>
     <use xlink:href="#DejaVuSans-Bold-68" transform="translate(192.382812 0)"/>
     <use xlink:href="#DejaVuSans-Bold-20" transform="translate(263.574219 0)"/>
     <use xlink:href="#DejaVuSans-Bold-4d" transform="translate(298.388672 0)"/>
     <use xlink:href="#DejaVuSans-Bold-49" transform="translate(397.900391 0)"/>
     <use xlink:href="#DejaVuSans-Bold-43" transform="translate(435.107422 0)"/>
    </g>
   </g>
  </g>
 </g>
 <defs>
  <clipPath id="pf5d9eca34a">
   <rect x="48.029375" y="17.798437" width="649.105961" height="289.744"/>
  </clipPath>
 </defs>
</svg>
