<?xml version="1.0" encoding="utf-8" standalone="no"?>
<!DOCTYPE svg PUBLIC "-//W3C//DTD SVG 1.1//EN"
  "http://www.w3.org/Graphics/SVG/1.1/DTD/svg11.dtd">
<svg xmlns:xlink="http://www.w3.org/1999/xlink" width="999.659281pt" height="352.192813pt" viewBox="0 0 999.659281 352.192813" xmlns="http://www.w3.org/2000/svg" version="1.1">
 <metadata>
  <rdf:RDF xmlns:dc="http://purl.org/dc/elements/1.1/" xmlns:cc="http://creativecommons.org/ns#" xmlns:rdf="http://www.w3.org/1999/02/22-rdf-syntax-ns#">
   <cc:Work>
    <dc:type rdf:resource="http://purl.org/dc/dcmitype/StillImage"/>
    <dc:date>2026-04-13T16:18:33.172202</dc:date>
    <dc:format>image/svg+xml</dc:format>
    <dc:creator>
     <cc:Agent>
      <dc:title>Matplotlib v3.10.8, https://matplotlib.org/</dc:title>
     </cc:Agent>
    </dc:creator>
   </cc:Work>
  </rdf:RDF>
 </metadata>
 <defs>
  <style type="text/css">*{stroke-linejoin: round; stroke-linecap: butt}</style>
 </defs>
 <g id="figure_1">
  <g id="patch_1">
   <path d="M 0 352.192813 
L 999.659281 352.192813 
L 999.659281 0 
L 0 0 
z
" style="fill: #ffffff"/>
  </g>
  <g id="axes_1">
   <g id="patch_2">
    <path d="M 61.963281 309.7975 
L 992.459281 309.7975 
L 992.459281 34.3575 
L 61.963281 34.3575 
z
" style="fill: #ffffff"/>
   </g>
   <g id="patch_3">
    <path d="M 70.700333 309.7975 
L 289.126624 309.7975 
L 289.126624 34.3575 
L 70.700333 34.3575 
z
" clip-path="url(#pe2fa213eff)" style="fill: #4a90d9; opacity: 0.15; stroke: #4a90d9; stroke-linejoin: miter"/>
   </g>
   <g id="patch_4">
    <path d="M 302.232201 309.7975 
L 520.658493 309.7975 
L 520.658493 34.3575 
L 302.232201 34.3575 
z
" clip-path="url(#pe2fa213eff)" style="fill: #5cb85c; opacity: 0.15; stroke: #5cb85c; stroke-linejoin: miter"/>
   </g>
   <g id="patch_5">
    <path d="M 533.76407 309.7975 
L 752.190361 309.7975 
L 752.190361 34.3575 
L 533.76407 34.3575 
z
" clip-path="url(#pe2fa213eff)" style="fill: #f0ad4e; opacity: 0.15; stroke: #f0ad4e; stroke-linejoin: miter"/>
   </g>
   <g id="patch_6">
    <path d="M 765.295939 309.7975 
L 983.72223 309.7975 
L 983.72223 34.3575 
L 765.295939 34.3575 
z
" clip-path="url(#pe2fa213eff)" style="fill: #e8667a; opacity: 0.15; stroke: #e8667a; stroke-linejoin: miter"/>
   </g>
   <g id="matplotlib.axis_1">
    <g id="xtick_1">
     <g id="line2d_1">
      <defs>
       <path id="m32da93d5d2" d="M 0 0 
L 0 3.5 
" style="stroke: #000000; stroke-width: 0.8"/>
      </defs>
      <g>
       <use xlink:href="#m32da93d5d2" x="70.700333" y="309.7975" style="stroke: #000000; stroke-width: 0.8"/>
      </g>
     </g>
     <g id="text_1">
      <!-- 0.0 -->
      <g transform="translate(61.953614 325.155781) scale(0.11 -0.11)">
       <defs>
        <path id="DejaVuSans-30" d="M 2034 4250 
Q 1547 4250 1301 3770 
Q 1056 3291 1056 2328 
Q 1056 1369 1301 889 
Q 1547 409 2034 409 
Q 2525 409 2770 889 
Q 3016 1369 3016 2328 
Q 3016 3291 2770 3770 
Q 2525 4250 2034 4250 
z
M 2034 4750 
Q 2819 4750 3233 4129 
Q 3647 3509 3647 2328 
Q 3647 1150 3233 529 
Q 2819 -91 2034 -91 
Q 1250 -91 836 529 
Q 422 1150 422 2328 
Q 422 3509 836 4129 
Q 1250 4750 2034 4750 
z
" transform="scale(0.015625)"/>
        <path id="DejaVuSans-2e" d="M 684 794 
L 1344 794 
L 1344 0 
L 684 0 
L 684 794 
z
" transform="scale(0.015625)"/>
       </defs>
       <use xlink:href="#DejaVuSans-30"/>
       <use xlink:href="#DejaVuSans-2e" transform="translate(63.623047 0)"/>
       <use xlink:href="#DejaVuSans-30" transform="translate(95.410156 0)"/>
      </g>
     </g>
    </g>
    <g id="xtick_2">
     <g id="line2d_2">
      <g>
       <use xlink:href="#m32da93d5d2" x="179.913478" y="309.7975" style="stroke: #000000; stroke-width: 0.8"/>
      </g>
     </g>
     <g id="text_2">
      <!-- 2.5 -->
      <g transform="translate(171.16676 325.155781) scale(0.11 -0.11)">
       <defs>
        <path id="DejaVuSans-32" d="M 1228 531 
L 3431 531 
L 3431 0 
L 469 0 
L 469 531 
Q 828 903 1448 1529 
Q 2069 2156 2228 2338 
Q 2531 2678 2651 2914 
Q 2772 3150 2772 3378 
Q 2772 3750 2511 3984 
Q 2250 4219 1831 4219 
Q 1534 4219 1204 4116 
Q 875 4013 500 3803 
L 500 4441 
Q 881 4594 1212 4672 
Q 1544 4750 1819 4750 
Q 2544 4750 2975 4387 
Q 3406 4025 3406 3419 
Q 3406 3131 3298 2873 
Q 3191 2616 2906 2266 
Q 2828 2175 2409 1742 
Q 1991 1309 1228 531 
z
" transform="scale(0.015625)"/>
        <path id="DejaVuSans-35" d="M 691 4666 
L 3169 4666 
L 3169 4134 
L 1269 4134 
L 1269 2991 
Q 1406 3038 1543 3061 
Q 1681 3084 1819 3084 
Q 2600 3084 3056 2656 
Q 3513 2228 3513 1497 
Q 3513 744 3044 326 
Q 2575 -91 1722 -91 
Q 1428 -91 1123 -41 
Q 819 9 494 109 
L 494 744 
Q 775 591 1075 516 
Q 1375 441 1709 441 
Q 2250 441 2565 725 
Q 2881 1009 2881 1497 
Q 2881 1984 2565 2268 
Q 2250 2553 1709 2553 
Q 1456 2553 1204 2497 
Q 953 2441 691 2322 
L 691 4666 
z
" transform="scale(0.015625)"/>
       </defs>
       <use xlink:href="#DejaVuSans-32"/>
       <use xlink:href="#DejaVuSans-2e" transform="translate(63.623047 0)"/>
       <use xlink:href="#DejaVuSans-35" transform="translate(95.410156 0)"/>
      </g>
     </g>
    </g>
    <g id="xtick_3">
     <g id="line2d_3">
      <g>
       <use xlink:href="#m32da93d5d2" x="289.126624" y="309.7975" style="stroke: #000000; stroke-width: 0.8"/>
      </g>
     </g>
     <g id="text_3">
      <!-- 5.0 -->
      <g transform="translate(280.379905 325.155781) scale(0.11 -0.11)">
       <use xlink:href="#DejaVuSans-35"/>
       <use xlink:href="#DejaVuSans-2e" transform="translate(63.623047 0)"/>
       <use xlink:href="#DejaVuSans-30" transform="translate(95.410156 0)"/>
      </g>
     </g>
    </g>
    <g id="xtick_4">
     <g id="line2d_4">
      <g>
       <use xlink:href="#m32da93d5d2" x="398.33977" y="309.7975" style="stroke: #000000; stroke-width: 0.8"/>
      </g>
     </g>
     <g id="text_4">
      <!-- 7.5 -->
      <g transform="translate(389.593051 325.155781) scale(0.11 -0.11)">
       <defs>
        <path id="DejaVuSans-37" d="M 525 4666 
L 3525 4666 
L 3525 4397 
L 1831 0 
L 1172 0 
L 2766 4134 
L 525 4134 
L 525 4666 
z
" transform="scale(0.015625)"/>
       </defs>
       <use xlink:href="#DejaVuSans-37"/>
       <use xlink:href="#DejaVuSans-2e" transform="translate(63.623047 0)"/>
       <use xlink:href="#DejaVuSans-35" transform="translate(95.410156 0)"/>
      </g>
     </g>
    </g>
    <g id="xtick_5">
     <g id="line2d_5">
      <g>
       <use xlink:href="#m32da93d5d2" x="507.552915" y="309.7975" style="stroke: #000000; stroke-width: 0.8"/>
      </g>
     </g>
     <g id="text_5">
      <!-- 10.0 -->
      <g transform="translate(495.306821 325.155781) scale(0.11 -0.11)">
       <defs>
        <path id="DejaVuSans-31" d="M 794 531 
L 1825 531 
L 1825 4091 
L 703 3866 
L 703 4441 
L 1819 4666 
L 2450 4666 
L 2450 531 
L 3481 531 
L 3481 0 
L 794 0 
L 794 531 
z
" transform="scale(0.015625)"/>
       </defs>
       <use xlink:href="#DejaVuSans-31"/>
       <use xlink:href="#DejaVuSans-30" transform="translate(63.623047 0)"/>
       <use xlink:href="#DejaVuSans-2e" transform="translate(127.246094 0)"/>
       <use xlink:href="#DejaVuSans-30" transform="translate(159.033203 0)"/>
      </g>
     </g>
    </g>
    <g id="xtick_6">
     <g id="line2d_6">
      <g>
       <use xlink:href="#m32da93d5d2" x="616.766061" y="309.7975" style="stroke: #000000; stroke-width: 0.8"/>
      </g>
     </g>
     <g id="text_6">
      <!-- 12.5 -->
      <g transform="translate(604.519967 325.155781) scale(0.11 -0.11)">
       <use xlink:href="#DejaVuSans-31"/>
       <use xlink:href="#DejaVuSans-32" transform="translate(63.623047 0)"/>
       <use xlink:href="#DejaVuSans-2e" transform="translate(127.246094 0)"/>
       <use xlink:href="#DejaVuSans-35" transform="translate(159.033203 0)"/>
      </g>
     </g>
    </g>
    <g id="xtick_7">
     <g id="line2d_7">
      <g>
       <use xlink:href="#m32da93d5d2" x="725.979206" y="309.7975" style="stroke: #000000; stroke-width: 0.8"/>
      </g>
     </g>
     <g id="text_7">
      <!-- 15.0 -->
      <g transform="translate(713.733112 325.155781) scale(0.11 -0.11)">
       <use xlink:href="#DejaVuSans-31"/>
       <use xlink:href="#DejaVuSans-35" transform="translate(63.623047 0)"/>
       <use xlink:href="#DejaVuSans-2e" transform="translate(127.246094 0)"/>
       <use xlink:href="#DejaVuSans-30" transform="translate(159.033203 0)"/>
      </g>
     </g>
    </g>
    <g id="xtick_8">
     <g id="line2d_8">
      <g>
       <use xlink:href="#m32da93d5d2" x="835.192352" y="309.7975" style="stroke: #000000; stroke-width: 0.8"/>
      </g>
     </g>
     <g id="text_8">
      <!-- 17.5 -->
      <g transform="translate(822.946258 325.155781) scale(0.11 -0.11)">
       <use xlink:href="#DejaVuSans-31"/>
       <use xlink:href="#DejaVuSans-37" transform="translate(63.623047 0)"/>
       <use xlink:href="#DejaVuSans-2e" transform="translate(127.246094 0)"/>
       <use xlink:href="#DejaVuSans-35" transform="translate(159.033203 0)"/>
      </g>
     </g>
    </g>
    <g id="xtick_9">
     <g id="line2d_9">
      <g>
       <use xlink:href="#m32da93d5d2" x="944.405497" y="309.7975" style="stroke: #000000; stroke-width: 0.8"/>
      </g>
     </g>
     <g id="text_9">
      <!-- 20.0 -->
      <g transform="translate(932.159403 325.155781) scale(0.11 -0.11)">
       <use xlink:href="#DejaVuSans-32"/>
       <use xlink:href="#DejaVuSans-30" transform="translate(63.623047 0)"/>
       <use xlink:href="#DejaVuSans-2e" transform="translate(127.246094 0)"/>
       <use xlink:href="#DejaVuSans-30" transform="translate(159.033203 0)"/>
      </g>
     </g>
    </g>
    <g id="text_10">
     <!-- Time (s) -->
     <g transform="translate(494.992687 342.08125) scale(0.14 -0.14)">
      <defs>
       <path id="DejaVuSans-Bold-54" d="M 31 4666 
L 4331 4666 
L 4331 3756 
L 2784 3756 
L 2784 0 
L 1581 0 
L 1581 3756 
L 31 3756 
L 31 4666 
z
" transform="scale(0.015625)"/>
       <path id="DejaVuSans-Bold-69" d="M 538 3500 
L 1656 3500 
L 1656 0 
L 538 0 
L 538 3500 
z
M 538 4863 
L 1656 4863 
L 1656 3950 
L 538 3950 
L 538 4863 
z
" transform="scale(0.015625)"/>
       <path id="DejaVuSans-Bold-6d" d="M 3781 2919 
Q 3994 3244 4286 3414 
Q 4578 3584 4928 3584 
Q 5531 3584 5847 3212 
Q 6163 2841 6163 2131 
L 6163 0 
L 5038 0 
L 5038 1825 
Q 5041 1866 5042 1909 
Q 5044 1953 5044 2034 
Q 5044 2406 4934 2573 
Q 4825 2741 4581 2741 
Q 4263 2741 4089 2478 
Q 3916 2216 3909 1719 
L 3909 0 
L 2784 0 
L 2784 1825 
Q 2784 2406 2684 2573 
Q 2584 2741 2328 2741 
Q 2006 2741 1831 2477 
Q 1656 2213 1656 1722 
L 1656 0 
L 531 0 
L 531 3500 
L 1656 3500 
L 1656 2988 
Q 1863 3284 2130 3434 
Q 2397 3584 2719 3584 
Q 3081 3584 3359 3409 
Q 3638 3234 3781 2919 
z
" transform="scale(0.015625)"/>
       <path id="DejaVuSans-Bold-65" d="M 4031 1759 
L 4031 1441 
L 1416 1441 
Q 1456 1047 1700 850 
Q 1944 653 2381 653 
Q 2734 653 3104 758 
Q 3475 863 3866 1075 
L 3866 213 
Q 3469 63 3072 -14 
Q 2675 -91 2278 -91 
Q 1328 -91 801 392 
Q 275 875 275 1747 
Q 275 2603 792 3093 
Q 1309 3584 2216 3584 
Q 3041 3584 3536 3087 
Q 4031 2591 4031 1759 
z
M 2881 2131 
Q 2881 2450 2695 2645 
Q 2509 2841 2209 2841 
Q 1884 2841 1681 2658 
Q 1478 2475 1428 2131 
L 2881 2131 
z
" transform="scale(0.015625)"/>
       <path id="DejaVuSans-Bold-20" transform="scale(0.015625)"/>
       <path id="DejaVuSans-Bold-28" d="M 2413 -844 
L 1484 -844 
Q 1006 -72 778 623 
Q 550 1319 550 2003 
Q 550 2688 779 3389 
Q 1009 4091 1484 4856 
L 2413 4856 
Q 2013 4116 1813 3408 
Q 1613 2700 1613 2009 
Q 1613 1319 1811 609 
Q 2009 -100 2413 -844 
z
" transform="scale(0.015625)"/>
       <path id="DejaVuSans-Bold-73" d="M 3272 3391 
L 3272 2541 
Q 2913 2691 2578 2766 
Q 2244 2841 1947 2841 
Q 1628 2841 1473 2761 
Q 1319 2681 1319 2516 
Q 1319 2381 1436 2309 
Q 1553 2238 1856 2203 
L 2053 2175 
Q 2913 2066 3209 1816 
Q 3506 1566 3506 1031 
Q 3506 472 3093 190 
Q 2681 -91 1863 -91 
Q 1516 -91 1145 -36 
Q 775 19 384 128 
L 384 978 
Q 719 816 1070 734 
Q 1422 653 1784 653 
Q 2113 653 2278 743 
Q 2444 834 2444 1013 
Q 2444 1163 2330 1236 
Q 2216 1309 1875 1350 
L 1678 1375 
Q 931 1469 631 1722 
Q 331 1975 331 2491 
Q 331 3047 712 3315 
Q 1094 3584 1881 3584 
Q 2191 3584 2531 3537 
Q 2872 3491 3272 3391 
z
" transform="scale(0.015625)"/>
       <path id="DejaVuSans-Bold-29" d="M 513 -844 
Q 913 -100 1113 609 
Q 1313 1319 1313 2009 
Q 1313 2700 1113 3408 
Q 913 4116 513 4856 
L 1441 4856 
Q 1916 4091 2145 3389 
Q 2375 2688 2375 2003 
Q 2375 1319 2147 623 
Q 1919 -72 1441 -844 
L 513 -844 
z
" transform="scale(0.015625)"/>
      </defs>
      <use xlink:href="#DejaVuSans-Bold-54"/>
      <use xlink:href="#DejaVuSans-Bold-69" transform="translate(68.212891 0)"/>
      <use xlink:href="#DejaVuSans-Bold-6d" transform="translate(102.490234 0)"/>
      <use xlink:href="#DejaVuSans-Bold-65" transform="translate(206.689453 0)"/>
      <use xlink:href="#DejaVuSans-Bold-20" transform="translate(274.511719 0)"/>
      <use xlink:href="#DejaVuSans-Bold-28" transform="translate(309.326172 0)"/>
      <use xlink:href="#DejaVuSans-Bold-73" transform="translate(355.029297 0)"/>
      <use xlink:href="#DejaVuSans-Bold-29" transform="translate(414.550781 0)"/>
     </g>
    </g>
   </g>
   <g id="matplotlib.axis_2">
    <g id="ytick_1">
     <g id="line2d_10">
      <defs>
       <path id="m2ddd26ffc0" d="M 0 0 
L -3.5 0 
" style="stroke: #000000; stroke-width: 0.8"/>
      </defs>
      <g>
       <use xlink:href="#m2ddd26ffc0" x="61.963281" y="287.237336" style="stroke: #000000; stroke-width: 0.8"/>
      </g>
     </g>
     <g id="text_11">
      <!-- −200 -->
      <g transform="translate(24.749375 291.416477) scale(0.11 -0.11)">
       <defs>
        <path id="DejaVuSans-2212" d="M 678 2272 
L 4684 2272 
L 4684 1741 
L 678 1741 
L 678 2272 
z
" transform="scale(0.015625)"/>
       </defs>
       <use xlink:href="#DejaVuSans-2212"/>
       <use xlink:href="#DejaVuSans-32" transform="translate(83.789062 0)"/>
       <use xlink:href="#DejaVuSans-30" transform="translate(147.412109 0)"/>
       <use xlink:href="#DejaVuSans-30" transform="translate(211.035156 0)"/>
      </g>
     </g>
    </g>
    <g id="ytick_2">
     <g id="line2d_11">
      <g>
       <use xlink:href="#m2ddd26ffc0" x="61.963281" y="235.547198" style="stroke: #000000; stroke-width: 0.8"/>
      </g>
     </g>
     <g id="text_12">
      <!-- −100 -->
      <g transform="translate(24.749375 239.726339) scale(0.11 -0.11)">
       <use xlink:href="#DejaVuSans-2212"/>
       <use xlink:href="#DejaVuSans-31" transform="translate(83.789062 0)"/>
       <use xlink:href="#DejaVuSans-30" transform="translate(147.412109 0)"/>
       <use xlink:href="#DejaVuSans-30" transform="translate(211.035156 0)"/>
      </g>
     </g>
    </g>
    <g id="ytick_3">
     <g id="line2d_12">
      <g>
       <use xlink:href="#m2ddd26ffc0" x="61.963281" y="183.85706" style="stroke: #000000; stroke-width: 0.8"/>
      </g>
     </g>
     <g id="text_13">
      <!-- 0 -->
      <g transform="translate(47.964531 188.036201) scale(0.11 -0.11)">
       <use xlink:href="#DejaVuSans-30"/>
      </g>
     </g>
    </g>
    <g id="ytick_4">
     <g id="line2d_13">
      <g>
       <use xlink:href="#m2ddd26ffc0" x="61.963281" y="132.166922" style="stroke: #000000; stroke-width: 0.8"/>
      </g>
     </g>
     <g id="text_14">
      <!-- 100 -->
      <g transform="translate(33.967031 136.346063) scale(0.11 -0.11)">
       <use xlink:href="#DejaVuSans-31"/>
       <use xlink:href="#DejaVuSans-30" transform="translate(63.623047 0)"/>
       <use xlink:href="#DejaVuSans-30" transform="translate(127.246094 0)"/>
      </g>
     </g>
    </g>
    <g id="ytick_5">
     <g id="line2d_14">
      <g>
       <use xlink:href="#m2ddd26ffc0" x="61.963281" y="80.476784" style="stroke: #000000; stroke-width: 0.8"/>
      </g>
     </g>
     <g id="text_15">
      <!-- 200 -->
      <g transform="translate(33.967031 84.655924) scale(0.11 -0.11)">
       <use xlink:href="#DejaVuSans-32"/>
       <use xlink:href="#DejaVuSans-30" transform="translate(63.623047 0)"/>
       <use xlink:href="#DejaVuSans-30" transform="translate(127.246094 0)"/>
      </g>
     </g>
    </g>
    <g id="text_16">
     <!-- V$_{oc}$ (V) -->
     <g transform="translate(17.837813 197.7675) rotate(-90) scale(0.14 -0.14)">
      <defs>
       <path id="DejaVuSans-Bold-56" d="M 31 4666 
L 1241 4666 
L 2478 1222 
L 3713 4666 
L 4922 4666 
L 3194 0 
L 1759 0 
L 31 4666 
z
" transform="scale(0.015625)"/>
       <path id="DejaVuSans-Oblique-6f" d="M 1625 -91 
Q 1009 -91 651 289 
Q 294 669 294 1325 
Q 294 1706 417 2101 
Q 541 2497 738 2766 
Q 1047 3184 1428 3384 
Q 1809 3584 2291 3584 
Q 2888 3584 3255 3212 
Q 3622 2841 3622 2241 
Q 3622 1825 3500 1412 
Q 3378 1000 3181 728 
Q 2875 309 2494 109 
Q 2113 -91 1625 -91 
z
M 891 1344 
Q 891 869 1089 633 
Q 1288 397 1691 397 
Q 2269 397 2648 901 
Q 3028 1406 3028 2181 
Q 3028 2634 2825 2865 
Q 2622 3097 2228 3097 
Q 1903 3097 1650 2945 
Q 1397 2794 1197 2484 
Q 1050 2253 970 1956 
Q 891 1659 891 1344 
z
" transform="scale(0.015625)"/>
       <path id="DejaVuSans-Oblique-63" d="M 3431 3366 
L 3316 2797 
Q 3109 2947 2876 3022 
Q 2644 3097 2394 3097 
Q 2119 3097 1870 3000 
Q 1622 2903 1453 2725 
Q 1184 2453 1037 2087 
Q 891 1722 891 1331 
Q 891 859 1127 628 
Q 1363 397 1844 397 
Q 2081 397 2348 469 
Q 2616 541 2906 684 
L 2797 116 
Q 2547 13 2283 -39 
Q 2019 -91 1741 -91 
Q 1044 -91 669 257 
Q 294 606 294 1253 
Q 294 1797 489 2255 
Q 684 2713 1069 3078 
Q 1331 3328 1684 3456 
Q 2038 3584 2456 3584 
Q 2700 3584 2940 3529 
Q 3181 3475 3431 3366 
z
" transform="scale(0.015625)"/>
      </defs>
      <use xlink:href="#DejaVuSans-Bold-56" transform="translate(0 0.125)"/>
      <use xlink:href="#DejaVuSans-Oblique-6f" transform="translate(78.349609 -16.28125) scale(0.7)"/>
      <use xlink:href="#DejaVuSans-Oblique-63" transform="translate(121.176758 -16.28125) scale(0.7)"/>
      <use xlink:href="#DejaVuSans-Bold-20" transform="translate(162.397461 0.125)"/>
      <use xlink:href="#DejaVuSans-Bold-28" transform="translate(197.211914 0.125)"/>
      <use xlink:href="#DejaVuSans-Bold-56" transform="translate(242.915039 0.125)"/>
      <use xlink:href="#DejaVuSans-Bold-29" transform="translate(320.307617 0.125)"/>
     </g>
    </g>
   </g>
   <g id="patch_7">
    <path d="M 61.963281 309.7975 
L 61.963281 34.3575 
" style="fill: none; stroke: #000000; stroke-width: 0.8; stroke-linejoin: miter; stroke-linecap: square"/>
   </g>
   <g id="patch_8">
    <path d="M 61.963281 309.7975 
L 992.459281 309.7975 
" style="fill: none; stroke: #000000; stroke-width: 0.8; stroke-linejoin: miter; stroke-linecap: square"/>
   </g>
   <g id="line2d_15">
    <path d="M 70.700333 188.308069 
L 71.180871 186.612379 
L 71.661409 185.370142 
L 71.92352 184.737528 
L 72.447743 183.909898 
L 72.75354 183.647498 
L 72.797225 183.764825 
L 72.971966 183.417601 
L 73.059337 183.38827 
L 73.277763 182.957807 
L 73.321448 182.992688 
L 73.976727 182.788952 
L 74.107783 183.123491 
L 74.195154 182.99903 
L 74.282524 182.957014 
L 74.326209 182.764376 
L 74.41358 182.807185 
L 74.50095 182.742972 
L 74.544636 182.800842 
L 74.719377 182.72791 
L 74.937803 182.621681 
L 75.068859 182.829382 
L 75.199914 182.823832 
L 75.2436 182.971283 
L 75.287285 182.895972 
L 75.549397 182.813527 
L 75.680452 182.796879 
L 75.767823 182.761205 
L 75.898879 182.386235 
L 75.942564 182.406846 
L 76.117305 182.307753 
L 76.292046 182.318851 
L 76.423102 182.127798 
L 76.554157 181.950223 
L 76.685213 181.971627 
L 76.772584 182.192011 
L 76.816269 182.062793 
L 77.165751 181.993824 
L 77.296807 182.019192 
L 77.471548 182.365623 
L 77.733659 182.431422 
L 77.864715 182.402883 
L 78.039456 182.39337 
L 78.257883 182.407639 
L 78.345253 182.68193 
L 78.388938 182.662112 
L 78.607365 182.637536 
L 78.913161 182.56936 
L 79.175273 182.504354 
L 79.306329 182.203902 
L 79.524755 182.202317 
L 80.005293 182.308545 
L 80.092663 182.267323 
L 80.180034 182.164265 
L 80.223719 182.221343 
L 81.14111 182.553505 
L 81.446906 182.494841 
L 81.665333 182.272872 
L 82.014815 182.298239 
L 82.189556 182.310924 
L 82.364297 182.325193 
L 82.407982 182.56936 
L 82.495353 182.553505 
L 83.281687 182.634365 
L 83.412743 182.36166 
L 83.674855 182.384649 
L 84.54856 182.291898 
L 85.029098 182.490878 
L 85.072783 182.50594 
L 85.160153 182.329157 
L 85.203839 182.397333 
L 85.46595 182.414774 
L 85.553321 182.269701 
L 85.597006 182.4885 
L 85.640691 182.351354 
L 85.771747 182.318059 
L 85.946488 182.524966 
L 85.990173 182.527344 
L 86.164914 182.930853 
L 86.2086 182.911035 
L 86.252285 182.845236 
L 86.339655 182.907071 
L 86.383341 182.907864 
L 86.470711 183.125869 
L 86.514396 182.924512 
L 86.601767 183.044217 
L 86.776508 183.096538 
L 86.951249 183.16075 
L 87.082305 183.026776 
L 87.344416 183.360524 
L 87.475472 183.484192 
L 87.693898 183.675245 
L 88.567604 184.298345 
L 88.829715 184.617823 
L 89.004456 185.271841 
L 89.135512 185.43594 
L 89.441309 186.465721 
L 89.659735 187.531968 
L 90.620811 191.432292 
L 91.101348 196.492406 
L 92.062424 208.847391 
L 92.324536 209.934249 
L 92.411906 209.873207 
L 92.586647 209.125646 
L 92.892444 206.037098 
L 93.984576 194.306006 
L 94.508799 190.293112 
L 94.989336 187.826077 
L 95.033022 187.905353 
L 95.076707 187.757108 
L 95.688301 186.060626 
L 95.950412 185.368556 
L 96.168838 184.679657 
L 96.736747 183.689514 
L 96.867803 183.576944 
L 96.911488 183.932095 
L 96.955173 183.749763 
L 97.26097 183.511938 
L 97.566767 183.670488 
L 98.003619 183.090196 
L 98.134675 182.99903 
L 98.353101 182.59552 
L 98.396787 182.761205 
L 98.484157 182.678759 
L 98.702583 182.654977 
L 98.833639 182.738216 
L 99.052065 182.714433 
L 99.270492 182.851578 
L 99.357862 182.566189 
L 99.401548 182.577287 
L 99.576289 182.536857 
L 99.8384 182.490878 
L 100.100512 182.058037 
L 100.362623 182.058829 
L 100.537364 182.081027 
L 100.58105 182.339462 
L 100.66842 182.302204 
L 100.755791 182.299825 
L 100.974217 182.685894 
L 101.323699 182.653391 
L 101.49844 182.224514 
L 101.760551 182.255431 
L 101.891607 182.130177 
L 101.935293 182.106395 
L 101.978978 182.362452 
L 102.066348 182.240369 
L 102.241089 182.187255 
L 102.32846 182.372758 
L 102.372145 182.345012 
L 102.852683 182.363245 
L 102.983739 182.106395 
L 103.027424 182.135726 
L 103.15848 182.299825 
L 103.333221 182.26653 
L 103.464277 182.379893 
L 103.595332 182.297447 
L 103.813759 182.280799 
L 103.857444 182.12542 
L 103.901129 182.247504 
L 103.944814 182.301411 
L 103.9885 182.13097 
L 104.07587 182.156338 
L 104.250611 182.178534 
L 104.294296 182.08499 
L 104.469037 182.418737 
L 104.731149 182.540028 
L 104.81852 182.774682 
L 104.862205 182.72791 
L 104.993261 182.750106 
L 105.080631 182.693822 
L 105.124316 182.732666 
L 105.211687 182.752485 
L 105.342743 182.525759 
L 105.692225 182.452033 
L 105.866966 182.367209 
L 105.954336 182.449655 
L 105.998022 182.325193 
L 106.478559 182.215001 
L 106.609615 182.494841 
L 106.871727 182.487707 
L 107.002782 182.581251 
L 107.308579 182.574116 
L 107.39595 182.620096 
L 107.439635 182.387028 
L 107.527006 182.426665 
L 107.701747 182.40209 
L 107.963858 182.405261 
L 108.22597 182.437764 
L 108.31334 182.654977 
L 108.357025 182.630401 
L 109.14336 182.629609 
L 109.274416 182.433007 
L 109.711268 182.510696 
L 109.798639 182.784987 
L 109.842324 182.695407 
L 110.191806 182.828589 
L 110.322862 182.837309 
L 110.453918 182.998237 
L 110.628659 183.064828 
L 110.672344 182.881703 
L 110.716029 182.919755 
L 110.89077 183.075133 
L 110.934456 182.927682 
L 111.021826 183.00775 
L 111.371308 183.41443 
L 111.808161 183.593591 
L 111.939217 183.871847 
L 112.070272 183.886116 
L 112.943978 184.526657 
L 113.031348 184.711367 
L 113.075033 184.605139 
L 113.38083 185.015783 
L 113.948739 186.810566 
L 114.254535 188.396857 
L 114.778758 191.432292 
L 115.12824 194.840319 
L 115.652464 202.208123 
L 116.220372 208.813303 
L 116.264057 208.879101 
L 116.526169 209.969923 
L 116.569854 210.005597 
L 116.613539 209.948519 
L 116.744595 209.376155 
L 117.050392 206.460426 
L 118.011468 195.973949 
L 118.797802 189.562198 
L 118.841487 189.566161 
L 119.627822 186.167647 
L 120.283101 184.628129 
L 120.414157 184.445797 
L 120.588898 184.098572 
L 122.030511 182.986346 
L 122.248938 182.498805 
L 122.511049 182.360867 
L 122.68579 182.322815 
L 122.904216 182.271286 
L 122.947902 182.260188 
L 123.122643 182.574116 
L 123.297384 182.556676 
L 123.472125 182.645464 
L 123.865292 182.570152 
L 124.258459 182.439349 
L 124.389515 182.369587 
L 124.607942 182.317266 
L 125.17585 182.040596 
L 125.26322 181.828932 
L 125.306906 181.871741 
L 125.481647 181.893938 
L 125.656388 181.939917 
L 125.874814 181.942296 
L 126.224296 182.498805 
L 126.399037 182.47423 
L 126.486408 182.742972 
L 126.530093 182.669246 
L 126.704834 182.623267 
L 126.966945 182.589971 
L 127.010631 182.395748 
L 127.098001 182.439349 
L 127.229057 182.425079 
L 127.316428 182.475815 
L 127.403798 182.228478 
L 127.447483 182.274457 
L 127.796965 182.548749 
L 127.971706 182.366416 
L 128.146447 182.28397 
L 128.452244 182.1167 
L 128.49593 182.128591 
L 128.670671 181.852715 
L 128.758041 181.97242 
L 128.889097 182.082612 
L 129.282264 182.169814 
L 129.369635 182.270493 
L 129.41332 182.195975 
L 130.461766 182.245918 
L 130.636507 182.337877 
L 131.379157 182.383856 
L 131.422842 182.240369 
L 131.510212 182.28397 
L 131.641268 182.26653 
L 131.684953 182.262566 
L 131.816009 182.368002 
L 132.034435 182.364831 
L 132.209176 182.390991 
L 132.514973 182.636744 
L 132.995511 182.608998 
L 133.213937 182.568567 
L 133.432364 182.564603 
L 133.563419 182.259395 
L 133.607105 182.281592 
L 133.825531 182.596313 
L 134.087643 182.566982 
L 134.218698 182.392577 
L 134.306069 182.425079 
L 134.349754 182.250675 
L 134.393439 182.50594 
L 134.437125 182.505147 
L 134.56818 182.759619 
L 134.699236 182.525759 
L 135.005033 182.73663 
L 135.136089 182.989517 
L 135.572941 183.019641 
L 135.835053 183.138554 
L 135.966109 183.27015 
L 136.14085 183.749763 
L 136.315591 183.909106 
L 136.359276 183.833794 
L 136.402961 183.936852 
L 136.577702 184.196081 
L 136.883499 184.561538 
L 136.927184 184.349081 
L 137.014555 184.438662 
L 137.80089 186.023367 
L 138.019316 186.713851 
L 138.281427 187.573191 
L 138.499854 188.815428 
L 138.893021 191.200016 
L 139.329874 194.994904 
L 140.596746 209.270719 
L 140.727802 209.510922 
L 140.771487 209.487139 
L 140.902543 208.879101 
L 141.077284 207.594849 
L 141.514136 202.361124 
L 142.082045 196.199882 
L 142.999435 189.268088 
L 143.479973 186.926308 
L 144.441049 184.425978 
L 144.61579 184.101744 
L 144.659475 184.13821 
L 144.70316 184.302309 
L 144.746846 184.243645 
L 145.052642 183.825074 
L 145.227383 183.702991 
L 145.314754 183.652255 
L 145.970033 183.027569 
L 146.101089 182.93561 
L 146.232144 182.82304 
L 146.27583 183.082268 
L 146.3632 183.022019 
L 146.406885 183.017263 
L 146.494256 183.218621 
L 146.537941 183.193253 
L 146.581626 183.190875 
L 146.712682 182.964149 
L 146.931108 182.884874 
L 147.062164 182.505147 
L 147.10585 182.526551 
L 147.149535 182.509111 
L 147.280591 182.22055 
L 147.324276 182.217379 
L 147.411646 181.962907 
L 147.455332 182.006508 
L 147.499017 182.019192 
L 147.586387 182.207074 
L 147.630073 182.192804 
L 147.848499 182.143653 
L 147.979555 182.45679 
L 148.02324 182.416359 
L 148.285351 182.346597 
L 148.416407 182.333913 
L 148.591148 182.271286 
L 148.896945 182.219757 
L 149.115371 182.237198 
L 149.159057 182.073099 
L 149.246427 182.114322 
L 149.508539 182.080234 
L 149.77065 182.175364 
L 150.032762 181.997788 
L 150.076447 182.154752 
L 150.120132 182.011265 
L 150.294873 181.815456 
L 150.556985 181.823383 
L 151.037523 181.897901 
L 151.212264 182.092917 
L 151.474375 182.054073 
L 151.518061 182.022363 
L 151.605431 182.289519 
L 151.649116 182.278421 
L 151.911228 182.412396 
L 151.954913 182.6962 
L 152.042284 182.540028 
L 152.26071 182.559847 
L 152.34808 182.295861 
L 152.391766 182.501183 
L 152.435451 182.525759 
L 152.522822 182.235612 
L 152.566507 182.264151 
L 152.697563 182.265737 
L 152.828618 182.217379 
L 152.872304 181.952601 
L 152.915989 182.157923 
L 153.134415 182.029498 
L 153.221786 182.176156 
L 153.265471 182.331535 
L 153.309156 182.113529 
L 153.746009 182.182499 
L 153.877065 182.147618 
L 154.051806 182.234027 
L 154.488658 182.187255 
L 154.794455 182.169021 
L 155.274993 182.019192 
L 155.406049 182.172193 
L 155.711845 182.134933 
L 155.886586 182.135726 
L 156.105013 182.159509 
L 156.148698 182.316473 
L 156.192383 182.13969 
L 156.323439 181.989068 
L 156.541865 182.119871 
L 156.847662 182.045353 
L 156.978718 182.270493 
L 157.284515 182.343426 
L 157.502941 182.3244 
L 157.633997 182.494048 
L 157.939794 182.317266 
L 157.983479 182.380686 
L 158.114535 182.253846 
L 158.24559 182.284763 
L 158.944554 182.519416 
L 159.07561 182.852371 
L 159.119296 182.712055 
L 161.041447 184.131075 
L 161.609355 185.282147 
L 161.784096 185.695961 
L 161.827782 185.647604 
L 162.002523 186.02733 
L 162.614116 188.047254 
L 163.050969 190.762419 
L 164.798379 209.996084 
L 164.88575 210.169695 
L 165.278917 207.642414 
L 165.453658 205.883305 
L 165.890511 200.046298 
L 166.851586 190.938409 
L 167.419495 187.436838 
L 167.46318 187.398786 
L 167.812662 186.290523 
L 167.900032 186.0963 
L 168.598997 184.610688 
L 168.904793 184.177847 
L 169.035849 183.976489 
L 169.079534 184.167541 
L 169.12322 184.119184 
L 169.166905 184.044666 
L 169.21059 184.161993 
L 169.95324 183.427907 
L 170.127981 182.994273 
L 170.433777 182.657355 
L 170.477463 182.875361 
L 170.564833 182.830174 
L 170.783259 182.759619 
L 170.958 182.689857 
L 171.176427 182.65022 
L 171.307483 182.582837 
L 171.351168 182.703335 
L 171.525909 182.174571 
L 171.78802 182.123042 
L 172.181188 182.08499 
L 172.312244 182.062001 
L 172.443299 182.30696 
L 172.486985 182.291898 
L 173.054893 181.947052 
L 173.229634 182.018399 
L 173.317004 182.101638 
L 173.36069 182.065171 
L 173.666487 182.023948 
L 173.797542 182.178534 
L 174.627562 182.135726 
L 174.802303 182.417945 
L 175.064415 182.414774 
L 175.501267 182.443313 
L 175.93812 182.157131 
L 176.243917 182.127006 
L 176.418658 182.043767 
L 176.637084 182.042182 
L 178.122383 181.908207 
L 178.166068 181.715569 
L 178.253439 181.832104 
L 178.471865 181.830518 
L 179.039773 181.932782 
L 179.170829 182.119871 
L 179.34557 182.049316 
L 179.476626 182.027912 
L 179.738737 182.111944 
L 180.131905 182.121457 
L 180.394016 182.365623 
L 180.656128 182.346597 
L 180.961925 182.3791 
L 181.09298 182.679552 
L 181.617204 182.636744 
L 181.660889 182.436971 
L 181.748259 182.493256 
L 181.879315 182.436178 
L 182.010371 182.13097 
L 182.534594 182.319644 
L 182.578279 182.576495 
L 182.66565 182.461546 
L 182.75302 182.444105 
L 182.971447 182.963356 
L 183.146188 182.972076 
L 183.320929 182.983968 
L 183.49567 182.953843 
L 183.757781 183.266186 
L 183.801466 183.012507 
L 183.888837 183.051351 
L 184.456745 183.57298 
L 184.500431 183.504804 
L 184.587801 183.263015 
L 184.631486 183.321678 
L 185.374136 184.13821 
L 185.548877 184.777166 
L 186.553638 187.337744 
L 186.99049 189.398099 
L 187.339972 191.730365 
L 187.864195 197.297046 
L 188.912642 209.316698 
L 189.087383 209.678984 
L 189.305809 208.9885 
L 189.611606 205.820678 
L 190.878478 192.138631 
L 191.402701 188.671148 
L 192.101665 186.089958 
L 192.625889 185.087923 
L 193.412223 183.689514 
L 193.805391 183.38827 
L 194.111187 183.292347 
L 194.154873 183.694271 
L 194.242243 183.55554 
L 194.810151 183.013299 
L 195.028578 183.03074 
L 195.159634 182.676381 
L 195.37806 182.658148 
L 195.421745 182.827003 
L 195.509116 182.796879 
L 195.683857 182.906278 
L 195.727542 182.723153 
L 195.771227 182.988724 
L 195.902283 182.857921 
L 196.033339 182.711262 
L 196.120709 182.708884 
L 196.164394 182.980004 
L 196.251765 182.96177 
L 196.29545 182.945915 
L 196.426506 182.660526 
L 196.601247 182.628816 
L 196.644932 182.765169 
L 196.688618 182.444898 
L 196.732303 182.70492 
L 196.950729 182.849993 
L 197.081785 182.445691 
L 197.12547 182.467095 
L 197.256526 182.703335 
L 197.300211 182.695407 
L 197.431267 182.500391 
L 197.606008 182.523381 
L 197.693379 182.239576 
L 197.737064 182.247504 
L 197.86812 182.264151 
L 197.999175 182.327572 
L 198.042861 182.297447 
L 198.173916 182.046146 
L 198.217602 182.052488 
L 198.479713 182.506733 
L 198.698139 182.357696 
L 198.960251 182.413189 
L 199.047622 182.396541 
L 199.222363 182.205488 
L 199.266048 182.214208 
L 199.309733 181.987482 
L 199.397104 182.118285 
L 199.965012 182.104016 
L 200.096068 182.291105 
L 201.144514 181.77344 
L 201.537681 181.828932 
L 201.668737 182.133348 
L 201.712422 182.111151 
L 201.756108 182.090539 
L 201.887163 182.461546 
L 201.930849 182.420323 
L 202.367701 182.392577 
L 202.498757 182.268115 
L 202.629813 182.128591 
L 202.673498 182.12542 
L 202.804554 181.881254 
L 202.979295 181.952601 
L 203.197721 181.974005 
L 203.94037 182.437764 
L 204.071426 182.333913 
L 204.289853 182.386235 
L 204.901446 182.23482 
L 205.032502 182.184084 
L 205.425669 182.108773 
L 205.556725 181.993031 
L 206.212004 182.335499 
L 206.561486 182.67321 
L 207.653617 182.83176 
L 208.134155 183.19246 
L 208.308896 183.224171 
L 208.527323 183.439798 
L 208.745749 183.556332 
L 208.92049 183.671281 
L 209.051546 183.820318 
L 209.269972 184.099365 
L 209.619454 184.644776 
L 209.794195 185.19098 
L 210.231048 186.172403 
L 211.104753 189.521767 
L 211.672661 193.389588 
L 212.721107 206.905158 
L 212.852163 207.965855 
L 213.114275 209.812166 
L 213.201645 210.013524 
L 213.24533 209.984985 
L 213.507442 208.505717 
L 213.900609 203.971196 
L 214.555888 196.597049 
L 215.429593 189.532073 
L 215.910131 187.152241 
L 216.56541 185.095058 
L 216.652781 184.969803 
L 217.308059 183.833794 
L 217.39543 183.890872 
L 217.744912 183.529379 
L 218.007024 183.330399 
L 218.094394 183.040253 
L 218.181765 183.067999 
L 218.618617 182.838895 
L 218.749673 183.059279 
L 218.880729 182.908657 
L 218.924414 182.928475 
L 219.011785 183.076719 
L 219.05547 183.060071 
L 219.448637 182.684308 
L 219.536008 182.624852 
L 219.667063 182.316473 
L 219.798119 182.435385 
L 219.97286 182.306167 
L 220.584454 182.417945 
L 220.977621 182.201524 
L 221.327103 182.111151 
L 221.458159 182.156338 
L 221.589215 181.946259 
L 221.807641 182.167436 
L 222.288179 182.272872 
L 222.419235 182.709676 
L 222.46292 182.680345 
L 222.506605 182.855542 
L 222.593976 182.815112 
L 223.030828 182.776267 
L 223.161884 182.815905 
L 223.205569 183.055315 
L 223.249255 182.765169 
L 223.423996 182.78578 
L 224.079274 182.727117 
L 224.21033 182.400504 
L 224.428757 182.490085 
L 224.647183 182.559847 
L 224.821924 182.581251 
L 226.045111 182.551919 
L 226.176167 182.502769 
L 226.481964 182.524966 
L 226.656705 182.463924 
L 227.180928 182.656562 
L 227.311984 182.501183 
L 227.53041 182.513075 
L 228.098318 182.426665 
L 228.229374 182.566189 
L 228.404115 182.635158 
L 228.535171 182.491671 
L 228.578856 182.477401 
L 228.709912 182.328364 
L 229.27782 182.105602 
L 229.321505 182.065964 
L 229.452561 182.182499 
L 229.802043 182.382271 
L 229.933099 182.40209 
L 230.064155 182.544784 
L 230.501007 182.65022 
L 230.85049 182.815905 
L 231.593139 183.000615 
L 231.76788 183.004579 
L 232.335788 183.353389 
L 232.423159 183.694271 
L 232.466844 183.678416 
L 232.641585 183.792571 
L 232.728956 183.8988 
L 232.772641 183.859955 
L 233.122123 184.105707 
L 233.253179 184.300724 
L 233.296864 184.104915 
L 233.340549 184.133453 
L 233.602661 184.466408 
L 234.34531 185.948056 
L 234.825848 187.573984 
L 234.869533 187.557336 
L 235.08796 188.697309 
L 235.655868 191.91904 
L 236.049035 195.640202 
L 237.272222 209.44116 
L 237.403278 209.710694 
L 237.75276 207.820782 
L 238.233298 202.176414 
L 238.713836 197.229663 
L 239.893338 188.20739 
L 240.504932 186.045564 
L 241.378637 184.268221 
L 241.553378 184.057349 
L 241.640748 183.624509 
L 241.684434 183.834587 
L 241.815489 183.742628 
L 241.946545 183.965391 
L 242.339712 183.578529 
L 242.470768 183.474679 
L 242.558139 183.718053 
L 242.601824 183.44614 
L 242.645509 183.599934 
L 242.73288 183.638778 
L 242.776565 183.343876 
L 242.82025 183.568223 
L 243.519214 183.308995 
L 243.65027 182.849993 
L 243.693955 182.846029 
L 243.868696 182.251468 
L 243.956067 182.179327 
L 243.999752 182.354525 
L 244.087123 182.258602 
L 244.174493 182.259395 
L 244.261864 182.079441 
L 244.305549 182.111151 
L 244.349234 182.128591 
L 244.39292 182.023156 
L 244.436605 182.042974 
L 244.523975 182.180913 
L 244.567661 182.157131 
L 244.742402 182.308545 
L 244.786087 182.438557 
L 244.873457 182.358488 
L 245.004513 182.360867 
L 245.921904 182.471059 
L 246.402441 182.314887 
L 246.533497 182.150788 
L 248.149852 182.320437 
L 248.324593 182.202317 
L 248.455649 182.180913 
L 249.023557 182.209452 
L 249.154613 182.498013 
L 249.46041 182.475023 
L 249.940947 182.45996 
L 249.984633 182.230063 
L 250.072003 182.258602 
L 250.115688 182.267323 
L 250.203059 182.501183 
L 250.246744 182.470266 
L 250.552541 182.520209 
L 250.683597 182.688272 
L 250.770967 182.68193 
L 250.902023 182.493256 
L 251.164135 182.344219 
L 251.29519 182.299032 
L 251.426246 182.54637 
L 251.557302 182.574909 
L 251.688358 182.846029 
L 251.732043 182.833345 
L 251.775728 182.990309 
L 251.863099 182.955428 
L 251.906784 182.976833 
L 251.950469 182.883289 
L 251.994154 182.797672 
L 252.03784 182.870604 
L 252.212581 182.914206 
L 252.299951 182.652599 
L 252.343637 182.662112 
L 252.474692 182.674795 
L 252.518378 182.455204 
L 252.562063 182.71364 
L 253.173656 182.564603 
L 253.392083 182.612961 
L 253.435768 182.573324 
L 253.566824 182.349768 
L 253.69788 182.640707 
L 253.916306 182.578873 
L 254.047362 182.775474 
L 254.134732 182.612961 
L 254.309473 182.57808 
L 254.484214 182.619303 
L 254.527899 182.237198 
L 254.61527 182.311717 
L 254.746326 182.380686 
L 254.921067 182.100052 
L 254.964752 182.073099 
L 255.139493 182.428251 
L 255.226864 182.464717 
L 255.357919 183.035496 
L 255.401605 182.932439 
L 255.620031 183.408088 
L 256.100569 183.744214 
L 256.144254 183.733115 
L 256.27531 183.286798 
L 256.36268 183.461995 
L 256.581107 183.024398 
L 256.974274 183.358938 
L 257.149015 183.878981 
L 257.280071 183.963012 
L 257.498497 184.470372 
L 257.891664 184.930959 
L 257.93535 184.731186 
L 258.02272 184.799362 
L 258.721684 186.492674 
L 259.508019 189.509084 
L 260.032242 193.539418 
L 261.080688 207.008215 
L 261.473856 210.057125 
L 261.604911 210.069809 
L 261.823338 208.922702 
L 262.085449 206.127472 
L 263.221266 194.095927 
L 263.789174 189.979976 
L 264.313397 187.692103 
L 265.012361 185.431976 
L 265.755011 184.318957 
L 266.060808 183.97966 
L 266.191863 183.687136 
L 266.366604 183.25588 
L 266.541345 183.107636 
L 266.890828 182.584422 
L 267.152939 183.185326 
L 267.196624 183.148859 
L 267.589792 182.901522 
L 267.677162 183.07989 
L 267.720847 183.06562 
L 267.982959 183.168678 
L 268.07033 182.827796 
L 268.114015 182.838895 
L 268.507182 182.869811 
L 268.681923 182.636744 
L 268.944035 182.551919 
L 268.98772 182.765169 
L 269.07509 182.733459 
L 269.206146 182.735044 
L 269.424573 182.672417 
L 269.861425 182.494048 
L 269.992481 182.292691 
L 270.429333 182.13097 
L 271.47778 182.449655 
L 272.002003 182.257017 
L 272.133059 182.077855 
L 272.220429 182.064379 
L 272.3078 182.329157 
L 272.351485 182.301411 
L 272.919393 182.18012 
L 273.050449 182.382271 
L 273.137819 182.319644 
L 273.22519 182.054073 
L 273.268875 182.074684 
L 273.530987 182.107187 
L 273.967839 182.32995 
L 274.404692 182.455204 
L 274.579433 182.386235 
L 274.666804 182.469473 
L 274.88523 182.126213 
L 275.409453 182.126213 
L 275.627879 182.180913 
L 275.671564 182.186462 
L 275.846305 182.522588 
L 276.021047 182.553505 
L 276.195788 182.639914 
L 276.370529 182.513075 
L 276.414214 182.480572 
L 276.54527 182.694614 
L 276.720011 182.654184 
L 276.938437 182.314095 
L 277.069493 182.207074 
L 277.156863 182.351354 
L 277.244234 182.223721 
L 277.331604 182.213415 
L 277.46266 181.981933 
L 277.637401 182.075477 
L 277.812142 182.146825 
L 277.986883 182.372758 
L 278.074254 182.295069 
L 278.248995 182.51466 
L 278.423736 182.501976 
L 278.729533 182.608998 
L 278.904274 182.559054 
L 278.947959 182.605826 
L 278.991644 182.549541 
L 279.1227 182.561432 
L 279.297441 182.657355 
L 279.384811 182.692236 
L 279.559552 182.601863 
L 279.603238 182.543199 
L 279.821664 183.147274 
L 279.909034 183.198803 
L 280.214831 183.473886 
L 280.302202 183.501632 
L 280.433258 184.008199 
L 280.520628 184.090645 
L 280.695369 183.737079 
L 280.826425 183.825867 
L 281.001166 184.401403 
L 281.088536 184.355423 
L 281.132222 184.389511 
L 281.219592 184.427563 
L 281.350648 184.177055 
L 281.743815 184.605139 
L 281.831186 184.177847 
L 281.874871 184.228583 
L 282.224353 184.607517 
L 282.442779 185.091887 
L 282.661206 185.436733 
L 283.491226 188.437287 
L 284.539672 197.606218 
L 285.631803 209.988949 
L 285.762859 210.200613 
L 285.9376 209.661544 
L 286.199712 207.115236 
L 287.641325 191.908734 
L 288.121863 188.713956 
L 288.689771 186.391202 
L 288.733457 186.41657 
L 289.082939 185.379655 
L 289.082939 185.379655 
" clip-path="url(#pe2fa213eff)" style="fill: none; stroke: #1a1a2e; stroke-width: 0.8; stroke-linecap: square"/>
   </g>
   <g id="line2d_16">
    <path d="M 533.76407 86.79162 
L 533.895126 86.903398 
L 533.938811 86.796377 
L 534.026182 86.85504 
L 534.419349 87.504304 
L 535.074628 89.295925 
L 535.467795 90.529447 
L 535.686221 91.332505 
L 536.297815 93.141565 
L 536.3415 93.544283 
L 536.428871 93.495133 
L 536.603612 93.878824 
L 537.127835 95.417556 
L 537.477317 97.529447 
L 537.826799 102.023557 
L 538.088911 107.679046 
L 538.351022 117.764425 
L 538.569448 136.65566 
L 538.83156 189.201423 
L 539.355783 280.246201 
L 539.486839 287.8875 
L 539.530524 286.616725 
L 539.705265 262.483894 
L 540.710026 100.457869 
L 540.972138 92.494679 
L 541.32162 88.564214 
L 541.452675 87.999774 
L 541.671102 87.422651 
L 541.714787 87.465459 
L 541.889528 86.894678 
L 542.501122 86.753568 
L 543.06903 87.367158 
L 544.554329 91.121633 
L 544.72907 91.84383 
L 544.903811 92.296492 
L 544.947496 92.210874 
L 544.991181 92.342471 
L 545.165922 92.669085 
L 545.209608 92.491509 
L 545.253293 92.606458 
L 545.428034 92.814159 
L 545.602775 92.871237 
L 545.821201 93.784487 
L 546.47648 99.949718 
L 546.913333 108.753225 
L 547.175444 120.31074 
L 547.393871 142.855752 
L 548.267576 287.856583 
L 548.354946 282.605421 
L 548.704428 220.488842 
L 549.359707 109.013239 
L 549.665504 94.797623 
L 549.971301 89.528993 
L 550.233412 87.662062 
L 550.539209 86.587882 
L 550.582894 86.602945 
L 550.62658 86.65051 
L 550.670265 86.583919 
L 550.757635 86.55538 
L 550.845006 86.718687 
L 550.888691 86.690148 
L 551.019747 86.530012 
L 551.150803 86.493545 
L 551.587655 86.727407 
L 551.675026 86.831258 
L 551.718711 86.707588 
L 551.762396 86.809853 
L 552.810843 89.408495 
L 552.854528 89.454475 
L 553.029269 89.81597 
L 553.728233 91.162856 
L 553.859289 91.140659 
L 554.03403 91.894566 
L 554.077715 91.866027 
L 554.208771 92.105438 
L 554.252456 92.107023 
L 554.383512 92.863309 
L 554.820364 95.38426 
L 555.169847 98.945302 
L 555.475643 103.457645 
L 555.78144 111.640424 
L 555.999866 123.444482 
L 556.174607 143.413055 
L 557.048313 287.586256 
L 557.135683 281.723885 
L 557.485165 218.324638 
L 558.140444 107.337363 
L 558.446241 93.567272 
L 558.752038 88.383467 
L 559.014149 86.6188 
L 559.363631 85.780068 
L 559.494687 85.870441 
L 559.538372 85.827633 
L 559.756799 85.734088 
L 560.499448 86.54983 
L 560.630504 86.861382 
L 560.805245 87.562175 
L 561.111042 88.163081 
L 561.329468 88.547566 
L 561.373153 88.676785 
L 561.547894 89.590828 
L 561.591579 89.425936 
L 561.635265 89.558325 
L 562.290544 91.326956 
L 562.334229 90.879051 
L 562.421599 91.006684 
L 562.858452 92.500229 
L 562.902137 92.46297 
L 563.207934 93.715518 
L 563.775842 96.650285 
L 564.387436 105.81608 
L 564.649548 114.80905 
L 564.867974 131.130987 
L 565.0864 170.930945 
L 565.697994 280.605317 
L 565.82905 287.623515 
L 565.91642 281.74529 
L 566.265902 218.722598 
L 566.921181 107.277907 
L 567.226978 93.629107 
L 567.532775 88.490488 
L 568.013312 85.150623 
L 568.100683 85.084824 
L 568.144368 85.11257 
L 568.275424 85.018233 
L 568.40648 85.182332 
L 568.537536 85.01744 
L 568.755962 85.441563 
L 569.2365 86.067044 
L 569.804408 87.708834 
L 569.848093 87.627974 
L 569.891779 87.715969 
L 570.197575 88.568971 
L 570.372316 89.21982 
L 570.98391 90.43511 
L 571.027595 90.392301 
L 571.07128 90.474747 
L 571.770245 92.482788 
L 572.119727 94.069878 
L 572.294468 94.574068 
L 572.469209 96.096152 
L 572.687635 98.019368 
L 572.993432 102.162288 
L 573.255543 108.589124 
L 573.517655 120.32818 
L 573.736081 144.184399 
L 574.566101 287.516494 
L 574.609786 287.820909 
L 574.697157 281.344952 
L 575.090324 209.564764 
L 575.701918 106.725359 
L 576.007715 92.765007 
L 576.313511 87.536807 
L 576.662994 85.044394 
L 576.794049 84.769309 
L 576.837735 84.860475 
L 577.056161 84.803397 
L 577.274587 84.804983 
L 577.405643 84.956398 
L 577.580384 85.019026 
L 577.71144 85.359116 
L 577.79881 85.259229 
L 577.842496 85.310758 
L 578.017237 85.566025 
L 578.235663 86.132843 
L 578.847256 87.763534 
L 579.45885 89.073161 
L 579.633591 89.467951 
L 580.026758 90.622992 
L 580.332555 91.950059 
L 580.769408 93.193887 
L 580.900464 94.064328 
L 580.944149 94.019141 
L 581.031519 94.188791 
L 581.11889 94.572483 
L 581.468372 97.640433 
L 581.861539 103.424349 
L 582.167336 112.782778 
L 582.385762 127.182299 
L 582.560503 153.032267 
L 583.215782 276.444182 
L 583.390523 287.057493 
L 583.477894 280.295354 
L 583.871061 208.204408 
L 584.482655 106.70237 
L 584.744766 93.901813 
L 585.050563 88.102039 
L 585.137934 87.637486 
L 585.35636 85.882333 
L 585.400045 85.69445 
L 585.44373 85.926727 
L 585.487416 85.808607 
L 585.749527 85.191053 
L 585.793213 85.317893 
L 585.836898 85.215628 
L 585.967954 85.180747 
L 586.142695 84.681313 
L 586.27375 84.524348 
L 586.317436 84.510078 
L 586.404806 84.16761 
L 586.448491 84.221517 
L 586.754288 84.503737 
L 587.0164 85.076104 
L 587.627993 87.039751 
L 589.419089 91.640093 
L 589.637515 92.68494 
L 589.899627 93.986639 
L 590.380165 98.258779 
L 590.685961 103.815968 
L 590.948073 112.222303 
L 591.166499 126.517181 
L 591.34124 152.588327 
L 591.996519 275.844865 
L 592.17126 286.673804 
L 592.258631 279.757871 
L 592.695483 198.383835 
L 593.263392 105.318225 
L 593.569188 91.629786 
L 593.874985 86.897849 
L 594.137097 85.543034 
L 594.180782 85.514496 
L 594.355523 84.740769 
L 594.573949 84.383238 
L 594.617635 84.428425 
L 594.792376 84.349942 
L 594.923431 83.940089 
L 594.967117 83.955152 
L 595.098173 83.820384 
L 595.229228 84.02095 
L 595.403969 84.425254 
L 595.709766 84.684484 
L 596.233989 85.920385 
L 597.195065 88.553908 
L 597.457176 89.169084 
L 597.675603 89.646321 
L 597.719288 89.76999 
L 597.762973 89.673274 
L 597.806659 89.664554 
L 598.025085 90.186978 
L 598.06877 90.090262 
L 598.549308 91.901701 
L 598.592993 91.955608 
L 598.855105 93.884374 
L 599.248272 98.732844 
L 599.554069 105.505321 
L 599.81618 116.304177 
L 600.034607 136.743653 
L 600.427774 218.147048 
L 600.864627 284.421607 
L 600.908312 286.359083 
L 600.951997 286.3353 
L 601.039368 279.147456 
L 601.519905 188.419775 
L 602.000443 108.559784 
L 602.30624 93.165347 
L 602.612037 87.58675 
L 603.005204 84.698754 
L 603.485742 83.531029 
L 603.529427 83.600792 
L 603.616798 83.842581 
L 603.660483 83.828311 
L 603.704168 83.883011 
L 603.747854 83.821969 
L 603.835224 83.682445 
L 604.009965 83.871912 
L 604.05365 83.899659 
L 604.228391 84.247677 
L 604.359447 84.463306 
L 604.446818 84.795469 
L 604.490503 84.64009 
L 604.534188 84.643261 
L 605.014726 85.827633 
L 605.102097 85.702378 
L 605.145782 85.820498 
L 605.407893 86.706795 
L 605.670005 87.432957 
L 605.71369 87.398868 
L 605.757376 87.478936 
L 605.975802 88.115516 
L 606.106858 88.548359 
L 606.237913 88.216196 
L 606.325284 88.367612 
L 606.762136 89.186524 
L 606.805822 89.134996 
L 606.893192 89.008948 
L 607.111619 90.139413 
L 607.504786 92.246548 
L 607.766897 94.987092 
L 608.29112 103.739071 
L 608.553232 113.348009 
L 608.771658 130.755221 
L 608.990085 172.273859 
L 609.557993 276.273741 
L 609.689049 286.527938 
L 609.732734 286.313104 
L 609.820105 278.921522 
L 610.256957 197.183613 
L 610.78118 108.225242 
L 611.043292 93.556965 
L 611.349089 87.717554 
L 611.567515 85.513703 
L 611.829626 84.46172 
L 612.135423 83.779161 
L 612.179108 83.935333 
L 612.222794 83.944053 
L 612.310164 83.673725 
L 612.35385 83.695129 
L 612.703332 83.600792 
L 612.878073 83.665797 
L 613.052814 83.781539 
L 613.096499 83.583351 
L 613.140184 83.624574 
L 613.839148 85.408267 
L 614.10126 86.230351 
L 614.756539 87.879276 
L 614.800224 87.845981 
L 614.843909 87.949831 
L 615.062336 88.273274 
L 615.324447 89.01529 
L 615.630244 89.748586 
L 615.717614 90.236128 
L 615.979726 91.88426 
L 616.110782 92.324238 
L 616.503949 95.306571 
L 616.940802 101.348132 
L 617.246598 110.242803 
L 617.465025 122.969624 
L 617.639766 144.853476 
L 618.4261 284.949577 
L 618.469786 286.614348 
L 618.513471 286.496228 
L 618.600841 278.663087 
L 619.081379 187.409812 
L 619.561917 107.581529 
L 619.867714 92.205324 
L 620.173511 86.621178 
L 620.391937 85.409852 
L 620.610363 84.462513 
L 620.654049 84.604416 
L 620.785104 84.457757 
L 620.959845 84.387995 
L 621.003531 84.542581 
L 621.090901 84.479954 
L 621.265642 84.023328 
L 621.527754 83.967835 
L 621.65881 83.746658 
L 621.74618 83.863192 
L 622.139347 84.641675 
L 622.445144 85.520838 
L 622.969367 86.596603 
L 623.231479 86.996943 
L 623.40622 87.379842 
L 623.449905 87.308495 
L 623.49359 87.434542 
L 623.886758 88.326388 
L 623.930443 88.28358 
L 624.105184 88.798076 
L 624.148869 88.741791 
L 624.454666 89.484599 
L 624.935204 91.692414 
L 625.15363 93.458666 
L 625.503112 97.094227 
L 626.027335 109.585612 
L 626.245762 122.278345 
L 626.420503 144.707609 
L 627.206837 284.52625 
L 627.250523 286.132358 
L 627.294208 285.646403 
L 627.425264 270.680909 
L 628.036857 150.217991 
L 628.386339 103.322078 
L 628.692136 90.347113 
L 628.997933 85.513703 
L 629.347415 83.189352 
L 629.653212 82.272138 
L 629.696897 82.298299 
L 629.784268 82.313361 
L 629.915323 82.150847 
L 630.22112 82.130236 
L 630.308491 82.196826 
L 630.570602 83.00702 
L 630.701658 83.232161 
L 631.05114 84.365005 
L 631.094825 84.342015 
L 632.449068 87.467045 
L 632.580124 87.637487 
L 633.060662 88.940771 
L 633.235403 89.591621 
L 633.672256 91.565574 
L 633.934367 93.262856 
L 634.327534 97.373275 
L 634.677016 104.596035 
L 634.939128 115.662841 
L 635.157554 137.098802 
L 636.031259 286.569954 
L 636.074945 286.004724 
L 636.206 270.777624 
L 636.773909 158.563261 
L 637.123391 106.373375 
L 637.429188 90.91393 
L 637.77867 85.409852 
L 638.128152 83.378028 
L 638.652375 82.494902 
L 638.870801 82.378367 
L 639.132913 82.444165 
L 639.263969 82.573384 
L 639.657136 83.135445 
L 640.137674 84.488674 
L 640.312415 85.25368 
L 640.530841 85.958437 
L 641.142435 87.463081 
L 641.18612 87.282334 
L 641.229805 87.362402 
L 641.928769 89.275313 
L 642.496678 91.608383 
L 643.283012 99.715064 
L 643.588809 108.600222 
L 643.807235 121.547428 
L 643.981976 144.425388 
L 644.724626 281.244273 
L 644.811996 285.653538 
L 644.855682 284.930552 
L 644.986737 269.396657 
L 646.122554 92.873613 
L 646.428351 85.912457 
L 646.734148 83.346318 
L 647.039945 82.186521 
L 647.651538 81.94156 
L 648.263132 82.432274 
L 648.612614 83.339183 
L 649.005781 84.369761 
L 649.835801 85.753907 
L 650.054227 86.691733 
L 650.185283 87.185618 
L 650.665821 88.545981 
L 650.753191 88.9376 
L 650.796877 88.829786 
L 650.971618 89.496491 
L 651.670582 93.994566 
L 651.976379 98.223897 
L 652.282176 105.536238 
L 652.544287 118.486619 
L 652.719028 137.446818 
L 653.592733 286.486715 
L 653.636419 285.528283 
L 653.767474 269.488616 
L 654.335383 156.84458 
L 654.684865 105.322187 
L 654.946976 91.708268 
L 655.252773 85.869648 
L 655.55857 83.687994 
L 655.995422 82.281651 
L 656.039108 82.300677 
L 656.170164 81.936804 
L 656.213849 81.946317 
L 656.344905 81.612568 
L 656.519646 81.822647 
L 656.956498 82.280858 
L 657.611777 83.697507 
L 658.660223 86.369876 
L 659.708669 88.653795 
L 660.058151 90.272595 
L 660.363948 92.589017 
L 660.800801 99.0658 
L 661.062912 105.560814 
L 661.325024 118.406551 
L 661.499765 137.540362 
L 662.37347 286.227487 
L 662.417155 285.190573 
L 662.548211 268.934485 
L 663.640343 94.101585 
L 663.946139 85.961608 
L 664.295622 82.338729 
L 664.557733 81.725931 
L 664.86353 81.282783 
L 664.907215 81.339861 
L 665.038271 81.419929 
L 665.081956 81.284368 
L 665.125641 81.309736 
L 665.256697 81.450054 
L 665.518809 81.521401 
L 665.78092 81.739408 
L 665.955661 82.080292 
L 666.261458 82.993543 
L 666.741996 84.288108 
L 667.004108 84.84462 
L 668.008868 87.605776 
L 668.052554 87.471801 
L 668.707833 89.265007 
L 669.406797 95.327975 
L 669.712594 101.157079 
L 669.974705 110.318114 
L 670.193131 126.127145 
L 670.411558 165.51171 
L 671.023151 278.720161 
L 671.154207 286.976633 
L 671.197892 285.817636 
L 671.328948 268.918629 
L 671.940542 146.4009 
L 672.246339 103.549594 
L 672.552135 88.893205 
L 672.814247 84.245299 
L 673.032673 82.854811 
L 673.469526 81.39139 
L 673.513211 81.598298 
L 673.731637 81.568966 
L 673.862693 81.616532 
L 673.993749 81.293881 
L 674.16849 81.278026 
L 674.343231 81.790144 
L 674.386916 81.826611 
L 674.430601 81.698978 
L 674.474287 81.766362 
L 674.823769 82.579726 
L 675.08588 83.246431 
L 675.129566 83.098186 
L 675.173251 83.215513 
L 675.522733 83.982105 
L 675.566418 83.927405 
L 675.82853 84.468855 
L 675.872215 84.47599 
L 676.134327 85.515288 
L 676.527494 86.442809 
L 676.702235 86.908154 
L 677.270143 88.207476 
L 677.532255 89.353002 
L 677.969107 92.334543 
L 678.318589 97.228201 
L 678.580701 103.466364 
L 678.886498 118.645168 
L 679.061239 138.658138 
L 679.934944 286.304384 
L 680.022314 281.141216 
L 680.328111 226.109428 
L 681.027075 103.640762 
L 681.332872 89.268177 
L 681.638669 84.036805 
L 681.988151 81.794901 
L 682.293948 81.201922 
L 682.337633 81.234425 
L 682.512374 81.184481 
L 682.64343 81.177347 
L 682.949227 80.937143 
L 683.036597 81.021967 
L 683.080283 80.892748 
L 683.167653 80.95934 
L 683.604506 81.698185 
L 685.482972 86.908947 
L 685.526657 86.84632 
L 685.919824 87.907815 
L 686.05088 88.051303 
L 686.094565 87.845981 
L 686.138251 88.006117 
L 686.444047 89.628087 
L 686.79353 92.544623 
L 687.055641 96.215065 
L 687.405123 104.537371 
L 687.667235 117.932485 
L 687.841976 138.004912 
L 688.715681 286.030093 
L 688.803051 280.575987 
L 689.108848 225.239783 
L 689.807812 104.053786 
L 690.113609 89.327633 
L 690.550462 82.683576 
L 690.856259 81.260586 
L 690.987314 80.811888 
L 691.031 81.030688 
L 691.074685 80.771457 
L 691.773649 80.735783 
L 691.904705 81.076667 
L 691.94839 80.887992 
L 691.992075 80.947448 
L 692.385243 81.614946 
L 694.482135 87.060363 
L 694.52582 86.992979 
L 694.569505 86.908154 
L 694.613191 87.023896 
L 694.656876 87.028653 
L 695.181099 88.932051 
L 695.399525 90.63409 
L 696.011119 99.521632 
L 696.273231 107.969192 
L 696.491657 121.857392 
L 696.710083 156.498157 
L 697.321677 273.727434 
L 697.496418 286.576296 
L 697.583788 280.904185 
L 697.93327 216.238121 
L 698.588549 102.909845 
L 698.894346 88.7735 
L 699.200143 83.64677 
L 699.724366 80.486859 
L 699.899107 80.407584 
L 700.117533 80.474968 
L 700.161219 80.408377 
L 700.204904 80.559 
L 700.292274 80.493994 
L 700.379645 80.528875 
L 700.554386 80.85866 
L 700.641756 80.757188 
L 700.903868 80.975987 
L 700.947553 80.863417 
L 700.991238 80.928422 
L 701.034924 80.983122 
L 701.297035 82.144505 
L 702.127055 83.863192 
L 702.17074 83.728424 
L 702.651278 84.498187 
L 702.869705 85.303623 
L 703.175501 86.08607 
L 704.005521 89.962629 
L 704.442374 93.423785 
L 704.748171 98.414158 
L 705.010282 106.232273 
L 705.228708 118.252756 
L 705.40345 138.872179 
L 706.233469 285.567128 
L 706.277155 286.121259 
L 706.364525 279.941789 
L 706.714007 215.550016 
L 707.369286 102.698181 
L 707.675083 88.490487 
L 707.98088 83.443826 
L 708.286677 81.205093 
L 708.330362 81.229668 
L 708.636159 80.721514 
L 709.073011 80.390143 
L 709.160382 80.46704 
L 709.335123 80.756395 
L 709.466179 80.903847 
L 709.72829 81.243938 
L 709.771975 81.308944 
L 709.990402 82.257076 
L 710.689366 84.032841 
L 710.733051 83.91155 
L 710.776736 83.984483 
L 711.344645 85.042015 
L 712.087294 86.533182 
L 712.436776 87.849944 
L 713.179425 93.315178 
L 713.485222 98.099435 
L 713.791019 106.903734 
L 714.009445 118.79579 
L 714.184186 139.736276 
L 715.014206 286.409026 
L 715.057892 286.768933 
L 715.145262 280.421401 
L 715.538429 207.041443 
L 716.150023 102.729891 
L 716.45582 88.244734 
L 716.761617 83.500112 
L 717.023728 81.848808 
L 717.28584 81.297053 
L 717.722692 80.85866 
L 717.766378 80.868966 
L 717.810063 80.612114 
L 717.897433 80.642239 
L 718.072174 80.700109 
L 718.11586 80.539181 
L 718.20323 80.604187 
L 718.683768 81.186859 
L 719.076935 82.455264 
L 719.120621 82.412455 
L 719.164306 82.401356 
L 720.169067 85.195809 
L 720.300123 85.771347 
L 720.343808 85.73171 
L 720.387493 85.676217 
L 720.431178 85.742016 
L 721.042772 87.623217 
L 721.348569 89.074747 
L 721.829107 91.90725 
L 722.222274 96.911893 
L 722.484385 103.539297 
L 722.746497 115.861028 
L 722.964923 140.148506 
L 723.794943 286.088756 
L 723.838628 286.391586 
L 723.925999 279.72299 
L 724.319166 205.898299 
L 724.93076 101.7992 
L 725.236557 87.716761 
L 725.542354 82.988786 
L 725.935521 80.647788 
L 726.022891 80.433744 
L 726.066577 80.659679 
L 726.153947 80.548694 
L 726.416059 80.263303 
L 726.503429 80.379044 
L 726.67817 80.356055 
L 726.852911 80.769872 
L 726.940282 80.775421 
L 726.983967 80.563756 
L 727.071338 80.685047 
L 727.377134 81.233632 
L 727.42082 81.061605 
L 727.595561 81.672024 
L 727.639246 81.568173 
L 727.682931 81.68788 
L 728.600322 83.850508 
L 728.906118 84.618686 
L 729.16823 85.240203 
L 729.386656 85.534314 
L 729.430342 85.463759 
L 729.474027 85.588221 
L 729.99825 87.157079 
L 730.304047 88.512685 
L 731.046696 97.251191 
L 731.352493 105.950847 
L 731.570919 118.379595 
L 731.74566 139.975685 
L 732.57568 286.172787 
L 732.619365 286.346399 
L 732.706736 279.388451 
L 733.099903 205.476555 
L 733.711497 101.742916 
L 734.017294 88.072706 
L 734.454146 81.50396 
L 734.803628 79.988218 
L 734.847314 79.909735 
L 734.890999 80.063529 
L 734.934684 80.032612 
L 735.022055 79.836009 
L 735.06574 79.85662 
L 735.415222 80.038954 
L 735.546278 79.886745 
L 735.764704 79.988218 
L 735.852074 79.650505 
L 735.939445 79.715511 
L 736.070501 79.820154 
L 736.288927 80.414718 
L 737.337373 83.26625 
L 737.381059 83.222648 
L 737.686855 84.341222 
L 738.953728 87.549491 
L 739.30321 89.894452 
L 739.609007 93.354815 
L 739.914804 99.156174 
L 740.176915 107.8479 
L 740.395341 122.35286 
L 740.570082 148.890939 
L 741.225361 275.562646 
L 741.400102 286.561233 
L 741.487473 279.394 
L 741.88064 205.054812 
L 742.448548 104.75854 
L 742.754345 88.803624 
L 743.103827 82.155603 
L 743.409624 80.012793 
L 743.671736 79.328648 
L 743.846477 79.255714 
L 743.977533 79.361943 
L 744.021218 79.522872 
L 744.108588 79.460244 
L 744.807552 79.897051 
L 744.982293 80.344163 
L 745.724943 82.342693 
L 745.768628 82.175422 
L 745.812313 82.267381 
L 746.11811 83.185389 
L 746.467592 84.17633 
L 747.122871 85.852208 
L 747.384983 86.317554 
L 747.734465 87.739752 
L 748.215003 91.206457 
L 748.69554 98.942923 
L 748.957652 107.740086 
L 749.176078 122.229984 
L 749.394505 159.345709 
L 750.006098 275.725952 
L 750.137154 286.345606 
L 750.180839 286.240963 
L 750.311895 271.859724 
L 750.923489 148.747436 
L 751.272971 100.336574 
L 751.578767 86.972367 
L 751.884564 82.056509 
L 752.146676 80.430574 
L 752.146676 80.430574 
" clip-path="url(#pe2fa213eff)" style="fill: none; stroke: #d94452; stroke-width: 0.8; stroke-linecap: square"/>
   </g>
   <g id="text_17">
    <g id="patch_9">
     <path d="M 149.953478 286.3335 
L 209.873478 286.3335 
Q 211.473478 286.3335 211.473478 284.7335 
L 211.473478 276.4135 
Q 211.473478 274.8135 209.873478 274.8135 
L 149.953478 274.8135 
Q 148.353478 274.8135 148.353478 276.4135 
L 148.353478 284.7335 
Q 148.353478 286.3335 149.953478 286.3335 
z
" style="fill: #ffffff; opacity: 0.8; stroke: #1a1a2e; stroke-linejoin: miter"/>
    </g>
    <!-- V$_{p-p}$= 55.11 V -->
    <g style="fill: #1a1a2e" transform="translate(149.953478 282.2535) scale(0.08 -0.08)">
     <defs>
      <path id="DejaVuSans-56" d="M 1831 0 
L 50 4666 
L 709 4666 
L 2188 738 
L 3669 4666 
L 4325 4666 
L 2547 0 
L 1831 0 
z
" transform="scale(0.015625)"/>
      <path id="DejaVuSans-Oblique-70" d="M 3175 2156 
Q 3175 2616 2975 2859 
Q 2775 3103 2400 3103 
Q 2144 3103 1911 2972 
Q 1678 2841 1497 2591 
Q 1319 2344 1212 1994 
Q 1106 1644 1106 1300 
Q 1106 863 1306 627 
Q 1506 391 1875 391 
Q 2147 391 2380 519 
Q 2613 647 2778 891 
Q 2956 1147 3065 1494 
Q 3175 1841 3175 2156 
z
M 1394 2969 
Q 1625 3272 1939 3428 
Q 2253 3584 2638 3584 
Q 3175 3584 3472 3232 
Q 3769 2881 3769 2247 
Q 3769 1728 3584 1258 
Q 3400 788 3053 416 
Q 2822 169 2531 39 
Q 2241 -91 1919 -91 
Q 1547 -91 1294 64 
Q 1041 219 916 525 
L 556 -1331 
L -19 -1331 
L 922 3500 
L 1497 3500 
L 1394 2969 
z
" transform="scale(0.015625)"/>
      <path id="DejaVuSans-3d" d="M 678 2906 
L 4684 2906 
L 4684 2381 
L 678 2381 
L 678 2906 
z
M 678 1631 
L 4684 1631 
L 4684 1100 
L 678 1100 
L 678 1631 
z
" transform="scale(0.015625)"/>
      <path id="DejaVuSans-20" transform="scale(0.015625)"/>
     </defs>
     <use xlink:href="#DejaVuSans-56" transform="translate(0 0.09375)"/>
     <use xlink:href="#DejaVuSans-Oblique-70" transform="translate(69.365234 -16.3125) scale(0.7)"/>
     <use xlink:href="#DejaVuSans-2212" transform="translate(127.436523 -16.3125) scale(0.7)"/>
     <use xlink:href="#DejaVuSans-Oblique-70" transform="translate(199.726562 -16.3125) scale(0.7)"/>
     <use xlink:href="#DejaVuSans-3d" transform="translate(246.894531 0.09375)"/>
     <use xlink:href="#DejaVuSans-20" transform="translate(330.683594 0.09375)"/>
     <use xlink:href="#DejaVuSans-35" transform="translate(362.470703 0.09375)"/>
     <use xlink:href="#DejaVuSans-35" transform="translate(426.09375 0.09375)"/>
     <use xlink:href="#DejaVuSans-2e" transform="translate(489.716797 0.09375)"/>
     <use xlink:href="#DejaVuSans-31" transform="translate(521.503906 0.09375)"/>
     <use xlink:href="#DejaVuSans-31" transform="translate(585.126953 0.09375)"/>
     <use xlink:href="#DejaVuSans-20" transform="translate(648.75 0.09375)"/>
     <use xlink:href="#DejaVuSans-56" transform="translate(680.537109 0.09375)"/>
    </g>
   </g>
   <g id="text_18">
    <g id="patch_10">
     <path d="M 610.457216 304.696167 
L 675.497216 304.696167 
Q 677.097216 304.696167 677.097216 303.096167 
L 677.097216 294.616167 
Q 677.097216 293.016167 675.497216 293.016167 
L 610.457216 293.016167 
Q 608.857216 293.016167 608.857216 294.616167 
L 608.857216 303.096167 
Q 608.857216 304.696167 610.457216 304.696167 
z
" style="fill: #ffffff; opacity: 0.8; stroke: #d94452; stroke-linejoin: miter"/>
    </g>
    <!-- V$_{p-p}$= 403.69 V -->
    <g style="fill: #d94452" transform="translate(610.457216 300.616167) scale(0.08 -0.08)">
     <defs>
      <path id="DejaVuSans-34" d="M 2419 4116 
L 825 1625 
L 2419 1625 
L 2419 4116 
z
M 2253 4666 
L 3047 4666 
L 3047 1625 
L 3713 1625 
L 3713 1100 
L 3047 1100 
L 3047 0 
L 2419 0 
L 2419 1100 
L 313 1100 
L 313 1709 
L 2253 4666 
z
" transform="scale(0.015625)"/>
      <path id="DejaVuSans-33" d="M 2597 2516 
Q 3050 2419 3304 2112 
Q 3559 1806 3559 1356 
Q 3559 666 3084 287 
Q 2609 -91 1734 -91 
Q 1441 -91 1130 -33 
Q 819 25 488 141 
L 488 750 
Q 750 597 1062 519 
Q 1375 441 1716 441 
Q 2309 441 2620 675 
Q 2931 909 2931 1356 
Q 2931 1769 2642 2001 
Q 2353 2234 1838 2234 
L 1294 2234 
L 1294 2753 
L 1863 2753 
Q 2328 2753 2575 2939 
Q 2822 3125 2822 3475 
Q 2822 3834 2567 4026 
Q 2313 4219 1838 4219 
Q 1578 4219 1281 4162 
Q 984 4106 628 3988 
L 628 4550 
Q 988 4650 1302 4700 
Q 1616 4750 1894 4750 
Q 2613 4750 3031 4423 
Q 3450 4097 3450 3541 
Q 3450 3153 3228 2886 
Q 3006 2619 2597 2516 
z
" transform="scale(0.015625)"/>
      <path id="DejaVuSans-36" d="M 2113 2584 
Q 1688 2584 1439 2293 
Q 1191 2003 1191 1497 
Q 1191 994 1439 701 
Q 1688 409 2113 409 
Q 2538 409 2786 701 
Q 3034 994 3034 1497 
Q 3034 2003 2786 2293 
Q 2538 2584 2113 2584 
z
M 3366 4563 
L 3366 3988 
Q 3128 4100 2886 4159 
Q 2644 4219 2406 4219 
Q 1781 4219 1451 3797 
Q 1122 3375 1075 2522 
Q 1259 2794 1537 2939 
Q 1816 3084 2150 3084 
Q 2853 3084 3261 2657 
Q 3669 2231 3669 1497 
Q 3669 778 3244 343 
Q 2819 -91 2113 -91 
Q 1303 -91 875 529 
Q 447 1150 447 2328 
Q 447 3434 972 4092 
Q 1497 4750 2381 4750 
Q 2619 4750 2861 4703 
Q 3103 4656 3366 4563 
z
" transform="scale(0.015625)"/>
      <path id="DejaVuSans-39" d="M 703 97 
L 703 672 
Q 941 559 1184 500 
Q 1428 441 1663 441 
Q 2288 441 2617 861 
Q 2947 1281 2994 2138 
Q 2813 1869 2534 1725 
Q 2256 1581 1919 1581 
Q 1219 1581 811 2004 
Q 403 2428 403 3163 
Q 403 3881 828 4315 
Q 1253 4750 1959 4750 
Q 2769 4750 3195 4129 
Q 3622 3509 3622 2328 
Q 3622 1225 3098 567 
Q 2575 -91 1691 -91 
Q 1453 -91 1209 -44 
Q 966 3 703 97 
z
M 1959 2075 
Q 2384 2075 2632 2365 
Q 2881 2656 2881 3163 
Q 2881 3666 2632 3958 
Q 2384 4250 1959 4250 
Q 1534 4250 1286 3958 
Q 1038 3666 1038 3163 
Q 1038 2656 1286 2365 
Q 1534 2075 1959 2075 
z
" transform="scale(0.015625)"/>
     </defs>
     <use xlink:href="#DejaVuSans-56" transform="translate(0 0.78125)"/>
     <use xlink:href="#DejaVuSans-Oblique-70" transform="translate(69.365234 -15.625) scale(0.7)"/>
     <use xlink:href="#DejaVuSans-2212" transform="translate(127.436523 -15.625) scale(0.7)"/>
     <use xlink:href="#DejaVuSans-Oblique-70" transform="translate(199.726562 -15.625) scale(0.7)"/>
     <use xlink:href="#DejaVuSans-3d" transform="translate(246.894531 0.78125)"/>
     <use xlink:href="#DejaVuSans-20" transform="translate(330.683594 0.78125)"/>
     <use xlink:href="#DejaVuSans-34" transform="translate(362.470703 0.78125)"/>
     <use xlink:href="#DejaVuSans-30" transform="translate(426.09375 0.78125)"/>
     <use xlink:href="#DejaVuSans-33" transform="translate(489.716797 0.78125)"/>
     <use xlink:href="#DejaVuSans-2e" transform="translate(553.339844 0.78125)"/>
     <use xlink:href="#DejaVuSans-36" transform="translate(585.126953 0.78125)"/>
     <use xlink:href="#DejaVuSans-39" transform="translate(648.75 0.78125)"/>
     <use xlink:href="#DejaVuSans-20" transform="translate(712.373047 0.78125)"/>
     <use xlink:href="#DejaVuSans-56" transform="translate(744.160156 0.78125)"/>
    </g>
   </g>
   <g id="text_19">
    <!-- Open-Circuit Voltage at Varying Frequencies -->
    <g transform="translate(326.937531 19.3575) scale(0.16 -0.16)">
     <defs>
      <path id="DejaVuSans-Bold-4f" d="M 2719 3878 
Q 2169 3878 1866 3472 
Q 1563 3066 1563 2328 
Q 1563 1594 1866 1187 
Q 2169 781 2719 781 
Q 3272 781 3575 1187 
Q 3878 1594 3878 2328 
Q 3878 3066 3575 3472 
Q 3272 3878 2719 3878 
z
M 2719 4750 
Q 3844 4750 4481 4106 
Q 5119 3463 5119 2328 
Q 5119 1197 4481 553 
Q 3844 -91 2719 -91 
Q 1597 -91 958 553 
Q 319 1197 319 2328 
Q 319 3463 958 4106 
Q 1597 4750 2719 4750 
z
" transform="scale(0.015625)"/>
      <path id="DejaVuSans-Bold-70" d="M 1656 506 
L 1656 -1331 
L 538 -1331 
L 538 3500 
L 1656 3500 
L 1656 2988 
Q 1888 3294 2169 3439 
Q 2450 3584 2816 3584 
Q 3463 3584 3878 3070 
Q 4294 2556 4294 1747 
Q 4294 938 3878 423 
Q 3463 -91 2816 -91 
Q 2450 -91 2169 54 
Q 1888 200 1656 506 
z
M 2400 2772 
Q 2041 2772 1848 2508 
Q 1656 2244 1656 1747 
Q 1656 1250 1848 986 
Q 2041 722 2400 722 
Q 2759 722 2948 984 
Q 3138 1247 3138 1747 
Q 3138 2247 2948 2509 
Q 2759 2772 2400 2772 
z
" transform="scale(0.015625)"/>
      <path id="DejaVuSans-Bold-6e" d="M 4056 2131 
L 4056 0 
L 2931 0 
L 2931 347 
L 2931 1631 
Q 2931 2084 2911 2256 
Q 2891 2428 2841 2509 
Q 2775 2619 2662 2680 
Q 2550 2741 2406 2741 
Q 2056 2741 1856 2470 
Q 1656 2200 1656 1722 
L 1656 0 
L 538 0 
L 538 3500 
L 1656 3500 
L 1656 2988 
Q 1909 3294 2193 3439 
Q 2478 3584 2822 3584 
Q 3428 3584 3742 3212 
Q 4056 2841 4056 2131 
z
" transform="scale(0.015625)"/>
      <path id="DejaVuSans-Bold-2d" d="M 347 2297 
L 2309 2297 
L 2309 1388 
L 347 1388 
L 347 2297 
z
" transform="scale(0.015625)"/>
      <path id="DejaVuSans-Bold-43" d="M 4288 256 
Q 3956 84 3597 -3 
Q 3238 -91 2847 -91 
Q 1681 -91 1000 561 
Q 319 1213 319 2328 
Q 319 3447 1000 4098 
Q 1681 4750 2847 4750 
Q 3238 4750 3597 4662 
Q 3956 4575 4288 4403 
L 4288 3438 
Q 3953 3666 3628 3772 
Q 3303 3878 2944 3878 
Q 2300 3878 1931 3465 
Q 1563 3053 1563 2328 
Q 1563 1606 1931 1193 
Q 2300 781 2944 781 
Q 3303 781 3628 887 
Q 3953 994 4288 1222 
L 4288 256 
z
" transform="scale(0.015625)"/>
      <path id="DejaVuSans-Bold-72" d="M 3138 2547 
Q 2991 2616 2845 2648 
Q 2700 2681 2553 2681 
Q 2122 2681 1889 2404 
Q 1656 2128 1656 1613 
L 1656 0 
L 538 0 
L 538 3500 
L 1656 3500 
L 1656 2925 
Q 1872 3269 2151 3426 
Q 2431 3584 2822 3584 
Q 2878 3584 2943 3579 
Q 3009 3575 3134 3559 
L 3138 2547 
z
" transform="scale(0.015625)"/>
      <path id="DejaVuSans-Bold-63" d="M 3366 3391 
L 3366 2478 
Q 3138 2634 2908 2709 
Q 2678 2784 2431 2784 
Q 1963 2784 1702 2511 
Q 1441 2238 1441 1747 
Q 1441 1256 1702 982 
Q 1963 709 2431 709 
Q 2694 709 2930 787 
Q 3166 866 3366 1019 
L 3366 103 
Q 3103 6 2833 -42 
Q 2563 -91 2291 -91 
Q 1344 -91 809 395 
Q 275 881 275 1747 
Q 275 2613 809 3098 
Q 1344 3584 2291 3584 
Q 2566 3584 2833 3536 
Q 3100 3488 3366 3391 
z
" transform="scale(0.015625)"/>
      <path id="DejaVuSans-Bold-75" d="M 500 1363 
L 500 3500 
L 1625 3500 
L 1625 3150 
Q 1625 2866 1622 2436 
Q 1619 2006 1619 1863 
Q 1619 1441 1641 1255 
Q 1663 1069 1716 984 
Q 1784 875 1895 815 
Q 2006 756 2150 756 
Q 2500 756 2700 1025 
Q 2900 1294 2900 1772 
L 2900 3500 
L 4019 3500 
L 4019 0 
L 2900 0 
L 2900 506 
Q 2647 200 2364 54 
Q 2081 -91 1741 -91 
Q 1134 -91 817 281 
Q 500 653 500 1363 
z
" transform="scale(0.015625)"/>
      <path id="DejaVuSans-Bold-74" d="M 1759 4494 
L 1759 3500 
L 2913 3500 
L 2913 2700 
L 1759 2700 
L 1759 1216 
Q 1759 972 1856 886 
Q 1953 800 2241 800 
L 2816 800 
L 2816 0 
L 1856 0 
Q 1194 0 917 276 
Q 641 553 641 1216 
L 641 2700 
L 84 2700 
L 84 3500 
L 641 3500 
L 641 4494 
L 1759 4494 
z
" transform="scale(0.015625)"/>
      <path id="DejaVuSans-Bold-6f" d="M 2203 2784 
Q 1831 2784 1636 2517 
Q 1441 2250 1441 1747 
Q 1441 1244 1636 976 
Q 1831 709 2203 709 
Q 2569 709 2762 976 
Q 2956 1244 2956 1747 
Q 2956 2250 2762 2517 
Q 2569 2784 2203 2784 
z
M 2203 3584 
Q 3106 3584 3614 3096 
Q 4122 2609 4122 1747 
Q 4122 884 3614 396 
Q 3106 -91 2203 -91 
Q 1297 -91 786 396 
Q 275 884 275 1747 
Q 275 2609 786 3096 
Q 1297 3584 2203 3584 
z
" transform="scale(0.015625)"/>
      <path id="DejaVuSans-Bold-6c" d="M 538 4863 
L 1656 4863 
L 1656 0 
L 538 0 
L 538 4863 
z
" transform="scale(0.015625)"/>
      <path id="DejaVuSans-Bold-61" d="M 2106 1575 
Q 1756 1575 1579 1456 
Q 1403 1338 1403 1106 
Q 1403 894 1545 773 
Q 1688 653 1941 653 
Q 2256 653 2472 879 
Q 2688 1106 2688 1447 
L 2688 1575 
L 2106 1575 
z
M 3816 1997 
L 3816 0 
L 2688 0 
L 2688 519 
Q 2463 200 2181 54 
Q 1900 -91 1497 -91 
Q 953 -91 614 226 
Q 275 544 275 1050 
Q 275 1666 698 1953 
Q 1122 2241 2028 2241 
L 2688 2241 
L 2688 2328 
Q 2688 2594 2478 2717 
Q 2269 2841 1825 2841 
Q 1466 2841 1156 2769 
Q 847 2697 581 2553 
L 581 3406 
Q 941 3494 1303 3539 
Q 1666 3584 2028 3584 
Q 2975 3584 3395 3211 
Q 3816 2838 3816 1997 
z
" transform="scale(0.015625)"/>
      <path id="DejaVuSans-Bold-67" d="M 2919 594 
Q 2688 288 2409 144 
Q 2131 0 1766 0 
Q 1125 0 706 504 
Q 288 1009 288 1791 
Q 288 2575 706 3076 
Q 1125 3578 1766 3578 
Q 2131 3578 2409 3434 
Q 2688 3291 2919 2981 
L 2919 3500 
L 4044 3500 
L 4044 353 
Q 4044 -491 3511 -936 
Q 2978 -1381 1966 -1381 
Q 1638 -1381 1331 -1331 
Q 1025 -1281 716 -1178 
L 716 -306 
Q 1009 -475 1290 -558 
Q 1572 -641 1856 -641 
Q 2406 -641 2662 -400 
Q 2919 -159 2919 353 
L 2919 594 
z
M 2181 2772 
Q 1834 2772 1640 2515 
Q 1447 2259 1447 1791 
Q 1447 1309 1634 1061 
Q 1822 813 2181 813 
Q 2531 813 2725 1069 
Q 2919 1325 2919 1791 
Q 2919 2259 2725 2515 
Q 2531 2772 2181 2772 
z
" transform="scale(0.015625)"/>
      <path id="DejaVuSans-Bold-79" d="M 78 3500 
L 1197 3500 
L 2138 1125 
L 2938 3500 
L 4056 3500 
L 2584 -331 
Q 2363 -916 2067 -1148 
Q 1772 -1381 1288 -1381 
L 641 -1381 
L 641 -647 
L 991 -647 
Q 1275 -647 1404 -556 
Q 1534 -466 1606 -231 
L 1638 -134 
L 78 3500 
z
" transform="scale(0.015625)"/>
      <path id="DejaVuSans-Bold-46" d="M 588 4666 
L 3834 4666 
L 3834 3756 
L 1791 3756 
L 1791 2888 
L 3713 2888 
L 3713 1978 
L 1791 1978 
L 1791 0 
L 588 0 
L 588 4666 
z
" transform="scale(0.015625)"/>
      <path id="DejaVuSans-Bold-71" d="M 2181 2772 
Q 1825 2772 1636 2509 
Q 1447 2247 1447 1747 
Q 1447 1247 1636 984 
Q 1825 722 2181 722 
Q 2541 722 2730 984 
Q 2919 1247 2919 1747 
Q 2919 2247 2730 2509 
Q 2541 2772 2181 2772 
z
M 2919 506 
Q 2688 197 2409 53 
Q 2131 -91 1766 -91 
Q 1119 -91 703 423 
Q 288 938 288 1747 
Q 288 2556 703 3067 
Q 1119 3578 1766 3578 
Q 2131 3578 2409 3434 
Q 2688 3291 2919 2981 
L 2919 3500 
L 4044 3500 
L 4044 -1331 
L 2919 -1331 
L 2919 506 
z
" transform="scale(0.015625)"/>
     </defs>
     <use xlink:href="#DejaVuSans-Bold-4f"/>
     <use xlink:href="#DejaVuSans-Bold-70" transform="translate(85.009766 0)"/>
     <use xlink:href="#DejaVuSans-Bold-65" transform="translate(156.591797 0)"/>
     <use xlink:href="#DejaVuSans-Bold-6e" transform="translate(224.414062 0)"/>
     <use xlink:href="#DejaVuSans-Bold-2d" transform="translate(295.605469 0)"/>
     <use xlink:href="#DejaVuSans-Bold-43" transform="translate(337.109375 0)"/>
     <use xlink:href="#DejaVuSans-Bold-69" transform="translate(410.498047 0)"/>
     <use xlink:href="#DejaVuSans-Bold-72" transform="translate(444.775391 0)"/>
     <use xlink:href="#DejaVuSans-Bold-63" transform="translate(494.091797 0)"/>
     <use xlink:href="#DejaVuSans-Bold-75" transform="translate(553.369141 0)"/>
     <use xlink:href="#DejaVuSans-Bold-69" transform="translate(624.560547 0)"/>
     <use xlink:href="#DejaVuSans-Bold-74" transform="translate(658.837891 0)"/>
     <use xlink:href="#DejaVuSans-Bold-20" transform="translate(706.640625 0)"/>
     <use xlink:href="#DejaVuSans-Bold-56" transform="translate(741.455078 0)"/>
     <use xlink:href="#DejaVuSans-Bold-6f" transform="translate(813.347656 0)"/>
     <use xlink:href="#DejaVuSans-Bold-6c" transform="translate(882.048828 0)"/>
     <use xlink:href="#DejaVuSans-Bold-74" transform="translate(916.326172 0)"/>
     <use xlink:href="#DejaVuSans-Bold-61" transform="translate(964.128906 0)"/>
     <use xlink:href="#DejaVuSans-Bold-67" transform="translate(1031.609375 0)"/>
     <use xlink:href="#DejaVuSans-Bold-65" transform="translate(1103.191406 0)"/>
     <use xlink:href="#DejaVuSans-Bold-20" transform="translate(1171.013672 0)"/>
     <use xlink:href="#DejaVuSans-Bold-61" transform="translate(1205.828125 0)"/>
     <use xlink:href="#DejaVuSans-Bold-74" transform="translate(1273.308594 0)"/>
     <use xlink:href="#DejaVuSans-Bold-20" transform="translate(1321.111328 0)"/>
     <use xlink:href="#DejaVuSans-Bold-56" transform="translate(1355.925781 0)"/>
     <use xlink:href="#DejaVuSans-Bold-61" transform="translate(1427.818359 0)"/>
     <use xlink:href="#DejaVuSans-Bold-72" transform="translate(1495.298828 0)"/>
     <use xlink:href="#DejaVuSans-Bold-79" transform="translate(1544.615234 0)"/>
     <use xlink:href="#DejaVuSans-Bold-69" transform="translate(1609.800781 0)"/>
     <use xlink:href="#DejaVuSans-Bold-6e" transform="translate(1644.078125 0)"/>
     <use xlink:href="#DejaVuSans-Bold-67" transform="translate(1715.269531 0)"/>
     <use xlink:href="#DejaVuSans-Bold-20" transform="translate(1786.851562 0)"/>
     <use xlink:href="#DejaVuSans-Bold-46" transform="translate(1821.666016 0)"/>
     <use xlink:href="#DejaVuSans-Bold-72" transform="translate(1883.601562 0)"/>
     <use xlink:href="#DejaVuSans-Bold-65" transform="translate(1932.917969 0)"/>
     <use xlink:href="#DejaVuSans-Bold-71" transform="translate(2000.740234 0)"/>
     <use xlink:href="#DejaVuSans-Bold-75" transform="translate(2072.322266 0)"/>
     <use xlink:href="#DejaVuSans-Bold-65" transform="translate(2143.513672 0)"/>
     <use xlink:href="#DejaVuSans-Bold-6e" transform="translate(2211.335938 0)"/>
     <use xlink:href="#DejaVuSans-Bold-63" transform="translate(2282.527344 0)"/>
     <use xlink:href="#DejaVuSans-Bold-69" transform="translate(2341.804688 0)"/>
     <use xlink:href="#DejaVuSans-Bold-65" transform="translate(2376.082031 0)"/>
     <use xlink:href="#DejaVuSans-Bold-73" transform="translate(2443.904297 0)"/>
    </g>
   </g>
   <g id="text_20">
    <!-- 1 Hz -->
    <g style="fill: #4a90d9" transform="translate(163.905197 55.712135) scale(0.13 -0.13)">
     <defs>
      <path id="DejaVuSans-Bold-31" d="M 750 831 
L 1813 831 
L 1813 3847 
L 722 3622 
L 722 4441 
L 1806 4666 
L 2950 4666 
L 2950 831 
L 4013 831 
L 4013 0 
L 750 0 
L 750 831 
z
" transform="scale(0.015625)"/>
      <path id="DejaVuSans-Bold-48" d="M 588 4666 
L 1791 4666 
L 1791 2888 
L 3566 2888 
L 3566 4666 
L 4769 4666 
L 4769 0 
L 3566 0 
L 3566 1978 
L 1791 1978 
L 1791 0 
L 588 0 
L 588 4666 
z
" transform="scale(0.015625)"/>
      <path id="DejaVuSans-Bold-7a" d="M 366 3500 
L 3419 3500 
L 3419 2719 
L 1575 800 
L 3419 800 
L 3419 0 
L 288 0 
L 288 781 
L 2131 2700 
L 366 2700 
L 366 3500 
z
" transform="scale(0.015625)"/>
     </defs>
     <use xlink:href="#DejaVuSans-Bold-31"/>
     <use xlink:href="#DejaVuSans-Bold-20" transform="translate(69.580078 0)"/>
     <use xlink:href="#DejaVuSans-Bold-48" transform="translate(104.394531 0)"/>
     <use xlink:href="#DejaVuSans-Bold-7a" transform="translate(188.085938 0)"/>
    </g>
   </g>
   <g id="text_21">
    <!-- 2.5 Hz -->
    <g style="fill: #5cb85c" transform="translate(388.445503 55.712135) scale(0.13 -0.13)">
     <defs>
      <path id="DejaVuSans-Bold-32" d="M 1844 884 
L 3897 884 
L 3897 0 
L 506 0 
L 506 884 
L 2209 2388 
Q 2438 2594 2547 2791 
Q 2656 2988 2656 3200 
Q 2656 3528 2436 3728 
Q 2216 3928 1850 3928 
Q 1569 3928 1234 3808 
Q 900 3688 519 3450 
L 519 4475 
Q 925 4609 1322 4679 
Q 1719 4750 2100 4750 
Q 2938 4750 3402 4381 
Q 3866 4013 3866 3353 
Q 3866 2972 3669 2642 
Q 3472 2313 2841 1759 
L 1844 884 
z
" transform="scale(0.015625)"/>
      <path id="DejaVuSans-Bold-2e" d="M 653 1209 
L 1778 1209 
L 1778 0 
L 653 0 
L 653 1209 
z
" transform="scale(0.015625)"/>
      <path id="DejaVuSans-Bold-35" d="M 678 4666 
L 3669 4666 
L 3669 3781 
L 1638 3781 
L 1638 3059 
Q 1775 3097 1914 3117 
Q 2053 3138 2203 3138 
Q 3056 3138 3531 2711 
Q 4006 2284 4006 1522 
Q 4006 766 3489 337 
Q 2972 -91 2053 -91 
Q 1656 -91 1267 -14 
Q 878 63 494 219 
L 494 1166 
Q 875 947 1217 837 
Q 1559 728 1863 728 
Q 2300 728 2551 942 
Q 2803 1156 2803 1522 
Q 2803 1891 2551 2103 
Q 2300 2316 1863 2316 
Q 1603 2316 1309 2248 
Q 1016 2181 678 2041 
L 678 4666 
z
" transform="scale(0.015625)"/>
     </defs>
     <use xlink:href="#DejaVuSans-Bold-32"/>
     <use xlink:href="#DejaVuSans-Bold-2e" transform="translate(69.580078 0)"/>
     <use xlink:href="#DejaVuSans-Bold-35" transform="translate(107.568359 0)"/>
     <use xlink:href="#DejaVuSans-Bold-20" transform="translate(177.148438 0)"/>
     <use xlink:href="#DejaVuSans-Bold-48" transform="translate(211.962891 0)"/>
     <use xlink:href="#DejaVuSans-Bold-7a" transform="translate(295.654297 0)"/>
    </g>
   </g>
   <g id="text_22">
    <!-- 5 Hz -->
    <g style="fill: #f0ad4e" transform="translate(626.968934 55.712135) scale(0.13 -0.13)">
     <use xlink:href="#DejaVuSans-Bold-35"/>
     <use xlink:href="#DejaVuSans-Bold-20" transform="translate(69.580078 0)"/>
     <use xlink:href="#DejaVuSans-Bold-48" transform="translate(104.394531 0)"/>
     <use xlink:href="#DejaVuSans-Bold-7a" transform="translate(188.085938 0)"/>
    </g>
   </g>
   <g id="text_23">
    <!-- 10 Hz -->
    <g style="fill: #e8667a" transform="translate(853.978225 55.712135) scale(0.13 -0.13)">
     <defs>
      <path id="DejaVuSans-Bold-30" d="M 2944 2338 
Q 2944 3213 2780 3570 
Q 2616 3928 2228 3928 
Q 1841 3928 1675 3570 
Q 1509 3213 1509 2338 
Q 1509 1453 1675 1090 
Q 1841 728 2228 728 
Q 2613 728 2778 1090 
Q 2944 1453 2944 2338 
z
M 4147 2328 
Q 4147 1169 3647 539 
Q 3147 -91 2228 -91 
Q 1306 -91 806 539 
Q 306 1169 306 2328 
Q 306 3491 806 4120 
Q 1306 4750 2228 4750 
Q 3147 4750 3647 4120 
Q 4147 3491 4147 2328 
z
" transform="scale(0.015625)"/>
     </defs>
     <use xlink:href="#DejaVuSans-Bold-31"/>
     <use xlink:href="#DejaVuSans-Bold-30" transform="translate(69.580078 0)"/>
     <use xlink:href="#DejaVuSans-Bold-20" transform="translate(139.160156 0)"/>
     <use xlink:href="#DejaVuSans-Bold-48" transform="translate(173.974609 0)"/>
     <use xlink:href="#DejaVuSans-Bold-7a" transform="translate(257.666016 0)"/>
    </g>
   </g>
   <g id="legend_1">
    <g id="patch_11">
     <path d="M 69.663281 75.449375 
L 171.75875 75.449375 
Q 173.95875 75.449375 173.95875 73.249375 
L 173.95875 42.0575 
Q 173.95875 39.8575 171.75875 39.8575 
L 69.663281 39.8575 
Q 67.463281 39.8575 67.463281 42.0575 
L 67.463281 73.249375 
Q 67.463281 75.449375 69.663281 75.449375 
z
" style="fill: #ffffff; opacity: 0.9; stroke: #808080; stroke-linejoin: miter"/>
    </g>
    <g id="patch_12">
     <path d="M 71.863281 52.615781 
L 93.863281 52.615781 
L 93.863281 44.915781 
L 71.863281 44.915781 
z
" style="fill: #1a1a2e; stroke: #1a1a2e; stroke-linejoin: miter"/>
    </g>
    <g id="text_24">
     <!-- Without MIC -->
     <g transform="translate(102.663281 52.615781) scale(0.11 -0.11)">
      <defs>
       <path id="DejaVuSans-57" d="M 213 4666 
L 850 4666 
L 1831 722 
L 2809 4666 
L 3519 4666 
L 4500 722 
L 5478 4666 
L 6119 4666 
L 4947 0 
L 4153 0 
L 3169 4050 
L 2175 0 
L 1381 0 
L 213 4666 
z
" transform="scale(0.015625)"/>
       <path id="DejaVuSans-69" d="M 603 3500 
L 1178 3500 
L 1178 0 
L 603 0 
L 603 3500 
z
M 603 4863 
L 1178 4863 
L 1178 4134 
L 603 4134 
L 603 4863 
z
" transform="scale(0.015625)"/>
       <path id="DejaVuSans-74" d="M 1172 4494 
L 1172 3500 
L 2356 3500 
L 2356 3053 
L 1172 3053 
L 1172 1153 
Q 1172 725 1289 603 
Q 1406 481 1766 481 
L 2356 481 
L 2356 0 
L 1766 0 
Q 1100 0 847 248 
Q 594 497 594 1153 
L 594 3053 
L 172 3053 
L 172 3500 
L 594 3500 
L 594 4494 
L 1172 4494 
z
" transform="scale(0.015625)"/>
       <path id="DejaVuSans-68" d="M 3513 2113 
L 3513 0 
L 2938 0 
L 2938 2094 
Q 2938 2591 2744 2837 
Q 2550 3084 2163 3084 
Q 1697 3084 1428 2787 
Q 1159 2491 1159 1978 
L 1159 0 
L 581 0 
L 581 4863 
L 1159 4863 
L 1159 2956 
Q 1366 3272 1645 3428 
Q 1925 3584 2291 3584 
Q 2894 3584 3203 3211 
Q 3513 2838 3513 2113 
z
" transform="scale(0.015625)"/>
       <path id="DejaVuSans-6f" d="M 1959 3097 
Q 1497 3097 1228 2736 
Q 959 2375 959 1747 
Q 959 1119 1226 758 
Q 1494 397 1959 397 
Q 2419 397 2687 759 
Q 2956 1122 2956 1747 
Q 2956 2369 2687 2733 
Q 2419 3097 1959 3097 
z
M 1959 3584 
Q 2709 3584 3137 3096 
Q 3566 2609 3566 1747 
Q 3566 888 3137 398 
Q 2709 -91 1959 -91 
Q 1206 -91 779 398 
Q 353 888 353 1747 
Q 353 2609 779 3096 
Q 1206 3584 1959 3584 
z
" transform="scale(0.015625)"/>
       <path id="DejaVuSans-75" d="M 544 1381 
L 544 3500 
L 1119 3500 
L 1119 1403 
Q 1119 906 1312 657 
Q 1506 409 1894 409 
Q 2359 409 2629 706 
Q 2900 1003 2900 1516 
L 2900 3500 
L 3475 3500 
L 3475 0 
L 2900 0 
L 2900 538 
Q 2691 219 2414 64 
Q 2138 -91 1772 -91 
Q 1169 -91 856 284 
Q 544 659 544 1381 
z
M 1991 3584 
L 1991 3584 
z
" transform="scale(0.015625)"/>
       <path id="DejaVuSans-4d" d="M 628 4666 
L 1569 4666 
L 2759 1491 
L 3956 4666 
L 4897 4666 
L 4897 0 
L 4281 0 
L 4281 4097 
L 3078 897 
L 2444 897 
L 1241 4097 
L 1241 0 
L 628 0 
L 628 4666 
z
" transform="scale(0.015625)"/>
       <path id="DejaVuSans-49" d="M 628 4666 
L 1259 4666 
L 1259 0 
L 628 0 
L 628 4666 
z
" transform="scale(0.015625)"/>
       <path id="DejaVuSans-43" d="M 4122 4306 
L 4122 3641 
Q 3803 3938 3442 4084 
Q 3081 4231 2675 4231 
Q 1875 4231 1450 3742 
Q 1025 3253 1025 2328 
Q 1025 1406 1450 917 
Q 1875 428 2675 428 
Q 3081 428 3442 575 
Q 3803 722 4122 1019 
L 4122 359 
Q 3791 134 3420 21 
Q 3050 -91 2638 -91 
Q 1578 -91 968 557 
Q 359 1206 359 2328 
Q 359 3453 968 4101 
Q 1578 4750 2638 4750 
Q 3056 4750 3426 4639 
Q 3797 4528 4122 4306 
z
" transform="scale(0.015625)"/>
      </defs>
      <use xlink:href="#DejaVuSans-57"/>
      <use xlink:href="#DejaVuSans-69" transform="translate(96.626953 0)"/>
      <use xlink:href="#DejaVuSans-74" transform="translate(124.410156 0)"/>
      <use xlink:href="#DejaVuSans-68" transform="translate(163.619141 0)"/>
      <use xlink:href="#DejaVuSans-6f" transform="translate(226.998047 0)"/>
      <use xlink:href="#DejaVuSans-75" transform="translate(288.179688 0)"/>
      <use xlink:href="#DejaVuSans-74" transform="translate(351.558594 0)"/>
      <use xlink:href="#DejaVuSans-20" transform="translate(390.767578 0)"/>
      <use xlink:href="#DejaVuSans-4d" transform="translate(422.554688 0)"/>
      <use xlink:href="#DejaVuSans-49" transform="translate(508.833984 0)"/>
      <use xlink:href="#DejaVuSans-43" transform="translate(538.326172 0)"/>
     </g>
    </g>
    <g id="patch_13">
     <path d="M 71.863281 68.761719 
L 93.863281 68.761719 
L 93.863281 61.061719 
L 71.863281 61.061719 
z
" style="fill: #d94452; stroke: #d94452; stroke-linejoin: miter"/>
    </g>
    <g id="text_25">
     <!-- With MIC -->
     <g transform="translate(102.663281 68.761719) scale(0.11 -0.11)">
      <use xlink:href="#DejaVuSans-57"/>
      <use xlink:href="#DejaVuSans-69" transform="translate(96.626953 0)"/>
      <use xlink:href="#DejaVuSans-74" transform="translate(124.410156 0)"/>
      <use xlink:href="#DejaVuSans-68" transform="translate(163.619141 0)"/>
      <use xlink:href="#DejaVuSans-20" transform="translate(226.998047 0)"/>
      <use xlink:href="#DejaVuSans-4d" transform="translate(258.785156 0)"/>
      <use xlink:href="#DejaVuSans-49" transform="translate(345.064453 0)"/>
      <use xlink:href="#DejaVuSans-43" transform="translate(374.556641 0)"/>
     </g>
    </g>
   </g>
  </g>
 </g>
 <defs>
  <clipPath id="pe2fa213eff">
   <rect x="61.963281" y="34.3575" width="930.496" height="275.44"/>
  </clipPath>
 </defs>
</svg>
