<?xml version="1.0" encoding="utf-8" standalone="no"?>
<!DOCTYPE svg PUBLIC "-//W3C//DTD SVG 1.1//EN"
  "http://www.w3.org/Graphics/SVG/1.1/DTD/svg11.dtd">
<svg xmlns:xlink="http://www.w3.org/1999/xlink" width="496.513336pt" height="315.86975pt" viewBox="0 0 496.513336 315.86975" xmlns="http://www.w3.org/2000/svg" version="1.1">
 <metadata>
  <rdf:RDF xmlns:dc="http://purl.org/dc/elements/1.1/" xmlns:cc="http://creativecommons.org/ns#" xmlns:rdf="http://www.w3.org/1999/02/22-rdf-syntax-ns#">
   <cc:Work>
    <dc:type rdf:resource="http://purl.org/dc/dcmitype/StillImage"/>
    <dc:date>2026-04-26T16:34:03.820944</dc:date>
    <dc:format>image/svg+xml</dc:format>
    <dc:creator>
     <cc:Agent>
      <dc:title>Matplotlib v3.10.8, https://matplotlib.org/</dc:title>
     </cc:Agent>
    </dc:creator>
   </cc:Work>
  </rdf:RDF>
 </metadata>
 <defs>
  <style type="text/css">*{stroke-linejoin: round; stroke-linecap: butt}</style>
 </defs>
 <g id="figure_1">
  <g id="patch_1">
   <path d="M 0 315.86975 
L 496.513336 315.86975 
L 496.513336 0 
L 0 0 
z
" style="fill: #ffffff"/>
  </g>
  <g id="axes_1">
   <g id="patch_2">
    <path d="M 48.029375 273.474438 
L 489.313336 273.474438 
L 489.313336 17.798437 
L 48.029375 17.798437 
z
" style="fill: #ffffff"/>
   </g>
   <g id="patch_3">
    <path d="M 48.029375 273.474438 
L 268.671355 273.474438 
L 268.671355 17.798437 
L 48.029375 17.798437 
z
" clip-path="url(#p8dd86a988c)" style="fill: #cccccc; opacity: 0.12; stroke: #cccccc; stroke-linejoin: miter"/>
   </g>
   <g id="patch_4">
    <path d="M 268.671355 273.474438 
L 489.313336 273.474438 
L 489.313336 17.798437 
L 268.671355 17.798437 
z
" clip-path="url(#p8dd86a988c)" style="fill: #d94452; opacity: 0.06; stroke: #d94452; stroke-linejoin: miter"/>
   </g>
   <g id="line2d_1">
    <path d="M 268.671355 273.474438 
L 268.671355 17.798437 
" clip-path="url(#p8dd86a988c)" style="fill: none; stroke-dasharray: 3.7,1.6; stroke-dashoffset: 0; stroke: #999999"/>
   </g>
   <g id="matplotlib.axis_1">
    <g id="xtick_1">
     <g id="line2d_2">
      <defs>
       <path id="m95267c6595" d="M 0 0 
L 0 3.5 
" style="stroke: #000000; stroke-width: 0.8"/>
      </defs>
      <g>
       <use xlink:href="#m95267c6595" x="48.029375" y="273.474438" style="stroke: #000000; stroke-width: 0.8"/>
      </g>
     </g>
     <g id="text_1">
      <!-- 0 -->
      <g transform="translate(44.53 288.832719) scale(0.11 -0.11)">
       <defs>
        <path id="DejaVuSans-30" d="M 2034 4250 
Q 1547 4250 1301 3770 
Q 1056 3291 1056 2328 
Q 1056 1369 1301 889 
Q 1547 409 2034 409 
Q 2525 409 2770 889 
Q 3016 1369 3016 2328 
Q 3016 3291 2770 3770 
Q 2525 4250 2034 4250 
z
M 2034 4750 
Q 2819 4750 3233 4129 
Q 3647 3509 3647 2328 
Q 3647 1150 3233 529 
Q 2819 -91 2034 -91 
Q 1250 -91 836 529 
Q 422 1150 422 2328 
Q 422 3509 836 4129 
Q 1250 4750 2034 4750 
z
" transform="scale(0.015625)"/>
       </defs>
       <use xlink:href="#DejaVuSans-30"/>
      </g>
     </g>
    </g>
    <g id="xtick_2">
     <g id="line2d_3">
      <g>
       <use xlink:href="#m95267c6595" x="136.303822" y="273.474438" style="stroke: #000000; stroke-width: 0.8"/>
      </g>
     </g>
     <g id="text_2">
      <!-- 2 -->
      <g transform="translate(132.804447 288.832719) scale(0.11 -0.11)">
       <defs>
        <path id="DejaVuSans-32" d="M 1228 531 
L 3431 531 
L 3431 0 
L 469 0 
L 469 531 
Q 828 903 1448 1529 
Q 2069 2156 2228 2338 
Q 2531 2678 2651 2914 
Q 2772 3150 2772 3378 
Q 2772 3750 2511 3984 
Q 2250 4219 1831 4219 
Q 1534 4219 1204 4116 
Q 875 4013 500 3803 
L 500 4441 
Q 881 4594 1212 4672 
Q 1544 4750 1819 4750 
Q 2544 4750 2975 4387 
Q 3406 4025 3406 3419 
Q 3406 3131 3298 2873 
Q 3191 2616 2906 2266 
Q 2828 2175 2409 1742 
Q 1991 1309 1228 531 
z
" transform="scale(0.015625)"/>
       </defs>
       <use xlink:href="#DejaVuSans-32"/>
      </g>
     </g>
    </g>
    <g id="xtick_3">
     <g id="line2d_4">
      <g>
       <use xlink:href="#m95267c6595" x="224.578269" y="273.474438" style="stroke: #000000; stroke-width: 0.8"/>
      </g>
     </g>
     <g id="text_3">
      <!-- 4 -->
      <g transform="translate(221.078894 288.832719) scale(0.11 -0.11)">
       <defs>
        <path id="DejaVuSans-34" d="M 2419 4116 
L 825 1625 
L 2419 1625 
L 2419 4116 
z
M 2253 4666 
L 3047 4666 
L 3047 1625 
L 3713 1625 
L 3713 1100 
L 3047 1100 
L 3047 0 
L 2419 0 
L 2419 1100 
L 313 1100 
L 313 1709 
L 2253 4666 
z
" transform="scale(0.015625)"/>
       </defs>
       <use xlink:href="#DejaVuSans-34"/>
      </g>
     </g>
    </g>
    <g id="xtick_4">
     <g id="line2d_5">
      <g>
       <use xlink:href="#m95267c6595" x="312.852716" y="273.474438" style="stroke: #000000; stroke-width: 0.8"/>
      </g>
     </g>
     <g id="text_4">
      <!-- 6 -->
      <g transform="translate(309.353341 288.832719) scale(0.11 -0.11)">
       <defs>
        <path id="DejaVuSans-36" d="M 2113 2584 
Q 1688 2584 1439 2293 
Q 1191 2003 1191 1497 
Q 1191 994 1439 701 
Q 1688 409 2113 409 
Q 2538 409 2786 701 
Q 3034 994 3034 1497 
Q 3034 2003 2786 2293 
Q 2538 2584 2113 2584 
z
M 3366 4563 
L 3366 3988 
Q 3128 4100 2886 4159 
Q 2644 4219 2406 4219 
Q 1781 4219 1451 3797 
Q 1122 3375 1075 2522 
Q 1259 2794 1537 2939 
Q 1816 3084 2150 3084 
Q 2853 3084 3261 2657 
Q 3669 2231 3669 1497 
Q 3669 778 3244 343 
Q 2819 -91 2113 -91 
Q 1303 -91 875 529 
Q 447 1150 447 2328 
Q 447 3434 972 4092 
Q 1497 4750 2381 4750 
Q 2619 4750 2861 4703 
Q 3103 4656 3366 4563 
z
" transform="scale(0.015625)"/>
       </defs>
       <use xlink:href="#DejaVuSans-36"/>
      </g>
     </g>
    </g>
    <g id="xtick_5">
     <g id="line2d_6">
      <g>
       <use xlink:href="#m95267c6595" x="401.127163" y="273.474438" style="stroke: #000000; stroke-width: 0.8"/>
      </g>
     </g>
     <g id="text_5">
      <!-- 8 -->
      <g transform="translate(397.627788 288.832719) scale(0.11 -0.11)">
       <defs>
        <path id="DejaVuSans-38" d="M 2034 2216 
Q 1584 2216 1326 1975 
Q 1069 1734 1069 1313 
Q 1069 891 1326 650 
Q 1584 409 2034 409 
Q 2484 409 2743 651 
Q 3003 894 3003 1313 
Q 3003 1734 2745 1975 
Q 2488 2216 2034 2216 
z
M 1403 2484 
Q 997 2584 770 2862 
Q 544 3141 544 3541 
Q 544 4100 942 4425 
Q 1341 4750 2034 4750 
Q 2731 4750 3128 4425 
Q 3525 4100 3525 3541 
Q 3525 3141 3298 2862 
Q 3072 2584 2669 2484 
Q 3125 2378 3379 2068 
Q 3634 1759 3634 1313 
Q 3634 634 3220 271 
Q 2806 -91 2034 -91 
Q 1263 -91 848 271 
Q 434 634 434 1313 
Q 434 1759 690 2068 
Q 947 2378 1403 2484 
z
M 1172 3481 
Q 1172 3119 1398 2916 
Q 1625 2713 2034 2713 
Q 2441 2713 2670 2916 
Q 2900 3119 2900 3481 
Q 2900 3844 2670 4047 
Q 2441 4250 2034 4250 
Q 1625 4250 1398 4047 
Q 1172 3844 1172 3481 
z
" transform="scale(0.015625)"/>
       </defs>
       <use xlink:href="#DejaVuSans-38"/>
      </g>
     </g>
    </g>
    <g id="text_6">
     <!-- Time (s) -->
     <g transform="translate(236.452762 305.758188) scale(0.14 -0.14)">
      <defs>
       <path id="DejaVuSans-Bold-54" d="M 31 4666 
L 4331 4666 
L 4331 3756 
L 2784 3756 
L 2784 0 
L 1581 0 
L 1581 3756 
L 31 3756 
L 31 4666 
z
" transform="scale(0.015625)"/>
       <path id="DejaVuSans-Bold-69" d="M 538 3500 
L 1656 3500 
L 1656 0 
L 538 0 
L 538 3500 
z
M 538 4863 
L 1656 4863 
L 1656 3950 
L 538 3950 
L 538 4863 
z
" transform="scale(0.015625)"/>
       <path id="DejaVuSans-Bold-6d" d="M 3781 2919 
Q 3994 3244 4286 3414 
Q 4578 3584 4928 3584 
Q 5531 3584 5847 3212 
Q 6163 2841 6163 2131 
L 6163 0 
L 5038 0 
L 5038 1825 
Q 5041 1866 5042 1909 
Q 5044 1953 5044 2034 
Q 5044 2406 4934 2573 
Q 4825 2741 4581 2741 
Q 4263 2741 4089 2478 
Q 3916 2216 3909 1719 
L 3909 0 
L 2784 0 
L 2784 1825 
Q 2784 2406 2684 2573 
Q 2584 2741 2328 2741 
Q 2006 2741 1831 2477 
Q 1656 2213 1656 1722 
L 1656 0 
L 531 0 
L 531 3500 
L 1656 3500 
L 1656 2988 
Q 1863 3284 2130 3434 
Q 2397 3584 2719 3584 
Q 3081 3584 3359 3409 
Q 3638 3234 3781 2919 
z
" transform="scale(0.015625)"/>
       <path id="DejaVuSans-Bold-65" d="M 4031 1759 
L 4031 1441 
L 1416 1441 
Q 1456 1047 1700 850 
Q 1944 653 2381 653 
Q 2734 653 3104 758 
Q 3475 863 3866 1075 
L 3866 213 
Q 3469 63 3072 -14 
Q 2675 -91 2278 -91 
Q 1328 -91 801 392 
Q 275 875 275 1747 
Q 275 2603 792 3093 
Q 1309 3584 2216 3584 
Q 3041 3584 3536 3087 
Q 4031 2591 4031 1759 
z
M 2881 2131 
Q 2881 2450 2695 2645 
Q 2509 2841 2209 2841 
Q 1884 2841 1681 2658 
Q 1478 2475 1428 2131 
L 2881 2131 
z
" transform="scale(0.015625)"/>
       <path id="DejaVuSans-Bold-20" transform="scale(0.015625)"/>
       <path id="DejaVuSans-Bold-28" d="M 2413 -844 
L 1484 -844 
Q 1006 -72 778 623 
Q 550 1319 550 2003 
Q 550 2688 779 3389 
Q 1009 4091 1484 4856 
L 2413 4856 
Q 2013 4116 1813 3408 
Q 1613 2700 1613 2009 
Q 1613 1319 1811 609 
Q 2009 -100 2413 -844 
z
" transform="scale(0.015625)"/>
       <path id="DejaVuSans-Bold-73" d="M 3272 3391 
L 3272 2541 
Q 2913 2691 2578 2766 
Q 2244 2841 1947 2841 
Q 1628 2841 1473 2761 
Q 1319 2681 1319 2516 
Q 1319 2381 1436 2309 
Q 1553 2238 1856 2203 
L 2053 2175 
Q 2913 2066 3209 1816 
Q 3506 1566 3506 1031 
Q 3506 472 3093 190 
Q 2681 -91 1863 -91 
Q 1516 -91 1145 -36 
Q 775 19 384 128 
L 384 978 
Q 719 816 1070 734 
Q 1422 653 1784 653 
Q 2113 653 2278 743 
Q 2444 834 2444 1013 
Q 2444 1163 2330 1236 
Q 2216 1309 1875 1350 
L 1678 1375 
Q 931 1469 631 1722 
Q 331 1975 331 2491 
Q 331 3047 712 3315 
Q 1094 3584 1881 3584 
Q 2191 3584 2531 3537 
Q 2872 3491 3272 3391 
z
" transform="scale(0.015625)"/>
       <path id="DejaVuSans-Bold-29" d="M 513 -844 
Q 913 -100 1113 609 
Q 1313 1319 1313 2009 
Q 1313 2700 1113 3408 
Q 913 4116 513 4856 
L 1441 4856 
Q 1916 4091 2145 3389 
Q 2375 2688 2375 2003 
Q 2375 1319 2147 623 
Q 1919 -72 1441 -844 
L 513 -844 
z
" transform="scale(0.015625)"/>
      </defs>
      <use xlink:href="#DejaVuSans-Bold-54"/>
      <use xlink:href="#DejaVuSans-Bold-69" transform="translate(68.212891 0)"/>
      <use xlink:href="#DejaVuSans-Bold-6d" transform="translate(102.490234 0)"/>
      <use xlink:href="#DejaVuSans-Bold-65" transform="translate(206.689453 0)"/>
      <use xlink:href="#DejaVuSans-Bold-20" transform="translate(274.511719 0)"/>
      <use xlink:href="#DejaVuSans-Bold-28" transform="translate(309.326172 0)"/>
      <use xlink:href="#DejaVuSans-Bold-73" transform="translate(355.029297 0)"/>
      <use xlink:href="#DejaVuSans-Bold-29" transform="translate(414.550781 0)"/>
     </g>
    </g>
   </g>
   <g id="matplotlib.axis_2">
    <g id="ytick_1">
     <g id="line2d_7">
      <defs>
       <path id="m9c013c3ab3" d="M 0 0 
L -3.5 0 
" style="stroke: #000000; stroke-width: 0.8"/>
      </defs>
      <g>
       <use xlink:href="#m9c013c3ab3" x="48.029375" y="231.695457" style="stroke: #000000; stroke-width: 0.8"/>
      </g>
     </g>
     <g id="text_7">
      <!-- $\mathdefault{−2}$ -->
      <g transform="translate(24.749375 235.874598) scale(0.11 -0.11)">
       <defs>
        <path id="DejaVuSans-2212" d="M 678 2272 
L 4684 2272 
L 4684 1741 
L 678 1741 
L 678 2272 
z
" transform="scale(0.015625)"/>
       </defs>
       <use xlink:href="#DejaVuSans-2212" transform="translate(0 0.78125)"/>
       <use xlink:href="#DejaVuSans-32" transform="translate(83.789062 0.78125)"/>
      </g>
     </g>
    </g>
    <g id="ytick_2">
     <g id="line2d_8">
      <g>
       <use xlink:href="#m9c013c3ab3" x="48.029375" y="188.665947" style="stroke: #000000; stroke-width: 0.8"/>
      </g>
     </g>
     <g id="text_8">
      <!-- $\mathdefault{−1}$ -->
      <g transform="translate(24.749375 192.845088) scale(0.11 -0.11)">
       <defs>
        <path id="DejaVuSans-31" d="M 794 531 
L 1825 531 
L 1825 4091 
L 703 3866 
L 703 4441 
L 1819 4666 
L 2450 4666 
L 2450 531 
L 3481 531 
L 3481 0 
L 794 0 
L 794 531 
z
" transform="scale(0.015625)"/>
       </defs>
       <use xlink:href="#DejaVuSans-2212" transform="translate(0 0.09375)"/>
       <use xlink:href="#DejaVuSans-31" transform="translate(83.789062 0.09375)"/>
      </g>
     </g>
    </g>
    <g id="ytick_3">
     <g id="line2d_9">
      <g>
       <use xlink:href="#m9c013c3ab3" x="48.029375" y="145.636437" style="stroke: #000000; stroke-width: 0.8"/>
      </g>
     </g>
     <g id="text_9">
      <!-- $\mathdefault{0}$ -->
      <g transform="translate(33.989375 149.815578) scale(0.11 -0.11)">
       <use xlink:href="#DejaVuSans-30" transform="translate(0 0.78125)"/>
      </g>
     </g>
    </g>
    <g id="ytick_4">
     <g id="line2d_10">
      <g>
       <use xlink:href="#m9c013c3ab3" x="48.029375" y="102.606928" style="stroke: #000000; stroke-width: 0.8"/>
      </g>
     </g>
     <g id="text_10">
      <!-- $\mathdefault{1}$ -->
      <g transform="translate(33.989375 106.786068) scale(0.11 -0.11)">
       <use xlink:href="#DejaVuSans-31" transform="translate(0 0.09375)"/>
      </g>
     </g>
    </g>
    <g id="ytick_5">
     <g id="line2d_11">
      <g>
       <use xlink:href="#m9c013c3ab3" x="48.029375" y="59.577418" style="stroke: #000000; stroke-width: 0.8"/>
      </g>
     </g>
     <g id="text_11">
      <!-- $\mathdefault{2}$ -->
      <g transform="translate(33.989375 63.756559) scale(0.11 -0.11)">
       <use xlink:href="#DejaVuSans-32" transform="translate(0 0.78125)"/>
      </g>
     </g>
    </g>
    <g id="text_12">
     <!-- I$_{sc}$ (mA/m²) -->
     <g transform="translate(17.837812 188.266437) rotate(-90) scale(0.14 -0.14)">
      <defs>
       <path id="DejaVuSans-Bold-49" d="M 588 4666 
L 1791 4666 
L 1791 0 
L 588 0 
L 588 4666 
z
" transform="scale(0.015625)"/>
       <path id="DejaVuSans-Oblique-73" d="M 3200 3397 
L 3091 2853 
Q 2863 2978 2609 3040 
Q 2356 3103 2088 3103 
Q 1634 3103 1373 2948 
Q 1113 2794 1113 2528 
Q 1113 2219 1719 2053 
Q 1766 2041 1788 2034 
L 1972 1978 
Q 2547 1819 2739 1644 
Q 2931 1469 2931 1166 
Q 2931 609 2489 259 
Q 2047 -91 1331 -91 
Q 1053 -91 747 -37 
Q 441 16 72 128 
L 184 722 
Q 500 559 806 475 
Q 1113 391 1394 391 
Q 1816 391 2080 572 
Q 2344 753 2344 1031 
Q 2344 1331 1650 1516 
L 1591 1531 
L 1394 1581 
Q 956 1697 753 1886 
Q 550 2075 550 2369 
Q 550 2928 970 3256 
Q 1391 3584 2113 3584 
Q 2397 3584 2667 3537 
Q 2938 3491 3200 3397 
z
" transform="scale(0.015625)"/>
       <path id="DejaVuSans-Oblique-63" d="M 3431 3366 
L 3316 2797 
Q 3109 2947 2876 3022 
Q 2644 3097 2394 3097 
Q 2119 3097 1870 3000 
Q 1622 2903 1453 2725 
Q 1184 2453 1037 2087 
Q 891 1722 891 1331 
Q 891 859 1127 628 
Q 1363 397 1844 397 
Q 2081 397 2348 469 
Q 2616 541 2906 684 
L 2797 116 
Q 2547 13 2283 -39 
Q 2019 -91 1741 -91 
Q 1044 -91 669 257 
Q 294 606 294 1253 
Q 294 1797 489 2255 
Q 684 2713 1069 3078 
Q 1331 3328 1684 3456 
Q 2038 3584 2456 3584 
Q 2700 3584 2940 3529 
Q 3181 3475 3431 3366 
z
" transform="scale(0.015625)"/>
       <path id="DejaVuSans-Bold-41" d="M 3419 850 
L 1538 850 
L 1241 0 
L 31 0 
L 1759 4666 
L 3194 4666 
L 4922 0 
L 3713 0 
L 3419 850 
z
M 1838 1716 
L 3116 1716 
L 2478 3572 
L 1838 1716 
z
" transform="scale(0.015625)"/>
       <path id="DejaVuSans-Bold-2f" d="M 1644 4666 
L 2338 4666 
L 691 -594 
L 0 -594 
L 1644 4666 
z
" transform="scale(0.015625)"/>
       <path id="DejaVuSans-Bold-b2" d="M 1288 2613 
L 2444 2613 
L 2444 2088 
L 341 2088 
L 341 2566 
L 1319 3397 
Q 1509 3563 1590 3688 
Q 1672 3813 1672 3938 
Q 1672 4094 1558 4191 
Q 1444 4288 1259 4288 
Q 1066 4288 844 4217 
Q 622 4147 359 4000 
L 359 4581 
Q 631 4666 886 4708 
Q 1141 4750 1375 4750 
Q 1869 4750 2150 4548 
Q 2431 4347 2431 4000 
Q 2431 3775 2320 3586 
Q 2209 3397 1894 3128 
L 1288 2613 
z
" transform="scale(0.015625)"/>
      </defs>
      <use xlink:href="#DejaVuSans-Bold-49" transform="translate(0 0.125)"/>
      <use xlink:href="#DejaVuSans-Oblique-73" transform="translate(38.164062 -16.28125) scale(0.7)"/>
      <use xlink:href="#DejaVuSans-Oblique-63" transform="translate(74.633789 -16.28125) scale(0.7)"/>
      <use xlink:href="#DejaVuSans-Bold-20" transform="translate(115.854492 0.125)"/>
      <use xlink:href="#DejaVuSans-Bold-28" transform="translate(150.668945 0.125)"/>
      <use xlink:href="#DejaVuSans-Bold-6d" transform="translate(196.37207 0.125)"/>
      <use xlink:href="#DejaVuSans-Bold-41" transform="translate(300.571289 0.125)"/>
      <use xlink:href="#DejaVuSans-Bold-2f" transform="translate(377.963867 0.125)"/>
      <use xlink:href="#DejaVuSans-Bold-6d" transform="translate(414.487305 0.125)"/>
      <use xlink:href="#DejaVuSans-Bold-b2" transform="translate(518.686523 0.125)"/>
      <use xlink:href="#DejaVuSans-Bold-29" transform="translate(562.485352 0.125)"/>
     </g>
    </g>
    <g id="text_13">
     <!-- $\times\mathdefault{10^{−3}}\mathdefault{}$ -->
     <g transform="translate(48.029375 14.798437) scale(0.1 -0.1)">
      <defs>
       <path id="DejaVuSans-d7" d="M 4488 3438 
L 3059 2003 
L 4488 575 
L 4116 197 
L 2681 1631 
L 1247 197 
L 878 575 
L 2303 2003 
L 878 3438 
L 1247 3816 
L 2681 2381 
L 4116 3816 
L 4488 3438 
z
" transform="scale(0.015625)"/>
       <path id="DejaVuSans-33" d="M 2597 2516 
Q 3050 2419 3304 2112 
Q 3559 1806 3559 1356 
Q 3559 666 3084 287 
Q 2609 -91 1734 -91 
Q 1441 -91 1130 -33 
Q 819 25 488 141 
L 488 750 
Q 750 597 1062 519 
Q 1375 441 1716 441 
Q 2309 441 2620 675 
Q 2931 909 2931 1356 
Q 2931 1769 2642 2001 
Q 2353 2234 1838 2234 
L 1294 2234 
L 1294 2753 
L 1863 2753 
Q 2328 2753 2575 2939 
Q 2822 3125 2822 3475 
Q 2822 3834 2567 4026 
Q 2313 4219 1838 4219 
Q 1578 4219 1281 4162 
Q 984 4106 628 3988 
L 628 4550 
Q 988 4650 1302 4700 
Q 1616 4750 1894 4750 
Q 2613 4750 3031 4423 
Q 3450 4097 3450 3541 
Q 3450 3153 3228 2886 
Q 3006 2619 2597 2516 
z
" transform="scale(0.015625)"/>
      </defs>
      <use xlink:href="#DejaVuSans-d7" transform="translate(0 0.765625)"/>
      <use xlink:href="#DejaVuSans-31" transform="translate(83.789062 0.765625)"/>
      <use xlink:href="#DejaVuSans-30" transform="translate(147.412109 0.765625)"/>
      <use xlink:href="#DejaVuSans-2212" transform="translate(211.992188 39.046875) scale(0.7)"/>
      <use xlink:href="#DejaVuSans-33" transform="translate(270.644531 39.046875) scale(0.7)"/>
     </g>
    </g>
   </g>
   <g id="patch_5">
    <path d="M 48.029375 273.474438 
L 48.029375 17.798437 
" style="fill: none; stroke: #000000; stroke-width: 0.8; stroke-linejoin: miter; stroke-linecap: square"/>
   </g>
   <g id="patch_6">
    <path d="M 48.029375 273.474438 
L 489.313336 273.474438 
" style="fill: none; stroke: #000000; stroke-width: 0.8; stroke-linejoin: miter; stroke-linecap: square"/>
   </g>
   <g id="line2d_12">
    <path d="M 48.029375 137.924644 
L 48.42661 140.730973 
L 48.823845 142.324692 
L 49.574178 144.4381 
L 49.618315 144.4381 
L 49.971413 145.200313 
L 50.059687 145.269605 
L 50.103825 145.234959 
L 50.412785 145.304251 
L 50.589334 145.58142 
L 50.677608 145.650712 
L 50.721746 145.893234 
L 50.765883 145.789296 
L 50.942432 145.58142 
L 51.030706 145.858588 
L 51.074843 145.823942 
L 51.163118 145.858588 
L 51.29553 146.10111 
L 52.09 148.214519 
L 52.619646 153.134257 
L 52.840332 158.920142 
L 53.061018 171.462007 
L 53.237567 193.808694 
L 53.502391 238.952448 
L 53.546528 235.730366 
L 54.164449 141.943585 
L 54.429272 101.476984 
L 54.605821 97.284812 
L 54.649959 97.38875 
L 54.78237 99.363578 
L 56.194761 133.420661 
L 56.85682 139.137255 
L 57.254055 141.389247 
L 57.607153 142.740444 
L 57.783701 143.190842 
L 58.136799 144.195578 
L 58.401623 144.576684 
L 58.534034 144.78456 
L 58.842995 145.234959 
L 59.107818 145.165667 
L 59.328504 145.477481 
L 59.372641 145.442835 
L 59.505053 145.546774 
L 59.54919 145.789296 
L 59.637465 145.685358 
L 59.814014 145.650712 
L 59.990563 145.92788 
L 60.652621 147.660182 
L 60.696758 147.694828 
L 60.961581 149.565715 
L 61.182268 151.505893 
L 61.491228 158.261866 
L 61.667777 166.750147 
L 61.888463 190.655911 
L 62.153287 239.264262 
L 62.197424 237.635896 
L 62.506384 192.214978 
L 62.859482 136.157695 
L 63.124305 100.091143 
L 63.256717 96.972999 
L 63.300854 97.007648 
L 63.389129 97.839151 
L 63.742227 107.643984 
L 64.360148 124.551268 
L 65.066343 135.187605 
L 66.125637 142.047523 
L 67.008381 144.542038 
L 67.361479 144.78456 
L 67.405616 145.061729 
L 67.493891 145.027083 
L 67.538028 144.992437 
L 67.582165 145.096375 
L 67.626302 145.200313 
L 67.670439 145.131021 
L 67.758714 145.061729 
L 67.802851 145.131021 
L 67.9794 145.304251 
L 68.023537 145.269605 
L 68.067674 145.477481 
L 68.155949 145.373543 
L 68.464909 145.720004 
L 68.509047 145.685358 
L 68.641458 145.823942 
L 68.685596 145.789296 
L 68.729733 145.893234 
L 69.215242 147.486952 
L 69.303517 147.313721 
L 69.921438 152.337398 
L 70.142124 157.395725 
L 70.318673 164.844617 
L 70.539359 187.814931 
L 70.84832 239.194973 
L 70.892457 235.626429 
L 71.554515 130.960782 
L 71.819338 98.566715 
L 71.95175 96.41866 
L 71.995887 96.730474 
L 72.216573 101.303758 
L 73.452416 131.896233 
L 73.893788 136.157695 
L 74.0262 137.404953 
L 74.379297 140.072698 
L 74.599984 141.077433 
L 75.12963 143.225489 
L 75.173767 143.225489 
L 75.61514 144.26487 
L 75.747551 144.715268 
L 75.879963 144.645976 
L 76.056512 144.715268 
L 76.188924 144.923145 
L 76.233061 144.853853 
L 76.321335 145.304251 
L 76.365473 144.853853 
L 76.40961 145.096375 
L 76.497884 145.131021 
L 76.674433 145.373543 
L 76.850982 145.200313 
L 77.071668 145.616066 
L 77.424766 145.997172 
L 77.689589 146.724739 
L 77.733726 146.655447 
L 77.99855 147.590891 
L 78.130961 148.110581 
L 78.395785 149.912176 
L 78.704745 154.624037 
L 78.925431 161.86506 
L 79.10198 174.19905 
L 79.322666 210.265556 
L 79.499215 240.130413 
L 79.58749 232.889397 
L 80.602646 96.141497 
L 80.646783 96.245434 
L 80.823332 99.259641 
L 81.308842 114.053509 
L 81.794351 125.971758 
L 82.147449 132.069459 
L 82.500547 135.67265 
L 83.339154 141.527833 
L 83.471566 141.908938 
L 83.780526 143.12155 
L 83.824663 143.156196 
L 84.045349 143.779825 
L 84.177761 143.987702 
L 84.619133 144.888499 
L 84.751545 144.853853 
L 84.883957 144.923145 
L 85.060506 144.992437 
L 85.104643 145.165667 
L 85.192917 145.096375 
L 85.237054 145.096375 
L 85.325329 145.373543 
L 85.369466 145.234959 
L 85.413603 145.165667 
L 85.457741 145.408189 
L 85.546015 145.338897 
L 85.590152 145.234959 
L 85.678427 145.304251 
L 86.119799 146.10111 
L 86.340485 146.655447 
L 86.384622 146.690093 
L 87.134955 150.709034 
L 87.355641 154.035054 
L 87.620465 163.320189 
L 87.841151 182.20228 
L 88.150111 240.026476 
L 88.238386 235.765016 
L 88.944581 121.190598 
L 89.165267 97.8738 
L 89.297679 95.96826 
L 89.385953 96.765123 
L 89.562502 100.888006 
L 90.621796 128.882027 
L 91.063168 134.87579 
L 92.166599 142.116815 
L 92.29901 142.497921 
L 92.652108 143.641241 
L 92.872794 144.160932 
L 93.09348 144.472746 
L 93.358304 144.992437 
L 93.490715 144.992437 
L 94.241048 145.58142 
L 94.285185 145.477481 
L 94.461734 145.58142 
L 94.638283 145.823942 
L 94.68242 145.789296 
L 95.123793 147.175137 
L 95.212067 147.383014 
L 95.521028 148.560979 
L 95.918263 152.129522 
L 96.138949 157.049262 
L 96.359635 167.685597 
L 96.580321 193.04648 
L 96.845144 240.823328 
L 96.889281 238.328822 
L 97.463065 154.0697 
L 97.816163 98.566715 
L 97.948575 95.725735 
L 97.992712 95.864322 
L 98.125124 97.839151 
L 98.566496 111.524353 
L 99.14028 126.35286 
L 99.669927 134.286813 
L 100.331985 139.656946 
L 101.214729 143.364073 
L 101.303004 143.571949 
L 101.479553 144.091639 
L 102.274023 145.234959 
L 102.494709 145.131021 
L 102.671258 145.304251 
L 102.759532 145.408189 
L 102.980218 145.616066 
L 103.11263 145.650712 
L 103.421591 146.031818 
L 103.509865 146.308986 
L 103.774688 147.24443 
L 104.127786 148.110581 
L 104.657433 153.55001 
L 104.833982 158.08864 
L 105.010531 166.507632 
L 105.231217 190.170861 
L 105.49604 240.892627 
L 105.584314 235.903603 
L 106.29051 119.770108 
L 106.511196 97.458038 
L 106.599471 95.725735 
L 106.643608 95.795034 
L 106.731882 96.626536 
L 107.08498 106.292793 
L 107.658764 123.02684 
L 108.144273 131.965521 
L 108.629783 136.781324 
L 109.115292 140.592389 
L 109.15943 140.557743 
L 109.46839 142.116815 
L 110.351135 144.542038 
L 110.880781 145.096375 
L 110.969056 145.200313 
L 111.013193 145.096375 
L 111.05733 145.234959 
L 111.189742 145.234959 
L 111.233879 145.338897 
L 111.278016 145.234959 
L 111.366291 145.304251 
L 111.54284 145.58142 
L 111.675251 145.650712 
L 111.807663 145.92788 
L 111.8518 145.858588 
L 111.940075 145.893234 
L 112.690407 147.868059 
L 113.043505 149.981467 
L 113.264191 152.545274 
L 113.484878 157.430364 
L 113.705564 168.378512 
L 113.92625 194.570908 
L 114.191073 241.516254 
L 114.23521 238.467409 
L 114.853131 143.086905 
L 115.117955 100.021855 
L 115.294504 95.691096 
L 115.338641 95.760384 
L 115.471053 97.908439 
L 115.868288 110.069213 
L 116.530346 127.149723 
L 116.971718 133.94035 
L 117.236542 136.19234 
L 118.031012 141.562478 
L 118.648933 143.675887 
L 118.781344 143.918409 
L 119.00203 144.472746 
L 119.178579 144.78456 
L 119.355128 144.888499 
L 119.48754 145.027083 
L 119.575814 145.096375 
L 119.7965 145.338897 
L 119.840638 145.304251 
L 120.017187 145.546774 
L 120.149598 145.408189 
L 120.458559 145.893234 
L 120.767519 146.066464 
L 120.988206 146.759385 
L 121.341303 148.041289 
L 121.385441 148.075934 
L 121.738538 150.120051 
L 122.135773 157.1532 
L 122.312322 164.428866 
L 122.533008 184.59286 
L 122.841969 242.070593 
L 122.930243 235.903603 
L 123.989537 95.102108 
L 124.121948 97.007648 
L 124.519183 109.168412 
L 125.137105 125.833171 
L 125.710888 134.84114 
L 126.681907 141.597124 
L 126.858456 142.220753 
L 127.255691 143.641241 
L 127.388103 143.883764 
L 127.741201 144.645976 
L 127.873612 144.853853 
L 128.094298 145.234959 
L 128.182573 145.131021 
L 128.314985 145.200313 
L 128.668082 145.546774 
L 128.800494 145.75465 
L 129.02118 145.685358 
L 129.241866 146.031818 
L 129.594964 146.586155 
L 129.81565 147.452306 
L 129.903925 147.764121 
L 130.345297 149.738945 
L 130.698395 154.381514 
L 130.963218 163.458776 
L 131.139767 176.866793 
L 131.316316 205.068657 
L 131.537002 242.139881 
L 131.669414 226.375945 
L 132.552158 96.037559 
L 132.640433 95.067458 
L 132.68457 95.171407 
L 132.816981 97.423399 
L 134.185235 132.415922 
L 134.626608 136.885261 
L 134.759019 137.889997 
L 135.06798 140.038052 
L 135.421078 141.908938 
L 136.347959 144.542038 
L 136.436234 144.542038 
L 136.701057 145.165667 
L 136.877606 145.304251 
L 136.921743 145.200313 
L 136.96588 145.234959 
L 137.054155 145.338897 
L 137.098292 145.304251 
L 137.142429 145.269605 
L 137.186567 145.338897 
L 137.539664 145.962526 
L 137.672076 145.789296 
L 137.848625 145.962526 
L 138.025174 146.239694 
L 138.24586 146.759385 
L 138.731369 148.353103 
L 138.775507 148.387749 
L 139.172742 151.471247 
L 139.437565 156.044524 
L 139.658251 164.983204 
L 139.878937 185.666876 
L 140.187898 242.971383 
L 140.276172 236.076829 
L 141.291328 94.99817 
L 141.335466 95.067458 
L 141.467877 96.972999 
L 141.776838 106.39673 
L 142.438896 125.036307 
L 142.880268 132.97026 
L 143.542327 139.102609 
L 144.29266 142.740444 
L 144.469208 143.190842 
L 145.042992 144.645976 
L 145.263678 144.957791 
L 145.660913 145.442835 
L 145.8816 145.442835 
L 146.058148 145.720004 
L 146.234697 146.066464 
L 146.278835 145.92788 
L 146.322972 146.10111 
L 146.367109 146.066464 
L 146.411246 146.170402 
L 146.67607 146.27434 
L 146.896756 146.794031 
L 147.073305 147.383014 
L 147.293991 148.075934 
L 147.47054 148.699563 
L 147.867775 151.817707 
L 148.132598 156.979963 
L 148.353284 166.507632 
L 148.57397 189.824409 
L 148.882931 242.555632 
L 148.927068 238.779222 
L 149.544989 140.245929 
L 149.809812 98.913178 
L 149.986361 95.067458 
L 150.074636 96.002909 
L 150.251185 100.056493 
L 151.178066 126.560735 
L 151.663576 134.460039 
L 152.722869 141.943585 
L 153.208379 143.433364 
L 153.870437 145.131021 
L 154.002849 145.061729 
L 154.091123 145.234959 
L 154.400084 145.720004 
L 154.576633 145.720004 
L 154.797319 146.066464 
L 154.841456 145.789296 
L 154.885593 146.10111 
L 154.92973 146.031818 
L 154.973868 146.10111 
L 155.150417 146.412925 
L 155.41524 146.516863 
L 155.989024 148.595625 
L 156.077298 148.526334 
L 156.51867 151.852354 
L 156.739357 155.594125 
L 156.960043 163.077675 
L 157.136592 176.035291 
L 157.31314 203.197766 
L 157.533827 243.698947 
L 157.577964 241.412316 
L 158.063473 171.32343 
L 158.637257 94.859583 
L 158.681394 94.928882 
L 158.813806 97.146225 
L 159.255178 110.658201 
L 159.696551 123.338653 
L 160.226197 132.866322 
L 160.446883 135.534066 
L 160.535158 136.123049 
L 161.064804 140.523097 
L 161.373765 141.839647 
L 161.991686 143.849118 
L 162.25651 144.472746 
L 162.300647 144.368808 
L 162.433058 144.957791 
L 162.609607 145.373543 
L 162.653745 145.200313 
L 162.697882 145.269605 
L 163.05098 145.512128 
L 163.183391 145.789296 
L 163.448215 146.066464 
L 163.492352 145.997172 
L 163.536489 146.066464 
L 163.668901 146.205048 
L 163.713038 146.135756 
L 163.889587 146.655447 
L 163.933724 146.586155 
L 163.977861 146.620801 
L 164.463371 147.556244 
L 165.125429 151.124787 
L 165.390252 155.316957 
L 165.610939 162.384749 
L 165.831625 178.599097 
L 165.964036 198.76308 
L 166.184722 246.228104 
L 166.22886 245.535189 
L 166.405409 220.105017 
L 167.199879 102.031322 
L 167.33229 99.74468 
L 167.376427 99.813979 
L 167.552976 102.862835 
L 168.656407 130.406454 
L 169.053642 135.84588 
L 169.362603 137.959289 
L 169.759838 140.938849 
L 169.803975 140.973495 
L 170.20121 142.636506 
L 170.289484 142.913674 
L 170.730856 144.230223 
L 170.907405 144.507393 
L 171.348778 145.373543 
L 171.525326 145.512128 
L 171.701875 145.477481 
L 172.143248 146.10111 
L 172.187385 145.997172 
L 172.231522 146.170402 
L 172.275659 146.135756 
L 172.319796 146.205048 
L 172.496345 146.378279 
L 172.628757 146.343633 
L 172.89358 147.105846 
L 173.070129 147.348368 
L 173.511502 148.90744 
L 173.599776 149.496422 
L 173.908737 151.887 
L 174.17356 157.6036 
L 174.394246 167.650948 
L 174.614932 192.214978 
L 174.879755 239.056386 
L 174.923893 236.631168 
L 175.453539 160.687095 
L 175.894912 99.086404 
L 175.983186 97.977738 
L 176.027323 98.047026 
L 176.159735 99.883267 
L 177.572126 133.871051 
L 177.836949 136.296279 
L 178.631419 141.770354 
L 179.602438 144.472746 
L 180.132085 145.512128 
L 180.352771 145.408189 
L 180.52932 145.58142 
L 180.573457 145.58142 
L 180.750006 145.962526 
L 180.838281 145.962526 
L 180.970692 146.135756 
L 181.01483 146.10111 
L 181.058967 146.205048 
L 181.147241 146.239694 
L 181.279653 146.447571 
L 181.32379 146.412925 
L 181.367927 146.378279 
L 182.250672 149.323192 
L 182.692044 153.792532 
L 182.91273 159.751655 
L 183.133416 173.194311 
L 183.309965 196.649675 
L 183.530651 238.640635 
L 183.574788 237.982359 
L 183.751337 214.561666 
L 184.545807 99.467516 
L 184.678219 97.700563 
L 184.766494 98.462777 
L 184.98718 103.798275 
L 185.825787 126.768611 
L 186.223022 133.351362 
L 186.664394 137.543537 
L 187.282315 141.597124 
L 188.385746 144.715268 
L 189.091941 145.720004 
L 189.180216 145.546774 
L 189.224353 145.650712 
L 189.356765 145.650712 
L 189.930549 146.447571 
L 190.018823 146.412925 
L 190.813293 148.491688 
L 191.387077 154.346869 
L 191.6519 162.869799 
L 191.872587 180.677852 
L 192.093273 223.153873 
L 192.225684 239.506787 
L 192.358096 224.401127 
L 193.284978 97.735213 
L 193.329115 97.423399 
L 193.373252 97.492688 
L 193.505664 99.640742 
L 193.947036 112.944832 
L 194.476683 126.214272 
L 195.006329 134.633265 
L 195.712525 140.349866 
L 196.462858 143.364073 
L 196.727681 143.953055 
L 197.169053 144.992437 
L 197.6987 145.512128 
L 197.742837 145.685358 
L 197.831112 145.616066 
L 197.875249 145.616066 
L 197.919386 145.75465 
L 197.963523 145.720004 
L 198.007661 145.650712 
L 198.095935 145.858588 
L 198.140072 145.75465 
L 198.184209 145.720004 
L 198.404896 146.205048 
L 198.449033 146.170402 
L 198.625582 146.447571 
L 198.669719 146.308986 
L 198.757993 146.343633 
L 198.934542 146.794031 
L 199.596601 149.115316 
L 199.861424 151.332662 
L 200.126247 155.975232 
L 200.346933 164.394216 
L 200.523482 178.495159 
L 200.744168 218.788476 
L 200.87658 240.269001 
L 200.920717 238.88316 
L 201.185541 199.594582 
L 201.980011 97.111586 
L 202.024148 97.180874 
L 202.15656 98.947827 
L 202.597932 111.870805 
L 203.127579 125.729233 
L 203.657225 134.494688 
L 204.363421 140.14199 
L 204.760656 141.978231 
L 205.33444 143.814471 
L 205.6434 144.4381 
L 205.775812 144.749914 
L 205.952361 145.061729 
L 206.526145 145.546774 
L 206.702694 145.858588 
L 207.099929 145.858588 
L 207.276478 146.205048 
L 207.408889 146.343633 
L 207.585438 146.724739 
L 207.629575 146.759385 
L 207.673713 146.655447 
L 207.850261 147.521598 
L 207.894399 147.556244 
L 208.115085 148.422395 
L 208.556457 151.471247 
L 208.865418 157.811476 
L 209.086104 168.655687 
L 209.30679 195.055959 
L 209.571613 240.476876 
L 209.61575 237.046919 
L 210.233672 140.349866 
L 210.498495 100.818707 
L 210.675044 96.765123 
L 210.719181 96.869061 
L 210.89573 100.195081 
L 212.087435 130.960782 
L 212.572944 136.504154 
L 213.455689 142.047523 
L 213.852924 143.260135 
L 214.161884 144.26487 
L 214.912217 145.338897 
L 214.956354 145.200313 
L 215.000492 145.269605 
L 215.044629 145.408189 
L 215.132903 145.338897 
L 215.353589 145.616066 
L 215.486001 145.858588 
L 215.66255 145.720004 
L 215.706687 145.823942 
L 215.883236 146.239694 
L 215.927373 146.10111 
L 216.103922 146.343633 
L 216.942529 149.184608 
L 217.25149 151.679123 
L 217.604588 160.40992 
L 217.825274 174.64945 
L 218.001823 200.495383 
L 218.222509 241.550904 
L 218.266646 239.437488 
L 218.752156 169.625766 
L 219.281802 97.111586 
L 219.370077 96.522598 
L 219.502488 98.532076 
L 219.723175 104.595139 
L 220.385233 123.650466 
L 220.91488 132.935611 
L 221.267977 136.400217 
L 221.797624 140.523097 
L 222.01831 141.562478 
L 222.327271 142.77509 
L 222.415545 142.913674 
L 222.856917 144.26487 
L 223.563113 145.304251 
L 223.60725 145.200313 
L 223.695525 145.269605 
L 223.872074 145.477481 
L 224.09276 145.442835 
L 224.225171 145.823942 
L 224.269309 145.720004 
L 224.357583 145.789296 
L 224.445857 145.962526 
L 224.489995 145.858588 
L 224.534132 145.858588 
L 224.622406 146.031818 
L 224.666544 145.997172 
L 224.710681 145.893234 
L 224.88723 146.378279 
L 225.107916 147.105846 
L 225.372739 147.798766 
L 225.416876 147.868059 
L 225.858249 150.882264 
L 226.255484 159.543779 
L 226.432033 169.313952 
L 226.652719 196.545737 
L 226.873405 240.580814 
L 226.917542 240.546165 
L 227.094091 216.882946 
L 227.888561 98.462777 
L 227.976835 96.487949 
L 228.06511 96.591886 
L 228.241659 99.952556 
L 229.565775 132.693086 
L 229.918873 136.019111 
L 230.44852 140.211282 
L 230.669206 141.250663 
L 231.507813 144.126286 
L 232.258146 145.234959 
L 232.302283 145.200313 
L 232.699518 145.408189 
L 232.787793 145.269605 
L 233.052616 145.685358 
L 233.096753 145.685358 
L 233.273302 145.962526 
L 233.361577 145.789296 
L 233.405714 145.823942 
L 234.244321 148.630272 
L 234.641556 152.475982 
L 234.862242 157.326426 
L 235.082928 167.685597 
L 235.303614 192.977192 
L 235.568438 241.758779 
L 235.612575 239.368199 
L 236.142222 162.038286 
L 236.583594 97.111586 
L 236.671868 96.002909 
L 236.716006 96.037559 
L 236.892555 99.051765 
L 238.128397 130.926143 
L 238.525632 135.360836 
L 238.834592 137.993935 
L 239.18769 140.523097 
L 239.231827 140.557743 
L 239.761474 142.879028 
L 240.246984 144.160932 
L 240.335258 144.26487 
L 240.555944 144.749914 
L 240.600081 144.680622 
L 240.644219 144.749914 
L 240.77663 144.992437 
L 240.820767 144.853853 
L 240.864905 144.957791 
L 240.909042 144.957791 
L 241.085591 145.200313 
L 241.350414 145.338897 
L 241.438689 145.269605 
L 241.5711 145.373543 
L 241.703512 145.304251 
L 241.880061 145.823942 
L 241.924198 145.75465 
L 241.968335 145.997172 
L 242.05661 145.92788 
L 242.189021 146.205048 
L 242.233159 146.066464 
L 242.542119 147.24443 
L 242.762805 147.694828 
L 243.248315 151.332662 
L 243.557275 158.08864 
L 243.733824 166.576921 
L 243.95451 190.101573 
L 244.219334 241.828067 
L 244.307608 236.665817 
L 244.969666 127.530825 
L 245.23449 97.458038 
L 245.366901 95.621797 
L 245.455176 96.384011 
L 245.852411 107.505407 
L 246.514469 125.659945 
L 247.088253 134.425389 
L 248.059272 141.28531 
L 248.279958 142.082169 
L 248.986154 144.056993 
L 249.030291 144.022348 
L 249.20684 144.749914 
L 249.250977 144.680622 
L 249.295114 144.749914 
L 249.383389 144.923145 
L 249.427526 144.888499 
L 249.471663 144.923145 
L 249.5158 144.819207 
L 249.648212 144.819207 
L 249.692349 144.923145 
L 249.736487 144.680622 
L 249.780624 144.957791 
L 249.913035 144.957791 
L 250.045447 145.234959 
L 250.089584 145.131021 
L 250.177859 145.408189 
L 250.221996 145.338897 
L 250.266133 145.200313 
L 250.31027 145.269605 
L 250.486819 145.546774 
L 250.530957 145.58142 
L 250.575094 145.408189 
L 250.707505 145.789296 
L 250.79578 145.893234 
L 251.016466 146.482217 
L 251.060603 146.551509 
L 251.325427 147.590891 
L 251.678524 149.046024 
L 252.119897 154.970497 
L 252.340583 162.765851 
L 252.561269 180.851089 
L 252.781955 224.782228 
L 252.914367 242.070593 
L 253.002641 233.755549 
L 254.017797 95.206046 
L 254.106072 95.795034 
L 254.282621 99.74468 
L 255.209502 126.179633 
L 255.827423 134.84114 
L 256.974991 142.255399 
L 257.504638 143.987702 
L 257.548775 143.953055 
L 257.592912 144.056993 
L 258.034285 144.819207 
L 258.122559 144.923145 
L 258.254971 145.027083 
L 258.299108 144.923145 
L 258.387382 144.957791 
L 258.563931 145.200313 
L 258.696343 145.200313 
L 258.917029 145.408189 
L 259.137715 145.477481 
L 259.314264 145.685358 
L 259.402539 145.75465 
L 259.667362 146.551509 
L 259.711499 146.516863 
L 259.755636 146.620801 
L 260.505969 150.431866 
L 260.770792 154.346869 
L 261.035616 164.186341 
L 261.256302 184.281036 
L 261.565262 242.694219 
L 261.653537 236.97763 
L 262.668693 95.240695 
L 262.71283 95.309984 
L 262.801105 95.96826 
L 263.154203 106.015618 
L 263.683849 121.640999 
L 264.213496 131.619058 
L 264.610731 135.84588 
L 265.625887 142.359337 
L 266.067259 143.641241 
L 266.287945 144.230223 
L 266.332083 144.195578 
L 266.596906 144.680622 
L 267.258964 145.131021 
L 267.347239 145.061729 
L 267.523788 145.408189 
L 267.567925 145.269605 
L 267.656199 145.338897 
L 267.96516 145.650712 
L 268.053434 145.75465 
L 268.141709 145.962526 
L 268.27412 146.343633 
L 268.671355 147.590891 
L 268.671355 147.590891 
" clip-path="url(#p8dd86a988c)" style="fill: none; stroke: #333333; stroke-width: 0.8; stroke-linecap: square"/>
   </g>
   <g id="line2d_13">
    <path d="M 268.671355 146.724739 
L 268.715493 146.690093 
L 268.803767 146.863323 
L 268.847904 146.724739 
L 268.892042 146.897969 
L 269.024453 147.001907 
L 269.289277 147.556244 
L 269.686512 149.877529 
L 269.863061 152.164168 
L 270.083747 158.400453 
L 270.260296 170.353341 
L 270.392707 191.383476 
L 270.525119 229.979139 
L 270.569256 229.251564 
L 271.672687 109.999925 
L 271.760961 109.099123 
L 271.805098 109.203061 
L 271.93751 110.970014 
L 273.217489 136.261633 
L 273.923685 141.008141 
L 274.674018 143.571949 
L 274.80643 143.814471 
L 275.071253 144.334162 
L 275.291939 144.645976 
L 275.953997 145.512128 
L 276.262958 145.616066 
L 276.39537 145.650712 
L 276.439507 145.650712 
L 276.616056 146.031818 
L 276.660193 145.893234 
L 276.70433 145.962526 
L 276.836742 146.031818 
L 276.880879 145.92788 
L 276.969153 145.997172 
L 277.013291 146.170402 
L 277.057428 146.135756 
L 277.101565 146.031818 
L 277.145702 146.170402 
L 277.278114 146.10111 
L 277.454663 146.586155 
L 277.4988 146.482217 
L 277.542937 146.655447 
L 277.587075 146.620801 
L 277.631212 146.724739 
L 277.763624 146.759385 
L 277.98431 147.036553 
L 278.028447 147.036553 
L 278.558094 149.461776 
L 278.77878 152.510629 
L 278.955329 157.534301 
L 279.131877 168.759625 
L 279.308426 199.559933 
L 279.396701 223.500336 
L 279.440838 222.980637 
L 280.544269 108.406198 
L 280.632543 107.609345 
L 280.67668 107.851859 
L 280.853229 110.900715 
L 281.95666 134.39075 
L 282.353895 138.47898 
L 283.501463 143.398719 
L 283.589737 143.468011 
L 283.810423 144.056993 
L 283.986972 144.334162 
L 284.781442 145.442835 
L 285.090403 145.512128 
L 285.311089 145.685358 
L 285.355226 145.685358 
L 285.531775 145.997172 
L 285.575912 145.858588 
L 285.664187 145.92788 
L 285.973147 146.031818 
L 286.017284 146.135756 
L 286.105559 146.066464 
L 286.679343 146.794031 
L 286.72348 146.690093 
L 286.767617 146.794031 
L 286.900029 146.967262 
L 287.385538 149.115316 
L 287.694499 153.55001 
L 287.871048 159.820943 
L 288.047597 174.129751 
L 288.224145 215.497106 
L 288.268283 224.054664 
L 288.31242 223.049936 
L 288.842067 173.817937 
L 289.018616 149.77359 
L 289.283439 113.222007 
L 289.459988 107.678633 
L 289.504125 107.540046 
L 289.548262 107.643984 
L 289.724811 110.866076 
L 290.210321 122.99219 
L 290.69583 132.450571 
L 291.181339 138.132519 
L 291.534437 140.072698 
L 291.578574 140.14199 
L 292.064084 142.567214 
L 292.417182 143.398719 
L 292.549593 143.641241 
L 293.07924 144.61133 
L 293.653024 145.442835 
L 293.697161 145.373543 
L 293.741298 145.408189 
L 293.785436 145.442835 
L 293.829573 145.304251 
L 293.87371 145.408189 
L 294.094396 145.650712 
L 294.138533 145.789296 
L 294.182671 145.58142 
L 294.226808 145.75465 
L 294.315082 145.720004 
L 294.35922 145.92788 
L 294.447494 145.823942 
L 294.491631 145.997172 
L 294.579906 145.92788 
L 294.624043 145.962526 
L 294.712317 145.75465 
L 294.756455 145.823942 
L 295.109552 146.27434 
L 295.15369 146.239694 
L 295.197827 146.343633 
L 295.374376 146.620801 
L 295.418513 146.586155 
L 295.46265 146.551509 
L 295.506787 146.655447 
L 295.639199 146.794031 
L 295.683336 146.794031 
L 296.212983 148.699563 
L 296.433669 151.020848 
L 296.654355 155.975232 
L 296.830904 165.398955 
L 297.007453 189.616534 
L 297.139865 224.470415 
L 297.184002 223.084574 
L 297.669511 176.866793 
L 297.84606 158.331165 
L 298.155021 112.944832 
L 298.33157 107.574695 
L 298.375707 107.401469 
L 298.419844 107.609345 
L 298.64053 111.801516 
L 299.611549 133.004899 
L 300.141196 138.790794 
L 300.71498 141.701063 
L 301.02394 142.844382 
L 301.244626 143.225489 
L 301.332901 143.398719 
L 301.950822 144.61133 
L 302.215645 144.957791 
L 302.61288 145.408189 
L 302.965978 145.442835 
L 303.09839 145.685358 
L 303.142527 145.616066 
L 303.186664 145.75465 
L 303.274939 145.685358 
L 304.599055 146.828678 
L 304.99629 147.868059 
L 305.349388 151.783061 
L 305.570074 157.742177 
L 305.746623 169.625766 
L 305.923172 202.227676 
L 306.011447 224.505065 
L 306.055584 222.84206 
L 306.496956 179.603825 
L 306.673505 165.15643 
L 307.114877 108.683372 
L 307.247289 107.089656 
L 307.379701 108.718011 
L 308.703817 135.638004 
L 309.012778 138.548272 
L 309.277601 139.899468 
L 309.586562 141.493186 
L 309.895522 142.705798 
L 310.24862 143.433364 
L 310.513443 144.056993 
L 310.822404 144.542038 
L 310.910678 144.576684 
L 311.263776 145.200313 
L 311.307913 145.165667 
L 311.352051 145.269605 
L 311.661011 145.338897 
L 311.793423 145.616066 
L 311.881697 145.546774 
L 312.014109 145.616066 
L 312.058246 145.75465 
L 312.102383 145.650712 
L 312.278932 145.650712 
L 312.32307 145.720004 
L 312.367207 145.650712 
L 312.499618 145.75465 
L 312.63203 145.962526 
L 312.764442 145.823942 
L 312.985128 146.170402 
L 313.338226 146.724739 
L 313.382363 146.690093 
L 313.4265 146.759385 
L 313.691323 147.209784 
L 314.088558 149.946821 
L 314.22097 151.783061 
L 314.441656 157.742177 
L 314.618205 169.833652 
L 314.794754 202.816664 
L 314.883029 224.71294 
L 314.927166 222.84206 
L 315.368538 179.534537 
L 315.545087 164.740679 
L 315.986459 108.510135 
L 316.074734 107.124295 
L 316.118871 107.228233 
L 316.207145 107.955808 
L 316.60438 117.414178 
L 317.354713 132.762385 
L 317.972634 139.137255 
L 318.105046 139.691591 
L 318.458144 141.423894 
L 318.67883 142.359337 
L 318.98779 142.982966 
L 319.4733 144.160932 
L 319.517437 144.160932 
L 319.78226 144.645976 
L 320.002946 144.957791 
L 320.311907 145.269605 
L 320.488456 145.234959 
L 320.57673 145.373543 
L 320.620868 145.304251 
L 320.753279 145.408189 
L 320.885691 145.58142 
L 321.018103 145.512128 
L 321.106377 145.616066 
L 321.150514 145.512128 
L 321.282926 145.477481 
L 321.3712 145.823942 
L 321.415338 145.685358 
L 321.459475 145.789296 
L 321.503612 145.720004 
L 321.547749 145.685358 
L 321.636024 145.997172 
L 321.724298 145.893234 
L 321.85671 145.823942 
L 322.077396 146.447571 
L 322.121533 146.412925 
L 322.16567 146.516863 
L 322.342219 146.620801 
L 322.474631 146.932615 
L 322.518768 146.897969 
L 322.783592 148.075934 
L 322.96014 149.842883 
L 323.224964 154.485453 
L 323.44565 165.814707 
L 323.622199 191.244889 
L 323.75461 225.094052 
L 323.798748 222.703473 
L 324.24012 179.3613 
L 324.416669 164.290279 
L 324.858041 108.198322 
L 324.990453 107.020357 
L 325.122864 108.718011 
L 325.431825 115.993688 
L 326.049746 130.09463 
L 326.800079 138.686856 
L 327.153177 140.31522 
L 327.373863 141.666417 
L 327.682823 142.705798 
L 327.726961 142.60186 
L 327.903509 143.156196 
L 327.947647 143.190842 
L 328.168333 143.849118 
L 329.051077 145.165667 
L 329.095214 145.061729 
L 329.139352 145.096375 
L 329.227626 145.200313 
L 329.271763 145.165667 
L 329.315901 145.061729 
L 329.360038 145.165667 
L 329.536587 145.304251 
L 329.889685 145.442835 
L 329.977959 145.234959 
L 330.022096 145.304251 
L 330.198645 145.58142 
L 330.242782 145.304251 
L 330.28692 145.512128 
L 330.331057 145.685358 
L 330.419331 145.616066 
L 330.507606 145.616066 
L 330.640017 145.997172 
L 330.684155 145.92788 
L 330.728292 145.650712 
L 330.772429 145.823942 
L 331.037252 146.412925 
L 331.08139 146.343633 
L 331.213801 146.516863 
L 331.346213 146.586155 
L 331.566899 147.41766 
L 332.008271 152.302752 
L 332.18482 157.776826 
L 332.361369 170.180104 
L 332.537918 204.167855 
L 332.626192 224.920816 
L 332.67033 222.391659 
L 333.111702 179.222723 
L 333.288251 164.013115 
L 333.685486 109.549524 
L 333.862035 106.777832 
L 333.994446 108.648723 
L 335.318563 135.707296 
L 335.450975 136.712031 
L 335.804072 138.998671 
L 336.421994 142.082169 
L 336.466131 142.012877 
L 336.510268 142.082169 
L 336.598542 142.740444 
L 336.64268 142.463276 
L 336.863366 143.29478 
L 337.481287 144.403454 
L 337.657836 144.749914 
L 337.701973 144.715268 
L 337.834385 144.957791 
L 337.922659 144.749914 
L 338.099208 145.096375 
L 338.187483 145.027083 
L 338.408169 145.269605 
L 338.584718 145.131021 
L 338.628855 145.234959 
L 338.717129 145.304251 
L 338.893678 145.165667 
L 338.981953 145.304251 
L 339.02609 145.234959 
L 339.070227 145.234959 
L 339.202639 145.616066 
L 339.33505 145.546774 
L 339.423325 145.58142 
L 339.555736 145.858588 
L 339.599874 145.720004 
L 339.644011 145.823942 
L 339.864697 146.378279 
L 339.908834 146.066464 
L 339.952971 146.412925 
L 340.085383 146.205048 
L 340.350206 146.967262 
L 340.747442 150.293281 
L 340.968128 154.450807 
L 341.188814 166.12652 
L 341.365363 192.353565 
L 341.497774 225.19799 
L 341.541912 222.287722 
L 341.939147 181.544004 
L 342.159833 163.493426 
L 342.557068 109.203061 
L 342.733617 106.847131 
L 342.910165 109.445586 
L 343.748773 129.19384 
L 344.234282 135.880526 
L 344.58738 138.617564 
L 345.205301 141.839647 
L 345.867359 143.675887 
L 345.955634 143.675887 
L 346.882516 144.992437 
L 347.014927 144.923145 
L 347.279751 145.200313 
L 347.456299 145.096375 
L 347.632848 145.234959 
L 347.809397 145.234959 
L 347.941809 145.512128 
L 348.206632 145.373543 
L 348.383181 145.650712 
L 348.427318 145.512128 
L 348.603867 146.066464 
L 349.04524 146.516863 
L 349.398337 147.93735 
L 349.795572 153.376779 
L 350.016258 163.008376 
L 350.192807 183.62277 
L 350.369356 225.059403 
L 350.413493 221.906609 
L 350.810728 181.647942 
L 351.031415 163.043025 
L 351.42865 109.237711 
L 351.605198 106.847131 
L 351.781747 109.584163 
L 352.178982 119.458295 
L 352.752766 131.376544 
L 353.547236 139.171901 
L 353.635511 139.518361 
L 354.032746 141.874292 
L 354.165157 142.047523 
L 354.60653 143.433364 
L 355.665823 144.957791 
L 355.842372 145.027083 
L 355.974784 145.200313 
L 356.018921 145.131021 
L 356.327881 145.200313 
L 356.372019 145.304251 
L 356.460293 145.234959 
L 356.592705 145.304251 
L 356.769254 145.442835 
L 356.813391 145.373543 
L 356.857528 145.546774 
L 356.945803 145.477481 
L 356.98994 145.546774 
L 357.078214 145.373543 
L 357.122351 145.477481 
L 357.166489 145.477481 
L 357.343038 145.789296 
L 357.387175 145.789296 
L 357.563724 146.482217 
L 357.607861 146.412925 
L 357.828547 146.308986 
L 358.137508 147.313721 
L 358.225782 147.660182 
L 358.667154 153.446071 
L 358.88784 163.250901 
L 359.064389 184.177098 
L 359.240938 225.163341 
L 359.285075 221.698734 
L 359.68231 181.613292 
L 359.902997 162.661913 
L 360.300232 109.099123 
L 360.47678 106.916419 
L 360.609192 108.752661 
L 361.845034 134.494688 
L 362.198132 137.855351 
L 362.55123 139.934114 
L 362.639504 140.384513 
L 363.522249 143.571949 
L 363.566386 143.537303 
L 363.610523 143.641241 
L 363.831209 143.987702 
L 363.875347 143.953055 
L 364.228444 144.715268 
L 364.360856 144.819207 
L 365.067052 145.234959 
L 365.376012 145.234959 
L 365.464287 145.477481 
L 365.508424 145.408189 
L 365.817384 145.616066 
L 365.905659 145.512128 
L 365.949796 145.546774 
L 366.258757 145.858588 
L 366.479443 146.412925 
L 366.611855 146.516863 
L 366.744266 146.343633 
L 367.00909 147.452306 
L 367.273913 149.461776 
L 367.406325 150.847618 
L 367.627011 156.460274 
L 367.80356 167.131259 
L 367.980108 194.674846 
L 368.11252 225.128691 
L 368.156657 221.317632 
L 368.553892 181.440066 
L 368.774578 162.315461 
L 369.171813 108.960536 
L 369.348362 106.916419 
L 369.480774 108.683372 
L 370.716616 134.598626 
L 371.113851 138.340396 
L 371.731772 141.562478 
L 372.526242 143.710533 
L 373.011752 144.61133 
L 373.144164 144.819207 
L 373.232438 144.819207 
L 373.497261 145.061729 
L 373.629673 145.131021 
L 373.806222 145.269605 
L 373.850359 145.165667 
L 373.894496 145.234959 
L 373.938634 145.304251 
L 373.982771 145.234959 
L 374.15932 145.200313 
L 374.380006 145.546774 
L 374.424143 145.477481 
L 374.556555 145.650712 
L 374.688966 145.720004 
L 374.733104 145.650712 
L 374.821378 145.477481 
L 374.997927 146.031818 
L 375.042064 145.962526 
L 375.086201 146.031818 
L 375.351025 146.378279 
L 375.483436 146.308986 
L 375.615848 146.516863 
L 375.924809 147.798766 
L 376.145495 149.392484 
L 376.366181 152.787797 
L 376.54273 158.57369 
L 376.719279 171.947057 
L 376.895828 209.122241 
L 376.984102 225.024753 
L 377.028239 221.109757 
L 377.425474 181.336128 
L 377.64616 161.830411 
L 377.999258 110.831427 
L 378.175807 106.951069 
L 378.219944 106.985707 
L 378.308219 107.990447 
L 378.749591 118.661431 
L 379.190963 128.535564 
L 379.632335 135.291543 
L 380.02957 138.686856 
L 380.161982 139.275839 
L 380.382668 140.557743 
L 380.735766 142.220753 
L 380.82404 142.324692 
L 381.000589 142.879028 
L 381.221275 143.398719 
L 381.486099 143.918409 
L 381.618511 144.160932 
L 382.236432 144.992437 
L 382.324706 145.096375 
L 382.589529 145.338897 
L 382.721941 145.269605 
L 382.854353 145.338897 
L 382.89849 145.269605 
L 382.942627 145.165667 
L 383.075039 145.477481 
L 383.119176 145.408189 
L 383.295725 145.75465 
L 383.428137 145.685358 
L 383.560548 145.58142 
L 383.737097 145.58142 
L 383.913646 146.135756 
L 384.001921 146.031818 
L 384.178469 146.412925 
L 384.399156 146.620801 
L 384.443293 146.586155 
L 384.48743 146.690093 
L 385.017077 149.531069 
L 385.237763 152.649213 
L 385.414312 158.608329 
L 385.590861 172.224221 
L 385.76741 209.988382 
L 385.855684 225.094052 
L 385.899821 220.901881 
L 386.297056 181.162902 
L 386.517742 161.726473 
L 386.87084 110.69284 
L 387.047389 106.88177 
L 387.091526 106.88177 
L 387.268075 109.826688 
L 388.548055 135.880526 
L 388.989427 139.102609 
L 389.563211 142.012877 
L 390.181132 143.641241 
L 390.401818 143.953055 
L 390.799053 144.749914 
L 390.84319 144.715268 
L 391.152151 145.061729 
L 391.240425 145.165667 
L 391.505249 145.442835 
L 391.681797 145.269605 
L 392.476267 145.823942 
L 392.564542 145.75465 
L 392.961777 146.516863 
L 393.094189 146.551509 
L 393.2266 146.447571 
L 393.314875 146.447571 
L 393.932796 149.877529 
L 394.153482 153.931116 
L 394.374168 164.290279 
L 394.550717 186.498389 
L 394.727266 224.920816 
L 394.771403 220.555418 
L 395.124501 183.449534 
L 395.30105 171.531306 
L 395.433461 152.475982 
L 395.698285 113.152708 
L 395.874834 106.985707 
L 395.918971 106.916419 
L 395.963108 106.951069 
L 396.09552 108.891248 
L 396.669304 123.407941 
L 397.154813 132.623797 
L 397.596185 137.612828 
L 398.390655 142.047523 
L 398.523067 142.42863 
L 399.008577 143.675887 
L 399.096851 143.745179 
L 399.494086 144.507393 
L 399.714772 144.853853 
L 399.847184 144.923145 
L 400.244419 145.373543 
L 400.465105 145.477481 
L 400.509242 145.338897 
L 400.553379 145.546774 
L 400.597517 145.408189 
L 400.729928 145.512128 
L 400.774066 145.858588 
L 400.86234 145.789296 
L 400.906477 145.720004 
L 400.950614 145.858588 
L 400.994752 145.823942 
L 401.038889 145.720004 
L 401.083026 145.75465 
L 401.171301 145.962526 
L 401.215438 145.893234 
L 401.391987 145.823942 
L 402.009908 146.620801 
L 402.230594 146.828678 
L 402.495417 147.971996 
L 402.627829 148.630272 
L 402.804378 150.293281 
L 402.980927 153.064965 
L 403.201613 161.622535 
L 403.378162 179.222723 
L 403.598848 224.955465 
L 403.642985 220.278254 
L 404.04022 181.093603 
L 404.260906 160.548508 
L 404.614004 110.519614 
L 404.790553 106.916419 
L 404.878827 107.574695 
L 405.099513 112.11333 
L 405.982258 132.173397 
L 406.556042 138.444334 
L 407.041551 141.112079 
L 407.70361 143.398719 
L 407.747747 143.364073 
L 408.100845 144.126286 
L 409.027726 145.512128 
L 409.116001 145.408189 
L 409.248412 145.512128 
L 409.29255 145.442835 
L 409.336687 145.477481 
L 409.380824 145.546774 
L 409.424961 145.477481 
L 409.513236 145.546774 
L 409.689785 145.720004 
L 409.822196 145.823942 
L 409.866334 146.031818 
L 409.954608 145.92788 
L 410.08702 146.066464 
L 410.219431 146.066464 
L 410.307706 145.893234 
L 410.351843 145.997172 
L 410.528392 146.482217 
L 410.572529 146.447571 
L 410.704941 146.620801 
L 410.749078 146.516863 
L 410.793215 146.620801 
L 410.88149 146.759385 
L 410.925627 146.690093 
L 411.013901 146.759385 
L 411.322862 147.660182 
L 411.808371 152.337398 
L 412.029058 159.613068 
L 412.205606 173.263599 
L 412.382155 213.175825 
L 412.47043 225.128691 
L 412.514567 220.278254 
L 412.867665 183.241658 
L 413.088351 166.680858 
L 413.57386 107.886509 
L 413.662135 107.193594 
L 413.706272 107.262882 
L 413.882821 110.242439 
L 415.030389 134.87579 
L 415.692447 140.245929 
L 415.913133 141.250663 
L 416.310368 142.844382 
L 416.398643 142.948321 
L 416.531054 143.398719 
L 416.575192 143.329426 
L 416.795878 143.883764 
L 416.840015 143.814471 
L 416.884152 143.849118 
L 417.281387 144.749914 
L 417.457936 144.853853 
L 417.590348 144.992437 
L 417.811034 145.477481 
L 417.987583 145.58142 
L 418.208269 145.685358 
L 418.296543 145.616066 
L 418.428955 145.858588 
L 418.473092 145.685358 
L 418.517229 146.066464 
L 418.605504 146.031818 
L 418.649641 145.92788 
L 418.693778 146.135756 
L 418.782053 146.10111 
L 419.002739 145.997172 
L 419.179288 146.170402 
L 419.267562 146.343633 
L 419.444111 146.620801 
L 419.929621 147.071199 
L 420.238581 148.353103 
L 420.370993 148.872793 
L 420.591679 151.124787 
L 420.812365 156.252401 
L 420.988914 165.087142 
L 421.165463 188.334631 
L 421.297874 225.336567 
L 421.386149 220.035729 
L 421.739247 183.17237 
L 421.959933 166.195808 
L 422.445442 107.81722 
L 422.533717 107.124295 
L 422.577854 107.262882 
L 422.975089 115.993688 
L 423.460598 127.704061 
L 423.946108 135.430127 
L 424.564029 140.349866 
L 425.314362 143.364073 
L 425.358499 143.364073 
L 425.579185 143.745179 
L 426.020557 144.61133 
L 426.285381 145.096375 
L 426.329518 144.78456 
L 426.373655 145.200313 
L 426.46193 145.061729 
L 426.638479 145.442835 
L 426.903302 145.685358 
L 426.947439 145.546774 
L 426.991576 145.650712 
L 427.035714 145.720004 
L 427.079851 145.685358 
L 427.123988 145.616066 
L 427.300537 145.893234 
L 427.344674 145.858588 
L 427.388811 145.962526 
L 427.521223 146.170402 
L 427.697772 146.10111 
L 427.830184 146.27434 
L 427.874321 146.10111 
L 427.962595 146.135756 
L 428.006732 146.135756 
L 428.183281 146.516863 
L 428.227419 146.482217 
L 428.668791 147.175137 
L 428.712928 147.036553 
L 428.757065 147.105846 
L 428.977751 147.625536 
L 429.330849 149.635006 
L 429.595672 153.653947 
L 429.816359 162.454037 
L 429.992908 180.677852 
L 430.169456 225.336567 
L 430.257731 219.827854 
L 430.610829 183.241658 
L 430.831515 166.403694 
L 431.317024 107.678633 
L 431.405299 107.020357 
L 431.449436 107.33217 
L 431.581848 109.376287 
L 432.597004 132.48521 
L 433.214925 139.137255 
L 434.009395 142.913674 
L 434.494904 143.814471 
L 434.803865 144.4381 
L 435.112825 144.819207 
L 435.686609 145.58142 
L 435.99557 145.650712 
L 436.392805 146.205048 
L 436.569354 145.997172 
L 436.701765 146.27434 
L 436.745903 146.308986 
L 436.79004 146.10111 
L 436.834177 146.343633 
L 437.054863 146.690093 
L 437.143138 146.551509 
L 437.187275 146.620801 
L 437.319687 146.828678 
L 437.496236 146.932615 
L 437.58451 147.140492 
L 437.628647 147.105846 
L 437.716922 147.209784 
L 438.246568 150.22399 
L 438.467254 153.827178 
L 438.643803 159.994169 
L 438.820352 174.476213 
L 438.996901 216.190021 
L 439.041038 225.544442 
L 439.085176 224.71294 
L 439.614822 174.302987 
L 439.791371 149.738945 
L 440.056194 112.667668 
L 440.232743 107.193594 
L 440.276881 107.055007 
L 440.321018 107.193594 
L 440.497567 110.311738 
L 441.292037 129.401715 
L 441.733409 135.984465 
L 442.130644 139.449069 
L 443.013388 143.190842 
L 443.498898 144.091639 
L 443.763721 144.61133 
L 444.160956 145.061729 
L 444.514054 145.616066 
L 444.558191 145.546774 
L 444.73474 145.512128 
L 444.778877 145.650712 
L 444.823015 145.58142 
L 444.867152 145.512128 
L 445.043701 145.823942 
L 445.131975 145.858588 
L 445.176112 146.10111 
L 445.22025 145.92788 
L 445.705759 146.205048 
L 445.749896 146.170402 
L 445.926445 146.412925 
L 445.970582 146.343633 
L 446.01472 146.412925 
L 446.765052 147.694828 
L 446.985739 148.872793 
L 447.250562 151.852354 
L 447.471248 157.950052 
L 447.647797 169.625766 
L 447.824346 201.465462 
L 447.91262 225.752318 
L 447.956757 224.470415 
L 448.442267 177.663646 
L 448.618816 158.504391 
L 448.927776 112.390494 
L 449.104325 107.020357 
L 449.148463 106.847131 
L 449.280874 108.475497 
L 449.722246 119.492944 
L 450.251893 131.06472 
L 450.825677 138.167165 
L 451.178775 140.280575 
L 451.267049 140.48845 
L 451.57601 142.220753 
L 452.061519 143.433364 
L 452.149794 143.468011 
L 452.326343 143.953055 
L 452.723578 144.645976 
L 452.855989 144.749914 
L 452.988401 144.923145 
L 453.209087 145.408189 
L 453.385636 145.512128 
L 453.429773 145.373543 
L 453.47391 145.442835 
L 453.915283 145.789296 
L 453.95942 146.031818 
L 454.003557 145.92788 
L 454.047694 145.789296 
L 454.135969 145.858588 
L 454.312518 145.893234 
L 454.444929 146.135756 
L 454.533204 146.066464 
L 454.665615 146.516863 
L 454.709753 146.447571 
L 455.06285 146.655447 
L 455.106988 146.586155 
L 455.151125 146.690093 
L 455.813183 148.353103 
L 456.122144 151.956291 
L 456.298693 156.321693 
L 456.475242 165.883995 
L 456.651791 190.621262 
L 456.784202 225.925555 
L 456.828339 224.262539 
L 457.269712 180.331389 
L 457.446261 165.398955 
L 457.887633 108.129034 
L 458.020044 106.847131 
L 458.108319 107.574695 
L 458.505554 117.171653 
L 458.991063 128.570213 
L 459.388298 134.702564 
L 459.829671 139.067962 
L 460.271043 141.250663 
L 460.403455 141.805001 
L 460.624141 142.671151 
L 460.756552 143.052258 
L 461.418611 144.368808 
L 461.551022 144.4381 
L 462.080669 145.408189 
L 462.124806 145.338897 
L 462.168943 145.408189 
L 462.477904 145.442835 
L 462.786865 145.893234 
L 463.051688 145.789296 
L 463.1841 145.823942 
L 463.448923 146.170402 
L 463.49306 146.066464 
L 463.537197 146.170402 
L 464.022707 146.655447 
L 464.684765 148.387749 
L 464.993726 151.956291 
L 465.170275 156.460274 
L 465.346824 166.161169 
L 465.523372 191.556702 
L 465.655784 226.341306 
L 465.699921 224.089313 
L 466.141294 180.088875 
L 466.317842 164.844617 
L 466.759215 107.990447 
L 466.891626 106.708544 
L 466.979901 107.713283 
L 467.244724 113.845633 
L 467.995057 130.926143 
L 468.480566 137.16243 
L 469.142625 141.181372 
L 469.319174 142.012877 
L 469.53986 142.809735 
L 470.290193 144.299516 
L 471.084663 145.408189 
L 471.349486 145.442835 
L 471.526035 145.650712 
L 471.614309 145.58142 
L 471.658447 145.823942 
L 471.746721 145.75465 
L 471.879133 145.858588 
L 471.92327 145.650712 
L 472.011544 145.75465 
L 472.320505 146.066464 
L 472.364642 145.962526 
L 472.452917 146.239694 
L 472.497054 146.135756 
L 472.761877 146.551509 
L 472.850152 146.482217 
L 473.291524 147.348368 
L 473.51221 148.075934 
L 473.865308 151.887 
L 474.085994 158.227227 
L 474.262543 170.595855 
L 474.439092 205.068657 
L 474.527366 226.237368 
L 474.571503 223.638913 
L 475.012876 180.019576 
L 475.189424 164.775329 
L 475.630797 107.678633 
L 475.719071 106.500668 
L 475.763208 106.604606 
L 475.851483 107.505407 
L 476.292855 118.349618 
L 476.822502 130.267867 
L 477.308011 136.677385 
L 477.616972 139.102609 
L 478.543853 142.948321 
L 478.852814 143.745179 
L 479.161775 144.230223 
L 479.250049 144.299516 
L 479.735558 145.200313 
L 480.088656 145.373543 
L 480.132793 145.269605 
L 480.176931 145.338897 
L 480.397617 145.616066 
L 480.441754 145.512128 
L 480.485891 145.650712 
L 480.618303 145.720004 
L 480.750715 145.685358 
L 480.794852 145.75465 
L 480.838989 145.650712 
L 480.883126 145.58142 
L 481.103812 146.031818 
L 481.192087 146.135756 
L 481.236224 146.066464 
L 481.501047 146.135756 
L 481.677596 146.551509 
L 481.721733 146.516863 
L 482.295517 147.521598 
L 482.604478 150.016113 
L 482.869301 154.866559 
L 483.089987 166.438333 
L 483.266536 193.04648 
L 483.398948 226.13343 
L 483.443085 223.257811 
L 483.84032 182.340867 
L 484.061006 164.359578 
L 484.458241 108.856598 
L 484.590653 106.466019 
L 484.63479 106.535318 
L 484.767202 108.232972 
L 486.135456 136.123049 
L 486.532691 139.310485 
L 486.70924 139.830175 
L 487.0182 141.701063 
L 487.856808 143.987702 
L 487.945082 143.953055 
L 488.386454 144.715268 
L 488.430591 144.749914 
L 488.60714 145.061729 
L 488.739552 145.165667 
L 489.313336 145.546774 
L 489.313336 145.546774 
" clip-path="url(#p8dd86a988c)" style="fill: none; stroke: #d94452; stroke-width: 0.8; stroke-linecap: square"/>
   </g>
   <g id="text_14">
    <g id="patch_7">
     <path d="M 99.650365 263.690638 
L 217.050365 263.690638 
Q 220.050365 263.690638 220.050365 260.690638 
L 220.050365 250.090638 
Q 220.050365 247.090638 217.050365 247.090638 
L 99.650365 247.090638 
Q 96.650365 247.090638 96.650365 250.090638 
L 96.650365 260.690638 
Q 96.650365 263.690638 99.650365 263.690638 
z
" style="fill: #ffffff; opacity: 0.85; stroke: #333333; stroke-linejoin: miter"/>
    </g>
    <!-- I$_{p-p}$ = 3.52E-03 mA/m² -->
    <g style="fill: #333333" transform="translate(99.650365 257.590638) scale(0.1 -0.1)">
     <defs>
      <path id="DejaVuSans-49" d="M 628 4666 
L 1259 4666 
L 1259 0 
L 628 0 
L 628 4666 
z
" transform="scale(0.015625)"/>
      <path id="DejaVuSans-Oblique-70" d="M 3175 2156 
Q 3175 2616 2975 2859 
Q 2775 3103 2400 3103 
Q 2144 3103 1911 2972 
Q 1678 2841 1497 2591 
Q 1319 2344 1212 1994 
Q 1106 1644 1106 1300 
Q 1106 863 1306 627 
Q 1506 391 1875 391 
Q 2147 391 2380 519 
Q 2613 647 2778 891 
Q 2956 1147 3065 1494 
Q 3175 1841 3175 2156 
z
M 1394 2969 
Q 1625 3272 1939 3428 
Q 2253 3584 2638 3584 
Q 3175 3584 3472 3232 
Q 3769 2881 3769 2247 
Q 3769 1728 3584 1258 
Q 3400 788 3053 416 
Q 2822 169 2531 39 
Q 2241 -91 1919 -91 
Q 1547 -91 1294 64 
Q 1041 219 916 525 
L 556 -1331 
L -19 -1331 
L 922 3500 
L 1497 3500 
L 1394 2969 
z
" transform="scale(0.015625)"/>
      <path id="DejaVuSans-20" transform="scale(0.015625)"/>
      <path id="DejaVuSans-3d" d="M 678 2906 
L 4684 2906 
L 4684 2381 
L 678 2381 
L 678 2906 
z
M 678 1631 
L 4684 1631 
L 4684 1100 
L 678 1100 
L 678 1631 
z
" transform="scale(0.015625)"/>
      <path id="DejaVuSans-2e" d="M 684 794 
L 1344 794 
L 1344 0 
L 684 0 
L 684 794 
z
" transform="scale(0.015625)"/>
      <path id="DejaVuSans-35" d="M 691 4666 
L 3169 4666 
L 3169 4134 
L 1269 4134 
L 1269 2991 
Q 1406 3038 1543 3061 
Q 1681 3084 1819 3084 
Q 2600 3084 3056 2656 
Q 3513 2228 3513 1497 
Q 3513 744 3044 326 
Q 2575 -91 1722 -91 
Q 1428 -91 1123 -41 
Q 819 9 494 109 
L 494 744 
Q 775 591 1075 516 
Q 1375 441 1709 441 
Q 2250 441 2565 725 
Q 2881 1009 2881 1497 
Q 2881 1984 2565 2268 
Q 2250 2553 1709 2553 
Q 1456 2553 1204 2497 
Q 953 2441 691 2322 
L 691 4666 
z
" transform="scale(0.015625)"/>
      <path id="DejaVuSans-45" d="M 628 4666 
L 3578 4666 
L 3578 4134 
L 1259 4134 
L 1259 2753 
L 3481 2753 
L 3481 2222 
L 1259 2222 
L 1259 531 
L 3634 531 
L 3634 0 
L 628 0 
L 628 4666 
z
" transform="scale(0.015625)"/>
      <path id="DejaVuSans-2d" d="M 313 2009 
L 1997 2009 
L 1997 1497 
L 313 1497 
L 313 2009 
z
" transform="scale(0.015625)"/>
      <path id="DejaVuSans-6d" d="M 3328 2828 
Q 3544 3216 3844 3400 
Q 4144 3584 4550 3584 
Q 5097 3584 5394 3201 
Q 5691 2819 5691 2113 
L 5691 0 
L 5113 0 
L 5113 2094 
Q 5113 2597 4934 2840 
Q 4756 3084 4391 3084 
Q 3944 3084 3684 2787 
Q 3425 2491 3425 1978 
L 3425 0 
L 2847 0 
L 2847 2094 
Q 2847 2600 2669 2842 
Q 2491 3084 2119 3084 
Q 1678 3084 1418 2786 
Q 1159 2488 1159 1978 
L 1159 0 
L 581 0 
L 581 3500 
L 1159 3500 
L 1159 2956 
Q 1356 3278 1631 3431 
Q 1906 3584 2284 3584 
Q 2666 3584 2933 3390 
Q 3200 3197 3328 2828 
z
" transform="scale(0.015625)"/>
      <path id="DejaVuSans-41" d="M 2188 4044 
L 1331 1722 
L 3047 1722 
L 2188 4044 
z
M 1831 4666 
L 2547 4666 
L 4325 0 
L 3669 0 
L 3244 1197 
L 1141 1197 
L 716 0 
L 50 0 
L 1831 4666 
z
" transform="scale(0.015625)"/>
      <path id="DejaVuSans-2f" d="M 1625 4666 
L 2156 4666 
L 531 -594 
L 0 -594 
L 1625 4666 
z
" transform="scale(0.015625)"/>
      <path id="DejaVuSans-b2" d="M 838 2444 
L 2163 2444 
L 2163 2088 
L 294 2088 
L 294 2431 
Q 400 2528 597 2703 
Q 1672 3656 1672 3950 
Q 1672 4156 1509 4282 
Q 1347 4409 1081 4409 
Q 919 4409 728 4354 
Q 538 4300 313 4191 
L 313 4575 
Q 553 4663 761 4706 
Q 969 4750 1147 4750 
Q 1600 4750 1872 4544 
Q 2144 4338 2144 4000 
Q 2144 3566 1109 2678 
Q 934 2528 838 2444 
z
" transform="scale(0.015625)"/>
     </defs>
     <use xlink:href="#DejaVuSans-49" transform="translate(0 0.78125)"/>
     <use xlink:href="#DejaVuSans-Oblique-70" transform="translate(30.449219 -15.625) scale(0.7)"/>
     <use xlink:href="#DejaVuSans-2212" transform="translate(88.520508 -15.625) scale(0.7)"/>
     <use xlink:href="#DejaVuSans-Oblique-70" transform="translate(160.810547 -15.625) scale(0.7)"/>
     <use xlink:href="#DejaVuSans-20" transform="translate(207.978516 0.78125)"/>
     <use xlink:href="#DejaVuSans-3d" transform="translate(239.765625 0.78125)"/>
     <use xlink:href="#DejaVuSans-20" transform="translate(323.554688 0.78125)"/>
     <use xlink:href="#DejaVuSans-33" transform="translate(355.341797 0.78125)"/>
     <use xlink:href="#DejaVuSans-2e" transform="translate(418.964844 0.78125)"/>
     <use xlink:href="#DejaVuSans-35" transform="translate(450.751953 0.78125)"/>
     <use xlink:href="#DejaVuSans-32" transform="translate(514.375 0.78125)"/>
     <use xlink:href="#DejaVuSans-45" transform="translate(577.998047 0.78125)"/>
     <use xlink:href="#DejaVuSans-2d" transform="translate(641.181641 0.78125)"/>
     <use xlink:href="#DejaVuSans-30" transform="translate(677.265625 0.78125)"/>
     <use xlink:href="#DejaVuSans-33" transform="translate(740.888672 0.78125)"/>
     <use xlink:href="#DejaVuSans-20" transform="translate(804.511719 0.78125)"/>
     <use xlink:href="#DejaVuSans-6d" transform="translate(836.298828 0.78125)"/>
     <use xlink:href="#DejaVuSans-41" transform="translate(933.710938 0.78125)"/>
     <use xlink:href="#DejaVuSans-2f" transform="translate(1002.119141 0.78125)"/>
     <use xlink:href="#DejaVuSans-6d" transform="translate(1035.810547 0.78125)"/>
     <use xlink:href="#DejaVuSans-b2" transform="translate(1133.222656 0.78125)"/>
    </g>
   </g>
   <g id="text_15">
    <g id="patch_8">
     <path d="M 320.442346 263.690638 
L 437.542346 263.690638 
Q 440.542346 263.690638 440.542346 260.690638 
L 440.542346 250.090638 
Q 440.542346 247.090638 437.542346 247.090638 
L 320.442346 247.090638 
Q 317.442346 247.090638 317.442346 250.090638 
L 317.442346 260.690638 
Q 317.442346 263.690638 320.442346 263.690638 
z
" style="fill: #ffffff; opacity: 0.85; stroke: #d94452; stroke-linejoin: miter"/>
    </g>
    <!-- I$_{p-p}$ = 2.87E-03 mA/m² -->
    <g style="fill: #d94452" transform="translate(320.442346 257.590638) scale(0.1 -0.1)">
     <defs>
      <path id="DejaVuSans-37" d="M 525 4666 
L 3525 4666 
L 3525 4397 
L 1831 0 
L 1172 0 
L 2766 4134 
L 525 4134 
L 525 4666 
z
" transform="scale(0.015625)"/>
     </defs>
     <use xlink:href="#DejaVuSans-49" transform="translate(0 0.78125)"/>
     <use xlink:href="#DejaVuSans-Oblique-70" transform="translate(30.449219 -15.625) scale(0.7)"/>
     <use xlink:href="#DejaVuSans-2212" transform="translate(88.520508 -15.625) scale(0.7)"/>
     <use xlink:href="#DejaVuSans-Oblique-70" transform="translate(160.810547 -15.625) scale(0.7)"/>
     <use xlink:href="#DejaVuSans-20" transform="translate(207.978516 0.78125)"/>
     <use xlink:href="#DejaVuSans-3d" transform="translate(239.765625 0.78125)"/>
     <use xlink:href="#DejaVuSans-20" transform="translate(323.554688 0.78125)"/>
     <use xlink:href="#DejaVuSans-32" transform="translate(355.341797 0.78125)"/>
     <use xlink:href="#DejaVuSans-2e" transform="translate(418.964844 0.78125)"/>
     <use xlink:href="#DejaVuSans-38" transform="translate(448.126953 0.78125)"/>
     <use xlink:href="#DejaVuSans-37" transform="translate(511.75 0.78125)"/>
     <use xlink:href="#DejaVuSans-45" transform="translate(575.373047 0.78125)"/>
     <use xlink:href="#DejaVuSans-2d" transform="translate(638.556641 0.78125)"/>
     <use xlink:href="#DejaVuSans-30" transform="translate(674.640625 0.78125)"/>
     <use xlink:href="#DejaVuSans-33" transform="translate(738.263672 0.78125)"/>
     <use xlink:href="#DejaVuSans-20" transform="translate(801.886719 0.78125)"/>
     <use xlink:href="#DejaVuSans-6d" transform="translate(833.673828 0.78125)"/>
     <use xlink:href="#DejaVuSans-41" transform="translate(931.085938 0.78125)"/>
     <use xlink:href="#DejaVuSans-2f" transform="translate(999.494141 0.78125)"/>
     <use xlink:href="#DejaVuSans-6d" transform="translate(1033.185547 0.78125)"/>
     <use xlink:href="#DejaVuSans-b2" transform="translate(1130.597656 0.78125)"/>
    </g>
   </g>
   <g id="text_16">
    <g id="patch_9">
     <path d="M 418.458411 48.3638 
L 476.074817 48.3638 
Q 481.274817 48.3638 481.274817 43.1638 
L 481.274817 30.582237 
Q 481.274817 25.382237 476.074817 25.382237 
L 418.458411 25.382237 
Q 413.258411 25.382237 413.258411 30.582237 
L 413.258411 43.1638 
Q 413.258411 48.3638 418.458411 48.3638 
z
" style="fill: #ffffff; opacity: 0.9; stroke: #f0ad4e; stroke-width: 1.5; stroke-linejoin: miter"/>
    </g>
    <!-- f = 5 Hz -->
    <g style="fill: #f0ad4e" transform="translate(418.458411 40.460206) scale(0.13 -0.13)">
     <defs>
      <path id="DejaVuSans-Bold-66" d="M 2841 4863 
L 2841 4128 
L 2222 4128 
Q 1984 4128 1890 4042 
Q 1797 3956 1797 3744 
L 1797 3500 
L 2753 3500 
L 2753 2700 
L 1797 2700 
L 1797 0 
L 678 0 
L 678 2700 
L 122 2700 
L 122 3500 
L 678 3500 
L 678 3744 
Q 678 4316 997 4589 
Q 1316 4863 1984 4863 
L 2841 4863 
z
" transform="scale(0.015625)"/>
      <path id="DejaVuSans-Bold-3d" d="M 678 3084 
L 4684 3084 
L 4684 2350 
L 678 2350 
L 678 3084 
z
M 678 1663 
L 4684 1663 
L 4684 922 
L 678 922 
L 678 1663 
z
" transform="scale(0.015625)"/>
      <path id="DejaVuSans-Bold-35" d="M 678 4666 
L 3669 4666 
L 3669 3781 
L 1638 3781 
L 1638 3059 
Q 1775 3097 1914 3117 
Q 2053 3138 2203 3138 
Q 3056 3138 3531 2711 
Q 4006 2284 4006 1522 
Q 4006 766 3489 337 
Q 2972 -91 2053 -91 
Q 1656 -91 1267 -14 
Q 878 63 494 219 
L 494 1166 
Q 875 947 1217 837 
Q 1559 728 1863 728 
Q 2300 728 2551 942 
Q 2803 1156 2803 1522 
Q 2803 1891 2551 2103 
Q 2300 2316 1863 2316 
Q 1603 2316 1309 2248 
Q 1016 2181 678 2041 
L 678 4666 
z
" transform="scale(0.015625)"/>
      <path id="DejaVuSans-Bold-48" d="M 588 4666 
L 1791 4666 
L 1791 2888 
L 3566 2888 
L 3566 4666 
L 4769 4666 
L 4769 0 
L 3566 0 
L 3566 1978 
L 1791 1978 
L 1791 0 
L 588 0 
L 588 4666 
z
" transform="scale(0.015625)"/>
      <path id="DejaVuSans-Bold-7a" d="M 366 3500 
L 3419 3500 
L 3419 2719 
L 1575 800 
L 3419 800 
L 3419 0 
L 288 0 
L 288 781 
L 2131 2700 
L 366 2700 
L 366 3500 
z
" transform="scale(0.015625)"/>
     </defs>
     <use xlink:href="#DejaVuSans-Bold-66"/>
     <use xlink:href="#DejaVuSans-Bold-20" transform="translate(43.505859 0)"/>
     <use xlink:href="#DejaVuSans-Bold-3d" transform="translate(78.320312 0)"/>
     <use xlink:href="#DejaVuSans-Bold-20" transform="translate(162.109375 0)"/>
     <use xlink:href="#DejaVuSans-Bold-35" transform="translate(196.923828 0)"/>
     <use xlink:href="#DejaVuSans-Bold-20" transform="translate(266.503906 0)"/>
     <use xlink:href="#DejaVuSans-Bold-48" transform="translate(301.318359 0)"/>
     <use xlink:href="#DejaVuSans-Bold-7a" transform="translate(385.009766 0)"/>
    </g>
   </g>
   <g id="text_17">
    <!-- Without MIC -->
    <g style="fill: #333333" transform="translate(109.618334 41.22005) scale(0.14 -0.14)">
     <defs>
      <path id="DejaVuSans-Bold-57" d="M 191 4666 
L 1344 4666 
L 2150 1275 
L 2950 4666 
L 4109 4666 
L 4909 1275 
L 5716 4666 
L 6859 4666 
L 5759 0 
L 4372 0 
L 3525 3547 
L 2688 0 
L 1300 0 
L 191 4666 
z
" transform="scale(0.015625)"/>
      <path id="DejaVuSans-Bold-74" d="M 1759 4494 
L 1759 3500 
L 2913 3500 
L 2913 2700 
L 1759 2700 
L 1759 1216 
Q 1759 972 1856 886 
Q 1953 800 2241 800 
L 2816 800 
L 2816 0 
L 1856 0 
Q 1194 0 917 276 
Q 641 553 641 1216 
L 641 2700 
L 84 2700 
L 84 3500 
L 641 3500 
L 641 4494 
L 1759 4494 
z
" transform="scale(0.015625)"/>
      <path id="DejaVuSans-Bold-68" d="M 4056 2131 
L 4056 0 
L 2931 0 
L 2931 347 
L 2931 1625 
Q 2931 2084 2911 2256 
Q 2891 2428 2841 2509 
Q 2775 2619 2662 2680 
Q 2550 2741 2406 2741 
Q 2056 2741 1856 2470 
Q 1656 2200 1656 1722 
L 1656 0 
L 538 0 
L 538 4863 
L 1656 4863 
L 1656 2988 
Q 1909 3294 2193 3439 
Q 2478 3584 2822 3584 
Q 3428 3584 3742 3212 
Q 4056 2841 4056 2131 
z
" transform="scale(0.015625)"/>
      <path id="DejaVuSans-Bold-6f" d="M 2203 2784 
Q 1831 2784 1636 2517 
Q 1441 2250 1441 1747 
Q 1441 1244 1636 976 
Q 1831 709 2203 709 
Q 2569 709 2762 976 
Q 2956 1244 2956 1747 
Q 2956 2250 2762 2517 
Q 2569 2784 2203 2784 
z
M 2203 3584 
Q 3106 3584 3614 3096 
Q 4122 2609 4122 1747 
Q 4122 884 3614 396 
Q 3106 -91 2203 -91 
Q 1297 -91 786 396 
Q 275 884 275 1747 
Q 275 2609 786 3096 
Q 1297 3584 2203 3584 
z
" transform="scale(0.015625)"/>
      <path id="DejaVuSans-Bold-75" d="M 500 1363 
L 500 3500 
L 1625 3500 
L 1625 3150 
Q 1625 2866 1622 2436 
Q 1619 2006 1619 1863 
Q 1619 1441 1641 1255 
Q 1663 1069 1716 984 
Q 1784 875 1895 815 
Q 2006 756 2150 756 
Q 2500 756 2700 1025 
Q 2900 1294 2900 1772 
L 2900 3500 
L 4019 3500 
L 4019 0 
L 2900 0 
L 2900 506 
Q 2647 200 2364 54 
Q 2081 -91 1741 -91 
Q 1134 -91 817 281 
Q 500 653 500 1363 
z
" transform="scale(0.015625)"/>
      <path id="DejaVuSans-Bold-4d" d="M 588 4666 
L 2119 4666 
L 3181 2169 
L 4250 4666 
L 5778 4666 
L 5778 0 
L 4641 0 
L 4641 3413 
L 3566 897 
L 2803 897 
L 1728 3413 
L 1728 0 
L 588 0 
L 588 4666 
z
" transform="scale(0.015625)"/>
      <path id="DejaVuSans-Bold-43" d="M 4288 256 
Q 3956 84 3597 -3 
Q 3238 -91 2847 -91 
Q 1681 -91 1000 561 
Q 319 1213 319 2328 
Q 319 3447 1000 4098 
Q 1681 4750 2847 4750 
Q 3238 4750 3597 4662 
Q 3956 4575 4288 4403 
L 4288 3438 
Q 3953 3666 3628 3772 
Q 3303 3878 2944 3878 
Q 2300 3878 1931 3465 
Q 1563 3053 1563 2328 
Q 1563 1606 1931 1193 
Q 2300 781 2944 781 
Q 3303 781 3628 887 
Q 3953 994 4288 1222 
L 4288 256 
z
" transform="scale(0.015625)"/>
     </defs>
     <use xlink:href="#DejaVuSans-Bold-57"/>
     <use xlink:href="#DejaVuSans-Bold-69" transform="translate(110.302734 0)"/>
     <use xlink:href="#DejaVuSans-Bold-74" transform="translate(144.580078 0)"/>
     <use xlink:href="#DejaVuSans-Bold-68" transform="translate(192.382812 0)"/>
     <use xlink:href="#DejaVuSans-Bold-6f" transform="translate(263.574219 0)"/>
     <use xlink:href="#DejaVuSans-Bold-75" transform="translate(332.275391 0)"/>
     <use xlink:href="#DejaVuSans-Bold-74" transform="translate(403.466797 0)"/>
     <use xlink:href="#DejaVuSans-Bold-20" transform="translate(451.269531 0)"/>
     <use xlink:href="#DejaVuSans-Bold-4d" transform="translate(486.083984 0)"/>
     <use xlink:href="#DejaVuSans-Bold-49" transform="translate(585.595703 0)"/>
     <use xlink:href="#DejaVuSans-Bold-43" transform="translate(622.802734 0)"/>
    </g>
   </g>
   <g id="text_18">
    <!-- With MIC -->
    <g style="fill: #d94452" transform="translate(343.398439 41.22005) scale(0.14 -0.14)">
     <use xlink:href="#DejaVuSans-Bold-57"/>
     <use xlink:href="#DejaVuSans-Bold-69" transform="translate(110.302734 0)"/>
     <use xlink:href="#DejaVuSans-Bold-74" transform="translate(144.580078 0)"/>
     <use xlink:href="#DejaVuSans-Bold-68" transform="translate(192.382812 0)"/>
     <use xlink:href="#DejaVuSans-Bold-20" transform="translate(263.574219 0)"/>
     <use xlink:href="#DejaVuSans-Bold-4d" transform="translate(298.388672 0)"/>
     <use xlink:href="#DejaVuSans-Bold-49" transform="translate(397.900391 0)"/>
     <use xlink:href="#DejaVuSans-Bold-43" transform="translate(435.107422 0)"/>
    </g>
   </g>
  </g>
 </g>
 <defs>
  <clipPath id="p8dd86a988c">
   <rect x="48.029375" y="17.798437" width="441.283961" height="255.676"/>
  </clipPath>
 </defs>
</svg>
