<?xml version="1.0" encoding="utf-8" standalone="no"?>
<!DOCTYPE svg PUBLIC "-//W3C//DTD SVG 1.1//EN"
  "http://www.w3.org/Graphics/SVG/1.1/DTD/svg11.dtd">
<svg xmlns:xlink="http://www.w3.org/1999/xlink" width="711.694086pt" height="349.93775pt" viewBox="0 0 711.694086 349.93775" xmlns="http://www.w3.org/2000/svg" version="1.1">
 <metadata>
  <rdf:RDF xmlns:dc="http://purl.org/dc/elements/1.1/" xmlns:cc="http://creativecommons.org/ns#" xmlns:rdf="http://www.w3.org/1999/02/22-rdf-syntax-ns#">
   <cc:Work>
    <dc:type rdf:resource="http://purl.org/dc/dcmitype/StillImage"/>
    <dc:date>2026-04-26T15:49:58.398508</dc:date>
    <dc:format>image/svg+xml</dc:format>
    <dc:creator>
     <cc:Agent>
      <dc:title>Matplotlib v3.10.8, https://matplotlib.org/</dc:title>
     </cc:Agent>
    </dc:creator>
   </cc:Work>
  </rdf:RDF>
 </metadata>
 <defs>
  <style type="text/css">*{stroke-linejoin: round; stroke-linecap: butt}</style>
 </defs>
 <g id="figure_1">
  <g id="patch_1">
   <path d="M 0 349.93775 
L 711.694086 349.93775 
L 711.694086 0 
L 0 0 
z
" style="fill: #ffffff"/>
  </g>
  <g id="axes_1">
   <g id="patch_2">
    <path d="M 48.029375 307.542437 
L 697.495336 307.542437 
L 697.495336 17.798437 
L 48.029375 17.798437 
z
" style="fill: #ffffff"/>
   </g>
   <g id="patch_3">
    <path d="M 48.029375 307.542437 
L 372.762355 307.542437 
L 372.762355 17.798437 
L 48.029375 17.798437 
z
" clip-path="url(#p88bece4793)" style="fill: #cccccc; opacity: 0.12; stroke: #cccccc; stroke-linejoin: miter"/>
   </g>
   <g id="patch_4">
    <path d="M 372.762355 307.542437 
L 697.495336 307.542437 
L 697.495336 17.798437 
L 372.762355 17.798437 
z
" clip-path="url(#p88bece4793)" style="fill: #d94452; opacity: 0.06; stroke: #d94452; stroke-linejoin: miter"/>
   </g>
   <g id="line2d_1">
    <path d="M 372.762355 307.542437 
L 372.762355 17.798437 
" clip-path="url(#p88bece4793)" style="fill: none; stroke-dasharray: 3.7,1.6; stroke-dashoffset: 0; stroke: #999999"/>
   </g>
   <g id="matplotlib.axis_1">
    <g id="xtick_1">
     <g id="line2d_2">
      <defs>
       <path id="m30360779c8" d="M 0 0 
L 0 3.5 
" style="stroke: #000000; stroke-width: 0.8"/>
      </defs>
      <g>
       <use xlink:href="#m30360779c8" x="48.029375" y="307.542437" style="stroke: #000000; stroke-width: 0.8"/>
      </g>
     </g>
     <g id="text_1">
      <!-- 0 -->
      <g transform="translate(44.53 322.900719) scale(0.11 -0.11)">
       <defs>
        <path id="DejaVuSans-30" d="M 2034 4250 
Q 1547 4250 1301 3770 
Q 1056 3291 1056 2328 
Q 1056 1369 1301 889 
Q 1547 409 2034 409 
Q 2525 409 2770 889 
Q 3016 1369 3016 2328 
Q 3016 3291 2770 3770 
Q 2525 4250 2034 4250 
z
M 2034 4750 
Q 2819 4750 3233 4129 
Q 3647 3509 3647 2328 
Q 3647 1150 3233 529 
Q 2819 -91 2034 -91 
Q 1250 -91 836 529 
Q 422 1150 422 2328 
Q 422 3509 836 4129 
Q 1250 4750 2034 4750 
z
" transform="scale(0.015625)"/>
       </defs>
       <use xlink:href="#DejaVuSans-30"/>
      </g>
     </g>
    </g>
    <g id="xtick_2">
     <g id="line2d_3">
      <g>
       <use xlink:href="#m30360779c8" x="177.922567" y="307.542437" style="stroke: #000000; stroke-width: 0.8"/>
      </g>
     </g>
     <g id="text_2">
      <!-- 2 -->
      <g transform="translate(174.423192 322.900719) scale(0.11 -0.11)">
       <defs>
        <path id="DejaVuSans-32" d="M 1228 531 
L 3431 531 
L 3431 0 
L 469 0 
L 469 531 
Q 828 903 1448 1529 
Q 2069 2156 2228 2338 
Q 2531 2678 2651 2914 
Q 2772 3150 2772 3378 
Q 2772 3750 2511 3984 
Q 2250 4219 1831 4219 
Q 1534 4219 1204 4116 
Q 875 4013 500 3803 
L 500 4441 
Q 881 4594 1212 4672 
Q 1544 4750 1819 4750 
Q 2544 4750 2975 4387 
Q 3406 4025 3406 3419 
Q 3406 3131 3298 2873 
Q 3191 2616 2906 2266 
Q 2828 2175 2409 1742 
Q 1991 1309 1228 531 
z
" transform="scale(0.015625)"/>
       </defs>
       <use xlink:href="#DejaVuSans-32"/>
      </g>
     </g>
    </g>
    <g id="xtick_3">
     <g id="line2d_4">
      <g>
       <use xlink:href="#m30360779c8" x="307.815759" y="307.542437" style="stroke: #000000; stroke-width: 0.8"/>
      </g>
     </g>
     <g id="text_3">
      <!-- 4 -->
      <g transform="translate(304.316384 322.900719) scale(0.11 -0.11)">
       <defs>
        <path id="DejaVuSans-34" d="M 2419 4116 
L 825 1625 
L 2419 1625 
L 2419 4116 
z
M 2253 4666 
L 3047 4666 
L 3047 1625 
L 3713 1625 
L 3713 1100 
L 3047 1100 
L 3047 0 
L 2419 0 
L 2419 1100 
L 313 1100 
L 313 1709 
L 2253 4666 
z
" transform="scale(0.015625)"/>
       </defs>
       <use xlink:href="#DejaVuSans-34"/>
      </g>
     </g>
    </g>
    <g id="xtick_4">
     <g id="line2d_5">
      <g>
       <use xlink:href="#m30360779c8" x="437.708952" y="307.542437" style="stroke: #000000; stroke-width: 0.8"/>
      </g>
     </g>
     <g id="text_4">
      <!-- 6 -->
      <g transform="translate(434.209577 322.900719) scale(0.11 -0.11)">
       <defs>
        <path id="DejaVuSans-36" d="M 2113 2584 
Q 1688 2584 1439 2293 
Q 1191 2003 1191 1497 
Q 1191 994 1439 701 
Q 1688 409 2113 409 
Q 2538 409 2786 701 
Q 3034 994 3034 1497 
Q 3034 2003 2786 2293 
Q 2538 2584 2113 2584 
z
M 3366 4563 
L 3366 3988 
Q 3128 4100 2886 4159 
Q 2644 4219 2406 4219 
Q 1781 4219 1451 3797 
Q 1122 3375 1075 2522 
Q 1259 2794 1537 2939 
Q 1816 3084 2150 3084 
Q 2853 3084 3261 2657 
Q 3669 2231 3669 1497 
Q 3669 778 3244 343 
Q 2819 -91 2113 -91 
Q 1303 -91 875 529 
Q 447 1150 447 2328 
Q 447 3434 972 4092 
Q 1497 4750 2381 4750 
Q 2619 4750 2861 4703 
Q 3103 4656 3366 4563 
z
" transform="scale(0.015625)"/>
       </defs>
       <use xlink:href="#DejaVuSans-36"/>
      </g>
     </g>
    </g>
    <g id="xtick_5">
     <g id="line2d_6">
      <g>
       <use xlink:href="#m30360779c8" x="567.602144" y="307.542437" style="stroke: #000000; stroke-width: 0.8"/>
      </g>
     </g>
     <g id="text_5">
      <!-- 8 -->
      <g transform="translate(564.102769 322.900719) scale(0.11 -0.11)">
       <defs>
        <path id="DejaVuSans-38" d="M 2034 2216 
Q 1584 2216 1326 1975 
Q 1069 1734 1069 1313 
Q 1069 891 1326 650 
Q 1584 409 2034 409 
Q 2484 409 2743 651 
Q 3003 894 3003 1313 
Q 3003 1734 2745 1975 
Q 2488 2216 2034 2216 
z
M 1403 2484 
Q 997 2584 770 2862 
Q 544 3141 544 3541 
Q 544 4100 942 4425 
Q 1341 4750 2034 4750 
Q 2731 4750 3128 4425 
Q 3525 4100 3525 3541 
Q 3525 3141 3298 2862 
Q 3072 2584 2669 2484 
Q 3125 2378 3379 2068 
Q 3634 1759 3634 1313 
Q 3634 634 3220 271 
Q 2806 -91 2034 -91 
Q 1263 -91 848 271 
Q 434 634 434 1313 
Q 434 1759 690 2068 
Q 947 2378 1403 2484 
z
M 1172 3481 
Q 1172 3119 1398 2916 
Q 1625 2713 2034 2713 
Q 2441 2713 2670 2916 
Q 2900 3119 2900 3481 
Q 2900 3844 2670 4047 
Q 2441 4250 2034 4250 
Q 1625 4250 1398 4047 
Q 1172 3844 1172 3481 
z
" transform="scale(0.015625)"/>
       </defs>
       <use xlink:href="#DejaVuSans-38"/>
      </g>
     </g>
    </g>
    <g id="xtick_6">
     <g id="line2d_7">
      <g>
       <use xlink:href="#m30360779c8" x="697.495336" y="307.542437" style="stroke: #000000; stroke-width: 0.8"/>
      </g>
     </g>
     <g id="text_6">
      <!-- 10 -->
      <g transform="translate(690.496586 322.900719) scale(0.11 -0.11)">
       <defs>
        <path id="DejaVuSans-31" d="M 794 531 
L 1825 531 
L 1825 4091 
L 703 3866 
L 703 4441 
L 1819 4666 
L 2450 4666 
L 2450 531 
L 3481 531 
L 3481 0 
L 794 0 
L 794 531 
z
" transform="scale(0.015625)"/>
       </defs>
       <use xlink:href="#DejaVuSans-31"/>
       <use xlink:href="#DejaVuSans-30" transform="translate(63.623047 0)"/>
      </g>
     </g>
    </g>
    <g id="text_7">
     <!-- Time (s) -->
     <g transform="translate(340.543762 339.826187) scale(0.14 -0.14)">
      <defs>
       <path id="DejaVuSans-Bold-54" d="M 31 4666 
L 4331 4666 
L 4331 3756 
L 2784 3756 
L 2784 0 
L 1581 0 
L 1581 3756 
L 31 3756 
L 31 4666 
z
" transform="scale(0.015625)"/>
       <path id="DejaVuSans-Bold-69" d="M 538 3500 
L 1656 3500 
L 1656 0 
L 538 0 
L 538 3500 
z
M 538 4863 
L 1656 4863 
L 1656 3950 
L 538 3950 
L 538 4863 
z
" transform="scale(0.015625)"/>
       <path id="DejaVuSans-Bold-6d" d="M 3781 2919 
Q 3994 3244 4286 3414 
Q 4578 3584 4928 3584 
Q 5531 3584 5847 3212 
Q 6163 2841 6163 2131 
L 6163 0 
L 5038 0 
L 5038 1825 
Q 5041 1866 5042 1909 
Q 5044 1953 5044 2034 
Q 5044 2406 4934 2573 
Q 4825 2741 4581 2741 
Q 4263 2741 4089 2478 
Q 3916 2216 3909 1719 
L 3909 0 
L 2784 0 
L 2784 1825 
Q 2784 2406 2684 2573 
Q 2584 2741 2328 2741 
Q 2006 2741 1831 2477 
Q 1656 2213 1656 1722 
L 1656 0 
L 531 0 
L 531 3500 
L 1656 3500 
L 1656 2988 
Q 1863 3284 2130 3434 
Q 2397 3584 2719 3584 
Q 3081 3584 3359 3409 
Q 3638 3234 3781 2919 
z
" transform="scale(0.015625)"/>
       <path id="DejaVuSans-Bold-65" d="M 4031 1759 
L 4031 1441 
L 1416 1441 
Q 1456 1047 1700 850 
Q 1944 653 2381 653 
Q 2734 653 3104 758 
Q 3475 863 3866 1075 
L 3866 213 
Q 3469 63 3072 -14 
Q 2675 -91 2278 -91 
Q 1328 -91 801 392 
Q 275 875 275 1747 
Q 275 2603 792 3093 
Q 1309 3584 2216 3584 
Q 3041 3584 3536 3087 
Q 4031 2591 4031 1759 
z
M 2881 2131 
Q 2881 2450 2695 2645 
Q 2509 2841 2209 2841 
Q 1884 2841 1681 2658 
Q 1478 2475 1428 2131 
L 2881 2131 
z
" transform="scale(0.015625)"/>
       <path id="DejaVuSans-Bold-20" transform="scale(0.015625)"/>
       <path id="DejaVuSans-Bold-28" d="M 2413 -844 
L 1484 -844 
Q 1006 -72 778 623 
Q 550 1319 550 2003 
Q 550 2688 779 3389 
Q 1009 4091 1484 4856 
L 2413 4856 
Q 2013 4116 1813 3408 
Q 1613 2700 1613 2009 
Q 1613 1319 1811 609 
Q 2009 -100 2413 -844 
z
" transform="scale(0.015625)"/>
       <path id="DejaVuSans-Bold-73" d="M 3272 3391 
L 3272 2541 
Q 2913 2691 2578 2766 
Q 2244 2841 1947 2841 
Q 1628 2841 1473 2761 
Q 1319 2681 1319 2516 
Q 1319 2381 1436 2309 
Q 1553 2238 1856 2203 
L 2053 2175 
Q 2913 2066 3209 1816 
Q 3506 1566 3506 1031 
Q 3506 472 3093 190 
Q 2681 -91 1863 -91 
Q 1516 -91 1145 -36 
Q 775 19 384 128 
L 384 978 
Q 719 816 1070 734 
Q 1422 653 1784 653 
Q 2113 653 2278 743 
Q 2444 834 2444 1013 
Q 2444 1163 2330 1236 
Q 2216 1309 1875 1350 
L 1678 1375 
Q 931 1469 631 1722 
Q 331 1975 331 2491 
Q 331 3047 712 3315 
Q 1094 3584 1881 3584 
Q 2191 3584 2531 3537 
Q 2872 3491 3272 3391 
z
" transform="scale(0.015625)"/>
       <path id="DejaVuSans-Bold-29" d="M 513 -844 
Q 913 -100 1113 609 
Q 1313 1319 1313 2009 
Q 1313 2700 1113 3408 
Q 913 4116 513 4856 
L 1441 4856 
Q 1916 4091 2145 3389 
Q 2375 2688 2375 2003 
Q 2375 1319 2147 623 
Q 1919 -72 1441 -844 
L 513 -844 
z
" transform="scale(0.015625)"/>
      </defs>
      <use xlink:href="#DejaVuSans-Bold-54"/>
      <use xlink:href="#DejaVuSans-Bold-69" transform="translate(68.212891 0)"/>
      <use xlink:href="#DejaVuSans-Bold-6d" transform="translate(102.490234 0)"/>
      <use xlink:href="#DejaVuSans-Bold-65" transform="translate(206.689453 0)"/>
      <use xlink:href="#DejaVuSans-Bold-20" transform="translate(274.511719 0)"/>
      <use xlink:href="#DejaVuSans-Bold-28" transform="translate(309.326172 0)"/>
      <use xlink:href="#DejaVuSans-Bold-73" transform="translate(355.029297 0)"/>
      <use xlink:href="#DejaVuSans-Bold-29" transform="translate(414.550781 0)"/>
     </g>
    </g>
   </g>
   <g id="matplotlib.axis_2">
    <g id="ytick_1">
     <g id="line2d_8">
      <defs>
       <path id="mc92d435975" d="M 0 0 
L -3.5 0 
" style="stroke: #000000; stroke-width: 0.8"/>
      </defs>
      <g>
       <use xlink:href="#mc92d435975" x="48.029375" y="260.196543" style="stroke: #000000; stroke-width: 0.8"/>
      </g>
     </g>
     <g id="text_8">
      <!-- $\mathdefault{−2}$ -->
      <g transform="translate(24.749375 264.375684) scale(0.11 -0.11)">
       <defs>
        <path id="DejaVuSans-2212" d="M 678 2272 
L 4684 2272 
L 4684 1741 
L 678 1741 
L 678 2272 
z
" transform="scale(0.015625)"/>
       </defs>
       <use xlink:href="#DejaVuSans-2212" transform="translate(0 0.78125)"/>
       <use xlink:href="#DejaVuSans-32" transform="translate(83.789062 0.78125)"/>
      </g>
     </g>
    </g>
    <g id="ytick_2">
     <g id="line2d_9">
      <g>
       <use xlink:href="#mc92d435975" x="48.029375" y="211.43349" style="stroke: #000000; stroke-width: 0.8"/>
      </g>
     </g>
     <g id="text_9">
      <!-- $\mathdefault{−1}$ -->
      <g transform="translate(24.749375 215.612631) scale(0.11 -0.11)">
       <use xlink:href="#DejaVuSans-2212" transform="translate(0 0.09375)"/>
       <use xlink:href="#DejaVuSans-31" transform="translate(83.789062 0.09375)"/>
      </g>
     </g>
    </g>
    <g id="ytick_3">
     <g id="line2d_10">
      <g>
       <use xlink:href="#mc92d435975" x="48.029375" y="162.670437" style="stroke: #000000; stroke-width: 0.8"/>
      </g>
     </g>
     <g id="text_10">
      <!-- $\mathdefault{0}$ -->
      <g transform="translate(33.989375 166.849578) scale(0.11 -0.11)">
       <use xlink:href="#DejaVuSans-30" transform="translate(0 0.78125)"/>
      </g>
     </g>
    </g>
    <g id="ytick_4">
     <g id="line2d_11">
      <g>
       <use xlink:href="#mc92d435975" x="48.029375" y="113.907385" style="stroke: #000000; stroke-width: 0.8"/>
      </g>
     </g>
     <g id="text_11">
      <!-- $\mathdefault{1}$ -->
      <g transform="translate(33.989375 118.086525) scale(0.11 -0.11)">
       <use xlink:href="#DejaVuSans-31" transform="translate(0 0.09375)"/>
      </g>
     </g>
    </g>
    <g id="ytick_5">
     <g id="line2d_12">
      <g>
       <use xlink:href="#mc92d435975" x="48.029375" y="65.144332" style="stroke: #000000; stroke-width: 0.8"/>
      </g>
     </g>
     <g id="text_12">
      <!-- $\mathdefault{2}$ -->
      <g transform="translate(33.989375 69.323473) scale(0.11 -0.11)">
       <use xlink:href="#DejaVuSans-32" transform="translate(0 0.78125)"/>
      </g>
     </g>
    </g>
    <g id="text_13">
     <!-- I$_{sc}$ (mA/m²) -->
     <g transform="translate(17.837812 205.300437) rotate(-90) scale(0.14 -0.14)">
      <defs>
       <path id="DejaVuSans-Bold-49" d="M 588 4666 
L 1791 4666 
L 1791 0 
L 588 0 
L 588 4666 
z
" transform="scale(0.015625)"/>
       <path id="DejaVuSans-Oblique-73" d="M 3200 3397 
L 3091 2853 
Q 2863 2978 2609 3040 
Q 2356 3103 2088 3103 
Q 1634 3103 1373 2948 
Q 1113 2794 1113 2528 
Q 1113 2219 1719 2053 
Q 1766 2041 1788 2034 
L 1972 1978 
Q 2547 1819 2739 1644 
Q 2931 1469 2931 1166 
Q 2931 609 2489 259 
Q 2047 -91 1331 -91 
Q 1053 -91 747 -37 
Q 441 16 72 128 
L 184 722 
Q 500 559 806 475 
Q 1113 391 1394 391 
Q 1816 391 2080 572 
Q 2344 753 2344 1031 
Q 2344 1331 1650 1516 
L 1591 1531 
L 1394 1581 
Q 956 1697 753 1886 
Q 550 2075 550 2369 
Q 550 2928 970 3256 
Q 1391 3584 2113 3584 
Q 2397 3584 2667 3537 
Q 2938 3491 3200 3397 
z
" transform="scale(0.015625)"/>
       <path id="DejaVuSans-Oblique-63" d="M 3431 3366 
L 3316 2797 
Q 3109 2947 2876 3022 
Q 2644 3097 2394 3097 
Q 2119 3097 1870 3000 
Q 1622 2903 1453 2725 
Q 1184 2453 1037 2087 
Q 891 1722 891 1331 
Q 891 859 1127 628 
Q 1363 397 1844 397 
Q 2081 397 2348 469 
Q 2616 541 2906 684 
L 2797 116 
Q 2547 13 2283 -39 
Q 2019 -91 1741 -91 
Q 1044 -91 669 257 
Q 294 606 294 1253 
Q 294 1797 489 2255 
Q 684 2713 1069 3078 
Q 1331 3328 1684 3456 
Q 2038 3584 2456 3584 
Q 2700 3584 2940 3529 
Q 3181 3475 3431 3366 
z
" transform="scale(0.015625)"/>
       <path id="DejaVuSans-Bold-41" d="M 3419 850 
L 1538 850 
L 1241 0 
L 31 0 
L 1759 4666 
L 3194 4666 
L 4922 0 
L 3713 0 
L 3419 850 
z
M 1838 1716 
L 3116 1716 
L 2478 3572 
L 1838 1716 
z
" transform="scale(0.015625)"/>
       <path id="DejaVuSans-Bold-2f" d="M 1644 4666 
L 2338 4666 
L 691 -594 
L 0 -594 
L 1644 4666 
z
" transform="scale(0.015625)"/>
       <path id="DejaVuSans-Bold-b2" d="M 1288 2613 
L 2444 2613 
L 2444 2088 
L 341 2088 
L 341 2566 
L 1319 3397 
Q 1509 3563 1590 3688 
Q 1672 3813 1672 3938 
Q 1672 4094 1558 4191 
Q 1444 4288 1259 4288 
Q 1066 4288 844 4217 
Q 622 4147 359 4000 
L 359 4581 
Q 631 4666 886 4708 
Q 1141 4750 1375 4750 
Q 1869 4750 2150 4548 
Q 2431 4347 2431 4000 
Q 2431 3775 2320 3586 
Q 2209 3397 1894 3128 
L 1288 2613 
z
" transform="scale(0.015625)"/>
      </defs>
      <use xlink:href="#DejaVuSans-Bold-49" transform="translate(0 0.125)"/>
      <use xlink:href="#DejaVuSans-Oblique-73" transform="translate(38.164062 -16.28125) scale(0.7)"/>
      <use xlink:href="#DejaVuSans-Oblique-63" transform="translate(74.633789 -16.28125) scale(0.7)"/>
      <use xlink:href="#DejaVuSans-Bold-20" transform="translate(115.854492 0.125)"/>
      <use xlink:href="#DejaVuSans-Bold-28" transform="translate(150.668945 0.125)"/>
      <use xlink:href="#DejaVuSans-Bold-6d" transform="translate(196.37207 0.125)"/>
      <use xlink:href="#DejaVuSans-Bold-41" transform="translate(300.571289 0.125)"/>
      <use xlink:href="#DejaVuSans-Bold-2f" transform="translate(377.963867 0.125)"/>
      <use xlink:href="#DejaVuSans-Bold-6d" transform="translate(414.487305 0.125)"/>
      <use xlink:href="#DejaVuSans-Bold-b2" transform="translate(518.686523 0.125)"/>
      <use xlink:href="#DejaVuSans-Bold-29" transform="translate(562.485352 0.125)"/>
     </g>
    </g>
    <g id="text_14">
     <!-- $\times\mathdefault{10^{−3}}\mathdefault{}$ -->
     <g transform="translate(48.029375 14.798437) scale(0.1 -0.1)">
      <defs>
       <path id="DejaVuSans-d7" d="M 4488 3438 
L 3059 2003 
L 4488 575 
L 4116 197 
L 2681 1631 
L 1247 197 
L 878 575 
L 2303 2003 
L 878 3438 
L 1247 3816 
L 2681 2381 
L 4116 3816 
L 4488 3438 
z
" transform="scale(0.015625)"/>
       <path id="DejaVuSans-33" d="M 2597 2516 
Q 3050 2419 3304 2112 
Q 3559 1806 3559 1356 
Q 3559 666 3084 287 
Q 2609 -91 1734 -91 
Q 1441 -91 1130 -33 
Q 819 25 488 141 
L 488 750 
Q 750 597 1062 519 
Q 1375 441 1716 441 
Q 2309 441 2620 675 
Q 2931 909 2931 1356 
Q 2931 1769 2642 2001 
Q 2353 2234 1838 2234 
L 1294 2234 
L 1294 2753 
L 1863 2753 
Q 2328 2753 2575 2939 
Q 2822 3125 2822 3475 
Q 2822 3834 2567 4026 
Q 2313 4219 1838 4219 
Q 1578 4219 1281 4162 
Q 984 4106 628 3988 
L 628 4550 
Q 988 4650 1302 4700 
Q 1616 4750 1894 4750 
Q 2613 4750 3031 4423 
Q 3450 4097 3450 3541 
Q 3450 3153 3228 2886 
Q 3006 2619 2597 2516 
z
" transform="scale(0.015625)"/>
      </defs>
      <use xlink:href="#DejaVuSans-d7" transform="translate(0 0.765625)"/>
      <use xlink:href="#DejaVuSans-31" transform="translate(83.789062 0.765625)"/>
      <use xlink:href="#DejaVuSans-30" transform="translate(147.412109 0.765625)"/>
      <use xlink:href="#DejaVuSans-2212" transform="translate(211.992188 39.046875) scale(0.7)"/>
      <use xlink:href="#DejaVuSans-33" transform="translate(270.644531 39.046875) scale(0.7)"/>
     </g>
    </g>
   </g>
   <g id="patch_5">
    <path d="M 48.029375 307.542437 
L 48.029375 17.798437 
" style="fill: none; stroke: #000000; stroke-width: 0.8; stroke-linejoin: miter; stroke-linecap: square"/>
   </g>
   <g id="patch_6">
    <path d="M 48.029375 307.542437 
L 697.495336 307.542437 
" style="fill: none; stroke: #000000; stroke-width: 0.8; stroke-linejoin: miter; stroke-linecap: square"/>
   </g>
   <g id="line2d_13">
    <path d="M 48.029375 153.931072 
L 48.484001 156.718711 
L 48.613894 157.111336 
L 49.068521 158.642574 
L 49.198414 158.917412 
L 50.302506 161.312425 
L 50.367452 161.312425 
L 50.692185 161.940626 
L 50.757132 161.940626 
L 51.016918 162.254726 
L 51.276705 162.176201 
L 51.341651 162.293988 
L 51.406598 162.215463 
L 51.731331 162.451039 
L 51.991117 162.961451 
L 52.250904 162.686614 
L 52.31585 162.608089 
L 52.445744 162.922189 
L 52.640583 162.922189 
L 52.70553 163.197026 
L 52.770477 163.079239 
L 53.939515 165.395728 
L 54.134355 166.338027 
L 54.653928 169.636079 
L 54.913714 173.366018 
L 55.238447 181.925248 
L 55.498234 196.609425 
L 55.75802 227.312691 
L 56.082753 268.420505 
L 56.212646 258.212265 
L 57.576525 108.857678 
L 57.706418 107.876114 
L 57.771364 107.993902 
L 57.966204 110.23187 
L 58.61567 125.347953 
L 59.524923 142.584205 
L 60.174388 149.965553 
L 60.693961 153.263608 
L 61.733107 158.328474 
L 62.122786 159.388562 
L 62.317626 159.702662 
L 62.837199 161.037588 
L 62.902146 161.037588 
L 63.226878 161.430213 
L 63.486665 161.705051 
L 63.746451 162.019151 
L 64.201077 162.215463 
L 64.395917 162.215463 
L 64.460864 162.215463 
L 64.655704 162.490301 
L 64.785597 162.451039 
L 64.980437 162.843664 
L 65.11033 162.725876 
L 65.240223 162.725876 
L 65.629903 163.000714 
L 66.474208 164.846052 
L 66.669048 165.003102 
L 66.863888 165.984665 
L 67.188621 167.908528 
L 67.5783 171.716992 
L 67.903033 178.744983 
L 68.16282 190.28816 
L 68.422606 213.688611 
L 68.812286 268.773866 
L 68.877232 266.928526 
L 69.201965 230.689264 
L 70.306057 109.053986 
L 70.435951 107.522753 
L 70.500897 107.562019 
L 70.63079 108.504317 
L 71.085417 117.966592 
L 71.864776 135.516951 
L 72.774028 148.120213 
L 73.098761 150.829332 
L 74.527586 158.210687 
L 74.722426 158.760361 
L 75.241999 160.056025 
L 75.436839 160.44865 
L 75.761572 161.2339 
L 75.826518 161.2339 
L 76.021358 161.469476 
L 76.475984 161.705051 
L 76.540931 162.019151 
L 76.605877 161.940626 
L 76.995557 162.058413 
L 77.12545 162.097676 
L 77.255343 162.215463 
L 77.32029 162.176201 
L 77.51513 162.490301 
L 77.580076 162.333251 
L 77.645023 162.372514 
L 77.839863 162.608089 
L 77.904809 162.490301 
L 78.099649 162.765139 
L 78.164596 162.725876 
L 78.229542 162.882926 
L 78.294489 162.765139 
L 79.008901 164.139327 
L 79.203741 164.767527 
L 79.333634 164.571214 
L 80.17794 169.557554 
L 80.437726 173.24823 
L 80.762459 181.807461 
L 80.957299 192.722436 
L 81.152139 210.469079 
L 81.606765 268.695346 
L 81.801605 250.320501 
L 82.970644 111.370487 
L 83.165483 107.090859 
L 83.23043 106.894551 
L 83.360323 107.993902 
L 83.62011 112.430571 
L 84.464415 131.904791 
L 84.854095 139.246886 
L 85.828294 150.397448 
L 86.153027 152.20352 
L 86.47776 154.402222 
L 86.932386 156.915023 
L 86.997333 156.993548 
L 87.257119 157.975111 
L 87.906585 159.938238 
L 87.971532 159.938238 
L 88.101425 160.173812 
L 88.166371 160.056025 
L 88.426158 160.880537 
L 88.750891 161.430213 
L 88.815837 161.626526 
L 88.880784 161.587263 
L 89.075624 161.548001 
L 89.14057 161.665788 
L 89.205517 161.508738 
L 89.270464 161.626526 
L 89.465303 161.862101 
L 89.53025 161.783576 
L 89.660143 162.293988 
L 89.72509 161.783576 
L 89.790036 162.058413 
L 89.919929 162.097676 
L 89.984876 162.254726 
L 90.049823 162.136938 
L 90.309609 162.293988 
L 90.374556 162.293988 
L 90.439502 162.176201 
L 90.699289 162.608089 
L 91.024022 162.843664 
L 91.088968 163.000714 
L 91.153915 162.922189 
L 91.543594 163.471864 
L 92.128114 164.885315 
L 92.258007 165.160152 
L 92.77758 168.104841 
L 93.037366 170.853217 
L 93.297152 175.36841 
L 93.556939 183.535014 
L 93.816725 200.496413 
L 94.076512 235.911177 
L 94.336298 269.75543 
L 94.466191 261.549571 
L 95.895016 107.051604 
L 95.959963 106.580456 
L 96.02491 106.698243 
L 96.219749 108.896945 
L 96.739322 120.597176 
L 97.518681 137.480066 
L 98.29804 148.002426 
L 98.68772 150.868595 
L 99.337186 155.14821 
L 99.726865 157.032811 
L 99.921705 157.778799 
L 100.376331 159.113724 
L 100.506225 159.427825 
L 100.766011 160.095288 
L 101.805157 161.822838 
L 102.454623 161.862101 
L 102.714409 162.058413 
L 102.779356 162.058413 
L 102.909249 162.372514 
L 103.039142 162.136938 
L 103.104088 162.411776 
L 103.169035 162.254726 
L 103.233982 162.333251 
L 103.298928 162.215463 
L 103.363875 162.254726 
L 103.493768 162.372514 
L 103.753554 162.843664 
L 103.883448 162.922189 
L 104.662807 164.531952 
L 105.18238 166.023927 
L 105.637006 169.007879 
L 105.896792 172.188143 
L 106.286472 182.710492 
L 106.546258 198.140658 
L 106.806044 230.807051 
L 107.065831 269.637643 
L 107.130777 269.362802 
L 107.325617 250.124193 
L 108.559603 108.543583 
L 108.754442 106.384136 
L 108.819389 106.61971 
L 109.014229 109.171773 
L 110.572947 141.995269 
L 111.09252 148.15948 
L 111.547146 151.693108 
L 112.391452 156.679448 
L 113.235757 159.349299 
L 113.75533 160.6057 
L 114.14501 161.116113 
L 114.33985 161.351688 
L 114.664583 161.901363 
L 115.054262 162.019151 
L 115.249102 162.019151 
L 116.80782 163.079239 
L 117.00266 163.628914 
L 117.067607 163.550389 
L 118.171699 167.241065 
L 118.626325 171.716992 
L 118.951058 179.333919 
L 119.210844 191.544565 
L 119.470631 216.397715 
L 119.86031 270.540674 
L 119.990203 261.510305 
L 121.354082 107.444232 
L 121.483975 106.109295 
L 121.548922 106.266349 
L 121.743762 108.504317 
L 122.198388 119.026676 
L 122.9128 135.163577 
L 123.627213 146.078565 
L 124.146786 150.593757 
L 125.185931 156.757973 
L 126.030237 159.427825 
L 126.874543 161.194638 
L 127.848742 162.215463 
L 128.173475 162.097676 
L 128.368314 162.293988 
L 128.498208 162.293988 
L 128.628101 162.490301 
L 128.693047 162.451039 
L 129.472407 162.922189 
L 130.121872 164.610477 
L 130.316712 164.80679 
L 130.836285 167.044753 
L 131.161018 169.361242 
L 131.485751 173.797905 
L 131.745537 180.70811 
L 132.005324 194.292936 
L 132.26511 222.208564 
L 132.589843 270.619207 
L 132.65479 269.833951 
L 132.914576 242.036122 
L 134.018668 109.996295 
L 134.213508 106.109295 
L 134.278455 106.187828 
L 134.408348 107.130125 
L 134.798027 114.943368 
L 135.70728 135.752525 
L 136.226852 143.99765 
L 136.681479 149.023256 
L 137.265998 153.106558 
L 137.395891 154.127384 
L 137.720624 155.854935 
L 138.045357 157.307649 
L 139.084503 160.13455 
L 139.214396 160.409387 
L 139.733969 161.430213 
L 140.448381 161.979888 
L 140.643221 162.176201 
L 140.708168 162.058413 
L 140.903007 162.293988 
L 140.967954 162.215463 
L 141.032901 162.333251 
L 141.162794 162.215463 
L 141.877206 163.000714 
L 142.0071 162.922189 
L 142.201939 163.039976 
L 142.721512 164.257114 
L 143.435925 166.102453 
L 143.890551 168.968616 
L 144.28023 174.543893 
L 144.540017 182.121556 
L 144.799803 197.19836 
L 145.05959 228.333521 
L 145.384323 271.32593 
L 145.514216 261.274731 
L 146.878094 107.090859 
L 147.007987 106.070041 
L 147.072934 106.148561 
L 147.267774 108.582837 
L 147.7224 119.105209 
L 148.631652 138.697216 
L 149.346065 148.355787 
L 149.800691 151.536058 
L 150.77489 157.268386 
L 150.839837 157.34691 
L 151.424356 159.349299 
L 151.814036 160.173812 
L 152.723288 161.705051 
L 152.788234 161.705051 
L 152.853181 161.822838 
L 152.918128 161.705051 
L 153.177914 161.979888 
L 153.307807 162.058413 
L 153.372754 162.176201 
L 153.4377 162.136938 
L 153.502647 162.097676 
L 153.63254 162.333251 
L 153.697487 162.293988 
L 153.762433 162.451039 
L 153.82738 162.293988 
L 153.957273 162.568826 
L 154.02222 162.411776 
L 154.087166 162.490301 
L 154.152113 162.411776 
L 154.411899 162.686614 
L 154.476846 162.686614 
L 154.736632 163.197026 
L 154.931472 163.157764 
L 155.061365 163.157764 
L 155.256205 163.668177 
L 156.165457 166.023927 
L 156.87987 172.031093 
L 157.204603 179.098344 
L 157.464389 190.680788 
L 157.724176 214.670174 
L 158.113855 271.954132 
L 158.178802 270.383632 
L 158.438588 241.800547 
L 159.54268 109.21104 
L 159.73752 105.441838 
L 159.802467 105.402572 
L 159.997307 107.562019 
L 160.451933 118.084379 
L 161.426132 139.246886 
L 162.140544 148.512841 
L 162.465277 151.104169 
L 163.049797 154.834109 
L 163.504423 157.34691 
L 163.894102 158.406998 
L 164.023996 158.799624 
L 164.478622 160.13455 
L 164.803355 160.684226 
L 164.998195 161.037588 
L 165.063141 160.959063 
L 165.322928 161.548001 
L 165.517767 161.783576 
L 165.8425 162.215463 
L 165.972394 162.097676 
L 166.03734 162.215463 
L 166.102287 162.176201 
L 166.362073 162.215463 
L 166.621859 162.490301 
L 166.946592 162.765139 
L 167.076486 162.608089 
L 168.050685 163.746702 
L 168.310471 164.531952 
L 169.154777 167.319591 
L 169.609403 171.559942 
L 169.869189 176.781855 
L 170.128976 185.655183 
L 170.388762 203.951507 
L 170.648548 242.468016 
L 170.843388 271.443717 
L 170.908335 272.032652 
L 171.038228 261.706625 
L 172.012427 136.81261 
L 172.272213 110.192603 
L 172.467053 105.638146 
L 172.532 105.363306 
L 172.596946 105.481105 
L 172.791786 108.033168 
L 173.441252 124.091548 
L 174.285558 140.895918 
L 174.870077 148.316533 
L 175.38965 152.36057 
L 176.298902 157.268386 
L 176.948368 159.310037 
L 177.208155 159.938238 
L 177.662781 161.037588 
L 178.766873 162.293988 
L 178.83182 162.176201 
L 178.896766 162.215463 
L 179.091606 162.293988 
L 179.221499 162.333251 
L 179.481285 162.686614 
L 179.546232 162.686614 
L 179.741072 163.039976 
L 179.935912 162.843664 
L 180.130751 163.039976 
L 180.260645 163.079239 
L 181.169897 164.80679 
L 181.49463 165.74909 
L 181.559577 165.788352 
L 182.079149 168.772303 
L 182.338936 171.559942 
L 182.598722 176.035866 
L 182.858508 184.595098 
L 183.118295 201.477977 
L 183.378081 236.892741 
L 183.637868 272.97495 
L 183.767761 265.161719 
L 184.677013 151.810895 
L 185.001746 111.684582 
L 185.196586 105.912987 
L 185.261533 105.284785 
L 185.326479 105.363306 
L 185.456372 106.501923 
L 185.781105 113.058774 
L 186.950144 139.325406 
L 187.469717 146.785288 
L 187.924343 150.907857 
L 188.184129 152.596146 
L 188.768649 156.051248 
L 189.093382 157.386173 
L 189.677901 159.388562 
L 189.872741 159.741925 
L 190.587153 161.351688 
L 190.6521 161.312425 
L 190.911886 161.744313 
L 191.171673 161.979888 
L 191.496406 162.490301 
L 191.626299 162.372514 
L 191.886085 162.529564 
L 192.015979 162.451039 
L 192.210818 162.725876 
L 192.470605 163.000714 
L 192.535551 163.157764 
L 192.600498 163.000714 
L 192.795338 163.275551 
L 192.925231 163.236289 
L 192.990177 163.393339 
L 193.055124 163.275551 
L 193.120071 163.197026 
L 193.444804 163.825227 
L 194.419003 166.455816 
L 194.743736 168.261891 
L 195.198362 173.169705 
L 195.458148 178.744983 
L 195.717935 189.856266 
L 195.977721 212.746314 
L 196.432347 272.503801 
L 196.497294 268.224197 
L 197.341599 168.693779 
L 197.731279 113.608443 
L 197.926119 106.305615 
L 198.056012 105.363306 
L 198.120959 105.598892 
L 198.445692 111.017113 
L 199.679677 138.972045 
L 200.264196 147.374224 
L 200.588929 150.397448 
L 201.173449 154.402222 
L 201.563128 156.443872 
L 202.342487 159.349299 
L 202.472381 159.663399 
L 203.771312 162.097676 
L 203.836259 161.940626 
L 204.615618 162.725876 
L 205.135191 163.157764 
L 205.200138 162.843664 
L 205.265084 163.197026 
L 205.330031 163.118501 
L 205.849604 163.589652 
L 205.91455 163.511127 
L 205.979497 163.589652 
L 206.10939 163.825227 
L 206.174336 164.257114 
L 206.239283 164.100064 
L 206.953696 166.298766 
L 207.018642 165.945403 
L 207.408322 167.830004 
L 207.538215 168.890092 
L 207.798001 171.128055 
L 207.992841 173.954955 
L 208.252628 180.276216 
L 208.447467 188.560607 
L 208.707254 209.526782 
L 208.96704 252.872564 
L 209.16188 273.79946 
L 209.291773 265.318772 
L 210.201025 149.926299 
L 210.525758 110.781539 
L 210.720598 105.598892 
L 210.785545 105.127731 
L 210.850491 105.206264 
L 210.980385 106.61971 
L 211.370064 114.904114 
L 212.21437 135.163577 
L 213.058676 147.806118 
L 213.253515 149.651458 
L 213.448355 151.221958 
L 213.513302 151.379008 
L 214.227714 156.286822 
L 214.552447 157.425436 
L 215.786433 160.802013 
L 216.111166 161.351688 
L 216.176112 161.2339 
L 216.241059 161.862101 
L 216.306005 161.587263 
L 216.435899 162.097676 
L 216.500845 162.019151 
L 216.565792 162.019151 
L 216.630738 162.372514 
L 216.695685 162.176201 
L 216.890525 162.333251 
L 217.020418 162.254726 
L 217.150311 162.568826 
L 217.215258 162.411776 
L 217.280204 162.529564 
L 217.345151 162.804401 
L 217.410098 162.725876 
L 217.604937 162.922189 
L 218.31935 163.471864 
L 218.51419 163.825227 
L 218.644083 163.785964 
L 218.838923 164.02154 
L 218.903869 163.943014 
L 218.968816 163.982277 
L 219.228602 164.689002 
L 219.293549 164.689002 
L 219.488389 165.395728 
L 220.267748 168.379679 
L 220.592481 171.599205 
L 220.917214 177.645632 
L 221.241947 190.602255 
L 221.501733 213.845652 
L 221.891413 276.665618 
L 222.021306 270.933302 
L 222.995505 147.374224 
L 223.320238 115.335996 
L 223.515078 110.899326 
L 223.580024 110.663752 
L 223.644971 110.742285 
L 223.839811 113.137294 
L 224.164544 119.929719 
L 225.203689 141.131492 
L 225.853155 149.062522 
L 226.307781 152.596146 
L 226.762407 155.265997 
L 227.217034 157.386173 
L 227.736606 159.152987 
L 227.996393 159.781188 
L 228.321126 160.6057 
L 228.645859 161.116113 
L 228.970592 161.626526 
L 229.814897 162.490301 
L 230.594257 163.039976 
L 230.789096 163.275551 
L 230.91899 163.314814 
L 231.113829 163.471864 
L 231.308669 163.471864 
L 231.373616 163.471864 
L 231.633402 164.139327 
L 231.698349 164.100064 
L 231.893189 164.49269 
L 231.958135 164.414164 
L 232.932334 167.555165 
L 233.451907 172.502243 
L 233.711693 177.84194 
L 233.97148 187.61831 
L 234.231266 207.642187 
L 234.685892 268.538292 
L 234.750839 265.789921 
L 235.140518 220.402491 
L 235.789984 138.383109 
L 236.049771 114.118858 
L 236.309557 108.66137 
L 236.374504 108.739891 
L 236.569343 110.820805 
L 237.283756 127.232547 
L 238.063115 142.034523 
L 238.712581 150.044086 
L 239.751727 156.404611 
L 239.816673 156.522398 
L 240.07646 157.778799 
L 241.050659 160.370125 
L 241.570231 161.351688 
L 241.635178 161.351688 
L 242.219697 162.215463 
L 242.609377 162.568826 
L 242.73927 162.411776 
L 242.93411 162.608089 
L 243.064003 162.608089 
L 243.323789 163.039976 
L 243.453683 163.039976 
L 243.518629 163.236289 
L 243.583576 163.157764 
L 243.843362 163.314814 
L 244.297988 163.668177 
L 244.817561 164.767527 
L 245.077348 165.395728 
L 245.272187 165.788352 
L 245.467027 166.53434 
L 245.921653 169.086404 
L 246.18144 171.913305 
L 246.441226 176.703335 
L 246.765959 189.699225 
L 247.025745 212.078845 
L 247.415425 268.067143 
L 247.480372 267.321154 
L 247.675211 248.710747 
L 248.909197 110.349657 
L 249.104037 108.347263 
L 249.168983 108.543583 
L 249.363823 111.409741 
L 249.688556 118.35922 
L 250.338022 133.278983 
L 250.922541 143.369448 
L 251.507061 149.965553 
L 251.89674 152.674671 
L 252.741046 157.229123 
L 252.870939 157.778799 
L 253.195672 158.87815 
L 253.715245 160.095288 
L 253.910085 160.44865 
L 254.299764 161.312425 
L 255.598696 162.765139 
L 255.728589 162.568826 
L 255.793536 162.686614 
L 255.858483 162.647351 
L 256.248162 162.922189 
L 256.313109 163.197026 
L 256.378055 162.961451 
L 256.572895 163.393339 
L 256.637842 163.628914 
L 256.702788 163.550389 
L 256.897628 163.550389 
L 256.962575 163.550389 
L 257.612041 164.924577 
L 257.80688 165.395728 
L 258.066667 165.670565 
L 258.326453 167.00549 
L 258.651186 168.733042 
L 259.105812 175.054302 
L 259.365599 182.200089 
L 259.625385 196.962786 
L 259.885171 226.645234 
L 260.209904 269.048707 
L 260.339798 259.507923 
L 261.703676 109.171773 
L 261.833569 108.033168 
L 261.898516 108.111689 
L 262.093356 110.545965 
L 262.612928 122.246208 
L 263.327341 137.715653 
L 264.041754 147.923905 
L 264.49638 151.536058 
L 264.886059 153.931072 
L 265.210792 156.09051 
L 265.665419 157.975111 
L 265.730365 157.975111 
L 266.379831 159.9775 
L 267.613816 162.019151 
L 267.873603 162.293988 
L 268.003496 162.254726 
L 268.133389 162.411776 
L 268.198336 162.411776 
L 268.328229 162.725876 
L 268.393176 162.686614 
L 268.523069 162.647351 
L 268.588015 162.804401 
L 268.652962 162.765139 
L 268.717909 162.686614 
L 268.847802 162.922189 
L 268.977695 162.765139 
L 269.302428 163.314814 
L 269.367374 163.275551 
L 269.497268 163.471864 
L 269.562214 163.393339 
L 269.627161 163.589652 
L 269.692107 163.432601 
L 269.886947 163.746702 
L 270.01684 163.825227 
L 271.055986 166.612866 
L 271.315772 168.222629 
L 271.705452 172.266667 
L 271.965238 177.449324 
L 272.225025 186.676013 
L 272.484811 206.071688 
L 272.744597 245.569748 
L 272.939437 269.912484 
L 273.004384 268.341984 
L 273.26417 240.112261 
L 274.368262 111.2527 
L 274.563102 107.679807 
L 274.628049 107.758327 
L 274.757942 108.779157 
L 275.082675 115.061167 
L 276.251714 140.110662 
L 276.90118 148.709161 
L 277.225913 151.379008 
L 278.589791 158.367737 
L 278.914524 159.270775 
L 279.109364 159.741925 
L 279.434097 160.527175 
L 279.823776 161.155376 
L 280.408296 162.019151 
L 280.538189 162.176201 
L 280.733029 162.333251 
L 280.797975 162.215463 
L 280.862922 162.293988 
L 280.927869 162.333251 
L 280.992815 162.215463 
L 281.382495 162.843664 
L 281.447441 162.804401 
L 281.642281 162.961451 
L 281.772174 162.922189 
L 282.031961 162.882926 
L 282.096907 162.922189 
L 282.226801 163.314814 
L 282.291747 163.236289 
L 282.876266 163.943014 
L 282.941213 163.825227 
L 283.200999 164.80679 
L 283.265946 164.846052 
L 283.460786 165.474252 
L 283.525732 165.513515 
L 284.240145 169.282716 
L 284.694771 176.46776 
L 285.019504 188.756927 
L 285.279291 210.312038 
L 285.733917 270.148058 
L 285.798863 266.26107 
L 286.643169 168.222629 
L 287.032849 115.846411 
L 287.227688 108.308009 
L 287.357582 107.287179 
L 287.422528 107.404966 
L 287.617368 109.839242 
L 288.331781 126.643611 
L 288.981247 139.757301 
L 289.825552 150.08334 
L 290.280178 153.028034 
L 291.124484 157.621749 
L 291.189431 157.739536 
L 291.384271 158.289211 
L 291.644057 159.074462 
L 292.033737 159.9775 
L 292.35847 160.802013 
L 292.618256 161.2339 
L 292.748149 161.312425 
L 293.397615 162.293988 
L 293.527508 162.254726 
L 293.592455 162.333251 
L 293.657401 162.176201 
L 293.722348 162.254726 
L 293.787295 162.411776 
L 293.852241 162.333251 
L 293.982134 162.372514 
L 294.501707 162.882926 
L 294.566654 162.686614 
L 294.6316 162.725876 
L 294.761494 162.882926 
L 295.02128 163.354076 
L 295.086227 163.197026 
L 295.151173 163.236289 
L 295.346013 163.471864 
L 295.735693 164.217851 
L 295.865586 164.374902 
L 296.190319 165.277939 
L 296.320212 165.513515 
L 296.644945 167.044753 
L 297.034624 169.518292 
L 297.489251 177.488578 
L 297.749037 187.461257 
L 298.008823 207.445867 
L 298.26861 248.239599 
L 298.46345 271.365196 
L 298.593343 263.080804 
L 300.022168 107.679807 
L 300.152061 107.012338 
L 300.281954 108.150955 
L 300.73658 117.888059 
L 302.035512 143.840597 
L 302.555085 149.415884 
L 302.879818 151.850157 
L 303.399391 155.265997 
L 303.78907 157.032811 
L 304.37359 159.074462 
L 305.347789 161.194638 
L 306.321988 162.293988 
L 306.386934 162.176201 
L 306.581774 162.411776 
L 306.646721 162.333251 
L 306.84156 162.490301 
L 306.906507 162.411776 
L 307.0364 162.568826 
L 307.101347 162.451039 
L 307.296187 162.882926 
L 307.361133 162.765139 
L 307.42608 162.804401 
L 307.945653 163.079239 
L 308.010599 162.961451 
L 308.140492 163.354076 
L 308.270386 163.511127 
L 308.530172 164.257114 
L 308.660065 164.531952 
L 308.919852 165.042365 
L 309.049745 165.199415 
L 309.699211 168.615253 
L 310.218783 176.507015 
L 310.47857 186.008544 
L 310.738356 204.501188 
L 310.998143 242.625057 
L 311.192982 270.265845 
L 311.257929 270.226579 
L 311.452769 251.419852 
L 312.686754 109.21104 
L 312.816647 106.973071 
L 312.881594 107.012338 
L 312.94654 107.090859 
L 313.14138 109.603667 
L 313.7259 123.267038 
L 314.440312 138.147535 
L 315.414511 150.318915 
L 316.713443 157.50396 
L 317.817535 160.487913 
L 318.337108 161.469476 
L 318.791734 161.862101 
L 318.856681 161.862101 
L 319.116467 162.215463 
L 319.311307 162.215463 
L 319.765933 162.411776 
L 319.895826 162.254726 
L 320.025719 162.372514 
L 320.090666 162.333251 
L 320.285506 162.725876 
L 320.350452 162.725876 
L 320.415399 162.882926 
L 320.480346 162.843664 
L 320.545292 162.804401 
L 320.610239 163.039976 
L 320.675185 162.922189 
L 320.805079 162.882926 
L 322.039064 166.06319 
L 322.558637 169.596817 
L 322.948316 175.918079 
L 323.208103 184.516566 
L 323.467889 201.674284 
L 323.727675 237.44241 
L 323.987462 271.60077 
L 324.117355 262.688189 
L 325.54618 106.933817 
L 325.611127 106.423402 
L 325.676073 106.462669 
L 325.870913 108.857678 
L 326.130699 114.275912 
L 327.364685 140.621077 
L 328.144044 149.887033 
L 329.248136 156.561661 
L 329.572869 157.700273 
L 329.702762 158.132161 
L 330.482121 160.173812 
L 331.326427 161.665788 
L 331.391374 161.587263 
L 331.45632 161.665788 
L 331.65116 161.940626 
L 331.716107 161.783576 
L 331.781053 161.901363 
L 331.846 161.901363 
L 332.04084 162.097676 
L 332.170733 162.215463 
L 332.23568 162.136938 
L 332.365573 162.333251 
L 332.430519 162.293988 
L 332.560412 162.254726 
L 332.690306 162.333251 
L 332.820199 162.372514 
L 333.015039 162.293988 
L 333.209878 162.804401 
L 333.404718 163.079239 
L 333.469665 163.000714 
L 333.534611 163.000714 
L 333.729451 163.314814 
L 333.794398 163.157764 
L 334.054184 163.903751 
L 334.184077 164.296377 
L 334.50881 164.924577 
L 334.573757 165.003102 
L 335.223223 168.497466 
L 335.547956 172.46298 
L 335.872689 180.551057 
L 336.132475 193.900308 
L 336.392262 221.541108 
L 336.716995 271.679291 
L 336.781941 270.658461 
L 336.976781 251.027236 
L 338.210766 108.072422 
L 338.405606 105.991508 
L 338.535499 106.855284 
L 338.990125 116.31756 
L 339.899378 136.851876 
L 340.418951 144.508066 
L 340.938523 149.965553 
L 342.237455 157.268386 
L 342.886921 159.231512 
L 343.341547 160.370125 
L 343.471441 160.527175 
L 343.731227 160.880537 
L 343.796174 160.841276 
L 343.991013 161.548001 
L 344.05596 161.665788 
L 344.120907 161.587263 
L 344.44564 161.862101 
L 344.575533 161.705051 
L 344.770373 161.862101 
L 344.835319 161.587263 
L 345.030159 162.019151 
L 345.095106 161.901363 
L 345.289945 162.215463 
L 345.354892 162.097676 
L 345.484785 162.411776 
L 345.614678 162.176201 
L 345.679625 162.254726 
L 345.809518 162.451039 
L 345.874465 162.451039 
L 346.004358 162.608089 
L 346.069304 162.411776 
L 346.134251 162.765139 
L 346.199198 162.647351 
L 346.523931 163.275551 
L 347.043503 164.296377 
L 347.368236 165.356465 
L 347.692969 166.53434 
L 348.277489 172.14888 
L 348.537275 177.645632 
L 348.797062 188.207246 
L 349.056848 209.448261 
L 349.511474 271.954132 
L 349.576421 268.891654 
L 350.290833 188.835448 
L 351.005246 106.776764 
L 351.135139 105.520359 
L 351.200086 105.716679 
L 351.329979 106.973071 
L 351.654712 113.765496 
L 352.758804 138.383109 
L 353.733003 150.08334 
L 354.447415 154.559272 
L 354.837095 156.679448 
L 356.26592 160.802013 
L 356.330867 160.76275 
L 356.850439 161.508738 
L 356.915386 161.508738 
L 357.175172 161.862101 
L 357.370012 161.979888 
L 357.499905 161.862101 
L 359.058624 162.804401 
L 359.448303 163.707439 
L 359.51325 163.668177 
L 359.70809 164.17859 
L 359.902929 164.610477 
L 360.227662 165.59204 
L 360.682289 168.104841 
L 361.007022 171.67773 
L 361.201861 175.289877 
L 361.461648 183.692055 
L 361.721434 199.946731 
L 361.981221 234.379944 
L 362.241007 272.660855 
L 362.305953 271.32593 
L 362.56574 242.585803 
L 363.734779 107.522753 
L 363.864672 105.559626 
L 363.929618 105.638146 
L 364.059512 106.384136 
L 364.449191 114.315178 
L 365.22855 132.847089 
L 365.81307 142.859033 
L 366.267696 148.198746 
L 367.241895 154.99116 
L 367.566628 156.600923 
L 368.410934 159.467087 
L 368.47588 159.467087 
L 368.735667 160.095288 
L 368.86556 160.409387 
L 369.190293 161.07685 
L 369.255239 161.037588 
L 369.515026 161.390951 
L 369.774812 161.665788 
L 370.229438 162.058413 
L 370.359331 162.097676 
L 370.424278 162.176201 
L 370.489225 162.058413 
L 370.554171 162.097676 
L 370.813958 162.136938 
L 371.008797 162.411776 
L 371.073744 162.254726 
L 371.138691 162.411776 
L 371.203637 162.333251 
L 371.593317 162.686614 
L 371.72321 162.686614 
L 372.372676 164.060801 
L 372.697409 164.885315 
L 372.697409 164.885315 
" clip-path="url(#p88bece4793)" style="fill: none; stroke: #333333; stroke-width: 0.8; stroke-linecap: square"/>
   </g>
   <g id="line2d_14">
    <path d="M 372.762355 163.903751 
L 372.827302 163.864489 
L 372.957195 164.060801 
L 373.022142 163.903751 
L 373.216982 164.217851 
L 373.411821 164.296377 
L 373.606661 164.610477 
L 374.191181 166.887703 
L 374.58086 171.088792 
L 374.7757 175.093569 
L 375.035486 186.126331 
L 375.230326 204.383401 
L 375.490113 258.251531 
L 375.620006 251.498385 
L 376.074632 210.272771 
L 376.269472 201.988379 
L 376.529258 181.375567 
L 376.918938 133.082663 
L 377.178724 122.285475 
L 377.308617 121.264644 
L 377.373564 121.382432 
L 377.503457 122.481782 
L 377.893137 129.313462 
L 378.802389 145.018481 
L 379.451855 152.04647 
L 380.361107 156.875761 
L 380.815733 158.603311 
L 381.205413 159.702662 
L 381.854879 160.76275 
L 381.919826 160.723487 
L 382.179612 161.194638 
L 382.439398 161.430213 
L 382.699185 161.705051 
L 382.829078 161.783576 
L 383.023918 161.979888 
L 383.673384 162.647351 
L 384.192956 162.686614 
L 384.257903 162.922189 
L 384.32285 162.804401 
L 384.452743 163.118501 
L 384.517689 162.961451 
L 384.777476 163.118501 
L 384.842422 163.000714 
L 385.037262 163.275551 
L 385.297049 163.236289 
L 385.426942 163.197026 
L 385.556835 163.589652 
L 385.621781 163.589652 
L 385.816621 163.825227 
L 385.881568 163.785964 
L 386.011461 163.903751 
L 386.076408 163.825227 
L 386.336194 164.17859 
L 386.531034 164.257114 
L 387.245446 166.495077 
L 387.570179 169.557554 
L 387.829966 174.308318 
L 388.089752 184.712886 
L 388.284592 201.752805 
L 388.544378 250.909449 
L 388.674272 244.705972 
L 389.128898 205.875368 
L 389.323737 198.376232 
L 389.518577 185.576662 
L 390.168043 121.657272 
L 390.362883 119.576358 
L 390.492776 120.400868 
L 390.687616 123.306293 
L 392.181388 148.552107 
L 392.765907 153.774021 
L 393.740106 158.132161 
L 393.934946 158.642574 
L 394.129786 159.270775 
L 394.324625 159.741925 
L 394.454519 159.938238 
L 394.649358 160.173812 
L 394.714305 160.213075 
L 394.909145 160.6057 
L 396.597756 162.568826 
L 396.792596 162.529564 
L 397.766795 163.000714 
L 398.091528 163.039976 
L 398.351314 163.197026 
L 398.481208 163.236289 
L 399.065727 163.825227 
L 399.19562 163.903751 
L 399.260567 163.982277 
L 399.325513 163.864489 
L 400.104872 165.434989 
L 400.494552 168.222629 
L 400.754338 171.638468 
L 400.949178 176.19292 
L 401.208965 189.306597 
L 401.403804 211.961058 
L 401.598644 251.537639 
L 401.663591 250.399034 
L 402.313057 201.477977 
L 402.572843 185.223301 
L 403.157362 123.109985 
L 403.352202 119.654879 
L 403.417149 119.497825 
L 403.482095 119.615612 
L 403.676935 122.128421 
L 405.365547 149.847766 
L 405.885119 154.166646 
L 406.339746 156.326085 
L 406.469639 156.443872 
L 406.989212 158.87815 
L 407.054158 158.799624 
L 407.443838 159.702662 
L 407.898464 160.409387 
L 408.482983 161.312425 
L 408.612877 161.390951 
L 409.002556 161.901363 
L 409.132449 161.940626 
L 409.522129 162.451039 
L 409.652022 162.411776 
L 409.716969 162.451039 
L 409.781915 162.293988 
L 409.846862 162.411776 
L 410.171595 162.686614 
L 410.236541 162.843664 
L 410.301488 162.608089 
L 410.366435 162.804401 
L 410.431381 162.765139 
L 410.496328 162.765139 
L 410.561274 163.000714 
L 410.626221 162.804401 
L 410.691168 162.882926 
L 410.756114 163.079239 
L 410.821061 163.039976 
L 411.145794 162.882926 
L 411.665367 163.393339 
L 411.730313 163.354076 
L 411.925153 163.628914 
L 411.9901 163.589652 
L 412.055046 163.785964 
L 412.119993 163.746702 
L 412.184939 163.707439 
L 412.314832 163.982277 
L 412.379779 163.825227 
L 412.769459 164.531952 
L 412.899352 164.64974 
L 413.094192 165.160152 
L 413.743658 170.382067 
L 414.003444 176.232186 
L 414.198284 185.066247 
L 414.393124 202.655848 
L 414.65291 252.008788 
L 414.717857 250.438288 
L 415.302376 204.03004 
L 415.627109 184.94846 
L 416.211628 122.87441 
L 416.406468 119.537091 
L 416.471415 119.340784 
L 416.536361 119.576358 
L 416.796148 123.227772 
L 417.51056 137.126705 
L 418.030133 145.371842 
L 418.549706 150.907857 
L 419.134225 155.226734 
L 419.718744 157.268386 
L 420.173371 158.995937 
L 420.433157 159.663399 
L 420.498104 159.663399 
L 420.692943 159.938238 
L 420.822837 160.13455 
L 421.537249 161.312425 
L 421.602196 161.312425 
L 421.861982 161.665788 
L 421.926929 161.626526 
L 422.316608 162.176201 
L 422.771234 162.411776 
L 422.901128 162.333251 
L 424.00522 162.882926 
L 424.070166 162.804401 
L 424.329953 163.118501 
L 424.589739 163.197026 
L 424.784579 163.432601 
L 424.914472 163.354076 
L 424.979419 163.550389 
L 425.044365 163.511127 
L 425.109312 163.511127 
L 425.369098 163.864489 
L 425.563938 163.864489 
L 426.343297 165.90614 
L 426.66803 168.929353 
L 426.927817 172.93413 
L 427.187603 181.611141 
L 427.382443 195.824169 
L 427.577283 226.802276 
L 427.707176 252.048054 
L 427.772122 250.16346 
L 428.356642 204.069294 
L 428.681375 184.791406 
L 429.265894 122.481782 
L 429.460734 119.18373 
L 429.52568 118.987422 
L 429.72052 120.83275 
L 430.499879 135.752525 
L 431.084399 145.489629 
L 432.058598 154.402222 
L 433.552369 159.427825 
L 433.877102 160.056025 
L 434.591515 161.194638 
L 434.656462 161.194638 
L 434.981195 161.587263 
L 435.046141 161.587263 
L 435.305928 162.058413 
L 435.370874 162.058413 
L 435.565714 162.254726 
L 436.02034 162.333251 
L 436.345073 162.568826 
L 436.41002 162.568826 
L 436.604859 162.804401 
L 436.799699 162.568826 
L 436.994539 162.765139 
L 437.124432 162.686614 
L 437.384219 163.000714 
L 437.449165 163.039976 
L 437.644005 162.882926 
L 437.903791 163.236289 
L 438.163578 163.432601 
L 438.423364 163.903751 
L 438.618204 163.943014 
L 439.007883 164.453427 
L 439.527456 166.887703 
L 439.917136 171.599205 
L 440.176922 178.941291 
L 440.371762 190.091853 
L 440.566602 213.924185 
L 440.761442 252.283628 
L 440.826388 250.16346 
L 441.410908 203.990773 
L 441.670694 189.856266 
L 441.865534 165.59204 
L 442.190267 128.88158 
L 442.450053 119.576358 
L 442.515 119.026676 
L 442.579946 119.144463 
L 442.644893 119.340784 
L 442.839733 121.971367 
L 443.424252 133.278983 
L 444.268558 146.706767 
L 444.853077 152.439096 
L 445.242757 154.99116 
L 445.56749 156.129772 
L 445.697383 156.522398 
L 446.606635 159.467087 
L 446.931368 159.9775 
L 447.191155 160.644963 
L 447.450941 160.9198 
L 448.61998 162.215463 
L 448.879766 162.136938 
L 449.139552 162.372514 
L 449.269446 162.293988 
L 449.464285 162.568826 
L 449.659125 162.529564 
L 449.724072 162.608089 
L 449.789018 162.529564 
L 449.918912 162.647351 
L 449.983858 162.529564 
L 450.178698 162.490301 
L 450.308591 162.882926 
L 450.373538 162.725876 
L 450.438484 162.843664 
L 450.568378 162.725876 
L 450.698271 163.079239 
L 450.763217 162.922189 
L 450.958057 163.000714 
L 451.023004 162.882926 
L 451.28279 163.471864 
L 451.47763 163.668177 
L 451.542577 163.668177 
L 451.607523 163.785964 
L 451.67247 163.746702 
L 451.737416 163.785964 
L 451.932256 164.139327 
L 451.997203 164.100064 
L 452.256989 164.885315 
L 452.646669 167.437378 
L 452.971402 171.481418 
L 453.166241 176.428494 
L 453.426028 190.131107 
L 453.620868 214.356067 
L 453.815707 252.715523 
L 453.880654 250.006406 
L 454.400227 205.757581 
L 454.595067 197.826563 
L 454.854853 175.44693 
L 455.244533 128.449685 
L 455.504319 119.380038 
L 455.634212 118.908889 
L 455.764105 119.890453 
L 456.218731 127.900016 
L 457.38777 147.41349 
L 458.232076 154.559272 
L 459.595954 159.349299 
L 459.660901 159.231512 
L 459.855741 159.702662 
L 460.375314 160.723487 
L 460.570153 160.841276 
L 460.764993 161.07685 
L 461.154673 161.626526 
L 461.219619 161.626526 
L 461.479406 162.058413 
L 461.544352 161.940626 
L 461.609299 162.136938 
L 461.674246 162.019151 
L 461.934032 162.136938 
L 461.998979 162.019151 
L 462.128872 162.254726 
L 462.193818 162.136938 
L 462.258765 162.215463 
L 462.518551 162.372514 
L 462.843284 162.451039 
L 462.973177 162.215463 
L 463.29791 162.608089 
L 463.362857 162.293988 
L 463.49275 162.725876 
L 463.557697 162.647351 
L 463.752537 162.647351 
L 463.947376 163.079239 
L 464.012323 163.000714 
L 464.07727 162.686614 
L 464.142216 162.882926 
L 464.531896 163.550389 
L 464.596842 163.471864 
L 464.791682 163.668177 
L 464.986522 163.746702 
L 465.311255 164.689002 
L 465.895774 169.400504 
L 466.090614 172.737817 
L 466.3504 181.885982 
L 466.54524 196.609425 
L 466.74008 229.000977 
L 466.869973 252.519203 
L 466.999866 243.174739 
L 467.454493 205.67906 
L 467.649332 197.74803 
L 467.909119 174.857993 
L 468.298798 127.978537 
L 468.558585 119.18373 
L 468.688478 118.634048 
L 468.818371 119.851186 
L 469.208051 126.604345 
L 470.117303 143.09462 
L 470.571929 148.591374 
L 471.026555 152.556883 
L 471.416235 154.716322 
L 471.740968 155.540835 
L 471.935808 156.797235 
L 472.260541 158.171424 
L 472.325487 158.328474 
L 472.390434 158.132161 
L 472.45538 158.642574 
L 472.520327 158.56405 
L 472.585274 158.642574 
L 472.715167 159.388562 
L 472.780113 159.074462 
L 472.974953 159.584875 
L 473.299686 160.44865 
L 473.494526 160.6057 
L 473.559473 160.487913 
L 473.754312 160.959063 
L 473.819259 160.880537 
L 474.014099 161.273163 
L 474.273885 161.665788 
L 474.338832 161.626526 
L 474.533672 161.901363 
L 474.663565 161.665788 
L 474.858405 162.058413 
L 475.183138 162.097676 
L 475.377977 162.254726 
L 475.637764 162.097676 
L 475.832603 162.293988 
L 476.09239 162.136938 
L 476.222283 162.293988 
L 476.28723 162.215463 
L 476.352176 162.215463 
L 476.482069 162.608089 
L 476.676909 162.608089 
L 476.871749 162.608089 
L 477.066589 162.922189 
L 477.131535 162.765139 
L 477.196482 162.882926 
L 477.326375 163.236289 
L 477.391322 163.039976 
L 477.521215 163.511127 
L 477.586162 163.157764 
L 477.651108 163.550389 
L 477.716055 163.354076 
L 477.910895 163.432601 
L 478.170681 164.02154 
L 478.365521 164.767527 
L 478.625307 166.259503 
L 479.14488 172.659293 
L 479.404666 182.043035 
L 479.599506 197.002053 
L 479.794346 230.021807 
L 479.924239 252.83331 
L 480.054132 242.899898 
L 480.508758 205.443486 
L 480.703598 197.355414 
L 480.963385 174.229794 
L 481.353064 127.703696 
L 481.547904 120.047506 
L 481.742744 118.712581 
L 481.937584 120.636442 
L 482.522103 131.55143 
L 483.431355 146.392672 
L 484.405554 154.637797 
L 484.470501 154.716322 
L 485.24986 157.975111 
L 485.834379 159.310037 
L 485.899326 159.231512 
L 486.224059 160.056025 
L 486.483845 160.44865 
L 487.847724 161.940626 
L 487.91267 161.822838 
L 487.977617 161.862101 
L 488.10751 161.940626 
L 488.30235 162.136938 
L 488.367297 162.058413 
L 488.432243 162.176201 
L 488.49719 162.136938 
L 488.692029 162.058413 
L 488.886869 162.215463 
L 489.211602 162.215463 
L 489.406442 162.529564 
L 489.536335 162.490301 
L 489.601282 162.568826 
L 489.796122 162.372514 
L 490.055908 162.686614 
L 490.120855 162.529564 
L 490.315694 163.000714 
L 490.445588 163.197026 
L 490.510534 163.157764 
L 490.640427 163.432601 
L 490.705374 163.275551 
L 490.835267 163.589652 
L 490.900214 163.354076 
L 490.96516 163.511127 
L 491.484733 165.003102 
L 491.679573 166.22024 
L 492.069252 170.26428 
L 492.329039 176.624802 
L 492.588825 191.151937 
L 492.783665 216.594035 
L 492.978505 252.676256 
L 493.108398 242.350229 
L 493.563024 205.522006 
L 493.757864 197.355414 
L 494.01765 173.366018 
L 494.40733 127.31108 
L 494.667116 119.105209 
L 494.79701 118.712581 
L 494.991849 120.714963 
L 495.836155 136.734089 
L 496.290781 143.99765 
L 497.005194 151.771633 
L 497.135087 152.556883 
L 497.394873 154.362959 
L 497.589713 154.99116 
L 498.174233 157.700273 
L 499.408218 160.487913 
L 499.732951 160.723487 
L 499.992737 161.155376 
L 500.252524 161.508738 
L 500.642203 161.862101 
L 500.772096 161.901363 
L 501.031883 161.979888 
L 501.226723 162.176201 
L 501.421562 162.097676 
L 501.551456 162.215463 
L 501.616402 162.058413 
L 501.681349 162.176201 
L 501.746295 162.176201 
L 501.811242 162.293988 
L 501.876189 162.176201 
L 501.941135 162.215463 
L 502.135975 162.293988 
L 502.330815 162.451039 
L 502.460708 162.372514 
L 502.525654 162.568826 
L 502.590601 162.490301 
L 502.785441 162.411776 
L 502.850387 162.372514 
L 503.17512 162.765139 
L 503.434907 163.236289 
L 503.5648 163.628914 
L 503.629747 163.550389 
L 503.95448 163.432601 
L 504.344159 164.217851 
L 504.928679 167.947791 
L 505.123518 170.342804 
L 505.383305 176.860376 
L 505.643091 191.544565 
L 505.837931 217.143705 
L 506.032771 252.794043 
L 506.22761 235.204454 
L 506.552343 207.013985 
L 506.747183 200.260839 
L 506.942023 188.089459 
L 507.136863 161.979888 
L 507.461596 126.918452 
L 507.721382 119.105209 
L 507.851275 118.791102 
L 508.046115 120.872017 
L 509.734727 148.709161 
L 510.319246 153.577708 
L 511.618178 158.760361 
L 511.813018 159.113724 
L 512.462484 160.409387 
L 512.657323 160.566437 
L 513.047003 161.155376 
L 513.306789 161.508738 
L 513.501629 161.665788 
L 513.761416 161.862101 
L 513.956255 161.901363 
L 514.086149 162.097676 
L 514.151095 162.058413 
L 514.216042 162.058413 
L 514.410882 162.254726 
L 514.670668 162.215463 
L 515.060348 162.215463 
L 515.190241 162.490301 
L 515.320134 162.451039 
L 515.644867 162.686614 
L 515.9696 162.608089 
L 516.16444 162.804401 
L 516.229386 162.686614 
L 516.554119 163.314814 
L 516.748959 163.628914 
L 517.073692 163.471864 
L 517.333478 164.296377 
L 517.788105 166.37729 
L 518.242731 171.638468 
L 518.502517 179.844334 
L 518.697357 192.094234 
L 518.892197 218.243055 
L 519.087036 252.754777 
L 519.281876 234.77256 
L 519.606609 206.974719 
L 519.736502 203.244784 
L 519.996289 187.853884 
L 520.191129 161.587263 
L 520.515862 126.839919 
L 520.710701 119.772666 
L 520.905541 118.791102 
L 521.035434 119.929719 
L 521.360167 125.308686 
L 522.334366 143.133874 
L 522.983832 150.790069 
L 523.633298 154.873372 
L 524.217818 157.268386 
L 524.412657 158.053636 
L 525.451803 160.330863 
L 525.646643 160.566437 
L 526.296109 161.508738 
L 526.490948 161.744313 
L 526.620842 161.744313 
L 526.945575 161.979888 
L 527.465147 162.254726 
L 527.530094 162.136938 
L 527.595041 162.215463 
L 527.659987 162.293988 
L 527.724934 162.215463 
L 527.98472 162.176201 
L 528.244507 162.529564 
L 528.764079 162.765139 
L 528.958919 162.490301 
L 529.218705 163.118501 
L 529.283652 163.039976 
L 529.348599 163.118501 
L 529.478492 163.314814 
L 529.543438 163.236289 
L 529.738278 163.511127 
L 529.803225 163.393339 
L 529.868171 163.471864 
L 529.998065 163.471864 
L 530.127958 163.668177 
L 530.517637 164.767527 
L 531.03721 168.065578 
L 531.296997 171.874042 
L 531.556783 180.001387 
L 531.751623 192.486862 
L 531.946462 219.106832 
L 532.141302 252.63699 
L 532.401089 227.548265 
L 532.725822 205.443486 
L 532.985608 192.251288 
L 533.180448 171.481418 
L 533.505181 131.158802 
L 533.764967 119.811932 
L 533.89486 118.830368 
L 533.959807 118.869623 
L 534.024754 119.144463 
L 534.414433 125.583527 
L 535.323685 142.466417 
L 536.167991 151.967945 
L 536.492724 154.088122 
L 536.94735 156.011985 
L 537.661763 158.799624 
L 537.72671 158.799624 
L 537.791656 158.917412 
L 537.986496 159.388562 
L 538.441122 160.2916 
L 538.635962 160.487913 
L 539.350374 161.626526 
L 539.480268 161.626526 
L 539.675107 161.822838 
L 540.714253 162.372514 
L 540.909093 162.136938 
L 541.103933 162.490301 
L 541.168879 162.411776 
L 541.233826 162.608089 
L 541.298772 162.568826 
L 541.363719 162.568826 
L 541.428666 162.804401 
L 541.493612 162.725876 
L 541.753399 162.725876 
L 541.948238 162.529564 
L 542.143078 162.882926 
L 542.337918 163.236289 
L 542.467811 163.118501 
L 542.662651 163.550389 
L 542.792544 163.628914 
L 543.05233 163.785964 
L 543.117277 163.746702 
L 543.506957 164.571214 
L 543.896636 166.612866 
L 544.221369 169.753867 
L 544.416209 173.562331 
L 544.675995 183.417215 
L 544.870835 199.475583 
L 545.065675 235.59707 
L 545.195568 252.715523 
L 545.520301 220.873639 
L 545.780087 205.404219 
L 546.039874 192.133501 
L 546.234714 171.167318 
L 546.559447 131.001748 
L 546.819233 119.694145 
L 547.014073 118.751836 
L 547.273859 122.089155 
L 547.923325 134.928003 
L 548.637738 146.117831 
L 549.287204 152.635408 
L 549.74183 155.14821 
L 549.871723 155.580097 
L 551.105708 159.663399 
L 551.430441 160.173812 
L 551.820121 160.723487 
L 552.014961 160.959063 
L 552.274747 161.469476 
L 552.339694 161.430213 
L 552.469587 161.665788 
L 552.59948 161.705051 
L 552.79432 161.822838 
L 552.859266 161.822838 
L 553.183999 162.215463 
L 553.378839 162.372514 
L 553.443786 162.333251 
L 553.508732 162.451039 
L 553.703572 162.254726 
L 553.833465 162.293988 
L 554.223145 162.647351 
L 554.353038 162.686614 
L 554.482931 162.725876 
L 554.612825 162.843664 
L 554.677771 162.686614 
L 554.742718 162.922189 
L 554.807664 162.725876 
L 554.872611 162.843664 
L 555.002504 162.804401 
L 555.067451 162.804401 
L 555.392184 163.197026 
L 555.911756 163.707439 
L 556.171543 163.589652 
L 557.015849 167.00549 
L 557.210688 168.890092 
L 557.470475 173.719381 
L 557.730261 183.809843 
L 557.925101 200.103785 
L 558.119941 236.931995 
L 558.249834 252.519203 
L 559.288979 170.42133 
L 559.613712 130.491345 
L 559.873499 119.497825 
L 560.003392 118.791102 
L 560.068339 118.830368 
L 560.198232 120.00824 
L 560.717805 129.902398 
L 561.886843 148.669895 
L 562.601256 154.402222 
L 562.731149 154.951897 
L 564.159974 159.741925 
L 564.744494 160.6057 
L 565.069227 161.116113 
L 565.329013 161.548001 
L 565.913532 161.940626 
L 565.978479 162.176201 
L 566.043425 162.136938 
L 566.692891 162.490301 
L 566.757838 162.333251 
L 566.822785 162.568826 
L 566.887731 162.411776 
L 567.017624 162.490301 
L 567.082571 162.529564 
L 567.147518 162.922189 
L 567.212464 162.686614 
L 567.407304 162.922189 
L 567.602144 162.804401 
L 567.732037 163.039976 
L 567.796984 162.961451 
L 568.05677 162.882926 
L 568.901076 163.785964 
L 569.095915 163.864489 
L 569.485595 164.728265 
L 570.005168 167.00549 
L 570.264954 169.125666 
L 570.524741 173.915694 
L 570.784527 184.163204 
L 570.979367 200.731987 
L 571.3041 252.558469 
L 571.369046 247.258035 
L 571.823672 206.935464 
L 571.953566 202.852156 
L 572.213352 186.715267 
L 572.927765 119.851186 
L 573.057658 118.791102 
L 573.187551 119.537091 
L 573.447337 123.541867 
L 575.071002 150.161873 
L 575.720468 154.873372 
L 576.694667 158.681837 
L 576.82456 158.87815 
L 577.0194 159.467087 
L 577.21424 159.898975 
L 577.863706 160.802013 
L 578.188439 161.312425 
L 578.383279 161.626526 
L 578.448225 161.548001 
L 578.772958 161.979888 
L 578.902851 161.979888 
L 579.097691 162.215463 
L 579.292531 162.529564 
L 579.422424 162.411776 
L 579.552317 162.529564 
L 580.006944 162.568826 
L 580.136837 162.725876 
L 580.26673 162.765139 
L 580.46157 162.882926 
L 580.526516 163.118501 
L 580.591463 163.039976 
L 580.65641 163.000714 
L 580.721356 163.157764 
L 580.786303 163.000714 
L 580.916196 163.197026 
L 581.175982 162.961451 
L 581.240929 163.079239 
L 581.500715 163.628914 
L 581.630609 163.668177 
L 581.760502 163.785964 
L 581.825448 163.668177 
L 582.020288 163.943014 
L 582.150181 163.864489 
L 582.409968 164.296377 
L 583.059434 166.84844 
L 583.384167 170.26428 
L 583.643953 176.035866 
L 583.903739 188.756927 
L 584.098579 210.115717 
L 584.358366 252.754777 
L 585.137725 195.784915 
L 585.332564 179.216131 
L 585.722244 130.098718 
L 585.98203 119.890453 
L 586.111924 119.105209 
L 586.17687 119.18373 
L 586.37171 121.460952 
L 587.021176 134.260547 
L 587.605695 143.99765 
L 587.995375 149.023256 
L 588.450001 153.185084 
L 588.709787 154.755585 
L 589.099467 156.561661 
L 589.294307 157.150598 
L 589.554093 158.132161 
L 590.008719 159.506349 
L 590.073666 159.506349 
L 590.723132 160.684226 
L 590.788079 160.6057 
L 590.917972 160.802013 
L 591.307651 161.508738 
L 591.892171 161.940626 
L 592.151957 162.411776 
L 592.411743 162.608089 
L 592.736476 162.647351 
L 592.801423 162.725876 
L 592.86637 162.647351 
L 592.931316 162.647351 
L 593.126156 162.922189 
L 593.191103 162.725876 
L 593.256049 163.157764 
L 593.320996 163.118501 
L 593.385942 163.118501 
L 593.450889 163.000714 
L 593.515836 163.236289 
L 593.580782 163.197026 
L 593.840569 163.118501 
L 593.970462 163.079239 
L 594.165302 163.236289 
L 594.360141 163.471864 
L 594.425088 163.668177 
L 594.490035 163.628914 
L 594.554981 163.589652 
L 594.749821 163.825227 
L 595.074554 164.217851 
L 595.204447 164.139327 
L 596.113699 167.123278 
L 596.308539 168.890092 
L 596.568326 172.973393 
L 596.828112 181.336312 
L 597.022952 194.567777 
L 597.217792 223.700543 
L 597.347685 252.990351 
L 597.412631 252.676256 
L 598.127044 199.357796 
L 598.38683 178.587929 
L 598.77651 129.823877 
L 599.036296 119.811932 
L 599.166189 119.026676 
L 599.231136 119.18373 
L 599.685762 126.565091 
L 600.789854 146.078565 
L 601.43932 152.596146 
L 601.764053 155.187472 
L 602.283626 157.072073 
L 602.608359 158.289211 
L 603.062985 159.702662 
L 603.127932 159.741925 
L 603.452665 160.370125 
L 603.712451 160.6057 
L 604.426864 161.705051 
L 604.49181 161.665788 
L 604.68665 162.058413 
L 604.751597 161.705051 
L 604.816543 162.176201 
L 604.88149 162.058413 
L 604.946437 162.019151 
L 605.141276 162.372514 
L 605.401063 162.725876 
L 605.466009 162.647351 
L 605.725796 162.686614 
L 605.855689 162.725876 
L 605.920635 162.647351 
L 606.115475 162.882926 
L 606.505155 163.275551 
L 606.764941 163.197026 
L 606.959781 163.393339 
L 607.024728 163.197026 
L 607.089674 163.275551 
L 607.219567 163.236289 
L 607.479354 163.668177 
L 607.609247 163.707439 
L 607.804087 163.903751 
L 608.063873 164.257114 
L 608.12882 164.257114 
L 608.193766 164.414164 
L 608.258713 164.257114 
L 608.32366 164.33564 
L 608.518499 164.689002 
L 608.973125 165.984665 
L 609.232912 167.790741 
L 609.557645 171.756255 
L 609.817431 178.941291 
L 610.012271 189.542171 
L 610.207111 211.843271 
L 610.401951 252.990351 
L 610.466897 252.479936 
L 611.116363 202.498795 
L 611.37615 186.204864 
L 612.025615 120.636442 
L 612.220455 118.908889 
L 612.415295 120.557922 
L 612.869921 129.274207 
L 613.64928 143.447981 
L 614.42864 152.282046 
L 615.143052 156.326085 
L 615.337892 156.915023 
L 615.727571 158.446261 
L 616.052304 159.584875 
L 616.312091 160.016762 
L 616.571877 160.409387 
L 616.636824 160.370125 
L 617.416183 161.587263 
L 617.870809 161.940626 
L 618.195542 162.372514 
L 618.260489 162.372514 
L 618.455328 162.568826 
L 618.585222 162.608089 
L 618.650168 162.529564 
L 618.715115 162.608089 
L 618.974901 162.686614 
L 619.559421 163.314814 
L 619.689314 163.039976 
L 619.75426 163.275551 
L 619.819207 163.079239 
L 619.884154 163.354076 
L 619.9491 163.236289 
L 620.078993 163.432601 
L 620.14394 163.197026 
L 620.273833 163.589652 
L 620.33878 163.511127 
L 620.53362 163.864489 
L 620.598566 163.825227 
L 620.663513 163.707439 
L 620.728459 163.785964 
L 620.858353 164.02154 
L 621.053192 164.100064 
L 621.507819 164.453427 
L 621.637712 164.728265 
L 621.702658 164.689002 
L 622.222231 167.162541 
L 622.676857 173.169705 
L 622.936644 181.807461 
L 623.131483 195.35302 
L 623.326323 225.506617 
L 623.456216 253.225926 
L 623.521163 252.283628 
L 624.170629 202.341741 
L 624.430415 185.655183 
L 625.014935 122.59957 
L 625.209774 119.105209 
L 625.274721 118.948156 
L 625.339668 119.105209 
L 625.599454 122.638836 
L 626.6386 142.505672 
L 627.353012 151.261219 
L 628.132371 156.169035 
L 628.392158 156.954286 
L 628.976677 159.310037 
L 629.366357 159.9775 
L 630.015823 160.9198 
L 630.275609 161.273163 
L 631.509594 162.647351 
L 631.704434 162.529564 
L 631.96422 162.608089 
L 632.029167 162.529564 
L 632.224007 162.843664 
L 632.418847 162.922189 
L 632.483793 163.197026 
L 632.54874 163.000714 
L 632.938419 163.118501 
L 633.003366 163.118501 
L 633.198206 163.354076 
L 633.328099 163.275551 
L 633.522939 163.511127 
L 633.912618 163.864489 
L 634.497138 164.453427 
L 634.562084 164.453427 
L 634.886817 165.199415 
L 635.341443 167.672954 
L 635.666176 171.756255 
L 635.861016 176.624802 
L 636.055856 185.341088 
L 636.250696 202.969943 
L 636.510482 253.4615 
L 636.640375 245.962376 
L 637.095002 206.896198 
L 637.289841 198.965168 
L 637.549628 177.253004 
L 637.939307 129.077887 
L 638.199094 119.380038 
L 638.328987 118.712581 
L 638.523827 120.557922 
L 638.978453 129.352728 
L 640.082545 147.60981 
L 640.537171 152.20352 
L 641.251584 156.247561 
L 641.51137 157.229123 
L 641.576317 157.307649 
L 641.771156 158.210687 
L 641.965996 158.956674 
L 642.290729 159.663399 
L 642.420622 159.820449 
L 642.615462 160.173812 
L 642.745355 160.213075 
L 642.940195 160.684226 
L 644.56386 162.529564 
L 644.628807 162.372514 
L 644.693753 162.451039 
L 644.888593 162.451039 
L 644.95354 162.451039 
L 645.018486 162.686614 
L 645.083433 162.647351 
L 645.148379 162.568826 
L 645.408166 163.118501 
L 645.473112 163.000714 
L 645.538059 162.843664 
L 645.603006 162.922189 
L 645.797845 162.882926 
L 645.992685 163.236289 
L 646.187525 163.157764 
L 646.252472 163.157764 
L 646.447311 163.668177 
L 646.577205 163.628914 
L 646.836991 163.668177 
L 647.031831 163.825227 
L 647.096777 163.746702 
L 647.42151 164.257114 
L 647.486457 164.17859 
L 647.551404 164.257114 
L 648.135923 165.74909 
L 648.525602 168.968616 
L 648.785389 173.130443 
L 649.045175 181.964502 
L 649.240015 196.059743 
L 649.434855 227.194904 
L 649.564748 253.65782 
L 649.629695 251.773213 
L 650.214214 204.776017 
L 650.474 190.405948 
L 650.66884 166.298766 
L 650.993573 128.488952 
L 651.25336 119.065943 
L 651.383253 118.712581 
L 651.448199 118.908889 
L 651.643039 121.539485 
L 653.136811 147.649064 
L 653.851223 154.088122 
L 654.240903 155.93346 
L 654.630583 157.307649 
L 654.955315 158.681837 
L 655.409942 159.741925 
L 655.669728 160.056025 
L 655.799621 160.252337 
L 656.449087 161.2339 
L 656.708874 161.469476 
L 657.033607 161.940626 
L 657.098553 161.940626 
L 657.35834 162.411776 
L 657.423286 162.333251 
L 657.488233 162.411776 
L 657.942859 162.451039 
L 658.007806 162.568826 
L 658.072752 162.529564 
L 658.202645 162.647351 
L 658.397485 162.961451 
L 658.462432 162.961451 
L 658.527378 163.079239 
L 658.722218 162.882926 
L 658.917058 162.882926 
L 659.046951 162.961451 
L 659.371684 163.275551 
L 659.436631 163.157764 
L 659.696417 163.550389 
L 659.761364 163.314814 
L 659.82631 163.550389 
L 659.891257 163.471864 
L 660.02115 163.628914 
L 660.21599 163.825227 
L 660.475776 164.139327 
L 660.605669 164.296377 
L 661.190189 165.788352 
L 661.579868 168.968616 
L 661.839655 173.326755 
L 662.099441 182.160822 
L 662.294281 196.570158 
L 662.489121 228.961711 
L 662.619014 254.128968 
L 662.748907 245.0986 
L 663.203533 206.660624 
L 663.398373 198.533286 
L 663.658159 176.075132 
L 664.047839 128.13559 
L 664.307625 118.948156 
L 664.437519 118.555528 
L 664.567412 119.694145 
L 664.892145 125.308686 
L 665.866344 143.369448 
L 666.450863 150.358181 
L 667.165276 155.540835 
L 667.490009 156.522398 
L 668.269368 159.349299 
L 669.37346 161.155376 
L 669.503353 161.2339 
L 669.828086 161.548001 
L 670.282712 162.254726 
L 670.347659 162.176201 
L 670.542499 162.411776 
L 670.802285 162.333251 
L 670.932178 162.372514 
L 671.256911 162.686614 
L 671.386804 162.608089 
L 671.451751 162.882926 
L 671.516698 162.804401 
L 671.711537 162.843664 
L 671.776484 162.922189 
L 671.84143 162.686614 
L 671.906377 162.922189 
L 671.971324 162.804401 
L 672.23111 163.118501 
L 672.296057 163.000714 
L 672.42595 163.157764 
L 672.490896 163.039976 
L 672.62079 163.354076 
L 672.685736 163.236289 
L 672.750683 163.354076 
L 672.815629 163.236289 
L 673.075416 163.707439 
L 673.140362 163.628914 
L 673.270256 163.707439 
L 673.530042 164.060801 
L 673.854775 164.610477 
L 674.114561 165.199415 
L 674.309401 166.298766 
L 674.439294 167.201803 
L 674.764027 170.735429 
L 675.023814 176.938909 
L 675.2836 190.955617 
L 675.47844 215.848046 
L 675.67328 254.011181 
L 675.738226 251.06649 
L 676.257799 206.660624 
L 676.452639 198.494019 
L 676.712425 175.839558 
L 677.102105 127.625175 
L 677.361891 118.751836 
L 677.426838 118.319953 
L 677.491784 118.437741 
L 677.621678 119.458571 
L 678.076304 127.821483 
L 679.050503 145.254055 
L 679.635022 151.339745 
L 680.089648 154.755585 
L 680.284488 155.501573 
L 681.453527 159.349299 
L 682.492672 161.07685 
L 682.622565 161.155376 
L 683.077192 161.862101 
L 683.207085 161.940626 
L 683.466871 162.215463 
L 683.726658 162.254726 
L 683.856551 162.372514 
L 683.921497 162.254726 
L 683.986444 162.333251 
L 684.311177 162.647351 
L 684.376124 162.529564 
L 684.570963 162.765139 
L 684.960643 162.686614 
L 685.025589 162.608089 
L 685.220429 163.000714 
L 685.285376 163.000714 
L 685.480216 163.236289 
L 685.675055 163.118501 
L 685.740002 163.275551 
L 685.804949 163.236289 
L 685.934842 163.236289 
L 685.999788 163.393339 
L 686.064735 163.236289 
L 686.194628 163.707439 
L 686.259575 163.668177 
L 686.389468 163.864489 
L 686.454415 163.707439 
L 686.779148 164.217851 
L 687.038934 164.64974 
L 687.233774 165.395728 
L 687.6884 168.890092 
L 687.948186 173.130443 
L 688.207973 182.396397 
L 688.402812 197.512455 
L 688.597652 230.924838 
L 688.727545 253.893394 
L 688.857439 244.038515 
L 689.312065 206.50357 
L 689.571851 194.135882 
L 689.766691 175.093569 
L 690.156371 127.232547 
L 690.416157 118.673315 
L 690.481104 118.280687 
L 690.54605 118.35922 
L 690.74089 120.283081 
L 691.390356 132.886355 
L 691.974875 143.212407 
L 692.364555 148.120213 
L 693.143914 154.834109 
L 694.442846 159.231512 
L 694.507793 159.231512 
L 694.832525 159.859712 
L 695.287152 160.802013 
L 695.417045 160.76275 
L 695.936618 161.508738 
L 696.001564 161.508738 
L 696.391244 162.019151 
L 696.45619 162.019151 
L 696.65103 162.176201 
L 696.780923 162.176201 
L 696.975763 162.293988 
L 697.105656 162.333251 
L 697.170603 162.451039 
L 697.23555 162.411776 
L 697.430389 162.568826 
L 697.430389 162.568826 
" clip-path="url(#p88bece4793)" style="fill: none; stroke: #d94452; stroke-width: 0.8; stroke-linecap: square"/>
   </g>
   <g id="text_15">
    <g id="patch_7">
     <path d="M 151.695865 296.055237 
L 269.095865 296.055237 
Q 272.095865 296.055237 272.095865 293.055237 
L 272.095865 282.455237 
Q 272.095865 279.455237 269.095865 279.455237 
L 151.695865 279.455237 
Q 148.695865 279.455237 148.695865 282.455237 
L 148.695865 293.055237 
Q 148.695865 296.055237 151.695865 296.055237 
z
" style="fill: #ffffff; opacity: 0.85; stroke: #333333; stroke-linejoin: miter"/>
    </g>
    <!-- I$_{p-p}$ = 3.52E-03 mA/m² -->
    <g style="fill: #333333" transform="translate(151.695865 289.955237) scale(0.1 -0.1)">
     <defs>
      <path id="DejaVuSans-49" d="M 628 4666 
L 1259 4666 
L 1259 0 
L 628 0 
L 628 4666 
z
" transform="scale(0.015625)"/>
      <path id="DejaVuSans-Oblique-70" d="M 3175 2156 
Q 3175 2616 2975 2859 
Q 2775 3103 2400 3103 
Q 2144 3103 1911 2972 
Q 1678 2841 1497 2591 
Q 1319 2344 1212 1994 
Q 1106 1644 1106 1300 
Q 1106 863 1306 627 
Q 1506 391 1875 391 
Q 2147 391 2380 519 
Q 2613 647 2778 891 
Q 2956 1147 3065 1494 
Q 3175 1841 3175 2156 
z
M 1394 2969 
Q 1625 3272 1939 3428 
Q 2253 3584 2638 3584 
Q 3175 3584 3472 3232 
Q 3769 2881 3769 2247 
Q 3769 1728 3584 1258 
Q 3400 788 3053 416 
Q 2822 169 2531 39 
Q 2241 -91 1919 -91 
Q 1547 -91 1294 64 
Q 1041 219 916 525 
L 556 -1331 
L -19 -1331 
L 922 3500 
L 1497 3500 
L 1394 2969 
z
" transform="scale(0.015625)"/>
      <path id="DejaVuSans-20" transform="scale(0.015625)"/>
      <path id="DejaVuSans-3d" d="M 678 2906 
L 4684 2906 
L 4684 2381 
L 678 2381 
L 678 2906 
z
M 678 1631 
L 4684 1631 
L 4684 1100 
L 678 1100 
L 678 1631 
z
" transform="scale(0.015625)"/>
      <path id="DejaVuSans-2e" d="M 684 794 
L 1344 794 
L 1344 0 
L 684 0 
L 684 794 
z
" transform="scale(0.015625)"/>
      <path id="DejaVuSans-35" d="M 691 4666 
L 3169 4666 
L 3169 4134 
L 1269 4134 
L 1269 2991 
Q 1406 3038 1543 3061 
Q 1681 3084 1819 3084 
Q 2600 3084 3056 2656 
Q 3513 2228 3513 1497 
Q 3513 744 3044 326 
Q 2575 -91 1722 -91 
Q 1428 -91 1123 -41 
Q 819 9 494 109 
L 494 744 
Q 775 591 1075 516 
Q 1375 441 1709 441 
Q 2250 441 2565 725 
Q 2881 1009 2881 1497 
Q 2881 1984 2565 2268 
Q 2250 2553 1709 2553 
Q 1456 2553 1204 2497 
Q 953 2441 691 2322 
L 691 4666 
z
" transform="scale(0.015625)"/>
      <path id="DejaVuSans-45" d="M 628 4666 
L 3578 4666 
L 3578 4134 
L 1259 4134 
L 1259 2753 
L 3481 2753 
L 3481 2222 
L 1259 2222 
L 1259 531 
L 3634 531 
L 3634 0 
L 628 0 
L 628 4666 
z
" transform="scale(0.015625)"/>
      <path id="DejaVuSans-2d" d="M 313 2009 
L 1997 2009 
L 1997 1497 
L 313 1497 
L 313 2009 
z
" transform="scale(0.015625)"/>
      <path id="DejaVuSans-6d" d="M 3328 2828 
Q 3544 3216 3844 3400 
Q 4144 3584 4550 3584 
Q 5097 3584 5394 3201 
Q 5691 2819 5691 2113 
L 5691 0 
L 5113 0 
L 5113 2094 
Q 5113 2597 4934 2840 
Q 4756 3084 4391 3084 
Q 3944 3084 3684 2787 
Q 3425 2491 3425 1978 
L 3425 0 
L 2847 0 
L 2847 2094 
Q 2847 2600 2669 2842 
Q 2491 3084 2119 3084 
Q 1678 3084 1418 2786 
Q 1159 2488 1159 1978 
L 1159 0 
L 581 0 
L 581 3500 
L 1159 3500 
L 1159 2956 
Q 1356 3278 1631 3431 
Q 1906 3584 2284 3584 
Q 2666 3584 2933 3390 
Q 3200 3197 3328 2828 
z
" transform="scale(0.015625)"/>
      <path id="DejaVuSans-41" d="M 2188 4044 
L 1331 1722 
L 3047 1722 
L 2188 4044 
z
M 1831 4666 
L 2547 4666 
L 4325 0 
L 3669 0 
L 3244 1197 
L 1141 1197 
L 716 0 
L 50 0 
L 1831 4666 
z
" transform="scale(0.015625)"/>
      <path id="DejaVuSans-2f" d="M 1625 4666 
L 2156 4666 
L 531 -594 
L 0 -594 
L 1625 4666 
z
" transform="scale(0.015625)"/>
      <path id="DejaVuSans-b2" d="M 838 2444 
L 2163 2444 
L 2163 2088 
L 294 2088 
L 294 2431 
Q 400 2528 597 2703 
Q 1672 3656 1672 3950 
Q 1672 4156 1509 4282 
Q 1347 4409 1081 4409 
Q 919 4409 728 4354 
Q 538 4300 313 4191 
L 313 4575 
Q 553 4663 761 4706 
Q 969 4750 1147 4750 
Q 1600 4750 1872 4544 
Q 2144 4338 2144 4000 
Q 2144 3566 1109 2678 
Q 934 2528 838 2444 
z
" transform="scale(0.015625)"/>
     </defs>
     <use xlink:href="#DejaVuSans-49" transform="translate(0 0.78125)"/>
     <use xlink:href="#DejaVuSans-Oblique-70" transform="translate(30.449219 -15.625) scale(0.7)"/>
     <use xlink:href="#DejaVuSans-2212" transform="translate(88.520508 -15.625) scale(0.7)"/>
     <use xlink:href="#DejaVuSans-Oblique-70" transform="translate(160.810547 -15.625) scale(0.7)"/>
     <use xlink:href="#DejaVuSans-20" transform="translate(207.978516 0.78125)"/>
     <use xlink:href="#DejaVuSans-3d" transform="translate(239.765625 0.78125)"/>
     <use xlink:href="#DejaVuSans-20" transform="translate(323.554688 0.78125)"/>
     <use xlink:href="#DejaVuSans-33" transform="translate(355.341797 0.78125)"/>
     <use xlink:href="#DejaVuSans-2e" transform="translate(418.964844 0.78125)"/>
     <use xlink:href="#DejaVuSans-35" transform="translate(450.751953 0.78125)"/>
     <use xlink:href="#DejaVuSans-32" transform="translate(514.375 0.78125)"/>
     <use xlink:href="#DejaVuSans-45" transform="translate(577.998047 0.78125)"/>
     <use xlink:href="#DejaVuSans-2d" transform="translate(641.181641 0.78125)"/>
     <use xlink:href="#DejaVuSans-30" transform="translate(677.265625 0.78125)"/>
     <use xlink:href="#DejaVuSans-33" transform="translate(740.888672 0.78125)"/>
     <use xlink:href="#DejaVuSans-20" transform="translate(804.511719 0.78125)"/>
     <use xlink:href="#DejaVuSans-6d" transform="translate(836.298828 0.78125)"/>
     <use xlink:href="#DejaVuSans-41" transform="translate(933.710938 0.78125)"/>
     <use xlink:href="#DejaVuSans-2f" transform="translate(1002.119141 0.78125)"/>
     <use xlink:href="#DejaVuSans-6d" transform="translate(1035.810547 0.78125)"/>
     <use xlink:href="#DejaVuSans-b2" transform="translate(1133.222656 0.78125)"/>
    </g>
   </g>
   <g id="text_16">
    <g id="patch_8">
     <path d="M 476.578846 296.055237 
L 593.678846 296.055237 
Q 596.678846 296.055237 596.678846 293.055237 
L 596.678846 282.455237 
Q 596.678846 279.455237 593.678846 279.455237 
L 476.578846 279.455237 
Q 473.578846 279.455237 473.578846 282.455237 
L 473.578846 293.055237 
Q 473.578846 296.055237 476.578846 296.055237 
z
" style="fill: #ffffff; opacity: 0.85; stroke: #d94452; stroke-linejoin: miter"/>
    </g>
    <!-- I$_{p-p}$ = 2.87E-03 mA/m² -->
    <g style="fill: #d94452" transform="translate(476.578846 289.955237) scale(0.1 -0.1)">
     <defs>
      <path id="DejaVuSans-37" d="M 525 4666 
L 3525 4666 
L 3525 4397 
L 1831 0 
L 1172 0 
L 2766 4134 
L 525 4134 
L 525 4666 
z
" transform="scale(0.015625)"/>
     </defs>
     <use xlink:href="#DejaVuSans-49" transform="translate(0 0.78125)"/>
     <use xlink:href="#DejaVuSans-Oblique-70" transform="translate(30.449219 -15.625) scale(0.7)"/>
     <use xlink:href="#DejaVuSans-2212" transform="translate(88.520508 -15.625) scale(0.7)"/>
     <use xlink:href="#DejaVuSans-Oblique-70" transform="translate(160.810547 -15.625) scale(0.7)"/>
     <use xlink:href="#DejaVuSans-20" transform="translate(207.978516 0.78125)"/>
     <use xlink:href="#DejaVuSans-3d" transform="translate(239.765625 0.78125)"/>
     <use xlink:href="#DejaVuSans-20" transform="translate(323.554688 0.78125)"/>
     <use xlink:href="#DejaVuSans-32" transform="translate(355.341797 0.78125)"/>
     <use xlink:href="#DejaVuSans-2e" transform="translate(418.964844 0.78125)"/>
     <use xlink:href="#DejaVuSans-38" transform="translate(448.126953 0.78125)"/>
     <use xlink:href="#DejaVuSans-37" transform="translate(511.75 0.78125)"/>
     <use xlink:href="#DejaVuSans-45" transform="translate(575.373047 0.78125)"/>
     <use xlink:href="#DejaVuSans-2d" transform="translate(638.556641 0.78125)"/>
     <use xlink:href="#DejaVuSans-30" transform="translate(674.640625 0.78125)"/>
     <use xlink:href="#DejaVuSans-33" transform="translate(738.263672 0.78125)"/>
     <use xlink:href="#DejaVuSans-20" transform="translate(801.886719 0.78125)"/>
     <use xlink:href="#DejaVuSans-6d" transform="translate(833.673828 0.78125)"/>
     <use xlink:href="#DejaVuSans-41" transform="translate(931.085938 0.78125)"/>
     <use xlink:href="#DejaVuSans-2f" transform="translate(999.494141 0.78125)"/>
     <use xlink:href="#DejaVuSans-6d" transform="translate(1033.185547 0.78125)"/>
     <use xlink:href="#DejaVuSans-b2" transform="translate(1130.597656 0.78125)"/>
    </g>
   </g>
   <g id="text_17">
    <g id="patch_9">
     <path d="M 620.394951 50.0672 
L 678.011357 50.0672 
Q 683.211357 50.0672 683.211357 44.8672 
L 683.211357 32.285638 
Q 683.211357 27.085638 678.011357 27.085638 
L 620.394951 27.085638 
Q 615.194951 27.085638 615.194951 32.285638 
L 615.194951 44.8672 
Q 615.194951 50.0672 620.394951 50.0672 
z
" style="fill: #ffffff; opacity: 0.9; stroke: #f0ad4e; stroke-width: 1.5; stroke-linejoin: miter"/>
    </g>
    <!-- f = 5 Hz -->
    <g style="fill: #f0ad4e" transform="translate(620.394951 42.163606) scale(0.13 -0.13)">
     <defs>
      <path id="DejaVuSans-Bold-66" d="M 2841 4863 
L 2841 4128 
L 2222 4128 
Q 1984 4128 1890 4042 
Q 1797 3956 1797 3744 
L 1797 3500 
L 2753 3500 
L 2753 2700 
L 1797 2700 
L 1797 0 
L 678 0 
L 678 2700 
L 122 2700 
L 122 3500 
L 678 3500 
L 678 3744 
Q 678 4316 997 4589 
Q 1316 4863 1984 4863 
L 2841 4863 
z
" transform="scale(0.015625)"/>
      <path id="DejaVuSans-Bold-3d" d="M 678 3084 
L 4684 3084 
L 4684 2350 
L 678 2350 
L 678 3084 
z
M 678 1663 
L 4684 1663 
L 4684 922 
L 678 922 
L 678 1663 
z
" transform="scale(0.015625)"/>
      <path id="DejaVuSans-Bold-35" d="M 678 4666 
L 3669 4666 
L 3669 3781 
L 1638 3781 
L 1638 3059 
Q 1775 3097 1914 3117 
Q 2053 3138 2203 3138 
Q 3056 3138 3531 2711 
Q 4006 2284 4006 1522 
Q 4006 766 3489 337 
Q 2972 -91 2053 -91 
Q 1656 -91 1267 -14 
Q 878 63 494 219 
L 494 1166 
Q 875 947 1217 837 
Q 1559 728 1863 728 
Q 2300 728 2551 942 
Q 2803 1156 2803 1522 
Q 2803 1891 2551 2103 
Q 2300 2316 1863 2316 
Q 1603 2316 1309 2248 
Q 1016 2181 678 2041 
L 678 4666 
z
" transform="scale(0.015625)"/>
      <path id="DejaVuSans-Bold-48" d="M 588 4666 
L 1791 4666 
L 1791 2888 
L 3566 2888 
L 3566 4666 
L 4769 4666 
L 4769 0 
L 3566 0 
L 3566 1978 
L 1791 1978 
L 1791 0 
L 588 0 
L 588 4666 
z
" transform="scale(0.015625)"/>
      <path id="DejaVuSans-Bold-7a" d="M 366 3500 
L 3419 3500 
L 3419 2719 
L 1575 800 
L 3419 800 
L 3419 0 
L 288 0 
L 288 781 
L 2131 2700 
L 366 2700 
L 366 3500 
z
" transform="scale(0.015625)"/>
     </defs>
     <use xlink:href="#DejaVuSans-Bold-66"/>
     <use xlink:href="#DejaVuSans-Bold-20" transform="translate(43.505859 0)"/>
     <use xlink:href="#DejaVuSans-Bold-3d" transform="translate(78.320312 0)"/>
     <use xlink:href="#DejaVuSans-Bold-20" transform="translate(162.109375 0)"/>
     <use xlink:href="#DejaVuSans-Bold-35" transform="translate(196.923828 0)"/>
     <use xlink:href="#DejaVuSans-Bold-20" transform="translate(266.503906 0)"/>
     <use xlink:href="#DejaVuSans-Bold-48" transform="translate(301.318359 0)"/>
     <use xlink:href="#DejaVuSans-Bold-7a" transform="translate(385.009766 0)"/>
    </g>
   </g>
   <g id="text_18">
    <!-- Without MIC -->
    <g style="fill: #333333" transform="translate(161.663834 42.92345) scale(0.14 -0.14)">
     <defs>
      <path id="DejaVuSans-Bold-57" d="M 191 4666 
L 1344 4666 
L 2150 1275 
L 2950 4666 
L 4109 4666 
L 4909 1275 
L 5716 4666 
L 6859 4666 
L 5759 0 
L 4372 0 
L 3525 3547 
L 2688 0 
L 1300 0 
L 191 4666 
z
" transform="scale(0.015625)"/>
      <path id="DejaVuSans-Bold-74" d="M 1759 4494 
L 1759 3500 
L 2913 3500 
L 2913 2700 
L 1759 2700 
L 1759 1216 
Q 1759 972 1856 886 
Q 1953 800 2241 800 
L 2816 800 
L 2816 0 
L 1856 0 
Q 1194 0 917 276 
Q 641 553 641 1216 
L 641 2700 
L 84 2700 
L 84 3500 
L 641 3500 
L 641 4494 
L 1759 4494 
z
" transform="scale(0.015625)"/>
      <path id="DejaVuSans-Bold-68" d="M 4056 2131 
L 4056 0 
L 2931 0 
L 2931 347 
L 2931 1625 
Q 2931 2084 2911 2256 
Q 2891 2428 2841 2509 
Q 2775 2619 2662 2680 
Q 2550 2741 2406 2741 
Q 2056 2741 1856 2470 
Q 1656 2200 1656 1722 
L 1656 0 
L 538 0 
L 538 4863 
L 1656 4863 
L 1656 2988 
Q 1909 3294 2193 3439 
Q 2478 3584 2822 3584 
Q 3428 3584 3742 3212 
Q 4056 2841 4056 2131 
z
" transform="scale(0.015625)"/>
      <path id="DejaVuSans-Bold-6f" d="M 2203 2784 
Q 1831 2784 1636 2517 
Q 1441 2250 1441 1747 
Q 1441 1244 1636 976 
Q 1831 709 2203 709 
Q 2569 709 2762 976 
Q 2956 1244 2956 1747 
Q 2956 2250 2762 2517 
Q 2569 2784 2203 2784 
z
M 2203 3584 
Q 3106 3584 3614 3096 
Q 4122 2609 4122 1747 
Q 4122 884 3614 396 
Q 3106 -91 2203 -91 
Q 1297 -91 786 396 
Q 275 884 275 1747 
Q 275 2609 786 3096 
Q 1297 3584 2203 3584 
z
" transform="scale(0.015625)"/>
      <path id="DejaVuSans-Bold-75" d="M 500 1363 
L 500 3500 
L 1625 3500 
L 1625 3150 
Q 1625 2866 1622 2436 
Q 1619 2006 1619 1863 
Q 1619 1441 1641 1255 
Q 1663 1069 1716 984 
Q 1784 875 1895 815 
Q 2006 756 2150 756 
Q 2500 756 2700 1025 
Q 2900 1294 2900 1772 
L 2900 3500 
L 4019 3500 
L 4019 0 
L 2900 0 
L 2900 506 
Q 2647 200 2364 54 
Q 2081 -91 1741 -91 
Q 1134 -91 817 281 
Q 500 653 500 1363 
z
" transform="scale(0.015625)"/>
      <path id="DejaVuSans-Bold-4d" d="M 588 4666 
L 2119 4666 
L 3181 2169 
L 4250 4666 
L 5778 4666 
L 5778 0 
L 4641 0 
L 4641 3413 
L 3566 897 
L 2803 897 
L 1728 3413 
L 1728 0 
L 588 0 
L 588 4666 
z
" transform="scale(0.015625)"/>
      <path id="DejaVuSans-Bold-43" d="M 4288 256 
Q 3956 84 3597 -3 
Q 3238 -91 2847 -91 
Q 1681 -91 1000 561 
Q 319 1213 319 2328 
Q 319 3447 1000 4098 
Q 1681 4750 2847 4750 
Q 3238 4750 3597 4662 
Q 3956 4575 4288 4403 
L 4288 3438 
Q 3953 3666 3628 3772 
Q 3303 3878 2944 3878 
Q 2300 3878 1931 3465 
Q 1563 3053 1563 2328 
Q 1563 1606 1931 1193 
Q 2300 781 2944 781 
Q 3303 781 3628 887 
Q 3953 994 4288 1222 
L 4288 256 
z
" transform="scale(0.015625)"/>
     </defs>
     <use xlink:href="#DejaVuSans-Bold-57"/>
     <use xlink:href="#DejaVuSans-Bold-69" transform="translate(110.302734 0)"/>
     <use xlink:href="#DejaVuSans-Bold-74" transform="translate(144.580078 0)"/>
     <use xlink:href="#DejaVuSans-Bold-68" transform="translate(192.382812 0)"/>
     <use xlink:href="#DejaVuSans-Bold-6f" transform="translate(263.574219 0)"/>
     <use xlink:href="#DejaVuSans-Bold-75" transform="translate(332.275391 0)"/>
     <use xlink:href="#DejaVuSans-Bold-74" transform="translate(403.466797 0)"/>
     <use xlink:href="#DejaVuSans-Bold-20" transform="translate(451.269531 0)"/>
     <use xlink:href="#DejaVuSans-Bold-4d" transform="translate(486.083984 0)"/>
     <use xlink:href="#DejaVuSans-Bold-49" transform="translate(585.595703 0)"/>
     <use xlink:href="#DejaVuSans-Bold-43" transform="translate(622.802734 0)"/>
    </g>
   </g>
   <g id="text_19">
    <!-- With MIC -->
    <g style="fill: #d94452" transform="translate(499.534939 42.92345) scale(0.14 -0.14)">
     <use xlink:href="#DejaVuSans-Bold-57"/>
     <use xlink:href="#DejaVuSans-Bold-69" transform="translate(110.302734 0)"/>
     <use xlink:href="#DejaVuSans-Bold-74" transform="translate(144.580078 0)"/>
     <use xlink:href="#DejaVuSans-Bold-68" transform="translate(192.382812 0)"/>
     <use xlink:href="#DejaVuSans-Bold-20" transform="translate(263.574219 0)"/>
     <use xlink:href="#DejaVuSans-Bold-4d" transform="translate(298.388672 0)"/>
     <use xlink:href="#DejaVuSans-Bold-49" transform="translate(397.900391 0)"/>
     <use xlink:href="#DejaVuSans-Bold-43" transform="translate(435.107422 0)"/>
    </g>
   </g>
  </g>
 </g>
 <defs>
  <clipPath id="p88bece4793">
   <rect x="48.029375" y="17.798437" width="649.465961" height="289.744"/>
  </clipPath>
 </defs>
</svg>
