<?xml version="1.0" encoding="utf-8" standalone="no"?>
<!DOCTYPE svg PUBLIC "-//W3C//DTD SVG 1.1//EN"
  "http://www.w3.org/Graphics/SVG/1.1/DTD/svg11.dtd">
<svg xmlns:xlink="http://www.w3.org/1999/xlink" width="999.674711pt" height="352.192813pt" viewBox="0 0 999.674711 352.192813" xmlns="http://www.w3.org/2000/svg" version="1.1">
 <metadata>
  <rdf:RDF xmlns:dc="http://purl.org/dc/elements/1.1/" xmlns:cc="http://creativecommons.org/ns#" xmlns:rdf="http://www.w3.org/1999/02/22-rdf-syntax-ns#">
   <cc:Work>
    <dc:type rdf:resource="http://purl.org/dc/dcmitype/StillImage"/>
    <dc:date>2026-04-26T16:29:09.358149</dc:date>
    <dc:format>image/svg+xml</dc:format>
    <dc:creator>
     <cc:Agent>
      <dc:title>Matplotlib v3.10.8, https://matplotlib.org/</dc:title>
     </cc:Agent>
    </dc:creator>
   </cc:Work>
  </rdf:RDF>
 </metadata>
 <defs>
  <style type="text/css">*{stroke-linejoin: round; stroke-linecap: butt}</style>
 </defs>
 <g id="figure_1">
  <g id="patch_1">
   <path d="M 0 352.192813 
L 999.674711 352.192813 
L 999.674711 0 
L 0 0 
z
" style="fill: #ffffff"/>
  </g>
  <g id="axes_1">
   <g id="patch_2">
    <path d="M 48.029375 309.7975 
L 988.975336 309.7975 
L 988.975336 34.3575 
L 48.029375 34.3575 
z
" style="fill: #ffffff"/>
   </g>
   <g id="patch_3">
    <path d="M 48.029375 309.7975 
L 361.678029 309.7975 
L 361.678029 34.3575 
L 48.029375 34.3575 
z
" clip-path="url(#p23f2d2f46b)" style="fill: #4a90d9; opacity: 0.15; stroke: #4a90d9; stroke-linejoin: miter"/>
   </g>
   <g id="patch_4">
    <path d="M 361.678029 309.7975 
L 675.326682 309.7975 
L 675.326682 34.3575 
L 361.678029 34.3575 
z
" clip-path="url(#p23f2d2f46b)" style="fill: #5cb85c; opacity: 0.15; stroke: #5cb85c; stroke-linejoin: miter"/>
   </g>
   <g id="patch_5">
    <path d="M 675.326682 309.7975 
L 988.975336 309.7975 
L 988.975336 34.3575 
L 675.326682 34.3575 
z
" clip-path="url(#p23f2d2f46b)" style="fill: #f0ad4e; opacity: 0.15; stroke: #f0ad4e; stroke-linejoin: miter"/>
   </g>
   <g id="matplotlib.axis_1">
    <g id="xtick_1">
     <g id="line2d_1">
      <defs>
       <path id="ma28e3d5fa7" d="M 0 0 
L 0 3.5 
" style="stroke: #000000; stroke-width: 0.8"/>
      </defs>
      <g>
       <use xlink:href="#ma28e3d5fa7" x="48.029375" y="309.7975" style="stroke: #000000; stroke-width: 0.8"/>
      </g>
     </g>
     <g id="text_1">
      <!-- 0 -->
      <g transform="translate(44.53 325.155781) scale(0.11 -0.11)">
       <defs>
        <path id="DejaVuSans-30" d="M 2034 4250 
Q 1547 4250 1301 3770 
Q 1056 3291 1056 2328 
Q 1056 1369 1301 889 
Q 1547 409 2034 409 
Q 2525 409 2770 889 
Q 3016 1369 3016 2328 
Q 3016 3291 2770 3770 
Q 2525 4250 2034 4250 
z
M 2034 4750 
Q 2819 4750 3233 4129 
Q 3647 3509 3647 2328 
Q 3647 1150 3233 529 
Q 2819 -91 2034 -91 
Q 1250 -91 836 529 
Q 422 1150 422 2328 
Q 422 3509 836 4129 
Q 1250 4750 2034 4750 
z
" transform="scale(0.015625)"/>
       </defs>
       <use xlink:href="#DejaVuSans-30"/>
      </g>
     </g>
    </g>
    <g id="xtick_2">
     <g id="line2d_2">
      <g>
       <use xlink:href="#ma28e3d5fa7" x="204.853702" y="309.7975" style="stroke: #000000; stroke-width: 0.8"/>
      </g>
     </g>
     <g id="text_2">
      <!-- 1 -->
      <g transform="translate(201.354327 325.155781) scale(0.11 -0.11)">
       <defs>
        <path id="DejaVuSans-31" d="M 794 531 
L 1825 531 
L 1825 4091 
L 703 3866 
L 703 4441 
L 1819 4666 
L 2450 4666 
L 2450 531 
L 3481 531 
L 3481 0 
L 794 0 
L 794 531 
z
" transform="scale(0.015625)"/>
       </defs>
       <use xlink:href="#DejaVuSans-31"/>
      </g>
     </g>
    </g>
    <g id="xtick_3">
     <g id="line2d_3">
      <g>
       <use xlink:href="#ma28e3d5fa7" x="361.678029" y="309.7975" style="stroke: #000000; stroke-width: 0.8"/>
      </g>
     </g>
     <g id="text_3">
      <!-- 2 -->
      <g transform="translate(358.178654 325.155781) scale(0.11 -0.11)">
       <defs>
        <path id="DejaVuSans-32" d="M 1228 531 
L 3431 531 
L 3431 0 
L 469 0 
L 469 531 
Q 828 903 1448 1529 
Q 2069 2156 2228 2338 
Q 2531 2678 2651 2914 
Q 2772 3150 2772 3378 
Q 2772 3750 2511 3984 
Q 2250 4219 1831 4219 
Q 1534 4219 1204 4116 
Q 875 4013 500 3803 
L 500 4441 
Q 881 4594 1212 4672 
Q 1544 4750 1819 4750 
Q 2544 4750 2975 4387 
Q 3406 4025 3406 3419 
Q 3406 3131 3298 2873 
Q 3191 2616 2906 2266 
Q 2828 2175 2409 1742 
Q 1991 1309 1228 531 
z
" transform="scale(0.015625)"/>
       </defs>
       <use xlink:href="#DejaVuSans-32"/>
      </g>
     </g>
    </g>
    <g id="xtick_4">
     <g id="line2d_4">
      <g>
       <use xlink:href="#ma28e3d5fa7" x="518.502355" y="309.7975" style="stroke: #000000; stroke-width: 0.8"/>
      </g>
     </g>
     <g id="text_4">
      <!-- 3 -->
      <g transform="translate(515.00298 325.155781) scale(0.11 -0.11)">
       <defs>
        <path id="DejaVuSans-33" d="M 2597 2516 
Q 3050 2419 3304 2112 
Q 3559 1806 3559 1356 
Q 3559 666 3084 287 
Q 2609 -91 1734 -91 
Q 1441 -91 1130 -33 
Q 819 25 488 141 
L 488 750 
Q 750 597 1062 519 
Q 1375 441 1716 441 
Q 2309 441 2620 675 
Q 2931 909 2931 1356 
Q 2931 1769 2642 2001 
Q 2353 2234 1838 2234 
L 1294 2234 
L 1294 2753 
L 1863 2753 
Q 2328 2753 2575 2939 
Q 2822 3125 2822 3475 
Q 2822 3834 2567 4026 
Q 2313 4219 1838 4219 
Q 1578 4219 1281 4162 
Q 984 4106 628 3988 
L 628 4550 
Q 988 4650 1302 4700 
Q 1616 4750 1894 4750 
Q 2613 4750 3031 4423 
Q 3450 4097 3450 3541 
Q 3450 3153 3228 2886 
Q 3006 2619 2597 2516 
z
" transform="scale(0.015625)"/>
       </defs>
       <use xlink:href="#DejaVuSans-33"/>
      </g>
     </g>
    </g>
    <g id="xtick_5">
     <g id="line2d_5">
      <g>
       <use xlink:href="#ma28e3d5fa7" x="675.326682" y="309.7975" style="stroke: #000000; stroke-width: 0.8"/>
      </g>
     </g>
     <g id="text_5">
      <!-- 4 -->
      <g transform="translate(671.827307 325.155781) scale(0.11 -0.11)">
       <defs>
        <path id="DejaVuSans-34" d="M 2419 4116 
L 825 1625 
L 2419 1625 
L 2419 4116 
z
M 2253 4666 
L 3047 4666 
L 3047 1625 
L 3713 1625 
L 3713 1100 
L 3047 1100 
L 3047 0 
L 2419 0 
L 2419 1100 
L 313 1100 
L 313 1709 
L 2253 4666 
z
" transform="scale(0.015625)"/>
       </defs>
       <use xlink:href="#DejaVuSans-34"/>
      </g>
     </g>
    </g>
    <g id="xtick_6">
     <g id="line2d_6">
      <g>
       <use xlink:href="#ma28e3d5fa7" x="832.151009" y="309.7975" style="stroke: #000000; stroke-width: 0.8"/>
      </g>
     </g>
     <g id="text_6">
      <!-- 5 -->
      <g transform="translate(828.651634 325.155781) scale(0.11 -0.11)">
       <defs>
        <path id="DejaVuSans-35" d="M 691 4666 
L 3169 4666 
L 3169 4134 
L 1269 4134 
L 1269 2991 
Q 1406 3038 1543 3061 
Q 1681 3084 1819 3084 
Q 2600 3084 3056 2656 
Q 3513 2228 3513 1497 
Q 3513 744 3044 326 
Q 2575 -91 1722 -91 
Q 1428 -91 1123 -41 
Q 819 9 494 109 
L 494 744 
Q 775 591 1075 516 
Q 1375 441 1709 441 
Q 2250 441 2565 725 
Q 2881 1009 2881 1497 
Q 2881 1984 2565 2268 
Q 2250 2553 1709 2553 
Q 1456 2553 1204 2497 
Q 953 2441 691 2322 
L 691 4666 
z
" transform="scale(0.015625)"/>
       </defs>
       <use xlink:href="#DejaVuSans-35"/>
      </g>
     </g>
    </g>
    <g id="xtick_7">
     <g id="line2d_7">
      <g>
       <use xlink:href="#ma28e3d5fa7" x="988.975336" y="309.7975" style="stroke: #000000; stroke-width: 0.8"/>
      </g>
     </g>
     <g id="text_7">
      <!-- 6 -->
      <g transform="translate(985.475961 325.155781) scale(0.11 -0.11)">
       <defs>
        <path id="DejaVuSans-36" d="M 2113 2584 
Q 1688 2584 1439 2293 
Q 1191 2003 1191 1497 
Q 1191 994 1439 701 
Q 1688 409 2113 409 
Q 2538 409 2786 701 
Q 3034 994 3034 1497 
Q 3034 2003 2786 2293 
Q 2538 2584 2113 2584 
z
M 3366 4563 
L 3366 3988 
Q 3128 4100 2886 4159 
Q 2644 4219 2406 4219 
Q 1781 4219 1451 3797 
Q 1122 3375 1075 2522 
Q 1259 2794 1537 2939 
Q 1816 3084 2150 3084 
Q 2853 3084 3261 2657 
Q 3669 2231 3669 1497 
Q 3669 778 3244 343 
Q 2819 -91 2113 -91 
Q 1303 -91 875 529 
Q 447 1150 447 2328 
Q 447 3434 972 4092 
Q 1497 4750 2381 4750 
Q 2619 4750 2861 4703 
Q 3103 4656 3366 4563 
z
" transform="scale(0.015625)"/>
       </defs>
       <use xlink:href="#DejaVuSans-36"/>
      </g>
     </g>
    </g>
    <g id="text_8">
     <!-- Time (s) -->
     <g transform="translate(486.283762 342.08125) scale(0.14 -0.14)">
      <defs>
       <path id="DejaVuSans-Bold-54" d="M 31 4666 
L 4331 4666 
L 4331 3756 
L 2784 3756 
L 2784 0 
L 1581 0 
L 1581 3756 
L 31 3756 
L 31 4666 
z
" transform="scale(0.015625)"/>
       <path id="DejaVuSans-Bold-69" d="M 538 3500 
L 1656 3500 
L 1656 0 
L 538 0 
L 538 3500 
z
M 538 4863 
L 1656 4863 
L 1656 3950 
L 538 3950 
L 538 4863 
z
" transform="scale(0.015625)"/>
       <path id="DejaVuSans-Bold-6d" d="M 3781 2919 
Q 3994 3244 4286 3414 
Q 4578 3584 4928 3584 
Q 5531 3584 5847 3212 
Q 6163 2841 6163 2131 
L 6163 0 
L 5038 0 
L 5038 1825 
Q 5041 1866 5042 1909 
Q 5044 1953 5044 2034 
Q 5044 2406 4934 2573 
Q 4825 2741 4581 2741 
Q 4263 2741 4089 2478 
Q 3916 2216 3909 1719 
L 3909 0 
L 2784 0 
L 2784 1825 
Q 2784 2406 2684 2573 
Q 2584 2741 2328 2741 
Q 2006 2741 1831 2477 
Q 1656 2213 1656 1722 
L 1656 0 
L 531 0 
L 531 3500 
L 1656 3500 
L 1656 2988 
Q 1863 3284 2130 3434 
Q 2397 3584 2719 3584 
Q 3081 3584 3359 3409 
Q 3638 3234 3781 2919 
z
" transform="scale(0.015625)"/>
       <path id="DejaVuSans-Bold-65" d="M 4031 1759 
L 4031 1441 
L 1416 1441 
Q 1456 1047 1700 850 
Q 1944 653 2381 653 
Q 2734 653 3104 758 
Q 3475 863 3866 1075 
L 3866 213 
Q 3469 63 3072 -14 
Q 2675 -91 2278 -91 
Q 1328 -91 801 392 
Q 275 875 275 1747 
Q 275 2603 792 3093 
Q 1309 3584 2216 3584 
Q 3041 3584 3536 3087 
Q 4031 2591 4031 1759 
z
M 2881 2131 
Q 2881 2450 2695 2645 
Q 2509 2841 2209 2841 
Q 1884 2841 1681 2658 
Q 1478 2475 1428 2131 
L 2881 2131 
z
" transform="scale(0.015625)"/>
       <path id="DejaVuSans-Bold-20" transform="scale(0.015625)"/>
       <path id="DejaVuSans-Bold-28" d="M 2413 -844 
L 1484 -844 
Q 1006 -72 778 623 
Q 550 1319 550 2003 
Q 550 2688 779 3389 
Q 1009 4091 1484 4856 
L 2413 4856 
Q 2013 4116 1813 3408 
Q 1613 2700 1613 2009 
Q 1613 1319 1811 609 
Q 2009 -100 2413 -844 
z
" transform="scale(0.015625)"/>
       <path id="DejaVuSans-Bold-73" d="M 3272 3391 
L 3272 2541 
Q 2913 2691 2578 2766 
Q 2244 2841 1947 2841 
Q 1628 2841 1473 2761 
Q 1319 2681 1319 2516 
Q 1319 2381 1436 2309 
Q 1553 2238 1856 2203 
L 2053 2175 
Q 2913 2066 3209 1816 
Q 3506 1566 3506 1031 
Q 3506 472 3093 190 
Q 2681 -91 1863 -91 
Q 1516 -91 1145 -36 
Q 775 19 384 128 
L 384 978 
Q 719 816 1070 734 
Q 1422 653 1784 653 
Q 2113 653 2278 743 
Q 2444 834 2444 1013 
Q 2444 1163 2330 1236 
Q 2216 1309 1875 1350 
L 1678 1375 
Q 931 1469 631 1722 
Q 331 1975 331 2491 
Q 331 3047 712 3315 
Q 1094 3584 1881 3584 
Q 2191 3584 2531 3537 
Q 2872 3491 3272 3391 
z
" transform="scale(0.015625)"/>
       <path id="DejaVuSans-Bold-29" d="M 513 -844 
Q 913 -100 1113 609 
Q 1313 1319 1313 2009 
Q 1313 2700 1113 3408 
Q 913 4116 513 4856 
L 1441 4856 
Q 1916 4091 2145 3389 
Q 2375 2688 2375 2003 
Q 2375 1319 2147 623 
Q 1919 -72 1441 -844 
L 513 -844 
z
" transform="scale(0.015625)"/>
      </defs>
      <use xlink:href="#DejaVuSans-Bold-54"/>
      <use xlink:href="#DejaVuSans-Bold-69" transform="translate(68.212891 0)"/>
      <use xlink:href="#DejaVuSans-Bold-6d" transform="translate(102.490234 0)"/>
      <use xlink:href="#DejaVuSans-Bold-65" transform="translate(206.689453 0)"/>
      <use xlink:href="#DejaVuSans-Bold-20" transform="translate(274.511719 0)"/>
      <use xlink:href="#DejaVuSans-Bold-28" transform="translate(309.326172 0)"/>
      <use xlink:href="#DejaVuSans-Bold-73" transform="translate(355.029297 0)"/>
      <use xlink:href="#DejaVuSans-Bold-29" transform="translate(414.550781 0)"/>
     </g>
    </g>
   </g>
   <g id="matplotlib.axis_2">
    <g id="ytick_1">
     <g id="line2d_8">
      <defs>
       <path id="m373e687202" d="M 0 0 
L -3.5 0 
" style="stroke: #000000; stroke-width: 0.8"/>
      </defs>
      <g>
       <use xlink:href="#m373e687202" x="48.029375" y="264.054107" style="stroke: #000000; stroke-width: 0.8"/>
      </g>
     </g>
     <g id="text_9">
      <!-- $\mathdefault{−2}$ -->
      <g transform="translate(24.749375 268.233247) scale(0.11 -0.11)">
       <defs>
        <path id="DejaVuSans-2212" d="M 678 2272 
L 4684 2272 
L 4684 1741 
L 678 1741 
L 678 2272 
z
" transform="scale(0.015625)"/>
       </defs>
       <use xlink:href="#DejaVuSans-2212" transform="translate(0 0.78125)"/>
       <use xlink:href="#DejaVuSans-32" transform="translate(83.789062 0.78125)"/>
      </g>
     </g>
    </g>
    <g id="ytick_2">
     <g id="line2d_9">
      <g>
       <use xlink:href="#m373e687202" x="48.029375" y="218.065803" style="stroke: #000000; stroke-width: 0.8"/>
      </g>
     </g>
     <g id="text_10">
      <!-- $\mathdefault{−1}$ -->
      <g transform="translate(24.749375 222.244944) scale(0.11 -0.11)">
       <use xlink:href="#DejaVuSans-2212" transform="translate(0 0.09375)"/>
       <use xlink:href="#DejaVuSans-31" transform="translate(83.789062 0.09375)"/>
      </g>
     </g>
    </g>
    <g id="ytick_3">
     <g id="line2d_10">
      <g>
       <use xlink:href="#m373e687202" x="48.029375" y="172.0775" style="stroke: #000000; stroke-width: 0.8"/>
      </g>
     </g>
     <g id="text_11">
      <!-- $\mathdefault{0}$ -->
      <g transform="translate(33.989375 176.256641) scale(0.11 -0.11)">
       <use xlink:href="#DejaVuSans-30" transform="translate(0 0.78125)"/>
      </g>
     </g>
    </g>
    <g id="ytick_4">
     <g id="line2d_11">
      <g>
       <use xlink:href="#m373e687202" x="48.029375" y="126.089197" style="stroke: #000000; stroke-width: 0.8"/>
      </g>
     </g>
     <g id="text_12">
      <!-- $\mathdefault{1}$ -->
      <g transform="translate(33.989375 130.268337) scale(0.11 -0.11)">
       <use xlink:href="#DejaVuSans-31" transform="translate(0 0.09375)"/>
      </g>
     </g>
    </g>
    <g id="ytick_5">
     <g id="line2d_12">
      <g>
       <use xlink:href="#m373e687202" x="48.029375" y="80.100893" style="stroke: #000000; stroke-width: 0.8"/>
      </g>
     </g>
     <g id="text_13">
      <!-- $\mathdefault{2}$ -->
      <g transform="translate(33.989375 84.280034) scale(0.11 -0.11)">
       <use xlink:href="#DejaVuSans-32" transform="translate(0 0.78125)"/>
      </g>
     </g>
    </g>
    <g id="text_14">
     <!-- I$_{sc}$ (mA/m²) -->
     <g transform="translate(17.837812 214.7075) rotate(-90) scale(0.14 -0.14)">
      <defs>
       <path id="DejaVuSans-Bold-49" d="M 588 4666 
L 1791 4666 
L 1791 0 
L 588 0 
L 588 4666 
z
" transform="scale(0.015625)"/>
       <path id="DejaVuSans-Oblique-73" d="M 3200 3397 
L 3091 2853 
Q 2863 2978 2609 3040 
Q 2356 3103 2088 3103 
Q 1634 3103 1373 2948 
Q 1113 2794 1113 2528 
Q 1113 2219 1719 2053 
Q 1766 2041 1788 2034 
L 1972 1978 
Q 2547 1819 2739 1644 
Q 2931 1469 2931 1166 
Q 2931 609 2489 259 
Q 2047 -91 1331 -91 
Q 1053 -91 747 -37 
Q 441 16 72 128 
L 184 722 
Q 500 559 806 475 
Q 1113 391 1394 391 
Q 1816 391 2080 572 
Q 2344 753 2344 1031 
Q 2344 1331 1650 1516 
L 1591 1531 
L 1394 1581 
Q 956 1697 753 1886 
Q 550 2075 550 2369 
Q 550 2928 970 3256 
Q 1391 3584 2113 3584 
Q 2397 3584 2667 3537 
Q 2938 3491 3200 3397 
z
" transform="scale(0.015625)"/>
       <path id="DejaVuSans-Oblique-63" d="M 3431 3366 
L 3316 2797 
Q 3109 2947 2876 3022 
Q 2644 3097 2394 3097 
Q 2119 3097 1870 3000 
Q 1622 2903 1453 2725 
Q 1184 2453 1037 2087 
Q 891 1722 891 1331 
Q 891 859 1127 628 
Q 1363 397 1844 397 
Q 2081 397 2348 469 
Q 2616 541 2906 684 
L 2797 116 
Q 2547 13 2283 -39 
Q 2019 -91 1741 -91 
Q 1044 -91 669 257 
Q 294 606 294 1253 
Q 294 1797 489 2255 
Q 684 2713 1069 3078 
Q 1331 3328 1684 3456 
Q 2038 3584 2456 3584 
Q 2700 3584 2940 3529 
Q 3181 3475 3431 3366 
z
" transform="scale(0.015625)"/>
       <path id="DejaVuSans-Bold-41" d="M 3419 850 
L 1538 850 
L 1241 0 
L 31 0 
L 1759 4666 
L 3194 4666 
L 4922 0 
L 3713 0 
L 3419 850 
z
M 1838 1716 
L 3116 1716 
L 2478 3572 
L 1838 1716 
z
" transform="scale(0.015625)"/>
       <path id="DejaVuSans-Bold-2f" d="M 1644 4666 
L 2338 4666 
L 691 -594 
L 0 -594 
L 1644 4666 
z
" transform="scale(0.015625)"/>
       <path id="DejaVuSans-Bold-b2" d="M 1288 2613 
L 2444 2613 
L 2444 2088 
L 341 2088 
L 341 2566 
L 1319 3397 
Q 1509 3563 1590 3688 
Q 1672 3813 1672 3938 
Q 1672 4094 1558 4191 
Q 1444 4288 1259 4288 
Q 1066 4288 844 4217 
Q 622 4147 359 4000 
L 359 4581 
Q 631 4666 886 4708 
Q 1141 4750 1375 4750 
Q 1869 4750 2150 4548 
Q 2431 4347 2431 4000 
Q 2431 3775 2320 3586 
Q 2209 3397 1894 3128 
L 1288 2613 
z
" transform="scale(0.015625)"/>
      </defs>
      <use xlink:href="#DejaVuSans-Bold-49" transform="translate(0 0.125)"/>
      <use xlink:href="#DejaVuSans-Oblique-73" transform="translate(38.164062 -16.28125) scale(0.7)"/>
      <use xlink:href="#DejaVuSans-Oblique-63" transform="translate(74.633789 -16.28125) scale(0.7)"/>
      <use xlink:href="#DejaVuSans-Bold-20" transform="translate(115.854492 0.125)"/>
      <use xlink:href="#DejaVuSans-Bold-28" transform="translate(150.668945 0.125)"/>
      <use xlink:href="#DejaVuSans-Bold-6d" transform="translate(196.37207 0.125)"/>
      <use xlink:href="#DejaVuSans-Bold-41" transform="translate(300.571289 0.125)"/>
      <use xlink:href="#DejaVuSans-Bold-2f" transform="translate(377.963867 0.125)"/>
      <use xlink:href="#DejaVuSans-Bold-6d" transform="translate(414.487305 0.125)"/>
      <use xlink:href="#DejaVuSans-Bold-b2" transform="translate(518.686523 0.125)"/>
      <use xlink:href="#DejaVuSans-Bold-29" transform="translate(562.485352 0.125)"/>
     </g>
    </g>
    <g id="text_15">
     <!-- $\times\mathdefault{10^{−3}}\mathdefault{}$ -->
     <g transform="translate(48.029375 31.3575) scale(0.1 -0.1)">
      <defs>
       <path id="DejaVuSans-d7" d="M 4488 3438 
L 3059 2003 
L 4488 575 
L 4116 197 
L 2681 1631 
L 1247 197 
L 878 575 
L 2303 2003 
L 878 3438 
L 1247 3816 
L 2681 2381 
L 4116 3816 
L 4488 3438 
z
" transform="scale(0.015625)"/>
      </defs>
      <use xlink:href="#DejaVuSans-d7" transform="translate(0 0.765625)"/>
      <use xlink:href="#DejaVuSans-31" transform="translate(83.789062 0.765625)"/>
      <use xlink:href="#DejaVuSans-30" transform="translate(147.412109 0.765625)"/>
      <use xlink:href="#DejaVuSans-2212" transform="translate(211.992188 39.046875) scale(0.7)"/>
      <use xlink:href="#DejaVuSans-33" transform="translate(270.644531 39.046875) scale(0.7)"/>
     </g>
    </g>
   </g>
   <g id="patch_6">
    <path d="M 48.029375 309.7975 
L 48.029375 34.3575 
" style="fill: none; stroke: #000000; stroke-width: 0.8; stroke-linejoin: miter; stroke-linecap: square"/>
   </g>
   <g id="patch_7">
    <path d="M 48.029375 309.7975 
L 988.975336 309.7975 
" style="fill: none; stroke: #000000; stroke-width: 0.8; stroke-linejoin: miter; stroke-linecap: square"/>
   </g>
   <g id="line2d_13">
    <path d="M 48.029375 168.834259 
L 48.499848 169.130486 
L 48.656672 169.130486 
L 48.813497 169.315628 
L 49.127145 169.315628 
L 49.28397 169.463741 
L 49.597618 169.463741 
L 51.165862 169.94511 
L 51.793159 170.204309 
L 52.106807 170.130252 
L 53.361402 170.426479 
L 53.518226 170.611621 
L 53.675051 170.500536 
L 53.988699 170.648649 
L 54.615997 170.722705 
L 54.772821 170.796763 
L 54.929645 170.648649 
L 55.400118 170.759734 
L 57.125186 171.055961 
L 58.850254 171.167046 
L 59.634375 171.278131 
L 60.575321 171.167046 
L 61.045794 171.204075 
L 61.359443 171.352188 
L 62.457213 171.500302 
L 62.614037 171.426245 
L 62.770862 171.500302 
L 63.08451 171.389217 
L 64.652754 171.648415 
L 65.5937 171.574358 
L 65.750524 171.500302 
L 65.907348 171.574358 
L 66.064173 171.500302 
L 66.377821 171.648415 
L 66.534646 171.500302 
L 66.69147 171.685444 
L 67.475592 171.7595 
L 67.632416 171.833557 
L 67.946065 171.722472 
L 68.102889 171.796529 
L 68.416537 171.7595 
L 68.730186 171.722472 
L 69.200659 171.833557 
L 69.514308 171.833557 
L 69.671132 171.981671 
L 70.768902 171.833557 
L 71.082551 171.796529 
L 72.180321 171.870585 
L 72.49397 171.907614 
L 73.748565 171.722472 
L 74.219038 171.833557 
L 75.316808 171.981671 
L 75.473632 171.833557 
L 75.787281 171.907614 
L 75.944105 171.796529 
L 76.414578 171.907614 
L 76.571402 171.7595 
L 77.825997 171.944642 
L 78.923767 171.722472 
L 79.080592 171.796529 
L 79.39424 171.648415 
L 79.707889 171.833557 
L 80.962484 171.796529 
L 81.276132 171.685444 
L 81.589781 171.722472 
L 82.373903 171.833557 
L 83.0012 171.870585 
L 83.942146 171.833557 
L 84.09897 171.722472 
L 84.883092 171.833557 
L 85.039916 171.7595 
L 85.510389 171.944642 
L 85.980862 171.907614 
L 86.294511 171.870585 
L 87.078632 171.796529 
L 87.70593 171.870585 
L 88.019578 171.981671 
L 88.333227 171.944642 
L 88.490051 172.018699 
L 88.8037 171.870585 
L 89.117349 171.833557 
L 89.587822 171.722472 
L 89.744646 171.833557 
L 90.215119 171.833557 
L 90.371943 171.944642 
L 90.685592 171.833557 
L 90.999241 171.907614 
L 91.783362 171.796529 
L 92.097011 171.796529 
L 93.351605 171.981671 
L 94.135727 171.870585 
L 94.6062 171.870585 
L 95.70397 171.981671 
L 96.174443 172.018699 
L 96.488092 171.907614 
L 96.801741 171.981671 
L 96.958565 171.870585 
L 97.272214 171.870585 
L 97.585862 171.907614 
L 98.21316 171.981671 
L 98.526808 172.092756 
L 99.31093 172.018699 
L 99.624579 171.981671 
L 99.781403 171.870585 
L 99.938227 171.981671 
L 100.251876 171.981671 
L 100.722349 172.092756 
L 101.035997 172.092756 
L 101.50647 172.129784 
L 101.663295 172.055727 
L 101.820119 172.129784 
L 102.133768 171.981671 
L 103.074714 172.092756 
L 106.524849 172.203841 
L 106.681673 172.277898 
L 106.838498 172.166812 
L 106.995322 172.203841 
L 107.152146 172.092756 
L 107.465795 172.055727 
L 107.936268 172.018699 
L 108.093092 172.129784 
L 108.406741 172.055727 
L 108.877214 172.166812 
L 109.81816 171.981671 
L 109.974984 172.055727 
L 110.131808 171.981671 
L 110.445457 172.018699 
L 110.602281 171.907614 
L 111.072754 172.018699 
L 114.052417 172.018699 
L 114.209241 172.166812 
L 114.52289 172.129784 
L 115.777484 171.944642 
L 116.247957 171.981671 
L 116.404781 172.092756 
L 116.561606 172.018699 
L 117.032079 172.129784 
L 117.8162 172.055727 
L 119.541268 172.092756 
L 119.698092 172.240869 
L 120.32539 172.055727 
L 121.109511 171.981671 
L 121.579984 172.092756 
L 122.364106 172.166812 
L 123.305052 172.055727 
L 124.873295 172.129784 
L 125.030119 172.203841 
L 125.500592 172.092756 
L 126.284714 171.981671 
L 126.755187 172.129784 
L 127.22566 172.129784 
L 128.637079 172.018699 
L 129.107552 171.981671 
L 129.421201 172.166812 
L 129.734849 172.129784 
L 130.362147 172.166812 
L 131.146268 172.092756 
L 131.459917 172.055727 
L 131.616741 172.018699 
L 131.773566 172.203841 
L 131.93039 172.129784 
L 132.400863 172.240869 
L 134.910052 172.277898 
L 135.066876 172.388983 
L 135.380525 172.351954 
L 136.478295 172.129784 
L 136.948768 172.240869 
L 139.144309 172.166812 
L 139.457958 172.092756 
L 139.614782 172.240869 
L 139.771606 172.166812 
L 140.085255 172.277898 
L 140.869376 172.351954 
L 141.810322 172.240869 
L 142.280795 172.277898 
L 142.594444 172.426011 
L 143.378566 172.388983 
L 143.692214 172.277898 
L 144.63316 172.166812 
L 144.789985 172.129784 
L 145.103633 172.240869 
L 145.887755 172.388983 
L 146.201404 172.277898 
L 146.671877 172.129784 
L 147.455998 172.203841 
L 147.769647 172.240869 
L 148.24012 172.351954 
L 149.181066 172.240869 
L 149.33789 172.203841 
L 149.494714 172.314926 
L 149.808363 172.240869 
L 150.749309 172.351954 
L 151.219782 172.351954 
L 151.376606 172.277898 
L 151.533431 172.426011 
L 151.690255 172.203841 
L 152.788025 172.314926 
L 153.885796 172.537096 
L 154.199444 172.500068 
L 155.14039 172.388983 
L 156.551809 172.648181 
L 157.022282 172.611153 
L 157.492755 172.611153 
L 157.806404 172.648181 
L 158.433701 172.90738 
L 158.74735 172.90738 
L 159.060998 172.981437 
L 160.158769 172.833323 
L 161.727012 173.092522 
L 162.981607 173.166579 
L 163.45208 173.388748 
L 163.608904 173.351721 
L 163.922553 173.499834 
L 164.393026 173.57389 
L 164.54985 173.647948 
L 164.706674 173.57389 
L 165.020323 173.647948 
L 165.64762 173.759032 
L 166.118093 173.981203 
L 166.588566 174.166345 
L 166.902215 174.27743 
L 167.059039 174.351487 
L 167.372688 174.27743 
L 168.784107 174.72177 
L 169.725053 175.092054 
L 169.881877 175.055025 
L 170.195526 175.240167 
L 170.509174 175.277196 
L 171.920593 176.165876 
L 173.645661 177.017529 
L 174.116134 177.424842 
L 174.586607 177.758097 
L 174.900255 178.091352 
L 175.841201 178.905977 
L 175.998026 178.943005 
L 176.311674 179.350317 
L 177.095796 180.016828 
L 177.409445 180.276026 
L 177.723093 180.424139 
L 178.350391 180.942536 
L 179.918634 182.645842 
L 180.232283 182.830984 
L 180.389107 182.793955 
L 180.545931 182.942069 
L 180.702755 182.830984 
L 181.643701 183.016126 
L 182.898296 182.164473 
L 183.525593 181.09065 
L 184.309715 180.424139 
L 185.093837 178.091352 
L 185.56431 176.53616 
L 185.877958 173.684976 
L 186.66208 163.872455 
L 186.975729 161.576696 
L 187.289377 160.576929 
L 187.446202 160.428812 
L 187.603026 160.539897 
L 187.916675 161.206412 
L 189.484918 165.83496 
L 189.798566 166.316329 
L 190.269039 166.353358 
L 190.582688 166.131187 
L 191.36681 165.131421 
L 191.837283 164.46491 
L 192.46458 164.279768 
L 192.778229 164.279768 
L 193.091877 164.353824 
L 193.405526 164.353824 
L 193.719175 164.538966 
L 193.875999 164.501939 
L 194.346472 164.798166 
L 194.660121 164.872222 
L 195.130594 165.16845 
L 196.228364 165.353592 
L 196.542013 165.353592 
L 196.855661 165.464676 
L 197.012485 165.464676 
L 197.639783 165.946045 
L 198.26708 166.205243 
L 198.580729 166.390385 
L 198.894377 166.464442 
L 199.36485 166.686613 
L 199.678499 166.834726 
L 200.619445 167.42718 
L 201.717215 167.760435 
L 202.030864 167.945577 
L 202.187688 167.945577 
L 202.501337 168.130719 
L 203.912756 168.686145 
L 204.540053 168.723173 
L 204.853702 168.908315 
L 205.010526 168.945344 
L 205.324175 169.167514 
L 205.794648 169.24157 
L 206.108296 169.50077 
L 206.578769 169.426712 
L 206.892418 169.537798 
L 207.049242 169.463741 
L 207.206067 169.611854 
L 207.362891 169.574826 
L 207.67654 169.796996 
L 208.460661 170.019167 
L 208.617486 170.16728 
L 208.931134 170.130252 
L 209.244783 170.130252 
L 209.715256 170.241337 
L 210.185729 170.352422 
L 210.813026 170.537564 
L 211.910797 170.722705 
L 212.224445 170.611621 
L 212.851742 170.722705 
L 213.949513 170.87082 
L 214.890459 170.759734 
L 216.458702 171.055961 
L 216.772351 170.981904 
L 217.085999 171.018933 
L 217.556472 170.944876 
L 217.713297 171.055961 
L 217.870121 171.018933 
L 218.026945 171.130018 
L 218.340594 171.167046 
L 218.967891 171.241103 
L 219.595189 171.204075 
L 220.065662 171.241103 
L 220.37931 171.204075 
L 220.849783 171.389217 
L 221.163432 171.352188 
L 221.633905 171.500302 
L 222.888499 171.278131 
L 224.613567 171.574358 
L 224.927216 171.463273 
L 225.240864 171.500302 
L 225.397689 171.389217 
L 225.554513 171.53733 
L 225.868162 171.500302 
L 226.18181 171.611387 
L 226.652283 171.685444 
L 226.965932 171.648415 
L 227.279581 171.574358 
L 227.593229 171.53733 
L 227.750054 171.574358 
L 227.906878 171.463273 
L 228.063702 171.574358 
L 228.377351 171.426245 
L 229.004648 171.611387 
L 229.161472 171.574358 
L 229.475121 171.685444 
L 230.102418 171.500302 
L 230.416067 171.53733 
L 230.572891 171.463273 
L 231.043364 171.648415 
L 231.513837 171.648415 
L 231.827486 171.722472 
L 232.925256 171.53733 
L 233.552554 171.574358 
L 235.434446 171.500302 
L 235.59127 171.389217 
L 235.904919 171.389217 
L 236.218567 171.426245 
L 236.375392 171.574358 
L 236.68904 171.463273 
L 236.845864 171.574358 
L 237.473162 171.53733 
L 237.78681 171.500302 
L 238.100459 171.426245 
L 238.414108 171.463273 
L 238.884581 171.426245 
L 239.982351 171.685444 
L 240.296 171.53733 
L 240.923297 171.53733 
L 241.080121 171.389217 
L 241.550594 171.500302 
L 242.177892 171.611387 
L 242.334716 171.500302 
L 242.49154 171.648415 
L 242.805189 171.574358 
L 242.962013 171.685444 
L 243.275662 171.500302 
L 244.059784 171.648415 
L 244.216608 171.53733 
L 244.843905 171.833557 
L 245.000729 171.574358 
L 246.412148 171.500302 
L 246.568973 171.389217 
L 247.19627 171.685444 
L 247.353094 171.611387 
L 247.509919 171.907614 
L 247.666743 171.53733 
L 247.980392 171.500302 
L 248.137216 171.7595 
L 248.29404 171.648415 
L 248.450865 171.389217 
L 248.607689 171.463273 
L 248.764513 171.870585 
L 248.921338 171.53733 
L 249.078162 171.611387 
L 249.234986 171.278131 
L 249.548635 171.53733 
L 249.705459 171.648415 
L 250.019108 171.574358 
L 250.175932 171.7595 
L 250.489581 171.722472 
L 251.273703 171.463273 
L 251.430527 171.31516 
L 251.587351 171.500302 
L 252.371473 171.611387 
L 252.685122 171.7595 
L 252.841946 171.648415 
L 252.99877 171.833557 
L 254.410189 171.500302 
L 254.723838 171.722472 
L 254.880662 171.648415 
L 255.037486 171.796529 
L 255.194311 171.500302 
L 255.351135 171.611387 
L 255.507959 171.500302 
L 255.664784 172.092756 
L 255.821608 171.870585 
L 256.135257 171.870585 
L 256.292081 171.611387 
L 256.60573 171.574358 
L 256.762554 171.833557 
L 256.919378 171.500302 
L 257.076203 171.870585 
L 257.233027 171.463273 
L 257.546676 171.981671 
L 257.7035 171.796529 
L 258.487622 171.7595 
L 258.644446 171.944642 
L 258.80127 171.685444 
L 259.271743 171.611387 
L 260.055865 171.870585 
L 260.369514 171.833557 
L 260.526338 172.018699 
L 260.839986 171.907614 
L 260.996811 171.981671 
L 261.624108 171.796529 
L 261.937757 171.796529 
L 262.251405 171.796529 
L 263.192351 171.907614 
L 263.662824 171.833557 
L 263.819649 171.685444 
L 264.133297 171.796529 
L 264.290122 171.722472 
L 264.446946 171.796529 
L 264.917419 171.685444 
L 265.231068 171.796529 
L 271.974514 171.722472 
L 272.131338 171.611387 
L 272.288162 171.722472 
L 272.601811 171.648415 
L 273.072284 171.7595 
L 273.699581 171.944642 
L 273.856406 171.796529 
L 274.483703 171.833557 
L 275.267825 171.7595 
L 276.051946 171.870585 
L 276.522419 171.907614 
L 277.306541 171.833557 
L 280.443027 171.722472 
L 280.599852 171.648415 
L 280.9135 171.7595 
L 281.697622 171.833557 
L 282.638568 171.7595 
L 282.952217 171.722472 
L 283.265865 171.722472 
L 283.579514 171.7595 
L 284.52046 171.907614 
L 284.990933 171.7595 
L 286.716 171.870585 
L 287.343298 171.907614 
L 287.813771 171.722472 
L 288.127419 171.833557 
L 288.441068 171.796529 
L 289.538838 171.944642 
L 290.009311 171.944642 
L 292.048028 172.018699 
L 292.361676 172.092756 
L 293.616271 171.833557 
L 293.929919 171.870585 
L 295.02769 171.981671 
L 295.184514 172.018699 
L 295.341338 171.870585 
L 295.498163 171.944642 
L 295.654987 171.833557 
L 295.811811 171.907614 
L 295.968636 171.796529 
L 296.595933 172.018699 
L 296.909582 171.944642 
L 297.380055 172.055727 
L 298.948298 171.944642 
L 299.261947 171.944642 
L 299.575595 172.092756 
L 299.73242 171.981671 
L 299.889244 172.129784 
L 300.046068 171.981671 
L 300.202893 172.092756 
L 300.516541 171.981671 
L 300.673366 171.833557 
L 300.83019 171.944642 
L 301.457487 171.907614 
L 302.241609 171.944642 
L 302.398433 172.092756 
L 302.712082 171.907614 
L 302.868906 172.018699 
L 303.809852 171.870585 
L 305.221271 172.129784 
L 306.162217 171.944642 
L 306.475866 172.055727 
L 306.789514 171.981671 
L 307.103163 172.092756 
L 308.200933 172.129784 
L 308.357758 172.240869 
L 309.455528 172.092756 
L 309.769176 172.277898 
L 312.278366 172.388983 
L 312.592014 172.426011 
L 314.317082 172.500068 
L 314.787555 172.611153 
L 314.944379 172.574125 
L 315.258028 172.68521 
L 315.571677 172.759266 
L 315.728501 172.648181 
L 316.198974 172.759266 
L 316.355798 172.648181 
L 316.512623 172.796295 
L 316.826271 172.759266 
L 317.296744 172.759266 
L 317.767217 172.90738 
L 318.080866 172.981437 
L 318.394514 173.092522 
L 318.551339 172.981437 
L 319.492285 173.12955 
L 319.649109 173.055493 
L 320.746879 173.499834 
L 321.060528 173.536862 
L 321.374177 173.610919 
L 322.315123 173.722004 
L 323.883366 174.388515 
L 324.197015 174.351487 
L 324.824312 174.462572 
L 325.451609 174.72177 
L 326.706204 175.203139 
L 327.019852 175.351252 
L 327.176677 175.499367 
L 327.490325 175.536394 
L 327.960798 175.832622 
L 328.274447 176.09182 
L 328.431271 176.165876 
L 328.74492 176.425076 
L 328.901744 176.610218 
L 329.215393 176.684274 
L 329.529042 176.869416 
L 329.999515 177.054558 
L 331.881407 178.720835 
L 332.038231 178.720835 
L 333.763298 180.424139 
L 334.076947 180.831452 
L 335.958839 182.571785 
L 336.272488 182.682871 
L 336.742961 182.756927 
L 337.056609 182.571785 
L 337.213434 182.608813 
L 337.527082 182.497729 
L 337.997555 182.423671 
L 338.938501 181.868247 
L 339.25215 181.460934 
L 339.879447 180.609281 
L 340.036272 180.535225 
L 340.506745 179.609515 
L 341.44769 176.647246 
L 341.604515 176.054792 
L 341.918163 173.092522 
L 342.702285 163.354058 
L 343.015934 161.317497 
L 343.329582 160.465844 
L 343.486407 160.391792 
L 343.643231 160.576929 
L 344.270528 162.465378 
L 345.05465 164.835194 
L 345.525123 165.760903 
L 345.995596 166.2793 
L 346.466069 166.05713 
L 346.936542 165.649818 
L 347.563839 164.761137 
L 348.191137 164.168683 
L 348.818434 164.094626 
L 349.602555 164.390853 
L 350.229853 164.575995 
L 351.484447 164.946279 
L 351.798096 165.16845 
L 353.679988 165.686847 
L 354.620934 166.242272 
L 358.698366 168.056662 
L 359.012015 168.167748 
L 359.325664 168.35289 
L 360.580258 168.834259 
L 361.207556 168.945344 
L 361.521204 168.982372 
L 361.521204 168.982372 
" clip-path="url(#p23f2d2f46b)" style="fill: none; stroke: #d94452; stroke-width: 0.8; stroke-linecap: square"/>
   </g>
   <g id="line2d_14">
    <path d="M 361.678029 170.352422 
L 362.46215 170.426479 
L 362.775799 170.648649 
L 362.932623 170.537564 
L 363.559921 170.796763 
L 363.716745 170.759734 
L 363.873569 170.574592 
L 366.696407 171.167046 
L 366.853231 171.09299 
L 367.010056 171.167046 
L 367.323704 171.055961 
L 367.480529 171.241103 
L 367.794177 171.167046 
L 368.26465 171.389217 
L 370.303367 171.463273 
L 370.617015 171.574358 
L 370.77384 171.53733 
L 370.930664 171.648415 
L 372.028434 171.500302 
L 372.342083 171.53733 
L 373.910326 171.833557 
L 374.223975 171.648415 
L 375.792218 171.722472 
L 376.262691 171.870585 
L 377.203637 171.7595 
L 377.517286 171.796529 
L 378.301407 171.870585 
L 378.928705 172.055727 
L 379.085529 171.981671 
L 379.399178 172.055727 
L 379.712826 171.981671 
L 381.594718 172.092756 
L 381.751542 172.129784 
L 382.065191 171.981671 
L 382.37884 172.055727 
L 383.006137 172.018699 
L 383.633434 172.055727 
L 383.790259 172.055727 
L 383.947083 172.203841 
L 385.201678 171.907614 
L 385.515326 172.055727 
L 385.672151 171.907614 
L 385.985799 172.129784 
L 386.142624 172.092756 
L 386.299448 172.277898 
L 386.456272 172.166812 
L 386.613097 172.314926 
L 386.769921 172.240869 
L 387.08357 172.426011 
L 387.710867 172.092756 
L 387.867691 172.240869 
L 388.024516 172.092756 
L 388.18134 172.203841 
L 388.338164 172.166812 
L 388.494989 172.277898 
L 388.808637 172.203841 
L 390.063232 172.426011 
L 390.37688 172.463039 
L 390.847353 172.500068 
L 391.161002 172.537096 
L 391.631475 172.981437 
L 393.356543 173.462806 
L 393.670191 173.684976 
L 393.827016 173.981203 
L 393.98384 174.018232 
L 394.297489 174.4996 
L 394.454313 174.573657 
L 394.767962 175.017997 
L 395.08161 175.240167 
L 395.552083 175.795593 
L 396.336205 176.943473 
L 398.218097 181.942303 
L 399.629516 188.422272 
L 400.413637 192.606472 
L 401.040935 194.976283 
L 401.354583 195.383602 
L 401.511408 195.494687 
L 401.825056 194.902231 
L 402.138705 193.27298 
L 402.452354 190.495861 
L 403.079651 185.237823 
L 403.236475 184.126976 
L 403.706948 176.906444 
L 404.334246 166.353358 
L 404.804719 161.28047 
L 405.275192 158.799573 
L 405.745664 157.614661 
L 406.216137 157.244375 
L 406.843435 157.207343 
L 407.157083 157.281407 
L 407.784381 157.392492 
L 408.098029 157.688714 
L 408.411678 157.873863 
L 408.882151 158.392255 
L 409.979921 160.391792 
L 410.29357 161.02127 
L 412.018638 164.020569 
L 412.489111 164.761137 
L 413.900529 166.575527 
L 414.371002 166.945811 
L 414.527827 167.316095 
L 414.841475 167.538265 
L 416.252894 168.79723 
L 416.409719 168.686145 
L 416.566543 168.79723 
L 416.723367 168.760202 
L 417.037016 169.130486 
L 417.350665 169.204543 
L 418.134786 169.648883 
L 418.291611 169.834025 
L 418.448435 169.796996 
L 418.605259 169.94511 
L 418.762084 169.759968 
L 419.232557 170.056194 
L 419.546205 169.908081 
L 419.859854 170.16728 
L 420.173503 170.315394 
L 420.643976 170.315394 
L 420.8008 170.241337 
L 420.957624 170.463507 
L 421.114449 170.241337 
L 421.428097 170.38945 
L 421.741746 170.463507 
L 422.055394 170.352422 
L 422.369043 170.315394 
L 422.525867 170.426479 
L 422.682692 170.352422 
L 423.153165 170.463507 
L 424.250935 170.611621 
L 424.721408 170.537564 
L 425.035057 170.722705 
L 426.132827 170.796763 
L 426.289651 170.907847 
L 426.760124 170.907847 
L 427.857895 170.981904 
L 428.642016 171.241103 
L 430.210259 171.352188 
L 431.621678 171.574358 
L 432.719449 171.426245 
L 433.033097 171.574358 
L 433.817219 171.648415 
L 436.326408 171.7595 
L 436.953706 171.796529 
L 438.365124 171.907614 
L 438.678773 171.944642 
L 438.992422 171.981671 
L 439.149246 172.092756 
L 439.462895 172.018699 
L 439.619719 172.055727 
L 439.933368 171.870585 
L 441.658435 172.203841 
L 441.972084 172.166812 
L 442.599381 172.055727 
L 442.91303 171.981671 
L 443.540327 172.092756 
L 444.324449 172.203841 
L 444.481273 172.129784 
L 444.638098 172.203841 
L 444.951746 172.018699 
L 445.265395 172.129784 
L 445.735868 172.018699 
L 446.206341 172.018699 
L 446.676814 172.240869 
L 446.990462 172.129784 
L 447.147287 172.314926 
L 447.460935 172.203841 
L 447.931408 172.277898 
L 448.088233 172.018699 
L 448.245057 172.240869 
L 448.558706 172.240869 
L 449.029179 172.463039 
L 449.186003 172.277898 
L 449.342827 172.426011 
L 449.499652 172.388983 
L 449.8133 172.537096 
L 450.440598 172.240869 
L 450.597422 172.351954 
L 451.067895 172.314926 
L 451.852017 172.574125 
L 452.165665 172.537096 
L 452.32249 172.796295 
L 453.42026 172.90738 
L 453.577084 173.055493 
L 453.733908 173.018465 
L 454.988503 173.83309 
L 455.302152 174.018232 
L 456.556746 175.351252 
L 457.811341 177.165642 
L 458.281814 178.202437 
L 459.065936 180.20197 
L 460.163706 184.497262 
L 461.261476 189.644204 
L 462.516071 195.383602 
L 462.829719 195.753888 
L 463.143368 195.161432 
L 463.457017 193.717319 
L 463.613841 192.791609 
L 465.02526 177.832153 
L 465.809382 165.16845 
L 466.279855 160.725044 
L 466.593503 159.058763 
L 467.063976 157.873863 
L 467.377625 157.614661 
L 468.004922 157.429513 
L 468.475395 157.392492 
L 468.63222 157.281407 
L 468.945868 157.35546 
L 469.259517 157.466545 
L 469.72999 157.873863 
L 471.298233 160.280707 
L 471.768706 161.317497 
L 472.082355 161.761838 
L 472.552828 162.687547 
L 473.336949 164.205711 
L 473.493774 164.316797 
L 473.807422 164.761137 
L 474.591544 165.723874 
L 474.748368 166.131187 
L 474.905193 166.168216 
L 475.375666 166.871754 
L 476.943909 168.241804 
L 477.257558 168.501003 
L 477.72803 168.982372 
L 477.884855 168.908315 
L 478.198503 169.167514 
L 478.355328 169.130486 
L 478.825801 169.463741 
L 479.139449 169.574826 
L 479.453098 169.611854 
L 479.609922 169.834025 
L 479.766747 169.685912 
L 480.23722 169.796996 
L 480.394044 170.093223 
L 480.707693 170.204309 
L 480.864517 170.352422 
L 481.178166 170.130252 
L 481.491814 170.463507 
L 481.648639 170.38945 
L 481.805463 170.537564 
L 482.119112 170.241337 
L 482.589585 170.352422 
L 482.746409 170.352422 
L 482.903233 170.574592 
L 483.060058 170.463507 
L 483.844179 170.574592 
L 484.471477 170.463507 
L 484.785125 170.611621 
L 484.94195 170.537564 
L 485.882895 170.907847 
L 487.607963 170.87082 
L 487.764787 171.055961 
L 487.921612 170.981904 
L 488.548909 171.167046 
L 490.117152 171.241103 
L 490.587625 171.352188 
L 491.999044 171.611387 
L 492.312693 171.463273 
L 492.469517 171.574358 
L 492.783166 171.53733 
L 494.194585 171.7595 
L 494.978706 171.685444 
L 495.919652 171.7595 
L 496.233301 171.833557 
L 498.74249 171.870585 
L 499.056139 172.055727 
L 499.526612 172.055727 
L 500.310734 171.981671 
L 500.624382 171.907614 
L 502.34945 172.203841 
L 504.858639 172.314926 
L 505.015463 172.388983 
L 505.172288 172.166812 
L 506.426882 172.277898 
L 506.897355 172.314926 
L 507.211004 172.240869 
L 508.936072 172.351954 
L 509.563369 172.537096 
L 510.661139 172.463039 
L 510.817963 172.388983 
L 510.974788 172.537096 
L 511.445261 172.388983 
L 511.602085 172.574125 
L 511.758909 172.500068 
L 512.229382 172.611153 
L 512.699855 172.68521 
L 512.85668 172.537096 
L 513.170328 172.68521 
L 513.327153 172.611153 
L 514.581747 173.092522 
L 514.895396 173.277664 
L 515.209045 173.499834 
L 515.365869 173.388748 
L 515.522693 173.462806 
L 515.679518 173.351721 
L 517.718234 175.277196 
L 518.031882 175.795593 
L 518.188707 175.758565 
L 518.345531 176.054792 
L 518.502355 176.017763 
L 518.816004 176.610218 
L 519.286477 177.572955 
L 519.913774 178.980033 
L 521.011545 182.386643 
L 521.482018 184.238061 
L 522.266139 188.051986 
L 523.520734 194.272754 
L 523.991207 195.309538 
L 524.304856 195.383602 
L 524.618504 194.606009 
L 524.932153 192.976758 
L 526.186747 182.053387 
L 527.441342 162.317263 
L 527.911815 159.317965 
L 528.225464 158.355223 
L 528.539112 157.725746 
L 528.852761 157.466545 
L 529.323234 157.318428 
L 530.734653 157.762778 
L 531.989248 159.095795 
L 533.243842 161.613725 
L 533.557491 162.206179 
L 536.380329 166.686613 
L 536.537153 166.723641 
L 538.105396 168.463975 
L 538.262221 168.463975 
L 538.575869 168.760202 
L 539.046342 168.908315 
L 539.359991 169.167514 
L 539.67364 169.278599 
L 539.830464 169.463741 
L 540.144113 169.426712 
L 541.085059 169.982138 
L 541.86918 170.315394 
L 542.026004 170.204309 
L 542.182829 170.352422 
L 542.496477 170.352422 
L 542.810126 170.500536 
L 543.280599 170.500536 
L 543.751072 170.574592 
L 543.907896 170.759734 
L 544.378369 170.611621 
L 544.692018 170.648649 
L 545.005667 170.500536 
L 545.162491 170.648649 
L 545.632964 170.611621 
L 547.044383 170.833791 
L 547.201207 170.796763 
L 547.358032 170.907847 
L 547.67168 170.87082 
L 547.985329 170.944876 
L 548.455802 171.018933 
L 548.926275 171.241103 
L 549.239924 171.204075 
L 550.808167 171.31516 
L 551.121815 171.389217 
L 551.905937 171.500302 
L 552.37641 171.500302 
L 553.160532 171.53733 
L 553.317356 171.648415 
L 553.631005 171.648415 
L 553.787829 171.7595 
L 553.944653 171.685444 
L 554.258302 171.796529 
L 554.415126 171.722472 
L 554.728775 171.833557 
L 555.042424 171.722472 
L 555.669721 171.648415 
L 556.140194 171.7595 
L 557.237964 171.944642 
L 558.022086 171.796529 
L 558.335734 171.907614 
L 558.649383 171.870585 
L 559.433505 171.944642 
L 559.747153 171.981671 
L 560.844924 171.981671 
L 561.158572 172.129784 
L 561.315397 172.055727 
L 561.78587 172.166812 
L 563.824586 172.277898 
L 564.138235 172.426011 
L 564.295059 172.314926 
L 564.765532 172.426011 
L 565.079181 172.314926 
L 565.549654 172.314926 
L 566.647424 172.351954 
L 566.961072 172.463039 
L 567.58837 172.500068 
L 568.68614 172.314926 
L 568.842964 172.500068 
L 569.156613 172.388983 
L 569.470262 172.574125 
L 569.627086 172.463039 
L 569.78391 172.648181 
L 570.097559 172.611153 
L 570.254383 172.722238 
L 570.724856 172.537096 
L 570.881681 172.759266 
L 571.038505 172.611153 
L 571.352154 172.648181 
L 571.979451 172.759266 
L 572.136275 172.68521 
L 572.449924 172.833323 
L 572.920397 172.68521 
L 573.077221 172.722238 
L 573.39087 172.611153 
L 573.547694 172.537096 
L 573.861343 172.68521 
L 574.959113 172.90738 
L 575.115937 173.166579 
L 575.272762 173.203607 
L 575.58641 173.092522 
L 576.997829 173.462806 
L 577.468302 173.870117 
L 578.722897 174.869883 
L 579.350194 175.573423 
L 581.232086 178.868948 
L 581.859384 180.498196 
L 582.957154 184.793484 
L 584.839046 194.19869 
L 585.466343 196.124163 
L 585.623167 196.087142 
L 585.936816 195.568739 
L 586.407289 192.606472 
L 587.191411 185.459993 
L 587.348235 184.497262 
L 587.661884 180.350083 
L 588.60283 164.835194 
L 589.073303 160.391792 
L 589.230127 159.873388 
L 589.543776 158.540372 
L 590.014249 157.836831 
L 590.327897 157.725746 
L 591.425667 157.503577 
L 591.582492 157.577629 
L 591.739316 157.466545 
L 591.89614 157.540597 
L 592.209789 157.836831 
L 592.366613 157.799799 
L 592.523438 158.318202 
L 592.680262 158.28117 
L 593.150735 158.910658 
L 593.778032 160.13259 
L 595.032627 162.354292 
L 596.130397 164.501939 
L 597.698641 166.797698 
L 597.855465 166.723641 
L 598.012289 167.130953 
L 598.169113 167.056896 
L 598.639586 168.019635 
L 598.796411 168.167748 
L 598.953235 168.093691 
L 599.110059 168.241804 
L 599.266884 168.612088 
L 599.580532 168.501003 
L 599.737357 168.538032 
L 600.051005 169.019401 
L 600.364654 169.056428 
L 600.521478 169.315628 
L 600.678303 169.315628 
L 600.835127 169.574826 
L 601.619249 169.796996 
L 601.776073 170.056194 
L 602.089722 169.908081 
L 602.246546 170.204309 
L 602.717019 170.204309 
L 603.030668 170.463507 
L 603.344316 170.648649 
L 603.971614 170.759734 
L 604.128438 170.907847 
L 604.285262 170.759734 
L 604.755735 170.944876 
L 604.91256 170.574592 
L 605.069384 170.574592 
L 605.226208 170.833791 
L 605.853506 170.759734 
L 606.01033 171.018933 
L 606.167154 170.981904 
L 606.323978 171.130018 
L 606.637627 170.944876 
L 606.951276 171.130018 
L 607.1081 170.796763 
L 607.421749 171.055961 
L 607.578573 171.09299 
L 607.735397 170.981904 
L 607.892222 171.130018 
L 608.049046 170.944876 
L 608.20587 171.167046 
L 608.362695 171.130018 
L 608.519519 170.87082 
L 608.676343 171.204075 
L 609.303641 171.31516 
L 609.617289 171.241103 
L 610.087762 171.241103 
L 610.71506 171.31516 
L 611.028708 171.352188 
L 612.283303 171.574358 
L 612.596952 171.53733 
L 613.537898 171.648415 
L 614.165195 171.833557 
L 614.322019 171.7595 
L 614.478843 171.907614 
L 614.949316 171.7595 
L 616.203911 171.870585 
L 616.51756 171.907614 
L 617.144857 171.944642 
L 617.928979 171.833557 
L 618.242627 171.944642 
L 618.399452 171.870585 
L 618.7131 172.092756 
L 618.869925 172.018699 
L 619.183573 172.166812 
L 619.340398 172.092756 
L 619.654046 172.129784 
L 619.967695 172.092756 
L 620.751817 171.944642 
L 621.065465 172.055727 
L 621.22229 171.981671 
L 621.692763 172.203841 
L 622.476884 172.277898 
L 624.201952 172.388983 
L 625.142898 172.537096 
L 625.927019 172.426011 
L 626.711141 172.574125 
L 626.867965 172.500068 
L 627.02479 172.611153 
L 627.338438 172.574125 
L 627.652087 172.648181 
L 627.965736 172.611153 
L 628.749857 172.500068 
L 629.22033 172.611153 
L 629.377155 172.500068 
L 630.3181 172.68521 
L 630.631749 172.537096 
L 630.788573 172.833323 
L 631.259046 172.611153 
L 631.415871 172.68521 
L 631.729519 172.648181 
L 632.356817 172.870352 
L 633.768236 172.833323 
L 634.081884 172.722238 
L 635.179655 172.870352 
L 635.336479 172.796295 
L 635.493303 172.944408 
L 636.277425 172.833323 
L 638.943438 174.092288 
L 639.100263 174.018232 
L 639.257087 174.092288 
L 639.570736 174.4996 
L 639.884384 174.832856 
L 641.609452 176.943473 
L 642.707222 179.239232 
L 643.804993 182.645842 
L 644.589114 185.978396 
L 646.314182 194.606009 
L 646.62783 195.420634 
L 646.941479 195.753888 
L 647.255128 195.198453 
L 647.411952 194.791146 
L 647.725601 193.01379 
L 648.980195 181.386878 
L 650.23479 162.058065 
L 650.705263 159.354997 
L 651.175736 158.244138 
L 651.803033 157.762778 
L 652.430331 157.577629 
L 652.900804 157.614661 
L 653.057628 157.577629 
L 653.84175 158.170085 
L 654.155398 158.429287 
L 654.782695 159.280933 
L 656.507763 162.724576 
L 656.978236 163.5392 
L 657.605533 164.538966 
L 658.232831 165.538732 
L 658.546479 166.020102 
L 659.173777 166.908783 
L 659.487425 167.167982 
L 659.957898 167.723407 
L 660.428371 167.982606 
L 661.212493 168.834259 
L 661.369317 168.871287 
L 661.83979 169.315628 
L 663.094385 169.722939 
L 664.035331 170.463507 
L 664.505804 170.463507 
L 664.819452 170.611621 
L 666.074047 170.944876 
L 666.230871 170.759734 
L 666.387696 170.87082 
L 666.701344 170.907847 
L 667.171817 171.130018 
L 667.328642 171.09299 
L 667.485466 170.907847 
L 667.64229 170.944876 
L 667.799115 170.759734 
L 669.524182 171.130018 
L 669.681007 170.981904 
L 669.837831 171.130018 
L 669.994655 171.018933 
L 670.15148 171.055961 
L 670.308304 171.278131 
L 670.621952 171.167046 
L 671.092425 171.130018 
L 672.503844 171.352188 
L 672.817493 171.31516 
L 673.601615 171.426245 
L 673.915263 171.500302 
L 674.228912 171.611387 
L 674.385736 171.722472 
L 674.856209 171.611387 
L 675.013034 171.685444 
L 675.169858 171.611387 
L 675.169858 171.611387 
" clip-path="url(#p23f2d2f46b)" style="fill: none; stroke: #d94452; stroke-width: 0.8; stroke-linecap: square"/>
   </g>
   <g id="line2d_15">
    <path d="M 675.326682 173.240635 
L 675.483507 173.203607 
L 675.797155 173.388748 
L 675.95398 173.240635 
L 676.110804 173.425777 
L 676.581277 173.536862 
L 677.365399 173.907146 
L 678.776817 176.054792 
L 679.560939 179.05409 
L 680.031412 182.275558 
L 680.345061 185.719194 
L 680.658709 190.718031 
L 680.972358 198.493986 
L 681.286007 211.416883 
L 681.442831 220.970195 
L 681.913304 262.219771 
L 682.070128 261.442167 
L 682.85425 229.523743 
L 683.167899 219.044722 
L 683.638372 212.379614 
L 684.108845 201.567339 
L 684.422493 189.718257 
L 685.206615 149.061101 
L 685.677088 137.137956 
L 685.990737 133.990551 
L 686.304385 133.027808 
L 686.461209 133.138893 
L 686.618034 133.509179 
L 686.931682 135.027345 
L 687.715804 140.618626 
L 689.284047 151.764179 
L 691.165939 161.058299 
L 691.950061 163.354058 
L 692.420534 164.613024 
L 693.047831 165.909016 
L 693.204656 166.020102 
L 693.988777 167.130953 
L 694.302426 167.538265 
L 694.616074 168.056662 
L 696.027493 169.611854 
L 696.811615 169.908081 
L 697.595737 170.426479 
L 697.752561 170.426479 
L 698.06621 170.685678 
L 698.693507 170.907847 
L 699.16398 171.130018 
L 700.26175 171.500302 
L 700.575399 171.7595 
L 700.889048 171.833557 
L 701.359521 171.981671 
L 702.457291 172.018699 
L 702.614115 172.129784 
L 702.927764 172.092756 
L 703.084588 172.314926 
L 703.241412 172.203841 
L 703.555061 172.500068 
L 703.711885 172.351954 
L 704.182358 172.463039 
L 704.339183 172.500068 
L 704.496007 172.388983 
L 704.652831 172.537096 
L 704.809656 172.463039 
L 704.96648 172.648181 
L 705.593777 172.611153 
L 705.907426 172.574125 
L 706.06425 172.90738 
L 708.57344 173.57389 
L 709.200737 174.203373 
L 709.828034 174.758799 
L 710.612156 176.610218 
L 711.082629 178.572721 
L 711.553102 181.572019 
L 712.023575 186.830042 
L 712.494048 196.790683 
L 712.807696 208.935975 
L 713.121345 229.708881 
L 713.434994 255.295473 
L 713.591818 254.740038 
L 714.219115 230.449453 
L 714.689588 214.786458 
L 715.316886 205.751538 
L 715.787359 193.680299 
L 716.257832 167.316095 
L 716.728305 146.802374 
L 717.198778 135.175451 
L 717.512426 132.287236 
L 717.826075 131.43559 
L 717.982899 131.69478 
L 718.296548 132.879692 
L 719.707967 143.24764 
L 720.648913 150.134928 
L 722.060332 158.170085 
L 723.628575 163.687313 
L 725.196818 166.427414 
L 725.824116 167.464209 
L 726.137764 167.908549 
L 727.07871 169.130486 
L 727.549183 169.352656 
L 728.019656 169.685912 
L 728.333305 169.759968 
L 728.646953 170.019167 
L 729.744724 170.685678 
L 731.156143 171.241103 
L 731.469791 171.389217 
L 732.097089 171.722472 
L 732.253913 171.722472 
L 732.567562 171.870585 
L 733.665332 171.944642 
L 733.978981 172.018699 
L 734.606278 172.129784 
L 734.919926 172.277898 
L 735.076751 172.277898 
L 735.233575 172.463039 
L 735.390399 172.314926 
L 735.547224 172.463039 
L 736.017697 172.351954 
L 736.174521 172.314926 
L 736.48817 172.426011 
L 736.958643 172.611153 
L 737.429116 172.611153 
L 738.840535 173.166579 
L 739.154183 173.240635 
L 739.311008 173.314692 
L 739.467832 173.203607 
L 739.938305 173.499834 
L 740.095129 173.499834 
L 740.722427 174.092288 
L 741.1929 174.4996 
L 741.349724 174.684741 
L 742.133846 176.79536 
L 742.604318 178.60975 
L 743.074791 181.683105 
L 743.38844 184.830516 
L 743.858913 193.01379 
L 744.172562 202.530069 
L 744.48621 218.563351 
L 744.956683 255.887918 
L 745.113508 254.814102 
L 746.368102 213.157207 
L 746.681751 208.676785 
L 747.152224 198.049647 
L 747.465873 186.015428 
L 748.09317 151.690115 
L 748.563643 137.434189 
L 748.877292 133.06484 
L 749.19094 131.509643 
L 749.347765 131.361526 
L 749.504589 131.47261 
L 749.818238 132.805639 
L 750.916008 140.766743 
L 752.327427 151.134691 
L 753.582021 157.984948 
L 754.366143 161.132355 
L 755.934386 165.464676 
L 756.561684 166.131187 
L 756.718508 166.205243 
L 757.973103 168.501003 
L 758.129927 168.426946 
L 758.914048 169.204543 
L 759.854994 169.722939 
L 760.639116 170.38945 
L 760.952765 170.500536 
L 762.834657 171.352188 
L 763.148305 171.389217 
L 763.775603 171.722472 
L 764.089251 171.870585 
L 764.4029 171.833557 
L 764.559724 171.870585 
L 764.716549 171.722472 
L 765.030197 171.870585 
L 765.343846 171.833557 
L 765.657495 172.092756 
L 765.814319 172.240869 
L 765.971143 172.018699 
L 766.127968 172.203841 
L 766.441616 172.166812 
L 766.598441 172.388983 
L 766.755265 172.203841 
L 767.382562 172.388983 
L 767.539386 172.426011 
L 767.853035 172.203841 
L 768.950805 172.611153 
L 769.578103 172.833323 
L 769.891751 172.981437 
L 770.048576 172.944408 
L 770.2054 173.12955 
L 770.519049 173.055493 
L 770.832697 173.314692 
L 770.989522 173.166579 
L 771.459995 173.462806 
L 771.616819 173.536862 
L 771.773643 173.83309 
L 772.244116 173.944174 
L 772.714589 174.425543 
L 773.028238 175.055025 
L 773.341887 175.721536 
L 774.282833 179.350317 
L 774.753305 183.127211 
L 775.066954 187.015191 
L 775.537427 197.346107 
L 775.851076 209.787633 
L 776.164724 231.486248 
L 776.478373 256.332257 
L 776.635197 254.851123 
L 777.889792 212.786932 
L 778.203441 208.380552 
L 778.673914 197.864498 
L 778.987562 185.645142 
L 779.61486 151.171723 
L 780.085333 137.137956 
L 780.398981 132.953756 
L 780.71263 131.398558 
L 780.869454 131.21342 
L 781.026279 131.43559 
L 781.496752 133.768381 
L 783.064995 145.54341 
L 783.692292 150.060864 
L 784.633238 155.763241 
L 785.260535 158.577392 
L 786.201481 162.206179 
L 786.51513 162.946747 
L 787.142427 164.761137 
L 787.6129 165.427648 
L 787.926549 165.760903 
L 788.397022 166.575527 
L 788.553846 166.686613 
L 789.337968 168.130719 
L 789.494792 168.130719 
L 789.651617 168.538032 
L 789.808441 168.612088 
L 790.278914 169.093457 
L 790.749387 169.389684 
L 791.063035 169.50077 
L 791.376684 169.685912 
L 791.847157 170.056194 
L 792.160806 170.315394 
L 792.474454 170.537564 
L 792.944927 170.759734 
L 793.729049 171.018933 
L 793.885873 171.130018 
L 794.042698 171.09299 
L 794.826819 171.53733 
L 795.297292 171.685444 
L 795.767765 171.7595 
L 796.081414 171.833557 
L 796.395063 171.7595 
L 799.061076 172.277898 
L 799.2179 172.203841 
L 799.531549 172.314926 
L 800.002022 172.500068 
L 800.158846 172.426011 
L 800.942968 172.796295 
L 801.256617 172.722238 
L 801.413441 172.90738 
L 801.72709 172.870352 
L 801.883914 173.018465 
L 802.040738 172.981437 
L 802.354387 173.203607 
L 802.82486 173.203607 
L 803.608982 173.83309 
L 803.92263 174.018232 
L 804.393103 174.462572 
L 805.334049 177.202671 
L 805.961347 180.572254 
L 806.274995 183.238296 
L 806.588644 187.163308 
L 806.902292 193.384065 
L 807.215941 203.344695 
L 807.52959 219.9334 
L 808.000063 256.369289 
L 808.156887 254.591933 
L 809.254657 214.564288 
L 809.568306 211.12065 
L 810.038779 201.900593 
L 810.352428 192.939726 
L 810.822901 165.686847 
L 811.293374 145.321229 
L 811.763847 134.175688 
L 812.077495 131.583695 
L 812.391144 130.880166 
L 812.704793 131.842897 
L 813.018441 133.657285 
L 814.586685 145.54341 
L 815.684455 152.912059 
L 816.468576 157.170322 
L 817.252698 160.35476 
L 818.193644 163.5392 
L 818.820941 164.872222 
L 820.859658 167.908549 
L 821.016482 168.204777 
L 821.173306 168.241804 
L 821.486955 168.760202 
L 821.957428 169.019401 
L 822.114252 169.019401 
L 822.427901 169.278599 
L 824.309793 170.500536 
L 826.975806 171.685444 
L 828.073577 171.7595 
L 828.54405 172.055727 
L 828.700874 171.907614 
L 829.171347 172.092756 
L 829.328171 172.055727 
L 829.484996 172.203841 
L 829.955469 171.981671 
L 830.112293 172.129784 
L 830.73959 172.092756 
L 831.210063 172.351954 
L 831.523712 172.426011 
L 831.680536 172.314926 
L 832.778306 172.648181 
L 833.091955 172.759266 
L 833.562428 172.981437 
L 834.032901 173.240635 
L 834.34655 173.277664 
L 835.287496 173.759032 
L 835.44432 174.018232 
L 835.757969 174.203373 
L 836.54209 176.054792 
L 837.326212 179.49843 
L 837.639861 181.720133 
L 837.953509 185.015654 
L 838.423982 193.643266 
L 838.737631 203.640928 
L 839.051279 220.414771 
L 839.521752 256.591458 
L 839.678577 254.591933 
L 840.776347 214.490236 
L 841.089996 211.046597 
L 841.560469 201.715444 
L 841.874117 192.495387 
L 842.971888 140.211319 
L 843.285536 133.990551 
L 843.599185 131.43559 
L 843.756009 130.917187 
L 844.069658 131.21342 
L 844.383307 132.694554 
L 845.167428 138.285835 
L 846.265199 146.543173 
L 847.362969 153.874789 
L 847.990266 157.022206 
L 848.774388 160.35476 
L 849.088036 161.354526 
L 849.558509 162.983775 
L 850.499455 165.131421 
L 850.813104 165.390619 
L 851.126753 165.909016 
L 851.283577 166.020102 
L 852.85182 168.57506 
L 853.165469 168.649117 
L 853.322293 168.871287 
L 853.479118 168.834259 
L 853.792766 169.130486 
L 854.106415 169.24157 
L 855.361009 170.278365 
L 855.831482 170.500536 
L 855.988307 170.500536 
L 856.145131 170.648649 
L 856.301955 170.611621 
L 857.242901 171.167046 
L 858.497496 171.648415 
L 859.124793 171.574358 
L 859.752091 171.796529 
L 860.065739 171.722472 
L 860.536212 171.981671 
L 861.006685 171.944642 
L 861.16351 172.018699 
L 861.477158 171.981671 
L 861.633983 172.055727 
L 861.947631 171.907614 
L 862.104456 171.981671 
L 862.26128 171.907614 
L 862.574929 172.277898 
L 862.731753 172.129784 
L 862.888577 172.240869 
L 863.202226 172.129784 
L 863.515874 172.463039 
L 863.672699 172.314926 
L 864.143172 172.388983 
L 864.299996 172.277898 
L 864.770469 172.833323 
L 865.240942 172.90738 
L 865.711415 173.12955 
L 866.025064 173.12955 
L 866.181888 173.314692 
L 866.338712 173.314692 
L 866.495537 173.462806 
L 866.652361 173.425777 
L 867.279658 174.166345 
L 868.06378 176.09182 
L 868.534253 177.869182 
L 868.847902 179.313288 
L 869.318375 183.164239 
L 869.788848 190.051511 
L 870.102496 197.975583 
L 870.416145 211.194714 
L 870.729794 234.004177 
L 871.043442 256.998777 
L 871.200266 254.443816 
L 872.298037 214.156982 
L 872.611685 210.750363 
L 873.082158 201.456254 
L 873.395807 192.014016 
L 874.493577 139.804001 
L 874.807226 133.731349 
L 875.120875 131.250441 
L 875.277699 130.843134 
L 875.434523 130.806102 
L 875.748172 131.731812 
L 876.375469 135.804939 
L 879.198307 155.467008 
L 881.237023 163.502171 
L 882.021145 164.835194 
L 882.334794 165.353592 
L 883.27574 166.871754 
L 883.432564 167.167982 
L 883.589388 167.167982 
L 883.903037 167.834493 
L 884.687159 168.649117 
L 884.843983 168.723173 
L 885.000807 168.945344 
L 885.157632 168.834259 
L 885.314456 169.130486 
L 885.628105 169.278599 
L 886.725875 170.16728 
L 889.548713 171.500302 
L 889.705537 171.389217 
L 889.862361 171.574358 
L 890.019186 171.463273 
L 890.646483 171.574358 
L 890.803307 171.463273 
L 891.116956 171.685444 
L 891.27378 171.574358 
L 891.901078 171.7595 
L 892.842024 171.870585 
L 892.998848 171.648415 
L 893.312497 171.722472 
L 893.939794 172.018699 
L 894.096618 171.722472 
L 894.410267 172.129784 
L 894.88074 172.018699 
L 895.037564 172.055727 
L 895.508037 172.463039 
L 895.664861 172.388983 
L 895.821686 172.092756 
L 896.135334 172.426011 
L 896.292159 172.463039 
L 896.448983 172.68521 
L 896.605807 172.611153 
L 896.919456 172.90738 
L 897.07628 172.833323 
L 897.233105 172.981437 
L 897.389929 172.90738 
L 897.703578 173.018465 
L 897.860402 172.944408 
L 898.801348 173.981203 
L 900.055943 177.647011 
L 900.526416 180.276026 
L 900.996889 185.052686 
L 901.310537 190.199628 
L 901.624186 198.308837 
L 901.937835 211.453904 
L 902.251483 234.633653 
L 902.565132 256.813628 
L 902.721956 254.110562 
L 903.819726 214.156982 
L 904.133375 210.676311 
L 904.603848 201.234084 
L 904.917497 191.717794 
L 906.015267 139.359662 
L 906.328916 133.509179 
L 906.642564 131.065304 
L 906.956213 130.5469 
L 907.113037 130.917187 
L 907.740335 134.582995 
L 908.210808 138.063666 
L 909.622227 148.616763 
L 911.347294 158.170085 
L 912.445064 162.16915 
L 913.542835 164.575995 
L 913.856483 164.983308 
L 914.013308 165.242506 
L 914.326956 165.353592 
L 914.483781 166.205243 
L 914.640605 166.168216 
L 915.267902 167.390151 
L 915.424727 167.464209 
L 915.738375 167.982606 
L 915.8952 167.797464 
L 916.052024 168.278833 
L 916.208848 168.204777 
L 916.365673 168.278833 
L 916.679321 168.982372 
L 916.836146 168.686145 
L 916.99297 169.019401 
L 917.149794 168.834259 
L 917.620267 169.574826 
L 917.933916 169.796996 
L 918.247565 170.019167 
L 918.404389 169.982138 
L 918.561213 170.130252 
L 918.718038 170.019167 
L 918.874862 170.315394 
L 919.031686 170.241337 
L 919.188511 170.463507 
L 919.345335 170.38945 
L 919.502159 170.648649 
L 919.815808 170.759734 
L 919.972632 170.907847 
L 920.129456 170.833791 
L 920.443105 171.130018 
L 920.599929 171.09299 
L 920.756754 171.241103 
L 920.913578 171.167046 
L 921.070402 171.352188 
L 921.384051 171.130018 
L 921.540875 171.352188 
L 921.6977 171.278131 
L 921.854524 171.500302 
L 922.79547 171.611387 
L 923.422767 171.648415 
L 925.461484 171.648415 
L 925.618308 171.981671 
L 926.245605 172.018699 
L 926.716078 172.018699 
L 927.029727 172.277898 
L 927.186551 172.314926 
L 927.343375 172.166812 
L 927.813848 172.611153 
L 927.970673 172.426011 
L 928.284321 172.870352 
L 928.441146 172.537096 
L 928.59797 172.90738 
L 928.754794 172.722238 
L 929.225267 172.796295 
L 929.538916 173.166579 
L 929.852565 173.351721 
L 930.009389 173.499834 
L 931.107159 176.09182 
L 931.577632 177.758097 
L 931.891281 179.128146 
L 932.361754 183.201267 
L 932.675403 187.422498 
L 932.989051 193.976521 
L 933.3027 204.455553 
L 933.616349 222.006989 
L 934.086822 257.109861 
L 934.243646 253.999477 
L 935.341416 213.860748 
L 935.655065 210.454141 
L 936.125538 200.863798 
L 936.439186 191.16237 
L 937.536957 139.10046 
L 937.850605 133.138893 
L 938.164254 131.028271 
L 938.321078 130.657985 
L 938.477903 130.620965 
L 938.791551 131.69478 
L 939.1052 133.398095 
L 940.830268 146.506141 
L 942.241687 155.318902 
L 944.123578 162.613491 
L 944.9077 164.501939 
L 945.064524 164.575995 
L 945.534997 165.316563 
L 945.691822 165.353592 
L 946.162295 166.316329 
L 947.260065 168.019635 
L 948.044187 168.612088 
L 949.298781 169.611854 
L 949.769254 169.94511 
L 950.553376 170.241337 
L 951.180673 170.648649 
L 951.651146 170.907847 
L 951.964795 171.018933 
L 952.121619 171.130018 
L 952.278443 171.09299 
L 952.748916 171.31516 
L 953.062565 171.352188 
L 953.219389 171.389217 
L 953.376214 171.278131 
L 954.787633 171.574358 
L 955.101281 171.463273 
L 956.042227 171.611387 
L 956.355876 171.611387 
L 956.5127 171.648415 
L 956.669525 171.833557 
L 956.826349 171.7595 
L 956.983173 171.944642 
L 957.296822 171.907614 
L 957.453646 171.981671 
L 957.767295 171.796529 
L 958.080944 171.907614 
L 958.708241 171.944642 
L 958.865065 172.240869 
L 959.02189 172.203841 
L 959.335538 172.537096 
L 960.276484 172.833323 
L 960.433308 172.944408 
L 960.590133 172.722238 
L 961.374254 173.462806 
L 961.531079 173.425777 
L 961.687903 173.610919 
L 963.099322 177.572955 
L 963.569795 180.350083 
L 964.040268 185.237823 
L 964.353917 190.643967 
L 964.667565 198.938325 
L 964.981214 212.675848 
L 965.294863 236.781295 
L 965.608511 256.961745 
L 965.765336 253.592159 
L 966.706282 216.971132 
L 967.01993 212.490699 
L 967.333579 207.714043 
L 967.647227 200.715681 
L 967.960876 190.680999 
L 968.901822 143.321704 
L 969.215471 135.3606 
L 969.529119 131.768844 
L 969.842768 130.695017 
L 969.999592 130.620965 
L 970.313241 131.620727 
L 970.940538 135.656822 
L 973.606552 154.467245 
L 974.704322 159.503102 
L 976.115741 163.946513 
L 976.586214 164.650052 
L 977.213511 165.538732 
L 977.840809 166.834726 
L 978.311282 167.538265 
L 978.468106 167.649351 
L 978.62493 168.056662 
L 979.095403 168.241804 
L 979.565876 168.686145 
L 980.193174 169.204543 
L 980.820471 169.796996 
L 981.13412 170.019167 
L 981.918241 170.241337 
L 982.23189 170.463507 
L 982.859187 170.87082 
L 983.172836 170.981904 
L 984.113782 171.31516 
L 984.42743 171.352188 
L 985.054728 171.426245 
L 985.525201 171.611387 
L 985.838849 171.53733 
L 986.779795 171.611387 
L 986.93662 171.722472 
L 987.093444 171.611387 
L 988.348039 171.870585 
L 988.504863 171.796529 
L 988.661687 171.981671 
L 988.818512 171.907614 
L 988.818512 171.907614 
" clip-path="url(#p23f2d2f46b)" style="fill: none; stroke: #d94452; stroke-width: 0.8; stroke-linecap: square"/>
   </g>
   <g id="text_16">
    <g id="patch_8">
     <path d="M 157.973702 302.8599 
L 251.733702 302.8599 
Q 253.333702 302.8599 253.333702 301.2599 
L 253.333702 292.7799 
Q 253.333702 291.1799 251.733702 291.1799 
L 157.973702 291.1799 
Q 156.373702 291.1799 156.373702 292.7799 
L 156.373702 301.2599 
Q 156.373702 302.8599 157.973702 302.8599 
z
" style="fill: #ffffff; opacity: 0.85; stroke: #d94452; stroke-linejoin: miter"/>
    </g>
    <!-- I$_{p-p}$ = 4.92E-04 mA/m² -->
    <g style="fill: #d94452" transform="translate(157.973702 298.7799) scale(0.08 -0.08)">
     <defs>
      <path id="DejaVuSans-49" d="M 628 4666 
L 1259 4666 
L 1259 0 
L 628 0 
L 628 4666 
z
" transform="scale(0.015625)"/>
      <path id="DejaVuSans-Oblique-70" d="M 3175 2156 
Q 3175 2616 2975 2859 
Q 2775 3103 2400 3103 
Q 2144 3103 1911 2972 
Q 1678 2841 1497 2591 
Q 1319 2344 1212 1994 
Q 1106 1644 1106 1300 
Q 1106 863 1306 627 
Q 1506 391 1875 391 
Q 2147 391 2380 519 
Q 2613 647 2778 891 
Q 2956 1147 3065 1494 
Q 3175 1841 3175 2156 
z
M 1394 2969 
Q 1625 3272 1939 3428 
Q 2253 3584 2638 3584 
Q 3175 3584 3472 3232 
Q 3769 2881 3769 2247 
Q 3769 1728 3584 1258 
Q 3400 788 3053 416 
Q 2822 169 2531 39 
Q 2241 -91 1919 -91 
Q 1547 -91 1294 64 
Q 1041 219 916 525 
L 556 -1331 
L -19 -1331 
L 922 3500 
L 1497 3500 
L 1394 2969 
z
" transform="scale(0.015625)"/>
      <path id="DejaVuSans-20" transform="scale(0.015625)"/>
      <path id="DejaVuSans-3d" d="M 678 2906 
L 4684 2906 
L 4684 2381 
L 678 2381 
L 678 2906 
z
M 678 1631 
L 4684 1631 
L 4684 1100 
L 678 1100 
L 678 1631 
z
" transform="scale(0.015625)"/>
      <path id="DejaVuSans-2e" d="M 684 794 
L 1344 794 
L 1344 0 
L 684 0 
L 684 794 
z
" transform="scale(0.015625)"/>
      <path id="DejaVuSans-39" d="M 703 97 
L 703 672 
Q 941 559 1184 500 
Q 1428 441 1663 441 
Q 2288 441 2617 861 
Q 2947 1281 2994 2138 
Q 2813 1869 2534 1725 
Q 2256 1581 1919 1581 
Q 1219 1581 811 2004 
Q 403 2428 403 3163 
Q 403 3881 828 4315 
Q 1253 4750 1959 4750 
Q 2769 4750 3195 4129 
Q 3622 3509 3622 2328 
Q 3622 1225 3098 567 
Q 2575 -91 1691 -91 
Q 1453 -91 1209 -44 
Q 966 3 703 97 
z
M 1959 2075 
Q 2384 2075 2632 2365 
Q 2881 2656 2881 3163 
Q 2881 3666 2632 3958 
Q 2384 4250 1959 4250 
Q 1534 4250 1286 3958 
Q 1038 3666 1038 3163 
Q 1038 2656 1286 2365 
Q 1534 2075 1959 2075 
z
" transform="scale(0.015625)"/>
      <path id="DejaVuSans-45" d="M 628 4666 
L 3578 4666 
L 3578 4134 
L 1259 4134 
L 1259 2753 
L 3481 2753 
L 3481 2222 
L 1259 2222 
L 1259 531 
L 3634 531 
L 3634 0 
L 628 0 
L 628 4666 
z
" transform="scale(0.015625)"/>
      <path id="DejaVuSans-2d" d="M 313 2009 
L 1997 2009 
L 1997 1497 
L 313 1497 
L 313 2009 
z
" transform="scale(0.015625)"/>
      <path id="DejaVuSans-6d" d="M 3328 2828 
Q 3544 3216 3844 3400 
Q 4144 3584 4550 3584 
Q 5097 3584 5394 3201 
Q 5691 2819 5691 2113 
L 5691 0 
L 5113 0 
L 5113 2094 
Q 5113 2597 4934 2840 
Q 4756 3084 4391 3084 
Q 3944 3084 3684 2787 
Q 3425 2491 3425 1978 
L 3425 0 
L 2847 0 
L 2847 2094 
Q 2847 2600 2669 2842 
Q 2491 3084 2119 3084 
Q 1678 3084 1418 2786 
Q 1159 2488 1159 1978 
L 1159 0 
L 581 0 
L 581 3500 
L 1159 3500 
L 1159 2956 
Q 1356 3278 1631 3431 
Q 1906 3584 2284 3584 
Q 2666 3584 2933 3390 
Q 3200 3197 3328 2828 
z
" transform="scale(0.015625)"/>
      <path id="DejaVuSans-41" d="M 2188 4044 
L 1331 1722 
L 3047 1722 
L 2188 4044 
z
M 1831 4666 
L 2547 4666 
L 4325 0 
L 3669 0 
L 3244 1197 
L 1141 1197 
L 716 0 
L 50 0 
L 1831 4666 
z
" transform="scale(0.015625)"/>
      <path id="DejaVuSans-2f" d="M 1625 4666 
L 2156 4666 
L 531 -594 
L 0 -594 
L 1625 4666 
z
" transform="scale(0.015625)"/>
      <path id="DejaVuSans-b2" d="M 838 2444 
L 2163 2444 
L 2163 2088 
L 294 2088 
L 294 2431 
Q 400 2528 597 2703 
Q 1672 3656 1672 3950 
Q 1672 4156 1509 4282 
Q 1347 4409 1081 4409 
Q 919 4409 728 4354 
Q 538 4300 313 4191 
L 313 4575 
Q 553 4663 761 4706 
Q 969 4750 1147 4750 
Q 1600 4750 1872 4544 
Q 2144 4338 2144 4000 
Q 2144 3566 1109 2678 
Q 934 2528 838 2444 
z
" transform="scale(0.015625)"/>
     </defs>
     <use xlink:href="#DejaVuSans-49" transform="translate(0 0.78125)"/>
     <use xlink:href="#DejaVuSans-Oblique-70" transform="translate(30.449219 -15.625) scale(0.7)"/>
     <use xlink:href="#DejaVuSans-2212" transform="translate(88.520508 -15.625) scale(0.7)"/>
     <use xlink:href="#DejaVuSans-Oblique-70" transform="translate(160.810547 -15.625) scale(0.7)"/>
     <use xlink:href="#DejaVuSans-20" transform="translate(207.978516 0.78125)"/>
     <use xlink:href="#DejaVuSans-3d" transform="translate(239.765625 0.78125)"/>
     <use xlink:href="#DejaVuSans-20" transform="translate(323.554688 0.78125)"/>
     <use xlink:href="#DejaVuSans-34" transform="translate(355.341797 0.78125)"/>
     <use xlink:href="#DejaVuSans-2e" transform="translate(418.964844 0.78125)"/>
     <use xlink:href="#DejaVuSans-39" transform="translate(450.751953 0.78125)"/>
     <use xlink:href="#DejaVuSans-32" transform="translate(512.625 0.78125)"/>
     <use xlink:href="#DejaVuSans-45" transform="translate(576.248047 0.78125)"/>
     <use xlink:href="#DejaVuSans-2d" transform="translate(639.431641 0.78125)"/>
     <use xlink:href="#DejaVuSans-30" transform="translate(675.515625 0.78125)"/>
     <use xlink:href="#DejaVuSans-34" transform="translate(739.138672 0.78125)"/>
     <use xlink:href="#DejaVuSans-20" transform="translate(802.761719 0.78125)"/>
     <use xlink:href="#DejaVuSans-6d" transform="translate(834.548828 0.78125)"/>
     <use xlink:href="#DejaVuSans-41" transform="translate(931.960938 0.78125)"/>
     <use xlink:href="#DejaVuSans-2f" transform="translate(1000.369141 0.78125)"/>
     <use xlink:href="#DejaVuSans-6d" transform="translate(1034.060547 0.78125)"/>
     <use xlink:href="#DejaVuSans-b2" transform="translate(1131.472656 0.78125)"/>
    </g>
   </g>
   <g id="text_17">
    <g id="patch_9">
     <path d="M 471.542355 302.8599 
L 565.462355 302.8599 
Q 567.062355 302.8599 567.062355 301.2599 
L 567.062355 292.7799 
Q 567.062355 291.1799 565.462355 291.1799 
L 471.542355 291.1799 
Q 469.942355 291.1799 469.942355 292.7799 
L 469.942355 301.2599 
Q 469.942355 302.8599 471.542355 302.8599 
z
" style="fill: #ffffff; opacity: 0.85; stroke: #d94452; stroke-linejoin: miter"/>
    </g>
    <!-- I$_{p-p}$ = 8.47E-04 mA/m² -->
    <g style="fill: #d94452" transform="translate(471.542355 298.7799) scale(0.08 -0.08)">
     <defs>
      <path id="DejaVuSans-38" d="M 2034 2216 
Q 1584 2216 1326 1975 
Q 1069 1734 1069 1313 
Q 1069 891 1326 650 
Q 1584 409 2034 409 
Q 2484 409 2743 651 
Q 3003 894 3003 1313 
Q 3003 1734 2745 1975 
Q 2488 2216 2034 2216 
z
M 1403 2484 
Q 997 2584 770 2862 
Q 544 3141 544 3541 
Q 544 4100 942 4425 
Q 1341 4750 2034 4750 
Q 2731 4750 3128 4425 
Q 3525 4100 3525 3541 
Q 3525 3141 3298 2862 
Q 3072 2584 2669 2484 
Q 3125 2378 3379 2068 
Q 3634 1759 3634 1313 
Q 3634 634 3220 271 
Q 2806 -91 2034 -91 
Q 1263 -91 848 271 
Q 434 634 434 1313 
Q 434 1759 690 2068 
Q 947 2378 1403 2484 
z
M 1172 3481 
Q 1172 3119 1398 2916 
Q 1625 2713 2034 2713 
Q 2441 2713 2670 2916 
Q 2900 3119 2900 3481 
Q 2900 3844 2670 4047 
Q 2441 4250 2034 4250 
Q 1625 4250 1398 4047 
Q 1172 3844 1172 3481 
z
" transform="scale(0.015625)"/>
      <path id="DejaVuSans-37" d="M 525 4666 
L 3525 4666 
L 3525 4397 
L 1831 0 
L 1172 0 
L 2766 4134 
L 525 4134 
L 525 4666 
z
" transform="scale(0.015625)"/>
     </defs>
     <use xlink:href="#DejaVuSans-49" transform="translate(0 0.78125)"/>
     <use xlink:href="#DejaVuSans-Oblique-70" transform="translate(30.449219 -15.625) scale(0.7)"/>
     <use xlink:href="#DejaVuSans-2212" transform="translate(88.520508 -15.625) scale(0.7)"/>
     <use xlink:href="#DejaVuSans-Oblique-70" transform="translate(160.810547 -15.625) scale(0.7)"/>
     <use xlink:href="#DejaVuSans-20" transform="translate(207.978516 0.78125)"/>
     <use xlink:href="#DejaVuSans-3d" transform="translate(239.765625 0.78125)"/>
     <use xlink:href="#DejaVuSans-20" transform="translate(323.554688 0.78125)"/>
     <use xlink:href="#DejaVuSans-38" transform="translate(355.341797 0.78125)"/>
     <use xlink:href="#DejaVuSans-2e" transform="translate(418.964844 0.78125)"/>
     <use xlink:href="#DejaVuSans-34" transform="translate(450.751953 0.78125)"/>
     <use xlink:href="#DejaVuSans-37" transform="translate(514.375 0.78125)"/>
     <use xlink:href="#DejaVuSans-45" transform="translate(577.998047 0.78125)"/>
     <use xlink:href="#DejaVuSans-2d" transform="translate(641.181641 0.78125)"/>
     <use xlink:href="#DejaVuSans-30" transform="translate(677.265625 0.78125)"/>
     <use xlink:href="#DejaVuSans-34" transform="translate(740.888672 0.78125)"/>
     <use xlink:href="#DejaVuSans-20" transform="translate(804.511719 0.78125)"/>
     <use xlink:href="#DejaVuSans-6d" transform="translate(836.298828 0.78125)"/>
     <use xlink:href="#DejaVuSans-41" transform="translate(933.710938 0.78125)"/>
     <use xlink:href="#DejaVuSans-2f" transform="translate(1002.119141 0.78125)"/>
     <use xlink:href="#DejaVuSans-6d" transform="translate(1035.810547 0.78125)"/>
     <use xlink:href="#DejaVuSans-b2" transform="translate(1133.222656 0.78125)"/>
    </g>
   </g>
   <g id="text_18">
    <g id="patch_10">
     <path d="M 785.311009 302.8599 
L 878.991009 302.8599 
Q 880.591009 302.8599 880.591009 301.2599 
L 880.591009 292.7799 
Q 880.591009 291.1799 878.991009 291.1799 
L 785.311009 291.1799 
Q 783.711009 291.1799 783.711009 292.7799 
L 783.711009 301.2599 
Q 783.711009 302.8599 785.311009 302.8599 
z
" style="fill: #ffffff; opacity: 0.85; stroke: #d94452; stroke-linejoin: miter"/>
    </g>
    <!-- I$_{p-p}$ = 2.86E-03 mA/m² -->
    <g style="fill: #d94452" transform="translate(785.311009 298.7799) scale(0.08 -0.08)">
     <use xlink:href="#DejaVuSans-49" transform="translate(0 0.78125)"/>
     <use xlink:href="#DejaVuSans-Oblique-70" transform="translate(30.449219 -15.625) scale(0.7)"/>
     <use xlink:href="#DejaVuSans-2212" transform="translate(88.520508 -15.625) scale(0.7)"/>
     <use xlink:href="#DejaVuSans-Oblique-70" transform="translate(160.810547 -15.625) scale(0.7)"/>
     <use xlink:href="#DejaVuSans-20" transform="translate(207.978516 0.78125)"/>
     <use xlink:href="#DejaVuSans-3d" transform="translate(239.765625 0.78125)"/>
     <use xlink:href="#DejaVuSans-20" transform="translate(323.554688 0.78125)"/>
     <use xlink:href="#DejaVuSans-32" transform="translate(355.341797 0.78125)"/>
     <use xlink:href="#DejaVuSans-2e" transform="translate(418.964844 0.78125)"/>
     <use xlink:href="#DejaVuSans-38" transform="translate(448.126953 0.78125)"/>
     <use xlink:href="#DejaVuSans-36" transform="translate(511.75 0.78125)"/>
     <use xlink:href="#DejaVuSans-45" transform="translate(575.373047 0.78125)"/>
     <use xlink:href="#DejaVuSans-2d" transform="translate(638.556641 0.78125)"/>
     <use xlink:href="#DejaVuSans-30" transform="translate(674.640625 0.78125)"/>
     <use xlink:href="#DejaVuSans-33" transform="translate(738.263672 0.78125)"/>
     <use xlink:href="#DejaVuSans-20" transform="translate(801.886719 0.78125)"/>
     <use xlink:href="#DejaVuSans-6d" transform="translate(833.673828 0.78125)"/>
     <use xlink:href="#DejaVuSans-41" transform="translate(931.085938 0.78125)"/>
     <use xlink:href="#DejaVuSans-2f" transform="translate(999.494141 0.78125)"/>
     <use xlink:href="#DejaVuSans-6d" transform="translate(1033.185547 0.78125)"/>
     <use xlink:href="#DejaVuSans-b2" transform="translate(1130.597656 0.78125)"/>
    </g>
   </g>
   <g id="text_19">
    <!-- Short-Circuit Current — With MIC -->
    <g transform="translate(369.463605 19.3575) scale(0.16 -0.16)">
     <defs>
      <path id="DejaVuSans-Bold-53" d="M 3834 4519 
L 3834 3531 
Q 3450 3703 3084 3790 
Q 2719 3878 2394 3878 
Q 1963 3878 1756 3759 
Q 1550 3641 1550 3391 
Q 1550 3203 1689 3098 
Q 1828 2994 2194 2919 
L 2706 2816 
Q 3484 2659 3812 2340 
Q 4141 2022 4141 1434 
Q 4141 663 3683 286 
Q 3225 -91 2284 -91 
Q 1841 -91 1394 -6 
Q 947 78 500 244 
L 500 1259 
Q 947 1022 1364 901 
Q 1781 781 2169 781 
Q 2563 781 2772 912 
Q 2981 1044 2981 1288 
Q 2981 1506 2839 1625 
Q 2697 1744 2272 1838 
L 1806 1941 
Q 1106 2091 782 2419 
Q 459 2747 459 3303 
Q 459 4000 909 4375 
Q 1359 4750 2203 4750 
Q 2588 4750 2994 4692 
Q 3400 4634 3834 4519 
z
" transform="scale(0.015625)"/>
      <path id="DejaVuSans-Bold-68" d="M 4056 2131 
L 4056 0 
L 2931 0 
L 2931 347 
L 2931 1625 
Q 2931 2084 2911 2256 
Q 2891 2428 2841 2509 
Q 2775 2619 2662 2680 
Q 2550 2741 2406 2741 
Q 2056 2741 1856 2470 
Q 1656 2200 1656 1722 
L 1656 0 
L 538 0 
L 538 4863 
L 1656 4863 
L 1656 2988 
Q 1909 3294 2193 3439 
Q 2478 3584 2822 3584 
Q 3428 3584 3742 3212 
Q 4056 2841 4056 2131 
z
" transform="scale(0.015625)"/>
      <path id="DejaVuSans-Bold-6f" d="M 2203 2784 
Q 1831 2784 1636 2517 
Q 1441 2250 1441 1747 
Q 1441 1244 1636 976 
Q 1831 709 2203 709 
Q 2569 709 2762 976 
Q 2956 1244 2956 1747 
Q 2956 2250 2762 2517 
Q 2569 2784 2203 2784 
z
M 2203 3584 
Q 3106 3584 3614 3096 
Q 4122 2609 4122 1747 
Q 4122 884 3614 396 
Q 3106 -91 2203 -91 
Q 1297 -91 786 396 
Q 275 884 275 1747 
Q 275 2609 786 3096 
Q 1297 3584 2203 3584 
z
" transform="scale(0.015625)"/>
      <path id="DejaVuSans-Bold-72" d="M 3138 2547 
Q 2991 2616 2845 2648 
Q 2700 2681 2553 2681 
Q 2122 2681 1889 2404 
Q 1656 2128 1656 1613 
L 1656 0 
L 538 0 
L 538 3500 
L 1656 3500 
L 1656 2925 
Q 1872 3269 2151 3426 
Q 2431 3584 2822 3584 
Q 2878 3584 2943 3579 
Q 3009 3575 3134 3559 
L 3138 2547 
z
" transform="scale(0.015625)"/>
      <path id="DejaVuSans-Bold-74" d="M 1759 4494 
L 1759 3500 
L 2913 3500 
L 2913 2700 
L 1759 2700 
L 1759 1216 
Q 1759 972 1856 886 
Q 1953 800 2241 800 
L 2816 800 
L 2816 0 
L 1856 0 
Q 1194 0 917 276 
Q 641 553 641 1216 
L 641 2700 
L 84 2700 
L 84 3500 
L 641 3500 
L 641 4494 
L 1759 4494 
z
" transform="scale(0.015625)"/>
      <path id="DejaVuSans-Bold-2d" d="M 347 2297 
L 2309 2297 
L 2309 1388 
L 347 1388 
L 347 2297 
z
" transform="scale(0.015625)"/>
      <path id="DejaVuSans-Bold-43" d="M 4288 256 
Q 3956 84 3597 -3 
Q 3238 -91 2847 -91 
Q 1681 -91 1000 561 
Q 319 1213 319 2328 
Q 319 3447 1000 4098 
Q 1681 4750 2847 4750 
Q 3238 4750 3597 4662 
Q 3956 4575 4288 4403 
L 4288 3438 
Q 3953 3666 3628 3772 
Q 3303 3878 2944 3878 
Q 2300 3878 1931 3465 
Q 1563 3053 1563 2328 
Q 1563 1606 1931 1193 
Q 2300 781 2944 781 
Q 3303 781 3628 887 
Q 3953 994 4288 1222 
L 4288 256 
z
" transform="scale(0.015625)"/>
      <path id="DejaVuSans-Bold-63" d="M 3366 3391 
L 3366 2478 
Q 3138 2634 2908 2709 
Q 2678 2784 2431 2784 
Q 1963 2784 1702 2511 
Q 1441 2238 1441 1747 
Q 1441 1256 1702 982 
Q 1963 709 2431 709 
Q 2694 709 2930 787 
Q 3166 866 3366 1019 
L 3366 103 
Q 3103 6 2833 -42 
Q 2563 -91 2291 -91 
Q 1344 -91 809 395 
Q 275 881 275 1747 
Q 275 2613 809 3098 
Q 1344 3584 2291 3584 
Q 2566 3584 2833 3536 
Q 3100 3488 3366 3391 
z
" transform="scale(0.015625)"/>
      <path id="DejaVuSans-Bold-75" d="M 500 1363 
L 500 3500 
L 1625 3500 
L 1625 3150 
Q 1625 2866 1622 2436 
Q 1619 2006 1619 1863 
Q 1619 1441 1641 1255 
Q 1663 1069 1716 984 
Q 1784 875 1895 815 
Q 2006 756 2150 756 
Q 2500 756 2700 1025 
Q 2900 1294 2900 1772 
L 2900 3500 
L 4019 3500 
L 4019 0 
L 2900 0 
L 2900 506 
Q 2647 200 2364 54 
Q 2081 -91 1741 -91 
Q 1134 -91 817 281 
Q 500 653 500 1363 
z
" transform="scale(0.015625)"/>
      <path id="DejaVuSans-Bold-6e" d="M 4056 2131 
L 4056 0 
L 2931 0 
L 2931 347 
L 2931 1631 
Q 2931 2084 2911 2256 
Q 2891 2428 2841 2509 
Q 2775 2619 2662 2680 
Q 2550 2741 2406 2741 
Q 2056 2741 1856 2470 
Q 1656 2200 1656 1722 
L 1656 0 
L 538 0 
L 538 3500 
L 1656 3500 
L 1656 2988 
Q 1909 3294 2193 3439 
Q 2478 3584 2822 3584 
Q 3428 3584 3742 3212 
Q 4056 2841 4056 2131 
z
" transform="scale(0.015625)"/>
      <path id="DejaVuSans-Bold-2014" d="M 344 2156 
L 6056 2156 
L 6056 1350 
L 344 1350 
L 344 2156 
z
" transform="scale(0.015625)"/>
      <path id="DejaVuSans-Bold-57" d="M 191 4666 
L 1344 4666 
L 2150 1275 
L 2950 4666 
L 4109 4666 
L 4909 1275 
L 5716 4666 
L 6859 4666 
L 5759 0 
L 4372 0 
L 3525 3547 
L 2688 0 
L 1300 0 
L 191 4666 
z
" transform="scale(0.015625)"/>
      <path id="DejaVuSans-Bold-4d" d="M 588 4666 
L 2119 4666 
L 3181 2169 
L 4250 4666 
L 5778 4666 
L 5778 0 
L 4641 0 
L 4641 3413 
L 3566 897 
L 2803 897 
L 1728 3413 
L 1728 0 
L 588 0 
L 588 4666 
z
" transform="scale(0.015625)"/>
     </defs>
     <use xlink:href="#DejaVuSans-Bold-53"/>
     <use xlink:href="#DejaVuSans-Bold-68" transform="translate(72.021484 0)"/>
     <use xlink:href="#DejaVuSans-Bold-6f" transform="translate(143.212891 0)"/>
     <use xlink:href="#DejaVuSans-Bold-72" transform="translate(211.914062 0)"/>
     <use xlink:href="#DejaVuSans-Bold-74" transform="translate(261.230469 0)"/>
     <use xlink:href="#DejaVuSans-Bold-2d" transform="translate(309.033203 0)"/>
     <use xlink:href="#DejaVuSans-Bold-43" transform="translate(350.537109 0)"/>
     <use xlink:href="#DejaVuSans-Bold-69" transform="translate(423.925781 0)"/>
     <use xlink:href="#DejaVuSans-Bold-72" transform="translate(458.203125 0)"/>
     <use xlink:href="#DejaVuSans-Bold-63" transform="translate(507.519531 0)"/>
     <use xlink:href="#DejaVuSans-Bold-75" transform="translate(566.796875 0)"/>
     <use xlink:href="#DejaVuSans-Bold-69" transform="translate(637.988281 0)"/>
     <use xlink:href="#DejaVuSans-Bold-74" transform="translate(672.265625 0)"/>
     <use xlink:href="#DejaVuSans-Bold-20" transform="translate(720.068359 0)"/>
     <use xlink:href="#DejaVuSans-Bold-43" transform="translate(754.882812 0)"/>
     <use xlink:href="#DejaVuSans-Bold-75" transform="translate(828.271484 0)"/>
     <use xlink:href="#DejaVuSans-Bold-72" transform="translate(899.462891 0)"/>
     <use xlink:href="#DejaVuSans-Bold-72" transform="translate(948.779297 0)"/>
     <use xlink:href="#DejaVuSans-Bold-65" transform="translate(998.095703 0)"/>
     <use xlink:href="#DejaVuSans-Bold-6e" transform="translate(1065.917969 0)"/>
     <use xlink:href="#DejaVuSans-Bold-74" transform="translate(1137.109375 0)"/>
     <use xlink:href="#DejaVuSans-Bold-20" transform="translate(1184.912109 0)"/>
     <use xlink:href="#DejaVuSans-Bold-2014" transform="translate(1219.726562 0)"/>
     <use xlink:href="#DejaVuSans-Bold-20" transform="translate(1319.726562 0)"/>
     <use xlink:href="#DejaVuSans-Bold-57" transform="translate(1354.541016 0)"/>
     <use xlink:href="#DejaVuSans-Bold-69" transform="translate(1464.84375 0)"/>
     <use xlink:href="#DejaVuSans-Bold-74" transform="translate(1499.121094 0)"/>
     <use xlink:href="#DejaVuSans-Bold-68" transform="translate(1546.923828 0)"/>
     <use xlink:href="#DejaVuSans-Bold-20" transform="translate(1618.115234 0)"/>
     <use xlink:href="#DejaVuSans-Bold-4d" transform="translate(1652.929688 0)"/>
     <use xlink:href="#DejaVuSans-Bold-49" transform="translate(1752.441406 0)"/>
     <use xlink:href="#DejaVuSans-Bold-43" transform="translate(1789.648438 0)"/>
    </g>
   </g>
   <g id="text_20">
    <!-- 1 Hz -->
    <g style="fill: #4a90d9" transform="translate(188.845421 55.253069) scale(0.13 -0.13)">
     <defs>
      <path id="DejaVuSans-Bold-31" d="M 750 831 
L 1813 831 
L 1813 3847 
L 722 3622 
L 722 4441 
L 1806 4666 
L 2950 4666 
L 2950 831 
L 4013 831 
L 4013 0 
L 750 0 
L 750 831 
z
" transform="scale(0.015625)"/>
      <path id="DejaVuSans-Bold-48" d="M 588 4666 
L 1791 4666 
L 1791 2888 
L 3566 2888 
L 3566 4666 
L 4769 4666 
L 4769 0 
L 3566 0 
L 3566 1978 
L 1791 1978 
L 1791 0 
L 588 0 
L 588 4666 
z
" transform="scale(0.015625)"/>
      <path id="DejaVuSans-Bold-7a" d="M 366 3500 
L 3419 3500 
L 3419 2719 
L 1575 800 
L 3419 800 
L 3419 0 
L 288 0 
L 288 781 
L 2131 2700 
L 366 2700 
L 366 3500 
z
" transform="scale(0.015625)"/>
     </defs>
     <use xlink:href="#DejaVuSans-Bold-31"/>
     <use xlink:href="#DejaVuSans-Bold-20" transform="translate(69.580078 0)"/>
     <use xlink:href="#DejaVuSans-Bold-48" transform="translate(104.394531 0)"/>
     <use xlink:href="#DejaVuSans-Bold-7a" transform="translate(188.085938 0)"/>
    </g>
   </g>
   <g id="text_21">
    <!-- 2.5 Hz -->
    <g style="fill: #5cb85c" transform="translate(495.502512 55.253069) scale(0.13 -0.13)">
     <defs>
      <path id="DejaVuSans-Bold-32" d="M 1844 884 
L 3897 884 
L 3897 0 
L 506 0 
L 506 884 
L 2209 2388 
Q 2438 2594 2547 2791 
Q 2656 2988 2656 3200 
Q 2656 3528 2436 3728 
Q 2216 3928 1850 3928 
Q 1569 3928 1234 3808 
Q 900 3688 519 3450 
L 519 4475 
Q 925 4609 1322 4679 
Q 1719 4750 2100 4750 
Q 2938 4750 3402 4381 
Q 3866 4013 3866 3353 
Q 3866 2972 3669 2642 
Q 3472 2313 2841 1759 
L 1844 884 
z
" transform="scale(0.015625)"/>
      <path id="DejaVuSans-Bold-2e" d="M 653 1209 
L 1778 1209 
L 1778 0 
L 653 0 
L 653 1209 
z
" transform="scale(0.015625)"/>
      <path id="DejaVuSans-Bold-35" d="M 678 4666 
L 3669 4666 
L 3669 3781 
L 1638 3781 
L 1638 3059 
Q 1775 3097 1914 3117 
Q 2053 3138 2203 3138 
Q 3056 3138 3531 2711 
Q 4006 2284 4006 1522 
Q 4006 766 3489 337 
Q 2972 -91 2053 -91 
Q 1656 -91 1267 -14 
Q 878 63 494 219 
L 494 1166 
Q 875 947 1217 837 
Q 1559 728 1863 728 
Q 2300 728 2551 942 
Q 2803 1156 2803 1522 
Q 2803 1891 2551 2103 
Q 2300 2316 1863 2316 
Q 1603 2316 1309 2248 
Q 1016 2181 678 2041 
L 678 4666 
z
" transform="scale(0.015625)"/>
     </defs>
     <use xlink:href="#DejaVuSans-Bold-32"/>
     <use xlink:href="#DejaVuSans-Bold-2e" transform="translate(69.580078 0)"/>
     <use xlink:href="#DejaVuSans-Bold-35" transform="translate(107.568359 0)"/>
     <use xlink:href="#DejaVuSans-Bold-20" transform="translate(177.148438 0)"/>
     <use xlink:href="#DejaVuSans-Bold-48" transform="translate(211.962891 0)"/>
     <use xlink:href="#DejaVuSans-Bold-7a" transform="translate(295.654297 0)"/>
    </g>
   </g>
   <g id="text_22">
    <!-- 5 Hz -->
    <g style="fill: #f0ad4e" transform="translate(816.142728 55.253069) scale(0.13 -0.13)">
     <use xlink:href="#DejaVuSans-Bold-35"/>
     <use xlink:href="#DejaVuSans-Bold-20" transform="translate(69.580078 0)"/>
     <use xlink:href="#DejaVuSans-Bold-48" transform="translate(104.394531 0)"/>
     <use xlink:href="#DejaVuSans-Bold-7a" transform="translate(188.085938 0)"/>
    </g>
   </g>
  </g>
 </g>
 <defs>
  <clipPath id="p23f2d2f46b">
   <rect x="48.029375" y="34.3575" width="940.945961" height="275.44"/>
  </clipPath>
 </defs>
</svg>
