<?xml version="1.0" encoding="utf-8" standalone="no"?>
<!DOCTYPE svg PUBLIC "-//W3C//DTD SVG 1.1//EN"
  "http://www.w3.org/Graphics/SVG/1.1/DTD/svg11.dtd">
<svg xmlns:xlink="http://www.w3.org/1999/xlink" width="711.685336pt" height="349.93775pt" viewBox="0 0 711.685336 349.93775" xmlns="http://www.w3.org/2000/svg" version="1.1">
 <metadata>
  <rdf:RDF xmlns:dc="http://purl.org/dc/elements/1.1/" xmlns:cc="http://creativecommons.org/ns#" xmlns:rdf="http://www.w3.org/1999/02/22-rdf-syntax-ns#">
   <cc:Work>
    <dc:type rdf:resource="http://purl.org/dc/dcmitype/StillImage"/>
    <dc:date>2026-04-26T16:29:16.748246</dc:date>
    <dc:format>image/svg+xml</dc:format>
    <dc:creator>
     <cc:Agent>
      <dc:title>Matplotlib v3.10.8, https://matplotlib.org/</dc:title>
     </cc:Agent>
    </dc:creator>
   </cc:Work>
  </rdf:RDF>
 </metadata>
 <defs>
  <style type="text/css">*{stroke-linejoin: round; stroke-linecap: butt}</style>
 </defs>
 <g id="figure_1">
  <g id="patch_1">
   <path d="M 0 349.93775 
L 711.685336 349.93775 
L 711.685336 0 
L 0 0 
z
" style="fill: #ffffff"/>
  </g>
  <g id="axes_1">
   <g id="patch_2">
    <path d="M 48.029375 307.542437 
L 704.485336 307.542437 
L 704.485336 17.798437 
L 48.029375 17.798437 
z
" style="fill: #ffffff"/>
   </g>
   <g id="patch_3">
    <path d="M 48.029375 307.542437 
L 376.257355 307.542437 
L 376.257355 17.798437 
L 48.029375 17.798437 
z
" clip-path="url(#pc7786962f2)" style="fill: #cccccc; opacity: 0.12; stroke: #cccccc; stroke-linejoin: miter"/>
   </g>
   <g id="patch_4">
    <path d="M 376.257355 307.542437 
L 704.485336 307.542437 
L 704.485336 17.798437 
L 376.257355 17.798437 
z
" clip-path="url(#pc7786962f2)" style="fill: #d94452; opacity: 0.06; stroke: #d94452; stroke-linejoin: miter"/>
   </g>
   <g id="line2d_1">
    <path d="M 376.257355 307.542437 
L 376.257355 17.798437 
" clip-path="url(#pc7786962f2)" style="fill: none; stroke-dasharray: 3.7,1.6; stroke-dashoffset: 0; stroke: #999999"/>
   </g>
   <g id="matplotlib.axis_1">
    <g id="xtick_1">
     <g id="line2d_2">
      <defs>
       <path id="m53c41414eb" d="M 0 0 
L 0 3.5 
" style="stroke: #000000; stroke-width: 0.8"/>
      </defs>
      <g>
       <use xlink:href="#m53c41414eb" x="48.029375" y="307.542437" style="stroke: #000000; stroke-width: 0.8"/>
      </g>
     </g>
     <g id="text_1">
      <!-- 0.0 -->
      <g transform="translate(39.282656 322.900719) scale(0.11 -0.11)">
       <defs>
        <path id="DejaVuSans-30" d="M 2034 4250 
Q 1547 4250 1301 3770 
Q 1056 3291 1056 2328 
Q 1056 1369 1301 889 
Q 1547 409 2034 409 
Q 2525 409 2770 889 
Q 3016 1369 3016 2328 
Q 3016 3291 2770 3770 
Q 2525 4250 2034 4250 
z
M 2034 4750 
Q 2819 4750 3233 4129 
Q 3647 3509 3647 2328 
Q 3647 1150 3233 529 
Q 2819 -91 2034 -91 
Q 1250 -91 836 529 
Q 422 1150 422 2328 
Q 422 3509 836 4129 
Q 1250 4750 2034 4750 
z
" transform="scale(0.015625)"/>
        <path id="DejaVuSans-2e" d="M 684 794 
L 1344 794 
L 1344 0 
L 684 0 
L 684 794 
z
" transform="scale(0.015625)"/>
       </defs>
       <use xlink:href="#DejaVuSans-30"/>
       <use xlink:href="#DejaVuSans-2e" transform="translate(63.623047 0)"/>
       <use xlink:href="#DejaVuSans-30" transform="translate(95.410156 0)"/>
      </g>
     </g>
    </g>
    <g id="xtick_2">
     <g id="line2d_3">
      <g>
       <use xlink:href="#m53c41414eb" x="130.127419" y="307.542437" style="stroke: #000000; stroke-width: 0.8"/>
      </g>
     </g>
     <g id="text_2">
      <!-- 0.5 -->
      <g transform="translate(121.3807 322.900719) scale(0.11 -0.11)">
       <defs>
        <path id="DejaVuSans-35" d="M 691 4666 
L 3169 4666 
L 3169 4134 
L 1269 4134 
L 1269 2991 
Q 1406 3038 1543 3061 
Q 1681 3084 1819 3084 
Q 2600 3084 3056 2656 
Q 3513 2228 3513 1497 
Q 3513 744 3044 326 
Q 2575 -91 1722 -91 
Q 1428 -91 1123 -41 
Q 819 9 494 109 
L 494 744 
Q 775 591 1075 516 
Q 1375 441 1709 441 
Q 2250 441 2565 725 
Q 2881 1009 2881 1497 
Q 2881 1984 2565 2268 
Q 2250 2553 1709 2553 
Q 1456 2553 1204 2497 
Q 953 2441 691 2322 
L 691 4666 
z
" transform="scale(0.015625)"/>
       </defs>
       <use xlink:href="#DejaVuSans-30"/>
       <use xlink:href="#DejaVuSans-2e" transform="translate(63.623047 0)"/>
       <use xlink:href="#DejaVuSans-35" transform="translate(95.410156 0)"/>
      </g>
     </g>
    </g>
    <g id="xtick_3">
     <g id="line2d_4">
      <g>
       <use xlink:href="#m53c41414eb" x="212.225463" y="307.542437" style="stroke: #000000; stroke-width: 0.8"/>
      </g>
     </g>
     <g id="text_3">
      <!-- 1.0 -->
      <g transform="translate(203.478745 322.900719) scale(0.11 -0.11)">
       <defs>
        <path id="DejaVuSans-31" d="M 794 531 
L 1825 531 
L 1825 4091 
L 703 3866 
L 703 4441 
L 1819 4666 
L 2450 4666 
L 2450 531 
L 3481 531 
L 3481 0 
L 794 0 
L 794 531 
z
" transform="scale(0.015625)"/>
       </defs>
       <use xlink:href="#DejaVuSans-31"/>
       <use xlink:href="#DejaVuSans-2e" transform="translate(63.623047 0)"/>
       <use xlink:href="#DejaVuSans-30" transform="translate(95.410156 0)"/>
      </g>
     </g>
    </g>
    <g id="xtick_4">
     <g id="line2d_5">
      <g>
       <use xlink:href="#m53c41414eb" x="294.323507" y="307.542437" style="stroke: #000000; stroke-width: 0.8"/>
      </g>
     </g>
     <g id="text_4">
      <!-- 1.5 -->
      <g transform="translate(285.576789 322.900719) scale(0.11 -0.11)">
       <use xlink:href="#DejaVuSans-31"/>
       <use xlink:href="#DejaVuSans-2e" transform="translate(63.623047 0)"/>
       <use xlink:href="#DejaVuSans-35" transform="translate(95.410156 0)"/>
      </g>
     </g>
    </g>
    <g id="xtick_5">
     <g id="line2d_6">
      <g>
       <use xlink:href="#m53c41414eb" x="376.421552" y="307.542437" style="stroke: #000000; stroke-width: 0.8"/>
      </g>
     </g>
     <g id="text_5">
      <!-- 2.0 -->
      <g transform="translate(367.674833 322.900719) scale(0.11 -0.11)">
       <defs>
        <path id="DejaVuSans-32" d="M 1228 531 
L 3431 531 
L 3431 0 
L 469 0 
L 469 531 
Q 828 903 1448 1529 
Q 2069 2156 2228 2338 
Q 2531 2678 2651 2914 
Q 2772 3150 2772 3378 
Q 2772 3750 2511 3984 
Q 2250 4219 1831 4219 
Q 1534 4219 1204 4116 
Q 875 4013 500 3803 
L 500 4441 
Q 881 4594 1212 4672 
Q 1544 4750 1819 4750 
Q 2544 4750 2975 4387 
Q 3406 4025 3406 3419 
Q 3406 3131 3298 2873 
Q 3191 2616 2906 2266 
Q 2828 2175 2409 1742 
Q 1991 1309 1228 531 
z
" transform="scale(0.015625)"/>
       </defs>
       <use xlink:href="#DejaVuSans-32"/>
       <use xlink:href="#DejaVuSans-2e" transform="translate(63.623047 0)"/>
       <use xlink:href="#DejaVuSans-30" transform="translate(95.410156 0)"/>
      </g>
     </g>
    </g>
    <g id="xtick_6">
     <g id="line2d_7">
      <g>
       <use xlink:href="#m53c41414eb" x="458.519596" y="307.542437" style="stroke: #000000; stroke-width: 0.8"/>
      </g>
     </g>
     <g id="text_6">
      <!-- 2.5 -->
      <g transform="translate(449.772877 322.900719) scale(0.11 -0.11)">
       <use xlink:href="#DejaVuSans-32"/>
       <use xlink:href="#DejaVuSans-2e" transform="translate(63.623047 0)"/>
       <use xlink:href="#DejaVuSans-35" transform="translate(95.410156 0)"/>
      </g>
     </g>
    </g>
    <g id="xtick_7">
     <g id="line2d_8">
      <g>
       <use xlink:href="#m53c41414eb" x="540.61764" y="307.542437" style="stroke: #000000; stroke-width: 0.8"/>
      </g>
     </g>
     <g id="text_7">
      <!-- 3.0 -->
      <g transform="translate(531.870921 322.900719) scale(0.11 -0.11)">
       <defs>
        <path id="DejaVuSans-33" d="M 2597 2516 
Q 3050 2419 3304 2112 
Q 3559 1806 3559 1356 
Q 3559 666 3084 287 
Q 2609 -91 1734 -91 
Q 1441 -91 1130 -33 
Q 819 25 488 141 
L 488 750 
Q 750 597 1062 519 
Q 1375 441 1716 441 
Q 2309 441 2620 675 
Q 2931 909 2931 1356 
Q 2931 1769 2642 2001 
Q 2353 2234 1838 2234 
L 1294 2234 
L 1294 2753 
L 1863 2753 
Q 2328 2753 2575 2939 
Q 2822 3125 2822 3475 
Q 2822 3834 2567 4026 
Q 2313 4219 1838 4219 
Q 1578 4219 1281 4162 
Q 984 4106 628 3988 
L 628 4550 
Q 988 4650 1302 4700 
Q 1616 4750 1894 4750 
Q 2613 4750 3031 4423 
Q 3450 4097 3450 3541 
Q 3450 3153 3228 2886 
Q 3006 2619 2597 2516 
z
" transform="scale(0.015625)"/>
       </defs>
       <use xlink:href="#DejaVuSans-33"/>
       <use xlink:href="#DejaVuSans-2e" transform="translate(63.623047 0)"/>
       <use xlink:href="#DejaVuSans-30" transform="translate(95.410156 0)"/>
      </g>
     </g>
    </g>
    <g id="xtick_8">
     <g id="line2d_9">
      <g>
       <use xlink:href="#m53c41414eb" x="622.715684" y="307.542437" style="stroke: #000000; stroke-width: 0.8"/>
      </g>
     </g>
     <g id="text_8">
      <!-- 3.5 -->
      <g transform="translate(613.968965 322.900719) scale(0.11 -0.11)">
       <use xlink:href="#DejaVuSans-33"/>
       <use xlink:href="#DejaVuSans-2e" transform="translate(63.623047 0)"/>
       <use xlink:href="#DejaVuSans-35" transform="translate(95.410156 0)"/>
      </g>
     </g>
    </g>
    <g id="text_9">
     <!-- Time (s) -->
     <g transform="translate(344.038762 339.826187) scale(0.14 -0.14)">
      <defs>
       <path id="DejaVuSans-Bold-54" d="M 31 4666 
L 4331 4666 
L 4331 3756 
L 2784 3756 
L 2784 0 
L 1581 0 
L 1581 3756 
L 31 3756 
L 31 4666 
z
" transform="scale(0.015625)"/>
       <path id="DejaVuSans-Bold-69" d="M 538 3500 
L 1656 3500 
L 1656 0 
L 538 0 
L 538 3500 
z
M 538 4863 
L 1656 4863 
L 1656 3950 
L 538 3950 
L 538 4863 
z
" transform="scale(0.015625)"/>
       <path id="DejaVuSans-Bold-6d" d="M 3781 2919 
Q 3994 3244 4286 3414 
Q 4578 3584 4928 3584 
Q 5531 3584 5847 3212 
Q 6163 2841 6163 2131 
L 6163 0 
L 5038 0 
L 5038 1825 
Q 5041 1866 5042 1909 
Q 5044 1953 5044 2034 
Q 5044 2406 4934 2573 
Q 4825 2741 4581 2741 
Q 4263 2741 4089 2478 
Q 3916 2216 3909 1719 
L 3909 0 
L 2784 0 
L 2784 1825 
Q 2784 2406 2684 2573 
Q 2584 2741 2328 2741 
Q 2006 2741 1831 2477 
Q 1656 2213 1656 1722 
L 1656 0 
L 531 0 
L 531 3500 
L 1656 3500 
L 1656 2988 
Q 1863 3284 2130 3434 
Q 2397 3584 2719 3584 
Q 3081 3584 3359 3409 
Q 3638 3234 3781 2919 
z
" transform="scale(0.015625)"/>
       <path id="DejaVuSans-Bold-65" d="M 4031 1759 
L 4031 1441 
L 1416 1441 
Q 1456 1047 1700 850 
Q 1944 653 2381 653 
Q 2734 653 3104 758 
Q 3475 863 3866 1075 
L 3866 213 
Q 3469 63 3072 -14 
Q 2675 -91 2278 -91 
Q 1328 -91 801 392 
Q 275 875 275 1747 
Q 275 2603 792 3093 
Q 1309 3584 2216 3584 
Q 3041 3584 3536 3087 
Q 4031 2591 4031 1759 
z
M 2881 2131 
Q 2881 2450 2695 2645 
Q 2509 2841 2209 2841 
Q 1884 2841 1681 2658 
Q 1478 2475 1428 2131 
L 2881 2131 
z
" transform="scale(0.015625)"/>
       <path id="DejaVuSans-Bold-20" transform="scale(0.015625)"/>
       <path id="DejaVuSans-Bold-28" d="M 2413 -844 
L 1484 -844 
Q 1006 -72 778 623 
Q 550 1319 550 2003 
Q 550 2688 779 3389 
Q 1009 4091 1484 4856 
L 2413 4856 
Q 2013 4116 1813 3408 
Q 1613 2700 1613 2009 
Q 1613 1319 1811 609 
Q 2009 -100 2413 -844 
z
" transform="scale(0.015625)"/>
       <path id="DejaVuSans-Bold-73" d="M 3272 3391 
L 3272 2541 
Q 2913 2691 2578 2766 
Q 2244 2841 1947 2841 
Q 1628 2841 1473 2761 
Q 1319 2681 1319 2516 
Q 1319 2381 1436 2309 
Q 1553 2238 1856 2203 
L 2053 2175 
Q 2913 2066 3209 1816 
Q 3506 1566 3506 1031 
Q 3506 472 3093 190 
Q 2681 -91 1863 -91 
Q 1516 -91 1145 -36 
Q 775 19 384 128 
L 384 978 
Q 719 816 1070 734 
Q 1422 653 1784 653 
Q 2113 653 2278 743 
Q 2444 834 2444 1013 
Q 2444 1163 2330 1236 
Q 2216 1309 1875 1350 
L 1678 1375 
Q 931 1469 631 1722 
Q 331 1975 331 2491 
Q 331 3047 712 3315 
Q 1094 3584 1881 3584 
Q 2191 3584 2531 3537 
Q 2872 3491 3272 3391 
z
" transform="scale(0.015625)"/>
       <path id="DejaVuSans-Bold-29" d="M 513 -844 
Q 913 -100 1113 609 
Q 1313 1319 1313 2009 
Q 1313 2700 1113 3408 
Q 913 4116 513 4856 
L 1441 4856 
Q 1916 4091 2145 3389 
Q 2375 2688 2375 2003 
Q 2375 1319 2147 623 
Q 1919 -72 1441 -844 
L 513 -844 
z
" transform="scale(0.015625)"/>
      </defs>
      <use xlink:href="#DejaVuSans-Bold-54"/>
      <use xlink:href="#DejaVuSans-Bold-69" transform="translate(68.212891 0)"/>
      <use xlink:href="#DejaVuSans-Bold-6d" transform="translate(102.490234 0)"/>
      <use xlink:href="#DejaVuSans-Bold-65" transform="translate(206.689453 0)"/>
      <use xlink:href="#DejaVuSans-Bold-20" transform="translate(274.511719 0)"/>
      <use xlink:href="#DejaVuSans-Bold-28" transform="translate(309.326172 0)"/>
      <use xlink:href="#DejaVuSans-Bold-73" transform="translate(355.029297 0)"/>
      <use xlink:href="#DejaVuSans-Bold-29" transform="translate(414.550781 0)"/>
     </g>
    </g>
   </g>
   <g id="matplotlib.axis_2">
    <g id="ytick_1">
     <g id="line2d_10">
      <defs>
       <path id="mc466bcb7b2" d="M 0 0 
L -3.5 0 
" style="stroke: #000000; stroke-width: 0.8"/>
      </defs>
      <g>
       <use xlink:href="#mc466bcb7b2" x="48.029375" y="264.051956" style="stroke: #000000; stroke-width: 0.8"/>
      </g>
     </g>
     <g id="text_10">
      <!-- $\mathdefault{−2}$ -->
      <g transform="translate(24.749375 268.231097) scale(0.11 -0.11)">
       <defs>
        <path id="DejaVuSans-2212" d="M 678 2272 
L 4684 2272 
L 4684 1741 
L 678 1741 
L 678 2272 
z
" transform="scale(0.015625)"/>
       </defs>
       <use xlink:href="#DejaVuSans-2212" transform="translate(0 0.78125)"/>
       <use xlink:href="#DejaVuSans-32" transform="translate(83.789062 0.78125)"/>
      </g>
     </g>
    </g>
    <g id="ytick_2">
     <g id="line2d_11">
      <g>
       <use xlink:href="#mc466bcb7b2" x="48.029375" y="213.361197" style="stroke: #000000; stroke-width: 0.8"/>
      </g>
     </g>
     <g id="text_11">
      <!-- $\mathdefault{−1}$ -->
      <g transform="translate(24.749375 217.540338) scale(0.11 -0.11)">
       <use xlink:href="#DejaVuSans-2212" transform="translate(0 0.09375)"/>
       <use xlink:href="#DejaVuSans-31" transform="translate(83.789062 0.09375)"/>
      </g>
     </g>
    </g>
    <g id="ytick_3">
     <g id="line2d_12">
      <g>
       <use xlink:href="#mc466bcb7b2" x="48.029375" y="162.670437" style="stroke: #000000; stroke-width: 0.8"/>
      </g>
     </g>
     <g id="text_12">
      <!-- $\mathdefault{0}$ -->
      <g transform="translate(33.989375 166.849578) scale(0.11 -0.11)">
       <use xlink:href="#DejaVuSans-30" transform="translate(0 0.78125)"/>
      </g>
     </g>
    </g>
    <g id="ytick_4">
     <g id="line2d_13">
      <g>
       <use xlink:href="#mc466bcb7b2" x="48.029375" y="111.979678" style="stroke: #000000; stroke-width: 0.8"/>
      </g>
     </g>
     <g id="text_13">
      <!-- $\mathdefault{1}$ -->
      <g transform="translate(33.989375 116.158819) scale(0.11 -0.11)">
       <use xlink:href="#DejaVuSans-31" transform="translate(0 0.09375)"/>
      </g>
     </g>
    </g>
    <g id="ytick_5">
     <g id="line2d_14">
      <g>
       <use xlink:href="#mc466bcb7b2" x="48.029375" y="61.288919" style="stroke: #000000; stroke-width: 0.8"/>
      </g>
     </g>
     <g id="text_14">
      <!-- $\mathdefault{2}$ -->
      <g transform="translate(33.989375 65.468059) scale(0.11 -0.11)">
       <use xlink:href="#DejaVuSans-32" transform="translate(0 0.78125)"/>
      </g>
     </g>
    </g>
    <g id="text_15">
     <!-- I$_{sc}$ (mA/m²) -->
     <g transform="translate(17.837812 205.300437) rotate(-90) scale(0.14 -0.14)">
      <defs>
       <path id="DejaVuSans-Bold-49" d="M 588 4666 
L 1791 4666 
L 1791 0 
L 588 0 
L 588 4666 
z
" transform="scale(0.015625)"/>
       <path id="DejaVuSans-Oblique-73" d="M 3200 3397 
L 3091 2853 
Q 2863 2978 2609 3040 
Q 2356 3103 2088 3103 
Q 1634 3103 1373 2948 
Q 1113 2794 1113 2528 
Q 1113 2219 1719 2053 
Q 1766 2041 1788 2034 
L 1972 1978 
Q 2547 1819 2739 1644 
Q 2931 1469 2931 1166 
Q 2931 609 2489 259 
Q 2047 -91 1331 -91 
Q 1053 -91 747 -37 
Q 441 16 72 128 
L 184 722 
Q 500 559 806 475 
Q 1113 391 1394 391 
Q 1816 391 2080 572 
Q 2344 753 2344 1031 
Q 2344 1331 1650 1516 
L 1591 1531 
L 1394 1581 
Q 956 1697 753 1886 
Q 550 2075 550 2369 
Q 550 2928 970 3256 
Q 1391 3584 2113 3584 
Q 2397 3584 2667 3537 
Q 2938 3491 3200 3397 
z
" transform="scale(0.015625)"/>
       <path id="DejaVuSans-Oblique-63" d="M 3431 3366 
L 3316 2797 
Q 3109 2947 2876 3022 
Q 2644 3097 2394 3097 
Q 2119 3097 1870 3000 
Q 1622 2903 1453 2725 
Q 1184 2453 1037 2087 
Q 891 1722 891 1331 
Q 891 859 1127 628 
Q 1363 397 1844 397 
Q 2081 397 2348 469 
Q 2616 541 2906 684 
L 2797 116 
Q 2547 13 2283 -39 
Q 2019 -91 1741 -91 
Q 1044 -91 669 257 
Q 294 606 294 1253 
Q 294 1797 489 2255 
Q 684 2713 1069 3078 
Q 1331 3328 1684 3456 
Q 2038 3584 2456 3584 
Q 2700 3584 2940 3529 
Q 3181 3475 3431 3366 
z
" transform="scale(0.015625)"/>
       <path id="DejaVuSans-Bold-41" d="M 3419 850 
L 1538 850 
L 1241 0 
L 31 0 
L 1759 4666 
L 3194 4666 
L 4922 0 
L 3713 0 
L 3419 850 
z
M 1838 1716 
L 3116 1716 
L 2478 3572 
L 1838 1716 
z
" transform="scale(0.015625)"/>
       <path id="DejaVuSans-Bold-2f" d="M 1644 4666 
L 2338 4666 
L 691 -594 
L 0 -594 
L 1644 4666 
z
" transform="scale(0.015625)"/>
       <path id="DejaVuSans-Bold-b2" d="M 1288 2613 
L 2444 2613 
L 2444 2088 
L 341 2088 
L 341 2566 
L 1319 3397 
Q 1509 3563 1590 3688 
Q 1672 3813 1672 3938 
Q 1672 4094 1558 4191 
Q 1444 4288 1259 4288 
Q 1066 4288 844 4217 
Q 622 4147 359 4000 
L 359 4581 
Q 631 4666 886 4708 
Q 1141 4750 1375 4750 
Q 1869 4750 2150 4548 
Q 2431 4347 2431 4000 
Q 2431 3775 2320 3586 
Q 2209 3397 1894 3128 
L 1288 2613 
z
" transform="scale(0.015625)"/>
      </defs>
      <use xlink:href="#DejaVuSans-Bold-49" transform="translate(0 0.125)"/>
      <use xlink:href="#DejaVuSans-Oblique-73" transform="translate(38.164062 -16.28125) scale(0.7)"/>
      <use xlink:href="#DejaVuSans-Oblique-63" transform="translate(74.633789 -16.28125) scale(0.7)"/>
      <use xlink:href="#DejaVuSans-Bold-20" transform="translate(115.854492 0.125)"/>
      <use xlink:href="#DejaVuSans-Bold-28" transform="translate(150.668945 0.125)"/>
      <use xlink:href="#DejaVuSans-Bold-6d" transform="translate(196.37207 0.125)"/>
      <use xlink:href="#DejaVuSans-Bold-41" transform="translate(300.571289 0.125)"/>
      <use xlink:href="#DejaVuSans-Bold-2f" transform="translate(377.963867 0.125)"/>
      <use xlink:href="#DejaVuSans-Bold-6d" transform="translate(414.487305 0.125)"/>
      <use xlink:href="#DejaVuSans-Bold-b2" transform="translate(518.686523 0.125)"/>
      <use xlink:href="#DejaVuSans-Bold-29" transform="translate(562.485352 0.125)"/>
     </g>
    </g>
    <g id="text_16">
     <!-- $\times\mathdefault{10^{−3}}\mathdefault{}$ -->
     <g transform="translate(48.029375 14.798437) scale(0.1 -0.1)">
      <defs>
       <path id="DejaVuSans-d7" d="M 4488 3438 
L 3059 2003 
L 4488 575 
L 4116 197 
L 2681 1631 
L 1247 197 
L 878 575 
L 2303 2003 
L 878 3438 
L 1247 3816 
L 2681 2381 
L 4116 3816 
L 4488 3438 
z
" transform="scale(0.015625)"/>
      </defs>
      <use xlink:href="#DejaVuSans-d7" transform="translate(0 0.765625)"/>
      <use xlink:href="#DejaVuSans-31" transform="translate(83.789062 0.765625)"/>
      <use xlink:href="#DejaVuSans-30" transform="translate(147.412109 0.765625)"/>
      <use xlink:href="#DejaVuSans-2212" transform="translate(211.992188 39.046875) scale(0.7)"/>
      <use xlink:href="#DejaVuSans-33" transform="translate(270.644531 39.046875) scale(0.7)"/>
     </g>
    </g>
   </g>
   <g id="patch_5">
    <path d="M 48.029375 307.542438 
L 48.029375 17.798438 
" style="fill: none; stroke: #000000; stroke-width: 0.8; stroke-linejoin: miter; stroke-linecap: square"/>
   </g>
   <g id="patch_6">
    <path d="M 48.029375 307.542437 
L 704.485336 307.542437 
" style="fill: none; stroke: #000000; stroke-width: 0.8; stroke-linejoin: miter; stroke-linecap: square"/>
   </g>
   <g id="line2d_15">
    <path d="M 48.029375 153.585586 
L 48.686159 155.218172 
L 49.014552 156.034465 
L 49.178748 156.483426 
L 49.342944 156.60587 
L 50.32812 158.197642 
L 51.149101 158.932306 
L 51.805885 159.789413 
L 52.626865 160.483262 
L 52.955258 160.768965 
L 53.776238 161.25874 
L 53.940434 161.25874 
L 54.597219 161.789331 
L 55.254003 162.156663 
L 55.582395 162.238292 
L 56.239179 162.156663 
L 56.403376 162.279107 
L 56.731768 162.238292 
L 56.895964 162.279107 
L 57.06016 162.442365 
L 57.224356 162.360736 
L 57.88114 162.687253 
L 58.045336 162.972956 
L 58.373729 162.687253 
L 58.537925 162.809697 
L 58.866317 162.605624 
L 59.194709 162.932141 
L 59.523101 162.891326 
L 59.687297 162.932141 
L 59.851493 163.217844 
L 60.015689 163.0954 
L 61.165062 163.830063 
L 61.493454 164.034137 
L 61.821846 164.564727 
L 61.986043 164.523912 
L 62.314435 164.891244 
L 62.478631 164.932059 
L 63.299611 166.115683 
L 64.448984 168.80945 
L 65.105768 171.503217 
L 65.598356 175.13572 
L 66.090945 180.319186 
L 66.583533 188.971883 
L 67.076121 203.746782 
L 67.404513 219.419592 
L 68.225494 271.907187 
L 68.38969 272.601029 
L 68.553886 268.805267 
L 69.21067 237.418841 
L 69.867455 207.909875 
L 70.360043 187.706629 
L 70.852631 158.320086 
L 71.34522 126.44383 
L 71.837808 110.648551 
L 72.1662 106.730346 
L 72.494592 105.709979 
L 72.658788 105.832422 
L 72.98718 107.179314 
L 73.479769 110.730189 
L 76.271102 136.402613 
L 77.420475 143.626806 
L 77.584671 144.198218 
L 77.913063 146.034871 
L 78.734044 149.463302 
L 79.390828 151.218335 
L 81.361181 156.034465 
L 81.525377 156.197723 
L 81.689573 156.646685 
L 81.853769 156.769128 
L 82.182161 157.462978 
L 82.838946 158.401715 
L 83.003142 158.687417 
L 83.167338 158.728232 
L 83.659926 159.258823 
L 84.152514 159.58534 
L 84.973495 160.442447 
L 85.630279 160.973038 
L 86.122867 161.217925 
L 88.257417 162.197477 
L 88.585809 162.156663 
L 88.914201 162.197477 
L 89.242593 162.115848 
L 90.063574 162.48318 
L 90.391966 162.442365 
L 90.720358 162.564809 
L 90.884554 162.850512 
L 91.04875 162.646438 
L 91.377142 162.687253 
L 91.705534 162.768882 
L 92.033927 162.728068 
L 92.362319 162.809697 
L 93.019103 163.544361 
L 93.183299 163.544361 
L 94.661064 164.932059 
L 95.153652 165.095317 
L 95.317848 165.707538 
L 95.646241 166.115683 
L 96.303025 167.66664 
L 96.959809 169.584928 
L 97.78079 174.523501 
L 98.273378 179.380444 
L 98.765966 187.543367 
L 99.258555 201.216274 
L 99.751143 225.052007 
L 100.407927 269.662384 
L 100.572123 272.96836 
L 100.736319 271.050069 
L 101.064712 257.948586 
L 103.199261 151.504039 
L 103.691849 122.321556 
L 104.020241 111.587294 
L 104.348633 106.934414 
L 104.677025 105.342648 
L 104.841222 105.383467 
L 105.005418 105.66916 
L 105.33381 107.505826 
L 105.826398 111.219963 
L 106.483182 117.913564 
L 107.796751 130.566117 
L 109.438712 141.994222 
L 110.259692 146.361395 
L 111.573261 150.72856 
L 112.230046 152.361146 
L 112.88683 154.279435 
L 115.349771 158.442529 
L 118.141105 161.177111 
L 118.305301 161.177111 
L 118.633693 161.381184 
L 119.947262 161.666887 
L 120.111458 161.993404 
L 120.43985 161.952589 
L 120.604046 161.911775 
L 120.932438 162.156663 
L 121.425026 161.993404 
L 121.917615 162.197477 
L 122.081811 162.156663 
L 122.246007 162.279107 
L 122.410203 162.238292 
L 122.574399 162.48318 
L 122.738595 162.319921 
L 123.231183 162.401551 
L 123.39538 162.605624 
L 123.559576 162.48318 
L 123.887968 162.768882 
L 124.21636 162.728068 
L 124.380556 162.891326 
L 124.544752 162.768882 
L 124.708948 162.891326 
L 124.873144 162.850512 
L 125.201536 163.177029 
L 125.529929 163.666805 
L 125.694125 163.421917 
L 126.186713 164.15658 
L 126.350909 164.197395 
L 126.515105 164.483097 
L 126.679301 164.523912 
L 126.843497 164.850429 
L 127.007693 164.646356 
L 127.17189 164.646356 
L 127.500282 165.299391 
L 127.99287 165.870796 
L 129.470635 170.56448 
L 129.799027 172.523583 
L 130.291615 176.523424 
L 130.620007 180.278367 
L 130.9484 185.298564 
L 131.605184 204.318181 
L 132.097772 231.582345 
L 132.754557 272.641848 
L 132.918753 272.886735 
L 133.082949 268.682823 
L 133.739733 236.68418 
L 134.396517 207.869056 
L 134.889106 187.380117 
L 135.381694 157.258905 
L 135.874282 125.260213 
L 136.202674 113.260697 
L 136.531067 107.22012 
L 136.859459 104.89368 
L 137.023655 104.689612 
L 137.187851 105.056942 
L 137.680439 107.791531 
L 138.173027 111.832181 
L 139.486596 124.811245 
L 140.143381 130.68856 
L 140.800165 136.198544 
L 142.606322 146.483839 
L 143.427302 149.422496 
L 144.084087 151.177521 
L 144.412479 151.789741 
L 144.905067 153.503956 
L 145.397655 154.565137 
L 145.726048 155.422246 
L 146.382832 156.6875 
L 146.547028 156.769128 
L 146.87542 157.299719 
L 148.353185 159.422081 
L 148.681577 159.58534 
L 148.845773 159.830228 
L 149.009969 159.830228 
L 149.338361 160.075115 
L 149.502558 159.952671 
L 149.83095 160.524077 
L 151.308715 161.544443 
L 151.801303 161.503628 
L 151.965499 161.626072 
L 152.129695 161.462814 
L 152.458087 161.748516 
L 152.622283 161.626072 
L 152.786479 161.830146 
L 152.950675 161.748516 
L 153.114871 162.197477 
L 153.279068 162.279107 
L 153.443264 161.748516 
L 153.60746 162.034219 
L 153.935852 162.075033 
L 154.100048 162.238292 
L 154.264244 162.115848 
L 154.756832 162.279107 
L 155.085225 162.279107 
L 155.249421 162.156663 
L 155.577813 162.442365 
L 156.234597 162.687253 
L 156.398793 162.850512 
L 156.562989 162.768882 
L 158.20495 163.707619 
L 158.369146 163.952507 
L 158.533342 163.870878 
L 159.025931 164.564727 
L 159.190127 164.646356 
L 159.518519 164.972874 
L 159.846911 165.258576 
L 160.996284 167.707455 
L 161.817264 171.176699 
L 162.309852 174.401056 
L 162.802441 179.421262 
L 163.295029 187.584185 
L 163.787617 201.991754 
L 164.116009 216.848278 
L 164.608598 252.438615 
L 164.93699 271.539856 
L 165.101186 273.988727 
L 165.265382 271.621481 
L 165.75797 249.377527 
L 166.578951 210.399564 
L 167.071539 191.012617 
L 167.564127 162.48318 
L 168.220912 120.852221 
L 168.549304 110.199596 
L 168.877696 105.791604 
L 169.206088 104.3631 
L 169.370284 104.485543 
L 169.698676 105.66916 
L 170.355461 110.770995 
L 171.176441 118.933931 
L 172.49001 131.46404 
L 173.475186 138.647415 
L 175.609736 149.340859 
L 178.729461 156.809943 
L 178.893657 156.973202 
L 179.22205 157.585422 
L 179.550442 157.911939 
L 181.028207 159.707783 
L 181.192403 159.748598 
L 181.520795 160.11593 
L 181.849187 160.279188 
L 182.177579 160.524077 
L 183.983736 161.789331 
L 185.625697 161.830146 
L 186.282481 162.034219 
L 186.446677 162.034219 
L 186.610874 162.319921 
L 186.77507 162.360736 
L 187.103462 162.115848 
L 187.267658 162.401551 
L 187.431854 162.238292 
L 187.59605 162.319921 
L 187.760246 162.197477 
L 188.252834 162.360736 
L 188.581227 162.605624 
L 189.730599 163.217844 
L 189.894795 163.421917 
L 190.058991 163.381102 
L 190.223187 163.462731 
L 190.55158 163.870878 
L 190.715776 163.911693 
L 191.37256 164.7688 
L 191.536756 164.891244 
L 191.700952 164.850429 
L 192.029344 165.462649 
L 192.193541 165.748351 
L 192.357737 165.789166 
L 193.342913 168.115601 
L 193.835501 169.911445 
L 194.32809 172.564398 
L 194.984874 178.890669 
L 195.477462 186.523 
L 195.970051 199.542871 
L 196.298443 213.297403 
L 196.791031 246.275607 
L 197.119423 268.968529 
L 197.283619 273.866283 
L 197.447815 273.580577 
L 197.776208 261.540267 
L 199.910757 155.748763 
L 200.403345 124.158209 
L 200.895933 108.607817 
L 201.224325 104.934499 
L 201.388521 104.240656 
L 201.552718 104.159019 
L 201.716914 104.403906 
L 202.045306 105.914047 
L 202.537894 109.954709 
L 203.523071 119.791048 
L 204.179855 126.321386 
L 205.65762 138.116835 
L 206.642796 143.830887 
L 207.956365 149.585746 
L 210.911895 156.6875 
L 211.732875 157.911939 
L 213.046444 159.422081 
L 213.374836 159.789413 
L 214.360012 160.64652 
L 214.524209 160.687335 
L 214.852601 160.932223 
L 215.509385 161.177111 
L 216.658758 161.911775 
L 216.822954 161.87096 
L 216.98715 161.993404 
L 217.315542 161.952589 
L 217.80813 162.034219 
L 218.136522 162.034219 
L 218.629111 162.156663 
L 219.778483 162.523995 
L 219.942679 162.605624 
L 220.271072 162.48318 
L 220.435268 162.605624 
L 220.76366 162.605624 
L 221.092052 162.850512 
L 221.256248 162.809697 
L 221.913032 163.0954 
L 222.077229 163.462731 
L 222.734013 163.789249 
L 223.226601 164.483097 
L 223.390797 164.523912 
L 224.047582 165.176947 
L 224.375974 165.544278 
L 225.36115 167.421752 
L 225.853739 169.013523 
L 226.017935 169.380855 
L 226.838915 174.564315 
L 227.331503 179.992661 
L 227.659896 185.257746 
L 228.152484 197.461331 
L 228.480876 210.154677 
L 228.809268 228.888588 
L 229.466053 272.845916 
L 229.630249 274.805013 
L 229.794445 271.866368 
L 230.287033 249.336708 
L 231.108013 210.317939 
L 231.600602 190.277956 
L 232.09319 161.013852 
L 232.585778 127.790722 
L 232.91417 114.281064 
L 233.242563 107.22012 
L 233.570955 104.403906 
L 233.735151 103.873313 
L 233.899347 104.036575 
L 234.227739 105.424273 
L 234.556131 107.669088 
L 235.04872 112.158705 
L 236.362288 125.627544 
L 238.168445 139.953488 
L 239.317818 146.157314 
L 239.974602 148.687822 
L 240.46719 150.11634 
L 242.437544 155.381431 
L 243.258524 156.769128 
L 243.751112 157.585422 
L 244.079504 158.116012 
L 244.2437 158.442529 
L 244.407897 158.483344 
L 244.900485 159.054749 
L 245.228877 159.299638 
L 246.870838 160.850594 
L 249.826367 162.197477 
L 250.647348 162.075033 
L 250.97574 162.197477 
L 251.304132 162.279107 
L 251.468328 162.279107 
L 251.796721 162.48318 
L 252.125113 162.48318 
L 252.781897 162.687253 
L 253.110289 162.728068 
L 253.438681 162.891326 
L 253.602878 162.768882 
L 253.93127 162.932141 
L 254.916446 163.993322 
L 255.080642 164.115765 
L 255.409034 164.564727 
L 255.901623 164.850429 
L 256.065819 164.891244 
L 256.394211 165.217761 
L 256.722603 165.585093 
L 258.364564 170.319592 
L 258.857152 172.93173 
L 259.349741 177.33971 
L 259.678133 181.421178 
L 260.170721 190.971798 
L 260.663309 207.338463 
L 261.155898 235.704632 
L 261.648486 270.641933 
L 261.812682 274.88665 
L 261.976878 274.070351 
L 262.30527 261.540267 
L 264.439819 153.952918 
L 264.932408 122.852149 
L 265.2608 111.301588 
L 265.589192 105.914047 
L 265.917584 103.873313 
L 266.08178 103.954951 
L 266.245976 104.281462 
L 266.574368 106.036491 
L 266.902761 108.36293 
L 267.723741 116.321798 
L 268.708918 126.362205 
L 269.529898 133.545593 
L 271.171859 144.239024 
L 272.157036 148.483754 
L 272.649624 149.953076 
L 272.978016 150.932634 
L 274.619977 155.503874 
L 274.784173 155.585504 
L 275.276761 156.728315 
L 275.440957 156.6875 
L 275.933546 157.707865 
L 277.575506 159.58534 
L 278.724879 160.483262 
L 279.053271 160.809779 
L 279.710056 161.25874 
L 280.038448 161.421999 
L 281.18782 161.707701 
L 281.516213 161.911775 
L 281.844605 162.034219 
L 282.172997 162.156663 
L 282.337193 162.034219 
L 282.501389 162.197477 
L 282.665585 162.156663 
L 282.829781 162.279107 
L 282.993977 162.197477 
L 283.158173 162.319921 
L 283.486566 162.197477 
L 284.471742 162.605624 
L 284.800134 162.687253 
L 285.128526 162.932141 
L 285.292723 163.01377 
L 285.621115 162.932141 
L 286.113703 163.054585 
L 286.606291 163.503546 
L 286.770487 163.544361 
L 287.91986 164.891244 
L 288.576644 165.299391 
L 289.561821 166.891162 
L 290.382801 169.217596 
L 291.203782 173.748022 
L 291.69637 178.360077 
L 292.188958 185.869976 
L 292.681547 198.563322 
L 293.174135 220.317515 
L 293.995115 274.315239 
L 294.159311 275.621311 
L 294.323507 272.02963 
L 294.980292 240.439124 
L 295.637076 210.317939 
L 296.129664 189.788182 
L 296.622253 159.666969 
L 297.114841 126.076499 
L 297.607429 108.934342 
L 297.935821 104.89368 
L 298.100017 103.995757 
L 298.264214 103.832507 
L 298.42841 103.914132 
L 298.756802 105.424273 
L 299.24939 109.056785 
L 301.712331 133.055806 
L 303.682684 145.585915 
L 304.339469 148.402129 
L 305.488841 151.544852 
L 306.145626 153.340698 
L 306.638214 154.973284 
L 307.294998 156.238538 
L 307.459194 156.728315 
L 307.623391 156.728315 
L 307.951783 157.13646 
L 308.772763 158.401715 
L 308.936959 158.564974 
L 309.101155 158.932306 
L 309.265351 158.973119 
L 309.922136 159.830228 
L 310.250528 159.871043 
L 310.743116 160.360818 
L 311.071508 160.483262 
L 311.892489 161.217925 
L 313.041861 161.789331 
L 313.206058 161.666887 
L 313.698646 161.911775 
L 315.176411 162.279107 
L 315.340607 162.442365 
L 315.504803 162.279107 
L 315.668999 162.523995 
L 315.833195 162.564809 
L 315.997391 162.401551 
L 316.161587 162.48318 
L 316.325783 162.401551 
L 316.654175 162.605624 
L 316.818372 162.564809 
L 317.475156 162.972956 
L 317.639352 163.01377 
L 317.803548 163.217844 
L 318.296136 163.177029 
L 318.624528 163.177029 
L 318.952921 163.585175 
L 319.445509 163.993322 
L 319.938097 164.605542 
L 320.102293 164.687171 
L 320.430685 165.217761 
L 320.594882 165.258576 
L 320.759078 165.503464 
L 320.923274 165.544278 
L 321.744254 166.931977 
L 322.236842 167.952342 
L 323.386215 173.543949 
L 323.878803 177.788678 
L 324.371392 184.80879 
L 324.699784 191.788097 
L 325.192372 208.562911 
L 325.68496 238.071878 
L 326.177549 272.723473 
L 326.341745 276.274348 
L 326.505941 274.641763 
L 326.834333 261.29538 
L 328.968882 153.585586 
L 329.46147 122.199113 
L 329.789862 110.526108 
L 330.118255 104.852874 
L 330.446647 103.179471 
L 330.610843 103.138652 
L 330.939235 104.281462 
L 331.431823 108.118043 
L 332.088608 114.56677 
L 333.566373 129.341681 
L 334.551549 137.259717 
L 335.700922 144.075774 
L 336.686098 148.687822 
L 337.01449 149.953076 
L 337.507079 151.014262 
L 337.671275 151.25915 
L 338.163863 152.769293 
L 338.656451 154.034547 
L 339.313236 155.667133 
L 339.97002 157.13646 
L 340.134216 157.381348 
L 340.298412 157.422163 
L 340.626804 157.911939 
L 341.119393 158.3609 
L 341.776177 159.299638 
L 342.432961 160.034301 
L 343.089746 160.483262 
L 343.74653 160.973038 
L 343.910726 160.891409 
L 344.239118 161.217925 
L 345.224295 161.87096 
L 345.716883 162.075033 
L 345.881079 162.197477 
L 346.209471 162.075033 
L 346.373667 162.197477 
L 346.70206 162.156663 
L 348.015628 162.564809 
L 348.179824 162.809697 
L 349.000805 162.605624 
L 350.47857 163.381102 
L 350.642766 163.258658 
L 351.135354 163.62599 
L 351.956334 164.360654 
L 352.284727 164.809615 
L 352.448923 164.891244 
L 352.777315 165.381019 
L 353.269903 165.829981 
L 354.419276 168.033972 
L 355.07606 170.074704 
L 355.732844 174.237798 
L 356.225433 179.053932 
L 356.718021 186.563818 
L 357.210609 199.461246 
L 357.703197 221.909281 
L 358.524178 275.743755 
L 358.688374 276.355972 
L 358.85257 272.437767 
L 359.509354 240.561567 
L 360.166139 210.440383 
L 360.822923 181.135472 
L 361.972296 112.566842 
L 362.300688 105.914047 
L 362.62908 103.383539 
L 362.793276 103.097833 
L 362.957472 103.220289 
L 363.285864 104.689612 
L 363.778453 108.811898 
L 366.569786 135.545508 
L 367.719159 143.096213 
L 368.704335 147.749093 
L 369.525316 150.565302 
L 370.017904 151.952999 
L 371.659865 155.830391 
L 371.988257 156.442611 
L 372.480845 157.299719 
L 373.13763 158.279271 
L 376.093159 161.095482 
L 376.257355 161.136297 
L 376.257355 161.136297 
" clip-path="url(#pc7786962f2)" style="fill: none; stroke: #333333; stroke-width: 0.8; stroke-linecap: square"/>
   </g>
   <g id="line2d_16">
    <path d="M 376.257355 163.952507 
L 376.421552 163.911693 
L 376.749944 164.115765 
L 376.91414 163.952507 
L 377.078336 164.15658 
L 377.242532 164.15658 
L 377.570924 164.279024 
L 378.391905 164.687171 
L 378.720297 165.176947 
L 378.884493 165.217761 
L 380.033865 167.66664 
L 380.362258 168.80945 
L 381.019042 172.482768 
L 381.51163 177.70704 
L 381.840022 183.217024 
L 382.168415 191.788097 
L 382.496807 206.032403 
L 382.661003 216.562572 
L 383.153591 262.030054 
L 383.317787 261.172937 
L 383.974572 232.806793 
L 384.46716 214.440213 
L 384.959748 207.093576 
L 385.452336 195.17571 
L 385.780729 182.11502 
L 386.437513 143.586 
L 386.930101 127.21931 
L 387.258493 122.076669 
L 387.586886 120.035935 
L 387.751082 119.627786 
L 387.915278 119.750229 
L 388.079474 120.158379 
L 388.407866 121.831782 
L 389.228846 127.99479 
L 390.870807 140.280012 
L 392.84116 150.524487 
L 393.333749 152.034629 
L 393.826337 153.6264 
L 394.811513 155.871206 
L 394.97571 155.993651 
L 395.79669 157.21809 
L 396.125082 157.66705 
L 396.289278 158.116012 
L 396.61767 158.442529 
L 397.110259 159.095564 
L 397.274455 159.177193 
L 397.602847 159.58534 
L 398.588023 160.238375 
L 398.916416 160.401633 
L 399.5732 160.850594 
L 399.737396 160.850594 
L 400.065788 161.136297 
L 400.39418 161.25874 
L 400.886769 161.503628 
L 401.379357 161.666887 
L 401.707749 161.748516 
L 401.871945 161.911775 
L 402.036141 161.87096 
L 403.842298 162.646438 
L 405.155867 162.687253 
L 405.320063 162.932141 
L 405.484259 162.809697 
L 405.812651 163.136214 
L 405.976847 162.972956 
L 406.469436 163.0954 
L 406.633632 163.136214 
L 406.797828 163.01377 
L 406.962024 163.177029 
L 407.12622 163.0954 
L 407.290416 163.299473 
L 407.618808 163.136214 
L 407.783004 163.299473 
L 408.275593 163.217844 
L 408.439789 163.585175 
L 410.410142 164.034137 
L 410.574338 164.23821 
L 411.066926 164.319839 
L 411.723711 165.013688 
L 412.380495 165.625908 
L 413.201475 167.66664 
L 413.694064 169.829817 
L 414.186652 173.135802 
L 414.67924 178.931476 
L 415.171828 189.910625 
L 415.500221 203.297814 
L 415.828613 226.194817 
L 416.157005 254.397724 
L 416.321201 253.785494 
L 416.977985 227.011116 
L 417.470574 209.746528 
L 418.127358 199.787758 
L 418.619946 186.482194 
L 418.948338 168.115601 
L 419.440927 140.769786 
L 419.933515 124.974508 
L 420.261907 120.035935 
L 420.590299 118.158451 
L 420.754495 117.872758 
L 420.918691 118.158451 
L 421.247084 119.464523 
L 422.724848 130.892628 
L 423.710025 138.484165 
L 425.18779 147.340944 
L 426.829751 153.422327 
L 428.471712 156.442611 
L 429.128496 157.585422 
L 429.456888 158.075197 
L 430.442065 159.422081 
L 430.606261 159.462896 
L 431.263045 160.034301 
L 431.755633 160.11593 
L 431.919829 160.360818 
L 432.248222 160.524077 
L 433.397594 161.217925 
L 433.890182 161.462814 
L 434.054379 161.462814 
L 434.546967 161.707701 
L 435.039555 161.911775 
L 435.696339 162.279107 
L 435.860536 162.279107 
L 436.024732 162.442365 
L 436.353124 162.442365 
L 436.51732 162.564809 
L 437.009908 162.523995 
L 437.666692 162.605624 
L 437.830889 162.605624 
L 438.159281 162.728068 
L 438.323477 162.728068 
L 438.487673 162.891326 
L 438.816065 162.891326 
L 438.980261 163.0954 
L 439.144457 162.932141 
L 439.308653 163.0954 
L 439.801242 162.972956 
L 439.965438 162.932141 
L 440.29383 163.054585 
L 440.786418 163.258658 
L 441.11481 163.177029 
L 442.756771 163.870878 
L 443.085163 163.952507 
L 443.249359 164.034137 
L 443.413556 163.911693 
L 443.906144 164.23821 
L 444.07034 164.23821 
L 444.727124 164.891244 
L 445.219713 165.340206 
L 445.383909 165.544278 
L 446.204889 167.870714 
L 446.697477 169.870632 
L 447.190066 173.258247 
L 447.518458 176.727492 
L 448.011046 185.747532 
L 448.339438 196.236883 
L 448.66783 213.90962 
L 449.160419 255.050748 
L 449.324615 253.867131 
L 450.638183 207.950681 
L 450.966576 203.012121 
L 451.459164 191.298323 
L 451.787556 178.033565 
L 452.44434 140.198375 
L 452.936929 124.484734 
L 453.265321 119.668604 
L 453.593713 117.954382 
L 453.757909 117.79112 
L 453.922105 117.913564 
L 454.250497 119.382899 
L 455.39987 128.158052 
L 456.877635 139.586157 
L 458.191204 147.136875 
L 459.012184 150.606115 
L 460.654145 155.381431 
L 461.310929 156.116094 
L 461.475125 156.197723 
L 462.788694 158.728232 
L 462.95289 158.646602 
L 463.773871 159.503711 
L 464.759047 160.075115 
L 465.251635 160.442447 
L 466.401008 161.217925 
L 467.057792 161.462814 
L 469.192341 162.442365 
L 469.520734 162.401551 
L 469.68493 162.442365 
L 469.849126 162.279107 
L 470.177518 162.442365 
L 470.50591 162.401551 
L 470.834302 162.687253 
L 470.998498 162.850512 
L 471.162694 162.605624 
L 471.326891 162.809697 
L 471.655283 162.768882 
L 471.819479 163.01377 
L 471.983675 162.809697 
L 472.640459 163.01377 
L 472.804655 163.054585 
L 473.133048 162.809697 
L 474.28242 163.258658 
L 474.939205 163.503546 
L 475.267597 163.666805 
L 475.431793 163.62599 
L 475.595989 163.830063 
L 475.924381 163.748434 
L 476.252773 164.034137 
L 476.416969 163.870878 
L 476.581165 164.034137 
L 476.745361 164.034137 
L 477.402146 164.605542 
L 477.730538 164.727986 
L 478.223126 165.258576 
L 478.551518 165.952425 
L 478.879911 166.687088 
L 479.865087 170.686924 
L 480.357675 174.850018 
L 480.686068 179.135557 
L 481.178656 190.522843 
L 481.507048 204.236556 
L 481.83544 228.153926 
L 482.163832 255.540522 
L 482.328028 253.907937 
L 483.641597 207.542544 
L 483.969989 202.685596 
L 484.462578 191.094242 
L 484.79097 177.625415 
L 485.447754 139.626976 
L 485.940342 124.158209 
L 486.268735 119.546161 
L 486.597127 117.831939 
L 486.761323 117.627871 
L 486.925519 117.872758 
L 487.253911 119.382899 
L 487.910695 124.076584 
L 489.552656 137.42298 
L 491.358813 147.789899 
L 492.34399 151.789741 
L 492.672382 152.606034 
L 493.329166 154.605952 
L 493.821755 155.340616 
L 494.150147 155.707948 
L 494.642735 156.60587 
L 494.806931 156.728315 
L 495.627912 158.320086 
L 495.792108 158.320086 
L 495.956304 158.769047 
L 496.1205 158.850676 
L 496.448892 159.177193 
L 496.777284 159.544525 
L 496.94148 159.544525 
L 497.269873 159.830228 
L 497.598265 159.871043 
L 498.747637 160.932223 
L 499.240226 161.136297 
L 500.389598 161.626072 
L 500.553794 161.585258 
L 501.374775 162.075033 
L 501.867363 162.238292 
L 502.031559 162.238292 
L 502.195755 162.360736 
L 502.359951 162.319921 
L 502.688343 162.401551 
L 503.016736 162.319921 
L 505.643873 162.932141 
L 505.972265 162.809697 
L 506.300657 162.932141 
L 506.793246 163.136214 
L 506.957442 163.054585 
L 507.778422 163.462731 
L 508.106814 163.381102 
L 508.27101 163.585175 
L 508.599403 163.544361 
L 508.763599 163.707619 
L 508.927795 163.666805 
L 509.256187 163.911693 
L 509.584579 163.911693 
L 509.748775 163.911693 
L 510.569756 164.605542 
L 510.733952 164.646356 
L 511.390736 165.299391 
L 512.211717 167.625825 
L 512.704305 169.911445 
L 513.196893 173.339875 
L 513.689481 179.298819 
L 514.017874 186.155669 
L 514.346266 197.134806 
L 514.674658 215.419761 
L 515.167246 255.58134 
L 515.331442 253.622244 
L 516.480815 209.501641 
L 516.809207 205.705878 
L 517.301795 195.54304 
L 517.630187 185.665895 
L 518.122776 155.626319 
L 518.615364 133.178249 
L 518.943756 123.668435 
L 519.272148 119.138012 
L 519.600541 117.464608 
L 519.764737 117.26054 
L 520.093129 118.321713 
L 520.421521 120.321628 
L 521.899286 132.035439 
L 522.884462 139.422895 
L 523.869639 145.504278 
L 525.347404 151.626482 
L 526.660972 154.973284 
L 527.153561 155.707948 
L 527.810345 156.524241 
L 528.302933 157.626237 
L 528.631325 158.075197 
L 528.795521 158.401715 
L 528.959718 158.442529 
L 529.28811 159.013934 
L 529.780698 159.299638 
L 529.944894 159.299638 
L 530.273286 159.58534 
L 532.243639 160.932223 
L 535.034973 162.238292 
L 536.184345 162.319921 
L 536.676934 162.646438 
L 536.84113 162.48318 
L 537.333718 162.687253 
L 537.497914 162.646438 
L 537.66211 162.809697 
L 538.154699 162.564809 
L 538.318895 162.728068 
L 538.483091 162.687253 
L 538.647287 162.768882 
L 538.975679 162.687253 
L 539.468267 162.972956 
L 539.796659 163.054585 
L 539.960855 162.932141 
L 540.125052 162.972956 
L 540.289248 162.891326 
L 540.453444 163.054585 
L 540.61764 163.054585 
L 540.946032 163.258658 
L 541.602816 163.462731 
L 541.931209 163.666805 
L 542.423797 163.952507 
L 542.587993 163.911693 
L 543.737366 164.523912 
L 543.901562 164.809615 
L 544.065758 164.850429 
L 544.229954 165.013688 
L 545.050934 167.05442 
L 545.871915 170.850182 
L 546.200307 173.299062 
L 546.528699 176.93156 
L 547.021287 186.441375 
L 547.349679 197.461331 
L 547.678072 215.950354 
L 548.17066 255.826228 
L 548.334856 253.622244 
L 549.484229 209.420016 
L 549.812621 205.624254 
L 550.305209 195.338959 
L 550.633601 185.176121 
L 551.782974 127.545834 
L 552.111366 120.688971 
L 552.439758 117.872758 
L 552.603954 117.301346 
L 552.932346 117.627871 
L 553.260739 119.260455 
L 554.081719 125.423463 
L 555.231092 134.525141 
L 556.380464 142.606439 
L 556.873053 145.259391 
L 557.858229 149.749008 
L 558.186621 150.851004 
L 558.67921 152.646849 
L 559.50019 154.687582 
L 559.828582 155.136542 
L 559.992778 155.299801 
L 560.32117 155.871206 
L 560.485367 155.993651 
L 562.127327 158.809861 
L 562.45572 158.891491 
L 562.619916 159.136379 
L 562.784112 159.095564 
L 563.112504 159.422081 
L 563.440896 159.544525 
L 564.590269 160.605707 
L 568.038387 162.197477 
L 568.202583 162.156663 
L 568.530975 162.197477 
L 568.695171 162.115848 
L 569.351955 162.360736 
L 569.680347 162.279107 
L 570.172936 162.564809 
L 570.337132 162.523995 
L 570.501328 162.605624 
L 570.665524 162.523995 
L 570.82972 162.605624 
L 571.158112 162.564809 
L 571.322308 162.646438 
L 571.650701 162.48318 
L 571.814897 162.564809 
L 571.979093 162.48318 
L 572.307485 162.891326 
L 572.471681 162.728068 
L 572.635877 162.850512 
L 572.964269 162.728068 
L 573.292661 163.0954 
L 573.456857 162.932141 
L 573.949446 163.01377 
L 574.113642 162.891326 
L 574.60623 163.503546 
L 574.770426 163.503546 
L 574.934622 163.62599 
L 575.098818 163.585175 
L 575.591407 163.830063 
L 575.919799 163.830063 
L 576.083995 164.034137 
L 576.248191 164.034137 
L 576.412387 164.197395 
L 576.576583 164.15658 
L 577.069171 164.646356 
L 577.725956 165.870796 
L 579.039524 171.829734 
L 579.367917 174.890833 
L 579.860505 182.482351 
L 580.188897 191.216685 
L 580.517289 205.787516 
L 580.845681 230.929322 
L 581.174074 256.275196 
L 581.33827 253.458982 
L 582.487642 209.052685 
L 582.816035 205.297729 
L 583.308623 195.053266 
L 583.637015 184.645528 
L 584.786388 127.096866 
L 585.11478 120.403266 
L 585.443172 117.668677 
L 585.607368 117.219721 
L 585.771564 117.178902 
L 586.099956 118.199269 
L 586.756741 122.688887 
L 589.71227 144.361467 
L 591.846819 153.218253 
L 592.6678 154.687582 
L 592.996192 155.258987 
L 593.817172 156.401796 
L 594.145565 157.258905 
L 594.309761 157.258905 
L 594.638153 157.993569 
L 595.459133 158.891491 
L 595.623329 158.973119 
L 595.787525 159.218008 
L 595.951722 159.095564 
L 596.115918 159.422081 
L 596.44431 159.58534 
L 597.101094 160.11593 
L 598.086271 160.768965 
L 598.250467 160.768965 
L 598.414663 160.973038 
L 598.578859 160.932223 
L 600.877604 162.115848 
L 601.0418 161.993404 
L 601.698585 162.115848 
L 601.862781 161.993404 
L 602.191173 162.238292 
L 602.355369 162.115848 
L 603.012153 162.319921 
L 603.833134 162.48318 
L 603.99733 162.442365 
L 604.161526 162.197477 
L 604.489918 162.279107 
L 605.146703 162.605624 
L 605.310899 162.279107 
L 605.639291 162.728068 
L 606.131879 162.605624 
L 606.296075 162.646438 
L 606.788663 163.0954 
L 606.95286 163.01377 
L 607.117056 162.687253 
L 607.445448 163.054585 
L 607.609644 163.0954 
L 607.77384 163.340287 
L 607.938036 163.258658 
L 608.266428 163.585175 
L 608.430624 163.503546 
L 608.59482 163.666805 
L 608.759016 163.585175 
L 609.087409 163.707619 
L 609.251605 163.62599 
L 610.072585 164.483097 
L 610.400977 165.258576 
L 611.057762 166.891162 
L 611.878742 170.523665 
L 612.207134 173.135802 
L 612.699723 179.543706 
L 613.028115 186.604637 
L 613.356507 197.951105 
L 613.684899 216.970721 
L 614.177487 256.071115 
L 614.341683 253.091651 
L 615.491056 209.052685 
L 615.819448 205.216104 
L 616.312037 194.808379 
L 616.640429 184.319016 
L 617.789801 126.607092 
L 618.118194 120.158379 
L 618.446586 117.464608 
L 618.774978 116.893197 
L 618.939174 117.301346 
L 619.431762 120.240003 
L 620.088547 125.178576 
L 621.566311 136.810762 
L 623.372468 147.340944 
L 624.521841 151.748926 
L 625.671214 154.401879 
L 625.999606 154.85084 
L 626.163802 155.136542 
L 626.327998 155.136542 
L 626.492194 155.258987 
L 626.65639 156.197723 
L 626.820586 156.156909 
L 627.477371 157.503792 
L 627.641567 157.585422 
L 627.969959 158.156827 
L 628.134155 157.952754 
L 628.298351 158.483344 
L 628.462547 158.401715 
L 628.626743 158.483344 
L 628.955135 159.258823 
L 629.119331 158.932306 
L 629.283528 159.299638 
L 629.447724 159.095564 
L 629.776116 159.707783 
L 630.4329 160.360818 
L 630.925488 160.524077 
L 631.089684 160.401633 
L 631.253881 160.72815 
L 631.418077 160.64652 
L 631.582273 160.891409 
L 631.746469 160.809779 
L 631.910665 161.095482 
L 632.074861 161.095482 
L 632.403253 161.381184 
L 632.567449 161.299555 
L 632.895841 161.626072 
L 633.060038 161.585258 
L 633.224234 161.748516 
L 633.38843 161.666887 
L 633.552626 161.87096 
L 633.881018 161.626072 
L 634.045214 161.87096 
L 634.20941 161.789331 
L 634.373606 162.034219 
L 635.194587 162.075033 
L 635.687175 162.238292 
L 636.343959 162.075033 
L 636.672351 162.279107 
L 637.16494 162.238292 
L 637.493332 162.115848 
L 637.821724 162.279107 
L 638.150116 162.197477 
L 638.314312 162.564809 
L 638.642705 162.646438 
L 638.971097 162.605624 
L 639.299489 162.564809 
L 639.463685 162.605624 
L 639.792077 162.891326 
L 639.956273 162.932141 
L 640.120469 162.768882 
L 640.613058 163.258658 
L 640.777254 163.054585 
L 641.105646 163.544361 
L 641.269842 163.177029 
L 641.434038 163.585175 
L 641.598234 163.381102 
L 641.76243 163.421917 
L 641.926626 163.340287 
L 642.255018 163.707619 
L 643.075999 164.605542 
L 643.568587 165.503464 
L 644.225372 167.585011 
L 644.71796 169.584928 
L 645.046352 171.666476 
L 645.374744 174.931646 
L 645.703136 179.584512 
L 646.031529 186.808706 
L 646.359921 198.359254 
L 646.688313 217.705382 
L 647.180901 256.397639 
L 647.345097 252.969208 
L 648.49447 208.726161 
L 648.822862 204.971217 
L 649.31545 194.40023 
L 649.643842 183.706799 
L 650.793215 126.321386 
L 651.121607 119.750229 
L 651.449999 117.42379 
L 651.614196 117.01564 
L 651.778392 116.974834 
L 652.106784 118.158451 
L 652.435176 120.035935 
L 653.748745 130.32123 
L 655.719098 144.198218 
L 657.689451 152.238702 
L 658.510431 154.32025 
L 658.674627 154.401879 
L 659.167216 155.218172 
L 659.331412 155.258987 
L 659.824 156.320168 
L 660.973373 158.197642 
L 661.465961 158.605788 
L 661.958549 158.973119 
L 662.122745 159.177193 
L 662.286941 159.095564 
L 662.77953 159.707783 
L 662.943726 159.748598 
L 663.436314 160.360818 
L 663.764706 160.360818 
L 667.048628 161.87096 
L 667.212824 161.911775 
L 667.37702 161.789331 
L 668.854785 162.115848 
L 669.183177 161.993404 
L 670.168353 162.156663 
L 670.496746 162.156663 
L 670.660942 162.197477 
L 670.825138 162.401551 
L 670.989334 162.319921 
L 671.15353 162.523995 
L 671.481922 162.48318 
L 671.646118 162.564809 
L 671.97451 162.360736 
L 672.138707 162.360736 
L 672.631295 162.687253 
L 672.795491 162.687253 
L 672.959687 162.523995 
L 673.123883 162.850512 
L 673.288079 162.809697 
L 673.616471 163.177029 
L 673.944864 163.177029 
L 674.10906 163.421917 
L 674.273256 163.462731 
L 674.437452 163.299473 
L 674.765844 163.62599 
L 674.93004 163.381102 
L 675.75102 164.197395 
L 675.915217 164.15658 
L 676.079413 164.360654 
L 676.407805 165.095317 
L 676.572001 165.381019 
L 677.721374 169.584928 
L 678.049766 171.788919 
L 678.542354 177.176447 
L 678.870746 183.135387 
L 679.199138 192.277871 
L 679.527531 207.420101 
L 679.855923 233.99041 
L 680.020119 251.173361 
L 680.184315 256.234377 
L 680.348511 252.52024 
L 681.333687 212.154592 
L 681.66208 207.21602 
L 681.990472 201.950935 
L 682.318864 194.236967 
L 682.647256 183.176206 
L 683.632433 130.974266 
L 683.960825 122.199113 
L 684.289217 118.240088 
L 684.617609 117.056459 
L 684.781805 116.974834 
L 685.110198 118.076826 
L 685.766982 122.525624 
L 688.558315 143.259476 
L 689.707688 148.810266 
L 691.185453 153.70803 
L 691.678041 154.483509 
L 692.334825 155.463059 
L 692.99161 156.891573 
L 693.484198 157.66705 
L 693.648394 157.789495 
L 693.81259 158.238456 
L 694.305178 158.442529 
L 694.797767 158.932306 
L 695.454551 159.503711 
L 696.111335 160.156745 
L 696.439728 160.401633 
L 697.260708 160.64652 
L 697.5891 160.891409 
L 698.245885 161.34037 
L 698.574277 161.462814 
L 699.559453 161.830146 
L 699.723649 161.789331 
L 700.216238 161.952589 
L 700.873022 162.034219 
L 701.037218 162.156663 
L 701.36561 162.075033 
L 701.529806 162.075033 
L 701.858199 162.197477 
L 702.022395 162.034219 
L 702.514983 162.279107 
L 702.679179 162.156663 
L 703.992748 162.442365 
L 704.156944 162.360736 
L 704.32114 162.564809 
L 704.485336 162.48318 
L 704.485336 162.48318 
" clip-path="url(#pc7786962f2)" style="fill: none; stroke: #d94452; stroke-width: 0.8; stroke-linecap: square"/>
   </g>
   <g id="text_17">
    <g id="patch_7">
     <path d="M 153.443365 296.055237 
L 270.843365 296.055237 
Q 273.843365 296.055237 273.843365 293.055237 
L 273.843365 282.455237 
Q 273.843365 279.455237 270.843365 279.455237 
L 153.443365 279.455237 
Q 150.443365 279.455237 150.443365 282.455237 
L 150.443365 293.055237 
Q 150.443365 296.055237 153.443365 296.055237 
z
" style="fill: #ffffff; opacity: 0.85; stroke: #333333; stroke-linejoin: miter"/>
    </g>
    <!-- I$_{p-p}$ = 3.42E-03 mA/m² -->
    <g style="fill: #333333" transform="translate(153.443365 289.955237) scale(0.1 -0.1)">
     <defs>
      <path id="DejaVuSans-49" d="M 628 4666 
L 1259 4666 
L 1259 0 
L 628 0 
L 628 4666 
z
" transform="scale(0.015625)"/>
      <path id="DejaVuSans-Oblique-70" d="M 3175 2156 
Q 3175 2616 2975 2859 
Q 2775 3103 2400 3103 
Q 2144 3103 1911 2972 
Q 1678 2841 1497 2591 
Q 1319 2344 1212 1994 
Q 1106 1644 1106 1300 
Q 1106 863 1306 627 
Q 1506 391 1875 391 
Q 2147 391 2380 519 
Q 2613 647 2778 891 
Q 2956 1147 3065 1494 
Q 3175 1841 3175 2156 
z
M 1394 2969 
Q 1625 3272 1939 3428 
Q 2253 3584 2638 3584 
Q 3175 3584 3472 3232 
Q 3769 2881 3769 2247 
Q 3769 1728 3584 1258 
Q 3400 788 3053 416 
Q 2822 169 2531 39 
Q 2241 -91 1919 -91 
Q 1547 -91 1294 64 
Q 1041 219 916 525 
L 556 -1331 
L -19 -1331 
L 922 3500 
L 1497 3500 
L 1394 2969 
z
" transform="scale(0.015625)"/>
      <path id="DejaVuSans-20" transform="scale(0.015625)"/>
      <path id="DejaVuSans-3d" d="M 678 2906 
L 4684 2906 
L 4684 2381 
L 678 2381 
L 678 2906 
z
M 678 1631 
L 4684 1631 
L 4684 1100 
L 678 1100 
L 678 1631 
z
" transform="scale(0.015625)"/>
      <path id="DejaVuSans-34" d="M 2419 4116 
L 825 1625 
L 2419 1625 
L 2419 4116 
z
M 2253 4666 
L 3047 4666 
L 3047 1625 
L 3713 1625 
L 3713 1100 
L 3047 1100 
L 3047 0 
L 2419 0 
L 2419 1100 
L 313 1100 
L 313 1709 
L 2253 4666 
z
" transform="scale(0.015625)"/>
      <path id="DejaVuSans-45" d="M 628 4666 
L 3578 4666 
L 3578 4134 
L 1259 4134 
L 1259 2753 
L 3481 2753 
L 3481 2222 
L 1259 2222 
L 1259 531 
L 3634 531 
L 3634 0 
L 628 0 
L 628 4666 
z
" transform="scale(0.015625)"/>
      <path id="DejaVuSans-2d" d="M 313 2009 
L 1997 2009 
L 1997 1497 
L 313 1497 
L 313 2009 
z
" transform="scale(0.015625)"/>
      <path id="DejaVuSans-6d" d="M 3328 2828 
Q 3544 3216 3844 3400 
Q 4144 3584 4550 3584 
Q 5097 3584 5394 3201 
Q 5691 2819 5691 2113 
L 5691 0 
L 5113 0 
L 5113 2094 
Q 5113 2597 4934 2840 
Q 4756 3084 4391 3084 
Q 3944 3084 3684 2787 
Q 3425 2491 3425 1978 
L 3425 0 
L 2847 0 
L 2847 2094 
Q 2847 2600 2669 2842 
Q 2491 3084 2119 3084 
Q 1678 3084 1418 2786 
Q 1159 2488 1159 1978 
L 1159 0 
L 581 0 
L 581 3500 
L 1159 3500 
L 1159 2956 
Q 1356 3278 1631 3431 
Q 1906 3584 2284 3584 
Q 2666 3584 2933 3390 
Q 3200 3197 3328 2828 
z
" transform="scale(0.015625)"/>
      <path id="DejaVuSans-41" d="M 2188 4044 
L 1331 1722 
L 3047 1722 
L 2188 4044 
z
M 1831 4666 
L 2547 4666 
L 4325 0 
L 3669 0 
L 3244 1197 
L 1141 1197 
L 716 0 
L 50 0 
L 1831 4666 
z
" transform="scale(0.015625)"/>
      <path id="DejaVuSans-2f" d="M 1625 4666 
L 2156 4666 
L 531 -594 
L 0 -594 
L 1625 4666 
z
" transform="scale(0.015625)"/>
      <path id="DejaVuSans-b2" d="M 838 2444 
L 2163 2444 
L 2163 2088 
L 294 2088 
L 294 2431 
Q 400 2528 597 2703 
Q 1672 3656 1672 3950 
Q 1672 4156 1509 4282 
Q 1347 4409 1081 4409 
Q 919 4409 728 4354 
Q 538 4300 313 4191 
L 313 4575 
Q 553 4663 761 4706 
Q 969 4750 1147 4750 
Q 1600 4750 1872 4544 
Q 2144 4338 2144 4000 
Q 2144 3566 1109 2678 
Q 934 2528 838 2444 
z
" transform="scale(0.015625)"/>
     </defs>
     <use xlink:href="#DejaVuSans-49" transform="translate(0 0.78125)"/>
     <use xlink:href="#DejaVuSans-Oblique-70" transform="translate(30.449219 -15.625) scale(0.7)"/>
     <use xlink:href="#DejaVuSans-2212" transform="translate(88.520508 -15.625) scale(0.7)"/>
     <use xlink:href="#DejaVuSans-Oblique-70" transform="translate(160.810547 -15.625) scale(0.7)"/>
     <use xlink:href="#DejaVuSans-20" transform="translate(207.978516 0.78125)"/>
     <use xlink:href="#DejaVuSans-3d" transform="translate(239.765625 0.78125)"/>
     <use xlink:href="#DejaVuSans-20" transform="translate(323.554688 0.78125)"/>
     <use xlink:href="#DejaVuSans-33" transform="translate(355.341797 0.78125)"/>
     <use xlink:href="#DejaVuSans-2e" transform="translate(418.964844 0.78125)"/>
     <use xlink:href="#DejaVuSans-34" transform="translate(450.751953 0.78125)"/>
     <use xlink:href="#DejaVuSans-32" transform="translate(514.375 0.78125)"/>
     <use xlink:href="#DejaVuSans-45" transform="translate(577.998047 0.78125)"/>
     <use xlink:href="#DejaVuSans-2d" transform="translate(641.181641 0.78125)"/>
     <use xlink:href="#DejaVuSans-30" transform="translate(677.265625 0.78125)"/>
     <use xlink:href="#DejaVuSans-33" transform="translate(740.888672 0.78125)"/>
     <use xlink:href="#DejaVuSans-20" transform="translate(804.511719 0.78125)"/>
     <use xlink:href="#DejaVuSans-6d" transform="translate(836.298828 0.78125)"/>
     <use xlink:href="#DejaVuSans-41" transform="translate(933.710938 0.78125)"/>
     <use xlink:href="#DejaVuSans-2f" transform="translate(1002.119141 0.78125)"/>
     <use xlink:href="#DejaVuSans-6d" transform="translate(1035.810547 0.78125)"/>
     <use xlink:href="#DejaVuSans-b2" transform="translate(1133.222656 0.78125)"/>
    </g>
   </g>
   <g id="text_18">
    <g id="patch_8">
     <path d="M 481.821346 296.055237 
L 598.921346 296.055237 
Q 601.921346 296.055237 601.921346 293.055237 
L 601.921346 282.455237 
Q 601.921346 279.455237 598.921346 279.455237 
L 481.821346 279.455237 
Q 478.821346 279.455237 478.821346 282.455237 
L 478.821346 293.055237 
Q 478.821346 296.055237 481.821346 296.055237 
z
" style="fill: #ffffff; opacity: 0.85; stroke: #d94452; stroke-linejoin: miter"/>
    </g>
    <!-- I$_{p-p}$ = 2.86E-03 mA/m² -->
    <g style="fill: #d94452" transform="translate(481.821346 289.955237) scale(0.1 -0.1)">
     <defs>
      <path id="DejaVuSans-38" d="M 2034 2216 
Q 1584 2216 1326 1975 
Q 1069 1734 1069 1313 
Q 1069 891 1326 650 
Q 1584 409 2034 409 
Q 2484 409 2743 651 
Q 3003 894 3003 1313 
Q 3003 1734 2745 1975 
Q 2488 2216 2034 2216 
z
M 1403 2484 
Q 997 2584 770 2862 
Q 544 3141 544 3541 
Q 544 4100 942 4425 
Q 1341 4750 2034 4750 
Q 2731 4750 3128 4425 
Q 3525 4100 3525 3541 
Q 3525 3141 3298 2862 
Q 3072 2584 2669 2484 
Q 3125 2378 3379 2068 
Q 3634 1759 3634 1313 
Q 3634 634 3220 271 
Q 2806 -91 2034 -91 
Q 1263 -91 848 271 
Q 434 634 434 1313 
Q 434 1759 690 2068 
Q 947 2378 1403 2484 
z
M 1172 3481 
Q 1172 3119 1398 2916 
Q 1625 2713 2034 2713 
Q 2441 2713 2670 2916 
Q 2900 3119 2900 3481 
Q 2900 3844 2670 4047 
Q 2441 4250 2034 4250 
Q 1625 4250 1398 4047 
Q 1172 3844 1172 3481 
z
" transform="scale(0.015625)"/>
      <path id="DejaVuSans-36" d="M 2113 2584 
Q 1688 2584 1439 2293 
Q 1191 2003 1191 1497 
Q 1191 994 1439 701 
Q 1688 409 2113 409 
Q 2538 409 2786 701 
Q 3034 994 3034 1497 
Q 3034 2003 2786 2293 
Q 2538 2584 2113 2584 
z
M 3366 4563 
L 3366 3988 
Q 3128 4100 2886 4159 
Q 2644 4219 2406 4219 
Q 1781 4219 1451 3797 
Q 1122 3375 1075 2522 
Q 1259 2794 1537 2939 
Q 1816 3084 2150 3084 
Q 2853 3084 3261 2657 
Q 3669 2231 3669 1497 
Q 3669 778 3244 343 
Q 2819 -91 2113 -91 
Q 1303 -91 875 529 
Q 447 1150 447 2328 
Q 447 3434 972 4092 
Q 1497 4750 2381 4750 
Q 2619 4750 2861 4703 
Q 3103 4656 3366 4563 
z
" transform="scale(0.015625)"/>
     </defs>
     <use xlink:href="#DejaVuSans-49" transform="translate(0 0.78125)"/>
     <use xlink:href="#DejaVuSans-Oblique-70" transform="translate(30.449219 -15.625) scale(0.7)"/>
     <use xlink:href="#DejaVuSans-2212" transform="translate(88.520508 -15.625) scale(0.7)"/>
     <use xlink:href="#DejaVuSans-Oblique-70" transform="translate(160.810547 -15.625) scale(0.7)"/>
     <use xlink:href="#DejaVuSans-20" transform="translate(207.978516 0.78125)"/>
     <use xlink:href="#DejaVuSans-3d" transform="translate(239.765625 0.78125)"/>
     <use xlink:href="#DejaVuSans-20" transform="translate(323.554688 0.78125)"/>
     <use xlink:href="#DejaVuSans-32" transform="translate(355.341797 0.78125)"/>
     <use xlink:href="#DejaVuSans-2e" transform="translate(418.964844 0.78125)"/>
     <use xlink:href="#DejaVuSans-38" transform="translate(448.126953 0.78125)"/>
     <use xlink:href="#DejaVuSans-36" transform="translate(511.75 0.78125)"/>
     <use xlink:href="#DejaVuSans-45" transform="translate(575.373047 0.78125)"/>
     <use xlink:href="#DejaVuSans-2d" transform="translate(638.556641 0.78125)"/>
     <use xlink:href="#DejaVuSans-30" transform="translate(674.640625 0.78125)"/>
     <use xlink:href="#DejaVuSans-33" transform="translate(738.263672 0.78125)"/>
     <use xlink:href="#DejaVuSans-20" transform="translate(801.886719 0.78125)"/>
     <use xlink:href="#DejaVuSans-6d" transform="translate(833.673828 0.78125)"/>
     <use xlink:href="#DejaVuSans-41" transform="translate(931.085938 0.78125)"/>
     <use xlink:href="#DejaVuSans-2f" transform="translate(999.494141 0.78125)"/>
     <use xlink:href="#DejaVuSans-6d" transform="translate(1033.185547 0.78125)"/>
     <use xlink:href="#DejaVuSans-b2" transform="translate(1130.597656 0.78125)"/>
    </g>
   </g>
   <g id="text_19">
    <g id="patch_9">
     <path d="M 627.175251 50.0672 
L 684.791657 50.0672 
Q 689.991657 50.0672 689.991657 44.8672 
L 689.991657 32.285638 
Q 689.991657 27.085638 684.791657 27.085638 
L 627.175251 27.085638 
Q 621.975251 27.085638 621.975251 32.285638 
L 621.975251 44.8672 
Q 621.975251 50.0672 627.175251 50.0672 
z
" style="fill: #ffffff; opacity: 0.9; stroke: #f0ad4e; stroke-width: 1.5; stroke-linejoin: miter"/>
    </g>
    <!-- f = 5 Hz -->
    <g style="fill: #f0ad4e" transform="translate(627.175251 42.163606) scale(0.13 -0.13)">
     <defs>
      <path id="DejaVuSans-Bold-66" d="M 2841 4863 
L 2841 4128 
L 2222 4128 
Q 1984 4128 1890 4042 
Q 1797 3956 1797 3744 
L 1797 3500 
L 2753 3500 
L 2753 2700 
L 1797 2700 
L 1797 0 
L 678 0 
L 678 2700 
L 122 2700 
L 122 3500 
L 678 3500 
L 678 3744 
Q 678 4316 997 4589 
Q 1316 4863 1984 4863 
L 2841 4863 
z
" transform="scale(0.015625)"/>
      <path id="DejaVuSans-Bold-3d" d="M 678 3084 
L 4684 3084 
L 4684 2350 
L 678 2350 
L 678 3084 
z
M 678 1663 
L 4684 1663 
L 4684 922 
L 678 922 
L 678 1663 
z
" transform="scale(0.015625)"/>
      <path id="DejaVuSans-Bold-35" d="M 678 4666 
L 3669 4666 
L 3669 3781 
L 1638 3781 
L 1638 3059 
Q 1775 3097 1914 3117 
Q 2053 3138 2203 3138 
Q 3056 3138 3531 2711 
Q 4006 2284 4006 1522 
Q 4006 766 3489 337 
Q 2972 -91 2053 -91 
Q 1656 -91 1267 -14 
Q 878 63 494 219 
L 494 1166 
Q 875 947 1217 837 
Q 1559 728 1863 728 
Q 2300 728 2551 942 
Q 2803 1156 2803 1522 
Q 2803 1891 2551 2103 
Q 2300 2316 1863 2316 
Q 1603 2316 1309 2248 
Q 1016 2181 678 2041 
L 678 4666 
z
" transform="scale(0.015625)"/>
      <path id="DejaVuSans-Bold-48" d="M 588 4666 
L 1791 4666 
L 1791 2888 
L 3566 2888 
L 3566 4666 
L 4769 4666 
L 4769 0 
L 3566 0 
L 3566 1978 
L 1791 1978 
L 1791 0 
L 588 0 
L 588 4666 
z
" transform="scale(0.015625)"/>
      <path id="DejaVuSans-Bold-7a" d="M 366 3500 
L 3419 3500 
L 3419 2719 
L 1575 800 
L 3419 800 
L 3419 0 
L 288 0 
L 288 781 
L 2131 2700 
L 366 2700 
L 366 3500 
z
" transform="scale(0.015625)"/>
     </defs>
     <use xlink:href="#DejaVuSans-Bold-66"/>
     <use xlink:href="#DejaVuSans-Bold-20" transform="translate(43.505859 0)"/>
     <use xlink:href="#DejaVuSans-Bold-3d" transform="translate(78.320312 0)"/>
     <use xlink:href="#DejaVuSans-Bold-20" transform="translate(162.109375 0)"/>
     <use xlink:href="#DejaVuSans-Bold-35" transform="translate(196.923828 0)"/>
     <use xlink:href="#DejaVuSans-Bold-20" transform="translate(266.503906 0)"/>
     <use xlink:href="#DejaVuSans-Bold-48" transform="translate(301.318359 0)"/>
     <use xlink:href="#DejaVuSans-Bold-7a" transform="translate(385.009766 0)"/>
    </g>
   </g>
   <g id="text_20">
    <!-- Without MIC -->
    <g style="fill: #333333" transform="translate(163.411334 42.92345) scale(0.14 -0.14)">
     <defs>
      <path id="DejaVuSans-Bold-57" d="M 191 4666 
L 1344 4666 
L 2150 1275 
L 2950 4666 
L 4109 4666 
L 4909 1275 
L 5716 4666 
L 6859 4666 
L 5759 0 
L 4372 0 
L 3525 3547 
L 2688 0 
L 1300 0 
L 191 4666 
z
" transform="scale(0.015625)"/>
      <path id="DejaVuSans-Bold-74" d="M 1759 4494 
L 1759 3500 
L 2913 3500 
L 2913 2700 
L 1759 2700 
L 1759 1216 
Q 1759 972 1856 886 
Q 1953 800 2241 800 
L 2816 800 
L 2816 0 
L 1856 0 
Q 1194 0 917 276 
Q 641 553 641 1216 
L 641 2700 
L 84 2700 
L 84 3500 
L 641 3500 
L 641 4494 
L 1759 4494 
z
" transform="scale(0.015625)"/>
      <path id="DejaVuSans-Bold-68" d="M 4056 2131 
L 4056 0 
L 2931 0 
L 2931 347 
L 2931 1625 
Q 2931 2084 2911 2256 
Q 2891 2428 2841 2509 
Q 2775 2619 2662 2680 
Q 2550 2741 2406 2741 
Q 2056 2741 1856 2470 
Q 1656 2200 1656 1722 
L 1656 0 
L 538 0 
L 538 4863 
L 1656 4863 
L 1656 2988 
Q 1909 3294 2193 3439 
Q 2478 3584 2822 3584 
Q 3428 3584 3742 3212 
Q 4056 2841 4056 2131 
z
" transform="scale(0.015625)"/>
      <path id="DejaVuSans-Bold-6f" d="M 2203 2784 
Q 1831 2784 1636 2517 
Q 1441 2250 1441 1747 
Q 1441 1244 1636 976 
Q 1831 709 2203 709 
Q 2569 709 2762 976 
Q 2956 1244 2956 1747 
Q 2956 2250 2762 2517 
Q 2569 2784 2203 2784 
z
M 2203 3584 
Q 3106 3584 3614 3096 
Q 4122 2609 4122 1747 
Q 4122 884 3614 396 
Q 3106 -91 2203 -91 
Q 1297 -91 786 396 
Q 275 884 275 1747 
Q 275 2609 786 3096 
Q 1297 3584 2203 3584 
z
" transform="scale(0.015625)"/>
      <path id="DejaVuSans-Bold-75" d="M 500 1363 
L 500 3500 
L 1625 3500 
L 1625 3150 
Q 1625 2866 1622 2436 
Q 1619 2006 1619 1863 
Q 1619 1441 1641 1255 
Q 1663 1069 1716 984 
Q 1784 875 1895 815 
Q 2006 756 2150 756 
Q 2500 756 2700 1025 
Q 2900 1294 2900 1772 
L 2900 3500 
L 4019 3500 
L 4019 0 
L 2900 0 
L 2900 506 
Q 2647 200 2364 54 
Q 2081 -91 1741 -91 
Q 1134 -91 817 281 
Q 500 653 500 1363 
z
" transform="scale(0.015625)"/>
      <path id="DejaVuSans-Bold-4d" d="M 588 4666 
L 2119 4666 
L 3181 2169 
L 4250 4666 
L 5778 4666 
L 5778 0 
L 4641 0 
L 4641 3413 
L 3566 897 
L 2803 897 
L 1728 3413 
L 1728 0 
L 588 0 
L 588 4666 
z
" transform="scale(0.015625)"/>
      <path id="DejaVuSans-Bold-43" d="M 4288 256 
Q 3956 84 3597 -3 
Q 3238 -91 2847 -91 
Q 1681 -91 1000 561 
Q 319 1213 319 2328 
Q 319 3447 1000 4098 
Q 1681 4750 2847 4750 
Q 3238 4750 3597 4662 
Q 3956 4575 4288 4403 
L 4288 3438 
Q 3953 3666 3628 3772 
Q 3303 3878 2944 3878 
Q 2300 3878 1931 3465 
Q 1563 3053 1563 2328 
Q 1563 1606 1931 1193 
Q 2300 781 2944 781 
Q 3303 781 3628 887 
Q 3953 994 4288 1222 
L 4288 256 
z
" transform="scale(0.015625)"/>
     </defs>
     <use xlink:href="#DejaVuSans-Bold-57"/>
     <use xlink:href="#DejaVuSans-Bold-69" transform="translate(110.302734 0)"/>
     <use xlink:href="#DejaVuSans-Bold-74" transform="translate(144.580078 0)"/>
     <use xlink:href="#DejaVuSans-Bold-68" transform="translate(192.382812 0)"/>
     <use xlink:href="#DejaVuSans-Bold-6f" transform="translate(263.574219 0)"/>
     <use xlink:href="#DejaVuSans-Bold-75" transform="translate(332.275391 0)"/>
     <use xlink:href="#DejaVuSans-Bold-74" transform="translate(403.466797 0)"/>
     <use xlink:href="#DejaVuSans-Bold-20" transform="translate(451.269531 0)"/>
     <use xlink:href="#DejaVuSans-Bold-4d" transform="translate(486.083984 0)"/>
     <use xlink:href="#DejaVuSans-Bold-49" transform="translate(585.595703 0)"/>
     <use xlink:href="#DejaVuSans-Bold-43" transform="translate(622.802734 0)"/>
    </g>
   </g>
   <g id="text_21">
    <!-- With MIC -->
    <g style="fill: #d94452" transform="translate(504.777439 42.92345) scale(0.14 -0.14)">
     <use xlink:href="#DejaVuSans-Bold-57"/>
     <use xlink:href="#DejaVuSans-Bold-69" transform="translate(110.302734 0)"/>
     <use xlink:href="#DejaVuSans-Bold-74" transform="translate(144.580078 0)"/>
     <use xlink:href="#DejaVuSans-Bold-68" transform="translate(192.382812 0)"/>
     <use xlink:href="#DejaVuSans-Bold-20" transform="translate(263.574219 0)"/>
     <use xlink:href="#DejaVuSans-Bold-4d" transform="translate(298.388672 0)"/>
     <use xlink:href="#DejaVuSans-Bold-49" transform="translate(397.900391 0)"/>
     <use xlink:href="#DejaVuSans-Bold-43" transform="translate(435.107422 0)"/>
    </g>
   </g>
  </g>
 </g>
 <defs>
  <clipPath id="pc7786962f2">
   <rect x="48.029375" y="17.798437" width="656.455961" height="289.744"/>
  </clipPath>
 </defs>
</svg>
