<?xml version="1.0" encoding="utf-8" standalone="no"?>
<!DOCTYPE svg PUBLIC "-//W3C//DTD SVG 1.1//EN"
  "http://www.w3.org/Graphics/SVG/1.1/DTD/svg11.dtd">
<svg xmlns:xlink="http://www.w3.org/1999/xlink" width="711.419301pt" height="349.93775pt" viewBox="0 0 711.419301 349.93775" xmlns="http://www.w3.org/2000/svg" version="1.1">
 <metadata>
  <rdf:RDF xmlns:dc="http://purl.org/dc/elements/1.1/" xmlns:cc="http://creativecommons.org/ns#" xmlns:rdf="http://www.w3.org/1999/02/22-rdf-syntax-ns#">
   <cc:Work>
    <dc:type rdf:resource="http://purl.org/dc/dcmitype/StillImage"/>
    <dc:date>2026-04-26T16:29:15.070410</dc:date>
    <dc:format>image/svg+xml</dc:format>
    <dc:creator>
     <cc:Agent>
      <dc:title>Matplotlib v3.10.8, https://matplotlib.org/</dc:title>
     </cc:Agent>
    </dc:creator>
   </cc:Work>
  </rdf:RDF>
 </metadata>
 <defs>
  <style type="text/css">*{stroke-linejoin: round; stroke-linecap: butt}</style>
 </defs>
 <g id="figure_1">
  <g id="patch_1">
   <path d="M 0 349.93775 
L 711.419301 349.93775 
L 711.419301 0 
L 0 0 
z
" style="fill: #ffffff"/>
  </g>
  <g id="axes_1">
   <g id="patch_2">
    <path d="M 58.479375 307.542437 
L 704.219301 307.542437 
L 704.219301 17.798437 
L 58.479375 17.798437 
z
" style="fill: #ffffff"/>
   </g>
   <g id="patch_3">
    <path d="M 58.479375 307.542437 
L 381.349338 307.542437 
L 381.349338 17.798437 
L 58.479375 17.798437 
z
" clip-path="url(#p694a461a88)" style="fill: #cccccc; opacity: 0.12; stroke: #cccccc; stroke-linejoin: miter"/>
   </g>
   <g id="patch_4">
    <path d="M 381.349338 307.542437 
L 704.219301 307.542437 
L 704.219301 17.798437 
L 381.349338 17.798437 
z
" clip-path="url(#p694a461a88)" style="fill: #d94452; opacity: 0.06; stroke: #d94452; stroke-linejoin: miter"/>
   </g>
   <g id="line2d_1">
    <path d="M 381.349338 307.542437 
L 381.349338 17.798437 
" clip-path="url(#p694a461a88)" style="fill: none; stroke-dasharray: 3.7,1.6; stroke-dashoffset: 0; stroke: #999999"/>
   </g>
   <g id="matplotlib.axis_1">
    <g id="xtick_1">
     <g id="line2d_2">
      <defs>
       <path id="m543f3ba285" d="M 0 0 
L 0 3.5 
" style="stroke: #000000; stroke-width: 0.8"/>
      </defs>
      <g>
       <use xlink:href="#m543f3ba285" x="58.479375" y="307.542437" style="stroke: #000000; stroke-width: 0.8"/>
      </g>
     </g>
     <g id="text_1">
      <!-- 0.0 -->
      <g transform="translate(49.732656 322.900719) scale(0.11 -0.11)">
       <defs>
        <path id="DejaVuSans-30" d="M 2034 4250 
Q 1547 4250 1301 3770 
Q 1056 3291 1056 2328 
Q 1056 1369 1301 889 
Q 1547 409 2034 409 
Q 2525 409 2770 889 
Q 3016 1369 3016 2328 
Q 3016 3291 2770 3770 
Q 2525 4250 2034 4250 
z
M 2034 4750 
Q 2819 4750 3233 4129 
Q 3647 3509 3647 2328 
Q 3647 1150 3233 529 
Q 2819 -91 2034 -91 
Q 1250 -91 836 529 
Q 422 1150 422 2328 
Q 422 3509 836 4129 
Q 1250 4750 2034 4750 
z
" transform="scale(0.015625)"/>
        <path id="DejaVuSans-2e" d="M 684 794 
L 1344 794 
L 1344 0 
L 684 0 
L 684 794 
z
" transform="scale(0.015625)"/>
       </defs>
       <use xlink:href="#DejaVuSans-30"/>
       <use xlink:href="#DejaVuSans-2e" transform="translate(63.623047 0)"/>
       <use xlink:href="#DejaVuSans-30" transform="translate(95.410156 0)"/>
      </g>
     </g>
    </g>
    <g id="xtick_2">
     <g id="line2d_3">
      <g>
       <use xlink:href="#m543f3ba285" x="139.237245" y="307.542437" style="stroke: #000000; stroke-width: 0.8"/>
      </g>
     </g>
     <g id="text_2">
      <!-- 0.5 -->
      <g transform="translate(130.490526 322.900719) scale(0.11 -0.11)">
       <defs>
        <path id="DejaVuSans-35" d="M 691 4666 
L 3169 4666 
L 3169 4134 
L 1269 4134 
L 1269 2991 
Q 1406 3038 1543 3061 
Q 1681 3084 1819 3084 
Q 2600 3084 3056 2656 
Q 3513 2228 3513 1497 
Q 3513 744 3044 326 
Q 2575 -91 1722 -91 
Q 1428 -91 1123 -41 
Q 819 9 494 109 
L 494 744 
Q 775 591 1075 516 
Q 1375 441 1709 441 
Q 2250 441 2565 725 
Q 2881 1009 2881 1497 
Q 2881 1984 2565 2268 
Q 2250 2553 1709 2553 
Q 1456 2553 1204 2497 
Q 953 2441 691 2322 
L 691 4666 
z
" transform="scale(0.015625)"/>
       </defs>
       <use xlink:href="#DejaVuSans-30"/>
       <use xlink:href="#DejaVuSans-2e" transform="translate(63.623047 0)"/>
       <use xlink:href="#DejaVuSans-35" transform="translate(95.410156 0)"/>
      </g>
     </g>
    </g>
    <g id="xtick_3">
     <g id="line2d_4">
      <g>
       <use xlink:href="#m543f3ba285" x="219.995114" y="307.542437" style="stroke: #000000; stroke-width: 0.8"/>
      </g>
     </g>
     <g id="text_3">
      <!-- 1.0 -->
      <g transform="translate(211.248396 322.900719) scale(0.11 -0.11)">
       <defs>
        <path id="DejaVuSans-31" d="M 794 531 
L 1825 531 
L 1825 4091 
L 703 3866 
L 703 4441 
L 1819 4666 
L 2450 4666 
L 2450 531 
L 3481 531 
L 3481 0 
L 794 0 
L 794 531 
z
" transform="scale(0.015625)"/>
       </defs>
       <use xlink:href="#DejaVuSans-31"/>
       <use xlink:href="#DejaVuSans-2e" transform="translate(63.623047 0)"/>
       <use xlink:href="#DejaVuSans-30" transform="translate(95.410156 0)"/>
      </g>
     </g>
    </g>
    <g id="xtick_4">
     <g id="line2d_5">
      <g>
       <use xlink:href="#m543f3ba285" x="300.752984" y="307.542437" style="stroke: #000000; stroke-width: 0.8"/>
      </g>
     </g>
     <g id="text_4">
      <!-- 1.5 -->
      <g transform="translate(292.006265 322.900719) scale(0.11 -0.11)">
       <use xlink:href="#DejaVuSans-31"/>
       <use xlink:href="#DejaVuSans-2e" transform="translate(63.623047 0)"/>
       <use xlink:href="#DejaVuSans-35" transform="translate(95.410156 0)"/>
      </g>
     </g>
    </g>
    <g id="xtick_5">
     <g id="line2d_6">
      <g>
       <use xlink:href="#m543f3ba285" x="381.510854" y="307.542437" style="stroke: #000000; stroke-width: 0.8"/>
      </g>
     </g>
     <g id="text_5">
      <!-- 2.0 -->
      <g transform="translate(372.764135 322.900719) scale(0.11 -0.11)">
       <defs>
        <path id="DejaVuSans-32" d="M 1228 531 
L 3431 531 
L 3431 0 
L 469 0 
L 469 531 
Q 828 903 1448 1529 
Q 2069 2156 2228 2338 
Q 2531 2678 2651 2914 
Q 2772 3150 2772 3378 
Q 2772 3750 2511 3984 
Q 2250 4219 1831 4219 
Q 1534 4219 1204 4116 
Q 875 4013 500 3803 
L 500 4441 
Q 881 4594 1212 4672 
Q 1544 4750 1819 4750 
Q 2544 4750 2975 4387 
Q 3406 4025 3406 3419 
Q 3406 3131 3298 2873 
Q 3191 2616 2906 2266 
Q 2828 2175 2409 1742 
Q 1991 1309 1228 531 
z
" transform="scale(0.015625)"/>
       </defs>
       <use xlink:href="#DejaVuSans-32"/>
       <use xlink:href="#DejaVuSans-2e" transform="translate(63.623047 0)"/>
       <use xlink:href="#DejaVuSans-30" transform="translate(95.410156 0)"/>
      </g>
     </g>
    </g>
    <g id="xtick_6">
     <g id="line2d_7">
      <g>
       <use xlink:href="#m543f3ba285" x="462.268723" y="307.542437" style="stroke: #000000; stroke-width: 0.8"/>
      </g>
     </g>
     <g id="text_6">
      <!-- 2.5 -->
      <g transform="translate(453.522005 322.900719) scale(0.11 -0.11)">
       <use xlink:href="#DejaVuSans-32"/>
       <use xlink:href="#DejaVuSans-2e" transform="translate(63.623047 0)"/>
       <use xlink:href="#DejaVuSans-35" transform="translate(95.410156 0)"/>
      </g>
     </g>
    </g>
    <g id="xtick_7">
     <g id="line2d_8">
      <g>
       <use xlink:href="#m543f3ba285" x="543.026593" y="307.542437" style="stroke: #000000; stroke-width: 0.8"/>
      </g>
     </g>
     <g id="text_7">
      <!-- 3.0 -->
      <g transform="translate(534.279874 322.900719) scale(0.11 -0.11)">
       <defs>
        <path id="DejaVuSans-33" d="M 2597 2516 
Q 3050 2419 3304 2112 
Q 3559 1806 3559 1356 
Q 3559 666 3084 287 
Q 2609 -91 1734 -91 
Q 1441 -91 1130 -33 
Q 819 25 488 141 
L 488 750 
Q 750 597 1062 519 
Q 1375 441 1716 441 
Q 2309 441 2620 675 
Q 2931 909 2931 1356 
Q 2931 1769 2642 2001 
Q 2353 2234 1838 2234 
L 1294 2234 
L 1294 2753 
L 1863 2753 
Q 2328 2753 2575 2939 
Q 2822 3125 2822 3475 
Q 2822 3834 2567 4026 
Q 2313 4219 1838 4219 
Q 1578 4219 1281 4162 
Q 984 4106 628 3988 
L 628 4550 
Q 988 4650 1302 4700 
Q 1616 4750 1894 4750 
Q 2613 4750 3031 4423 
Q 3450 4097 3450 3541 
Q 3450 3153 3228 2886 
Q 3006 2619 2597 2516 
z
" transform="scale(0.015625)"/>
       </defs>
       <use xlink:href="#DejaVuSans-33"/>
       <use xlink:href="#DejaVuSans-2e" transform="translate(63.623047 0)"/>
       <use xlink:href="#DejaVuSans-30" transform="translate(95.410156 0)"/>
      </g>
     </g>
    </g>
    <g id="xtick_8">
     <g id="line2d_9">
      <g>
       <use xlink:href="#m543f3ba285" x="623.784463" y="307.542437" style="stroke: #000000; stroke-width: 0.8"/>
      </g>
     </g>
     <g id="text_8">
      <!-- 3.5 -->
      <g transform="translate(615.037744 322.900719) scale(0.11 -0.11)">
       <use xlink:href="#DejaVuSans-33"/>
       <use xlink:href="#DejaVuSans-2e" transform="translate(63.623047 0)"/>
       <use xlink:href="#DejaVuSans-35" transform="translate(95.410156 0)"/>
      </g>
     </g>
    </g>
    <g id="text_9">
     <!-- Time (s) -->
     <g transform="translate(349.130744 339.826187) scale(0.14 -0.14)">
      <defs>
       <path id="DejaVuSans-Bold-54" d="M 31 4666 
L 4331 4666 
L 4331 3756 
L 2784 3756 
L 2784 0 
L 1581 0 
L 1581 3756 
L 31 3756 
L 31 4666 
z
" transform="scale(0.015625)"/>
       <path id="DejaVuSans-Bold-69" d="M 538 3500 
L 1656 3500 
L 1656 0 
L 538 0 
L 538 3500 
z
M 538 4863 
L 1656 4863 
L 1656 3950 
L 538 3950 
L 538 4863 
z
" transform="scale(0.015625)"/>
       <path id="DejaVuSans-Bold-6d" d="M 3781 2919 
Q 3994 3244 4286 3414 
Q 4578 3584 4928 3584 
Q 5531 3584 5847 3212 
Q 6163 2841 6163 2131 
L 6163 0 
L 5038 0 
L 5038 1825 
Q 5041 1866 5042 1909 
Q 5044 1953 5044 2034 
Q 5044 2406 4934 2573 
Q 4825 2741 4581 2741 
Q 4263 2741 4089 2478 
Q 3916 2216 3909 1719 
L 3909 0 
L 2784 0 
L 2784 1825 
Q 2784 2406 2684 2573 
Q 2584 2741 2328 2741 
Q 2006 2741 1831 2477 
Q 1656 2213 1656 1722 
L 1656 0 
L 531 0 
L 531 3500 
L 1656 3500 
L 1656 2988 
Q 1863 3284 2130 3434 
Q 2397 3584 2719 3584 
Q 3081 3584 3359 3409 
Q 3638 3234 3781 2919 
z
" transform="scale(0.015625)"/>
       <path id="DejaVuSans-Bold-65" d="M 4031 1759 
L 4031 1441 
L 1416 1441 
Q 1456 1047 1700 850 
Q 1944 653 2381 653 
Q 2734 653 3104 758 
Q 3475 863 3866 1075 
L 3866 213 
Q 3469 63 3072 -14 
Q 2675 -91 2278 -91 
Q 1328 -91 801 392 
Q 275 875 275 1747 
Q 275 2603 792 3093 
Q 1309 3584 2216 3584 
Q 3041 3584 3536 3087 
Q 4031 2591 4031 1759 
z
M 2881 2131 
Q 2881 2450 2695 2645 
Q 2509 2841 2209 2841 
Q 1884 2841 1681 2658 
Q 1478 2475 1428 2131 
L 2881 2131 
z
" transform="scale(0.015625)"/>
       <path id="DejaVuSans-Bold-20" transform="scale(0.015625)"/>
       <path id="DejaVuSans-Bold-28" d="M 2413 -844 
L 1484 -844 
Q 1006 -72 778 623 
Q 550 1319 550 2003 
Q 550 2688 779 3389 
Q 1009 4091 1484 4856 
L 2413 4856 
Q 2013 4116 1813 3408 
Q 1613 2700 1613 2009 
Q 1613 1319 1811 609 
Q 2009 -100 2413 -844 
z
" transform="scale(0.015625)"/>
       <path id="DejaVuSans-Bold-73" d="M 3272 3391 
L 3272 2541 
Q 2913 2691 2578 2766 
Q 2244 2841 1947 2841 
Q 1628 2841 1473 2761 
Q 1319 2681 1319 2516 
Q 1319 2381 1436 2309 
Q 1553 2238 1856 2203 
L 2053 2175 
Q 2913 2066 3209 1816 
Q 3506 1566 3506 1031 
Q 3506 472 3093 190 
Q 2681 -91 1863 -91 
Q 1516 -91 1145 -36 
Q 775 19 384 128 
L 384 978 
Q 719 816 1070 734 
Q 1422 653 1784 653 
Q 2113 653 2278 743 
Q 2444 834 2444 1013 
Q 2444 1163 2330 1236 
Q 2216 1309 1875 1350 
L 1678 1375 
Q 931 1469 631 1722 
Q 331 1975 331 2491 
Q 331 3047 712 3315 
Q 1094 3584 1881 3584 
Q 2191 3584 2531 3537 
Q 2872 3491 3272 3391 
z
" transform="scale(0.015625)"/>
       <path id="DejaVuSans-Bold-29" d="M 513 -844 
Q 913 -100 1113 609 
Q 1313 1319 1313 2009 
Q 1313 2700 1113 3408 
Q 913 4116 513 4856 
L 1441 4856 
Q 1916 4091 2145 3389 
Q 2375 2688 2375 2003 
Q 2375 1319 2147 623 
Q 1919 -72 1441 -844 
L 513 -844 
z
" transform="scale(0.015625)"/>
      </defs>
      <use xlink:href="#DejaVuSans-Bold-54"/>
      <use xlink:href="#DejaVuSans-Bold-69" transform="translate(68.212891 0)"/>
      <use xlink:href="#DejaVuSans-Bold-6d" transform="translate(102.490234 0)"/>
      <use xlink:href="#DejaVuSans-Bold-65" transform="translate(206.689453 0)"/>
      <use xlink:href="#DejaVuSans-Bold-20" transform="translate(274.511719 0)"/>
      <use xlink:href="#DejaVuSans-Bold-28" transform="translate(309.326172 0)"/>
      <use xlink:href="#DejaVuSans-Bold-73" transform="translate(355.029297 0)"/>
      <use xlink:href="#DejaVuSans-Bold-29" transform="translate(414.550781 0)"/>
     </g>
    </g>
   </g>
   <g id="matplotlib.axis_2">
    <g id="ytick_1">
     <g id="line2d_10">
      <defs>
       <path id="ma590931f31" d="M 0 0 
L -3.5 0 
" style="stroke: #000000; stroke-width: 0.8"/>
      </defs>
      <g>
       <use xlink:href="#ma590931f31" x="58.479375" y="262.216884" style="stroke: #000000; stroke-width: 0.8"/>
      </g>
     </g>
     <g id="text_10">
      <!-- $\mathdefault{−1.0}$ -->
      <g transform="translate(24.749375 266.396025) scale(0.11 -0.11)">
       <defs>
        <path id="DejaVuSans-2212" d="M 678 2272 
L 4684 2272 
L 4684 1741 
L 678 1741 
L 678 2272 
z
" transform="scale(0.015625)"/>
       </defs>
       <use xlink:href="#DejaVuSans-2212" transform="translate(0 0.78125)"/>
       <use xlink:href="#DejaVuSans-31" transform="translate(83.789062 0.78125)"/>
       <use xlink:href="#DejaVuSans-2e" transform="translate(147.412109 0.78125)"/>
       <use xlink:href="#DejaVuSans-30" transform="translate(179.199219 0.78125)"/>
      </g>
     </g>
    </g>
    <g id="ytick_2">
     <g id="line2d_11">
      <g>
       <use xlink:href="#ma590931f31" x="58.479375" y="212.443661" style="stroke: #000000; stroke-width: 0.8"/>
      </g>
     </g>
     <g id="text_11">
      <!-- $\mathdefault{−0.5}$ -->
      <g transform="translate(24.749375 216.622801) scale(0.11 -0.11)">
       <use xlink:href="#DejaVuSans-2212" transform="translate(0 0.78125)"/>
       <use xlink:href="#DejaVuSans-30" transform="translate(83.789062 0.78125)"/>
       <use xlink:href="#DejaVuSans-2e" transform="translate(147.412109 0.78125)"/>
       <use xlink:href="#DejaVuSans-35" transform="translate(179.199219 0.78125)"/>
      </g>
     </g>
    </g>
    <g id="ytick_3">
     <g id="line2d_12">
      <g>
       <use xlink:href="#ma590931f31" x="58.479375" y="162.670437" style="stroke: #000000; stroke-width: 0.8"/>
      </g>
     </g>
     <g id="text_12">
      <!-- $\mathdefault{0.0}$ -->
      <g transform="translate(33.879375 166.849578) scale(0.11 -0.11)">
       <use xlink:href="#DejaVuSans-30" transform="translate(0 0.78125)"/>
       <use xlink:href="#DejaVuSans-2e" transform="translate(63.623047 0.78125)"/>
       <use xlink:href="#DejaVuSans-30" transform="translate(95.410156 0.78125)"/>
      </g>
     </g>
    </g>
    <g id="ytick_4">
     <g id="line2d_13">
      <g>
       <use xlink:href="#ma590931f31" x="58.479375" y="112.897214" style="stroke: #000000; stroke-width: 0.8"/>
      </g>
     </g>
     <g id="text_13">
      <!-- $\mathdefault{0.5}$ -->
      <g transform="translate(33.879375 117.076355) scale(0.11 -0.11)">
       <use xlink:href="#DejaVuSans-30" transform="translate(0 0.78125)"/>
       <use xlink:href="#DejaVuSans-2e" transform="translate(63.623047 0.78125)"/>
       <use xlink:href="#DejaVuSans-35" transform="translate(95.410156 0.78125)"/>
      </g>
     </g>
    </g>
    <g id="ytick_5">
     <g id="line2d_14">
      <g>
       <use xlink:href="#ma590931f31" x="58.479375" y="63.123991" style="stroke: #000000; stroke-width: 0.8"/>
      </g>
     </g>
     <g id="text_14">
      <!-- $\mathdefault{1.0}$ -->
      <g transform="translate(33.879375 67.303131) scale(0.11 -0.11)">
       <use xlink:href="#DejaVuSans-31" transform="translate(0 0.78125)"/>
       <use xlink:href="#DejaVuSans-2e" transform="translate(63.623047 0.78125)"/>
       <use xlink:href="#DejaVuSans-30" transform="translate(95.410156 0.78125)"/>
      </g>
     </g>
    </g>
    <g id="text_15">
     <!-- I$_{sc}$ (mA/m²) -->
     <g transform="translate(17.837813 205.300437) rotate(-90) scale(0.14 -0.14)">
      <defs>
       <path id="DejaVuSans-Bold-49" d="M 588 4666 
L 1791 4666 
L 1791 0 
L 588 0 
L 588 4666 
z
" transform="scale(0.015625)"/>
       <path id="DejaVuSans-Oblique-73" d="M 3200 3397 
L 3091 2853 
Q 2863 2978 2609 3040 
Q 2356 3103 2088 3103 
Q 1634 3103 1373 2948 
Q 1113 2794 1113 2528 
Q 1113 2219 1719 2053 
Q 1766 2041 1788 2034 
L 1972 1978 
Q 2547 1819 2739 1644 
Q 2931 1469 2931 1166 
Q 2931 609 2489 259 
Q 2047 -91 1331 -91 
Q 1053 -91 747 -37 
Q 441 16 72 128 
L 184 722 
Q 500 559 806 475 
Q 1113 391 1394 391 
Q 1816 391 2080 572 
Q 2344 753 2344 1031 
Q 2344 1331 1650 1516 
L 1591 1531 
L 1394 1581 
Q 956 1697 753 1886 
Q 550 2075 550 2369 
Q 550 2928 970 3256 
Q 1391 3584 2113 3584 
Q 2397 3584 2667 3537 
Q 2938 3491 3200 3397 
z
" transform="scale(0.015625)"/>
       <path id="DejaVuSans-Oblique-63" d="M 3431 3366 
L 3316 2797 
Q 3109 2947 2876 3022 
Q 2644 3097 2394 3097 
Q 2119 3097 1870 3000 
Q 1622 2903 1453 2725 
Q 1184 2453 1037 2087 
Q 891 1722 891 1331 
Q 891 859 1127 628 
Q 1363 397 1844 397 
Q 2081 397 2348 469 
Q 2616 541 2906 684 
L 2797 116 
Q 2547 13 2283 -39 
Q 2019 -91 1741 -91 
Q 1044 -91 669 257 
Q 294 606 294 1253 
Q 294 1797 489 2255 
Q 684 2713 1069 3078 
Q 1331 3328 1684 3456 
Q 2038 3584 2456 3584 
Q 2700 3584 2940 3529 
Q 3181 3475 3431 3366 
z
" transform="scale(0.015625)"/>
       <path id="DejaVuSans-Bold-41" d="M 3419 850 
L 1538 850 
L 1241 0 
L 31 0 
L 1759 4666 
L 3194 4666 
L 4922 0 
L 3713 0 
L 3419 850 
z
M 1838 1716 
L 3116 1716 
L 2478 3572 
L 1838 1716 
z
" transform="scale(0.015625)"/>
       <path id="DejaVuSans-Bold-2f" d="M 1644 4666 
L 2338 4666 
L 691 -594 
L 0 -594 
L 1644 4666 
z
" transform="scale(0.015625)"/>
       <path id="DejaVuSans-Bold-b2" d="M 1288 2613 
L 2444 2613 
L 2444 2088 
L 341 2088 
L 341 2566 
L 1319 3397 
Q 1509 3563 1590 3688 
Q 1672 3813 1672 3938 
Q 1672 4094 1558 4191 
Q 1444 4288 1259 4288 
Q 1066 4288 844 4217 
Q 622 4147 359 4000 
L 359 4581 
Q 631 4666 886 4708 
Q 1141 4750 1375 4750 
Q 1869 4750 2150 4548 
Q 2431 4347 2431 4000 
Q 2431 3775 2320 3586 
Q 2209 3397 1894 3128 
L 1288 2613 
z
" transform="scale(0.015625)"/>
      </defs>
      <use xlink:href="#DejaVuSans-Bold-49" transform="translate(0 0.125)"/>
      <use xlink:href="#DejaVuSans-Oblique-73" transform="translate(38.164062 -16.28125) scale(0.7)"/>
      <use xlink:href="#DejaVuSans-Oblique-63" transform="translate(74.633789 -16.28125) scale(0.7)"/>
      <use xlink:href="#DejaVuSans-Bold-20" transform="translate(115.854492 0.125)"/>
      <use xlink:href="#DejaVuSans-Bold-28" transform="translate(150.668945 0.125)"/>
      <use xlink:href="#DejaVuSans-Bold-6d" transform="translate(196.37207 0.125)"/>
      <use xlink:href="#DejaVuSans-Bold-41" transform="translate(300.571289 0.125)"/>
      <use xlink:href="#DejaVuSans-Bold-2f" transform="translate(377.963867 0.125)"/>
      <use xlink:href="#DejaVuSans-Bold-6d" transform="translate(414.487305 0.125)"/>
      <use xlink:href="#DejaVuSans-Bold-b2" transform="translate(518.686523 0.125)"/>
      <use xlink:href="#DejaVuSans-Bold-29" transform="translate(562.485352 0.125)"/>
     </g>
    </g>
    <g id="text_16">
     <!-- $\times\mathdefault{10^{−3}}\mathdefault{}$ -->
     <g transform="translate(58.479375 14.798437) scale(0.1 -0.1)">
      <defs>
       <path id="DejaVuSans-d7" d="M 4488 3438 
L 3059 2003 
L 4488 575 
L 4116 197 
L 2681 1631 
L 1247 197 
L 878 575 
L 2303 2003 
L 878 3438 
L 1247 3816 
L 2681 2381 
L 4116 3816 
L 4488 3438 
z
" transform="scale(0.015625)"/>
      </defs>
      <use xlink:href="#DejaVuSans-d7" transform="translate(0 0.765625)"/>
      <use xlink:href="#DejaVuSans-31" transform="translate(83.789062 0.765625)"/>
      <use xlink:href="#DejaVuSans-30" transform="translate(147.412109 0.765625)"/>
      <use xlink:href="#DejaVuSans-2212" transform="translate(211.992188 39.046875) scale(0.7)"/>
      <use xlink:href="#DejaVuSans-33" transform="translate(270.644531 39.046875) scale(0.7)"/>
     </g>
    </g>
   </g>
   <g id="patch_5">
    <path d="M 58.479375 307.542437 
L 58.479375 17.798437 
" style="fill: none; stroke: #000000; stroke-width: 0.8; stroke-linejoin: miter; stroke-linecap: square"/>
   </g>
   <g id="patch_6">
    <path d="M 58.479375 307.542437 
L 704.219301 307.542437 
" style="fill: none; stroke: #000000; stroke-width: 0.8; stroke-linejoin: miter; stroke-linecap: square"/>
   </g>
   <g id="line2d_15">
    <path d="M 58.479375 153.325704 
L 58.802406 153.405856 
L 59.609985 154.848588 
L 59.771501 155.008893 
L 59.933017 155.008893 
L 60.417564 155.730258 
L 60.57908 155.489801 
L 60.902111 156.050865 
L 61.063627 156.131015 
L 61.386658 155.970713 
L 61.548174 156.050865 
L 61.871206 156.531774 
L 62.032721 156.611926 
L 62.517268 157.25314 
L 62.8403 156.932533 
L 63.324847 157.333292 
L 63.647879 157.092838 
L 63.809394 157.092838 
L 63.97091 157.333292 
L 64.132426 157.333292 
L 64.293942 157.894356 
L 64.455457 157.814203 
L 64.778489 158.13481 
L 65.10152 158.13481 
L 65.424552 158.535569 
L 66.070615 158.13481 
L 66.23213 158.375265 
L 66.393646 158.295112 
L 66.878193 158.776024 
L 67.039709 158.776024 
L 67.847288 159.577542 
L 68.008804 159.577542 
L 68.170319 159.817996 
L 68.331835 159.737844 
L 68.493351 159.898149 
L 68.816382 159.978301 
L 68.977898 160.138603 
L 69.139414 159.898149 
L 69.30093 160.138603 
L 69.623961 160.218756 
L 69.785477 160.298907 
L 70.108508 160.619514 
L 70.43154 160.699666 
L 70.593055 160.779818 
L 70.754571 161.020273 
L 70.916087 160.85997 
L 71.077603 161.020273 
L 71.239118 161.020273 
L 71.400634 160.85997 
L 71.723666 161.020273 
L 71.885181 160.779818 
L 73.500339 161.581335 
L 73.661854 161.421032 
L 74.307917 161.34088 
L 74.469433 161.260728 
L 74.792465 161.501184 
L 74.95398 161.501184 
L 75.277012 161.741639 
L 75.923075 161.982094 
L 76.084591 161.901942 
L 76.246106 161.982094 
L 76.407622 161.741639 
L 76.892169 161.661487 
L 77.053685 161.581335 
L 77.215201 161.661487 
L 77.376716 161.501184 
L 77.699748 161.741639 
L 77.861264 161.901942 
L 78.345811 161.982094 
L 78.507327 162.142398 
L 79.637937 162.062246 
L 79.799453 161.982094 
L 80.122484 162.062246 
L 80.284 161.982094 
L 80.607031 162.222549 
L 81.091579 162.543156 
L 81.253094 162.382853 
L 81.41461 162.543156 
L 81.899157 162.463005 
L 82.222189 162.382853 
L 83.352799 162.302701 
L 83.67583 162.70346 
L 83.837346 162.70346 
L 83.998862 162.943915 
L 84.160378 162.70346 
L 84.321893 162.783612 
L 84.483409 163.024067 
L 84.806441 162.70346 
L 85.129472 162.623308 
L 85.452503 162.382853 
L 85.775535 162.943915 
L 85.937051 163.024067 
L 86.098566 162.863763 
L 86.260082 163.264522 
L 86.421598 162.943915 
L 86.583114 163.18437 
L 86.744629 163.024067 
L 87.390692 163.264522 
L 87.713724 162.783612 
L 87.87524 162.943915 
L 88.359787 162.863763 
L 88.844334 163.504977 
L 89.00585 163.504977 
L 89.328881 163.825584 
L 89.490397 163.745433 
L 89.651913 164.226343 
L 89.974944 163.905736 
L 90.13646 164.306495 
L 90.297976 164.386647 
L 90.459491 164.226343 
L 90.621007 164.306495 
L 90.782523 164.06604 
L 90.944039 164.06604 
L 91.105554 164.386647 
L 91.26707 164.226343 
L 91.751617 164.947709 
L 92.236165 164.707254 
L 92.720712 165.348468 
L 93.366775 165.108013 
L 93.689806 165.829377 
L 93.851322 165.989682 
L 94.335869 167.111807 
L 94.497385 167.512566 
L 94.658901 167.592718 
L 95.143448 168.554538 
L 95.304964 168.875145 
L 95.466479 168.875145 
L 95.789511 169.756813 
L 95.951027 169.836965 
L 96.435574 171.359849 
L 97.081637 173.604099 
L 97.566184 175.768197 
L 99.181341 185.065797 
L 99.98892 193.161116 
L 100.958014 206.546455 
L 101.604077 218.729521 
L 102.411656 237.725472 
L 103.703782 269.625852 
L 104.026813 272.83192 
L 104.188329 272.591466 
L 104.511361 269.144944 
L 104.995908 257.282491 
L 106.44955 213.118909 
L 106.934097 184.905495 
L 107.741675 137.455646 
L 108.226223 119.742102 
L 108.872286 104.833877 
L 109.518349 96.818696 
L 110.164412 90.96763 
L 110.810475 88.803515 
L 110.97199 88.72338 
L 111.133506 88.883675 
L 111.456537 89.845492 
L 111.779569 91.368379 
L 112.587148 98.181288 
L 113.717758 109.642991 
L 114.363821 115.894831 
L 116.786557 134.650353 
L 118.886262 144.589162 
L 119.532324 146.913564 
L 119.69384 147.073866 
L 120.178387 148.276143 
L 120.662935 149.558573 
L 120.82445 149.718875 
L 120.985966 150.680695 
L 121.147482 150.921152 
L 121.955061 153.165402 
L 122.116576 152.844793 
L 122.439608 153.486009 
L 122.762639 153.886768 
L 122.924155 153.886768 
L 123.570218 154.688283 
L 124.054765 155.169195 
L 124.377797 155.810408 
L 124.539312 155.810408 
L 124.700828 156.050865 
L 124.862344 155.970713 
L 125.185375 156.29132 
L 125.346891 156.29132 
L 125.508407 155.970713 
L 125.992954 156.050865 
L 126.15447 156.211167 
L 126.315986 156.531774 
L 126.477501 156.531774 
L 126.800533 157.333292 
L 126.962048 157.25314 
L 127.123564 157.493597 
L 127.28508 157.413444 
L 127.608111 157.894356 
L 127.769627 157.814203 
L 128.254174 157.974506 
L 128.41569 157.894356 
L 128.577206 158.054658 
L 128.738722 158.054658 
L 129.061753 158.295112 
L 129.384785 158.295112 
L 129.869332 159.176783 
L 130.192363 158.856176 
L 130.353879 159.09663 
L 130.515395 159.016478 
L 130.838426 159.417237 
L 131.322973 159.417237 
L 131.807521 159.898149 
L 131.969036 159.898149 
L 132.453584 160.459211 
L 132.615099 160.459211 
L 132.776615 160.699666 
L 134.068741 160.619514 
L 134.230257 160.85997 
L 134.553288 160.779818 
L 134.87632 161.180577 
L 135.037835 161.180577 
L 135.199351 161.34088 
L 135.360867 161.180577 
L 135.522383 161.180577 
L 135.683898 161.34088 
L 136.168446 161.180577 
L 136.652993 161.260728 
L 136.814509 161.34088 
L 137.13754 161.260728 
L 137.460572 161.581335 
L 138.106634 161.901942 
L 138.26815 161.821791 
L 138.429666 161.982094 
L 138.591182 161.821791 
L 138.752697 161.901942 
L 139.075729 161.741639 
L 139.237245 161.901942 
L 139.39876 161.821791 
L 139.883308 161.982094 
L 140.044823 161.821791 
L 140.529371 161.982094 
L 141.175434 162.062246 
L 141.336949 162.142398 
L 141.659981 161.901942 
L 141.821496 162.142398 
L 141.983012 161.982094 
L 142.144528 162.142398 
L 142.629075 162.142398 
L 142.952107 162.463005 
L 143.275138 162.543156 
L 143.59817 162.623308 
L 143.759685 162.623308 
L 144.082717 162.382853 
L 144.244233 162.623308 
L 144.72878 162.463005 
L 145.213327 162.623308 
L 145.374843 162.463005 
L 145.697874 162.70346 
L 146.020906 162.783612 
L 146.182421 162.783612 
L 146.343937 163.024067 
L 146.505453 162.863763 
L 147.151516 162.783612 
L 147.313032 162.302701 
L 147.474547 162.783612 
L 147.636063 162.70346 
L 147.797579 163.104219 
L 147.959095 162.863763 
L 148.282126 163.264522 
L 148.605158 163.18437 
L 148.766673 163.18437 
L 148.928189 162.943915 
L 149.089705 163.264522 
L 149.735768 162.943915 
L 150.058799 163.104219 
L 150.220315 162.943915 
L 150.866378 163.18437 
L 151.027894 163.18437 
L 151.350925 163.504977 
L 151.673957 163.344674 
L 151.835472 163.745433 
L 151.996988 163.825584 
L 152.158504 163.424826 
L 152.481535 163.825584 
L 152.643051 163.745433 
L 153.289114 163.985888 
L 153.612145 164.466799 
L 153.935177 164.466799 
L 154.258208 164.787406 
L 154.419724 164.787406 
L 154.742756 164.54695 
L 154.904271 164.707254 
L 155.065787 164.466799 
L 155.388819 164.54695 
L 155.550334 164.54695 
L 155.71185 164.947709 
L 155.873366 164.867557 
L 156.034882 165.428621 
L 156.196397 165.50877 
L 156.357913 165.348468 
L 156.519429 165.749227 
L 156.680945 165.588923 
L 157.003976 165.90953 
L 157.165492 165.749227 
L 157.488523 166.149986 
L 157.811555 166.711048 
L 157.97307 166.7912 
L 158.619133 168.153779 
L 158.780649 168.314081 
L 159.103681 168.955297 
L 159.265196 169.596511 
L 159.426712 169.756813 
L 160.072775 171.359849 
L 160.234291 171.440002 
L 161.041869 174.565919 
L 161.849448 179.054416 
L 162.980058 186.668834 
L 163.787637 195.164911 
L 164.272184 201.577046 
L 165.079763 215.844068 
L 166.371889 246.782631 
L 167.340983 269.866307 
L 167.664015 272.751785 
L 167.825531 272.511331 
L 168.148562 268.984649 
L 168.633109 257.442811 
L 170.086751 213.519658 
L 170.571298 184.424584 
L 171.378877 136.654148 
L 171.863424 118.860444 
L 172.509487 104.513263 
L 173.478581 93.692788 
L 173.963129 89.765333 
L 174.28616 88.72338 
L 174.609192 88.402766 
L 174.770707 88.72338 
L 175.41677 91.528673 
L 179.131632 125.513034 
L 179.777695 130.402307 
L 181.715884 141.463244 
L 183.492557 148.115841 
L 183.654073 148.276143 
L 183.977104 149.237964 
L 184.300136 150.119634 
L 184.461652 150.279939 
L 185.430746 152.444036 
L 186.076809 153.886768 
L 186.238325 154.127222 
L 186.399841 154.127222 
L 186.561356 154.527981 
L 186.722872 154.527981 
L 187.207419 155.089042 
L 187.368935 155.008893 
L 188.014998 155.970713 
L 188.338029 155.89056 
L 188.822577 156.531774 
L 189.46864 156.531774 
L 189.630155 156.692079 
L 189.953187 156.611926 
L 190.114703 157.012685 
L 190.276218 156.852381 
L 190.437734 157.17299 
L 190.59925 157.17299 
L 190.760765 157.493597 
L 190.922281 157.413444 
L 191.245313 157.974506 
L 191.406828 158.054658 
L 191.568344 157.894356 
L 191.891376 158.295112 
L 192.052891 157.974506 
L 192.375923 158.295112 
L 192.698954 158.214963 
L 193.668049 158.776024 
L 194.637143 159.817996 
L 194.960175 159.737844 
L 195.444722 159.978301 
L 195.606238 159.817996 
L 195.767753 160.298907 
L 196.252301 160.379059 
L 196.736848 160.940121 
L 196.898364 160.940121 
L 197.059879 161.100425 
L 198.513521 161.100425 
L 198.675037 161.260728 
L 198.836552 161.260728 
L 198.998068 161.421032 
L 199.159584 161.260728 
L 199.644131 161.661487 
L 199.805647 161.581335 
L 200.128678 161.661487 
L 200.290194 161.581335 
L 200.45171 161.661487 
L 200.774741 161.501184 
L 201.097773 161.661487 
L 201.259289 161.501184 
L 201.420804 161.821791 
L 201.58232 161.661487 
L 201.743836 161.821791 
L 201.905352 162.142398 
L 202.228383 162.142398 
L 202.551414 162.382853 
L 202.71293 162.463005 
L 202.874446 162.382853 
L 203.035962 162.142398 
L 203.197477 162.222549 
L 203.358993 162.062246 
L 203.520509 162.142398 
L 203.682025 162.062246 
L 203.84354 161.821791 
L 204.005056 162.062246 
L 204.489603 162.142398 
L 204.651119 162.222549 
L 204.812635 162.142398 
L 204.974151 162.382853 
L 205.135666 162.302701 
L 205.297182 162.543156 
L 205.620214 162.302701 
L 205.943245 162.463005 
L 206.427792 162.302701 
L 206.750824 162.382853 
L 206.912339 162.382853 
L 207.073855 162.623308 
L 207.235371 162.543156 
L 207.719918 163.024067 
L 207.881434 162.943915 
L 208.04295 163.024067 
L 208.850528 162.623308 
L 209.012044 162.70346 
L 209.335076 162.623308 
L 209.496591 162.70346 
L 209.819623 163.024067 
L 210.465686 163.424826 
L 210.627201 163.024067 
L 210.788717 163.344674 
L 210.950233 163.024067 
L 211.273264 163.264522 
L 211.919327 163.024067 
L 212.080843 163.18437 
L 212.242359 162.943915 
L 212.403875 163.18437 
L 212.56539 163.104219 
L 212.726906 163.504977 
L 212.888422 163.585129 
L 213.211453 163.504977 
L 213.372969 163.504977 
L 213.534485 163.665281 
L 213.857516 163.665281 
L 214.019032 163.504977 
L 214.180548 163.585129 
L 214.665095 163.424826 
L 214.826611 163.665281 
L 214.988126 163.665281 
L 215.149642 163.825584 
L 215.311158 163.745433 
L 215.472674 163.905736 
L 215.634189 163.905736 
L 215.957221 164.306495 
L 216.118737 164.466799 
L 216.280252 164.226343 
L 216.441768 164.54695 
L 216.603284 164.306495 
L 217.087831 164.867557 
L 217.410862 164.54695 
L 217.572378 164.867557 
L 217.733894 164.787406 
L 219.187536 165.588923 
L 219.672083 165.188164 
L 219.833599 165.588923 
L 219.995114 165.588923 
L 220.15663 165.749227 
L 220.318146 166.149986 
L 220.479662 165.989682 
L 220.802693 166.550743 
L 220.964209 166.550743 
L 221.448756 167.512566 
L 221.771787 167.913325 
L 221.933303 168.153779 
L 222.094819 168.153779 
L 222.579366 169.275904 
L 223.386945 170.95909 
L 223.709976 172.001063 
L 223.871492 172.401822 
L 224.517555 174.806374 
L 224.840586 176.088803 
L 225.163618 177.771989 
L 225.325134 178.333051 
L 227.101807 192.279458 
L 227.909386 202.458729 
L 228.716964 217.04634 
L 230.00909 248.225357 
L 230.978185 270.106761 
L 231.301216 273.392989 
L 231.462732 273.152534 
L 231.785763 270.347216 
L 232.270311 258.645083 
L 233.723952 212.798295 
L 234.370015 171.440002 
L 235.016078 134.409898 
L 235.500625 117.177263 
L 236.146688 103.310991 
L 236.954267 94.814901 
L 237.60033 90.166107 
L 237.923361 89.124129 
L 238.084877 88.883675 
L 238.246393 88.883675 
L 238.569424 89.444743 
L 239.053972 91.769128 
L 240.023066 100.746152 
L 242.445802 123.749693 
L 243.253381 130.081693 
L 243.737928 133.287761 
L 245.19157 141.383092 
L 246.483696 146.112046 
L 248.5834 152.043277 
L 248.744916 152.123427 
L 248.906432 153.08525 
L 249.067947 152.924945 
L 249.71401 154.287527 
L 249.875526 154.608133 
L 250.037042 154.447829 
L 250.521589 155.569954 
L 251.490683 156.611926 
L 251.813715 156.371472 
L 252.136746 156.692079 
L 252.459778 156.611926 
L 252.621294 156.611926 
L 252.782809 156.932533 
L 252.944325 156.932533 
L 253.428872 157.333292 
L 253.751904 157.413444 
L 253.91342 157.814203 
L 254.074935 157.653899 
L 254.236451 157.653899 
L 254.397967 157.894356 
L 254.559483 157.653899 
L 254.720998 158.054658 
L 255.205545 158.13481 
L 255.528577 158.535569 
L 256.013124 159.09663 
L 256.17464 158.936328 
L 256.336156 159.337087 
L 256.497671 159.256935 
L 257.143734 159.657694 
L 257.30525 159.337087 
L 257.466766 159.577542 
L 257.789797 159.577542 
L 257.951313 159.898149 
L 258.274345 159.978301 
L 258.43586 160.138603 
L 258.597376 160.058453 
L 258.758892 160.379059 
L 258.920407 160.379059 
L 259.081923 160.699666 
L 259.243439 160.619514 
L 259.56647 160.85997 
L 260.697081 160.940121 
L 261.020112 161.260728 
L 261.181628 161.180577 
L 261.343144 161.421032 
L 261.504659 161.34088 
L 261.666175 161.661487 
L 262.312238 161.661487 
L 262.635269 161.421032 
L 262.796785 161.581335 
L 262.958301 161.501184 
L 263.119817 161.581335 
L 263.442848 161.501184 
L 263.76588 161.741639 
L 263.927395 161.741639 
L 264.088911 161.901942 
L 264.411943 161.901942 
L 264.734974 162.222549 
L 264.89649 162.062246 
L 265.058006 162.142398 
L 265.381037 161.982094 
L 265.704069 162.062246 
L 266.0271 162.142398 
L 266.188616 162.382853 
L 266.350131 162.382853 
L 266.511647 162.543156 
L 266.673163 162.463005 
L 266.834679 162.623308 
L 267.15771 162.463005 
L 267.319226 162.623308 
L 267.803773 162.222549 
L 267.965289 162.302701 
L 268.126805 162.222549 
L 268.28832 162.302701 
L 268.611352 162.222549 
L 269.095899 162.623308 
L 269.418931 162.70346 
L 269.903478 162.943915 
L 270.064994 162.863763 
L 270.388025 162.943915 
L 270.549541 162.70346 
L 271.034088 162.863763 
L 271.357119 162.70346 
L 271.680151 163.104219 
L 272.164698 163.18437 
L 272.326214 163.264522 
L 272.48773 163.18437 
L 272.810761 163.344674 
L 272.972277 163.585129 
L 273.133793 163.18437 
L 273.295308 163.264522 
L 273.456824 163.18437 
L 273.61834 163.424826 
L 273.779856 163.424826 
L 273.941371 163.18437 
L 274.102887 163.18437 
L 274.264403 163.504977 
L 274.425918 163.424826 
L 274.587434 163.825584 
L 274.910466 163.665281 
L 275.071981 164.06604 
L 275.233497 163.745433 
L 275.395013 163.825584 
L 275.87956 163.665281 
L 276.202592 163.905736 
L 276.364107 163.665281 
L 276.525623 163.985888 
L 276.687139 163.585129 
L 277.01017 164.306495 
L 277.171686 164.06604 
L 277.333202 164.54695 
L 277.494718 164.386647 
L 277.817749 164.306495 
L 277.979265 164.54695 
L 278.14078 164.386647 
L 278.302296 164.466799 
L 278.463812 163.985888 
L 278.625328 163.985888 
L 278.786843 163.665281 
L 278.948359 164.306495 
L 279.109875 164.306495 
L 279.271391 164.707254 
L 279.432906 164.466799 
L 279.594422 164.707254 
L 279.755938 164.707254 
L 280.078969 165.027861 
L 280.563517 165.428621 
L 280.725032 165.348468 
L 281.048064 165.749227 
L 281.20958 165.588923 
L 281.371095 165.989682 
L 281.532611 165.108013 
L 281.694127 165.268316 
L 281.855642 165.90953 
L 282.017158 165.50877 
L 282.178674 165.749227 
L 282.34019 165.50877 
L 282.501705 165.50877 
L 282.663221 166.230136 
L 282.824737 166.390441 
L 282.986253 166.390441 
L 283.147768 165.669075 
L 283.4708 166.630895 
L 283.632316 165.90953 
L 283.793831 166.711048 
L 283.955347 166.149986 
L 284.60141 167.272109 
L 284.762926 167.352261 
L 285.085957 168.233932 
L 285.247473 168.314081 
L 285.570504 168.955297 
L 285.73202 169.676663 
L 285.893536 169.356056 
L 286.378083 170.798788 
L 286.539599 170.638484 
L 287.185662 172.001063 
L 287.347178 172.241517 
L 287.831725 174.004858 
L 288.477788 176.649864 
L 288.800819 178.653657 
L 288.962335 179.054416 
L 290.254461 188.031413 
L 290.577492 190.997026 
L 291.385071 201.016003 
L 292.19265 214.000567 
L 293.807807 253.114606 
L 294.615386 271.709808 
L 294.776902 273.392989 
L 295.099933 274.114352 
L 295.261449 272.431171 
L 295.745996 262.171765 
L 296.230543 247.343699 
L 296.876606 227.866815 
L 297.199638 219.450885 
L 297.522669 203.180092 
L 298.653279 134.730487 
L 299.137827 117.978762 
L 299.622374 106.276604 
L 300.268437 97.620219 
L 300.9145 91.688993 
L 301.237531 90.005812 
L 301.722078 89.043969 
L 301.883594 89.124129 
L 302.529657 91.368379 
L 303.337236 97.700379 
L 303.983299 104.673583 
L 304.144814 105.475106 
L 305.921488 122.948195 
L 306.406035 126.394717 
L 306.567551 128.558807 
L 306.729066 129.119875 
L 307.536645 135.131261 
L 308.344224 139.459449 
L 309.313318 143.867796 
L 309.474834 145.150226 
L 309.63635 145.230375 
L 309.797865 145.791439 
L 309.959381 146.913564 
L 310.443928 148.035689 
L 310.76696 149.157814 
L 311.574539 150.520393 
L 311.736054 151.882972 
L 311.89757 151.482213 
L 312.543633 153.405856 
L 313.02818 154.608133 
L 313.189696 154.367677 
L 313.351212 154.848588 
L 313.512727 154.768436 
L 313.835759 155.650106 
L 313.997275 155.730258 
L 314.15879 155.970713 
L 314.481822 155.970713 
L 314.643338 156.211167 
L 314.966369 156.932533 
L 315.127885 157.092838 
L 315.289401 156.932533 
L 315.450916 157.493597 
L 315.773948 157.333292 
L 315.935463 157.493597 
L 316.096979 157.413444 
L 316.258495 157.17299 
L 316.420011 157.493597 
L 316.743042 157.493597 
L 316.904558 157.894356 
L 317.066074 157.653899 
L 317.227589 158.13481 
L 317.389105 158.054658 
L 317.712137 158.295112 
L 318.196684 158.856176 
L 318.3582 158.695871 
L 318.519715 158.856176 
L 318.681231 158.776024 
L 318.842747 159.09663 
L 319.165778 158.695871 
L 319.48881 159.016478 
L 319.811841 158.936328 
L 319.973357 159.417237 
L 320.134873 159.49739 
L 320.296388 159.417237 
L 320.780936 159.817996 
L 321.426999 160.058453 
L 321.588514 160.058453 
L 321.75003 160.218756 
L 322.073062 160.138603 
L 322.396093 160.699666 
L 322.557609 160.539363 
L 323.526703 161.501184 
L 323.688219 161.34088 
L 323.849735 161.581335 
L 324.334282 161.421032 
L 324.495798 161.501184 
L 324.657313 161.34088 
L 324.818829 161.421032 
L 325.141861 161.34088 
L 325.626408 161.661487 
L 325.949439 161.982094 
L 326.110955 161.901942 
L 326.433987 162.062246 
L 326.757018 161.982094 
L 326.918534 162.062246 
L 327.080049 161.661487 
L 327.241565 161.821791 
L 327.887628 161.901942 
L 329.34127 162.623308 
L 329.502786 162.543156 
L 329.825817 162.623308 
L 330.148849 162.623308 
L 330.310364 162.463005 
L 330.47188 162.543156 
L 330.633396 162.463005 
L 330.794911 162.543156 
L 330.956427 162.783612 
L 331.279459 162.70346 
L 331.925522 162.70346 
L 332.087037 162.943915 
L 332.248553 162.70346 
L 332.7331 162.863763 
L 332.894616 162.783612 
L 333.056132 162.863763 
L 333.217648 162.623308 
L 333.379163 163.024067 
L 333.540679 162.943915 
L 333.702195 163.104219 
L 333.863711 162.943915 
L 334.348258 163.344674 
L 334.671289 163.264522 
L 335.155836 163.104219 
L 335.317352 163.264522 
L 335.478868 163.104219 
L 335.963415 163.18437 
L 337.417057 163.905736 
L 337.578573 163.665281 
L 337.740088 163.825584 
L 337.901604 163.504977 
L 338.224635 163.825584 
L 338.386151 163.665281 
L 338.709183 163.665281 
L 338.870698 163.985888 
L 339.355246 164.06604 
L 339.678277 164.306495 
L 339.839793 164.306495 
L 340.001309 164.466799 
L 340.808887 164.146191 
L 340.970403 164.386647 
L 341.131919 164.06604 
L 341.45495 164.306495 
L 341.616466 164.226343 
L 341.777982 164.54695 
L 341.939497 164.54695 
L 342.101013 164.386647 
L 342.262529 164.627102 
L 342.424045 164.627102 
L 342.58556 164.867557 
L 342.747076 164.867557 
L 342.908592 164.627102 
L 343.070108 164.867557 
L 343.231623 164.867557 
L 343.393139 165.188164 
L 343.554655 164.867557 
L 343.877686 165.428621 
L 344.039202 165.268316 
L 344.200718 165.268316 
L 344.362234 165.428621 
L 344.523749 165.989682 
L 344.685265 165.90953 
L 345.331328 166.149986 
L 345.977391 166.230136 
L 346.138907 166.550743 
L 346.300422 166.310289 
L 346.623454 166.390441 
L 346.78497 166.310289 
L 346.946485 166.470593 
L 347.431033 167.352261 
L 347.592548 167.272109 
L 347.754064 167.592718 
L 347.91558 167.512566 
L 348.400127 168.233932 
L 348.723159 168.474386 
L 348.884674 168.955297 
L 349.04619 169.035447 
L 350.822863 172.722429 
L 351.145895 173.844554 
L 351.30741 174.004858 
L 351.791958 175.688044 
L 352.438021 178.573507 
L 353.245599 183.382611 
L 354.376209 193.000821 
L 355.345304 206.38616 
L 355.991367 218.649386 
L 357.445008 253.43522 
L 358.252587 271.068604 
L 358.575619 273.232694 
L 358.737134 272.83192 
L 359.060166 268.263286 
L 359.706229 252.232948 
L 360.352292 231.072882 
L 360.836839 218.248612 
L 361.15987 202.538889 
L 362.290481 134.810647 
L 362.936544 113.570422 
L 363.259575 106.03615 
L 363.905638 97.940833 
L 364.713217 90.566856 
L 365.036248 89.043969 
L 365.35928 88.482925 
L 365.520795 88.56306 
L 366.166858 91.208084 
L 366.651406 94.97522 
L 370.366268 129.36033 
L 370.689299 131.52442 
L 372.304456 141.383092 
L 372.465972 141.783851 
L 372.789004 143.14643 
L 374.404161 149.157814 
L 374.565677 149.47842 
L 374.888708 150.841 
L 375.050224 150.841 
L 375.373256 151.562366 
L 376.665381 154.287527 
L 376.826897 154.848588 
L 376.988413 154.768436 
L 377.311444 155.409649 
L 377.47296 155.489801 
L 377.634476 156.131015 
L 377.795992 155.810408 
L 378.119023 156.211167 
L 378.280539 156.131015 
L 378.442055 156.211167 
L 378.60357 156.451624 
L 378.765086 156.932533 
L 378.926602 157.012685 
L 379.088118 157.25314 
L 379.249633 157.25314 
L 379.572665 157.573747 
L 379.895696 157.653899 
L 380.057212 157.814203 
L 380.218728 158.295112 
L 380.380243 158.054658 
L 380.703275 158.214963 
L 380.864791 158.054658 
L 381.026306 158.13481 
L 381.187822 158.054658 
L 381.349338 158.13481 
L 381.349338 158.13481 
" clip-path="url(#p694a461a88)" style="fill: none; stroke: #333333; stroke-width: 0.8; stroke-linecap: square"/>
   </g>
   <g id="line2d_16">
    <path d="M 381.349338 158.936328 
L 381.995401 159.016478 
L 382.156917 159.09663 
L 382.479948 159.577542 
L 382.641464 159.337087 
L 382.964495 159.577542 
L 383.126011 159.577542 
L 383.287527 159.898149 
L 383.449043 159.817996 
L 383.610558 159.417237 
L 384.095105 159.737844 
L 384.256621 159.577542 
L 384.579653 159.817996 
L 384.741168 159.737844 
L 384.902684 160.138603 
L 385.0642 160.058453 
L 385.225716 160.298907 
L 385.387231 160.298907 
L 385.548747 160.539363 
L 385.710263 160.459211 
L 386.033294 160.699666 
L 386.517842 160.699666 
L 386.679357 160.539363 
L 386.840873 160.699666 
L 387.163905 160.459211 
L 387.32542 160.85997 
L 387.486936 160.699666 
L 387.648452 160.699666 
L 387.971483 161.180577 
L 388.617546 161.180577 
L 388.779062 161.34088 
L 388.940578 161.180577 
L 389.102093 161.180577 
L 389.263609 161.34088 
L 389.586641 161.100425 
L 389.748156 161.260728 
L 389.909672 161.180577 
L 391.201798 161.741639 
L 391.363314 161.741639 
L 391.524829 161.581335 
L 391.847861 161.501184 
L 392.009377 161.421032 
L 392.170892 161.581335 
L 392.332408 161.501184 
L 392.493924 161.581335 
L 392.65544 161.501184 
L 393.139987 161.821791 
L 393.301503 161.982094 
L 393.463018 161.982094 
L 393.624534 162.142398 
L 393.947566 162.142398 
L 394.270597 161.741639 
L 395.724239 161.661487 
L 396.04727 162.062246 
L 396.208786 162.062246 
L 396.370302 162.222549 
L 396.693333 162.062246 
L 396.854849 162.222549 
L 397.339396 161.982094 
L 397.500912 162.142398 
L 397.823943 162.062246 
L 398.308491 162.142398 
L 399.116069 162.623308 
L 399.277585 162.463005 
L 399.439101 162.623308 
L 399.600616 162.623308 
L 399.762132 162.463005 
L 400.408195 162.382853 
L 400.569711 162.222549 
L 400.731227 162.302701 
L 400.892742 162.623308 
L 401.215774 162.382853 
L 401.37729 162.70346 
L 401.700321 162.543156 
L 402.023353 162.783612 
L 402.184868 162.463005 
L 402.346384 162.463005 
L 402.5079 162.623308 
L 403.476994 162.623308 
L 403.63851 162.463005 
L 403.800026 162.623308 
L 404.123057 162.623308 
L 404.284573 162.943915 
L 404.446089 162.863763 
L 404.76912 162.543156 
L 404.930636 162.543156 
L 405.253667 162.302701 
L 405.415183 162.543156 
L 405.576699 162.302701 
L 405.738215 162.623308 
L 405.89973 162.623308 
L 406.061246 162.302701 
L 406.384277 162.783612 
L 406.545793 162.70346 
L 406.707309 163.104219 
L 406.868825 162.863763 
L 407.03034 163.18437 
L 407.191856 163.024067 
L 407.514888 163.424826 
L 407.837919 163.024067 
L 407.999435 162.70346 
L 408.160951 162.70346 
L 408.322466 163.024067 
L 408.483982 162.70346 
L 408.645498 162.943915 
L 408.807014 162.863763 
L 408.968529 163.104219 
L 409.130045 162.943915 
L 409.453077 163.024067 
L 409.776108 163.264522 
L 409.937624 163.424826 
L 410.099139 163.344674 
L 410.422171 163.504977 
L 410.745202 163.344674 
L 411.068234 163.585129 
L 411.22975 163.665281 
L 411.552781 163.504977 
L 411.714297 163.665281 
L 412.198844 164.627102 
L 412.683391 164.787406 
L 412.844907 164.707254 
L 413.006423 165.268316 
L 413.49097 165.348468 
L 413.652486 165.428621 
L 413.814001 165.348468 
L 414.783096 167.432413 
L 415.429159 169.035447 
L 415.590675 169.195752 
L 416.236738 170.718636 
L 417.044316 173.20334 
L 418.982505 184.023825 
L 420.274631 196.447343 
L 421.889788 212.237226 
L 422.21282 213.118909 
L 422.374336 213.359364 
L 422.697367 212.076932 
L 423.020399 208.55025 
L 423.34343 202.538889 
L 423.989493 191.157321 
L 424.151009 188.752776 
L 424.635556 173.123188 
L 425.281619 150.279939 
L 425.766166 139.299147 
L 426.089198 135.211396 
L 426.573745 132.005329 
L 426.896776 131.043511 
L 427.219808 130.562602 
L 427.542839 130.402307 
L 428.188902 130.642762 
L 428.350418 130.642762 
L 428.511934 130.803057 
L 428.834965 130.883216 
L 429.157997 131.52442 
L 429.319512 131.60458 
L 429.965575 133.047306 
L 431.096186 137.375511 
L 431.419217 138.738083 
L 433.19589 145.230375 
L 433.518922 146.512805 
L 433.841953 147.314323 
L 434.3265 148.917357 
L 435.134079 150.760847 
L 435.295595 151.001304 
L 435.457111 151.482213 
L 435.618626 151.562366 
L 435.780142 152.363884 
L 435.941658 152.524186 
L 436.264689 153.165402 
L 436.587721 154.04707 
L 436.910752 154.608133 
L 437.072268 154.768436 
L 437.233784 155.089042 
L 437.395299 155.089042 
L 437.556815 155.569954 
L 437.718331 155.329499 
L 437.879847 155.569954 
L 438.041362 155.489801 
L 438.364394 156.29132 
L 438.52591 156.29132 
L 439.010457 156.852381 
L 439.171973 157.17299 
L 439.333488 157.17299 
L 439.979551 158.054658 
L 440.141067 157.653899 
L 440.464098 158.214963 
L 440.625614 158.295112 
L 440.948646 157.974506 
L 441.271677 158.535569 
L 441.594709 158.856176 
L 441.91774 158.936328 
L 442.240772 158.695871 
L 442.402287 159.176783 
L 442.563803 158.695871 
L 442.725319 159.016478 
L 442.886835 159.016478 
L 443.04835 159.176783 
L 443.371382 159.176783 
L 443.694413 158.776024 
L 443.855929 158.856176 
L 444.017445 159.09663 
L 444.17896 158.936328 
L 444.340476 159.09663 
L 444.501992 159.417237 
L 444.663508 159.176783 
L 445.309571 159.577542 
L 445.471086 159.417237 
L 445.955634 159.417237 
L 446.117149 159.577542 
L 446.278665 159.337087 
L 446.601697 159.737844 
L 446.763212 159.737844 
L 446.924728 159.898149 
L 447.086244 159.737844 
L 447.24776 159.978301 
L 447.732307 159.898149 
L 447.893822 160.138603 
L 448.055338 160.058453 
L 448.216854 160.218756 
L 448.862917 159.898149 
L 449.024433 160.058453 
L 449.347464 160.138603 
L 449.832011 160.539363 
L 450.478074 160.85997 
L 450.63959 160.779818 
L 450.801106 160.940121 
L 450.962622 160.699666 
L 451.124137 160.85997 
L 451.285653 160.779818 
L 451.608684 161.020273 
L 452.093232 161.180577 
L 452.254747 161.180577 
L 452.416263 161.421032 
L 452.739295 161.421032 
L 452.90081 161.581335 
L 453.546873 161.501184 
L 453.708389 161.260728 
L 454.031421 161.501184 
L 454.192936 161.34088 
L 454.515968 161.260728 
L 454.838999 161.581335 
L 455.000515 161.661487 
L 455.162031 161.581335 
L 455.646578 161.741639 
L 455.808094 161.741639 
L 455.969609 161.901942 
L 456.454157 161.821791 
L 456.615672 161.741639 
L 456.777188 161.821791 
L 456.938704 161.741639 
L 457.261735 161.821791 
L 457.584767 161.741639 
L 458.553861 162.222549 
L 458.715377 161.982094 
L 459.038409 162.062246 
L 460.007503 162.062246 
L 460.49205 162.463005 
L 460.815082 162.382853 
L 460.976597 162.463005 
L 461.138113 162.70346 
L 461.299629 162.543156 
L 461.62266 162.623308 
L 461.945692 162.222549 
L 462.591755 162.463005 
L 462.753271 162.463005 
L 462.914786 162.70346 
L 463.076302 162.543156 
L 463.399333 162.863763 
L 463.560849 162.783612 
L 463.722365 162.943915 
L 463.883881 162.783612 
L 464.206912 162.863763 
L 464.529944 162.623308 
L 464.691459 162.623308 
L 464.852975 162.463005 
L 465.337522 162.463005 
L 465.660554 162.70346 
L 466.306617 162.943915 
L 466.468133 162.943915 
L 466.629648 162.783612 
L 466.791164 162.943915 
L 467.114195 162.543156 
L 467.275711 162.783612 
L 467.437227 162.783612 
L 467.598743 162.623308 
L 467.760258 162.70346 
L 468.08329 162.463005 
L 468.406321 162.543156 
L 468.567837 162.70346 
L 468.729353 162.70346 
L 468.890869 163.024067 
L 469.2139 162.783612 
L 469.375416 163.18437 
L 469.698447 162.943915 
L 470.182995 163.104219 
L 470.34451 162.543156 
L 470.506026 163.024067 
L 470.667542 162.943915 
L 470.829057 163.024067 
L 471.152089 163.344674 
L 471.313605 163.504977 
L 471.47512 163.104219 
L 471.636636 163.424826 
L 471.798152 163.344674 
L 472.121183 163.665281 
L 472.767246 163.024067 
L 472.928762 163.264522 
L 473.090278 163.18437 
L 473.251794 163.344674 
L 473.413309 163.18437 
L 473.736341 163.424826 
L 473.897857 163.424826 
L 474.220888 163.745433 
L 474.543919 163.665281 
L 474.705435 164.226343 
L 474.866951 164.226343 
L 475.028467 163.985888 
L 475.189982 164.306495 
L 475.67453 164.226343 
L 475.997561 164.787406 
L 476.159077 164.707254 
L 476.966656 165.749227 
L 477.128171 165.90953 
L 477.289687 166.470593 
L 477.612719 166.550743 
L 478.904844 169.275904 
L 480.358486 173.684249 
L 480.843033 175.928499 
L 481.650612 180.256694 
L 482.619706 188.191708 
L 483.588801 197.088547 
L 484.880927 211.034954 
L 485.365474 213.760113 
L 485.52699 213.920432 
L 485.850021 212.638 
L 486.173053 209.512068 
L 486.334568 207.508272 
L 487.78821 175.126981 
L 488.595789 147.715082 
L 489.080336 138.09687 
L 489.403367 134.490033 
L 489.726399 132.646557 
L 490.04943 131.52442 
L 490.695493 130.883216 
L 491.180041 131.043511 
L 491.503072 130.642762 
L 491.664588 130.803057 
L 491.987619 130.803057 
L 492.633682 131.925194 
L 494.087324 136.573988 
L 494.571871 138.497629 
L 494.894903 139.699906 
L 496.671576 146.512805 
L 496.994607 147.234171 
L 497.479154 148.59675 
L 497.64067 148.917357 
L 497.802186 149.799027 
L 497.963702 149.87918 
L 498.448249 151.402061 
L 499.740375 153.966917 
L 499.901891 153.966917 
L 500.547954 155.409649 
L 500.709469 155.569954 
L 500.870985 155.970713 
L 501.032501 155.810408 
L 501.355532 156.371472 
L 501.517048 156.29132 
L 502.001595 157.012685 
L 502.324627 157.25314 
L 502.486142 157.17299 
L 502.647658 157.333292 
L 502.809174 157.814203 
L 502.97069 157.493597 
L 503.132205 157.573747 
L 503.293721 157.814203 
L 503.455237 157.734051 
L 503.616753 158.375265 
L 503.778268 158.375265 
L 504.1013 158.936328 
L 504.262816 158.776024 
L 504.424331 158.455417 
L 504.747363 159.176783 
L 504.908878 159.016478 
L 505.070394 159.337087 
L 505.393426 158.695871 
L 505.716457 159.016478 
L 506.039489 158.936328 
L 506.201004 159.417237 
L 506.36252 159.176783 
L 506.524036 159.256935 
L 506.685552 159.577542 
L 506.847067 159.256935 
L 507.008583 159.49739 
L 507.816162 159.176783 
L 508.139193 159.49739 
L 508.300709 159.337087 
L 508.462225 159.49739 
L 508.62374 159.417237 
L 508.946772 159.898149 
L 509.108288 159.898149 
L 509.269803 160.138603 
L 509.754351 160.218756 
L 509.915866 160.298907 
L 510.077382 160.218756 
L 510.238898 159.978301 
L 510.561929 160.138603 
L 510.723445 159.898149 
L 510.884961 160.058453 
L 511.046477 160.058453 
L 511.207992 160.459211 
L 511.369508 160.298907 
L 511.69254 160.539363 
L 512.500118 160.85997 
L 512.661634 160.699666 
L 512.82315 160.85997 
L 512.984665 160.85997 
L 513.146181 160.619514 
L 513.307697 160.779818 
L 513.630728 160.85997 
L 513.792244 161.020273 
L 513.95376 160.940121 
L 514.276791 161.180577 
L 515.245886 161.661487 
L 515.407402 161.501184 
L 515.568917 161.661487 
L 515.891949 161.34088 
L 516.053464 161.581335 
L 516.21498 161.421032 
L 517.022559 161.741639 
L 517.34559 161.821791 
L 517.507106 162.062246 
L 517.668622 161.901942 
L 517.830138 161.982094 
L 518.153169 161.821791 
L 518.314685 161.901942 
L 518.476201 161.741639 
L 518.799232 161.821791 
L 518.960748 161.741639 
L 519.929842 162.142398 
L 520.091358 162.142398 
L 520.252874 162.302701 
L 520.414389 162.222549 
L 520.575905 162.302701 
L 521.545 161.901942 
L 522.352578 162.302701 
L 522.514094 162.222549 
L 522.837126 162.623308 
L 522.998641 162.543156 
L 523.321673 162.623308 
L 523.483188 162.623308 
L 523.644704 162.463005 
L 524.129251 162.463005 
L 524.290767 162.302701 
L 524.613799 162.382853 
L 524.93683 162.623308 
L 525.098346 162.783612 
L 525.905925 162.863763 
L 526.06744 163.104219 
L 526.228956 162.943915 
L 526.551988 162.943915 
L 526.713503 162.783612 
L 527.19805 162.863763 
L 527.359566 162.943915 
L 527.521082 162.783612 
L 527.844113 163.024067 
L 528.167145 163.104219 
L 528.328661 162.943915 
L 528.490176 163.18437 
L 528.651692 163.024067 
L 528.974724 163.344674 
L 529.136239 162.863763 
L 529.943818 162.863763 
L 530.105334 163.024067 
L 530.26685 162.70346 
L 530.428365 163.104219 
L 530.751397 163.18437 
L 530.912912 163.18437 
L 531.074428 163.024067 
L 531.39746 163.024067 
L 531.558975 162.863763 
L 531.882007 163.104219 
L 532.043523 163.024067 
L 532.205038 163.264522 
L 532.366554 163.104219 
L 532.52807 163.104219 
L 532.689586 162.943915 
L 533.174133 163.424826 
L 533.335649 163.424826 
L 533.497164 163.745433 
L 533.820196 163.665281 
L 533.981712 163.825584 
L 534.143227 163.585129 
L 534.466259 163.665281 
L 534.950806 163.344674 
L 535.112322 163.665281 
L 535.273837 163.504977 
L 535.435353 163.585129 
L 535.596869 163.344674 
L 535.758385 163.745433 
L 535.9199 163.585129 
L 536.242932 163.825584 
L 536.727479 163.825584 
L 536.888995 163.985888 
L 537.050511 163.665281 
L 537.373542 163.985888 
L 537.535058 163.825584 
L 537.858089 164.146191 
L 538.019605 164.146191 
L 538.181121 164.466799 
L 538.342637 164.466799 
L 538.504152 164.867557 
L 538.988699 164.947709 
L 539.473247 165.749227 
L 539.634762 165.50877 
L 539.796278 165.669075 
L 539.957794 165.428621 
L 542.057499 169.596511 
L 542.38053 170.718636 
L 542.542046 170.638484 
L 542.703561 171.279697 
L 542.865077 171.199545 
L 543.188109 172.481974 
L 543.672656 174.565919 
L 544.157203 176.890319 
L 544.64175 179.455175 
L 545.610845 186.10777 
L 546.579939 195.565685 
L 548.195097 211.676183 
L 548.518128 212.95859 
L 548.679644 213.118909 
L 548.84116 213.118909 
L 549.164191 211.435728 
L 549.487223 207.909046 
L 550.779348 184.264279 
L 552.071474 141.543394 
L 552.556022 135.051102 
L 552.879053 132.967147 
L 553.202085 131.60458 
L 553.525116 131.043511 
L 553.686632 130.883216 
L 553.848147 130.883216 
L 554.009663 130.722897 
L 555.140273 131.364125 
L 555.786336 132.165648 
L 555.947852 132.325943 
L 556.755431 134.570193 
L 557.563009 138.177022 
L 558.370588 141.30294 
L 561.277871 151.001304 
L 561.439387 151.081454 
L 563.054545 154.848588 
L 563.21606 154.848588 
L 563.539092 155.489801 
L 563.700608 155.569954 
L 563.862123 155.810408 
L 564.023639 155.810408 
L 564.346671 156.371472 
L 564.669702 156.611926 
L 564.831218 157.012685 
L 565.154249 156.932533 
L 565.961828 157.974506 
L 566.284859 158.295112 
L 566.446375 158.615722 
L 566.769407 158.535569 
L 566.930922 158.856176 
L 567.092438 158.615722 
L 567.253954 158.936328 
L 567.41547 158.856176 
L 567.576985 158.936328 
L 567.900017 159.256935 
L 568.223048 159.337087 
L 568.54608 159.256935 
L 568.707595 159.256935 
L 568.869111 159.417237 
L 569.030627 159.817996 
L 569.353658 159.577542 
L 569.515174 159.49739 
L 569.838206 159.577542 
L 569.999721 159.256935 
L 570.161237 159.256935 
L 570.322753 159.577542 
L 570.645784 159.49739 
L 570.968816 159.577542 
L 571.130332 159.817996 
L 571.291847 159.737844 
L 571.453363 159.817996 
L 571.614879 159.737844 
L 572.260942 159.978301 
L 572.422458 159.898149 
L 572.583973 160.138603 
L 572.907005 160.058453 
L 573.06852 160.218756 
L 573.553068 160.298907 
L 574.037615 160.539363 
L 574.199131 160.85997 
L 574.360646 160.699666 
L 574.845194 160.940121 
L 575.168225 160.699666 
L 575.329741 160.85997 
L 575.652772 160.85997 
L 575.814288 161.020273 
L 576.13732 161.020273 
L 576.298835 161.180577 
L 576.783382 161.260728 
L 577.429445 161.501184 
L 577.752477 161.421032 
L 578.560056 161.501184 
L 578.721571 161.741639 
L 578.883087 161.661487 
L 579.044603 161.741639 
L 579.206119 161.982094 
L 579.367634 161.821791 
L 579.690666 162.062246 
L 579.852182 161.901942 
L 580.175213 162.142398 
L 580.336729 161.901942 
L 580.821276 161.821791 
L 581.144307 161.741639 
L 581.305823 161.901942 
L 581.628855 161.982094 
L 582.274918 162.302701 
L 582.597949 162.222549 
L 582.759465 162.382853 
L 582.920981 162.302701 
L 583.082496 162.382853 
L 583.244012 162.142398 
L 583.728559 162.222549 
L 583.890075 162.302701 
L 584.051591 162.142398 
L 584.697654 162.382853 
L 584.859169 162.302701 
L 585.343717 162.463005 
L 586.474327 162.463005 
L 586.635843 162.783612 
L 586.797358 162.783612 
L 586.958874 162.623308 
L 587.12039 162.783612 
L 587.766453 162.783612 
L 587.927968 162.943915 
L 588.089484 162.863763 
L 588.412516 162.943915 
L 589.38161 163.024067 
L 589.704642 163.264522 
L 589.866157 163.424826 
L 590.027673 163.18437 
L 590.189189 163.344674 
L 590.350705 163.264522 
L 590.51222 163.424826 
L 590.835252 163.18437 
L 591.158283 163.264522 
L 591.64283 163.104219 
L 592.127378 163.18437 
L 592.288893 163.424826 
L 592.450409 163.264522 
L 592.611925 163.504977 
L 592.934956 163.585129 
L 593.096472 163.745433 
L 593.742535 163.424826 
L 593.904051 163.504977 
L 594.227082 163.18437 
L 594.550114 163.18437 
L 594.71163 163.585129 
L 595.034661 163.344674 
L 595.357692 163.745433 
L 595.519208 163.504977 
L 595.680724 163.905736 
L 596.003755 163.825584 
L 596.165271 164.06604 
L 596.649818 163.665281 
L 596.811334 164.146191 
L 596.97285 163.825584 
L 597.134366 163.985888 
L 597.295881 163.905736 
L 597.618913 163.985888 
L 597.780429 164.306495 
L 598.10346 163.985888 
L 598.426492 164.306495 
L 598.749523 164.06604 
L 598.911039 163.985888 
L 599.072554 164.06604 
L 599.23407 163.825584 
L 599.395586 163.825584 
L 599.557102 163.665281 
L 599.880133 163.985888 
L 601.010743 164.466799 
L 601.172259 165.027861 
L 601.333775 165.108013 
L 601.495291 164.867557 
L 602.141354 164.947709 
L 602.302869 165.027861 
L 602.625901 165.348468 
L 602.948932 165.588923 
L 603.110448 165.669075 
L 603.433479 166.390441 
L 603.756511 166.7912 
L 604.402574 167.913325 
L 604.56409 167.993475 
L 604.887121 168.714841 
L 605.048637 169.035447 
L 605.210153 169.676663 
L 605.371668 169.676663 
L 607.471373 177.37123 
L 608.117436 180.897907 
L 609.08653 188.672616 
L 610.540172 203.420547 
L 611.347751 211.756318 
L 611.670782 214.080727 
L 611.832298 214.721931 
L 611.993814 214.641796 
L 612.155329 214.241022 
L 612.316845 213.519658 
L 612.801392 207.107523 
L 613.608971 191.63823 
L 613.770487 189.554299 
L 614.093518 180.5773 
L 615.062613 146.993716 
L 615.54716 137.375511 
L 615.708676 136.253374 
L 616.031707 133.367921 
L 616.516254 131.845034 
L 616.67777 131.60458 
L 617.323833 131.52442 
L 617.485349 131.283965 
L 617.80838 131.283965 
L 617.969896 131.123671 
L 618.131412 131.283965 
L 618.292927 131.043511 
L 618.454443 131.203806 
L 618.777475 131.845034 
L 618.93899 131.764874 
L 619.100506 132.887012 
L 619.262022 132.806852 
L 619.746569 134.169444 
L 620.392632 136.814443 
L 621.684758 141.623546 
L 622.815368 146.27235 
L 624.430526 151.241759 
L 624.592041 151.081454 
L 624.753557 151.963125 
L 624.915073 151.80282 
L 625.39962 153.886768 
L 625.561136 154.207374 
L 625.722651 154.04707 
L 625.884167 154.367677 
L 626.045683 155.169195 
L 626.207199 154.92874 
L 626.53023 155.008893 
L 626.853262 156.050865 
L 627.176293 156.131015 
L 627.337809 156.692079 
L 627.499325 156.692079 
L 627.66084 157.25314 
L 627.983872 157.413444 
L 628.306903 157.814203 
L 628.468419 157.734051 
L 628.629935 158.295112 
L 628.791451 157.974506 
L 628.952966 157.974506 
L 629.114482 158.615722 
L 629.599029 158.615722 
L 629.760545 159.09663 
L 629.922061 159.176783 
L 630.245092 159.577542 
L 630.406608 159.577542 
L 630.568124 159.817996 
L 630.729639 159.737844 
L 630.891155 159.817996 
L 631.052671 160.138603 
L 631.214187 159.817996 
L 631.375702 159.898149 
L 631.537218 159.817996 
L 631.698734 160.218756 
L 631.86025 159.417237 
L 632.021765 159.417237 
L 632.183281 159.978301 
L 632.667828 159.898149 
L 632.829344 159.817996 
L 632.99086 160.379059 
L 633.152375 160.298907 
L 633.313891 160.619514 
L 633.636923 160.218756 
L 633.959954 160.619514 
L 634.12147 159.898149 
L 634.444501 160.459211 
L 634.606017 160.539363 
L 634.767533 160.298907 
L 634.929049 160.619514 
L 635.090564 160.218756 
L 635.25208 160.699666 
L 635.413596 160.619514 
L 635.575112 160.058453 
L 635.736627 160.779818 
L 636.059659 161.020273 
L 636.221175 160.779818 
L 636.38269 161.020273 
L 636.544206 160.85997 
L 637.351785 160.85997 
L 637.5133 161.020273 
L 637.836332 161.020273 
L 637.997848 161.180577 
L 638.159363 161.100425 
L 638.320879 161.180577 
L 638.482395 161.501184 
L 638.643911 161.421032 
L 638.805426 161.581335 
L 639.128458 161.501184 
L 639.451489 161.581335 
L 639.613005 161.421032 
L 639.936037 161.501184 
L 640.420584 161.501184 
L 640.582099 161.741639 
L 640.743615 161.741639 
L 641.066647 161.982094 
L 641.228162 161.982094 
L 641.389678 162.142398 
L 641.551194 161.982094 
L 641.71271 162.302701 
L 642.035741 161.901942 
L 642.681804 162.142398 
L 643.004836 161.982094 
L 643.166351 162.222549 
L 643.327867 162.142398 
L 644.296961 162.543156 
L 644.619993 162.302701 
L 644.781509 162.463005 
L 644.943024 162.302701 
L 645.10454 162.302701 
L 645.266056 162.142398 
L 645.589087 162.382853 
L 645.750603 162.222549 
L 646.073635 162.70346 
L 646.23515 162.543156 
L 646.558182 162.863763 
L 646.719698 162.70346 
L 646.881213 162.863763 
L 647.042729 162.783612 
L 647.204245 162.863763 
L 647.527276 162.623308 
L 647.688792 162.623308 
L 647.850308 162.463005 
L 648.011823 162.623308 
L 648.173339 162.382853 
L 648.496371 162.623308 
L 648.657886 162.463005 
L 648.980918 162.783612 
L 649.303949 163.024067 
L 649.465465 163.104219 
L 649.626981 163.024067 
L 649.950012 163.104219 
L 650.43456 163.024067 
L 650.596075 162.943915 
L 651.080623 163.104219 
L 651.242138 163.024067 
L 651.403654 163.264522 
L 651.726686 163.344674 
L 652.534264 163.825584 
L 652.857296 163.585129 
L 653.341843 163.504977 
L 653.503359 163.424826 
L 653.82639 163.585129 
L 653.987906 163.504977 
L 654.310937 163.745433 
L 654.472453 163.585129 
L 654.633969 163.825584 
L 654.795485 163.665281 
L 655.280032 163.905736 
L 655.441548 163.745433 
L 655.603063 163.825584 
L 656.249126 163.585129 
L 656.733673 163.665281 
L 656.895189 163.825584 
L 657.056705 163.585129 
L 657.541252 163.825584 
L 657.864284 163.745433 
L 658.025799 163.985888 
L 658.348831 163.665281 
L 658.510347 164.306495 
L 658.833378 163.985888 
L 658.994894 163.825584 
L 659.15641 163.985888 
L 659.317925 163.825584 
L 659.640957 164.06604 
L 659.963988 164.54695 
L 660.125504 164.386647 
L 661.094598 164.386647 
L 661.256114 164.146191 
L 661.579146 164.306495 
L 661.740661 164.06604 
L 662.063693 164.146191 
L 662.225209 164.306495 
L 662.386724 164.226343 
L 662.709756 164.54695 
L 662.871272 164.306495 
L 663.032787 164.386647 
L 663.194303 164.226343 
L 663.355819 164.54695 
L 663.840366 164.386647 
L 664.001882 164.466799 
L 664.163397 164.306495 
L 664.486429 164.627102 
L 664.80946 165.027861 
L 664.970976 165.188164 
L 665.132492 165.50877 
L 665.455523 165.428621 
L 665.778555 166.149986 
L 665.940071 166.230136 
L 666.101586 166.149986 
L 666.424618 166.470593 
L 666.586134 166.470593 
L 666.909165 167.031654 
L 667.070681 166.871352 
L 667.232196 167.031654 
L 667.555228 167.913325 
L 667.716744 168.153779 
L 668.524322 170.317877 
L 668.847354 170.95909 
L 669.654933 173.20334 
L 670.624027 177.291078 
L 671.431606 182.020032 
L 672.723732 192.760367 
L 674.500405 211.435728 
L 674.823436 213.199069 
L 675.146468 213.920432 
L 675.469499 212.718135 
L 675.631015 211.836477 
L 675.954046 207.989206 
L 677.246172 182.82155 
L 678.538298 140.982333 
L 679.022845 135.131261 
L 679.507393 132.726692 
L 680.153456 131.684739 
L 680.638003 131.283965 
L 681.445582 131.283965 
L 682.091644 132.325943 
L 682.576192 133.127466 
L 683.222255 134.970942 
L 684.998928 142.425064 
L 685.483475 144.188403 
L 686.129538 146.3525 
L 686.775601 148.516598 
L 687.098632 149.558573 
L 687.744695 151.482213 
L 688.067727 152.043277 
L 688.229243 152.524186 
L 688.390758 152.604338 
L 688.552274 153.245552 
L 688.71379 153.405856 
L 688.875306 153.405856 
L 689.8444 155.650106 
L 690.005916 155.730258 
L 690.167431 156.131015 
L 690.328947 156.211167 
L 690.490463 156.692079 
L 690.813494 156.772231 
L 690.97501 156.772231 
L 691.298042 157.333292 
L 691.459557 157.25314 
L 691.782589 157.573747 
L 692.590168 159.016478 
L 692.751683 159.176783 
L 692.913199 159.09663 
L 693.074715 159.256935 
L 693.236231 159.176783 
L 693.397746 159.49739 
L 693.882293 159.577542 
L 694.043809 159.817996 
L 694.205325 159.817996 
L 694.366841 160.058453 
L 694.689872 159.978301 
L 694.851388 160.218756 
L 695.012904 159.817996 
L 695.174419 160.058453 
L 695.335935 159.978301 
L 695.981998 160.619514 
L 696.143514 160.539363 
L 696.30503 160.138603 
L 696.466545 160.218756 
L 696.628061 159.817996 
L 697.274124 160.138603 
L 697.43564 160.379059 
L 697.597155 160.298907 
L 697.920187 160.699666 
L 698.404734 160.619514 
L 698.56625 160.298907 
L 698.727766 160.619514 
L 698.889281 160.379059 
L 699.050797 160.459211 
L 699.212313 160.940121 
L 699.373829 160.699666 
L 700.342923 160.779818 
L 700.665955 161.020273 
L 700.988986 161.260728 
L 701.150502 161.020273 
L 701.473533 161.100425 
L 701.635049 160.940121 
L 702.119596 161.180577 
L 702.281112 161.020273 
L 702.442628 161.020273 
L 702.765659 161.421032 
L 703.088691 161.421032 
L 703.411722 161.901942 
L 703.573238 161.741639 
L 704.219301 161.661487 
L 704.219301 161.661487 
" clip-path="url(#p694a461a88)" style="fill: none; stroke: #d94452; stroke-width: 0.8; stroke-linecap: square"/>
   </g>
   <g id="text_17">
    <g id="patch_7">
     <path d="M 161.364356 296.055237 
L 278.464356 296.055237 
Q 281.464356 296.055237 281.464356 293.055237 
L 281.464356 282.455237 
Q 281.464356 279.455237 278.464356 279.455237 
L 161.364356 279.455237 
Q 158.364356 279.455237 158.364356 282.455237 
L 158.364356 293.055237 
Q 158.364356 296.055237 161.364356 296.055237 
z
" style="fill: #ffffff; opacity: 0.85; stroke: #333333; stroke-linejoin: miter"/>
    </g>
    <!-- I$_{p-p}$ = 1.87E-03 mA/m² -->
    <g style="fill: #333333" transform="translate(161.364356 289.955237) scale(0.1 -0.1)">
     <defs>
      <path id="DejaVuSans-49" d="M 628 4666 
L 1259 4666 
L 1259 0 
L 628 0 
L 628 4666 
z
" transform="scale(0.015625)"/>
      <path id="DejaVuSans-Oblique-70" d="M 3175 2156 
Q 3175 2616 2975 2859 
Q 2775 3103 2400 3103 
Q 2144 3103 1911 2972 
Q 1678 2841 1497 2591 
Q 1319 2344 1212 1994 
Q 1106 1644 1106 1300 
Q 1106 863 1306 627 
Q 1506 391 1875 391 
Q 2147 391 2380 519 
Q 2613 647 2778 891 
Q 2956 1147 3065 1494 
Q 3175 1841 3175 2156 
z
M 1394 2969 
Q 1625 3272 1939 3428 
Q 2253 3584 2638 3584 
Q 3175 3584 3472 3232 
Q 3769 2881 3769 2247 
Q 3769 1728 3584 1258 
Q 3400 788 3053 416 
Q 2822 169 2531 39 
Q 2241 -91 1919 -91 
Q 1547 -91 1294 64 
Q 1041 219 916 525 
L 556 -1331 
L -19 -1331 
L 922 3500 
L 1497 3500 
L 1394 2969 
z
" transform="scale(0.015625)"/>
      <path id="DejaVuSans-20" transform="scale(0.015625)"/>
      <path id="DejaVuSans-3d" d="M 678 2906 
L 4684 2906 
L 4684 2381 
L 678 2381 
L 678 2906 
z
M 678 1631 
L 4684 1631 
L 4684 1100 
L 678 1100 
L 678 1631 
z
" transform="scale(0.015625)"/>
      <path id="DejaVuSans-38" d="M 2034 2216 
Q 1584 2216 1326 1975 
Q 1069 1734 1069 1313 
Q 1069 891 1326 650 
Q 1584 409 2034 409 
Q 2484 409 2743 651 
Q 3003 894 3003 1313 
Q 3003 1734 2745 1975 
Q 2488 2216 2034 2216 
z
M 1403 2484 
Q 997 2584 770 2862 
Q 544 3141 544 3541 
Q 544 4100 942 4425 
Q 1341 4750 2034 4750 
Q 2731 4750 3128 4425 
Q 3525 4100 3525 3541 
Q 3525 3141 3298 2862 
Q 3072 2584 2669 2484 
Q 3125 2378 3379 2068 
Q 3634 1759 3634 1313 
Q 3634 634 3220 271 
Q 2806 -91 2034 -91 
Q 1263 -91 848 271 
Q 434 634 434 1313 
Q 434 1759 690 2068 
Q 947 2378 1403 2484 
z
M 1172 3481 
Q 1172 3119 1398 2916 
Q 1625 2713 2034 2713 
Q 2441 2713 2670 2916 
Q 2900 3119 2900 3481 
Q 2900 3844 2670 4047 
Q 2441 4250 2034 4250 
Q 1625 4250 1398 4047 
Q 1172 3844 1172 3481 
z
" transform="scale(0.015625)"/>
      <path id="DejaVuSans-37" d="M 525 4666 
L 3525 4666 
L 3525 4397 
L 1831 0 
L 1172 0 
L 2766 4134 
L 525 4134 
L 525 4666 
z
" transform="scale(0.015625)"/>
      <path id="DejaVuSans-45" d="M 628 4666 
L 3578 4666 
L 3578 4134 
L 1259 4134 
L 1259 2753 
L 3481 2753 
L 3481 2222 
L 1259 2222 
L 1259 531 
L 3634 531 
L 3634 0 
L 628 0 
L 628 4666 
z
" transform="scale(0.015625)"/>
      <path id="DejaVuSans-2d" d="M 313 2009 
L 1997 2009 
L 1997 1497 
L 313 1497 
L 313 2009 
z
" transform="scale(0.015625)"/>
      <path id="DejaVuSans-6d" d="M 3328 2828 
Q 3544 3216 3844 3400 
Q 4144 3584 4550 3584 
Q 5097 3584 5394 3201 
Q 5691 2819 5691 2113 
L 5691 0 
L 5113 0 
L 5113 2094 
Q 5113 2597 4934 2840 
Q 4756 3084 4391 3084 
Q 3944 3084 3684 2787 
Q 3425 2491 3425 1978 
L 3425 0 
L 2847 0 
L 2847 2094 
Q 2847 2600 2669 2842 
Q 2491 3084 2119 3084 
Q 1678 3084 1418 2786 
Q 1159 2488 1159 1978 
L 1159 0 
L 581 0 
L 581 3500 
L 1159 3500 
L 1159 2956 
Q 1356 3278 1631 3431 
Q 1906 3584 2284 3584 
Q 2666 3584 2933 3390 
Q 3200 3197 3328 2828 
z
" transform="scale(0.015625)"/>
      <path id="DejaVuSans-41" d="M 2188 4044 
L 1331 1722 
L 3047 1722 
L 2188 4044 
z
M 1831 4666 
L 2547 4666 
L 4325 0 
L 3669 0 
L 3244 1197 
L 1141 1197 
L 716 0 
L 50 0 
L 1831 4666 
z
" transform="scale(0.015625)"/>
      <path id="DejaVuSans-2f" d="M 1625 4666 
L 2156 4666 
L 531 -594 
L 0 -594 
L 1625 4666 
z
" transform="scale(0.015625)"/>
      <path id="DejaVuSans-b2" d="M 838 2444 
L 2163 2444 
L 2163 2088 
L 294 2088 
L 294 2431 
Q 400 2528 597 2703 
Q 1672 3656 1672 3950 
Q 1672 4156 1509 4282 
Q 1347 4409 1081 4409 
Q 919 4409 728 4354 
Q 538 4300 313 4191 
L 313 4575 
Q 553 4663 761 4706 
Q 969 4750 1147 4750 
Q 1600 4750 1872 4544 
Q 2144 4338 2144 4000 
Q 2144 3566 1109 2678 
Q 934 2528 838 2444 
z
" transform="scale(0.015625)"/>
     </defs>
     <use xlink:href="#DejaVuSans-49" transform="translate(0 0.78125)"/>
     <use xlink:href="#DejaVuSans-Oblique-70" transform="translate(30.449219 -15.625) scale(0.7)"/>
     <use xlink:href="#DejaVuSans-2212" transform="translate(88.520508 -15.625) scale(0.7)"/>
     <use xlink:href="#DejaVuSans-Oblique-70" transform="translate(160.810547 -15.625) scale(0.7)"/>
     <use xlink:href="#DejaVuSans-20" transform="translate(207.978516 0.78125)"/>
     <use xlink:href="#DejaVuSans-3d" transform="translate(239.765625 0.78125)"/>
     <use xlink:href="#DejaVuSans-20" transform="translate(323.554688 0.78125)"/>
     <use xlink:href="#DejaVuSans-31" transform="translate(355.341797 0.78125)"/>
     <use xlink:href="#DejaVuSans-2e" transform="translate(418.964844 0.78125)"/>
     <use xlink:href="#DejaVuSans-38" transform="translate(448.126953 0.78125)"/>
     <use xlink:href="#DejaVuSans-37" transform="translate(511.75 0.78125)"/>
     <use xlink:href="#DejaVuSans-45" transform="translate(575.373047 0.78125)"/>
     <use xlink:href="#DejaVuSans-2d" transform="translate(638.556641 0.78125)"/>
     <use xlink:href="#DejaVuSans-30" transform="translate(674.640625 0.78125)"/>
     <use xlink:href="#DejaVuSans-33" transform="translate(738.263672 0.78125)"/>
     <use xlink:href="#DejaVuSans-20" transform="translate(801.886719 0.78125)"/>
     <use xlink:href="#DejaVuSans-6d" transform="translate(833.673828 0.78125)"/>
     <use xlink:href="#DejaVuSans-41" transform="translate(931.085938 0.78125)"/>
     <use xlink:href="#DejaVuSans-2f" transform="translate(999.494141 0.78125)"/>
     <use xlink:href="#DejaVuSans-6d" transform="translate(1033.185547 0.78125)"/>
     <use xlink:href="#DejaVuSans-b2" transform="translate(1130.597656 0.78125)"/>
    </g>
   </g>
   <g id="text_18">
    <g id="patch_8">
     <path d="M 484.084319 296.055237 
L 601.484319 296.055237 
Q 604.484319 296.055237 604.484319 293.055237 
L 604.484319 282.455237 
Q 604.484319 279.455237 601.484319 279.455237 
L 484.084319 279.455237 
Q 481.084319 279.455237 481.084319 282.455237 
L 481.084319 293.055237 
Q 481.084319 296.055237 484.084319 296.055237 
z
" style="fill: #ffffff; opacity: 0.85; stroke: #d94452; stroke-linejoin: miter"/>
    </g>
    <!-- I$_{p-p}$ = 8.47E-04 mA/m² -->
    <g style="fill: #d94452" transform="translate(484.084319 289.955237) scale(0.1 -0.1)">
     <defs>
      <path id="DejaVuSans-34" d="M 2419 4116 
L 825 1625 
L 2419 1625 
L 2419 4116 
z
M 2253 4666 
L 3047 4666 
L 3047 1625 
L 3713 1625 
L 3713 1100 
L 3047 1100 
L 3047 0 
L 2419 0 
L 2419 1100 
L 313 1100 
L 313 1709 
L 2253 4666 
z
" transform="scale(0.015625)"/>
     </defs>
     <use xlink:href="#DejaVuSans-49" transform="translate(0 0.78125)"/>
     <use xlink:href="#DejaVuSans-Oblique-70" transform="translate(30.449219 -15.625) scale(0.7)"/>
     <use xlink:href="#DejaVuSans-2212" transform="translate(88.520508 -15.625) scale(0.7)"/>
     <use xlink:href="#DejaVuSans-Oblique-70" transform="translate(160.810547 -15.625) scale(0.7)"/>
     <use xlink:href="#DejaVuSans-20" transform="translate(207.978516 0.78125)"/>
     <use xlink:href="#DejaVuSans-3d" transform="translate(239.765625 0.78125)"/>
     <use xlink:href="#DejaVuSans-20" transform="translate(323.554688 0.78125)"/>
     <use xlink:href="#DejaVuSans-38" transform="translate(355.341797 0.78125)"/>
     <use xlink:href="#DejaVuSans-2e" transform="translate(418.964844 0.78125)"/>
     <use xlink:href="#DejaVuSans-34" transform="translate(450.751953 0.78125)"/>
     <use xlink:href="#DejaVuSans-37" transform="translate(514.375 0.78125)"/>
     <use xlink:href="#DejaVuSans-45" transform="translate(577.998047 0.78125)"/>
     <use xlink:href="#DejaVuSans-2d" transform="translate(641.181641 0.78125)"/>
     <use xlink:href="#DejaVuSans-30" transform="translate(677.265625 0.78125)"/>
     <use xlink:href="#DejaVuSans-34" transform="translate(740.888672 0.78125)"/>
     <use xlink:href="#DejaVuSans-20" transform="translate(804.511719 0.78125)"/>
     <use xlink:href="#DejaVuSans-6d" transform="translate(836.298828 0.78125)"/>
     <use xlink:href="#DejaVuSans-41" transform="translate(933.710938 0.78125)"/>
     <use xlink:href="#DejaVuSans-2f" transform="translate(1002.119141 0.78125)"/>
     <use xlink:href="#DejaVuSans-6d" transform="translate(1035.810547 0.78125)"/>
     <use xlink:href="#DejaVuSans-b2" transform="translate(1133.222656 0.78125)"/>
    </g>
   </g>
   <g id="text_19">
    <g id="patch_9">
     <path d="M 613.247572 50.0672 
L 684.847103 50.0672 
Q 690.047103 50.0672 690.047103 44.8672 
L 690.047103 32.285638 
Q 690.047103 27.085638 684.847103 27.085638 
L 613.247572 27.085638 
Q 608.047572 27.085638 608.047572 32.285638 
L 608.047572 44.8672 
Q 608.047572 50.0672 613.247572 50.0672 
z
" style="fill: #ffffff; opacity: 0.9; stroke: #5cb85c; stroke-width: 1.5; stroke-linejoin: miter"/>
    </g>
    <!-- f = 2.5 Hz -->
    <g style="fill: #5cb85c" transform="translate(613.247572 42.163606) scale(0.13 -0.13)">
     <defs>
      <path id="DejaVuSans-Bold-66" d="M 2841 4863 
L 2841 4128 
L 2222 4128 
Q 1984 4128 1890 4042 
Q 1797 3956 1797 3744 
L 1797 3500 
L 2753 3500 
L 2753 2700 
L 1797 2700 
L 1797 0 
L 678 0 
L 678 2700 
L 122 2700 
L 122 3500 
L 678 3500 
L 678 3744 
Q 678 4316 997 4589 
Q 1316 4863 1984 4863 
L 2841 4863 
z
" transform="scale(0.015625)"/>
      <path id="DejaVuSans-Bold-3d" d="M 678 3084 
L 4684 3084 
L 4684 2350 
L 678 2350 
L 678 3084 
z
M 678 1663 
L 4684 1663 
L 4684 922 
L 678 922 
L 678 1663 
z
" transform="scale(0.015625)"/>
      <path id="DejaVuSans-Bold-32" d="M 1844 884 
L 3897 884 
L 3897 0 
L 506 0 
L 506 884 
L 2209 2388 
Q 2438 2594 2547 2791 
Q 2656 2988 2656 3200 
Q 2656 3528 2436 3728 
Q 2216 3928 1850 3928 
Q 1569 3928 1234 3808 
Q 900 3688 519 3450 
L 519 4475 
Q 925 4609 1322 4679 
Q 1719 4750 2100 4750 
Q 2938 4750 3402 4381 
Q 3866 4013 3866 3353 
Q 3866 2972 3669 2642 
Q 3472 2313 2841 1759 
L 1844 884 
z
" transform="scale(0.015625)"/>
      <path id="DejaVuSans-Bold-2e" d="M 653 1209 
L 1778 1209 
L 1778 0 
L 653 0 
L 653 1209 
z
" transform="scale(0.015625)"/>
      <path id="DejaVuSans-Bold-35" d="M 678 4666 
L 3669 4666 
L 3669 3781 
L 1638 3781 
L 1638 3059 
Q 1775 3097 1914 3117 
Q 2053 3138 2203 3138 
Q 3056 3138 3531 2711 
Q 4006 2284 4006 1522 
Q 4006 766 3489 337 
Q 2972 -91 2053 -91 
Q 1656 -91 1267 -14 
Q 878 63 494 219 
L 494 1166 
Q 875 947 1217 837 
Q 1559 728 1863 728 
Q 2300 728 2551 942 
Q 2803 1156 2803 1522 
Q 2803 1891 2551 2103 
Q 2300 2316 1863 2316 
Q 1603 2316 1309 2248 
Q 1016 2181 678 2041 
L 678 4666 
z
" transform="scale(0.015625)"/>
      <path id="DejaVuSans-Bold-48" d="M 588 4666 
L 1791 4666 
L 1791 2888 
L 3566 2888 
L 3566 4666 
L 4769 4666 
L 4769 0 
L 3566 0 
L 3566 1978 
L 1791 1978 
L 1791 0 
L 588 0 
L 588 4666 
z
" transform="scale(0.015625)"/>
      <path id="DejaVuSans-Bold-7a" d="M 366 3500 
L 3419 3500 
L 3419 2719 
L 1575 800 
L 3419 800 
L 3419 0 
L 288 0 
L 288 781 
L 2131 2700 
L 366 2700 
L 366 3500 
z
" transform="scale(0.015625)"/>
     </defs>
     <use xlink:href="#DejaVuSans-Bold-66"/>
     <use xlink:href="#DejaVuSans-Bold-20" transform="translate(43.505859 0)"/>
     <use xlink:href="#DejaVuSans-Bold-3d" transform="translate(78.320312 0)"/>
     <use xlink:href="#DejaVuSans-Bold-20" transform="translate(162.109375 0)"/>
     <use xlink:href="#DejaVuSans-Bold-32" transform="translate(196.923828 0)"/>
     <use xlink:href="#DejaVuSans-Bold-2e" transform="translate(266.503906 0)"/>
     <use xlink:href="#DejaVuSans-Bold-35" transform="translate(304.492188 0)"/>
     <use xlink:href="#DejaVuSans-Bold-20" transform="translate(374.072266 0)"/>
     <use xlink:href="#DejaVuSans-Bold-48" transform="translate(408.886719 0)"/>
     <use xlink:href="#DejaVuSans-Bold-7a" transform="translate(492.578125 0)"/>
    </g>
   </g>
   <g id="text_20">
    <!-- Without MIC -->
    <g style="fill: #333333" transform="translate(171.182325 42.92345) scale(0.14 -0.14)">
     <defs>
      <path id="DejaVuSans-Bold-57" d="M 191 4666 
L 1344 4666 
L 2150 1275 
L 2950 4666 
L 4109 4666 
L 4909 1275 
L 5716 4666 
L 6859 4666 
L 5759 0 
L 4372 0 
L 3525 3547 
L 2688 0 
L 1300 0 
L 191 4666 
z
" transform="scale(0.015625)"/>
      <path id="DejaVuSans-Bold-74" d="M 1759 4494 
L 1759 3500 
L 2913 3500 
L 2913 2700 
L 1759 2700 
L 1759 1216 
Q 1759 972 1856 886 
Q 1953 800 2241 800 
L 2816 800 
L 2816 0 
L 1856 0 
Q 1194 0 917 276 
Q 641 553 641 1216 
L 641 2700 
L 84 2700 
L 84 3500 
L 641 3500 
L 641 4494 
L 1759 4494 
z
" transform="scale(0.015625)"/>
      <path id="DejaVuSans-Bold-68" d="M 4056 2131 
L 4056 0 
L 2931 0 
L 2931 347 
L 2931 1625 
Q 2931 2084 2911 2256 
Q 2891 2428 2841 2509 
Q 2775 2619 2662 2680 
Q 2550 2741 2406 2741 
Q 2056 2741 1856 2470 
Q 1656 2200 1656 1722 
L 1656 0 
L 538 0 
L 538 4863 
L 1656 4863 
L 1656 2988 
Q 1909 3294 2193 3439 
Q 2478 3584 2822 3584 
Q 3428 3584 3742 3212 
Q 4056 2841 4056 2131 
z
" transform="scale(0.015625)"/>
      <path id="DejaVuSans-Bold-6f" d="M 2203 2784 
Q 1831 2784 1636 2517 
Q 1441 2250 1441 1747 
Q 1441 1244 1636 976 
Q 1831 709 2203 709 
Q 2569 709 2762 976 
Q 2956 1244 2956 1747 
Q 2956 2250 2762 2517 
Q 2569 2784 2203 2784 
z
M 2203 3584 
Q 3106 3584 3614 3096 
Q 4122 2609 4122 1747 
Q 4122 884 3614 396 
Q 3106 -91 2203 -91 
Q 1297 -91 786 396 
Q 275 884 275 1747 
Q 275 2609 786 3096 
Q 1297 3584 2203 3584 
z
" transform="scale(0.015625)"/>
      <path id="DejaVuSans-Bold-75" d="M 500 1363 
L 500 3500 
L 1625 3500 
L 1625 3150 
Q 1625 2866 1622 2436 
Q 1619 2006 1619 1863 
Q 1619 1441 1641 1255 
Q 1663 1069 1716 984 
Q 1784 875 1895 815 
Q 2006 756 2150 756 
Q 2500 756 2700 1025 
Q 2900 1294 2900 1772 
L 2900 3500 
L 4019 3500 
L 4019 0 
L 2900 0 
L 2900 506 
Q 2647 200 2364 54 
Q 2081 -91 1741 -91 
Q 1134 -91 817 281 
Q 500 653 500 1363 
z
" transform="scale(0.015625)"/>
      <path id="DejaVuSans-Bold-4d" d="M 588 4666 
L 2119 4666 
L 3181 2169 
L 4250 4666 
L 5778 4666 
L 5778 0 
L 4641 0 
L 4641 3413 
L 3566 897 
L 2803 897 
L 1728 3413 
L 1728 0 
L 588 0 
L 588 4666 
z
" transform="scale(0.015625)"/>
      <path id="DejaVuSans-Bold-43" d="M 4288 256 
Q 3956 84 3597 -3 
Q 3238 -91 2847 -91 
Q 1681 -91 1000 561 
Q 319 1213 319 2328 
Q 319 3447 1000 4098 
Q 1681 4750 2847 4750 
Q 3238 4750 3597 4662 
Q 3956 4575 4288 4403 
L 4288 3438 
Q 3953 3666 3628 3772 
Q 3303 3878 2944 3878 
Q 2300 3878 1931 3465 
Q 1563 3053 1563 2328 
Q 1563 1606 1931 1193 
Q 2300 781 2944 781 
Q 3303 781 3628 887 
Q 3953 994 4288 1222 
L 4288 256 
z
" transform="scale(0.015625)"/>
     </defs>
     <use xlink:href="#DejaVuSans-Bold-57"/>
     <use xlink:href="#DejaVuSans-Bold-69" transform="translate(110.302734 0)"/>
     <use xlink:href="#DejaVuSans-Bold-74" transform="translate(144.580078 0)"/>
     <use xlink:href="#DejaVuSans-Bold-68" transform="translate(192.382812 0)"/>
     <use xlink:href="#DejaVuSans-Bold-6f" transform="translate(263.574219 0)"/>
     <use xlink:href="#DejaVuSans-Bold-75" transform="translate(332.275391 0)"/>
     <use xlink:href="#DejaVuSans-Bold-74" transform="translate(403.466797 0)"/>
     <use xlink:href="#DejaVuSans-Bold-20" transform="translate(451.269531 0)"/>
     <use xlink:href="#DejaVuSans-Bold-4d" transform="translate(486.083984 0)"/>
     <use xlink:href="#DejaVuSans-Bold-49" transform="translate(585.595703 0)"/>
     <use xlink:href="#DejaVuSans-Bold-43" transform="translate(622.802734 0)"/>
    </g>
   </g>
   <g id="text_21">
    <!-- With MIC -->
    <g style="fill: #d94452" transform="translate(507.190413 42.92345) scale(0.14 -0.14)">
     <use xlink:href="#DejaVuSans-Bold-57"/>
     <use xlink:href="#DejaVuSans-Bold-69" transform="translate(110.302734 0)"/>
     <use xlink:href="#DejaVuSans-Bold-74" transform="translate(144.580078 0)"/>
     <use xlink:href="#DejaVuSans-Bold-68" transform="translate(192.382812 0)"/>
     <use xlink:href="#DejaVuSans-Bold-20" transform="translate(263.574219 0)"/>
     <use xlink:href="#DejaVuSans-Bold-4d" transform="translate(298.388672 0)"/>
     <use xlink:href="#DejaVuSans-Bold-49" transform="translate(397.900391 0)"/>
     <use xlink:href="#DejaVuSans-Bold-43" transform="translate(435.107422 0)"/>
    </g>
   </g>
  </g>
 </g>
 <defs>
  <clipPath id="p694a461a88">
   <rect x="58.479375" y="17.798437" width="645.739926" height="289.744"/>
  </clipPath>
 </defs>
</svg>
