<?xml version="1.0" encoding="utf-8" standalone="no"?>
<!DOCTYPE svg PUBLIC "-//W3C//DTD SVG 1.1//EN"
  "http://www.w3.org/Graphics/SVG/1.1/DTD/svg11.dtd">
<svg xmlns:xlink="http://www.w3.org/1999/xlink" width="711.419301pt" height="349.93775pt" viewBox="0 0 711.419301 349.93775" xmlns="http://www.w3.org/2000/svg" version="1.1">
 <metadata>
  <rdf:RDF xmlns:dc="http://purl.org/dc/elements/1.1/" xmlns:cc="http://creativecommons.org/ns#" xmlns:rdf="http://www.w3.org/1999/02/22-rdf-syntax-ns#">
   <cc:Work>
    <dc:type rdf:resource="http://purl.org/dc/dcmitype/StillImage"/>
    <dc:date>2026-04-26T16:29:13.609998</dc:date>
    <dc:format>image/svg+xml</dc:format>
    <dc:creator>
     <cc:Agent>
      <dc:title>Matplotlib v3.10.8, https://matplotlib.org/</dc:title>
     </cc:Agent>
    </dc:creator>
   </cc:Work>
  </rdf:RDF>
 </metadata>
 <defs>
  <style type="text/css">*{stroke-linejoin: round; stroke-linecap: butt}</style>
 </defs>
 <g id="figure_1">
  <g id="patch_1">
   <path d="M 0 349.93775 
L 711.419301 349.93775 
L 711.419301 0 
L 0 0 
z
" style="fill: #ffffff"/>
  </g>
  <g id="axes_1">
   <g id="patch_2">
    <path d="M 58.479375 307.542437 
L 704.219301 307.542437 
L 704.219301 17.798437 
L 58.479375 17.798437 
z
" style="fill: #ffffff"/>
   </g>
   <g id="patch_3">
    <path d="M 58.479375 307.542437 
L 381.349338 307.542437 
L 381.349338 17.798437 
L 58.479375 17.798437 
z
" clip-path="url(#p2118d149c0)" style="fill: #cccccc; opacity: 0.12; stroke: #cccccc; stroke-linejoin: miter"/>
   </g>
   <g id="patch_4">
    <path d="M 381.349338 307.542437 
L 704.219301 307.542437 
L 704.219301 17.798437 
L 381.349338 17.798437 
z
" clip-path="url(#p2118d149c0)" style="fill: #d94452; opacity: 0.06; stroke: #d94452; stroke-linejoin: miter"/>
   </g>
   <g id="line2d_1">
    <path d="M 381.349338 307.542437 
L 381.349338 17.798437 
" clip-path="url(#p2118d149c0)" style="fill: none; stroke-dasharray: 3.7,1.6; stroke-dashoffset: 0; stroke: #999999"/>
   </g>
   <g id="matplotlib.axis_1">
    <g id="xtick_1">
     <g id="line2d_2">
      <defs>
       <path id="m4b7d7bba48" d="M 0 0 
L 0 3.5 
" style="stroke: #000000; stroke-width: 0.8"/>
      </defs>
      <g>
       <use xlink:href="#m4b7d7bba48" x="58.479375" y="307.542437" style="stroke: #000000; stroke-width: 0.8"/>
      </g>
     </g>
     <g id="text_1">
      <!-- 0.0 -->
      <g transform="translate(49.732656 322.900719) scale(0.11 -0.11)">
       <defs>
        <path id="DejaVuSans-30" d="M 2034 4250 
Q 1547 4250 1301 3770 
Q 1056 3291 1056 2328 
Q 1056 1369 1301 889 
Q 1547 409 2034 409 
Q 2525 409 2770 889 
Q 3016 1369 3016 2328 
Q 3016 3291 2770 3770 
Q 2525 4250 2034 4250 
z
M 2034 4750 
Q 2819 4750 3233 4129 
Q 3647 3509 3647 2328 
Q 3647 1150 3233 529 
Q 2819 -91 2034 -91 
Q 1250 -91 836 529 
Q 422 1150 422 2328 
Q 422 3509 836 4129 
Q 1250 4750 2034 4750 
z
" transform="scale(0.015625)"/>
        <path id="DejaVuSans-2e" d="M 684 794 
L 1344 794 
L 1344 0 
L 684 0 
L 684 794 
z
" transform="scale(0.015625)"/>
       </defs>
       <use xlink:href="#DejaVuSans-30"/>
       <use xlink:href="#DejaVuSans-2e" transform="translate(63.623047 0)"/>
       <use xlink:href="#DejaVuSans-30" transform="translate(95.410156 0)"/>
      </g>
     </g>
    </g>
    <g id="xtick_2">
     <g id="line2d_3">
      <g>
       <use xlink:href="#m4b7d7bba48" x="139.237245" y="307.542437" style="stroke: #000000; stroke-width: 0.8"/>
      </g>
     </g>
     <g id="text_2">
      <!-- 0.5 -->
      <g transform="translate(130.490526 322.900719) scale(0.11 -0.11)">
       <defs>
        <path id="DejaVuSans-35" d="M 691 4666 
L 3169 4666 
L 3169 4134 
L 1269 4134 
L 1269 2991 
Q 1406 3038 1543 3061 
Q 1681 3084 1819 3084 
Q 2600 3084 3056 2656 
Q 3513 2228 3513 1497 
Q 3513 744 3044 326 
Q 2575 -91 1722 -91 
Q 1428 -91 1123 -41 
Q 819 9 494 109 
L 494 744 
Q 775 591 1075 516 
Q 1375 441 1709 441 
Q 2250 441 2565 725 
Q 2881 1009 2881 1497 
Q 2881 1984 2565 2268 
Q 2250 2553 1709 2553 
Q 1456 2553 1204 2497 
Q 953 2441 691 2322 
L 691 4666 
z
" transform="scale(0.015625)"/>
       </defs>
       <use xlink:href="#DejaVuSans-30"/>
       <use xlink:href="#DejaVuSans-2e" transform="translate(63.623047 0)"/>
       <use xlink:href="#DejaVuSans-35" transform="translate(95.410156 0)"/>
      </g>
     </g>
    </g>
    <g id="xtick_3">
     <g id="line2d_4">
      <g>
       <use xlink:href="#m4b7d7bba48" x="219.995114" y="307.542437" style="stroke: #000000; stroke-width: 0.8"/>
      </g>
     </g>
     <g id="text_3">
      <!-- 1.0 -->
      <g transform="translate(211.248396 322.900719) scale(0.11 -0.11)">
       <defs>
        <path id="DejaVuSans-31" d="M 794 531 
L 1825 531 
L 1825 4091 
L 703 3866 
L 703 4441 
L 1819 4666 
L 2450 4666 
L 2450 531 
L 3481 531 
L 3481 0 
L 794 0 
L 794 531 
z
" transform="scale(0.015625)"/>
       </defs>
       <use xlink:href="#DejaVuSans-31"/>
       <use xlink:href="#DejaVuSans-2e" transform="translate(63.623047 0)"/>
       <use xlink:href="#DejaVuSans-30" transform="translate(95.410156 0)"/>
      </g>
     </g>
    </g>
    <g id="xtick_4">
     <g id="line2d_5">
      <g>
       <use xlink:href="#m4b7d7bba48" x="300.752984" y="307.542437" style="stroke: #000000; stroke-width: 0.8"/>
      </g>
     </g>
     <g id="text_4">
      <!-- 1.5 -->
      <g transform="translate(292.006265 322.900719) scale(0.11 -0.11)">
       <use xlink:href="#DejaVuSans-31"/>
       <use xlink:href="#DejaVuSans-2e" transform="translate(63.623047 0)"/>
       <use xlink:href="#DejaVuSans-35" transform="translate(95.410156 0)"/>
      </g>
     </g>
    </g>
    <g id="xtick_5">
     <g id="line2d_6">
      <g>
       <use xlink:href="#m4b7d7bba48" x="381.510854" y="307.542437" style="stroke: #000000; stroke-width: 0.8"/>
      </g>
     </g>
     <g id="text_5">
      <!-- 2.0 -->
      <g transform="translate(372.764135 322.900719) scale(0.11 -0.11)">
       <defs>
        <path id="DejaVuSans-32" d="M 1228 531 
L 3431 531 
L 3431 0 
L 469 0 
L 469 531 
Q 828 903 1448 1529 
Q 2069 2156 2228 2338 
Q 2531 2678 2651 2914 
Q 2772 3150 2772 3378 
Q 2772 3750 2511 3984 
Q 2250 4219 1831 4219 
Q 1534 4219 1204 4116 
Q 875 4013 500 3803 
L 500 4441 
Q 881 4594 1212 4672 
Q 1544 4750 1819 4750 
Q 2544 4750 2975 4387 
Q 3406 4025 3406 3419 
Q 3406 3131 3298 2873 
Q 3191 2616 2906 2266 
Q 2828 2175 2409 1742 
Q 1991 1309 1228 531 
z
" transform="scale(0.015625)"/>
       </defs>
       <use xlink:href="#DejaVuSans-32"/>
       <use xlink:href="#DejaVuSans-2e" transform="translate(63.623047 0)"/>
       <use xlink:href="#DejaVuSans-30" transform="translate(95.410156 0)"/>
      </g>
     </g>
    </g>
    <g id="xtick_6">
     <g id="line2d_7">
      <g>
       <use xlink:href="#m4b7d7bba48" x="462.268723" y="307.542437" style="stroke: #000000; stroke-width: 0.8"/>
      </g>
     </g>
     <g id="text_6">
      <!-- 2.5 -->
      <g transform="translate(453.522005 322.900719) scale(0.11 -0.11)">
       <use xlink:href="#DejaVuSans-32"/>
       <use xlink:href="#DejaVuSans-2e" transform="translate(63.623047 0)"/>
       <use xlink:href="#DejaVuSans-35" transform="translate(95.410156 0)"/>
      </g>
     </g>
    </g>
    <g id="xtick_7">
     <g id="line2d_8">
      <g>
       <use xlink:href="#m4b7d7bba48" x="543.026593" y="307.542437" style="stroke: #000000; stroke-width: 0.8"/>
      </g>
     </g>
     <g id="text_7">
      <!-- 3.0 -->
      <g transform="translate(534.279874 322.900719) scale(0.11 -0.11)">
       <defs>
        <path id="DejaVuSans-33" d="M 2597 2516 
Q 3050 2419 3304 2112 
Q 3559 1806 3559 1356 
Q 3559 666 3084 287 
Q 2609 -91 1734 -91 
Q 1441 -91 1130 -33 
Q 819 25 488 141 
L 488 750 
Q 750 597 1062 519 
Q 1375 441 1716 441 
Q 2309 441 2620 675 
Q 2931 909 2931 1356 
Q 2931 1769 2642 2001 
Q 2353 2234 1838 2234 
L 1294 2234 
L 1294 2753 
L 1863 2753 
Q 2328 2753 2575 2939 
Q 2822 3125 2822 3475 
Q 2822 3834 2567 4026 
Q 2313 4219 1838 4219 
Q 1578 4219 1281 4162 
Q 984 4106 628 3988 
L 628 4550 
Q 988 4650 1302 4700 
Q 1616 4750 1894 4750 
Q 2613 4750 3031 4423 
Q 3450 4097 3450 3541 
Q 3450 3153 3228 2886 
Q 3006 2619 2597 2516 
z
" transform="scale(0.015625)"/>
       </defs>
       <use xlink:href="#DejaVuSans-33"/>
       <use xlink:href="#DejaVuSans-2e" transform="translate(63.623047 0)"/>
       <use xlink:href="#DejaVuSans-30" transform="translate(95.410156 0)"/>
      </g>
     </g>
    </g>
    <g id="xtick_8">
     <g id="line2d_9">
      <g>
       <use xlink:href="#m4b7d7bba48" x="623.784463" y="307.542437" style="stroke: #000000; stroke-width: 0.8"/>
      </g>
     </g>
     <g id="text_8">
      <!-- 3.5 -->
      <g transform="translate(615.037744 322.900719) scale(0.11 -0.11)">
       <use xlink:href="#DejaVuSans-33"/>
       <use xlink:href="#DejaVuSans-2e" transform="translate(63.623047 0)"/>
       <use xlink:href="#DejaVuSans-35" transform="translate(95.410156 0)"/>
      </g>
     </g>
    </g>
    <g id="text_9">
     <!-- Time (s) -->
     <g transform="translate(349.130744 339.826187) scale(0.14 -0.14)">
      <defs>
       <path id="DejaVuSans-Bold-54" d="M 31 4666 
L 4331 4666 
L 4331 3756 
L 2784 3756 
L 2784 0 
L 1581 0 
L 1581 3756 
L 31 3756 
L 31 4666 
z
" transform="scale(0.015625)"/>
       <path id="DejaVuSans-Bold-69" d="M 538 3500 
L 1656 3500 
L 1656 0 
L 538 0 
L 538 3500 
z
M 538 4863 
L 1656 4863 
L 1656 3950 
L 538 3950 
L 538 4863 
z
" transform="scale(0.015625)"/>
       <path id="DejaVuSans-Bold-6d" d="M 3781 2919 
Q 3994 3244 4286 3414 
Q 4578 3584 4928 3584 
Q 5531 3584 5847 3212 
Q 6163 2841 6163 2131 
L 6163 0 
L 5038 0 
L 5038 1825 
Q 5041 1866 5042 1909 
Q 5044 1953 5044 2034 
Q 5044 2406 4934 2573 
Q 4825 2741 4581 2741 
Q 4263 2741 4089 2478 
Q 3916 2216 3909 1719 
L 3909 0 
L 2784 0 
L 2784 1825 
Q 2784 2406 2684 2573 
Q 2584 2741 2328 2741 
Q 2006 2741 1831 2477 
Q 1656 2213 1656 1722 
L 1656 0 
L 531 0 
L 531 3500 
L 1656 3500 
L 1656 2988 
Q 1863 3284 2130 3434 
Q 2397 3584 2719 3584 
Q 3081 3584 3359 3409 
Q 3638 3234 3781 2919 
z
" transform="scale(0.015625)"/>
       <path id="DejaVuSans-Bold-65" d="M 4031 1759 
L 4031 1441 
L 1416 1441 
Q 1456 1047 1700 850 
Q 1944 653 2381 653 
Q 2734 653 3104 758 
Q 3475 863 3866 1075 
L 3866 213 
Q 3469 63 3072 -14 
Q 2675 -91 2278 -91 
Q 1328 -91 801 392 
Q 275 875 275 1747 
Q 275 2603 792 3093 
Q 1309 3584 2216 3584 
Q 3041 3584 3536 3087 
Q 4031 2591 4031 1759 
z
M 2881 2131 
Q 2881 2450 2695 2645 
Q 2509 2841 2209 2841 
Q 1884 2841 1681 2658 
Q 1478 2475 1428 2131 
L 2881 2131 
z
" transform="scale(0.015625)"/>
       <path id="DejaVuSans-Bold-20" transform="scale(0.015625)"/>
       <path id="DejaVuSans-Bold-28" d="M 2413 -844 
L 1484 -844 
Q 1006 -72 778 623 
Q 550 1319 550 2003 
Q 550 2688 779 3389 
Q 1009 4091 1484 4856 
L 2413 4856 
Q 2013 4116 1813 3408 
Q 1613 2700 1613 2009 
Q 1613 1319 1811 609 
Q 2009 -100 2413 -844 
z
" transform="scale(0.015625)"/>
       <path id="DejaVuSans-Bold-73" d="M 3272 3391 
L 3272 2541 
Q 2913 2691 2578 2766 
Q 2244 2841 1947 2841 
Q 1628 2841 1473 2761 
Q 1319 2681 1319 2516 
Q 1319 2381 1436 2309 
Q 1553 2238 1856 2203 
L 2053 2175 
Q 2913 2066 3209 1816 
Q 3506 1566 3506 1031 
Q 3506 472 3093 190 
Q 2681 -91 1863 -91 
Q 1516 -91 1145 -36 
Q 775 19 384 128 
L 384 978 
Q 719 816 1070 734 
Q 1422 653 1784 653 
Q 2113 653 2278 743 
Q 2444 834 2444 1013 
Q 2444 1163 2330 1236 
Q 2216 1309 1875 1350 
L 1678 1375 
Q 931 1469 631 1722 
Q 331 1975 331 2491 
Q 331 3047 712 3315 
Q 1094 3584 1881 3584 
Q 2191 3584 2531 3537 
Q 2872 3491 3272 3391 
z
" transform="scale(0.015625)"/>
       <path id="DejaVuSans-Bold-29" d="M 513 -844 
Q 913 -100 1113 609 
Q 1313 1319 1313 2009 
Q 1313 2700 1113 3408 
Q 913 4116 513 4856 
L 1441 4856 
Q 1916 4091 2145 3389 
Q 2375 2688 2375 2003 
Q 2375 1319 2147 623 
Q 1919 -72 1441 -844 
L 513 -844 
z
" transform="scale(0.015625)"/>
      </defs>
      <use xlink:href="#DejaVuSans-Bold-54"/>
      <use xlink:href="#DejaVuSans-Bold-69" transform="translate(68.212891 0)"/>
      <use xlink:href="#DejaVuSans-Bold-6d" transform="translate(102.490234 0)"/>
      <use xlink:href="#DejaVuSans-Bold-65" transform="translate(206.689453 0)"/>
      <use xlink:href="#DejaVuSans-Bold-20" transform="translate(274.511719 0)"/>
      <use xlink:href="#DejaVuSans-Bold-28" transform="translate(309.326172 0)"/>
      <use xlink:href="#DejaVuSans-Bold-73" transform="translate(355.029297 0)"/>
      <use xlink:href="#DejaVuSans-Bold-29" transform="translate(414.550781 0)"/>
     </g>
    </g>
   </g>
   <g id="matplotlib.axis_2">
    <g id="ytick_1">
     <g id="line2d_10">
      <defs>
       <path id="mffc8c2eba4" d="M 0 0 
L -3.5 0 
" style="stroke: #000000; stroke-width: 0.8"/>
      </defs>
      <g>
       <use xlink:href="#mffc8c2eba4" x="58.479375" y="289.664996" style="stroke: #000000; stroke-width: 0.8"/>
      </g>
     </g>
     <g id="text_10">
      <!-- $\mathdefault{−1.0}$ -->
      <g transform="translate(24.749375 293.844137) scale(0.11 -0.11)">
       <defs>
        <path id="DejaVuSans-2212" d="M 678 2272 
L 4684 2272 
L 4684 1741 
L 678 1741 
L 678 2272 
z
" transform="scale(0.015625)"/>
       </defs>
       <use xlink:href="#DejaVuSans-2212" transform="translate(0 0.78125)"/>
       <use xlink:href="#DejaVuSans-31" transform="translate(83.789062 0.78125)"/>
       <use xlink:href="#DejaVuSans-2e" transform="translate(147.412109 0.78125)"/>
       <use xlink:href="#DejaVuSans-30" transform="translate(179.199219 0.78125)"/>
      </g>
     </g>
    </g>
    <g id="ytick_2">
     <g id="line2d_11">
      <g>
       <use xlink:href="#mffc8c2eba4" x="58.479375" y="226.167717" style="stroke: #000000; stroke-width: 0.8"/>
      </g>
     </g>
     <g id="text_11">
      <!-- $\mathdefault{−0.5}$ -->
      <g transform="translate(24.749375 230.346858) scale(0.11 -0.11)">
       <use xlink:href="#DejaVuSans-2212" transform="translate(0 0.78125)"/>
       <use xlink:href="#DejaVuSans-30" transform="translate(83.789062 0.78125)"/>
       <use xlink:href="#DejaVuSans-2e" transform="translate(147.412109 0.78125)"/>
       <use xlink:href="#DejaVuSans-35" transform="translate(179.199219 0.78125)"/>
      </g>
     </g>
    </g>
    <g id="ytick_3">
     <g id="line2d_12">
      <g>
       <use xlink:href="#mffc8c2eba4" x="58.479375" y="162.670437" style="stroke: #000000; stroke-width: 0.8"/>
      </g>
     </g>
     <g id="text_12">
      <!-- $\mathdefault{0.0}$ -->
      <g transform="translate(33.879375 166.849578) scale(0.11 -0.11)">
       <use xlink:href="#DejaVuSans-30" transform="translate(0 0.78125)"/>
       <use xlink:href="#DejaVuSans-2e" transform="translate(63.623047 0.78125)"/>
       <use xlink:href="#DejaVuSans-30" transform="translate(95.410156 0.78125)"/>
      </g>
     </g>
    </g>
    <g id="ytick_4">
     <g id="line2d_13">
      <g>
       <use xlink:href="#mffc8c2eba4" x="58.479375" y="99.173158" style="stroke: #000000; stroke-width: 0.8"/>
      </g>
     </g>
     <g id="text_13">
      <!-- $\mathdefault{0.5}$ -->
      <g transform="translate(33.879375 103.352299) scale(0.11 -0.11)">
       <use xlink:href="#DejaVuSans-30" transform="translate(0 0.78125)"/>
       <use xlink:href="#DejaVuSans-2e" transform="translate(63.623047 0.78125)"/>
       <use xlink:href="#DejaVuSans-35" transform="translate(95.410156 0.78125)"/>
      </g>
     </g>
    </g>
    <g id="ytick_5">
     <g id="line2d_14">
      <g>
       <use xlink:href="#mffc8c2eba4" x="58.479375" y="35.675879" style="stroke: #000000; stroke-width: 0.8"/>
      </g>
     </g>
     <g id="text_14">
      <!-- $\mathdefault{1.0}$ -->
      <g transform="translate(33.879375 39.855019) scale(0.11 -0.11)">
       <use xlink:href="#DejaVuSans-31" transform="translate(0 0.78125)"/>
       <use xlink:href="#DejaVuSans-2e" transform="translate(63.623047 0.78125)"/>
       <use xlink:href="#DejaVuSans-30" transform="translate(95.410156 0.78125)"/>
      </g>
     </g>
    </g>
    <g id="text_15">
     <!-- I$_{sc}$ (mA/m²) -->
     <g transform="translate(17.837813 205.300437) rotate(-90) scale(0.14 -0.14)">
      <defs>
       <path id="DejaVuSans-Bold-49" d="M 588 4666 
L 1791 4666 
L 1791 0 
L 588 0 
L 588 4666 
z
" transform="scale(0.015625)"/>
       <path id="DejaVuSans-Oblique-73" d="M 3200 3397 
L 3091 2853 
Q 2863 2978 2609 3040 
Q 2356 3103 2088 3103 
Q 1634 3103 1373 2948 
Q 1113 2794 1113 2528 
Q 1113 2219 1719 2053 
Q 1766 2041 1788 2034 
L 1972 1978 
Q 2547 1819 2739 1644 
Q 2931 1469 2931 1166 
Q 2931 609 2489 259 
Q 2047 -91 1331 -91 
Q 1053 -91 747 -37 
Q 441 16 72 128 
L 184 722 
Q 500 559 806 475 
Q 1113 391 1394 391 
Q 1816 391 2080 572 
Q 2344 753 2344 1031 
Q 2344 1331 1650 1516 
L 1591 1531 
L 1394 1581 
Q 956 1697 753 1886 
Q 550 2075 550 2369 
Q 550 2928 970 3256 
Q 1391 3584 2113 3584 
Q 2397 3584 2667 3537 
Q 2938 3491 3200 3397 
z
" transform="scale(0.015625)"/>
       <path id="DejaVuSans-Oblique-63" d="M 3431 3366 
L 3316 2797 
Q 3109 2947 2876 3022 
Q 2644 3097 2394 3097 
Q 2119 3097 1870 3000 
Q 1622 2903 1453 2725 
Q 1184 2453 1037 2087 
Q 891 1722 891 1331 
Q 891 859 1127 628 
Q 1363 397 1844 397 
Q 2081 397 2348 469 
Q 2616 541 2906 684 
L 2797 116 
Q 2547 13 2283 -39 
Q 2019 -91 1741 -91 
Q 1044 -91 669 257 
Q 294 606 294 1253 
Q 294 1797 489 2255 
Q 684 2713 1069 3078 
Q 1331 3328 1684 3456 
Q 2038 3584 2456 3584 
Q 2700 3584 2940 3529 
Q 3181 3475 3431 3366 
z
" transform="scale(0.015625)"/>
       <path id="DejaVuSans-Bold-41" d="M 3419 850 
L 1538 850 
L 1241 0 
L 31 0 
L 1759 4666 
L 3194 4666 
L 4922 0 
L 3713 0 
L 3419 850 
z
M 1838 1716 
L 3116 1716 
L 2478 3572 
L 1838 1716 
z
" transform="scale(0.015625)"/>
       <path id="DejaVuSans-Bold-2f" d="M 1644 4666 
L 2338 4666 
L 691 -594 
L 0 -594 
L 1644 4666 
z
" transform="scale(0.015625)"/>
       <path id="DejaVuSans-Bold-b2" d="M 1288 2613 
L 2444 2613 
L 2444 2088 
L 341 2088 
L 341 2566 
L 1319 3397 
Q 1509 3563 1590 3688 
Q 1672 3813 1672 3938 
Q 1672 4094 1558 4191 
Q 1444 4288 1259 4288 
Q 1066 4288 844 4217 
Q 622 4147 359 4000 
L 359 4581 
Q 631 4666 886 4708 
Q 1141 4750 1375 4750 
Q 1869 4750 2150 4548 
Q 2431 4347 2431 4000 
Q 2431 3775 2320 3586 
Q 2209 3397 1894 3128 
L 1288 2613 
z
" transform="scale(0.015625)"/>
      </defs>
      <use xlink:href="#DejaVuSans-Bold-49" transform="translate(0 0.125)"/>
      <use xlink:href="#DejaVuSans-Oblique-73" transform="translate(38.164062 -16.28125) scale(0.7)"/>
      <use xlink:href="#DejaVuSans-Oblique-63" transform="translate(74.633789 -16.28125) scale(0.7)"/>
      <use xlink:href="#DejaVuSans-Bold-20" transform="translate(115.854492 0.125)"/>
      <use xlink:href="#DejaVuSans-Bold-28" transform="translate(150.668945 0.125)"/>
      <use xlink:href="#DejaVuSans-Bold-6d" transform="translate(196.37207 0.125)"/>
      <use xlink:href="#DejaVuSans-Bold-41" transform="translate(300.571289 0.125)"/>
      <use xlink:href="#DejaVuSans-Bold-2f" transform="translate(377.963867 0.125)"/>
      <use xlink:href="#DejaVuSans-Bold-6d" transform="translate(414.487305 0.125)"/>
      <use xlink:href="#DejaVuSans-Bold-b2" transform="translate(518.686523 0.125)"/>
      <use xlink:href="#DejaVuSans-Bold-29" transform="translate(562.485352 0.125)"/>
     </g>
    </g>
    <g id="text_16">
     <!-- $\times\mathdefault{10^{−3}}\mathdefault{}$ -->
     <g transform="translate(58.479375 14.798437) scale(0.1 -0.1)">
      <defs>
       <path id="DejaVuSans-d7" d="M 4488 3438 
L 3059 2003 
L 4488 575 
L 4116 197 
L 2681 1631 
L 1247 197 
L 878 575 
L 2303 2003 
L 878 3438 
L 1247 3816 
L 2681 2381 
L 4116 3816 
L 4488 3438 
z
" transform="scale(0.015625)"/>
      </defs>
      <use xlink:href="#DejaVuSans-d7" transform="translate(0 0.765625)"/>
      <use xlink:href="#DejaVuSans-31" transform="translate(83.789062 0.765625)"/>
      <use xlink:href="#DejaVuSans-30" transform="translate(147.412109 0.765625)"/>
      <use xlink:href="#DejaVuSans-2212" transform="translate(211.992188 39.046875) scale(0.7)"/>
      <use xlink:href="#DejaVuSans-33" transform="translate(270.644531 39.046875) scale(0.7)"/>
     </g>
    </g>
   </g>
   <g id="patch_5">
    <path d="M 58.479375 307.542437 
L 58.479375 17.798437 
" style="fill: none; stroke: #000000; stroke-width: 0.8; stroke-linejoin: miter; stroke-linecap: square"/>
   </g>
   <g id="patch_6">
    <path d="M 58.479375 307.542437 
L 704.219301 307.542437 
" style="fill: none; stroke: #000000; stroke-width: 0.8; stroke-linejoin: miter; stroke-linecap: square"/>
   </g>
   <g id="line2d_15">
    <path d="M 58.479375 160.769775 
L 58.640891 160.769775 
L 58.802406 160.974279 
L 58.963922 160.565271 
L 59.125438 160.974279 
L 59.609985 160.974279 
L 59.771501 161.178783 
L 60.094532 160.769775 
L 60.256048 160.769775 
L 60.417564 160.974279 
L 60.57908 160.769775 
L 60.902111 160.872027 
L 61.063627 160.769775 
L 61.225143 160.872027 
L 61.386658 160.769775 
L 61.548174 160.463018 
L 61.871206 160.974279 
L 62.194237 160.872027 
L 62.355753 160.872027 
L 62.517268 161.178783 
L 62.8403 160.872027 
L 63.163331 160.769775 
L 63.324847 160.360766 
L 63.486363 160.463018 
L 63.647879 160.360766 
L 63.809394 160.463018 
L 63.97091 160.360766 
L 64.132426 160.974279 
L 64.616973 160.667522 
L 64.940005 161.48554 
L 65.10152 161.48554 
L 65.263036 161.076531 
L 65.586068 160.769775 
L 65.747583 161.076531 
L 65.909099 160.769775 
L 66.23213 160.769775 
L 66.393646 160.258514 
L 66.555162 160.667522 
L 66.878193 160.769775 
L 67.039709 161.281035 
L 67.201225 161.076531 
L 67.362741 161.383288 
L 67.524256 161.178783 
L 67.847288 161.48554 
L 68.170319 160.667522 
L 68.331835 161.281035 
L 68.493351 160.974279 
L 68.654867 161.690044 
L 68.816382 161.281035 
L 68.977898 161.690044 
L 69.462445 161.281035 
L 69.623961 161.690044 
L 69.785477 161.690044 
L 70.108508 162.508061 
L 70.270024 162.099052 
L 70.43154 162.303557 
L 70.593055 162.201305 
L 70.754571 162.508061 
L 71.239118 161.894548 
L 71.56215 162.712565 
L 71.723666 162.303557 
L 72.046697 162.508061 
L 72.369729 162.201305 
L 72.69276 162.91707 
L 72.854276 162.712565 
L 73.177307 162.814817 
L 73.500339 162.91707 
L 73.661854 163.019322 
L 73.82337 162.610313 
L 74.146402 162.508061 
L 74.469433 163.121574 
L 74.630949 163.223826 
L 74.95398 162.91707 
L 75.438528 163.939591 
L 75.600043 164.041843 
L 75.923075 163.632835 
L 76.407622 163.837339 
L 76.569138 163.735087 
L 76.730654 164.041843 
L 76.892169 163.939591 
L 77.053685 164.144095 
L 77.215201 164.553104 
L 77.699748 164.348599 
L 78.345811 165.575625 
L 78.507327 165.268869 
L 78.830358 165.677877 
L 78.991874 165.575625 
L 79.314905 165.882381 
L 79.476421 165.882381 
L 79.637937 166.393642 
L 79.799453 166.291389 
L 80.122484 166.393642 
L 80.284 166.80265 
L 80.445516 166.598147 
L 80.930063 167.825172 
L 81.41461 168.23418 
L 81.576126 168.643188 
L 81.899157 168.745441 
L 82.222189 169.358955 
L 82.54522 169.461205 
L 82.706736 169.870213 
L 82.868252 169.972466 
L 83.352799 171.301743 
L 83.514315 171.301743 
L 83.837346 172.426518 
L 83.998862 172.324265 
L 84.160378 172.937779 
L 84.321893 173.040032 
L 85.614019 176.516603 
L 86.421598 179.788672 
L 86.744629 181.11795 
L 88.521303 190.627397 
L 89.651913 200.648097 
L 90.782523 213.122868 
L 91.590102 225.495376 
L 93.851322 264.044416 
L 94.497385 270.895296 
L 94.820416 271.713299 
L 95.143448 270.793033 
L 95.466479 267.418724 
L 95.951027 259.545316 
L 96.274058 253.205684 
L 97.889215 210.362069 
L 98.373763 181.424705 
L 99.181341 135.513496 
L 99.665889 121.300436 
L 100.150436 112.813517 
L 101.281046 100.543271 
L 102.896203 83.364875 
L 103.219235 81.524343 
L 103.703782 80.70634 
L 103.865298 80.808602 
L 104.188329 81.728868 
L 104.349845 82.342379 
L 106.288034 97.782441 
L 108.872286 119.971152 
L 111.456537 135.922504 
L 111.618053 136.229259 
L 112.1026 138.376556 
L 112.587148 140.319348 
L 113.233211 142.773397 
L 114.202305 145.73871 
L 114.525337 146.147718 
L 114.848368 147.067988 
L 115.009884 147.17024 
L 115.494431 148.601771 
L 115.655947 148.806273 
L 115.817462 149.52204 
L 115.978978 149.317534 
L 116.140494 150.033301 
L 116.30201 150.237804 
L 116.625041 150.95357 
L 116.786557 151.055823 
L 116.948073 151.567081 
L 117.594136 151.976092 
L 117.755651 152.385101 
L 117.917167 152.385101 
L 118.078683 152.589603 
L 118.240199 153.100864 
L 118.56323 153.203117 
L 119.209293 154.7369 
L 119.370809 154.123386 
L 119.532324 154.532394 
L 119.69384 154.532394 
L 120.016872 155.043655 
L 120.178387 154.941403 
L 120.339903 155.145908 
L 120.501419 154.941403 
L 120.82445 155.657169 
L 120.985966 155.861672 
L 121.147482 156.27068 
L 121.470513 156.066178 
L 121.632029 156.679688 
L 121.793545 156.27068 
L 121.955061 156.475186 
L 122.116576 156.27068 
L 122.278092 156.475186 
L 122.439608 156.27068 
L 122.601124 156.27068 
L 122.924155 156.679688 
L 123.085671 156.475186 
L 123.247186 156.884194 
L 123.408702 156.372933 
L 123.570218 156.884194 
L 124.539312 157.497708 
L 124.700828 157.293202 
L 125.346891 157.599958 
L 125.669923 157.497708 
L 125.831438 157.497708 
L 125.992954 157.190949 
L 126.15447 157.804463 
L 126.315986 157.497708 
L 126.477501 157.804463 
L 126.639017 157.599958 
L 126.800533 157.906716 
L 126.962048 157.804463 
L 127.123564 157.906716 
L 127.28508 158.417977 
L 127.608111 158.315724 
L 128.254174 158.213471 
L 128.41569 157.906716 
L 128.577206 158.315724 
L 128.738722 158.315724 
L 129.061753 159.031488 
L 129.223269 158.520227 
L 129.384785 159.235993 
L 129.5463 159.133741 
L 129.869332 159.440496 
L 130.030848 159.542749 
L 130.192363 159.338246 
L 130.67691 159.542749 
L 130.838426 159.542749 
L 130.999942 159.235993 
L 131.646005 159.338246 
L 131.969036 159.542749 
L 132.130552 159.338246 
L 132.292068 159.747253 
L 132.453584 159.542749 
L 132.615099 159.645001 
L 132.938131 159.542749 
L 133.261162 159.645001 
L 133.422678 159.645001 
L 133.74571 159.031488 
L 133.907225 159.133741 
L 134.068741 159.849505 
L 134.230257 159.645001 
L 134.391772 159.645001 
L 134.714804 159.951758 
L 134.87632 159.849505 
L 135.037835 159.338246 
L 135.522383 159.849505 
L 135.683898 159.440496 
L 136.168446 159.440496 
L 136.329961 159.235993 
L 136.652993 159.235993 
L 136.814509 158.929235 
L 136.976024 159.542749 
L 137.13754 159.440496 
L 137.460572 159.747253 
L 137.783603 159.849505 
L 137.945119 159.645001 
L 138.106634 159.849505 
L 138.914213 159.440496 
L 139.721792 159.440496 
L 139.883308 159.645001 
L 140.044823 159.440496 
L 140.529371 159.440496 
L 140.690886 159.133741 
L 140.852402 159.338246 
L 141.336949 158.929235 
L 141.821496 158.417977 
L 142.144528 158.213471 
L 142.306044 158.315724 
L 142.467559 158.826985 
L 142.629075 158.62248 
L 142.952107 159.133741 
L 143.436654 158.929235 
L 143.759685 159.338246 
L 143.921201 159.133741 
L 144.72878 159.133741 
L 145.051811 159.542749 
L 145.213327 159.440496 
L 145.374843 159.542749 
L 145.536358 159.951758 
L 145.697874 159.747253 
L 146.020906 160.05401 
L 146.343937 159.645001 
L 146.666969 159.747253 
L 146.828484 159.645001 
L 146.99 159.849505 
L 147.474547 159.338246 
L 147.636063 159.747253 
L 147.959095 159.849505 
L 148.12061 159.645001 
L 148.282126 159.849505 
L 148.443642 159.645001 
L 148.766673 159.951758 
L 148.928189 159.747253 
L 149.089705 159.849505 
L 149.25122 159.645001 
L 149.897283 160.05401 
L 150.058799 159.849505 
L 150.220315 159.440496 
L 150.381831 160.05401 
L 151.350925 160.05401 
L 151.512441 160.258514 
L 151.835472 159.951758 
L 151.996988 160.156262 
L 152.158504 159.849505 
L 152.32002 160.05401 
L 152.481535 159.951758 
L 152.643051 160.463018 
L 152.966082 160.05401 
L 153.127598 160.156262 
L 153.45063 160.565271 
L 153.612145 159.951758 
L 153.773661 160.258514 
L 153.935177 160.258514 
L 154.258208 159.951758 
L 154.742756 160.258514 
L 155.065787 159.951758 
L 155.227303 159.849505 
L 155.388819 160.05401 
L 155.550334 160.05401 
L 155.71185 160.463018 
L 156.196397 160.769775 
L 156.357913 161.076531 
L 156.84246 160.872027 
L 157.165492 160.974279 
L 157.327007 160.667522 
L 157.488523 160.872027 
L 157.811555 160.974279 
L 157.97307 161.076531 
L 158.134586 160.974279 
L 158.296102 161.178783 
L 158.780649 161.281035 
L 158.942165 161.48554 
L 159.103681 161.383288 
L 159.426712 161.690044 
L 159.588228 161.383288 
L 160.234291 161.690044 
L 160.395807 161.690044 
L 160.557322 161.48554 
L 160.880354 161.894548 
L 161.203385 161.792296 
L 162.17248 162.303557 
L 162.980058 161.894548 
L 163.141574 161.9968 
L 163.464606 161.690044 
L 163.626121 161.9968 
L 163.787637 161.894548 
L 164.110669 162.303557 
L 164.272184 162.201305 
L 164.595216 162.303557 
L 164.756731 162.303557 
L 164.918247 161.9968 
L 165.079763 162.405809 
L 165.402794 161.9968 
L 165.56431 162.099052 
L 165.887342 161.9968 
L 166.371889 162.099052 
L 166.69492 162.405809 
L 168.633109 162.303557 
L 168.956141 162.099052 
L 169.602204 162.508061 
L 169.763719 162.405809 
L 170.248267 162.712565 
L 170.409782 162.610313 
L 170.571298 162.201305 
L 170.89433 162.405809 
L 171.055845 162.201305 
L 171.378877 162.099052 
L 171.540393 161.9968 
L 171.701908 162.099052 
L 171.863424 161.9968 
L 172.02494 162.201305 
L 172.186455 162.610313 
L 172.347971 162.405809 
L 172.832518 162.405809 
L 172.994034 162.610313 
L 173.478581 162.099052 
L 173.963129 161.9968 
L 174.28616 161.792296 
L 174.447676 161.894548 
L 174.609192 162.201305 
L 174.770707 162.201305 
L 174.932223 162.508061 
L 175.255255 162.405809 
L 175.41677 162.610313 
L 176.062833 162.508061 
L 176.385865 162.405809 
L 177.193443 162.405809 
L 177.354959 162.814817 
L 177.516475 162.610313 
L 177.677991 162.814817 
L 177.839506 162.610313 
L 178.162538 163.019322 
L 178.808601 162.712565 
L 180.100727 162.712565 
L 180.262242 162.91707 
L 180.423758 162.814817 
L 181.069821 163.121574 
L 181.231337 162.712565 
L 181.392853 162.712565 
L 181.554368 162.508061 
L 181.715884 162.508061 
L 181.8774 162.303557 
L 182.684979 162.303557 
L 182.846494 162.099052 
L 183.00801 162.508061 
L 183.331041 162.610313 
L 183.654073 162.712565 
L 184.13862 162.712565 
L 184.300136 162.303557 
L 184.461652 162.201305 
L 184.623167 162.405809 
L 185.107715 162.201305 
L 185.26923 162.303557 
L 185.430746 161.9968 
L 185.753778 162.405809 
L 186.399841 162.814817 
L 186.561356 162.405809 
L 186.722872 162.405809 
L 187.045903 161.894548 
L 187.207419 162.201305 
L 187.368935 161.690044 
L 187.853482 161.9968 
L 188.014998 161.894548 
L 188.176514 161.587792 
L 188.499545 161.894548 
L 188.822577 162.099052 
L 188.984092 161.9968 
L 189.145608 162.099052 
L 189.46864 161.690044 
L 190.114703 161.383288 
L 190.276218 161.48554 
L 190.437734 161.281035 
L 190.59925 161.281035 
L 190.922281 161.587792 
L 191.406828 161.48554 
L 191.568344 161.792296 
L 191.72986 161.587792 
L 191.891376 161.587792 
L 192.052891 161.792296 
L 192.214407 161.48554 
L 192.698954 161.383288 
L 193.021986 161.076531 
L 193.183502 161.281035 
L 193.345017 161.178783 
L 193.506533 161.281035 
L 193.668049 161.690044 
L 193.829565 161.48554 
L 194.637143 161.383288 
L 194.798659 161.792296 
L 195.12169 161.076531 
L 195.283206 161.383288 
L 195.444722 161.076531 
L 195.606238 161.178783 
L 195.767753 161.076531 
L 195.929269 161.281035 
L 196.252301 161.076531 
L 196.575332 161.281035 
L 196.736848 161.076531 
L 197.221395 161.587792 
L 197.382911 161.076531 
L 197.705942 161.076531 
L 197.867458 161.383288 
L 198.19049 160.769775 
L 198.352005 161.076531 
L 198.513521 160.872027 
L 198.675037 160.974279 
L 198.836552 160.769775 
L 198.998068 160.872027 
L 199.159584 160.769775 
L 199.3211 160.974279 
L 199.644131 161.076531 
L 199.805647 161.48554 
L 200.128678 160.872027 
L 200.290194 161.076531 
L 201.259289 160.565271 
L 201.420804 160.974279 
L 201.743836 161.076531 
L 202.066867 161.076531 
L 202.228383 161.383288 
L 202.389899 161.281035 
L 202.551414 161.792296 
L 202.71293 161.690044 
L 202.874446 161.178783 
L 203.035962 161.587792 
L 203.358993 161.48554 
L 203.520509 160.769775 
L 203.682025 160.974279 
L 203.84354 161.383288 
L 204.005056 161.076531 
L 204.166572 161.383288 
L 204.328088 161.178783 
L 204.489603 161.281035 
L 204.651119 161.792296 
L 204.812635 161.587792 
L 204.974151 161.587792 
L 205.135666 161.281035 
L 205.297182 161.690044 
L 205.458698 161.792296 
L 205.781729 160.974279 
L 205.943245 161.48554 
L 206.104761 161.383288 
L 206.266276 161.076531 
L 206.589308 161.48554 
L 206.750824 161.076531 
L 207.073855 161.178783 
L 207.235371 161.587792 
L 207.396887 161.48554 
L 207.558402 161.690044 
L 207.719918 161.587792 
L 207.881434 161.281035 
L 208.204465 161.894548 
L 208.850528 161.48554 
L 209.012044 161.178783 
L 209.496591 161.281035 
L 209.819623 161.587792 
L 209.981138 161.281035 
L 210.142654 161.383288 
L 210.30417 161.792296 
L 210.788717 161.690044 
L 210.950233 161.178783 
L 211.273264 161.281035 
L 212.080843 161.383288 
L 212.242359 161.48554 
L 212.403875 161.792296 
L 212.56539 161.690044 
L 212.726906 161.9968 
L 212.888422 161.894548 
L 213.372969 162.099052 
L 213.534485 161.894548 
L 213.696 162.099052 
L 213.857516 161.9968 
L 214.019032 161.587792 
L 214.180548 161.690044 
L 214.342063 161.281035 
L 214.503579 161.48554 
L 214.665095 161.48554 
L 214.826611 161.894548 
L 214.988126 161.9968 
L 215.149642 161.894548 
L 215.472674 161.48554 
L 215.634189 162.201305 
L 215.795705 161.587792 
L 215.957221 161.894548 
L 216.118737 161.792296 
L 216.280252 161.894548 
L 216.441768 161.690044 
L 216.603284 161.690044 
L 216.7648 161.9968 
L 216.926315 161.894548 
L 217.087831 161.9968 
L 217.572378 161.792296 
L 217.733894 162.405809 
L 218.218441 162.405809 
L 218.379957 162.814817 
L 218.541473 162.91707 
L 218.864504 162.712565 
L 219.02602 162.814817 
L 219.187536 162.712565 
L 219.349051 163.019322 
L 219.510567 162.814817 
L 219.672083 162.91707 
L 219.833599 163.326078 
L 219.995114 163.326078 
L 220.15663 162.405809 
L 220.318146 163.019322 
L 220.479662 162.91707 
L 220.641177 163.326078 
L 220.802693 163.223826 
L 220.964209 163.735087 
L 221.125724 163.530582 
L 221.448756 163.939591 
L 221.610272 163.530582 
L 221.771787 163.632835 
L 221.933303 163.530582 
L 222.094819 164.144095 
L 222.256335 163.530582 
L 222.41785 164.246347 
L 222.902398 163.735087 
L 223.225429 164.246347 
L 223.386945 163.939591 
L 223.548461 164.144095 
L 223.709976 164.144095 
L 224.033008 164.553104 
L 224.194524 164.246347 
L 224.356039 164.450852 
L 224.517555 164.144095 
L 224.679071 164.655356 
L 225.002102 164.85986 
L 225.325134 164.757608 
L 225.809681 165.166617 
L 226.294228 165.677877 
L 226.455744 165.677877 
L 226.940291 166.189139 
L 227.263323 166.291389 
L 227.424838 166.495895 
L 227.586354 166.393642 
L 228.232417 166.700397 
L 228.393933 167.211658 
L 228.555448 167.211658 
L 229.039996 168.23418 
L 229.201511 168.131927 
L 229.847574 169.154449 
L 230.493637 169.870213 
L 230.655153 169.972466 
L 230.816669 170.279224 
L 230.978185 170.892735 
L 231.1397 170.994988 
L 231.462732 171.813004 
L 231.785763 172.222013 
L 231.947279 173.040032 
L 232.431826 173.55129 
L 232.754858 174.573812 
L 233.077889 175.085073 
L 233.562436 176.516603 
L 233.885468 177.845881 
L 235.016078 182.447227 
L 236.46972 190.320639 
L 237.923361 203.204402 
L 239.053972 216.292683 
L 240.346097 238.481395 
L 241.638223 259.545316 
L 242.607318 271.202051 
L 242.930349 272.83809 
L 243.091865 272.940321 
L 243.253381 272.531335 
L 243.576412 269.770505 
L 244.222475 258.931805 
L 244.868538 242.469215 
L 245.353085 227.029153 
L 245.999148 210.055282 
L 246.645211 170.892735 
L 247.291274 135.104487 
L 247.775821 120.175677 
L 248.260369 110.972985 
L 248.906432 102.179278 
L 249.552495 96.555419 
L 250.521589 87.250464 
L 251.329168 82.137854 
L 251.490683 81.31985 
L 251.813715 80.910833 
L 251.975231 81.013095 
L 252.459778 82.444609 
L 253.751904 92.158582 
L 256.17464 114.245031 
L 258.112829 128.253579 
L 259.243439 134.797729 
L 259.889502 137.55854 
L 260.697081 140.932858 
L 261.181628 143.182405 
L 261.666175 144.613935 
L 261.989207 145.431955 
L 262.473754 146.658979 
L 262.635269 146.863485 
L 264.411943 151.158073 
L 264.573458 151.158073 
L 264.89649 152.078342 
L 265.058006 152.180595 
L 265.219521 151.976092 
L 265.381037 152.589603 
L 265.542553 152.589603 
L 266.350131 153.918881 
L 266.673163 154.327889 
L 266.834679 154.7369 
L 266.996194 154.83915 
L 267.15771 155.248158 
L 267.319226 155.248158 
L 267.480742 154.83915 
L 267.803773 155.554916 
L 267.965289 155.452664 
L 268.28832 155.759419 
L 268.772868 156.475186 
L 268.934383 156.27068 
L 269.257415 156.884194 
L 269.580446 157.395455 
L 270.064994 157.293202 
L 270.226509 157.088696 
L 270.549541 157.395455 
L 270.711056 157.599958 
L 270.872572 157.497708 
L 271.034088 157.70221 
L 271.195604 157.497708 
L 271.357119 157.804463 
L 271.518635 157.70221 
L 271.680151 157.395455 
L 272.164698 158.008966 
L 272.326214 157.804463 
L 272.48773 158.111219 
L 272.649245 158.008966 
L 272.810761 158.111219 
L 272.972277 158.520227 
L 273.133793 158.008966 
L 273.456824 158.111219 
L 273.61834 157.599958 
L 273.941371 158.213471 
L 274.264403 157.906716 
L 274.587434 158.724732 
L 274.74895 158.826985 
L 274.910466 158.724732 
L 275.233497 158.929235 
L 275.395013 158.62248 
L 275.556529 159.031488 
L 275.718044 158.929235 
L 276.202592 159.133741 
L 276.525623 158.826985 
L 276.687139 159.235993 
L 277.01017 159.338246 
L 277.171686 159.542749 
L 277.333202 159.440496 
L 277.494718 159.849505 
L 277.656233 159.951758 
L 277.817749 160.258514 
L 277.979265 160.05401 
L 278.14078 160.156262 
L 278.302296 159.951758 
L 278.625328 160.463018 
L 278.786843 160.156262 
L 279.109875 160.360766 
L 279.271391 160.05401 
L 279.432906 160.258514 
L 279.594422 160.156262 
L 279.755938 160.463018 
L 280.078969 160.360766 
L 280.240485 160.156262 
L 280.886548 160.667522 
L 281.20958 159.951758 
L 281.532611 160.463018 
L 281.694127 160.360766 
L 282.017158 160.667522 
L 282.178674 160.463018 
L 282.501705 160.769775 
L 282.663221 160.974279 
L 283.309284 160.872027 
L 284.278379 160.156262 
L 284.439894 159.951758 
L 285.893536 160.769775 
L 286.055052 160.667522 
L 286.216567 160.974279 
L 286.378083 160.769775 
L 286.539599 160.769775 
L 286.701115 160.974279 
L 287.024146 160.872027 
L 287.185662 160.360766 
L 287.347178 160.974279 
L 287.508693 160.974279 
L 287.831725 160.463018 
L 288.154756 160.769775 
L 288.316272 160.463018 
L 288.477788 160.667522 
L 288.800819 160.565271 
L 289.123851 159.951758 
L 289.446882 159.849505 
L 289.608398 159.645001 
L 289.769914 159.747253 
L 290.092945 159.645001 
L 290.254461 159.849505 
L 290.739008 159.849505 
L 290.900524 159.440496 
L 291.223555 159.951758 
L 291.546587 160.156262 
L 291.708103 159.951758 
L 291.869618 160.156262 
L 292.031134 159.849505 
L 292.19265 159.951758 
L 292.354166 160.360766 
L 292.515681 160.156262 
L 292.677197 160.258514 
L 292.838713 160.565271 
L 293.161744 160.258514 
L 293.32326 160.667522 
L 293.484776 160.565271 
L 293.646291 160.974279 
L 293.969323 160.463018 
L 294.130839 160.974279 
L 294.45387 161.076531 
L 294.615386 161.076531 
L 294.776902 160.565271 
L 294.938417 160.974279 
L 295.261449 160.463018 
L 295.745996 160.769775 
L 295.907512 160.565271 
L 296.230543 161.076531 
L 296.392059 160.769775 
L 296.553575 160.974279 
L 296.71509 160.565271 
L 297.038122 160.974279 
L 297.199638 161.178783 
L 297.684185 160.667522 
L 298.007216 160.463018 
L 298.330248 160.667522 
L 298.491764 160.463018 
L 298.814795 160.974279 
L 298.976311 160.872027 
L 299.299342 161.281035 
L 299.460858 160.974279 
L 299.622374 161.281035 
L 299.78389 160.974279 
L 299.945405 160.974279 
L 300.268437 160.667522 
L 300.429952 160.974279 
L 300.591468 160.769775 
L 300.9145 160.769775 
L 301.076015 161.178783 
L 301.237531 160.974279 
L 301.399047 161.178783 
L 301.560563 161.178783 
L 301.722078 160.974279 
L 302.206626 161.178783 
L 302.368141 161.076531 
L 302.529657 161.178783 
L 302.852689 160.872027 
L 303.014204 161.076531 
L 303.337236 160.769775 
L 303.498752 160.974279 
L 303.821783 161.076531 
L 304.144814 161.48554 
L 304.30633 161.894548 
L 304.467846 161.690044 
L 304.629362 161.9968 
L 305.113909 161.690044 
L 305.275425 161.894548 
L 305.43694 161.383288 
L 305.759972 161.690044 
L 306.083003 161.587792 
L 306.406035 161.690044 
L 306.729066 162.201305 
L 306.890582 161.9968 
L 307.052098 162.405809 
L 307.213614 162.201305 
L 307.536645 162.303557 
L 307.698161 162.508061 
L 308.021192 162.099052 
L 308.828771 162.508061 
L 309.313318 162.508061 
L 309.63635 162.91707 
L 309.797865 162.712565 
L 309.959381 162.91707 
L 310.282413 162.610313 
L 311.251507 162.508061 
L 311.574539 162.405809 
L 311.736054 162.405809 
L 311.89757 162.610313 
L 312.059086 162.610313 
L 312.382117 162.91707 
L 312.543633 163.019322 
L 312.866664 162.814817 
L 313.02818 162.91707 
L 313.351212 162.610313 
L 313.512727 162.508061 
L 313.835759 162.610313 
L 313.997275 162.508061 
L 314.15879 162.712565 
L 314.320306 162.508061 
L 315.450916 163.121574 
L 315.773948 162.814817 
L 315.935463 163.019322 
L 316.096979 162.91707 
L 316.258495 163.019322 
L 316.420011 162.712565 
L 317.066074 162.712565 
L 317.227589 163.019322 
L 317.389105 162.91707 
L 317.550621 163.121574 
L 318.3582 163.121574 
L 318.519715 162.91707 
L 318.681231 163.019322 
L 318.842747 162.712565 
L 319.004263 162.712565 
L 319.165778 162.91707 
L 319.48881 162.610313 
L 319.811841 162.508061 
L 320.296388 162.91707 
L 320.457904 163.121574 
L 320.61942 163.019322 
L 320.780936 163.223826 
L 321.265483 163.019322 
L 321.426999 163.019322 
L 321.588514 162.712565 
L 321.911546 162.814817 
L 322.073062 162.508061 
L 322.234577 162.610313 
L 322.396093 162.405809 
L 322.557609 162.712565 
L 323.042156 162.712565 
L 323.203672 163.223826 
L 323.365187 163.019322 
L 325.303376 163.121574 
L 325.464892 163.42833 
L 325.949439 163.223826 
L 326.433987 163.530582 
L 327.080049 163.223826 
L 327.564597 163.223826 
L 327.726112 163.019322 
L 328.049144 163.42833 
L 328.21066 163.530582 
L 328.372175 163.326078 
L 328.533691 163.42833 
L 328.695207 163.326078 
L 329.018238 163.42833 
L 329.179754 163.326078 
L 329.34127 163.42833 
L 329.502786 163.223826 
L 329.825817 163.121574 
L 329.987333 163.019322 
L 330.148849 163.121574 
L 330.47188 163.019322 
L 330.633396 163.019322 
L 330.794911 163.530582 
L 331.117943 163.121574 
L 332.087037 163.632835 
L 332.571585 163.121574 
L 332.7331 163.019322 
L 332.894616 162.712565 
L 333.863711 163.326078 
L 334.025226 163.223826 
L 334.348258 163.42833 
L 334.509773 163.326078 
L 334.832805 163.632835 
L 334.994321 163.326078 
L 335.155836 163.326078 
L 335.317352 163.121574 
L 335.478868 162.508061 
L 335.640384 163.019322 
L 335.801899 162.405809 
L 335.963415 162.405809 
L 336.124931 162.91707 
L 336.286447 162.91707 
L 336.447962 162.712565 
L 336.770994 163.019322 
L 337.094025 162.712565 
L 337.255541 163.42833 
L 337.417057 162.814817 
L 337.740088 162.91707 
L 337.901604 162.303557 
L 338.224635 162.508061 
L 338.386151 163.223826 
L 338.709183 162.405809 
L 338.870698 162.303557 
L 339.032214 162.405809 
L 339.19373 162.712565 
L 339.355246 162.712565 
L 339.516761 162.91707 
L 339.678277 162.814817 
L 339.839793 163.121574 
L 340.001309 163.121574 
L 340.485856 162.303557 
L 340.808887 163.223826 
L 340.970403 161.9968 
L 341.293435 162.303557 
L 341.45495 162.508061 
L 341.616466 162.405809 
L 341.777982 162.91707 
L 341.939497 162.712565 
L 342.101013 162.91707 
L 342.262529 162.610313 
L 342.58556 162.91707 
L 342.747076 162.814817 
L 342.908592 163.121574 
L 343.070108 161.9968 
L 343.393139 163.019322 
L 343.716171 162.201305 
L 343.877686 162.610313 
L 344.200718 162.91707 
L 344.362234 163.121574 
L 344.523749 162.712565 
L 344.846781 163.019322 
L 345.169812 162.814817 
L 345.331328 162.405809 
L 345.492844 163.121574 
L 345.815875 162.303557 
L 345.977391 162.712565 
L 346.461938 162.201305 
L 346.623454 162.099052 
L 346.78497 162.508061 
L 346.946485 162.508061 
L 347.108001 162.201305 
L 347.431033 162.508061 
L 347.754064 162.201305 
L 348.077096 162.91707 
L 348.238611 162.712565 
L 348.400127 161.894548 
L 348.561643 162.508061 
L 348.723159 162.405809 
L 348.884674 161.690044 
L 349.04619 161.792296 
L 349.207706 163.121574 
L 349.369222 161.9968 
L 349.530737 162.303557 
L 349.692253 162.303557 
L 349.853769 162.814817 
L 350.015284 162.712565 
L 350.1768 162.814817 
L 350.338316 163.223826 
L 350.499832 162.91707 
L 350.984379 163.223826 
L 351.145895 163.121574 
L 351.30741 162.712565 
L 351.468926 163.019322 
L 351.791958 162.610313 
L 351.953473 162.610313 
L 352.114989 163.019322 
L 352.276505 162.610313 
L 352.761052 163.530582 
L 353.084084 163.42833 
L 353.245599 163.019322 
L 353.407115 163.223826 
L 353.568631 163.121574 
L 353.730146 164.041843 
L 353.891662 163.632835 
L 354.053178 162.91707 
L 354.376209 163.223826 
L 354.537725 162.712565 
L 354.699241 163.326078 
L 354.860757 163.019322 
L 355.183788 163.223826 
L 355.50682 162.91707 
L 355.668335 163.326078 
L 355.991367 162.91707 
L 356.152883 163.42833 
L 356.475914 163.121574 
L 356.63743 163.837339 
L 356.960461 163.121574 
L 357.121977 162.814817 
L 357.445008 163.121574 
L 357.606524 163.735087 
L 357.76804 163.42833 
L 357.929556 162.712565 
L 358.091071 162.712565 
L 358.252587 163.42833 
L 358.575619 163.223826 
L 358.737134 163.326078 
L 359.383197 162.610313 
L 359.544713 162.508061 
L 359.706229 163.42833 
L 359.867745 163.42833 
L 360.190776 163.019322 
L 360.675323 163.632835 
L 360.836839 163.326078 
L 360.998355 163.632835 
L 361.321386 163.326078 
L 361.482902 163.223826 
L 361.644418 163.42833 
L 361.805933 163.939591 
L 361.967449 163.326078 
L 362.128965 163.223826 
L 362.290481 163.42833 
L 362.775028 162.814817 
L 362.936544 161.587792 
L 363.259575 163.326078 
L 363.582607 163.121574 
L 364.067154 163.632835 
L 364.390185 163.121574 
L 364.551701 163.326078 
L 364.713217 163.223826 
L 364.874732 163.326078 
L 365.036248 163.019322 
L 365.197764 163.223826 
L 365.35928 163.837339 
L 365.520795 163.530582 
L 365.682311 163.632835 
L 365.843827 164.246347 
L 366.005343 164.041843 
L 366.166858 164.348599 
L 366.328374 164.348599 
L 366.48989 165.064364 
L 366.651406 164.655356 
L 366.812921 165.064364 
L 367.458984 164.041843 
L 367.6205 164.553104 
L 367.782016 164.450852 
L 367.943532 164.655356 
L 368.105047 164.246347 
L 368.266563 164.144095 
L 368.428079 164.655356 
L 368.589594 164.246347 
L 368.75111 165.268869 
L 369.074142 164.757608 
L 369.397173 165.473373 
L 369.720205 165.064364 
L 369.88172 165.166617 
L 370.043236 165.575625 
L 370.204752 165.371121 
L 370.527783 164.757608 
L 370.689299 165.268869 
L 370.850815 164.757608 
L 371.012331 165.064364 
L 371.173846 164.962112 
L 371.335362 165.371121 
L 371.819909 165.677877 
L 372.142941 165.575625 
L 372.465972 165.677877 
L 372.627488 165.575625 
L 372.789004 165.780129 
L 373.112035 165.677877 
L 373.435067 165.984634 
L 373.919614 166.393642 
L 374.08113 166.80265 
L 374.404161 166.904903 
L 374.727193 167.722919 
L 375.050224 167.620666 
L 375.696287 167.620666 
L 375.857803 168.029678 
L 376.34235 168.131927 
L 376.665381 168.745441 
L 376.826897 168.847694 
L 377.149929 169.563458 
L 377.47296 169.972466 
L 377.634476 169.972466 
L 377.795992 170.279224 
L 378.119023 170.381474 
L 378.280539 170.483727 
L 378.442055 170.892735 
L 378.765086 170.994988 
L 379.249633 172.324265 
L 379.411149 172.426518 
L 379.572665 172.835526 
L 379.73418 173.55129 
L 380.057212 174.062551 
L 380.218728 174.573812 
L 380.380243 174.573812 
L 380.864791 175.800837 
L 381.026306 175.800837 
L 381.349338 176.618856 
L 381.349338 176.618856 
" clip-path="url(#p2118d149c0)" style="fill: none; stroke: #333333; stroke-width: 0.8; stroke-linecap: square"/>
   </g>
   <g id="line2d_16">
    <path d="M 381.349338 153.714378 
L 381.510854 154.123386 
L 381.672369 154.225639 
L 381.833885 154.532394 
L 381.995401 154.532394 
L 382.156917 155.043655 
L 382.318432 154.941403 
L 382.479948 155.043655 
L 382.641464 155.452664 
L 382.80298 155.350411 
L 383.449043 155.657169 
L 383.610558 155.657169 
L 383.772074 155.963925 
L 383.93359 155.963925 
L 384.902684 157.190949 
L 385.0642 157.190949 
L 385.225716 157.497708 
L 385.387231 157.293202 
L 385.710263 157.395455 
L 385.871779 157.70221 
L 386.19481 157.599958 
L 386.840873 158.111219 
L 387.002389 158.62248 
L 387.163905 158.315724 
L 387.32542 158.724732 
L 387.648452 158.724732 
L 387.809967 159.031488 
L 388.132999 158.929235 
L 388.294515 159.133741 
L 388.45603 158.724732 
L 388.779062 159.133741 
L 388.940578 159.031488 
L 389.263609 159.133741 
L 389.425125 159.133741 
L 389.748156 159.645001 
L 390.394219 159.747253 
L 390.555735 159.951758 
L 391.040282 159.542749 
L 391.201798 159.849505 
L 391.363314 159.645001 
L 391.686345 159.951758 
L 391.847861 159.747253 
L 392.009377 159.747253 
L 392.170892 160.05401 
L 392.332408 159.951758 
L 392.65544 160.258514 
L 392.816955 160.258514 
L 392.978471 160.463018 
L 393.139987 160.258514 
L 393.301503 160.463018 
L 393.947566 160.156262 
L 394.109081 160.258514 
L 394.593629 160.05401 
L 395.239691 160.769775 
L 395.562723 161.076531 
L 395.724239 160.872027 
L 395.885754 161.178783 
L 396.208786 161.076531 
L 396.370302 160.872027 
L 396.531817 161.076531 
L 396.854849 160.769775 
L 397.016365 160.872027 
L 397.339396 160.769775 
L 397.500912 161.178783 
L 397.662428 161.076531 
L 397.823943 161.178783 
L 397.985459 161.48554 
L 398.146975 161.48554 
L 398.308491 161.690044 
L 398.470006 161.48554 
L 399.116069 161.48554 
L 399.277585 161.178783 
L 399.439101 161.281035 
L 399.600616 161.076531 
L 399.762132 161.281035 
L 399.923648 161.076531 
L 400.246679 161.48554 
L 400.408195 161.076531 
L 400.569711 161.587792 
L 401.215774 161.690044 
L 401.538805 161.9968 
L 401.700321 161.690044 
L 401.861837 161.690044 
L 402.023353 161.894548 
L 402.184868 161.690044 
L 402.346384 161.792296 
L 402.669415 161.690044 
L 402.830931 161.894548 
L 403.476994 161.9968 
L 403.63851 162.405809 
L 404.284573 162.099052 
L 404.446089 162.201305 
L 404.607604 161.9968 
L 405.253667 161.894548 
L 405.415183 161.690044 
L 405.576699 162.099052 
L 405.89973 161.894548 
L 406.061246 162.201305 
L 406.222762 162.099052 
L 406.384277 162.303557 
L 407.03034 161.894548 
L 407.191856 162.099052 
L 407.514888 161.690044 
L 407.837919 161.690044 
L 408.160951 161.9968 
L 408.483982 162.099052 
L 408.645498 162.303557 
L 408.968529 162.201305 
L 409.291561 162.303557 
L 409.453077 162.405809 
L 409.614592 161.9968 
L 409.937624 162.201305 
L 410.099139 161.894548 
L 410.583687 162.201305 
L 410.745202 161.792296 
L 411.714297 162.405809 
L 411.875813 162.201305 
L 412.037328 162.303557 
L 412.521876 162.099052 
L 412.683391 161.690044 
L 412.844907 161.894548 
L 413.006423 161.894548 
L 413.167939 161.690044 
L 413.329454 161.894548 
L 413.652486 161.48554 
L 413.814001 161.894548 
L 414.137033 161.9968 
L 414.298549 161.894548 
L 414.460064 162.099052 
L 414.783096 161.9968 
L 415.106127 161.690044 
L 415.267643 161.894548 
L 415.429159 161.587792 
L 416.075222 161.690044 
L 416.236738 161.894548 
L 416.398253 161.690044 
L 416.721285 161.9968 
L 417.044316 162.201305 
L 417.205832 161.9968 
L 417.528863 162.099052 
L 418.013411 161.894548 
L 418.336442 161.9968 
L 418.497958 161.690044 
L 418.982505 161.894548 
L 419.144021 161.792296 
L 419.305537 161.9968 
L 419.467052 161.792296 
L 419.628568 161.9968 
L 419.790084 161.894548 
L 419.9516 162.303557 
L 420.274631 162.099052 
L 420.597663 162.303557 
L 420.920694 161.9968 
L 421.243726 161.894548 
L 421.889788 161.9968 
L 422.535851 162.405809 
L 422.697367 162.201305 
L 423.020399 162.508061 
L 423.34343 162.099052 
L 423.504946 162.201305 
L 423.827977 161.894548 
L 424.151009 161.690044 
L 424.312525 161.9968 
L 424.635556 161.792296 
L 424.958588 162.303557 
L 425.281619 161.9968 
L 425.443135 162.201305 
L 425.927682 162.201305 
L 426.089198 161.894548 
L 426.250713 161.9968 
L 426.573745 161.792296 
L 426.896776 161.9968 
L 427.058292 161.894548 
L 428.027387 162.405809 
L 428.188902 162.405809 
L 428.350418 162.099052 
L 428.67345 162.201305 
L 428.996481 161.9968 
L 429.319512 162.099052 
L 429.481028 162.099052 
L 429.642544 161.894548 
L 430.127091 162.303557 
L 430.288607 162.099052 
L 430.611638 162.508061 
L 430.773154 162.405809 
L 430.93467 162.508061 
L 431.257701 162.201305 
L 431.419217 162.405809 
L 431.580733 162.405809 
L 431.742249 162.099052 
L 431.903764 162.201305 
L 432.226796 161.9968 
L 432.388312 162.201305 
L 432.711343 162.201305 
L 432.872859 162.405809 
L 433.034374 162.405809 
L 433.357406 162.712565 
L 434.003469 162.405809 
L 434.3265 162.508061 
L 434.488016 162.405809 
L 434.649532 162.099052 
L 434.811048 162.405809 
L 434.972563 162.303557 
L 435.618626 162.712565 
L 435.780142 162.610313 
L 436.103174 162.814817 
L 436.264689 162.712565 
L 436.426205 162.814817 
L 436.587721 162.610313 
L 436.749236 162.814817 
L 436.910752 162.405809 
L 437.718331 162.508061 
L 438.202878 162.712565 
L 438.52591 162.712565 
L 438.687425 162.91707 
L 439.495004 162.814817 
L 440.141067 162.508061 
L 440.464098 162.610313 
L 440.625614 162.814817 
L 440.78713 162.508061 
L 441.110161 162.91707 
L 441.271677 162.814817 
L 441.756224 163.223826 
L 441.91774 162.91707 
L 442.079256 163.019322 
L 442.240772 162.712565 
L 442.402287 162.814817 
L 442.725319 162.508061 
L 442.886835 162.610313 
L 443.04835 162.508061 
L 443.209866 162.814817 
L 443.371382 162.610313 
L 443.532898 162.610313 
L 443.694413 162.814817 
L 444.340476 162.814817 
L 444.501992 162.610313 
L 444.663508 162.712565 
L 444.986539 162.405809 
L 445.148055 162.610313 
L 445.309571 162.405809 
L 445.471086 162.610313 
L 445.632602 162.508061 
L 445.794118 162.201305 
L 446.117149 162.508061 
L 446.601697 162.508061 
L 446.763212 162.712565 
L 446.924728 162.610313 
L 447.086244 162.814817 
L 447.893822 162.405809 
L 448.862917 162.508061 
L 449.185948 162.610313 
L 449.347464 162.508061 
L 449.50898 162.91707 
L 449.670496 162.712565 
L 449.832011 162.814817 
L 450.316559 162.508061 
L 450.478074 162.610313 
L 450.63959 162.201305 
L 450.801106 162.405809 
L 451.124137 162.303557 
L 451.285653 162.303557 
L 451.447169 162.508061 
L 451.608684 162.405809 
L 451.7702 162.712565 
L 451.931716 162.508061 
L 452.254747 162.91707 
L 452.739295 162.712565 
L 452.90081 162.814817 
L 453.708389 162.405809 
L 453.869905 162.508061 
L 454.031421 162.405809 
L 454.354452 162.712565 
L 455.000515 162.712565 
L 455.162031 163.121574 
L 455.485062 162.814817 
L 456.131125 162.405809 
L 456.292641 162.508061 
L 456.454157 162.303557 
L 457.584767 162.91707 
L 458.069314 162.814817 
L 458.553861 162.610313 
L 459.038409 162.610313 
L 459.199924 162.405809 
L 459.36144 162.712565 
L 459.845987 162.712565 
L 460.007503 162.91707 
L 460.169019 162.814817 
L 460.330534 162.91707 
L 460.49205 162.814817 
L 460.653566 163.019322 
L 460.815082 162.814817 
L 460.976597 162.91707 
L 461.299629 162.610313 
L 461.784176 162.508061 
L 461.945692 162.405809 
L 462.107208 162.610313 
L 462.268723 162.610313 
L 462.430239 162.814817 
L 462.753271 162.712565 
L 463.237818 162.91707 
L 463.399333 162.712565 
L 464.206912 162.712565 
L 464.529944 162.405809 
L 464.852975 162.405809 
L 465.176007 162.91707 
L 465.337522 162.712565 
L 465.82207 162.91707 
L 466.306617 162.91707 
L 466.468133 162.712565 
L 466.95268 162.712565 
L 467.114195 162.508061 
L 467.275711 162.610313 
L 467.437227 162.508061 
L 467.598743 163.019322 
L 467.760258 162.814817 
L 467.921774 163.019322 
L 469.052384 163.121574 
L 469.2139 162.814817 
L 469.375416 163.019322 
L 469.698447 162.814817 
L 470.182995 163.019322 
L 470.506026 163.019322 
L 470.667542 163.223826 
L 470.829057 163.223826 
L 470.990573 163.530582 
L 471.152089 163.326078 
L 471.313605 163.42833 
L 472.121183 163.019322 
L 472.282699 163.121574 
L 472.444215 162.814817 
L 472.605731 163.019322 
L 473.090278 163.121574 
L 473.574825 163.326078 
L 474.220888 163.223826 
L 474.382404 163.019322 
L 474.705435 163.121574 
L 475.028467 163.019322 
L 475.513014 162.712565 
L 475.67453 163.121574 
L 475.836045 162.91707 
L 475.997561 163.223826 
L 476.320593 163.326078 
L 476.643624 163.530582 
L 477.128171 163.326078 
L 477.289687 163.326078 
L 477.451203 163.121574 
L 477.612719 163.223826 
L 477.93575 163.121574 
L 478.420297 163.223826 
L 478.743329 163.632835 
L 479.550907 163.530582 
L 479.712423 163.223826 
L 480.19697 163.121574 
L 480.520002 163.019322 
L 480.843033 162.91707 
L 481.004549 162.814817 
L 481.166065 163.121574 
L 481.650612 163.121574 
L 481.812128 163.326078 
L 481.973643 163.326078 
L 482.135159 163.530582 
L 482.296675 163.223826 
L 482.458191 163.223826 
L 482.619706 163.019322 
L 482.781222 163.019322 
L 482.942738 162.814817 
L 483.104254 162.91707 
L 483.265769 162.814817 
L 483.427285 163.019322 
L 484.073348 163.121574 
L 484.39638 163.530582 
L 484.719411 163.42833 
L 485.203958 163.42833 
L 485.365474 163.121574 
L 485.688505 163.019322 
L 485.850021 163.326078 
L 486.011537 163.121574 
L 486.6576 163.121574 
L 486.819116 163.326078 
L 486.980631 163.223826 
L 487.303663 163.530582 
L 487.465179 163.632835 
L 487.78821 163.223826 
L 487.949726 163.632835 
L 488.111242 163.019322 
L 488.272757 163.019322 
L 488.434273 163.326078 
L 488.595789 163.121574 
L 489.080336 163.326078 
L 489.403367 163.42833 
L 489.726399 163.837339 
L 491.018525 163.735087 
L 491.503072 163.530582 
L 491.826104 163.632835 
L 492.149135 163.939591 
L 492.310651 164.041843 
L 492.472167 163.939591 
L 492.795198 164.348599 
L 493.279745 164.144095 
L 494.410355 164.246347 
L 495.056418 164.962112 
L 495.217934 164.85986 
L 495.702481 165.166617 
L 496.187029 164.85986 
L 496.348544 165.064364 
L 496.51006 164.757608 
L 497.156123 164.757608 
L 497.479154 165.166617 
L 498.286733 165.677877 
L 498.448249 165.473373 
L 499.578859 165.575625 
L 499.740375 165.677877 
L 500.063406 166.189139 
L 500.224922 166.291389 
L 500.386438 166.189139 
L 500.709469 166.598147 
L 500.870985 166.598147 
L 501.032501 166.80265 
L 501.194016 166.80265 
L 501.355532 167.007156 
L 501.517048 166.80265 
L 501.678564 167.007156 
L 502.001595 167.007156 
L 502.324627 167.313911 
L 502.486142 167.313911 
L 502.647658 167.620666 
L 502.809174 167.620666 
L 503.293721 168.336433 
L 503.455237 168.438686 
L 503.616753 168.745441 
L 503.778268 168.745441 
L 503.939784 168.949947 
L 504.1013 168.745441 
L 504.424331 168.847694 
L 504.585847 169.052197 
L 504.747363 168.949947 
L 505.23191 169.358955 
L 505.393426 169.767963 
L 505.877973 170.176972 
L 506.039489 170.58598 
L 506.685552 170.994988 
L 506.847067 170.892735 
L 507.008583 171.301743 
L 507.170099 171.403996 
L 507.331615 171.301743 
L 507.977678 172.222013 
L 509.108288 174.164804 
L 509.269803 174.36931 
L 509.431319 174.267057 
L 510.400414 175.596334 
L 511.207992 177.436873 
L 511.531024 177.845881 
L 512.177087 179.686419 
L 512.338602 179.890922 
L 512.984665 181.526958 
L 513.146181 181.629211 
L 513.469213 182.753982 
L 514.115276 184.185513 
L 514.599823 185.310285 
L 514.761339 185.412537 
L 515.568917 187.150823 
L 516.376496 189.809378 
L 516.538012 190.627397 
L 516.699527 190.729647 
L 517.022559 191.752169 
L 517.184075 191.854422 
L 517.507106 192.365683 
L 517.668622 192.26343 
L 517.830138 192.672438 
L 517.991653 192.365683 
L 518.476201 192.570186 
L 518.799232 192.570186 
L 518.960748 192.876944 
L 520.252874 190.525145 
L 520.737421 188.275598 
L 521.060452 187.253076 
L 521.545 186.128304 
L 521.706515 185.719293 
L 522.191063 181.73146 
L 522.998641 174.98282 
L 523.321673 167.109408 
L 524.129251 140.012589 
L 524.452283 133.672957 
L 524.775314 130.912146 
L 524.93683 130.503128 
L 525.098346 130.809884 
L 525.421377 132.650435 
L 527.036535 145.431955 
L 527.359566 146.761232 
L 527.682598 146.965735 
L 528.005629 146.658979 
L 528.328661 145.73871 
L 529.459271 141.648625 
L 529.782302 141.239617 
L 529.943818 141.341866 
L 530.26685 141.035111 
L 530.751397 141.341866 
L 530.912912 141.239617 
L 531.074428 141.341866 
L 531.235944 141.750878 
L 531.39746 141.853127 
L 531.558975 141.750878 
L 532.043523 142.568894 
L 532.205038 142.568894 
L 532.366554 142.773397 
L 532.689586 143.591416 
L 533.012617 143.693666 
L 533.174133 143.898172 
L 533.335649 143.795919 
L 533.65868 144.000425 
L 533.820196 143.898172 
L 533.981712 144.102677 
L 534.143227 144.000425 
L 534.304743 144.102677 
L 534.466259 144.409433 
L 534.78929 144.409433 
L 535.273837 145.431955 
L 535.596869 145.840963 
L 535.758385 145.840963 
L 535.9199 146.352224 
L 536.081416 146.454474 
L 536.404448 146.965735 
L 536.565963 146.965735 
L 537.696574 148.499518 
L 538.504152 149.828795 
L 539.150215 150.340056 
L 539.311731 150.544562 
L 539.473247 150.442309 
L 539.957794 151.260326 
L 540.11931 151.260326 
L 540.280825 151.669334 
L 540.603857 151.976092 
L 540.765373 152.48735 
L 542.38053 153.509872 
L 542.542046 153.407619 
L 542.703561 153.816631 
L 543.026593 154.021133 
L 543.188109 154.532394 
L 543.834172 154.83915 
L 544.157203 155.554916 
L 544.64175 155.350411 
L 544.964782 155.657169 
L 545.126298 155.452664 
L 545.287813 155.861672 
L 545.449329 155.759419 
L 545.610845 156.27068 
L 546.256908 156.781941 
L 546.418423 156.986447 
L 546.579939 156.986447 
L 546.741455 157.395455 
L 546.902971 157.190949 
L 547.064486 157.293202 
L 547.226002 157.190949 
L 549.164191 158.520227 
L 549.325707 158.724732 
L 549.487223 158.520227 
L 550.133285 158.929235 
L 550.294801 158.62248 
L 550.617833 158.62248 
L 550.779348 158.826985 
L 550.940864 158.724732 
L 551.425411 159.235993 
L 552.717537 159.235993 
L 552.879053 159.031488 
L 553.040569 159.133741 
L 553.202085 159.031488 
L 554.655726 159.849505 
L 554.817242 159.849505 
L 554.978758 159.645001 
L 555.140273 159.645001 
L 555.301789 159.849505 
L 555.947852 159.542749 
L 556.109368 159.849505 
L 556.270884 159.747253 
L 556.432399 160.05401 
L 556.593915 159.951758 
L 556.916947 160.258514 
L 557.239978 160.156262 
L 557.401494 160.360766 
L 557.563009 160.258514 
L 557.724525 160.463018 
L 558.047557 160.258514 
L 558.209072 160.360766 
L 558.370588 160.258514 
L 558.532104 160.360766 
L 558.855135 160.258514 
L 559.016651 160.463018 
L 559.178167 160.360766 
L 559.339683 160.769775 
L 559.662714 160.667522 
L 559.985746 160.974279 
L 560.147261 161.076531 
L 560.470293 160.769775 
L 560.631809 160.974279 
L 560.793324 160.360766 
L 561.116356 160.565271 
L 561.277871 160.360766 
L 561.923934 160.872027 
L 562.08545 160.667522 
L 562.246966 161.076531 
L 562.731513 161.178783 
L 563.054545 161.281035 
L 563.21606 161.281035 
L 563.377576 160.974279 
L 563.862123 161.076531 
L 564.023639 160.769775 
L 564.185155 161.178783 
L 564.346671 160.974279 
L 564.508186 161.076531 
L 564.669702 161.383288 
L 564.992733 161.48554 
L 565.315765 161.587792 
L 565.477281 161.383288 
L 565.800312 161.48554 
L 566.123344 161.076531 
L 566.446375 161.281035 
L 566.607891 160.974279 
L 566.769407 161.281035 
L 567.092438 160.872027 
L 567.41547 161.383288 
L 567.576985 161.281035 
L 567.738501 161.383288 
L 567.900017 161.281035 
L 568.061533 161.587792 
L 568.223048 161.587792 
L 568.54608 161.178783 
L 568.707595 161.281035 
L 568.869111 161.076531 
L 569.030627 161.281035 
L 569.353658 160.974279 
L 569.838206 161.48554 
L 569.999721 161.383288 
L 570.645784 161.690044 
L 570.8073 161.587792 
L 570.968816 161.792296 
L 571.453363 161.281035 
L 572.745489 161.281035 
L 572.907005 161.48554 
L 573.230036 161.281035 
L 573.714583 161.48554 
L 574.199131 160.974279 
L 574.360646 161.076531 
L 574.522162 160.769775 
L 574.683678 160.872027 
L 575.006709 160.667522 
L 575.168225 160.872027 
L 575.329741 161.281035 
L 575.652772 160.974279 
L 575.814288 161.281035 
L 576.298835 161.076531 
L 576.621867 161.281035 
L 576.944898 160.872027 
L 577.106414 160.872027 
L 577.26793 161.076531 
L 577.752477 160.872027 
L 578.075508 160.974279 
L 578.237024 161.383288 
L 578.721571 161.076531 
L 578.883087 161.178783 
L 579.044603 161.587792 
L 579.367634 161.178783 
L 579.52915 161.178783 
L 579.690666 160.974279 
L 579.852182 161.281035 
L 580.013697 161.178783 
L 580.175213 160.769775 
L 580.336729 160.974279 
L 580.65976 161.076531 
L 580.982792 161.383288 
L 581.144307 161.076531 
L 581.305823 161.383288 
L 581.467339 161.076531 
L 581.628855 161.48554 
L 581.951886 161.281035 
L 582.113402 161.587792 
L 582.436433 161.076531 
L 582.597949 161.178783 
L 582.759465 161.48554 
L 582.920981 161.383288 
L 583.244012 161.48554 
L 583.405528 161.178783 
L 583.728559 161.48554 
L 583.890075 161.48554 
L 584.051591 161.9968 
L 584.213106 161.281035 
L 584.374622 161.281035 
L 584.697654 161.587792 
L 584.859169 160.974279 
L 585.020685 160.974279 
L 585.182201 161.178783 
L 585.343717 161.076531 
L 585.505232 161.281035 
L 585.828264 160.769775 
L 585.98978 160.974279 
L 586.151295 160.974279 
L 586.474327 161.587792 
L 586.635843 161.383288 
L 586.797358 162.201305 
L 586.958874 161.178783 
L 587.281906 161.076531 
L 587.443421 161.792296 
L 587.604937 161.48554 
L 587.766453 160.769775 
L 587.927968 160.974279 
L 588.089484 162.099052 
L 588.251 161.178783 
L 588.412516 161.383288 
L 588.574031 160.463018 
L 588.735547 161.076531 
L 588.897063 161.178783 
L 589.058579 161.48554 
L 589.220094 161.281035 
L 589.38161 161.281035 
L 589.543126 161.792296 
L 589.704642 161.587792 
L 589.866157 161.690044 
L 590.51222 161.281035 
L 590.835252 160.565271 
L 590.996768 161.076531 
L 591.158283 161.076531 
L 591.319799 161.383288 
L 591.481315 160.872027 
L 591.965862 161.587792 
L 592.127378 161.792296 
L 592.288893 161.48554 
L 592.450409 161.9968 
L 592.773441 161.792296 
L 592.934956 161.383288 
L 593.096472 161.281035 
L 593.257988 161.48554 
L 593.581019 161.076531 
L 593.742535 161.178783 
L 593.904051 161.076531 
L 594.227082 161.690044 
L 594.388598 161.48554 
L 594.550114 161.894548 
L 594.71163 161.076531 
L 594.873145 161.383288 
L 595.034661 161.076531 
L 595.196177 162.712565 
L 595.357692 162.099052 
L 595.680724 162.099052 
L 595.84224 161.383288 
L 596.165271 161.281035 
L 596.326787 161.9968 
L 596.488303 161.076531 
L 596.649818 162.099052 
L 596.811334 160.974279 
L 596.97285 161.48554 
L 597.134366 162.405809 
L 597.295881 161.894548 
L 597.457397 161.894548 
L 597.780429 162.201305 
L 597.941944 161.587792 
L 598.10346 161.792296 
L 598.264976 162.303557 
L 598.426492 161.587792 
L 598.911039 161.383288 
L 599.072554 161.587792 
L 599.23407 161.48554 
L 599.395586 161.894548 
L 599.718617 162.099052 
L 600.041649 161.9968 
L 600.203165 162.508061 
L 600.526196 162.201305 
L 600.687712 162.405809 
L 600.849228 162.201305 
L 601.172259 162.099052 
L 601.333775 161.894548 
L 601.495291 161.9968 
L 601.818322 161.792296 
L 602.464385 162.099052 
L 603.110448 162.201305 
L 603.271964 162.405809 
L 603.594995 161.587792 
L 603.918027 161.894548 
L 604.079542 161.690044 
L 604.241058 161.894548 
L 604.402574 161.690044 
L 604.725605 161.587792 
L 604.887121 161.894548 
L 606.663794 161.894548 
L 606.82531 161.587792 
L 607.148341 161.792296 
L 607.309857 161.587792 
L 607.471373 161.894548 
L 607.794404 161.792296 
L 608.440467 162.099052 
L 608.763499 161.9968 
L 608.925015 161.9968 
L 609.08653 161.792296 
L 609.248046 161.894548 
L 609.409562 161.690044 
L 610.378656 161.587792 
L 610.540172 161.9968 
L 610.701688 161.792296 
L 611.024719 161.9968 
L 611.186235 161.894548 
L 611.347751 161.9968 
L 611.509266 161.894548 
L 611.670782 161.587792 
L 611.832298 161.792296 
L 611.993814 161.690044 
L 612.155329 161.383288 
L 612.316845 161.690044 
L 612.478361 161.48554 
L 612.639877 161.48554 
L 612.801392 161.690044 
L 613.124424 161.792296 
L 613.447455 161.9968 
L 613.608971 161.894548 
L 613.770487 162.303557 
L 613.932003 161.894548 
L 614.255034 161.9968 
L 614.901097 161.894548 
L 615.062613 161.690044 
L 615.385644 161.792296 
L 615.708676 161.894548 
L 615.870191 162.099052 
L 616.031707 161.9968 
L 616.354739 162.201305 
L 616.516254 162.099052 
L 616.67777 162.201305 
L 617.000802 161.9968 
L 617.162317 162.099052 
L 617.485349 161.9968 
L 617.646865 161.9968 
L 617.80838 161.792296 
L 617.969896 161.894548 
L 618.131412 161.690044 
L 618.454443 161.792296 
L 619.262022 162.201305 
L 619.423538 162.201305 
L 619.585053 161.9968 
L 619.746569 161.9968 
L 619.908085 161.792296 
L 620.069601 161.9968 
L 620.231116 161.690044 
L 620.554148 161.792296 
L 620.877179 161.48554 
L 621.038695 161.792296 
L 621.361727 161.894548 
L 621.523242 162.201305 
L 621.684758 161.9968 
L 621.846274 162.201305 
L 622.007789 161.9968 
L 622.653852 161.894548 
L 622.815368 161.690044 
L 622.976884 161.792296 
L 623.1384 161.587792 
L 623.299915 161.690044 
L 623.461431 161.587792 
L 624.26901 161.9968 
L 624.592041 161.894548 
L 624.915073 162.201305 
L 625.076589 161.9968 
L 625.238104 161.9968 
L 625.39962 161.792296 
L 626.53023 161.690044 
L 626.691746 161.9968 
L 627.176293 162.099052 
L 627.337809 162.201305 
L 627.499325 162.099052 
L 627.822356 162.201305 
L 627.983872 161.9968 
L 628.145388 161.9968 
L 628.306903 161.690044 
L 628.468419 161.9968 
L 628.629935 161.9968 
L 628.791451 161.792296 
L 629.599029 162.201305 
L 629.760545 162.610313 
L 629.922061 162.610313 
L 630.245092 162.201305 
L 630.406608 162.405809 
L 630.729639 162.303557 
L 630.891155 162.303557 
L 631.214187 161.9968 
L 632.344797 162.610313 
L 633.313891 162.610313 
L 633.636923 162.201305 
L 633.798438 162.099052 
L 634.12147 162.303557 
L 634.282986 161.9968 
L 634.444501 162.201305 
L 634.767533 162.099052 
L 635.090564 162.405809 
L 635.413596 162.303557 
L 635.898143 162.508061 
L 636.059659 162.099052 
L 636.221175 162.303557 
L 636.38269 161.9968 
L 636.544206 162.201305 
L 636.705722 161.894548 
L 637.190269 162.405809 
L 637.351785 162.508061 
L 637.5133 162.303557 
L 637.674816 162.303557 
L 637.836332 162.508061 
L 639.451489 162.405809 
L 639.936037 162.201305 
L 640.097552 162.303557 
L 640.420584 162.712565 
L 640.582099 162.405809 
L 640.743615 162.814817 
L 640.905131 162.405809 
L 641.066647 162.712565 
L 641.389678 162.405809 
L 641.551194 161.9968 
L 641.71271 162.303557 
L 642.197257 161.9968 
L 642.358773 162.201305 
L 642.520288 162.201305 
L 642.681804 162.508061 
L 642.84332 162.201305 
L 643.166351 162.303557 
L 643.327867 162.712565 
L 643.650899 162.201305 
L 643.812414 162.508061 
L 644.619993 161.9968 
L 645.10454 162.405809 
L 645.266056 162.610313 
L 645.427572 162.303557 
L 645.589087 162.508061 
L 645.750603 162.91707 
L 645.912119 162.610313 
L 646.23515 162.814817 
L 646.396666 162.712565 
L 646.558182 162.814817 
L 647.204245 162.303557 
L 647.527276 162.610313 
L 647.850308 162.405809 
L 648.011823 162.712565 
L 648.496371 162.814817 
L 648.657886 163.019322 
L 648.980918 163.019322 
L 649.142434 162.814817 
L 649.303949 162.814817 
L 649.465465 163.121574 
L 650.111528 162.712565 
L 650.273044 162.91707 
L 650.43456 162.712565 
L 650.596075 162.712565 
L 650.757591 163.121574 
L 651.080623 163.223826 
L 651.242138 163.223826 
L 651.403654 163.530582 
L 651.56517 163.326078 
L 651.726686 163.530582 
L 651.888201 163.326078 
L 652.211233 163.42833 
L 652.372748 163.121574 
L 652.534264 163.121574 
L 652.69578 163.326078 
L 652.857296 163.223826 
L 653.018811 163.326078 
L 653.180327 163.223826 
L 653.664874 163.735087 
L 653.987906 163.632835 
L 654.633969 163.939591 
L 654.795485 163.735087 
L 654.957 163.837339 
L 655.280032 163.735087 
L 655.603063 163.837339 
L 655.926095 164.144095 
L 656.249126 164.041843 
L 656.410642 164.348599 
L 656.733673 164.450852 
L 656.895189 164.553104 
L 657.056705 164.246347 
L 657.218221 164.450852 
L 657.541252 164.553104 
L 657.702768 164.246347 
L 657.864284 164.655356 
L 658.025799 164.450852 
L 658.187315 164.553104 
L 658.510347 164.450852 
L 659.479441 165.166617 
L 659.802472 165.473373 
L 659.963988 165.166617 
L 660.28702 165.371121 
L 660.448535 165.166617 
L 660.771567 165.575625 
L 660.933083 165.575625 
L 661.094598 165.371121 
L 661.41763 165.780129 
L 661.579146 165.780129 
L 661.902177 166.291389 
L 663.032787 166.904903 
L 663.194303 166.904903 
L 663.355819 167.109408 
L 663.67885 166.904903 
L 664.163397 167.620666 
L 664.486429 167.927425 
L 665.132492 168.949947 
L 665.294008 168.847694 
L 665.455523 169.052197 
L 665.617039 168.847694 
L 666.101586 169.256702 
L 666.263102 169.052197 
L 668.201291 171.506249 
L 668.362807 171.301743 
L 668.524322 171.403996 
L 668.847354 172.119763 
L 669.00887 172.01751 
L 669.331901 172.426518 
L 669.493417 172.937779 
L 669.654933 173.040032 
L 669.977964 173.755796 
L 670.13948 173.960298 
L 670.300996 174.573812 
L 670.462511 174.676065 
L 670.624027 175.187326 
L 670.785543 175.187326 
L 670.947058 175.391829 
L 671.108574 175.800837 
L 671.593121 176.209848 
L 671.754637 176.414351 
L 673.53131 180.708941 
L 673.692826 181.015697 
L 673.854342 181.015697 
L 674.338889 182.140469 
L 674.500405 182.344974 
L 675.146468 184.185513 
L 676.600109 188.582353 
L 676.923141 189.40037 
L 677.569204 191.036406 
L 677.73072 191.138655 
L 677.892235 191.649916 
L 678.053751 191.649916 
L 678.376782 192.058925 
L 678.538298 191.956675 
L 678.699814 192.161177 
L 679.022845 191.649916 
L 679.184361 191.752169 
L 679.345877 191.445414 
L 679.830424 191.343161 
L 680.153456 191.036406 
L 680.314971 190.8319 
L 680.638003 190.116136 
L 680.799519 190.013884 
L 681.12255 189.29812 
L 681.768613 186.639562 
L 682.25316 185.310285 
L 682.576192 183.469746 
L 683.545286 175.289579 
L 683.706802 173.653543 
L 684.029833 165.473373 
L 684.837412 138.581059 
L 685.160444 132.95719 
L 685.483475 130.605391 
L 685.644991 130.400898 
L 685.806506 130.912146 
L 686.452569 136.12701 
L 687.098632 141.444119 
L 687.58318 144.613935 
L 688.229243 146.658979 
L 688.552274 146.352224 
L 689.198337 144.920694 
L 689.8444 142.466641 
L 690.328947 140.932858 
L 690.651979 140.728356 
L 690.813494 140.421597 
L 690.97501 140.626103 
L 691.298042 140.728356 
L 691.621073 141.035111 
L 692.10562 141.648625 
L 692.267136 141.546372 
L 692.590168 141.95538 
L 692.913199 142.159886 
L 693.074715 142.466641 
L 693.236231 142.466641 
L 693.397746 142.773397 
L 693.559262 142.671147 
L 693.720778 142.977902 
L 693.882293 142.977902 
L 694.043809 143.489163 
L 694.528356 143.898172 
L 694.851388 144.30718 
L 695.012904 144.102677 
L 695.335935 144.204927 
L 695.497451 144.511686 
L 695.658967 144.409433 
L 695.981998 144.613935 
L 696.30503 145.329702 
L 696.789577 146.045466 
L 696.951093 146.454474 
L 697.274124 146.761232 
L 697.920187 147.783754 
L 698.243218 147.988257 
L 698.56625 148.397265 
L 699.050797 149.010779 
L 699.212313 149.419787 
L 699.535344 149.726542 
L 699.69686 150.135551 
L 700.019892 150.442309 
L 700.181407 150.646812 
L 700.342923 150.646812 
L 700.504439 151.055823 
L 700.665955 150.851317 
L 701.312017 151.567081 
L 701.473533 151.567081 
L 702.119596 152.589603 
L 703.088691 153.714378 
L 703.411722 153.714378 
L 703.573238 153.918881 
L 703.896269 154.021133 
L 704.219301 154.123386 
L 704.219301 154.123386 
" clip-path="url(#p2118d149c0)" style="fill: none; stroke: #d94452; stroke-width: 0.8; stroke-linecap: square"/>
   </g>
   <g id="text_17">
    <g id="patch_7">
     <path d="M 161.214356 296.055237 
L 278.614356 296.055237 
Q 281.614356 296.055237 281.614356 293.055237 
L 281.614356 282.455237 
Q 281.614356 279.455237 278.614356 279.455237 
L 161.214356 279.455237 
Q 158.214356 279.455237 158.214356 282.455237 
L 158.214356 293.055237 
Q 158.214356 296.055237 161.214356 296.055237 
z
" style="fill: #ffffff; opacity: 0.85; stroke: #333333; stroke-linejoin: miter"/>
    </g>
    <!-- I$_{p-p}$ = 1.51E-03 mA/m² -->
    <g style="fill: #333333" transform="translate(161.214356 289.955237) scale(0.1 -0.1)">
     <defs>
      <path id="DejaVuSans-49" d="M 628 4666 
L 1259 4666 
L 1259 0 
L 628 0 
L 628 4666 
z
" transform="scale(0.015625)"/>
      <path id="DejaVuSans-Oblique-70" d="M 3175 2156 
Q 3175 2616 2975 2859 
Q 2775 3103 2400 3103 
Q 2144 3103 1911 2972 
Q 1678 2841 1497 2591 
Q 1319 2344 1212 1994 
Q 1106 1644 1106 1300 
Q 1106 863 1306 627 
Q 1506 391 1875 391 
Q 2147 391 2380 519 
Q 2613 647 2778 891 
Q 2956 1147 3065 1494 
Q 3175 1841 3175 2156 
z
M 1394 2969 
Q 1625 3272 1939 3428 
Q 2253 3584 2638 3584 
Q 3175 3584 3472 3232 
Q 3769 2881 3769 2247 
Q 3769 1728 3584 1258 
Q 3400 788 3053 416 
Q 2822 169 2531 39 
Q 2241 -91 1919 -91 
Q 1547 -91 1294 64 
Q 1041 219 916 525 
L 556 -1331 
L -19 -1331 
L 922 3500 
L 1497 3500 
L 1394 2969 
z
" transform="scale(0.015625)"/>
      <path id="DejaVuSans-20" transform="scale(0.015625)"/>
      <path id="DejaVuSans-3d" d="M 678 2906 
L 4684 2906 
L 4684 2381 
L 678 2381 
L 678 2906 
z
M 678 1631 
L 4684 1631 
L 4684 1100 
L 678 1100 
L 678 1631 
z
" transform="scale(0.015625)"/>
      <path id="DejaVuSans-45" d="M 628 4666 
L 3578 4666 
L 3578 4134 
L 1259 4134 
L 1259 2753 
L 3481 2753 
L 3481 2222 
L 1259 2222 
L 1259 531 
L 3634 531 
L 3634 0 
L 628 0 
L 628 4666 
z
" transform="scale(0.015625)"/>
      <path id="DejaVuSans-2d" d="M 313 2009 
L 1997 2009 
L 1997 1497 
L 313 1497 
L 313 2009 
z
" transform="scale(0.015625)"/>
      <path id="DejaVuSans-6d" d="M 3328 2828 
Q 3544 3216 3844 3400 
Q 4144 3584 4550 3584 
Q 5097 3584 5394 3201 
Q 5691 2819 5691 2113 
L 5691 0 
L 5113 0 
L 5113 2094 
Q 5113 2597 4934 2840 
Q 4756 3084 4391 3084 
Q 3944 3084 3684 2787 
Q 3425 2491 3425 1978 
L 3425 0 
L 2847 0 
L 2847 2094 
Q 2847 2600 2669 2842 
Q 2491 3084 2119 3084 
Q 1678 3084 1418 2786 
Q 1159 2488 1159 1978 
L 1159 0 
L 581 0 
L 581 3500 
L 1159 3500 
L 1159 2956 
Q 1356 3278 1631 3431 
Q 1906 3584 2284 3584 
Q 2666 3584 2933 3390 
Q 3200 3197 3328 2828 
z
" transform="scale(0.015625)"/>
      <path id="DejaVuSans-41" d="M 2188 4044 
L 1331 1722 
L 3047 1722 
L 2188 4044 
z
M 1831 4666 
L 2547 4666 
L 4325 0 
L 3669 0 
L 3244 1197 
L 1141 1197 
L 716 0 
L 50 0 
L 1831 4666 
z
" transform="scale(0.015625)"/>
      <path id="DejaVuSans-2f" d="M 1625 4666 
L 2156 4666 
L 531 -594 
L 0 -594 
L 1625 4666 
z
" transform="scale(0.015625)"/>
      <path id="DejaVuSans-b2" d="M 838 2444 
L 2163 2444 
L 2163 2088 
L 294 2088 
L 294 2431 
Q 400 2528 597 2703 
Q 1672 3656 1672 3950 
Q 1672 4156 1509 4282 
Q 1347 4409 1081 4409 
Q 919 4409 728 4354 
Q 538 4300 313 4191 
L 313 4575 
Q 553 4663 761 4706 
Q 969 4750 1147 4750 
Q 1600 4750 1872 4544 
Q 2144 4338 2144 4000 
Q 2144 3566 1109 2678 
Q 934 2528 838 2444 
z
" transform="scale(0.015625)"/>
     </defs>
     <use xlink:href="#DejaVuSans-49" transform="translate(0 0.78125)"/>
     <use xlink:href="#DejaVuSans-Oblique-70" transform="translate(30.449219 -15.625) scale(0.7)"/>
     <use xlink:href="#DejaVuSans-2212" transform="translate(88.520508 -15.625) scale(0.7)"/>
     <use xlink:href="#DejaVuSans-Oblique-70" transform="translate(160.810547 -15.625) scale(0.7)"/>
     <use xlink:href="#DejaVuSans-20" transform="translate(207.978516 0.78125)"/>
     <use xlink:href="#DejaVuSans-3d" transform="translate(239.765625 0.78125)"/>
     <use xlink:href="#DejaVuSans-20" transform="translate(323.554688 0.78125)"/>
     <use xlink:href="#DejaVuSans-31" transform="translate(355.341797 0.78125)"/>
     <use xlink:href="#DejaVuSans-2e" transform="translate(418.964844 0.78125)"/>
     <use xlink:href="#DejaVuSans-35" transform="translate(450.751953 0.78125)"/>
     <use xlink:href="#DejaVuSans-31" transform="translate(514.375 0.78125)"/>
     <use xlink:href="#DejaVuSans-45" transform="translate(577.998047 0.78125)"/>
     <use xlink:href="#DejaVuSans-2d" transform="translate(641.181641 0.78125)"/>
     <use xlink:href="#DejaVuSans-30" transform="translate(677.265625 0.78125)"/>
     <use xlink:href="#DejaVuSans-33" transform="translate(740.888672 0.78125)"/>
     <use xlink:href="#DejaVuSans-20" transform="translate(804.511719 0.78125)"/>
     <use xlink:href="#DejaVuSans-6d" transform="translate(836.298828 0.78125)"/>
     <use xlink:href="#DejaVuSans-41" transform="translate(933.710938 0.78125)"/>
     <use xlink:href="#DejaVuSans-2f" transform="translate(1002.119141 0.78125)"/>
     <use xlink:href="#DejaVuSans-6d" transform="translate(1035.810547 0.78125)"/>
     <use xlink:href="#DejaVuSans-b2" transform="translate(1133.222656 0.78125)"/>
    </g>
   </g>
   <g id="text_18">
    <g id="patch_8">
     <path d="M 484.184319 296.055237 
L 601.384319 296.055237 
Q 604.384319 296.055237 604.384319 293.055237 
L 604.384319 282.455237 
Q 604.384319 279.455237 601.384319 279.455237 
L 484.184319 279.455237 
Q 481.184319 279.455237 481.184319 282.455237 
L 481.184319 293.055237 
Q 481.184319 296.055237 484.184319 296.055237 
z
" style="fill: #ffffff; opacity: 0.85; stroke: #d94452; stroke-linejoin: miter"/>
    </g>
    <!-- I$_{p-p}$ = 4.92E-04 mA/m² -->
    <g style="fill: #d94452" transform="translate(484.184319 289.955237) scale(0.1 -0.1)">
     <defs>
      <path id="DejaVuSans-34" d="M 2419 4116 
L 825 1625 
L 2419 1625 
L 2419 4116 
z
M 2253 4666 
L 3047 4666 
L 3047 1625 
L 3713 1625 
L 3713 1100 
L 3047 1100 
L 3047 0 
L 2419 0 
L 2419 1100 
L 313 1100 
L 313 1709 
L 2253 4666 
z
" transform="scale(0.015625)"/>
      <path id="DejaVuSans-39" d="M 703 97 
L 703 672 
Q 941 559 1184 500 
Q 1428 441 1663 441 
Q 2288 441 2617 861 
Q 2947 1281 2994 2138 
Q 2813 1869 2534 1725 
Q 2256 1581 1919 1581 
Q 1219 1581 811 2004 
Q 403 2428 403 3163 
Q 403 3881 828 4315 
Q 1253 4750 1959 4750 
Q 2769 4750 3195 4129 
Q 3622 3509 3622 2328 
Q 3622 1225 3098 567 
Q 2575 -91 1691 -91 
Q 1453 -91 1209 -44 
Q 966 3 703 97 
z
M 1959 2075 
Q 2384 2075 2632 2365 
Q 2881 2656 2881 3163 
Q 2881 3666 2632 3958 
Q 2384 4250 1959 4250 
Q 1534 4250 1286 3958 
Q 1038 3666 1038 3163 
Q 1038 2656 1286 2365 
Q 1534 2075 1959 2075 
z
" transform="scale(0.015625)"/>
     </defs>
     <use xlink:href="#DejaVuSans-49" transform="translate(0 0.78125)"/>
     <use xlink:href="#DejaVuSans-Oblique-70" transform="translate(30.449219 -15.625) scale(0.7)"/>
     <use xlink:href="#DejaVuSans-2212" transform="translate(88.520508 -15.625) scale(0.7)"/>
     <use xlink:href="#DejaVuSans-Oblique-70" transform="translate(160.810547 -15.625) scale(0.7)"/>
     <use xlink:href="#DejaVuSans-20" transform="translate(207.978516 0.78125)"/>
     <use xlink:href="#DejaVuSans-3d" transform="translate(239.765625 0.78125)"/>
     <use xlink:href="#DejaVuSans-20" transform="translate(323.554688 0.78125)"/>
     <use xlink:href="#DejaVuSans-34" transform="translate(355.341797 0.78125)"/>
     <use xlink:href="#DejaVuSans-2e" transform="translate(418.964844 0.78125)"/>
     <use xlink:href="#DejaVuSans-39" transform="translate(450.751953 0.78125)"/>
     <use xlink:href="#DejaVuSans-32" transform="translate(512.625 0.78125)"/>
     <use xlink:href="#DejaVuSans-45" transform="translate(576.248047 0.78125)"/>
     <use xlink:href="#DejaVuSans-2d" transform="translate(639.431641 0.78125)"/>
     <use xlink:href="#DejaVuSans-30" transform="translate(675.515625 0.78125)"/>
     <use xlink:href="#DejaVuSans-34" transform="translate(739.138672 0.78125)"/>
     <use xlink:href="#DejaVuSans-20" transform="translate(802.761719 0.78125)"/>
     <use xlink:href="#DejaVuSans-6d" transform="translate(834.548828 0.78125)"/>
     <use xlink:href="#DejaVuSans-41" transform="translate(931.960938 0.78125)"/>
     <use xlink:href="#DejaVuSans-2f" transform="translate(1000.369141 0.78125)"/>
     <use xlink:href="#DejaVuSans-6d" transform="translate(1034.060547 0.78125)"/>
     <use xlink:href="#DejaVuSans-b2" transform="translate(1131.472656 0.78125)"/>
    </g>
   </g>
   <g id="text_19">
    <g id="patch_9">
     <path d="M 627.230697 50.0672 
L 684.847103 50.0672 
Q 690.047103 50.0672 690.047103 44.8672 
L 690.047103 32.285638 
Q 690.047103 27.085638 684.847103 27.085638 
L 627.230697 27.085638 
Q 622.030697 27.085638 622.030697 32.285638 
L 622.030697 44.8672 
Q 622.030697 50.0672 627.230697 50.0672 
z
" style="fill: #ffffff; opacity: 0.9; stroke: #4a90d9; stroke-width: 1.5; stroke-linejoin: miter"/>
    </g>
    <!-- f = 1 Hz -->
    <g style="fill: #4a90d9" transform="translate(627.230697 42.163606) scale(0.13 -0.13)">
     <defs>
      <path id="DejaVuSans-Bold-66" d="M 2841 4863 
L 2841 4128 
L 2222 4128 
Q 1984 4128 1890 4042 
Q 1797 3956 1797 3744 
L 1797 3500 
L 2753 3500 
L 2753 2700 
L 1797 2700 
L 1797 0 
L 678 0 
L 678 2700 
L 122 2700 
L 122 3500 
L 678 3500 
L 678 3744 
Q 678 4316 997 4589 
Q 1316 4863 1984 4863 
L 2841 4863 
z
" transform="scale(0.015625)"/>
      <path id="DejaVuSans-Bold-3d" d="M 678 3084 
L 4684 3084 
L 4684 2350 
L 678 2350 
L 678 3084 
z
M 678 1663 
L 4684 1663 
L 4684 922 
L 678 922 
L 678 1663 
z
" transform="scale(0.015625)"/>
      <path id="DejaVuSans-Bold-31" d="M 750 831 
L 1813 831 
L 1813 3847 
L 722 3622 
L 722 4441 
L 1806 4666 
L 2950 4666 
L 2950 831 
L 4013 831 
L 4013 0 
L 750 0 
L 750 831 
z
" transform="scale(0.015625)"/>
      <path id="DejaVuSans-Bold-48" d="M 588 4666 
L 1791 4666 
L 1791 2888 
L 3566 2888 
L 3566 4666 
L 4769 4666 
L 4769 0 
L 3566 0 
L 3566 1978 
L 1791 1978 
L 1791 0 
L 588 0 
L 588 4666 
z
" transform="scale(0.015625)"/>
      <path id="DejaVuSans-Bold-7a" d="M 366 3500 
L 3419 3500 
L 3419 2719 
L 1575 800 
L 3419 800 
L 3419 0 
L 288 0 
L 288 781 
L 2131 2700 
L 366 2700 
L 366 3500 
z
" transform="scale(0.015625)"/>
     </defs>
     <use xlink:href="#DejaVuSans-Bold-66"/>
     <use xlink:href="#DejaVuSans-Bold-20" transform="translate(43.505859 0)"/>
     <use xlink:href="#DejaVuSans-Bold-3d" transform="translate(78.320312 0)"/>
     <use xlink:href="#DejaVuSans-Bold-20" transform="translate(162.109375 0)"/>
     <use xlink:href="#DejaVuSans-Bold-31" transform="translate(196.923828 0)"/>
     <use xlink:href="#DejaVuSans-Bold-20" transform="translate(266.503906 0)"/>
     <use xlink:href="#DejaVuSans-Bold-48" transform="translate(301.318359 0)"/>
     <use xlink:href="#DejaVuSans-Bold-7a" transform="translate(385.009766 0)"/>
    </g>
   </g>
   <g id="text_20">
    <!-- Without MIC -->
    <g style="fill: #333333" transform="translate(171.182325 42.92345) scale(0.14 -0.14)">
     <defs>
      <path id="DejaVuSans-Bold-57" d="M 191 4666 
L 1344 4666 
L 2150 1275 
L 2950 4666 
L 4109 4666 
L 4909 1275 
L 5716 4666 
L 6859 4666 
L 5759 0 
L 4372 0 
L 3525 3547 
L 2688 0 
L 1300 0 
L 191 4666 
z
" transform="scale(0.015625)"/>
      <path id="DejaVuSans-Bold-74" d="M 1759 4494 
L 1759 3500 
L 2913 3500 
L 2913 2700 
L 1759 2700 
L 1759 1216 
Q 1759 972 1856 886 
Q 1953 800 2241 800 
L 2816 800 
L 2816 0 
L 1856 0 
Q 1194 0 917 276 
Q 641 553 641 1216 
L 641 2700 
L 84 2700 
L 84 3500 
L 641 3500 
L 641 4494 
L 1759 4494 
z
" transform="scale(0.015625)"/>
      <path id="DejaVuSans-Bold-68" d="M 4056 2131 
L 4056 0 
L 2931 0 
L 2931 347 
L 2931 1625 
Q 2931 2084 2911 2256 
Q 2891 2428 2841 2509 
Q 2775 2619 2662 2680 
Q 2550 2741 2406 2741 
Q 2056 2741 1856 2470 
Q 1656 2200 1656 1722 
L 1656 0 
L 538 0 
L 538 4863 
L 1656 4863 
L 1656 2988 
Q 1909 3294 2193 3439 
Q 2478 3584 2822 3584 
Q 3428 3584 3742 3212 
Q 4056 2841 4056 2131 
z
" transform="scale(0.015625)"/>
      <path id="DejaVuSans-Bold-6f" d="M 2203 2784 
Q 1831 2784 1636 2517 
Q 1441 2250 1441 1747 
Q 1441 1244 1636 976 
Q 1831 709 2203 709 
Q 2569 709 2762 976 
Q 2956 1244 2956 1747 
Q 2956 2250 2762 2517 
Q 2569 2784 2203 2784 
z
M 2203 3584 
Q 3106 3584 3614 3096 
Q 4122 2609 4122 1747 
Q 4122 884 3614 396 
Q 3106 -91 2203 -91 
Q 1297 -91 786 396 
Q 275 884 275 1747 
Q 275 2609 786 3096 
Q 1297 3584 2203 3584 
z
" transform="scale(0.015625)"/>
      <path id="DejaVuSans-Bold-75" d="M 500 1363 
L 500 3500 
L 1625 3500 
L 1625 3150 
Q 1625 2866 1622 2436 
Q 1619 2006 1619 1863 
Q 1619 1441 1641 1255 
Q 1663 1069 1716 984 
Q 1784 875 1895 815 
Q 2006 756 2150 756 
Q 2500 756 2700 1025 
Q 2900 1294 2900 1772 
L 2900 3500 
L 4019 3500 
L 4019 0 
L 2900 0 
L 2900 506 
Q 2647 200 2364 54 
Q 2081 -91 1741 -91 
Q 1134 -91 817 281 
Q 500 653 500 1363 
z
" transform="scale(0.015625)"/>
      <path id="DejaVuSans-Bold-4d" d="M 588 4666 
L 2119 4666 
L 3181 2169 
L 4250 4666 
L 5778 4666 
L 5778 0 
L 4641 0 
L 4641 3413 
L 3566 897 
L 2803 897 
L 1728 3413 
L 1728 0 
L 588 0 
L 588 4666 
z
" transform="scale(0.015625)"/>
      <path id="DejaVuSans-Bold-43" d="M 4288 256 
Q 3956 84 3597 -3 
Q 3238 -91 2847 -91 
Q 1681 -91 1000 561 
Q 319 1213 319 2328 
Q 319 3447 1000 4098 
Q 1681 4750 2847 4750 
Q 3238 4750 3597 4662 
Q 3956 4575 4288 4403 
L 4288 3438 
Q 3953 3666 3628 3772 
Q 3303 3878 2944 3878 
Q 2300 3878 1931 3465 
Q 1563 3053 1563 2328 
Q 1563 1606 1931 1193 
Q 2300 781 2944 781 
Q 3303 781 3628 887 
Q 3953 994 4288 1222 
L 4288 256 
z
" transform="scale(0.015625)"/>
     </defs>
     <use xlink:href="#DejaVuSans-Bold-57"/>
     <use xlink:href="#DejaVuSans-Bold-69" transform="translate(110.302734 0)"/>
     <use xlink:href="#DejaVuSans-Bold-74" transform="translate(144.580078 0)"/>
     <use xlink:href="#DejaVuSans-Bold-68" transform="translate(192.382812 0)"/>
     <use xlink:href="#DejaVuSans-Bold-6f" transform="translate(263.574219 0)"/>
     <use xlink:href="#DejaVuSans-Bold-75" transform="translate(332.275391 0)"/>
     <use xlink:href="#DejaVuSans-Bold-74" transform="translate(403.466797 0)"/>
     <use xlink:href="#DejaVuSans-Bold-20" transform="translate(451.269531 0)"/>
     <use xlink:href="#DejaVuSans-Bold-4d" transform="translate(486.083984 0)"/>
     <use xlink:href="#DejaVuSans-Bold-49" transform="translate(585.595703 0)"/>
     <use xlink:href="#DejaVuSans-Bold-43" transform="translate(622.802734 0)"/>
    </g>
   </g>
   <g id="text_21">
    <!-- With MIC -->
    <g style="fill: #d94452" transform="translate(507.190413 42.92345) scale(0.14 -0.14)">
     <use xlink:href="#DejaVuSans-Bold-57"/>
     <use xlink:href="#DejaVuSans-Bold-69" transform="translate(110.302734 0)"/>
     <use xlink:href="#DejaVuSans-Bold-74" transform="translate(144.580078 0)"/>
     <use xlink:href="#DejaVuSans-Bold-68" transform="translate(192.382812 0)"/>
     <use xlink:href="#DejaVuSans-Bold-20" transform="translate(263.574219 0)"/>
     <use xlink:href="#DejaVuSans-Bold-4d" transform="translate(298.388672 0)"/>
     <use xlink:href="#DejaVuSans-Bold-49" transform="translate(397.900391 0)"/>
     <use xlink:href="#DejaVuSans-Bold-43" transform="translate(435.107422 0)"/>
    </g>
   </g>
  </g>
 </g>
 <defs>
  <clipPath id="p2118d149c0">
   <rect x="58.479375" y="17.798437" width="645.739926" height="289.744"/>
  </clipPath>
 </defs>
</svg>
