<?xml version="1.0" encoding="utf-8" standalone="no"?>
<!DOCTYPE svg PUBLIC "-//W3C//DTD SVG 1.1//EN"
  "http://www.w3.org/Graphics/SVG/1.1/DTD/svg11.dtd">
<svg xmlns:xlink="http://www.w3.org/1999/xlink" width="999.674711pt" height="352.192813pt" viewBox="0 0 999.674711 352.192813" xmlns="http://www.w3.org/2000/svg" version="1.1">
 <metadata>
  <rdf:RDF xmlns:dc="http://purl.org/dc/elements/1.1/" xmlns:cc="http://creativecommons.org/ns#" xmlns:rdf="http://www.w3.org/1999/02/22-rdf-syntax-ns#">
   <cc:Work>
    <dc:type rdf:resource="http://purl.org/dc/dcmitype/StillImage"/>
    <dc:date>2026-04-26T16:29:07.731215</dc:date>
    <dc:format>image/svg+xml</dc:format>
    <dc:creator>
     <cc:Agent>
      <dc:title>Matplotlib v3.10.8, https://matplotlib.org/</dc:title>
     </cc:Agent>
    </dc:creator>
   </cc:Work>
  </rdf:RDF>
 </metadata>
 <defs>
  <style type="text/css">*{stroke-linejoin: round; stroke-linecap: butt}</style>
 </defs>
 <g id="figure_1">
  <g id="patch_1">
   <path d="M 0 352.192813 
L 999.674711 352.192813 
L 999.674711 0 
L 0 0 
z
" style="fill: #ffffff"/>
  </g>
  <g id="axes_1">
   <g id="patch_2">
    <path d="M 48.029375 309.7975 
L 988.975336 309.7975 
L 988.975336 34.3575 
L 48.029375 34.3575 
z
" style="fill: #ffffff"/>
   </g>
   <g id="patch_3">
    <path d="M 48.029375 309.7975 
L 361.678029 309.7975 
L 361.678029 34.3575 
L 48.029375 34.3575 
z
" clip-path="url(#pca30b33c09)" style="fill: #4a90d9; opacity: 0.15; stroke: #4a90d9; stroke-linejoin: miter"/>
   </g>
   <g id="patch_4">
    <path d="M 361.678029 309.7975 
L 675.326682 309.7975 
L 675.326682 34.3575 
L 361.678029 34.3575 
z
" clip-path="url(#pca30b33c09)" style="fill: #5cb85c; opacity: 0.15; stroke: #5cb85c; stroke-linejoin: miter"/>
   </g>
   <g id="patch_5">
    <path d="M 675.326682 309.7975 
L 988.975336 309.7975 
L 988.975336 34.3575 
L 675.326682 34.3575 
z
" clip-path="url(#pca30b33c09)" style="fill: #f0ad4e; opacity: 0.15; stroke: #f0ad4e; stroke-linejoin: miter"/>
   </g>
   <g id="matplotlib.axis_1">
    <g id="xtick_1">
     <g id="line2d_1">
      <defs>
       <path id="mde28e9de81" d="M 0 0 
L 0 3.5 
" style="stroke: #000000; stroke-width: 0.8"/>
      </defs>
      <g>
       <use xlink:href="#mde28e9de81" x="48.029375" y="309.7975" style="stroke: #000000; stroke-width: 0.8"/>
      </g>
     </g>
     <g id="text_1">
      <!-- 0 -->
      <g transform="translate(44.53 325.155781) scale(0.11 -0.11)">
       <defs>
        <path id="DejaVuSans-30" d="M 2034 4250 
Q 1547 4250 1301 3770 
Q 1056 3291 1056 2328 
Q 1056 1369 1301 889 
Q 1547 409 2034 409 
Q 2525 409 2770 889 
Q 3016 1369 3016 2328 
Q 3016 3291 2770 3770 
Q 2525 4250 2034 4250 
z
M 2034 4750 
Q 2819 4750 3233 4129 
Q 3647 3509 3647 2328 
Q 3647 1150 3233 529 
Q 2819 -91 2034 -91 
Q 1250 -91 836 529 
Q 422 1150 422 2328 
Q 422 3509 836 4129 
Q 1250 4750 2034 4750 
z
" transform="scale(0.015625)"/>
       </defs>
       <use xlink:href="#DejaVuSans-30"/>
      </g>
     </g>
    </g>
    <g id="xtick_2">
     <g id="line2d_2">
      <g>
       <use xlink:href="#mde28e9de81" x="204.853702" y="309.7975" style="stroke: #000000; stroke-width: 0.8"/>
      </g>
     </g>
     <g id="text_2">
      <!-- 1 -->
      <g transform="translate(201.354327 325.155781) scale(0.11 -0.11)">
       <defs>
        <path id="DejaVuSans-31" d="M 794 531 
L 1825 531 
L 1825 4091 
L 703 3866 
L 703 4441 
L 1819 4666 
L 2450 4666 
L 2450 531 
L 3481 531 
L 3481 0 
L 794 0 
L 794 531 
z
" transform="scale(0.015625)"/>
       </defs>
       <use xlink:href="#DejaVuSans-31"/>
      </g>
     </g>
    </g>
    <g id="xtick_3">
     <g id="line2d_3">
      <g>
       <use xlink:href="#mde28e9de81" x="361.678029" y="309.7975" style="stroke: #000000; stroke-width: 0.8"/>
      </g>
     </g>
     <g id="text_3">
      <!-- 2 -->
      <g transform="translate(358.178654 325.155781) scale(0.11 -0.11)">
       <defs>
        <path id="DejaVuSans-32" d="M 1228 531 
L 3431 531 
L 3431 0 
L 469 0 
L 469 531 
Q 828 903 1448 1529 
Q 2069 2156 2228 2338 
Q 2531 2678 2651 2914 
Q 2772 3150 2772 3378 
Q 2772 3750 2511 3984 
Q 2250 4219 1831 4219 
Q 1534 4219 1204 4116 
Q 875 4013 500 3803 
L 500 4441 
Q 881 4594 1212 4672 
Q 1544 4750 1819 4750 
Q 2544 4750 2975 4387 
Q 3406 4025 3406 3419 
Q 3406 3131 3298 2873 
Q 3191 2616 2906 2266 
Q 2828 2175 2409 1742 
Q 1991 1309 1228 531 
z
" transform="scale(0.015625)"/>
       </defs>
       <use xlink:href="#DejaVuSans-32"/>
      </g>
     </g>
    </g>
    <g id="xtick_4">
     <g id="line2d_4">
      <g>
       <use xlink:href="#mde28e9de81" x="518.502355" y="309.7975" style="stroke: #000000; stroke-width: 0.8"/>
      </g>
     </g>
     <g id="text_4">
      <!-- 3 -->
      <g transform="translate(515.00298 325.155781) scale(0.11 -0.11)">
       <defs>
        <path id="DejaVuSans-33" d="M 2597 2516 
Q 3050 2419 3304 2112 
Q 3559 1806 3559 1356 
Q 3559 666 3084 287 
Q 2609 -91 1734 -91 
Q 1441 -91 1130 -33 
Q 819 25 488 141 
L 488 750 
Q 750 597 1062 519 
Q 1375 441 1716 441 
Q 2309 441 2620 675 
Q 2931 909 2931 1356 
Q 2931 1769 2642 2001 
Q 2353 2234 1838 2234 
L 1294 2234 
L 1294 2753 
L 1863 2753 
Q 2328 2753 2575 2939 
Q 2822 3125 2822 3475 
Q 2822 3834 2567 4026 
Q 2313 4219 1838 4219 
Q 1578 4219 1281 4162 
Q 984 4106 628 3988 
L 628 4550 
Q 988 4650 1302 4700 
Q 1616 4750 1894 4750 
Q 2613 4750 3031 4423 
Q 3450 4097 3450 3541 
Q 3450 3153 3228 2886 
Q 3006 2619 2597 2516 
z
" transform="scale(0.015625)"/>
       </defs>
       <use xlink:href="#DejaVuSans-33"/>
      </g>
     </g>
    </g>
    <g id="xtick_5">
     <g id="line2d_5">
      <g>
       <use xlink:href="#mde28e9de81" x="675.326682" y="309.7975" style="stroke: #000000; stroke-width: 0.8"/>
      </g>
     </g>
     <g id="text_5">
      <!-- 4 -->
      <g transform="translate(671.827307 325.155781) scale(0.11 -0.11)">
       <defs>
        <path id="DejaVuSans-34" d="M 2419 4116 
L 825 1625 
L 2419 1625 
L 2419 4116 
z
M 2253 4666 
L 3047 4666 
L 3047 1625 
L 3713 1625 
L 3713 1100 
L 3047 1100 
L 3047 0 
L 2419 0 
L 2419 1100 
L 313 1100 
L 313 1709 
L 2253 4666 
z
" transform="scale(0.015625)"/>
       </defs>
       <use xlink:href="#DejaVuSans-34"/>
      </g>
     </g>
    </g>
    <g id="xtick_6">
     <g id="line2d_6">
      <g>
       <use xlink:href="#mde28e9de81" x="832.151009" y="309.7975" style="stroke: #000000; stroke-width: 0.8"/>
      </g>
     </g>
     <g id="text_6">
      <!-- 5 -->
      <g transform="translate(828.651634 325.155781) scale(0.11 -0.11)">
       <defs>
        <path id="DejaVuSans-35" d="M 691 4666 
L 3169 4666 
L 3169 4134 
L 1269 4134 
L 1269 2991 
Q 1406 3038 1543 3061 
Q 1681 3084 1819 3084 
Q 2600 3084 3056 2656 
Q 3513 2228 3513 1497 
Q 3513 744 3044 326 
Q 2575 -91 1722 -91 
Q 1428 -91 1123 -41 
Q 819 9 494 109 
L 494 744 
Q 775 591 1075 516 
Q 1375 441 1709 441 
Q 2250 441 2565 725 
Q 2881 1009 2881 1497 
Q 2881 1984 2565 2268 
Q 2250 2553 1709 2553 
Q 1456 2553 1204 2497 
Q 953 2441 691 2322 
L 691 4666 
z
" transform="scale(0.015625)"/>
       </defs>
       <use xlink:href="#DejaVuSans-35"/>
      </g>
     </g>
    </g>
    <g id="xtick_7">
     <g id="line2d_7">
      <g>
       <use xlink:href="#mde28e9de81" x="988.975336" y="309.7975" style="stroke: #000000; stroke-width: 0.8"/>
      </g>
     </g>
     <g id="text_7">
      <!-- 6 -->
      <g transform="translate(985.475961 325.155781) scale(0.11 -0.11)">
       <defs>
        <path id="DejaVuSans-36" d="M 2113 2584 
Q 1688 2584 1439 2293 
Q 1191 2003 1191 1497 
Q 1191 994 1439 701 
Q 1688 409 2113 409 
Q 2538 409 2786 701 
Q 3034 994 3034 1497 
Q 3034 2003 2786 2293 
Q 2538 2584 2113 2584 
z
M 3366 4563 
L 3366 3988 
Q 3128 4100 2886 4159 
Q 2644 4219 2406 4219 
Q 1781 4219 1451 3797 
Q 1122 3375 1075 2522 
Q 1259 2794 1537 2939 
Q 1816 3084 2150 3084 
Q 2853 3084 3261 2657 
Q 3669 2231 3669 1497 
Q 3669 778 3244 343 
Q 2819 -91 2113 -91 
Q 1303 -91 875 529 
Q 447 1150 447 2328 
Q 447 3434 972 4092 
Q 1497 4750 2381 4750 
Q 2619 4750 2861 4703 
Q 3103 4656 3366 4563 
z
" transform="scale(0.015625)"/>
       </defs>
       <use xlink:href="#DejaVuSans-36"/>
      </g>
     </g>
    </g>
    <g id="text_8">
     <!-- Time (s) -->
     <g transform="translate(486.283762 342.08125) scale(0.14 -0.14)">
      <defs>
       <path id="DejaVuSans-Bold-54" d="M 31 4666 
L 4331 4666 
L 4331 3756 
L 2784 3756 
L 2784 0 
L 1581 0 
L 1581 3756 
L 31 3756 
L 31 4666 
z
" transform="scale(0.015625)"/>
       <path id="DejaVuSans-Bold-69" d="M 538 3500 
L 1656 3500 
L 1656 0 
L 538 0 
L 538 3500 
z
M 538 4863 
L 1656 4863 
L 1656 3950 
L 538 3950 
L 538 4863 
z
" transform="scale(0.015625)"/>
       <path id="DejaVuSans-Bold-6d" d="M 3781 2919 
Q 3994 3244 4286 3414 
Q 4578 3584 4928 3584 
Q 5531 3584 5847 3212 
Q 6163 2841 6163 2131 
L 6163 0 
L 5038 0 
L 5038 1825 
Q 5041 1866 5042 1909 
Q 5044 1953 5044 2034 
Q 5044 2406 4934 2573 
Q 4825 2741 4581 2741 
Q 4263 2741 4089 2478 
Q 3916 2216 3909 1719 
L 3909 0 
L 2784 0 
L 2784 1825 
Q 2784 2406 2684 2573 
Q 2584 2741 2328 2741 
Q 2006 2741 1831 2477 
Q 1656 2213 1656 1722 
L 1656 0 
L 531 0 
L 531 3500 
L 1656 3500 
L 1656 2988 
Q 1863 3284 2130 3434 
Q 2397 3584 2719 3584 
Q 3081 3584 3359 3409 
Q 3638 3234 3781 2919 
z
" transform="scale(0.015625)"/>
       <path id="DejaVuSans-Bold-65" d="M 4031 1759 
L 4031 1441 
L 1416 1441 
Q 1456 1047 1700 850 
Q 1944 653 2381 653 
Q 2734 653 3104 758 
Q 3475 863 3866 1075 
L 3866 213 
Q 3469 63 3072 -14 
Q 2675 -91 2278 -91 
Q 1328 -91 801 392 
Q 275 875 275 1747 
Q 275 2603 792 3093 
Q 1309 3584 2216 3584 
Q 3041 3584 3536 3087 
Q 4031 2591 4031 1759 
z
M 2881 2131 
Q 2881 2450 2695 2645 
Q 2509 2841 2209 2841 
Q 1884 2841 1681 2658 
Q 1478 2475 1428 2131 
L 2881 2131 
z
" transform="scale(0.015625)"/>
       <path id="DejaVuSans-Bold-20" transform="scale(0.015625)"/>
       <path id="DejaVuSans-Bold-28" d="M 2413 -844 
L 1484 -844 
Q 1006 -72 778 623 
Q 550 1319 550 2003 
Q 550 2688 779 3389 
Q 1009 4091 1484 4856 
L 2413 4856 
Q 2013 4116 1813 3408 
Q 1613 2700 1613 2009 
Q 1613 1319 1811 609 
Q 2009 -100 2413 -844 
z
" transform="scale(0.015625)"/>
       <path id="DejaVuSans-Bold-73" d="M 3272 3391 
L 3272 2541 
Q 2913 2691 2578 2766 
Q 2244 2841 1947 2841 
Q 1628 2841 1473 2761 
Q 1319 2681 1319 2516 
Q 1319 2381 1436 2309 
Q 1553 2238 1856 2203 
L 2053 2175 
Q 2913 2066 3209 1816 
Q 3506 1566 3506 1031 
Q 3506 472 3093 190 
Q 2681 -91 1863 -91 
Q 1516 -91 1145 -36 
Q 775 19 384 128 
L 384 978 
Q 719 816 1070 734 
Q 1422 653 1784 653 
Q 2113 653 2278 743 
Q 2444 834 2444 1013 
Q 2444 1163 2330 1236 
Q 2216 1309 1875 1350 
L 1678 1375 
Q 931 1469 631 1722 
Q 331 1975 331 2491 
Q 331 3047 712 3315 
Q 1094 3584 1881 3584 
Q 2191 3584 2531 3537 
Q 2872 3491 3272 3391 
z
" transform="scale(0.015625)"/>
       <path id="DejaVuSans-Bold-29" d="M 513 -844 
Q 913 -100 1113 609 
Q 1313 1319 1313 2009 
Q 1313 2700 1113 3408 
Q 913 4116 513 4856 
L 1441 4856 
Q 1916 4091 2145 3389 
Q 2375 2688 2375 2003 
Q 2375 1319 2147 623 
Q 1919 -72 1441 -844 
L 513 -844 
z
" transform="scale(0.015625)"/>
      </defs>
      <use xlink:href="#DejaVuSans-Bold-54"/>
      <use xlink:href="#DejaVuSans-Bold-69" transform="translate(68.212891 0)"/>
      <use xlink:href="#DejaVuSans-Bold-6d" transform="translate(102.490234 0)"/>
      <use xlink:href="#DejaVuSans-Bold-65" transform="translate(206.689453 0)"/>
      <use xlink:href="#DejaVuSans-Bold-20" transform="translate(274.511719 0)"/>
      <use xlink:href="#DejaVuSans-Bold-28" transform="translate(309.326172 0)"/>
      <use xlink:href="#DejaVuSans-Bold-73" transform="translate(355.029297 0)"/>
      <use xlink:href="#DejaVuSans-Bold-29" transform="translate(414.550781 0)"/>
     </g>
    </g>
   </g>
   <g id="matplotlib.axis_2">
    <g id="ytick_1">
     <g id="line2d_8">
      <defs>
       <path id="me1218028b9" d="M 0 0 
L -3.5 0 
" style="stroke: #000000; stroke-width: 0.8"/>
      </defs>
      <g>
       <use xlink:href="#me1218028b9" x="48.029375" y="264.054107" style="stroke: #000000; stroke-width: 0.8"/>
      </g>
     </g>
     <g id="text_9">
      <!-- $\mathdefault{−2}$ -->
      <g transform="translate(24.749375 268.233247) scale(0.11 -0.11)">
       <defs>
        <path id="DejaVuSans-2212" d="M 678 2272 
L 4684 2272 
L 4684 1741 
L 678 1741 
L 678 2272 
z
" transform="scale(0.015625)"/>
       </defs>
       <use xlink:href="#DejaVuSans-2212" transform="translate(0 0.78125)"/>
       <use xlink:href="#DejaVuSans-32" transform="translate(83.789062 0.78125)"/>
      </g>
     </g>
    </g>
    <g id="ytick_2">
     <g id="line2d_9">
      <g>
       <use xlink:href="#me1218028b9" x="48.029375" y="218.065803" style="stroke: #000000; stroke-width: 0.8"/>
      </g>
     </g>
     <g id="text_10">
      <!-- $\mathdefault{−1}$ -->
      <g transform="translate(24.749375 222.244944) scale(0.11 -0.11)">
       <use xlink:href="#DejaVuSans-2212" transform="translate(0 0.09375)"/>
       <use xlink:href="#DejaVuSans-31" transform="translate(83.789062 0.09375)"/>
      </g>
     </g>
    </g>
    <g id="ytick_3">
     <g id="line2d_10">
      <g>
       <use xlink:href="#me1218028b9" x="48.029375" y="172.0775" style="stroke: #000000; stroke-width: 0.8"/>
      </g>
     </g>
     <g id="text_11">
      <!-- $\mathdefault{0}$ -->
      <g transform="translate(33.989375 176.256641) scale(0.11 -0.11)">
       <use xlink:href="#DejaVuSans-30" transform="translate(0 0.78125)"/>
      </g>
     </g>
    </g>
    <g id="ytick_4">
     <g id="line2d_11">
      <g>
       <use xlink:href="#me1218028b9" x="48.029375" y="126.089197" style="stroke: #000000; stroke-width: 0.8"/>
      </g>
     </g>
     <g id="text_12">
      <!-- $\mathdefault{1}$ -->
      <g transform="translate(33.989375 130.268337) scale(0.11 -0.11)">
       <use xlink:href="#DejaVuSans-31" transform="translate(0 0.09375)"/>
      </g>
     </g>
    </g>
    <g id="ytick_5">
     <g id="line2d_12">
      <g>
       <use xlink:href="#me1218028b9" x="48.029375" y="80.100893" style="stroke: #000000; stroke-width: 0.8"/>
      </g>
     </g>
     <g id="text_13">
      <!-- $\mathdefault{2}$ -->
      <g transform="translate(33.989375 84.280034) scale(0.11 -0.11)">
       <use xlink:href="#DejaVuSans-32" transform="translate(0 0.78125)"/>
      </g>
     </g>
    </g>
    <g id="text_14">
     <!-- I$_{sc}$ (mA/m²) -->
     <g transform="translate(17.837812 214.7075) rotate(-90) scale(0.14 -0.14)">
      <defs>
       <path id="DejaVuSans-Bold-49" d="M 588 4666 
L 1791 4666 
L 1791 0 
L 588 0 
L 588 4666 
z
" transform="scale(0.015625)"/>
       <path id="DejaVuSans-Oblique-73" d="M 3200 3397 
L 3091 2853 
Q 2863 2978 2609 3040 
Q 2356 3103 2088 3103 
Q 1634 3103 1373 2948 
Q 1113 2794 1113 2528 
Q 1113 2219 1719 2053 
Q 1766 2041 1788 2034 
L 1972 1978 
Q 2547 1819 2739 1644 
Q 2931 1469 2931 1166 
Q 2931 609 2489 259 
Q 2047 -91 1331 -91 
Q 1053 -91 747 -37 
Q 441 16 72 128 
L 184 722 
Q 500 559 806 475 
Q 1113 391 1394 391 
Q 1816 391 2080 572 
Q 2344 753 2344 1031 
Q 2344 1331 1650 1516 
L 1591 1531 
L 1394 1581 
Q 956 1697 753 1886 
Q 550 2075 550 2369 
Q 550 2928 970 3256 
Q 1391 3584 2113 3584 
Q 2397 3584 2667 3537 
Q 2938 3491 3200 3397 
z
" transform="scale(0.015625)"/>
       <path id="DejaVuSans-Oblique-63" d="M 3431 3366 
L 3316 2797 
Q 3109 2947 2876 3022 
Q 2644 3097 2394 3097 
Q 2119 3097 1870 3000 
Q 1622 2903 1453 2725 
Q 1184 2453 1037 2087 
Q 891 1722 891 1331 
Q 891 859 1127 628 
Q 1363 397 1844 397 
Q 2081 397 2348 469 
Q 2616 541 2906 684 
L 2797 116 
Q 2547 13 2283 -39 
Q 2019 -91 1741 -91 
Q 1044 -91 669 257 
Q 294 606 294 1253 
Q 294 1797 489 2255 
Q 684 2713 1069 3078 
Q 1331 3328 1684 3456 
Q 2038 3584 2456 3584 
Q 2700 3584 2940 3529 
Q 3181 3475 3431 3366 
z
" transform="scale(0.015625)"/>
       <path id="DejaVuSans-Bold-41" d="M 3419 850 
L 1538 850 
L 1241 0 
L 31 0 
L 1759 4666 
L 3194 4666 
L 4922 0 
L 3713 0 
L 3419 850 
z
M 1838 1716 
L 3116 1716 
L 2478 3572 
L 1838 1716 
z
" transform="scale(0.015625)"/>
       <path id="DejaVuSans-Bold-2f" d="M 1644 4666 
L 2338 4666 
L 691 -594 
L 0 -594 
L 1644 4666 
z
" transform="scale(0.015625)"/>
       <path id="DejaVuSans-Bold-b2" d="M 1288 2613 
L 2444 2613 
L 2444 2088 
L 341 2088 
L 341 2566 
L 1319 3397 
Q 1509 3563 1590 3688 
Q 1672 3813 1672 3938 
Q 1672 4094 1558 4191 
Q 1444 4288 1259 4288 
Q 1066 4288 844 4217 
Q 622 4147 359 4000 
L 359 4581 
Q 631 4666 886 4708 
Q 1141 4750 1375 4750 
Q 1869 4750 2150 4548 
Q 2431 4347 2431 4000 
Q 2431 3775 2320 3586 
Q 2209 3397 1894 3128 
L 1288 2613 
z
" transform="scale(0.015625)"/>
      </defs>
      <use xlink:href="#DejaVuSans-Bold-49" transform="translate(0 0.125)"/>
      <use xlink:href="#DejaVuSans-Oblique-73" transform="translate(38.164062 -16.28125) scale(0.7)"/>
      <use xlink:href="#DejaVuSans-Oblique-63" transform="translate(74.633789 -16.28125) scale(0.7)"/>
      <use xlink:href="#DejaVuSans-Bold-20" transform="translate(115.854492 0.125)"/>
      <use xlink:href="#DejaVuSans-Bold-28" transform="translate(150.668945 0.125)"/>
      <use xlink:href="#DejaVuSans-Bold-6d" transform="translate(196.37207 0.125)"/>
      <use xlink:href="#DejaVuSans-Bold-41" transform="translate(300.571289 0.125)"/>
      <use xlink:href="#DejaVuSans-Bold-2f" transform="translate(377.963867 0.125)"/>
      <use xlink:href="#DejaVuSans-Bold-6d" transform="translate(414.487305 0.125)"/>
      <use xlink:href="#DejaVuSans-Bold-b2" transform="translate(518.686523 0.125)"/>
      <use xlink:href="#DejaVuSans-Bold-29" transform="translate(562.485352 0.125)"/>
     </g>
    </g>
    <g id="text_15">
     <!-- $\times\mathdefault{10^{−3}}\mathdefault{}$ -->
     <g transform="translate(48.029375 31.3575) scale(0.1 -0.1)">
      <defs>
       <path id="DejaVuSans-d7" d="M 4488 3438 
L 3059 2003 
L 4488 575 
L 4116 197 
L 2681 1631 
L 1247 197 
L 878 575 
L 2303 2003 
L 878 3438 
L 1247 3816 
L 2681 2381 
L 4116 3816 
L 4488 3438 
z
" transform="scale(0.015625)"/>
      </defs>
      <use xlink:href="#DejaVuSans-d7" transform="translate(0 0.765625)"/>
      <use xlink:href="#DejaVuSans-31" transform="translate(83.789062 0.765625)"/>
      <use xlink:href="#DejaVuSans-30" transform="translate(147.412109 0.765625)"/>
      <use xlink:href="#DejaVuSans-2212" transform="translate(211.992188 39.046875) scale(0.7)"/>
      <use xlink:href="#DejaVuSans-33" transform="translate(270.644531 39.046875) scale(0.7)"/>
     </g>
    </g>
   </g>
   <g id="patch_6">
    <path d="M 48.029375 309.7975 
L 48.029375 34.3575 
" style="fill: none; stroke: #000000; stroke-width: 0.8; stroke-linejoin: miter; stroke-linecap: square"/>
   </g>
   <g id="patch_7">
    <path d="M 48.029375 309.7975 
L 988.975336 309.7975 
" style="fill: none; stroke: #000000; stroke-width: 0.8; stroke-linejoin: miter; stroke-linecap: square"/>
   </g>
   <g id="line2d_13">
    <path d="M 48.029375 171.389217 
L 49.127145 171.463273 
L 49.28397 171.53733 
L 49.597618 171.389217 
L 51.793159 171.426245 
L 51.949983 171.53733 
L 52.420456 171.426245 
L 53.361402 171.241103 
L 53.518226 171.463273 
L 53.988699 171.352188 
L 54.459172 171.648415 
L 54.772821 171.463273 
L 54.929645 171.389217 
L 55.08647 171.500302 
L 55.400118 171.389217 
L 55.556943 171.389217 
L 55.713767 171.204075 
L 56.027416 171.352188 
L 56.18424 171.389217 
L 56.341064 171.574358 
L 56.497889 171.500302 
L 56.654713 171.611387 
L 56.968362 171.574358 
L 57.125186 171.648415 
L 57.438835 171.352188 
L 57.595659 171.574358 
L 57.752483 171.463273 
L 57.909308 171.722472 
L 58.066132 171.574358 
L 58.222956 171.722472 
L 58.693429 171.574358 
L 59.320727 172.018699 
L 59.477551 171.870585 
L 59.948024 172.018699 
L 60.418497 171.796529 
L 60.732145 172.092756 
L 60.88897 171.944642 
L 61.359443 171.944642 
L 61.516267 171.907614 
L 61.829916 172.166812 
L 62.143564 172.129784 
L 63.554983 172.240869 
L 63.868632 172.240869 
L 64.025456 172.166812 
L 64.495929 172.537096 
L 64.652754 172.574125 
L 64.966402 172.426011 
L 66.534646 172.68521 
L 66.848294 172.796295 
L 67.318767 173.12955 
L 67.475592 173.018465 
L 68.102889 173.203607 
L 69.357483 173.499834 
L 69.827956 173.944174 
L 70.298429 174.092288 
L 70.612078 174.240401 
L 70.925727 174.425543 
L 71.866673 174.906912 
L 72.180321 175.203139 
L 72.337146 175.203139 
L 72.650794 175.610451 
L 72.807619 175.573423 
L 73.121267 175.832622 
L 74.375862 177.091586 
L 76.885051 181.423905 
L 77.355524 182.682871 
L 78.923767 188.237123 
L 79.551065 191.16237 
L 80.492011 196.864736 
L 82.373903 208.78787 
L 83.0012 211.268767 
L 83.314849 211.564989 
L 83.628497 211.231735 
L 83.942146 210.009802 
L 84.412619 207.158619 
L 84.726267 204.86286 
L 86.294511 189.347982 
L 86.764984 178.868948 
L 87.549105 162.243207 
L 88.019578 157.096258 
L 88.490051 154.022906 
L 89.587822 149.579505 
L 91.156065 143.358724 
L 91.469714 142.692216 
L 91.940187 142.395994 
L 92.253835 142.581131 
L 92.567484 142.98845 
L 94.6062 149.098134 
L 95.860795 153.245313 
L 96.801741 156.20758 
L 98.683633 160.873157 
L 99.31093 162.095094 
L 99.781403 162.835661 
L 100.095052 163.280002 
L 100.722349 164.242739 
L 102.290592 166.020102 
L 102.447416 166.094158 
L 102.761065 166.427414 
L 102.917889 166.464442 
L 103.388362 166.98284 
L 103.545187 167.056896 
L 103.702011 167.316095 
L 103.858835 167.242038 
L 104.172484 167.575293 
L 104.799781 168.056662 
L 105.897552 168.426946 
L 106.054376 168.612088 
L 106.368025 168.649117 
L 106.995322 169.204543 
L 107.152146 168.982372 
L 107.465795 169.130486 
L 107.779444 169.315628 
L 108.249917 169.278599 
L 108.563565 169.537798 
L 109.034038 169.722939 
L 109.190862 169.685912 
L 109.347687 169.908081 
L 109.504511 169.759968 
L 109.661335 169.834025 
L 109.81816 169.759968 
L 109.974984 169.834025 
L 110.288633 169.759968 
L 110.602281 169.908081 
L 110.759106 169.834025 
L 110.91593 169.982138 
L 111.072754 169.796996 
L 111.386403 170.019167 
L 112.0137 170.204309 
L 114.209241 170.241337 
L 114.366065 170.352422 
L 114.679714 170.352422 
L 114.836538 170.537564 
L 115.62066 170.463507 
L 116.247957 170.500536 
L 116.561606 170.759734 
L 116.71843 170.574592 
L 116.875254 170.833791 
L 117.188903 170.87082 
L 117.8162 170.907847 
L 120.952687 170.87082 
L 121.109511 170.759734 
L 121.266336 170.796763 
L 121.42316 171.055961 
L 121.736809 170.981904 
L 122.050457 171.09299 
L 122.207282 171.055961 
L 122.364106 170.87082 
L 122.834579 171.055961 
L 123.148228 170.907847 
L 124.089174 170.722705 
L 124.245998 170.944876 
L 124.559646 170.981904 
L 125.030119 171.055961 
L 125.186944 170.981904 
L 125.500592 171.018933 
L 126.284714 170.907847 
L 126.755187 170.944876 
L 127.539309 170.87082 
L 127.696133 170.907847 
L 127.852957 170.796763 
L 128.166606 170.833791 
L 129.107552 170.500536 
L 129.421201 170.500536 
L 129.578025 170.685678 
L 129.734849 170.611621 
L 130.048498 170.796763 
L 130.518971 170.722705 
L 130.83262 170.87082 
L 131.146268 170.796763 
L 131.93039 170.907847 
L 133.02816 171.130018 
L 133.341809 170.981904 
L 133.969106 171.055961 
L 134.439579 170.87082 
L 134.753228 171.055961 
L 136.948768 171.055961 
L 137.105593 170.907847 
L 137.262417 171.130018 
L 139.301133 171.09299 
L 139.457958 171.278131 
L 139.771606 171.130018 
L 140.242079 171.31516 
L 140.398903 171.09299 
L 140.712552 171.204075 
L 141.026201 171.09299 
L 141.653498 171.130018 
L 142.123971 171.130018 
L 142.280795 171.130018 
L 142.594444 171.31516 
L 143.53539 171.426245 
L 145.103633 171.53733 
L 146.044579 171.722472 
L 146.201404 171.611387 
L 146.985525 171.722472 
L 147.14235 171.648415 
L 147.612823 171.7595 
L 148.24012 171.833557 
L 148.710593 171.944642 
L 149.965187 171.722472 
L 150.122012 171.833557 
L 150.278836 171.796529 
L 150.592485 171.944642 
L 151.062958 171.944642 
L 156.394985 172.018699 
L 156.708633 172.055727 
L 156.865458 171.907614 
L 157.335931 171.907614 
L 158.276877 171.907614 
L 158.433701 172.055727 
L 158.74735 171.981671 
L 159.217823 172.055727 
L 159.84512 171.870585 
L 160.629242 171.796529 
L 161.099715 172.018699 
L 161.413363 171.981671 
L 161.727012 172.055727 
L 164.079377 172.129784 
L 164.393026 172.166812 
L 165.333971 172.055727 
L 166.74539 172.166812 
L 167.059039 172.240869 
L 167.372688 172.092756 
L 167.843161 171.944642 
L 169.25458 172.055727 
L 169.881877 172.092756 
L 170.038701 172.092756 
L 170.35235 171.907614 
L 170.665999 171.944642 
L 171.293296 171.833557 
L 171.606945 171.981671 
L 172.234242 172.129784 
L 172.54789 171.981671 
L 172.861539 171.796529 
L 173.018363 171.907614 
L 173.175188 171.722472 
L 173.802485 171.796529 
L 173.959309 171.685444 
L 174.586607 171.870585 
L 176.311674 171.574358 
L 176.782147 171.685444 
L 178.350391 171.611387 
L 178.664039 171.500302 
L 178.977688 171.53733 
L 179.76181 171.648415 
L 180.232283 171.611387 
L 180.389107 171.7595 
L 180.702755 171.500302 
L 180.85958 171.611387 
L 181.016404 171.500302 
L 181.643701 171.53733 
L 181.95735 171.53733 
L 182.741472 171.685444 
L 182.898296 171.500302 
L 185.093837 171.500302 
L 185.250661 171.648415 
L 185.56431 171.426245 
L 185.877958 171.463273 
L 186.348431 171.389217 
L 186.66208 171.31516 
L 186.975729 171.500302 
L 187.75985 171.574358 
L 187.916675 171.7595 
L 188.073499 171.722472 
L 188.230323 171.53733 
L 188.387148 171.685444 
L 188.700796 171.648415 
L 188.85762 171.389217 
L 189.484918 171.611387 
L 189.798566 171.574358 
L 189.955391 171.7595 
L 190.425864 171.574358 
L 190.739512 171.7595 
L 191.053161 171.463273 
L 191.209985 171.648415 
L 191.680458 171.574358 
L 191.837283 171.648415 
L 192.150931 171.500302 
L 192.935053 171.685444 
L 193.091877 171.574358 
L 193.405526 171.796529 
L 194.660121 171.574358 
L 195.757891 171.722472 
L 195.914715 171.722472 
L 196.07154 171.53733 
L 196.698837 171.574358 
L 197.326134 171.648415 
L 197.482958 171.7595 
L 197.639783 171.722472 
L 197.796607 171.833557 
L 198.26708 171.833557 
L 198.737553 171.870585 
L 199.208026 171.722472 
L 199.36485 171.574358 
L 199.992148 171.833557 
L 200.462621 171.648415 
L 200.619445 171.907614 
L 200.776269 171.685444 
L 200.933094 171.796529 
L 201.560391 171.722472 
L 201.717215 171.833557 
L 202.501337 171.7595 
L 202.658161 171.981671 
L 203.128634 171.981671 
L 203.442283 172.166812 
L 204.06958 172.092756 
L 204.226405 172.203841 
L 204.540053 172.166812 
L 204.853702 172.314926 
L 205.010526 171.981671 
L 205.16735 172.203841 
L 205.324175 172.166812 
L 205.480999 172.314926 
L 205.637823 172.277898 
L 205.794648 172.463039 
L 205.951472 172.388983 
L 206.265121 172.537096 
L 206.421945 172.388983 
L 206.892418 172.611153 
L 207.049242 172.388983 
L 207.206067 172.648181 
L 207.67654 172.463039 
L 207.990188 172.648181 
L 208.147013 172.537096 
L 208.77431 172.759266 
L 208.931134 172.648181 
L 209.087959 172.722238 
L 209.244783 172.611153 
L 209.558432 172.833323 
L 210.185729 172.870352 
L 210.499378 172.981437 
L 211.440324 173.351721 
L 212.38127 173.462806 
L 212.694918 173.57389 
L 212.851742 173.536862 
L 213.008567 173.722004 
L 213.322215 173.83309 
L 214.106337 174.351487 
L 214.419986 174.425543 
L 215.67458 175.092054 
L 215.988229 175.388281 
L 216.301878 175.536394 
L 216.615526 175.906678 
L 216.929175 176.017763 
L 217.242824 176.388047 
L 217.556472 176.573189 
L 220.065662 180.313054 
L 220.536135 181.31282 
L 222.418026 187.385477 
L 223.358972 191.495624 
L 224.613567 199.530781 
L 225.868162 207.158619 
L 226.809108 211.379851 
L 227.122756 211.972307 
L 227.279581 212.009328 
L 227.436405 211.861222 
L 227.750054 210.861448 
L 228.377351 206.93645 
L 229.004648 200.974883 
L 229.475121 195.383602 
L 230.102418 189.236886 
L 230.729716 175.055025 
L 231.357013 162.095094 
L 231.827486 156.688951 
L 232.297959 153.356398 
L 232.925256 150.171949 
L 233.552554 148.135391 
L 234.4935 144.765805 
L 235.434446 142.618163 
L 235.904919 142.507078 
L 236.375392 143.02547 
L 237.629986 146.543173 
L 239.982351 154.541298 
L 242.021067 159.984473 
L 242.962013 161.984008 
L 243.589311 162.983775 
L 244.687081 164.68708 
L 245.000729 165.16845 
L 245.941675 166.168216 
L 246.882621 166.945811 
L 247.980392 167.908549 
L 248.137216 167.908549 
L 248.450865 168.241804 
L 249.391811 168.57506 
L 249.705459 168.79723 
L 250.646405 169.389684 
L 250.80323 169.389684 
L 250.960054 169.24157 
L 251.273703 169.50077 
L 251.587351 169.50077 
L 253.155594 170.16728 
L 254.567013 170.204309 
L 254.723838 170.315394 
L 255.194311 170.241337 
L 255.507959 170.38945 
L 255.664784 170.315394 
L 255.821608 170.426479 
L 256.135257 170.426479 
L 256.292081 170.574592 
L 256.448905 170.38945 
L 256.762554 170.426479 
L 256.919378 170.241337 
L 257.233027 170.463507 
L 257.546676 170.352422 
L 257.860324 170.648649 
L 258.487622 170.722705 
L 258.644446 170.611621 
L 258.80127 170.759734 
L 259.271743 170.759734 
L 259.585392 170.722705 
L 259.742216 170.685678 
L 260.055865 170.833791 
L 260.839986 171.09299 
L 260.996811 171.204075 
L 261.467284 171.09299 
L 261.780932 171.278131 
L 261.937757 171.167046 
L 262.251405 171.241103 
L 262.40823 171.130018 
L 262.878703 171.278131 
L 264.133297 171.241103 
L 264.290122 171.09299 
L 264.60377 171.278131 
L 264.917419 171.31516 
L 265.858365 171.463273 
L 267.583433 171.130018 
L 269.151676 171.463273 
L 269.465324 171.389217 
L 269.778973 171.426245 
L 269.935797 171.426245 
L 270.092622 171.241103 
L 270.249446 171.463273 
L 270.563095 171.389217 
L 270.719919 171.278131 
L 271.504041 171.352188 
L 271.817689 171.167046 
L 272.444987 170.981904 
L 273.229108 171.055961 
L 273.856406 171.018933 
L 274.326879 171.167046 
L 274.483703 171.09299 
L 274.640527 171.167046 
L 274.797352 171.055961 
L 276.522419 171.352188 
L 276.679244 171.278131 
L 276.992892 171.500302 
L 277.306541 171.500302 
L 277.463365 171.31516 
L 277.620189 171.463273 
L 277.933838 171.278131 
L 278.874784 171.500302 
L 279.031608 171.389217 
L 279.188433 171.463273 
L 279.345257 171.31516 
L 279.81573 171.53733 
L 280.599852 171.278131 
L 281.854446 171.574358 
L 282.011271 171.463273 
L 282.168095 171.574358 
L 282.481744 171.463273 
L 282.795392 171.352188 
L 282.952217 171.463273 
L 283.265865 171.389217 
L 283.42269 171.389217 
L 283.579514 171.53733 
L 283.736338 171.463273 
L 284.049987 171.53733 
L 284.363636 171.500302 
L 284.990933 171.53733 
L 285.304581 171.426245 
L 285.61823 171.463273 
L 285.775054 171.389217 
L 286.716 171.796529 
L 286.872825 171.722472 
L 287.029649 171.833557 
L 287.970595 171.685444 
L 288.441068 171.685444 
L 288.754717 171.722472 
L 289.068365 171.907614 
L 289.22519 171.833557 
L 289.382014 171.981671 
L 289.695663 171.907614 
L 290.166136 171.944642 
L 290.479784 171.907614 
L 290.793433 171.944642 
L 290.950257 172.055727 
L 291.577555 172.018699 
L 291.891203 172.166812 
L 292.048028 172.092756 
L 292.204852 172.166812 
L 292.675325 172.055727 
L 292.988973 172.092756 
L 293.302622 172.055727 
L 293.929919 171.981671 
L 294.557217 172.166812 
L 294.870865 172.166812 
L 295.811811 172.055727 
L 297.066406 172.166812 
L 297.536879 172.240869 
L 297.850528 172.129784 
L 298.164176 172.166812 
L 298.321001 172.203841 
L 298.634649 172.092756 
L 299.418771 172.166812 
L 299.73242 172.240869 
L 300.202893 172.240869 
L 300.673366 172.203841 
L 300.987014 172.092756 
L 301.143838 172.166812 
L 301.614311 172.018699 
L 302.084784 172.055727 
L 302.398433 172.240869 
L 303.02573 172.203841 
L 303.809852 172.129784 
L 303.966676 172.018699 
L 304.750798 172.092756 
L 304.907622 172.092756 
L 305.064447 172.277898 
L 305.378095 172.203841 
L 306.005393 172.240869 
L 306.319041 172.166812 
L 307.103163 172.240869 
L 307.259987 172.351954 
L 307.887285 172.314926 
L 308.200933 172.388983 
L 309.141879 172.277898 
L 313.376136 172.388983 
L 313.689785 172.426011 
L 314.473906 172.092756 
L 315.885325 172.351954 
L 316.198974 172.388983 
L 316.355798 172.426011 
L 316.669447 172.314926 
L 316.826271 172.240869 
L 316.983096 172.018699 
L 317.13992 172.203841 
L 317.296744 171.981671 
L 317.453568 171.981671 
L 317.610393 172.166812 
L 318.551339 172.092756 
L 318.708163 172.351954 
L 318.864987 172.129784 
L 319.178636 172.166812 
L 319.33546 171.944642 
L 319.649109 172.018699 
L 319.805933 172.277898 
L 320.119582 171.981671 
L 320.433231 171.981671 
L 320.746879 172.092756 
L 321.217352 172.240869 
L 321.531001 172.129784 
L 321.84465 171.944642 
L 322.158298 172.277898 
L 322.315123 171.833557 
L 322.94242 171.981671 
L 323.099244 172.166812 
L 323.256069 172.092756 
L 323.412893 172.166812 
L 323.569717 172.055727 
L 323.883366 172.166812 
L 324.04019 172.129784 
L 324.197015 172.240869 
L 324.353839 171.833557 
L 324.667488 172.203841 
L 324.981136 171.907614 
L 325.294785 172.092756 
L 325.608433 172.240869 
L 325.765258 172.092756 
L 326.078906 172.203841 
L 326.549379 171.981671 
L 326.706204 172.240869 
L 327.019852 171.944642 
L 327.176677 172.092756 
L 327.803974 171.870585 
L 328.117623 172.018699 
L 328.274447 171.907614 
L 328.588096 172.018699 
L 328.901744 171.907614 
L 329.215393 172.166812 
L 329.372217 172.092756 
L 329.529042 171.796529 
L 329.685866 172.018699 
L 329.84269 171.981671 
L 329.999515 171.722472 
L 330.156339 171.7595 
L 330.313163 172.240869 
L 330.469988 171.833557 
L 330.940461 172.129784 
L 331.254109 172.129784 
L 331.410934 172.277898 
L 331.567758 172.166812 
L 332.195055 172.240869 
L 332.35188 172.092756 
L 332.508704 172.203841 
L 332.822353 172.055727 
L 332.979177 172.055727 
L 333.136001 172.203841 
L 333.292825 172.055727 
L 333.920123 172.388983 
L 334.54742 172.240869 
L 334.704244 172.574125 
L 335.174717 172.240869 
L 335.331542 172.277898 
L 335.488366 172.092756 
L 335.64519 172.314926 
L 335.802015 172.203841 
L 336.272488 172.240869 
L 336.429312 172.166812 
L 336.586136 172.314926 
L 336.899785 172.166812 
L 337.056609 172.351954 
L 337.370258 172.240869 
L 337.527082 172.500068 
L 337.840731 172.240869 
L 337.997555 172.129784 
L 338.311204 172.240869 
L 338.468028 172.463039 
L 338.624853 172.351954 
L 338.781677 172.092756 
L 338.938501 172.092756 
L 339.095326 172.351954 
L 340.34992 172.018699 
L 340.506745 172.351954 
L 340.820393 172.240869 
L 341.134042 172.277898 
L 341.44769 172.426011 
L 341.604515 172.314926 
L 341.761339 172.426011 
L 342.231812 172.277898 
L 342.545461 172.537096 
L 342.859109 172.277898 
L 343.015934 172.351954 
L 343.486407 172.129784 
L 343.643231 171.685444 
L 343.95688 172.314926 
L 344.427353 172.314926 
L 344.741001 172.426011 
L 345.211474 172.314926 
L 345.838772 172.277898 
L 345.995596 172.500068 
L 346.15242 172.388983 
L 346.309245 172.426011 
L 346.466069 172.648181 
L 346.622893 172.574125 
L 347.093366 172.944408 
L 347.250191 172.796295 
L 347.407015 172.944408 
L 348.034312 172.574125 
L 348.191137 172.759266 
L 348.818434 172.611153 
L 348.975258 172.796295 
L 349.132083 172.648181 
L 349.288907 173.018465 
L 349.602555 172.833323 
L 349.916204 173.092522 
L 350.386677 172.981437 
L 350.543501 173.12955 
L 351.013974 172.833323 
L 351.170799 173.018465 
L 351.327623 172.833323 
L 351.484447 172.944408 
L 351.641272 172.90738 
L 351.95492 173.092522 
L 352.739042 173.166579 
L 353.836812 173.277664 
L 354.307285 173.425777 
L 354.620934 173.610919 
L 354.777758 173.610919 
L 355.091407 173.907146 
L 355.718704 173.870117 
L 356.032353 173.870117 
L 356.346002 174.018232 
L 356.65965 174.055259 
L 356.973299 174.27743 
L 357.286947 174.462572 
L 357.75742 174.72177 
L 358.227893 174.832856 
L 359.012015 175.092054 
L 359.482488 175.573423 
L 359.796137 175.758565 
L 360.109785 176.09182 
L 361.521204 177.128615 
L 361.521204 177.128615 
" clip-path="url(#pca30b33c09)" style="fill: none; stroke: #333333; stroke-width: 0.8; stroke-linecap: square"/>
   </g>
   <g id="line2d_14">
    <path d="M 361.678029 167.760435 
L 361.991677 167.797464 
L 362.932623 168.538032 
L 363.089448 168.538032 
L 363.559921 168.871287 
L 363.716745 168.760202 
L 364.187218 169.056428 
L 364.657691 169.019401 
L 364.97134 169.24157 
L 365.284988 169.389684 
L 365.598637 169.574826 
L 365.912285 169.426712 
L 366.382758 169.611854 
L 366.853231 169.50077 
L 367.637353 169.94511 
L 368.578299 170.130252 
L 369.048772 169.982138 
L 369.205596 170.093223 
L 369.519245 170.130252 
L 370.146542 170.352422 
L 370.617015 170.611621 
L 371.87161 170.907847 
L 372.028434 170.796763 
L 372.342083 170.907847 
L 374.537623 171.31516 
L 374.694448 171.204075 
L 376.419515 171.500302 
L 377.830934 171.611387 
L 378.928705 171.7595 
L 379.242353 171.648415 
L 380.967421 171.7595 
L 381.281069 171.833557 
L 383.47661 171.944642 
L 383.633434 172.018699 
L 383.790259 171.944642 
L 384.103907 172.018699 
L 386.299448 172.092756 
L 386.456272 172.203841 
L 386.613097 172.092756 
L 387.08357 172.129784 
L 387.867691 171.944642 
L 388.18134 172.203841 
L 388.651813 172.351954 
L 388.808637 172.203841 
L 388.965462 172.314926 
L 389.27911 172.277898 
L 389.749583 172.351954 
L 390.063232 172.129784 
L 390.37688 172.203841 
L 390.690529 172.166812 
L 391.161002 172.463039 
L 391.474651 172.537096 
L 392.101948 172.722238 
L 392.258772 172.648181 
L 392.572421 172.870352 
L 393.042894 172.722238 
L 393.199718 172.722238 
L 393.356543 172.870352 
L 393.513367 172.796295 
L 393.98384 173.12955 
L 394.454313 173.018465 
L 394.924786 173.314692 
L 395.552083 173.203607 
L 395.865732 173.536862 
L 396.022556 173.610919 
L 396.649854 174.314458 
L 396.806678 174.351487 
L 397.433975 174.943941 
L 397.590799 174.943941 
L 397.904448 175.351252 
L 398.061272 175.388281 
L 398.531745 176.09182 
L 399.159043 177.128615 
L 400.099989 179.091119 
L 401.197759 182.423671 
L 401.981881 186.163533 
L 402.922827 192.34727 
L 403.550124 197.975583 
L 404.334246 206.751301 
L 405.58884 221.488586 
L 405.902489 222.96972 
L 406.059313 222.858635 
L 406.372962 221.266417 
L 407.000259 213.601558 
L 408.254854 195.383602 
L 408.725327 182.349615 
L 409.509448 160.428812 
L 409.979921 152.245539 
L 410.607219 145.358261 
L 411.234516 141.655421 
L 411.861813 138.952355 
L 412.489111 137.952581 
L 412.802759 137.989613 
L 413.116408 138.433952 
L 413.586881 139.692916 
L 414.371002 142.98845 
L 416.09607 151.060638 
L 417.977962 158.244138 
L 418.918908 160.650986 
L 420.957624 164.798166 
L 421.271273 165.020335 
L 422.055394 166.020102 
L 422.212219 166.094158 
L 422.525867 166.649584 
L 423.309989 167.686379 
L 423.466813 167.538265 
L 424.721408 168.35289 
L 425.348705 168.612088 
L 425.662354 168.908315 
L 426.132827 168.982372 
L 426.446476 169.130486 
L 426.6033 169.130486 
L 426.916949 168.982372 
L 427.70107 169.24157 
L 428.014719 169.611854 
L 428.171543 169.574826 
L 428.328368 169.685912 
L 428.485192 169.648883 
L 428.798841 169.871054 
L 429.112489 169.871054 
L 430.367084 170.056194 
L 430.523908 170.056194 
L 430.994381 170.463507 
L 431.30803 170.315394 
L 431.464854 170.426479 
L 431.621678 170.38945 
L 431.935327 170.574592 
L 432.562624 170.648649 
L 432.876273 170.796763 
L 433.189922 170.907847 
L 434.601341 171.204075 
L 434.914989 171.130018 
L 435.542287 171.204075 
L 435.855935 171.389217 
L 438.051476 171.426245 
L 438.365124 171.574358 
L 439.30607 171.7595 
L 439.619719 171.722472 
L 440.247016 171.685444 
L 440.717489 171.7595 
L 441.031138 171.722472 
L 443.383503 171.833557 
L 444.0108 172.018699 
L 444.481273 172.055727 
L 444.794922 171.944642 
L 444.951746 172.055727 
L 445.579043 172.018699 
L 446.833638 172.129784 
L 446.990462 172.240869 
L 447.460935 172.129784 
L 447.774584 172.129784 
L 447.931408 171.907614 
L 448.088233 172.129784 
L 448.245057 172.092756 
L 448.401881 172.277898 
L 448.558706 172.166812 
L 448.872354 172.351954 
L 449.499652 172.203841 
L 449.656476 172.351954 
L 450.440598 172.240869 
L 451.224719 172.314926 
L 451.695192 172.388983 
L 452.008841 172.426011 
L 452.165665 172.388983 
L 452.479314 172.611153 
L 452.636138 172.426011 
L 452.949787 172.611153 
L 453.42026 172.611153 
L 453.577084 172.722238 
L 453.733908 172.68521 
L 454.047557 172.90738 
L 454.51803 173.018465 
L 454.831679 173.055493 
L 455.145327 172.944408 
L 455.302152 173.018465 
L 455.458976 172.90738 
L 456.243098 173.092522 
L 456.399922 173.351721 
L 457.968165 173.83309 
L 458.595463 174.314458 
L 458.752287 174.573657 
L 459.065936 174.684741 
L 459.850057 175.536394 
L 460.163706 175.980735 
L 460.634179 176.388047 
L 462.045598 179.646544 
L 463.143368 183.164239 
L 463.92749 187.089243 
L 464.554787 191.273455 
L 465.338909 198.308837 
L 466.12303 207.047535 
L 467.377625 221.599671 
L 467.691274 222.932699 
L 467.848098 222.821615 
L 468.161747 221.192364 
L 468.63222 215.860285 
L 470.043638 195.568739 
L 470.514111 182.127445 
L 471.298233 160.058537 
L 471.768706 151.838232 
L 472.396003 145.210144 
L 473.336949 140.211319 
L 473.807422 138.39692 
L 474.121071 137.91556 
L 474.43472 137.767443 
L 474.748368 138.211782 
L 474.905193 138.39692 
L 475.53249 140.433489 
L 476.943909 146.913459 
L 478.198503 152.652857 
L 479.139449 156.20758 
L 481.021341 161.650752 
L 481.962287 163.391087 
L 483.060058 165.353592 
L 483.373706 165.61279 
L 483.844179 166.2793 
L 484.157828 166.501471 
L 484.471477 166.871754 
L 485.569247 168.019635 
L 486.03972 168.315861 
L 486.353368 168.426946 
L 487.607963 168.945344 
L 487.921612 169.056428 
L 490.273977 169.648883 
L 490.74445 169.94511 
L 490.901274 169.871054 
L 491.214923 170.056194 
L 491.371747 169.908081 
L 491.685396 170.056194 
L 492.155869 170.056194 
L 492.783166 170.16728 
L 493.410463 170.500536 
L 493.724112 170.611621 
L 493.880936 170.759734 
L 494.351409 170.759734 
L 494.821882 170.759734 
L 494.978706 170.981904 
L 495.449179 171.018933 
L 495.919652 171.278131 
L 497.64472 171.352188 
L 498.115193 171.500302 
L 498.272017 171.426245 
L 498.74249 171.611387 
L 499.369788 171.574358 
L 499.683436 171.574358 
L 499.997085 171.574358 
L 501.878977 171.944642 
L 502.035801 171.833557 
L 502.506274 171.833557 
L 503.133571 171.796529 
L 504.231342 172.018699 
L 504.54499 171.907614 
L 505.015463 171.944642 
L 505.485936 171.944642 
L 506.113234 172.018699 
L 506.740531 172.203841 
L 507.05418 172.203841 
L 508.15195 172.055727 
L 509.563369 172.388983 
L 509.720193 172.240869 
L 510.033842 172.351954 
L 510.661139 172.240869 
L 510.817963 172.314926 
L 510.974788 172.203841 
L 511.131612 172.314926 
L 511.288436 172.277898 
L 511.602085 172.500068 
L 512.072558 172.463039 
L 512.386207 172.537096 
L 514.268099 172.648181 
L 514.581747 172.833323 
L 514.738572 172.90738 
L 514.895396 172.796295 
L 515.05222 172.944408 
L 515.209045 172.833323 
L 515.836342 173.018465 
L 515.993166 172.944408 
L 516.149991 173.092522 
L 516.463639 173.092522 
L 517.875058 173.351721 
L 518.188707 173.240635 
L 518.345531 173.425777 
L 518.65918 173.499834 
L 518.816004 173.684976 
L 518.972828 173.610919 
L 519.286477 173.870117 
L 519.443301 173.870117 
L 520.070599 174.462572 
L 520.541072 174.610685 
L 521.011545 175.129083 
L 521.795666 175.906678 
L 522.109315 176.388047 
L 522.422964 176.906444 
L 522.893437 177.68404 
L 523.207085 178.276494 
L 523.520734 179.05409 
L 523.677558 179.313288 
L 525.402626 185.756226 
L 526.186747 190.458829 
L 526.970869 197.19799 
L 528.225464 211.602021 
L 529.16641 221.710756 
L 529.480058 223.228922 
L 529.636883 223.117837 
L 529.950531 221.821841 
L 530.421004 216.415709 
L 531.832423 195.235485 
L 532.459721 176.128849 
L 533.087018 159.021743 
L 533.557491 151.060638 
L 534.184788 144.654721 
L 534.96891 140.729711 
L 535.596207 138.582069 
L 535.909856 138.100698 
L 536.223504 137.989613 
L 536.537153 138.248814 
L 537.007626 139.32263 
L 537.948572 143.469821 
L 540.300937 154.096959 
L 541.241883 157.614661 
L 543.594248 163.428115 
L 544.064721 164.316797 
L 544.378369 164.650052 
L 546.260261 167.167982 
L 546.417086 167.205009 
L 546.57391 167.649351 
L 546.730734 167.575293 
L 547.514856 168.35289 
L 547.67168 168.278833 
L 548.298978 168.871287 
L 548.612626 168.982372 
L 549.239924 169.24157 
L 549.396748 169.167514 
L 549.710397 169.315628 
L 550.180869 169.278599 
L 550.494518 169.426712 
L 551.121815 169.648883 
L 551.27864 169.648883 
L 551.435464 169.834025 
L 551.749113 169.759968 
L 551.905937 169.871054 
L 552.062761 169.759968 
L 552.219586 169.94511 
L 552.846883 170.056194 
L 553.47418 170.426479 
L 553.631005 170.352422 
L 553.787829 170.537564 
L 554.258302 170.537564 
L 554.571951 170.685678 
L 554.728775 170.537564 
L 555.042424 170.648649 
L 555.199248 170.648649 
L 555.512897 170.796763 
L 556.297018 171.018933 
L 556.453843 171.167046 
L 556.767491 171.204075 
L 557.551613 171.278131 
L 558.022086 171.278131 
L 558.649383 171.500302 
L 558.806207 171.463273 
L 559.119856 171.611387 
L 559.590329 171.611387 
L 559.903978 171.500302 
L 560.217626 171.53733 
L 561.472221 171.722472 
L 561.78587 171.796529 
L 561.942694 171.870585 
L 562.256343 171.833557 
L 562.88364 171.796529 
L 563.197289 171.833557 
L 563.510937 171.944642 
L 563.98141 172.055727 
L 565.236005 171.870585 
L 566.961072 172.203841 
L 567.745194 172.129784 
L 568.215667 172.129784 
L 568.372491 172.092756 
L 568.68614 172.277898 
L 569.78391 172.388983 
L 569.940735 172.500068 
L 570.097559 172.314926 
L 570.724856 172.426011 
L 571.038505 172.314926 
L 571.195329 172.463039 
L 571.352154 172.426011 
L 571.508978 172.611153 
L 571.822627 172.537096 
L 571.979451 172.722238 
L 572.136275 172.574125 
L 572.606748 172.574125 
L 572.920397 172.611153 
L 573.077221 172.648181 
L 573.234046 172.537096 
L 573.39087 172.68521 
L 573.547694 172.500068 
L 573.861343 172.833323 
L 574.018167 172.722238 
L 574.174991 172.944408 
L 574.645464 172.833323 
L 574.802289 172.944408 
L 575.58641 172.537096 
L 575.743235 172.833323 
L 575.900059 172.833323 
L 576.056883 173.018465 
L 576.213708 172.90738 
L 576.684181 173.12955 
L 577.938775 173.425777 
L 578.0956 173.610919 
L 578.252424 173.203607 
L 578.409248 173.277664 
L 578.566073 173.57389 
L 578.722897 173.388748 
L 578.879721 173.499834 
L 579.19337 173.388748 
L 579.507019 173.796061 
L 579.663843 173.796061 
L 579.820667 173.462806 
L 580.134316 173.907146 
L 580.29114 173.57389 
L 580.447965 173.944174 
L 580.604789 173.684976 
L 581.232086 174.203373 
L 581.388911 174.240401 
L 581.702559 174.647714 
L 582.016208 174.795827 
L 582.329856 175.314225 
L 582.486681 175.166111 
L 583.270802 175.943707 
L 583.8981 176.499132 
L 584.368573 177.313757 
L 584.99587 178.535693 
L 585.309519 179.461402 
L 585.466343 179.646544 
L 586.720938 183.793722 
L 587.034586 185.163771 
L 587.818708 189.792321 
L 588.759654 197.494212 
L 589.230127 202.641154 
L 590.327897 215.7492 
L 590.955194 222.451328 
L 591.268843 223.451091 
L 591.425667 223.562176 
L 591.582492 222.784583 
L 592.052965 218.044959 
L 592.523438 211.194714 
L 593.150735 202.196815 
L 593.464384 198.308837 
L 593.778032 190.792084 
L 594.875803 159.169848 
L 595.346276 151.430913 
L 595.816749 146.02477 
L 596.444046 142.025707 
L 597.071343 139.285609 
L 597.541816 138.359899 
L 597.855465 138.063666 
L 598.012289 138.100698 
L 598.639586 139.137492 
L 599.423708 142.062739 
L 600.051005 145.284209 
L 600.20783 145.654495 
L 601.932897 153.726684 
L 602.40337 155.318902 
L 602.560195 156.318665 
L 602.717019 156.577867 
L 603.501141 159.354997 
L 604.442087 161.687781 
L 605.226208 163.391087 
L 605.383033 163.983541 
L 605.539857 164.020569 
L 605.696681 164.279768 
L 606.01033 164.946279 
L 606.637627 165.83496 
L 607.421749 166.464442 
L 607.578573 167.093925 
L 607.735397 166.908783 
L 608.362695 167.797464 
L 608.833168 168.35289 
L 608.989992 168.241804 
L 609.146816 168.463975 
L 609.303641 168.426946 
L 609.617289 168.834259 
L 610.401411 169.093457 
L 610.71506 169.426712 
L 610.871884 169.50077 
L 611.028708 169.426712 
L 611.185533 169.685912 
L 611.969654 169.537798 
L 612.283303 169.685912 
L 612.440127 169.685912 
L 612.596952 169.871054 
L 612.753776 169.759968 
L 612.9106 169.982138 
L 613.224249 169.982138 
L 614.165195 170.315394 
L 614.322019 170.278365 
L 614.478843 170.426479 
L 614.949316 170.315394 
L 615.262965 170.352422 
L 615.419789 170.352422 
L 615.733438 170.611621 
L 616.047087 170.648649 
L 616.360735 170.759734 
L 617.458506 170.907847 
L 617.61533 170.907847 
L 617.928979 171.167046 
L 618.085803 171.09299 
L 619.026749 171.53733 
L 619.183573 171.463273 
L 619.340398 171.574358 
L 620.124519 171.463273 
L 621.849587 171.796529 
L 622.790533 171.685444 
L 624.672425 172.055727 
L 625.142898 172.055727 
L 627.181614 172.092756 
L 627.338438 172.203841 
L 627.495263 172.092756 
L 628.279384 172.166812 
L 628.436209 172.055727 
L 628.593033 172.240869 
L 629.063506 172.203841 
L 629.690803 172.388983 
L 630.3181 172.277898 
L 630.474925 172.351954 
L 630.788573 172.277898 
L 632.513641 172.648181 
L 632.670465 172.537096 
L 632.82729 172.611153 
L 632.984114 172.463039 
L 633.297763 172.611153 
L 633.611411 172.537096 
L 633.768236 172.537096 
L 634.081884 172.68521 
L 635.179655 172.870352 
L 635.650128 172.759266 
L 636.591074 172.796295 
L 636.904722 172.944408 
L 637.061547 172.870352 
L 637.53202 173.092522 
L 638.159317 173.092522 
L 638.316141 173.240635 
L 638.472965 173.092522 
L 638.786614 173.351721 
L 639.100263 173.277664 
L 639.257087 173.351721 
L 639.413911 173.610919 
L 639.72756 173.610919 
L 640.354857 173.684976 
L 640.668506 173.722004 
L 640.82533 173.722004 
L 640.982155 173.870117 
L 641.138979 173.759032 
L 641.923101 173.981203 
L 642.236749 174.240401 
L 642.393574 174.203373 
L 642.550398 174.351487 
L 642.707222 174.314458 
L 643.177695 174.647714 
L 643.804993 175.017997 
L 645.53006 176.721302 
L 645.843709 177.2397 
L 646.000533 177.313757 
L 646.62783 178.387579 
L 646.941479 179.017061 
L 647.882425 181.646076 
L 648.980195 186.089481 
L 649.921141 192.273217 
L 650.548439 197.938563 
L 651.959858 214.008865 
L 652.743979 222.155106 
L 653.057628 223.154869 
L 653.214452 222.96972 
L 653.528101 220.85911 
L 654.155398 213.453441 
L 654.782695 203.677949 
L 655.253168 197.753414 
L 655.566817 190.495861 
L 656.664587 159.20688 
L 657.291885 149.394356 
L 657.605533 145.913685 
L 658.232831 142.173824 
L 659.016952 138.767206 
L 659.330601 138.063666 
L 659.801074 137.841496 
L 660.428371 139.06344 
L 661.055669 141.507316 
L 664.505804 156.688951 
L 664.819452 157.688714 
L 666.387696 162.243207 
L 666.54452 162.428349 
L 667.014993 163.354058 
L 667.799115 164.761137 
L 668.740061 166.2793 
L 668.896885 166.612556 
L 669.053709 166.612556 
L 669.367358 166.945811 
L 670.621952 168.204777 
L 670.778777 168.463975 
L 670.935601 168.426946 
L 671.24925 168.723173 
L 671.406074 168.760202 
L 671.562898 169.056428 
L 671.719723 168.908315 
L 674.072088 170.056194 
L 674.228912 169.94511 
L 674.856209 169.982138 
L 675.169858 169.982138 
L 675.169858 169.982138 
" clip-path="url(#pca30b33c09)" style="fill: none; stroke: #333333; stroke-width: 0.8; stroke-linecap: square"/>
   </g>
   <g id="line2d_15">
    <path d="M 675.326682 163.835428 
L 675.95398 165.316563 
L 676.267628 166.05713 
L 676.581277 166.575527 
L 677.522223 168.019635 
L 678.306345 168.686145 
L 678.933642 169.463741 
L 679.717763 170.093223 
L 680.031412 170.352422 
L 680.815534 170.796763 
L 680.972358 170.796763 
L 681.75648 171.389217 
L 682.070128 171.500302 
L 682.383777 171.685444 
L 683.795196 171.722472 
L 683.95202 171.870585 
L 684.108845 171.796529 
L 684.736142 172.092756 
L 684.892966 172.351954 
L 685.206615 172.092756 
L 685.363439 172.203841 
L 685.677088 172.018699 
L 685.990737 172.314926 
L 686.461209 172.314926 
L 686.618034 172.574125 
L 686.774858 172.463039 
L 687.872628 173.12955 
L 688.186277 173.314692 
L 688.499926 173.796061 
L 688.65675 173.759032 
L 688.970399 174.092288 
L 689.127223 174.129316 
L 689.911345 175.203139 
L 691.009115 177.647011 
L 691.636412 180.090885 
L 692.106885 183.386409 
L 692.577358 188.089018 
L 693.047831 195.939026 
L 693.518304 209.343294 
L 693.988777 233.041434 
L 694.616074 271.180627 
L 694.772899 271.810103 
L 694.929723 268.366464 
L 695.55702 239.89168 
L 696.184318 213.120187 
L 696.654791 194.791146 
L 697.125264 168.130719 
L 697.752561 133.138893 
L 698.06621 124.881555 
L 698.379858 121.326832 
L 698.693507 120.401122 
L 698.850331 120.512207 
L 699.16398 121.73415 
L 699.634453 124.955619 
L 702.457291 149.283271 
L 703.86871 156.985174 
L 704.652831 160.095558 
L 705.280129 161.687781 
L 707.162021 166.05713 
L 707.318845 166.205243 
L 707.789318 167.130953 
L 708.887088 168.501003 
L 709.357561 168.982372 
L 709.828034 169.278599 
L 710.612156 170.056194 
L 711.396277 170.648649 
L 713.748642 171.648415 
L 714.219115 171.648415 
L 715.003237 171.648415 
L 715.160061 171.833557 
L 715.944183 171.944642 
L 716.101007 171.981671 
L 716.257832 172.240869 
L 716.414656 172.055727 
L 716.728305 172.092756 
L 717.826075 172.388983 
L 718.610196 173.018465 
L 718.923845 173.277664 
L 719.237494 173.610919 
L 720.335264 174.27743 
L 720.648913 174.980969 
L 720.962561 175.499367 
L 721.433034 176.610218 
L 722.060332 178.350551 
L 722.844453 182.830984 
L 723.314926 187.23736 
L 723.785399 194.643029 
L 724.255872 207.047535 
L 724.726345 228.672086 
L 725.353643 269.144069 
L 725.510467 272.143357 
L 725.667291 270.403022 
L 725.98094 258.516931 
L 728.019656 161.94698 
L 728.490129 135.471684 
L 728.803778 125.733213 
L 729.117426 121.511969 
L 729.431075 120.067868 
L 729.587899 120.1049 
L 729.744724 120.36409 
L 730.058372 122.030372 
L 730.68567 126.732975 
L 732.253913 141.581368 
L 732.88121 146.46912 
L 734.606278 156.577867 
L 735.390399 159.651219 
L 736.017697 161.243441 
L 736.644994 162.724576 
L 737.272291 164.46491 
L 739.624656 168.241804 
L 742.29067 170.722705 
L 742.447494 170.722705 
L 742.761143 170.907847 
L 744.015737 171.167046 
L 744.172562 171.463273 
L 744.48621 171.426245 
L 744.643035 171.389217 
L 744.956683 171.611387 
L 745.427156 171.463273 
L 745.897629 171.648415 
L 746.054454 171.611387 
L 746.211278 171.722472 
L 746.368102 171.685444 
L 746.524927 171.907614 
L 746.681751 171.7595 
L 747.622697 172.055727 
L 747.936346 172.166812 
L 748.09317 172.129784 
L 748.249994 172.277898 
L 748.406819 172.166812 
L 748.563643 172.277898 
L 748.720467 172.240869 
L 749.034116 172.537096 
L 749.347765 172.981437 
L 749.504589 172.759266 
L 749.975062 173.425777 
L 750.131886 173.462806 
L 750.288711 173.722004 
L 750.445535 173.759032 
L 750.602359 174.055259 
L 750.759183 173.870117 
L 750.916008 173.870117 
L 751.386481 174.610685 
L 751.543305 174.647714 
L 752.170602 176.054792 
L 753.268373 179.979799 
L 753.89567 184.645379 
L 754.209319 188.051986 
L 754.522967 192.606472 
L 755.150265 209.861685 
L 755.620738 234.596621 
L 756.248035 271.847135 
L 756.404859 272.069305 
L 756.718508 261.849485 
L 758.757224 167.167982 
L 759.227697 138.13773 
L 759.69817 123.696655 
L 760.011819 120.475175 
L 760.168643 119.660549 
L 760.325467 119.475412 
L 760.482292 119.808666 
L 760.952765 122.289574 
L 761.580062 127.325431 
L 764.089251 148.950017 
L 764.873373 153.43045 
L 765.50067 156.577867 
L 765.971143 158.503339 
L 766.127968 158.947678 
L 766.441616 160.058537 
L 767.225738 161.94698 
L 767.382562 162.206179 
L 767.853035 163.761371 
L 768.323508 164.724108 
L 768.637157 165.501705 
L 769.264454 166.649584 
L 769.421278 166.723641 
L 769.734927 167.205009 
L 771.146346 169.130486 
L 771.459995 169.278599 
L 771.616819 169.50077 
L 771.773643 169.50077 
L 772.087292 169.722939 
L 772.244116 169.611854 
L 772.557765 170.130252 
L 773.969184 171.055961 
L 774.439657 171.018933 
L 774.596481 171.130018 
L 774.753305 170.981904 
L 775.066954 171.241103 
L 775.223778 171.130018 
L 775.380603 171.31516 
L 775.537427 171.241103 
L 775.694251 171.648415 
L 775.851076 171.722472 
L 776.0079 171.241103 
L 776.164724 171.500302 
L 776.478373 171.53733 
L 776.635197 171.685444 
L 776.792022 171.574358 
L 777.262495 171.722472 
L 777.889792 171.7595 
L 778.360265 172.018699 
L 779.144387 172.240869 
L 779.301211 172.388983 
L 779.458035 172.314926 
L 780.398981 172.833323 
L 780.71263 173.240635 
L 780.869454 173.166579 
L 781.339927 173.796061 
L 781.496752 173.870117 
L 781.8104 174.166345 
L 782.124049 174.425543 
L 783.221819 176.647246 
L 784.005941 179.794657 
L 784.476414 182.719898 
L 784.946887 187.274392 
L 785.41736 194.680061 
L 785.887833 207.751075 
L 786.358306 230.264304 
L 786.985603 270.847372 
L 787.142427 273.069067 
L 787.299252 270.921425 
L 787.769725 250.740987 
L 788.553846 215.378914 
L 789.024319 197.790446 
L 789.494792 171.907614 
L 790.12209 134.138656 
L 790.435738 124.474248 
L 790.749387 120.475175 
L 791.063035 119.17919 
L 791.21986 119.290274 
L 791.533508 120.36409 
L 792.160806 124.99264 
L 793.101752 133.916486 
L 794.513171 145.987749 
L 795.140468 150.283034 
L 797.179184 159.984473 
L 800.158846 166.760669 
L 800.315671 166.908783 
L 800.629319 167.464209 
L 801.099792 167.945577 
L 801.570265 168.538032 
L 802.354387 169.389684 
L 802.511211 169.426712 
L 802.82486 169.759968 
L 803.138509 169.908081 
L 803.452157 170.130252 
L 805.177225 171.278131 
L 806.902292 171.389217 
L 807.059117 171.574358 
L 807.372765 171.500302 
L 807.52959 171.500302 
L 807.686414 171.7595 
L 807.843238 171.796529 
L 808.156887 171.574358 
L 808.313711 171.833557 
L 808.470536 171.685444 
L 808.62736 171.7595 
L 808.784184 171.648415 
L 809.254657 171.796529 
L 809.881955 172.240869 
L 810.195603 172.314926 
L 810.822901 172.759266 
L 811.136549 172.796295 
L 811.450198 173.166579 
L 811.607022 173.203607 
L 812.23432 173.981203 
L 812.391144 174.092288 
L 812.547968 174.055259 
L 812.861617 174.610685 
L 813.018441 174.869883 
L 813.175266 174.906912 
L 814.273036 177.498898 
L 814.900333 180.090885 
L 815.370806 183.534522 
L 815.841279 188.755526 
L 816.154928 193.717319 
L 816.625401 205.529369 
L 817.095874 226.376338 
L 817.879995 272.957983 
L 818.03682 272.698781 
L 818.350468 261.775421 
L 820.389185 165.797932 
L 821.016482 131.065304 
L 821.330131 123.030135 
L 821.643779 119.697581 
L 821.800604 119.068105 
L 821.957428 118.994041 
L 822.114252 119.21621 
L 822.427901 120.586259 
L 822.898374 124.252079 
L 823.83932 133.175925 
L 824.466617 139.10046 
L 825.878036 149.801674 
L 826.818982 154.985648 
L 828.073577 160.206643 
L 830.896414 166.649584 
L 831.680536 167.760435 
L 832.935131 169.130486 
L 833.248779 169.463741 
L 834.189725 170.241337 
L 834.503374 170.426479 
L 836.698915 171.463273 
L 837.012563 171.426245 
L 837.953509 171.574358 
L 838.267158 171.611387 
L 841.403644 172.463039 
L 841.717293 172.870352 
L 841.874117 172.981437 
L 842.030942 172.90738 
L 843.128712 174.092288 
L 843.442361 174.351487 
L 843.756009 174.684741 
L 844.696955 176.388047 
L 845.167428 177.832153 
L 845.324253 178.165409 
L 846.108374 182.868012 
L 846.578847 187.792784 
L 846.892496 192.56944 
L 847.362969 203.640928 
L 847.676617 215.156744 
L 848.14709 243.113149 
L 848.617563 272.032273 
L 848.774388 273.809628 
L 848.931212 271.143595 
L 849.401685 250.703955 
L 850.342631 209.97277 
L 850.813104 189.718257 
L 851.440401 149.690589 
L 851.910874 128.177089 
L 852.224523 121.771171 
L 852.538172 119.21621 
L 852.694996 118.734839 
L 852.85182 118.882956 
L 853.165469 120.14192 
L 853.635942 123.289337 
L 855.204185 138.470984 
L 856.929253 151.467945 
L 858.027023 157.096258 
L 858.811145 159.947453 
L 860.536212 164.501939 
L 861.320334 165.909016 
L 861.790807 166.723641 
L 862.26128 167.464209 
L 862.574929 167.945577 
L 862.731753 168.241804 
L 862.888577 168.278833 
L 863.35905 168.79723 
L 863.672699 169.019401 
L 865.554591 170.648649 
L 866.495537 170.981904 
L 868.06378 171.648415 
L 868.847902 171.53733 
L 869.16155 171.648415 
L 869.475199 171.722472 
L 869.788848 171.833557 
L 870.102496 171.870585 
L 871.984388 172.314926 
L 872.925334 173.277664 
L 873.082158 173.388748 
L 873.395807 173.796061 
L 873.86628 174.055259 
L 874.023104 174.092288 
L 874.336753 174.388515 
L 874.650402 174.72177 
L 876.218645 179.017061 
L 876.689118 181.386878 
L 877.159591 185.38594 
L 877.47324 189.08878 
L 877.943713 197.753414 
L 878.414186 212.601784 
L 878.884659 238.336493 
L 879.355131 270.032747 
L 879.511956 273.883693 
L 879.66878 273.14312 
L 879.982429 261.775421 
L 882.021145 164.168683 
L 882.491618 135.953055 
L 882.962091 122.400659 
L 883.27574 119.475412 
L 883.432564 118.734839 
L 883.589388 118.808903 
L 883.746213 119.105125 
L 884.059861 120.697344 
L 884.37351 122.807966 
L 885.314456 131.731812 
L 886.255402 140.581606 
L 887.353172 148.987049 
L 888.764591 156.725984 
L 889.391888 159.20688 
L 889.862361 160.539897 
L 890.17601 161.428583 
L 891.744253 165.575761 
L 891.901078 165.649818 
L 892.371551 166.686613 
L 892.528375 166.649584 
L 892.998848 167.575293 
L 894.567091 169.278599 
L 895.664861 170.093223 
L 895.97851 170.38945 
L 896.605807 170.796763 
L 896.919456 170.944876 
L 898.487699 171.426245 
L 898.958172 171.611387 
L 899.114997 171.500302 
L 899.271821 171.648415 
L 899.428645 171.611387 
L 899.58547 171.722472 
L 899.742294 171.648415 
L 899.899118 171.7595 
L 900.212767 171.648415 
L 901.153713 172.018699 
L 901.467362 172.092756 
L 901.937835 172.388983 
L 902.251483 172.314926 
L 902.721956 172.426011 
L 903.192429 172.833323 
L 903.349253 172.870352 
L 904.447024 174.092288 
L 905.074321 174.462572 
L 906.015267 175.906678 
L 906.799389 178.017295 
L 907.58351 182.127445 
L 908.053983 186.31165 
L 908.524456 193.124875 
L 908.994929 204.640691 
L 909.465402 224.376801 
L 910.249524 273.365289 
L 910.406348 274.550201 
L 910.563173 271.291711 
L 911.19047 242.631778 
L 911.817767 215.304861 
L 912.28824 196.679598 
L 912.758713 169.352656 
L 913.229186 138.878291 
L 913.699659 123.326369 
L 914.013308 119.660549 
L 914.170132 118.845924 
L 914.326956 118.697819 
L 914.483781 118.771871 
L 914.797429 120.14192 
L 915.267902 123.437454 
L 917.620267 145.210144 
L 919.502159 156.577867 
L 920.129456 159.132827 
L 921.540875 162.835661 
L 921.6977 163.09486 
L 922.481821 165.353592 
L 923.109119 166.686613 
L 923.265943 166.686613 
L 923.579592 167.056896 
L 924.363713 168.204777 
L 924.520538 168.35289 
L 924.677362 168.686145 
L 924.834186 168.723173 
L 925.461484 169.50077 
L 925.931957 169.722939 
L 928.127497 171.167046 
L 928.754794 171.278131 
L 928.911619 171.426245 
L 929.382092 171.426245 
L 929.852565 171.574358 
L 930.009389 171.53733 
L 930.323038 171.7595 
L 930.479862 171.722472 
L 930.636686 171.870585 
L 930.793511 171.722472 
L 931.107159 171.981671 
L 931.263984 171.833557 
L 931.420808 171.907614 
L 931.577632 171.833557 
L 931.891281 172.018699 
L 932.048105 171.981671 
L 932.675403 172.351954 
L 932.832227 172.388983 
L 932.989051 172.574125 
L 933.459524 172.537096 
L 933.773173 172.537096 
L 934.086822 172.90738 
L 934.557295 173.277664 
L 935.027768 173.83309 
L 935.184592 173.907146 
L 935.49824 174.388515 
L 935.655065 174.425543 
L 936.282362 175.166111 
L 936.439186 175.240167 
L 936.752835 175.943707 
L 937.223308 176.869416 
L 938.321078 181.942303 
L 938.791551 185.793259 
L 939.262024 192.162133 
L 939.732497 202.789271 
L 940.046146 213.712643 
L 940.516619 240.484135 
L 940.987092 271.921188 
L 941.143916 275.142657 
L 941.300741 273.661523 
L 941.614389 261.553251 
L 943.653105 163.835428 
L 944.123578 135.3606 
L 944.594051 121.660086 
L 944.9077 118.697819 
L 945.064524 118.105363 
L 945.221349 118.068331 
L 945.534997 119.105125 
L 946.00547 122.585796 
L 946.632768 128.43629 
L 948.044187 141.84057 
L 948.985133 149.024069 
L 950.082903 155.207818 
L 951.180673 160.095558 
L 951.651146 161.169384 
L 952.592092 163.428115 
L 953.376214 165.538732 
L 953.533038 165.723874 
L 954.160335 167.056896 
L 954.787633 167.760435 
L 955.258106 168.167748 
L 955.885403 169.019401 
L 956.5127 169.685912 
L 957.139998 170.093223 
L 957.767295 170.537564 
L 957.924119 170.463507 
L 958.237768 170.759734 
L 959.178714 171.352188 
L 959.649187 171.53733 
L 959.806011 171.648415 
L 960.11966 171.53733 
L 960.276484 171.648415 
L 960.903781 171.611387 
L 961.687903 171.907614 
L 961.844727 171.981671 
L 962.001552 172.203841 
L 962.942498 172.092756 
L 963.412971 172.314926 
L 964.197092 172.722238 
L 964.353917 172.611153 
L 964.981214 173.055493 
L 965.138038 173.092522 
L 965.451687 173.462806 
L 966.235809 174.351487 
L 966.549457 174.647714 
L 966.706282 174.72177 
L 967.804052 176.462104 
L 968.744998 179.646544 
L 969.215471 182.571785 
L 969.685944 186.941138 
L 970.156417 193.754351 
L 970.62689 205.455316 
L 971.097363 225.820903 
L 971.881484 274.661286 
L 972.038309 275.21671 
L 972.195133 271.661986 
L 972.82243 242.742862 
L 973.449728 215.415946 
L 974.077025 188.829579 
L 975.174795 126.621891 
L 975.488444 120.586259 
L 975.802092 118.2905 
L 975.958917 118.031299 
L 976.115741 118.142395 
L 976.42939 119.475412 
L 976.899863 123.215284 
L 979.565876 147.468883 
L 980.663647 154.319128 
L 981.604593 158.540372 
L 982.388714 161.095328 
L 982.859187 162.354292 
L 984.42743 165.871988 
L 984.741079 166.427414 
L 985.211552 167.205009 
L 985.838849 168.093691 
L 988.661687 170.648649 
L 988.818512 170.685678 
L 988.818512 170.685678 
" clip-path="url(#pca30b33c09)" style="fill: none; stroke: #333333; stroke-width: 0.8; stroke-linecap: square"/>
   </g>
   <g id="text_16">
    <g id="patch_8">
     <path d="M 157.893702 280.8247 
L 251.813702 280.8247 
Q 253.413702 280.8247 253.413702 279.2247 
L 253.413702 270.7447 
Q 253.413702 269.1447 251.813702 269.1447 
L 157.893702 269.1447 
Q 156.293702 269.1447 156.293702 270.7447 
L 156.293702 279.2247 
Q 156.293702 280.8247 157.893702 280.8247 
z
" style="fill: #ffffff; opacity: 0.85; stroke: #333333; stroke-linejoin: miter"/>
    </g>
    <!-- I$_{p-p}$ = 1.51E-03 mA/m² -->
    <g style="fill: #333333" transform="translate(157.893702 276.7447) scale(0.08 -0.08)">
     <defs>
      <path id="DejaVuSans-49" d="M 628 4666 
L 1259 4666 
L 1259 0 
L 628 0 
L 628 4666 
z
" transform="scale(0.015625)"/>
      <path id="DejaVuSans-Oblique-70" d="M 3175 2156 
Q 3175 2616 2975 2859 
Q 2775 3103 2400 3103 
Q 2144 3103 1911 2972 
Q 1678 2841 1497 2591 
Q 1319 2344 1212 1994 
Q 1106 1644 1106 1300 
Q 1106 863 1306 627 
Q 1506 391 1875 391 
Q 2147 391 2380 519 
Q 2613 647 2778 891 
Q 2956 1147 3065 1494 
Q 3175 1841 3175 2156 
z
M 1394 2969 
Q 1625 3272 1939 3428 
Q 2253 3584 2638 3584 
Q 3175 3584 3472 3232 
Q 3769 2881 3769 2247 
Q 3769 1728 3584 1258 
Q 3400 788 3053 416 
Q 2822 169 2531 39 
Q 2241 -91 1919 -91 
Q 1547 -91 1294 64 
Q 1041 219 916 525 
L 556 -1331 
L -19 -1331 
L 922 3500 
L 1497 3500 
L 1394 2969 
z
" transform="scale(0.015625)"/>
      <path id="DejaVuSans-20" transform="scale(0.015625)"/>
      <path id="DejaVuSans-3d" d="M 678 2906 
L 4684 2906 
L 4684 2381 
L 678 2381 
L 678 2906 
z
M 678 1631 
L 4684 1631 
L 4684 1100 
L 678 1100 
L 678 1631 
z
" transform="scale(0.015625)"/>
      <path id="DejaVuSans-2e" d="M 684 794 
L 1344 794 
L 1344 0 
L 684 0 
L 684 794 
z
" transform="scale(0.015625)"/>
      <path id="DejaVuSans-45" d="M 628 4666 
L 3578 4666 
L 3578 4134 
L 1259 4134 
L 1259 2753 
L 3481 2753 
L 3481 2222 
L 1259 2222 
L 1259 531 
L 3634 531 
L 3634 0 
L 628 0 
L 628 4666 
z
" transform="scale(0.015625)"/>
      <path id="DejaVuSans-2d" d="M 313 2009 
L 1997 2009 
L 1997 1497 
L 313 1497 
L 313 2009 
z
" transform="scale(0.015625)"/>
      <path id="DejaVuSans-6d" d="M 3328 2828 
Q 3544 3216 3844 3400 
Q 4144 3584 4550 3584 
Q 5097 3584 5394 3201 
Q 5691 2819 5691 2113 
L 5691 0 
L 5113 0 
L 5113 2094 
Q 5113 2597 4934 2840 
Q 4756 3084 4391 3084 
Q 3944 3084 3684 2787 
Q 3425 2491 3425 1978 
L 3425 0 
L 2847 0 
L 2847 2094 
Q 2847 2600 2669 2842 
Q 2491 3084 2119 3084 
Q 1678 3084 1418 2786 
Q 1159 2488 1159 1978 
L 1159 0 
L 581 0 
L 581 3500 
L 1159 3500 
L 1159 2956 
Q 1356 3278 1631 3431 
Q 1906 3584 2284 3584 
Q 2666 3584 2933 3390 
Q 3200 3197 3328 2828 
z
" transform="scale(0.015625)"/>
      <path id="DejaVuSans-41" d="M 2188 4044 
L 1331 1722 
L 3047 1722 
L 2188 4044 
z
M 1831 4666 
L 2547 4666 
L 4325 0 
L 3669 0 
L 3244 1197 
L 1141 1197 
L 716 0 
L 50 0 
L 1831 4666 
z
" transform="scale(0.015625)"/>
      <path id="DejaVuSans-2f" d="M 1625 4666 
L 2156 4666 
L 531 -594 
L 0 -594 
L 1625 4666 
z
" transform="scale(0.015625)"/>
      <path id="DejaVuSans-b2" d="M 838 2444 
L 2163 2444 
L 2163 2088 
L 294 2088 
L 294 2431 
Q 400 2528 597 2703 
Q 1672 3656 1672 3950 
Q 1672 4156 1509 4282 
Q 1347 4409 1081 4409 
Q 919 4409 728 4354 
Q 538 4300 313 4191 
L 313 4575 
Q 553 4663 761 4706 
Q 969 4750 1147 4750 
Q 1600 4750 1872 4544 
Q 2144 4338 2144 4000 
Q 2144 3566 1109 2678 
Q 934 2528 838 2444 
z
" transform="scale(0.015625)"/>
     </defs>
     <use xlink:href="#DejaVuSans-49" transform="translate(0 0.78125)"/>
     <use xlink:href="#DejaVuSans-Oblique-70" transform="translate(30.449219 -15.625) scale(0.7)"/>
     <use xlink:href="#DejaVuSans-2212" transform="translate(88.520508 -15.625) scale(0.7)"/>
     <use xlink:href="#DejaVuSans-Oblique-70" transform="translate(160.810547 -15.625) scale(0.7)"/>
     <use xlink:href="#DejaVuSans-20" transform="translate(207.978516 0.78125)"/>
     <use xlink:href="#DejaVuSans-3d" transform="translate(239.765625 0.78125)"/>
     <use xlink:href="#DejaVuSans-20" transform="translate(323.554688 0.78125)"/>
     <use xlink:href="#DejaVuSans-31" transform="translate(355.341797 0.78125)"/>
     <use xlink:href="#DejaVuSans-2e" transform="translate(418.964844 0.78125)"/>
     <use xlink:href="#DejaVuSans-35" transform="translate(450.751953 0.78125)"/>
     <use xlink:href="#DejaVuSans-31" transform="translate(514.375 0.78125)"/>
     <use xlink:href="#DejaVuSans-45" transform="translate(577.998047 0.78125)"/>
     <use xlink:href="#DejaVuSans-2d" transform="translate(641.181641 0.78125)"/>
     <use xlink:href="#DejaVuSans-30" transform="translate(677.265625 0.78125)"/>
     <use xlink:href="#DejaVuSans-33" transform="translate(740.888672 0.78125)"/>
     <use xlink:href="#DejaVuSans-20" transform="translate(804.511719 0.78125)"/>
     <use xlink:href="#DejaVuSans-6d" transform="translate(836.298828 0.78125)"/>
     <use xlink:href="#DejaVuSans-41" transform="translate(933.710938 0.78125)"/>
     <use xlink:href="#DejaVuSans-2f" transform="translate(1002.119141 0.78125)"/>
     <use xlink:href="#DejaVuSans-6d" transform="translate(1035.810547 0.78125)"/>
     <use xlink:href="#DejaVuSans-b2" transform="translate(1133.222656 0.78125)"/>
    </g>
   </g>
   <g id="text_17">
    <g id="patch_9">
     <path d="M 471.662355 280.8247 
L 565.342355 280.8247 
Q 566.942355 280.8247 566.942355 279.2247 
L 566.942355 270.7447 
Q 566.942355 269.1447 565.342355 269.1447 
L 471.662355 269.1447 
Q 470.062355 269.1447 470.062355 270.7447 
L 470.062355 279.2247 
Q 470.062355 280.8247 471.662355 280.8247 
z
" style="fill: #ffffff; opacity: 0.85; stroke: #333333; stroke-linejoin: miter"/>
    </g>
    <!-- I$_{p-p}$ = 1.87E-03 mA/m² -->
    <g style="fill: #333333" transform="translate(471.662355 276.7447) scale(0.08 -0.08)">
     <defs>
      <path id="DejaVuSans-38" d="M 2034 2216 
Q 1584 2216 1326 1975 
Q 1069 1734 1069 1313 
Q 1069 891 1326 650 
Q 1584 409 2034 409 
Q 2484 409 2743 651 
Q 3003 894 3003 1313 
Q 3003 1734 2745 1975 
Q 2488 2216 2034 2216 
z
M 1403 2484 
Q 997 2584 770 2862 
Q 544 3141 544 3541 
Q 544 4100 942 4425 
Q 1341 4750 2034 4750 
Q 2731 4750 3128 4425 
Q 3525 4100 3525 3541 
Q 3525 3141 3298 2862 
Q 3072 2584 2669 2484 
Q 3125 2378 3379 2068 
Q 3634 1759 3634 1313 
Q 3634 634 3220 271 
Q 2806 -91 2034 -91 
Q 1263 -91 848 271 
Q 434 634 434 1313 
Q 434 1759 690 2068 
Q 947 2378 1403 2484 
z
M 1172 3481 
Q 1172 3119 1398 2916 
Q 1625 2713 2034 2713 
Q 2441 2713 2670 2916 
Q 2900 3119 2900 3481 
Q 2900 3844 2670 4047 
Q 2441 4250 2034 4250 
Q 1625 4250 1398 4047 
Q 1172 3844 1172 3481 
z
" transform="scale(0.015625)"/>
      <path id="DejaVuSans-37" d="M 525 4666 
L 3525 4666 
L 3525 4397 
L 1831 0 
L 1172 0 
L 2766 4134 
L 525 4134 
L 525 4666 
z
" transform="scale(0.015625)"/>
     </defs>
     <use xlink:href="#DejaVuSans-49" transform="translate(0 0.78125)"/>
     <use xlink:href="#DejaVuSans-Oblique-70" transform="translate(30.449219 -15.625) scale(0.7)"/>
     <use xlink:href="#DejaVuSans-2212" transform="translate(88.520508 -15.625) scale(0.7)"/>
     <use xlink:href="#DejaVuSans-Oblique-70" transform="translate(160.810547 -15.625) scale(0.7)"/>
     <use xlink:href="#DejaVuSans-20" transform="translate(207.978516 0.78125)"/>
     <use xlink:href="#DejaVuSans-3d" transform="translate(239.765625 0.78125)"/>
     <use xlink:href="#DejaVuSans-20" transform="translate(323.554688 0.78125)"/>
     <use xlink:href="#DejaVuSans-31" transform="translate(355.341797 0.78125)"/>
     <use xlink:href="#DejaVuSans-2e" transform="translate(418.964844 0.78125)"/>
     <use xlink:href="#DejaVuSans-38" transform="translate(448.126953 0.78125)"/>
     <use xlink:href="#DejaVuSans-37" transform="translate(511.75 0.78125)"/>
     <use xlink:href="#DejaVuSans-45" transform="translate(575.373047 0.78125)"/>
     <use xlink:href="#DejaVuSans-2d" transform="translate(638.556641 0.78125)"/>
     <use xlink:href="#DejaVuSans-30" transform="translate(674.640625 0.78125)"/>
     <use xlink:href="#DejaVuSans-33" transform="translate(738.263672 0.78125)"/>
     <use xlink:href="#DejaVuSans-20" transform="translate(801.886719 0.78125)"/>
     <use xlink:href="#DejaVuSans-6d" transform="translate(833.673828 0.78125)"/>
     <use xlink:href="#DejaVuSans-41" transform="translate(931.085938 0.78125)"/>
     <use xlink:href="#DejaVuSans-2f" transform="translate(999.494141 0.78125)"/>
     <use xlink:href="#DejaVuSans-6d" transform="translate(1033.185547 0.78125)"/>
     <use xlink:href="#DejaVuSans-b2" transform="translate(1130.597656 0.78125)"/>
    </g>
   </g>
   <g id="text_18">
    <g id="patch_10">
     <path d="M 785.191009 280.8247 
L 879.111009 280.8247 
Q 880.711009 280.8247 880.711009 279.2247 
L 880.711009 270.7447 
Q 880.711009 269.1447 879.111009 269.1447 
L 785.191009 269.1447 
Q 783.591009 269.1447 783.591009 270.7447 
L 783.591009 279.2247 
Q 783.591009 280.8247 785.191009 280.8247 
z
" style="fill: #ffffff; opacity: 0.85; stroke: #333333; stroke-linejoin: miter"/>
    </g>
    <!-- I$_{p-p}$ = 3.42E-03 mA/m² -->
    <g style="fill: #333333" transform="translate(785.191009 276.7447) scale(0.08 -0.08)">
     <use xlink:href="#DejaVuSans-49" transform="translate(0 0.78125)"/>
     <use xlink:href="#DejaVuSans-Oblique-70" transform="translate(30.449219 -15.625) scale(0.7)"/>
     <use xlink:href="#DejaVuSans-2212" transform="translate(88.520508 -15.625) scale(0.7)"/>
     <use xlink:href="#DejaVuSans-Oblique-70" transform="translate(160.810547 -15.625) scale(0.7)"/>
     <use xlink:href="#DejaVuSans-20" transform="translate(207.978516 0.78125)"/>
     <use xlink:href="#DejaVuSans-3d" transform="translate(239.765625 0.78125)"/>
     <use xlink:href="#DejaVuSans-20" transform="translate(323.554688 0.78125)"/>
     <use xlink:href="#DejaVuSans-33" transform="translate(355.341797 0.78125)"/>
     <use xlink:href="#DejaVuSans-2e" transform="translate(418.964844 0.78125)"/>
     <use xlink:href="#DejaVuSans-34" transform="translate(450.751953 0.78125)"/>
     <use xlink:href="#DejaVuSans-32" transform="translate(514.375 0.78125)"/>
     <use xlink:href="#DejaVuSans-45" transform="translate(577.998047 0.78125)"/>
     <use xlink:href="#DejaVuSans-2d" transform="translate(641.181641 0.78125)"/>
     <use xlink:href="#DejaVuSans-30" transform="translate(677.265625 0.78125)"/>
     <use xlink:href="#DejaVuSans-33" transform="translate(740.888672 0.78125)"/>
     <use xlink:href="#DejaVuSans-20" transform="translate(804.511719 0.78125)"/>
     <use xlink:href="#DejaVuSans-6d" transform="translate(836.298828 0.78125)"/>
     <use xlink:href="#DejaVuSans-41" transform="translate(933.710938 0.78125)"/>
     <use xlink:href="#DejaVuSans-2f" transform="translate(1002.119141 0.78125)"/>
     <use xlink:href="#DejaVuSans-6d" transform="translate(1035.810547 0.78125)"/>
     <use xlink:href="#DejaVuSans-b2" transform="translate(1133.222656 0.78125)"/>
    </g>
   </g>
   <g id="text_19">
    <!-- Short-Circuit Current — Without MIC -->
    <g transform="translate(354.448605 19.3575) scale(0.16 -0.16)">
     <defs>
      <path id="DejaVuSans-Bold-53" d="M 3834 4519 
L 3834 3531 
Q 3450 3703 3084 3790 
Q 2719 3878 2394 3878 
Q 1963 3878 1756 3759 
Q 1550 3641 1550 3391 
Q 1550 3203 1689 3098 
Q 1828 2994 2194 2919 
L 2706 2816 
Q 3484 2659 3812 2340 
Q 4141 2022 4141 1434 
Q 4141 663 3683 286 
Q 3225 -91 2284 -91 
Q 1841 -91 1394 -6 
Q 947 78 500 244 
L 500 1259 
Q 947 1022 1364 901 
Q 1781 781 2169 781 
Q 2563 781 2772 912 
Q 2981 1044 2981 1288 
Q 2981 1506 2839 1625 
Q 2697 1744 2272 1838 
L 1806 1941 
Q 1106 2091 782 2419 
Q 459 2747 459 3303 
Q 459 4000 909 4375 
Q 1359 4750 2203 4750 
Q 2588 4750 2994 4692 
Q 3400 4634 3834 4519 
z
" transform="scale(0.015625)"/>
      <path id="DejaVuSans-Bold-68" d="M 4056 2131 
L 4056 0 
L 2931 0 
L 2931 347 
L 2931 1625 
Q 2931 2084 2911 2256 
Q 2891 2428 2841 2509 
Q 2775 2619 2662 2680 
Q 2550 2741 2406 2741 
Q 2056 2741 1856 2470 
Q 1656 2200 1656 1722 
L 1656 0 
L 538 0 
L 538 4863 
L 1656 4863 
L 1656 2988 
Q 1909 3294 2193 3439 
Q 2478 3584 2822 3584 
Q 3428 3584 3742 3212 
Q 4056 2841 4056 2131 
z
" transform="scale(0.015625)"/>
      <path id="DejaVuSans-Bold-6f" d="M 2203 2784 
Q 1831 2784 1636 2517 
Q 1441 2250 1441 1747 
Q 1441 1244 1636 976 
Q 1831 709 2203 709 
Q 2569 709 2762 976 
Q 2956 1244 2956 1747 
Q 2956 2250 2762 2517 
Q 2569 2784 2203 2784 
z
M 2203 3584 
Q 3106 3584 3614 3096 
Q 4122 2609 4122 1747 
Q 4122 884 3614 396 
Q 3106 -91 2203 -91 
Q 1297 -91 786 396 
Q 275 884 275 1747 
Q 275 2609 786 3096 
Q 1297 3584 2203 3584 
z
" transform="scale(0.015625)"/>
      <path id="DejaVuSans-Bold-72" d="M 3138 2547 
Q 2991 2616 2845 2648 
Q 2700 2681 2553 2681 
Q 2122 2681 1889 2404 
Q 1656 2128 1656 1613 
L 1656 0 
L 538 0 
L 538 3500 
L 1656 3500 
L 1656 2925 
Q 1872 3269 2151 3426 
Q 2431 3584 2822 3584 
Q 2878 3584 2943 3579 
Q 3009 3575 3134 3559 
L 3138 2547 
z
" transform="scale(0.015625)"/>
      <path id="DejaVuSans-Bold-74" d="M 1759 4494 
L 1759 3500 
L 2913 3500 
L 2913 2700 
L 1759 2700 
L 1759 1216 
Q 1759 972 1856 886 
Q 1953 800 2241 800 
L 2816 800 
L 2816 0 
L 1856 0 
Q 1194 0 917 276 
Q 641 553 641 1216 
L 641 2700 
L 84 2700 
L 84 3500 
L 641 3500 
L 641 4494 
L 1759 4494 
z
" transform="scale(0.015625)"/>
      <path id="DejaVuSans-Bold-2d" d="M 347 2297 
L 2309 2297 
L 2309 1388 
L 347 1388 
L 347 2297 
z
" transform="scale(0.015625)"/>
      <path id="DejaVuSans-Bold-43" d="M 4288 256 
Q 3956 84 3597 -3 
Q 3238 -91 2847 -91 
Q 1681 -91 1000 561 
Q 319 1213 319 2328 
Q 319 3447 1000 4098 
Q 1681 4750 2847 4750 
Q 3238 4750 3597 4662 
Q 3956 4575 4288 4403 
L 4288 3438 
Q 3953 3666 3628 3772 
Q 3303 3878 2944 3878 
Q 2300 3878 1931 3465 
Q 1563 3053 1563 2328 
Q 1563 1606 1931 1193 
Q 2300 781 2944 781 
Q 3303 781 3628 887 
Q 3953 994 4288 1222 
L 4288 256 
z
" transform="scale(0.015625)"/>
      <path id="DejaVuSans-Bold-63" d="M 3366 3391 
L 3366 2478 
Q 3138 2634 2908 2709 
Q 2678 2784 2431 2784 
Q 1963 2784 1702 2511 
Q 1441 2238 1441 1747 
Q 1441 1256 1702 982 
Q 1963 709 2431 709 
Q 2694 709 2930 787 
Q 3166 866 3366 1019 
L 3366 103 
Q 3103 6 2833 -42 
Q 2563 -91 2291 -91 
Q 1344 -91 809 395 
Q 275 881 275 1747 
Q 275 2613 809 3098 
Q 1344 3584 2291 3584 
Q 2566 3584 2833 3536 
Q 3100 3488 3366 3391 
z
" transform="scale(0.015625)"/>
      <path id="DejaVuSans-Bold-75" d="M 500 1363 
L 500 3500 
L 1625 3500 
L 1625 3150 
Q 1625 2866 1622 2436 
Q 1619 2006 1619 1863 
Q 1619 1441 1641 1255 
Q 1663 1069 1716 984 
Q 1784 875 1895 815 
Q 2006 756 2150 756 
Q 2500 756 2700 1025 
Q 2900 1294 2900 1772 
L 2900 3500 
L 4019 3500 
L 4019 0 
L 2900 0 
L 2900 506 
Q 2647 200 2364 54 
Q 2081 -91 1741 -91 
Q 1134 -91 817 281 
Q 500 653 500 1363 
z
" transform="scale(0.015625)"/>
      <path id="DejaVuSans-Bold-6e" d="M 4056 2131 
L 4056 0 
L 2931 0 
L 2931 347 
L 2931 1631 
Q 2931 2084 2911 2256 
Q 2891 2428 2841 2509 
Q 2775 2619 2662 2680 
Q 2550 2741 2406 2741 
Q 2056 2741 1856 2470 
Q 1656 2200 1656 1722 
L 1656 0 
L 538 0 
L 538 3500 
L 1656 3500 
L 1656 2988 
Q 1909 3294 2193 3439 
Q 2478 3584 2822 3584 
Q 3428 3584 3742 3212 
Q 4056 2841 4056 2131 
z
" transform="scale(0.015625)"/>
      <path id="DejaVuSans-Bold-2014" d="M 344 2156 
L 6056 2156 
L 6056 1350 
L 344 1350 
L 344 2156 
z
" transform="scale(0.015625)"/>
      <path id="DejaVuSans-Bold-57" d="M 191 4666 
L 1344 4666 
L 2150 1275 
L 2950 4666 
L 4109 4666 
L 4909 1275 
L 5716 4666 
L 6859 4666 
L 5759 0 
L 4372 0 
L 3525 3547 
L 2688 0 
L 1300 0 
L 191 4666 
z
" transform="scale(0.015625)"/>
      <path id="DejaVuSans-Bold-4d" d="M 588 4666 
L 2119 4666 
L 3181 2169 
L 4250 4666 
L 5778 4666 
L 5778 0 
L 4641 0 
L 4641 3413 
L 3566 897 
L 2803 897 
L 1728 3413 
L 1728 0 
L 588 0 
L 588 4666 
z
" transform="scale(0.015625)"/>
     </defs>
     <use xlink:href="#DejaVuSans-Bold-53"/>
     <use xlink:href="#DejaVuSans-Bold-68" transform="translate(72.021484 0)"/>
     <use xlink:href="#DejaVuSans-Bold-6f" transform="translate(143.212891 0)"/>
     <use xlink:href="#DejaVuSans-Bold-72" transform="translate(211.914062 0)"/>
     <use xlink:href="#DejaVuSans-Bold-74" transform="translate(261.230469 0)"/>
     <use xlink:href="#DejaVuSans-Bold-2d" transform="translate(309.033203 0)"/>
     <use xlink:href="#DejaVuSans-Bold-43" transform="translate(350.537109 0)"/>
     <use xlink:href="#DejaVuSans-Bold-69" transform="translate(423.925781 0)"/>
     <use xlink:href="#DejaVuSans-Bold-72" transform="translate(458.203125 0)"/>
     <use xlink:href="#DejaVuSans-Bold-63" transform="translate(507.519531 0)"/>
     <use xlink:href="#DejaVuSans-Bold-75" transform="translate(566.796875 0)"/>
     <use xlink:href="#DejaVuSans-Bold-69" transform="translate(637.988281 0)"/>
     <use xlink:href="#DejaVuSans-Bold-74" transform="translate(672.265625 0)"/>
     <use xlink:href="#DejaVuSans-Bold-20" transform="translate(720.068359 0)"/>
     <use xlink:href="#DejaVuSans-Bold-43" transform="translate(754.882812 0)"/>
     <use xlink:href="#DejaVuSans-Bold-75" transform="translate(828.271484 0)"/>
     <use xlink:href="#DejaVuSans-Bold-72" transform="translate(899.462891 0)"/>
     <use xlink:href="#DejaVuSans-Bold-72" transform="translate(948.779297 0)"/>
     <use xlink:href="#DejaVuSans-Bold-65" transform="translate(998.095703 0)"/>
     <use xlink:href="#DejaVuSans-Bold-6e" transform="translate(1065.917969 0)"/>
     <use xlink:href="#DejaVuSans-Bold-74" transform="translate(1137.109375 0)"/>
     <use xlink:href="#DejaVuSans-Bold-20" transform="translate(1184.912109 0)"/>
     <use xlink:href="#DejaVuSans-Bold-2014" transform="translate(1219.726562 0)"/>
     <use xlink:href="#DejaVuSans-Bold-20" transform="translate(1319.726562 0)"/>
     <use xlink:href="#DejaVuSans-Bold-57" transform="translate(1354.541016 0)"/>
     <use xlink:href="#DejaVuSans-Bold-69" transform="translate(1464.84375 0)"/>
     <use xlink:href="#DejaVuSans-Bold-74" transform="translate(1499.121094 0)"/>
     <use xlink:href="#DejaVuSans-Bold-68" transform="translate(1546.923828 0)"/>
     <use xlink:href="#DejaVuSans-Bold-6f" transform="translate(1618.115234 0)"/>
     <use xlink:href="#DejaVuSans-Bold-75" transform="translate(1686.816406 0)"/>
     <use xlink:href="#DejaVuSans-Bold-74" transform="translate(1758.007812 0)"/>
     <use xlink:href="#DejaVuSans-Bold-20" transform="translate(1805.810547 0)"/>
     <use xlink:href="#DejaVuSans-Bold-4d" transform="translate(1840.625 0)"/>
     <use xlink:href="#DejaVuSans-Bold-49" transform="translate(1940.136719 0)"/>
     <use xlink:href="#DejaVuSans-Bold-43" transform="translate(1977.34375 0)"/>
    </g>
   </g>
   <g id="text_20">
    <!-- 1 Hz -->
    <g style="fill: #4a90d9" transform="translate(188.845421 55.253069) scale(0.13 -0.13)">
     <defs>
      <path id="DejaVuSans-Bold-31" d="M 750 831 
L 1813 831 
L 1813 3847 
L 722 3622 
L 722 4441 
L 1806 4666 
L 2950 4666 
L 2950 831 
L 4013 831 
L 4013 0 
L 750 0 
L 750 831 
z
" transform="scale(0.015625)"/>
      <path id="DejaVuSans-Bold-48" d="M 588 4666 
L 1791 4666 
L 1791 2888 
L 3566 2888 
L 3566 4666 
L 4769 4666 
L 4769 0 
L 3566 0 
L 3566 1978 
L 1791 1978 
L 1791 0 
L 588 0 
L 588 4666 
z
" transform="scale(0.015625)"/>
      <path id="DejaVuSans-Bold-7a" d="M 366 3500 
L 3419 3500 
L 3419 2719 
L 1575 800 
L 3419 800 
L 3419 0 
L 288 0 
L 288 781 
L 2131 2700 
L 366 2700 
L 366 3500 
z
" transform="scale(0.015625)"/>
     </defs>
     <use xlink:href="#DejaVuSans-Bold-31"/>
     <use xlink:href="#DejaVuSans-Bold-20" transform="translate(69.580078 0)"/>
     <use xlink:href="#DejaVuSans-Bold-48" transform="translate(104.394531 0)"/>
     <use xlink:href="#DejaVuSans-Bold-7a" transform="translate(188.085938 0)"/>
    </g>
   </g>
   <g id="text_21">
    <!-- 2.5 Hz -->
    <g style="fill: #5cb85c" transform="translate(495.502512 55.253069) scale(0.13 -0.13)">
     <defs>
      <path id="DejaVuSans-Bold-32" d="M 1844 884 
L 3897 884 
L 3897 0 
L 506 0 
L 506 884 
L 2209 2388 
Q 2438 2594 2547 2791 
Q 2656 2988 2656 3200 
Q 2656 3528 2436 3728 
Q 2216 3928 1850 3928 
Q 1569 3928 1234 3808 
Q 900 3688 519 3450 
L 519 4475 
Q 925 4609 1322 4679 
Q 1719 4750 2100 4750 
Q 2938 4750 3402 4381 
Q 3866 4013 3866 3353 
Q 3866 2972 3669 2642 
Q 3472 2313 2841 1759 
L 1844 884 
z
" transform="scale(0.015625)"/>
      <path id="DejaVuSans-Bold-2e" d="M 653 1209 
L 1778 1209 
L 1778 0 
L 653 0 
L 653 1209 
z
" transform="scale(0.015625)"/>
      <path id="DejaVuSans-Bold-35" d="M 678 4666 
L 3669 4666 
L 3669 3781 
L 1638 3781 
L 1638 3059 
Q 1775 3097 1914 3117 
Q 2053 3138 2203 3138 
Q 3056 3138 3531 2711 
Q 4006 2284 4006 1522 
Q 4006 766 3489 337 
Q 2972 -91 2053 -91 
Q 1656 -91 1267 -14 
Q 878 63 494 219 
L 494 1166 
Q 875 947 1217 837 
Q 1559 728 1863 728 
Q 2300 728 2551 942 
Q 2803 1156 2803 1522 
Q 2803 1891 2551 2103 
Q 2300 2316 1863 2316 
Q 1603 2316 1309 2248 
Q 1016 2181 678 2041 
L 678 4666 
z
" transform="scale(0.015625)"/>
     </defs>
     <use xlink:href="#DejaVuSans-Bold-32"/>
     <use xlink:href="#DejaVuSans-Bold-2e" transform="translate(69.580078 0)"/>
     <use xlink:href="#DejaVuSans-Bold-35" transform="translate(107.568359 0)"/>
     <use xlink:href="#DejaVuSans-Bold-20" transform="translate(177.148438 0)"/>
     <use xlink:href="#DejaVuSans-Bold-48" transform="translate(211.962891 0)"/>
     <use xlink:href="#DejaVuSans-Bold-7a" transform="translate(295.654297 0)"/>
    </g>
   </g>
   <g id="text_22">
    <!-- 5 Hz -->
    <g style="fill: #f0ad4e" transform="translate(816.142728 55.253069) scale(0.13 -0.13)">
     <use xlink:href="#DejaVuSans-Bold-35"/>
     <use xlink:href="#DejaVuSans-Bold-20" transform="translate(69.580078 0)"/>
     <use xlink:href="#DejaVuSans-Bold-48" transform="translate(104.394531 0)"/>
     <use xlink:href="#DejaVuSans-Bold-7a" transform="translate(188.085938 0)"/>
    </g>
   </g>
  </g>
 </g>
 <defs>
  <clipPath id="pca30b33c09">
   <rect x="48.029375" y="34.3575" width="940.945961" height="275.44"/>
  </clipPath>
 </defs>
</svg>
