<?xml version="1.0" encoding="utf-8" standalone="no"?>
<!DOCTYPE svg PUBLIC "-//W3C//DTD SVG 1.1//EN"
  "http://www.w3.org/Graphics/SVG/1.1/DTD/svg11.dtd">
<svg xmlns:xlink="http://www.w3.org/1999/xlink" width="711.646pt" height="352.515313pt" viewBox="0 0 711.646 352.515313" xmlns="http://www.w3.org/2000/svg" version="1.1">
 <metadata>
  <rdf:RDF xmlns:dc="http://purl.org/dc/elements/1.1/" xmlns:cc="http://creativecommons.org/ns#" xmlns:rdf="http://www.w3.org/1999/02/22-rdf-syntax-ns#">
   <cc:Work>
    <dc:type rdf:resource="http://purl.org/dc/dcmitype/StillImage"/>
    <dc:date>2026-04-26T16:10:14.086809</dc:date>
    <dc:format>image/svg+xml</dc:format>
    <dc:creator>
     <cc:Agent>
      <dc:title>Matplotlib v3.10.8, https://matplotlib.org/</dc:title>
     </cc:Agent>
    </dc:creator>
   </cc:Work>
  </rdf:RDF>
 </metadata>
 <defs>
  <style type="text/css">*{stroke-linejoin: round; stroke-linecap: butt}</style>
 </defs>
 <g id="figure_1">
  <g id="patch_1">
   <path d="M 0 352.515313 
L 711.646 352.515313 
L 711.646 0 
L 0 0 
z
" style="fill: #ffffff"/>
  </g>
  <g id="axes_1">
   <g id="patch_2">
    <path d="M 61.963281 310.12 
L 695.699281 310.12 
L 695.699281 7.2 
L 61.963281 7.2 
z
" style="fill: #ffffff"/>
   </g>
   <g id="patch_3">
    <path d="M 61.963281 310.12 
L 333.564424 310.12 
L 333.564424 7.2 
L 61.963281 7.2 
z
" clip-path="url(#p0fdb9fc743)" style="fill: #cccccc; opacity: 0.12; stroke: #cccccc; stroke-linejoin: miter"/>
   </g>
   <g id="patch_4">
    <path d="M 333.564424 310.12 
L 695.699281 310.12 
L 695.699281 7.2 
L 333.564424 7.2 
z
" clip-path="url(#p0fdb9fc743)" style="fill: #d94452; opacity: 0.06; stroke: #d94452; stroke-linejoin: miter"/>
   </g>
   <g id="line2d_1">
    <path d="M 333.564424 310.12 
L 333.564424 7.2 
" clip-path="url(#p0fdb9fc743)" style="fill: none; stroke-dasharray: 3.7,1.6; stroke-dashoffset: 0; stroke: #999999"/>
   </g>
   <g id="matplotlib.axis_1">
    <g id="xtick_1">
     <g id="line2d_2">
      <defs>
       <path id="m832c7e8236" d="M 0 0 
L 0 3.5 
" style="stroke: #000000; stroke-width: 0.8"/>
      </defs>
      <g>
       <use xlink:href="#m832c7e8236" x="61.963281" y="310.12" style="stroke: #000000; stroke-width: 0.8"/>
      </g>
     </g>
     <g id="text_1">
      <!-- 0.0 -->
      <g transform="translate(53.216563 325.478281) scale(0.11 -0.11)">
       <defs>
        <path id="DejaVuSans-30" d="M 2034 4250 
Q 1547 4250 1301 3770 
Q 1056 3291 1056 2328 
Q 1056 1369 1301 889 
Q 1547 409 2034 409 
Q 2525 409 2770 889 
Q 3016 1369 3016 2328 
Q 3016 3291 2770 3770 
Q 2525 4250 2034 4250 
z
M 2034 4750 
Q 2819 4750 3233 4129 
Q 3647 3509 3647 2328 
Q 3647 1150 3233 529 
Q 2819 -91 2034 -91 
Q 1250 -91 836 529 
Q 422 1150 422 2328 
Q 422 3509 836 4129 
Q 1250 4750 2034 4750 
z
" transform="scale(0.015625)"/>
        <path id="DejaVuSans-2e" d="M 684 794 
L 1344 794 
L 1344 0 
L 684 0 
L 684 794 
z
" transform="scale(0.015625)"/>
       </defs>
       <use xlink:href="#DejaVuSans-30"/>
       <use xlink:href="#DejaVuSans-2e" transform="translate(63.623047 0)"/>
       <use xlink:href="#DejaVuSans-30" transform="translate(95.410156 0)"/>
      </g>
     </g>
    </g>
    <g id="xtick_2">
     <g id="line2d_3">
      <g>
       <use xlink:href="#m832c7e8236" x="152.496996" y="310.12" style="stroke: #000000; stroke-width: 0.8"/>
      </g>
     </g>
     <g id="text_2">
      <!-- 0.5 -->
      <g transform="translate(143.750277 325.478281) scale(0.11 -0.11)">
       <defs>
        <path id="DejaVuSans-35" d="M 691 4666 
L 3169 4666 
L 3169 4134 
L 1269 4134 
L 1269 2991 
Q 1406 3038 1543 3061 
Q 1681 3084 1819 3084 
Q 2600 3084 3056 2656 
Q 3513 2228 3513 1497 
Q 3513 744 3044 326 
Q 2575 -91 1722 -91 
Q 1428 -91 1123 -41 
Q 819 9 494 109 
L 494 744 
Q 775 591 1075 516 
Q 1375 441 1709 441 
Q 2250 441 2565 725 
Q 2881 1009 2881 1497 
Q 2881 1984 2565 2268 
Q 2250 2553 1709 2553 
Q 1456 2553 1204 2497 
Q 953 2441 691 2322 
L 691 4666 
z
" transform="scale(0.015625)"/>
       </defs>
       <use xlink:href="#DejaVuSans-30"/>
       <use xlink:href="#DejaVuSans-2e" transform="translate(63.623047 0)"/>
       <use xlink:href="#DejaVuSans-35" transform="translate(95.410156 0)"/>
      </g>
     </g>
    </g>
    <g id="xtick_3">
     <g id="line2d_4">
      <g>
       <use xlink:href="#m832c7e8236" x="243.03071" y="310.12" style="stroke: #000000; stroke-width: 0.8"/>
      </g>
     </g>
     <g id="text_3">
      <!-- 1.0 -->
      <g transform="translate(234.283991 325.478281) scale(0.11 -0.11)">
       <defs>
        <path id="DejaVuSans-31" d="M 794 531 
L 1825 531 
L 1825 4091 
L 703 3866 
L 703 4441 
L 1819 4666 
L 2450 4666 
L 2450 531 
L 3481 531 
L 3481 0 
L 794 0 
L 794 531 
z
" transform="scale(0.015625)"/>
       </defs>
       <use xlink:href="#DejaVuSans-31"/>
       <use xlink:href="#DejaVuSans-2e" transform="translate(63.623047 0)"/>
       <use xlink:href="#DejaVuSans-30" transform="translate(95.410156 0)"/>
      </g>
     </g>
    </g>
    <g id="xtick_4">
     <g id="line2d_5">
      <g>
       <use xlink:href="#m832c7e8236" x="333.564424" y="310.12" style="stroke: #000000; stroke-width: 0.8"/>
      </g>
     </g>
     <g id="text_4">
      <!-- 1.5 -->
      <g transform="translate(324.817705 325.478281) scale(0.11 -0.11)">
       <use xlink:href="#DejaVuSans-31"/>
       <use xlink:href="#DejaVuSans-2e" transform="translate(63.623047 0)"/>
       <use xlink:href="#DejaVuSans-35" transform="translate(95.410156 0)"/>
      </g>
     </g>
    </g>
    <g id="xtick_5">
     <g id="line2d_6">
      <g>
       <use xlink:href="#m832c7e8236" x="424.098138" y="310.12" style="stroke: #000000; stroke-width: 0.8"/>
      </g>
     </g>
     <g id="text_5">
      <!-- 2.0 -->
      <g transform="translate(415.35142 325.478281) scale(0.11 -0.11)">
       <defs>
        <path id="DejaVuSans-32" d="M 1228 531 
L 3431 531 
L 3431 0 
L 469 0 
L 469 531 
Q 828 903 1448 1529 
Q 2069 2156 2228 2338 
Q 2531 2678 2651 2914 
Q 2772 3150 2772 3378 
Q 2772 3750 2511 3984 
Q 2250 4219 1831 4219 
Q 1534 4219 1204 4116 
Q 875 4013 500 3803 
L 500 4441 
Q 881 4594 1212 4672 
Q 1544 4750 1819 4750 
Q 2544 4750 2975 4387 
Q 3406 4025 3406 3419 
Q 3406 3131 3298 2873 
Q 3191 2616 2906 2266 
Q 2828 2175 2409 1742 
Q 1991 1309 1228 531 
z
" transform="scale(0.015625)"/>
       </defs>
       <use xlink:href="#DejaVuSans-32"/>
       <use xlink:href="#DejaVuSans-2e" transform="translate(63.623047 0)"/>
       <use xlink:href="#DejaVuSans-30" transform="translate(95.410156 0)"/>
      </g>
     </g>
    </g>
    <g id="xtick_6">
     <g id="line2d_7">
      <g>
       <use xlink:href="#m832c7e8236" x="514.631853" y="310.12" style="stroke: #000000; stroke-width: 0.8"/>
      </g>
     </g>
     <g id="text_6">
      <!-- 2.5 -->
      <g transform="translate(505.885134 325.478281) scale(0.11 -0.11)">
       <use xlink:href="#DejaVuSans-32"/>
       <use xlink:href="#DejaVuSans-2e" transform="translate(63.623047 0)"/>
       <use xlink:href="#DejaVuSans-35" transform="translate(95.410156 0)"/>
      </g>
     </g>
    </g>
    <g id="xtick_7">
     <g id="line2d_8">
      <g>
       <use xlink:href="#m832c7e8236" x="605.165567" y="310.12" style="stroke: #000000; stroke-width: 0.8"/>
      </g>
     </g>
     <g id="text_7">
      <!-- 3.0 -->
      <g transform="translate(596.418848 325.478281) scale(0.11 -0.11)">
       <defs>
        <path id="DejaVuSans-33" d="M 2597 2516 
Q 3050 2419 3304 2112 
Q 3559 1806 3559 1356 
Q 3559 666 3084 287 
Q 2609 -91 1734 -91 
Q 1441 -91 1130 -33 
Q 819 25 488 141 
L 488 750 
Q 750 597 1062 519 
Q 1375 441 1716 441 
Q 2309 441 2620 675 
Q 2931 909 2931 1356 
Q 2931 1769 2642 2001 
Q 2353 2234 1838 2234 
L 1294 2234 
L 1294 2753 
L 1863 2753 
Q 2328 2753 2575 2939 
Q 2822 3125 2822 3475 
Q 2822 3834 2567 4026 
Q 2313 4219 1838 4219 
Q 1578 4219 1281 4162 
Q 984 4106 628 3988 
L 628 4550 
Q 988 4650 1302 4700 
Q 1616 4750 1894 4750 
Q 2613 4750 3031 4423 
Q 3450 4097 3450 3541 
Q 3450 3153 3228 2886 
Q 3006 2619 2597 2516 
z
" transform="scale(0.015625)"/>
       </defs>
       <use xlink:href="#DejaVuSans-33"/>
       <use xlink:href="#DejaVuSans-2e" transform="translate(63.623047 0)"/>
       <use xlink:href="#DejaVuSans-30" transform="translate(95.410156 0)"/>
      </g>
     </g>
    </g>
    <g id="xtick_8">
     <g id="line2d_9">
      <g>
       <use xlink:href="#m832c7e8236" x="695.699281" y="310.12" style="stroke: #000000; stroke-width: 0.8"/>
      </g>
     </g>
     <g id="text_8">
      <!-- 3.5 -->
      <g transform="translate(686.952562 325.478281) scale(0.11 -0.11)">
       <use xlink:href="#DejaVuSans-33"/>
       <use xlink:href="#DejaVuSans-2e" transform="translate(63.623047 0)"/>
       <use xlink:href="#DejaVuSans-35" transform="translate(95.410156 0)"/>
      </g>
     </g>
    </g>
    <g id="text_9">
     <!-- Time (s) -->
     <g transform="translate(346.612687 342.40375) scale(0.14 -0.14)">
      <defs>
       <path id="DejaVuSans-Bold-54" d="M 31 4666 
L 4331 4666 
L 4331 3756 
L 2784 3756 
L 2784 0 
L 1581 0 
L 1581 3756 
L 31 3756 
L 31 4666 
z
" transform="scale(0.015625)"/>
       <path id="DejaVuSans-Bold-69" d="M 538 3500 
L 1656 3500 
L 1656 0 
L 538 0 
L 538 3500 
z
M 538 4863 
L 1656 4863 
L 1656 3950 
L 538 3950 
L 538 4863 
z
" transform="scale(0.015625)"/>
       <path id="DejaVuSans-Bold-6d" d="M 3781 2919 
Q 3994 3244 4286 3414 
Q 4578 3584 4928 3584 
Q 5531 3584 5847 3212 
Q 6163 2841 6163 2131 
L 6163 0 
L 5038 0 
L 5038 1825 
Q 5041 1866 5042 1909 
Q 5044 1953 5044 2034 
Q 5044 2406 4934 2573 
Q 4825 2741 4581 2741 
Q 4263 2741 4089 2478 
Q 3916 2216 3909 1719 
L 3909 0 
L 2784 0 
L 2784 1825 
Q 2784 2406 2684 2573 
Q 2584 2741 2328 2741 
Q 2006 2741 1831 2477 
Q 1656 2213 1656 1722 
L 1656 0 
L 531 0 
L 531 3500 
L 1656 3500 
L 1656 2988 
Q 1863 3284 2130 3434 
Q 2397 3584 2719 3584 
Q 3081 3584 3359 3409 
Q 3638 3234 3781 2919 
z
" transform="scale(0.015625)"/>
       <path id="DejaVuSans-Bold-65" d="M 4031 1759 
L 4031 1441 
L 1416 1441 
Q 1456 1047 1700 850 
Q 1944 653 2381 653 
Q 2734 653 3104 758 
Q 3475 863 3866 1075 
L 3866 213 
Q 3469 63 3072 -14 
Q 2675 -91 2278 -91 
Q 1328 -91 801 392 
Q 275 875 275 1747 
Q 275 2603 792 3093 
Q 1309 3584 2216 3584 
Q 3041 3584 3536 3087 
Q 4031 2591 4031 1759 
z
M 2881 2131 
Q 2881 2450 2695 2645 
Q 2509 2841 2209 2841 
Q 1884 2841 1681 2658 
Q 1478 2475 1428 2131 
L 2881 2131 
z
" transform="scale(0.015625)"/>
       <path id="DejaVuSans-Bold-20" transform="scale(0.015625)"/>
       <path id="DejaVuSans-Bold-28" d="M 2413 -844 
L 1484 -844 
Q 1006 -72 778 623 
Q 550 1319 550 2003 
Q 550 2688 779 3389 
Q 1009 4091 1484 4856 
L 2413 4856 
Q 2013 4116 1813 3408 
Q 1613 2700 1613 2009 
Q 1613 1319 1811 609 
Q 2009 -100 2413 -844 
z
" transform="scale(0.015625)"/>
       <path id="DejaVuSans-Bold-73" d="M 3272 3391 
L 3272 2541 
Q 2913 2691 2578 2766 
Q 2244 2841 1947 2841 
Q 1628 2841 1473 2761 
Q 1319 2681 1319 2516 
Q 1319 2381 1436 2309 
Q 1553 2238 1856 2203 
L 2053 2175 
Q 2913 2066 3209 1816 
Q 3506 1566 3506 1031 
Q 3506 472 3093 190 
Q 2681 -91 1863 -91 
Q 1516 -91 1145 -36 
Q 775 19 384 128 
L 384 978 
Q 719 816 1070 734 
Q 1422 653 1784 653 
Q 2113 653 2278 743 
Q 2444 834 2444 1013 
Q 2444 1163 2330 1236 
Q 2216 1309 1875 1350 
L 1678 1375 
Q 931 1469 631 1722 
Q 331 1975 331 2491 
Q 331 3047 712 3315 
Q 1094 3584 1881 3584 
Q 2191 3584 2531 3537 
Q 2872 3491 3272 3391 
z
" transform="scale(0.015625)"/>
       <path id="DejaVuSans-Bold-29" d="M 513 -844 
Q 913 -100 1113 609 
Q 1313 1319 1313 2009 
Q 1313 2700 1113 3408 
Q 913 4116 513 4856 
L 1441 4856 
Q 1916 4091 2145 3389 
Q 2375 2688 2375 2003 
Q 2375 1319 2147 623 
Q 1919 -72 1441 -844 
L 513 -844 
z
" transform="scale(0.015625)"/>
      </defs>
      <use xlink:href="#DejaVuSans-Bold-54"/>
      <use xlink:href="#DejaVuSans-Bold-69" transform="translate(68.212891 0)"/>
      <use xlink:href="#DejaVuSans-Bold-6d" transform="translate(102.490234 0)"/>
      <use xlink:href="#DejaVuSans-Bold-65" transform="translate(206.689453 0)"/>
      <use xlink:href="#DejaVuSans-Bold-20" transform="translate(274.511719 0)"/>
      <use xlink:href="#DejaVuSans-Bold-28" transform="translate(309.326172 0)"/>
      <use xlink:href="#DejaVuSans-Bold-73" transform="translate(355.029297 0)"/>
      <use xlink:href="#DejaVuSans-Bold-29" transform="translate(414.550781 0)"/>
     </g>
    </g>
   </g>
   <g id="matplotlib.axis_2">
    <g id="ytick_1">
     <g id="line2d_10">
      <defs>
       <path id="m0d814b83dd" d="M 0 0 
L -3.5 0 
" style="stroke: #000000; stroke-width: 0.8"/>
      </defs>
      <g>
       <use xlink:href="#m0d814b83dd" x="61.963281" y="292.045657" style="stroke: #000000; stroke-width: 0.8"/>
      </g>
     </g>
     <g id="text_10">
      <!-- −300 -->
      <g transform="translate(24.749375 296.224798) scale(0.11 -0.11)">
       <defs>
        <path id="DejaVuSans-2212" d="M 678 2272 
L 4684 2272 
L 4684 1741 
L 678 1741 
L 678 2272 
z
" transform="scale(0.015625)"/>
       </defs>
       <use xlink:href="#DejaVuSans-2212"/>
       <use xlink:href="#DejaVuSans-33" transform="translate(83.789062 0)"/>
       <use xlink:href="#DejaVuSans-30" transform="translate(147.412109 0)"/>
       <use xlink:href="#DejaVuSans-30" transform="translate(211.035156 0)"/>
      </g>
     </g>
    </g>
    <g id="ytick_2">
     <g id="line2d_11">
      <g>
       <use xlink:href="#m0d814b83dd" x="61.963281" y="247.583771" style="stroke: #000000; stroke-width: 0.8"/>
      </g>
     </g>
     <g id="text_11">
      <!-- −200 -->
      <g transform="translate(24.749375 251.762912) scale(0.11 -0.11)">
       <use xlink:href="#DejaVuSans-2212"/>
       <use xlink:href="#DejaVuSans-32" transform="translate(83.789062 0)"/>
       <use xlink:href="#DejaVuSans-30" transform="translate(147.412109 0)"/>
       <use xlink:href="#DejaVuSans-30" transform="translate(211.035156 0)"/>
      </g>
     </g>
    </g>
    <g id="ytick_3">
     <g id="line2d_12">
      <g>
       <use xlink:href="#m0d814b83dd" x="61.963281" y="203.121886" style="stroke: #000000; stroke-width: 0.8"/>
      </g>
     </g>
     <g id="text_12">
      <!-- −100 -->
      <g transform="translate(24.749375 207.301026) scale(0.11 -0.11)">
       <use xlink:href="#DejaVuSans-2212"/>
       <use xlink:href="#DejaVuSans-31" transform="translate(83.789062 0)"/>
       <use xlink:href="#DejaVuSans-30" transform="translate(147.412109 0)"/>
       <use xlink:href="#DejaVuSans-30" transform="translate(211.035156 0)"/>
      </g>
     </g>
    </g>
    <g id="ytick_4">
     <g id="line2d_13">
      <g>
       <use xlink:href="#m0d814b83dd" x="61.963281" y="158.66" style="stroke: #000000; stroke-width: 0.8"/>
      </g>
     </g>
     <g id="text_13">
      <!-- 0 -->
      <g transform="translate(47.964531 162.839141) scale(0.11 -0.11)">
       <use xlink:href="#DejaVuSans-30"/>
      </g>
     </g>
    </g>
    <g id="ytick_5">
     <g id="line2d_14">
      <g>
       <use xlink:href="#m0d814b83dd" x="61.963281" y="114.198114" style="stroke: #000000; stroke-width: 0.8"/>
      </g>
     </g>
     <g id="text_14">
      <!-- 100 -->
      <g transform="translate(33.967031 118.377255) scale(0.11 -0.11)">
       <use xlink:href="#DejaVuSans-31"/>
       <use xlink:href="#DejaVuSans-30" transform="translate(63.623047 0)"/>
       <use xlink:href="#DejaVuSans-30" transform="translate(127.246094 0)"/>
      </g>
     </g>
    </g>
    <g id="ytick_6">
     <g id="line2d_15">
      <g>
       <use xlink:href="#m0d814b83dd" x="61.963281" y="69.736229" style="stroke: #000000; stroke-width: 0.8"/>
      </g>
     </g>
     <g id="text_15">
      <!-- 200 -->
      <g transform="translate(33.967031 73.915369) scale(0.11 -0.11)">
       <use xlink:href="#DejaVuSans-32"/>
       <use xlink:href="#DejaVuSans-30" transform="translate(63.623047 0)"/>
       <use xlink:href="#DejaVuSans-30" transform="translate(127.246094 0)"/>
      </g>
     </g>
    </g>
    <g id="ytick_7">
     <g id="line2d_16">
      <g>
       <use xlink:href="#m0d814b83dd" x="61.963281" y="25.274343" style="stroke: #000000; stroke-width: 0.8"/>
      </g>
     </g>
     <g id="text_16">
      <!-- 300 -->
      <g transform="translate(33.967031 29.453483) scale(0.11 -0.11)">
       <use xlink:href="#DejaVuSans-33"/>
       <use xlink:href="#DejaVuSans-30" transform="translate(63.623047 0)"/>
       <use xlink:href="#DejaVuSans-30" transform="translate(127.246094 0)"/>
      </g>
     </g>
    </g>
    <g id="text_17">
     <!-- V$_{oc}$ (V) -->
     <g transform="translate(17.837813 184.35) rotate(-90) scale(0.14 -0.14)">
      <defs>
       <path id="DejaVuSans-Bold-56" d="M 31 4666 
L 1241 4666 
L 2478 1222 
L 3713 4666 
L 4922 4666 
L 3194 0 
L 1759 0 
L 31 4666 
z
" transform="scale(0.015625)"/>
       <path id="DejaVuSans-Oblique-6f" d="M 1625 -91 
Q 1009 -91 651 289 
Q 294 669 294 1325 
Q 294 1706 417 2101 
Q 541 2497 738 2766 
Q 1047 3184 1428 3384 
Q 1809 3584 2291 3584 
Q 2888 3584 3255 3212 
Q 3622 2841 3622 2241 
Q 3622 1825 3500 1412 
Q 3378 1000 3181 728 
Q 2875 309 2494 109 
Q 2113 -91 1625 -91 
z
M 891 1344 
Q 891 869 1089 633 
Q 1288 397 1691 397 
Q 2269 397 2648 901 
Q 3028 1406 3028 2181 
Q 3028 2634 2825 2865 
Q 2622 3097 2228 3097 
Q 1903 3097 1650 2945 
Q 1397 2794 1197 2484 
Q 1050 2253 970 1956 
Q 891 1659 891 1344 
z
" transform="scale(0.015625)"/>
       <path id="DejaVuSans-Oblique-63" d="M 3431 3366 
L 3316 2797 
Q 3109 2947 2876 3022 
Q 2644 3097 2394 3097 
Q 2119 3097 1870 3000 
Q 1622 2903 1453 2725 
Q 1184 2453 1037 2087 
Q 891 1722 891 1331 
Q 891 859 1127 628 
Q 1363 397 1844 397 
Q 2081 397 2348 469 
Q 2616 541 2906 684 
L 2797 116 
Q 2547 13 2283 -39 
Q 2019 -91 1741 -91 
Q 1044 -91 669 257 
Q 294 606 294 1253 
Q 294 1797 489 2255 
Q 684 2713 1069 3078 
Q 1331 3328 1684 3456 
Q 2038 3584 2456 3584 
Q 2700 3584 2940 3529 
Q 3181 3475 3431 3366 
z
" transform="scale(0.015625)"/>
      </defs>
      <use xlink:href="#DejaVuSans-Bold-56" transform="translate(0 0.125)"/>
      <use xlink:href="#DejaVuSans-Oblique-6f" transform="translate(78.349609 -16.28125) scale(0.7)"/>
      <use xlink:href="#DejaVuSans-Oblique-63" transform="translate(121.176758 -16.28125) scale(0.7)"/>
      <use xlink:href="#DejaVuSans-Bold-20" transform="translate(162.397461 0.125)"/>
      <use xlink:href="#DejaVuSans-Bold-28" transform="translate(197.211914 0.125)"/>
      <use xlink:href="#DejaVuSans-Bold-56" transform="translate(242.915039 0.125)"/>
      <use xlink:href="#DejaVuSans-Bold-29" transform="translate(320.307617 0.125)"/>
     </g>
    </g>
   </g>
   <g id="patch_5">
    <path d="M 61.963281 310.12 
L 61.963281 7.2 
" style="fill: none; stroke: #000000; stroke-width: 0.8; stroke-linejoin: miter; stroke-linecap: square"/>
   </g>
   <g id="patch_6">
    <path d="M 61.963281 310.12 
L 695.699281 310.12 
" style="fill: none; stroke: #000000; stroke-width: 0.8; stroke-linejoin: miter; stroke-linecap: square"/>
   </g>
   <g id="line2d_17">
    <path d="M 61.963281 51.686924 
L 62.325416 52.274037 
L 63.230753 53.17414 
L 63.955023 53.68829 
L 64.317158 54.097428 
L 65.041428 55.00435 
L 65.403562 55.26688 
L 65.946765 55.616693 
L 66.3089 56.369506 
L 67.033169 57.858085 
L 67.576372 59.627606 
L 68.119574 62.218128 
L 68.662776 66.143119 
L 69.205978 72.306089 
L 69.749181 82.451316 
L 70.111316 93.092268 
L 70.654518 118.130695 
L 72.284125 201.50705 
L 73.189462 239.101809 
L 73.732664 253.684062 
L 73.913732 255.872934 
L 74.094799 256.31139 
L 74.275866 254.90874 
L 74.638001 247.774113 
L 75.181204 230.848884 
L 75.905473 198.440597 
L 78.440417 77.370496 
L 78.98362 62.758861 
L 79.526822 54.756818 
L 80.070024 50.219481 
L 80.613226 47.985589 
L 81.699631 46.203793 
L 82.061766 45.968539 
L 82.786036 45.900349 
L 83.510305 46.081734 
L 83.87244 46.321762 
L 84.777777 46.247435 
L 85.139912 46.201066 
L 87.131654 46.286985 
L 88.218058 46.2638 
L 88.580193 46.252208 
L 88.942328 46.329263 
L 89.123396 46.304032 
L 89.304463 46.574746 
L 89.666598 46.60884 
L 90.2098 46.613614 
L 90.390868 46.633389 
L 90.571935 46.492918 
L 90.753002 46.537923 
L 90.93407 46.788179 
L 91.115137 46.725445 
L 91.296205 46.95047 
L 92.201542 47.19118 
L 92.744744 47.584634 
L 92.925812 47.639186 
L 93.106879 47.540311 
L 93.650081 47.966496 
L 94.193284 48.396091 
L 94.374351 48.727493 
L 94.555418 48.792955 
L 94.736486 48.717947 
L 94.917553 48.977749 
L 95.098621 48.983886 
L 96.366093 50.258351 
L 97.27143 51.258693 
L 97.633565 52.115837 
L 97.814632 52.148568 
L 101.073846 55.517136 
L 101.435981 55.43599 
L 101.798116 56.101521 
L 102.522385 57.266882 
L 103.60879 60.6184 
L 103.970925 62.836607 
L 104.514127 66.992761 
L 105.057329 73.701245 
L 105.419464 80.449274 
L 105.781599 90.457432 
L 106.324801 114.361874 
L 108.316543 214.611655 
L 109.040813 242.719245 
L 109.402948 252.398697 
L 109.765082 256.483908 
L 109.94615 255.82111 
L 110.127217 253.521773 
L 110.489352 245.154286 
L 111.032554 226.091324 
L 111.937892 183.59716 
L 114.110701 79.050001 
L 114.653903 63.592136 
L 115.197105 54.976388 
L 115.740308 50.250848 
L 116.28351 47.717604 
L 116.645645 46.557016 
L 117.188847 45.765334 
L 117.550982 45.548491 
L 117.913117 45.373244 
L 118.275252 45.47621 
L 120.085926 45.901031 
L 122.801937 46.252208 
L 126.061151 46.30676 
L 126.785421 46.453368 
L 127.328623 46.581564 
L 128.052893 46.926604 
L 128.415028 47.21641 
L 130.768904 48.890466 
L 131.131039 49.030255 
L 131.312106 49.421664 
L 131.674241 49.552588 
L 132.760646 50.364727 
L 133.122781 50.559067 
L 133.303848 50.924564 
L 133.665983 51.125041 
L 134.028118 51.560773 
L 134.209185 51.675332 
L 134.752388 52.666127 
L 137.468399 55.089587 
L 138.192669 56.188122 
L 139.279073 59.595556 
L 139.822276 62.73705 
L 140.365478 67.451676 
L 140.90868 74.898652 
L 141.270815 82.514049 
L 141.63295 93.843032 
L 142.176152 119.624038 
L 143.805759 202.879017 
L 144.711096 240.278753 
L 145.254298 254.509833 
L 145.435366 256.466179 
L 145.616433 256.57119 
L 145.797501 254.878736 
L 146.159636 247.334975 
L 146.702838 229.819908 
L 147.427108 197.543907 
L 149.780984 82.31218 
L 150.324186 65.455072 
L 150.867389 55.648055 
L 151.229524 51.943315 
L 151.772726 48.602023 
L 152.315928 46.834548 
L 153.040198 45.754424 
L 153.764468 45.495303 
L 154.126602 45.577812 
L 154.488737 45.868982 
L 155.213007 45.912624 
L 156.299412 46.031274 
L 156.842614 46.019682 
L 158.291153 46.167653 
L 159.19649 46.40018 
L 159.377558 46.418591 
L 159.739693 46.301987 
L 163.179974 46.179245 
L 163.542109 46.392679 
L 163.904244 46.46837 
L 164.628513 46.79568 
L 165.171716 46.962745 
L 165.352783 47.127082 
L 165.714918 47.61191 
L 169.155199 50.892515 
L 169.336266 50.785457 
L 170.060536 51.488492 
L 171.509076 52.880243 
L 171.690143 53.002984 
L 172.233345 53.684199 
L 172.414413 53.850581 
L 172.957615 54.603395 
L 174.04402 56.460198 
L 174.406154 57.303704 
L 174.949357 59.271656 
L 175.492559 62.278817 
L 176.035761 66.709774 
L 176.578964 73.611234 
L 177.122166 85.198667 
L 177.484301 97.795286 
L 178.20857 134.747733 
L 179.838177 215.236951 
L 180.562447 243.27976 
L 180.924582 252.871929 
L 181.105649 255.583811 
L 181.286717 256.53505 
L 181.467784 255.681322 
L 181.829919 249.045158 
L 182.373121 232.790911 
L 183.097391 200.909727 
L 185.813402 71.495974 
L 186.356605 58.518152 
L 186.899807 51.78716 
L 187.443009 48.276077 
L 187.986212 46.565881 
L 188.348346 45.999225 
L 189.615818 45.662368 
L 189.977953 46.138331 
L 190.521156 46.521558 
L 191.426493 46.722035 
L 191.60756 46.669529 
L 191.969695 46.737037 
L 193.237167 46.747265 
L 193.418234 46.771131 
L 193.599302 46.530422 
L 194.142504 46.51883 
L 197.94492 46.370858 
L 200.298797 47.002977 
L 200.841999 47.433253 
L 201.566269 48.051734 
L 202.109471 48.688625 
L 205.549752 52.034691 
L 205.911887 52.256308 
L 207.179359 53.757162 
L 208.990033 55.17687 
L 209.533236 56.311545 
L 209.89537 57.192555 
L 210.438573 58.737731 
L 210.981775 61.101865 
L 211.524977 64.743187 
L 212.06818 70.288361 
L 212.611382 79.368472 
L 212.973517 88.736332 
L 213.516719 111.781592 
L 215.689528 220.335458 
L 216.413798 247.012435 
L 216.775933 255.009659 
L 216.957 256.714387 
L 217.138068 256.5821 
L 217.319135 254.630528 
L 217.68127 246.914248 
L 218.224472 229.203478 
L 219.129809 186.89479 
L 221.302618 79.906454 
L 221.845821 63.087531 
L 222.389023 53.89149 
L 222.932225 49.237551 
L 223.29436 47.751698 
L 223.656495 46.668165 
L 224.199697 45.99036 
L 224.7429 45.705327 
L 225.467169 46.036047 
L 226.191439 46.509283 
L 226.553574 46.499055 
L 226.915709 46.472461 
L 227.096776 46.236525 
L 228.545316 46.171744 
L 229.450653 46.141741 
L 229.812788 45.953537 
L 231.985597 46.134922 
L 232.528799 46.077643 
L 233.434136 46.197657 
L 234.339473 46.366767 
L 235.425878 46.732264 
L 237.055485 47.690328 
L 237.598687 48.23721 
L 237.779754 48.227663 
L 238.322957 48.779999 
L 239.047226 49.650781 
L 240.495766 51.202096 
L 240.857901 51.730565 
L 241.944305 52.750001 
L 243.211777 53.830125 
L 243.392845 53.675334 
L 245.022452 55.369846 
L 245.565654 56.383144 
L 246.470991 59.443494 
L 247.014193 62.407695 
L 247.738463 69.092998 
L 248.281665 77.532811 
L 248.6438 86.337429 
L 249.005935 99.484335 
L 249.911272 146.59016 
L 251.359812 217.386955 
L 252.084081 245.06086 
L 252.446216 254.126609 
L 252.627284 256.528231 
L 252.808351 257.116021 
L 252.989418 255.866115 
L 253.351553 248.937419 
L 253.894756 232.111065 
L 254.619025 199.629814 
L 257.153969 75.596883 
L 257.697172 60.383816 
L 258.240374 52.513379 
L 258.783576 48.573383 
L 259.145711 47.24164 
L 259.507846 46.404271 
L 259.869981 46.117193 
L 260.051048 45.808975 
L 260.413183 45.74215 
L 260.775318 45.847843 
L 261.861722 46.582928 
L 262.585992 46.6593 
L 263.853464 46.439048 
L 264.396666 46.398134 
L 266.750543 46.438366 
L 267.112678 46.479962 
L 268.018015 46.473143 
L 268.199082 46.531104 
L 268.561217 46.418591 
L 269.647622 46.357902 
L 270.009757 46.347674 
L 270.190824 46.345628 
L 270.552959 46.582246 
L 270.915094 46.695441 
L 271.458296 47.019342 
L 272.001498 47.3637 
L 272.363633 47.778293 
L 273.26897 48.635437 
L 273.99324 49.913993 
L 274.355375 50.219483 
L 274.71751 50.365409 
L 275.44178 50.840008 
L 275.984982 51.405983 
L 276.166049 51.543726 
L 276.528184 52.102881 
L 277.071386 52.612939 
L 277.795656 52.559752 
L 278.338858 53.150274 
L 278.700993 53.675334 
L 279.425263 54.236535 
L 280.511668 54.953208 
L 281.235937 56.188804 
L 281.960207 58.133571 
L 282.503409 60.496341 
L 283.046612 64.097432 
L 283.589814 69.785803 
L 284.133016 79.032979 
L 284.495151 88.875437 
L 285.038353 112.526897 
L 286.849028 205.219271 
L 287.754365 242.130772 
L 288.1165 252.271865 
L 288.478634 256.813943 
L 288.659702 256.427311 
L 289.021837 250.472356 
L 289.383972 241.127718 
L 289.927174 220.411163 
L 291.013578 166.489153 
L 292.643185 85.373877 
L 293.186388 66.505186 
L 293.72959 55.525994 
L 294.091725 51.743518 
L 294.634927 48.285623 
L 295.178129 46.473143 
L 295.721332 45.828068 
L 296.083466 45.763288 
L 296.264534 45.82875 
L 296.445601 45.736013 
L 296.626669 45.890121 
L 296.807736 45.828068 
L 297.350938 46.314261 
L 297.713073 46.378359 
L 297.894141 46.130831 
L 298.799478 46.188792 
L 298.980545 46.005362 
L 300.06695 45.851935 
L 300.248017 46.003316 
L 301.515489 46.022409 
L 301.877624 46.083098 
L 302.058692 45.924216 
L 302.601894 45.954219 
L 302.964029 46.117875 
L 304.231501 46.342219 
L 304.412568 46.559744 
L 305.317905 46.520193 
L 305.68004 46.520876 
L 305.861108 46.865233 
L 307.490714 47.203454 
L 308.033917 47.508262 
L 308.214984 47.442118 
L 308.577119 47.714195 
L 308.939254 48.181976 
L 310.206726 49.565544 
L 311.29313 50.819552 
L 311.655265 51.045942 
L 312.379535 51.697153 
L 312.560602 51.650784 
L 313.46594 52.448603 
L 313.647007 52.33268 
L 316.181951 54.484063 
L 317.087288 55.978098 
L 317.449423 57.06504 
L 317.992625 59.036401 
L 318.35476 60.846153 
L 318.897962 64.750006 
L 319.441165 71.037762 
L 319.984367 81.418244 
L 320.346502 92.541296 
L 320.889704 118.164786 
L 322.338244 193.382983 
L 323.424648 239.750287 
L 323.96785 254.427324 
L 324.148918 256.569826 
L 324.329985 257.013737 
L 324.511053 255.45698 
L 324.873188 247.980044 
L 325.235322 237.523239 
L 325.778525 215.325611 
L 327.045997 150.983591 
L 328.313469 87.823237 
L 329.037738 62.869321 
L 329.399873 55.807616 
L 329.943076 50.014911 
L 330.667345 46.527012 
L 331.391615 45.378699 
L 331.75375 45.328238 
L 332.115885 45.450979 
L 332.47802 45.691689 
L 333.021222 46.308806 
L 333.564424 46.356539 
L 333.564424 46.356539 
" clip-path="url(#p0fdb9fc743)" style="fill: none; stroke: #333333; stroke-width: 0.8; stroke-linecap: square"/>
   </g>
   <g id="line2d_18">
    <path d="M 333.564424 62.180625 
L 335.918301 63.101184 
L 336.461503 63.440769 
L 337.004705 64.029927 
L 337.728975 64.73978 
L 338.453245 65.578512 
L 338.996447 66.564533 
L 339.177514 66.911618 
L 339.539649 67.896276 
L 340.444986 70.192218 
L 341.169256 72.695456 
L 341.893526 76.252222 
L 342.436728 79.940593 
L 342.97993 85.058213 
L 343.342065 89.663046 
L 343.885268 100.465609 
L 344.247402 112.466927 
L 346.963414 229.826042 
L 347.506616 243.351367 
L 347.687684 245.252481 
L 347.868751 245.300213 
L 348.049818 243.004284 
L 348.411953 232.514746 
L 349.31729 195.061831 
L 351.671167 93.116141 
L 352.214369 79.891487 
L 352.757572 71.751709 
L 353.300774 66.577487 
L 353.843976 63.19324 
L 354.387178 61.111411 
L 354.930381 59.300978 
L 355.65465 58.134935 
L 356.37892 57.566234 
L 356.922122 57.191191 
L 357.284257 57.198692 
L 357.465325 56.793646 
L 357.646392 56.857062 
L 357.82746 56.784781 
L 358.370662 57.063677 
L 361.086673 57.538276 
L 361.267741 57.834901 
L 362.173078 58.180623 
L 363.259482 58.785465 
L 364.526954 59.656928 
L 365.794426 60.845472 
L 366.337629 61.017311 
L 367.967236 61.946053 
L 368.510438 61.81922 
L 368.691505 62.104252 
L 368.872573 61.947417 
L 369.234708 62.104252 
L 369.415775 61.84445 
L 370.864314 62.73637 
L 371.045382 63.015947 
L 371.769652 63.324846 
L 371.950719 63.596241 
L 372.131786 63.572375 
L 372.312854 63.691706 
L 372.493921 63.61397 
L 373.218191 64.235177 
L 373.761393 64.681819 
L 375.391 66.628632 
L 375.934202 67.737394 
L 376.83954 70.025835 
L 378.288079 76.076975 
L 378.831281 79.705339 
L 379.374484 84.810685 
L 379.917686 92.642242 
L 380.279821 100.614262 
L 380.641956 112.526252 
L 383.357967 230.364736 
L 383.901169 243.632306 
L 384.082237 245.4325 
L 384.263304 245.264755 
L 384.444372 243.022695 
L 384.806506 232.354502 
L 385.711844 194.767935 
L 388.06572 92.548123 
L 388.608922 79.46053 
L 389.152125 71.605102 
L 389.695327 66.59249 
L 390.238529 63.502139 
L 390.781732 61.491228 
L 391.687069 59.754439 
L 392.049204 59.409399 
L 392.954541 58.379054 
L 394.40308 57.890135 
L 394.584148 57.876497 
L 394.946282 57.497363 
L 395.308417 57.587373 
L 395.489485 57.565553 
L 395.85162 57.335753 
L 397.300159 57.490544 
L 397.662294 57.662382 
L 398.748698 58.023786 
L 399.472968 58.487476 
L 402.007912 59.727163 
L 402.732182 60.057883 
L 403.456452 60.415878 
L 404.361789 60.893887 
L 404.723924 60.97026 
L 406.896733 62.244042 
L 407.439935 62.484069 
L 407.983137 62.789558 
L 408.164205 62.755463 
L 408.52634 63.140735 
L 409.069542 63.493957 
L 410.337014 64.508617 
L 411.242351 65.61738 
L 411.604486 66.119255 
L 412.328756 67.454407 
L 413.053025 69.3078 
L 413.777295 71.716255 
L 414.320497 74.049019 
L 415.044767 78.335412 
L 415.587969 83.009801 
L 416.131172 89.776241 
L 416.493306 96.477213 
L 416.855441 106.169647 
L 417.398644 130.354329 
L 418.847183 197.35161 
L 419.75252 230.727502 
L 420.295722 243.807552 
L 420.47679 245.549104 
L 420.657857 245.620702 
L 420.838925 243.236809 
L 421.20106 232.231761 
L 422.106397 194.336979 
L 424.460273 92.292412 
L 425.003476 79.092306 
L 425.546678 71.216421 
L 426.270948 64.653178 
L 426.81415 61.975374 
L 427.53842 59.465315 
L 428.081622 58.389965 
L 429.711229 57.091635 
L 430.073364 57.063677 
L 430.254431 56.998215 
L 430.435498 56.630673 
L 430.616566 56.691362 
L 430.978701 56.589759 
L 431.340836 56.865927 
L 433.332577 57.089589 
L 434.056847 57.338481 
L 434.781117 57.821263 
L 435.324319 58.012876 
L 436.591791 58.729549 
L 438.402465 59.907866 
L 440.394207 60.984579 
L 441.118477 61.394399 
L 441.299544 61.330982 
L 442.023814 61.655565 
L 442.385949 62.000604 
L 443.472353 62.389285 
L 444.37769 62.771147 
L 444.920893 63.060953 
L 445.283028 63.427813 
L 445.464095 63.40872 
L 446.188365 63.902412 
L 446.5505 64.222222 
L 446.912634 64.76501 
L 447.636904 65.594196 
L 448.361174 66.831836 
L 449.085444 68.382467 
L 450.533983 73.577147 
L 451.077185 76.342232 
L 451.620388 80.035376 
L 452.16359 85.224595 
L 452.706792 93.238899 
L 453.068927 101.382756 
L 453.431062 113.688198 
L 455.966006 225.3351 
L 456.509208 240.907466 
L 456.871343 245.575015 
L 457.05241 245.240888 
L 457.233478 242.66743 
L 457.595613 231.80967 
L 458.682017 185.723998 
L 460.854826 92.449249 
L 461.398029 79.502126 
L 461.941231 71.922183 
L 462.484433 67.02072 
L 463.027636 63.752394 
L 463.570838 61.593512 
L 463.932973 60.818878 
L 465.200445 58.179259 
L 465.381512 57.995147 
L 465.56258 57.594874 
L 466.286849 57.138003 
L 466.467917 57.124366 
L 466.648984 56.987986 
L 467.554321 57.032992 
L 467.735389 56.780008 
L 467.916456 56.773871 
L 468.278591 56.915024 
L 468.821793 56.938208 
L 469.002861 56.741822 
L 470.270333 57.067086 
L 470.632468 57.32007 
L 471.356737 57.482361 
L 471.537805 57.415535 
L 472.624209 58.084475 
L 472.986344 58.549529 
L 474.253816 59.293477 
L 474.434884 59.246427 
L 475.159153 59.675339 
L 475.521288 60.027879 
L 475.883423 60.19358 
L 476.245558 60.576124 
L 478.056232 61.690342 
L 478.418367 61.983557 
L 478.599434 62.052429 
L 478.780502 62.371556 
L 479.685839 62.679091 
L 479.866906 62.568624 
L 480.047974 62.659316 
L 480.229041 62.589762 
L 480.591176 62.960032 
L 480.772244 62.884342 
L 481.315446 63.279159 
L 482.039716 63.483046 
L 482.40185 63.838996 
L 482.582918 63.74353 
L 483.85039 65.264158 
L 484.031457 65.629655 
L 484.212525 65.623517 
L 484.393592 65.890821 
L 484.755727 66.660681 
L 484.936794 66.895253 
L 485.842132 69.274386 
L 486.385334 71.028222 
L 487.290671 74.865247 
L 487.833873 78.305408 
L 488.558143 85.0248 
L 489.101345 93.324817 
L 489.46348 101.520498 
L 489.825615 113.905039 
L 492.360559 225.536941 
L 492.903761 240.707672 
L 493.265896 245.294758 
L 493.446964 244.888351 
L 493.628031 242.445815 
L 493.990166 231.202105 
L 494.895503 193.335962 
L 497.24938 92.123303 
L 497.792582 79.134585 
L 498.335784 71.267563 
L 498.878986 66.529755 
L 499.422189 63.225971 
L 500.327526 59.435993 
L 501.232863 57.64397 
L 501.594998 57.229378 
L 501.776065 57.174826 
L 502.681402 56.327911 
L 503.043537 56.394737 
L 503.224605 56.276087 
L 503.58674 56.440424 
L 504.129942 56.73773 
L 504.492077 56.721365 
L 505.759549 56.853653 
L 506.121684 56.882975 
L 507.389156 57.331662 
L 507.75129 57.667837 
L 508.656628 58.126753 
L 509.19983 58.520889 
L 509.9241 59.007763 
L 511.191572 59.684204 
L 511.372639 59.572373 
L 512.640111 60.117208 
L 512.821178 60.409741 
L 513.545448 60.750689 
L 513.726516 61.058224 
L 514.269718 61.237563 
L 514.81292 61.478272 
L 514.993988 61.742848 
L 515.175055 61.724436 
L 516.26146 62.384512 
L 516.442527 62.435654 
L 516.623594 62.34428 
L 517.166797 62.590445 
L 517.347864 62.740462 
L 517.528932 62.580898 
L 518.253201 62.968897 
L 518.796404 63.181648 
L 519.158538 63.611924 
L 519.520673 63.844451 
L 521.15028 66.245406 
L 521.693482 67.535553 
L 522.417752 69.654203 
L 522.960954 71.556009 
L 523.866292 76.051745 
L 524.409494 79.804896 
L 524.952696 85.123675 
L 525.495898 93.219124 
L 525.858033 101.512997 
L 526.220168 113.930269 
L 528.574045 219.042601 
L 529.298314 240.956562 
L 529.660449 245.523874 
L 529.841517 245.149515 
L 530.022584 242.42263 
L 530.384719 230.886389 
L 531.290056 193.205039 
L 533.643933 91.566878 
L 534.187135 78.923196 
L 534.730337 70.742504 
L 535.454607 64.994808 
L 535.997809 62.312231 
L 537.084214 59.235516 
L 537.627416 58.372236 
L 538.894888 57.006398 
L 539.075956 56.983895 
L 539.43809 56.808648 
L 540.88663 56.614989 
L 542.335169 56.796373 
L 544.507978 57.686248 
L 546.137585 58.735686 
L 546.49972 59.150961 
L 547.405057 59.493955 
L 549.577866 60.764327 
L 549.940001 60.880249 
L 550.121069 60.734324 
L 550.845338 61.028903 
L 552.474945 61.941961 
L 552.656013 61.789898 
L 553.018148 62.069476 
L 553.380282 62.384512 
L 554.104552 62.932075 
L 554.28562 62.941621 
L 555.372024 63.826722 
L 555.553092 64.050383 
L 555.734159 64.077659 
L 556.820564 65.407356 
L 557.906968 67.150964 
L 559.536575 72.158123 
L 560.260845 75.796716 
L 560.804047 79.624875 
L 561.347249 85.058213 
L 561.890452 93.267538 
L 562.252586 101.720292 
L 562.614721 114.581476 
L 564.968598 219.608571 
L 565.692868 241.345923 
L 566.055002 245.656843 
L 566.23607 245.009728 
L 566.417137 242.091913 
L 566.779272 230.511349 
L 567.684609 192.706576 
L 570.038486 91.232067 
L 570.581688 78.712491 
L 571.12489 70.867972 
L 571.668093 65.832858 
L 572.211295 62.703638 
L 572.754497 60.66477 
L 573.478767 58.772509 
L 573.840902 58.353824 
L 574.203037 57.961052 
L 574.565172 57.375303 
L 575.651576 56.819558 
L 576.194778 56.725456 
L 577.100116 56.621808 
L 578.005453 56.51816 
L 578.91079 56.658631 
L 579.272925 56.801829 
L 579.63506 56.846152 
L 580.540397 57.189828 
L 581.807869 57.898318 
L 581.988936 58.236538 
L 582.351071 58.407012 
L 583.618543 59.159144 
L 583.980678 59.249836 
L 584.52388 59.542369 
L 584.704948 59.688977 
L 584.886015 60.271316 
L 585.610285 60.707047 
L 585.791352 60.566577 
L 587.239892 61.28325 
L 587.420959 61.316663 
L 587.783094 61.574419 
L 588.507364 61.798081 
L 588.688431 61.39099 
L 588.869498 61.366441 
L 589.231633 61.455088 
L 589.774836 61.714208 
L 590.86124 62.344962 
L 591.58551 62.878887 
L 592.490847 63.86218 
L 593.396184 65.352123 
L 594.301521 67.084138 
L 595.025791 69.074591 
L 595.568993 70.922528 
L 595.931128 72.370874 
L 597.379668 81.620781 
L 597.92287 87.736013 
L 598.466072 97.530057 
L 598.828207 107.914611 
L 599.371409 132.899152 
L 600.819949 199.120438 
L 601.725286 232.044236 
L 602.268488 244.271239 
L 602.449556 245.510918 
L 602.630623 244.691966 
L 602.81169 241.574358 
L 603.354893 222.8087 
L 604.622365 167.130155 
L 606.251972 95.877127 
L 606.795174 81.310508 
L 607.338376 72.318364 
L 607.881578 66.864566 
L 608.424781 63.277113 
L 608.967983 61.002308 
L 609.87332 59.105274 
L 610.59759 58.102205 
L 611.32186 57.50009 
L 612.046129 57.21574 
L 613.313601 57.047311 
L 613.494669 56.852289 
L 615.305343 57.075951 
L 615.848545 57.233469 
L 617.116017 57.700568 
L 618.745624 58.525662 
L 619.288826 58.769781 
L 619.650961 59.028902 
L 621.280568 59.686931 
L 621.461636 59.679431 
L 621.82377 59.896955 
L 622.185905 60.039471 
L 622.366973 60.319731 
L 623.091242 60.54612 
L 623.453377 60.637494 
L 623.815512 60.820243 
L 623.99658 61.086864 
L 625.082984 61.512367 
L 625.626186 61.956963 
L 627.980063 63.420312 
L 629.066468 64.640905 
L 629.60967 65.303708 
L 629.790737 65.716937 
L 629.971805 65.77899 
L 630.515007 66.756146 
L 631.963546 70.687956 
L 632.687816 73.672612 
L 633.231018 76.785464 
L 633.774221 81.071174 
L 634.317423 87.154356 
L 634.679558 93.164572 
L 635.041693 101.864853 
L 635.403828 115.146764 
L 637.576637 213.60792 
L 638.300906 237.568924 
L 638.663041 244.488762 
L 638.844109 245.547058 
L 639.025176 244.584909 
L 639.387311 236.2181 
L 640.473716 191.447803 
L 642.827592 90.341514 
L 643.370794 78.044234 
L 643.913997 70.475201 
L 644.638266 64.321777 
L 645.181469 61.811719 
L 645.905738 59.604422 
L 646.448941 58.633402 
L 647.17321 57.577145 
L 647.89748 57.023445 
L 649.164952 56.60476 
L 649.527087 56.702272 
L 650.070289 56.683861 
L 650.432424 56.672268 
L 651.880964 56.710454 
L 654.053773 57.605102 
L 654.596975 58.046289 
L 655.140177 58.441789 
L 655.502312 58.998898 
L 658.037256 60.667498 
L 658.399391 61.014583 
L 658.761526 61.038449 
L 659.123661 61.106639 
L 659.304728 61.068453 
L 659.84793 61.343257 
L 660.210065 61.41281 
L 660.5722 61.692387 
L 660.753268 61.893547 
L 661.115402 61.778306 
L 661.839672 62.136302 
L 662.02074 62.051747 
L 663.831414 63.069135 
L 664.374616 63.545781 
L 664.555684 63.571693 
L 665.098886 64.158805 
L 665.642088 64.80797 
L 666.18529 65.623517 
L 667.995965 70.04902 
L 668.720234 72.814788 
L 669.444504 76.584987 
L 669.987706 80.542024 
L 670.530909 86.074918 
L 670.893044 91.106616 
L 671.255178 98.315599 
L 671.617313 109.027461 
L 672.160516 134.373403 
L 673.609055 200.722885 
L 674.514392 233.394381 
L 674.876527 242.417856 
L 675.057594 245.158379 
L 675.238662 246.100754 
L 675.419729 244.903352 
L 675.781864 236.061264 
L 676.687201 199.136136 
L 679.041078 95.73734 
L 679.58428 81.487802 
L 680.127482 72.5618 
L 680.670685 67.127777 
L 681.213887 63.530778 
L 681.757089 61.172782 
L 682.481359 59.163235 
L 683.205629 58.076292 
L 683.748831 57.596238 
L 684.110966 57.417581 
L 684.835236 57.143458 
L 685.92164 57.115501 
L 686.102708 56.889793 
L 686.64591 56.861154 
L 687.189112 56.867973 
L 688.094449 56.934798 
L 689.724056 57.343936 
L 690.086191 57.665791 
L 690.448326 57.890135 
L 690.810461 58.354506 
L 693.888607 59.748984 
L 694.250742 59.986283 
L 695.699281 60.738415 
L 695.699281 60.738415 
" clip-path="url(#p0fdb9fc743)" style="fill: none; stroke: #d94452; stroke-width: 0.8; stroke-linecap: square"/>
   </g>
   <g id="text_18">
    <g id="patch_7">
     <path d="M 155.513853 297.974 
L 240.013853 297.974 
Q 243.013853 297.974 243.013853 294.974 
L 243.013853 284.374 
Q 243.013853 281.374 240.013853 281.374 
L 155.513853 281.374 
Q 152.513853 281.374 152.513853 284.374 
L 152.513853 294.974 
Q 152.513853 297.974 155.513853 297.974 
z
" style="fill: #ffffff; opacity: 0.85; stroke: #333333; stroke-linejoin: miter"/>
    </g>
    <!-- V$_{p-p}$ = 476.35 V -->
    <g style="fill: #333333" transform="translate(155.513853 291.874) scale(0.1 -0.1)">
     <defs>
      <path id="DejaVuSans-56" d="M 1831 0 
L 50 4666 
L 709 4666 
L 2188 738 
L 3669 4666 
L 4325 4666 
L 2547 0 
L 1831 0 
z
" transform="scale(0.015625)"/>
      <path id="DejaVuSans-Oblique-70" d="M 3175 2156 
Q 3175 2616 2975 2859 
Q 2775 3103 2400 3103 
Q 2144 3103 1911 2972 
Q 1678 2841 1497 2591 
Q 1319 2344 1212 1994 
Q 1106 1644 1106 1300 
Q 1106 863 1306 627 
Q 1506 391 1875 391 
Q 2147 391 2380 519 
Q 2613 647 2778 891 
Q 2956 1147 3065 1494 
Q 3175 1841 3175 2156 
z
M 1394 2969 
Q 1625 3272 1939 3428 
Q 2253 3584 2638 3584 
Q 3175 3584 3472 3232 
Q 3769 2881 3769 2247 
Q 3769 1728 3584 1258 
Q 3400 788 3053 416 
Q 2822 169 2531 39 
Q 2241 -91 1919 -91 
Q 1547 -91 1294 64 
Q 1041 219 916 525 
L 556 -1331 
L -19 -1331 
L 922 3500 
L 1497 3500 
L 1394 2969 
z
" transform="scale(0.015625)"/>
      <path id="DejaVuSans-20" transform="scale(0.015625)"/>
      <path id="DejaVuSans-3d" d="M 678 2906 
L 4684 2906 
L 4684 2381 
L 678 2381 
L 678 2906 
z
M 678 1631 
L 4684 1631 
L 4684 1100 
L 678 1100 
L 678 1631 
z
" transform="scale(0.015625)"/>
      <path id="DejaVuSans-34" d="M 2419 4116 
L 825 1625 
L 2419 1625 
L 2419 4116 
z
M 2253 4666 
L 3047 4666 
L 3047 1625 
L 3713 1625 
L 3713 1100 
L 3047 1100 
L 3047 0 
L 2419 0 
L 2419 1100 
L 313 1100 
L 313 1709 
L 2253 4666 
z
" transform="scale(0.015625)"/>
      <path id="DejaVuSans-37" d="M 525 4666 
L 3525 4666 
L 3525 4397 
L 1831 0 
L 1172 0 
L 2766 4134 
L 525 4134 
L 525 4666 
z
" transform="scale(0.015625)"/>
      <path id="DejaVuSans-36" d="M 2113 2584 
Q 1688 2584 1439 2293 
Q 1191 2003 1191 1497 
Q 1191 994 1439 701 
Q 1688 409 2113 409 
Q 2538 409 2786 701 
Q 3034 994 3034 1497 
Q 3034 2003 2786 2293 
Q 2538 2584 2113 2584 
z
M 3366 4563 
L 3366 3988 
Q 3128 4100 2886 4159 
Q 2644 4219 2406 4219 
Q 1781 4219 1451 3797 
Q 1122 3375 1075 2522 
Q 1259 2794 1537 2939 
Q 1816 3084 2150 3084 
Q 2853 3084 3261 2657 
Q 3669 2231 3669 1497 
Q 3669 778 3244 343 
Q 2819 -91 2113 -91 
Q 1303 -91 875 529 
Q 447 1150 447 2328 
Q 447 3434 972 4092 
Q 1497 4750 2381 4750 
Q 2619 4750 2861 4703 
Q 3103 4656 3366 4563 
z
" transform="scale(0.015625)"/>
     </defs>
     <use xlink:href="#DejaVuSans-56" transform="translate(0 0.78125)"/>
     <use xlink:href="#DejaVuSans-Oblique-70" transform="translate(69.365234 -15.625) scale(0.7)"/>
     <use xlink:href="#DejaVuSans-2212" transform="translate(127.436523 -15.625) scale(0.7)"/>
     <use xlink:href="#DejaVuSans-Oblique-70" transform="translate(199.726562 -15.625) scale(0.7)"/>
     <use xlink:href="#DejaVuSans-20" transform="translate(246.894531 0.78125)"/>
     <use xlink:href="#DejaVuSans-3d" transform="translate(278.681641 0.78125)"/>
     <use xlink:href="#DejaVuSans-20" transform="translate(362.470703 0.78125)"/>
     <use xlink:href="#DejaVuSans-34" transform="translate(394.257812 0.78125)"/>
     <use xlink:href="#DejaVuSans-37" transform="translate(457.880859 0.78125)"/>
     <use xlink:href="#DejaVuSans-36" transform="translate(521.503906 0.78125)"/>
     <use xlink:href="#DejaVuSans-2e" transform="translate(585.126953 0.78125)"/>
     <use xlink:href="#DejaVuSans-33" transform="translate(616.914062 0.78125)"/>
     <use xlink:href="#DejaVuSans-35" transform="translate(680.537109 0.78125)"/>
     <use xlink:href="#DejaVuSans-20" transform="translate(744.160156 0.78125)"/>
     <use xlink:href="#DejaVuSans-56" transform="translate(775.947266 0.78125)"/>
    </g>
   </g>
   <g id="text_19">
    <g id="patch_8">
     <path d="M 472.381853 297.974 
L 556.881853 297.974 
Q 559.881853 297.974 559.881853 294.974 
L 559.881853 284.374 
Q 559.881853 281.374 556.881853 281.374 
L 472.381853 281.374 
Q 469.381853 281.374 469.381853 284.374 
L 469.381853 294.974 
Q 469.381853 297.974 472.381853 297.974 
z
" style="fill: #ffffff; opacity: 0.85; stroke: #d94452; stroke-linejoin: miter"/>
    </g>
    <!-- V$_{p-p}$ = 426.94 V -->
    <g style="fill: #d94452" transform="translate(472.381853 291.874) scale(0.1 -0.1)">
     <defs>
      <path id="DejaVuSans-39" d="M 703 97 
L 703 672 
Q 941 559 1184 500 
Q 1428 441 1663 441 
Q 2288 441 2617 861 
Q 2947 1281 2994 2138 
Q 2813 1869 2534 1725 
Q 2256 1581 1919 1581 
Q 1219 1581 811 2004 
Q 403 2428 403 3163 
Q 403 3881 828 4315 
Q 1253 4750 1959 4750 
Q 2769 4750 3195 4129 
Q 3622 3509 3622 2328 
Q 3622 1225 3098 567 
Q 2575 -91 1691 -91 
Q 1453 -91 1209 -44 
Q 966 3 703 97 
z
M 1959 2075 
Q 2384 2075 2632 2365 
Q 2881 2656 2881 3163 
Q 2881 3666 2632 3958 
Q 2384 4250 1959 4250 
Q 1534 4250 1286 3958 
Q 1038 3666 1038 3163 
Q 1038 2656 1286 2365 
Q 1534 2075 1959 2075 
z
" transform="scale(0.015625)"/>
     </defs>
     <use xlink:href="#DejaVuSans-56" transform="translate(0 0.78125)"/>
     <use xlink:href="#DejaVuSans-Oblique-70" transform="translate(69.365234 -15.625) scale(0.7)"/>
     <use xlink:href="#DejaVuSans-2212" transform="translate(127.436523 -15.625) scale(0.7)"/>
     <use xlink:href="#DejaVuSans-Oblique-70" transform="translate(199.726562 -15.625) scale(0.7)"/>
     <use xlink:href="#DejaVuSans-20" transform="translate(246.894531 0.78125)"/>
     <use xlink:href="#DejaVuSans-3d" transform="translate(278.681641 0.78125)"/>
     <use xlink:href="#DejaVuSans-20" transform="translate(362.470703 0.78125)"/>
     <use xlink:href="#DejaVuSans-34" transform="translate(394.257812 0.78125)"/>
     <use xlink:href="#DejaVuSans-32" transform="translate(457.880859 0.78125)"/>
     <use xlink:href="#DejaVuSans-36" transform="translate(521.503906 0.78125)"/>
     <use xlink:href="#DejaVuSans-2e" transform="translate(585.126953 0.78125)"/>
     <use xlink:href="#DejaVuSans-39" transform="translate(616.914062 0.78125)"/>
     <use xlink:href="#DejaVuSans-34" transform="translate(680.537109 0.78125)"/>
     <use xlink:href="#DejaVuSans-20" transform="translate(744.160156 0.78125)"/>
     <use xlink:href="#DejaVuSans-56" transform="translate(775.947266 0.78125)"/>
    </g>
   </g>
   <g id="text_20">
    <g id="patch_9">
     <path d="M 619.070795 40.127563 
L 676.687201 40.127563 
Q 681.887201 40.127563 681.887201 34.927563 
L 681.887201 22.346 
Q 681.887201 17.146 676.687201 17.146 
L 619.070795 17.146 
Q 613.870795 17.146 613.870795 22.346 
L 613.870795 34.927563 
Q 613.870795 40.127563 619.070795 40.127563 
z
" style="fill: #ffffff; opacity: 0.9; stroke: #f0ad4e; stroke-width: 1.5; stroke-linejoin: miter"/>
    </g>
    <!-- f = 5 Hz -->
    <g style="fill: #f0ad4e" transform="translate(619.070795 32.223969) scale(0.13 -0.13)">
     <defs>
      <path id="DejaVuSans-Bold-66" d="M 2841 4863 
L 2841 4128 
L 2222 4128 
Q 1984 4128 1890 4042 
Q 1797 3956 1797 3744 
L 1797 3500 
L 2753 3500 
L 2753 2700 
L 1797 2700 
L 1797 0 
L 678 0 
L 678 2700 
L 122 2700 
L 122 3500 
L 678 3500 
L 678 3744 
Q 678 4316 997 4589 
Q 1316 4863 1984 4863 
L 2841 4863 
z
" transform="scale(0.015625)"/>
      <path id="DejaVuSans-Bold-3d" d="M 678 3084 
L 4684 3084 
L 4684 2350 
L 678 2350 
L 678 3084 
z
M 678 1663 
L 4684 1663 
L 4684 922 
L 678 922 
L 678 1663 
z
" transform="scale(0.015625)"/>
      <path id="DejaVuSans-Bold-35" d="M 678 4666 
L 3669 4666 
L 3669 3781 
L 1638 3781 
L 1638 3059 
Q 1775 3097 1914 3117 
Q 2053 3138 2203 3138 
Q 3056 3138 3531 2711 
Q 4006 2284 4006 1522 
Q 4006 766 3489 337 
Q 2972 -91 2053 -91 
Q 1656 -91 1267 -14 
Q 878 63 494 219 
L 494 1166 
Q 875 947 1217 837 
Q 1559 728 1863 728 
Q 2300 728 2551 942 
Q 2803 1156 2803 1522 
Q 2803 1891 2551 2103 
Q 2300 2316 1863 2316 
Q 1603 2316 1309 2248 
Q 1016 2181 678 2041 
L 678 4666 
z
" transform="scale(0.015625)"/>
      <path id="DejaVuSans-Bold-48" d="M 588 4666 
L 1791 4666 
L 1791 2888 
L 3566 2888 
L 3566 4666 
L 4769 4666 
L 4769 0 
L 3566 0 
L 3566 1978 
L 1791 1978 
L 1791 0 
L 588 0 
L 588 4666 
z
" transform="scale(0.015625)"/>
      <path id="DejaVuSans-Bold-7a" d="M 366 3500 
L 3419 3500 
L 3419 2719 
L 1575 800 
L 3419 800 
L 3419 0 
L 288 0 
L 288 781 
L 2131 2700 
L 366 2700 
L 366 3500 
z
" transform="scale(0.015625)"/>
     </defs>
     <use xlink:href="#DejaVuSans-Bold-66"/>
     <use xlink:href="#DejaVuSans-Bold-20" transform="translate(43.505859 0)"/>
     <use xlink:href="#DejaVuSans-Bold-3d" transform="translate(78.320312 0)"/>
     <use xlink:href="#DejaVuSans-Bold-20" transform="translate(162.109375 0)"/>
     <use xlink:href="#DejaVuSans-Bold-35" transform="translate(196.923828 0)"/>
     <use xlink:href="#DejaVuSans-Bold-20" transform="translate(266.503906 0)"/>
     <use xlink:href="#DejaVuSans-Bold-48" transform="translate(301.318359 0)"/>
     <use xlink:href="#DejaVuSans-Bold-7a" transform="translate(385.009766 0)"/>
    </g>
   </g>
   <g id="text_21">
    <!-- Without MIC -->
    <g style="fill: #333333" transform="translate(149.031821 32.983812) scale(0.14 -0.14)">
     <defs>
      <path id="DejaVuSans-Bold-57" d="M 191 4666 
L 1344 4666 
L 2150 1275 
L 2950 4666 
L 4109 4666 
L 4909 1275 
L 5716 4666 
L 6859 4666 
L 5759 0 
L 4372 0 
L 3525 3547 
L 2688 0 
L 1300 0 
L 191 4666 
z
" transform="scale(0.015625)"/>
      <path id="DejaVuSans-Bold-74" d="M 1759 4494 
L 1759 3500 
L 2913 3500 
L 2913 2700 
L 1759 2700 
L 1759 1216 
Q 1759 972 1856 886 
Q 1953 800 2241 800 
L 2816 800 
L 2816 0 
L 1856 0 
Q 1194 0 917 276 
Q 641 553 641 1216 
L 641 2700 
L 84 2700 
L 84 3500 
L 641 3500 
L 641 4494 
L 1759 4494 
z
" transform="scale(0.015625)"/>
      <path id="DejaVuSans-Bold-68" d="M 4056 2131 
L 4056 0 
L 2931 0 
L 2931 347 
L 2931 1625 
Q 2931 2084 2911 2256 
Q 2891 2428 2841 2509 
Q 2775 2619 2662 2680 
Q 2550 2741 2406 2741 
Q 2056 2741 1856 2470 
Q 1656 2200 1656 1722 
L 1656 0 
L 538 0 
L 538 4863 
L 1656 4863 
L 1656 2988 
Q 1909 3294 2193 3439 
Q 2478 3584 2822 3584 
Q 3428 3584 3742 3212 
Q 4056 2841 4056 2131 
z
" transform="scale(0.015625)"/>
      <path id="DejaVuSans-Bold-6f" d="M 2203 2784 
Q 1831 2784 1636 2517 
Q 1441 2250 1441 1747 
Q 1441 1244 1636 976 
Q 1831 709 2203 709 
Q 2569 709 2762 976 
Q 2956 1244 2956 1747 
Q 2956 2250 2762 2517 
Q 2569 2784 2203 2784 
z
M 2203 3584 
Q 3106 3584 3614 3096 
Q 4122 2609 4122 1747 
Q 4122 884 3614 396 
Q 3106 -91 2203 -91 
Q 1297 -91 786 396 
Q 275 884 275 1747 
Q 275 2609 786 3096 
Q 1297 3584 2203 3584 
z
" transform="scale(0.015625)"/>
      <path id="DejaVuSans-Bold-75" d="M 500 1363 
L 500 3500 
L 1625 3500 
L 1625 3150 
Q 1625 2866 1622 2436 
Q 1619 2006 1619 1863 
Q 1619 1441 1641 1255 
Q 1663 1069 1716 984 
Q 1784 875 1895 815 
Q 2006 756 2150 756 
Q 2500 756 2700 1025 
Q 2900 1294 2900 1772 
L 2900 3500 
L 4019 3500 
L 4019 0 
L 2900 0 
L 2900 506 
Q 2647 200 2364 54 
Q 2081 -91 1741 -91 
Q 1134 -91 817 281 
Q 500 653 500 1363 
z
" transform="scale(0.015625)"/>
      <path id="DejaVuSans-Bold-4d" d="M 588 4666 
L 2119 4666 
L 3181 2169 
L 4250 4666 
L 5778 4666 
L 5778 0 
L 4641 0 
L 4641 3413 
L 3566 897 
L 2803 897 
L 1728 3413 
L 1728 0 
L 588 0 
L 588 4666 
z
" transform="scale(0.015625)"/>
      <path id="DejaVuSans-Bold-49" d="M 588 4666 
L 1791 4666 
L 1791 0 
L 588 0 
L 588 4666 
z
" transform="scale(0.015625)"/>
      <path id="DejaVuSans-Bold-43" d="M 4288 256 
Q 3956 84 3597 -3 
Q 3238 -91 2847 -91 
Q 1681 -91 1000 561 
Q 319 1213 319 2328 
Q 319 3447 1000 4098 
Q 1681 4750 2847 4750 
Q 3238 4750 3597 4662 
Q 3956 4575 4288 4403 
L 4288 3438 
Q 3953 3666 3628 3772 
Q 3303 3878 2944 3878 
Q 2300 3878 1931 3465 
Q 1563 3053 1563 2328 
Q 1563 1606 1931 1193 
Q 2300 781 2944 781 
Q 3303 781 3628 887 
Q 3953 994 4288 1222 
L 4288 256 
z
" transform="scale(0.015625)"/>
     </defs>
     <use xlink:href="#DejaVuSans-Bold-57"/>
     <use xlink:href="#DejaVuSans-Bold-69" transform="translate(110.302734 0)"/>
     <use xlink:href="#DejaVuSans-Bold-74" transform="translate(144.580078 0)"/>
     <use xlink:href="#DejaVuSans-Bold-68" transform="translate(192.382812 0)"/>
     <use xlink:href="#DejaVuSans-Bold-6f" transform="translate(263.574219 0)"/>
     <use xlink:href="#DejaVuSans-Bold-75" transform="translate(332.275391 0)"/>
     <use xlink:href="#DejaVuSans-Bold-74" transform="translate(403.466797 0)"/>
     <use xlink:href="#DejaVuSans-Bold-20" transform="translate(451.269531 0)"/>
     <use xlink:href="#DejaVuSans-Bold-4d" transform="translate(486.083984 0)"/>
     <use xlink:href="#DejaVuSans-Bold-49" transform="translate(585.595703 0)"/>
     <use xlink:href="#DejaVuSans-Bold-43" transform="translate(622.802734 0)"/>
    </g>
   </g>
   <g id="text_22">
    <!-- With MIC -->
    <g style="fill: #d94452" transform="translate(479.037946 32.983812) scale(0.14 -0.14)">
     <use xlink:href="#DejaVuSans-Bold-57"/>
     <use xlink:href="#DejaVuSans-Bold-69" transform="translate(110.302734 0)"/>
     <use xlink:href="#DejaVuSans-Bold-74" transform="translate(144.580078 0)"/>
     <use xlink:href="#DejaVuSans-Bold-68" transform="translate(192.382812 0)"/>
     <use xlink:href="#DejaVuSans-Bold-20" transform="translate(263.574219 0)"/>
     <use xlink:href="#DejaVuSans-Bold-4d" transform="translate(298.388672 0)"/>
     <use xlink:href="#DejaVuSans-Bold-49" transform="translate(397.900391 0)"/>
     <use xlink:href="#DejaVuSans-Bold-43" transform="translate(435.107422 0)"/>
    </g>
   </g>
  </g>
 </g>
 <defs>
  <clipPath id="p0fdb9fc743">
   <rect x="61.963281" y="7.2" width="633.736" height="302.92"/>
  </clipPath>
 </defs>
</svg>
