<?xml version="1.0" encoding="utf-8" standalone="no"?>
<!DOCTYPE svg PUBLIC "-//W3C//DTD SVG 1.1//EN"
  "http://www.w3.org/Graphics/SVG/1.1/DTD/svg11.dtd">
<svg xmlns:xlink="http://www.w3.org/1999/xlink" width="711.676pt" height="352.089047pt" viewBox="0 0 711.676 352.089047" xmlns="http://www.w3.org/2000/svg" version="1.1">
 <metadata>
  <rdf:RDF xmlns:dc="http://purl.org/dc/elements/1.1/" xmlns:cc="http://creativecommons.org/ns#" xmlns:rdf="http://www.w3.org/1999/02/22-rdf-syntax-ns#">
   <cc:Work>
    <dc:type rdf:resource="http://purl.org/dc/dcmitype/StillImage"/>
    <dc:date>2026-04-26T15:38:36.452693</dc:date>
    <dc:format>image/svg+xml</dc:format>
    <dc:creator>
     <cc:Agent>
      <dc:title>Matplotlib v3.10.8, https://matplotlib.org/</dc:title>
     </cc:Agent>
    </dc:creator>
   </cc:Work>
  </rdf:RDF>
 </metadata>
 <defs>
  <style type="text/css">*{stroke-linejoin: round; stroke-linecap: butt}</style>
 </defs>
 <g id="figure_1">
  <g id="patch_1">
   <path d="M 0 352.089047 
L 711.676 352.089047 
L 711.676 0 
L 0 0 
z
" style="fill: #ffffff"/>
  </g>
  <g id="axes_1">
   <g id="patch_2">
    <path d="M 61.963281 309.693735 
L 695.729281 309.693735 
L 695.729281 7.879553 
L 61.963281 7.879553 
z
" style="fill: #ffffff"/>
   </g>
   <g id="patch_3">
    <path d="M 61.963281 309.693735 
L 378.846281 309.693735 
L 378.846281 7.879553 
L 61.963281 7.879553 
z
" clip-path="url(#p55af966489)" style="fill: #cccccc; opacity: 0.12; stroke: #cccccc; stroke-linejoin: miter"/>
   </g>
   <g id="patch_4">
    <path d="M 378.846281 309.693735 
L 695.729281 309.693735 
L 695.729281 7.879553 
L 378.846281 7.879553 
z
" clip-path="url(#p55af966489)" style="fill: #d94452; opacity: 0.06; stroke: #d94452; stroke-linejoin: miter"/>
   </g>
   <g id="line2d_1">
    <path d="M 378.846281 309.693735 
L 378.846281 7.879553 
" clip-path="url(#p55af966489)" style="fill: none; stroke-dasharray: 3.7,1.6; stroke-dashoffset: 0; stroke: #999999"/>
   </g>
   <g id="matplotlib.axis_1">
    <g id="xtick_1">
     <g id="line2d_2">
      <defs>
       <path id="m76e4e5d7ba" d="M 0 0 
L 0 3.5 
" style="stroke: #000000; stroke-width: 0.8"/>
      </defs>
      <g>
       <use xlink:href="#m76e4e5d7ba" x="61.963281" y="309.693735" style="stroke: #000000; stroke-width: 0.8"/>
      </g>
     </g>
     <g id="text_1">
      <!-- 0.0 -->
      <g transform="translate(53.216563 325.052016) scale(0.11 -0.11)">
       <defs>
        <path id="DejaVuSans-30" d="M 2034 4250 
Q 1547 4250 1301 3770 
Q 1056 3291 1056 2328 
Q 1056 1369 1301 889 
Q 1547 409 2034 409 
Q 2525 409 2770 889 
Q 3016 1369 3016 2328 
Q 3016 3291 2770 3770 
Q 2525 4250 2034 4250 
z
M 2034 4750 
Q 2819 4750 3233 4129 
Q 3647 3509 3647 2328 
Q 3647 1150 3233 529 
Q 2819 -91 2034 -91 
Q 1250 -91 836 529 
Q 422 1150 422 2328 
Q 422 3509 836 4129 
Q 1250 4750 2034 4750 
z
" transform="scale(0.015625)"/>
        <path id="DejaVuSans-2e" d="M 684 794 
L 1344 794 
L 1344 0 
L 684 0 
L 684 794 
z
" transform="scale(0.015625)"/>
       </defs>
       <use xlink:href="#DejaVuSans-30"/>
       <use xlink:href="#DejaVuSans-2e" transform="translate(63.623047 0)"/>
       <use xlink:href="#DejaVuSans-30" transform="translate(95.410156 0)"/>
      </g>
     </g>
    </g>
    <g id="xtick_2">
     <g id="line2d_3">
      <g>
       <use xlink:href="#m76e4e5d7ba" x="141.184031" y="309.693735" style="stroke: #000000; stroke-width: 0.8"/>
      </g>
     </g>
     <g id="text_2">
      <!-- 0.5 -->
      <g transform="translate(132.437313 325.052016) scale(0.11 -0.11)">
       <defs>
        <path id="DejaVuSans-35" d="M 691 4666 
L 3169 4666 
L 3169 4134 
L 1269 4134 
L 1269 2991 
Q 1406 3038 1543 3061 
Q 1681 3084 1819 3084 
Q 2600 3084 3056 2656 
Q 3513 2228 3513 1497 
Q 3513 744 3044 326 
Q 2575 -91 1722 -91 
Q 1428 -91 1123 -41 
Q 819 9 494 109 
L 494 744 
Q 775 591 1075 516 
Q 1375 441 1709 441 
Q 2250 441 2565 725 
Q 2881 1009 2881 1497 
Q 2881 1984 2565 2268 
Q 2250 2553 1709 2553 
Q 1456 2553 1204 2497 
Q 953 2441 691 2322 
L 691 4666 
z
" transform="scale(0.015625)"/>
       </defs>
       <use xlink:href="#DejaVuSans-30"/>
       <use xlink:href="#DejaVuSans-2e" transform="translate(63.623047 0)"/>
       <use xlink:href="#DejaVuSans-35" transform="translate(95.410156 0)"/>
      </g>
     </g>
    </g>
    <g id="xtick_3">
     <g id="line2d_4">
      <g>
       <use xlink:href="#m76e4e5d7ba" x="220.404781" y="309.693735" style="stroke: #000000; stroke-width: 0.8"/>
      </g>
     </g>
     <g id="text_3">
      <!-- 1.0 -->
      <g transform="translate(211.658062 325.052016) scale(0.11 -0.11)">
       <defs>
        <path id="DejaVuSans-31" d="M 794 531 
L 1825 531 
L 1825 4091 
L 703 3866 
L 703 4441 
L 1819 4666 
L 2450 4666 
L 2450 531 
L 3481 531 
L 3481 0 
L 794 0 
L 794 531 
z
" transform="scale(0.015625)"/>
       </defs>
       <use xlink:href="#DejaVuSans-31"/>
       <use xlink:href="#DejaVuSans-2e" transform="translate(63.623047 0)"/>
       <use xlink:href="#DejaVuSans-30" transform="translate(95.410156 0)"/>
      </g>
     </g>
    </g>
    <g id="xtick_4">
     <g id="line2d_5">
      <g>
       <use xlink:href="#m76e4e5d7ba" x="299.625531" y="309.693735" style="stroke: #000000; stroke-width: 0.8"/>
      </g>
     </g>
     <g id="text_4">
      <!-- 1.5 -->
      <g transform="translate(290.878812 325.052016) scale(0.11 -0.11)">
       <use xlink:href="#DejaVuSans-31"/>
       <use xlink:href="#DejaVuSans-2e" transform="translate(63.623047 0)"/>
       <use xlink:href="#DejaVuSans-35" transform="translate(95.410156 0)"/>
      </g>
     </g>
    </g>
    <g id="xtick_5">
     <g id="line2d_6">
      <g>
       <use xlink:href="#m76e4e5d7ba" x="378.846281" y="309.693735" style="stroke: #000000; stroke-width: 0.8"/>
      </g>
     </g>
     <g id="text_5">
      <!-- 2.0 -->
      <g transform="translate(370.099562 325.052016) scale(0.11 -0.11)">
       <defs>
        <path id="DejaVuSans-32" d="M 1228 531 
L 3431 531 
L 3431 0 
L 469 0 
L 469 531 
Q 828 903 1448 1529 
Q 2069 2156 2228 2338 
Q 2531 2678 2651 2914 
Q 2772 3150 2772 3378 
Q 2772 3750 2511 3984 
Q 2250 4219 1831 4219 
Q 1534 4219 1204 4116 
Q 875 4013 500 3803 
L 500 4441 
Q 881 4594 1212 4672 
Q 1544 4750 1819 4750 
Q 2544 4750 2975 4387 
Q 3406 4025 3406 3419 
Q 3406 3131 3298 2873 
Q 3191 2616 2906 2266 
Q 2828 2175 2409 1742 
Q 1991 1309 1228 531 
z
" transform="scale(0.015625)"/>
       </defs>
       <use xlink:href="#DejaVuSans-32"/>
       <use xlink:href="#DejaVuSans-2e" transform="translate(63.623047 0)"/>
       <use xlink:href="#DejaVuSans-30" transform="translate(95.410156 0)"/>
      </g>
     </g>
    </g>
    <g id="xtick_6">
     <g id="line2d_7">
      <g>
       <use xlink:href="#m76e4e5d7ba" x="458.067031" y="309.693735" style="stroke: #000000; stroke-width: 0.8"/>
      </g>
     </g>
     <g id="text_6">
      <!-- 2.5 -->
      <g transform="translate(449.320312 325.052016) scale(0.11 -0.11)">
       <use xlink:href="#DejaVuSans-32"/>
       <use xlink:href="#DejaVuSans-2e" transform="translate(63.623047 0)"/>
       <use xlink:href="#DejaVuSans-35" transform="translate(95.410156 0)"/>
      </g>
     </g>
    </g>
    <g id="xtick_7">
     <g id="line2d_8">
      <g>
       <use xlink:href="#m76e4e5d7ba" x="537.287781" y="309.693735" style="stroke: #000000; stroke-width: 0.8"/>
      </g>
     </g>
     <g id="text_7">
      <!-- 3.0 -->
      <g transform="translate(528.541062 325.052016) scale(0.11 -0.11)">
       <defs>
        <path id="DejaVuSans-33" d="M 2597 2516 
Q 3050 2419 3304 2112 
Q 3559 1806 3559 1356 
Q 3559 666 3084 287 
Q 2609 -91 1734 -91 
Q 1441 -91 1130 -33 
Q 819 25 488 141 
L 488 750 
Q 750 597 1062 519 
Q 1375 441 1716 441 
Q 2309 441 2620 675 
Q 2931 909 2931 1356 
Q 2931 1769 2642 2001 
Q 2353 2234 1838 2234 
L 1294 2234 
L 1294 2753 
L 1863 2753 
Q 2328 2753 2575 2939 
Q 2822 3125 2822 3475 
Q 2822 3834 2567 4026 
Q 2313 4219 1838 4219 
Q 1578 4219 1281 4162 
Q 984 4106 628 3988 
L 628 4550 
Q 988 4650 1302 4700 
Q 1616 4750 1894 4750 
Q 2613 4750 3031 4423 
Q 3450 4097 3450 3541 
Q 3450 3153 3228 2886 
Q 3006 2619 2597 2516 
z
" transform="scale(0.015625)"/>
       </defs>
       <use xlink:href="#DejaVuSans-33"/>
       <use xlink:href="#DejaVuSans-2e" transform="translate(63.623047 0)"/>
       <use xlink:href="#DejaVuSans-30" transform="translate(95.410156 0)"/>
      </g>
     </g>
    </g>
    <g id="xtick_8">
     <g id="line2d_9">
      <g>
       <use xlink:href="#m76e4e5d7ba" x="616.508531" y="309.693735" style="stroke: #000000; stroke-width: 0.8"/>
      </g>
     </g>
     <g id="text_8">
      <!-- 3.5 -->
      <g transform="translate(607.761813 325.052016) scale(0.11 -0.11)">
       <use xlink:href="#DejaVuSans-33"/>
       <use xlink:href="#DejaVuSans-2e" transform="translate(63.623047 0)"/>
       <use xlink:href="#DejaVuSans-35" transform="translate(95.410156 0)"/>
      </g>
     </g>
    </g>
    <g id="xtick_9">
     <g id="line2d_10">
      <g>
       <use xlink:href="#m76e4e5d7ba" x="695.729281" y="309.693735" style="stroke: #000000; stroke-width: 0.8"/>
      </g>
     </g>
     <g id="text_9">
      <!-- 4.0 -->
      <g transform="translate(686.982562 325.052016) scale(0.11 -0.11)">
       <defs>
        <path id="DejaVuSans-34" d="M 2419 4116 
L 825 1625 
L 2419 1625 
L 2419 4116 
z
M 2253 4666 
L 3047 4666 
L 3047 1625 
L 3713 1625 
L 3713 1100 
L 3047 1100 
L 3047 0 
L 2419 0 
L 2419 1100 
L 313 1100 
L 313 1709 
L 2253 4666 
z
" transform="scale(0.015625)"/>
       </defs>
       <use xlink:href="#DejaVuSans-34"/>
       <use xlink:href="#DejaVuSans-2e" transform="translate(63.623047 0)"/>
       <use xlink:href="#DejaVuSans-30" transform="translate(95.410156 0)"/>
      </g>
     </g>
    </g>
    <g id="text_10">
     <!-- Time (s) -->
     <g transform="translate(346.627687 341.977485) scale(0.14 -0.14)">
      <defs>
       <path id="DejaVuSans-Bold-54" d="M 31 4666 
L 4331 4666 
L 4331 3756 
L 2784 3756 
L 2784 0 
L 1581 0 
L 1581 3756 
L 31 3756 
L 31 4666 
z
" transform="scale(0.015625)"/>
       <path id="DejaVuSans-Bold-69" d="M 538 3500 
L 1656 3500 
L 1656 0 
L 538 0 
L 538 3500 
z
M 538 4863 
L 1656 4863 
L 1656 3950 
L 538 3950 
L 538 4863 
z
" transform="scale(0.015625)"/>
       <path id="DejaVuSans-Bold-6d" d="M 3781 2919 
Q 3994 3244 4286 3414 
Q 4578 3584 4928 3584 
Q 5531 3584 5847 3212 
Q 6163 2841 6163 2131 
L 6163 0 
L 5038 0 
L 5038 1825 
Q 5041 1866 5042 1909 
Q 5044 1953 5044 2034 
Q 5044 2406 4934 2573 
Q 4825 2741 4581 2741 
Q 4263 2741 4089 2478 
Q 3916 2216 3909 1719 
L 3909 0 
L 2784 0 
L 2784 1825 
Q 2784 2406 2684 2573 
Q 2584 2741 2328 2741 
Q 2006 2741 1831 2477 
Q 1656 2213 1656 1722 
L 1656 0 
L 531 0 
L 531 3500 
L 1656 3500 
L 1656 2988 
Q 1863 3284 2130 3434 
Q 2397 3584 2719 3584 
Q 3081 3584 3359 3409 
Q 3638 3234 3781 2919 
z
" transform="scale(0.015625)"/>
       <path id="DejaVuSans-Bold-65" d="M 4031 1759 
L 4031 1441 
L 1416 1441 
Q 1456 1047 1700 850 
Q 1944 653 2381 653 
Q 2734 653 3104 758 
Q 3475 863 3866 1075 
L 3866 213 
Q 3469 63 3072 -14 
Q 2675 -91 2278 -91 
Q 1328 -91 801 392 
Q 275 875 275 1747 
Q 275 2603 792 3093 
Q 1309 3584 2216 3584 
Q 3041 3584 3536 3087 
Q 4031 2591 4031 1759 
z
M 2881 2131 
Q 2881 2450 2695 2645 
Q 2509 2841 2209 2841 
Q 1884 2841 1681 2658 
Q 1478 2475 1428 2131 
L 2881 2131 
z
" transform="scale(0.015625)"/>
       <path id="DejaVuSans-Bold-20" transform="scale(0.015625)"/>
       <path id="DejaVuSans-Bold-28" d="M 2413 -844 
L 1484 -844 
Q 1006 -72 778 623 
Q 550 1319 550 2003 
Q 550 2688 779 3389 
Q 1009 4091 1484 4856 
L 2413 4856 
Q 2013 4116 1813 3408 
Q 1613 2700 1613 2009 
Q 1613 1319 1811 609 
Q 2009 -100 2413 -844 
z
" transform="scale(0.015625)"/>
       <path id="DejaVuSans-Bold-73" d="M 3272 3391 
L 3272 2541 
Q 2913 2691 2578 2766 
Q 2244 2841 1947 2841 
Q 1628 2841 1473 2761 
Q 1319 2681 1319 2516 
Q 1319 2381 1436 2309 
Q 1553 2238 1856 2203 
L 2053 2175 
Q 2913 2066 3209 1816 
Q 3506 1566 3506 1031 
Q 3506 472 3093 190 
Q 2681 -91 1863 -91 
Q 1516 -91 1145 -36 
Q 775 19 384 128 
L 384 978 
Q 719 816 1070 734 
Q 1422 653 1784 653 
Q 2113 653 2278 743 
Q 2444 834 2444 1013 
Q 2444 1163 2330 1236 
Q 2216 1309 1875 1350 
L 1678 1375 
Q 931 1469 631 1722 
Q 331 1975 331 2491 
Q 331 3047 712 3315 
Q 1094 3584 1881 3584 
Q 2191 3584 2531 3537 
Q 2872 3491 3272 3391 
z
" transform="scale(0.015625)"/>
       <path id="DejaVuSans-Bold-29" d="M 513 -844 
Q 913 -100 1113 609 
Q 1313 1319 1313 2009 
Q 1313 2700 1113 3408 
Q 913 4116 513 4856 
L 1441 4856 
Q 1916 4091 2145 3389 
Q 2375 2688 2375 2003 
Q 2375 1319 2147 623 
Q 1919 -72 1441 -844 
L 513 -844 
z
" transform="scale(0.015625)"/>
      </defs>
      <use xlink:href="#DejaVuSans-Bold-54"/>
      <use xlink:href="#DejaVuSans-Bold-69" transform="translate(68.212891 0)"/>
      <use xlink:href="#DejaVuSans-Bold-6d" transform="translate(102.490234 0)"/>
      <use xlink:href="#DejaVuSans-Bold-65" transform="translate(206.689453 0)"/>
      <use xlink:href="#DejaVuSans-Bold-20" transform="translate(274.511719 0)"/>
      <use xlink:href="#DejaVuSans-Bold-28" transform="translate(309.326172 0)"/>
      <use xlink:href="#DejaVuSans-Bold-73" transform="translate(355.029297 0)"/>
      <use xlink:href="#DejaVuSans-Bold-29" transform="translate(414.550781 0)"/>
     </g>
    </g>
   </g>
   <g id="matplotlib.axis_2">
    <g id="ytick_1">
     <g id="line2d_11">
      <defs>
       <path id="m07cb9e8000" d="M 0 0 
L -3.5 0 
" style="stroke: #000000; stroke-width: 0.8"/>
      </defs>
      <g>
       <use xlink:href="#m07cb9e8000" x="61.963281" y="306.194147" style="stroke: #000000; stroke-width: 0.8"/>
      </g>
     </g>
     <g id="text_11">
      <!-- −300 -->
      <g transform="translate(24.749375 310.373288) scale(0.11 -0.11)">
       <defs>
        <path id="DejaVuSans-2212" d="M 678 2272 
L 4684 2272 
L 4684 1741 
L 678 1741 
L 678 2272 
z
" transform="scale(0.015625)"/>
       </defs>
       <use xlink:href="#DejaVuSans-2212"/>
       <use xlink:href="#DejaVuSans-33" transform="translate(83.789062 0)"/>
       <use xlink:href="#DejaVuSans-30" transform="translate(147.412109 0)"/>
       <use xlink:href="#DejaVuSans-30" transform="translate(211.035156 0)"/>
      </g>
     </g>
    </g>
    <g id="ytick_2">
     <g id="line2d_12">
      <g>
       <use xlink:href="#m07cb9e8000" x="61.963281" y="257.058313" style="stroke: #000000; stroke-width: 0.8"/>
      </g>
     </g>
     <g id="text_12">
      <!-- −200 -->
      <g transform="translate(24.749375 261.237454) scale(0.11 -0.11)">
       <use xlink:href="#DejaVuSans-2212"/>
       <use xlink:href="#DejaVuSans-32" transform="translate(83.789062 0)"/>
       <use xlink:href="#DejaVuSans-30" transform="translate(147.412109 0)"/>
       <use xlink:href="#DejaVuSans-30" transform="translate(211.035156 0)"/>
      </g>
     </g>
    </g>
    <g id="ytick_3">
     <g id="line2d_13">
      <g>
       <use xlink:href="#m07cb9e8000" x="61.963281" y="207.922478" style="stroke: #000000; stroke-width: 0.8"/>
      </g>
     </g>
     <g id="text_13">
      <!-- −100 -->
      <g transform="translate(24.749375 212.101619) scale(0.11 -0.11)">
       <use xlink:href="#DejaVuSans-2212"/>
       <use xlink:href="#DejaVuSans-31" transform="translate(83.789062 0)"/>
       <use xlink:href="#DejaVuSans-30" transform="translate(147.412109 0)"/>
       <use xlink:href="#DejaVuSans-30" transform="translate(211.035156 0)"/>
      </g>
     </g>
    </g>
    <g id="ytick_4">
     <g id="line2d_14">
      <g>
       <use xlink:href="#m07cb9e8000" x="61.963281" y="158.786644" style="stroke: #000000; stroke-width: 0.8"/>
      </g>
     </g>
     <g id="text_14">
      <!-- 0 -->
      <g transform="translate(47.964531 162.965785) scale(0.11 -0.11)">
       <use xlink:href="#DejaVuSans-30"/>
      </g>
     </g>
    </g>
    <g id="ytick_5">
     <g id="line2d_15">
      <g>
       <use xlink:href="#m07cb9e8000" x="61.963281" y="109.65081" style="stroke: #000000; stroke-width: 0.8"/>
      </g>
     </g>
     <g id="text_15">
      <!-- 100 -->
      <g transform="translate(33.967031 113.82995) scale(0.11 -0.11)">
       <use xlink:href="#DejaVuSans-31"/>
       <use xlink:href="#DejaVuSans-30" transform="translate(63.623047 0)"/>
       <use xlink:href="#DejaVuSans-30" transform="translate(127.246094 0)"/>
      </g>
     </g>
    </g>
    <g id="ytick_6">
     <g id="line2d_16">
      <g>
       <use xlink:href="#m07cb9e8000" x="61.963281" y="60.514975" style="stroke: #000000; stroke-width: 0.8"/>
      </g>
     </g>
     <g id="text_16">
      <!-- 200 -->
      <g transform="translate(33.967031 64.694116) scale(0.11 -0.11)">
       <use xlink:href="#DejaVuSans-32"/>
       <use xlink:href="#DejaVuSans-30" transform="translate(63.623047 0)"/>
       <use xlink:href="#DejaVuSans-30" transform="translate(127.246094 0)"/>
      </g>
     </g>
    </g>
    <g id="ytick_7">
     <g id="line2d_17">
      <g>
       <use xlink:href="#m07cb9e8000" x="61.963281" y="11.379141" style="stroke: #000000; stroke-width: 0.8"/>
      </g>
     </g>
     <g id="text_17">
      <!-- 300 -->
      <g transform="translate(33.967031 15.558281) scale(0.11 -0.11)">
       <use xlink:href="#DejaVuSans-33"/>
       <use xlink:href="#DejaVuSans-30" transform="translate(63.623047 0)"/>
       <use xlink:href="#DejaVuSans-30" transform="translate(127.246094 0)"/>
      </g>
     </g>
    </g>
    <g id="text_18">
     <!-- V$_{oc}$ (V) -->
     <g transform="translate(17.837813 184.476644) rotate(-90) scale(0.14 -0.14)">
      <defs>
       <path id="DejaVuSans-Bold-56" d="M 31 4666 
L 1241 4666 
L 2478 1222 
L 3713 4666 
L 4922 4666 
L 3194 0 
L 1759 0 
L 31 4666 
z
" transform="scale(0.015625)"/>
       <path id="DejaVuSans-Oblique-6f" d="M 1625 -91 
Q 1009 -91 651 289 
Q 294 669 294 1325 
Q 294 1706 417 2101 
Q 541 2497 738 2766 
Q 1047 3184 1428 3384 
Q 1809 3584 2291 3584 
Q 2888 3584 3255 3212 
Q 3622 2841 3622 2241 
Q 3622 1825 3500 1412 
Q 3378 1000 3181 728 
Q 2875 309 2494 109 
Q 2113 -91 1625 -91 
z
M 891 1344 
Q 891 869 1089 633 
Q 1288 397 1691 397 
Q 2269 397 2648 901 
Q 3028 1406 3028 2181 
Q 3028 2634 2825 2865 
Q 2622 3097 2228 3097 
Q 1903 3097 1650 2945 
Q 1397 2794 1197 2484 
Q 1050 2253 970 1956 
Q 891 1659 891 1344 
z
" transform="scale(0.015625)"/>
       <path id="DejaVuSans-Oblique-63" d="M 3431 3366 
L 3316 2797 
Q 3109 2947 2876 3022 
Q 2644 3097 2394 3097 
Q 2119 3097 1870 3000 
Q 1622 2903 1453 2725 
Q 1184 2453 1037 2087 
Q 891 1722 891 1331 
Q 891 859 1127 628 
Q 1363 397 1844 397 
Q 2081 397 2348 469 
Q 2616 541 2906 684 
L 2797 116 
Q 2547 13 2283 -39 
Q 2019 -91 1741 -91 
Q 1044 -91 669 257 
Q 294 606 294 1253 
Q 294 1797 489 2255 
Q 684 2713 1069 3078 
Q 1331 3328 1684 3456 
Q 2038 3584 2456 3584 
Q 2700 3584 2940 3529 
Q 3181 3475 3431 3366 
z
" transform="scale(0.015625)"/>
      </defs>
      <use xlink:href="#DejaVuSans-Bold-56" transform="translate(0 0.125)"/>
      <use xlink:href="#DejaVuSans-Oblique-6f" transform="translate(78.349609 -16.28125) scale(0.7)"/>
      <use xlink:href="#DejaVuSans-Oblique-63" transform="translate(121.176758 -16.28125) scale(0.7)"/>
      <use xlink:href="#DejaVuSans-Bold-20" transform="translate(162.397461 0.125)"/>
      <use xlink:href="#DejaVuSans-Bold-28" transform="translate(197.211914 0.125)"/>
      <use xlink:href="#DejaVuSans-Bold-56" transform="translate(242.915039 0.125)"/>
      <use xlink:href="#DejaVuSans-Bold-29" transform="translate(320.307617 0.125)"/>
     </g>
    </g>
   </g>
   <g id="patch_5">
    <path d="M 61.963281 309.693735 
L 61.963281 7.879553 
" style="fill: none; stroke: #000000; stroke-width: 0.8; stroke-linejoin: miter; stroke-linecap: square"/>
   </g>
   <g id="patch_6">
    <path d="M 61.963281 309.693735 
L 695.729281 309.693735 
" style="fill: none; stroke: #000000; stroke-width: 0.8; stroke-linejoin: miter; stroke-linecap: square"/>
   </g>
   <g id="line2d_18">
    <path d="M 61.963281 158.950661 
L 64.656787 158.979297 
L 64.815228 159.015469 
L 64.97367 158.768296 
L 65.290553 158.793918 
L 65.448994 159.013208 
L 67.033409 158.890375 
L 67.191851 159.130012 
L 68.300941 159.180501 
L 68.617824 159.157141 
L 68.776266 158.79241 
L 70.360681 158.90394 
L 70.519122 158.509066 
L 71.945096 158.482691 
L 72.261979 158.616074 
L 74.48016 158.669578 
L 75.58925 158.594974 
L 76.539899 158.542224 
L 76.698341 158.812757 
L 77.64899 158.820293 
L 78.599639 158.919011 
L 79.867171 158.893389 
L 80.025612 158.640188 
L 83.98665 158.469881 
L 84.303533 158.665056 
L 85.729506 158.784121 
L 85.887948 159.057668 
L 86.838597 159.014715 
L 87.472363 158.976283 
L 88.26457 158.692939 
L 88.898336 158.7585 
L 89.056778 158.71856 
L 89.215219 158.476663 
L 91.591842 158.702735 
L 91.750283 158.952922 
L 93.017815 158.956689 
L 93.810023 158.840639 
L 94.126906 158.886607 
L 94.285347 158.897911 
L 94.60223 158.723081 
L 94.919113 158.699721 
L 95.077555 158.428434 
L 95.552879 158.426173 
L 95.711321 158.45707 
L 95.869762 158.726096 
L 96.345087 158.784121 
L 97.137294 158.857218 
L 97.612619 158.828582 
L 97.929502 158.946139 
L 98.087943 158.90394 
L 98.404826 159.016976 
L 99.038592 159.018483 
L 99.197034 158.750964 
L 99.513917 158.725342 
L 99.8308 158.55202 
L 100.781449 158.558048 
L 101.573656 158.531674 
L 101.732098 158.81125 
L 102.207422 158.810496 
L 104.900928 159.187283 
L 105.059369 158.781107 
L 105.851577 158.744181 
L 106.16846 158.607785 
L 106.326901 158.600249 
L 106.485343 158.724588 
L 106.802226 158.556541 
L 107.752875 158.496256 
L 108.069758 158.32218 
L 108.228199 158.329716 
L 108.545082 158.475155 
L 109.178848 158.451795 
L 109.33729 158.614567 
L 109.812614 158.580656 
L 110.129497 158.726096 
L 110.44638 158.810496 
L 110.763263 158.637928 
L 111.397029 158.576888 
L 112.664561 158.66581 
L 112.981444 158.721574 
L 113.773652 158.8429 
L 113.932093 159.020743 
L 115.516508 159.026019 
L 115.67495 159.277712 
L 116.467157 159.205369 
L 117.417806 159.024512 
L 117.576248 159.261134 
L 118.685338 159.410341 
L 119.160663 158.961965 
L 120.111312 158.940111 
L 120.745078 158.9906 
L 120.903519 158.714792 
L 122.01261 158.57086 
L 122.329493 158.732124 
L 123.1217 158.783368 
L 123.280142 159.056915 
L 126.448972 159.152619 
L 126.607413 158.905447 
L 127.241179 158.818785 
L 128.033387 158.69746 
L 128.191828 158.891128 
L 128.35027 158.900171 
L 128.508711 158.75021 
L 129.300919 158.750964 
L 130.568451 158.772064 
L 131.043775 158.888868 
L 131.360658 158.919764 
L 131.5191 158.709517 
L 131.677541 158.686156 
L 131.994424 158.779599 
L 134.212605 158.730617 
L 135.004813 158.750964 
L 135.321696 158.651492 
L 137.85676 158.613059 
L 138.173643 158.507559 
L 138.332084 158.525645 
L 138.490526 158.670331 
L 139.441175 158.59196 
L 139.599616 158.890375 
L 141.184031 158.761514 
L 141.500914 158.872289 
L 142.768446 158.891882 
L 142.926888 158.59422 
L 143.877537 158.619088 
L 144.19442 158.683896 
L 144.511303 158.59422 
L 145.145069 158.493241 
L 145.620393 158.498516 
L 147.997016 158.652999 
L 148.313899 158.606277 
L 151.64117 158.872289 
L 152.591819 158.881332 
L 153.384027 158.837625 
L 154.176234 158.851943 
L 155.126883 158.672592 
L 155.285325 158.67862 
L 155.602208 158.49927 
L 158.612596 158.775832 
L 158.929479 158.968747 
L 159.721687 159.08329 
L 159.880128 158.905447 
L 160.355453 158.882086 
L 161.464543 158.752471 
L 161.939868 158.779599 
L 162.256751 158.70801 
L 163.048958 158.606277 
L 163.2074 158.780353 
L 164.158049 158.760007 
L 164.633373 158.81125 
L 165.267139 158.773571 
L 165.425581 159.002658 
L 166.059347 159.099115 
L 166.217788 159.102883 
L 166.534671 158.659027 
L 167.326879 158.71856 
L 167.48532 158.719314 
L 167.802203 158.607785 
L 168.119086 158.656767 
L 168.435969 158.808989 
L 168.594411 158.793918 
L 169.069735 158.36438 
L 169.386618 158.327455 
L 169.54506 158.207636 
L 169.703501 158.359105 
L 169.861943 158.827075 
L 170.812592 158.859479 
L 171.129475 158.949908 
L 172.080124 158.748703 
L 172.238565 159.000397 
L 172.71389 159.015469 
L 173.030773 159.098362 
L 173.189214 158.877564 
L 175.090512 158.897157 
L 175.88272 158.930315 
L 176.041161 158.772817 
L 176.358044 158.783368 
L 177.150252 158.733631 
L 179.209991 158.643956 
L 179.526874 158.897911 
L 182.537263 158.900925 
L 183.012587 158.680128 
L 183.646353 158.711024 
L 183.804795 158.505299 
L 184.280119 158.569352 
L 185.864534 158.602509 
L 186.181417 158.692939 
L 187.132066 158.778092 
L 187.448949 158.688417 
L 188.55804 158.680881 
L 189.191806 158.41713 
L 189.66713 158.405827 
L 191.251545 158.268676 
L 191.568428 158.348555 
L 192.043753 158.481937 
L 192.360636 158.630392 
L 194.737258 158.66581 
L 199.17362 158.609292 
L 200.441152 158.701228 
L 201.23336 158.713285 
L 202.184009 158.785628 
L 202.500892 158.844407 
L 203.134658 158.734385 
L 203.451541 158.772817 
L 204.243748 158.743428 
L 204.560631 158.640188 
L 205.51128 158.667317 
L 206.303488 158.454055 
L 206.620371 158.570106 
L 206.937254 158.496256 
L 207.57102 158.525645 
L 207.887903 158.652245 
L 209.789201 158.807482 
L 210.106084 158.957443 
L 211.84894 158.919011 
L 213.116472 159.023758 
L 213.433355 158.932575 
L 214.700887 159.035815 
L 214.859329 158.931822 
L 215.334653 158.967993 
L 216.126861 159.050133 
L 216.443744 159.053901 
L 218.028159 158.995122 
L 218.345042 159.128505 
L 221.672313 159.208384 
L 221.830755 159.40356 
L 222.306079 159.339506 
L 222.464521 159.353823 
L 222.781404 159.21818 
L 223.732053 159.209137 
L 224.999585 159.297305 
L 225.158026 159.101376 
L 227.376207 159.282234 
L 227.534649 159.097608 
L 229.119064 159.065204 
L 230.703479 158.785628 
L 230.86192 158.931068 
L 231.337245 158.784121 
L 231.971011 158.808989 
L 233.238543 158.553527 
L 233.396984 158.701982 
L 234.347633 158.673346 
L 234.664516 158.712531 
L 235.298282 158.609292 
L 235.773607 158.553527 
L 235.932048 158.708764 
L 237.358022 158.631145 
L 238.150229 158.641695 
L 238.308671 158.469127 
L 241.477501 158.286762 
L 241.635942 158.576888 
L 244.329448 158.498516 
L 244.646331 158.491734 
L 244.804772 158.511327 
L 245.121655 158.370408 
L 246.230746 158.381712 
L 247.498278 158.408841 
L 247.973602 158.463098 
L 248.132044 158.734385 
L 248.76581 158.747196 
L 249.558017 158.821046 
L 250.191783 158.933329 
L 250.667108 158.931822 
L 251.142432 158.888868 
L 251.300874 158.867014 
L 251.459315 158.576134 
L 251.617757 158.561063 
L 251.93464 158.713285 
L 253.202172 158.671839 
L 253.677496 158.648478 
L 254.311262 158.716299 
L 254.628145 158.778846 
L 254.945028 158.779599 
L 255.420353 158.545991 
L 258.113858 158.459331 
L 259.064507 158.673346 
L 260.173598 158.823307 
L 260.648922 158.91675 
L 265.560609 158.694446 
L 265.71905 158.791657 
L 265.877492 158.668824 
L 267.145024 158.83461 
L 267.620348 158.812004 
L 267.937231 159.012454 
L 268.570997 159.001904 
L 268.88788 158.882839 
L 269.046322 158.778092 
L 269.363205 158.869275 
L 269.838529 158.873796 
L 269.996971 158.714792 
L 270.94762 158.667317 
L 271.264503 158.490227 
L 271.898269 158.434462 
L 272.05671 158.549006 
L 273.007359 158.513588 
L 277.126838 158.723081 
L 277.443721 158.59422 
L 277.760604 158.549006 
L 279.028136 158.793164 
L 279.345019 158.698967 
L 280.137227 158.69746 
L 280.770993 158.766789 
L 281.246317 158.816525 
L 281.404759 158.84516 
L 281.880083 158.531674 
L 283.781381 158.493241 
L 284.098264 158.647724 
L 285.841121 158.841393 
L 286.158004 158.842146 
L 287.425536 158.812757 
L 288.059302 158.714792 
L 288.693068 158.720067 
L 291.228132 158.740414 
L 292.812547 158.801453 
L 293.921637 158.699721 
L 295.030728 158.58141 
L 295.347611 158.316151 
L 295.822935 158.351569 
L 296.139818 158.485705 
L 297.090467 158.48043 
L 297.724233 158.564831 
L 298.041116 158.673346 
L 298.357999 158.636421 
L 298.674882 158.801453 
L 299.150207 158.748703 
L 299.46709 158.660535 
L 301.209946 158.633406 
L 301.685271 158.705749 
L 302.002154 158.685403 
L 302.160595 158.743428 
L 302.319037 158.584424 
L 302.794361 158.691432 
L 303.428127 158.76076 
L 303.74501 158.643956 
L 304.854101 158.515849 
L 305.170984 158.790903 
L 305.487867 158.67862 
L 305.646308 158.826321 
L 306.755399 158.760007 
L 307.072282 158.899418 
L 307.706048 158.907707 
L 308.022931 158.9273 
L 308.498255 158.539209 
L 308.656697 158.55202 
L 308.97358 158.958197 
L 309.607346 158.902432 
L 310.08267 158.863246 
L 311.350202 158.901679 
L 311.508644 159.132272 
L 311.825527 159.124737 
L 311.983968 159.130765 
L 312.300851 158.738907 
L 313.2515 158.674853 
L 313.726825 158.701982 
L 315.628123 158.66581 
L 315.786564 158.918257 
L 317.370979 158.983818 
L 317.687862 158.974775 
L 318.48007 158.962718 
L 318.955394 158.972515 
L 319.113836 158.717807 
L 319.906043 158.653753 
L 322.75799 158.585931 
L 323.074873 158.815771 
L 324.81773 158.952168 
L 324.976171 159.09384 
L 325.609937 159.057668 
L 326.085262 159.123983 
L 326.243703 158.946139 
L 327.511235 158.899418 
L 328.303443 158.791657 
L 329.09565 158.92504 
L 329.729416 158.894143 
L 332.106039 158.857218 
L 332.422922 158.719314 
L 333.056688 158.754732 
L 333.848895 158.793164 
L 334.799544 158.83461 
L 335.116427 158.79015 
L 338.60214 158.879825 
L 339.394348 158.851189 
L 339.869672 158.78186 
L 340.028114 158.650738 
L 340.978763 158.723835 
L 341.137204 158.971008 
L 341.454087 158.91675 
L 341.929412 158.960458 
L 342.246295 158.911475 
L 343.989151 158.906954 
L 344.306034 158.889621 
L 344.464476 158.62361 
L 345.573566 158.738153 
L 345.732008 158.918257 
L 347.157981 158.793918 
L 348.267072 158.79241 
L 349.851487 158.659781 
L 350.326811 158.751717 
L 351.911226 158.690678 
L 352.228109 158.516602 
L 353.178758 158.512834 
L 353.3372 158.749457 
L 353.970966 158.808235 
L 354.44629 158.791657 
L 355.238498 158.864753 
L 355.555381 159.028279 
L 355.872264 158.913736 
L 356.50603 158.829336 
L 356.664471 158.585177 
L 358.882652 158.652999 
L 359.199535 158.782614 
L 359.516418 158.8218 
L 359.991743 158.889621 
L 360.150184 159.138301 
L 360.625509 159.055408 
L 361.417716 159.08329 
L 361.576158 158.95895 
L 361.893041 159.075001 
L 362.209924 158.991354 
L 363.319014 158.92504 
L 363.477456 158.647724 
L 364.111222 158.732878 
L 364.744988 158.642449 
L 364.903429 158.769803 
L 365.220312 158.651492 
L 365.537195 158.705749 
L 366.170961 158.701228 
L 367.12161 158.763775 
L 367.596935 158.684649 
L 370.765765 158.607785 
L 371.557972 158.690678 
L 373.617712 158.791657 
L 373.776153 159.034308 
L 373.934595 158.857218 
L 374.568361 158.879071 
L 376.6281 158.791657 
L 376.944983 158.798439 
L 377.103425 158.538455 
L 377.261866 158.71856 
L 378.846281 158.67636 
L 378.846281 158.67636 
" clip-path="url(#p55af966489)" style="fill: none; stroke: #333333; stroke-width: 0.8; stroke-linecap: square"/>
   </g>
   <g id="line2d_19">
    <path d="M 378.846281 52.165107 
L 379.955372 52.65644 
L 380.113813 52.596907 
L 382.015111 54.370831 
L 383.282643 56.223127 
L 385.0255 61.65718 
L 385.817707 65.588597 
L 386.451473 70.290922 
L 386.926798 75.321052 
L 387.402122 82.536552 
L 387.877447 94.474708 
L 388.19433 107.737636 
L 390.729394 243.434555 
L 391.046277 252.380987 
L 391.204718 254.481951 
L 391.36316 254.534701 
L 391.521601 251.997418 
L 391.838484 240.405193 
L 392.630692 199.01513 
L 394.690431 86.352644 
L 395.165756 71.737781 
L 395.64108 62.742328 
L 396.116405 57.024179 
L 396.591729 53.28417 
L 397.225495 50.208063 
L 397.542378 48.982744 
L 398.176144 47.694124 
L 398.80991 47.065639 
L 399.285235 46.651171 
L 399.602118 46.65946 
L 399.760559 46.211834 
L 399.919001 46.281917 
L 400.077442 46.202038 
L 400.552767 46.510252 
L 402.929389 47.034743 
L 403.087831 47.362549 
L 403.721597 47.627056 
L 405.939778 49.376112 
L 407.048868 50.6896 
L 407.365751 50.79284 
L 408.3164 51.41605 
L 408.950166 51.905876 
L 409.425491 51.76571 
L 409.583932 52.080706 
L 409.742374 51.907383 
L 410.059257 52.080706 
L 410.217698 51.793592 
L 411.48523 52.779274 
L 411.802113 53.166613 
L 412.277438 53.429612 
L 412.435879 53.729536 
L 412.594321 53.703161 
L 412.752762 53.835037 
L 412.911204 53.749129 
L 413.703411 54.568269 
L 414.337177 55.348976 
L 414.495619 55.682058 
L 414.65406 55.73104 
L 415.763151 57.761181 
L 417.189124 62.930727 
L 417.981332 67.522277 
L 418.456656 71.532064 
L 418.931981 77.174097 
L 419.407305 85.828928 
L 419.88263 100.490502 
L 420.357954 126.744298 
L 421.625486 200.959337 
L 422.576135 243.922871 
L 422.893018 252.691459 
L 423.05146 254.680894 
L 423.209901 254.495515 
L 423.368343 252.017764 
L 423.685226 240.228103 
L 424.635875 189.717527 
L 426.537173 85.724915 
L 427.012497 71.26152 
L 427.646263 60.452206 
L 428.280029 54.483867 
L 428.913795 51.403239 
L 429.706003 49.483874 
L 430.022886 49.102563 
L 430.815093 47.963905 
L 432.082625 47.423589 
L 432.241067 47.408518 
L 432.55795 46.989528 
L 432.874833 47.089 
L 433.033274 47.064886 
L 433.350157 46.81093 
L 434.459248 46.939038 
L 435.409897 47.310552 
L 436.360546 47.94582 
L 437.628078 48.905125 
L 438.578727 49.425095 
L 438.89561 49.514771 
L 439.529376 49.895328 
L 441.272232 50.956367 
L 441.589115 51.164355 
L 442.06444 51.596155 
L 442.698206 52.028709 
L 444.282621 53.060359 
L 445.074828 53.763447 
L 445.550153 54.180176 
L 446.500802 55.415291 
L 447.451451 57.260805 
L 448.085217 58.942792 
L 448.877424 61.952582 
L 449.51119 65.281137 
L 450.144956 70.018127 
L 450.620281 75.1839 
L 451.095605 82.661645 
L 451.57093 94.903493 
L 451.887813 108.247806 
L 454.264435 238.430069 
L 454.73976 252.885127 
L 454.898201 254.809755 
L 455.056643 254.888881 
L 455.215084 252.254386 
L 455.531967 240.09246 
L 456.482616 189.365608 
L 458.383914 85.442323 
L 458.859239 70.854588 
L 459.334563 62.150769 
L 459.968329 54.897581 
L 460.443654 51.938279 
L 461.07742 49.164356 
L 461.552744 47.975963 
L 462.978718 46.541149 
L 463.295601 46.510252 
L 463.454042 46.437908 
L 463.612484 46.031729 
L 463.770925 46.098798 
L 464.087808 45.986515 
L 464.404691 46.291714 
L 465.989106 46.510252 
L 466.464431 46.680561 
L 466.939755 46.974456 
L 468.207287 47.775511 
L 468.52417 48.028713 
L 468.999495 48.351245 
L 470.58391 49.653429 
L 472.326766 50.84333 
L 472.960532 51.296231 
L 473.118974 51.226148 
L 473.75274 51.584851 
L 474.069623 51.966162 
L 475.020272 52.395702 
L 475.812479 52.817706 
L 476.287804 53.137977 
L 476.604687 53.543402 
L 476.763128 53.522302 
L 477.396894 54.067893 
L 477.713777 54.421321 
L 478.03066 55.02117 
L 478.664426 55.937521 
L 479.298192 57.305266 
L 479.931958 59.018903 
L 481.19949 64.759661 
L 481.833256 69.061837 
L 482.308581 73.581795 
L 482.783905 80.125859 
L 483.25923 90.582488 
L 483.576113 101.522148 
L 484.051437 128.023867 
L 485.318969 201.932954 
L 486.269618 244.827913 
L 486.586501 253.188064 
L 486.744943 254.838391 
L 486.903384 254.46914 
L 487.061826 251.625152 
L 487.378709 239.625997 
L 488.329358 188.69568 
L 490.230656 85.615647 
L 490.864422 68.067107 
L 491.498188 58.979715 
L 492.131954 53.902104 
L 492.76572 50.905876 
L 493.082603 50.210323 
L 493.716369 48.272873 
L 494.667018 46.845594 
L 495.300784 46.426605 
L 496.092991 46.476341 
L 496.251433 46.196763 
L 496.409874 46.189981 
L 496.726757 46.345972 
L 497.202082 46.371593 
L 497.360523 46.154563 
L 498.469614 46.51402 
L 498.786497 46.793598 
L 499.420263 46.972949 
L 499.578704 46.899099 
L 500.529353 47.638359 
L 500.846236 48.1523 
L 501.955327 48.974455 
L 502.113768 48.922458 
L 502.747534 49.396459 
L 503.064417 49.786059 
L 503.3813 49.969178 
L 503.698183 50.391936 
L 505.282598 51.623284 
L 505.599481 51.947323 
L 505.757923 52.023434 
L 505.916364 52.376109 
L 506.708572 52.715973 
L 506.867013 52.593893 
L 507.025455 52.694119 
L 507.183896 52.617254 
L 507.500779 53.026447 
L 507.659221 52.9428 
L 508.134545 53.379122 
L 508.768311 53.604442 
L 509.085194 53.99781 
L 509.243636 53.892309 
L 510.828051 56.265328 
L 511.144934 57.116118 
L 511.461817 57.845581 
L 512.095583 60.004583 
L 512.729349 62.743086 
L 513.521556 67.305247 
L 513.996881 71.635304 
L 514.472205 77.410721 
L 514.94753 86.583257 
L 515.422854 101.736163 
L 515.898179 128.652349 
L 517.324152 210.434029 
L 518.11636 244.673431 
L 518.433243 252.909996 
L 518.591684 254.528673 
L 518.750126 254.079543 
L 518.908567 251.380241 
L 519.22545 238.954564 
L 520.017658 197.107833 
L 522.077397 85.255437 
L 522.552722 70.901311 
L 523.028046 62.207288 
L 523.503371 56.971429 
L 523.978695 53.320342 
L 524.770903 49.131952 
L 525.56311 47.151547 
L 525.879993 46.693371 
L 526.038435 46.633085 
L 526.830642 45.69714 
L 527.147525 45.770991 
L 527.305967 45.639868 
L 527.464408 45.671519 
L 528.098174 46.150041 
L 528.415057 46.131955 
L 529.524148 46.27815 
L 529.841031 46.310554 
L 530.950121 46.806408 
L 531.267004 47.177923 
L 532.059212 47.685081 
L 532.534536 48.12065 
L 533.168302 48.658705 
L 534.277393 49.406255 
L 534.435834 49.282668 
L 535.544925 49.884778 
L 535.861808 50.288696 
L 536.337132 50.584852 
L 536.495574 50.924717 
L 536.812457 51.038507 
L 537.446223 51.388921 
L 537.604664 51.681309 
L 537.763106 51.660963 
L 538.713755 52.390427 
L 538.872196 52.446945 
L 539.030638 52.345966 
L 539.505962 52.618008 
L 539.664404 52.783795 
L 539.822845 52.607458 
L 540.29817 52.783795 
L 540.615053 53.141745 
L 540.773494 53.298489 
L 540.931936 53.27136 
L 541.248819 53.746868 
L 541.565702 54.003839 
L 542.991675 56.657189 
L 543.467 58.082959 
L 545.051415 65.287165 
L 545.685181 70.129656 
L 546.160505 75.284126 
L 546.63583 82.993972 
L 547.111154 95.6322 
L 547.428037 109.354808 
L 549.487777 225.51682 
L 550.121543 249.734435 
L 550.438426 254.781873 
L 550.596867 254.368161 
L 550.755309 251.354619 
L 551.072192 238.605658 
L 551.864399 196.963147 
L 553.924139 84.640519 
L 554.399463 70.667701 
L 554.874788 61.627033 
L 555.508554 55.275124 
L 555.983878 52.310547 
L 556.934527 48.9104 
L 557.409852 47.95637 
L 558.518942 46.446951 
L 558.677384 46.422083 
L 558.994267 46.228413 
L 560.261799 46.014397 
L 561.529331 46.214849 
L 563.430629 47.198269 
L 564.856602 48.358027 
L 565.173485 48.816957 
L 565.965693 49.196007 
L 567.866991 50.599924 
L 568.183874 50.728032 
L 568.342315 50.566766 
L 568.976081 50.892313 
L 570.402055 51.901354 
L 570.560496 51.733306 
L 570.877379 52.042274 
L 571.194262 52.390427 
L 571.828028 52.995551 
L 571.98647 53.006101 
L 572.937119 53.984246 
L 573.09556 54.231419 
L 573.254002 54.261563 
L 574.204651 55.73104 
L 575.1553 57.657941 
L 576.581273 63.191465 
L 577.215039 67.212557 
L 577.848805 73.190688 
L 578.32413 80.018851 
L 578.799454 90.748274 
L 579.116337 102.220711 
L 579.591662 129.607127 
L 580.859194 202.917123 
L 581.651401 239.512956 
L 582.126726 253.456337 
L 582.285167 254.92882 
L 582.443609 254.213679 
L 582.60205 250.989136 
L 583.077375 230.589892 
L 584.344907 160.649887 
L 585.612439 90.659331 
L 586.087763 74.168065 
L 586.721529 61.765691 
L 587.355295 54.859149 
L 587.989061 51.134964 
L 588.622827 48.75667 
L 589.098152 47.936023 
L 589.415035 47.501962 
L 589.731918 46.854637 
L 590.682567 46.240471 
L 591.157891 46.136477 
L 591.791657 46.021933 
L 592.266982 45.95185 
L 592.742306 45.907389 
L 593.534514 46.062626 
L 593.851397 46.220878 
L 594.16828 46.26986 
L 594.960487 46.649664 
L 596.069578 47.432632 
L 596.228019 47.806408 
L 596.544902 47.994802 
L 597.653993 48.826 
L 597.970876 48.926226 
L 598.4462 49.249511 
L 598.604642 49.41153 
L 598.763083 50.055087 
L 599.396849 50.536623 
L 599.555291 50.381386 
L 600.822823 51.173397 
L 600.981264 51.210323 
L 601.456589 51.590126 
L 601.773472 51.752146 
L 601.931913 51.742349 
L 602.090355 51.292463 
L 602.248796 51.265334 
L 602.565679 51.363299 
L 603.041004 51.649659 
L 603.833211 52.202032 
L 604.942302 53.333908 
L 605.417626 54.023432 
L 607.477366 59.12365 
L 608.428015 63.426581 
L 609.695547 73.648863 
L 610.170871 80.406943 
L 610.646196 91.230563 
L 610.963079 102.706768 
L 611.596845 140.224994 
L 612.864377 211.473207 
L 613.656584 245.520448 
L 613.973467 253.397558 
L 614.131909 254.767556 
L 614.29035 253.862513 
L 614.607233 244.648567 
L 615.399441 204.023386 
L 617.617622 83.225301 
L 618.092946 69.381344 
L 618.568271 61.094253 
L 619.043595 55.813179 
L 619.51892 52.410773 
L 619.994244 50.397211 
L 620.311127 49.320347 
L 620.62801 48.766467 
L 621.261776 47.657953 
L 621.895542 46.992542 
L 622.529308 46.6783 
L 623.638399 46.492166 
L 623.79684 46.276643 
L 625.381255 46.523816 
L 625.85658 46.697893 
L 626.807229 47.125926 
L 628.866968 48.395706 
L 629.183851 48.682066 
L 630.609825 49.40927 
L 630.768266 49.40098 
L 631.085149 49.641372 
L 631.402032 49.79887 
L 631.718915 50.186209 
L 632.19424 50.358779 
L 632.352681 50.349736 
L 632.828006 50.661718 
L 633.144889 51.027203 
L 633.778655 51.377617 
L 633.937096 51.4266 
L 634.412421 51.917933 
L 636.47216 53.535113 
L 637.422809 54.884018 
L 637.898134 55.616496 
L 638.056575 56.073165 
L 638.215017 56.141741 
L 638.690341 57.221619 
L 639.957873 61.566751 
L 640.591639 64.865162 
L 641.066964 68.305244 
L 641.542288 73.041479 
L 642.017613 79.764141 
L 642.492937 90.721898 
L 642.80982 102.488983 
L 643.443586 140.410371 
L 644.711118 211.800258 
L 645.503326 245.990679 
L 645.820209 253.637948 
L 645.97865 254.807495 
L 646.137092 253.744202 
L 646.453975 244.497852 
L 647.404624 195.021186 
L 649.464363 83.286341 
L 649.939688 69.69634 
L 650.415012 61.33163 
L 651.048778 54.531342 
L 651.524103 51.75742 
L 652.157869 49.318086 
L 652.791635 47.91643 
L 653.108518 47.33316 
L 653.583842 46.758179 
L 654.217608 46.315075 
L 654.534491 46.218617 
L 654.692933 45.978225 
L 655.48514 46.077697 
L 656.911114 46.09503 
L 657.069555 46.016658 
L 658.812412 46.777773 
L 659.446178 47.318088 
L 660.238385 48.033235 
L 660.555268 48.648908 
L 662.773449 50.492916 
L 663.090332 50.876487 
L 663.407215 50.902862 
L 663.724098 50.978221 
L 663.88254 50.93602 
L 664.357864 51.239712 
L 664.516306 51.216352 
L 664.99163 51.625544 
L 665.150072 51.84785 
L 665.466955 51.720496 
L 666.100721 52.116125 
L 666.259162 52.02268 
L 667.843577 53.14702 
L 668.318902 53.673771 
L 668.477343 53.702407 
L 668.952668 54.351238 
L 669.427992 55.068645 
L 669.903317 55.969925 
L 671.487732 60.860648 
L 672.121498 63.91716 
L 672.755264 68.083693 
L 673.230588 72.456704 
L 673.705913 78.57123 
L 674.022796 84.131874 
L 674.49812 97.391046 
L 674.815003 112.075213 
L 676.716301 220.730115 
L 677.350067 246.887431 
L 677.66695 254.377957 
L 677.825392 255.419397 
L 677.983833 254.09612 
L 678.300716 244.32453 
L 679.092924 203.517737 
L 681.311105 83.311211 
L 681.786429 69.66469 
L 682.261754 61.301487 
L 682.737078 56.152289 
L 683.212403 52.689597 
L 683.846169 49.751394 
L 684.638376 47.86594 
L 685.272142 47.098797 
L 685.589025 46.90136 
L 686.06435 46.573553 
L 687.014999 46.622535 
L 687.17344 46.567524 
L 687.331882 46.318089 
L 687.807206 46.286439 
L 688.124089 46.276643 
L 689.391621 46.52457 
L 689.866946 46.622535 
L 690.500712 46.819973 
L 690.817595 47.175662 
L 691.134478 47.423589 
L 691.451361 47.936777 
L 694.144866 49.477845 
L 694.461749 49.74009 
L 695.729281 50.571288 
L 695.729281 50.571288 
" clip-path="url(#p55af966489)" style="fill: none; stroke: #d94452; stroke-width: 0.8; stroke-linecap: square"/>
   </g>
   <g id="text_19">
    <g id="patch_7">
     <path d="M 184.504781 297.603026 
L 256.304781 297.603026 
Q 259.304781 297.603026 259.304781 294.603026 
L 259.304781 284.003026 
Q 259.304781 281.003026 256.304781 281.003026 
L 184.504781 281.003026 
Q 181.504781 281.003026 181.504781 284.003026 
L 181.504781 294.603026 
Q 181.504781 297.603026 184.504781 297.603026 
z
" style="fill: #ffffff; opacity: 0.85; stroke: #333333; stroke-linejoin: miter"/>
    </g>
    <!-- V$_{p-p}$ = 2.47 V -->
    <g style="fill: #333333" transform="translate(184.504781 291.503026) scale(0.1 -0.1)">
     <defs>
      <path id="DejaVuSans-56" d="M 1831 0 
L 50 4666 
L 709 4666 
L 2188 738 
L 3669 4666 
L 4325 4666 
L 2547 0 
L 1831 0 
z
" transform="scale(0.015625)"/>
      <path id="DejaVuSans-Oblique-70" d="M 3175 2156 
Q 3175 2616 2975 2859 
Q 2775 3103 2400 3103 
Q 2144 3103 1911 2972 
Q 1678 2841 1497 2591 
Q 1319 2344 1212 1994 
Q 1106 1644 1106 1300 
Q 1106 863 1306 627 
Q 1506 391 1875 391 
Q 2147 391 2380 519 
Q 2613 647 2778 891 
Q 2956 1147 3065 1494 
Q 3175 1841 3175 2156 
z
M 1394 2969 
Q 1625 3272 1939 3428 
Q 2253 3584 2638 3584 
Q 3175 3584 3472 3232 
Q 3769 2881 3769 2247 
Q 3769 1728 3584 1258 
Q 3400 788 3053 416 
Q 2822 169 2531 39 
Q 2241 -91 1919 -91 
Q 1547 -91 1294 64 
Q 1041 219 916 525 
L 556 -1331 
L -19 -1331 
L 922 3500 
L 1497 3500 
L 1394 2969 
z
" transform="scale(0.015625)"/>
      <path id="DejaVuSans-20" transform="scale(0.015625)"/>
      <path id="DejaVuSans-3d" d="M 678 2906 
L 4684 2906 
L 4684 2381 
L 678 2381 
L 678 2906 
z
M 678 1631 
L 4684 1631 
L 4684 1100 
L 678 1100 
L 678 1631 
z
" transform="scale(0.015625)"/>
      <path id="DejaVuSans-37" d="M 525 4666 
L 3525 4666 
L 3525 4397 
L 1831 0 
L 1172 0 
L 2766 4134 
L 525 4134 
L 525 4666 
z
" transform="scale(0.015625)"/>
     </defs>
     <use xlink:href="#DejaVuSans-56" transform="translate(0 0.78125)"/>
     <use xlink:href="#DejaVuSans-Oblique-70" transform="translate(69.365234 -15.625) scale(0.7)"/>
     <use xlink:href="#DejaVuSans-2212" transform="translate(127.436523 -15.625) scale(0.7)"/>
     <use xlink:href="#DejaVuSans-Oblique-70" transform="translate(199.726562 -15.625) scale(0.7)"/>
     <use xlink:href="#DejaVuSans-20" transform="translate(246.894531 0.78125)"/>
     <use xlink:href="#DejaVuSans-3d" transform="translate(278.681641 0.78125)"/>
     <use xlink:href="#DejaVuSans-20" transform="translate(362.470703 0.78125)"/>
     <use xlink:href="#DejaVuSans-32" transform="translate(394.257812 0.78125)"/>
     <use xlink:href="#DejaVuSans-2e" transform="translate(457.880859 0.78125)"/>
     <use xlink:href="#DejaVuSans-34" transform="translate(489.667969 0.78125)"/>
     <use xlink:href="#DejaVuSans-37" transform="translate(553.291016 0.78125)"/>
     <use xlink:href="#DejaVuSans-20" transform="translate(616.914062 0.78125)"/>
     <use xlink:href="#DejaVuSans-56" transform="translate(648.701172 0.78125)"/>
    </g>
   </g>
   <g id="text_20">
    <g id="patch_8">
     <path d="M 495.037781 297.603026 
L 579.537781 297.603026 
Q 582.537781 297.603026 582.537781 294.603026 
L 582.537781 284.003026 
Q 582.537781 281.003026 579.537781 281.003026 
L 495.037781 281.003026 
Q 492.037781 281.003026 492.037781 284.003026 
L 492.037781 294.603026 
Q 492.037781 297.603026 495.037781 297.603026 
z
" style="fill: #ffffff; opacity: 0.85; stroke: #d94452; stroke-linejoin: miter"/>
    </g>
    <!-- V$_{p-p}$ = 426.94 V -->
    <g style="fill: #d94452" transform="translate(495.037781 291.503026) scale(0.1 -0.1)">
     <defs>
      <path id="DejaVuSans-36" d="M 2113 2584 
Q 1688 2584 1439 2293 
Q 1191 2003 1191 1497 
Q 1191 994 1439 701 
Q 1688 409 2113 409 
Q 2538 409 2786 701 
Q 3034 994 3034 1497 
Q 3034 2003 2786 2293 
Q 2538 2584 2113 2584 
z
M 3366 4563 
L 3366 3988 
Q 3128 4100 2886 4159 
Q 2644 4219 2406 4219 
Q 1781 4219 1451 3797 
Q 1122 3375 1075 2522 
Q 1259 2794 1537 2939 
Q 1816 3084 2150 3084 
Q 2853 3084 3261 2657 
Q 3669 2231 3669 1497 
Q 3669 778 3244 343 
Q 2819 -91 2113 -91 
Q 1303 -91 875 529 
Q 447 1150 447 2328 
Q 447 3434 972 4092 
Q 1497 4750 2381 4750 
Q 2619 4750 2861 4703 
Q 3103 4656 3366 4563 
z
" transform="scale(0.015625)"/>
      <path id="DejaVuSans-39" d="M 703 97 
L 703 672 
Q 941 559 1184 500 
Q 1428 441 1663 441 
Q 2288 441 2617 861 
Q 2947 1281 2994 2138 
Q 2813 1869 2534 1725 
Q 2256 1581 1919 1581 
Q 1219 1581 811 2004 
Q 403 2428 403 3163 
Q 403 3881 828 4315 
Q 1253 4750 1959 4750 
Q 2769 4750 3195 4129 
Q 3622 3509 3622 2328 
Q 3622 1225 3098 567 
Q 2575 -91 1691 -91 
Q 1453 -91 1209 -44 
Q 966 3 703 97 
z
M 1959 2075 
Q 2384 2075 2632 2365 
Q 2881 2656 2881 3163 
Q 2881 3666 2632 3958 
Q 2384 4250 1959 4250 
Q 1534 4250 1286 3958 
Q 1038 3666 1038 3163 
Q 1038 2656 1286 2365 
Q 1534 2075 1959 2075 
z
" transform="scale(0.015625)"/>
     </defs>
     <use xlink:href="#DejaVuSans-56" transform="translate(0 0.78125)"/>
     <use xlink:href="#DejaVuSans-Oblique-70" transform="translate(69.365234 -15.625) scale(0.7)"/>
     <use xlink:href="#DejaVuSans-2212" transform="translate(127.436523 -15.625) scale(0.7)"/>
     <use xlink:href="#DejaVuSans-Oblique-70" transform="translate(199.726562 -15.625) scale(0.7)"/>
     <use xlink:href="#DejaVuSans-20" transform="translate(246.894531 0.78125)"/>
     <use xlink:href="#DejaVuSans-3d" transform="translate(278.681641 0.78125)"/>
     <use xlink:href="#DejaVuSans-20" transform="translate(362.470703 0.78125)"/>
     <use xlink:href="#DejaVuSans-34" transform="translate(394.257812 0.78125)"/>
     <use xlink:href="#DejaVuSans-32" transform="translate(457.880859 0.78125)"/>
     <use xlink:href="#DejaVuSans-36" transform="translate(521.503906 0.78125)"/>
     <use xlink:href="#DejaVuSans-2e" transform="translate(585.126953 0.78125)"/>
     <use xlink:href="#DejaVuSans-39" transform="translate(616.914062 0.78125)"/>
     <use xlink:href="#DejaVuSans-34" transform="translate(680.537109 0.78125)"/>
     <use xlink:href="#DejaVuSans-20" transform="translate(744.160156 0.78125)"/>
     <use xlink:href="#DejaVuSans-56" transform="translate(775.947266 0.78125)"/>
    </g>
   </g>
   <g id="text_21">
    <g id="patch_9">
     <path d="M 619.099895 40.751825 
L 676.716301 40.751825 
Q 681.916301 40.751825 681.916301 35.551825 
L 681.916301 22.970262 
Q 681.916301 17.770262 676.716301 17.770262 
L 619.099895 17.770262 
Q 613.899895 17.770262 613.899895 22.970262 
L 613.899895 35.551825 
Q 613.899895 40.751825 619.099895 40.751825 
z
" style="fill: #ffffff; opacity: 0.9; stroke: #f0ad4e; stroke-width: 1.5; stroke-linejoin: miter"/>
    </g>
    <!-- f = 5 Hz -->
    <g style="fill: #f0ad4e" transform="translate(619.099895 32.848231) scale(0.13 -0.13)">
     <defs>
      <path id="DejaVuSans-Bold-66" d="M 2841 4863 
L 2841 4128 
L 2222 4128 
Q 1984 4128 1890 4042 
Q 1797 3956 1797 3744 
L 1797 3500 
L 2753 3500 
L 2753 2700 
L 1797 2700 
L 1797 0 
L 678 0 
L 678 2700 
L 122 2700 
L 122 3500 
L 678 3500 
L 678 3744 
Q 678 4316 997 4589 
Q 1316 4863 1984 4863 
L 2841 4863 
z
" transform="scale(0.015625)"/>
      <path id="DejaVuSans-Bold-3d" d="M 678 3084 
L 4684 3084 
L 4684 2350 
L 678 2350 
L 678 3084 
z
M 678 1663 
L 4684 1663 
L 4684 922 
L 678 922 
L 678 1663 
z
" transform="scale(0.015625)"/>
      <path id="DejaVuSans-Bold-35" d="M 678 4666 
L 3669 4666 
L 3669 3781 
L 1638 3781 
L 1638 3059 
Q 1775 3097 1914 3117 
Q 2053 3138 2203 3138 
Q 3056 3138 3531 2711 
Q 4006 2284 4006 1522 
Q 4006 766 3489 337 
Q 2972 -91 2053 -91 
Q 1656 -91 1267 -14 
Q 878 63 494 219 
L 494 1166 
Q 875 947 1217 837 
Q 1559 728 1863 728 
Q 2300 728 2551 942 
Q 2803 1156 2803 1522 
Q 2803 1891 2551 2103 
Q 2300 2316 1863 2316 
Q 1603 2316 1309 2248 
Q 1016 2181 678 2041 
L 678 4666 
z
" transform="scale(0.015625)"/>
      <path id="DejaVuSans-Bold-48" d="M 588 4666 
L 1791 4666 
L 1791 2888 
L 3566 2888 
L 3566 4666 
L 4769 4666 
L 4769 0 
L 3566 0 
L 3566 1978 
L 1791 1978 
L 1791 0 
L 588 0 
L 588 4666 
z
" transform="scale(0.015625)"/>
      <path id="DejaVuSans-Bold-7a" d="M 366 3500 
L 3419 3500 
L 3419 2719 
L 1575 800 
L 3419 800 
L 3419 0 
L 288 0 
L 288 781 
L 2131 2700 
L 366 2700 
L 366 3500 
z
" transform="scale(0.015625)"/>
     </defs>
     <use xlink:href="#DejaVuSans-Bold-66"/>
     <use xlink:href="#DejaVuSans-Bold-20" transform="translate(43.505859 0)"/>
     <use xlink:href="#DejaVuSans-Bold-3d" transform="translate(78.320312 0)"/>
     <use xlink:href="#DejaVuSans-Bold-20" transform="translate(162.109375 0)"/>
     <use xlink:href="#DejaVuSans-Bold-35" transform="translate(196.923828 0)"/>
     <use xlink:href="#DejaVuSans-Bold-20" transform="translate(266.503906 0)"/>
     <use xlink:href="#DejaVuSans-Bold-48" transform="translate(301.318359 0)"/>
     <use xlink:href="#DejaVuSans-Bold-7a" transform="translate(385.009766 0)"/>
    </g>
   </g>
   <g id="text_22">
    <!-- Without MIC -->
    <g style="fill: #333333" transform="translate(171.67275 33.608075) scale(0.14 -0.14)">
     <defs>
      <path id="DejaVuSans-Bold-57" d="M 191 4666 
L 1344 4666 
L 2150 1275 
L 2950 4666 
L 4109 4666 
L 4909 1275 
L 5716 4666 
L 6859 4666 
L 5759 0 
L 4372 0 
L 3525 3547 
L 2688 0 
L 1300 0 
L 191 4666 
z
" transform="scale(0.015625)"/>
      <path id="DejaVuSans-Bold-74" d="M 1759 4494 
L 1759 3500 
L 2913 3500 
L 2913 2700 
L 1759 2700 
L 1759 1216 
Q 1759 972 1856 886 
Q 1953 800 2241 800 
L 2816 800 
L 2816 0 
L 1856 0 
Q 1194 0 917 276 
Q 641 553 641 1216 
L 641 2700 
L 84 2700 
L 84 3500 
L 641 3500 
L 641 4494 
L 1759 4494 
z
" transform="scale(0.015625)"/>
      <path id="DejaVuSans-Bold-68" d="M 4056 2131 
L 4056 0 
L 2931 0 
L 2931 347 
L 2931 1625 
Q 2931 2084 2911 2256 
Q 2891 2428 2841 2509 
Q 2775 2619 2662 2680 
Q 2550 2741 2406 2741 
Q 2056 2741 1856 2470 
Q 1656 2200 1656 1722 
L 1656 0 
L 538 0 
L 538 4863 
L 1656 4863 
L 1656 2988 
Q 1909 3294 2193 3439 
Q 2478 3584 2822 3584 
Q 3428 3584 3742 3212 
Q 4056 2841 4056 2131 
z
" transform="scale(0.015625)"/>
      <path id="DejaVuSans-Bold-6f" d="M 2203 2784 
Q 1831 2784 1636 2517 
Q 1441 2250 1441 1747 
Q 1441 1244 1636 976 
Q 1831 709 2203 709 
Q 2569 709 2762 976 
Q 2956 1244 2956 1747 
Q 2956 2250 2762 2517 
Q 2569 2784 2203 2784 
z
M 2203 3584 
Q 3106 3584 3614 3096 
Q 4122 2609 4122 1747 
Q 4122 884 3614 396 
Q 3106 -91 2203 -91 
Q 1297 -91 786 396 
Q 275 884 275 1747 
Q 275 2609 786 3096 
Q 1297 3584 2203 3584 
z
" transform="scale(0.015625)"/>
      <path id="DejaVuSans-Bold-75" d="M 500 1363 
L 500 3500 
L 1625 3500 
L 1625 3150 
Q 1625 2866 1622 2436 
Q 1619 2006 1619 1863 
Q 1619 1441 1641 1255 
Q 1663 1069 1716 984 
Q 1784 875 1895 815 
Q 2006 756 2150 756 
Q 2500 756 2700 1025 
Q 2900 1294 2900 1772 
L 2900 3500 
L 4019 3500 
L 4019 0 
L 2900 0 
L 2900 506 
Q 2647 200 2364 54 
Q 2081 -91 1741 -91 
Q 1134 -91 817 281 
Q 500 653 500 1363 
z
" transform="scale(0.015625)"/>
      <path id="DejaVuSans-Bold-4d" d="M 588 4666 
L 2119 4666 
L 3181 2169 
L 4250 4666 
L 5778 4666 
L 5778 0 
L 4641 0 
L 4641 3413 
L 3566 897 
L 2803 897 
L 1728 3413 
L 1728 0 
L 588 0 
L 588 4666 
z
" transform="scale(0.015625)"/>
      <path id="DejaVuSans-Bold-49" d="M 588 4666 
L 1791 4666 
L 1791 0 
L 588 0 
L 588 4666 
z
" transform="scale(0.015625)"/>
      <path id="DejaVuSans-Bold-43" d="M 4288 256 
Q 3956 84 3597 -3 
Q 3238 -91 2847 -91 
Q 1681 -91 1000 561 
Q 319 1213 319 2328 
Q 319 3447 1000 4098 
Q 1681 4750 2847 4750 
Q 3238 4750 3597 4662 
Q 3956 4575 4288 4403 
L 4288 3438 
Q 3953 3666 3628 3772 
Q 3303 3878 2944 3878 
Q 2300 3878 1931 3465 
Q 1563 3053 1563 2328 
Q 1563 1606 1931 1193 
Q 2300 781 2944 781 
Q 3303 781 3628 887 
Q 3953 994 4288 1222 
L 4288 256 
z
" transform="scale(0.015625)"/>
     </defs>
     <use xlink:href="#DejaVuSans-Bold-57"/>
     <use xlink:href="#DejaVuSans-Bold-69" transform="translate(110.302734 0)"/>
     <use xlink:href="#DejaVuSans-Bold-74" transform="translate(144.580078 0)"/>
     <use xlink:href="#DejaVuSans-Bold-68" transform="translate(192.382812 0)"/>
     <use xlink:href="#DejaVuSans-Bold-6f" transform="translate(263.574219 0)"/>
     <use xlink:href="#DejaVuSans-Bold-75" transform="translate(332.275391 0)"/>
     <use xlink:href="#DejaVuSans-Bold-74" transform="translate(403.466797 0)"/>
     <use xlink:href="#DejaVuSans-Bold-20" transform="translate(451.269531 0)"/>
     <use xlink:href="#DejaVuSans-Bold-4d" transform="translate(486.083984 0)"/>
     <use xlink:href="#DejaVuSans-Bold-49" transform="translate(585.595703 0)"/>
     <use xlink:href="#DejaVuSans-Bold-43" transform="translate(622.802734 0)"/>
    </g>
   </g>
   <g id="text_23">
    <!-- With MIC -->
    <g style="fill: #d94452" transform="translate(501.693875 33.608075) scale(0.14 -0.14)">
     <use xlink:href="#DejaVuSans-Bold-57"/>
     <use xlink:href="#DejaVuSans-Bold-69" transform="translate(110.302734 0)"/>
     <use xlink:href="#DejaVuSans-Bold-74" transform="translate(144.580078 0)"/>
     <use xlink:href="#DejaVuSans-Bold-68" transform="translate(192.382812 0)"/>
     <use xlink:href="#DejaVuSans-Bold-20" transform="translate(263.574219 0)"/>
     <use xlink:href="#DejaVuSans-Bold-4d" transform="translate(298.388672 0)"/>
     <use xlink:href="#DejaVuSans-Bold-49" transform="translate(397.900391 0)"/>
     <use xlink:href="#DejaVuSans-Bold-43" transform="translate(435.107422 0)"/>
    </g>
   </g>
  </g>
 </g>
 <defs>
  <clipPath id="p55af966489">
   <rect x="61.963281" y="7.879553" width="633.766" height="301.814182"/>
  </clipPath>
 </defs>
</svg>
