<?xml version="1.0" encoding="utf-8" standalone="no"?>
<!DOCTYPE svg PUBLIC "-//W3C//DTD SVG 1.1//EN"
  "http://www.w3.org/Graphics/SVG/1.1/DTD/svg11.dtd">
<svg xmlns:xlink="http://www.w3.org/1999/xlink" width="999.648656pt" height="352.192813pt" viewBox="0 0 999.648656 352.192813" xmlns="http://www.w3.org/2000/svg" version="1.1">
 <metadata>
  <rdf:RDF xmlns:dc="http://purl.org/dc/elements/1.1/" xmlns:cc="http://creativecommons.org/ns#" xmlns:rdf="http://www.w3.org/1999/02/22-rdf-syntax-ns#">
   <cc:Work>
    <dc:type rdf:resource="http://purl.org/dc/dcmitype/StillImage"/>
    <dc:date>2026-04-26T15:38:31.806695</dc:date>
    <dc:format>image/svg+xml</dc:format>
    <dc:creator>
     <cc:Agent>
      <dc:title>Matplotlib v3.10.8, https://matplotlib.org/</dc:title>
     </cc:Agent>
    </dc:creator>
   </cc:Work>
  </rdf:RDF>
 </metadata>
 <defs>
  <style type="text/css">*{stroke-linejoin: round; stroke-linecap: butt}</style>
 </defs>
 <g id="figure_1">
  <g id="patch_1">
   <path d="M 0 352.192813 
L 999.648656 352.192813 
L 999.648656 0 
L 0 0 
z
" style="fill: #ffffff"/>
  </g>
  <g id="axes_1">
   <g id="patch_2">
    <path d="M 61.963281 309.7975 
L 988.949281 309.7975 
L 988.949281 34.3575 
L 61.963281 34.3575 
z
" style="fill: #ffffff"/>
   </g>
   <g id="patch_3">
    <path d="M 679.953948 309.7975 
L 988.949281 309.7975 
L 988.949281 34.3575 
L 679.953948 34.3575 
z
" clip-path="url(#p150d033122)" style="fill: #f0ad4e; opacity: 0.15; stroke: #f0ad4e; stroke-linejoin: miter"/>
   </g>
   <g id="matplotlib.axis_1">
    <g id="xtick_1">
     <g id="line2d_1">
      <defs>
       <path id="m0b8fed480d" d="M 0 0 
L 0 3.5 
" style="stroke: #000000; stroke-width: 0.8"/>
      </defs>
      <g>
       <use xlink:href="#m0b8fed480d" x="61.963281" y="309.7975" style="stroke: #000000; stroke-width: 0.8"/>
      </g>
     </g>
     <g id="text_1">
      <!-- 0 -->
      <g transform="translate(58.463906 325.155781) scale(0.11 -0.11)">
       <defs>
        <path id="DejaVuSans-30" d="M 2034 4250 
Q 1547 4250 1301 3770 
Q 1056 3291 1056 2328 
Q 1056 1369 1301 889 
Q 1547 409 2034 409 
Q 2525 409 2770 889 
Q 3016 1369 3016 2328 
Q 3016 3291 2770 3770 
Q 2525 4250 2034 4250 
z
M 2034 4750 
Q 2819 4750 3233 4129 
Q 3647 3509 3647 2328 
Q 3647 1150 3233 529 
Q 2819 -91 2034 -91 
Q 1250 -91 836 529 
Q 422 1150 422 2328 
Q 422 3509 836 4129 
Q 1250 4750 2034 4750 
z
" transform="scale(0.015625)"/>
       </defs>
       <use xlink:href="#DejaVuSans-30"/>
      </g>
     </g>
    </g>
    <g id="xtick_2">
     <g id="line2d_2">
      <g>
       <use xlink:href="#m0b8fed480d" x="216.460948" y="309.7975" style="stroke: #000000; stroke-width: 0.8"/>
      </g>
     </g>
     <g id="text_2">
      <!-- 1 -->
      <g transform="translate(212.961573 325.155781) scale(0.11 -0.11)">
       <defs>
        <path id="DejaVuSans-31" d="M 794 531 
L 1825 531 
L 1825 4091 
L 703 3866 
L 703 4441 
L 1819 4666 
L 2450 4666 
L 2450 531 
L 3481 531 
L 3481 0 
L 794 0 
L 794 531 
z
" transform="scale(0.015625)"/>
       </defs>
       <use xlink:href="#DejaVuSans-31"/>
      </g>
     </g>
    </g>
    <g id="xtick_3">
     <g id="line2d_3">
      <g>
       <use xlink:href="#m0b8fed480d" x="370.958615" y="309.7975" style="stroke: #000000; stroke-width: 0.8"/>
      </g>
     </g>
     <g id="text_3">
      <!-- 2 -->
      <g transform="translate(367.45924 325.155781) scale(0.11 -0.11)">
       <defs>
        <path id="DejaVuSans-32" d="M 1228 531 
L 3431 531 
L 3431 0 
L 469 0 
L 469 531 
Q 828 903 1448 1529 
Q 2069 2156 2228 2338 
Q 2531 2678 2651 2914 
Q 2772 3150 2772 3378 
Q 2772 3750 2511 3984 
Q 2250 4219 1831 4219 
Q 1534 4219 1204 4116 
Q 875 4013 500 3803 
L 500 4441 
Q 881 4594 1212 4672 
Q 1544 4750 1819 4750 
Q 2544 4750 2975 4387 
Q 3406 4025 3406 3419 
Q 3406 3131 3298 2873 
Q 3191 2616 2906 2266 
Q 2828 2175 2409 1742 
Q 1991 1309 1228 531 
z
" transform="scale(0.015625)"/>
       </defs>
       <use xlink:href="#DejaVuSans-32"/>
      </g>
     </g>
    </g>
    <g id="xtick_4">
     <g id="line2d_4">
      <g>
       <use xlink:href="#m0b8fed480d" x="525.456281" y="309.7975" style="stroke: #000000; stroke-width: 0.8"/>
      </g>
     </g>
     <g id="text_4">
      <!-- 3 -->
      <g transform="translate(521.956906 325.155781) scale(0.11 -0.11)">
       <defs>
        <path id="DejaVuSans-33" d="M 2597 2516 
Q 3050 2419 3304 2112 
Q 3559 1806 3559 1356 
Q 3559 666 3084 287 
Q 2609 -91 1734 -91 
Q 1441 -91 1130 -33 
Q 819 25 488 141 
L 488 750 
Q 750 597 1062 519 
Q 1375 441 1716 441 
Q 2309 441 2620 675 
Q 2931 909 2931 1356 
Q 2931 1769 2642 2001 
Q 2353 2234 1838 2234 
L 1294 2234 
L 1294 2753 
L 1863 2753 
Q 2328 2753 2575 2939 
Q 2822 3125 2822 3475 
Q 2822 3834 2567 4026 
Q 2313 4219 1838 4219 
Q 1578 4219 1281 4162 
Q 984 4106 628 3988 
L 628 4550 
Q 988 4650 1302 4700 
Q 1616 4750 1894 4750 
Q 2613 4750 3031 4423 
Q 3450 4097 3450 3541 
Q 3450 3153 3228 2886 
Q 3006 2619 2597 2516 
z
" transform="scale(0.015625)"/>
       </defs>
       <use xlink:href="#DejaVuSans-33"/>
      </g>
     </g>
    </g>
    <g id="xtick_5">
     <g id="line2d_5">
      <g>
       <use xlink:href="#m0b8fed480d" x="679.953948" y="309.7975" style="stroke: #000000; stroke-width: 0.8"/>
      </g>
     </g>
     <g id="text_5">
      <!-- 4 -->
      <g transform="translate(676.454573 325.155781) scale(0.11 -0.11)">
       <defs>
        <path id="DejaVuSans-34" d="M 2419 4116 
L 825 1625 
L 2419 1625 
L 2419 4116 
z
M 2253 4666 
L 3047 4666 
L 3047 1625 
L 3713 1625 
L 3713 1100 
L 3047 1100 
L 3047 0 
L 2419 0 
L 2419 1100 
L 313 1100 
L 313 1709 
L 2253 4666 
z
" transform="scale(0.015625)"/>
       </defs>
       <use xlink:href="#DejaVuSans-34"/>
      </g>
     </g>
    </g>
    <g id="xtick_6">
     <g id="line2d_6">
      <g>
       <use xlink:href="#m0b8fed480d" x="834.451615" y="309.7975" style="stroke: #000000; stroke-width: 0.8"/>
      </g>
     </g>
     <g id="text_6">
      <!-- 5 -->
      <g transform="translate(830.95224 325.155781) scale(0.11 -0.11)">
       <defs>
        <path id="DejaVuSans-35" d="M 691 4666 
L 3169 4666 
L 3169 4134 
L 1269 4134 
L 1269 2991 
Q 1406 3038 1543 3061 
Q 1681 3084 1819 3084 
Q 2600 3084 3056 2656 
Q 3513 2228 3513 1497 
Q 3513 744 3044 326 
Q 2575 -91 1722 -91 
Q 1428 -91 1123 -41 
Q 819 9 494 109 
L 494 744 
Q 775 591 1075 516 
Q 1375 441 1709 441 
Q 2250 441 2565 725 
Q 2881 1009 2881 1497 
Q 2881 1984 2565 2268 
Q 2250 2553 1709 2553 
Q 1456 2553 1204 2497 
Q 953 2441 691 2322 
L 691 4666 
z
" transform="scale(0.015625)"/>
       </defs>
       <use xlink:href="#DejaVuSans-35"/>
      </g>
     </g>
    </g>
    <g id="xtick_7">
     <g id="line2d_7">
      <g>
       <use xlink:href="#m0b8fed480d" x="988.949281" y="309.7975" style="stroke: #000000; stroke-width: 0.8"/>
      </g>
     </g>
     <g id="text_7">
      <!-- 6 -->
      <g transform="translate(985.449906 325.155781) scale(0.11 -0.11)">
       <defs>
        <path id="DejaVuSans-36" d="M 2113 2584 
Q 1688 2584 1439 2293 
Q 1191 2003 1191 1497 
Q 1191 994 1439 701 
Q 1688 409 2113 409 
Q 2538 409 2786 701 
Q 3034 994 3034 1497 
Q 3034 2003 2786 2293 
Q 2538 2584 2113 2584 
z
M 3366 4563 
L 3366 3988 
Q 3128 4100 2886 4159 
Q 2644 4219 2406 4219 
Q 1781 4219 1451 3797 
Q 1122 3375 1075 2522 
Q 1259 2794 1537 2939 
Q 1816 3084 2150 3084 
Q 2853 3084 3261 2657 
Q 3669 2231 3669 1497 
Q 3669 778 3244 343 
Q 2819 -91 2113 -91 
Q 1303 -91 875 529 
Q 447 1150 447 2328 
Q 447 3434 972 4092 
Q 1497 4750 2381 4750 
Q 2619 4750 2861 4703 
Q 3103 4656 3366 4563 
z
" transform="scale(0.015625)"/>
       </defs>
       <use xlink:href="#DejaVuSans-36"/>
      </g>
     </g>
    </g>
    <g id="text_8">
     <!-- Time (s) -->
     <g transform="translate(493.237687 342.08125) scale(0.14 -0.14)">
      <defs>
       <path id="DejaVuSans-Bold-54" d="M 31 4666 
L 4331 4666 
L 4331 3756 
L 2784 3756 
L 2784 0 
L 1581 0 
L 1581 3756 
L 31 3756 
L 31 4666 
z
" transform="scale(0.015625)"/>
       <path id="DejaVuSans-Bold-69" d="M 538 3500 
L 1656 3500 
L 1656 0 
L 538 0 
L 538 3500 
z
M 538 4863 
L 1656 4863 
L 1656 3950 
L 538 3950 
L 538 4863 
z
" transform="scale(0.015625)"/>
       <path id="DejaVuSans-Bold-6d" d="M 3781 2919 
Q 3994 3244 4286 3414 
Q 4578 3584 4928 3584 
Q 5531 3584 5847 3212 
Q 6163 2841 6163 2131 
L 6163 0 
L 5038 0 
L 5038 1825 
Q 5041 1866 5042 1909 
Q 5044 1953 5044 2034 
Q 5044 2406 4934 2573 
Q 4825 2741 4581 2741 
Q 4263 2741 4089 2478 
Q 3916 2216 3909 1719 
L 3909 0 
L 2784 0 
L 2784 1825 
Q 2784 2406 2684 2573 
Q 2584 2741 2328 2741 
Q 2006 2741 1831 2477 
Q 1656 2213 1656 1722 
L 1656 0 
L 531 0 
L 531 3500 
L 1656 3500 
L 1656 2988 
Q 1863 3284 2130 3434 
Q 2397 3584 2719 3584 
Q 3081 3584 3359 3409 
Q 3638 3234 3781 2919 
z
" transform="scale(0.015625)"/>
       <path id="DejaVuSans-Bold-65" d="M 4031 1759 
L 4031 1441 
L 1416 1441 
Q 1456 1047 1700 850 
Q 1944 653 2381 653 
Q 2734 653 3104 758 
Q 3475 863 3866 1075 
L 3866 213 
Q 3469 63 3072 -14 
Q 2675 -91 2278 -91 
Q 1328 -91 801 392 
Q 275 875 275 1747 
Q 275 2603 792 3093 
Q 1309 3584 2216 3584 
Q 3041 3584 3536 3087 
Q 4031 2591 4031 1759 
z
M 2881 2131 
Q 2881 2450 2695 2645 
Q 2509 2841 2209 2841 
Q 1884 2841 1681 2658 
Q 1478 2475 1428 2131 
L 2881 2131 
z
" transform="scale(0.015625)"/>
       <path id="DejaVuSans-Bold-20" transform="scale(0.015625)"/>
       <path id="DejaVuSans-Bold-28" d="M 2413 -844 
L 1484 -844 
Q 1006 -72 778 623 
Q 550 1319 550 2003 
Q 550 2688 779 3389 
Q 1009 4091 1484 4856 
L 2413 4856 
Q 2013 4116 1813 3408 
Q 1613 2700 1613 2009 
Q 1613 1319 1811 609 
Q 2009 -100 2413 -844 
z
" transform="scale(0.015625)"/>
       <path id="DejaVuSans-Bold-73" d="M 3272 3391 
L 3272 2541 
Q 2913 2691 2578 2766 
Q 2244 2841 1947 2841 
Q 1628 2841 1473 2761 
Q 1319 2681 1319 2516 
Q 1319 2381 1436 2309 
Q 1553 2238 1856 2203 
L 2053 2175 
Q 2913 2066 3209 1816 
Q 3506 1566 3506 1031 
Q 3506 472 3093 190 
Q 2681 -91 1863 -91 
Q 1516 -91 1145 -36 
Q 775 19 384 128 
L 384 978 
Q 719 816 1070 734 
Q 1422 653 1784 653 
Q 2113 653 2278 743 
Q 2444 834 2444 1013 
Q 2444 1163 2330 1236 
Q 2216 1309 1875 1350 
L 1678 1375 
Q 931 1469 631 1722 
Q 331 1975 331 2491 
Q 331 3047 712 3315 
Q 1094 3584 1881 3584 
Q 2191 3584 2531 3537 
Q 2872 3491 3272 3391 
z
" transform="scale(0.015625)"/>
       <path id="DejaVuSans-Bold-29" d="M 513 -844 
Q 913 -100 1113 609 
Q 1313 1319 1313 2009 
Q 1313 2700 1113 3408 
Q 913 4116 513 4856 
L 1441 4856 
Q 1916 4091 2145 3389 
Q 2375 2688 2375 2003 
Q 2375 1319 2147 623 
Q 1919 -72 1441 -844 
L 513 -844 
z
" transform="scale(0.015625)"/>
      </defs>
      <use xlink:href="#DejaVuSans-Bold-54"/>
      <use xlink:href="#DejaVuSans-Bold-69" transform="translate(68.212891 0)"/>
      <use xlink:href="#DejaVuSans-Bold-6d" transform="translate(102.490234 0)"/>
      <use xlink:href="#DejaVuSans-Bold-65" transform="translate(206.689453 0)"/>
      <use xlink:href="#DejaVuSans-Bold-20" transform="translate(274.511719 0)"/>
      <use xlink:href="#DejaVuSans-Bold-28" transform="translate(309.326172 0)"/>
      <use xlink:href="#DejaVuSans-Bold-73" transform="translate(355.029297 0)"/>
      <use xlink:href="#DejaVuSans-Bold-29" transform="translate(414.550781 0)"/>
     </g>
    </g>
   </g>
   <g id="matplotlib.axis_2">
    <g id="ytick_1">
     <g id="line2d_8">
      <defs>
       <path id="m34f3eb2dce" d="M 0 0 
L -3.5 0 
" style="stroke: #000000; stroke-width: 0.8"/>
      </defs>
      <g>
       <use xlink:href="#m34f3eb2dce" x="61.963281" y="299.517435" style="stroke: #000000; stroke-width: 0.8"/>
      </g>
     </g>
     <g id="text_9">
      <!-- −300 -->
      <g transform="translate(24.749375 303.696575) scale(0.11 -0.11)">
       <defs>
        <path id="DejaVuSans-2212" d="M 678 2272 
L 4684 2272 
L 4684 1741 
L 678 1741 
L 678 2272 
z
" transform="scale(0.015625)"/>
       </defs>
       <use xlink:href="#DejaVuSans-2212"/>
       <use xlink:href="#DejaVuSans-33" transform="translate(83.789062 0)"/>
       <use xlink:href="#DejaVuSans-30" transform="translate(147.412109 0)"/>
       <use xlink:href="#DejaVuSans-30" transform="translate(211.035156 0)"/>
      </g>
     </g>
    </g>
    <g id="ytick_2">
     <g id="line2d_9">
      <g>
       <use xlink:href="#m34f3eb2dce" x="61.963281" y="257.037456" style="stroke: #000000; stroke-width: 0.8"/>
      </g>
     </g>
     <g id="text_10">
      <!-- −200 -->
      <g transform="translate(24.749375 261.216597) scale(0.11 -0.11)">
       <use xlink:href="#DejaVuSans-2212"/>
       <use xlink:href="#DejaVuSans-32" transform="translate(83.789062 0)"/>
       <use xlink:href="#DejaVuSans-30" transform="translate(147.412109 0)"/>
       <use xlink:href="#DejaVuSans-30" transform="translate(211.035156 0)"/>
      </g>
     </g>
    </g>
    <g id="ytick_3">
     <g id="line2d_10">
      <g>
       <use xlink:href="#m34f3eb2dce" x="61.963281" y="214.557478" style="stroke: #000000; stroke-width: 0.8"/>
      </g>
     </g>
     <g id="text_11">
      <!-- −100 -->
      <g transform="translate(24.749375 218.736619) scale(0.11 -0.11)">
       <use xlink:href="#DejaVuSans-2212"/>
       <use xlink:href="#DejaVuSans-31" transform="translate(83.789062 0)"/>
       <use xlink:href="#DejaVuSans-30" transform="translate(147.412109 0)"/>
       <use xlink:href="#DejaVuSans-30" transform="translate(211.035156 0)"/>
      </g>
     </g>
    </g>
    <g id="ytick_4">
     <g id="line2d_11">
      <g>
       <use xlink:href="#m34f3eb2dce" x="61.963281" y="172.0775" style="stroke: #000000; stroke-width: 0.8"/>
      </g>
     </g>
     <g id="text_12">
      <!-- 0 -->
      <g transform="translate(47.964531 176.256641) scale(0.11 -0.11)">
       <use xlink:href="#DejaVuSans-30"/>
      </g>
     </g>
    </g>
    <g id="ytick_5">
     <g id="line2d_12">
      <g>
       <use xlink:href="#m34f3eb2dce" x="61.963281" y="129.597522" style="stroke: #000000; stroke-width: 0.8"/>
      </g>
     </g>
     <g id="text_13">
      <!-- 100 -->
      <g transform="translate(33.967031 133.776662) scale(0.11 -0.11)">
       <use xlink:href="#DejaVuSans-31"/>
       <use xlink:href="#DejaVuSans-30" transform="translate(63.623047 0)"/>
       <use xlink:href="#DejaVuSans-30" transform="translate(127.246094 0)"/>
      </g>
     </g>
    </g>
    <g id="ytick_6">
     <g id="line2d_13">
      <g>
       <use xlink:href="#m34f3eb2dce" x="61.963281" y="87.117544" style="stroke: #000000; stroke-width: 0.8"/>
      </g>
     </g>
     <g id="text_14">
      <!-- 200 -->
      <g transform="translate(33.967031 91.296684) scale(0.11 -0.11)">
       <use xlink:href="#DejaVuSans-32"/>
       <use xlink:href="#DejaVuSans-30" transform="translate(63.623047 0)"/>
       <use xlink:href="#DejaVuSans-30" transform="translate(127.246094 0)"/>
      </g>
     </g>
    </g>
    <g id="ytick_7">
     <g id="line2d_14">
      <g>
       <use xlink:href="#m34f3eb2dce" x="61.963281" y="44.637565" style="stroke: #000000; stroke-width: 0.8"/>
      </g>
     </g>
     <g id="text_15">
      <!-- 300 -->
      <g transform="translate(33.967031 48.816706) scale(0.11 -0.11)">
       <use xlink:href="#DejaVuSans-33"/>
       <use xlink:href="#DejaVuSans-30" transform="translate(63.623047 0)"/>
       <use xlink:href="#DejaVuSans-30" transform="translate(127.246094 0)"/>
      </g>
     </g>
    </g>
    <g id="text_16">
     <!-- V$_{oc}$ (V) -->
     <g transform="translate(17.837813 197.7675) rotate(-90) scale(0.14 -0.14)">
      <defs>
       <path id="DejaVuSans-Bold-56" d="M 31 4666 
L 1241 4666 
L 2478 1222 
L 3713 4666 
L 4922 4666 
L 3194 0 
L 1759 0 
L 31 4666 
z
" transform="scale(0.015625)"/>
       <path id="DejaVuSans-Oblique-6f" d="M 1625 -91 
Q 1009 -91 651 289 
Q 294 669 294 1325 
Q 294 1706 417 2101 
Q 541 2497 738 2766 
Q 1047 3184 1428 3384 
Q 1809 3584 2291 3584 
Q 2888 3584 3255 3212 
Q 3622 2841 3622 2241 
Q 3622 1825 3500 1412 
Q 3378 1000 3181 728 
Q 2875 309 2494 109 
Q 2113 -91 1625 -91 
z
M 891 1344 
Q 891 869 1089 633 
Q 1288 397 1691 397 
Q 2269 397 2648 901 
Q 3028 1406 3028 2181 
Q 3028 2634 2825 2865 
Q 2622 3097 2228 3097 
Q 1903 3097 1650 2945 
Q 1397 2794 1197 2484 
Q 1050 2253 970 1956 
Q 891 1659 891 1344 
z
" transform="scale(0.015625)"/>
       <path id="DejaVuSans-Oblique-63" d="M 3431 3366 
L 3316 2797 
Q 3109 2947 2876 3022 
Q 2644 3097 2394 3097 
Q 2119 3097 1870 3000 
Q 1622 2903 1453 2725 
Q 1184 2453 1037 2087 
Q 891 1722 891 1331 
Q 891 859 1127 628 
Q 1363 397 1844 397 
Q 2081 397 2348 469 
Q 2616 541 2906 684 
L 2797 116 
Q 2547 13 2283 -39 
Q 2019 -91 1741 -91 
Q 1044 -91 669 257 
Q 294 606 294 1253 
Q 294 1797 489 2255 
Q 684 2713 1069 3078 
Q 1331 3328 1684 3456 
Q 2038 3584 2456 3584 
Q 2700 3584 2940 3529 
Q 3181 3475 3431 3366 
z
" transform="scale(0.015625)"/>
      </defs>
      <use xlink:href="#DejaVuSans-Bold-56" transform="translate(0 0.125)"/>
      <use xlink:href="#DejaVuSans-Oblique-6f" transform="translate(78.349609 -16.28125) scale(0.7)"/>
      <use xlink:href="#DejaVuSans-Oblique-63" transform="translate(121.176758 -16.28125) scale(0.7)"/>
      <use xlink:href="#DejaVuSans-Bold-20" transform="translate(162.397461 0.125)"/>
      <use xlink:href="#DejaVuSans-Bold-28" transform="translate(197.211914 0.125)"/>
      <use xlink:href="#DejaVuSans-Bold-56" transform="translate(242.915039 0.125)"/>
      <use xlink:href="#DejaVuSans-Bold-29" transform="translate(320.307617 0.125)"/>
     </g>
    </g>
   </g>
   <g id="patch_4">
    <path d="M 61.963281 309.7975 
L 61.963281 34.3575 
" style="fill: none; stroke: #000000; stroke-width: 0.8; stroke-linejoin: miter; stroke-linecap: square"/>
   </g>
   <g id="patch_5">
    <path d="M 61.963281 309.7975 
L 988.949281 309.7975 
" style="fill: none; stroke: #000000; stroke-width: 0.8; stroke-linejoin: miter; stroke-linecap: square"/>
   </g>
   <g id="line2d_15">
    <path d="M 679.953948 172.219299 
L 682.580408 172.244056 
L 682.734906 172.275328 
L 682.889404 172.061638 
L 683.198399 172.083788 
L 683.352897 172.273374 
L 684.897873 172.16718 
L 685.052371 172.374356 
L 686.133855 172.418006 
L 686.44285 172.39781 
L 686.597348 172.082485 
L 688.142324 172.178907 
L 688.296822 171.837523 
L 690.150794 171.938504 
L 690.459789 171.987367 
L 690.923282 171.945671 
L 691.386775 171.935247 
L 691.541273 172.067501 
L 692.931752 171.882476 
L 693.70424 171.922217 
L 694.013236 171.868794 
L 694.167733 171.866188 
L 694.322231 172.100076 
L 695.249217 172.106591 
L 696.330701 172.185422 
L 697.412184 172.169786 
L 697.566682 171.950883 
L 701.429124 171.803645 
L 701.738119 171.972382 
L 703.128598 172.075319 
L 703.283096 172.311812 
L 704.519077 172.268162 
L 705.137068 172.171089 
L 705.446063 172.012124 
L 706.064054 172.052516 
L 706.373049 172.018638 
L 706.527547 171.809508 
L 708.845012 172.004957 
L 708.999509 172.221254 
L 710.389988 172.191937 
L 712.089463 172.002351 
L 712.24396 171.767812 
L 712.861951 171.792569 
L 713.016449 172.025154 
L 713.479942 172.075319 
L 714.25243 172.138514 
L 714.715923 172.113757 
L 715.024918 172.21539 
L 715.179416 172.178907 
L 715.488411 172.276631 
L 716.106402 172.277934 
L 716.2609 172.046653 
L 716.569895 172.024502 
L 716.87889 171.874658 
L 718.423867 171.960655 
L 718.578365 171.857068 
L 718.732862 172.098773 
L 719.350853 172.112454 
L 721.359323 172.247965 
L 721.668318 172.378265 
L 721.822816 172.423869 
L 721.977313 172.072713 
L 722.749802 172.040789 
L 723.058797 171.922869 
L 723.213295 171.916353 
L 723.367792 172.02385 
L 723.676788 171.878567 
L 724.603774 171.826447 
L 724.912769 171.675951 
L 725.067267 171.682466 
L 725.376262 171.808205 
L 725.994253 171.788009 
L 726.14875 171.928732 
L 726.612243 171.899415 
L 726.921239 172.025154 
L 727.230234 172.098121 
L 727.539229 171.948928 
L 728.15722 171.896157 
L 729.393201 171.973034 
L 729.856694 172.032972 
L 731.556169 172.303994 
L 732.019662 172.247314 
L 732.174159 172.284449 
L 732.328657 172.502049 
L 733.564638 172.401067 
L 733.873634 172.287055 
L 734.028131 172.283146 
L 734.337127 172.513125 
L 734.955117 172.625834 
L 735.41861 172.479898 
L 735.573108 172.238193 
L 737.118085 172.244056 
L 737.272582 172.253829 
L 737.42708 172.015381 
L 738.508564 171.890945 
L 738.817559 172.030365 
L 739.590047 172.074667 
L 739.744545 172.311161 
L 742.834498 172.393901 
L 742.988996 172.18021 
L 743.606987 172.105287 
L 744.379475 172.000397 
L 744.68847 172.175649 
L 744.842968 172.046002 
L 745.615456 172.046653 
L 746.851438 172.064895 
L 747.469428 172.168483 
L 747.623926 172.192588 
L 747.932921 171.990624 
L 748.241917 172.07141 
L 750.559382 172.051213 
L 751.177372 172.046653 
L 751.486368 171.960655 
L 753.95833 171.927429 
L 754.267326 171.83622 
L 755.503307 171.909187 
L 755.657805 172.16718 
L 757.202781 172.055774 
L 757.511777 172.151544 
L 758.747758 172.168483 
L 758.902256 171.911142 
L 759.829242 171.932641 
L 760.138237 171.98867 
L 760.447232 171.911142 
L 761.374218 171.821887 
L 770.335083 172.109848 
L 770.644078 171.982806 
L 770.953074 171.984109 
L 771.262069 171.829053 
L 774.197525 172.068152 
L 774.50652 172.234935 
L 775.588004 172.192588 
L 776.360492 172.068152 
L 776.978483 172.047956 
L 777.441976 172.07141 
L 777.905469 171.980852 
L 778.523459 171.921565 
L 778.677957 172.072061 
L 779.604943 172.054471 
L 780.068436 172.098773 
L 780.686427 172.066198 
L 780.840924 172.264253 
L 781.76791 172.176301 
L 781.922408 171.96717 
L 782.849394 172.01929 
L 783.158389 171.922869 
L 783.467385 171.965216 
L 783.77638 172.096818 
L 783.930878 172.083788 
L 784.548868 171.710481 
L 785.012361 171.707874 
L 785.166859 172.112454 
L 786.093845 172.140468 
L 786.40284 172.218648 
L 787.329826 172.044698 
L 787.484324 172.262299 
L 788.102315 172.340478 
L 788.256812 172.346993 
L 788.41131 172.156105 
L 790.41978 172.189982 
L 791.03777 172.201709 
L 791.192268 172.065546 
L 791.501263 172.074667 
L 792.428249 172.019942 
L 792.737245 172.042093 
L 793.509733 171.960004 
L 794.282221 171.95414 
L 794.591217 172.173695 
L 797.526672 172.176301 
L 797.990165 171.985412 
L 798.608156 172.012124 
L 798.762654 171.834265 
L 799.380644 171.891597 
L 801.852607 172.047956 
L 802.161602 171.984109 
L 803.397584 171.986064 
L 804.015574 171.75804 
L 804.479067 171.748267 
L 806.178542 171.698102 
L 806.642035 171.752828 
L 807.260025 171.950231 
L 807.723518 171.924171 
L 809.57749 171.968473 
L 811.894955 171.952837 
L 813.130937 171.954792 
L 813.439932 171.845992 
L 814.057923 171.961307 
L 814.984909 172.003654 
L 815.911895 172.012775 
L 816.529885 172.06294 
L 817.456871 172.111803 
L 817.765867 172.01082 
L 818.074862 172.070107 
L 820.85582 171.867491 
L 821.319313 171.826447 
L 821.937304 171.851855 
L 822.246299 171.961307 
L 824.254769 172.189982 
L 825.027257 172.259692 
L 827.344722 172.282495 
L 827.653717 172.203664 
L 828.889699 172.292919 
L 829.044196 172.203012 
L 829.662187 172.263601 
L 831.052666 172.272071 
L 831.670657 172.235587 
L 833.061136 172.404325 
L 833.988122 172.434945 
L 835.224103 172.479898 
L 835.687596 172.442112 
L 835.842094 172.610849 
L 836.923577 172.434945 
L 838.468554 172.53723 
L 838.777549 172.547002 
L 838.932047 172.518988 
L 839.086545 172.349599 
L 841.249512 172.505958 
L 841.40401 172.346341 
L 843.257982 172.294222 
L 843.721475 172.257086 
L 844.03047 172.11506 
L 844.339465 172.100727 
L 844.493963 172.076622 
L 844.648461 172.202361 
L 845.111954 172.075319 
L 845.729944 172.096818 
L 846.965926 171.875961 
L 847.274921 171.990624 
L 847.738414 171.977594 
L 849.437888 171.875961 
L 849.592386 172.010169 
L 851.29186 171.939808 
L 854.999804 171.645331 
L 855.154302 171.896157 
L 857.780762 171.828402 
L 858.089758 171.822538 
L 858.244255 171.839477 
L 858.553251 171.717647 
L 859.789232 171.720253 
L 861.179711 171.780191 
L 861.334209 171.797781 
L 861.488706 172.03232 
L 862.261195 172.043395 
L 864.57866 172.146983 
L 864.733157 171.895506 
L 864.887655 171.882476 
L 865.19665 172.014078 
L 866.432632 171.978246 
L 867.20512 171.940459 
L 867.977608 172.083788 
L 868.286604 171.967822 
L 868.595599 171.869446 
L 871.222059 171.794524 
L 872.303543 171.988018 
L 872.921534 172.083137 
L 874.312013 172.120923 
L 876.011487 172.129393 
L 876.47498 172.025154 
L 878.328952 171.982155 
L 881.418905 172.263601 
L 881.882398 172.070107 
L 882.191394 172.148938 
L 883.73637 171.974337 
L 884.045366 171.821235 
L 884.663356 171.773024 
L 884.972352 171.851855 
L 885.74484 171.841432 
L 889.761779 172.022547 
L 890.070775 171.911142 
L 890.534268 171.900066 
L 890.843263 171.885733 
L 890.997761 172.074016 
L 892.38824 171.974988 
L 894.087714 172.029063 
L 894.242212 171.839477 
L 895.323695 171.868794 
L 896.250681 171.823841 
L 896.559677 171.957398 
L 898.259151 172.124832 
L 898.722644 172.131999 
L 899.495132 172.177604 
L 899.958625 172.064895 
L 903.203076 172.01929 
L 903.975565 172.049911 
L 905.675039 172.067501 
L 907.220016 171.900066 
L 907.529011 171.670739 
L 907.992504 171.70136 
L 908.301499 171.817326 
L 909.382983 171.826447 
L 911.236955 172.044698 
L 911.54595 171.968473 
L 913.399922 171.98867 
L 914.172411 172.040138 
L 914.326908 171.902672 
L 914.944899 172.026456 
L 915.408392 172.055122 
L 915.717387 171.95414 
L 916.798871 171.843386 
L 917.107866 172.081182 
L 917.416862 171.984109 
L 917.725857 172.095515 
L 918.652843 172.054471 
L 918.961838 172.174998 
L 919.734327 172.203012 
L 919.888824 172.199103 
L 920.352317 171.863582 
L 920.506815 171.874658 
L 920.81581 172.225815 
L 921.433801 172.177604 
L 921.897294 172.143726 
L 923.133275 172.176952 
L 923.287773 172.37631 
L 923.905764 172.141771 
L 924.214759 172.017336 
L 926.377726 172.016033 
L 926.686722 171.94958 
L 927.304712 171.973034 
L 927.45921 172.191285 
L 929.004187 172.247965 
L 929.622177 172.219299 
L 930.703661 172.017987 
L 931.630647 171.963261 
L 933.021126 172.034274 
L 933.175624 171.898763 
L 936.265577 172.220603 
L 936.420075 172.343084 
L 937.038065 172.311812 
L 937.501558 172.369144 
L 937.656056 172.21539 
L 938.892037 172.174998 
L 939.664526 172.081834 
L 940.437014 172.197149 
L 941.209502 172.169134 
L 941.518498 172.146983 
L 943.37247 172.138514 
L 943.681465 172.01929 
L 944.453953 172.038184 
L 944.917446 172.080531 
L 950.942855 172.073364 
L 951.251851 171.982155 
L 952.024339 172.023199 
L 952.178837 172.23689 
L 952.487832 172.189982 
L 952.951325 172.227769 
L 953.26032 172.185422 
L 954.959795 172.181513 
L 955.26879 172.166528 
L 955.423288 171.93655 
L 956.504771 172.035577 
L 956.659269 172.191285 
L 958.204246 172.096167 
L 959.131232 172.082485 
L 960.676208 171.967822 
L 961.139701 172.047304 
L 962.684678 171.994533 
L 962.993673 171.844037 
L 963.920659 171.84078 
L 964.075157 172.04535 
L 965.620134 172.098121 
L 965.929129 172.145029 
L 966.238124 172.286404 
L 966.54712 172.187376 
L 967.16511 172.114409 
L 967.319608 171.903324 
L 969.482575 171.961958 
L 969.791571 172.074016 
L 970.100566 172.107894 
L 971.18205 172.309857 
L 971.954538 172.333963 
L 972.109036 172.226466 
L 972.418031 172.326796 
L 972.881524 172.257086 
L 973.499515 172.219951 
L 973.80851 172.197149 
L 973.963008 171.957398 
L 974.735496 172.005609 
L 982.305882 171.991927 
L 982.923872 172.028411 
L 983.850858 172.081834 
L 984.005356 172.291616 
L 984.159854 172.138514 
L 984.932342 172.158059 
L 985.70483 172.081834 
L 987.095309 172.087697 
L 987.249807 171.862931 
L 987.558802 172.024502 
L 988.176793 172.138514 
L 988.485788 171.990624 
L 988.949281 171.982155 
L 988.949281 171.982155 
" clip-path="url(#p150d033122)" style="fill: none; stroke: #333333; stroke-width: 0.8; stroke-linecap: square"/>
   </g>
   <g id="line2d_16">
    <path d="M 679.953948 79.898734 
L 681.962418 80.778259 
L 682.425911 81.102707 
L 682.889404 81.665602 
L 683.507394 82.343814 
L 684.125385 83.145159 
L 684.588878 84.087228 
L 684.743376 84.418842 
L 685.052371 85.359607 
L 685.824859 87.553207 
L 686.597348 90.70386 
L 687.215338 94.404376 
L 687.678831 98.306857 
L 688.142324 103.666738 
L 688.605817 112.446331 
L 688.914813 121.509968 
L 689.378306 144.178152 
L 690.614287 208.012446 
L 691.541273 245.25915 
L 691.850268 252.993713 
L 692.004766 254.810084 
L 692.159264 254.855689 
L 692.313761 252.662102 
L 692.622757 242.64014 
L 693.549743 199.088258 
L 695.403715 109.455286 
L 695.867208 96.820127 
L 696.330701 89.043183 
L 696.948691 82.941238 
L 697.72118 78.877181 
L 698.184673 77.147449 
L 698.802663 76.033383 
L 699.575152 75.329763 
L 699.884147 75.131707 
L 700.193142 75.138873 
L 700.34764 74.751882 
L 700.502138 74.812472 
L 700.656635 74.743413 
L 701.120128 75.009876 
L 703.437593 75.46332 
L 703.592091 75.746723 
L 704.364579 76.077034 
L 705.446063 76.763064 
L 706.682044 77.786571 
L 706.99104 78.166395 
L 707.145537 78.249136 
L 707.454533 78.623097 
L 707.918026 78.787275 
L 709.308505 79.674618 
L 709.771998 79.553439 
L 709.926495 79.825766 
L 710.080993 79.675921 
L 710.389988 79.825766 
L 710.544486 79.577545 
L 711.780467 80.429707 
L 712.089463 80.764578 
L 712.552956 80.991952 
L 712.707453 81.251249 
L 712.861951 81.228446 
L 713.016449 81.342459 
L 713.170946 81.268187 
L 713.943435 81.976368 
L 714.561425 82.651322 
L 714.715923 82.939285 
L 714.870421 82.981633 
L 715.951904 84.736774 
L 717.342383 89.206062 
L 718.114872 93.175649 
L 718.578365 96.642276 
L 719.041858 101.52005 
L 719.505351 109.002511 
L 719.968844 121.678054 
L 720.432337 144.375555 
L 721.668318 208.537552 
L 722.595304 245.681319 
L 722.904299 253.262129 
L 723.058797 254.982079 
L 723.213295 254.821811 
L 723.367792 252.679692 
L 723.676788 242.487038 
L 724.603774 198.818538 
L 726.612243 104.107138 
L 727.075736 93.59586 
L 727.539229 87.063277 
L 728.15722 81.903399 
L 728.775211 79.240067 
L 729.547699 77.580696 
L 729.856694 77.251037 
L 730.629183 76.26662 
L 731.865164 75.799495 
L 732.019662 75.786465 
L 732.328657 75.42423 
L 732.637652 75.510229 
L 732.79215 75.489381 
L 733.101145 75.269825 
L 734.337127 75.417716 
L 734.80062 75.622938 
L 735.41861 75.844448 
L 736.345596 76.461419 
L 738.354066 77.554637 
L 738.972057 77.870614 
L 739.744545 78.316892 
L 740.826029 78.853728 
L 741.135024 79.033542 
L 741.598517 79.406852 
L 742.216508 79.780813 
L 744.07048 80.893575 
L 744.842968 81.504031 
L 745.615456 82.304724 
L 746.078949 82.952967 
L 746.69694 83.94911 
L 747.778424 86.708212 
L 748.550912 89.683611 
L 749.168903 93.101378 
L 749.632396 96.663124 
L 750.095889 101.714848 
L 750.559382 109.181022 
L 751.022875 121.926927 
L 751.486368 145.033567 
L 752.722349 209.044415 
L 753.649335 246.01684 
L 753.95833 253.429563 
L 754.112828 255.093485 
L 754.267326 255.161892 
L 754.421823 252.884262 
L 754.730819 242.369769 
L 755.657805 198.51429 
L 757.511777 108.668276 
L 757.97527 96.05657 
L 758.438763 88.531756 
L 759.056753 82.261072 
L 759.520246 79.702632 
L 760.138237 77.30446 
L 760.60173 76.277044 
L 761.992209 75.036588 
L 762.301204 75.009876 
L 762.455702 74.947332 
L 762.6102 74.596174 
L 762.764697 74.654157 
L 763.073693 74.557084 
L 763.382688 74.820941 
L 765.082162 75.034633 
L 765.700153 75.272431 
L 766.318144 75.733693 
L 766.781637 75.916765 
L 767.86312 76.601492 
L 769.408097 77.727284 
L 771.262069 78.846561 
L 771.725562 79.147555 
L 771.88006 79.086965 
L 772.49805 79.397079 
L 772.807046 79.726738 
L 773.734032 80.098093 
L 776.360492 81.849326 
L 776.669487 82.36792 
L 777.287478 83.160144 
L 777.905469 84.342616 
L 778.523459 85.824127 
L 779.759441 90.787251 
L 780.377431 94.506662 
L 780.840924 98.414354 
L 781.304417 104.071971 
L 781.76791 113.112162 
L 782.076906 122.569955 
L 782.540399 145.481796 
L 783.77638 209.379285 
L 784.703366 246.463766 
L 785.012361 253.691465 
L 785.166859 255.118242 
L 785.321357 254.799008 
L 785.475854 252.340263 
L 785.78485 241.966493 
L 786.711836 197.935109 
L 788.565808 108.818121 
L 789.183798 93.646677 
L 789.801789 85.790247 
L 790.41978 81.400441 
L 791.03777 78.810077 
L 791.346766 78.208742 
L 791.964756 76.533736 
L 792.891742 75.299794 
L 793.509733 74.93756 
L 794.282221 74.980559 
L 794.436719 74.738852 
L 794.591217 74.732989 
L 794.900212 74.867849 
L 795.363705 74.89 
L 795.518203 74.702368 
L 796.599686 75.013134 
L 796.908682 75.254841 
L 797.526672 75.409898 
L 797.68117 75.346051 
L 798.608156 75.985172 
L 798.917151 76.429496 
L 799.998635 77.140283 
L 800.153133 77.095329 
L 800.771123 77.505123 
L 801.080119 77.841948 
L 801.389114 78.000263 
L 801.698109 78.365754 
L 803.243086 79.430306 
L 803.552081 79.710451 
L 803.706579 79.776252 
L 804.015574 80.150865 
L 804.479067 80.416677 
L 805.097058 80.289634 
L 805.406053 80.643399 
L 805.560551 80.571082 
L 806.024044 80.948301 
L 806.642035 81.1431 
L 806.95103 81.483182 
L 807.105528 81.391972 
L 808.650504 83.443546 
L 808.9595 84.17909 
L 809.268495 84.809741 
L 810.040983 87.181201 
L 810.658974 89.742246 
L 811.276965 92.988017 
L 811.740458 96.731532 
L 812.203951 101.724621 
L 812.667444 109.654661 
L 813.130937 122.754979 
L 813.59443 146.025145 
L 814.984909 216.728818 
L 815.757397 246.33021 
L 816.066392 253.451063 
L 816.22089 254.850477 
L 816.375388 254.462185 
L 816.529885 252.128527 
L 816.993378 234.887336 
L 818.22936 174.099446 
L 819.465341 113.95453 
L 819.928834 99.579876 
L 820.392327 90.574858 
L 820.85582 85.383711 
L 821.473811 80.897483 
L 822.246299 77.276445 
L 823.018787 75.564303 
L 823.327783 75.168191 
L 823.48228 75.116071 
L 824.254769 74.306908 
L 824.563764 74.370755 
L 824.718262 74.257393 
L 825.027257 74.414405 
L 825.49075 74.698459 
L 825.799745 74.682823 
L 826.881229 74.809214 
L 827.190224 74.837229 
L 828.271708 75.265916 
L 828.580703 75.587105 
L 829.353192 76.025565 
L 829.816685 76.402133 
L 830.743671 77.066663 
L 831.516159 77.513592 
L 831.670657 77.406746 
L 832.75214 77.927295 
L 833.061136 78.276499 
L 835.996591 80.142395 
L 836.151089 80.055094 
L 836.614582 80.290286 
L 836.76908 80.433616 
L 836.923577 80.281165 
L 837.541568 80.651868 
L 838.159559 81.140493 
L 838.777549 81.724889 
L 839.550038 82.94124 
L 840.168028 84.153029 
L 841.40401 88.172783 
L 842.022 91.243301 
L 842.639991 95.429836 
L 843.103484 99.88609 
L 843.566977 106.551574 
L 844.03047 117.477849 
L 844.339465 129.341616 
L 846.347935 229.768521 
L 846.965926 250.705658 
L 847.274921 255.069379 
L 847.429419 254.711708 
L 847.583916 252.106375 
L 847.892912 241.084367 
L 848.819898 197.344201 
L 850.67387 107.975082 
L 851.137363 95.894998 
L 851.600856 88.078964 
L 852.218846 82.587474 
L 852.682339 80.024473 
L 853.609325 77.084905 
L 854.072818 76.260106 
L 855.154302 74.95515 
L 855.3088 74.933651 
L 855.617795 74.766215 
L 857.008274 74.592265 
L 857.626265 74.554477 
L 858.089758 74.754488 
L 859.94373 75.604696 
L 861.334209 76.607355 
L 861.643204 77.004119 
L 862.415692 77.331824 
L 864.269664 78.545568 
L 864.57866 78.656323 
L 864.733157 78.516902 
L 865.351148 78.79835 
L 866.741627 79.670709 
L 866.896125 79.525425 
L 867.20512 79.79254 
L 867.514115 80.093533 
L 868.132106 80.616688 
L 868.286604 80.625809 
L 869.21359 81.471456 
L 869.522585 81.711208 
L 870.449571 82.981633 
L 871.376557 84.647518 
L 872.767036 89.431481 
L 873.385027 92.907882 
L 874.003017 98.076226 
L 874.46651 103.979457 
L 874.930003 113.255491 
L 875.238999 123.173892 
L 875.702492 146.850591 
L 876.938473 210.23014 
L 877.710961 241.868763 
L 878.174454 253.923398 
L 878.328952 255.196421 
L 878.48345 254.578152 
L 878.637947 251.7904 
L 879.10144 234.154403 
L 880.337422 173.688351 
L 881.573403 113.178596 
L 882.036896 98.92121 
L 882.654887 88.19884 
L 883.272877 82.227846 
L 883.890868 79.008133 
L 884.508859 76.951999 
L 884.972352 76.242515 
L 885.281347 75.867251 
L 885.590342 75.307612 
L 886.517328 74.776639 
L 886.980821 74.686732 
L 887.907807 74.554477 
L 888.680296 74.505615 
L 889.607282 74.7597 
L 889.916277 74.802048 
L 890.843263 75.214447 
L 891.770249 75.807313 
L 891.924747 76.130457 
L 892.233742 76.293332 
L 893.315226 77.011937 
L 893.778719 77.167645 
L 894.242212 77.518153 
L 894.396709 78.074534 
L 895.0147 78.490842 
L 895.169198 78.356633 
L 897.332165 79.541712 
L 897.486663 79.533243 
L 897.64116 79.144297 
L 897.795658 79.120843 
L 898.104653 79.205538 
L 898.568146 79.453108 
L 899.495132 80.055746 
L 900.113123 80.565871 
L 900.885611 81.505334 
L 902.894081 85.914685 
L 903.821067 89.634749 
L 905.057048 98.472337 
L 905.520541 104.31498 
L 905.984034 113.67245 
L 906.29303 123.594109 
L 906.91102 156.030179 
L 908.147002 217.627231 
L 908.91949 247.062491 
L 909.228485 253.872581 
L 909.382983 255.057001 
L 909.537481 254.274554 
L 909.846476 246.308714 
L 910.618964 211.18655 
L 912.781932 106.751568 
L 913.245425 94.78289 
L 913.708918 87.618354 
L 914.172411 83.052645 
L 914.635904 80.111123 
L 915.099397 78.370315 
L 915.408392 77.439321 
L 915.717387 76.960468 
L 916.335378 76.002111 
L 916.953369 75.426837 
L 917.571359 75.155161 
L 918.652843 74.99424 
L 918.807341 74.807911 
L 920.352317 75.021603 
L 920.81581 75.1721 
L 921.897294 75.618377 
L 923.442271 76.467283 
L 928.849689 79.451805 
L 929.313182 79.787979 
L 929.46768 79.774949 
L 930.858159 80.879242 
L 931.012656 80.88706 
L 932.557633 82.882605 
L 932.712131 83.277413 
L 932.866628 83.3367 
L 933.330121 84.2703 
L 934.566103 88.026848 
L 935.184093 90.878461 
L 935.802084 95.064997 
L 936.265577 99.571416 
L 936.72907 106.377623 
L 937.192563 117.814021 
L 937.501558 130.503885 
L 939.35553 224.576093 
L 939.973521 247.469025 
L 940.282516 254.080409 
L 940.437014 255.091531 
L 940.591512 254.172269 
L 940.900507 246.178414 
L 941.827493 203.403772 
L 943.835963 106.804339 
L 944.299456 95.055216 
L 944.762949 87.823576 
L 945.380939 81.944444 
L 945.844432 79.546272 
L 946.462423 77.437366 
L 947.234911 75.87116 
L 948.316395 74.906939 
L 949.243381 74.571416 
L 949.552376 74.664581 
L 950.015869 74.646991 
L 950.324865 74.635915 
L 951.715344 74.737549 
L 953.414818 75.527167 
L 954.032809 76.0842 
L 954.341804 76.326559 
L 954.650799 76.858834 
L 956.813767 78.453055 
L 957.122762 78.784669 
L 957.431757 78.807471 
L 957.740753 78.872622 
L 957.89525 78.836138 
L 958.358743 79.098692 
L 958.667739 79.165145 
L 958.976734 79.43226 
L 959.131232 79.624453 
L 959.440227 79.514349 
L 960.058218 79.856387 
L 960.212715 79.775601 
L 961.757692 80.747639 
L 962.221185 81.203038 
L 962.375683 81.227794 
L 962.839176 81.788736 
L 963.302669 82.408964 
L 963.920659 83.584922 
L 964.693148 85.361562 
L 965.311138 87.416392 
L 965.929129 90.058875 
L 966.54712 93.661016 
L 967.010613 97.441666 
L 967.474106 102.727929 
L 967.783101 107.535337 
L 968.246594 118.998445 
L 968.710087 140.003362 
L 969.946068 205.270295 
L 970.873054 243.480564 
L 971.336547 254.720177 
L 971.491045 255.620545 
L 971.645543 254.476517 
L 971.954538 246.02857 
L 972.881524 202.95489 
L 974.735496 111.959645 
L 975.353487 95.027854 
L 975.81698 87.797516 
L 976.280473 83.34582 
L 976.743966 80.352178 
L 977.361956 77.811979 
L 978.134445 76.181925 
L 978.752435 75.518698 
L 979.215928 75.252886 
L 979.679421 75.086102 
L 980.606407 75.05939 
L 980.760905 74.843744 
L 981.842389 74.820941 
L 982.151384 74.841138 
L 982.614877 74.927787 
L 982.923872 75.083496 
L 983.232868 75.10695 
L 983.850858 75.277643 
L 984.159854 75.585151 
L 984.468849 75.799495 
L 984.777844 76.243167 
L 987.404305 77.575484 
L 987.7133 77.802206 
L 988.949281 78.520811 
L 988.949281 78.520811 
" clip-path="url(#p150d033122)" style="fill: none; stroke: #d94452; stroke-width: 0.8; stroke-linecap: square"/>
   </g>
   <g id="text_17">
    <g id="patch_6">
     <path d="M 805.731615 280.8247 
L 863.171615 280.8247 
Q 864.771615 280.8247 864.771615 279.2247 
L 864.771615 270.7447 
Q 864.771615 269.1447 863.171615 269.1447 
L 805.731615 269.1447 
Q 804.131615 269.1447 804.131615 270.7447 
L 804.131615 279.2247 
Q 804.131615 280.8247 805.731615 280.8247 
z
" style="fill: #ffffff; opacity: 0.85; stroke: #333333; stroke-linejoin: miter"/>
    </g>
    <!-- V$_{p-p}$ = 2.47 V -->
    <g style="fill: #333333" transform="translate(805.731615 276.7447) scale(0.08 -0.08)">
     <defs>
      <path id="DejaVuSans-56" d="M 1831 0 
L 50 4666 
L 709 4666 
L 2188 738 
L 3669 4666 
L 4325 4666 
L 2547 0 
L 1831 0 
z
" transform="scale(0.015625)"/>
      <path id="DejaVuSans-Oblique-70" d="M 3175 2156 
Q 3175 2616 2975 2859 
Q 2775 3103 2400 3103 
Q 2144 3103 1911 2972 
Q 1678 2841 1497 2591 
Q 1319 2344 1212 1994 
Q 1106 1644 1106 1300 
Q 1106 863 1306 627 
Q 1506 391 1875 391 
Q 2147 391 2380 519 
Q 2613 647 2778 891 
Q 2956 1147 3065 1494 
Q 3175 1841 3175 2156 
z
M 1394 2969 
Q 1625 3272 1939 3428 
Q 2253 3584 2638 3584 
Q 3175 3584 3472 3232 
Q 3769 2881 3769 2247 
Q 3769 1728 3584 1258 
Q 3400 788 3053 416 
Q 2822 169 2531 39 
Q 2241 -91 1919 -91 
Q 1547 -91 1294 64 
Q 1041 219 916 525 
L 556 -1331 
L -19 -1331 
L 922 3500 
L 1497 3500 
L 1394 2969 
z
" transform="scale(0.015625)"/>
      <path id="DejaVuSans-20" transform="scale(0.015625)"/>
      <path id="DejaVuSans-3d" d="M 678 2906 
L 4684 2906 
L 4684 2381 
L 678 2381 
L 678 2906 
z
M 678 1631 
L 4684 1631 
L 4684 1100 
L 678 1100 
L 678 1631 
z
" transform="scale(0.015625)"/>
      <path id="DejaVuSans-2e" d="M 684 794 
L 1344 794 
L 1344 0 
L 684 0 
L 684 794 
z
" transform="scale(0.015625)"/>
      <path id="DejaVuSans-37" d="M 525 4666 
L 3525 4666 
L 3525 4397 
L 1831 0 
L 1172 0 
L 2766 4134 
L 525 4134 
L 525 4666 
z
" transform="scale(0.015625)"/>
     </defs>
     <use xlink:href="#DejaVuSans-56" transform="translate(0 0.78125)"/>
     <use xlink:href="#DejaVuSans-Oblique-70" transform="translate(69.365234 -15.625) scale(0.7)"/>
     <use xlink:href="#DejaVuSans-2212" transform="translate(127.436523 -15.625) scale(0.7)"/>
     <use xlink:href="#DejaVuSans-Oblique-70" transform="translate(199.726562 -15.625) scale(0.7)"/>
     <use xlink:href="#DejaVuSans-20" transform="translate(246.894531 0.78125)"/>
     <use xlink:href="#DejaVuSans-3d" transform="translate(278.681641 0.78125)"/>
     <use xlink:href="#DejaVuSans-20" transform="translate(362.470703 0.78125)"/>
     <use xlink:href="#DejaVuSans-32" transform="translate(394.257812 0.78125)"/>
     <use xlink:href="#DejaVuSans-2e" transform="translate(457.880859 0.78125)"/>
     <use xlink:href="#DejaVuSans-34" transform="translate(489.667969 0.78125)"/>
     <use xlink:href="#DejaVuSans-37" transform="translate(553.291016 0.78125)"/>
     <use xlink:href="#DejaVuSans-20" transform="translate(616.914062 0.78125)"/>
     <use xlink:href="#DejaVuSans-56" transform="translate(648.701172 0.78125)"/>
    </g>
   </g>
   <g id="text_18">
    <g id="patch_7">
     <path d="M 800.651615 302.8599 
L 868.251615 302.8599 
Q 869.851615 302.8599 869.851615 301.2599 
L 869.851615 292.7799 
Q 869.851615 291.1799 868.251615 291.1799 
L 800.651615 291.1799 
Q 799.051615 291.1799 799.051615 292.7799 
L 799.051615 301.2599 
Q 799.051615 302.8599 800.651615 302.8599 
z
" style="fill: #ffffff; opacity: 0.85; stroke: #d94452; stroke-linejoin: miter"/>
    </g>
    <!-- V$_{p-p}$ = 426.94 V -->
    <g style="fill: #d94452" transform="translate(800.651615 298.7799) scale(0.08 -0.08)">
     <defs>
      <path id="DejaVuSans-39" d="M 703 97 
L 703 672 
Q 941 559 1184 500 
Q 1428 441 1663 441 
Q 2288 441 2617 861 
Q 2947 1281 2994 2138 
Q 2813 1869 2534 1725 
Q 2256 1581 1919 1581 
Q 1219 1581 811 2004 
Q 403 2428 403 3163 
Q 403 3881 828 4315 
Q 1253 4750 1959 4750 
Q 2769 4750 3195 4129 
Q 3622 3509 3622 2328 
Q 3622 1225 3098 567 
Q 2575 -91 1691 -91 
Q 1453 -91 1209 -44 
Q 966 3 703 97 
z
M 1959 2075 
Q 2384 2075 2632 2365 
Q 2881 2656 2881 3163 
Q 2881 3666 2632 3958 
Q 2384 4250 1959 4250 
Q 1534 4250 1286 3958 
Q 1038 3666 1038 3163 
Q 1038 2656 1286 2365 
Q 1534 2075 1959 2075 
z
" transform="scale(0.015625)"/>
     </defs>
     <use xlink:href="#DejaVuSans-56" transform="translate(0 0.78125)"/>
     <use xlink:href="#DejaVuSans-Oblique-70" transform="translate(69.365234 -15.625) scale(0.7)"/>
     <use xlink:href="#DejaVuSans-2212" transform="translate(127.436523 -15.625) scale(0.7)"/>
     <use xlink:href="#DejaVuSans-Oblique-70" transform="translate(199.726562 -15.625) scale(0.7)"/>
     <use xlink:href="#DejaVuSans-20" transform="translate(246.894531 0.78125)"/>
     <use xlink:href="#DejaVuSans-3d" transform="translate(278.681641 0.78125)"/>
     <use xlink:href="#DejaVuSans-20" transform="translate(362.470703 0.78125)"/>
     <use xlink:href="#DejaVuSans-34" transform="translate(394.257812 0.78125)"/>
     <use xlink:href="#DejaVuSans-32" transform="translate(457.880859 0.78125)"/>
     <use xlink:href="#DejaVuSans-36" transform="translate(521.503906 0.78125)"/>
     <use xlink:href="#DejaVuSans-2e" transform="translate(585.126953 0.78125)"/>
     <use xlink:href="#DejaVuSans-39" transform="translate(616.914062 0.78125)"/>
     <use xlink:href="#DejaVuSans-34" transform="translate(680.537109 0.78125)"/>
     <use xlink:href="#DejaVuSans-20" transform="translate(744.160156 0.78125)"/>
     <use xlink:href="#DejaVuSans-56" transform="translate(775.947266 0.78125)"/>
    </g>
   </g>
   <g id="text_19">
    <!-- Open-Circuit Voltage — Bare vs MIC -->
    <g transform="translate(364.982531 19.3575) scale(0.16 -0.16)">
     <defs>
      <path id="DejaVuSans-Bold-4f" d="M 2719 3878 
Q 2169 3878 1866 3472 
Q 1563 3066 1563 2328 
Q 1563 1594 1866 1187 
Q 2169 781 2719 781 
Q 3272 781 3575 1187 
Q 3878 1594 3878 2328 
Q 3878 3066 3575 3472 
Q 3272 3878 2719 3878 
z
M 2719 4750 
Q 3844 4750 4481 4106 
Q 5119 3463 5119 2328 
Q 5119 1197 4481 553 
Q 3844 -91 2719 -91 
Q 1597 -91 958 553 
Q 319 1197 319 2328 
Q 319 3463 958 4106 
Q 1597 4750 2719 4750 
z
" transform="scale(0.015625)"/>
      <path id="DejaVuSans-Bold-70" d="M 1656 506 
L 1656 -1331 
L 538 -1331 
L 538 3500 
L 1656 3500 
L 1656 2988 
Q 1888 3294 2169 3439 
Q 2450 3584 2816 3584 
Q 3463 3584 3878 3070 
Q 4294 2556 4294 1747 
Q 4294 938 3878 423 
Q 3463 -91 2816 -91 
Q 2450 -91 2169 54 
Q 1888 200 1656 506 
z
M 2400 2772 
Q 2041 2772 1848 2508 
Q 1656 2244 1656 1747 
Q 1656 1250 1848 986 
Q 2041 722 2400 722 
Q 2759 722 2948 984 
Q 3138 1247 3138 1747 
Q 3138 2247 2948 2509 
Q 2759 2772 2400 2772 
z
" transform="scale(0.015625)"/>
      <path id="DejaVuSans-Bold-6e" d="M 4056 2131 
L 4056 0 
L 2931 0 
L 2931 347 
L 2931 1631 
Q 2931 2084 2911 2256 
Q 2891 2428 2841 2509 
Q 2775 2619 2662 2680 
Q 2550 2741 2406 2741 
Q 2056 2741 1856 2470 
Q 1656 2200 1656 1722 
L 1656 0 
L 538 0 
L 538 3500 
L 1656 3500 
L 1656 2988 
Q 1909 3294 2193 3439 
Q 2478 3584 2822 3584 
Q 3428 3584 3742 3212 
Q 4056 2841 4056 2131 
z
" transform="scale(0.015625)"/>
      <path id="DejaVuSans-Bold-2d" d="M 347 2297 
L 2309 2297 
L 2309 1388 
L 347 1388 
L 347 2297 
z
" transform="scale(0.015625)"/>
      <path id="DejaVuSans-Bold-43" d="M 4288 256 
Q 3956 84 3597 -3 
Q 3238 -91 2847 -91 
Q 1681 -91 1000 561 
Q 319 1213 319 2328 
Q 319 3447 1000 4098 
Q 1681 4750 2847 4750 
Q 3238 4750 3597 4662 
Q 3956 4575 4288 4403 
L 4288 3438 
Q 3953 3666 3628 3772 
Q 3303 3878 2944 3878 
Q 2300 3878 1931 3465 
Q 1563 3053 1563 2328 
Q 1563 1606 1931 1193 
Q 2300 781 2944 781 
Q 3303 781 3628 887 
Q 3953 994 4288 1222 
L 4288 256 
z
" transform="scale(0.015625)"/>
      <path id="DejaVuSans-Bold-72" d="M 3138 2547 
Q 2991 2616 2845 2648 
Q 2700 2681 2553 2681 
Q 2122 2681 1889 2404 
Q 1656 2128 1656 1613 
L 1656 0 
L 538 0 
L 538 3500 
L 1656 3500 
L 1656 2925 
Q 1872 3269 2151 3426 
Q 2431 3584 2822 3584 
Q 2878 3584 2943 3579 
Q 3009 3575 3134 3559 
L 3138 2547 
z
" transform="scale(0.015625)"/>
      <path id="DejaVuSans-Bold-63" d="M 3366 3391 
L 3366 2478 
Q 3138 2634 2908 2709 
Q 2678 2784 2431 2784 
Q 1963 2784 1702 2511 
Q 1441 2238 1441 1747 
Q 1441 1256 1702 982 
Q 1963 709 2431 709 
Q 2694 709 2930 787 
Q 3166 866 3366 1019 
L 3366 103 
Q 3103 6 2833 -42 
Q 2563 -91 2291 -91 
Q 1344 -91 809 395 
Q 275 881 275 1747 
Q 275 2613 809 3098 
Q 1344 3584 2291 3584 
Q 2566 3584 2833 3536 
Q 3100 3488 3366 3391 
z
" transform="scale(0.015625)"/>
      <path id="DejaVuSans-Bold-75" d="M 500 1363 
L 500 3500 
L 1625 3500 
L 1625 3150 
Q 1625 2866 1622 2436 
Q 1619 2006 1619 1863 
Q 1619 1441 1641 1255 
Q 1663 1069 1716 984 
Q 1784 875 1895 815 
Q 2006 756 2150 756 
Q 2500 756 2700 1025 
Q 2900 1294 2900 1772 
L 2900 3500 
L 4019 3500 
L 4019 0 
L 2900 0 
L 2900 506 
Q 2647 200 2364 54 
Q 2081 -91 1741 -91 
Q 1134 -91 817 281 
Q 500 653 500 1363 
z
" transform="scale(0.015625)"/>
      <path id="DejaVuSans-Bold-74" d="M 1759 4494 
L 1759 3500 
L 2913 3500 
L 2913 2700 
L 1759 2700 
L 1759 1216 
Q 1759 972 1856 886 
Q 1953 800 2241 800 
L 2816 800 
L 2816 0 
L 1856 0 
Q 1194 0 917 276 
Q 641 553 641 1216 
L 641 2700 
L 84 2700 
L 84 3500 
L 641 3500 
L 641 4494 
L 1759 4494 
z
" transform="scale(0.015625)"/>
      <path id="DejaVuSans-Bold-6f" d="M 2203 2784 
Q 1831 2784 1636 2517 
Q 1441 2250 1441 1747 
Q 1441 1244 1636 976 
Q 1831 709 2203 709 
Q 2569 709 2762 976 
Q 2956 1244 2956 1747 
Q 2956 2250 2762 2517 
Q 2569 2784 2203 2784 
z
M 2203 3584 
Q 3106 3584 3614 3096 
Q 4122 2609 4122 1747 
Q 4122 884 3614 396 
Q 3106 -91 2203 -91 
Q 1297 -91 786 396 
Q 275 884 275 1747 
Q 275 2609 786 3096 
Q 1297 3584 2203 3584 
z
" transform="scale(0.015625)"/>
      <path id="DejaVuSans-Bold-6c" d="M 538 4863 
L 1656 4863 
L 1656 0 
L 538 0 
L 538 4863 
z
" transform="scale(0.015625)"/>
      <path id="DejaVuSans-Bold-61" d="M 2106 1575 
Q 1756 1575 1579 1456 
Q 1403 1338 1403 1106 
Q 1403 894 1545 773 
Q 1688 653 1941 653 
Q 2256 653 2472 879 
Q 2688 1106 2688 1447 
L 2688 1575 
L 2106 1575 
z
M 3816 1997 
L 3816 0 
L 2688 0 
L 2688 519 
Q 2463 200 2181 54 
Q 1900 -91 1497 -91 
Q 953 -91 614 226 
Q 275 544 275 1050 
Q 275 1666 698 1953 
Q 1122 2241 2028 2241 
L 2688 2241 
L 2688 2328 
Q 2688 2594 2478 2717 
Q 2269 2841 1825 2841 
Q 1466 2841 1156 2769 
Q 847 2697 581 2553 
L 581 3406 
Q 941 3494 1303 3539 
Q 1666 3584 2028 3584 
Q 2975 3584 3395 3211 
Q 3816 2838 3816 1997 
z
" transform="scale(0.015625)"/>
      <path id="DejaVuSans-Bold-67" d="M 2919 594 
Q 2688 288 2409 144 
Q 2131 0 1766 0 
Q 1125 0 706 504 
Q 288 1009 288 1791 
Q 288 2575 706 3076 
Q 1125 3578 1766 3578 
Q 2131 3578 2409 3434 
Q 2688 3291 2919 2981 
L 2919 3500 
L 4044 3500 
L 4044 353 
Q 4044 -491 3511 -936 
Q 2978 -1381 1966 -1381 
Q 1638 -1381 1331 -1331 
Q 1025 -1281 716 -1178 
L 716 -306 
Q 1009 -475 1290 -558 
Q 1572 -641 1856 -641 
Q 2406 -641 2662 -400 
Q 2919 -159 2919 353 
L 2919 594 
z
M 2181 2772 
Q 1834 2772 1640 2515 
Q 1447 2259 1447 1791 
Q 1447 1309 1634 1061 
Q 1822 813 2181 813 
Q 2531 813 2725 1069 
Q 2919 1325 2919 1791 
Q 2919 2259 2725 2515 
Q 2531 2772 2181 2772 
z
" transform="scale(0.015625)"/>
      <path id="DejaVuSans-Bold-2014" d="M 344 2156 
L 6056 2156 
L 6056 1350 
L 344 1350 
L 344 2156 
z
" transform="scale(0.015625)"/>
      <path id="DejaVuSans-Bold-42" d="M 2456 2859 
Q 2741 2859 2887 2984 
Q 3034 3109 3034 3353 
Q 3034 3594 2887 3720 
Q 2741 3847 2456 3847 
L 1791 3847 
L 1791 2859 
L 2456 2859 
z
M 2497 819 
Q 2859 819 3042 972 
Q 3225 1125 3225 1434 
Q 3225 1738 3044 1889 
Q 2863 2041 2497 2041 
L 1791 2041 
L 1791 819 
L 2497 819 
z
M 3616 2497 
Q 4003 2384 4215 2081 
Q 4428 1778 4428 1338 
Q 4428 663 3972 331 
Q 3516 0 2584 0 
L 588 0 
L 588 4666 
L 2394 4666 
Q 3366 4666 3802 4372 
Q 4238 4078 4238 3431 
Q 4238 3091 4078 2852 
Q 3919 2613 3616 2497 
z
" transform="scale(0.015625)"/>
      <path id="DejaVuSans-Bold-76" d="M 97 3500 
L 1216 3500 
L 2088 1081 
L 2956 3500 
L 4078 3500 
L 2700 0 
L 1472 0 
L 97 3500 
z
" transform="scale(0.015625)"/>
      <path id="DejaVuSans-Bold-4d" d="M 588 4666 
L 2119 4666 
L 3181 2169 
L 4250 4666 
L 5778 4666 
L 5778 0 
L 4641 0 
L 4641 3413 
L 3566 897 
L 2803 897 
L 1728 3413 
L 1728 0 
L 588 0 
L 588 4666 
z
" transform="scale(0.015625)"/>
      <path id="DejaVuSans-Bold-49" d="M 588 4666 
L 1791 4666 
L 1791 0 
L 588 0 
L 588 4666 
z
" transform="scale(0.015625)"/>
     </defs>
     <use xlink:href="#DejaVuSans-Bold-4f"/>
     <use xlink:href="#DejaVuSans-Bold-70" transform="translate(85.009766 0)"/>
     <use xlink:href="#DejaVuSans-Bold-65" transform="translate(156.591797 0)"/>
     <use xlink:href="#DejaVuSans-Bold-6e" transform="translate(224.414062 0)"/>
     <use xlink:href="#DejaVuSans-Bold-2d" transform="translate(295.605469 0)"/>
     <use xlink:href="#DejaVuSans-Bold-43" transform="translate(337.109375 0)"/>
     <use xlink:href="#DejaVuSans-Bold-69" transform="translate(410.498047 0)"/>
     <use xlink:href="#DejaVuSans-Bold-72" transform="translate(444.775391 0)"/>
     <use xlink:href="#DejaVuSans-Bold-63" transform="translate(494.091797 0)"/>
     <use xlink:href="#DejaVuSans-Bold-75" transform="translate(553.369141 0)"/>
     <use xlink:href="#DejaVuSans-Bold-69" transform="translate(624.560547 0)"/>
     <use xlink:href="#DejaVuSans-Bold-74" transform="translate(658.837891 0)"/>
     <use xlink:href="#DejaVuSans-Bold-20" transform="translate(706.640625 0)"/>
     <use xlink:href="#DejaVuSans-Bold-56" transform="translate(741.455078 0)"/>
     <use xlink:href="#DejaVuSans-Bold-6f" transform="translate(813.347656 0)"/>
     <use xlink:href="#DejaVuSans-Bold-6c" transform="translate(882.048828 0)"/>
     <use xlink:href="#DejaVuSans-Bold-74" transform="translate(916.326172 0)"/>
     <use xlink:href="#DejaVuSans-Bold-61" transform="translate(964.128906 0)"/>
     <use xlink:href="#DejaVuSans-Bold-67" transform="translate(1031.609375 0)"/>
     <use xlink:href="#DejaVuSans-Bold-65" transform="translate(1103.191406 0)"/>
     <use xlink:href="#DejaVuSans-Bold-20" transform="translate(1171.013672 0)"/>
     <use xlink:href="#DejaVuSans-Bold-2014" transform="translate(1205.828125 0)"/>
     <use xlink:href="#DejaVuSans-Bold-20" transform="translate(1305.828125 0)"/>
     <use xlink:href="#DejaVuSans-Bold-42" transform="translate(1340.642578 0)"/>
     <use xlink:href="#DejaVuSans-Bold-61" transform="translate(1416.863281 0)"/>
     <use xlink:href="#DejaVuSans-Bold-72" transform="translate(1484.34375 0)"/>
     <use xlink:href="#DejaVuSans-Bold-65" transform="translate(1533.660156 0)"/>
     <use xlink:href="#DejaVuSans-Bold-20" transform="translate(1601.482422 0)"/>
     <use xlink:href="#DejaVuSans-Bold-76" transform="translate(1636.296875 0)"/>
     <use xlink:href="#DejaVuSans-Bold-73" transform="translate(1701.482422 0)"/>
     <use xlink:href="#DejaVuSans-Bold-20" transform="translate(1761.003906 0)"/>
     <use xlink:href="#DejaVuSans-Bold-4d" transform="translate(1795.818359 0)"/>
     <use xlink:href="#DejaVuSans-Bold-49" transform="translate(1895.330078 0)"/>
     <use xlink:href="#DejaVuSans-Bold-43" transform="translate(1932.537109 0)"/>
    </g>
   </g>
   <g id="text_20">
    <!-- 5 Hz -->
    <g style="fill: #f0ad4e" transform="translate(818.443333 55.253069) scale(0.13 -0.13)">
     <defs>
      <path id="DejaVuSans-Bold-35" d="M 678 4666 
L 3669 4666 
L 3669 3781 
L 1638 3781 
L 1638 3059 
Q 1775 3097 1914 3117 
Q 2053 3138 2203 3138 
Q 3056 3138 3531 2711 
Q 4006 2284 4006 1522 
Q 4006 766 3489 337 
Q 2972 -91 2053 -91 
Q 1656 -91 1267 -14 
Q 878 63 494 219 
L 494 1166 
Q 875 947 1217 837 
Q 1559 728 1863 728 
Q 2300 728 2551 942 
Q 2803 1156 2803 1522 
Q 2803 1891 2551 2103 
Q 2300 2316 1863 2316 
Q 1603 2316 1309 2248 
Q 1016 2181 678 2041 
L 678 4666 
z
" transform="scale(0.015625)"/>
      <path id="DejaVuSans-Bold-48" d="M 588 4666 
L 1791 4666 
L 1791 2888 
L 3566 2888 
L 3566 4666 
L 4769 4666 
L 4769 0 
L 3566 0 
L 3566 1978 
L 1791 1978 
L 1791 0 
L 588 0 
L 588 4666 
z
" transform="scale(0.015625)"/>
      <path id="DejaVuSans-Bold-7a" d="M 366 3500 
L 3419 3500 
L 3419 2719 
L 1575 800 
L 3419 800 
L 3419 0 
L 288 0 
L 288 781 
L 2131 2700 
L 366 2700 
L 366 3500 
z
" transform="scale(0.015625)"/>
     </defs>
     <use xlink:href="#DejaVuSans-Bold-35"/>
     <use xlink:href="#DejaVuSans-Bold-20" transform="translate(69.580078 0)"/>
     <use xlink:href="#DejaVuSans-Bold-48" transform="translate(104.394531 0)"/>
     <use xlink:href="#DejaVuSans-Bold-7a" transform="translate(188.085938 0)"/>
    </g>
   </g>
   <g id="legend_1">
    <g id="patch_8">
     <path d="M 69.663281 75.449375 
L 171.75875 75.449375 
Q 173.95875 75.449375 173.95875 73.249375 
L 173.95875 42.0575 
Q 173.95875 39.8575 171.75875 39.8575 
L 69.663281 39.8575 
Q 67.463281 39.8575 67.463281 42.0575 
L 67.463281 73.249375 
Q 67.463281 75.449375 69.663281 75.449375 
z
" style="fill: #ffffff; opacity: 0.9; stroke: #808080; stroke-linejoin: miter"/>
    </g>
    <g id="patch_9">
     <path d="M 71.863281 52.615781 
L 93.863281 52.615781 
L 93.863281 44.915781 
L 71.863281 44.915781 
z
" style="fill: #333333; stroke: #333333; stroke-linejoin: miter"/>
    </g>
    <g id="text_21">
     <!-- Without MIC -->
     <g transform="translate(102.663281 52.615781) scale(0.11 -0.11)">
      <defs>
       <path id="DejaVuSans-57" d="M 213 4666 
L 850 4666 
L 1831 722 
L 2809 4666 
L 3519 4666 
L 4500 722 
L 5478 4666 
L 6119 4666 
L 4947 0 
L 4153 0 
L 3169 4050 
L 2175 0 
L 1381 0 
L 213 4666 
z
" transform="scale(0.015625)"/>
       <path id="DejaVuSans-69" d="M 603 3500 
L 1178 3500 
L 1178 0 
L 603 0 
L 603 3500 
z
M 603 4863 
L 1178 4863 
L 1178 4134 
L 603 4134 
L 603 4863 
z
" transform="scale(0.015625)"/>
       <path id="DejaVuSans-74" d="M 1172 4494 
L 1172 3500 
L 2356 3500 
L 2356 3053 
L 1172 3053 
L 1172 1153 
Q 1172 725 1289 603 
Q 1406 481 1766 481 
L 2356 481 
L 2356 0 
L 1766 0 
Q 1100 0 847 248 
Q 594 497 594 1153 
L 594 3053 
L 172 3053 
L 172 3500 
L 594 3500 
L 594 4494 
L 1172 4494 
z
" transform="scale(0.015625)"/>
       <path id="DejaVuSans-68" d="M 3513 2113 
L 3513 0 
L 2938 0 
L 2938 2094 
Q 2938 2591 2744 2837 
Q 2550 3084 2163 3084 
Q 1697 3084 1428 2787 
Q 1159 2491 1159 1978 
L 1159 0 
L 581 0 
L 581 4863 
L 1159 4863 
L 1159 2956 
Q 1366 3272 1645 3428 
Q 1925 3584 2291 3584 
Q 2894 3584 3203 3211 
Q 3513 2838 3513 2113 
z
" transform="scale(0.015625)"/>
       <path id="DejaVuSans-6f" d="M 1959 3097 
Q 1497 3097 1228 2736 
Q 959 2375 959 1747 
Q 959 1119 1226 758 
Q 1494 397 1959 397 
Q 2419 397 2687 759 
Q 2956 1122 2956 1747 
Q 2956 2369 2687 2733 
Q 2419 3097 1959 3097 
z
M 1959 3584 
Q 2709 3584 3137 3096 
Q 3566 2609 3566 1747 
Q 3566 888 3137 398 
Q 2709 -91 1959 -91 
Q 1206 -91 779 398 
Q 353 888 353 1747 
Q 353 2609 779 3096 
Q 1206 3584 1959 3584 
z
" transform="scale(0.015625)"/>
       <path id="DejaVuSans-75" d="M 544 1381 
L 544 3500 
L 1119 3500 
L 1119 1403 
Q 1119 906 1312 657 
Q 1506 409 1894 409 
Q 2359 409 2629 706 
Q 2900 1003 2900 1516 
L 2900 3500 
L 3475 3500 
L 3475 0 
L 2900 0 
L 2900 538 
Q 2691 219 2414 64 
Q 2138 -91 1772 -91 
Q 1169 -91 856 284 
Q 544 659 544 1381 
z
M 1991 3584 
L 1991 3584 
z
" transform="scale(0.015625)"/>
       <path id="DejaVuSans-4d" d="M 628 4666 
L 1569 4666 
L 2759 1491 
L 3956 4666 
L 4897 4666 
L 4897 0 
L 4281 0 
L 4281 4097 
L 3078 897 
L 2444 897 
L 1241 4097 
L 1241 0 
L 628 0 
L 628 4666 
z
" transform="scale(0.015625)"/>
       <path id="DejaVuSans-49" d="M 628 4666 
L 1259 4666 
L 1259 0 
L 628 0 
L 628 4666 
z
" transform="scale(0.015625)"/>
       <path id="DejaVuSans-43" d="M 4122 4306 
L 4122 3641 
Q 3803 3938 3442 4084 
Q 3081 4231 2675 4231 
Q 1875 4231 1450 3742 
Q 1025 3253 1025 2328 
Q 1025 1406 1450 917 
Q 1875 428 2675 428 
Q 3081 428 3442 575 
Q 3803 722 4122 1019 
L 4122 359 
Q 3791 134 3420 21 
Q 3050 -91 2638 -91 
Q 1578 -91 968 557 
Q 359 1206 359 2328 
Q 359 3453 968 4101 
Q 1578 4750 2638 4750 
Q 3056 4750 3426 4639 
Q 3797 4528 4122 4306 
z
" transform="scale(0.015625)"/>
      </defs>
      <use xlink:href="#DejaVuSans-57"/>
      <use xlink:href="#DejaVuSans-69" transform="translate(96.626953 0)"/>
      <use xlink:href="#DejaVuSans-74" transform="translate(124.410156 0)"/>
      <use xlink:href="#DejaVuSans-68" transform="translate(163.619141 0)"/>
      <use xlink:href="#DejaVuSans-6f" transform="translate(226.998047 0)"/>
      <use xlink:href="#DejaVuSans-75" transform="translate(288.179688 0)"/>
      <use xlink:href="#DejaVuSans-74" transform="translate(351.558594 0)"/>
      <use xlink:href="#DejaVuSans-20" transform="translate(390.767578 0)"/>
      <use xlink:href="#DejaVuSans-4d" transform="translate(422.554688 0)"/>
      <use xlink:href="#DejaVuSans-49" transform="translate(508.833984 0)"/>
      <use xlink:href="#DejaVuSans-43" transform="translate(538.326172 0)"/>
     </g>
    </g>
    <g id="patch_10">
     <path d="M 71.863281 68.761719 
L 93.863281 68.761719 
L 93.863281 61.061719 
L 71.863281 61.061719 
z
" style="fill: #d94452; stroke: #d94452; stroke-linejoin: miter"/>
    </g>
    <g id="text_22">
     <!-- With MIC -->
     <g transform="translate(102.663281 68.761719) scale(0.11 -0.11)">
      <use xlink:href="#DejaVuSans-57"/>
      <use xlink:href="#DejaVuSans-69" transform="translate(96.626953 0)"/>
      <use xlink:href="#DejaVuSans-74" transform="translate(124.410156 0)"/>
      <use xlink:href="#DejaVuSans-68" transform="translate(163.619141 0)"/>
      <use xlink:href="#DejaVuSans-20" transform="translate(226.998047 0)"/>
      <use xlink:href="#DejaVuSans-4d" transform="translate(258.785156 0)"/>
      <use xlink:href="#DejaVuSans-49" transform="translate(345.064453 0)"/>
      <use xlink:href="#DejaVuSans-43" transform="translate(374.556641 0)"/>
     </g>
    </g>
   </g>
  </g>
 </g>
 <defs>
  <clipPath id="p150d033122">
   <rect x="61.963281" y="34.3575" width="926.986" height="275.44"/>
  </clipPath>
 </defs>
</svg>
