<?xml version="1.0" encoding="utf-8" standalone="no"?>
<!DOCTYPE svg PUBLIC "-//W3C//DTD SVG 1.1//EN"
  "http://www.w3.org/Graphics/SVG/1.1/DTD/svg11.dtd">
<svg xmlns:xlink="http://www.w3.org/1999/xlink" width="711.685336pt" height="349.93775pt" viewBox="0 0 711.685336 349.93775" xmlns="http://www.w3.org/2000/svg" version="1.1">
 <metadata>
  <rdf:RDF xmlns:dc="http://purl.org/dc/elements/1.1/" xmlns:cc="http://creativecommons.org/ns#" xmlns:rdf="http://www.w3.org/1999/02/22-rdf-syntax-ns#">
   <cc:Work>
    <dc:type rdf:resource="http://purl.org/dc/dcmitype/StillImage"/>
    <dc:date>2026-04-26T16:21:28.370849</dc:date>
    <dc:format>image/svg+xml</dc:format>
    <dc:creator>
     <cc:Agent>
      <dc:title>Matplotlib v3.10.8, https://matplotlib.org/</dc:title>
     </cc:Agent>
    </dc:creator>
   </cc:Work>
  </rdf:RDF>
 </metadata>
 <defs>
  <style type="text/css">*{stroke-linejoin: round; stroke-linecap: butt}</style>
 </defs>
 <g id="figure_1">
  <g id="patch_1">
   <path d="M 0 349.93775 
L 711.685336 349.93775 
L 711.685336 0 
L 0 0 
z
" style="fill: #ffffff"/>
  </g>
  <g id="axes_1">
   <g id="patch_2">
    <path d="M 48.029375 307.542437 
L 704.485336 307.542437 
L 704.485336 17.798437 
L 48.029375 17.798437 
z
" style="fill: #ffffff"/>
   </g>
   <g id="patch_3">
    <path d="M 48.029375 307.542437 
L 376.257355 307.542437 
L 376.257355 17.798437 
L 48.029375 17.798437 
z
" clip-path="url(#p26ef5533ed)" style="fill: #cccccc; opacity: 0.12; stroke: #cccccc; stroke-linejoin: miter"/>
   </g>
   <g id="patch_4">
    <path d="M 376.257355 307.542437 
L 704.485336 307.542437 
L 704.485336 17.798437 
L 376.257355 17.798437 
z
" clip-path="url(#p26ef5533ed)" style="fill: #d94452; opacity: 0.06; stroke: #d94452; stroke-linejoin: miter"/>
   </g>
   <g id="line2d_1">
    <path d="M 376.257355 307.542437 
L 376.257355 17.798437 
" clip-path="url(#p26ef5533ed)" style="fill: none; stroke-dasharray: 3.7,1.6; stroke-dashoffset: 0; stroke: #999999"/>
   </g>
   <g id="matplotlib.axis_1">
    <g id="xtick_1">
     <g id="line2d_2">
      <defs>
       <path id="mb0cb49eb69" d="M 0 0 
L 0 3.5 
" style="stroke: #000000; stroke-width: 0.8"/>
      </defs>
      <g>
       <use xlink:href="#mb0cb49eb69" x="48.029375" y="307.542437" style="stroke: #000000; stroke-width: 0.8"/>
      </g>
     </g>
     <g id="text_1">
      <!-- 0 -->
      <g transform="translate(44.53 322.900719) scale(0.11 -0.11)">
       <defs>
        <path id="DejaVuSans-30" d="M 2034 4250 
Q 1547 4250 1301 3770 
Q 1056 3291 1056 2328 
Q 1056 1369 1301 889 
Q 1547 409 2034 409 
Q 2525 409 2770 889 
Q 3016 1369 3016 2328 
Q 3016 3291 2770 3770 
Q 2525 4250 2034 4250 
z
M 2034 4750 
Q 2819 4750 3233 4129 
Q 3647 3509 3647 2328 
Q 3647 1150 3233 529 
Q 2819 -91 2034 -91 
Q 1250 -91 836 529 
Q 422 1150 422 2328 
Q 422 3509 836 4129 
Q 1250 4750 2034 4750 
z
" transform="scale(0.015625)"/>
       </defs>
       <use xlink:href="#DejaVuSans-30"/>
      </g>
     </g>
    </g>
    <g id="xtick_2">
     <g id="line2d_3">
      <g>
       <use xlink:href="#mb0cb49eb69" x="179.346831" y="307.542437" style="stroke: #000000; stroke-width: 0.8"/>
      </g>
     </g>
     <g id="text_2">
      <!-- 2 -->
      <g transform="translate(175.847456 322.900719) scale(0.11 -0.11)">
       <defs>
        <path id="DejaVuSans-32" d="M 1228 531 
L 3431 531 
L 3431 0 
L 469 0 
L 469 531 
Q 828 903 1448 1529 
Q 2069 2156 2228 2338 
Q 2531 2678 2651 2914 
Q 2772 3150 2772 3378 
Q 2772 3750 2511 3984 
Q 2250 4219 1831 4219 
Q 1534 4219 1204 4116 
Q 875 4013 500 3803 
L 500 4441 
Q 881 4594 1212 4672 
Q 1544 4750 1819 4750 
Q 2544 4750 2975 4387 
Q 3406 4025 3406 3419 
Q 3406 3131 3298 2873 
Q 3191 2616 2906 2266 
Q 2828 2175 2409 1742 
Q 1991 1309 1228 531 
z
" transform="scale(0.015625)"/>
       </defs>
       <use xlink:href="#DejaVuSans-32"/>
      </g>
     </g>
    </g>
    <g id="xtick_3">
     <g id="line2d_4">
      <g>
       <use xlink:href="#mb0cb49eb69" x="310.664286" y="307.542437" style="stroke: #000000; stroke-width: 0.8"/>
      </g>
     </g>
     <g id="text_3">
      <!-- 4 -->
      <g transform="translate(307.164911 322.900719) scale(0.11 -0.11)">
       <defs>
        <path id="DejaVuSans-34" d="M 2419 4116 
L 825 1625 
L 2419 1625 
L 2419 4116 
z
M 2253 4666 
L 3047 4666 
L 3047 1625 
L 3713 1625 
L 3713 1100 
L 3047 1100 
L 3047 0 
L 2419 0 
L 2419 1100 
L 313 1100 
L 313 1709 
L 2253 4666 
z
" transform="scale(0.015625)"/>
       </defs>
       <use xlink:href="#DejaVuSans-34"/>
      </g>
     </g>
    </g>
    <g id="xtick_4">
     <g id="line2d_5">
      <g>
       <use xlink:href="#mb0cb49eb69" x="441.981742" y="307.542437" style="stroke: #000000; stroke-width: 0.8"/>
      </g>
     </g>
     <g id="text_4">
      <!-- 6 -->
      <g transform="translate(438.482367 322.900719) scale(0.11 -0.11)">
       <defs>
        <path id="DejaVuSans-36" d="M 2113 2584 
Q 1688 2584 1439 2293 
Q 1191 2003 1191 1497 
Q 1191 994 1439 701 
Q 1688 409 2113 409 
Q 2538 409 2786 701 
Q 3034 994 3034 1497 
Q 3034 2003 2786 2293 
Q 2538 2584 2113 2584 
z
M 3366 4563 
L 3366 3988 
Q 3128 4100 2886 4159 
Q 2644 4219 2406 4219 
Q 1781 4219 1451 3797 
Q 1122 3375 1075 2522 
Q 1259 2794 1537 2939 
Q 1816 3084 2150 3084 
Q 2853 3084 3261 2657 
Q 3669 2231 3669 1497 
Q 3669 778 3244 343 
Q 2819 -91 2113 -91 
Q 1303 -91 875 529 
Q 447 1150 447 2328 
Q 447 3434 972 4092 
Q 1497 4750 2381 4750 
Q 2619 4750 2861 4703 
Q 3103 4656 3366 4563 
z
" transform="scale(0.015625)"/>
       </defs>
       <use xlink:href="#DejaVuSans-36"/>
      </g>
     </g>
    </g>
    <g id="xtick_5">
     <g id="line2d_6">
      <g>
       <use xlink:href="#mb0cb49eb69" x="573.299198" y="307.542437" style="stroke: #000000; stroke-width: 0.8"/>
      </g>
     </g>
     <g id="text_5">
      <!-- 8 -->
      <g transform="translate(569.799823 322.900719) scale(0.11 -0.11)">
       <defs>
        <path id="DejaVuSans-38" d="M 2034 2216 
Q 1584 2216 1326 1975 
Q 1069 1734 1069 1313 
Q 1069 891 1326 650 
Q 1584 409 2034 409 
Q 2484 409 2743 651 
Q 3003 894 3003 1313 
Q 3003 1734 2745 1975 
Q 2488 2216 2034 2216 
z
M 1403 2484 
Q 997 2584 770 2862 
Q 544 3141 544 3541 
Q 544 4100 942 4425 
Q 1341 4750 2034 4750 
Q 2731 4750 3128 4425 
Q 3525 4100 3525 3541 
Q 3525 3141 3298 2862 
Q 3072 2584 2669 2484 
Q 3125 2378 3379 2068 
Q 3634 1759 3634 1313 
Q 3634 634 3220 271 
Q 2806 -91 2034 -91 
Q 1263 -91 848 271 
Q 434 634 434 1313 
Q 434 1759 690 2068 
Q 947 2378 1403 2484 
z
M 1172 3481 
Q 1172 3119 1398 2916 
Q 1625 2713 2034 2713 
Q 2441 2713 2670 2916 
Q 2900 3119 2900 3481 
Q 2900 3844 2670 4047 
Q 2441 4250 2034 4250 
Q 1625 4250 1398 4047 
Q 1172 3844 1172 3481 
z
" transform="scale(0.015625)"/>
       </defs>
       <use xlink:href="#DejaVuSans-38"/>
      </g>
     </g>
    </g>
    <g id="text_6">
     <!-- Time (s) -->
     <g transform="translate(344.038762 339.826187) scale(0.14 -0.14)">
      <defs>
       <path id="DejaVuSans-Bold-54" d="M 31 4666 
L 4331 4666 
L 4331 3756 
L 2784 3756 
L 2784 0 
L 1581 0 
L 1581 3756 
L 31 3756 
L 31 4666 
z
" transform="scale(0.015625)"/>
       <path id="DejaVuSans-Bold-69" d="M 538 3500 
L 1656 3500 
L 1656 0 
L 538 0 
L 538 3500 
z
M 538 4863 
L 1656 4863 
L 1656 3950 
L 538 3950 
L 538 4863 
z
" transform="scale(0.015625)"/>
       <path id="DejaVuSans-Bold-6d" d="M 3781 2919 
Q 3994 3244 4286 3414 
Q 4578 3584 4928 3584 
Q 5531 3584 5847 3212 
Q 6163 2841 6163 2131 
L 6163 0 
L 5038 0 
L 5038 1825 
Q 5041 1866 5042 1909 
Q 5044 1953 5044 2034 
Q 5044 2406 4934 2573 
Q 4825 2741 4581 2741 
Q 4263 2741 4089 2478 
Q 3916 2216 3909 1719 
L 3909 0 
L 2784 0 
L 2784 1825 
Q 2784 2406 2684 2573 
Q 2584 2741 2328 2741 
Q 2006 2741 1831 2477 
Q 1656 2213 1656 1722 
L 1656 0 
L 531 0 
L 531 3500 
L 1656 3500 
L 1656 2988 
Q 1863 3284 2130 3434 
Q 2397 3584 2719 3584 
Q 3081 3584 3359 3409 
Q 3638 3234 3781 2919 
z
" transform="scale(0.015625)"/>
       <path id="DejaVuSans-Bold-65" d="M 4031 1759 
L 4031 1441 
L 1416 1441 
Q 1456 1047 1700 850 
Q 1944 653 2381 653 
Q 2734 653 3104 758 
Q 3475 863 3866 1075 
L 3866 213 
Q 3469 63 3072 -14 
Q 2675 -91 2278 -91 
Q 1328 -91 801 392 
Q 275 875 275 1747 
Q 275 2603 792 3093 
Q 1309 3584 2216 3584 
Q 3041 3584 3536 3087 
Q 4031 2591 4031 1759 
z
M 2881 2131 
Q 2881 2450 2695 2645 
Q 2509 2841 2209 2841 
Q 1884 2841 1681 2658 
Q 1478 2475 1428 2131 
L 2881 2131 
z
" transform="scale(0.015625)"/>
       <path id="DejaVuSans-Bold-20" transform="scale(0.015625)"/>
       <path id="DejaVuSans-Bold-28" d="M 2413 -844 
L 1484 -844 
Q 1006 -72 778 623 
Q 550 1319 550 2003 
Q 550 2688 779 3389 
Q 1009 4091 1484 4856 
L 2413 4856 
Q 2013 4116 1813 3408 
Q 1613 2700 1613 2009 
Q 1613 1319 1811 609 
Q 2009 -100 2413 -844 
z
" transform="scale(0.015625)"/>
       <path id="DejaVuSans-Bold-73" d="M 3272 3391 
L 3272 2541 
Q 2913 2691 2578 2766 
Q 2244 2841 1947 2841 
Q 1628 2841 1473 2761 
Q 1319 2681 1319 2516 
Q 1319 2381 1436 2309 
Q 1553 2238 1856 2203 
L 2053 2175 
Q 2913 2066 3209 1816 
Q 3506 1566 3506 1031 
Q 3506 472 3093 190 
Q 2681 -91 1863 -91 
Q 1516 -91 1145 -36 
Q 775 19 384 128 
L 384 978 
Q 719 816 1070 734 
Q 1422 653 1784 653 
Q 2113 653 2278 743 
Q 2444 834 2444 1013 
Q 2444 1163 2330 1236 
Q 2216 1309 1875 1350 
L 1678 1375 
Q 931 1469 631 1722 
Q 331 1975 331 2491 
Q 331 3047 712 3315 
Q 1094 3584 1881 3584 
Q 2191 3584 2531 3537 
Q 2872 3491 3272 3391 
z
" transform="scale(0.015625)"/>
       <path id="DejaVuSans-Bold-29" d="M 513 -844 
Q 913 -100 1113 609 
Q 1313 1319 1313 2009 
Q 1313 2700 1113 3408 
Q 913 4116 513 4856 
L 1441 4856 
Q 1916 4091 2145 3389 
Q 2375 2688 2375 2003 
Q 2375 1319 2147 623 
Q 1919 -72 1441 -844 
L 513 -844 
z
" transform="scale(0.015625)"/>
      </defs>
      <use xlink:href="#DejaVuSans-Bold-54"/>
      <use xlink:href="#DejaVuSans-Bold-69" transform="translate(68.212891 0)"/>
      <use xlink:href="#DejaVuSans-Bold-6d" transform="translate(102.490234 0)"/>
      <use xlink:href="#DejaVuSans-Bold-65" transform="translate(206.689453 0)"/>
      <use xlink:href="#DejaVuSans-Bold-20" transform="translate(274.511719 0)"/>
      <use xlink:href="#DejaVuSans-Bold-28" transform="translate(309.326172 0)"/>
      <use xlink:href="#DejaVuSans-Bold-73" transform="translate(355.029297 0)"/>
      <use xlink:href="#DejaVuSans-Bold-29" transform="translate(414.550781 0)"/>
     </g>
    </g>
   </g>
   <g id="matplotlib.axis_2">
    <g id="ytick_1">
     <g id="line2d_7">
      <defs>
       <path id="m80d6dc832a" d="M 0 0 
L -3.5 0 
" style="stroke: #000000; stroke-width: 0.8"/>
      </defs>
      <g>
       <use xlink:href="#m80d6dc832a" x="48.029375" y="260.196543" style="stroke: #000000; stroke-width: 0.8"/>
      </g>
     </g>
     <g id="text_7">
      <!-- $\mathdefault{−2}$ -->
      <g transform="translate(24.749375 264.375684) scale(0.11 -0.11)">
       <defs>
        <path id="DejaVuSans-2212" d="M 678 2272 
L 4684 2272 
L 4684 1741 
L 678 1741 
L 678 2272 
z
" transform="scale(0.015625)"/>
       </defs>
       <use xlink:href="#DejaVuSans-2212" transform="translate(0 0.78125)"/>
       <use xlink:href="#DejaVuSans-32" transform="translate(83.789062 0.78125)"/>
      </g>
     </g>
    </g>
    <g id="ytick_2">
     <g id="line2d_8">
      <g>
       <use xlink:href="#m80d6dc832a" x="48.029375" y="211.43349" style="stroke: #000000; stroke-width: 0.8"/>
      </g>
     </g>
     <g id="text_8">
      <!-- $\mathdefault{−1}$ -->
      <g transform="translate(24.749375 215.612631) scale(0.11 -0.11)">
       <defs>
        <path id="DejaVuSans-31" d="M 794 531 
L 1825 531 
L 1825 4091 
L 703 3866 
L 703 4441 
L 1819 4666 
L 2450 4666 
L 2450 531 
L 3481 531 
L 3481 0 
L 794 0 
L 794 531 
z
" transform="scale(0.015625)"/>
       </defs>
       <use xlink:href="#DejaVuSans-2212" transform="translate(0 0.09375)"/>
       <use xlink:href="#DejaVuSans-31" transform="translate(83.789062 0.09375)"/>
      </g>
     </g>
    </g>
    <g id="ytick_3">
     <g id="line2d_9">
      <g>
       <use xlink:href="#m80d6dc832a" x="48.029375" y="162.670437" style="stroke: #000000; stroke-width: 0.8"/>
      </g>
     </g>
     <g id="text_9">
      <!-- $\mathdefault{0}$ -->
      <g transform="translate(33.989375 166.849578) scale(0.11 -0.11)">
       <use xlink:href="#DejaVuSans-30" transform="translate(0 0.78125)"/>
      </g>
     </g>
    </g>
    <g id="ytick_4">
     <g id="line2d_10">
      <g>
       <use xlink:href="#m80d6dc832a" x="48.029375" y="113.907385" style="stroke: #000000; stroke-width: 0.8"/>
      </g>
     </g>
     <g id="text_10">
      <!-- $\mathdefault{1}$ -->
      <g transform="translate(33.989375 118.086525) scale(0.11 -0.11)">
       <use xlink:href="#DejaVuSans-31" transform="translate(0 0.09375)"/>
      </g>
     </g>
    </g>
    <g id="ytick_5">
     <g id="line2d_11">
      <g>
       <use xlink:href="#m80d6dc832a" x="48.029375" y="65.144332" style="stroke: #000000; stroke-width: 0.8"/>
      </g>
     </g>
     <g id="text_11">
      <!-- $\mathdefault{2}$ -->
      <g transform="translate(33.989375 69.323473) scale(0.11 -0.11)">
       <use xlink:href="#DejaVuSans-32" transform="translate(0 0.78125)"/>
      </g>
     </g>
    </g>
    <g id="text_12">
     <!-- I$_{sc}$ (mA/m²) -->
     <g transform="translate(17.837812 205.300437) rotate(-90) scale(0.14 -0.14)">
      <defs>
       <path id="DejaVuSans-Bold-49" d="M 588 4666 
L 1791 4666 
L 1791 0 
L 588 0 
L 588 4666 
z
" transform="scale(0.015625)"/>
       <path id="DejaVuSans-Oblique-73" d="M 3200 3397 
L 3091 2853 
Q 2863 2978 2609 3040 
Q 2356 3103 2088 3103 
Q 1634 3103 1373 2948 
Q 1113 2794 1113 2528 
Q 1113 2219 1719 2053 
Q 1766 2041 1788 2034 
L 1972 1978 
Q 2547 1819 2739 1644 
Q 2931 1469 2931 1166 
Q 2931 609 2489 259 
Q 2047 -91 1331 -91 
Q 1053 -91 747 -37 
Q 441 16 72 128 
L 184 722 
Q 500 559 806 475 
Q 1113 391 1394 391 
Q 1816 391 2080 572 
Q 2344 753 2344 1031 
Q 2344 1331 1650 1516 
L 1591 1531 
L 1394 1581 
Q 956 1697 753 1886 
Q 550 2075 550 2369 
Q 550 2928 970 3256 
Q 1391 3584 2113 3584 
Q 2397 3584 2667 3537 
Q 2938 3491 3200 3397 
z
" transform="scale(0.015625)"/>
       <path id="DejaVuSans-Oblique-63" d="M 3431 3366 
L 3316 2797 
Q 3109 2947 2876 3022 
Q 2644 3097 2394 3097 
Q 2119 3097 1870 3000 
Q 1622 2903 1453 2725 
Q 1184 2453 1037 2087 
Q 891 1722 891 1331 
Q 891 859 1127 628 
Q 1363 397 1844 397 
Q 2081 397 2348 469 
Q 2616 541 2906 684 
L 2797 116 
Q 2547 13 2283 -39 
Q 2019 -91 1741 -91 
Q 1044 -91 669 257 
Q 294 606 294 1253 
Q 294 1797 489 2255 
Q 684 2713 1069 3078 
Q 1331 3328 1684 3456 
Q 2038 3584 2456 3584 
Q 2700 3584 2940 3529 
Q 3181 3475 3431 3366 
z
" transform="scale(0.015625)"/>
       <path id="DejaVuSans-Bold-41" d="M 3419 850 
L 1538 850 
L 1241 0 
L 31 0 
L 1759 4666 
L 3194 4666 
L 4922 0 
L 3713 0 
L 3419 850 
z
M 1838 1716 
L 3116 1716 
L 2478 3572 
L 1838 1716 
z
" transform="scale(0.015625)"/>
       <path id="DejaVuSans-Bold-2f" d="M 1644 4666 
L 2338 4666 
L 691 -594 
L 0 -594 
L 1644 4666 
z
" transform="scale(0.015625)"/>
       <path id="DejaVuSans-Bold-b2" d="M 1288 2613 
L 2444 2613 
L 2444 2088 
L 341 2088 
L 341 2566 
L 1319 3397 
Q 1509 3563 1590 3688 
Q 1672 3813 1672 3938 
Q 1672 4094 1558 4191 
Q 1444 4288 1259 4288 
Q 1066 4288 844 4217 
Q 622 4147 359 4000 
L 359 4581 
Q 631 4666 886 4708 
Q 1141 4750 1375 4750 
Q 1869 4750 2150 4548 
Q 2431 4347 2431 4000 
Q 2431 3775 2320 3586 
Q 2209 3397 1894 3128 
L 1288 2613 
z
" transform="scale(0.015625)"/>
      </defs>
      <use xlink:href="#DejaVuSans-Bold-49" transform="translate(0 0.125)"/>
      <use xlink:href="#DejaVuSans-Oblique-73" transform="translate(38.164062 -16.28125) scale(0.7)"/>
      <use xlink:href="#DejaVuSans-Oblique-63" transform="translate(74.633789 -16.28125) scale(0.7)"/>
      <use xlink:href="#DejaVuSans-Bold-20" transform="translate(115.854492 0.125)"/>
      <use xlink:href="#DejaVuSans-Bold-28" transform="translate(150.668945 0.125)"/>
      <use xlink:href="#DejaVuSans-Bold-6d" transform="translate(196.37207 0.125)"/>
      <use xlink:href="#DejaVuSans-Bold-41" transform="translate(300.571289 0.125)"/>
      <use xlink:href="#DejaVuSans-Bold-2f" transform="translate(377.963867 0.125)"/>
      <use xlink:href="#DejaVuSans-Bold-6d" transform="translate(414.487305 0.125)"/>
      <use xlink:href="#DejaVuSans-Bold-b2" transform="translate(518.686523 0.125)"/>
      <use xlink:href="#DejaVuSans-Bold-29" transform="translate(562.485352 0.125)"/>
     </g>
    </g>
    <g id="text_13">
     <!-- $\times\mathdefault{10^{−3}}\mathdefault{}$ -->
     <g transform="translate(48.029375 14.798437) scale(0.1 -0.1)">
      <defs>
       <path id="DejaVuSans-d7" d="M 4488 3438 
L 3059 2003 
L 4488 575 
L 4116 197 
L 2681 1631 
L 1247 197 
L 878 575 
L 2303 2003 
L 878 3438 
L 1247 3816 
L 2681 2381 
L 4116 3816 
L 4488 3438 
z
" transform="scale(0.015625)"/>
       <path id="DejaVuSans-33" d="M 2597 2516 
Q 3050 2419 3304 2112 
Q 3559 1806 3559 1356 
Q 3559 666 3084 287 
Q 2609 -91 1734 -91 
Q 1441 -91 1130 -33 
Q 819 25 488 141 
L 488 750 
Q 750 597 1062 519 
Q 1375 441 1716 441 
Q 2309 441 2620 675 
Q 2931 909 2931 1356 
Q 2931 1769 2642 2001 
Q 2353 2234 1838 2234 
L 1294 2234 
L 1294 2753 
L 1863 2753 
Q 2328 2753 2575 2939 
Q 2822 3125 2822 3475 
Q 2822 3834 2567 4026 
Q 2313 4219 1838 4219 
Q 1578 4219 1281 4162 
Q 984 4106 628 3988 
L 628 4550 
Q 988 4650 1302 4700 
Q 1616 4750 1894 4750 
Q 2613 4750 3031 4423 
Q 3450 4097 3450 3541 
Q 3450 3153 3228 2886 
Q 3006 2619 2597 2516 
z
" transform="scale(0.015625)"/>
      </defs>
      <use xlink:href="#DejaVuSans-d7" transform="translate(0 0.765625)"/>
      <use xlink:href="#DejaVuSans-31" transform="translate(83.789062 0.765625)"/>
      <use xlink:href="#DejaVuSans-30" transform="translate(147.412109 0.765625)"/>
      <use xlink:href="#DejaVuSans-2212" transform="translate(211.992188 39.046875) scale(0.7)"/>
      <use xlink:href="#DejaVuSans-33" transform="translate(270.644531 39.046875) scale(0.7)"/>
     </g>
    </g>
   </g>
   <g id="patch_5">
    <path d="M 48.029375 307.542437 
L 48.029375 17.798437 
" style="fill: none; stroke: #000000; stroke-width: 0.8; stroke-linejoin: miter; stroke-linecap: square"/>
   </g>
   <g id="patch_6">
    <path d="M 48.029375 307.542437 
L 704.485336 307.542437 
" style="fill: none; stroke: #000000; stroke-width: 0.8; stroke-linejoin: miter; stroke-linecap: square"/>
   </g>
   <g id="line2d_12">
    <path d="M 48.029375 153.931072 
L 48.488986 156.718711 
L 48.620304 157.111336 
L 49.079915 158.642574 
L 49.211232 158.917412 
L 50.32743 161.312425 
L 50.393089 161.312425 
L 50.721383 161.940626 
L 50.787042 161.940626 
L 51.049676 162.254726 
L 51.312311 162.176201 
L 51.37797 162.293988 
L 51.443629 162.215463 
L 51.771922 162.451039 
L 52.034557 162.961451 
L 52.297192 162.686614 
L 52.362851 162.608089 
L 52.494168 162.922189 
L 52.691145 162.922189 
L 52.756803 163.197026 
L 52.822462 163.079239 
L 54.004319 165.395728 
L 54.135637 165.984665 
L 54.726565 169.636079 
L 54.9892 173.366018 
L 55.317494 181.925248 
L 55.580129 196.609425 
L 55.842764 227.312691 
L 56.171057 268.420505 
L 56.302375 258.212265 
L 57.681208 108.857678 
L 57.812525 107.876114 
L 57.878184 107.993902 
L 58.07516 110.23187 
L 58.731748 125.347953 
L 59.65097 142.584205 
L 60.307557 149.965553 
L 60.832827 153.263608 
L 61.883367 158.328474 
L 62.277319 159.388562 
L 62.474295 159.702662 
L 62.999565 161.037588 
L 63.065224 161.037588 
L 63.393517 161.430213 
L 63.656152 161.705051 
L 63.918787 162.019151 
L 64.378398 162.215463 
L 64.575374 162.215463 
L 64.641033 162.215463 
L 64.838009 162.490301 
L 64.969327 162.451039 
L 65.166303 162.843664 
L 65.29762 162.725876 
L 65.428938 162.725876 
L 65.82289 163.000714 
L 66.676454 164.846052 
L 66.87343 165.003102 
L 67.070406 165.984665 
L 67.3987 167.908528 
L 67.792652 171.716992 
L 68.120946 178.744983 
L 68.383581 190.28816 
L 68.646216 213.688611 
L 69.040168 268.773866 
L 69.105827 266.928526 
L 69.43412 230.689264 
L 70.550319 109.053986 
L 70.681636 107.522753 
L 70.747295 107.562019 
L 70.878612 108.504317 
L 71.338223 117.966592 
L 72.126128 135.516951 
L 73.04535 148.120213 
L 73.373644 150.829332 
L 74.818136 158.210687 
L 75.015112 158.760361 
L 75.540382 160.056025 
L 75.737358 160.44865 
L 76.065652 161.2339 
L 76.131311 161.2339 
L 76.328287 161.469476 
L 76.787898 161.705051 
L 76.853557 162.019151 
L 76.919215 161.940626 
L 77.313168 162.058413 
L 77.444485 162.097676 
L 77.575803 162.215463 
L 77.641461 162.176201 
L 77.838437 162.490301 
L 77.904096 162.333251 
L 77.969755 162.372514 
L 78.166731 162.608089 
L 78.23239 162.490301 
L 78.429366 162.765139 
L 78.495025 162.725876 
L 78.560683 162.882926 
L 78.626342 162.765139 
L 79.348588 164.139327 
L 79.545564 164.767527 
L 79.676882 164.571214 
L 80.530445 169.557554 
L 80.79308 173.24823 
L 81.121374 181.807461 
L 81.31835 192.722436 
L 81.515326 210.469079 
L 81.974937 268.695346 
L 82.171913 250.320501 
L 83.353771 111.370487 
L 83.550747 107.090859 
L 83.616405 106.894551 
L 83.747723 107.993902 
L 84.010358 112.430571 
L 84.666945 127.93927 
L 85.323532 140.071396 
L 85.98012 148.277267 
L 87.161977 156.011985 
L 87.49027 157.386173 
L 87.621588 157.739536 
L 88.343834 159.938238 
L 88.409493 159.938238 
L 88.54081 160.173812 
L 88.606469 160.056025 
L 88.869104 160.880537 
L 89.197397 161.430213 
L 89.263056 161.626526 
L 89.328715 161.587263 
L 89.525691 161.548001 
L 89.59135 161.665788 
L 89.657008 161.508738 
L 89.722667 161.626526 
L 89.919643 161.862101 
L 89.985302 161.783576 
L 90.11662 162.293988 
L 90.182278 161.783576 
L 90.247937 162.058413 
L 90.379254 162.097676 
L 90.444913 162.254726 
L 90.510572 162.136938 
L 90.773207 162.293988 
L 90.838866 162.293988 
L 90.904524 162.176201 
L 91.167159 162.608089 
L 91.495453 162.843664 
L 91.561112 163.000714 
L 91.62677 162.922189 
L 92.020723 163.471864 
L 92.545992 164.80679 
L 92.742969 165.160152 
L 93.268238 168.104841 
L 93.530873 170.853217 
L 93.793508 175.36841 
L 94.056143 183.535014 
L 94.318778 200.496413 
L 94.581413 235.911177 
L 94.844048 269.75543 
L 94.975365 261.549571 
L 96.419857 107.051604 
L 96.485516 106.580456 
L 96.551175 106.698243 
L 96.748151 108.896945 
L 97.273421 120.597176 
L 98.061326 137.480066 
L 98.84923 148.002426 
L 99.177524 150.554494 
L 99.571476 152.910246 
L 100.096746 156.247561 
L 100.556357 158.014374 
L 100.687675 158.289211 
L 101.081627 159.427825 
L 101.344262 160.095288 
L 102.394802 161.822838 
L 103.051389 161.862101 
L 103.314024 162.058413 
L 103.379683 162.058413 
L 103.511 162.372514 
L 103.642317 162.136938 
L 103.707976 162.411776 
L 103.773635 162.254726 
L 103.839294 162.333251 
L 103.904952 162.215463 
L 103.970611 162.254726 
L 104.101929 162.372514 
L 104.364563 162.843664 
L 104.495881 162.922189 
L 105.283786 164.531952 
L 105.809055 166.023927 
L 106.268667 169.007879 
L 106.531302 172.188143 
L 106.925254 182.710492 
L 107.187889 198.140658 
L 107.450524 230.807051 
L 107.713159 269.637643 
L 107.778817 269.362802 
L 107.975794 250.124193 
L 109.223309 108.543583 
L 109.420286 106.384136 
L 109.485944 106.61971 
L 109.68292 109.171773 
L 111.25873 141.995269 
L 111.784 148.15948 
L 112.177952 151.221958 
L 112.900198 155.61936 
L 113.359809 157.778799 
L 113.622444 158.406998 
L 113.950738 159.349299 
L 114.476008 160.6057 
L 114.86996 161.116113 
L 115.066936 161.351688 
L 115.39523 161.901363 
L 115.789182 162.019151 
L 115.986158 162.019151 
L 117.561968 163.079239 
L 117.758944 163.628914 
L 117.824603 163.550389 
L 118.875142 166.966228 
L 119.072119 168.144104 
L 119.466071 172.973393 
L 119.728706 179.333919 
L 119.991341 191.544565 
L 120.253976 216.397715 
L 120.647928 270.540674 
L 120.779245 261.510305 
L 122.158079 107.444232 
L 122.289396 106.109295 
L 122.355055 106.266349 
L 122.552031 108.504317 
L 123.011642 119.026676 
L 123.733888 135.163577 
L 124.456134 146.078565 
L 124.981404 150.593757 
L 125.966285 156.365348 
L 126.294579 157.778799 
L 127.148142 160.095288 
L 127.213801 160.13455 
L 127.607753 160.998326 
L 127.870388 161.351688 
L 128.133023 161.587263 
L 128.461317 161.979888 
L 128.78961 162.176201 
L 128.920928 162.058413 
L 129.052245 162.097676 
L 129.249221 162.293988 
L 129.380539 162.293988 
L 129.511856 162.490301 
L 129.577515 162.451039 
L 130.36542 162.922189 
L 131.022007 164.610477 
L 131.218983 164.80679 
L 131.744253 167.044753 
L 132.072547 169.361242 
L 132.40084 173.797905 
L 132.663475 180.70811 
L 132.92611 194.292936 
L 133.188745 222.208564 
L 133.517039 270.619207 
L 133.582697 269.833951 
L 133.779674 250.045672 
L 135.027189 108.072422 
L 135.158507 106.109295 
L 135.224166 106.187828 
L 135.355483 107.130125 
L 135.749435 114.943368 
L 136.668658 135.752525 
L 137.193927 143.99765 
L 137.653539 149.023256 
L 138.244467 153.106558 
L 138.375785 154.127384 
L 138.704078 155.854935 
L 139.032372 157.307649 
L 140.082911 160.13455 
L 140.214229 160.409387 
L 140.739499 161.430213 
L 141.461745 161.979888 
L 141.658721 162.176201 
L 141.72438 162.058413 
L 141.921356 162.293988 
L 141.987015 162.215463 
L 142.052673 162.333251 
L 142.183991 162.215463 
L 142.906237 163.000714 
L 143.037554 162.922189 
L 143.23453 163.039976 
L 143.562824 163.707439 
L 144.482046 166.102453 
L 144.941657 168.968616 
L 145.33561 174.543893 
L 145.598245 182.121556 
L 145.860879 197.19836 
L 146.123514 228.333521 
L 146.451808 271.32593 
L 146.583125 261.274731 
L 147.961959 107.090859 
L 148.093276 106.070041 
L 148.158935 106.148561 
L 148.355911 108.582837 
L 148.815522 119.105209 
L 149.734744 138.697216 
L 150.45699 148.355787 
L 150.916602 151.536058 
L 151.835824 156.954286 
L 152.164117 158.053636 
L 153.017681 160.2916 
L 153.542951 161.273163 
L 154.002562 161.822838 
L 154.06822 161.705051 
L 154.330855 161.979888 
L 154.462173 162.058413 
L 154.527832 162.176201 
L 154.59349 162.136938 
L 154.659149 162.097676 
L 154.790466 162.333251 
L 154.856125 162.293988 
L 154.921784 162.451039 
L 154.987443 162.293988 
L 155.11876 162.568826 
L 155.184419 162.411776 
L 155.250078 162.490301 
L 155.315736 162.411776 
L 155.578371 162.686614 
L 155.64403 162.686614 
L 155.906665 163.197026 
L 156.103641 163.157764 
L 156.234958 163.157764 
L 156.431935 163.668177 
L 157.351157 166.023927 
L 158.073403 172.031093 
L 158.401696 179.098344 
L 158.664331 190.680788 
L 158.926966 214.670174 
L 159.320919 271.954132 
L 159.386577 270.383632 
L 159.649212 241.800547 
L 160.765411 109.21104 
L 160.962387 105.441838 
L 161.028046 105.402572 
L 161.225022 107.562019 
L 161.684633 118.084379 
L 162.669514 139.246886 
L 163.39176 148.512841 
L 163.720053 151.104169 
L 164.310982 154.834109 
L 164.770593 157.34691 
L 165.164545 158.406998 
L 165.295863 158.799624 
L 165.755474 160.13455 
L 166.083768 160.684226 
L 166.280744 161.037588 
L 166.346403 160.959063 
L 166.609037 161.548001 
L 166.806014 161.783576 
L 167.134307 162.215463 
L 167.265625 162.097676 
L 167.331283 162.215463 
L 167.396942 162.176201 
L 167.659577 162.215463 
L 167.922212 162.490301 
L 168.250506 162.765139 
L 168.381823 162.608089 
L 169.366704 163.746702 
L 169.629339 164.531952 
L 170.482902 167.319591 
L 170.942514 171.559942 
L 171.205148 176.781855 
L 171.467783 185.655183 
L 171.730418 203.951507 
L 171.993053 242.468016 
L 172.190029 271.443717 
L 172.255688 272.032652 
L 172.387006 261.706625 
L 173.371886 136.81261 
L 173.634521 110.192603 
L 173.831498 105.638146 
L 173.897156 105.363306 
L 173.962815 105.481105 
L 174.159791 108.033168 
L 174.816378 124.091548 
L 175.669942 140.895918 
L 176.26087 148.316533 
L 176.78614 152.36057 
L 177.705362 157.268386 
L 178.36195 159.310037 
L 178.624585 159.938238 
L 179.084196 161.037588 
L 180.200394 162.293988 
L 180.266053 162.176201 
L 180.331712 162.215463 
L 180.528688 162.293988 
L 180.660005 162.333251 
L 180.92264 162.686614 
L 180.988299 162.686614 
L 181.185275 163.039976 
L 181.382251 162.843664 
L 181.579227 163.039976 
L 181.710545 163.079239 
L 182.629767 164.80679 
L 182.958061 165.74909 
L 183.023719 165.788352 
L 183.548989 168.772303 
L 183.811624 171.559942 
L 184.0086 174.465368 
L 184.336894 184.595098 
L 184.599529 201.477977 
L 184.862164 236.892741 
L 185.124799 272.97495 
L 185.256116 265.161719 
L 186.175338 151.810895 
L 186.503632 111.684582 
L 186.700608 105.912987 
L 186.766267 105.284785 
L 186.831926 105.363306 
L 186.963243 106.501923 
L 187.291537 113.058774 
L 188.473394 139.325406 
L 188.998664 146.785288 
L 189.458275 150.907857 
L 189.72091 152.596146 
L 190.311838 156.051248 
L 190.640132 157.386173 
L 191.23106 159.388562 
L 191.428037 159.741925 
L 192.150283 161.351688 
L 192.215941 161.312425 
L 192.478576 161.744313 
L 192.741211 161.979888 
L 193.069505 162.490301 
L 193.200822 162.372514 
L 193.463457 162.529564 
L 193.594775 162.451039 
L 193.791751 162.725876 
L 194.054386 163.000714 
L 194.120044 163.157764 
L 194.185703 163.000714 
L 194.382679 163.275551 
L 194.513997 163.236289 
L 194.579656 163.393339 
L 194.645314 163.275551 
L 194.710973 163.197026 
L 194.973608 163.746702 
L 195.170584 164.100064 
L 195.498878 165.081628 
L 196.089806 166.730653 
L 196.549417 169.675341 
L 196.877711 174.269056 
L 197.140346 180.865152 
L 197.402981 194.214415 
L 197.665616 221.541108 
L 198.059568 272.503801 
L 198.256544 253.697074 
L 199.50406 107.719061 
L 199.701036 105.363306 
L 199.766695 105.598892 
L 200.094989 111.017113 
L 201.342505 138.972045 
L 201.933433 147.374224 
L 202.261727 150.397448 
L 202.721338 153.420658 
L 203.377925 157.111336 
L 204.494123 160.173812 
L 205.150711 161.548001 
L 205.479004 162.097676 
L 205.544663 161.940626 
L 205.610322 162.019151 
L 205.741639 162.058413 
L 206.069933 162.568826 
L 206.857838 163.157764 
L 206.923496 162.843664 
L 206.989155 163.197026 
L 207.054814 163.118501 
L 207.580084 163.589652 
L 207.645742 163.511127 
L 207.711401 163.589652 
L 207.842719 163.825227 
L 207.908377 164.257114 
L 207.974036 164.100064 
L 208.696282 166.298766 
L 208.761941 165.945403 
L 209.155893 167.830004 
L 209.287211 168.890092 
L 209.549845 171.128055 
L 209.746822 173.954955 
L 210.009457 180.276216 
L 210.206433 188.560607 
L 210.469068 209.526782 
L 210.731703 252.872564 
L 210.928679 273.79946 
L 211.059996 265.318772 
L 211.979218 149.926299 
L 212.307512 110.781539 
L 212.504488 105.598892 
L 212.570147 105.127731 
L 212.635806 105.206264 
L 212.767123 106.61971 
L 213.161076 114.904114 
L 214.014639 135.163577 
L 214.868202 147.806118 
L 215.065179 149.651458 
L 215.262155 151.221958 
L 215.327814 151.379008 
L 216.05006 156.286822 
L 216.378353 157.425436 
L 217.56021 160.644963 
L 217.954163 161.351688 
L 218.019821 161.2339 
L 218.08548 161.862101 
L 218.151139 161.587263 
L 218.282456 162.097676 
L 218.348115 162.019151 
L 218.413774 162.019151 
L 218.479432 162.372514 
L 218.545091 162.176201 
L 218.742067 162.333251 
L 218.873385 162.254726 
L 219.004702 162.568826 
L 219.070361 162.411776 
L 219.13602 162.529564 
L 219.201678 162.804401 
L 219.267337 162.725876 
L 219.464313 162.922189 
L 220.186559 163.471864 
L 220.383536 163.825227 
L 220.514853 163.785964 
L 220.711829 164.02154 
L 220.777488 163.943014 
L 220.843147 163.982277 
L 221.105782 164.689002 
L 221.17144 164.689002 
L 221.368416 165.395728 
L 222.156321 168.379679 
L 222.484615 171.599205 
L 222.812909 177.645632 
L 223.141202 190.602255 
L 223.403837 213.845652 
L 223.797789 276.665618 
L 223.929107 270.933302 
L 224.913988 147.374224 
L 225.242281 115.335996 
L 225.439258 110.899326 
L 225.504916 110.663752 
L 225.570575 110.742285 
L 225.767551 113.137294 
L 226.095845 119.929719 
L 227.146385 141.131492 
L 227.802972 149.062522 
L 228.196924 152.164257 
L 228.984829 156.640185 
L 229.641416 158.995937 
L 230.691956 161.273163 
L 231.479861 162.372514 
L 231.545519 162.490301 
L 231.611178 162.451039 
L 231.676837 162.411776 
L 231.742495 162.529564 
L 231.808154 162.490301 
L 232.596059 163.039976 
L 232.793035 163.275551 
L 232.924353 163.314814 
L 233.121329 163.471864 
L 233.318305 163.471864 
L 233.383964 163.471864 
L 233.646599 164.139327 
L 233.712257 164.100064 
L 233.909234 164.49269 
L 233.974892 164.414164 
L 234.959773 167.555165 
L 235.485043 172.502243 
L 235.747678 177.84194 
L 236.010313 187.61831 
L 236.272948 207.642187 
L 236.732559 268.538292 
L 236.798218 265.789921 
L 237.19217 220.402491 
L 237.848757 138.383109 
L 238.111392 114.118858 
L 238.374027 108.66137 
L 238.439686 108.739891 
L 238.636662 110.820805 
L 239.358908 127.232547 
L 240.146813 142.034523 
L 240.8034 150.044086 
L 241.85394 156.404611 
L 241.919598 156.522398 
L 242.182233 157.778799 
L 242.970138 159.898975 
L 243.101455 160.173812 
L 243.495408 161.037588 
L 243.692384 161.351688 
L 243.758043 161.351688 
L 244.348971 162.215463 
L 244.742924 162.568826 
L 244.874241 162.411776 
L 245.071217 162.608089 
L 245.202535 162.608089 
L 245.333852 162.804401 
L 245.399511 162.843664 
L 245.46517 163.039976 
L 245.530828 163.000714 
L 245.596487 163.039976 
L 245.662146 163.236289 
L 245.727805 163.157764 
L 245.990439 163.314814 
L 246.450051 163.668177 
L 246.97532 164.767527 
L 247.237955 165.395728 
L 247.434931 165.788352 
L 247.631908 166.53434 
L 248.091519 169.086404 
L 248.354154 171.913305 
L 248.616789 176.703335 
L 248.945082 189.699225 
L 249.207717 212.078845 
L 249.601669 268.067143 
L 249.667328 267.321154 
L 249.864304 248.710747 
L 251.11182 110.349657 
L 251.308796 108.347263 
L 251.374455 108.543583 
L 251.571431 111.409741 
L 251.899725 118.35922 
L 252.556312 133.278983 
L 253.147241 143.369448 
L 253.738169 149.965553 
L 254.132122 152.674671 
L 254.985685 157.229123 
L 255.117003 157.778799 
L 255.445296 158.87815 
L 255.904907 159.9775 
L 256.29886 160.76275 
L 256.495836 161.2339 
L 257.874669 162.765139 
L 258.005987 162.568826 
L 258.071645 162.686614 
L 258.137304 162.647351 
L 258.531256 162.922189 
L 258.596915 163.197026 
L 258.662574 162.961451 
L 258.85955 163.393339 
L 258.925209 163.628914 
L 258.990868 163.550389 
L 259.187844 163.550389 
L 259.253502 163.550389 
L 259.91009 164.924577 
L 260.107066 165.395728 
L 260.369701 165.670565 
L 260.632336 167.00549 
L 260.960629 168.733042 
L 261.42024 175.054302 
L 261.682875 182.200089 
L 261.94551 196.962786 
L 262.208145 226.645234 
L 262.536439 269.048707 
L 262.667756 259.507923 
L 264.04659 109.171773 
L 264.177907 108.033168 
L 264.243566 108.111689 
L 264.440542 110.545965 
L 264.965812 122.246208 
L 265.688058 137.715653 
L 266.410304 147.923905 
L 266.869915 151.536058 
L 267.263867 153.931072 
L 267.592161 156.09051 
L 268.051772 157.975111 
L 268.117431 157.975111 
L 268.774018 159.9775 
L 270.021534 162.019151 
L 270.284169 162.293988 
L 270.415486 162.254726 
L 270.546804 162.411776 
L 270.612462 162.411776 
L 270.74378 162.725876 
L 270.809439 162.686614 
L 270.940756 162.647351 
L 271.006415 162.804401 
L 271.072073 162.765139 
L 271.137732 162.686614 
L 271.26905 162.922189 
L 271.400367 162.765139 
L 271.728661 163.314814 
L 271.794319 163.275551 
L 271.925637 163.471864 
L 271.991296 163.393339 
L 272.056954 163.589652 
L 272.122613 163.432601 
L 272.319589 163.746702 
L 272.450907 163.825227 
L 273.501446 166.612866 
L 273.764081 168.222629 
L 274.158034 172.266667 
L 274.420669 177.449324 
L 274.683304 186.676013 
L 274.945938 206.071688 
L 275.208573 245.569748 
L 275.40555 269.912484 
L 275.471208 268.341984 
L 275.733843 240.112261 
L 276.850042 111.2527 
L 277.047018 107.679807 
L 277.112676 107.758327 
L 277.243994 108.779157 
L 277.572288 115.061167 
L 278.754145 140.110662 
L 279.410732 148.709161 
L 279.739026 151.379008 
L 281.117859 158.367737 
L 281.446152 159.270775 
L 281.643129 159.741925 
L 281.971422 160.527175 
L 282.365375 161.155376 
L 282.956303 162.019151 
L 283.087621 162.176201 
L 283.284597 162.333251 
L 283.350256 162.215463 
L 283.415914 162.293988 
L 283.481573 162.333251 
L 283.547232 162.215463 
L 283.941184 162.843664 
L 284.006843 162.804401 
L 284.203819 162.961451 
L 284.335136 162.922189 
L 284.597771 162.882926 
L 284.66343 162.922189 
L 284.794748 163.314814 
L 284.860406 163.236289 
L 285.451335 163.943014 
L 285.516994 163.825227 
L 285.71397 164.571214 
L 286.042263 165.474252 
L 286.107922 165.513515 
L 286.830168 169.282716 
L 287.224121 175.015048 
L 287.486755 182.592705 
L 287.74939 197.708776 
L 288.012025 228.88319 
L 288.340319 270.148058 
L 288.471636 259.468657 
L 289.85047 108.308009 
L 289.981787 107.287179 
L 290.047446 107.404966 
L 290.244422 109.839242 
L 290.966668 126.643611 
L 291.623255 139.757301 
L 292.476819 150.08334 
L 292.93643 153.028034 
L 293.789993 157.621749 
L 293.855652 157.739536 
L 293.986969 158.210687 
L 294.052628 158.289211 
L 294.315263 159.074462 
L 294.709215 159.9775 
L 295.037509 160.802013 
L 295.300144 161.2339 
L 295.431461 161.312425 
L 296.088049 162.293988 
L 296.219366 162.254726 
L 296.285025 162.333251 
L 296.350684 162.176201 
L 296.416342 162.254726 
L 296.482001 162.411776 
L 296.54766 162.333251 
L 296.678977 162.372514 
L 297.204247 162.882926 
L 297.269906 162.686614 
L 297.335565 162.725876 
L 297.466882 162.882926 
L 297.729517 163.354076 
L 297.795176 163.197026 
L 297.860834 163.236289 
L 298.057811 163.471864 
L 298.451763 164.217851 
L 298.58308 164.374902 
L 298.911374 165.277939 
L 299.042692 165.513515 
L 299.370985 167.044753 
L 299.764938 169.518292 
L 300.224549 177.488578 
L 300.487184 187.461257 
L 300.749818 207.445867 
L 301.012453 248.239599 
L 301.20943 271.365196 
L 301.340747 263.080804 
L 302.785239 107.679807 
L 302.916556 107.012338 
L 303.047874 108.150955 
L 303.507485 117.888059 
L 304.82066 143.840597 
L 305.345929 149.415884 
L 305.674223 151.850157 
L 306.199493 155.265997 
L 306.593445 157.032811 
L 307.184374 159.074462 
L 308.169255 161.194638 
L 309.154136 162.293988 
L 309.219794 162.176201 
L 309.416771 162.411776 
L 309.482429 162.333251 
L 309.679405 162.490301 
L 309.745064 162.411776 
L 309.876382 162.568826 
L 309.94204 162.451039 
L 310.139017 162.882926 
L 310.204675 162.765139 
L 310.270334 162.804401 
L 310.795604 163.079239 
L 310.861263 162.961451 
L 310.99258 163.354076 
L 311.123897 163.511127 
L 311.386532 164.257114 
L 311.51785 164.531952 
L 311.780485 165.042365 
L 311.911802 165.199415 
L 312.568389 168.615253 
L 313.093659 176.507015 
L 313.356294 186.008544 
L 313.618929 204.501188 
L 313.881564 242.625057 
L 314.07854 270.265845 
L 314.144199 270.226579 
L 314.341175 251.419852 
L 315.588691 109.21104 
L 315.720008 106.973071 
L 315.785667 107.012338 
L 315.851326 107.090859 
L 316.048302 109.603667 
L 316.639231 123.267038 
L 317.361477 138.147535 
L 318.346358 150.318915 
L 319.659532 157.50396 
L 320.644413 160.173812 
L 321.629294 161.783576 
L 321.891929 162.019151 
L 322.088905 162.215463 
L 322.285881 162.215463 
L 322.745492 162.411776 
L 322.87681 162.254726 
L 323.008127 162.372514 
L 323.073786 162.333251 
L 323.270762 162.725876 
L 323.336421 162.725876 
L 323.40208 162.882926 
L 323.467738 162.843664 
L 323.533397 162.804401 
L 323.599056 163.039976 
L 323.664714 162.922189 
L 323.796032 162.882926 
L 325.043548 166.06319 
L 325.568818 169.596817 
L 325.96277 175.918079 
L 326.225405 184.516566 
L 326.48804 201.674284 
L 326.750675 237.44241 
L 327.01331 271.60077 
L 327.144627 262.688189 
L 328.589119 106.933817 
L 328.654778 106.423402 
L 328.720437 106.462669 
L 328.917413 108.857678 
L 329.180048 114.275912 
L 330.427563 140.621077 
L 331.215468 149.887033 
L 332.331667 156.561661 
L 332.65996 157.700273 
L 332.791278 158.132161 
L 333.579182 160.173812 
L 334.432746 161.665788 
L 334.498405 161.587263 
L 334.564063 161.665788 
L 334.761039 161.940626 
L 334.826698 161.783576 
L 334.892357 161.901363 
L 334.958016 161.901363 
L 335.154992 162.097676 
L 335.286309 162.215463 
L 335.351968 162.136938 
L 335.483285 162.333251 
L 335.548944 162.293988 
L 335.680262 162.254726 
L 335.811579 162.333251 
L 335.942897 162.372514 
L 336.139873 162.293988 
L 336.336849 162.804401 
L 336.533825 163.079239 
L 336.599484 163.000714 
L 336.665143 163.000714 
L 336.862119 163.314814 
L 336.927777 163.157764 
L 337.190412 163.903751 
L 337.32173 164.296377 
L 337.584365 164.885315 
L 337.715682 165.003102 
L 338.37227 168.497466 
L 338.700563 172.46298 
L 339.028857 180.551057 
L 339.291492 193.900308 
L 339.554127 221.541108 
L 339.88242 271.679291 
L 339.948079 270.658461 
L 340.145055 251.027236 
L 341.392571 108.072422 
L 341.589547 105.991508 
L 341.720865 106.855284 
L 342.180476 116.31756 
L 343.099698 136.851876 
L 343.559309 143.762076 
L 344.215896 150.358181 
L 344.54419 152.36057 
L 345.266436 156.600923 
L 345.529071 157.50396 
L 346.119999 159.231512 
L 346.57961 160.370125 
L 346.710928 160.527175 
L 346.973563 160.880537 
L 347.039222 160.841276 
L 347.236198 161.548001 
L 347.301856 161.665788 
L 347.367515 161.587263 
L 347.695809 161.862101 
L 347.827126 161.705051 
L 348.024102 161.862101 
L 348.089761 161.587263 
L 348.286737 162.019151 
L 348.352396 161.901363 
L 348.549372 162.215463 
L 348.615031 162.097676 
L 348.746349 162.411776 
L 348.877666 162.176201 
L 348.943325 162.254726 
L 349.074642 162.451039 
L 349.140301 162.451039 
L 349.271618 162.608089 
L 349.337277 162.411776 
L 349.402936 162.765139 
L 349.468595 162.647351 
L 349.731229 163.197026 
L 350.059523 163.707439 
L 350.256499 164.139327 
L 350.650452 165.356465 
L 350.978745 166.53434 
L 351.569674 172.14888 
L 351.832309 177.645632 
L 352.094944 188.207246 
L 352.357579 209.448261 
L 352.81719 271.954132 
L 352.882848 268.891654 
L 353.605094 188.835448 
L 354.32734 106.776764 
L 354.458658 105.520359 
L 354.524317 105.716679 
L 354.655634 106.973071 
L 354.983928 113.765496 
L 356.034467 137.205238 
L 356.559737 144.782906 
L 357.085007 150.08334 
L 357.807253 154.559272 
L 358.201205 156.679448 
L 359.645697 160.802013 
L 359.711356 160.76275 
L 360.236626 161.508738 
L 360.302285 161.508738 
L 360.56492 161.862101 
L 360.761896 161.979888 
L 360.893213 161.862101 
L 362.469023 162.804401 
L 362.862975 163.707439 
L 362.928634 163.668177 
L 363.12561 164.17859 
L 363.322586 164.610477 
L 363.65088 165.59204 
L 364.110491 168.104841 
L 364.438784 171.67773 
L 364.635761 175.289877 
L 364.898396 183.692055 
L 365.16103 199.946731 
L 365.423665 234.379944 
L 365.6863 272.660855 
L 365.751959 271.32593 
L 366.014594 242.585803 
L 367.196451 107.522753 
L 367.327768 105.559626 
L 367.393427 105.638146 
L 367.459086 105.834466 
L 367.590403 107.483486 
L 367.918697 114.315178 
L 368.706602 132.847089 
L 369.29753 142.859033 
L 369.757141 148.198746 
L 370.742022 154.99116 
L 371.070316 156.600923 
L 371.923879 159.467087 
L 371.989538 159.467087 
L 372.252173 160.095288 
L 372.383491 160.409387 
L 372.711784 161.07685 
L 372.777443 161.037588 
L 373.040078 161.390951 
L 373.302713 161.665788 
L 373.762324 162.058413 
L 373.893641 162.097676 
L 373.9593 162.176201 
L 374.024959 162.058413 
L 374.090617 162.097676 
L 374.353252 162.136938 
L 374.550229 162.411776 
L 374.615887 162.254726 
L 374.681546 162.411776 
L 374.747205 162.333251 
L 375.141157 162.686614 
L 375.272475 162.686614 
L 375.929062 164.060801 
L 376.257355 164.885315 
L 376.257355 164.885315 
" clip-path="url(#p26ef5533ed)" style="fill: none; stroke: #333333; stroke-width: 0.8; stroke-linecap: square"/>
   </g>
   <g id="line2d_13">
    <path d="M 376.257355 163.903751 
L 376.323014 163.864489 
L 376.454332 164.060801 
L 376.51999 163.903751 
L 376.716967 164.217851 
L 376.913943 164.296377 
L 377.110919 164.610477 
L 377.701847 166.887703 
L 378.0958 171.088792 
L 378.292776 175.093569 
L 378.555411 186.126331 
L 378.752387 204.383401 
L 379.015022 258.251531 
L 379.146339 251.498385 
L 379.605951 210.272771 
L 379.802927 201.988379 
L 379.999903 188.874715 
L 380.65649 123.6204 
L 380.853466 121.264644 
L 380.919125 121.382432 
L 381.050443 122.481782 
L 381.444395 129.313462 
L 382.363617 145.018481 
L 383.020204 152.04647 
L 383.939427 156.875761 
L 384.399038 158.603311 
L 384.79299 159.702662 
L 385.449577 160.76275 
L 385.515236 160.723487 
L 385.777871 161.194638 
L 386.040506 161.430213 
L 386.303141 161.705051 
L 386.434458 161.783576 
L 386.631434 161.979888 
L 387.288022 162.647351 
L 387.813292 162.686614 
L 387.87895 162.922189 
L 387.944609 162.804401 
L 388.075926 163.118501 
L 388.141585 162.961451 
L 388.40422 163.118501 
L 388.469879 163.000714 
L 388.666855 163.275551 
L 388.92949 163.236289 
L 389.060807 163.197026 
L 389.192125 163.589652 
L 389.257784 163.589652 
L 389.45476 163.825227 
L 389.520418 163.785964 
L 389.651736 163.903751 
L 389.717395 163.825227 
L 389.98003 164.17859 
L 390.177006 164.257114 
L 390.899252 166.495077 
L 391.227545 169.557554 
L 391.49018 174.308318 
L 391.752815 184.712886 
L 391.949791 201.752805 
L 392.212426 250.909449 
L 392.343744 244.705972 
L 392.803355 205.875368 
L 393.000331 198.376232 
L 393.197307 185.576662 
L 393.853895 121.657272 
L 394.050871 119.576358 
L 394.182188 120.400868 
L 394.379164 123.306293 
L 395.889315 148.552107 
L 396.480244 153.774021 
L 397.465125 158.132161 
L 397.662101 158.642574 
L 397.859077 159.270775 
L 398.056053 159.741925 
L 398.187371 159.938238 
L 398.318688 160.13455 
L 398.450005 160.213075 
L 398.646982 160.6057 
L 400.354109 162.568826 
L 400.551085 162.529564 
L 401.535966 163.000714 
L 401.864259 163.039976 
L 402.126894 163.197026 
L 402.258212 163.236289 
L 402.84914 163.825227 
L 402.980458 163.903751 
L 403.046116 163.982277 
L 403.111775 163.864489 
L 403.89968 165.434989 
L 404.293632 168.222629 
L 404.556267 171.638468 
L 404.753243 176.19292 
L 405.015878 189.306597 
L 405.212854 211.961058 
L 405.409831 251.537639 
L 405.475489 250.399034 
L 406.132077 201.477977 
L 406.394712 185.223301 
L 406.98564 123.109985 
L 407.182616 119.654879 
L 407.248275 119.497825 
L 407.313934 119.615612 
L 407.51091 122.128421 
L 409.218037 149.847766 
L 409.743307 154.166646 
L 410.202918 156.326085 
L 410.334235 156.443872 
L 410.859505 158.87815 
L 410.925164 158.799624 
L 411.319116 159.702662 
L 411.778727 160.409387 
L 412.369656 161.312425 
L 412.500973 161.390951 
L 412.894926 161.901363 
L 413.026243 161.940626 
L 413.420195 162.451039 
L 413.551513 162.411776 
L 413.617172 162.451039 
L 413.68283 162.293988 
L 413.748489 162.411776 
L 414.076783 162.686614 
L 414.142441 162.843664 
L 414.2081 162.608089 
L 414.273759 162.804401 
L 414.339418 162.765139 
L 414.405076 162.765139 
L 414.470735 163.000714 
L 414.536394 162.804401 
L 414.602053 162.882926 
L 414.667711 163.079239 
L 414.73337 163.039976 
L 415.061664 162.882926 
L 415.586933 163.393339 
L 415.652592 163.354076 
L 415.849568 163.628914 
L 415.915227 163.589652 
L 415.980886 163.785964 
L 416.046545 163.746702 
L 416.112203 163.707439 
L 416.243521 163.982277 
L 416.309179 163.825227 
L 416.703132 164.531952 
L 416.834449 164.64974 
L 417.031425 165.160152 
L 417.688013 170.382067 
L 417.950648 176.232186 
L 418.147624 185.066247 
L 418.3446 202.655848 
L 418.607235 252.008788 
L 418.672894 250.438288 
L 419.263822 204.03004 
L 419.592116 184.94846 
L 420.183044 122.87441 
L 420.380021 119.537091 
L 420.445679 119.340784 
L 420.511338 119.576358 
L 420.773973 123.227772 
L 421.496219 137.126705 
L 422.021489 145.371842 
L 422.546759 150.907857 
L 423.137687 155.226734 
L 423.728616 157.268386 
L 424.188227 158.995937 
L 424.450862 159.663399 
L 424.51652 159.663399 
L 424.713497 159.938238 
L 424.844814 160.13455 
L 425.56706 161.312425 
L 425.632719 161.312425 
L 425.895354 161.665788 
L 425.961012 161.626526 
L 426.354965 162.176201 
L 426.814576 162.411776 
L 426.945893 162.333251 
L 428.062092 162.882926 
L 428.12775 162.804401 
L 428.390385 163.118501 
L 428.65302 163.197026 
L 428.849996 163.432601 
L 428.981314 163.354076 
L 429.046973 163.550389 
L 429.112631 163.511127 
L 429.17829 163.511127 
L 429.440925 163.864489 
L 429.637901 163.864489 
L 430.425806 165.90614 
L 430.7541 168.929353 
L 431.016734 172.93413 
L 431.279369 181.611141 
L 431.476346 195.824169 
L 431.673322 226.802276 
L 431.804639 252.048054 
L 431.870298 250.16346 
L 432.461226 204.069294 
L 432.78952 184.791406 
L 433.380449 122.481782 
L 433.577425 119.18373 
L 433.643084 118.987422 
L 433.84006 120.83275 
L 434.627965 135.752525 
L 435.218893 145.489629 
L 436.203774 154.402222 
L 437.713925 159.427825 
L 437.97656 159.898975 
L 438.501829 160.880537 
L 438.764464 161.194638 
L 438.830123 161.194638 
L 439.158417 161.587263 
L 439.224075 161.587263 
L 439.48671 162.058413 
L 439.552369 162.058413 
L 439.749345 162.254726 
L 440.208956 162.333251 
L 440.53725 162.568826 
L 440.602909 162.568826 
L 440.799885 162.804401 
L 440.996861 162.568826 
L 441.193837 162.765139 
L 441.325155 162.686614 
L 441.58779 163.000714 
L 441.653448 163.039976 
L 441.850425 162.882926 
L 442.113059 163.236289 
L 442.375694 163.432601 
L 442.638329 163.903751 
L 442.835305 163.943014 
L 443.229258 164.453427 
L 443.754528 166.887703 
L 444.14848 171.599205 
L 444.411115 178.941291 
L 444.608091 190.091853 
L 444.805067 213.924185 
L 445.002044 252.283628 
L 445.067702 250.16346 
L 445.658631 203.990773 
L 445.921266 189.856266 
L 446.118242 165.59204 
L 446.446536 128.88158 
L 446.70917 119.576358 
L 446.774829 119.026676 
L 446.840488 119.144463 
L 446.906147 119.340784 
L 447.103123 121.971367 
L 447.694051 133.278983 
L 448.547615 146.706767 
L 449.072885 152.007207 
L 449.663813 155.423047 
L 449.926448 156.247561 
L 450.648694 158.956674 
L 450.84567 159.231512 
L 451.042646 159.584875 
L 451.239623 159.9775 
L 451.502258 160.644963 
L 451.764892 160.9198 
L 452.94675 162.215463 
L 453.209384 162.136938 
L 453.472019 162.372514 
L 453.603337 162.293988 
L 453.800313 162.568826 
L 453.997289 162.529564 
L 454.062948 162.608089 
L 454.128607 162.529564 
L 454.259924 162.647351 
L 454.325583 162.529564 
L 454.522559 162.490301 
L 454.653877 162.882926 
L 454.719535 162.725876 
L 454.785194 162.843664 
L 454.916511 162.725876 
L 455.047829 163.079239 
L 455.113488 162.922189 
L 455.310464 163.000714 
L 455.376123 162.882926 
L 455.638757 163.471864 
L 455.835734 163.668177 
L 455.901392 163.668177 
L 455.967051 163.785964 
L 456.03271 163.746702 
L 456.098369 163.785964 
L 456.295345 164.139327 
L 456.361003 164.100064 
L 456.623638 164.885315 
L 457.017591 167.437378 
L 457.345884 171.481418 
L 457.542861 176.428494 
L 457.805495 190.131107 
L 458.002472 214.356067 
L 458.199448 252.715523 
L 458.265107 250.006406 
L 458.790376 205.757581 
L 458.987353 197.826563 
L 459.249987 175.44693 
L 459.64394 128.449685 
L 459.906575 119.380038 
L 460.037892 118.908889 
L 460.16921 119.890453 
L 460.628821 127.900016 
L 461.810678 147.41349 
L 462.664241 154.559272 
L 464.043075 159.349299 
L 464.108733 159.231512 
L 464.30571 159.702662 
L 464.830979 160.723487 
L 465.027956 160.841276 
L 465.093614 161.037588 
L 465.159273 160.998326 
L 466.078495 162.136938 
L 466.144154 162.019151 
L 466.406789 162.136938 
L 466.472448 162.019151 
L 466.603765 162.254726 
L 466.669424 162.136938 
L 466.735082 162.215463 
L 466.997717 162.372514 
L 467.326011 162.451039 
L 467.457328 162.215463 
L 467.785622 162.608089 
L 467.851281 162.293988 
L 467.982598 162.725876 
L 468.048257 162.647351 
L 468.245233 162.647351 
L 468.442209 163.079239 
L 468.507868 163.000714 
L 468.573527 162.686614 
L 468.639186 162.882926 
L 469.033138 163.550389 
L 469.098797 163.471864 
L 469.295773 163.668177 
L 469.492749 163.746702 
L 469.821043 164.689002 
L 470.411971 169.400504 
L 470.608947 172.737817 
L 470.871582 181.885982 
L 471.068558 196.609425 
L 471.265535 229.000977 
L 471.396852 252.519203 
L 471.52817 243.174739 
L 471.987781 205.67906 
L 472.184757 197.74803 
L 472.447392 174.857993 
L 472.841344 127.978537 
L 473.103979 119.18373 
L 473.235296 118.634048 
L 473.366614 119.851186 
L 473.760566 126.604345 
L 474.679788 143.09462 
L 475.1394 148.591374 
L 475.599011 152.556883 
L 475.992963 154.716322 
L 476.321257 155.540835 
L 476.518233 156.797235 
L 476.846527 158.171424 
L 476.912185 158.328474 
L 476.977844 158.132161 
L 477.043503 158.642574 
L 477.109161 158.56405 
L 477.17482 158.642574 
L 477.306138 159.388562 
L 477.371796 159.074462 
L 477.568773 159.584875 
L 477.897066 160.44865 
L 478.094042 160.6057 
L 478.159701 160.487913 
L 478.356677 160.959063 
L 478.422336 160.880537 
L 478.619312 161.273163 
L 478.881947 161.665788 
L 478.947606 161.626526 
L 479.144582 161.901363 
L 479.275899 161.665788 
L 479.472876 162.058413 
L 479.801169 162.097676 
L 479.998145 162.254726 
L 480.26078 162.097676 
L 480.457757 162.293988 
L 480.720391 162.136938 
L 480.851709 162.293988 
L 480.917368 162.215463 
L 480.983026 162.215463 
L 481.114344 162.608089 
L 481.31132 162.608089 
L 481.508296 162.608089 
L 481.705272 162.922189 
L 481.770931 162.765139 
L 481.83659 162.882926 
L 481.967907 163.236289 
L 482.033566 163.039976 
L 482.164883 163.511127 
L 482.230542 163.157764 
L 482.296201 163.550389 
L 482.36186 163.354076 
L 482.558836 163.432601 
L 482.821471 164.02154 
L 483.018447 164.767527 
L 483.281082 166.259503 
L 483.806352 172.659293 
L 484.068987 182.043035 
L 484.265963 197.002053 
L 484.462939 230.021807 
L 484.594256 252.83331 
L 484.725574 242.899898 
L 485.185185 205.443486 
L 485.382161 197.355414 
L 485.644796 174.229794 
L 486.038748 127.703696 
L 486.235725 120.047506 
L 486.432701 118.712581 
L 486.629677 120.636442 
L 487.220606 131.55143 
L 488.139828 146.392672 
L 489.124709 154.637797 
L 489.190367 154.716322 
L 489.978272 157.975111 
L 490.569201 159.310037 
L 490.634859 159.231512 
L 490.963153 160.056025 
L 491.225788 160.44865 
L 492.604621 161.940626 
L 492.67028 161.822838 
L 492.735939 161.862101 
L 492.867256 161.940626 
L 493.064232 162.136938 
L 493.129891 162.058413 
L 493.19555 162.176201 
L 493.261208 162.136938 
L 493.458185 162.058413 
L 493.655161 162.215463 
L 493.983454 162.215463 
L 494.180431 162.529564 
L 494.311748 162.490301 
L 494.377407 162.568826 
L 494.574383 162.372514 
L 494.837018 162.686614 
L 494.902677 162.529564 
L 495.099653 163.000714 
L 495.23097 163.197026 
L 495.296629 163.157764 
L 495.427946 163.432601 
L 495.493605 163.275551 
L 495.624923 163.589652 
L 495.690581 163.354076 
L 495.75624 163.511127 
L 496.28151 165.003102 
L 496.478486 166.22024 
L 496.872439 170.26428 
L 497.135073 176.624802 
L 497.397708 191.151937 
L 497.594685 216.594035 
L 497.791661 252.676256 
L 497.922978 242.350229 
L 498.382589 205.522006 
L 498.579565 197.355414 
L 498.8422 173.366018 
L 499.236153 127.31108 
L 499.433129 119.929719 
L 499.630105 118.712581 
L 499.827081 120.714963 
L 500.680645 136.734089 
L 501.140256 143.99765 
L 501.862502 151.771633 
L 501.993819 152.556883 
L 502.256454 154.362959 
L 502.45343 154.99116 
L 503.044359 157.700273 
L 504.291875 160.487913 
L 504.620168 160.723487 
L 504.817145 161.037588 
L 505.342414 161.822838 
L 505.736367 161.901363 
L 505.999002 162.058413 
L 506.06466 162.058413 
L 506.130319 162.176201 
L 506.195978 162.097676 
L 506.327295 162.097676 
L 506.458613 162.215463 
L 506.524272 162.058413 
L 506.58993 162.176201 
L 506.655589 162.176201 
L 506.721248 162.293988 
L 506.786906 162.176201 
L 506.852565 162.215463 
L 507.049541 162.293988 
L 507.246518 162.451039 
L 507.377835 162.372514 
L 507.443494 162.568826 
L 507.509152 162.490301 
L 507.706129 162.411776 
L 507.771787 162.372514 
L 508.100081 162.765139 
L 508.362716 163.236289 
L 508.494033 163.628914 
L 508.559692 163.550389 
L 508.887986 163.432601 
L 509.281938 164.217851 
L 509.872867 167.947791 
L 510.069843 170.342804 
L 510.332478 176.860376 
L 510.595113 191.544565 
L 510.792089 217.143705 
L 510.989065 252.794043 
L 511.186041 235.204454 
L 511.514335 207.013985 
L 511.711311 200.260839 
L 511.908287 188.089459 
L 512.105263 161.979888 
L 512.433557 126.918452 
L 512.696192 119.105209 
L 512.827509 118.791102 
L 513.024486 120.872017 
L 514.731612 148.709161 
L 515.256882 153.145821 
L 515.650835 155.069684 
L 516.373081 158.092899 
L 516.832692 159.113724 
L 517.489279 160.409387 
L 517.686255 160.566437 
L 518.080208 161.155376 
L 518.342843 161.508738 
L 518.539819 161.665788 
L 518.802454 161.862101 
L 518.99943 161.901363 
L 519.130747 162.097676 
L 519.196406 162.058413 
L 519.262065 162.058413 
L 519.459041 162.254726 
L 519.721676 162.215463 
L 520.115628 162.215463 
L 520.246946 162.490301 
L 520.378263 162.451039 
L 520.706557 162.686614 
L 521.03485 162.608089 
L 521.231827 162.804401 
L 521.297485 162.686614 
L 521.56012 163.314814 
L 521.625779 163.314814 
L 521.822755 163.628914 
L 522.151049 163.471864 
L 522.413684 164.296377 
L 522.873295 166.37729 
L 523.332906 171.638468 
L 523.595541 179.844334 
L 523.792517 192.094234 
L 523.989493 218.243055 
L 524.186469 252.754777 
L 524.383445 234.77256 
L 524.711739 206.974719 
L 524.843057 203.244784 
L 525.105691 187.853884 
L 525.302668 161.587263 
L 525.630961 126.839919 
L 525.827937 119.772666 
L 526.024914 118.791102 
L 526.156231 119.929719 
L 526.484525 125.308686 
L 527.469406 143.133874 
L 528.125993 150.790069 
L 528.78258 154.873372 
L 529.373509 157.268386 
L 529.570485 158.053636 
L 530.621025 160.330863 
L 530.818001 160.566437 
L 531.474588 161.508738 
L 531.671564 161.744313 
L 531.802882 161.744313 
L 532.131175 161.979888 
L 532.656445 162.254726 
L 532.722104 162.136938 
L 532.787763 162.215463 
L 532.853421 162.293988 
L 532.91908 162.215463 
L 533.181715 162.176201 
L 533.44435 162.529564 
L 533.96962 162.765139 
L 534.166596 162.490301 
L 534.429231 163.118501 
L 534.49489 163.039976 
L 534.560548 163.118501 
L 534.691866 163.314814 
L 534.757524 163.236289 
L 534.954501 163.511127 
L 535.020159 163.393339 
L 535.085818 163.471864 
L 535.217136 163.471864 
L 535.348453 163.668177 
L 535.742405 164.767527 
L 536.267675 168.065578 
L 536.53031 171.874042 
L 536.792945 180.001387 
L 536.989921 192.486862 
L 537.186897 219.106832 
L 537.383874 252.63699 
L 537.646508 227.548265 
L 537.974802 205.443486 
L 538.171778 196.727212 
L 538.434413 171.481418 
L 538.762707 131.158802 
L 539.025342 119.811932 
L 539.156659 118.830368 
L 539.222318 118.869623 
L 539.287977 119.144463 
L 539.681929 125.583527 
L 540.601151 142.466417 
L 541.454715 151.967945 
L 541.783008 154.088122 
L 542.242619 156.011985 
L 542.964865 158.799624 
L 543.030524 158.799624 
L 543.096183 158.917412 
L 543.293159 159.388562 
L 543.75277 160.2916 
L 543.949746 160.487913 
L 544.671992 161.626526 
L 544.80331 161.626526 
L 545.000286 161.822838 
L 546.050826 162.372514 
L 546.247802 162.136938 
L 546.444778 162.490301 
L 546.510437 162.411776 
L 546.576095 162.608089 
L 546.641754 162.568826 
L 546.707413 162.568826 
L 546.773072 162.804401 
L 546.83873 162.725876 
L 547.101365 162.725876 
L 547.298341 162.529564 
L 547.495318 162.882926 
L 547.692294 163.236289 
L 547.823611 163.118501 
L 548.020587 163.550389 
L 548.151905 163.628914 
L 548.41454 163.785964 
L 548.480199 163.746702 
L 548.874151 164.571214 
L 549.268103 166.612866 
L 549.596397 169.753867 
L 549.793373 173.562331 
L 549.990349 180.119174 
L 550.187326 192.800957 
L 550.384302 219.735034 
L 550.581278 252.715523 
L 550.843913 227.312691 
L 551.172206 205.404219 
L 551.434841 192.133501 
L 551.631818 171.167318 
L 551.960111 131.001748 
L 552.222746 119.694145 
L 552.419722 118.751836 
L 552.682357 122.089155 
L 553.338944 134.928003 
L 554.06119 146.117831 
L 554.652119 152.085733 
L 555.046071 154.598535 
L 555.374365 155.815673 
L 555.965294 158.210687 
L 556.556222 159.663399 
L 556.884516 160.173812 
L 557.278468 160.723487 
L 557.475444 160.959063 
L 557.738079 161.469476 
L 557.803738 161.430213 
L 557.935055 161.665788 
L 558.066373 161.705051 
L 558.263349 161.822838 
L 558.329008 161.822838 
L 558.657301 162.215463 
L 558.854278 162.372514 
L 558.919936 162.333251 
L 558.985595 162.451039 
L 559.182571 162.254726 
L 559.313889 162.293988 
L 559.707841 162.647351 
L 559.839159 162.686614 
L 559.970476 162.725876 
L 560.101793 162.843664 
L 560.167452 162.686614 
L 560.233111 162.922189 
L 560.29877 162.725876 
L 560.364428 162.843664 
L 560.495746 162.804401 
L 560.561405 162.804401 
L 560.889698 163.197026 
L 561.414968 163.707439 
L 561.677603 163.589652 
L 562.531166 167.00549 
L 562.728143 168.890092 
L 562.990777 173.719381 
L 563.253412 183.809843 
L 563.450389 200.103785 
L 563.647365 236.931995 
L 563.778682 252.519203 
L 564.172635 214.473854 
L 564.369611 205.522006 
L 564.632246 192.015713 
L 564.829222 170.42133 
L 565.157515 130.491345 
L 565.42015 119.497825 
L 565.551468 118.791102 
L 565.617127 118.830368 
L 565.748444 120.00824 
L 566.273714 129.902398 
L 567.455571 148.669895 
L 568.177817 154.402222 
L 568.309134 154.951897 
L 569.753626 159.741925 
L 570.344555 160.6057 
L 570.672849 161.116113 
L 570.935484 161.548001 
L 571.526412 161.940626 
L 571.592071 162.176201 
L 571.65773 162.136938 
L 572.314317 162.490301 
L 572.379976 162.333251 
L 572.445634 162.568826 
L 572.511293 162.411776 
L 572.64261 162.490301 
L 572.708269 162.529564 
L 572.773928 162.922189 
L 572.839587 162.686614 
L 573.036563 162.922189 
L 573.233539 162.804401 
L 573.364856 163.039976 
L 573.430515 162.961451 
L 573.69315 162.882926 
L 574.546714 163.785964 
L 574.74369 163.864489 
L 575.137642 164.728265 
L 575.662912 167.00549 
L 575.925547 169.125666 
L 576.188182 173.915694 
L 576.450817 184.163204 
L 576.647793 200.731987 
L 576.976086 252.558469 
L 577.041745 247.258035 
L 577.501356 206.935464 
L 577.632674 202.852156 
L 577.895309 186.715267 
L 578.617555 119.851186 
L 578.748872 118.791102 
L 578.88019 119.537091 
L 579.142824 123.541867 
L 580.784293 150.161873 
L 581.44088 154.873372 
L 582.425761 158.681837 
L 582.557078 158.87815 
L 582.754055 159.467087 
L 582.951031 159.898975 
L 583.607618 160.802013 
L 583.935912 161.312425 
L 584.132888 161.626526 
L 584.198547 161.548001 
L 584.52684 161.979888 
L 584.658158 161.979888 
L 584.855134 162.215463 
L 585.05211 162.529564 
L 585.183427 162.411776 
L 585.314745 162.529564 
L 585.774356 162.568826 
L 585.905673 162.725876 
L 586.036991 162.765139 
L 586.233967 162.882926 
L 586.299626 163.118501 
L 586.365285 163.039976 
L 586.430943 163.000714 
L 586.496602 163.157764 
L 586.562261 163.000714 
L 586.693578 163.197026 
L 586.956213 162.961451 
L 587.021872 163.079239 
L 587.284507 163.628914 
L 587.415824 163.668177 
L 587.547142 163.785964 
L 587.6128 163.668177 
L 587.809777 163.943014 
L 587.941094 163.864489 
L 588.203729 164.296377 
L 588.860316 166.84844 
L 589.18861 170.26428 
L 589.451245 176.035866 
L 589.71388 188.756927 
L 589.910856 210.115717 
L 590.173491 252.754777 
L 590.961396 195.784915 
L 591.158372 179.216131 
L 591.552324 130.098718 
L 591.814959 119.890453 
L 591.946276 119.105209 
L 592.011935 119.18373 
L 592.208911 121.460952 
L 592.865499 134.260547 
L 593.390768 143.016087 
L 593.981697 150.475968 
L 594.83526 155.894198 
L 595.229213 157.582486 
L 595.426189 158.132161 
L 595.8858 159.506349 
L 595.951459 159.506349 
L 596.608046 160.684226 
L 596.673705 160.6057 
L 596.805022 160.802013 
L 597.198975 161.508738 
L 597.789903 161.940626 
L 598.052538 162.411776 
L 598.315173 162.608089 
L 598.643467 162.647351 
L 598.709125 162.725876 
L 598.774784 162.647351 
L 598.840443 162.647351 
L 599.037419 162.922189 
L 599.103078 162.725876 
L 599.168736 163.157764 
L 599.234395 163.118501 
L 599.300054 163.118501 
L 599.365713 163.000714 
L 599.431371 163.236289 
L 599.49703 163.197026 
L 599.759665 163.118501 
L 599.890982 163.079239 
L 600.087959 163.236289 
L 600.284935 163.471864 
L 600.350594 163.668177 
L 600.416252 163.628914 
L 600.481911 163.589652 
L 600.613228 163.825227 
L 600.678887 163.825227 
L 601.007181 164.217851 
L 601.138498 164.139327 
L 602.057721 167.123278 
L 602.254697 168.890092 
L 602.517332 172.973393 
L 602.779967 181.336312 
L 602.976943 194.567777 
L 603.173919 223.700543 
L 603.305236 252.990351 
L 603.370895 252.676256 
L 604.093141 199.357796 
L 604.355776 178.587929 
L 604.749728 129.823877 
L 605.012363 119.811932 
L 605.143681 119.026676 
L 605.209339 119.18373 
L 605.668951 126.565091 
L 606.785149 146.078565 
L 607.376077 152.20352 
L 608.360958 157.425436 
L 609.411498 160.252337 
L 609.674133 160.527175 
L 610.068085 161.155376 
L 610.462038 161.705051 
L 610.527696 161.665788 
L 610.724673 162.058413 
L 610.790331 161.705051 
L 610.85599 162.176201 
L 610.921649 162.058413 
L 610.987307 162.019151 
L 611.184284 162.372514 
L 611.446919 162.725876 
L 611.512577 162.647351 
L 611.775212 162.686614 
L 611.90653 162.725876 
L 611.972188 162.647351 
L 612.169165 162.882926 
L 612.563117 163.275551 
L 612.825752 163.197026 
L 613.022728 163.393339 
L 613.088387 163.197026 
L 613.154046 163.275551 
L 613.285363 163.236289 
L 613.547998 163.668177 
L 613.679315 163.707439 
L 613.876292 163.903751 
L 614.138926 164.257114 
L 614.204585 164.257114 
L 614.270244 164.414164 
L 614.335903 164.257114 
L 614.401561 164.33564 
L 614.598538 164.689002 
L 615.058149 165.984665 
L 615.320784 167.790741 
L 615.649077 171.756255 
L 615.911712 178.941291 
L 616.108688 189.542171 
L 616.305664 211.843271 
L 616.502641 252.990351 
L 616.568299 252.479936 
L 617.224887 202.498795 
L 617.487522 186.204864 
L 618.144109 120.636442 
L 618.341085 118.908889 
L 618.538061 120.557922 
L 618.997672 129.274207 
L 619.785577 143.447981 
L 620.573482 152.282046 
L 621.295728 156.326085 
L 621.492704 156.915023 
L 621.886656 158.446261 
L 622.21495 159.584875 
L 622.477585 160.016762 
L 622.74022 160.409387 
L 622.805879 160.370125 
L 623.593783 161.587263 
L 624.053394 161.940626 
L 624.381688 162.372514 
L 624.447347 162.372514 
L 624.644323 162.568826 
L 624.77564 162.608089 
L 624.841299 162.529564 
L 624.906958 162.608089 
L 625.169593 162.686614 
L 625.760521 163.314814 
L 625.891839 163.039976 
L 625.957497 163.275551 
L 626.023156 163.079239 
L 626.088815 163.354076 
L 626.154474 163.236289 
L 626.285791 163.432601 
L 626.35145 163.197026 
L 626.482767 163.589652 
L 626.548426 163.511127 
L 626.745402 163.864489 
L 626.811061 163.825227 
L 626.87672 163.707439 
L 626.942378 163.785964 
L 627.073696 164.02154 
L 627.270672 164.100064 
L 627.730283 164.453427 
L 627.861601 164.728265 
L 627.927259 164.689002 
L 628.452529 167.162541 
L 628.91214 173.169705 
L 629.174775 181.807461 
L 629.371751 195.35302 
L 629.568727 225.506617 
L 629.700045 253.225926 
L 629.765704 252.283628 
L 630.422291 202.341741 
L 630.684926 185.655183 
L 631.275854 122.59957 
L 631.472831 119.105209 
L 631.538489 118.948156 
L 631.604148 119.105209 
L 631.866783 122.638836 
L 632.917323 142.505672 
L 633.57391 150.436702 
L 633.902204 153.263608 
L 634.427473 156.169035 
L 634.690108 156.954286 
L 635.281037 159.310037 
L 635.674989 159.9775 
L 636.331576 160.9198 
L 636.594211 161.273163 
L 637.841727 162.647351 
L 638.038703 162.529564 
L 638.301338 162.608089 
L 638.366997 162.529564 
L 638.563973 162.843664 
L 638.760949 162.922189 
L 638.826608 163.197026 
L 638.892267 163.000714 
L 639.286219 163.118501 
L 639.351878 163.118501 
L 639.548854 163.354076 
L 639.680172 163.275551 
L 639.877148 163.511127 
L 640.2711 163.864489 
L 640.862029 164.453427 
L 640.927687 164.453427 
L 641.255981 165.199415 
L 641.715592 167.672954 
L 642.043886 171.756255 
L 642.240862 176.624802 
L 642.437838 185.341088 
L 642.634814 202.969943 
L 642.897449 253.4615 
L 643.028767 245.962376 
L 643.488378 206.896198 
L 643.685354 198.965168 
L 643.947989 177.253004 
L 644.341941 129.077887 
L 644.604576 119.380038 
L 644.735894 118.712581 
L 644.93287 120.557922 
L 645.392481 129.352728 
L 646.508679 147.60981 
L 646.96829 152.20352 
L 647.690536 156.247561 
L 647.953171 157.229123 
L 648.01883 157.307649 
L 648.215806 158.210687 
L 648.412782 158.956674 
L 648.741076 159.663399 
L 648.872393 159.820449 
L 649.06937 160.173812 
L 649.200687 160.213075 
L 649.397663 160.684226 
L 651.039131 162.529564 
L 651.10479 162.372514 
L 651.170449 162.451039 
L 651.367425 162.451039 
L 651.433084 162.451039 
L 651.498743 162.686614 
L 651.564401 162.647351 
L 651.63006 162.568826 
L 651.892695 163.118501 
L 651.958354 163.000714 
L 652.024012 162.843664 
L 652.089671 162.922189 
L 652.286647 162.882926 
L 652.483623 163.236289 
L 652.6806 163.157764 
L 652.746258 163.157764 
L 652.943235 163.668177 
L 653.074552 163.628914 
L 653.337187 163.668177 
L 653.534163 163.825227 
L 653.599822 163.746702 
L 653.928116 164.257114 
L 653.993774 164.17859 
L 654.059433 164.257114 
L 654.650362 165.74909 
L 655.044314 168.968616 
L 655.306949 173.130443 
L 655.569584 181.964502 
L 655.76656 196.059743 
L 655.963536 227.194904 
L 656.094854 253.65782 
L 656.160512 251.773213 
L 656.751441 204.776017 
L 657.014076 190.405948 
L 657.211052 166.298766 
L 657.539346 128.488952 
L 657.80198 119.065943 
L 657.933298 118.712581 
L 657.998957 118.908889 
L 658.195933 121.539485 
L 659.706084 147.649064 
L 660.42833 154.088122 
L 660.822282 155.93346 
L 661.216234 157.307649 
L 661.544528 158.681837 
L 662.004139 159.741925 
L 662.266774 160.056025 
L 662.398091 160.252337 
L 663.054679 161.2339 
L 663.317314 161.469476 
L 663.645607 161.940626 
L 663.711266 161.940626 
L 663.973901 162.411776 
L 664.03956 162.333251 
L 664.105218 162.411776 
L 664.564829 162.451039 
L 664.630488 162.568826 
L 664.696147 162.529564 
L 664.827464 162.647351 
L 665.024441 162.961451 
L 665.090099 162.961451 
L 665.155758 163.079239 
L 665.352734 162.882926 
L 665.54971 162.882926 
L 665.681028 162.961451 
L 666.009321 163.275551 
L 666.07498 163.157764 
L 666.337615 163.550389 
L 666.403274 163.314814 
L 666.468933 163.550389 
L 666.534591 163.471864 
L 666.665909 163.628914 
L 666.862885 163.825227 
L 667.12552 164.139327 
L 667.256837 164.296377 
L 667.847766 165.788352 
L 668.241718 168.968616 
L 668.504353 173.326755 
L 668.766988 182.160822 
L 668.963964 196.570158 
L 669.16094 228.961711 
L 669.292258 254.128968 
L 669.423575 245.0986 
L 669.883186 206.660624 
L 670.080163 198.533286 
L 670.342797 176.075132 
L 670.73675 128.13559 
L 670.999385 118.948156 
L 671.130702 118.555528 
L 671.26202 119.694145 
L 671.590313 125.308686 
L 672.575194 143.369448 
L 673.166123 150.358181 
L 673.888369 155.540835 
L 674.216662 156.522398 
L 675.004567 159.349299 
L 676.120766 161.155376 
L 676.252083 161.2339 
L 676.580377 161.548001 
L 677.039988 162.254726 
L 677.105646 162.176201 
L 677.302623 162.411776 
L 677.565258 162.333251 
L 677.696575 162.372514 
L 678.024869 162.686614 
L 678.156186 162.608089 
L 678.221845 162.882926 
L 678.287504 162.804401 
L 678.48448 162.843664 
L 678.550138 162.922189 
L 678.615797 162.686614 
L 678.681456 162.922189 
L 678.747115 162.804401 
L 679.00975 163.118501 
L 679.075408 163.000714 
L 679.206726 163.157764 
L 679.272384 163.039976 
L 679.403702 163.354076 
L 679.469361 163.236289 
L 679.535019 163.354076 
L 679.600678 163.236289 
L 679.863313 163.707439 
L 679.928972 163.628914 
L 680.060289 163.707439 
L 680.322924 164.060801 
L 680.651218 164.610477 
L 680.913853 165.199415 
L 681.110829 166.298766 
L 681.242146 167.201803 
L 681.57044 170.735429 
L 681.833075 176.938909 
L 682.09571 190.955617 
L 682.292686 215.848046 
L 682.489662 254.011181 
L 682.555321 251.06649 
L 683.080591 206.660624 
L 683.277567 198.494019 
L 683.540202 175.839558 
L 683.934154 127.625175 
L 684.196789 118.751836 
L 684.262448 118.319953 
L 684.328106 118.437741 
L 684.459424 119.458571 
L 684.919035 127.821483 
L 685.903916 145.254055 
L 686.494845 151.339745 
L 686.954456 154.755585 
L 687.151432 155.501573 
L 688.333289 159.349299 
L 689.383829 161.07685 
L 689.515146 161.155376 
L 689.974757 161.862101 
L 690.106075 161.940626 
L 690.368709 162.215463 
L 690.631344 162.254726 
L 690.762662 162.372514 
L 690.828321 162.254726 
L 690.893979 162.333251 
L 691.222273 162.647351 
L 691.287932 162.529564 
L 691.484908 162.765139 
L 691.87886 162.686614 
L 691.944519 162.608089 
L 692.141495 163.000714 
L 692.207154 163.000714 
L 692.40413 163.236289 
L 692.601106 163.118501 
L 692.666765 163.275551 
L 692.732424 163.236289 
L 692.863741 163.236289 
L 692.9294 163.393339 
L 692.995059 163.236289 
L 693.126376 163.707439 
L 693.192035 163.668177 
L 693.323352 163.864489 
L 693.389011 163.707439 
L 693.717305 164.217851 
L 693.979939 164.64974 
L 694.176916 165.395728 
L 694.636527 168.890092 
L 694.899162 173.130443 
L 695.161797 182.396397 
L 695.358773 197.512455 
L 695.555749 230.924838 
L 695.687066 253.893394 
L 695.818384 244.038515 
L 696.277995 206.50357 
L 696.54063 194.135882 
L 696.737606 175.093569 
L 697.131558 127.232547 
L 697.328535 119.497825 
L 697.459852 118.280687 
L 697.525511 118.35922 
L 697.722487 120.283081 
L 698.379074 132.886355 
L 698.904344 142.309364 
L 699.62659 150.829332 
L 700.15186 154.834109 
L 701.465034 159.231512 
L 701.530693 159.231512 
L 701.793328 159.702662 
L 702.318598 160.802013 
L 702.449915 160.76275 
L 702.975185 161.508738 
L 703.040844 161.508738 
L 703.434796 162.019151 
L 703.500455 162.019151 
L 703.697431 162.176201 
L 703.828749 162.176201 
L 704.025725 162.293988 
L 704.157042 162.333251 
L 704.222701 162.451039 
L 704.28836 162.411776 
L 704.485336 162.568826 
L 704.485336 162.568826 
" clip-path="url(#p26ef5533ed)" style="fill: none; stroke: #d94452; stroke-width: 0.8; stroke-linecap: square"/>
   </g>
   <g id="text_14">
    <g id="patch_7">
     <path d="M 153.443365 296.055237 
L 270.843365 296.055237 
Q 273.843365 296.055237 273.843365 293.055237 
L 273.843365 282.455237 
Q 273.843365 279.455237 270.843365 279.455237 
L 153.443365 279.455237 
Q 150.443365 279.455237 150.443365 282.455237 
L 150.443365 293.055237 
Q 150.443365 296.055237 153.443365 296.055237 
z
" style="fill: #ffffff; opacity: 0.85; stroke: #333333; stroke-linejoin: miter"/>
    </g>
    <!-- I$_{p-p}$ = 3.52E-03 mA/m² -->
    <g style="fill: #333333" transform="translate(153.443365 289.955237) scale(0.1 -0.1)">
     <defs>
      <path id="DejaVuSans-49" d="M 628 4666 
L 1259 4666 
L 1259 0 
L 628 0 
L 628 4666 
z
" transform="scale(0.015625)"/>
      <path id="DejaVuSans-Oblique-70" d="M 3175 2156 
Q 3175 2616 2975 2859 
Q 2775 3103 2400 3103 
Q 2144 3103 1911 2972 
Q 1678 2841 1497 2591 
Q 1319 2344 1212 1994 
Q 1106 1644 1106 1300 
Q 1106 863 1306 627 
Q 1506 391 1875 391 
Q 2147 391 2380 519 
Q 2613 647 2778 891 
Q 2956 1147 3065 1494 
Q 3175 1841 3175 2156 
z
M 1394 2969 
Q 1625 3272 1939 3428 
Q 2253 3584 2638 3584 
Q 3175 3584 3472 3232 
Q 3769 2881 3769 2247 
Q 3769 1728 3584 1258 
Q 3400 788 3053 416 
Q 2822 169 2531 39 
Q 2241 -91 1919 -91 
Q 1547 -91 1294 64 
Q 1041 219 916 525 
L 556 -1331 
L -19 -1331 
L 922 3500 
L 1497 3500 
L 1394 2969 
z
" transform="scale(0.015625)"/>
      <path id="DejaVuSans-20" transform="scale(0.015625)"/>
      <path id="DejaVuSans-3d" d="M 678 2906 
L 4684 2906 
L 4684 2381 
L 678 2381 
L 678 2906 
z
M 678 1631 
L 4684 1631 
L 4684 1100 
L 678 1100 
L 678 1631 
z
" transform="scale(0.015625)"/>
      <path id="DejaVuSans-2e" d="M 684 794 
L 1344 794 
L 1344 0 
L 684 0 
L 684 794 
z
" transform="scale(0.015625)"/>
      <path id="DejaVuSans-35" d="M 691 4666 
L 3169 4666 
L 3169 4134 
L 1269 4134 
L 1269 2991 
Q 1406 3038 1543 3061 
Q 1681 3084 1819 3084 
Q 2600 3084 3056 2656 
Q 3513 2228 3513 1497 
Q 3513 744 3044 326 
Q 2575 -91 1722 -91 
Q 1428 -91 1123 -41 
Q 819 9 494 109 
L 494 744 
Q 775 591 1075 516 
Q 1375 441 1709 441 
Q 2250 441 2565 725 
Q 2881 1009 2881 1497 
Q 2881 1984 2565 2268 
Q 2250 2553 1709 2553 
Q 1456 2553 1204 2497 
Q 953 2441 691 2322 
L 691 4666 
z
" transform="scale(0.015625)"/>
      <path id="DejaVuSans-45" d="M 628 4666 
L 3578 4666 
L 3578 4134 
L 1259 4134 
L 1259 2753 
L 3481 2753 
L 3481 2222 
L 1259 2222 
L 1259 531 
L 3634 531 
L 3634 0 
L 628 0 
L 628 4666 
z
" transform="scale(0.015625)"/>
      <path id="DejaVuSans-2d" d="M 313 2009 
L 1997 2009 
L 1997 1497 
L 313 1497 
L 313 2009 
z
" transform="scale(0.015625)"/>
      <path id="DejaVuSans-6d" d="M 3328 2828 
Q 3544 3216 3844 3400 
Q 4144 3584 4550 3584 
Q 5097 3584 5394 3201 
Q 5691 2819 5691 2113 
L 5691 0 
L 5113 0 
L 5113 2094 
Q 5113 2597 4934 2840 
Q 4756 3084 4391 3084 
Q 3944 3084 3684 2787 
Q 3425 2491 3425 1978 
L 3425 0 
L 2847 0 
L 2847 2094 
Q 2847 2600 2669 2842 
Q 2491 3084 2119 3084 
Q 1678 3084 1418 2786 
Q 1159 2488 1159 1978 
L 1159 0 
L 581 0 
L 581 3500 
L 1159 3500 
L 1159 2956 
Q 1356 3278 1631 3431 
Q 1906 3584 2284 3584 
Q 2666 3584 2933 3390 
Q 3200 3197 3328 2828 
z
" transform="scale(0.015625)"/>
      <path id="DejaVuSans-41" d="M 2188 4044 
L 1331 1722 
L 3047 1722 
L 2188 4044 
z
M 1831 4666 
L 2547 4666 
L 4325 0 
L 3669 0 
L 3244 1197 
L 1141 1197 
L 716 0 
L 50 0 
L 1831 4666 
z
" transform="scale(0.015625)"/>
      <path id="DejaVuSans-2f" d="M 1625 4666 
L 2156 4666 
L 531 -594 
L 0 -594 
L 1625 4666 
z
" transform="scale(0.015625)"/>
      <path id="DejaVuSans-b2" d="M 838 2444 
L 2163 2444 
L 2163 2088 
L 294 2088 
L 294 2431 
Q 400 2528 597 2703 
Q 1672 3656 1672 3950 
Q 1672 4156 1509 4282 
Q 1347 4409 1081 4409 
Q 919 4409 728 4354 
Q 538 4300 313 4191 
L 313 4575 
Q 553 4663 761 4706 
Q 969 4750 1147 4750 
Q 1600 4750 1872 4544 
Q 2144 4338 2144 4000 
Q 2144 3566 1109 2678 
Q 934 2528 838 2444 
z
" transform="scale(0.015625)"/>
     </defs>
     <use xlink:href="#DejaVuSans-49" transform="translate(0 0.78125)"/>
     <use xlink:href="#DejaVuSans-Oblique-70" transform="translate(30.449219 -15.625) scale(0.7)"/>
     <use xlink:href="#DejaVuSans-2212" transform="translate(88.520508 -15.625) scale(0.7)"/>
     <use xlink:href="#DejaVuSans-Oblique-70" transform="translate(160.810547 -15.625) scale(0.7)"/>
     <use xlink:href="#DejaVuSans-20" transform="translate(207.978516 0.78125)"/>
     <use xlink:href="#DejaVuSans-3d" transform="translate(239.765625 0.78125)"/>
     <use xlink:href="#DejaVuSans-20" transform="translate(323.554688 0.78125)"/>
     <use xlink:href="#DejaVuSans-33" transform="translate(355.341797 0.78125)"/>
     <use xlink:href="#DejaVuSans-2e" transform="translate(418.964844 0.78125)"/>
     <use xlink:href="#DejaVuSans-35" transform="translate(450.751953 0.78125)"/>
     <use xlink:href="#DejaVuSans-32" transform="translate(514.375 0.78125)"/>
     <use xlink:href="#DejaVuSans-45" transform="translate(577.998047 0.78125)"/>
     <use xlink:href="#DejaVuSans-2d" transform="translate(641.181641 0.78125)"/>
     <use xlink:href="#DejaVuSans-30" transform="translate(677.265625 0.78125)"/>
     <use xlink:href="#DejaVuSans-33" transform="translate(740.888672 0.78125)"/>
     <use xlink:href="#DejaVuSans-20" transform="translate(804.511719 0.78125)"/>
     <use xlink:href="#DejaVuSans-6d" transform="translate(836.298828 0.78125)"/>
     <use xlink:href="#DejaVuSans-41" transform="translate(933.710938 0.78125)"/>
     <use xlink:href="#DejaVuSans-2f" transform="translate(1002.119141 0.78125)"/>
     <use xlink:href="#DejaVuSans-6d" transform="translate(1035.810547 0.78125)"/>
     <use xlink:href="#DejaVuSans-b2" transform="translate(1133.222656 0.78125)"/>
    </g>
   </g>
   <g id="text_15">
    <g id="patch_8">
     <path d="M 481.821346 296.055237 
L 598.921346 296.055237 
Q 601.921346 296.055237 601.921346 293.055237 
L 601.921346 282.455237 
Q 601.921346 279.455237 598.921346 279.455237 
L 481.821346 279.455237 
Q 478.821346 279.455237 478.821346 282.455237 
L 478.821346 293.055237 
Q 478.821346 296.055237 481.821346 296.055237 
z
" style="fill: #ffffff; opacity: 0.85; stroke: #d94452; stroke-linejoin: miter"/>
    </g>
    <!-- I$_{p-p}$ = 2.87E-03 mA/m² -->
    <g style="fill: #d94452" transform="translate(481.821346 289.955237) scale(0.1 -0.1)">
     <defs>
      <path id="DejaVuSans-37" d="M 525 4666 
L 3525 4666 
L 3525 4397 
L 1831 0 
L 1172 0 
L 2766 4134 
L 525 4134 
L 525 4666 
z
" transform="scale(0.015625)"/>
     </defs>
     <use xlink:href="#DejaVuSans-49" transform="translate(0 0.78125)"/>
     <use xlink:href="#DejaVuSans-Oblique-70" transform="translate(30.449219 -15.625) scale(0.7)"/>
     <use xlink:href="#DejaVuSans-2212" transform="translate(88.520508 -15.625) scale(0.7)"/>
     <use xlink:href="#DejaVuSans-Oblique-70" transform="translate(160.810547 -15.625) scale(0.7)"/>
     <use xlink:href="#DejaVuSans-20" transform="translate(207.978516 0.78125)"/>
     <use xlink:href="#DejaVuSans-3d" transform="translate(239.765625 0.78125)"/>
     <use xlink:href="#DejaVuSans-20" transform="translate(323.554688 0.78125)"/>
     <use xlink:href="#DejaVuSans-32" transform="translate(355.341797 0.78125)"/>
     <use xlink:href="#DejaVuSans-2e" transform="translate(418.964844 0.78125)"/>
     <use xlink:href="#DejaVuSans-38" transform="translate(448.126953 0.78125)"/>
     <use xlink:href="#DejaVuSans-37" transform="translate(511.75 0.78125)"/>
     <use xlink:href="#DejaVuSans-45" transform="translate(575.373047 0.78125)"/>
     <use xlink:href="#DejaVuSans-2d" transform="translate(638.556641 0.78125)"/>
     <use xlink:href="#DejaVuSans-30" transform="translate(674.640625 0.78125)"/>
     <use xlink:href="#DejaVuSans-33" transform="translate(738.263672 0.78125)"/>
     <use xlink:href="#DejaVuSans-20" transform="translate(801.886719 0.78125)"/>
     <use xlink:href="#DejaVuSans-6d" transform="translate(833.673828 0.78125)"/>
     <use xlink:href="#DejaVuSans-41" transform="translate(931.085938 0.78125)"/>
     <use xlink:href="#DejaVuSans-2f" transform="translate(999.494141 0.78125)"/>
     <use xlink:href="#DejaVuSans-6d" transform="translate(1033.185547 0.78125)"/>
     <use xlink:href="#DejaVuSans-b2" transform="translate(1130.597656 0.78125)"/>
    </g>
   </g>
   <g id="text_16">
    <g id="patch_9">
     <path d="M 627.175251 50.0672 
L 684.791657 50.0672 
Q 689.991657 50.0672 689.991657 44.8672 
L 689.991657 32.285638 
Q 689.991657 27.085638 684.791657 27.085638 
L 627.175251 27.085638 
Q 621.975251 27.085638 621.975251 32.285638 
L 621.975251 44.8672 
Q 621.975251 50.0672 627.175251 50.0672 
z
" style="fill: #ffffff; opacity: 0.9; stroke: #f0ad4e; stroke-width: 1.5; stroke-linejoin: miter"/>
    </g>
    <!-- f = 5 Hz -->
    <g style="fill: #f0ad4e" transform="translate(627.175251 42.163606) scale(0.13 -0.13)">
     <defs>
      <path id="DejaVuSans-Bold-66" d="M 2841 4863 
L 2841 4128 
L 2222 4128 
Q 1984 4128 1890 4042 
Q 1797 3956 1797 3744 
L 1797 3500 
L 2753 3500 
L 2753 2700 
L 1797 2700 
L 1797 0 
L 678 0 
L 678 2700 
L 122 2700 
L 122 3500 
L 678 3500 
L 678 3744 
Q 678 4316 997 4589 
Q 1316 4863 1984 4863 
L 2841 4863 
z
" transform="scale(0.015625)"/>
      <path id="DejaVuSans-Bold-3d" d="M 678 3084 
L 4684 3084 
L 4684 2350 
L 678 2350 
L 678 3084 
z
M 678 1663 
L 4684 1663 
L 4684 922 
L 678 922 
L 678 1663 
z
" transform="scale(0.015625)"/>
      <path id="DejaVuSans-Bold-35" d="M 678 4666 
L 3669 4666 
L 3669 3781 
L 1638 3781 
L 1638 3059 
Q 1775 3097 1914 3117 
Q 2053 3138 2203 3138 
Q 3056 3138 3531 2711 
Q 4006 2284 4006 1522 
Q 4006 766 3489 337 
Q 2972 -91 2053 -91 
Q 1656 -91 1267 -14 
Q 878 63 494 219 
L 494 1166 
Q 875 947 1217 837 
Q 1559 728 1863 728 
Q 2300 728 2551 942 
Q 2803 1156 2803 1522 
Q 2803 1891 2551 2103 
Q 2300 2316 1863 2316 
Q 1603 2316 1309 2248 
Q 1016 2181 678 2041 
L 678 4666 
z
" transform="scale(0.015625)"/>
      <path id="DejaVuSans-Bold-48" d="M 588 4666 
L 1791 4666 
L 1791 2888 
L 3566 2888 
L 3566 4666 
L 4769 4666 
L 4769 0 
L 3566 0 
L 3566 1978 
L 1791 1978 
L 1791 0 
L 588 0 
L 588 4666 
z
" transform="scale(0.015625)"/>
      <path id="DejaVuSans-Bold-7a" d="M 366 3500 
L 3419 3500 
L 3419 2719 
L 1575 800 
L 3419 800 
L 3419 0 
L 288 0 
L 288 781 
L 2131 2700 
L 366 2700 
L 366 3500 
z
" transform="scale(0.015625)"/>
     </defs>
     <use xlink:href="#DejaVuSans-Bold-66"/>
     <use xlink:href="#DejaVuSans-Bold-20" transform="translate(43.505859 0)"/>
     <use xlink:href="#DejaVuSans-Bold-3d" transform="translate(78.320312 0)"/>
     <use xlink:href="#DejaVuSans-Bold-20" transform="translate(162.109375 0)"/>
     <use xlink:href="#DejaVuSans-Bold-35" transform="translate(196.923828 0)"/>
     <use xlink:href="#DejaVuSans-Bold-20" transform="translate(266.503906 0)"/>
     <use xlink:href="#DejaVuSans-Bold-48" transform="translate(301.318359 0)"/>
     <use xlink:href="#DejaVuSans-Bold-7a" transform="translate(385.009766 0)"/>
    </g>
   </g>
   <g id="text_17">
    <!-- Without MIC -->
    <g style="fill: #333333" transform="translate(163.411334 42.92345) scale(0.14 -0.14)">
     <defs>
      <path id="DejaVuSans-Bold-57" d="M 191 4666 
L 1344 4666 
L 2150 1275 
L 2950 4666 
L 4109 4666 
L 4909 1275 
L 5716 4666 
L 6859 4666 
L 5759 0 
L 4372 0 
L 3525 3547 
L 2688 0 
L 1300 0 
L 191 4666 
z
" transform="scale(0.015625)"/>
      <path id="DejaVuSans-Bold-74" d="M 1759 4494 
L 1759 3500 
L 2913 3500 
L 2913 2700 
L 1759 2700 
L 1759 1216 
Q 1759 972 1856 886 
Q 1953 800 2241 800 
L 2816 800 
L 2816 0 
L 1856 0 
Q 1194 0 917 276 
Q 641 553 641 1216 
L 641 2700 
L 84 2700 
L 84 3500 
L 641 3500 
L 641 4494 
L 1759 4494 
z
" transform="scale(0.015625)"/>
      <path id="DejaVuSans-Bold-68" d="M 4056 2131 
L 4056 0 
L 2931 0 
L 2931 347 
L 2931 1625 
Q 2931 2084 2911 2256 
Q 2891 2428 2841 2509 
Q 2775 2619 2662 2680 
Q 2550 2741 2406 2741 
Q 2056 2741 1856 2470 
Q 1656 2200 1656 1722 
L 1656 0 
L 538 0 
L 538 4863 
L 1656 4863 
L 1656 2988 
Q 1909 3294 2193 3439 
Q 2478 3584 2822 3584 
Q 3428 3584 3742 3212 
Q 4056 2841 4056 2131 
z
" transform="scale(0.015625)"/>
      <path id="DejaVuSans-Bold-6f" d="M 2203 2784 
Q 1831 2784 1636 2517 
Q 1441 2250 1441 1747 
Q 1441 1244 1636 976 
Q 1831 709 2203 709 
Q 2569 709 2762 976 
Q 2956 1244 2956 1747 
Q 2956 2250 2762 2517 
Q 2569 2784 2203 2784 
z
M 2203 3584 
Q 3106 3584 3614 3096 
Q 4122 2609 4122 1747 
Q 4122 884 3614 396 
Q 3106 -91 2203 -91 
Q 1297 -91 786 396 
Q 275 884 275 1747 
Q 275 2609 786 3096 
Q 1297 3584 2203 3584 
z
" transform="scale(0.015625)"/>
      <path id="DejaVuSans-Bold-75" d="M 500 1363 
L 500 3500 
L 1625 3500 
L 1625 3150 
Q 1625 2866 1622 2436 
Q 1619 2006 1619 1863 
Q 1619 1441 1641 1255 
Q 1663 1069 1716 984 
Q 1784 875 1895 815 
Q 2006 756 2150 756 
Q 2500 756 2700 1025 
Q 2900 1294 2900 1772 
L 2900 3500 
L 4019 3500 
L 4019 0 
L 2900 0 
L 2900 506 
Q 2647 200 2364 54 
Q 2081 -91 1741 -91 
Q 1134 -91 817 281 
Q 500 653 500 1363 
z
" transform="scale(0.015625)"/>
      <path id="DejaVuSans-Bold-4d" d="M 588 4666 
L 2119 4666 
L 3181 2169 
L 4250 4666 
L 5778 4666 
L 5778 0 
L 4641 0 
L 4641 3413 
L 3566 897 
L 2803 897 
L 1728 3413 
L 1728 0 
L 588 0 
L 588 4666 
z
" transform="scale(0.015625)"/>
      <path id="DejaVuSans-Bold-43" d="M 4288 256 
Q 3956 84 3597 -3 
Q 3238 -91 2847 -91 
Q 1681 -91 1000 561 
Q 319 1213 319 2328 
Q 319 3447 1000 4098 
Q 1681 4750 2847 4750 
Q 3238 4750 3597 4662 
Q 3956 4575 4288 4403 
L 4288 3438 
Q 3953 3666 3628 3772 
Q 3303 3878 2944 3878 
Q 2300 3878 1931 3465 
Q 1563 3053 1563 2328 
Q 1563 1606 1931 1193 
Q 2300 781 2944 781 
Q 3303 781 3628 887 
Q 3953 994 4288 1222 
L 4288 256 
z
" transform="scale(0.015625)"/>
     </defs>
     <use xlink:href="#DejaVuSans-Bold-57"/>
     <use xlink:href="#DejaVuSans-Bold-69" transform="translate(110.302734 0)"/>
     <use xlink:href="#DejaVuSans-Bold-74" transform="translate(144.580078 0)"/>
     <use xlink:href="#DejaVuSans-Bold-68" transform="translate(192.382812 0)"/>
     <use xlink:href="#DejaVuSans-Bold-6f" transform="translate(263.574219 0)"/>
     <use xlink:href="#DejaVuSans-Bold-75" transform="translate(332.275391 0)"/>
     <use xlink:href="#DejaVuSans-Bold-74" transform="translate(403.466797 0)"/>
     <use xlink:href="#DejaVuSans-Bold-20" transform="translate(451.269531 0)"/>
     <use xlink:href="#DejaVuSans-Bold-4d" transform="translate(486.083984 0)"/>
     <use xlink:href="#DejaVuSans-Bold-49" transform="translate(585.595703 0)"/>
     <use xlink:href="#DejaVuSans-Bold-43" transform="translate(622.802734 0)"/>
    </g>
   </g>
   <g id="text_18">
    <!-- With MIC -->
    <g style="fill: #d94452" transform="translate(504.777439 42.92345) scale(0.14 -0.14)">
     <use xlink:href="#DejaVuSans-Bold-57"/>
     <use xlink:href="#DejaVuSans-Bold-69" transform="translate(110.302734 0)"/>
     <use xlink:href="#DejaVuSans-Bold-74" transform="translate(144.580078 0)"/>
     <use xlink:href="#DejaVuSans-Bold-68" transform="translate(192.382812 0)"/>
     <use xlink:href="#DejaVuSans-Bold-20" transform="translate(263.574219 0)"/>
     <use xlink:href="#DejaVuSans-Bold-4d" transform="translate(298.388672 0)"/>
     <use xlink:href="#DejaVuSans-Bold-49" transform="translate(397.900391 0)"/>
     <use xlink:href="#DejaVuSans-Bold-43" transform="translate(435.107422 0)"/>
    </g>
   </g>
  </g>
 </g>
 <defs>
  <clipPath id="p26ef5533ed">
   <rect x="48.029375" y="17.798437" width="656.455961" height="289.744"/>
  </clipPath>
 </defs>
</svg>
