<?xml version="1.0" encoding="utf-8" standalone="no"?>
<!DOCTYPE svg PUBLIC "-//W3C//DTD SVG 1.1//EN"
  "http://www.w3.org/Graphics/SVG/1.1/DTD/svg11.dtd">
<svg xmlns:xlink="http://www.w3.org/1999/xlink" width="424.513336pt" height="351.86975pt" viewBox="0 0 424.513336 351.86975" xmlns="http://www.w3.org/2000/svg" version="1.1">
 <metadata>
  <rdf:RDF xmlns:dc="http://purl.org/dc/elements/1.1/" xmlns:cc="http://creativecommons.org/ns#" xmlns:rdf="http://www.w3.org/1999/02/22-rdf-syntax-ns#">
   <cc:Work>
    <dc:type rdf:resource="http://purl.org/dc/dcmitype/StillImage"/>
    <dc:date>2026-04-26T16:38:52.398664</dc:date>
    <dc:format>image/svg+xml</dc:format>
    <dc:creator>
     <cc:Agent>
      <dc:title>Matplotlib v3.10.8, https://matplotlib.org/</dc:title>
     </cc:Agent>
    </dc:creator>
   </cc:Work>
  </rdf:RDF>
 </metadata>
 <defs>
  <style type="text/css">*{stroke-linejoin: round; stroke-linecap: butt}</style>
 </defs>
 <g id="figure_1">
  <g id="patch_1">
   <path d="M 0 351.86975 
L 424.513336 351.86975 
L 424.513336 0 
L 0 0 
z
" style="fill: #ffffff"/>
  </g>
  <g id="axes_1">
   <g id="patch_2">
    <path d="M 48.029375 309.474437 
L 417.313336 309.474437 
L 417.313336 17.798437 
L 48.029375 17.798437 
z
" style="fill: #ffffff"/>
   </g>
   <g id="patch_3">
    <path d="M 48.029375 309.474437 
L 232.671355 309.474437 
L 232.671355 17.798437 
L 48.029375 17.798437 
z
" clip-path="url(#p1801d3075e)" style="fill: #cccccc; opacity: 0.12; stroke: #cccccc; stroke-linejoin: miter"/>
   </g>
   <g id="patch_4">
    <path d="M 232.671355 309.474437 
L 417.313336 309.474437 
L 417.313336 17.798437 
L 232.671355 17.798437 
z
" clip-path="url(#p1801d3075e)" style="fill: #d94452; opacity: 0.06; stroke: #d94452; stroke-linejoin: miter"/>
   </g>
   <g id="line2d_1">
    <path d="M 232.671355 309.474437 
L 232.671355 17.798437 
" clip-path="url(#p1801d3075e)" style="fill: none; stroke-dasharray: 3.7,1.6; stroke-dashoffset: 0; stroke: #999999"/>
   </g>
   <g id="matplotlib.axis_1">
    <g id="xtick_1">
     <g id="line2d_2">
      <defs>
       <path id="m5245edad5f" d="M 0 0 
L 0 3.5 
" style="stroke: #000000; stroke-width: 0.8"/>
      </defs>
      <g>
       <use xlink:href="#m5245edad5f" x="48.029375" y="309.474437" style="stroke: #000000; stroke-width: 0.8"/>
      </g>
     </g>
     <g id="text_1">
      <!-- 0.0 -->
      <g transform="translate(39.282656 324.832719) scale(0.11 -0.11)">
       <defs>
        <path id="DejaVuSans-30" d="M 2034 4250 
Q 1547 4250 1301 3770 
Q 1056 3291 1056 2328 
Q 1056 1369 1301 889 
Q 1547 409 2034 409 
Q 2525 409 2770 889 
Q 3016 1369 3016 2328 
Q 3016 3291 2770 3770 
Q 2525 4250 2034 4250 
z
M 2034 4750 
Q 2819 4750 3233 4129 
Q 3647 3509 3647 2328 
Q 3647 1150 3233 529 
Q 2819 -91 2034 -91 
Q 1250 -91 836 529 
Q 422 1150 422 2328 
Q 422 3509 836 4129 
Q 1250 4750 2034 4750 
z
" transform="scale(0.015625)"/>
        <path id="DejaVuSans-2e" d="M 684 794 
L 1344 794 
L 1344 0 
L 684 0 
L 684 794 
z
" transform="scale(0.015625)"/>
       </defs>
       <use xlink:href="#DejaVuSans-30"/>
       <use xlink:href="#DejaVuSans-2e" transform="translate(63.623047 0)"/>
       <use xlink:href="#DejaVuSans-30" transform="translate(95.410156 0)"/>
      </g>
     </g>
    </g>
    <g id="xtick_2">
     <g id="line2d_3">
      <g>
       <use xlink:href="#m5245edad5f" x="94.212962" y="309.474437" style="stroke: #000000; stroke-width: 0.8"/>
      </g>
     </g>
     <g id="text_2">
      <!-- 0.5 -->
      <g transform="translate(85.466243 324.832719) scale(0.11 -0.11)">
       <defs>
        <path id="DejaVuSans-35" d="M 691 4666 
L 3169 4666 
L 3169 4134 
L 1269 4134 
L 1269 2991 
Q 1406 3038 1543 3061 
Q 1681 3084 1819 3084 
Q 2600 3084 3056 2656 
Q 3513 2228 3513 1497 
Q 3513 744 3044 326 
Q 2575 -91 1722 -91 
Q 1428 -91 1123 -41 
Q 819 9 494 109 
L 494 744 
Q 775 591 1075 516 
Q 1375 441 1709 441 
Q 2250 441 2565 725 
Q 2881 1009 2881 1497 
Q 2881 1984 2565 2268 
Q 2250 2553 1709 2553 
Q 1456 2553 1204 2497 
Q 953 2441 691 2322 
L 691 4666 
z
" transform="scale(0.015625)"/>
       </defs>
       <use xlink:href="#DejaVuSans-30"/>
       <use xlink:href="#DejaVuSans-2e" transform="translate(63.623047 0)"/>
       <use xlink:href="#DejaVuSans-35" transform="translate(95.410156 0)"/>
      </g>
     </g>
    </g>
    <g id="xtick_3">
     <g id="line2d_4">
      <g>
       <use xlink:href="#m5245edad5f" x="140.396549" y="309.474437" style="stroke: #000000; stroke-width: 0.8"/>
      </g>
     </g>
     <g id="text_3">
      <!-- 1.0 -->
      <g transform="translate(131.64983 324.832719) scale(0.11 -0.11)">
       <defs>
        <path id="DejaVuSans-31" d="M 794 531 
L 1825 531 
L 1825 4091 
L 703 3866 
L 703 4441 
L 1819 4666 
L 2450 4666 
L 2450 531 
L 3481 531 
L 3481 0 
L 794 0 
L 794 531 
z
" transform="scale(0.015625)"/>
       </defs>
       <use xlink:href="#DejaVuSans-31"/>
       <use xlink:href="#DejaVuSans-2e" transform="translate(63.623047 0)"/>
       <use xlink:href="#DejaVuSans-30" transform="translate(95.410156 0)"/>
      </g>
     </g>
    </g>
    <g id="xtick_4">
     <g id="line2d_5">
      <g>
       <use xlink:href="#m5245edad5f" x="186.580136" y="309.474437" style="stroke: #000000; stroke-width: 0.8"/>
      </g>
     </g>
     <g id="text_4">
      <!-- 1.5 -->
      <g transform="translate(177.833417 324.832719) scale(0.11 -0.11)">
       <use xlink:href="#DejaVuSans-31"/>
       <use xlink:href="#DejaVuSans-2e" transform="translate(63.623047 0)"/>
       <use xlink:href="#DejaVuSans-35" transform="translate(95.410156 0)"/>
      </g>
     </g>
    </g>
    <g id="xtick_5">
     <g id="line2d_6">
      <g>
       <use xlink:href="#m5245edad5f" x="232.763723" y="309.474437" style="stroke: #000000; stroke-width: 0.8"/>
      </g>
     </g>
     <g id="text_5">
      <!-- 2.0 -->
      <g transform="translate(224.017004 324.832719) scale(0.11 -0.11)">
       <defs>
        <path id="DejaVuSans-32" d="M 1228 531 
L 3431 531 
L 3431 0 
L 469 0 
L 469 531 
Q 828 903 1448 1529 
Q 2069 2156 2228 2338 
Q 2531 2678 2651 2914 
Q 2772 3150 2772 3378 
Q 2772 3750 2511 3984 
Q 2250 4219 1831 4219 
Q 1534 4219 1204 4116 
Q 875 4013 500 3803 
L 500 4441 
Q 881 4594 1212 4672 
Q 1544 4750 1819 4750 
Q 2544 4750 2975 4387 
Q 3406 4025 3406 3419 
Q 3406 3131 3298 2873 
Q 3191 2616 2906 2266 
Q 2828 2175 2409 1742 
Q 1991 1309 1228 531 
z
" transform="scale(0.015625)"/>
       </defs>
       <use xlink:href="#DejaVuSans-32"/>
       <use xlink:href="#DejaVuSans-2e" transform="translate(63.623047 0)"/>
       <use xlink:href="#DejaVuSans-30" transform="translate(95.410156 0)"/>
      </g>
     </g>
    </g>
    <g id="xtick_6">
     <g id="line2d_7">
      <g>
       <use xlink:href="#m5245edad5f" x="278.94731" y="309.474437" style="stroke: #000000; stroke-width: 0.8"/>
      </g>
     </g>
     <g id="text_6">
      <!-- 2.5 -->
      <g transform="translate(270.200591 324.832719) scale(0.11 -0.11)">
       <use xlink:href="#DejaVuSans-32"/>
       <use xlink:href="#DejaVuSans-2e" transform="translate(63.623047 0)"/>
       <use xlink:href="#DejaVuSans-35" transform="translate(95.410156 0)"/>
      </g>
     </g>
    </g>
    <g id="xtick_7">
     <g id="line2d_8">
      <g>
       <use xlink:href="#m5245edad5f" x="325.130896" y="309.474437" style="stroke: #000000; stroke-width: 0.8"/>
      </g>
     </g>
     <g id="text_7">
      <!-- 3.0 -->
      <g transform="translate(316.384178 324.832719) scale(0.11 -0.11)">
       <defs>
        <path id="DejaVuSans-33" d="M 2597 2516 
Q 3050 2419 3304 2112 
Q 3559 1806 3559 1356 
Q 3559 666 3084 287 
Q 2609 -91 1734 -91 
Q 1441 -91 1130 -33 
Q 819 25 488 141 
L 488 750 
Q 750 597 1062 519 
Q 1375 441 1716 441 
Q 2309 441 2620 675 
Q 2931 909 2931 1356 
Q 2931 1769 2642 2001 
Q 2353 2234 1838 2234 
L 1294 2234 
L 1294 2753 
L 1863 2753 
Q 2328 2753 2575 2939 
Q 2822 3125 2822 3475 
Q 2822 3834 2567 4026 
Q 2313 4219 1838 4219 
Q 1578 4219 1281 4162 
Q 984 4106 628 3988 
L 628 4550 
Q 988 4650 1302 4700 
Q 1616 4750 1894 4750 
Q 2613 4750 3031 4423 
Q 3450 4097 3450 3541 
Q 3450 3153 3228 2886 
Q 3006 2619 2597 2516 
z
" transform="scale(0.015625)"/>
       </defs>
       <use xlink:href="#DejaVuSans-33"/>
       <use xlink:href="#DejaVuSans-2e" transform="translate(63.623047 0)"/>
       <use xlink:href="#DejaVuSans-30" transform="translate(95.410156 0)"/>
      </g>
     </g>
    </g>
    <g id="xtick_8">
     <g id="line2d_9">
      <g>
       <use xlink:href="#m5245edad5f" x="371.314483" y="309.474437" style="stroke: #000000; stroke-width: 0.8"/>
      </g>
     </g>
     <g id="text_8">
      <!-- 3.5 -->
      <g transform="translate(362.567765 324.832719) scale(0.11 -0.11)">
       <use xlink:href="#DejaVuSans-33"/>
       <use xlink:href="#DejaVuSans-2e" transform="translate(63.623047 0)"/>
       <use xlink:href="#DejaVuSans-35" transform="translate(95.410156 0)"/>
      </g>
     </g>
    </g>
    <g id="text_9">
     <!-- Time (s) -->
     <g transform="translate(200.452762 341.758187) scale(0.14 -0.14)">
      <defs>
       <path id="DejaVuSans-Bold-54" d="M 31 4666 
L 4331 4666 
L 4331 3756 
L 2784 3756 
L 2784 0 
L 1581 0 
L 1581 3756 
L 31 3756 
L 31 4666 
z
" transform="scale(0.015625)"/>
       <path id="DejaVuSans-Bold-69" d="M 538 3500 
L 1656 3500 
L 1656 0 
L 538 0 
L 538 3500 
z
M 538 4863 
L 1656 4863 
L 1656 3950 
L 538 3950 
L 538 4863 
z
" transform="scale(0.015625)"/>
       <path id="DejaVuSans-Bold-6d" d="M 3781 2919 
Q 3994 3244 4286 3414 
Q 4578 3584 4928 3584 
Q 5531 3584 5847 3212 
Q 6163 2841 6163 2131 
L 6163 0 
L 5038 0 
L 5038 1825 
Q 5041 1866 5042 1909 
Q 5044 1953 5044 2034 
Q 5044 2406 4934 2573 
Q 4825 2741 4581 2741 
Q 4263 2741 4089 2478 
Q 3916 2216 3909 1719 
L 3909 0 
L 2784 0 
L 2784 1825 
Q 2784 2406 2684 2573 
Q 2584 2741 2328 2741 
Q 2006 2741 1831 2477 
Q 1656 2213 1656 1722 
L 1656 0 
L 531 0 
L 531 3500 
L 1656 3500 
L 1656 2988 
Q 1863 3284 2130 3434 
Q 2397 3584 2719 3584 
Q 3081 3584 3359 3409 
Q 3638 3234 3781 2919 
z
" transform="scale(0.015625)"/>
       <path id="DejaVuSans-Bold-65" d="M 4031 1759 
L 4031 1441 
L 1416 1441 
Q 1456 1047 1700 850 
Q 1944 653 2381 653 
Q 2734 653 3104 758 
Q 3475 863 3866 1075 
L 3866 213 
Q 3469 63 3072 -14 
Q 2675 -91 2278 -91 
Q 1328 -91 801 392 
Q 275 875 275 1747 
Q 275 2603 792 3093 
Q 1309 3584 2216 3584 
Q 3041 3584 3536 3087 
Q 4031 2591 4031 1759 
z
M 2881 2131 
Q 2881 2450 2695 2645 
Q 2509 2841 2209 2841 
Q 1884 2841 1681 2658 
Q 1478 2475 1428 2131 
L 2881 2131 
z
" transform="scale(0.015625)"/>
       <path id="DejaVuSans-Bold-20" transform="scale(0.015625)"/>
       <path id="DejaVuSans-Bold-28" d="M 2413 -844 
L 1484 -844 
Q 1006 -72 778 623 
Q 550 1319 550 2003 
Q 550 2688 779 3389 
Q 1009 4091 1484 4856 
L 2413 4856 
Q 2013 4116 1813 3408 
Q 1613 2700 1613 2009 
Q 1613 1319 1811 609 
Q 2009 -100 2413 -844 
z
" transform="scale(0.015625)"/>
       <path id="DejaVuSans-Bold-73" d="M 3272 3391 
L 3272 2541 
Q 2913 2691 2578 2766 
Q 2244 2841 1947 2841 
Q 1628 2841 1473 2761 
Q 1319 2681 1319 2516 
Q 1319 2381 1436 2309 
Q 1553 2238 1856 2203 
L 2053 2175 
Q 2913 2066 3209 1816 
Q 3506 1566 3506 1031 
Q 3506 472 3093 190 
Q 2681 -91 1863 -91 
Q 1516 -91 1145 -36 
Q 775 19 384 128 
L 384 978 
Q 719 816 1070 734 
Q 1422 653 1784 653 
Q 2113 653 2278 743 
Q 2444 834 2444 1013 
Q 2444 1163 2330 1236 
Q 2216 1309 1875 1350 
L 1678 1375 
Q 931 1469 631 1722 
Q 331 1975 331 2491 
Q 331 3047 712 3315 
Q 1094 3584 1881 3584 
Q 2191 3584 2531 3537 
Q 2872 3491 3272 3391 
z
" transform="scale(0.015625)"/>
       <path id="DejaVuSans-Bold-29" d="M 513 -844 
Q 913 -100 1113 609 
Q 1313 1319 1313 2009 
Q 1313 2700 1113 3408 
Q 913 4116 513 4856 
L 1441 4856 
Q 1916 4091 2145 3389 
Q 2375 2688 2375 2003 
Q 2375 1319 2147 623 
Q 1919 -72 1441 -844 
L 513 -844 
z
" transform="scale(0.015625)"/>
      </defs>
      <use xlink:href="#DejaVuSans-Bold-54"/>
      <use xlink:href="#DejaVuSans-Bold-69" transform="translate(68.212891 0)"/>
      <use xlink:href="#DejaVuSans-Bold-6d" transform="translate(102.490234 0)"/>
      <use xlink:href="#DejaVuSans-Bold-65" transform="translate(206.689453 0)"/>
      <use xlink:href="#DejaVuSans-Bold-20" transform="translate(274.511719 0)"/>
      <use xlink:href="#DejaVuSans-Bold-28" transform="translate(309.326172 0)"/>
      <use xlink:href="#DejaVuSans-Bold-73" transform="translate(355.029297 0)"/>
      <use xlink:href="#DejaVuSans-Bold-29" transform="translate(414.550781 0)"/>
     </g>
    </g>
   </g>
   <g id="matplotlib.axis_2">
    <g id="ytick_1">
     <g id="line2d_10">
      <defs>
       <path id="mf28f33f4ae" d="M 0 0 
L -3.5 0 
" style="stroke: #000000; stroke-width: 0.8"/>
      </defs>
      <g>
       <use xlink:href="#mf28f33f4ae" x="48.029375" y="265.693964" style="stroke: #000000; stroke-width: 0.8"/>
      </g>
     </g>
     <g id="text_10">
      <!-- $\mathdefault{−2}$ -->
      <g transform="translate(24.749375 269.873105) scale(0.11 -0.11)">
       <defs>
        <path id="DejaVuSans-2212" d="M 678 2272 
L 4684 2272 
L 4684 1741 
L 678 1741 
L 678 2272 
z
" transform="scale(0.015625)"/>
       </defs>
       <use xlink:href="#DejaVuSans-2212" transform="translate(0 0.78125)"/>
       <use xlink:href="#DejaVuSans-32" transform="translate(83.789062 0.78125)"/>
      </g>
     </g>
    </g>
    <g id="ytick_2">
     <g id="line2d_11">
      <g>
       <use xlink:href="#mf28f33f4ae" x="48.029375" y="214.665201" style="stroke: #000000; stroke-width: 0.8"/>
      </g>
     </g>
     <g id="text_11">
      <!-- $\mathdefault{−1}$ -->
      <g transform="translate(24.749375 218.844341) scale(0.11 -0.11)">
       <use xlink:href="#DejaVuSans-2212" transform="translate(0 0.09375)"/>
       <use xlink:href="#DejaVuSans-31" transform="translate(83.789062 0.09375)"/>
      </g>
     </g>
    </g>
    <g id="ytick_3">
     <g id="line2d_12">
      <g>
       <use xlink:href="#mf28f33f4ae" x="48.029375" y="163.636437" style="stroke: #000000; stroke-width: 0.8"/>
      </g>
     </g>
     <g id="text_12">
      <!-- $\mathdefault{0}$ -->
      <g transform="translate(33.989375 167.815578) scale(0.11 -0.11)">
       <use xlink:href="#DejaVuSans-30" transform="translate(0 0.78125)"/>
      </g>
     </g>
    </g>
    <g id="ytick_4">
     <g id="line2d_13">
      <g>
       <use xlink:href="#mf28f33f4ae" x="48.029375" y="112.607674" style="stroke: #000000; stroke-width: 0.8"/>
      </g>
     </g>
     <g id="text_13">
      <!-- $\mathdefault{1}$ -->
      <g transform="translate(33.989375 116.786815) scale(0.11 -0.11)">
       <use xlink:href="#DejaVuSans-31" transform="translate(0 0.09375)"/>
      </g>
     </g>
    </g>
    <g id="ytick_5">
     <g id="line2d_14">
      <g>
       <use xlink:href="#mf28f33f4ae" x="48.029375" y="61.578911" style="stroke: #000000; stroke-width: 0.8"/>
      </g>
     </g>
     <g id="text_14">
      <!-- $\mathdefault{2}$ -->
      <g transform="translate(33.989375 65.758052) scale(0.11 -0.11)">
       <use xlink:href="#DejaVuSans-32" transform="translate(0 0.78125)"/>
      </g>
     </g>
    </g>
    <g id="text_15">
     <!-- I$_{sc}$ (mA/m²) -->
     <g transform="translate(17.837812 206.266437) rotate(-90) scale(0.14 -0.14)">
      <defs>
       <path id="DejaVuSans-Bold-49" d="M 588 4666 
L 1791 4666 
L 1791 0 
L 588 0 
L 588 4666 
z
" transform="scale(0.015625)"/>
       <path id="DejaVuSans-Oblique-73" d="M 3200 3397 
L 3091 2853 
Q 2863 2978 2609 3040 
Q 2356 3103 2088 3103 
Q 1634 3103 1373 2948 
Q 1113 2794 1113 2528 
Q 1113 2219 1719 2053 
Q 1766 2041 1788 2034 
L 1972 1978 
Q 2547 1819 2739 1644 
Q 2931 1469 2931 1166 
Q 2931 609 2489 259 
Q 2047 -91 1331 -91 
Q 1053 -91 747 -37 
Q 441 16 72 128 
L 184 722 
Q 500 559 806 475 
Q 1113 391 1394 391 
Q 1816 391 2080 572 
Q 2344 753 2344 1031 
Q 2344 1331 1650 1516 
L 1591 1531 
L 1394 1581 
Q 956 1697 753 1886 
Q 550 2075 550 2369 
Q 550 2928 970 3256 
Q 1391 3584 2113 3584 
Q 2397 3584 2667 3537 
Q 2938 3491 3200 3397 
z
" transform="scale(0.015625)"/>
       <path id="DejaVuSans-Oblique-63" d="M 3431 3366 
L 3316 2797 
Q 3109 2947 2876 3022 
Q 2644 3097 2394 3097 
Q 2119 3097 1870 3000 
Q 1622 2903 1453 2725 
Q 1184 2453 1037 2087 
Q 891 1722 891 1331 
Q 891 859 1127 628 
Q 1363 397 1844 397 
Q 2081 397 2348 469 
Q 2616 541 2906 684 
L 2797 116 
Q 2547 13 2283 -39 
Q 2019 -91 1741 -91 
Q 1044 -91 669 257 
Q 294 606 294 1253 
Q 294 1797 489 2255 
Q 684 2713 1069 3078 
Q 1331 3328 1684 3456 
Q 2038 3584 2456 3584 
Q 2700 3584 2940 3529 
Q 3181 3475 3431 3366 
z
" transform="scale(0.015625)"/>
       <path id="DejaVuSans-Bold-41" d="M 3419 850 
L 1538 850 
L 1241 0 
L 31 0 
L 1759 4666 
L 3194 4666 
L 4922 0 
L 3713 0 
L 3419 850 
z
M 1838 1716 
L 3116 1716 
L 2478 3572 
L 1838 1716 
z
" transform="scale(0.015625)"/>
       <path id="DejaVuSans-Bold-2f" d="M 1644 4666 
L 2338 4666 
L 691 -594 
L 0 -594 
L 1644 4666 
z
" transform="scale(0.015625)"/>
       <path id="DejaVuSans-Bold-b2" d="M 1288 2613 
L 2444 2613 
L 2444 2088 
L 341 2088 
L 341 2566 
L 1319 3397 
Q 1509 3563 1590 3688 
Q 1672 3813 1672 3938 
Q 1672 4094 1558 4191 
Q 1444 4288 1259 4288 
Q 1066 4288 844 4217 
Q 622 4147 359 4000 
L 359 4581 
Q 631 4666 886 4708 
Q 1141 4750 1375 4750 
Q 1869 4750 2150 4548 
Q 2431 4347 2431 4000 
Q 2431 3775 2320 3586 
Q 2209 3397 1894 3128 
L 1288 2613 
z
" transform="scale(0.015625)"/>
      </defs>
      <use xlink:href="#DejaVuSans-Bold-49" transform="translate(0 0.125)"/>
      <use xlink:href="#DejaVuSans-Oblique-73" transform="translate(38.164062 -16.28125) scale(0.7)"/>
      <use xlink:href="#DejaVuSans-Oblique-63" transform="translate(74.633789 -16.28125) scale(0.7)"/>
      <use xlink:href="#DejaVuSans-Bold-20" transform="translate(115.854492 0.125)"/>
      <use xlink:href="#DejaVuSans-Bold-28" transform="translate(150.668945 0.125)"/>
      <use xlink:href="#DejaVuSans-Bold-6d" transform="translate(196.37207 0.125)"/>
      <use xlink:href="#DejaVuSans-Bold-41" transform="translate(300.571289 0.125)"/>
      <use xlink:href="#DejaVuSans-Bold-2f" transform="translate(377.963867 0.125)"/>
      <use xlink:href="#DejaVuSans-Bold-6d" transform="translate(414.487305 0.125)"/>
      <use xlink:href="#DejaVuSans-Bold-b2" transform="translate(518.686523 0.125)"/>
      <use xlink:href="#DejaVuSans-Bold-29" transform="translate(562.485352 0.125)"/>
     </g>
    </g>
    <g id="text_16">
     <!-- $\times\mathdefault{10^{−3}}\mathdefault{}$ -->
     <g transform="translate(48.029375 14.798437) scale(0.1 -0.1)">
      <defs>
       <path id="DejaVuSans-d7" d="M 4488 3438 
L 3059 2003 
L 4488 575 
L 4116 197 
L 2681 1631 
L 1247 197 
L 878 575 
L 2303 2003 
L 878 3438 
L 1247 3816 
L 2681 2381 
L 4116 3816 
L 4488 3438 
z
" transform="scale(0.015625)"/>
      </defs>
      <use xlink:href="#DejaVuSans-d7" transform="translate(0 0.765625)"/>
      <use xlink:href="#DejaVuSans-31" transform="translate(83.789062 0.765625)"/>
      <use xlink:href="#DejaVuSans-30" transform="translate(147.412109 0.765625)"/>
      <use xlink:href="#DejaVuSans-2212" transform="translate(211.992188 39.046875) scale(0.7)"/>
      <use xlink:href="#DejaVuSans-33" transform="translate(270.644531 39.046875) scale(0.7)"/>
     </g>
    </g>
   </g>
   <g id="patch_5">
    <path d="M 48.029375 309.474437 
L 48.029375 17.798437 
" style="fill: none; stroke: #000000; stroke-width: 0.8; stroke-linejoin: miter; stroke-linecap: square"/>
   </g>
   <g id="patch_6">
    <path d="M 48.029375 309.474437 
L 417.313336 309.474437 
" style="fill: none; stroke: #000000; stroke-width: 0.8; stroke-linejoin: miter; stroke-linecap: square"/>
   </g>
   <g id="line2d_15">
    <path d="M 48.029375 154.491009 
L 48.675945 157.408172 
L 48.86068 157.81904 
L 49.414883 159.257078 
L 51.077492 162.009893 
L 51.631695 162.585108 
L 51.908796 162.872716 
L 52.278265 163.20141 
L 52.647734 163.119237 
L 52.740101 163.242497 
L 52.924835 163.20141 
L 53.017202 163.242497 
L 53.10957 163.406844 
L 53.201937 163.324671 
L 53.571405 163.653365 
L 53.663773 163.940973 
L 53.848507 163.653365 
L 53.940874 163.776626 
L 54.125608 163.571192 
L 54.310343 163.899886 
L 54.495077 163.858799 
L 54.587444 163.899886 
L 54.679812 164.187494 
L 54.772179 164.064233 
L 56.250053 166.118573 
L 56.804257 167.844218 
L 57.35846 170.432687 
L 57.543194 171.624205 
L 57.912663 176.184838 
L 58.282131 183.785897 
L 58.559233 194.263021 
L 58.836334 212.094691 
L 59.113436 243.484983 
L 59.390537 273.601572 
L 59.482905 274.300041 
L 59.667639 263.617489 
L 61.053147 137.31672 
L 61.330248 115.129835 
L 61.60735 107.32334 
L 61.792084 106.296169 
L 61.884451 106.419429 
L 62.069185 107.775301 
L 62.346287 111.349854 
L 64.101263 139.371061 
L 64.747833 146.232555 
L 65.671505 152.107973 
L 66.964646 157.572519 
L 67.057013 157.695779 
L 67.334114 158.599688 
L 67.703583 159.626859 
L 67.79595 159.667946 
L 68.257786 160.448595 
L 68.44252 160.736202 
L 69.089091 161.92772 
L 69.181458 161.92772 
L 69.550927 162.256414 
L 70.659333 163.160324 
L 70.844067 163.119237 
L 71.028801 163.160324 
L 71.213536 163.07815 
L 71.675371 163.447931 
L 71.860106 163.406844 
L 72.04484 163.530105 
L 72.137207 163.817712 
L 72.229575 163.612278 
L 72.414309 163.653365 
L 72.599043 163.735539 
L 72.783778 163.694452 
L 72.968512 163.776626 
L 73.337981 164.516188 
L 73.430348 164.516188 
L 74.35402 165.954226 
L 74.538754 166.077486 
L 74.723488 166.858136 
L 74.908223 167.433351 
L 75.831894 173.103328 
L 76.29373 180.457865 
L 76.570832 188.675218 
L 76.847933 202.439296 
L 77.125035 226.433964 
L 77.586871 274.669821 
L 77.679238 272.73874 
L 78.048706 243.36171 
L 79.526581 112.212673 
L 79.803683 106.501598 
L 79.89605 105.926389 
L 79.988417 105.96748 
L 80.080784 106.255078 
L 80.265519 108.10399 
L 80.634987 113.322013 
L 81.743393 132.550646 
L 82.574698 142.822354 
L 83.128901 147.793856 
L 83.867838 151.984713 
L 85.160979 157.325997 
L 85.345713 157.81904 
L 85.992283 159.544685 
L 86.638854 160.77729 
L 87.193057 161.640112 
L 87.470158 162.133153 
L 87.562525 162.133153 
L 87.74726 162.338587 
L 88.486197 162.626195 
L 88.578564 162.95489 
L 88.763299 162.913803 
L 88.855666 162.872716 
L 89.0404 163.119237 
L 89.317502 162.95489 
L 89.594603 163.160324 
L 89.68697 163.119237 
L 89.964072 163.447931 
L 90.148806 163.324671 
L 90.425908 163.571192 
L 90.518275 163.447931 
L 90.795376 163.735539 
L 90.887744 163.694452 
L 90.980111 163.858799 
L 91.072478 163.735539 
L 91.626681 164.639448 
L 91.719048 164.392928 
L 91.99615 165.13249 
L 92.088517 165.173577 
L 92.365618 165.830965 
L 92.550353 165.625531 
L 92.827454 166.447268 
L 92.919821 166.488355 
L 93.381657 168.665955 
L 94.028228 173.555283 
L 94.397696 179.143084 
L 94.767165 190.565209 
L 95.136634 213.655979 
L 95.783204 274.587652 
L 95.967938 263.247709 
L 97.353446 135.96086 
L 97.630547 113.897235 
L 97.907649 106.378338 
L 98.092383 105.268998 
L 98.277118 106.419429 
L 98.554219 109.58311 
L 100.678664 142.082794 
L 101.602336 150.012549 
L 101.879437 151.080804 
L 102.895476 156.052307 
L 104.003882 159.215991 
L 104.09625 159.339252 
L 104.465718 160.366421 
L 104.650453 160.530768 
L 104.835187 160.77729 
L 105.019921 161.023809 
L 105.112288 160.900549 
L 105.38939 161.599025 
L 105.666491 162.009893 
L 105.758859 162.009893 
L 106.220695 162.461848 
L 106.405429 162.461848 
L 106.497796 162.585108 
L 106.590163 162.420761 
L 106.774898 162.708369 
L 106.867265 162.585108 
L 106.959632 162.790542 
L 107.051999 162.708369 
L 107.236733 163.242497 
L 107.329101 162.708369 
L 107.513835 162.995976 
L 107.606202 163.037063 
L 107.698569 163.20141 
L 107.790936 163.07815 
L 108.068038 163.242497 
L 108.252772 163.242497 
L 108.34514 163.119237 
L 108.714608 163.571192 
L 108.899343 163.653365 
L 108.99171 163.817712 
L 109.084077 163.735539 
L 110.007749 164.680535 
L 110.100116 164.927056 
L 110.192483 164.844882 
L 110.469585 165.543358 
L 110.561952 165.625531 
L 110.839053 166.077486 
L 111.023788 166.570528 
L 111.393256 167.844218 
L 112.039826 172.199419 
L 112.409295 176.924404 
L 112.778764 185.470459 
L 113.055865 197.508884 
L 113.332967 218.175533 
L 113.88717 275.696992 
L 113.979537 273.313962 
L 114.349006 242.375631 
L 114.995576 192.167601 
L 115.365045 151.039717 
L 115.734513 115.705056 
L 116.011615 106.378338 
L 116.196349 104.940309 
L 116.288716 105.063569 
L 116.565818 107.364431 
L 117.120021 116.115927 
L 118.13606 133.536739 
L 119.152099 145.041046 
L 119.706302 149.560587 
L 119.983403 150.957543 
L 120.352872 152.518842 
L 121.276544 156.91513 
L 121.830747 158.517515 
L 122.38495 159.709033 
L 123.03152 160.941637 
L 124.324661 162.544022 
L 124.417028 162.585108 
L 124.601762 162.749456 
L 124.786496 162.708369 
L 125.433067 162.790542 
L 125.802535 162.995976 
L 125.894903 162.995976 
L 126.079637 163.324671 
L 126.264371 163.07815 
L 126.356738 163.365758 
L 126.449106 163.20141 
L 126.541473 163.283584 
L 126.726207 163.20141 
L 126.910941 163.324671 
L 127.28041 163.817712 
L 127.465144 163.899886 
L 127.92698 164.351841 
L 128.019348 164.434014 
L 128.388816 165.13249 
L 129.035386 166.447268 
L 129.681957 168.624868 
L 130.051425 170.925728 
L 130.420894 175.034408 
L 130.697996 179.964825 
L 130.975097 187.648048 
L 131.252199 200.754734 
L 131.5293 223.886596 
L 131.991136 275.573732 
L 132.083503 275.286121 
L 132.268238 263.165527 
L 133.653745 134.646079 
L 133.930847 112.828973 
L 134.207948 105.515518 
L 134.392683 104.734867 
L 134.48505 104.981387 
L 134.762151 107.652029 
L 136.886596 141.178883 
L 138.087369 150.875369 
L 138.826307 154.285575 
L 139.103408 155.641438 
L 139.195776 155.7647 
L 139.565244 157.367084 
L 140.488916 159.544685 
L 141.874424 161.886633 
L 142.243892 162.133153 
L 142.890463 162.872716 
L 142.98283 162.831629 
L 143.075197 162.95489 
L 143.259931 162.913803 
L 143.537033 162.995976 
L 143.721767 162.995976 
L 143.998869 163.119237 
L 144.645439 163.489018 
L 144.737806 163.571192 
L 144.92254 163.447931 
L 145.107275 163.530105 
L 145.199642 163.571192 
L 145.384376 163.817712 
L 145.476743 163.776626 
L 145.846212 164.064233 
L 146.030946 164.516188 
L 146.123314 164.639448 
L 146.215681 164.557275 
L 147.046985 166.159661 
L 147.23172 166.529441 
L 147.785923 168.419434 
L 148.432493 173.103328 
L 148.894329 181.074165 
L 149.17143 189.784571 
L 149.448532 204.370377 
L 149.725633 230.296127 
L 150.187469 276.518721 
L 150.372204 267.068768 
L 151.757711 138.795852 
L 152.034813 114.924406 
L 152.311914 105.84422 
L 152.496649 104.447257 
L 152.589016 104.611607 
L 152.77375 106.008558 
L 153.050852 109.500941 
L 154.159258 129.222614 
L 154.805828 138.549332 
L 155.821867 148.245818 
L 156.37607 151.450585 
L 157.02264 154.819703 
L 157.576843 156.791869 
L 158.315781 159.051643 
L 158.592882 159.667946 
L 159.239452 160.654028 
L 159.608921 161.475765 
L 159.97839 161.886633 
L 160.255491 162.17424 
L 161.456264 163.119237 
L 161.640999 163.119237 
L 161.825733 162.995976 
L 162.010467 163.037063 
L 162.287569 163.242497 
L 162.472303 163.242497 
L 162.657038 163.447931 
L 162.841772 163.447931 
L 163.211241 163.653365 
L 163.395975 163.694452 
L 163.580709 163.858799 
L 163.765444 163.776626 
L 164.134912 164.434014 
L 164.412014 164.968143 
L 164.596748 165.379011 
L 164.966217 165.830965 
L 165.058584 165.872052 
L 165.705154 167.803132 
L 166.259357 170.638121 
L 166.628826 173.966152 
L 166.998295 180.211345 
L 167.367764 192.12651 
L 167.644865 208.602307 
L 167.921967 237.157621 
L 168.291435 276.600903 
L 168.383802 275.779161 
L 168.660904 255.071447 
L 170.323513 108.514861 
L 170.600615 104.447257 
L 170.692982 104.529438 
L 170.877716 105.515518 
L 171.339552 111.966153 
L 172.632692 134.31739 
L 173.648731 145.862775 
L 174.295302 150.341238 
L 175.496075 156.422088 
L 175.588442 156.504262 
L 175.865544 157.654693 
L 175.957911 157.613606 
L 176.327379 158.846209 
L 176.604481 159.462512 
L 177.989989 161.763372 
L 178.359457 162.215327 
L 178.636559 162.420761 
L 178.91366 162.544022 
L 179.190762 162.667282 
L 179.375496 162.872716 
L 179.560231 162.995976 
L 179.744965 163.119237 
L 179.837332 162.995976 
L 180.022066 163.119237 
L 180.114434 163.242497 
L 180.206801 163.160324 
L 180.299168 163.283584 
L 180.483902 163.160324 
L 181.038105 163.571192 
L 181.22284 163.653365 
L 181.499941 163.98206 
L 181.684676 163.899886 
L 181.961777 164.023146 
L 182.238879 164.475101 
L 182.331246 164.516188 
L 183.070183 165.954226 
L 183.624386 166.858136 
L 184.363324 170.227253 
L 184.917527 176.061578 
L 185.286995 183.991326 
L 185.564097 194.756061 
L 185.841198 212.998601 
L 186.1183 244.840843 
L 186.395401 276.025681 
L 186.487769 277.340463 
L 186.672503 266.822248 
L 188.058011 137.481071 
L 188.335112 113.897235 
L 188.612214 105.474427 
L 188.796948 104.406178 
L 188.889315 104.488347 
L 189.074049 106.008558 
L 189.443518 111.349854 
L 191.198494 139.617581 
L 192.122166 148.656676 
L 192.584002 151.204064 
L 193.230572 154.244488 
L 193.600041 156.175568 
L 194.154244 157.983387 
L 194.246611 158.06556 
L 194.893181 159.87338 
L 194.985549 159.914466 
L 195.355017 160.77729 
L 195.539752 160.818377 
L 195.816853 161.311418 
L 196.001587 161.434678 
L 196.740525 162.544022 
L 197.017626 162.626195 
L 197.109994 162.749456 
L 197.202361 162.626195 
L 197.479462 162.872716 
L 198.310767 163.242497 
L 198.403134 163.406844 
L 198.495501 163.242497 
L 198.680236 163.530105 
L 198.772603 163.365758 
L 198.86497 163.447931 
L 198.957337 163.365758 
L 199.142071 163.571192 
L 199.234439 163.530105 
L 199.788642 164.187494 
L 200.065743 164.146407 
L 200.250477 164.146407 
L 200.435212 164.557275 
L 200.804681 165.214664 
L 201.820719 167.145743 
L 202.097821 168.255087 
L 202.282555 168.953562 
L 202.929125 174.582453 
L 203.298594 180.827645 
L 203.575696 189.12718 
L 203.852797 203.096687 
L 204.129899 227.748746 
L 204.591735 277.997853 
L 204.684102 276.354383 
L 204.961203 254.824927 
L 206.71618 105.433349 
L 206.900914 103.748788 
L 206.993281 103.707697 
L 207.178015 104.858127 
L 207.547484 110.158332 
L 209.117726 136.94694 
L 209.949031 145.780606 
L 210.503234 150.341238 
L 210.872702 151.902539 
L 210.96507 152.14906 
L 211.426905 154.573182 
L 212.535312 158.681862 
L 213.089515 159.832293 
L 213.366616 160.448595 
L 213.736085 161.064897 
L 214.013186 161.434678 
L 214.382655 161.92772 
L 214.475022 161.845546 
L 214.752124 162.297501 
L 215.029225 162.667282 
L 215.398694 162.913803 
L 215.583428 163.160324 
L 215.768163 163.037063 
L 215.952897 163.119237 
L 216.322366 163.160324 
L 216.599467 163.365758 
L 216.784202 163.530105 
L 216.876569 163.776626 
L 216.968936 163.735539 
L 217.15367 163.735539 
L 217.338405 163.571192 
L 218.169709 164.351841 
L 218.262076 164.22858 
L 218.631545 164.721622 
L 218.723912 164.762709 
L 218.908647 165.173577 
L 219.739951 166.817049 
L 220.386521 169.035736 
L 220.848357 172.035072 
L 221.217826 176.677884 
L 221.587295 184.771977 
L 221.864396 195.701062 
L 222.141498 214.231201 
L 222.418599 247.141704 
L 222.695701 277.463723 
L 222.788068 278.080022 
L 222.972802 267.27421 
L 224.173575 159.709033 
L 224.543044 118.827647 
L 224.820146 106.501598 
L 225.00488 103.954217 
L 225.097247 103.666606 
L 225.189614 103.789879 
L 225.374349 105.268998 
L 225.836185 112.623544 
L 227.406427 138.672592 
L 227.96063 144.794526 
L 229.069036 152.354495 
L 229.90034 156.257741 
L 230.085075 156.750782 
L 230.731645 158.722949 
L 231.008746 159.380338 
L 231.285848 159.87338 
L 231.655317 160.612942 
L 232.578988 162.05098 
L 232.671355 162.092067 
L 232.671355 162.092067 
" clip-path="url(#p1801d3075e)" style="fill: none; stroke: #333333; stroke-width: 0.8; stroke-linecap: square"/>
   </g>
   <g id="line2d_16">
    <path d="M 232.671355 164.927056 
L 232.763723 164.885969 
L 232.948457 165.091403 
L 233.040824 164.927056 
L 233.225559 165.13249 
L 233.50266 165.337924 
L 233.687394 165.420098 
L 234.611066 167.597698 
L 234.980535 169.816384 
L 235.350004 173.514196 
L 235.627105 178.773304 
L 235.904207 188.182178 
L 236.181308 207.287539 
L 236.366042 236.048268 
L 236.550777 263.65858 
L 236.643144 262.795747 
L 237.474449 211.355131 
L 237.843917 196.358453 
L 238.028652 183.210676 
L 238.582855 132.673906 
L 238.859956 122.771992 
L 239.04469 120.71765 
L 239.137058 120.306779 
L 239.229425 120.430039 
L 239.414159 121.58047 
L 239.875995 127.414793 
L 241.076768 143.068874 
L 242.00044 151.409498 
L 243.29358 157.202737 
L 243.570682 157.901213 
L 244.586721 160.407508 
L 245.60276 161.640112 
L 245.695127 161.599025 
L 245.972228 162.009893 
L 246.803533 162.626195 
L 246.988267 162.708369 
L 247.173002 162.831629 
L 248.189041 163.612278 
L 248.927978 163.653365 
L 249.020345 163.899886 
L 249.112712 163.776626 
L 249.297447 164.10532 
L 249.389814 163.940973 
L 249.666915 164.064233 
L 249.759283 164.10532 
L 249.85165 163.98206 
L 249.944017 164.146407 
L 250.036384 164.064233 
L 250.221118 164.22858 
L 250.313486 164.10532 
L 250.49822 164.22858 
L 250.682954 164.187494 
L 250.867689 164.598362 
L 250.960056 164.598362 
L 251.052423 164.762709 
L 251.14479 164.639448 
L 251.329525 164.803796 
L 251.514259 164.927056 
L 251.606626 164.844882 
L 251.79136 165.091403 
L 251.883728 165.00923 
L 252.068462 165.214664 
L 252.437931 165.625531 
L 252.715032 166.118573 
L 252.992134 166.611615 
L 253.546337 169.282256 
L 253.823438 171.788552 
L 254.10054 175.815057 
L 254.377641 183.046337 
L 254.654743 196.974753 
L 254.931844 227.584395 
L 255.116579 255.975357 
L 255.208946 255.359045 
L 256.04025 207.164279 
L 256.409719 192.824992 
L 256.594453 179.677214 
L 257.056289 135.59108 
L 257.333391 122.68981 
L 257.610492 118.827647 
L 257.70286 118.540049 
L 257.887594 119.402869 
L 258.164695 122.44329 
L 260.196773 148.204727 
L 261.212812 154.655356 
L 261.582281 156.175568 
L 262.136484 157.613606 
L 262.321218 158.147734 
L 262.690687 159.257078 
L 262.783054 159.421425 
L 262.967788 159.99664 
L 263.060156 160.078814 
L 263.24489 160.407508 
L 263.614359 160.982724 
L 263.89146 161.064897 
L 264.076195 161.352505 
L 264.907499 162.297501 
L 265.276968 162.544022 
L 266.385374 163.406844 
L 266.477741 163.406844 
L 266.662475 163.489018 
L 266.754843 163.406844 
L 266.939577 163.530105 
L 267.031944 163.489018 
L 267.216678 163.571192 
L 267.309046 163.571192 
L 267.49378 163.694452 
L 267.586147 163.694452 
L 267.770882 163.858799 
L 267.863249 163.858799 
L 267.955616 164.064233 
L 268.047983 163.899886 
L 268.14035 164.064233 
L 268.417452 163.940973 
L 268.509819 163.899886 
L 268.78692 164.10532 
L 268.879288 164.10532 
L 269.064022 164.187494 
L 269.156389 164.146407 
L 270.080061 164.844882 
L 270.264795 164.927056 
L 270.357162 165.00923 
L 270.44953 164.885969 
L 271.557936 166.529441 
L 272.112139 169.446604 
L 272.481607 173.021155 
L 272.758709 177.787224 
L 273.128178 191.510211 
L 273.405279 215.217281 
L 273.682381 256.632735 
L 273.774748 255.441227 
L 274.606052 207.164279 
L 274.975521 192.455212 
L 275.160255 179.102005 
L 275.622091 134.974768 
L 275.899193 122.237861 
L 276.176294 118.622218 
L 276.268662 118.457867 
L 276.361029 118.581127 
L 276.545763 120.060259 
L 277.377068 131.523476 
L 277.931271 139.206711 
L 278.577841 146.437997 
L 279.501513 153.217317 
L 280.24045 156.504262 
L 281.071755 158.558602 
L 281.348856 159.667946 
L 281.441223 159.585772 
L 281.903059 160.448595 
L 282.457262 161.023809 
L 282.919098 161.763372 
L 283.011465 161.763372 
L 283.473301 162.215327 
L 283.658035 162.297501 
L 283.935137 162.502935 
L 284.951176 163.406844 
L 285.13591 163.365758 
L 285.228277 163.406844 
L 285.320645 163.242497 
L 285.505379 163.406844 
L 285.690113 163.365758 
L 285.874848 163.653365 
L 285.967215 163.817712 
L 286.059582 163.571192 
L 286.244316 163.735539 
L 286.336683 163.735539 
L 286.429051 163.98206 
L 286.521418 163.776626 
L 286.890887 163.98206 
L 286.983254 164.023146 
L 287.167988 163.776626 
L 287.814558 164.22858 
L 288.184027 164.475101 
L 288.368761 164.639448 
L 288.461128 164.598362 
L 288.645863 164.762709 
L 288.73823 164.721622 
L 288.922964 165.00923 
L 289.015331 164.844882 
L 289.292433 165.173577 
L 289.3848 165.25575 
L 289.569535 165.584445 
L 289.754269 165.707705 
L 290.03137 166.241833 
L 290.955042 171.706377 
L 291.324511 177.828315 
L 291.601612 187.072839 
L 291.878714 205.479717 
L 292.248183 257.125775 
L 292.34055 255.482305 
L 293.079487 208.807749 
L 293.264221 203.918416 
L 293.541323 192.24977 
L 293.726057 178.691135 
L 294.187893 134.44065 
L 294.464995 121.991341 
L 294.742096 118.498958 
L 294.834463 118.293529 
L 294.926831 118.540049 
L 295.203932 121.128521 
L 297.23601 147.341907 
L 298.621518 155.846873 
L 299.360455 157.654693 
L 300.007025 159.709033 
L 300.099392 159.791206 
L 300.468861 160.489681 
L 300.561228 160.489681 
L 300.83833 160.77729 
L 300.930697 160.818377 
L 301.669634 161.92772 
L 301.946736 162.17424 
L 302.408572 162.461848 
L 302.685673 162.667282 
L 302.870408 162.831629 
L 303.516978 163.324671 
L 303.609345 163.283584 
L 303.794079 163.365758 
L 303.978814 163.283584 
L 305.456688 163.899886 
L 305.641423 163.776626 
L 306.010891 164.10532 
L 306.38036 164.187494 
L 306.565095 164.351841 
L 306.657462 164.434014 
L 306.842196 164.351841 
L 307.02693 164.516188 
L 307.119298 164.516188 
L 307.304032 164.639448 
L 307.581133 164.844882 
L 307.858235 165.050317 
L 308.68954 166.282921 
L 309.243743 169.323343 
L 309.705578 174.377019 
L 309.98268 180.375696 
L 310.259781 192.085419 
L 310.536883 216.737492 
L 310.813985 257.166866 
L 310.906352 255.194707 
L 311.645289 209.054269 
L 311.922391 200.672565 
L 312.199492 186.785228 
L 312.93843 124.374371 
L 313.215531 118.704387 
L 313.400265 117.923749 
L 313.585 118.991998 
L 313.862101 122.237861 
L 315.617078 145.657346 
L 316.817851 154.162314 
L 317.372054 156.216654 
L 318.942296 160.160987 
L 319.496499 160.736202 
L 320.143069 161.722286 
L 320.512538 161.968806 
L 320.882006 162.338587 
L 321.066741 162.379674 
L 321.620944 162.995976 
L 321.713311 162.995976 
L 321.990413 163.20141 
L 322.636983 163.283584 
L 322.914084 163.612278 
L 323.006451 163.447931 
L 323.283553 163.653365 
L 323.37592 163.612278 
L 323.468287 163.776626 
L 323.745389 163.530105 
L 323.930123 163.653365 
L 324.02249 163.735539 
L 324.207225 163.653365 
L 324.576693 163.98206 
L 324.669061 164.023146 
L 324.853795 163.940973 
L 324.946162 163.858799 
L 325.223264 164.187494 
L 325.6851 164.434014 
L 326.054568 164.927056 
L 326.33167 164.968143 
L 326.885873 165.502271 
L 327.070607 165.830965 
L 327.255341 166.365093 
L 327.62481 168.049652 
L 328.179013 172.980068 
L 328.456115 177.992653 
L 328.733216 187.565878 
L 329.010318 206.671226 
L 329.379786 257.413386 
L 329.472154 255.194707 
L 330.211091 208.931009 
L 330.488193 200.672565 
L 330.765294 186.292188 
L 331.504231 124.168942 
L 331.781333 118.540049 
L 331.8737 117.964827 
L 331.966067 118.088087 
L 332.058435 118.293529 
L 332.335536 121.046339 
L 332.889739 128.976094 
L 334.367614 146.931036 
L 335.014184 151.738192 
L 335.383653 153.997967 
L 336.12259 156.586435 
L 336.676793 158.06556 
L 337.230996 159.750119 
L 337.415731 159.832293 
L 337.692832 160.284247 
L 338.154668 160.818377 
L 338.524137 161.516852 
L 338.708871 161.640112 
L 338.985973 161.886633 
L 339.07834 161.886633 
L 339.263074 162.009893 
L 339.909644 162.708369 
L 340.556214 163.160324 
L 340.648582 163.119237 
L 340.833316 163.160324 
L 340.925683 163.07815 
L 341.295152 163.324671 
L 341.479886 163.242497 
L 341.756988 163.530105 
L 341.849355 163.489018 
L 341.941722 163.571192 
L 342.034089 163.489018 
L 342.126456 163.571192 
L 342.311191 163.530105 
L 342.403558 163.612278 
L 342.588292 163.447931 
L 342.680659 163.530105 
L 342.773027 163.447931 
L 342.957761 163.858799 
L 343.050128 163.694452 
L 343.142495 163.817712 
L 343.32723 163.694452 
L 343.511964 164.064233 
L 343.696698 163.940973 
L 343.9738 163.858799 
L 344.250901 164.475101 
L 344.343269 164.475101 
L 344.62037 164.680535 
L 344.712737 164.680535 
L 344.897472 164.762709 
L 344.989839 164.803796 
L 345.26694 165.173577 
L 345.359308 165.13249 
L 345.728776 165.954226 
L 346.282979 168.624868 
L 346.652448 171.66529 
L 346.929549 175.938318 
L 347.206651 183.580456 
L 347.483753 198.864744 
L 347.760854 232.350469 
L 347.945588 257.865348 
L 348.037956 255.030356 
L 348.684526 210.32796 
L 348.961627 203.630805 
L 349.238729 191.674561 
L 349.423463 177.006573 
L 349.885299 133.043699 
L 350.162401 121.08743 
L 350.347135 118.334607 
L 350.531869 117.841567 
L 350.716604 118.868738 
L 351.270807 125.935673 
L 352.656314 144.301486 
L 353.302884 149.807107 
L 354.226556 155.148397 
L 355.150228 157.860126 
L 355.612064 159.133818 
L 356.166267 160.160987 
L 356.258634 160.037727 
L 356.443368 160.407508 
L 357.644142 161.92772 
L 357.736509 161.886633 
L 359.029649 163.07815 
L 359.214384 162.995976 
L 359.399118 163.119237 
L 359.676219 163.07815 
L 359.768587 163.20141 
L 359.860954 163.07815 
L 360.230423 163.283584 
L 360.692258 163.447931 
L 360.784626 163.406844 
L 360.96936 163.160324 
L 361.431196 163.571192 
L 361.523563 163.242497 
L 361.708297 163.694452 
L 361.985399 163.571192 
L 362.077766 163.612278 
L 362.354868 164.064233 
L 362.447235 163.98206 
L 362.539602 163.653365 
L 362.909071 164.310754 
L 363.001438 164.22858 
L 363.186172 164.557275 
L 363.278539 164.475101 
L 363.370906 164.639448 
L 363.463274 164.557275 
L 363.648008 164.680535 
L 363.740375 164.598362 
L 364.294578 165.748792 
L 365.125883 170.679208 
L 365.402984 174.171585 
L 365.680086 180.622216 
L 365.957187 192.74281 
L 366.234289 218.298793 
L 366.51139 257.659906 
L 366.603758 254.660576 
L 367.250328 210.32796 
L 367.527429 203.466467 
L 367.804531 191.304781 
L 367.989265 176.390272 
L 368.451101 132.591737 
L 368.728203 120.84091 
L 369.005304 117.800476 
L 369.097671 117.553956 
L 369.282406 118.827647 
L 369.744241 124.579813 
L 371.222116 144.219304 
L 372.330522 152.642102 
L 373.06946 155.477091 
L 373.346561 156.052307 
L 373.438928 156.175568 
L 373.531296 157.120563 
L 373.623663 157.079477 
L 373.993131 158.435341 
L 374.085499 158.517515 
L 374.270233 159.092731 
L 374.3626 158.887296 
L 374.454967 159.421425 
L 374.547334 159.339252 
L 374.639702 159.421425 
L 374.824436 160.202074 
L 374.916803 159.87338 
L 375.00917 160.243161 
L 375.101538 160.037727 
L 375.378639 160.859462 
L 375.563373 161.105984 
L 375.748108 161.352505 
L 375.840475 161.311418 
L 375.932842 161.475765 
L 376.025209 161.352505 
L 376.117576 161.681199 
L 376.209944 161.599025 
L 376.302311 161.845546 
L 376.394678 161.763372 
L 376.579412 162.05098 
L 377.041248 162.585108 
L 377.133615 162.544022 
L 377.225982 162.708369 
L 377.31835 162.626195 
L 377.410717 162.831629 
L 377.595451 162.585108 
L 377.687818 162.831629 
L 377.780186 162.749456 
L 377.96492 162.995976 
L 378.149654 162.913803 
L 378.426756 163.119237 
L 378.703857 163.160324 
L 378.888592 163.160324 
L 378.980959 163.037063 
L 379.25806 163.242497 
L 379.535162 163.07815 
L 379.719896 163.160324 
L 379.812263 163.242497 
L 379.996998 163.160324 
L 380.181732 163.571192 
L 380.274099 163.612278 
L 380.458834 163.571192 
L 380.643568 163.530105 
L 380.735935 163.571192 
L 380.920669 163.858799 
L 381.013037 163.899886 
L 381.105404 163.735539 
L 381.382505 164.22858 
L 381.474872 164.023146 
L 381.659607 164.516188 
L 381.751974 164.146407 
L 381.844341 164.557275 
L 382.029076 164.392928 
L 382.121443 164.310754 
L 382.675646 165.214664 
L 383.414583 168.583781 
L 383.784052 171.459856 
L 384.061153 175.979404 
L 384.338255 183.909157 
L 384.615356 199.563225 
L 384.892458 234.117199 
L 385.077192 257.988608 
L 385.261927 247.593653 
L 385.81613 209.999258 
L 386.000864 206.219277 
L 386.370333 190.893911 
L 386.555067 175.732884 
L 387.016903 132.304126 
L 387.294004 120.430039 
L 387.571106 117.677216 
L 387.663473 117.636138 
L 387.940575 119.649388 
L 388.587145 128.400885 
L 389.326082 139.083451 
L 389.972652 145.739515 
L 390.526856 150.382329 
L 390.71159 151.409498 
L 391.173426 154.162314 
L 391.819996 156.134481 
L 391.912363 156.175568 
L 392.281832 157.531432 
L 392.558933 158.394255 
L 392.836035 159.133818 
L 393.482605 160.1199 
L 393.574972 160.037727 
L 393.852074 160.654028 
L 393.944441 160.695115 
L 394.31391 161.270331 
L 394.683378 161.516852 
L 395.145214 162.05098 
L 395.422316 162.338587 
L 395.514683 162.338587 
L 395.976519 162.790542 
L 396.715456 162.872716 
L 396.992558 163.07815 
L 397.084925 162.995976 
L 397.269659 163.07815 
L 397.454394 162.95489 
L 398.008597 163.119237 
L 398.193331 163.119237 
L 398.285698 163.160324 
L 398.378065 163.365758 
L 398.470432 163.283584 
L 398.655167 163.447931 
L 398.932268 163.365758 
L 399.117003 163.324671 
L 399.486471 163.653365 
L 399.578839 163.489018 
L 399.671206 163.817712 
L 399.763573 163.776626 
L 400.040674 164.187494 
L 400.133042 164.146407 
L 400.317776 164.434014 
L 400.410143 164.269667 
L 400.594877 164.598362 
L 400.687245 164.351841 
L 401.426182 165.789879 
L 401.703284 166.940309 
L 402.072752 168.871389 
L 402.442221 172.815721 
L 402.81169 180.950905 
L 403.088791 193.441292 
L 403.365893 220.065524 
L 403.642994 257.824257 
L 403.827729 247.018444 
L 404.381932 210.122518 
L 404.566666 206.342537 
L 404.936135 190.524131 
L 405.120869 174.828974 
L 405.582705 131.728917 
L 405.859806 120.47113 
L 406.044541 118.047009 
L 406.229275 117.636138 
L 406.506377 119.731558 
L 407.430048 132.591737 
L 408.261353 143.151055 
L 409.00029 149.683847 
L 409.923962 154.942963 
L 410.201064 155.600353 
L 410.940001 158.106647 
L 411.30947 159.174903 
L 411.586571 159.380338 
L 412.048407 160.202074 
L 412.417876 160.818377 
L 412.694977 161.270331 
L 413.156813 161.557939 
L 413.24918 161.599025 
L 413.433915 161.845546 
L 413.803383 162.297501 
L 414.265219 162.749456 
L 414.819422 162.831629 
L 415.004157 162.913803 
L 415.281258 162.995976 
L 415.373625 163.119237 
L 415.55836 163.037063 
L 415.650727 163.037063 
L 415.835461 163.160324 
L 415.927828 162.995976 
L 416.20493 163.242497 
L 416.389664 163.160324 
L 416.666766 163.242497 
L 416.8515 163.406844 
L 417.128602 163.324671 
L 417.220969 163.530105 
L 417.313336 163.447931 
L 417.313336 163.447931 
" clip-path="url(#p1801d3075e)" style="fill: none; stroke: #d94452; stroke-width: 0.8; stroke-linecap: square"/>
   </g>
   <g id="text_17">
    <g id="patch_7">
     <path d="M 81.650365 297.890637 
L 199.050365 297.890637 
Q 202.050365 297.890637 202.050365 294.890637 
L 202.050365 284.290637 
Q 202.050365 281.290637 199.050365 281.290637 
L 81.650365 281.290637 
Q 78.650365 281.290637 78.650365 284.290637 
L 78.650365 294.890637 
Q 78.650365 297.890637 81.650365 297.890637 
z
" style="fill: #ffffff; opacity: 0.85; stroke: #333333; stroke-linejoin: miter"/>
    </g>
    <!-- I$_{p-p}$ = 3.42E-03 mA/m² -->
    <g style="fill: #333333" transform="translate(81.650365 291.790637) scale(0.1 -0.1)">
     <defs>
      <path id="DejaVuSans-49" d="M 628 4666 
L 1259 4666 
L 1259 0 
L 628 0 
L 628 4666 
z
" transform="scale(0.015625)"/>
      <path id="DejaVuSans-Oblique-70" d="M 3175 2156 
Q 3175 2616 2975 2859 
Q 2775 3103 2400 3103 
Q 2144 3103 1911 2972 
Q 1678 2841 1497 2591 
Q 1319 2344 1212 1994 
Q 1106 1644 1106 1300 
Q 1106 863 1306 627 
Q 1506 391 1875 391 
Q 2147 391 2380 519 
Q 2613 647 2778 891 
Q 2956 1147 3065 1494 
Q 3175 1841 3175 2156 
z
M 1394 2969 
Q 1625 3272 1939 3428 
Q 2253 3584 2638 3584 
Q 3175 3584 3472 3232 
Q 3769 2881 3769 2247 
Q 3769 1728 3584 1258 
Q 3400 788 3053 416 
Q 2822 169 2531 39 
Q 2241 -91 1919 -91 
Q 1547 -91 1294 64 
Q 1041 219 916 525 
L 556 -1331 
L -19 -1331 
L 922 3500 
L 1497 3500 
L 1394 2969 
z
" transform="scale(0.015625)"/>
      <path id="DejaVuSans-20" transform="scale(0.015625)"/>
      <path id="DejaVuSans-3d" d="M 678 2906 
L 4684 2906 
L 4684 2381 
L 678 2381 
L 678 2906 
z
M 678 1631 
L 4684 1631 
L 4684 1100 
L 678 1100 
L 678 1631 
z
" transform="scale(0.015625)"/>
      <path id="DejaVuSans-34" d="M 2419 4116 
L 825 1625 
L 2419 1625 
L 2419 4116 
z
M 2253 4666 
L 3047 4666 
L 3047 1625 
L 3713 1625 
L 3713 1100 
L 3047 1100 
L 3047 0 
L 2419 0 
L 2419 1100 
L 313 1100 
L 313 1709 
L 2253 4666 
z
" transform="scale(0.015625)"/>
      <path id="DejaVuSans-45" d="M 628 4666 
L 3578 4666 
L 3578 4134 
L 1259 4134 
L 1259 2753 
L 3481 2753 
L 3481 2222 
L 1259 2222 
L 1259 531 
L 3634 531 
L 3634 0 
L 628 0 
L 628 4666 
z
" transform="scale(0.015625)"/>
      <path id="DejaVuSans-2d" d="M 313 2009 
L 1997 2009 
L 1997 1497 
L 313 1497 
L 313 2009 
z
" transform="scale(0.015625)"/>
      <path id="DejaVuSans-6d" d="M 3328 2828 
Q 3544 3216 3844 3400 
Q 4144 3584 4550 3584 
Q 5097 3584 5394 3201 
Q 5691 2819 5691 2113 
L 5691 0 
L 5113 0 
L 5113 2094 
Q 5113 2597 4934 2840 
Q 4756 3084 4391 3084 
Q 3944 3084 3684 2787 
Q 3425 2491 3425 1978 
L 3425 0 
L 2847 0 
L 2847 2094 
Q 2847 2600 2669 2842 
Q 2491 3084 2119 3084 
Q 1678 3084 1418 2786 
Q 1159 2488 1159 1978 
L 1159 0 
L 581 0 
L 581 3500 
L 1159 3500 
L 1159 2956 
Q 1356 3278 1631 3431 
Q 1906 3584 2284 3584 
Q 2666 3584 2933 3390 
Q 3200 3197 3328 2828 
z
" transform="scale(0.015625)"/>
      <path id="DejaVuSans-41" d="M 2188 4044 
L 1331 1722 
L 3047 1722 
L 2188 4044 
z
M 1831 4666 
L 2547 4666 
L 4325 0 
L 3669 0 
L 3244 1197 
L 1141 1197 
L 716 0 
L 50 0 
L 1831 4666 
z
" transform="scale(0.015625)"/>
      <path id="DejaVuSans-2f" d="M 1625 4666 
L 2156 4666 
L 531 -594 
L 0 -594 
L 1625 4666 
z
" transform="scale(0.015625)"/>
      <path id="DejaVuSans-b2" d="M 838 2444 
L 2163 2444 
L 2163 2088 
L 294 2088 
L 294 2431 
Q 400 2528 597 2703 
Q 1672 3656 1672 3950 
Q 1672 4156 1509 4282 
Q 1347 4409 1081 4409 
Q 919 4409 728 4354 
Q 538 4300 313 4191 
L 313 4575 
Q 553 4663 761 4706 
Q 969 4750 1147 4750 
Q 1600 4750 1872 4544 
Q 2144 4338 2144 4000 
Q 2144 3566 1109 2678 
Q 934 2528 838 2444 
z
" transform="scale(0.015625)"/>
     </defs>
     <use xlink:href="#DejaVuSans-49" transform="translate(0 0.78125)"/>
     <use xlink:href="#DejaVuSans-Oblique-70" transform="translate(30.449219 -15.625) scale(0.7)"/>
     <use xlink:href="#DejaVuSans-2212" transform="translate(88.520508 -15.625) scale(0.7)"/>
     <use xlink:href="#DejaVuSans-Oblique-70" transform="translate(160.810547 -15.625) scale(0.7)"/>
     <use xlink:href="#DejaVuSans-20" transform="translate(207.978516 0.78125)"/>
     <use xlink:href="#DejaVuSans-3d" transform="translate(239.765625 0.78125)"/>
     <use xlink:href="#DejaVuSans-20" transform="translate(323.554688 0.78125)"/>
     <use xlink:href="#DejaVuSans-33" transform="translate(355.341797 0.78125)"/>
     <use xlink:href="#DejaVuSans-2e" transform="translate(418.964844 0.78125)"/>
     <use xlink:href="#DejaVuSans-34" transform="translate(450.751953 0.78125)"/>
     <use xlink:href="#DejaVuSans-32" transform="translate(514.375 0.78125)"/>
     <use xlink:href="#DejaVuSans-45" transform="translate(577.998047 0.78125)"/>
     <use xlink:href="#DejaVuSans-2d" transform="translate(641.181641 0.78125)"/>
     <use xlink:href="#DejaVuSans-30" transform="translate(677.265625 0.78125)"/>
     <use xlink:href="#DejaVuSans-33" transform="translate(740.888672 0.78125)"/>
     <use xlink:href="#DejaVuSans-20" transform="translate(804.511719 0.78125)"/>
     <use xlink:href="#DejaVuSans-6d" transform="translate(836.298828 0.78125)"/>
     <use xlink:href="#DejaVuSans-41" transform="translate(933.710938 0.78125)"/>
     <use xlink:href="#DejaVuSans-2f" transform="translate(1002.119141 0.78125)"/>
     <use xlink:href="#DejaVuSans-6d" transform="translate(1035.810547 0.78125)"/>
     <use xlink:href="#DejaVuSans-b2" transform="translate(1133.222656 0.78125)"/>
    </g>
   </g>
   <g id="text_18">
    <g id="patch_8">
     <path d="M 266.442346 297.890637 
L 383.542346 297.890637 
Q 386.542346 297.890637 386.542346 294.890637 
L 386.542346 284.290637 
Q 386.542346 281.290637 383.542346 281.290637 
L 266.442346 281.290637 
Q 263.442346 281.290637 263.442346 284.290637 
L 263.442346 294.890637 
Q 263.442346 297.890637 266.442346 297.890637 
z
" style="fill: #ffffff; opacity: 0.85; stroke: #d94452; stroke-linejoin: miter"/>
    </g>
    <!-- I$_{p-p}$ = 2.86E-03 mA/m² -->
    <g style="fill: #d94452" transform="translate(266.442346 291.790637) scale(0.1 -0.1)">
     <defs>
      <path id="DejaVuSans-38" d="M 2034 2216 
Q 1584 2216 1326 1975 
Q 1069 1734 1069 1313 
Q 1069 891 1326 650 
Q 1584 409 2034 409 
Q 2484 409 2743 651 
Q 3003 894 3003 1313 
Q 3003 1734 2745 1975 
Q 2488 2216 2034 2216 
z
M 1403 2484 
Q 997 2584 770 2862 
Q 544 3141 544 3541 
Q 544 4100 942 4425 
Q 1341 4750 2034 4750 
Q 2731 4750 3128 4425 
Q 3525 4100 3525 3541 
Q 3525 3141 3298 2862 
Q 3072 2584 2669 2484 
Q 3125 2378 3379 2068 
Q 3634 1759 3634 1313 
Q 3634 634 3220 271 
Q 2806 -91 2034 -91 
Q 1263 -91 848 271 
Q 434 634 434 1313 
Q 434 1759 690 2068 
Q 947 2378 1403 2484 
z
M 1172 3481 
Q 1172 3119 1398 2916 
Q 1625 2713 2034 2713 
Q 2441 2713 2670 2916 
Q 2900 3119 2900 3481 
Q 2900 3844 2670 4047 
Q 2441 4250 2034 4250 
Q 1625 4250 1398 4047 
Q 1172 3844 1172 3481 
z
" transform="scale(0.015625)"/>
      <path id="DejaVuSans-36" d="M 2113 2584 
Q 1688 2584 1439 2293 
Q 1191 2003 1191 1497 
Q 1191 994 1439 701 
Q 1688 409 2113 409 
Q 2538 409 2786 701 
Q 3034 994 3034 1497 
Q 3034 2003 2786 2293 
Q 2538 2584 2113 2584 
z
M 3366 4563 
L 3366 3988 
Q 3128 4100 2886 4159 
Q 2644 4219 2406 4219 
Q 1781 4219 1451 3797 
Q 1122 3375 1075 2522 
Q 1259 2794 1537 2939 
Q 1816 3084 2150 3084 
Q 2853 3084 3261 2657 
Q 3669 2231 3669 1497 
Q 3669 778 3244 343 
Q 2819 -91 2113 -91 
Q 1303 -91 875 529 
Q 447 1150 447 2328 
Q 447 3434 972 4092 
Q 1497 4750 2381 4750 
Q 2619 4750 2861 4703 
Q 3103 4656 3366 4563 
z
" transform="scale(0.015625)"/>
     </defs>
     <use xlink:href="#DejaVuSans-49" transform="translate(0 0.78125)"/>
     <use xlink:href="#DejaVuSans-Oblique-70" transform="translate(30.449219 -15.625) scale(0.7)"/>
     <use xlink:href="#DejaVuSans-2212" transform="translate(88.520508 -15.625) scale(0.7)"/>
     <use xlink:href="#DejaVuSans-Oblique-70" transform="translate(160.810547 -15.625) scale(0.7)"/>
     <use xlink:href="#DejaVuSans-20" transform="translate(207.978516 0.78125)"/>
     <use xlink:href="#DejaVuSans-3d" transform="translate(239.765625 0.78125)"/>
     <use xlink:href="#DejaVuSans-20" transform="translate(323.554688 0.78125)"/>
     <use xlink:href="#DejaVuSans-32" transform="translate(355.341797 0.78125)"/>
     <use xlink:href="#DejaVuSans-2e" transform="translate(418.964844 0.78125)"/>
     <use xlink:href="#DejaVuSans-38" transform="translate(448.126953 0.78125)"/>
     <use xlink:href="#DejaVuSans-36" transform="translate(511.75 0.78125)"/>
     <use xlink:href="#DejaVuSans-45" transform="translate(575.373047 0.78125)"/>
     <use xlink:href="#DejaVuSans-2d" transform="translate(638.556641 0.78125)"/>
     <use xlink:href="#DejaVuSans-30" transform="translate(674.640625 0.78125)"/>
     <use xlink:href="#DejaVuSans-33" transform="translate(738.263672 0.78125)"/>
     <use xlink:href="#DejaVuSans-20" transform="translate(801.886719 0.78125)"/>
     <use xlink:href="#DejaVuSans-6d" transform="translate(833.673828 0.78125)"/>
     <use xlink:href="#DejaVuSans-41" transform="translate(931.085938 0.78125)"/>
     <use xlink:href="#DejaVuSans-2f" transform="translate(999.494141 0.78125)"/>
     <use xlink:href="#DejaVuSans-6d" transform="translate(1033.185547 0.78125)"/>
     <use xlink:href="#DejaVuSans-b2" transform="translate(1130.597656 0.78125)"/>
    </g>
   </g>
   <g id="text_19">
    <g id="patch_9">
     <path d="M 348.618411 50.1638 
L 406.234817 50.1638 
Q 411.434817 50.1638 411.434817 44.9638 
L 411.434817 32.382237 
Q 411.434817 27.182237 406.234817 27.182237 
L 348.618411 27.182237 
Q 343.418411 27.182237 343.418411 32.382237 
L 343.418411 44.9638 
Q 343.418411 50.1638 348.618411 50.1638 
z
" style="fill: #ffffff; opacity: 0.9; stroke: #f0ad4e; stroke-width: 1.5; stroke-linejoin: miter"/>
    </g>
    <!-- f = 5 Hz -->
    <g style="fill: #f0ad4e" transform="translate(348.618411 42.260206) scale(0.13 -0.13)">
     <defs>
      <path id="DejaVuSans-Bold-66" d="M 2841 4863 
L 2841 4128 
L 2222 4128 
Q 1984 4128 1890 4042 
Q 1797 3956 1797 3744 
L 1797 3500 
L 2753 3500 
L 2753 2700 
L 1797 2700 
L 1797 0 
L 678 0 
L 678 2700 
L 122 2700 
L 122 3500 
L 678 3500 
L 678 3744 
Q 678 4316 997 4589 
Q 1316 4863 1984 4863 
L 2841 4863 
z
" transform="scale(0.015625)"/>
      <path id="DejaVuSans-Bold-3d" d="M 678 3084 
L 4684 3084 
L 4684 2350 
L 678 2350 
L 678 3084 
z
M 678 1663 
L 4684 1663 
L 4684 922 
L 678 922 
L 678 1663 
z
" transform="scale(0.015625)"/>
      <path id="DejaVuSans-Bold-35" d="M 678 4666 
L 3669 4666 
L 3669 3781 
L 1638 3781 
L 1638 3059 
Q 1775 3097 1914 3117 
Q 2053 3138 2203 3138 
Q 3056 3138 3531 2711 
Q 4006 2284 4006 1522 
Q 4006 766 3489 337 
Q 2972 -91 2053 -91 
Q 1656 -91 1267 -14 
Q 878 63 494 219 
L 494 1166 
Q 875 947 1217 837 
Q 1559 728 1863 728 
Q 2300 728 2551 942 
Q 2803 1156 2803 1522 
Q 2803 1891 2551 2103 
Q 2300 2316 1863 2316 
Q 1603 2316 1309 2248 
Q 1016 2181 678 2041 
L 678 4666 
z
" transform="scale(0.015625)"/>
      <path id="DejaVuSans-Bold-48" d="M 588 4666 
L 1791 4666 
L 1791 2888 
L 3566 2888 
L 3566 4666 
L 4769 4666 
L 4769 0 
L 3566 0 
L 3566 1978 
L 1791 1978 
L 1791 0 
L 588 0 
L 588 4666 
z
" transform="scale(0.015625)"/>
      <path id="DejaVuSans-Bold-7a" d="M 366 3500 
L 3419 3500 
L 3419 2719 
L 1575 800 
L 3419 800 
L 3419 0 
L 288 0 
L 288 781 
L 2131 2700 
L 366 2700 
L 366 3500 
z
" transform="scale(0.015625)"/>
     </defs>
     <use xlink:href="#DejaVuSans-Bold-66"/>
     <use xlink:href="#DejaVuSans-Bold-20" transform="translate(43.505859 0)"/>
     <use xlink:href="#DejaVuSans-Bold-3d" transform="translate(78.320312 0)"/>
     <use xlink:href="#DejaVuSans-Bold-20" transform="translate(162.109375 0)"/>
     <use xlink:href="#DejaVuSans-Bold-35" transform="translate(196.923828 0)"/>
     <use xlink:href="#DejaVuSans-Bold-20" transform="translate(266.503906 0)"/>
     <use xlink:href="#DejaVuSans-Bold-48" transform="translate(301.318359 0)"/>
     <use xlink:href="#DejaVuSans-Bold-7a" transform="translate(385.009766 0)"/>
    </g>
   </g>
   <g id="text_20">
    <!-- Without MIC -->
    <g style="fill: #333333" transform="translate(91.618334 43.02005) scale(0.14 -0.14)">
     <defs>
      <path id="DejaVuSans-Bold-57" d="M 191 4666 
L 1344 4666 
L 2150 1275 
L 2950 4666 
L 4109 4666 
L 4909 1275 
L 5716 4666 
L 6859 4666 
L 5759 0 
L 4372 0 
L 3525 3547 
L 2688 0 
L 1300 0 
L 191 4666 
z
" transform="scale(0.015625)"/>
      <path id="DejaVuSans-Bold-74" d="M 1759 4494 
L 1759 3500 
L 2913 3500 
L 2913 2700 
L 1759 2700 
L 1759 1216 
Q 1759 972 1856 886 
Q 1953 800 2241 800 
L 2816 800 
L 2816 0 
L 1856 0 
Q 1194 0 917 276 
Q 641 553 641 1216 
L 641 2700 
L 84 2700 
L 84 3500 
L 641 3500 
L 641 4494 
L 1759 4494 
z
" transform="scale(0.015625)"/>
      <path id="DejaVuSans-Bold-68" d="M 4056 2131 
L 4056 0 
L 2931 0 
L 2931 347 
L 2931 1625 
Q 2931 2084 2911 2256 
Q 2891 2428 2841 2509 
Q 2775 2619 2662 2680 
Q 2550 2741 2406 2741 
Q 2056 2741 1856 2470 
Q 1656 2200 1656 1722 
L 1656 0 
L 538 0 
L 538 4863 
L 1656 4863 
L 1656 2988 
Q 1909 3294 2193 3439 
Q 2478 3584 2822 3584 
Q 3428 3584 3742 3212 
Q 4056 2841 4056 2131 
z
" transform="scale(0.015625)"/>
      <path id="DejaVuSans-Bold-6f" d="M 2203 2784 
Q 1831 2784 1636 2517 
Q 1441 2250 1441 1747 
Q 1441 1244 1636 976 
Q 1831 709 2203 709 
Q 2569 709 2762 976 
Q 2956 1244 2956 1747 
Q 2956 2250 2762 2517 
Q 2569 2784 2203 2784 
z
M 2203 3584 
Q 3106 3584 3614 3096 
Q 4122 2609 4122 1747 
Q 4122 884 3614 396 
Q 3106 -91 2203 -91 
Q 1297 -91 786 396 
Q 275 884 275 1747 
Q 275 2609 786 3096 
Q 1297 3584 2203 3584 
z
" transform="scale(0.015625)"/>
      <path id="DejaVuSans-Bold-75" d="M 500 1363 
L 500 3500 
L 1625 3500 
L 1625 3150 
Q 1625 2866 1622 2436 
Q 1619 2006 1619 1863 
Q 1619 1441 1641 1255 
Q 1663 1069 1716 984 
Q 1784 875 1895 815 
Q 2006 756 2150 756 
Q 2500 756 2700 1025 
Q 2900 1294 2900 1772 
L 2900 3500 
L 4019 3500 
L 4019 0 
L 2900 0 
L 2900 506 
Q 2647 200 2364 54 
Q 2081 -91 1741 -91 
Q 1134 -91 817 281 
Q 500 653 500 1363 
z
" transform="scale(0.015625)"/>
      <path id="DejaVuSans-Bold-4d" d="M 588 4666 
L 2119 4666 
L 3181 2169 
L 4250 4666 
L 5778 4666 
L 5778 0 
L 4641 0 
L 4641 3413 
L 3566 897 
L 2803 897 
L 1728 3413 
L 1728 0 
L 588 0 
L 588 4666 
z
" transform="scale(0.015625)"/>
      <path id="DejaVuSans-Bold-43" d="M 4288 256 
Q 3956 84 3597 -3 
Q 3238 -91 2847 -91 
Q 1681 -91 1000 561 
Q 319 1213 319 2328 
Q 319 3447 1000 4098 
Q 1681 4750 2847 4750 
Q 3238 4750 3597 4662 
Q 3956 4575 4288 4403 
L 4288 3438 
Q 3953 3666 3628 3772 
Q 3303 3878 2944 3878 
Q 2300 3878 1931 3465 
Q 1563 3053 1563 2328 
Q 1563 1606 1931 1193 
Q 2300 781 2944 781 
Q 3303 781 3628 887 
Q 3953 994 4288 1222 
L 4288 256 
z
" transform="scale(0.015625)"/>
     </defs>
     <use xlink:href="#DejaVuSans-Bold-57"/>
     <use xlink:href="#DejaVuSans-Bold-69" transform="translate(110.302734 0)"/>
     <use xlink:href="#DejaVuSans-Bold-74" transform="translate(144.580078 0)"/>
     <use xlink:href="#DejaVuSans-Bold-68" transform="translate(192.382812 0)"/>
     <use xlink:href="#DejaVuSans-Bold-6f" transform="translate(263.574219 0)"/>
     <use xlink:href="#DejaVuSans-Bold-75" transform="translate(332.275391 0)"/>
     <use xlink:href="#DejaVuSans-Bold-74" transform="translate(403.466797 0)"/>
     <use xlink:href="#DejaVuSans-Bold-20" transform="translate(451.269531 0)"/>
     <use xlink:href="#DejaVuSans-Bold-4d" transform="translate(486.083984 0)"/>
     <use xlink:href="#DejaVuSans-Bold-49" transform="translate(585.595703 0)"/>
     <use xlink:href="#DejaVuSans-Bold-43" transform="translate(622.802734 0)"/>
    </g>
   </g>
   <g id="text_21">
    <!-- With MIC -->
    <g style="fill: #d94452" transform="translate(289.398439 43.02005) scale(0.14 -0.14)">
     <use xlink:href="#DejaVuSans-Bold-57"/>
     <use xlink:href="#DejaVuSans-Bold-69" transform="translate(110.302734 0)"/>
     <use xlink:href="#DejaVuSans-Bold-74" transform="translate(144.580078 0)"/>
     <use xlink:href="#DejaVuSans-Bold-68" transform="translate(192.382812 0)"/>
     <use xlink:href="#DejaVuSans-Bold-20" transform="translate(263.574219 0)"/>
     <use xlink:href="#DejaVuSans-Bold-4d" transform="translate(298.388672 0)"/>
     <use xlink:href="#DejaVuSans-Bold-49" transform="translate(397.900391 0)"/>
     <use xlink:href="#DejaVuSans-Bold-43" transform="translate(435.107422 0)"/>
    </g>
   </g>
  </g>
 </g>
 <defs>
  <clipPath id="p1801d3075e">
   <rect x="48.029375" y="17.798437" width="369.283961" height="291.676"/>
  </clipPath>
 </defs>
</svg>
