<?xml version="1.0" encoding="utf-8" standalone="no"?>
<!DOCTYPE svg PUBLIC "-//W3C//DTD SVG 1.1//EN"
  "http://www.w3.org/Graphics/SVG/1.1/DTD/svg11.dtd">
<svg xmlns:xlink="http://www.w3.org/1999/xlink" width="424.172301pt" height="351.86975pt" viewBox="0 0 424.172301 351.86975" xmlns="http://www.w3.org/2000/svg" version="1.1">
 <metadata>
  <rdf:RDF xmlns:dc="http://purl.org/dc/elements/1.1/" xmlns:cc="http://creativecommons.org/ns#" xmlns:rdf="http://www.w3.org/1999/02/22-rdf-syntax-ns#">
   <cc:Work>
    <dc:type rdf:resource="http://purl.org/dc/dcmitype/StillImage"/>
    <dc:date>2026-04-26T16:38:50.061494</dc:date>
    <dc:format>image/svg+xml</dc:format>
    <dc:creator>
     <cc:Agent>
      <dc:title>Matplotlib v3.10.8, https://matplotlib.org/</dc:title>
     </cc:Agent>
    </dc:creator>
   </cc:Work>
  </rdf:RDF>
 </metadata>
 <defs>
  <style type="text/css">*{stroke-linejoin: round; stroke-linecap: butt}</style>
 </defs>
 <g id="figure_1">
  <g id="patch_1">
   <path d="M 0 351.86975 
L 424.172301 351.86975 
L 424.172301 0 
L 0 0 
z
" style="fill: #ffffff"/>
  </g>
  <g id="axes_1">
   <g id="patch_2">
    <path d="M 58.479375 309.474437 
L 416.972301 309.474437 
L 416.972301 17.798437 
L 58.479375 17.798437 
z
" style="fill: #ffffff"/>
   </g>
   <g id="patch_3">
    <path d="M 58.479375 309.474437 
L 237.725838 309.474437 
L 237.725838 17.798437 
L 58.479375 17.798437 
z
" clip-path="url(#p69bc433f83)" style="fill: #cccccc; opacity: 0.12; stroke: #cccccc; stroke-linejoin: miter"/>
   </g>
   <g id="patch_4">
    <path d="M 237.725838 309.474437 
L 416.972301 309.474437 
L 416.972301 17.798437 
L 237.725838 17.798437 
z
" clip-path="url(#p69bc433f83)" style="fill: #d94452; opacity: 0.06; stroke: #d94452; stroke-linejoin: miter"/>
   </g>
   <g id="line2d_1">
    <path d="M 237.725838 309.474437 
L 237.725838 17.798437 
" clip-path="url(#p69bc433f83)" style="fill: none; stroke-dasharray: 3.7,1.6; stroke-dashoffset: 0; stroke: #999999"/>
   </g>
   <g id="matplotlib.axis_1">
    <g id="xtick_1">
     <g id="line2d_2">
      <defs>
       <path id="m09c62380b0" d="M 0 0 
L 0 3.5 
" style="stroke: #000000; stroke-width: 0.8"/>
      </defs>
      <g>
       <use xlink:href="#m09c62380b0" x="58.479375" y="309.474437" style="stroke: #000000; stroke-width: 0.8"/>
      </g>
     </g>
     <g id="text_1">
      <!-- 0.0 -->
      <g transform="translate(49.732656 324.832719) scale(0.11 -0.11)">
       <defs>
        <path id="DejaVuSans-30" d="M 2034 4250 
Q 1547 4250 1301 3770 
Q 1056 3291 1056 2328 
Q 1056 1369 1301 889 
Q 1547 409 2034 409 
Q 2525 409 2770 889 
Q 3016 1369 3016 2328 
Q 3016 3291 2770 3770 
Q 2525 4250 2034 4250 
z
M 2034 4750 
Q 2819 4750 3233 4129 
Q 3647 3509 3647 2328 
Q 3647 1150 3233 529 
Q 2819 -91 2034 -91 
Q 1250 -91 836 529 
Q 422 1150 422 2328 
Q 422 3509 836 4129 
Q 1250 4750 2034 4750 
z
" transform="scale(0.015625)"/>
        <path id="DejaVuSans-2e" d="M 684 794 
L 1344 794 
L 1344 0 
L 684 0 
L 684 794 
z
" transform="scale(0.015625)"/>
       </defs>
       <use xlink:href="#DejaVuSans-30"/>
       <use xlink:href="#DejaVuSans-2e" transform="translate(63.623047 0)"/>
       <use xlink:href="#DejaVuSans-30" transform="translate(95.410156 0)"/>
      </g>
     </g>
    </g>
    <g id="xtick_2">
     <g id="line2d_3">
      <g>
       <use xlink:href="#m09c62380b0" x="103.313408" y="309.474437" style="stroke: #000000; stroke-width: 0.8"/>
      </g>
     </g>
     <g id="text_2">
      <!-- 0.5 -->
      <g transform="translate(94.566689 324.832719) scale(0.11 -0.11)">
       <defs>
        <path id="DejaVuSans-35" d="M 691 4666 
L 3169 4666 
L 3169 4134 
L 1269 4134 
L 1269 2991 
Q 1406 3038 1543 3061 
Q 1681 3084 1819 3084 
Q 2600 3084 3056 2656 
Q 3513 2228 3513 1497 
Q 3513 744 3044 326 
Q 2575 -91 1722 -91 
Q 1428 -91 1123 -41 
Q 819 9 494 109 
L 494 744 
Q 775 591 1075 516 
Q 1375 441 1709 441 
Q 2250 441 2565 725 
Q 2881 1009 2881 1497 
Q 2881 1984 2565 2268 
Q 2250 2553 1709 2553 
Q 1456 2553 1204 2497 
Q 953 2441 691 2322 
L 691 4666 
z
" transform="scale(0.015625)"/>
       </defs>
       <use xlink:href="#DejaVuSans-30"/>
       <use xlink:href="#DejaVuSans-2e" transform="translate(63.623047 0)"/>
       <use xlink:href="#DejaVuSans-35" transform="translate(95.410156 0)"/>
      </g>
     </g>
    </g>
    <g id="xtick_3">
     <g id="line2d_4">
      <g>
       <use xlink:href="#m09c62380b0" x="148.14744" y="309.474437" style="stroke: #000000; stroke-width: 0.8"/>
      </g>
     </g>
     <g id="text_3">
      <!-- 1.0 -->
      <g transform="translate(139.400722 324.832719) scale(0.11 -0.11)">
       <defs>
        <path id="DejaVuSans-31" d="M 794 531 
L 1825 531 
L 1825 4091 
L 703 3866 
L 703 4441 
L 1819 4666 
L 2450 4666 
L 2450 531 
L 3481 531 
L 3481 0 
L 794 0 
L 794 531 
z
" transform="scale(0.015625)"/>
       </defs>
       <use xlink:href="#DejaVuSans-31"/>
       <use xlink:href="#DejaVuSans-2e" transform="translate(63.623047 0)"/>
       <use xlink:href="#DejaVuSans-30" transform="translate(95.410156 0)"/>
      </g>
     </g>
    </g>
    <g id="xtick_4">
     <g id="line2d_5">
      <g>
       <use xlink:href="#m09c62380b0" x="192.981473" y="309.474437" style="stroke: #000000; stroke-width: 0.8"/>
      </g>
     </g>
     <g id="text_4">
      <!-- 1.5 -->
      <g transform="translate(184.234754 324.832719) scale(0.11 -0.11)">
       <use xlink:href="#DejaVuSans-31"/>
       <use xlink:href="#DejaVuSans-2e" transform="translate(63.623047 0)"/>
       <use xlink:href="#DejaVuSans-35" transform="translate(95.410156 0)"/>
      </g>
     </g>
    </g>
    <g id="xtick_5">
     <g id="line2d_6">
      <g>
       <use xlink:href="#m09c62380b0" x="237.815506" y="309.474437" style="stroke: #000000; stroke-width: 0.8"/>
      </g>
     </g>
     <g id="text_5">
      <!-- 2.0 -->
      <g transform="translate(229.068787 324.832719) scale(0.11 -0.11)">
       <defs>
        <path id="DejaVuSans-32" d="M 1228 531 
L 3431 531 
L 3431 0 
L 469 0 
L 469 531 
Q 828 903 1448 1529 
Q 2069 2156 2228 2338 
Q 2531 2678 2651 2914 
Q 2772 3150 2772 3378 
Q 2772 3750 2511 3984 
Q 2250 4219 1831 4219 
Q 1534 4219 1204 4116 
Q 875 4013 500 3803 
L 500 4441 
Q 881 4594 1212 4672 
Q 1544 4750 1819 4750 
Q 2544 4750 2975 4387 
Q 3406 4025 3406 3419 
Q 3406 3131 3298 2873 
Q 3191 2616 2906 2266 
Q 2828 2175 2409 1742 
Q 1991 1309 1228 531 
z
" transform="scale(0.015625)"/>
       </defs>
       <use xlink:href="#DejaVuSans-32"/>
       <use xlink:href="#DejaVuSans-2e" transform="translate(63.623047 0)"/>
       <use xlink:href="#DejaVuSans-30" transform="translate(95.410156 0)"/>
      </g>
     </g>
    </g>
    <g id="xtick_6">
     <g id="line2d_7">
      <g>
       <use xlink:href="#m09c62380b0" x="282.649539" y="309.474437" style="stroke: #000000; stroke-width: 0.8"/>
      </g>
     </g>
     <g id="text_6">
      <!-- 2.5 -->
      <g transform="translate(273.90282 324.832719) scale(0.11 -0.11)">
       <use xlink:href="#DejaVuSans-32"/>
       <use xlink:href="#DejaVuSans-2e" transform="translate(63.623047 0)"/>
       <use xlink:href="#DejaVuSans-35" transform="translate(95.410156 0)"/>
      </g>
     </g>
    </g>
    <g id="xtick_7">
     <g id="line2d_8">
      <g>
       <use xlink:href="#m09c62380b0" x="327.483571" y="309.474437" style="stroke: #000000; stroke-width: 0.8"/>
      </g>
     </g>
     <g id="text_7">
      <!-- 3.0 -->
      <g transform="translate(318.736853 324.832719) scale(0.11 -0.11)">
       <defs>
        <path id="DejaVuSans-33" d="M 2597 2516 
Q 3050 2419 3304 2112 
Q 3559 1806 3559 1356 
Q 3559 666 3084 287 
Q 2609 -91 1734 -91 
Q 1441 -91 1130 -33 
Q 819 25 488 141 
L 488 750 
Q 750 597 1062 519 
Q 1375 441 1716 441 
Q 2309 441 2620 675 
Q 2931 909 2931 1356 
Q 2931 1769 2642 2001 
Q 2353 2234 1838 2234 
L 1294 2234 
L 1294 2753 
L 1863 2753 
Q 2328 2753 2575 2939 
Q 2822 3125 2822 3475 
Q 2822 3834 2567 4026 
Q 2313 4219 1838 4219 
Q 1578 4219 1281 4162 
Q 984 4106 628 3988 
L 628 4550 
Q 988 4650 1302 4700 
Q 1616 4750 1894 4750 
Q 2613 4750 3031 4423 
Q 3450 4097 3450 3541 
Q 3450 3153 3228 2886 
Q 3006 2619 2597 2516 
z
" transform="scale(0.015625)"/>
       </defs>
       <use xlink:href="#DejaVuSans-33"/>
       <use xlink:href="#DejaVuSans-2e" transform="translate(63.623047 0)"/>
       <use xlink:href="#DejaVuSans-30" transform="translate(95.410156 0)"/>
      </g>
     </g>
    </g>
    <g id="xtick_8">
     <g id="line2d_9">
      <g>
       <use xlink:href="#m09c62380b0" x="372.317604" y="309.474437" style="stroke: #000000; stroke-width: 0.8"/>
      </g>
     </g>
     <g id="text_8">
      <!-- 3.5 -->
      <g transform="translate(363.570885 324.832719) scale(0.11 -0.11)">
       <use xlink:href="#DejaVuSans-33"/>
       <use xlink:href="#DejaVuSans-2e" transform="translate(63.623047 0)"/>
       <use xlink:href="#DejaVuSans-35" transform="translate(95.410156 0)"/>
      </g>
     </g>
    </g>
    <g id="text_9">
     <!-- Time (s) -->
     <g transform="translate(205.507244 341.758187) scale(0.14 -0.14)">
      <defs>
       <path id="DejaVuSans-Bold-54" d="M 31 4666 
L 4331 4666 
L 4331 3756 
L 2784 3756 
L 2784 0 
L 1581 0 
L 1581 3756 
L 31 3756 
L 31 4666 
z
" transform="scale(0.015625)"/>
       <path id="DejaVuSans-Bold-69" d="M 538 3500 
L 1656 3500 
L 1656 0 
L 538 0 
L 538 3500 
z
M 538 4863 
L 1656 4863 
L 1656 3950 
L 538 3950 
L 538 4863 
z
" transform="scale(0.015625)"/>
       <path id="DejaVuSans-Bold-6d" d="M 3781 2919 
Q 3994 3244 4286 3414 
Q 4578 3584 4928 3584 
Q 5531 3584 5847 3212 
Q 6163 2841 6163 2131 
L 6163 0 
L 5038 0 
L 5038 1825 
Q 5041 1866 5042 1909 
Q 5044 1953 5044 2034 
Q 5044 2406 4934 2573 
Q 4825 2741 4581 2741 
Q 4263 2741 4089 2478 
Q 3916 2216 3909 1719 
L 3909 0 
L 2784 0 
L 2784 1825 
Q 2784 2406 2684 2573 
Q 2584 2741 2328 2741 
Q 2006 2741 1831 2477 
Q 1656 2213 1656 1722 
L 1656 0 
L 531 0 
L 531 3500 
L 1656 3500 
L 1656 2988 
Q 1863 3284 2130 3434 
Q 2397 3584 2719 3584 
Q 3081 3584 3359 3409 
Q 3638 3234 3781 2919 
z
" transform="scale(0.015625)"/>
       <path id="DejaVuSans-Bold-65" d="M 4031 1759 
L 4031 1441 
L 1416 1441 
Q 1456 1047 1700 850 
Q 1944 653 2381 653 
Q 2734 653 3104 758 
Q 3475 863 3866 1075 
L 3866 213 
Q 3469 63 3072 -14 
Q 2675 -91 2278 -91 
Q 1328 -91 801 392 
Q 275 875 275 1747 
Q 275 2603 792 3093 
Q 1309 3584 2216 3584 
Q 3041 3584 3536 3087 
Q 4031 2591 4031 1759 
z
M 2881 2131 
Q 2881 2450 2695 2645 
Q 2509 2841 2209 2841 
Q 1884 2841 1681 2658 
Q 1478 2475 1428 2131 
L 2881 2131 
z
" transform="scale(0.015625)"/>
       <path id="DejaVuSans-Bold-20" transform="scale(0.015625)"/>
       <path id="DejaVuSans-Bold-28" d="M 2413 -844 
L 1484 -844 
Q 1006 -72 778 623 
Q 550 1319 550 2003 
Q 550 2688 779 3389 
Q 1009 4091 1484 4856 
L 2413 4856 
Q 2013 4116 1813 3408 
Q 1613 2700 1613 2009 
Q 1613 1319 1811 609 
Q 2009 -100 2413 -844 
z
" transform="scale(0.015625)"/>
       <path id="DejaVuSans-Bold-73" d="M 3272 3391 
L 3272 2541 
Q 2913 2691 2578 2766 
Q 2244 2841 1947 2841 
Q 1628 2841 1473 2761 
Q 1319 2681 1319 2516 
Q 1319 2381 1436 2309 
Q 1553 2238 1856 2203 
L 2053 2175 
Q 2913 2066 3209 1816 
Q 3506 1566 3506 1031 
Q 3506 472 3093 190 
Q 2681 -91 1863 -91 
Q 1516 -91 1145 -36 
Q 775 19 384 128 
L 384 978 
Q 719 816 1070 734 
Q 1422 653 1784 653 
Q 2113 653 2278 743 
Q 2444 834 2444 1013 
Q 2444 1163 2330 1236 
Q 2216 1309 1875 1350 
L 1678 1375 
Q 931 1469 631 1722 
Q 331 1975 331 2491 
Q 331 3047 712 3315 
Q 1094 3584 1881 3584 
Q 2191 3584 2531 3537 
Q 2872 3491 3272 3391 
z
" transform="scale(0.015625)"/>
       <path id="DejaVuSans-Bold-29" d="M 513 -844 
Q 913 -100 1113 609 
Q 1313 1319 1313 2009 
Q 1313 2700 1113 3408 
Q 913 4116 513 4856 
L 1441 4856 
Q 1916 4091 2145 3389 
Q 2375 2688 2375 2003 
Q 2375 1319 2147 623 
Q 1919 -72 1441 -844 
L 513 -844 
z
" transform="scale(0.015625)"/>
      </defs>
      <use xlink:href="#DejaVuSans-Bold-54"/>
      <use xlink:href="#DejaVuSans-Bold-69" transform="translate(68.212891 0)"/>
      <use xlink:href="#DejaVuSans-Bold-6d" transform="translate(102.490234 0)"/>
      <use xlink:href="#DejaVuSans-Bold-65" transform="translate(206.689453 0)"/>
      <use xlink:href="#DejaVuSans-Bold-20" transform="translate(274.511719 0)"/>
      <use xlink:href="#DejaVuSans-Bold-28" transform="translate(309.326172 0)"/>
      <use xlink:href="#DejaVuSans-Bold-73" transform="translate(355.029297 0)"/>
      <use xlink:href="#DejaVuSans-Bold-29" transform="translate(414.550781 0)"/>
     </g>
    </g>
   </g>
   <g id="matplotlib.axis_2">
    <g id="ytick_1">
     <g id="line2d_10">
      <defs>
       <path id="m877d1cb101" d="M 0 0 
L -3.5 0 
" style="stroke: #000000; stroke-width: 0.8"/>
      </defs>
      <g>
       <use xlink:href="#m877d1cb101" x="58.479375" y="291.47779" style="stroke: #000000; stroke-width: 0.8"/>
      </g>
     </g>
     <g id="text_10">
      <!-- $\mathdefault{−1.0}$ -->
      <g transform="translate(24.749375 295.656931) scale(0.11 -0.11)">
       <defs>
        <path id="DejaVuSans-2212" d="M 678 2272 
L 4684 2272 
L 4684 1741 
L 678 1741 
L 678 2272 
z
" transform="scale(0.015625)"/>
       </defs>
       <use xlink:href="#DejaVuSans-2212" transform="translate(0 0.78125)"/>
       <use xlink:href="#DejaVuSans-31" transform="translate(83.789062 0.78125)"/>
       <use xlink:href="#DejaVuSans-2e" transform="translate(147.412109 0.78125)"/>
       <use xlink:href="#DejaVuSans-30" transform="translate(179.199219 0.78125)"/>
      </g>
     </g>
    </g>
    <g id="ytick_2">
     <g id="line2d_11">
      <g>
       <use xlink:href="#m877d1cb101" x="58.479375" y="227.557114" style="stroke: #000000; stroke-width: 0.8"/>
      </g>
     </g>
     <g id="text_11">
      <!-- $\mathdefault{−0.5}$ -->
      <g transform="translate(24.749375 231.736255) scale(0.11 -0.11)">
       <use xlink:href="#DejaVuSans-2212" transform="translate(0 0.78125)"/>
       <use xlink:href="#DejaVuSans-30" transform="translate(83.789062 0.78125)"/>
       <use xlink:href="#DejaVuSans-2e" transform="translate(147.412109 0.78125)"/>
       <use xlink:href="#DejaVuSans-35" transform="translate(179.199219 0.78125)"/>
      </g>
     </g>
    </g>
    <g id="ytick_3">
     <g id="line2d_12">
      <g>
       <use xlink:href="#m877d1cb101" x="58.479375" y="163.636437" style="stroke: #000000; stroke-width: 0.8"/>
      </g>
     </g>
     <g id="text_12">
      <!-- $\mathdefault{0.0}$ -->
      <g transform="translate(33.879375 167.815578) scale(0.11 -0.11)">
       <use xlink:href="#DejaVuSans-30" transform="translate(0 0.78125)"/>
       <use xlink:href="#DejaVuSans-2e" transform="translate(63.623047 0.78125)"/>
       <use xlink:href="#DejaVuSans-30" transform="translate(95.410156 0.78125)"/>
      </g>
     </g>
    </g>
    <g id="ytick_4">
     <g id="line2d_13">
      <g>
       <use xlink:href="#m877d1cb101" x="58.479375" y="99.715761" style="stroke: #000000; stroke-width: 0.8"/>
      </g>
     </g>
     <g id="text_13">
      <!-- $\mathdefault{0.5}$ -->
      <g transform="translate(33.879375 103.894902) scale(0.11 -0.11)">
       <use xlink:href="#DejaVuSans-30" transform="translate(0 0.78125)"/>
       <use xlink:href="#DejaVuSans-2e" transform="translate(63.623047 0.78125)"/>
       <use xlink:href="#DejaVuSans-35" transform="translate(95.410156 0.78125)"/>
      </g>
     </g>
    </g>
    <g id="ytick_5">
     <g id="line2d_14">
      <g>
       <use xlink:href="#m877d1cb101" x="58.479375" y="35.795085" style="stroke: #000000; stroke-width: 0.8"/>
      </g>
     </g>
     <g id="text_14">
      <!-- $\mathdefault{1.0}$ -->
      <g transform="translate(33.879375 39.974225) scale(0.11 -0.11)">
       <use xlink:href="#DejaVuSans-31" transform="translate(0 0.78125)"/>
       <use xlink:href="#DejaVuSans-2e" transform="translate(63.623047 0.78125)"/>
       <use xlink:href="#DejaVuSans-30" transform="translate(95.410156 0.78125)"/>
      </g>
     </g>
    </g>
    <g id="text_15">
     <!-- I$_{sc}$ (mA/m²) -->
     <g transform="translate(17.837813 206.266437) rotate(-90) scale(0.14 -0.14)">
      <defs>
       <path id="DejaVuSans-Bold-49" d="M 588 4666 
L 1791 4666 
L 1791 0 
L 588 0 
L 588 4666 
z
" transform="scale(0.015625)"/>
       <path id="DejaVuSans-Oblique-73" d="M 3200 3397 
L 3091 2853 
Q 2863 2978 2609 3040 
Q 2356 3103 2088 3103 
Q 1634 3103 1373 2948 
Q 1113 2794 1113 2528 
Q 1113 2219 1719 2053 
Q 1766 2041 1788 2034 
L 1972 1978 
Q 2547 1819 2739 1644 
Q 2931 1469 2931 1166 
Q 2931 609 2489 259 
Q 2047 -91 1331 -91 
Q 1053 -91 747 -37 
Q 441 16 72 128 
L 184 722 
Q 500 559 806 475 
Q 1113 391 1394 391 
Q 1816 391 2080 572 
Q 2344 753 2344 1031 
Q 2344 1331 1650 1516 
L 1591 1531 
L 1394 1581 
Q 956 1697 753 1886 
Q 550 2075 550 2369 
Q 550 2928 970 3256 
Q 1391 3584 2113 3584 
Q 2397 3584 2667 3537 
Q 2938 3491 3200 3397 
z
" transform="scale(0.015625)"/>
       <path id="DejaVuSans-Oblique-63" d="M 3431 3366 
L 3316 2797 
Q 3109 2947 2876 3022 
Q 2644 3097 2394 3097 
Q 2119 3097 1870 3000 
Q 1622 2903 1453 2725 
Q 1184 2453 1037 2087 
Q 891 1722 891 1331 
Q 891 859 1127 628 
Q 1363 397 1844 397 
Q 2081 397 2348 469 
Q 2616 541 2906 684 
L 2797 116 
Q 2547 13 2283 -39 
Q 2019 -91 1741 -91 
Q 1044 -91 669 257 
Q 294 606 294 1253 
Q 294 1797 489 2255 
Q 684 2713 1069 3078 
Q 1331 3328 1684 3456 
Q 2038 3584 2456 3584 
Q 2700 3584 2940 3529 
Q 3181 3475 3431 3366 
z
" transform="scale(0.015625)"/>
       <path id="DejaVuSans-Bold-41" d="M 3419 850 
L 1538 850 
L 1241 0 
L 31 0 
L 1759 4666 
L 3194 4666 
L 4922 0 
L 3713 0 
L 3419 850 
z
M 1838 1716 
L 3116 1716 
L 2478 3572 
L 1838 1716 
z
" transform="scale(0.015625)"/>
       <path id="DejaVuSans-Bold-2f" d="M 1644 4666 
L 2338 4666 
L 691 -594 
L 0 -594 
L 1644 4666 
z
" transform="scale(0.015625)"/>
       <path id="DejaVuSans-Bold-b2" d="M 1288 2613 
L 2444 2613 
L 2444 2088 
L 341 2088 
L 341 2566 
L 1319 3397 
Q 1509 3563 1590 3688 
Q 1672 3813 1672 3938 
Q 1672 4094 1558 4191 
Q 1444 4288 1259 4288 
Q 1066 4288 844 4217 
Q 622 4147 359 4000 
L 359 4581 
Q 631 4666 886 4708 
Q 1141 4750 1375 4750 
Q 1869 4750 2150 4548 
Q 2431 4347 2431 4000 
Q 2431 3775 2320 3586 
Q 2209 3397 1894 3128 
L 1288 2613 
z
" transform="scale(0.015625)"/>
      </defs>
      <use xlink:href="#DejaVuSans-Bold-49" transform="translate(0 0.125)"/>
      <use xlink:href="#DejaVuSans-Oblique-73" transform="translate(38.164062 -16.28125) scale(0.7)"/>
      <use xlink:href="#DejaVuSans-Oblique-63" transform="translate(74.633789 -16.28125) scale(0.7)"/>
      <use xlink:href="#DejaVuSans-Bold-20" transform="translate(115.854492 0.125)"/>
      <use xlink:href="#DejaVuSans-Bold-28" transform="translate(150.668945 0.125)"/>
      <use xlink:href="#DejaVuSans-Bold-6d" transform="translate(196.37207 0.125)"/>
      <use xlink:href="#DejaVuSans-Bold-41" transform="translate(300.571289 0.125)"/>
      <use xlink:href="#DejaVuSans-Bold-2f" transform="translate(377.963867 0.125)"/>
      <use xlink:href="#DejaVuSans-Bold-6d" transform="translate(414.487305 0.125)"/>
      <use xlink:href="#DejaVuSans-Bold-b2" transform="translate(518.686523 0.125)"/>
      <use xlink:href="#DejaVuSans-Bold-29" transform="translate(562.485352 0.125)"/>
     </g>
    </g>
    <g id="text_16">
     <!-- $\times\mathdefault{10^{−3}}\mathdefault{}$ -->
     <g transform="translate(58.479375 14.798437) scale(0.1 -0.1)">
      <defs>
       <path id="DejaVuSans-d7" d="M 4488 3438 
L 3059 2003 
L 4488 575 
L 4116 197 
L 2681 1631 
L 1247 197 
L 878 575 
L 2303 2003 
L 878 3438 
L 1247 3816 
L 2681 2381 
L 4116 3816 
L 4488 3438 
z
" transform="scale(0.015625)"/>
      </defs>
      <use xlink:href="#DejaVuSans-d7" transform="translate(0 0.765625)"/>
      <use xlink:href="#DejaVuSans-31" transform="translate(83.789062 0.765625)"/>
      <use xlink:href="#DejaVuSans-30" transform="translate(147.412109 0.765625)"/>
      <use xlink:href="#DejaVuSans-2212" transform="translate(211.992188 39.046875) scale(0.7)"/>
      <use xlink:href="#DejaVuSans-33" transform="translate(270.644531 39.046875) scale(0.7)"/>
     </g>
    </g>
   </g>
   <g id="patch_5">
    <path d="M 58.479375 309.474437 
L 58.479375 17.798437 
" style="fill: none; stroke: #000000; stroke-width: 0.8; stroke-linejoin: miter; stroke-linecap: square"/>
   </g>
   <g id="patch_6">
    <path d="M 58.479375 309.474437 
L 416.972301 309.474437 
" style="fill: none; stroke: #000000; stroke-width: 0.8; stroke-linejoin: miter; stroke-linecap: square"/>
   </g>
   <g id="line2d_15">
    <path d="M 58.479375 161.723101 
L 58.569043 161.723101 
L 58.658711 161.928969 
L 58.748379 161.517233 
L 58.927715 161.928969 
L 59.017383 162.031903 
L 59.107051 161.928969 
L 59.19672 162.134837 
L 59.376056 161.723101 
L 59.465724 161.723101 
L 59.555392 161.928969 
L 59.64506 161.723101 
L 59.824396 161.826035 
L 59.914064 161.723101 
L 60.003732 161.826035 
L 60.0934 161.723101 
L 60.183068 161.414299 
L 60.362404 161.928969 
L 60.541741 161.826035 
L 60.631409 161.826035 
L 60.721077 162.134837 
L 60.900413 161.826035 
L 61.079749 161.723101 
L 61.169417 161.311365 
L 61.259085 161.414299 
L 61.348753 161.311365 
L 61.438421 161.414299 
L 61.528089 161.311365 
L 61.617757 161.928969 
L 61.707425 161.826035 
L 61.797093 161.826035 
L 61.886761 161.620167 
L 62.155766 162.443639 
L 62.42477 161.723101 
L 62.514438 162.031903 
L 62.693774 161.723101 
L 62.783442 161.723101 
L 62.87311 161.208431 
L 63.052446 161.620167 
L 63.142114 161.723101 
L 63.231782 162.237771 
L 63.321451 162.031903 
L 63.411119 162.340705 
L 63.500787 162.134837 
L 63.680123 162.443639 
L 63.859459 161.620167 
L 63.949127 162.237771 
L 64.038795 161.928969 
L 64.128463 162.649507 
L 64.218131 162.237771 
L 64.307799 162.649507 
L 64.397467 162.546573 
L 64.487135 162.546573 
L 64.576803 162.237771 
L 64.935476 163.472978 
L 65.025144 163.061242 
L 65.114812 163.267111 
L 65.20448 163.164177 
L 65.294148 163.472978 
L 65.563152 162.855375 
L 65.742488 163.678846 
L 65.832156 163.267111 
L 65.921824 163.370044 
L 66.011493 163.472978 
L 66.190829 163.164177 
L 66.370165 163.884714 
L 66.459833 163.678846 
L 66.639169 163.78178 
L 66.818505 163.884714 
L 66.908173 163.987648 
L 67.087509 163.575912 
L 67.177177 163.472978 
L 67.446182 164.193516 
L 67.625518 163.884714 
L 67.98419 165.016988 
L 68.163526 164.605252 
L 68.342862 164.914054 
L 68.43253 164.81112 
L 68.522198 164.708186 
L 68.611866 165.016988 
L 68.701534 164.914054 
L 68.880871 165.531657 
L 68.970539 165.428723 
L 69.149875 165.325789 
L 69.508547 166.560997 
L 69.598215 166.252195 
L 69.777551 166.663931 
L 69.867219 166.560997 
L 70.046555 166.869798 
L 70.136224 166.869798 
L 70.225892 167.384468 
L 70.31556 167.281533 
L 70.494896 167.384468 
L 70.584564 167.796203 
L 70.674232 167.590337 
L 70.943236 168.825544 
L 71.21224 169.237279 
L 71.391576 169.649014 
L 71.481244 169.751949 
L 71.660581 170.369554 
L 71.839917 170.472485 
L 72.288257 172.325296 
L 72.377925 172.325296 
L 72.557261 173.457571 
L 72.646929 173.354637 
L 72.915934 174.486912 
L 73.722946 178.604269 
L 73.99195 180.868816 
L 74.260955 183.030428 
L 74.978299 189.618198 
L 75.247303 193.117954 
L 76.233652 210.307928 
L 76.861328 226.88029 
L 78.296017 269.906639 
L 78.565022 273.200536 
L 78.65469 273.406392 
L 78.834026 272.47999 
L 79.10303 266.921576 
L 79.641038 246.54066 
L 80.448051 203.205478 
L 81.255064 126.005025 
L 81.613736 113.447073 
L 82.869089 88.228257 
L 83.317429 81.949265 
L 83.586433 81.125807 
L 83.676101 81.228751 
L 83.945106 82.772755 
L 85.379795 103.977161 
L 87.262824 130.534124 
L 88.518177 141.136311 
L 89.056185 144.636064 
L 89.414858 146.59181 
L 89.594194 147.003546 
L 89.77353 147.929951 
L 89.863198 148.032886 
L 90.132202 149.473961 
L 90.22187 149.679828 
L 90.311538 150.400367 
L 90.401206 150.194498 
L 90.670211 151.532639 
L 91.028883 152.561979 
L 91.118551 152.561979 
L 92.015231 154.826526 
L 92.194568 155.65 
L 92.284236 155.032395 
L 92.55324 155.752931 
L 92.642908 155.9588 
L 92.732576 155.855866 
L 92.822244 156.061735 
L 92.911912 155.855866 
L 93.180916 156.782271 
L 93.270584 157.194007 
L 93.360252 157.091072 
L 93.449921 156.988141 
L 93.539589 157.605742 
L 93.629257 157.194007 
L 93.718925 157.399876 
L 93.808593 157.194007 
L 93.898261 157.399876 
L 94.077597 157.194007 
L 94.256933 157.605742 
L 94.346601 157.399876 
L 94.436269 157.811612 
L 94.525937 157.296941 
L 94.705273 157.914546 
L 94.794942 158.120412 
L 94.88461 158.017478 
L 95.153614 158.429216 
L 95.243282 158.223347 
L 95.601954 158.532148 
L 95.78129 158.429216 
L 95.870958 158.429216 
L 95.960626 158.120412 
L 96.050294 158.738017 
L 96.139963 158.429216 
L 96.229631 158.738017 
L 96.319299 158.532148 
L 96.408967 158.840952 
L 96.498635 158.738017 
L 96.588303 158.840952 
L 96.677971 159.355622 
L 96.767639 159.252687 
L 97.215979 159.149753 
L 97.305647 158.840952 
L 97.66432 159.973223 
L 97.753988 159.458553 
L 97.843656 160.179093 
L 97.933324 160.076158 
L 98.202328 160.487894 
L 98.291996 160.282027 
L 98.561 160.487894 
L 98.650668 160.487894 
L 98.830004 160.179093 
L 99.099009 160.282027 
L 99.278345 160.487894 
L 99.368013 160.282027 
L 99.457681 160.693762 
L 99.547349 160.487894 
L 99.637017 160.590828 
L 99.816353 160.487894 
L 99.995689 160.590828 
L 100.085357 160.590828 
L 100.264694 159.973223 
L 100.354362 160.076158 
L 100.44403 160.796696 
L 100.623366 160.590828 
L 100.802702 160.89963 
L 100.89237 160.796696 
L 100.982038 160.282027 
L 101.251042 160.796696 
L 101.430378 160.384959 
L 101.520046 160.282027 
L 101.609714 160.384959 
L 101.789051 160.179093 
L 101.878719 160.179093 
L 101.968387 159.870289 
L 102.058055 160.487894 
L 102.147723 160.384959 
L 102.416727 160.796696 
L 102.506395 160.796696 
L 102.596063 160.590828 
L 102.685731 160.796696 
L 103.134072 160.384959 
L 103.582412 160.384959 
L 103.67208 160.590828 
L 103.851416 160.384959 
L 103.941084 160.282027 
L 104.030752 160.384959 
L 104.12042 160.076158 
L 104.210088 160.282027 
L 104.479093 159.870289 
L 104.837765 159.252687 
L 104.927433 159.149753 
L 105.017101 159.252687 
L 105.106769 159.767357 
L 105.196437 159.561488 
L 105.375773 160.076158 
L 105.644777 159.870289 
L 105.824114 160.282027 
L 106.00345 160.076158 
L 106.362122 160.076158 
L 106.541458 160.487894 
L 106.631126 160.384959 
L 106.720794 160.487894 
L 106.810462 160.89963 
L 106.90013 160.693762 
L 107.079466 161.002564 
L 107.258803 160.590828 
L 107.438139 160.693762 
L 107.527807 160.590828 
L 107.617475 160.796696 
L 107.886479 160.282027 
L 108.065815 160.796696 
L 108.155483 160.796696 
L 108.245151 160.590828 
L 108.334819 160.796696 
L 108.424487 160.590828 
L 108.603824 160.89963 
L 108.693492 160.693762 
L 108.78316 160.796696 
L 108.872828 160.590828 
L 109.2315 161.002564 
L 109.410836 160.384959 
L 109.590172 161.002564 
L 109.769508 161.105497 
L 109.948845 161.002564 
L 110.038513 161.002564 
L 110.128181 161.208431 
L 110.307517 160.89963 
L 110.397185 161.105497 
L 110.486853 160.796696 
L 110.576521 161.002564 
L 110.666189 160.89963 
L 110.755857 161.414299 
L 110.935193 161.002564 
L 111.024861 161.105497 
L 111.204198 161.517233 
L 111.293866 160.89963 
L 111.473202 161.208431 
L 111.652538 160.89963 
L 111.921542 161.208431 
L 112.190546 160.796696 
L 112.638887 161.620167 
L 112.728555 161.723101 
L 112.818223 162.031903 
L 113.087227 161.826035 
L 113.266563 161.928969 
L 113.356231 161.620167 
L 113.535567 161.826035 
L 113.714903 162.031903 
L 113.804571 161.928969 
L 113.983908 162.134837 
L 114.252912 162.443639 
L 114.34258 162.340705 
L 114.521916 162.649507 
L 114.611584 162.340705 
L 114.970256 162.649507 
L 115.059924 162.649507 
L 115.149592 162.443639 
L 115.328929 162.855375 
L 115.508265 162.752441 
L 116.046273 163.267111 
L 116.494613 162.855375 
L 116.584281 162.958308 
L 116.763618 162.649507 
L 116.853286 162.958308 
L 116.942954 162.855375 
L 117.12229 163.267111 
L 117.211958 163.164177 
L 117.391294 163.267111 
L 117.480962 163.267111 
L 117.57063 162.958308 
L 117.660298 163.370044 
L 117.839634 162.958308 
L 117.929302 163.061242 
L 118.108639 162.958308 
L 118.377643 163.061242 
L 118.556979 163.370044 
L 119.632996 163.267111 
L 119.812332 163.061242 
L 120.171004 163.472978 
L 120.260672 163.370044 
L 120.529676 163.678846 
L 120.619344 163.575912 
L 120.709012 163.164177 
L 120.798681 163.267111 
L 120.888349 163.370044 
L 121.067685 163.164177 
L 121.247021 162.958308 
L 121.336689 163.061242 
L 121.426357 162.958308 
L 121.605693 163.575912 
L 121.695361 163.370044 
L 121.964365 163.370044 
L 122.054033 163.575912 
L 122.323038 163.061242 
L 122.592042 162.958308 
L 122.771378 162.752441 
L 122.861046 162.855375 
L 123.13005 163.472978 
L 123.309386 163.370044 
L 123.488722 163.575912 
L 123.757727 163.472978 
L 123.937063 163.370044 
L 124.385403 163.370044 
L 124.475071 163.78178 
L 124.564739 163.575912 
L 124.654407 163.78178 
L 124.744075 163.575912 
L 124.923412 163.987648 
L 125.282084 163.678846 
L 125.999428 163.678846 
L 126.089096 163.884714 
L 126.178764 163.78178 
L 126.537437 164.090582 
L 126.716773 163.678846 
L 126.985777 163.267111 
L 127.434117 163.267111 
L 127.523785 163.061242 
L 127.703122 163.472978 
L 127.972126 163.678846 
L 128.24113 163.678846 
L 128.420466 163.164177 
L 128.510134 163.370044 
L 128.779138 163.164177 
L 128.868806 163.267111 
L 128.958474 162.958308 
L 129.137811 163.370044 
L 129.496483 163.78178 
L 129.675819 163.370044 
L 129.855155 162.855375 
L 129.944823 163.164177 
L 130.034491 162.649507 
L 130.124159 162.752441 
L 130.303495 162.958308 
L 130.393164 162.855375 
L 130.482832 162.546573 
L 130.751836 162.958308 
L 130.841504 163.061242 
L 130.931172 162.958308 
L 131.02084 163.061242 
L 131.200176 162.649507 
L 131.558848 162.340705 
L 131.648516 162.443639 
L 131.827853 162.237771 
L 132.007189 162.546573 
L 132.276193 162.443639 
L 132.365861 162.752441 
L 132.545197 162.546573 
L 132.634865 162.752441 
L 132.814201 162.443639 
L 133.172874 162.031903 
L 133.262542 162.237771 
L 133.35221 162.134837 
L 133.441878 162.237771 
L 133.531546 162.649507 
L 133.710882 162.443639 
L 134.069554 162.340705 
L 134.159222 162.752441 
L 134.338558 162.031903 
L 134.428226 162.340705 
L 134.517895 162.031903 
L 134.607563 162.134837 
L 134.697231 162.031903 
L 134.786899 162.237771 
L 134.966235 162.031903 
L 135.145571 162.237771 
L 135.235239 162.031903 
L 135.504243 162.546573 
L 135.683579 162.031903 
L 135.773247 162.031903 
L 135.862916 162.340705 
L 136.042252 161.723101 
L 136.13192 162.031903 
L 136.221588 161.826035 
L 136.311256 161.928969 
L 136.400924 161.723101 
L 136.490592 161.826035 
L 136.58026 161.723101 
L 136.759596 161.928969 
L 136.849264 162.031903 
L 136.938932 162.443639 
L 137.118268 161.826035 
L 137.207936 162.031903 
L 137.745945 161.517233 
L 137.925281 162.031903 
L 138.194285 162.031903 
L 138.283953 162.340705 
L 138.373621 162.237771 
L 138.463289 162.752441 
L 138.552957 162.649507 
L 138.642626 162.134837 
L 138.732294 162.546573 
L 138.821962 162.443639 
L 138.91163 162.443639 
L 139.001298 161.723101 
L 139.180634 162.340705 
L 139.270302 162.031903 
L 139.35997 162.340705 
L 139.449638 162.134837 
L 139.539306 162.237771 
L 139.628974 162.752441 
L 139.897978 162.237771 
L 140.077315 162.752441 
L 140.256651 161.928969 
L 140.346319 162.443639 
L 140.435987 162.340705 
L 140.525655 162.031903 
L 140.704991 162.443639 
L 140.884327 162.031903 
L 140.973995 162.134837 
L 141.063663 162.546573 
L 141.153331 162.443639 
L 141.242999 162.649507 
L 141.332668 162.546573 
L 141.422336 162.237771 
L 141.601672 162.855375 
L 141.960344 162.443639 
L 142.13968 162.134837 
L 142.229348 162.031903 
L 142.498352 162.546573 
L 142.58802 162.237771 
L 142.677688 162.340705 
L 142.857025 162.752441 
L 143.036361 162.649507 
L 143.126029 162.134837 
L 143.215697 162.237771 
L 143.753705 162.340705 
L 143.843373 162.443639 
L 143.933041 162.752441 
L 144.022709 162.649507 
L 144.112378 162.958308 
L 144.202046 162.855375 
L 144.47105 163.061242 
L 144.560718 162.855375 
L 144.650386 163.061242 
L 144.740054 162.958308 
L 145.009058 162.237771 
L 145.36773 162.958308 
L 145.457399 162.855375 
L 145.636735 162.443639 
L 145.726403 163.164177 
L 145.816071 162.546573 
L 145.905739 162.855375 
L 145.995407 162.752441 
L 146.085075 162.855375 
L 146.264411 162.649507 
L 146.354079 162.958308 
L 146.443747 162.855375 
L 146.533415 162.958308 
L 146.802419 162.752441 
L 146.981756 163.370044 
L 147.071424 163.472978 
L 147.161092 163.370044 
L 147.340428 163.884714 
L 147.519764 163.678846 
L 147.609432 163.78178 
L 147.6991 163.678846 
L 147.788768 163.987648 
L 147.878436 163.78178 
L 147.968104 163.884714 
L 148.14744 164.29645 
L 148.237109 163.370044 
L 148.326777 163.987648 
L 148.416445 163.884714 
L 148.685449 164.708186 
L 148.775117 164.502318 
L 148.954453 164.914054 
L 149.044121 164.502318 
L 149.133789 164.605252 
L 149.223457 164.502318 
L 149.313125 165.119921 
L 149.402793 164.502318 
L 149.492461 165.222855 
L 149.761466 164.708186 
L 149.940802 165.222855 
L 150.03047 164.914054 
L 150.389142 165.531657 
L 150.47881 165.222855 
L 150.568478 165.428723 
L 150.658146 165.119921 
L 150.837482 165.737525 
L 150.927151 165.840459 
L 151.106487 165.737525 
L 151.375491 166.149261 
L 151.644495 166.663931 
L 151.734163 166.663931 
L 152.003167 167.178602 
L 152.182503 167.281533 
L 152.272171 167.487403 
L 152.36184 167.384468 
L 152.630844 167.796203 
L 152.720512 167.693269 
L 152.899848 168.207939 
L 153.437856 169.957818 
L 153.527524 169.957818 
L 154.155201 171.295959 
L 154.424205 172.6341 
L 154.693209 173.251702 
L 154.872545 174.281042 
L 155.051882 174.589843 
L 155.231218 175.619183 
L 155.410554 176.133853 
L 156.934911 187.353652 
L 157.652255 196.823573 
L 158.459268 211.337242 
L 158.997276 225.439198 
L 160.162961 261.157273 
L 160.790638 273.715193 
L 160.969974 274.641596 
L 161.059642 274.229882 
L 161.328646 268.980237 
L 161.687318 256.83403 
L 162.583999 211.337242 
L 163.660016 117.152682 
L 164.108356 104.800619 
L 164.467028 98.418715 
L 165.632713 81.743408 
L 165.812049 81.331663 
L 165.901717 81.434607 
L 166.170722 82.875667 
L 166.977734 94.198416 
L 168.950432 124.461021 
L 170.205785 137.73949 
L 171.730142 147.518216 
L 171.909478 148.13582 
L 172.178482 149.371027 
L 172.806158 152.047309 
L 172.895827 152.047309 
L 173.075163 152.973714 
L 173.164831 153.076649 
L 173.254499 152.870783 
L 173.433835 153.488385 
L 173.971843 155.032395 
L 174.240848 155.752931 
L 174.420184 156.164667 
L 174.509852 155.752931 
L 174.689188 156.473471 
L 174.778856 156.370536 
L 174.958192 156.679337 
L 175.227196 157.399876 
L 175.316864 157.194007 
L 175.675537 158.326282 
L 175.944541 158.223347 
L 176.034209 158.017478 
L 176.213545 158.326282 
L 176.303213 158.532148 
L 176.392881 158.429216 
L 176.482549 158.635082 
L 176.572217 158.429216 
L 176.661885 158.738017 
L 176.751553 158.635082 
L 176.841221 158.326282 
L 177.110226 158.943883 
L 177.199894 158.738017 
L 177.289562 159.046818 
L 177.37923 158.943883 
L 177.468898 159.046818 
L 177.558566 159.458553 
L 177.648234 158.943883 
L 177.737902 159.046818 
L 177.82757 159.046818 
L 177.917238 158.532148 
L 178.096574 159.149753 
L 178.27591 158.840952 
L 178.455247 159.664423 
L 178.544915 159.767357 
L 178.634583 159.664423 
L 178.813919 159.870289 
L 178.903587 159.561488 
L 178.993255 159.973223 
L 179.082923 159.870289 
L 179.351927 160.076158 
L 179.531263 159.767357 
L 179.7106 160.179093 
L 179.889936 160.487894 
L 179.979604 160.384959 
L 180.248608 161.208431 
L 180.338276 161.002564 
L 180.427944 161.105497 
L 180.517612 160.89963 
L 180.696948 161.414299 
L 180.786616 161.105497 
L 180.965952 161.311365 
L 181.055621 161.002564 
L 181.145289 161.208431 
L 181.234957 161.105497 
L 181.414293 161.414299 
L 181.593629 161.105497 
L 181.683297 161.208431 
L 181.952301 161.620167 
L 182.131637 160.89963 
L 182.310973 161.414299 
L 182.400641 161.311365 
L 182.579978 161.620167 
L 182.669646 161.414299 
L 182.848982 161.723101 
L 183.028318 161.928969 
L 183.117986 161.826035 
L 183.207654 162.031903 
L 183.38699 161.723101 
L 183.476658 161.723101 
L 183.655994 161.311365 
L 183.745662 161.311365 
L 183.924999 160.89963 
L 184.642343 161.826035 
L 184.732011 161.723101 
L 184.821679 161.620167 
L 184.911347 161.928969 
L 185.090683 161.723101 
L 185.180352 161.928969 
L 185.359688 161.826035 
L 185.449356 161.311365 
L 185.628692 161.928969 
L 185.808028 161.414299 
L 185.897696 161.517233 
L 185.987364 161.723101 
L 186.077032 161.414299 
L 186.256368 161.620167 
L 186.346036 161.517233 
L 186.525373 160.89963 
L 186.704709 160.796696 
L 186.794377 160.590828 
L 186.884045 160.693762 
L 187.063381 160.590828 
L 187.242717 160.796696 
L 187.332385 160.693762 
L 187.422053 160.796696 
L 187.511721 160.384959 
L 187.780725 161.002564 
L 187.870393 161.105497 
L 187.960062 160.89963 
L 188.04973 161.105497 
L 188.139398 160.796696 
L 188.229066 160.89963 
L 188.318734 161.311365 
L 188.408402 161.105497 
L 188.49807 161.208431 
L 188.587738 161.517233 
L 188.767074 161.208431 
L 189.036078 161.928969 
L 189.215414 161.414299 
L 189.394751 162.031903 
L 189.574087 162.031903 
L 189.663755 161.517233 
L 189.753423 161.928969 
L 189.932759 161.414299 
L 190.201763 161.723101 
L 190.291431 161.517233 
L 190.470767 162.031903 
L 190.560435 161.723101 
L 190.650104 161.928969 
L 190.739772 161.517233 
L 191.008776 162.134837 
L 191.367448 161.517233 
L 191.457116 161.414299 
L 191.636452 161.620167 
L 191.72612 161.414299 
L 192.174461 162.237771 
L 192.264129 161.928969 
L 192.353797 162.237771 
L 192.533133 161.928969 
L 192.712469 161.620167 
L 192.802137 161.928969 
L 192.981473 161.723101 
L 193.071141 161.723101 
L 193.160809 162.134837 
L 193.250477 161.928969 
L 193.429814 162.134837 
L 193.519482 161.928969 
L 193.788486 162.134837 
L 193.878154 162.031903 
L 193.967822 162.134837 
L 194.147158 161.826035 
L 194.236826 162.031903 
L 194.416162 161.723101 
L 194.595498 161.928969 
L 194.774835 162.237771 
L 195.133507 162.958308 
L 195.402511 162.649507 
L 195.492179 162.855375 
L 195.581847 162.340705 
L 195.761183 162.649507 
L 195.940519 162.546573 
L 196.119856 162.649507 
L 196.299192 163.164177 
L 196.38886 162.958308 
L 196.478528 163.370044 
L 196.657864 163.164177 
L 196.8372 163.472978 
L 197.016536 163.061242 
L 197.375208 163.575912 
L 197.464876 163.472978 
L 197.733881 163.472978 
L 197.913217 163.884714 
L 198.002885 163.678846 
L 198.092553 163.884714 
L 198.271889 163.575912 
L 198.809897 163.472978 
L 198.989234 163.370044 
L 199.078902 163.370044 
L 199.347906 163.78178 
L 199.527242 163.987648 
L 199.706578 163.78178 
L 199.796246 163.884714 
L 200.06525 163.472978 
L 200.244587 163.575912 
L 200.334255 163.472978 
L 200.423923 163.678846 
L 200.513591 163.472978 
L 201.141267 164.090582 
L 201.320603 163.78178 
L 201.410271 163.987648 
L 201.499939 163.884714 
L 201.589608 163.987648 
L 201.768944 163.678846 
L 202.037948 163.678846 
L 202.127616 163.987648 
L 202.217284 163.884714 
L 202.39662 164.090582 
L 202.575956 163.987648 
L 202.755292 164.090582 
L 202.84496 163.884714 
L 202.934628 163.987648 
L 203.113965 163.678846 
L 203.203633 163.884714 
L 203.472637 163.472978 
L 203.741641 163.575912 
L 203.920977 164.090582 
L 204.010645 163.987648 
L 204.100313 164.193516 
L 204.369318 163.987648 
L 204.458986 163.987648 
L 204.548654 163.678846 
L 204.72799 163.78178 
L 204.817658 163.472978 
L 204.907326 163.575912 
L 204.996994 163.370044 
L 205.17633 163.678846 
L 205.355666 163.678846 
L 205.445334 164.193516 
L 205.62467 163.987648 
L 205.804007 164.090582 
L 205.893675 163.987648 
L 205.983343 164.090582 
L 206.162679 163.884714 
L 206.521351 163.884714 
L 206.700687 164.399384 
L 206.790355 164.29645 
L 206.969691 164.193516 
L 207.238696 164.502318 
L 207.597368 164.193516 
L 207.866372 164.193516 
L 207.95604 163.987648 
L 208.135376 164.399384 
L 208.225044 164.502318 
L 208.314712 164.29645 
L 208.40438 164.399384 
L 208.494049 164.29645 
L 208.673385 164.399384 
L 208.763053 164.29645 
L 208.852721 164.399384 
L 209.032057 164.193516 
L 209.211393 163.987648 
L 209.301061 164.090582 
L 209.480397 163.987648 
L 209.570065 163.987648 
L 209.659733 164.502318 
L 209.83907 164.090582 
L 210.377078 164.605252 
L 210.825418 163.678846 
L 211.363427 164.29645 
L 211.453095 164.193516 
L 211.632431 164.399384 
L 211.722099 164.29645 
L 211.901435 164.605252 
L 212.080771 164.29645 
L 212.170439 164.090582 
L 212.260107 163.472978 
L 212.349775 163.987648 
L 212.529111 163.370044 
L 212.708448 163.884714 
L 212.798116 163.678846 
L 212.977452 163.987648 
L 213.156788 163.678846 
L 213.246456 164.399384 
L 213.336124 163.78178 
L 213.425792 163.884714 
L 213.51546 163.884714 
L 213.605128 163.267111 
L 213.694796 163.370044 
L 213.784464 163.472978 
L 213.874132 164.193516 
L 214.143137 163.267111 
L 214.232805 163.370044 
L 214.412141 163.678846 
L 214.501809 163.884714 
L 214.591477 163.78178 
L 214.770813 164.090582 
L 215.039817 163.267111 
L 215.219153 164.193516 
L 215.308822 162.958308 
L 215.39849 163.061242 
L 215.577826 163.472978 
L 215.667494 163.370044 
L 215.757162 163.884714 
L 215.84683 163.678846 
L 215.936498 163.884714 
L 216.026166 163.575912 
L 216.205502 163.884714 
L 216.29517 163.78178 
L 216.384838 164.090582 
L 216.474506 162.958308 
L 216.653843 163.987648 
L 216.833179 163.164177 
L 217.102183 163.884714 
L 217.191851 164.090582 
L 217.281519 163.678846 
L 217.460855 163.987648 
L 217.640191 163.78178 
L 217.729859 163.370044 
L 217.819527 164.090582 
L 217.998863 163.267111 
L 218.088532 163.678846 
L 218.447204 163.061242 
L 218.62654 163.472978 
L 218.716208 163.164177 
L 218.895544 163.472978 
L 219.07488 163.164177 
L 219.254216 163.884714 
L 219.343884 163.678846 
L 219.433553 162.855375 
L 219.523221 163.472978 
L 219.612889 163.370044 
L 219.702557 162.649507 
L 219.792225 162.752441 
L 219.881893 164.090582 
L 219.971561 162.958308 
L 220.240565 163.78178 
L 220.330233 163.678846 
L 220.419901 163.78178 
L 220.509569 164.193516 
L 220.599237 163.884714 
L 220.868242 164.193516 
L 220.95791 164.090582 
L 221.047578 163.678846 
L 221.137246 163.987648 
L 221.316582 163.575912 
L 221.40625 163.575912 
L 221.495918 163.987648 
L 221.585586 163.575912 
L 221.944258 164.502318 
L 222.033926 164.399384 
L 222.123594 163.987648 
L 222.213263 164.193516 
L 222.302931 164.090582 
L 222.392599 165.016988 
L 222.571935 163.884714 
L 222.661603 164.090582 
L 222.751271 164.193516 
L 222.840939 163.678846 
L 222.930607 164.29645 
L 223.020275 163.987648 
L 223.199611 164.193516 
L 223.378947 163.884714 
L 223.468615 164.29645 
L 223.647952 163.884714 
L 223.73762 164.399384 
L 223.827288 164.29645 
L 223.916956 164.090582 
L 224.006624 164.81112 
L 224.275628 163.78178 
L 224.454964 164.090582 
L 224.544632 164.708186 
L 224.6343 164.399384 
L 224.813636 163.678846 
L 224.903305 164.399384 
L 224.992973 164.29645 
L 225.082641 164.193516 
L 225.172309 164.29645 
L 225.620649 163.472978 
L 225.799985 164.399384 
L 225.979321 163.987648 
L 226.248326 164.605252 
L 226.337994 164.29645 
L 226.427662 164.605252 
L 226.696666 164.193516 
L 226.786334 164.399384 
L 226.876002 164.914054 
L 227.055338 164.193516 
L 227.145006 164.399384 
L 227.41401 163.78178 
L 227.503678 162.546573 
L 227.683015 164.29645 
L 227.862351 164.090582 
L 228.131355 164.605252 
L 228.310691 164.090582 
L 228.400359 164.29645 
L 228.490027 164.193516 
L 228.579695 164.29645 
L 228.669363 163.987648 
L 228.759031 164.193516 
L 228.848699 164.81112 
L 228.938367 164.502318 
L 229.028036 164.605252 
L 229.117704 165.222855 
L 229.207372 165.016988 
L 229.476376 166.046327 
L 229.566044 165.634591 
L 229.655712 166.046327 
L 230.014384 165.016988 
L 230.104052 165.531657 
L 230.19372 165.428723 
L 230.283388 165.634591 
L 230.462725 165.119921 
L 230.552393 165.634591 
L 230.642061 165.222855 
L 230.731729 166.252195 
L 230.911065 165.737525 
L 231.090401 166.458063 
L 231.269737 166.046327 
L 231.359405 166.149261 
L 231.449073 166.560997 
L 231.718078 165.737525 
L 231.807746 166.252195 
L 231.897414 165.737525 
L 231.987082 166.046327 
L 232.07675 165.943393 
L 232.256086 166.458063 
L 232.435422 166.663931 
L 232.614758 166.560997 
L 232.794094 166.663931 
L 232.883762 166.560997 
L 232.97343 166.766865 
L 233.152767 166.663931 
L 233.421771 167.075667 
L 233.511439 167.075667 
L 233.780443 167.899138 
L 233.870111 167.899138 
L 234.049447 168.722609 
L 234.228783 168.619674 
L 234.587456 168.619674 
L 234.766792 169.031413 
L 234.946128 169.134344 
L 235.3048 170.266619 
L 235.573804 170.987155 
L 235.663472 170.987155 
L 235.842809 171.295959 
L 236.022145 171.501826 
L 236.201481 171.913561 
L 236.291149 172.016496 
L 236.649821 173.457571 
L 237.456834 176.85439 
L 237.546502 176.85439 
L 237.725838 177.677864 
L 237.725838 177.677864 
" clip-path="url(#p69bc433f83)" style="fill: none; stroke: #333333; stroke-width: 0.8; stroke-linecap: square"/>
   </g>
   <g id="line2d_16">
    <path d="M 237.725838 154.620659 
L 237.994842 155.44413 
L 238.08451 155.44413 
L 238.174178 155.9588 
L 238.263846 155.855866 
L 238.353514 155.9588 
L 238.443182 156.370536 
L 238.53285 156.267601 
L 238.891523 156.576405 
L 238.981191 156.576405 
L 239.160527 156.885206 
L 239.877871 158.429216 
L 240.057208 158.223347 
L 240.146876 158.326282 
L 240.236544 158.635082 
L 240.41588 158.532148 
L 240.774552 159.046818 
L 240.86422 159.561488 
L 240.953888 159.252687 
L 241.133224 159.664423 
L 241.222892 159.664423 
L 241.312561 159.973223 
L 241.491897 159.870289 
L 241.581565 160.076158 
L 241.671233 159.664423 
L 241.850569 160.076158 
L 241.940237 159.973223 
L 242.119573 160.076158 
L 242.209241 160.076158 
L 242.388577 160.590828 
L 242.74725 160.693762 
L 242.836918 160.89963 
L 243.105922 160.487894 
L 243.19559 160.796696 
L 243.285258 160.590828 
L 243.464594 160.89963 
L 243.64393 160.693762 
L 243.733598 161.002564 
L 243.823266 160.89963 
L 244.002602 161.208431 
L 244.092271 161.208431 
L 244.181939 161.414299 
L 244.271607 161.208431 
L 244.361275 161.414299 
L 244.719947 161.105497 
L 244.809615 161.208431 
L 245.078619 161.002564 
L 245.616628 162.031903 
L 245.706296 161.826035 
L 245.885632 162.134837 
L 246.064968 161.826035 
L 246.154636 162.031903 
L 246.333972 161.723101 
L 246.42364 161.826035 
L 246.602976 161.723101 
L 246.692644 162.134837 
L 246.782313 162.031903 
L 246.871981 162.134837 
L 247.051317 162.443639 
L 247.140985 162.649507 
L 247.320321 162.443639 
L 247.409989 162.546573 
L 247.858329 162.031903 
L 247.947997 162.237771 
L 248.037665 162.031903 
L 248.217002 162.443639 
L 248.30667 162.031903 
L 248.486006 162.546573 
L 248.75501 162.649507 
L 248.934346 162.958308 
L 249.113682 162.649507 
L 249.20335 162.855375 
L 249.293018 162.649507 
L 249.382686 162.752441 
L 249.562023 162.649507 
L 249.741359 162.855375 
L 249.831027 162.958308 
L 249.920695 162.855375 
L 250.010363 162.958308 
L 250.100031 163.370044 
L 250.189699 163.267111 
L 250.279367 163.267111 
L 250.458703 163.061242 
L 250.548371 163.164177 
L 250.727707 162.958308 
L 250.817375 163.061242 
L 251.08638 162.649507 
L 251.176048 163.061242 
L 251.265716 162.958308 
L 251.355384 162.855375 
L 251.445052 163.164177 
L 251.53472 163.061242 
L 251.624388 163.267111 
L 251.98306 162.855375 
L 252.072728 163.061242 
L 252.252064 162.649507 
L 252.431401 162.649507 
L 252.610737 162.958308 
L 252.790073 163.061242 
L 252.879741 163.267111 
L 253.059077 163.164177 
L 253.238413 163.267111 
L 253.328081 163.370044 
L 253.417749 162.958308 
L 253.507417 163.061242 
L 253.597085 163.164177 
L 253.686754 162.855375 
L 253.955758 163.164177 
L 254.045426 162.752441 
L 254.135094 162.855375 
L 254.583434 163.370044 
L 254.673102 163.164177 
L 254.76277 163.267111 
L 254.942106 162.958308 
L 255.031775 163.061242 
L 255.121443 162.649507 
L 255.300779 162.855375 
L 255.390447 162.649507 
L 255.480115 162.855375 
L 255.659451 162.443639 
L 255.838787 162.958308 
L 256.376796 162.855375 
L 256.466464 162.649507 
L 256.556132 162.855375 
L 256.735468 162.546573 
L 256.825136 162.443639 
L 257.09414 162.855375 
L 257.183808 162.649507 
L 257.452812 163.061242 
L 257.54248 163.164177 
L 257.632148 162.958308 
L 257.811485 163.061242 
L 258.080489 162.855375 
L 258.259825 162.958308 
L 258.349493 162.649507 
L 258.618497 162.855375 
L 258.708165 162.752441 
L 258.797833 162.958308 
L 258.887501 162.752441 
L 258.977169 162.958308 
L 259.066837 162.855375 
L 259.156506 163.267111 
L 259.246174 163.164177 
L 259.335842 163.061242 
L 259.515178 163.267111 
L 259.784182 162.855375 
L 260.232522 162.958308 
L 260.591195 163.370044 
L 260.680863 163.164177 
L 260.860199 163.472978 
L 261.039535 163.061242 
L 261.129203 163.164177 
L 261.398207 162.752441 
L 261.487875 162.649507 
L 261.577543 162.958308 
L 261.756879 162.752441 
L 261.936216 163.267111 
L 262.115552 162.958308 
L 262.294888 163.164177 
L 262.474224 163.164177 
L 262.563892 162.855375 
L 262.65356 162.958308 
L 262.832896 162.752441 
L 263.012232 162.958308 
L 263.1019 162.855375 
L 263.639909 163.370044 
L 263.729577 163.370044 
L 263.819245 163.061242 
L 263.998581 163.164177 
L 264.177917 162.958308 
L 264.357253 163.061242 
L 264.446921 163.061242 
L 264.536589 162.855375 
L 264.805594 163.267111 
L 264.895262 163.061242 
L 265.074598 163.472978 
L 265.164266 163.370044 
L 265.253934 163.472978 
L 265.43327 163.164177 
L 265.612606 163.370044 
L 265.702274 163.061242 
L 265.791942 163.164177 
L 265.971279 162.958308 
L 266.150615 163.164177 
L 266.240283 163.164177 
L 266.509287 163.575912 
L 266.598955 163.678846 
L 266.957627 163.370044 
L 267.136963 163.472978 
L 267.226631 163.370044 
L 267.316299 163.061242 
L 267.405968 163.370044 
L 267.495636 163.267111 
L 267.854308 163.678846 
L 267.943976 163.575912 
L 268.123312 163.78178 
L 268.21298 163.678846 
L 268.302648 163.78178 
L 268.392316 163.575912 
L 268.481984 163.78178 
L 268.66132 163.370044 
L 268.750989 163.472978 
L 268.840657 163.267111 
L 269.288997 163.678846 
L 269.468333 163.678846 
L 269.647669 163.884714 
L 270.006341 163.78178 
L 270.365014 163.472978 
L 270.54435 163.575912 
L 270.634018 163.78178 
L 270.723686 163.472978 
L 270.903022 163.884714 
L 270.99269 163.78178 
L 271.261694 164.193516 
L 271.351362 163.884714 
L 271.441031 163.987648 
L 271.530699 163.678846 
L 271.620367 163.78178 
L 271.799703 163.472978 
L 271.889371 163.575912 
L 271.979039 163.472978 
L 272.068707 163.78178 
L 272.248043 163.575912 
L 272.427379 163.78178 
L 272.517047 163.884714 
L 272.786051 163.575912 
L 272.87572 163.678846 
L 273.055056 163.370044 
L 273.144724 163.575912 
L 273.234392 163.370044 
L 273.32406 163.575912 
L 273.413728 163.472978 
L 273.503396 163.164177 
L 273.682732 163.472978 
L 273.951736 163.472978 
L 274.041404 163.678846 
L 274.131072 163.575912 
L 274.220741 163.78178 
L 274.669081 163.370044 
L 275.207089 163.472978 
L 275.386425 163.575912 
L 275.476093 163.472978 
L 275.565762 163.884714 
L 275.65543 163.678846 
L 275.745098 163.78178 
L 276.014102 163.472978 
L 276.10377 163.575912 
L 276.193438 163.164177 
L 276.283106 163.370044 
L 276.462442 163.267111 
L 276.55211 163.267111 
L 276.641778 163.472978 
L 276.731446 163.370044 
L 276.821114 163.678846 
L 276.910783 163.472978 
L 277.090119 163.884714 
L 277.359123 163.678846 
L 277.448791 163.78178 
L 277.897131 163.370044 
L 277.986799 163.472978 
L 278.076467 163.370044 
L 278.255803 163.678846 
L 278.614476 163.678846 
L 278.704144 164.090582 
L 278.973148 163.678846 
L 279.242152 163.370044 
L 279.33182 163.472978 
L 279.421488 163.267111 
L 280.049165 163.884714 
L 280.318169 163.78178 
L 280.587173 163.575912 
L 280.856177 163.575912 
L 280.945845 163.370044 
L 281.125182 163.678846 
L 281.304518 163.678846 
L 281.394186 163.884714 
L 281.483854 163.78178 
L 281.573522 163.884714 
L 281.66319 163.78178 
L 281.752858 163.987648 
L 281.842526 163.78178 
L 281.932194 163.884714 
L 282.11153 163.575912 
L 282.380534 163.472978 
L 282.470203 163.370044 
L 282.739207 163.78178 
L 282.918543 163.678846 
L 283.187547 163.884714 
L 283.366883 163.678846 
L 283.725555 163.678846 
L 283.904892 163.370044 
L 284.084228 163.370044 
L 284.263564 163.884714 
L 284.353232 163.678846 
L 284.622236 163.884714 
L 284.89124 163.884714 
L 285.070576 163.678846 
L 285.249913 163.678846 
L 285.339581 163.472978 
L 285.429249 163.575912 
L 285.518917 163.472978 
L 285.608585 163.987648 
L 285.698253 163.78178 
L 285.877589 163.987648 
L 286.056925 164.090582 
L 286.415597 164.090582 
L 286.505266 163.78178 
L 286.594934 163.987648 
L 286.77427 163.78178 
L 287.043274 163.987648 
L 287.22261 163.987648 
L 287.491614 164.502318 
L 287.581282 164.29645 
L 287.67095 164.399384 
L 288.119291 163.987648 
L 288.208959 164.090582 
L 288.298627 163.78178 
L 288.477963 163.987648 
L 288.836635 164.29645 
L 289.284976 164.193516 
L 289.374644 163.987648 
L 289.55398 164.090582 
L 289.733316 163.987648 
L 290.00232 163.678846 
L 290.091988 164.090582 
L 290.181656 163.884714 
L 290.360992 164.193516 
L 290.629997 164.502318 
L 290.899001 164.29645 
L 290.988669 164.29645 
L 291.078337 164.090582 
L 291.168005 164.193516 
L 291.347341 164.090582 
L 291.616345 164.193516 
L 291.795681 164.605252 
L 292.244022 164.502318 
L 292.423358 164.193516 
L 292.602694 164.090582 
L 292.78203 163.987648 
L 292.961366 163.884714 
L 293.051034 163.78178 
L 293.23037 164.090582 
L 293.320038 164.193516 
L 293.409707 164.090582 
L 293.678711 164.502318 
L 293.858047 164.193516 
L 294.127051 163.78178 
L 294.216719 163.884714 
L 294.306387 163.78178 
L 294.485723 163.987648 
L 294.754728 164.090582 
L 294.934064 164.502318 
L 295.1134 164.399384 
L 295.382404 164.399384 
L 295.56174 164.090582 
L 295.651408 163.987648 
L 295.741076 164.29645 
L 295.920412 164.090582 
L 296.189417 164.090582 
L 296.279085 164.29645 
L 296.368753 164.193516 
L 296.637757 164.605252 
L 296.817093 164.193516 
L 296.906761 164.605252 
L 297.086097 163.987648 
L 297.175765 164.29645 
L 297.265433 164.090582 
L 297.534438 164.29645 
L 297.713774 164.399384 
L 297.982778 164.81112 
L 298.610454 164.708186 
L 298.879459 164.502318 
L 299.058795 164.605252 
L 299.327799 165.016988 
L 299.417467 164.914054 
L 299.596803 165.325789 
L 299.865807 165.119921 
L 300.493484 165.222855 
L 300.852156 165.943393 
L 300.941824 165.840459 
L 301.210828 166.149261 
L 301.479832 165.840459 
L 301.569501 166.046327 
L 301.748837 165.737525 
L 302.017841 165.737525 
L 302.197177 166.149261 
L 302.645517 166.663931 
L 302.824853 166.458063 
L 303.362862 166.560997 
L 303.45253 166.663931 
L 303.721534 167.281533 
L 303.811202 167.178602 
L 303.990538 167.590337 
L 304.080206 167.590337 
L 304.349211 168.002073 
L 304.438879 167.796203 
L 304.618215 168.002073 
L 304.707883 168.002073 
L 304.887219 168.310873 
L 304.976887 168.310873 
L 305.245891 168.928478 
L 305.335559 169.031413 
L 305.604563 169.751949 
L 305.694232 169.751949 
L 305.7839 169.957818 
L 305.963236 169.751949 
L 306.321908 170.06075 
L 306.411576 170.06075 
L 306.770248 170.987155 
L 307.308257 172.016496 
L 307.397925 171.913561 
L 307.577261 172.428231 
L 307.666929 172.325296 
L 308.115269 173.560506 
L 308.742946 175.413317 
L 308.832614 175.310382 
L 309.370622 176.648524 
L 309.908631 178.707201 
L 309.998299 178.91307 
L 310.625975 181.898153 
L 310.715643 182.104022 
L 311.253652 184.574435 
L 311.79166 186.530181 
L 312.24 188.280057 
L 313.226349 193.32382 
L 313.316017 193.52969 
L 313.405685 193.426755 
L 313.495353 193.83849 
L 313.585021 193.52969 
L 313.764357 193.83849 
L 313.854025 193.735556 
L 314.033362 193.735556 
L 314.12303 194.04436 
L 314.840374 191.676879 
L 315.199046 188.691793 
L 315.647387 186.838981 
L 316.185395 178.91307 
L 316.454399 172.942901 
L 317.261412 132.695727 
L 317.440748 131.254638 
L 317.530416 131.563439 
L 317.709752 133.416263 
L 318.696101 147.003546 
L 318.875437 147.724085 
L 318.965105 147.827017 
L 319.144441 147.518216 
L 319.413446 145.974205 
L 319.951454 142.474452 
L 320.13079 142.062717 
L 320.220458 142.165648 
L 320.399794 141.856848 
L 320.668798 142.165648 
L 320.758467 142.062717 
L 320.848135 142.165648 
L 321.027471 142.680319 
L 321.117139 142.577387 
L 321.386143 143.400858 
L 321.475811 143.400858 
L 321.655147 144.01846 
L 321.834483 144.430198 
L 322.282824 144.841934 
L 322.372492 144.738999 
L 322.46216 144.944868 
L 322.551828 144.841934 
L 322.641496 144.944868 
L 322.820832 145.253669 
L 322.9105 145.253669 
L 323.269172 146.59181 
L 323.448508 146.694745 
L 323.717513 147.62115 
L 324.255521 148.650491 
L 324.345189 148.753422 
L 324.972866 150.709168 
L 325.331538 151.223838 
L 325.421206 151.429707 
L 325.510874 151.326773 
L 325.779878 152.150244 
L 325.869546 152.150244 
L 326.228219 153.38545 
L 327.124899 154.41479 
L 327.214567 154.311855 
L 327.393903 154.826526 
L 327.483571 154.92946 
L 327.662908 155.547065 
L 327.752576 155.547065 
L 328.111248 156.473471 
L 328.200916 156.370536 
L 328.46992 156.473471 
L 328.559588 156.576405 
L 328.649256 156.370536 
L 328.91826 157.194007 
L 329.276933 157.708677 
L 329.545937 158.326282 
L 329.635605 158.120412 
L 329.725273 158.223347 
L 329.814941 158.120412 
L 330.890958 159.458553 
L 330.980626 159.664423 
L 331.070294 159.458553 
L 331.428966 159.870289 
L 331.608302 159.561488 
L 331.697971 159.561488 
L 331.787639 159.767357 
L 331.877307 159.664423 
L 332.146311 160.179093 
L 332.863655 160.179093 
L 332.953323 159.973223 
L 333.042991 160.076158 
L 333.13266 159.973223 
L 333.939672 160.796696 
L 334.02934 160.796696 
L 334.208676 160.590828 
L 334.298344 160.796696 
L 334.657017 160.487894 
L 334.746685 160.796696 
L 334.836353 160.693762 
L 334.926021 161.002564 
L 335.015689 160.89963 
L 335.195025 161.208431 
L 335.374361 161.105497 
L 335.464029 161.311365 
L 335.553697 161.208431 
L 335.643365 161.414299 
L 335.822702 161.208431 
L 335.91237 161.311365 
L 336.002038 161.208431 
L 336.091706 161.311365 
L 336.271042 161.208431 
L 336.36071 161.414299 
L 336.450378 161.311365 
L 336.540046 161.723101 
L 336.629714 161.620167 
L 336.719382 161.620167 
L 336.988386 162.031903 
L 337.167723 161.723101 
L 337.257391 161.928969 
L 337.347059 161.311365 
L 337.436727 161.414299 
L 337.526395 161.517233 
L 337.616063 161.311365 
L 337.974735 161.826035 
L 338.064403 161.620167 
L 338.243739 162.031903 
L 338.333407 161.928969 
L 338.512743 162.237771 
L 338.69208 162.237771 
L 338.871416 161.928969 
L 339.050752 162.031903 
L 339.14042 161.723101 
L 339.230088 162.134837 
L 339.319756 161.928969 
L 339.409424 162.031903 
L 339.58876 162.340705 
L 339.857764 162.546573 
L 339.947433 162.340705 
L 340.126769 162.443639 
L 340.306105 162.031903 
L 340.485441 162.237771 
L 340.575109 161.928969 
L 340.664777 162.237771 
L 340.844113 161.826035 
L 341.023449 162.340705 
L 341.113117 162.237771 
L 341.202785 162.340705 
L 341.292454 162.237771 
L 341.47179 162.546573 
L 341.651126 162.134837 
L 341.740794 162.237771 
L 341.830462 162.031903 
L 341.92013 162.237771 
L 342.099466 161.928969 
L 342.36847 162.443639 
L 342.458138 162.340705 
L 342.816811 162.649507 
L 342.906479 162.546573 
L 342.996147 162.752441 
L 343.265151 162.237771 
L 343.982495 162.237771 
L 344.072164 162.443639 
L 344.2515 162.237771 
L 344.520504 162.443639 
L 344.789508 161.928969 
L 344.879176 162.031903 
L 344.968844 161.723101 
L 345.058512 161.826035 
L 345.237848 161.620167 
L 345.417185 162.237771 
L 345.506853 162.031903 
L 345.596521 161.928969 
L 345.686189 162.237771 
L 345.955193 162.031903 
L 346.134529 162.237771 
L 346.403533 161.826035 
L 346.493201 162.031903 
L 346.762206 161.826035 
L 346.941542 161.928969 
L 347.03121 162.340705 
L 347.120878 162.237771 
L 347.210546 162.237771 
L 347.300214 162.031903 
L 347.389882 162.134837 
L 347.47955 162.546573 
L 347.658886 162.134837 
L 347.748554 162.134837 
L 347.838222 161.928969 
L 347.92789 162.237771 
L 348.017558 162.134837 
L 348.107226 161.723101 
L 348.286563 161.928969 
L 348.555567 162.340705 
L 348.645235 162.031903 
L 348.734903 162.340705 
L 348.824571 162.031903 
L 348.914239 162.443639 
L 349.003907 162.340705 
L 349.093575 162.237771 
L 349.183243 162.546573 
L 349.362579 162.031903 
L 349.452247 162.134837 
L 349.541916 162.443639 
L 349.631584 162.340705 
L 349.81092 162.443639 
L 349.900588 162.134837 
L 350.079924 162.443639 
L 350.169592 162.443639 
L 350.25926 162.958308 
L 350.438596 162.237771 
L 350.617932 162.546573 
L 350.797268 161.928969 
L 350.886937 162.134837 
L 350.976605 162.031903 
L 351.066273 162.237771 
L 351.245609 161.723101 
L 351.604281 162.546573 
L 351.693949 162.340705 
L 351.783617 163.164177 
L 351.962953 162.134837 
L 352.052621 162.031903 
L 352.142289 162.752441 
L 352.231958 162.443639 
L 352.321626 161.723101 
L 352.411294 161.928969 
L 352.500962 163.061242 
L 352.769966 161.414299 
L 352.949302 162.134837 
L 353.03897 162.443639 
L 353.218306 162.237771 
L 353.307974 162.752441 
L 353.397642 162.546573 
L 353.48731 162.649507 
L 353.845983 162.237771 
L 354.025319 161.517233 
L 354.204655 162.031903 
L 354.294323 162.340705 
L 354.383991 161.826035 
L 354.742663 162.752441 
L 354.832331 162.443639 
L 354.921999 162.958308 
L 355.011668 162.855375 
L 355.101336 162.752441 
L 355.280672 162.237771 
L 355.37034 162.443639 
L 355.549676 162.031903 
L 355.639344 162.134837 
L 355.729012 162.031903 
L 355.908348 162.649507 
L 355.998016 162.443639 
L 356.087684 162.855375 
L 356.177352 162.031903 
L 356.26702 162.340705 
L 356.356689 162.031903 
L 356.446357 163.678846 
L 356.625693 163.061242 
L 356.715361 163.061242 
L 356.894697 162.237771 
L 356.984365 162.237771 
L 357.074033 162.958308 
L 357.163701 162.031903 
L 357.253369 163.061242 
L 357.343037 161.928969 
L 357.522373 163.370044 
L 357.612041 162.855375 
L 357.70171 162.855375 
L 357.881046 163.164177 
L 357.970714 162.546573 
L 358.060382 162.752441 
L 358.15005 163.267111 
L 358.329386 162.443639 
L 358.688058 162.443639 
L 358.867394 162.958308 
L 358.957062 163.061242 
L 359.136399 162.958308 
L 359.226067 163.472978 
L 359.405403 163.164177 
L 359.495071 163.370044 
L 359.674407 163.164177 
L 360.122747 162.752441 
L 360.48142 163.061242 
L 360.840092 163.164177 
L 360.92976 163.370044 
L 361.109096 162.546573 
L 361.288432 162.855375 
L 361.3781 162.649507 
L 361.467768 162.855375 
L 361.647104 162.649507 
L 361.736772 162.546573 
L 361.916109 162.855375 
L 362.812789 162.855375 
L 362.902457 162.546573 
L 363.081793 162.752441 
L 363.171461 162.546573 
L 363.26113 162.855375 
L 363.440466 162.752441 
L 363.70947 163.164177 
L 363.799138 163.061242 
L 363.978474 162.958308 
L 364.068142 162.958308 
L 364.15781 162.752441 
L 364.247478 162.855375 
L 364.426814 162.649507 
L 364.875155 162.546573 
L 364.964823 162.958308 
L 365.054491 162.752441 
L 365.233827 162.958308 
L 365.323495 162.855375 
L 365.413163 162.958308 
L 365.502831 162.855375 
L 365.592499 162.546573 
L 365.682167 162.752441 
L 365.771835 162.649507 
L 365.861503 162.340705 
L 365.951172 162.649507 
L 366.130508 162.443639 
L 366.309844 162.649507 
L 366.578848 162.958308 
L 366.668516 162.855375 
L 366.758184 163.267111 
L 366.847852 162.855375 
L 366.93752 162.958308 
L 367.385861 162.855375 
L 367.475529 162.649507 
L 367.654865 162.752441 
L 367.834201 162.855375 
L 367.923869 163.061242 
L 368.013537 162.958308 
L 368.192873 163.164177 
L 368.282541 163.061242 
L 368.372209 163.164177 
L 368.551545 162.958308 
L 368.641213 163.061242 
L 368.82055 162.958308 
L 368.910218 162.958308 
L 368.999886 162.752441 
L 369.089554 162.855375 
L 369.26889 162.649507 
L 369.71723 163.267111 
L 369.806898 163.164177 
L 369.896566 163.164177 
L 370.165571 162.752441 
L 370.255239 162.958308 
L 370.344907 162.649507 
L 370.524243 162.752441 
L 370.703579 162.443639 
L 370.882915 162.752441 
L 370.972583 162.855375 
L 371.062251 163.164177 
L 371.151919 162.958308 
L 371.241587 163.164177 
L 371.420924 162.958308 
L 371.60026 162.855375 
L 371.689928 162.855375 
L 371.779596 162.649507 
L 371.869264 162.752441 
L 371.958932 162.546573 
L 372.0486 162.649507 
L 372.138268 162.546573 
L 372.586608 162.958308 
L 372.765945 162.855375 
L 372.945281 163.164177 
L 373.214285 162.752441 
L 373.841961 162.649507 
L 374.021297 162.958308 
L 374.200634 163.061242 
L 374.290302 163.164177 
L 374.37997 163.061242 
L 374.559306 163.164177 
L 374.82831 162.649507 
L 375.007646 162.958308 
L 375.097314 162.752441 
L 375.455986 163.267111 
L 375.545655 163.164177 
L 375.724991 163.575912 
L 375.904327 163.164177 
L 375.993995 163.370044 
L 376.173331 163.267111 
L 376.262999 163.267111 
L 376.442335 162.958308 
L 377.070012 163.575912 
L 377.60802 163.575912 
L 377.787356 163.164177 
L 377.877024 163.061242 
L 378.05636 163.267111 
L 378.146028 162.958308 
L 378.235696 163.164177 
L 378.415033 163.061242 
L 378.594369 163.370044 
L 378.773705 163.267111 
L 379.042709 163.472978 
L 379.132377 163.061242 
L 379.222045 163.267111 
L 379.311713 162.958308 
L 379.401381 163.164177 
L 379.491049 162.855375 
L 379.849722 163.472978 
L 380.029058 163.267111 
L 380.208394 163.472978 
L 380.38773 163.575912 
L 380.83607 163.472978 
L 381.105075 163.267111 
L 381.374079 163.267111 
L 381.553415 163.678846 
L 381.643083 163.370044 
L 381.732751 163.78178 
L 381.822419 163.370044 
L 381.912087 163.678846 
L 382.091423 163.370044 
L 382.181091 162.958308 
L 382.270759 163.267111 
L 382.539764 162.958308 
L 382.808768 163.472978 
L 382.898436 163.164177 
L 383.077772 163.267111 
L 383.16744 163.678846 
L 383.346776 163.164177 
L 383.436444 163.472978 
L 383.884785 162.958308 
L 384.153789 163.370044 
L 384.243457 163.575912 
L 384.333125 163.267111 
L 384.512461 163.884714 
L 384.602129 163.575912 
L 384.781465 163.78178 
L 384.871133 163.678846 
L 384.960801 163.78178 
L 385.319474 163.267111 
L 385.49881 163.575912 
L 385.678146 163.370044 
L 385.857482 163.678846 
L 386.036818 163.78178 
L 386.216154 163.987648 
L 386.305822 163.987648 
L 386.485159 163.78178 
L 386.574827 164.090582 
L 386.933499 163.678846 
L 387.023167 163.884714 
L 387.202503 163.678846 
L 387.381839 164.193516 
L 387.561175 164.193516 
L 387.650843 164.502318 
L 387.740511 164.29645 
L 387.83018 164.502318 
L 388.009516 164.29645 
L 388.099184 164.399384 
L 388.27852 164.090582 
L 388.368188 164.29645 
L 388.457856 164.193516 
L 388.547524 164.29645 
L 388.637192 164.193516 
L 388.906196 164.708186 
L 389.085532 164.605252 
L 389.444205 164.914054 
L 389.533873 164.708186 
L 389.623541 164.81112 
L 389.802877 164.708186 
L 389.982213 164.81112 
L 390.161549 165.119921 
L 390.340885 165.016988 
L 390.520221 165.325789 
L 390.699558 165.531657 
L 390.789226 165.222855 
L 390.968562 165.428723 
L 391.05823 165.531657 
L 391.147898 165.222855 
L 391.237566 165.634591 
L 391.327234 165.428723 
L 391.416902 165.531657 
L 391.596238 165.428723 
L 392.134247 166.149261 
L 392.313583 166.458063 
L 392.403251 166.149261 
L 392.582587 166.355129 
L 392.672255 166.149261 
L 392.851591 166.560997 
L 392.941259 166.560997 
L 393.030927 166.355129 
L 393.658604 167.590337 
L 393.748272 167.487403 
L 394.017276 167.899138 
L 394.196612 167.899138 
L 394.28628 168.105007 
L 394.465616 167.899138 
L 394.734621 168.619674 
L 394.913957 168.928478 
L 395.272629 169.957818 
L 395.362297 169.854884 
L 395.451965 170.06075 
L 395.541633 169.854884 
L 395.810637 170.266619 
L 395.900305 170.06075 
L 396.976322 172.531166 
L 397.06599 172.325296 
L 397.155658 172.428231 
L 397.334994 173.148771 
L 397.424663 173.045836 
L 397.603999 173.457571 
L 397.873003 174.589843 
L 398.052339 175.001579 
L 398.321343 176.236788 
L 398.411011 176.236788 
L 399.038688 177.88373 
L 399.39736 179.42774 
L 400.025036 182.104022 
L 400.114704 182.104022 
L 401.459725 188.794727 
L 401.639062 189.721133 
L 401.908066 190.956339 
L 402.356406 192.80915 
L 402.446074 192.80915 
L 402.62541 193.220886 
L 402.715078 193.117954 
L 402.804746 193.32382 
L 402.984083 192.80915 
L 403.073751 192.912085 
L 403.253087 192.603284 
L 403.432423 192.500349 
L 403.611759 192.191549 
L 403.791095 191.573944 
L 404.239435 189.721133 
L 404.598108 187.353652 
L 404.687776 187.147785 
L 404.95678 184.574435 
L 405.584456 174.692778 
L 405.853461 160.384959 
L 406.301801 135.989614 
L 406.570805 131.357583 
L 406.660473 131.151726 
L 406.839809 132.798658 
L 407.826158 146.07714 
L 408.095162 147.518216 
L 408.274498 147.209415 
L 408.633171 145.768339 
L 409.171179 142.268583 
L 409.350515 141.650982 
L 409.440183 141.548047 
L 409.529851 141.239243 
L 409.709187 141.445112 
L 409.978192 141.856848 
L 410.247196 142.474452 
L 410.336864 142.371518 
L 410.5162 142.783253 
L 410.695536 142.989123 
L 410.96454 143.606724 
L 411.054208 143.503793 
L 411.412881 144.430198 
L 411.592217 144.738999 
L 411.771553 145.150734 
L 411.950889 144.944868 
L 412.040557 145.0478 
L 412.130225 145.356604 
L 412.219893 145.253669 
L 412.399229 145.459535 
L 412.668234 146.385941 
L 412.757902 146.488875 
L 413.116574 147.62115 
L 413.475246 148.650491 
L 413.654582 148.856357 
L 413.923587 149.473961 
L 414.371927 150.606233 
L 414.640931 151.326773 
L 414.909935 151.944377 
L 414.999603 151.738508 
L 415.358276 152.459044 
L 415.447944 152.459044 
L 415.896284 153.694254 
L 416.344624 154.620659 
L 416.52396 154.620659 
L 416.703297 154.826526 
L 416.972301 155.032395 
L 416.972301 155.032395 
" clip-path="url(#p69bc433f83)" style="fill: none; stroke: #d94452; stroke-width: 0.8; stroke-linecap: square"/>
   </g>
   <g id="text_17">
    <g id="patch_7">
     <path d="M 89.402606 297.890637 
L 206.802606 297.890637 
Q 209.802606 297.890637 209.802606 294.890637 
L 209.802606 284.290637 
Q 209.802606 281.290637 206.802606 281.290637 
L 89.402606 281.290637 
Q 86.402606 281.290637 86.402606 284.290637 
L 86.402606 294.890637 
Q 86.402606 297.890637 89.402606 297.890637 
z
" style="fill: #ffffff; opacity: 0.85; stroke: #333333; stroke-linejoin: miter"/>
    </g>
    <!-- I$_{p-p}$ = 1.51E-03 mA/m² -->
    <g style="fill: #333333" transform="translate(89.402606 291.790637) scale(0.1 -0.1)">
     <defs>
      <path id="DejaVuSans-49" d="M 628 4666 
L 1259 4666 
L 1259 0 
L 628 0 
L 628 4666 
z
" transform="scale(0.015625)"/>
      <path id="DejaVuSans-Oblique-70" d="M 3175 2156 
Q 3175 2616 2975 2859 
Q 2775 3103 2400 3103 
Q 2144 3103 1911 2972 
Q 1678 2841 1497 2591 
Q 1319 2344 1212 1994 
Q 1106 1644 1106 1300 
Q 1106 863 1306 627 
Q 1506 391 1875 391 
Q 2147 391 2380 519 
Q 2613 647 2778 891 
Q 2956 1147 3065 1494 
Q 3175 1841 3175 2156 
z
M 1394 2969 
Q 1625 3272 1939 3428 
Q 2253 3584 2638 3584 
Q 3175 3584 3472 3232 
Q 3769 2881 3769 2247 
Q 3769 1728 3584 1258 
Q 3400 788 3053 416 
Q 2822 169 2531 39 
Q 2241 -91 1919 -91 
Q 1547 -91 1294 64 
Q 1041 219 916 525 
L 556 -1331 
L -19 -1331 
L 922 3500 
L 1497 3500 
L 1394 2969 
z
" transform="scale(0.015625)"/>
      <path id="DejaVuSans-20" transform="scale(0.015625)"/>
      <path id="DejaVuSans-3d" d="M 678 2906 
L 4684 2906 
L 4684 2381 
L 678 2381 
L 678 2906 
z
M 678 1631 
L 4684 1631 
L 4684 1100 
L 678 1100 
L 678 1631 
z
" transform="scale(0.015625)"/>
      <path id="DejaVuSans-45" d="M 628 4666 
L 3578 4666 
L 3578 4134 
L 1259 4134 
L 1259 2753 
L 3481 2753 
L 3481 2222 
L 1259 2222 
L 1259 531 
L 3634 531 
L 3634 0 
L 628 0 
L 628 4666 
z
" transform="scale(0.015625)"/>
      <path id="DejaVuSans-2d" d="M 313 2009 
L 1997 2009 
L 1997 1497 
L 313 1497 
L 313 2009 
z
" transform="scale(0.015625)"/>
      <path id="DejaVuSans-6d" d="M 3328 2828 
Q 3544 3216 3844 3400 
Q 4144 3584 4550 3584 
Q 5097 3584 5394 3201 
Q 5691 2819 5691 2113 
L 5691 0 
L 5113 0 
L 5113 2094 
Q 5113 2597 4934 2840 
Q 4756 3084 4391 3084 
Q 3944 3084 3684 2787 
Q 3425 2491 3425 1978 
L 3425 0 
L 2847 0 
L 2847 2094 
Q 2847 2600 2669 2842 
Q 2491 3084 2119 3084 
Q 1678 3084 1418 2786 
Q 1159 2488 1159 1978 
L 1159 0 
L 581 0 
L 581 3500 
L 1159 3500 
L 1159 2956 
Q 1356 3278 1631 3431 
Q 1906 3584 2284 3584 
Q 2666 3584 2933 3390 
Q 3200 3197 3328 2828 
z
" transform="scale(0.015625)"/>
      <path id="DejaVuSans-41" d="M 2188 4044 
L 1331 1722 
L 3047 1722 
L 2188 4044 
z
M 1831 4666 
L 2547 4666 
L 4325 0 
L 3669 0 
L 3244 1197 
L 1141 1197 
L 716 0 
L 50 0 
L 1831 4666 
z
" transform="scale(0.015625)"/>
      <path id="DejaVuSans-2f" d="M 1625 4666 
L 2156 4666 
L 531 -594 
L 0 -594 
L 1625 4666 
z
" transform="scale(0.015625)"/>
      <path id="DejaVuSans-b2" d="M 838 2444 
L 2163 2444 
L 2163 2088 
L 294 2088 
L 294 2431 
Q 400 2528 597 2703 
Q 1672 3656 1672 3950 
Q 1672 4156 1509 4282 
Q 1347 4409 1081 4409 
Q 919 4409 728 4354 
Q 538 4300 313 4191 
L 313 4575 
Q 553 4663 761 4706 
Q 969 4750 1147 4750 
Q 1600 4750 1872 4544 
Q 2144 4338 2144 4000 
Q 2144 3566 1109 2678 
Q 934 2528 838 2444 
z
" transform="scale(0.015625)"/>
     </defs>
     <use xlink:href="#DejaVuSans-49" transform="translate(0 0.78125)"/>
     <use xlink:href="#DejaVuSans-Oblique-70" transform="translate(30.449219 -15.625) scale(0.7)"/>
     <use xlink:href="#DejaVuSans-2212" transform="translate(88.520508 -15.625) scale(0.7)"/>
     <use xlink:href="#DejaVuSans-Oblique-70" transform="translate(160.810547 -15.625) scale(0.7)"/>
     <use xlink:href="#DejaVuSans-20" transform="translate(207.978516 0.78125)"/>
     <use xlink:href="#DejaVuSans-3d" transform="translate(239.765625 0.78125)"/>
     <use xlink:href="#DejaVuSans-20" transform="translate(323.554688 0.78125)"/>
     <use xlink:href="#DejaVuSans-31" transform="translate(355.341797 0.78125)"/>
     <use xlink:href="#DejaVuSans-2e" transform="translate(418.964844 0.78125)"/>
     <use xlink:href="#DejaVuSans-35" transform="translate(450.751953 0.78125)"/>
     <use xlink:href="#DejaVuSans-31" transform="translate(514.375 0.78125)"/>
     <use xlink:href="#DejaVuSans-45" transform="translate(577.998047 0.78125)"/>
     <use xlink:href="#DejaVuSans-2d" transform="translate(641.181641 0.78125)"/>
     <use xlink:href="#DejaVuSans-30" transform="translate(677.265625 0.78125)"/>
     <use xlink:href="#DejaVuSans-33" transform="translate(740.888672 0.78125)"/>
     <use xlink:href="#DejaVuSans-20" transform="translate(804.511719 0.78125)"/>
     <use xlink:href="#DejaVuSans-6d" transform="translate(836.298828 0.78125)"/>
     <use xlink:href="#DejaVuSans-41" transform="translate(933.710938 0.78125)"/>
     <use xlink:href="#DejaVuSans-2f" transform="translate(1002.119141 0.78125)"/>
     <use xlink:href="#DejaVuSans-6d" transform="translate(1035.810547 0.78125)"/>
     <use xlink:href="#DejaVuSans-b2" transform="translate(1133.222656 0.78125)"/>
    </g>
   </g>
   <g id="text_18">
    <g id="patch_8">
     <path d="M 268.749069 297.890637 
L 385.949069 297.890637 
Q 388.949069 297.890637 388.949069 294.890637 
L 388.949069 284.290637 
Q 388.949069 281.290637 385.949069 281.290637 
L 268.749069 281.290637 
Q 265.749069 281.290637 265.749069 284.290637 
L 265.749069 294.890637 
Q 265.749069 297.890637 268.749069 297.890637 
z
" style="fill: #ffffff; opacity: 0.85; stroke: #d94452; stroke-linejoin: miter"/>
    </g>
    <!-- I$_{p-p}$ = 4.92E-04 mA/m² -->
    <g style="fill: #d94452" transform="translate(268.749069 291.790637) scale(0.1 -0.1)">
     <defs>
      <path id="DejaVuSans-34" d="M 2419 4116 
L 825 1625 
L 2419 1625 
L 2419 4116 
z
M 2253 4666 
L 3047 4666 
L 3047 1625 
L 3713 1625 
L 3713 1100 
L 3047 1100 
L 3047 0 
L 2419 0 
L 2419 1100 
L 313 1100 
L 313 1709 
L 2253 4666 
z
" transform="scale(0.015625)"/>
      <path id="DejaVuSans-39" d="M 703 97 
L 703 672 
Q 941 559 1184 500 
Q 1428 441 1663 441 
Q 2288 441 2617 861 
Q 2947 1281 2994 2138 
Q 2813 1869 2534 1725 
Q 2256 1581 1919 1581 
Q 1219 1581 811 2004 
Q 403 2428 403 3163 
Q 403 3881 828 4315 
Q 1253 4750 1959 4750 
Q 2769 4750 3195 4129 
Q 3622 3509 3622 2328 
Q 3622 1225 3098 567 
Q 2575 -91 1691 -91 
Q 1453 -91 1209 -44 
Q 966 3 703 97 
z
M 1959 2075 
Q 2384 2075 2632 2365 
Q 2881 2656 2881 3163 
Q 2881 3666 2632 3958 
Q 2384 4250 1959 4250 
Q 1534 4250 1286 3958 
Q 1038 3666 1038 3163 
Q 1038 2656 1286 2365 
Q 1534 2075 1959 2075 
z
" transform="scale(0.015625)"/>
     </defs>
     <use xlink:href="#DejaVuSans-49" transform="translate(0 0.78125)"/>
     <use xlink:href="#DejaVuSans-Oblique-70" transform="translate(30.449219 -15.625) scale(0.7)"/>
     <use xlink:href="#DejaVuSans-2212" transform="translate(88.520508 -15.625) scale(0.7)"/>
     <use xlink:href="#DejaVuSans-Oblique-70" transform="translate(160.810547 -15.625) scale(0.7)"/>
     <use xlink:href="#DejaVuSans-20" transform="translate(207.978516 0.78125)"/>
     <use xlink:href="#DejaVuSans-3d" transform="translate(239.765625 0.78125)"/>
     <use xlink:href="#DejaVuSans-20" transform="translate(323.554688 0.78125)"/>
     <use xlink:href="#DejaVuSans-34" transform="translate(355.341797 0.78125)"/>
     <use xlink:href="#DejaVuSans-2e" transform="translate(418.964844 0.78125)"/>
     <use xlink:href="#DejaVuSans-39" transform="translate(450.751953 0.78125)"/>
     <use xlink:href="#DejaVuSans-32" transform="translate(512.625 0.78125)"/>
     <use xlink:href="#DejaVuSans-45" transform="translate(576.248047 0.78125)"/>
     <use xlink:href="#DejaVuSans-2d" transform="translate(639.431641 0.78125)"/>
     <use xlink:href="#DejaVuSans-30" transform="translate(675.515625 0.78125)"/>
     <use xlink:href="#DejaVuSans-34" transform="translate(739.138672 0.78125)"/>
     <use xlink:href="#DejaVuSans-20" transform="translate(802.761719 0.78125)"/>
     <use xlink:href="#DejaVuSans-6d" transform="translate(834.548828 0.78125)"/>
     <use xlink:href="#DejaVuSans-41" transform="translate(931.960938 0.78125)"/>
     <use xlink:href="#DejaVuSans-2f" transform="translate(1000.369141 0.78125)"/>
     <use xlink:href="#DejaVuSans-6d" transform="translate(1034.060547 0.78125)"/>
     <use xlink:href="#DejaVuSans-b2" transform="translate(1131.472656 0.78125)"/>
    </g>
   </g>
   <g id="text_19">
    <g id="patch_9">
     <path d="M 348.601107 50.1638 
L 406.217513 50.1638 
Q 411.417513 50.1638 411.417513 44.9638 
L 411.417513 32.382237 
Q 411.417513 27.182237 406.217513 27.182237 
L 348.601107 27.182237 
Q 343.401107 27.182237 343.401107 32.382237 
L 343.401107 44.9638 
Q 343.401107 50.1638 348.601107 50.1638 
z
" style="fill: #ffffff; opacity: 0.9; stroke: #4a90d9; stroke-width: 1.5; stroke-linejoin: miter"/>
    </g>
    <!-- f = 1 Hz -->
    <g style="fill: #4a90d9" transform="translate(348.601107 42.260206) scale(0.13 -0.13)">
     <defs>
      <path id="DejaVuSans-Bold-66" d="M 2841 4863 
L 2841 4128 
L 2222 4128 
Q 1984 4128 1890 4042 
Q 1797 3956 1797 3744 
L 1797 3500 
L 2753 3500 
L 2753 2700 
L 1797 2700 
L 1797 0 
L 678 0 
L 678 2700 
L 122 2700 
L 122 3500 
L 678 3500 
L 678 3744 
Q 678 4316 997 4589 
Q 1316 4863 1984 4863 
L 2841 4863 
z
" transform="scale(0.015625)"/>
      <path id="DejaVuSans-Bold-3d" d="M 678 3084 
L 4684 3084 
L 4684 2350 
L 678 2350 
L 678 3084 
z
M 678 1663 
L 4684 1663 
L 4684 922 
L 678 922 
L 678 1663 
z
" transform="scale(0.015625)"/>
      <path id="DejaVuSans-Bold-31" d="M 750 831 
L 1813 831 
L 1813 3847 
L 722 3622 
L 722 4441 
L 1806 4666 
L 2950 4666 
L 2950 831 
L 4013 831 
L 4013 0 
L 750 0 
L 750 831 
z
" transform="scale(0.015625)"/>
      <path id="DejaVuSans-Bold-48" d="M 588 4666 
L 1791 4666 
L 1791 2888 
L 3566 2888 
L 3566 4666 
L 4769 4666 
L 4769 0 
L 3566 0 
L 3566 1978 
L 1791 1978 
L 1791 0 
L 588 0 
L 588 4666 
z
" transform="scale(0.015625)"/>
      <path id="DejaVuSans-Bold-7a" d="M 366 3500 
L 3419 3500 
L 3419 2719 
L 1575 800 
L 3419 800 
L 3419 0 
L 288 0 
L 288 781 
L 2131 2700 
L 366 2700 
L 366 3500 
z
" transform="scale(0.015625)"/>
     </defs>
     <use xlink:href="#DejaVuSans-Bold-66"/>
     <use xlink:href="#DejaVuSans-Bold-20" transform="translate(43.505859 0)"/>
     <use xlink:href="#DejaVuSans-Bold-3d" transform="translate(78.320312 0)"/>
     <use xlink:href="#DejaVuSans-Bold-20" transform="translate(162.109375 0)"/>
     <use xlink:href="#DejaVuSans-Bold-31" transform="translate(196.923828 0)"/>
     <use xlink:href="#DejaVuSans-Bold-20" transform="translate(266.503906 0)"/>
     <use xlink:href="#DejaVuSans-Bold-48" transform="translate(301.318359 0)"/>
     <use xlink:href="#DejaVuSans-Bold-7a" transform="translate(385.009766 0)"/>
    </g>
   </g>
   <g id="text_20">
    <!-- Without MIC -->
    <g style="fill: #333333" transform="translate(99.370575 43.02005) scale(0.14 -0.14)">
     <defs>
      <path id="DejaVuSans-Bold-57" d="M 191 4666 
L 1344 4666 
L 2150 1275 
L 2950 4666 
L 4109 4666 
L 4909 1275 
L 5716 4666 
L 6859 4666 
L 5759 0 
L 4372 0 
L 3525 3547 
L 2688 0 
L 1300 0 
L 191 4666 
z
" transform="scale(0.015625)"/>
      <path id="DejaVuSans-Bold-74" d="M 1759 4494 
L 1759 3500 
L 2913 3500 
L 2913 2700 
L 1759 2700 
L 1759 1216 
Q 1759 972 1856 886 
Q 1953 800 2241 800 
L 2816 800 
L 2816 0 
L 1856 0 
Q 1194 0 917 276 
Q 641 553 641 1216 
L 641 2700 
L 84 2700 
L 84 3500 
L 641 3500 
L 641 4494 
L 1759 4494 
z
" transform="scale(0.015625)"/>
      <path id="DejaVuSans-Bold-68" d="M 4056 2131 
L 4056 0 
L 2931 0 
L 2931 347 
L 2931 1625 
Q 2931 2084 2911 2256 
Q 2891 2428 2841 2509 
Q 2775 2619 2662 2680 
Q 2550 2741 2406 2741 
Q 2056 2741 1856 2470 
Q 1656 2200 1656 1722 
L 1656 0 
L 538 0 
L 538 4863 
L 1656 4863 
L 1656 2988 
Q 1909 3294 2193 3439 
Q 2478 3584 2822 3584 
Q 3428 3584 3742 3212 
Q 4056 2841 4056 2131 
z
" transform="scale(0.015625)"/>
      <path id="DejaVuSans-Bold-6f" d="M 2203 2784 
Q 1831 2784 1636 2517 
Q 1441 2250 1441 1747 
Q 1441 1244 1636 976 
Q 1831 709 2203 709 
Q 2569 709 2762 976 
Q 2956 1244 2956 1747 
Q 2956 2250 2762 2517 
Q 2569 2784 2203 2784 
z
M 2203 3584 
Q 3106 3584 3614 3096 
Q 4122 2609 4122 1747 
Q 4122 884 3614 396 
Q 3106 -91 2203 -91 
Q 1297 -91 786 396 
Q 275 884 275 1747 
Q 275 2609 786 3096 
Q 1297 3584 2203 3584 
z
" transform="scale(0.015625)"/>
      <path id="DejaVuSans-Bold-75" d="M 500 1363 
L 500 3500 
L 1625 3500 
L 1625 3150 
Q 1625 2866 1622 2436 
Q 1619 2006 1619 1863 
Q 1619 1441 1641 1255 
Q 1663 1069 1716 984 
Q 1784 875 1895 815 
Q 2006 756 2150 756 
Q 2500 756 2700 1025 
Q 2900 1294 2900 1772 
L 2900 3500 
L 4019 3500 
L 4019 0 
L 2900 0 
L 2900 506 
Q 2647 200 2364 54 
Q 2081 -91 1741 -91 
Q 1134 -91 817 281 
Q 500 653 500 1363 
z
" transform="scale(0.015625)"/>
      <path id="DejaVuSans-Bold-4d" d="M 588 4666 
L 2119 4666 
L 3181 2169 
L 4250 4666 
L 5778 4666 
L 5778 0 
L 4641 0 
L 4641 3413 
L 3566 897 
L 2803 897 
L 1728 3413 
L 1728 0 
L 588 0 
L 588 4666 
z
" transform="scale(0.015625)"/>
      <path id="DejaVuSans-Bold-43" d="M 4288 256 
Q 3956 84 3597 -3 
Q 3238 -91 2847 -91 
Q 1681 -91 1000 561 
Q 319 1213 319 2328 
Q 319 3447 1000 4098 
Q 1681 4750 2847 4750 
Q 3238 4750 3597 4662 
Q 3956 4575 4288 4403 
L 4288 3438 
Q 3953 3666 3628 3772 
Q 3303 3878 2944 3878 
Q 2300 3878 1931 3465 
Q 1563 3053 1563 2328 
Q 1563 1606 1931 1193 
Q 2300 781 2944 781 
Q 3303 781 3628 887 
Q 3953 994 4288 1222 
L 4288 256 
z
" transform="scale(0.015625)"/>
     </defs>
     <use xlink:href="#DejaVuSans-Bold-57"/>
     <use xlink:href="#DejaVuSans-Bold-69" transform="translate(110.302734 0)"/>
     <use xlink:href="#DejaVuSans-Bold-74" transform="translate(144.580078 0)"/>
     <use xlink:href="#DejaVuSans-Bold-68" transform="translate(192.382812 0)"/>
     <use xlink:href="#DejaVuSans-Bold-6f" transform="translate(263.574219 0)"/>
     <use xlink:href="#DejaVuSans-Bold-75" transform="translate(332.275391 0)"/>
     <use xlink:href="#DejaVuSans-Bold-74" transform="translate(403.466797 0)"/>
     <use xlink:href="#DejaVuSans-Bold-20" transform="translate(451.269531 0)"/>
     <use xlink:href="#DejaVuSans-Bold-4d" transform="translate(486.083984 0)"/>
     <use xlink:href="#DejaVuSans-Bold-49" transform="translate(585.595703 0)"/>
     <use xlink:href="#DejaVuSans-Bold-43" transform="translate(622.802734 0)"/>
    </g>
   </g>
   <g id="text_21">
    <!-- With MIC -->
    <g style="fill: #d94452" transform="translate(291.755163 43.02005) scale(0.14 -0.14)">
     <use xlink:href="#DejaVuSans-Bold-57"/>
     <use xlink:href="#DejaVuSans-Bold-69" transform="translate(110.302734 0)"/>
     <use xlink:href="#DejaVuSans-Bold-74" transform="translate(144.580078 0)"/>
     <use xlink:href="#DejaVuSans-Bold-68" transform="translate(192.382812 0)"/>
     <use xlink:href="#DejaVuSans-Bold-20" transform="translate(263.574219 0)"/>
     <use xlink:href="#DejaVuSans-Bold-4d" transform="translate(298.388672 0)"/>
     <use xlink:href="#DejaVuSans-Bold-49" transform="translate(397.900391 0)"/>
     <use xlink:href="#DejaVuSans-Bold-43" transform="translate(435.107422 0)"/>
    </g>
   </g>
  </g>
 </g>
 <defs>
  <clipPath id="p69bc433f83">
   <rect x="58.479375" y="17.798437" width="358.492926" height="291.676"/>
  </clipPath>
 </defs>
</svg>
