<?xml version="1.0" encoding="utf-8" standalone="no"?>
<!DOCTYPE svg PUBLIC "-//W3C//DTD SVG 1.1//EN"
  "http://www.w3.org/Graphics/SVG/1.1/DTD/svg11.dtd">
<svg xmlns:xlink="http://www.w3.org/1999/xlink" width="424.525211pt" height="352.792812pt" viewBox="0 0 424.525211 352.792812" xmlns="http://www.w3.org/2000/svg" version="1.1">
 <metadata>
  <rdf:RDF xmlns:dc="http://purl.org/dc/elements/1.1/" xmlns:cc="http://creativecommons.org/ns#" xmlns:rdf="http://www.w3.org/1999/02/22-rdf-syntax-ns#">
   <cc:Work>
    <dc:type rdf:resource="http://purl.org/dc/dcmitype/StillImage"/>
    <dc:date>2026-04-26T16:38:45.785860</dc:date>
    <dc:format>image/svg+xml</dc:format>
    <dc:creator>
     <cc:Agent>
      <dc:title>Matplotlib v3.10.8, https://matplotlib.org/</dc:title>
     </cc:Agent>
    </dc:creator>
   </cc:Work>
  </rdf:RDF>
 </metadata>
 <defs>
  <style type="text/css">*{stroke-linejoin: round; stroke-linecap: butt}</style>
 </defs>
 <g id="figure_1">
  <g id="patch_1">
   <path d="M 0 352.792812 
L 424.525211 352.792812 
L 424.525211 0 
L 0 0 
z
" style="fill: #ffffff"/>
  </g>
  <g id="axes_1">
   <g id="patch_2">
    <path d="M 48.029375 310.3975 
L 413.825836 310.3975 
L 413.825836 34.3575 
L 48.029375 34.3575 
z
" style="fill: #ffffff"/>
   </g>
   <g id="patch_3">
    <path d="M 48.029375 310.3975 
L 169.961529 310.3975 
L 169.961529 34.3575 
L 48.029375 34.3575 
z
" clip-path="url(#p6db00fa863)" style="fill: #4a90d9; opacity: 0.15; stroke: #4a90d9; stroke-linejoin: miter"/>
   </g>
   <g id="patch_4">
    <path d="M 169.961529 310.3975 
L 291.893682 310.3975 
L 291.893682 34.3575 
L 169.961529 34.3575 
z
" clip-path="url(#p6db00fa863)" style="fill: #5cb85c; opacity: 0.15; stroke: #5cb85c; stroke-linejoin: miter"/>
   </g>
   <g id="patch_5">
    <path d="M 291.893682 310.3975 
L 413.825836 310.3975 
L 413.825836 34.3575 
L 291.893682 34.3575 
z
" clip-path="url(#p6db00fa863)" style="fill: #f0ad4e; opacity: 0.15; stroke: #f0ad4e; stroke-linejoin: miter"/>
   </g>
   <g id="matplotlib.axis_1">
    <g id="xtick_1">
     <g id="line2d_1">
      <defs>
       <path id="m8a7709992e" d="M 0 0 
L 0 3.5 
" style="stroke: #000000; stroke-width: 0.8"/>
      </defs>
      <g>
       <use xlink:href="#m8a7709992e" x="48.029375" y="310.3975" style="stroke: #000000; stroke-width: 0.8"/>
      </g>
     </g>
     <g id="text_1">
      <!-- 0 -->
      <g transform="translate(44.53 325.755781) scale(0.11 -0.11)">
       <defs>
        <path id="DejaVuSans-30" d="M 2034 4250 
Q 1547 4250 1301 3770 
Q 1056 3291 1056 2328 
Q 1056 1369 1301 889 
Q 1547 409 2034 409 
Q 2525 409 2770 889 
Q 3016 1369 3016 2328 
Q 3016 3291 2770 3770 
Q 2525 4250 2034 4250 
z
M 2034 4750 
Q 2819 4750 3233 4129 
Q 3647 3509 3647 2328 
Q 3647 1150 3233 529 
Q 2819 -91 2034 -91 
Q 1250 -91 836 529 
Q 422 1150 422 2328 
Q 422 3509 836 4129 
Q 1250 4750 2034 4750 
z
" transform="scale(0.015625)"/>
       </defs>
       <use xlink:href="#DejaVuSans-30"/>
      </g>
     </g>
    </g>
    <g id="xtick_2">
     <g id="line2d_2">
      <g>
       <use xlink:href="#m8a7709992e" x="108.995452" y="310.3975" style="stroke: #000000; stroke-width: 0.8"/>
      </g>
     </g>
     <g id="text_2">
      <!-- 1 -->
      <g transform="translate(105.496077 325.755781) scale(0.11 -0.11)">
       <defs>
        <path id="DejaVuSans-31" d="M 794 531 
L 1825 531 
L 1825 4091 
L 703 3866 
L 703 4441 
L 1819 4666 
L 2450 4666 
L 2450 531 
L 3481 531 
L 3481 0 
L 794 0 
L 794 531 
z
" transform="scale(0.015625)"/>
       </defs>
       <use xlink:href="#DejaVuSans-31"/>
      </g>
     </g>
    </g>
    <g id="xtick_3">
     <g id="line2d_3">
      <g>
       <use xlink:href="#m8a7709992e" x="169.961529" y="310.3975" style="stroke: #000000; stroke-width: 0.8"/>
      </g>
     </g>
     <g id="text_3">
      <!-- 2 -->
      <g transform="translate(166.462154 325.755781) scale(0.11 -0.11)">
       <defs>
        <path id="DejaVuSans-32" d="M 1228 531 
L 3431 531 
L 3431 0 
L 469 0 
L 469 531 
Q 828 903 1448 1529 
Q 2069 2156 2228 2338 
Q 2531 2678 2651 2914 
Q 2772 3150 2772 3378 
Q 2772 3750 2511 3984 
Q 2250 4219 1831 4219 
Q 1534 4219 1204 4116 
Q 875 4013 500 3803 
L 500 4441 
Q 881 4594 1212 4672 
Q 1544 4750 1819 4750 
Q 2544 4750 2975 4387 
Q 3406 4025 3406 3419 
Q 3406 3131 3298 2873 
Q 3191 2616 2906 2266 
Q 2828 2175 2409 1742 
Q 1991 1309 1228 531 
z
" transform="scale(0.015625)"/>
       </defs>
       <use xlink:href="#DejaVuSans-32"/>
      </g>
     </g>
    </g>
    <g id="xtick_4">
     <g id="line2d_4">
      <g>
       <use xlink:href="#m8a7709992e" x="230.927605" y="310.3975" style="stroke: #000000; stroke-width: 0.8"/>
      </g>
     </g>
     <g id="text_4">
      <!-- 3 -->
      <g transform="translate(227.42823 325.755781) scale(0.11 -0.11)">
       <defs>
        <path id="DejaVuSans-33" d="M 2597 2516 
Q 3050 2419 3304 2112 
Q 3559 1806 3559 1356 
Q 3559 666 3084 287 
Q 2609 -91 1734 -91 
Q 1441 -91 1130 -33 
Q 819 25 488 141 
L 488 750 
Q 750 597 1062 519 
Q 1375 441 1716 441 
Q 2309 441 2620 675 
Q 2931 909 2931 1356 
Q 2931 1769 2642 2001 
Q 2353 2234 1838 2234 
L 1294 2234 
L 1294 2753 
L 1863 2753 
Q 2328 2753 2575 2939 
Q 2822 3125 2822 3475 
Q 2822 3834 2567 4026 
Q 2313 4219 1838 4219 
Q 1578 4219 1281 4162 
Q 984 4106 628 3988 
L 628 4550 
Q 988 4650 1302 4700 
Q 1616 4750 1894 4750 
Q 2613 4750 3031 4423 
Q 3450 4097 3450 3541 
Q 3450 3153 3228 2886 
Q 3006 2619 2597 2516 
z
" transform="scale(0.015625)"/>
       </defs>
       <use xlink:href="#DejaVuSans-33"/>
      </g>
     </g>
    </g>
    <g id="xtick_5">
     <g id="line2d_5">
      <g>
       <use xlink:href="#m8a7709992e" x="291.893682" y="310.3975" style="stroke: #000000; stroke-width: 0.8"/>
      </g>
     </g>
     <g id="text_5">
      <!-- 4 -->
      <g transform="translate(288.394307 325.755781) scale(0.11 -0.11)">
       <defs>
        <path id="DejaVuSans-34" d="M 2419 4116 
L 825 1625 
L 2419 1625 
L 2419 4116 
z
M 2253 4666 
L 3047 4666 
L 3047 1625 
L 3713 1625 
L 3713 1100 
L 3047 1100 
L 3047 0 
L 2419 0 
L 2419 1100 
L 313 1100 
L 313 1709 
L 2253 4666 
z
" transform="scale(0.015625)"/>
       </defs>
       <use xlink:href="#DejaVuSans-34"/>
      </g>
     </g>
    </g>
    <g id="xtick_6">
     <g id="line2d_6">
      <g>
       <use xlink:href="#m8a7709992e" x="352.859759" y="310.3975" style="stroke: #000000; stroke-width: 0.8"/>
      </g>
     </g>
     <g id="text_6">
      <!-- 5 -->
      <g transform="translate(349.360384 325.755781) scale(0.11 -0.11)">
       <defs>
        <path id="DejaVuSans-35" d="M 691 4666 
L 3169 4666 
L 3169 4134 
L 1269 4134 
L 1269 2991 
Q 1406 3038 1543 3061 
Q 1681 3084 1819 3084 
Q 2600 3084 3056 2656 
Q 3513 2228 3513 1497 
Q 3513 744 3044 326 
Q 2575 -91 1722 -91 
Q 1428 -91 1123 -41 
Q 819 9 494 109 
L 494 744 
Q 775 591 1075 516 
Q 1375 441 1709 441 
Q 2250 441 2565 725 
Q 2881 1009 2881 1497 
Q 2881 1984 2565 2268 
Q 2250 2553 1709 2553 
Q 1456 2553 1204 2497 
Q 953 2441 691 2322 
L 691 4666 
z
" transform="scale(0.015625)"/>
       </defs>
       <use xlink:href="#DejaVuSans-35"/>
      </g>
     </g>
    </g>
    <g id="xtick_7">
     <g id="line2d_7">
      <g>
       <use xlink:href="#m8a7709992e" x="413.825836" y="310.3975" style="stroke: #000000; stroke-width: 0.8"/>
      </g>
     </g>
     <g id="text_7">
      <!-- 6 -->
      <g transform="translate(410.326461 325.755781) scale(0.11 -0.11)">
       <defs>
        <path id="DejaVuSans-36" d="M 2113 2584 
Q 1688 2584 1439 2293 
Q 1191 2003 1191 1497 
Q 1191 994 1439 701 
Q 1688 409 2113 409 
Q 2538 409 2786 701 
Q 3034 994 3034 1497 
Q 3034 2003 2786 2293 
Q 2538 2584 2113 2584 
z
M 3366 4563 
L 3366 3988 
Q 3128 4100 2886 4159 
Q 2644 4219 2406 4219 
Q 1781 4219 1451 3797 
Q 1122 3375 1075 2522 
Q 1259 2794 1537 2939 
Q 1816 3084 2150 3084 
Q 2853 3084 3261 2657 
Q 3669 2231 3669 1497 
Q 3669 778 3244 343 
Q 2819 -91 2113 -91 
Q 1303 -91 875 529 
Q 447 1150 447 2328 
Q 447 3434 972 4092 
Q 1497 4750 2381 4750 
Q 2619 4750 2861 4703 
Q 3103 4656 3366 4563 
z
" transform="scale(0.015625)"/>
       </defs>
       <use xlink:href="#DejaVuSans-36"/>
      </g>
     </g>
    </g>
    <g id="text_8">
     <!-- Time (s) -->
     <g transform="translate(198.709012 342.68125) scale(0.14 -0.14)">
      <defs>
       <path id="DejaVuSans-Bold-54" d="M 31 4666 
L 4331 4666 
L 4331 3756 
L 2784 3756 
L 2784 0 
L 1581 0 
L 1581 3756 
L 31 3756 
L 31 4666 
z
" transform="scale(0.015625)"/>
       <path id="DejaVuSans-Bold-69" d="M 538 3500 
L 1656 3500 
L 1656 0 
L 538 0 
L 538 3500 
z
M 538 4863 
L 1656 4863 
L 1656 3950 
L 538 3950 
L 538 4863 
z
" transform="scale(0.015625)"/>
       <path id="DejaVuSans-Bold-6d" d="M 3781 2919 
Q 3994 3244 4286 3414 
Q 4578 3584 4928 3584 
Q 5531 3584 5847 3212 
Q 6163 2841 6163 2131 
L 6163 0 
L 5038 0 
L 5038 1825 
Q 5041 1866 5042 1909 
Q 5044 1953 5044 2034 
Q 5044 2406 4934 2573 
Q 4825 2741 4581 2741 
Q 4263 2741 4089 2478 
Q 3916 2216 3909 1719 
L 3909 0 
L 2784 0 
L 2784 1825 
Q 2784 2406 2684 2573 
Q 2584 2741 2328 2741 
Q 2006 2741 1831 2477 
Q 1656 2213 1656 1722 
L 1656 0 
L 531 0 
L 531 3500 
L 1656 3500 
L 1656 2988 
Q 1863 3284 2130 3434 
Q 2397 3584 2719 3584 
Q 3081 3584 3359 3409 
Q 3638 3234 3781 2919 
z
" transform="scale(0.015625)"/>
       <path id="DejaVuSans-Bold-65" d="M 4031 1759 
L 4031 1441 
L 1416 1441 
Q 1456 1047 1700 850 
Q 1944 653 2381 653 
Q 2734 653 3104 758 
Q 3475 863 3866 1075 
L 3866 213 
Q 3469 63 3072 -14 
Q 2675 -91 2278 -91 
Q 1328 -91 801 392 
Q 275 875 275 1747 
Q 275 2603 792 3093 
Q 1309 3584 2216 3584 
Q 3041 3584 3536 3087 
Q 4031 2591 4031 1759 
z
M 2881 2131 
Q 2881 2450 2695 2645 
Q 2509 2841 2209 2841 
Q 1884 2841 1681 2658 
Q 1478 2475 1428 2131 
L 2881 2131 
z
" transform="scale(0.015625)"/>
       <path id="DejaVuSans-Bold-20" transform="scale(0.015625)"/>
       <path id="DejaVuSans-Bold-28" d="M 2413 -844 
L 1484 -844 
Q 1006 -72 778 623 
Q 550 1319 550 2003 
Q 550 2688 779 3389 
Q 1009 4091 1484 4856 
L 2413 4856 
Q 2013 4116 1813 3408 
Q 1613 2700 1613 2009 
Q 1613 1319 1811 609 
Q 2009 -100 2413 -844 
z
" transform="scale(0.015625)"/>
       <path id="DejaVuSans-Bold-73" d="M 3272 3391 
L 3272 2541 
Q 2913 2691 2578 2766 
Q 2244 2841 1947 2841 
Q 1628 2841 1473 2761 
Q 1319 2681 1319 2516 
Q 1319 2381 1436 2309 
Q 1553 2238 1856 2203 
L 2053 2175 
Q 2913 2066 3209 1816 
Q 3506 1566 3506 1031 
Q 3506 472 3093 190 
Q 2681 -91 1863 -91 
Q 1516 -91 1145 -36 
Q 775 19 384 128 
L 384 978 
Q 719 816 1070 734 
Q 1422 653 1784 653 
Q 2113 653 2278 743 
Q 2444 834 2444 1013 
Q 2444 1163 2330 1236 
Q 2216 1309 1875 1350 
L 1678 1375 
Q 931 1469 631 1722 
Q 331 1975 331 2491 
Q 331 3047 712 3315 
Q 1094 3584 1881 3584 
Q 2191 3584 2531 3537 
Q 2872 3491 3272 3391 
z
" transform="scale(0.015625)"/>
       <path id="DejaVuSans-Bold-29" d="M 513 -844 
Q 913 -100 1113 609 
Q 1313 1319 1313 2009 
Q 1313 2700 1113 3408 
Q 913 4116 513 4856 
L 1441 4856 
Q 1916 4091 2145 3389 
Q 2375 2688 2375 2003 
Q 2375 1319 2147 623 
Q 1919 -72 1441 -844 
L 513 -844 
z
" transform="scale(0.015625)"/>
      </defs>
      <use xlink:href="#DejaVuSans-Bold-54"/>
      <use xlink:href="#DejaVuSans-Bold-69" transform="translate(68.212891 0)"/>
      <use xlink:href="#DejaVuSans-Bold-6d" transform="translate(102.490234 0)"/>
      <use xlink:href="#DejaVuSans-Bold-65" transform="translate(206.689453 0)"/>
      <use xlink:href="#DejaVuSans-Bold-20" transform="translate(274.511719 0)"/>
      <use xlink:href="#DejaVuSans-Bold-28" transform="translate(309.326172 0)"/>
      <use xlink:href="#DejaVuSans-Bold-73" transform="translate(355.029297 0)"/>
      <use xlink:href="#DejaVuSans-Bold-29" transform="translate(414.550781 0)"/>
     </g>
    </g>
   </g>
   <g id="matplotlib.axis_2">
    <g id="ytick_1">
     <g id="line2d_8">
      <defs>
       <path id="m66ed253c01" d="M 0 0 
L -3.5 0 
" style="stroke: #000000; stroke-width: 0.8"/>
      </defs>
      <g>
       <use xlink:href="#m66ed253c01" x="48.029375" y="264.554462" style="stroke: #000000; stroke-width: 0.8"/>
      </g>
     </g>
     <g id="text_9">
      <!-- $\mathdefault{−2}$ -->
      <g transform="translate(24.749375 268.733603) scale(0.11 -0.11)">
       <defs>
        <path id="DejaVuSans-2212" d="M 678 2272 
L 4684 2272 
L 4684 1741 
L 678 1741 
L 678 2272 
z
" transform="scale(0.015625)"/>
       </defs>
       <use xlink:href="#DejaVuSans-2212" transform="translate(0 0.78125)"/>
       <use xlink:href="#DejaVuSans-32" transform="translate(83.789062 0.78125)"/>
      </g>
     </g>
    </g>
    <g id="ytick_2">
     <g id="line2d_9">
      <g>
       <use xlink:href="#m66ed253c01" x="48.029375" y="218.465981" style="stroke: #000000; stroke-width: 0.8"/>
      </g>
     </g>
     <g id="text_10">
      <!-- $\mathdefault{−1}$ -->
      <g transform="translate(24.749375 222.645122) scale(0.11 -0.11)">
       <use xlink:href="#DejaVuSans-2212" transform="translate(0 0.09375)"/>
       <use xlink:href="#DejaVuSans-31" transform="translate(83.789062 0.09375)"/>
      </g>
     </g>
    </g>
    <g id="ytick_3">
     <g id="line2d_10">
      <g>
       <use xlink:href="#m66ed253c01" x="48.029375" y="172.3775" style="stroke: #000000; stroke-width: 0.8"/>
      </g>
     </g>
     <g id="text_11">
      <!-- $\mathdefault{0}$ -->
      <g transform="translate(33.989375 176.556641) scale(0.11 -0.11)">
       <use xlink:href="#DejaVuSans-30" transform="translate(0 0.78125)"/>
      </g>
     </g>
    </g>
    <g id="ytick_4">
     <g id="line2d_11">
      <g>
       <use xlink:href="#m66ed253c01" x="48.029375" y="126.289019" style="stroke: #000000; stroke-width: 0.8"/>
      </g>
     </g>
     <g id="text_12">
      <!-- $\mathdefault{1}$ -->
      <g transform="translate(33.989375 130.468159) scale(0.11 -0.11)">
       <use xlink:href="#DejaVuSans-31" transform="translate(0 0.09375)"/>
      </g>
     </g>
    </g>
    <g id="ytick_5">
     <g id="line2d_12">
      <g>
       <use xlink:href="#m66ed253c01" x="48.029375" y="80.200538" style="stroke: #000000; stroke-width: 0.8"/>
      </g>
     </g>
     <g id="text_13">
      <!-- $\mathdefault{2}$ -->
      <g transform="translate(33.989375 84.379678) scale(0.11 -0.11)">
       <use xlink:href="#DejaVuSans-32" transform="translate(0 0.78125)"/>
      </g>
     </g>
    </g>
    <g id="text_14">
     <!-- I$_{sc}$ (mA/m²) -->
     <g transform="translate(17.837812 215.0075) rotate(-90) scale(0.14 -0.14)">
      <defs>
       <path id="DejaVuSans-Bold-49" d="M 588 4666 
L 1791 4666 
L 1791 0 
L 588 0 
L 588 4666 
z
" transform="scale(0.015625)"/>
       <path id="DejaVuSans-Oblique-73" d="M 3200 3397 
L 3091 2853 
Q 2863 2978 2609 3040 
Q 2356 3103 2088 3103 
Q 1634 3103 1373 2948 
Q 1113 2794 1113 2528 
Q 1113 2219 1719 2053 
Q 1766 2041 1788 2034 
L 1972 1978 
Q 2547 1819 2739 1644 
Q 2931 1469 2931 1166 
Q 2931 609 2489 259 
Q 2047 -91 1331 -91 
Q 1053 -91 747 -37 
Q 441 16 72 128 
L 184 722 
Q 500 559 806 475 
Q 1113 391 1394 391 
Q 1816 391 2080 572 
Q 2344 753 2344 1031 
Q 2344 1331 1650 1516 
L 1591 1531 
L 1394 1581 
Q 956 1697 753 1886 
Q 550 2075 550 2369 
Q 550 2928 970 3256 
Q 1391 3584 2113 3584 
Q 2397 3584 2667 3537 
Q 2938 3491 3200 3397 
z
" transform="scale(0.015625)"/>
       <path id="DejaVuSans-Oblique-63" d="M 3431 3366 
L 3316 2797 
Q 3109 2947 2876 3022 
Q 2644 3097 2394 3097 
Q 2119 3097 1870 3000 
Q 1622 2903 1453 2725 
Q 1184 2453 1037 2087 
Q 891 1722 891 1331 
Q 891 859 1127 628 
Q 1363 397 1844 397 
Q 2081 397 2348 469 
Q 2616 541 2906 684 
L 2797 116 
Q 2547 13 2283 -39 
Q 2019 -91 1741 -91 
Q 1044 -91 669 257 
Q 294 606 294 1253 
Q 294 1797 489 2255 
Q 684 2713 1069 3078 
Q 1331 3328 1684 3456 
Q 2038 3584 2456 3584 
Q 2700 3584 2940 3529 
Q 3181 3475 3431 3366 
z
" transform="scale(0.015625)"/>
       <path id="DejaVuSans-Bold-41" d="M 3419 850 
L 1538 850 
L 1241 0 
L 31 0 
L 1759 4666 
L 3194 4666 
L 4922 0 
L 3713 0 
L 3419 850 
z
M 1838 1716 
L 3116 1716 
L 2478 3572 
L 1838 1716 
z
" transform="scale(0.015625)"/>
       <path id="DejaVuSans-Bold-2f" d="M 1644 4666 
L 2338 4666 
L 691 -594 
L 0 -594 
L 1644 4666 
z
" transform="scale(0.015625)"/>
       <path id="DejaVuSans-Bold-b2" d="M 1288 2613 
L 2444 2613 
L 2444 2088 
L 341 2088 
L 341 2566 
L 1319 3397 
Q 1509 3563 1590 3688 
Q 1672 3813 1672 3938 
Q 1672 4094 1558 4191 
Q 1444 4288 1259 4288 
Q 1066 4288 844 4217 
Q 622 4147 359 4000 
L 359 4581 
Q 631 4666 886 4708 
Q 1141 4750 1375 4750 
Q 1869 4750 2150 4548 
Q 2431 4347 2431 4000 
Q 2431 3775 2320 3586 
Q 2209 3397 1894 3128 
L 1288 2613 
z
" transform="scale(0.015625)"/>
      </defs>
      <use xlink:href="#DejaVuSans-Bold-49" transform="translate(0 0.125)"/>
      <use xlink:href="#DejaVuSans-Oblique-73" transform="translate(38.164062 -16.28125) scale(0.7)"/>
      <use xlink:href="#DejaVuSans-Oblique-63" transform="translate(74.633789 -16.28125) scale(0.7)"/>
      <use xlink:href="#DejaVuSans-Bold-20" transform="translate(115.854492 0.125)"/>
      <use xlink:href="#DejaVuSans-Bold-28" transform="translate(150.668945 0.125)"/>
      <use xlink:href="#DejaVuSans-Bold-6d" transform="translate(196.37207 0.125)"/>
      <use xlink:href="#DejaVuSans-Bold-41" transform="translate(300.571289 0.125)"/>
      <use xlink:href="#DejaVuSans-Bold-2f" transform="translate(377.963867 0.125)"/>
      <use xlink:href="#DejaVuSans-Bold-6d" transform="translate(414.487305 0.125)"/>
      <use xlink:href="#DejaVuSans-Bold-b2" transform="translate(518.686523 0.125)"/>
      <use xlink:href="#DejaVuSans-Bold-29" transform="translate(562.485352 0.125)"/>
     </g>
    </g>
    <g id="text_15">
     <!-- $\times\mathdefault{10^{−3}}\mathdefault{}$ -->
     <g transform="translate(48.029375 31.3575) scale(0.1 -0.1)">
      <defs>
       <path id="DejaVuSans-d7" d="M 4488 3438 
L 3059 2003 
L 4488 575 
L 4116 197 
L 2681 1631 
L 1247 197 
L 878 575 
L 2303 2003 
L 878 3438 
L 1247 3816 
L 2681 2381 
L 4116 3816 
L 4488 3438 
z
" transform="scale(0.015625)"/>
      </defs>
      <use xlink:href="#DejaVuSans-d7" transform="translate(0 0.765625)"/>
      <use xlink:href="#DejaVuSans-31" transform="translate(83.789062 0.765625)"/>
      <use xlink:href="#DejaVuSans-30" transform="translate(147.412109 0.765625)"/>
      <use xlink:href="#DejaVuSans-2212" transform="translate(211.992188 39.046875) scale(0.7)"/>
      <use xlink:href="#DejaVuSans-33" transform="translate(270.644531 39.046875) scale(0.7)"/>
     </g>
    </g>
   </g>
   <g id="patch_6">
    <path d="M 48.029375 310.3975 
L 48.029375 34.3575 
" style="fill: none; stroke: #000000; stroke-width: 0.8; stroke-linejoin: miter; stroke-linecap: square"/>
   </g>
   <g id="patch_7">
    <path d="M 48.029375 310.3975 
L 413.825836 310.3975 
" style="fill: none; stroke: #000000; stroke-width: 0.8; stroke-linejoin: miter; stroke-linecap: square"/>
   </g>
   <g id="line2d_13">
    <path d="M 48.029375 171.687717 
L 48.334205 171.761935 
L 48.517104 171.836153 
L 48.700002 171.687717 
L 48.760968 171.761935 
L 48.821934 171.687717 
L 49.065798 171.724826 
L 49.18773 171.57639 
L 49.248697 171.687717 
L 49.370629 171.724826 
L 49.492561 171.724826 
L 49.553527 171.836153 
L 49.614493 171.761935 
L 50.102222 171.539281 
L 50.163188 171.761935 
L 50.224154 171.724826 
L 50.407052 171.799044 
L 50.528984 171.94748 
L 50.711882 171.687717 
L 50.772848 171.799044 
L 50.833815 171.687717 
L 50.955747 171.687717 
L 51.016713 171.502172 
L 51.077679 171.650608 
L 51.199611 171.687717 
L 51.382509 171.910371 
L 51.504441 171.873262 
L 51.565407 171.94748 
L 51.68734 171.650608 
L 51.870238 172.021699 
L 51.931204 171.873262 
L 51.99217 172.021699 
L 52.053136 171.984589 
L 52.114102 171.984589 
L 52.175068 171.873262 
L 52.418933 172.318571 
L 52.479899 172.170135 
L 52.540865 172.244353 
L 52.601831 172.207244 
L 52.662797 172.318571 
L 52.723763 172.244353 
L 52.845695 172.095917 
L 52.967627 172.392789 
L 53.028593 172.244353 
L 53.089559 172.281462 
L 53.211492 172.244353 
L 53.272458 172.207244 
L 53.39439 172.467007 
L 53.516322 172.429898 
L 53.882118 172.35568 
L 53.943084 172.318571 
L 54.125983 172.578334 
L 54.247915 172.467007 
L 54.491779 172.875206 
L 54.613711 172.72677 
L 54.674677 172.763879 
L 54.79661 172.800988 
L 54.857576 172.763879 
L 55.10144 173.060751 
L 55.284338 172.986533 
L 55.528202 173.431842 
L 55.589169 173.320515 
L 55.893999 173.543169 
L 55.954965 173.543169 
L 56.015931 173.728714 
L 56.076897 173.691605 
L 56.381728 173.988478 
L 56.625592 174.359567 
L 56.869456 174.582222 
L 57.052354 174.804877 
L 57.235253 175.02753 
L 57.601049 175.918147 
L 57.662015 175.881038 
L 57.905879 176.437674 
L 58.088778 176.808763 
L 58.637472 178.775542 
L 59.430031 183.005973 
L 60.22259 190.687543 
L 60.832251 200.33589 
L 61.62481 211.654138 
L 61.746742 211.951006 
L 61.868674 211.617025 
L 62.051573 209.613144 
L 62.478335 200.706972 
L 63.087996 179.183742 
L 63.514759 158.810883 
L 63.819589 153.578504 
L 64.73408 144.189912 
L 64.977944 142.816878 
L 65.099877 142.631337 
L 65.221809 142.816878 
L 65.404707 143.670391 
L 65.648571 145.191864 
L 66.563062 153.058983 
L 67.904316 162.113585 
L 68.818807 165.527617 
L 69.123638 166.306907 
L 69.24557 166.603779 
L 70.586823 168.904539 
L 70.708756 168.941649 
L 70.95262 169.498285 
L 71.013586 169.27563 
L 71.074552 169.424066 
L 71.135518 169.424066 
L 71.379382 169.646721 
L 71.440349 169.572502 
L 71.684213 170.054919 
L 71.806145 169.980702 
L 71.867111 170.203355 
L 71.928077 170.054919 
L 72.110975 170.129138 
L 72.232907 170.054919 
L 72.476772 170.277574 
L 72.537738 170.092029 
L 72.720636 170.388901 
L 72.842568 170.42601 
L 72.9645 170.500229 
L 73.086433 170.463119 
L 73.330297 170.500229 
L 73.452229 170.500229 
L 73.513195 170.388901 
L 73.574161 170.611555 
L 73.635127 170.500229 
L 73.818025 170.648665 
L 73.939958 170.648665 
L 74.000924 170.83421 
L 74.06189 170.797101 
L 74.36672 170.759991 
L 74.427686 170.648665 
L 74.671551 171.056863 
L 74.732517 170.871318 
L 74.915415 171.168191 
L 75.159279 171.205299 
L 75.829906 171.168191 
L 75.890872 171.316627 
L 75.951838 171.242409 
L 76.195702 171.279518 
L 76.317635 171.279518 
L 76.439567 171.056863 
L 76.500533 171.093973 
L 76.561499 171.353736 
L 76.622465 171.279518 
L 76.744397 171.353736 
L 76.866329 171.353736 
L 76.927295 171.168191 
L 76.988261 171.242409 
L 77.110194 171.353736 
L 77.293092 171.168191 
L 77.415024 171.131082 
L 77.536956 171.131082 
L 77.597922 171.019754 
L 77.78082 171.279518 
L 77.963719 171.353736 
L 78.024685 171.279518 
L 78.085651 171.353736 
L 78.451447 171.205299 
L 78.634346 171.242409 
L 78.939176 171.168191 
L 79.000142 171.205299 
L 79.061108 171.093973 
L 79.122074 171.168191 
L 79.670769 170.797101 
L 79.853667 171.019754 
L 79.975599 171.056863 
L 80.097531 171.019754 
L 80.219464 171.168191 
L 80.402362 171.093973 
L 81.072989 171.427954 
L 81.194921 171.279518 
L 81.255887 171.316627 
L 81.560717 171.242409 
L 81.621683 171.168191 
L 81.804582 171.353736 
L 81.98748 171.279518 
L 82.109412 171.390845 
L 82.29231 171.279518 
L 82.597141 171.353736 
L 82.658107 171.205299 
L 82.841005 171.465063 
L 83.328733 171.465063 
L 83.3897 171.353736 
L 83.450666 171.427954 
L 83.511632 171.390845 
L 83.572598 171.57639 
L 83.633564 171.465063 
L 83.755496 171.465063 
L 83.877428 171.613499 
L 83.938394 171.390845 
L 83.99936 171.502172 
L 84.121292 171.427954 
L 84.243225 171.427954 
L 84.426123 171.427954 
L 84.609021 171.427954 
L 84.669987 171.427954 
L 84.852885 171.650608 
L 85.157716 171.724826 
L 85.645444 171.761935 
L 85.828343 171.873262 
L 86.011241 171.910371 
L 86.133173 172.021699 
L 86.194139 171.910371 
L 86.255105 171.94748 
L 86.498969 172.021699 
L 86.559936 171.94748 
L 86.620902 172.021699 
L 86.742834 172.058808 
L 86.864766 172.095917 
L 87.10863 172.244353 
L 87.291528 172.170135 
L 87.657325 172.021699 
L 87.901189 172.244353 
L 88.084087 172.244353 
L 88.145054 172.244353 
L 88.20602 172.133026 
L 88.266986 172.281462 
L 88.327952 172.170135 
L 88.571816 172.133026 
L 88.754714 172.170135 
L 88.998579 172.318571 
L 89.181477 172.281462 
L 89.364375 172.318571 
L 89.730172 172.170135 
L 90.2179 172.392789 
L 90.827561 172.133026 
L 91.071425 172.281462 
L 91.254323 172.35568 
L 91.559154 172.133026 
L 91.92495 172.207244 
L 91.985916 172.318571 
L 92.046882 172.281462 
L 92.839441 172.281462 
L 92.900408 172.429898 
L 92.961374 172.35568 
L 93.205238 172.504116 
L 93.632 172.35568 
L 93.936831 172.392789 
L 94.119729 172.467007 
L 94.424559 172.392789 
L 94.668424 172.244353 
L 94.851322 172.207244 
L 95.339051 172.392789 
L 95.460983 172.392789 
L 95.582915 172.207244 
L 95.704847 172.244353 
L 95.948711 172.133026 
L 96.13161 172.318571 
L 96.253542 172.35568 
L 96.314508 172.429898 
L 96.558372 172.095917 
L 96.619338 172.207244 
L 96.680304 172.021699 
L 96.74127 172.058808 
L 96.863203 172.133026 
L 97.107067 172.095917 
L 97.350931 172.170135 
L 97.533829 171.984589 
L 97.777694 171.94748 
L 97.899626 171.873262 
L 98.082524 171.984589 
L 98.692185 171.910371 
L 98.814117 171.799044 
L 99.057981 172.021699 
L 99.24088 171.94748 
L 99.423778 171.910371 
L 99.484744 172.058808 
L 99.606676 171.799044 
L 99.667642 171.910371 
L 99.728608 171.799044 
L 99.972472 171.836153 
L 100.094405 171.836153 
L 100.399235 171.984589 
L 100.521167 171.799044 
L 100.582133 171.799044 
L 100.643099 171.910371 
L 100.765031 171.687717 
L 100.825998 171.799044 
L 100.886964 171.724826 
L 101.069862 171.724826 
L 101.191794 171.761935 
L 101.313726 171.799044 
L 101.374692 171.94748 
L 101.496624 171.724826 
L 101.618557 171.761935 
L 101.801455 171.687717 
L 101.923387 171.613499 
L 102.106285 171.799044 
L 102.228217 171.799044 
L 102.411116 172.058808 
L 102.472082 172.021699 
L 102.533048 171.836153 
L 102.594014 171.984589 
L 102.715946 171.94748 
L 102.776912 171.687717 
L 102.837878 171.761935 
L 102.898844 171.910371 
L 102.95981 171.799044 
L 103.020776 171.910371 
L 103.081742 171.836153 
L 103.142708 171.873262 
L 103.203675 172.058808 
L 103.264641 171.984589 
L 103.325607 171.984589 
L 103.386573 171.873262 
L 103.508505 172.058808 
L 103.630437 171.761935 
L 103.691403 171.94748 
L 103.752369 171.910371 
L 103.813335 171.799044 
L 103.874301 171.873262 
L 103.935267 171.94748 
L 104.0572 171.799044 
L 104.36203 171.984589 
L 104.422996 171.873262 
L 104.483962 171.984589 
L 104.544928 172.095917 
L 104.605894 172.058808 
L 105.032657 171.873262 
L 105.459419 172.021699 
L 105.520385 172.021699 
L 105.581352 171.836153 
L 105.642318 171.873262 
L 106.06908 171.94748 
L 106.251978 172.133026 
L 106.434877 172.133026 
L 106.617775 172.170135 
L 106.800673 172.021699 
L 106.861639 171.873262 
L 106.922605 171.94748 
L 106.983571 171.94748 
L 107.105503 172.133026 
L 107.288402 171.94748 
L 107.349368 172.207244 
L 107.410334 171.984589 
L 107.593232 172.095917 
L 107.715164 172.021699 
L 107.898062 172.133026 
L 108.080961 172.058808 
L 108.263859 172.318571 
L 108.324825 172.281462 
L 108.446757 172.467007 
L 108.690621 172.392789 
L 108.751588 172.504116 
L 108.812554 172.429898 
L 108.995452 172.615443 
L 109.056418 172.281462 
L 109.117384 172.504116 
L 109.17835 172.467007 
L 109.361248 172.763879 
L 109.422214 172.689661 
L 109.544147 172.838097 
L 109.605113 172.689661 
L 109.666079 172.72677 
L 109.727045 172.689661 
L 109.788011 172.912315 
L 109.848977 172.689661 
L 109.909943 172.949424 
L 109.970909 172.875206 
L 110.092841 172.763879 
L 110.336706 172.912315 
L 110.458638 172.986533 
L 110.519604 173.060751 
L 110.702502 172.912315 
L 110.8854 173.172079 
L 111.068298 173.172079 
L 111.129265 173.172079 
L 111.373129 173.468951 
L 111.495061 173.543169 
L 111.677959 173.654497 
L 112.28762 174.136914 
L 112.775349 174.804877 
L 113.202111 175.398621 
L 113.385009 175.769711 
L 113.445975 175.843929 
L 113.628874 176.252129 
L 113.68984 176.326346 
L 113.933704 176.882982 
L 115.031093 181.298957 
L 115.39689 183.822371 
L 116.067517 190.31645 
L 116.494279 196.699198 
L 117.225872 208.314325 
L 117.652635 212.359211 
L 117.713601 212.396313 
L 117.774567 212.247885 
L 117.957465 210.355319 
L 118.262295 204.417878 
L 118.81099 189.574265 
L 119.603549 154.469118 
L 120.091278 148.865657 
L 120.944803 142.779777 
L 121.066735 142.742664 
L 121.249633 143.262185 
L 121.92026 148.42035 
L 123.017649 157.512064 
L 123.688276 161.594058 
L 124.054073 163.263966 
L 125.090496 166.640889 
L 125.944021 168.533449 
L 126.309818 168.86743 
L 126.553682 169.27563 
L 126.858512 169.683829 
L 126.919478 169.535393 
L 127.041411 169.795157 
L 127.102377 169.758047 
L 127.285275 169.980702 
L 127.773003 170.463119 
L 127.894936 170.42601 
L 128.016868 170.388901 
L 128.260732 170.574446 
L 128.321698 170.500229 
L 128.382664 170.611555 
L 128.44363 170.574446 
L 128.504596 170.463119 
L 128.565562 170.537337 
L 128.809427 170.722882 
L 128.931359 170.722882 
L 128.992325 170.871318 
L 129.053291 170.685773 
L 129.114257 170.722882 
L 129.175223 170.722882 
L 129.236189 170.537337 
L 129.297155 170.648665 
L 129.358121 170.759991 
L 129.419088 170.722882 
L 129.480054 170.648665 
L 129.662952 170.982646 
L 129.784884 170.982646 
L 129.84585 171.019754 
L 129.906816 170.908427 
L 129.967782 171.056863 
L 130.028748 171.019754 
L 130.211647 171.093973 
L 130.333579 170.982646 
L 130.516477 171.168191 
L 130.821307 171.502172 
L 131.004206 171.390845 
L 131.126138 171.57639 
L 131.187104 171.465063 
L 131.24807 171.502172 
L 131.309036 171.539281 
L 131.370002 171.427954 
L 131.430968 171.502172 
L 131.491934 171.465063 
L 131.613866 171.57639 
L 131.857731 171.539281 
L 131.918697 171.539281 
L 131.979663 171.650608 
L 132.040629 171.539281 
L 132.101595 171.390845 
L 132.162561 171.502172 
L 132.406425 171.650608 
L 132.528357 171.613499 
L 132.711256 171.761935 
L 133.381883 171.427954 
L 133.991543 171.761935 
L 134.113475 171.687717 
L 134.235408 171.724826 
L 134.296374 171.724826 
L 134.35734 171.539281 
L 134.479272 171.761935 
L 134.66217 171.613499 
L 134.723136 171.687717 
L 134.784102 171.57639 
L 134.845068 171.650608 
L 134.967001 171.613499 
L 135.149899 171.390845 
L 135.454729 171.279518 
L 135.576661 171.353736 
L 135.75956 171.205299 
L 135.820526 171.316627 
L 136.003424 171.465063 
L 136.186322 171.353736 
L 136.795983 171.761935 
L 136.856949 171.650608 
L 136.917915 171.57639 
L 137.100813 171.799044 
L 137.161779 171.799044 
L 137.222745 171.613499 
L 137.283711 171.761935 
L 137.405644 171.57639 
L 137.46661 171.613499 
L 137.77144 171.799044 
L 137.954338 171.613499 
L 138.137237 171.836153 
L 138.442067 171.57639 
L 138.929796 171.873262 
L 139.112694 171.761935 
L 139.234626 171.687717 
L 139.295592 171.650608 
L 139.356558 171.761935 
L 139.417524 171.687717 
L 139.539456 171.687717 
L 139.600422 171.836153 
L 139.661388 171.761935 
L 139.783321 171.836153 
L 139.905253 171.799044 
L 140.149117 171.836153 
L 140.271049 171.724826 
L 140.392981 171.761935 
L 140.453947 171.687717 
L 140.514914 171.761935 
L 140.636846 171.799044 
L 141.002642 172.095917 
L 141.18554 172.095917 
L 141.246506 171.910371 
L 141.307473 171.984589 
L 141.490371 171.984589 
L 141.612303 172.021699 
L 141.856167 172.281462 
L 141.978099 172.207244 
L 142.160998 172.244353 
L 142.28293 172.207244 
L 142.404862 172.244353 
L 142.465828 172.35568 
L 142.526794 172.318571 
L 142.770658 172.392789 
L 142.953557 172.467007 
L 143.136455 172.35568 
L 143.258387 172.392789 
L 143.441285 172.318571 
L 143.624183 172.281462 
L 143.929014 172.504116 
L 144.355776 172.35568 
L 144.782539 172.429898 
L 145.026403 172.541225 
L 145.148335 172.429898 
L 145.331234 172.504116 
L 145.514132 172.392789 
L 145.636064 172.392789 
L 145.818962 172.541225 
L 146.245725 172.504116 
L 146.367657 172.392789 
L 146.428623 172.467007 
L 146.489589 172.392789 
L 146.733453 172.35568 
L 146.794419 172.35568 
L 147.038284 172.578334 
L 147.647945 172.281462 
L 147.830843 172.392789 
L 147.891809 172.392789 
L 147.952775 172.578334 
L 148.013741 172.504116 
L 148.745334 172.541225 
L 148.8063 172.652552 
L 148.867266 172.615443 
L 149.050164 172.615443 
L 149.172096 172.689661 
L 149.537893 172.578334 
L 149.781757 172.652552 
L 149.964655 172.652552 
L 150.20852 172.615443 
L 150.330452 172.578334 
L 150.757214 172.504116 
L 150.818181 172.689661 
L 150.879147 172.578334 
L 151.062045 172.578334 
L 151.244943 172.72677 
L 151.366875 172.652552 
L 151.793638 172.504116 
L 152.159434 172.652552 
L 152.281366 172.689661 
L 152.342332 172.72677 
L 152.586197 172.318571 
L 152.647163 172.504116 
L 152.769095 172.281462 
L 152.891027 172.467007 
L 152.951993 172.392789 
L 153.012959 172.467007 
L 153.134891 172.429898 
L 153.195858 172.392789 
L 153.256824 172.652552 
L 153.31779 172.429898 
L 153.439722 172.467007 
L 153.500688 172.244353 
L 153.561654 172.281462 
L 153.62262 172.318571 
L 153.683586 172.578334 
L 153.744552 172.392789 
L 153.866484 172.244353 
L 153.92745 172.281462 
L 154.110349 172.467007 
L 154.171315 172.429898 
L 154.293247 172.541225 
L 154.476145 172.244353 
L 154.598077 172.578334 
L 154.659043 172.133026 
L 154.720009 172.170135 
L 155.085806 172.467007 
L 155.146772 172.35568 
L 155.207738 172.429898 
L 155.390636 172.541225 
L 155.451602 172.133026 
L 155.512568 172.281462 
L 155.573535 172.504116 
L 155.634501 172.35568 
L 155.695467 172.207244 
L 155.939331 172.541225 
L 156.000297 172.392789 
L 156.061263 172.467007 
L 156.183195 172.467007 
L 156.305127 172.281462 
L 156.366094 172.541225 
L 156.42706 172.318571 
L 156.488026 172.244353 
L 156.548992 172.392789 
L 156.609958 172.318571 
L 156.792856 172.170135 
L 156.914788 172.318571 
L 156.975754 172.207244 
L 157.03672 172.281462 
L 157.158653 172.244353 
L 157.219619 172.207244 
L 157.341551 172.467007 
L 157.402517 172.392789 
L 157.463483 172.095917 
L 157.524449 172.318571 
L 157.585415 172.281462 
L 157.646381 172.021699 
L 157.707347 172.058808 
L 157.768313 172.541225 
L 157.829279 172.133026 
L 157.890245 172.244353 
L 157.951212 172.244353 
L 158.012178 172.429898 
L 158.073144 172.392789 
L 158.499906 172.541225 
L 158.560872 172.392789 
L 158.621838 172.504116 
L 158.804737 172.35568 
L 158.865703 172.504116 
L 158.926669 172.35568 
L 158.987635 172.467007 
L 159.170533 172.689661 
L 159.414397 172.541225 
L 159.475363 172.875206 
L 159.53633 172.72677 
L 159.597296 172.467007 
L 159.658262 172.541225 
L 159.719228 172.578334 
L 159.780194 172.392789 
L 159.84116 172.615443 
L 159.902126 172.504116 
L 160.085024 172.541225 
L 160.14599 172.467007 
L 160.206956 172.615443 
L 160.267922 172.504116 
L 160.328889 172.467007 
L 160.389855 172.652552 
L 160.450821 172.615443 
L 160.511787 172.541225 
L 160.572753 172.800988 
L 160.633719 172.615443 
L 160.816617 172.467007 
L 160.938549 172.763879 
L 160.999515 172.652552 
L 161.121448 172.392789 
L 161.182414 172.652552 
L 161.24338 172.615443 
L 161.670142 172.318571 
L 161.792074 172.652552 
L 161.914007 172.504116 
L 162.096905 172.72677 
L 162.157871 172.615443 
L 162.218837 172.72677 
L 162.401735 172.578334 
L 162.523667 172.838097 
L 162.645599 172.578334 
L 162.706566 172.652552 
L 162.767532 172.578334 
L 162.889464 172.429898 
L 162.95043 171.984589 
L 163.072362 172.615443 
L 163.133328 172.578334 
L 163.25526 172.615443 
L 163.377192 172.72677 
L 163.621057 172.578334 
L 163.682023 172.615443 
L 163.742989 172.504116 
L 163.803955 172.578334 
L 163.864921 172.800988 
L 163.925887 172.689661 
L 163.986853 172.72677 
L 164.169751 172.986533 
L 164.230717 172.986533 
L 164.291684 173.246297 
L 164.35265 173.097861 
L 164.413616 173.246297 
L 164.474582 173.13497 
L 164.65748 172.875206 
L 164.840378 173.097861 
L 164.96231 172.912315 
L 165.145209 173.320515 
L 165.267141 173.13497 
L 165.389073 173.394733 
L 165.571971 173.283406 
L 165.632937 173.431842 
L 165.693903 173.357624 
L 165.815835 173.13497 
L 165.876801 173.320515 
L 165.937768 173.13497 
L 165.998734 173.246297 
L 166.0597 173.209188 
L 166.242598 173.431842 
L 166.486462 173.468951 
L 166.852259 173.543169 
L 167.096123 173.728714 
L 167.400953 174.211131 
L 167.644818 174.174022 
L 167.76675 174.174022 
L 167.888682 174.322459 
L 168.010614 174.359567 
L 168.315445 174.879094 
L 168.681241 175.175966 
L 168.925105 175.398621 
L 169.351868 176.400565 
L 169.900563 177.439618 
L 169.900563 177.439618 
" clip-path="url(#p6db00fa863)" style="fill: none; stroke: #333333; stroke-width: 0.8; stroke-linecap: square"/>
   </g>
   <g id="line2d_14">
    <path d="M 169.961529 168.051031 
L 170.083461 168.088141 
L 170.449257 168.830322 
L 170.510223 168.830322 
L 170.693122 169.164303 
L 170.754088 169.052975 
L 170.936986 169.349847 
L 171.119884 169.312739 
L 171.424714 169.795157 
L 171.485681 169.869374 
L 171.546647 169.795157 
L 171.607613 169.720938 
L 171.668579 169.795157 
L 171.790511 169.906483 
L 171.973409 169.795157 
L 172.339206 170.277574 
L 172.522104 170.351791 
L 172.58307 170.463119 
L 172.644036 170.42601 
L 172.826934 170.277574 
L 173.009832 170.42601 
L 173.253697 170.648665 
L 173.497561 170.945537 
L 173.558527 170.945537 
L 173.741425 171.093973 
L 173.863358 171.131082 
L 173.924324 171.205299 
L 173.98529 171.093973 
L 174.046256 171.205299 
L 174.229154 171.279518 
L 174.412052 171.427954 
L 174.777849 171.613499 
L 174.899781 171.57639 
L 174.960747 171.613499 
L 175.021713 171.502172 
L 175.082679 171.539281 
L 175.143645 171.539281 
L 175.326543 171.650608 
L 175.753306 171.799044 
L 176.180068 171.836153 
L 176.484899 172.095917 
L 176.972627 171.873262 
L 177.582288 172.133026 
L 178.374847 172.207244 
L 178.740644 172.318571 
L 179.10644 172.207244 
L 179.350304 172.207244 
L 179.533203 172.392789 
L 179.594169 172.504116 
L 179.655135 172.392789 
L 179.777067 172.541225 
L 179.838033 172.429898 
L 180.142863 172.244353 
L 180.325762 172.541225 
L 180.386728 172.467007 
L 180.447694 172.652552 
L 180.50866 172.504116 
L 180.569626 172.615443 
L 180.630592 172.541225 
L 180.874456 172.652552 
L 180.996389 172.429898 
L 181.057355 172.504116 
L 181.301219 172.578334 
L 181.606049 172.912315 
L 181.667015 172.875206 
L 181.727981 173.097861 
L 181.788948 173.023643 
L 181.849914 172.949424 
L 181.971846 173.172079 
L 182.21571 173.023643 
L 182.398608 173.209188 
L 182.52054 173.431842 
L 182.581507 173.394733 
L 182.703439 173.320515 
L 182.886337 173.617387 
L 182.947303 173.580278 
L 183.130201 173.50606 
L 183.435032 174.359567 
L 183.61793 174.656441 
L 184.044692 175.658383 
L 184.105658 175.695493 
L 185.142082 181.150521 
L 185.507878 184.824317 
L 186.178505 196.736311 
L 186.910098 218.667745 
L 187.153962 223.38058 
L 187.214928 223.269254 
L 187.336861 221.673567 
L 187.702657 208.982285 
L 188.251352 182.671991 
L 188.678114 154.803098 
L 189.043911 144.486791 
L 189.531639 138.883319 
L 189.714538 138.178245 
L 189.83647 138.215358 
L 190.019368 138.994645 
L 190.202266 140.516118 
L 192.092215 160.146804 
L 192.823807 164.303018 
L 193.067672 165.156526 
L 193.494434 166.381125 
L 193.738299 167.345959 
L 193.860231 167.754159 
L 193.921197 167.976814 
L 193.982163 167.828377 
L 194.65279 168.830322 
L 195.201484 169.424066 
L 195.323417 169.27563 
L 195.628247 169.535393 
L 195.872111 169.980702 
L 195.933077 169.943593 
L 196.176942 170.166247 
L 196.66467 170.351791 
L 196.725636 170.351791 
L 196.908535 170.759991 
L 196.969501 170.685773 
L 197.030467 170.611555 
L 197.274331 170.871318 
L 197.518195 170.945537 
L 197.76206 171.205299 
L 198.310754 171.502172 
L 198.493653 171.427954 
L 198.554619 171.539281 
L 198.615585 171.502172 
L 198.676551 171.502172 
L 198.920415 171.761935 
L 199.042347 171.687717 
L 199.164279 171.724826 
L 199.408144 171.650608 
L 199.591042 171.724826 
L 199.652008 171.724826 
L 199.895872 171.94748 
L 200.078771 171.984589 
L 200.139737 172.058808 
L 200.200703 171.984589 
L 200.322635 171.984589 
L 200.505533 171.984589 
L 200.688431 172.058808 
L 200.810364 172.021699 
L 201.17616 172.095917 
L 201.298092 172.058808 
L 201.359058 172.021699 
L 201.541956 172.133026 
L 201.785821 172.207244 
L 202.029685 172.35568 
L 202.212583 172.281462 
L 202.273549 172.244353 
L 202.334515 172.35568 
L 202.395482 172.318571 
L 202.517414 172.281462 
L 202.700312 172.35568 
L 202.761278 172.281462 
L 202.822244 172.35568 
L 203.188041 172.467007 
L 203.431905 172.429898 
L 203.492871 172.207244 
L 203.675769 172.578334 
L 203.736735 172.467007 
L 203.797701 172.578334 
L 203.919633 172.615443 
L 204.041566 172.615443 
L 204.102532 172.504116 
L 204.163498 172.652552 
L 204.224464 172.615443 
L 204.407362 172.504116 
L 204.773159 172.615443 
L 204.956057 172.689661 
L 205.077989 172.72677 
L 205.138955 172.689661 
L 205.260887 172.912315 
L 205.321853 172.72677 
L 205.382819 172.838097 
L 205.565718 172.912315 
L 205.626684 172.912315 
L 205.870548 173.209188 
L 205.99248 173.209188 
L 206.175378 173.357624 
L 206.29731 173.246297 
L 206.358277 173.320515 
L 206.419243 173.209188 
L 206.480209 173.246297 
L 206.602141 173.246297 
L 206.846005 173.691605 
L 206.906971 173.617387 
L 206.967937 173.802933 
L 207.028903 173.728714 
L 207.638564 174.619331 
L 207.821462 174.990421 
L 208.431123 176.697437 
L 209.10175 180.890758 
L 209.650445 186.420003 
L 210.199139 196.996077 
L 211.174597 223.343479 
L 211.235563 223.232152 
L 211.357495 221.599353 
L 211.662325 211.691251 
L 212.332952 177.32829 
L 212.759715 152.094144 
L 213.125511 143.596165 
L 213.552274 138.623552 
L 213.735172 138.029817 
L 213.796138 137.992705 
L 213.979036 138.623552 
L 214.344833 141.963377 
L 216.112849 160.295243 
L 216.600577 163.115529 
L 217.393136 166.455343 
L 217.758933 167.345959 
L 218.42956 168.718994 
L 219.222119 169.535393 
L 219.587915 169.572502 
L 219.770813 169.832266 
L 219.831779 169.832266 
L 220.075644 170.203355 
L 220.319508 170.351791 
L 220.380474 170.203355 
L 220.44144 170.314683 
L 220.685305 170.351791 
L 220.746271 170.351791 
L 220.990135 170.574446 
L 221.477864 171.019754 
L 222.087524 171.465063 
L 222.270423 171.650608 
L 222.941049 171.724826 
L 223.184914 171.873262 
L 223.428778 171.910371 
L 223.672642 171.836153 
L 224.465201 172.244353 
L 224.6481 172.095917 
L 224.770032 172.095917 
L 224.830998 171.984589 
L 224.891964 172.095917 
L 225.196794 172.133026 
L 225.379692 172.318571 
L 225.562591 172.244353 
L 225.684523 172.244353 
L 225.867421 172.244353 
L 225.989353 172.244353 
L 226.233218 172.467007 
L 226.416116 172.541225 
L 226.903844 172.35568 
L 227.452539 172.689661 
L 227.513505 172.541225 
L 227.574471 172.615443 
L 227.696403 172.615443 
L 227.879302 172.541225 
L 227.940268 172.615443 
L 228.001234 172.504116 
L 228.0622 172.615443 
L 228.123166 172.578334 
L 228.245098 172.800988 
L 228.427996 172.763879 
L 228.610895 172.838097 
L 228.793793 172.763879 
L 228.915725 172.72677 
L 229.098623 172.912315 
L 229.220555 172.949424 
L 229.281521 172.949424 
L 229.46442 173.209188 
L 229.525386 173.097861 
L 229.586352 173.246297 
L 229.647318 173.13497 
L 229.830216 173.394733 
L 229.891182 173.320515 
L 229.952148 173.246297 
L 230.013114 173.394733 
L 230.07408 173.357624 
L 230.683741 173.654497 
L 230.805673 173.543169 
L 231.049538 173.988478 
L 231.110504 173.914259 
L 231.537266 174.767767 
L 231.720164 174.916203 
L 232.146927 176.103693 
L 232.268859 176.549001 
L 232.451757 177.216963 
L 233.244316 182.041138 
L 233.732045 187.83015 
L 234.219774 197.552711 
L 235.195231 223.640346 
L 235.256197 223.52902 
L 235.378129 222.2302 
L 235.682959 211.876792 
L 236.29262 181.447393 
L 236.719383 153.541391 
L 237.085179 144.004371 
L 237.572908 138.809105 
L 237.755806 138.215358 
L 237.816772 138.215358 
L 237.938704 138.475124 
L 238.182569 140.182138 
L 238.670297 145.971151 
L 239.828653 158.291351 
L 240.49928 162.818657 
L 240.987008 164.933873 
L 241.840533 167.939705 
L 241.901499 167.865486 
L 242.20633 168.644777 
L 242.267296 168.570558 
L 242.572126 169.27563 
L 242.694058 169.349847 
L 242.81599 169.572502 
L 242.876957 169.535393 
L 242.937923 169.461175 
L 243.059855 169.609611 
L 243.120821 169.572502 
L 243.242753 169.572502 
L 243.425651 169.795157 
L 243.669516 169.943593 
L 243.730482 170.129138 
L 243.791448 170.054919 
L 243.852414 170.054919 
L 244.035312 170.240465 
L 244.21821 170.277574 
L 244.766905 170.83421 
L 244.888837 170.908427 
L 244.949803 170.982646 
L 245.010769 170.83421 
L 245.071735 170.945537 
L 245.193667 170.945537 
L 245.376566 171.131082 
L 245.803328 171.502172 
L 246.108159 171.57639 
L 246.291057 171.57639 
L 246.534921 171.799044 
L 246.595887 171.761935 
L 246.778785 171.94748 
L 247.144582 171.836153 
L 247.632311 172.021699 
L 247.754243 172.095917 
L 247.815209 172.170135 
L 247.876175 172.095917 
L 247.998107 172.095917 
L 248.181005 172.095917 
L 248.302937 172.133026 
L 248.485836 172.318571 
L 248.7297 172.281462 
L 248.790666 172.35568 
L 248.851632 172.281462 
L 249.217429 172.170135 
L 249.339361 172.244353 
L 249.949021 172.504116 
L 250.009988 172.392789 
L 250.070954 172.429898 
L 250.253852 172.429898 
L 250.314818 172.392789 
L 250.497716 172.578334 
L 250.802547 172.652552 
L 250.924479 172.800988 
L 250.985445 172.615443 
L 251.046411 172.652552 
L 251.107377 172.615443 
L 251.229309 172.72677 
L 251.351241 172.615443 
L 251.534139 172.912315 
L 251.656072 172.838097 
L 251.717038 173.023643 
L 251.778004 172.875206 
L 251.960902 172.875206 
L 252.082834 172.912315 
L 252.1438 172.949424 
L 252.204766 172.838097 
L 252.265732 172.986533 
L 252.326698 172.800988 
L 252.570563 173.246297 
L 252.753461 173.13497 
L 252.814427 173.246297 
L 252.875393 173.172079 
L 252.936359 173.209188 
L 253.119257 172.838097 
L 253.302156 173.320515 
L 253.363122 173.209188 
L 253.424088 173.320515 
L 253.485054 173.320515 
L 253.789884 173.654497 
L 253.85085 173.617387 
L 253.972783 173.802933 
L 254.033749 173.728714 
L 254.094715 173.914259 
L 254.155681 173.50606 
L 254.216647 173.580278 
L 254.277613 173.87715 
L 254.338579 173.691605 
L 254.399545 173.802933 
L 254.460511 173.691605 
L 254.521477 173.691605 
L 254.704375 174.099805 
L 254.765342 173.765823 
L 254.887274 174.211131 
L 254.94824 173.87715 
L 255.009206 174.248241 
L 255.070172 173.988478 
L 255.740799 175.621275 
L 255.801765 175.472839 
L 256.716256 178.552889 
L 257.082052 180.853649 
L 257.569781 185.492277 
L 258.05751 193.470723 
L 258.911035 217.962672 
L 259.215865 223.863 
L 259.276831 223.974327 
L 259.459729 220.374759 
L 260.06939 198.665978 
L 260.313254 181.18763 
L 260.740017 154.135138 
L 261.044847 145.080537 
L 261.47161 139.514178 
L 261.715474 138.438012 
L 261.77644 138.289572 
L 261.837406 138.326685 
L 262.081271 139.365738 
L 262.508033 143.930157 
L 262.751898 146.676224 
L 263.056728 150.980877 
L 263.544457 155.582397 
L 263.788321 158.10581 
L 264.276049 161.631168 
L 265.190541 166.121362 
L 265.434405 166.789325 
L 265.495371 166.752215 
L 265.556337 167.383069 
L 265.617303 167.197523 
L 266.044066 168.644777 
L 266.105032 168.533449 
L 266.348896 169.127194 
L 266.653726 169.386957 
L 266.836625 169.795157 
L 266.897591 169.720938 
L 266.958557 169.980702 
L 267.019523 169.943593 
L 267.263387 169.832266 
L 267.385319 169.980702 
L 267.446285 169.980702 
L 267.629184 170.277574 
L 267.751116 170.277574 
L 268.116912 170.611555 
L 268.177878 170.574446 
L 268.238844 170.722882 
L 268.299811 170.648665 
L 268.360777 170.537337 
L 268.421743 170.611555 
L 268.543675 170.648665 
L 268.604641 170.648665 
L 268.726573 170.908427 
L 268.848505 170.945537 
L 269.09237 171.168191 
L 269.336234 171.242409 
L 269.458166 171.205299 
L 269.580098 171.465063 
L 269.641064 171.390845 
L 269.70203 171.465063 
L 270.128793 171.873262 
L 270.433623 171.761935 
L 271.10425 172.095917 
L 271.470047 171.984589 
L 272.201639 172.35568 
L 272.384538 172.35568 
L 273.177097 172.392789 
L 273.238063 172.504116 
L 273.299029 172.392789 
L 273.603859 172.467007 
L 273.664825 172.35568 
L 273.847724 172.578334 
L 273.90869 172.504116 
L 273.969656 172.578334 
L 274.21352 172.652552 
L 274.396418 172.578334 
L 274.457384 172.652552 
L 274.51835 172.578334 
L 274.823181 172.652552 
L 275.067045 172.838097 
L 275.188977 172.912315 
L 275.249943 172.949424 
L 275.432842 172.763879 
L 275.554774 172.912315 
L 275.737672 172.838097 
L 275.92057 173.023643 
L 276.042502 173.097861 
L 276.286367 173.172079 
L 276.469265 173.060751 
L 276.530231 173.060751 
L 276.591197 173.172079 
L 276.652163 173.023643 
L 276.713129 173.097861 
L 277.261824 173.394733 
L 277.32279 173.283406 
L 277.383756 173.394733 
L 277.444722 173.394733 
L 277.505688 173.543169 
L 277.566654 173.394733 
L 277.62762 173.50606 
L 277.688586 173.654497 
L 277.749552 173.580278 
L 277.871485 173.654497 
L 277.932451 173.914259 
L 277.993417 173.87715 
L 278.298247 173.988478 
L 278.420179 174.025586 
L 278.481145 174.025586 
L 278.542111 174.174022 
L 278.603078 174.062695 
L 278.907908 174.28535 
L 279.02984 174.545113 
L 279.090806 174.508003 
L 279.273704 174.767767 
L 279.395637 174.953313 
L 279.700467 175.472839 
L 280.371094 177.365399 
L 280.797856 178.961087 
L 281.346551 182.968863 
L 281.651381 186.420003 
L 282.13911 195.251951 
L 282.687805 210.615085 
L 283.236499 223.566132 
L 283.297465 223.38058 
L 283.480364 219.595472 
L 283.84616 206.124892 
L 284.211957 190.835983 
L 284.760651 153.912484 
L 285.126448 144.189912 
L 285.55321 138.994645 
L 285.797075 138.029817 
L 285.858041 138.066919 
L 286.162871 139.811045 
L 286.95543 149.014097 
L 287.443159 154.65467 
L 288.235718 161.297186 
L 288.906345 164.711218 
L 289.394073 166.900651 
L 289.455039 166.900651 
L 289.698904 167.642833 
L 289.820836 167.828377 
L 290.430496 169.349847 
L 290.491463 169.201411 
L 291.405954 170.351791 
L 291.46692 170.240465 
L 291.710784 170.277574 
L 291.832716 170.277574 
L 291.832716 170.277574 
" clip-path="url(#p6db00fa863)" style="fill: none; stroke: #333333; stroke-width: 0.8; stroke-linecap: square"/>
   </g>
   <g id="line2d_15">
    <path d="M 291.893682 164.117474 
L 292.381411 166.863542 
L 292.86914 168.570558 
L 292.991072 168.830322 
L 294.027495 171.093973 
L 294.088461 171.093973 
L 294.393291 171.687717 
L 294.454258 171.687717 
L 294.698122 171.984589 
L 294.941986 171.910371 
L 295.002952 172.021699 
L 295.063918 171.94748 
L 295.368749 172.170135 
L 295.612613 172.652552 
L 295.917443 172.318571 
L 296.039376 172.615443 
L 296.100342 172.578334 
L 296.222274 172.615443 
L 296.28324 172.875206 
L 296.344206 172.763879 
L 297.441595 174.953313 
L 297.624494 175.843929 
L 298.112222 178.961087 
L 298.356086 182.486446 
L 298.660917 190.576217 
L 298.904781 204.454991 
L 299.148645 233.474234 
L 299.453476 272.327354 
L 299.575408 262.679018 
L 300.855696 121.51628 
L 300.977628 120.588554 
L 301.038594 120.69988 
L 301.221492 122.8151 
L 301.892119 138.400899 
L 302.440814 149.533618 
L 303.172407 159.293303 
L 303.843033 163.820601 
L 304.757525 168.273686 
L 305.123321 169.27563 
L 305.306219 169.572502 
L 305.793948 170.83421 
L 305.854914 170.83421 
L 306.159744 171.205299 
L 306.403609 171.465063 
L 306.769405 171.94748 
L 307.3181 171.94748 
L 307.500998 172.207244 
L 307.62293 172.170135 
L 307.805828 172.541225 
L 307.92776 172.429898 
L 308.049693 172.429898 
L 308.415489 172.689661 
L 309.208048 174.433786 
L 309.390946 174.582222 
L 309.634811 175.806821 
L 310.244471 180.927866 
L 310.549302 187.570383 
L 310.793166 198.480437 
L 311.03703 220.597412 
L 311.402827 272.661334 
L 311.463793 270.917208 
L 311.768623 236.665608 
L 312.805047 121.701821 
L 312.926979 120.254573 
L 312.987945 120.291686 
L 313.109877 121.1823 
L 313.53664 130.125585 
L 314.329199 147.678164 
L 314.938859 156.844103 
L 315.365622 160.926096 
L 315.670452 162.670221 
L 316.767842 168.162359 
L 316.95074 168.681885 
L 317.438468 169.906483 
L 317.621367 170.277574 
L 317.926197 171.019754 
L 317.987163 171.019754 
L 318.170061 171.242409 
L 318.596824 171.465063 
L 318.65779 171.761935 
L 318.718756 171.687717 
L 319.084553 171.799044 
L 319.206485 171.836153 
L 319.328417 171.94748 
L 319.389383 171.910371 
L 319.572281 172.207244 
L 319.633247 172.058808 
L 319.694213 172.095917 
L 319.877112 172.318571 
L 319.938078 172.207244 
L 320.120976 172.467007 
L 320.181942 172.429898 
L 320.242908 172.578334 
L 320.303874 172.467007 
L 321.096433 174.062695 
L 321.157399 174.359567 
L 321.218365 174.174022 
L 321.279331 174.174022 
L 322.07189 178.88687 
L 322.315755 182.375118 
L 322.620585 190.46489 
L 322.864449 204.788971 
L 323.108314 235.032808 
L 323.413144 272.58712 
L 323.596042 255.220105 
L 324.754398 121.961587 
L 324.937296 119.660827 
L 325.059228 120.69988 
L 325.303092 124.893206 
L 326.949176 156.844103 
L 327.314973 160.332356 
L 328.168498 165.787381 
L 328.717193 167.939705 
L 329.326853 169.795157 
L 329.38782 169.795157 
L 329.509752 170.01781 
L 329.570718 169.906483 
L 329.814582 170.685773 
L 330.119412 171.205299 
L 330.180379 171.390845 
L 330.241345 171.353736 
L 330.424243 171.316627 
L 330.485209 171.427954 
L 330.546175 171.279518 
L 330.607141 171.390845 
L 330.790039 171.613499 
L 330.851005 171.539281 
L 330.972938 172.021699 
L 331.033904 171.539281 
L 331.09487 171.799044 
L 331.216802 171.836153 
L 331.277768 171.984589 
L 331.338734 171.873262 
L 331.582598 172.021699 
L 331.643564 172.021699 
L 331.70453 171.910371 
L 331.948395 172.318571 
L 332.253225 172.541225 
L 332.314191 172.689661 
L 332.375157 172.615443 
L 332.740954 173.13497 
L 333.289648 174.470895 
L 333.472547 175.02753 
L 333.838343 176.957201 
L 334.20414 180.964975 
L 334.50897 187.607496 
L 334.752834 198.665978 
L 334.996699 221.636465 
L 335.362495 273.589061 
L 335.423461 271.43674 
L 335.789258 228.353193 
L 336.398918 151.240631 
L 336.703749 122.33268 
L 336.886647 119.36396 
L 336.947613 119.475286 
L 337.130511 121.553393 
L 337.61824 132.611886 
L 338.349833 148.568778 
L 339.081426 158.514004 
L 339.447222 161.222969 
L 340.117849 165.676053 
L 340.605578 167.754159 
L 341.03234 169.015866 
L 341.154272 169.312739 
L 341.398137 169.943593 
L 342.373594 171.57639 
L 342.983255 171.613499 
L 343.227119 171.799044 
L 343.288085 171.799044 
L 343.410017 172.095917 
L 343.531949 171.873262 
L 343.592915 172.133026 
L 343.653882 171.984589 
L 343.714848 172.058808 
L 343.775814 171.94748 
L 343.83678 171.984589 
L 343.958712 172.095917 
L 344.202576 172.541225 
L 344.324508 172.615443 
L 345.178033 174.396677 
L 345.239 174.359567 
L 345.421898 175.175966 
L 345.482864 175.213075 
L 345.970592 178.367343 
L 346.214457 181.373175 
L 346.580253 191.318391 
L 346.824118 205.902238 
L 347.067982 236.776935 
L 347.311846 273.477734 
L 347.372812 273.217968 
L 347.55571 255.034564 
L 348.714066 121.219413 
L 348.896964 119.178407 
L 349.018896 120.03192 
L 349.201795 123.186192 
L 349.933387 140.590332 
L 350.421116 150.05315 
L 351.030777 157.994483 
L 351.457539 161.55695 
L 352.189132 166.084253 
L 352.737827 168.236577 
L 353.042657 169.015866 
L 353.408454 169.980702 
L 353.835216 170.797101 
L 354.079081 171.019754 
L 354.505843 171.687717 
L 354.566809 171.650608 
L 354.627775 171.761935 
L 354.688741 171.687717 
L 355.115504 171.873262 
L 355.237436 171.910371 
L 356.456758 172.763879 
L 356.639656 173.283406 
L 356.700622 173.209188 
L 357.737045 176.697437 
L 358.224774 182.115355 
L 358.468638 188.127017 
L 358.712502 199.66793 
L 358.956367 223.157927 
L 359.322163 274.331235 
L 359.444095 265.796167 
L 360.724383 120.180359 
L 360.846315 118.918641 
L 360.907281 119.067081 
L 361.090179 121.1823 
L 361.577908 132.760326 
L 362.309501 148.568778 
L 362.79723 155.916377 
L 363.223992 160.221029 
L 364.077517 165.750271 
L 365.174907 169.461175 
L 365.235873 169.498285 
L 365.723601 170.722882 
L 366.820991 171.94748 
L 367.125821 171.836153 
L 367.308719 172.021699 
L 367.430651 172.021699 
L 367.552584 172.207244 
L 367.61355 172.170135 
L 368.345143 172.615443 
L 368.954803 174.211131 
L 369.137702 174.396677 
L 369.62543 176.511891 
L 369.930261 178.701325 
L 370.235091 182.894645 
L 370.478955 189.425837 
L 370.72282 202.265557 
L 370.966684 228.650061 
L 371.271514 274.40546 
L 371.33248 273.663275 
L 371.576345 247.39011 
L 372.612768 122.592446 
L 372.795666 118.918641 
L 372.856632 118.992867 
L 372.978564 119.88348 
L 373.344361 127.26818 
L 374.197886 146.93599 
L 374.685615 154.728884 
L 375.112377 159.478844 
L 375.661072 163.338183 
L 375.783004 164.303018 
L 376.1488 166.344015 
L 376.453631 167.494395 
L 376.697495 168.496341 
L 377.063292 169.386957 
L 377.368122 169.980702 
L 377.490054 170.240465 
L 377.977783 171.205299 
L 378.64841 171.724826 
L 378.831308 171.910371 
L 378.892274 171.799044 
L 379.075172 172.021699 
L 379.136138 171.94748 
L 379.197104 172.058808 
L 379.25807 171.94748 
L 379.380003 172.021699 
L 379.501935 172.244353 
L 379.562901 172.207244 
L 379.745799 172.318571 
L 380.111595 172.615443 
L 380.294494 172.72677 
L 380.782222 173.87715 
L 381.452849 175.621275 
L 381.879612 178.330234 
L 382.245408 183.599717 
L 382.489272 190.761757 
L 382.733137 205.011624 
L 382.977001 234.439073 
L 383.281831 275.073421 
L 383.403764 265.573513 
L 384.684051 119.846368 
L 384.805983 118.88154 
L 384.866949 118.955754 
L 385.049848 121.256514 
L 385.47661 131.201751 
L 386.330135 149.71917 
L 387.000762 158.847984 
L 387.427525 161.853822 
L 388.342016 167.271742 
L 388.402982 167.345959 
L 388.951677 169.238521 
L 389.317473 170.01781 
L 390.29293 171.57639 
L 390.353896 171.465063 
L 390.414862 171.57639 
L 390.475829 171.724826 
L 390.536795 171.687717 
L 391.451286 172.207244 
L 391.512252 172.133026 
L 391.756116 172.392789 
L 391.817082 172.392789 
L 392.060947 172.875206 
L 392.243845 172.838097 
L 392.365777 172.838097 
L 392.548675 173.320515 
L 393.4022 175.547057 
L 394.072827 181.224739 
L 394.377657 187.904364 
L 394.621522 198.85153 
L 394.865386 221.525139 
L 395.231183 275.667167 
L 395.292149 274.182807 
L 395.536013 247.167456 
L 396.572436 121.85026 
L 396.755334 118.287793 
L 396.816301 118.250681 
L 396.999199 120.291686 
L 397.425961 130.236912 
L 398.340452 150.238691 
L 399.011079 158.996424 
L 399.31591 161.445622 
L 399.864604 164.970981 
L 400.291367 167.345959 
L 400.657163 168.347903 
L 400.779095 168.718994 
L 401.205858 169.980702 
L 401.510688 170.500229 
L 401.693587 170.83421 
L 401.754553 170.759991 
L 401.998417 171.316627 
L 402.181315 171.539281 
L 402.486146 171.94748 
L 402.608078 171.836153 
L 402.669044 171.94748 
L 402.73001 171.910371 
L 402.973874 171.94748 
L 403.339671 172.504116 
L 403.705467 172.392789 
L 403.888365 172.615443 
L 404.558992 173.394733 
L 404.802857 174.136914 
L 405.595416 176.771655 
L 406.022178 180.77943 
L 406.327008 187.273516 
L 406.570873 197.36717 
L 406.814737 218.073999 
L 407.2415 275.741381 
L 407.302466 272.178914 
L 408.034059 189.16607 
L 408.582753 120.774094 
L 408.765652 118.213568 
L 408.826618 118.324906 
L 409.009516 120.736993 
L 409.680143 137.287632 
L 410.35077 150.906651 
L 411.021396 159.40463 
L 411.631057 163.672165 
L 412.240718 167.049087 
L 412.972311 169.312739 
L 413.581972 170.83421 
L 413.76487 170.982646 
L 413.76487 170.982646 
" clip-path="url(#p6db00fa863)" style="fill: none; stroke: #333333; stroke-width: 0.8; stroke-linecap: square"/>
   </g>
   <g id="text_16">
    <g id="patch_8">
     <path d="M 62.035452 281.3527 
L 155.955452 281.3527 
Q 157.555452 281.3527 157.555452 279.7527 
L 157.555452 271.2727 
Q 157.555452 269.6727 155.955452 269.6727 
L 62.035452 269.6727 
Q 60.435452 269.6727 60.435452 271.2727 
L 60.435452 279.7527 
Q 60.435452 281.3527 62.035452 281.3527 
z
" style="fill: #ffffff; opacity: 0.85; stroke: #333333; stroke-linejoin: miter"/>
    </g>
    <!-- I$_{p-p}$ = 1.51E-03 mA/m² -->
    <g style="fill: #333333" transform="translate(62.035452 277.2727) scale(0.08 -0.08)">
     <defs>
      <path id="DejaVuSans-49" d="M 628 4666 
L 1259 4666 
L 1259 0 
L 628 0 
L 628 4666 
z
" transform="scale(0.015625)"/>
      <path id="DejaVuSans-Oblique-70" d="M 3175 2156 
Q 3175 2616 2975 2859 
Q 2775 3103 2400 3103 
Q 2144 3103 1911 2972 
Q 1678 2841 1497 2591 
Q 1319 2344 1212 1994 
Q 1106 1644 1106 1300 
Q 1106 863 1306 627 
Q 1506 391 1875 391 
Q 2147 391 2380 519 
Q 2613 647 2778 891 
Q 2956 1147 3065 1494 
Q 3175 1841 3175 2156 
z
M 1394 2969 
Q 1625 3272 1939 3428 
Q 2253 3584 2638 3584 
Q 3175 3584 3472 3232 
Q 3769 2881 3769 2247 
Q 3769 1728 3584 1258 
Q 3400 788 3053 416 
Q 2822 169 2531 39 
Q 2241 -91 1919 -91 
Q 1547 -91 1294 64 
Q 1041 219 916 525 
L 556 -1331 
L -19 -1331 
L 922 3500 
L 1497 3500 
L 1394 2969 
z
" transform="scale(0.015625)"/>
      <path id="DejaVuSans-20" transform="scale(0.015625)"/>
      <path id="DejaVuSans-3d" d="M 678 2906 
L 4684 2906 
L 4684 2381 
L 678 2381 
L 678 2906 
z
M 678 1631 
L 4684 1631 
L 4684 1100 
L 678 1100 
L 678 1631 
z
" transform="scale(0.015625)"/>
      <path id="DejaVuSans-2e" d="M 684 794 
L 1344 794 
L 1344 0 
L 684 0 
L 684 794 
z
" transform="scale(0.015625)"/>
      <path id="DejaVuSans-45" d="M 628 4666 
L 3578 4666 
L 3578 4134 
L 1259 4134 
L 1259 2753 
L 3481 2753 
L 3481 2222 
L 1259 2222 
L 1259 531 
L 3634 531 
L 3634 0 
L 628 0 
L 628 4666 
z
" transform="scale(0.015625)"/>
      <path id="DejaVuSans-2d" d="M 313 2009 
L 1997 2009 
L 1997 1497 
L 313 1497 
L 313 2009 
z
" transform="scale(0.015625)"/>
      <path id="DejaVuSans-6d" d="M 3328 2828 
Q 3544 3216 3844 3400 
Q 4144 3584 4550 3584 
Q 5097 3584 5394 3201 
Q 5691 2819 5691 2113 
L 5691 0 
L 5113 0 
L 5113 2094 
Q 5113 2597 4934 2840 
Q 4756 3084 4391 3084 
Q 3944 3084 3684 2787 
Q 3425 2491 3425 1978 
L 3425 0 
L 2847 0 
L 2847 2094 
Q 2847 2600 2669 2842 
Q 2491 3084 2119 3084 
Q 1678 3084 1418 2786 
Q 1159 2488 1159 1978 
L 1159 0 
L 581 0 
L 581 3500 
L 1159 3500 
L 1159 2956 
Q 1356 3278 1631 3431 
Q 1906 3584 2284 3584 
Q 2666 3584 2933 3390 
Q 3200 3197 3328 2828 
z
" transform="scale(0.015625)"/>
      <path id="DejaVuSans-41" d="M 2188 4044 
L 1331 1722 
L 3047 1722 
L 2188 4044 
z
M 1831 4666 
L 2547 4666 
L 4325 0 
L 3669 0 
L 3244 1197 
L 1141 1197 
L 716 0 
L 50 0 
L 1831 4666 
z
" transform="scale(0.015625)"/>
      <path id="DejaVuSans-2f" d="M 1625 4666 
L 2156 4666 
L 531 -594 
L 0 -594 
L 1625 4666 
z
" transform="scale(0.015625)"/>
      <path id="DejaVuSans-b2" d="M 838 2444 
L 2163 2444 
L 2163 2088 
L 294 2088 
L 294 2431 
Q 400 2528 597 2703 
Q 1672 3656 1672 3950 
Q 1672 4156 1509 4282 
Q 1347 4409 1081 4409 
Q 919 4409 728 4354 
Q 538 4300 313 4191 
L 313 4575 
Q 553 4663 761 4706 
Q 969 4750 1147 4750 
Q 1600 4750 1872 4544 
Q 2144 4338 2144 4000 
Q 2144 3566 1109 2678 
Q 934 2528 838 2444 
z
" transform="scale(0.015625)"/>
     </defs>
     <use xlink:href="#DejaVuSans-49" transform="translate(0 0.78125)"/>
     <use xlink:href="#DejaVuSans-Oblique-70" transform="translate(30.449219 -15.625) scale(0.7)"/>
     <use xlink:href="#DejaVuSans-2212" transform="translate(88.520508 -15.625) scale(0.7)"/>
     <use xlink:href="#DejaVuSans-Oblique-70" transform="translate(160.810547 -15.625) scale(0.7)"/>
     <use xlink:href="#DejaVuSans-20" transform="translate(207.978516 0.78125)"/>
     <use xlink:href="#DejaVuSans-3d" transform="translate(239.765625 0.78125)"/>
     <use xlink:href="#DejaVuSans-20" transform="translate(323.554688 0.78125)"/>
     <use xlink:href="#DejaVuSans-31" transform="translate(355.341797 0.78125)"/>
     <use xlink:href="#DejaVuSans-2e" transform="translate(418.964844 0.78125)"/>
     <use xlink:href="#DejaVuSans-35" transform="translate(450.751953 0.78125)"/>
     <use xlink:href="#DejaVuSans-31" transform="translate(514.375 0.78125)"/>
     <use xlink:href="#DejaVuSans-45" transform="translate(577.998047 0.78125)"/>
     <use xlink:href="#DejaVuSans-2d" transform="translate(641.181641 0.78125)"/>
     <use xlink:href="#DejaVuSans-30" transform="translate(677.265625 0.78125)"/>
     <use xlink:href="#DejaVuSans-33" transform="translate(740.888672 0.78125)"/>
     <use xlink:href="#DejaVuSans-20" transform="translate(804.511719 0.78125)"/>
     <use xlink:href="#DejaVuSans-6d" transform="translate(836.298828 0.78125)"/>
     <use xlink:href="#DejaVuSans-41" transform="translate(933.710938 0.78125)"/>
     <use xlink:href="#DejaVuSans-2f" transform="translate(1002.119141 0.78125)"/>
     <use xlink:href="#DejaVuSans-6d" transform="translate(1035.810547 0.78125)"/>
     <use xlink:href="#DejaVuSans-b2" transform="translate(1133.222656 0.78125)"/>
    </g>
   </g>
   <g id="text_17">
    <g id="patch_9">
     <path d="M 184.087605 281.3527 
L 277.767605 281.3527 
Q 279.367605 281.3527 279.367605 279.7527 
L 279.367605 271.2727 
Q 279.367605 269.6727 277.767605 269.6727 
L 184.087605 269.6727 
Q 182.487605 269.6727 182.487605 271.2727 
L 182.487605 279.7527 
Q 182.487605 281.3527 184.087605 281.3527 
z
" style="fill: #ffffff; opacity: 0.85; stroke: #333333; stroke-linejoin: miter"/>
    </g>
    <!-- I$_{p-p}$ = 1.87E-03 mA/m² -->
    <g style="fill: #333333" transform="translate(184.087605 277.2727) scale(0.08 -0.08)">
     <defs>
      <path id="DejaVuSans-38" d="M 2034 2216 
Q 1584 2216 1326 1975 
Q 1069 1734 1069 1313 
Q 1069 891 1326 650 
Q 1584 409 2034 409 
Q 2484 409 2743 651 
Q 3003 894 3003 1313 
Q 3003 1734 2745 1975 
Q 2488 2216 2034 2216 
z
M 1403 2484 
Q 997 2584 770 2862 
Q 544 3141 544 3541 
Q 544 4100 942 4425 
Q 1341 4750 2034 4750 
Q 2731 4750 3128 4425 
Q 3525 4100 3525 3541 
Q 3525 3141 3298 2862 
Q 3072 2584 2669 2484 
Q 3125 2378 3379 2068 
Q 3634 1759 3634 1313 
Q 3634 634 3220 271 
Q 2806 -91 2034 -91 
Q 1263 -91 848 271 
Q 434 634 434 1313 
Q 434 1759 690 2068 
Q 947 2378 1403 2484 
z
M 1172 3481 
Q 1172 3119 1398 2916 
Q 1625 2713 2034 2713 
Q 2441 2713 2670 2916 
Q 2900 3119 2900 3481 
Q 2900 3844 2670 4047 
Q 2441 4250 2034 4250 
Q 1625 4250 1398 4047 
Q 1172 3844 1172 3481 
z
" transform="scale(0.015625)"/>
      <path id="DejaVuSans-37" d="M 525 4666 
L 3525 4666 
L 3525 4397 
L 1831 0 
L 1172 0 
L 2766 4134 
L 525 4134 
L 525 4666 
z
" transform="scale(0.015625)"/>
     </defs>
     <use xlink:href="#DejaVuSans-49" transform="translate(0 0.78125)"/>
     <use xlink:href="#DejaVuSans-Oblique-70" transform="translate(30.449219 -15.625) scale(0.7)"/>
     <use xlink:href="#DejaVuSans-2212" transform="translate(88.520508 -15.625) scale(0.7)"/>
     <use xlink:href="#DejaVuSans-Oblique-70" transform="translate(160.810547 -15.625) scale(0.7)"/>
     <use xlink:href="#DejaVuSans-20" transform="translate(207.978516 0.78125)"/>
     <use xlink:href="#DejaVuSans-3d" transform="translate(239.765625 0.78125)"/>
     <use xlink:href="#DejaVuSans-20" transform="translate(323.554688 0.78125)"/>
     <use xlink:href="#DejaVuSans-31" transform="translate(355.341797 0.78125)"/>
     <use xlink:href="#DejaVuSans-2e" transform="translate(418.964844 0.78125)"/>
     <use xlink:href="#DejaVuSans-38" transform="translate(448.126953 0.78125)"/>
     <use xlink:href="#DejaVuSans-37" transform="translate(511.75 0.78125)"/>
     <use xlink:href="#DejaVuSans-45" transform="translate(575.373047 0.78125)"/>
     <use xlink:href="#DejaVuSans-2d" transform="translate(638.556641 0.78125)"/>
     <use xlink:href="#DejaVuSans-30" transform="translate(674.640625 0.78125)"/>
     <use xlink:href="#DejaVuSans-33" transform="translate(738.263672 0.78125)"/>
     <use xlink:href="#DejaVuSans-20" transform="translate(801.886719 0.78125)"/>
     <use xlink:href="#DejaVuSans-6d" transform="translate(833.673828 0.78125)"/>
     <use xlink:href="#DejaVuSans-41" transform="translate(931.085938 0.78125)"/>
     <use xlink:href="#DejaVuSans-2f" transform="translate(999.494141 0.78125)"/>
     <use xlink:href="#DejaVuSans-6d" transform="translate(1033.185547 0.78125)"/>
     <use xlink:href="#DejaVuSans-b2" transform="translate(1130.597656 0.78125)"/>
    </g>
   </g>
   <g id="text_18">
    <g id="patch_10">
     <path d="M 305.899759 281.3527 
L 399.819759 281.3527 
Q 401.419759 281.3527 401.419759 279.7527 
L 401.419759 271.2727 
Q 401.419759 269.6727 399.819759 269.6727 
L 305.899759 269.6727 
Q 304.299759 269.6727 304.299759 271.2727 
L 304.299759 279.7527 
Q 304.299759 281.3527 305.899759 281.3527 
z
" style="fill: #ffffff; opacity: 0.85; stroke: #333333; stroke-linejoin: miter"/>
    </g>
    <!-- I$_{p-p}$ = 3.42E-03 mA/m² -->
    <g style="fill: #333333" transform="translate(305.899759 277.2727) scale(0.08 -0.08)">
     <use xlink:href="#DejaVuSans-49" transform="translate(0 0.78125)"/>
     <use xlink:href="#DejaVuSans-Oblique-70" transform="translate(30.449219 -15.625) scale(0.7)"/>
     <use xlink:href="#DejaVuSans-2212" transform="translate(88.520508 -15.625) scale(0.7)"/>
     <use xlink:href="#DejaVuSans-Oblique-70" transform="translate(160.810547 -15.625) scale(0.7)"/>
     <use xlink:href="#DejaVuSans-20" transform="translate(207.978516 0.78125)"/>
     <use xlink:href="#DejaVuSans-3d" transform="translate(239.765625 0.78125)"/>
     <use xlink:href="#DejaVuSans-20" transform="translate(323.554688 0.78125)"/>
     <use xlink:href="#DejaVuSans-33" transform="translate(355.341797 0.78125)"/>
     <use xlink:href="#DejaVuSans-2e" transform="translate(418.964844 0.78125)"/>
     <use xlink:href="#DejaVuSans-34" transform="translate(450.751953 0.78125)"/>
     <use xlink:href="#DejaVuSans-32" transform="translate(514.375 0.78125)"/>
     <use xlink:href="#DejaVuSans-45" transform="translate(577.998047 0.78125)"/>
     <use xlink:href="#DejaVuSans-2d" transform="translate(641.181641 0.78125)"/>
     <use xlink:href="#DejaVuSans-30" transform="translate(677.265625 0.78125)"/>
     <use xlink:href="#DejaVuSans-33" transform="translate(740.888672 0.78125)"/>
     <use xlink:href="#DejaVuSans-20" transform="translate(804.511719 0.78125)"/>
     <use xlink:href="#DejaVuSans-6d" transform="translate(836.298828 0.78125)"/>
     <use xlink:href="#DejaVuSans-41" transform="translate(933.710938 0.78125)"/>
     <use xlink:href="#DejaVuSans-2f" transform="translate(1002.119141 0.78125)"/>
     <use xlink:href="#DejaVuSans-6d" transform="translate(1035.810547 0.78125)"/>
     <use xlink:href="#DejaVuSans-b2" transform="translate(1133.222656 0.78125)"/>
    </g>
   </g>
   <g id="text_19">
    <!-- Short-Circuit Current — Without MIC -->
    <g transform="translate(66.873855 19.3575) scale(0.16 -0.16)">
     <defs>
      <path id="DejaVuSans-Bold-53" d="M 3834 4519 
L 3834 3531 
Q 3450 3703 3084 3790 
Q 2719 3878 2394 3878 
Q 1963 3878 1756 3759 
Q 1550 3641 1550 3391 
Q 1550 3203 1689 3098 
Q 1828 2994 2194 2919 
L 2706 2816 
Q 3484 2659 3812 2340 
Q 4141 2022 4141 1434 
Q 4141 663 3683 286 
Q 3225 -91 2284 -91 
Q 1841 -91 1394 -6 
Q 947 78 500 244 
L 500 1259 
Q 947 1022 1364 901 
Q 1781 781 2169 781 
Q 2563 781 2772 912 
Q 2981 1044 2981 1288 
Q 2981 1506 2839 1625 
Q 2697 1744 2272 1838 
L 1806 1941 
Q 1106 2091 782 2419 
Q 459 2747 459 3303 
Q 459 4000 909 4375 
Q 1359 4750 2203 4750 
Q 2588 4750 2994 4692 
Q 3400 4634 3834 4519 
z
" transform="scale(0.015625)"/>
      <path id="DejaVuSans-Bold-68" d="M 4056 2131 
L 4056 0 
L 2931 0 
L 2931 347 
L 2931 1625 
Q 2931 2084 2911 2256 
Q 2891 2428 2841 2509 
Q 2775 2619 2662 2680 
Q 2550 2741 2406 2741 
Q 2056 2741 1856 2470 
Q 1656 2200 1656 1722 
L 1656 0 
L 538 0 
L 538 4863 
L 1656 4863 
L 1656 2988 
Q 1909 3294 2193 3439 
Q 2478 3584 2822 3584 
Q 3428 3584 3742 3212 
Q 4056 2841 4056 2131 
z
" transform="scale(0.015625)"/>
      <path id="DejaVuSans-Bold-6f" d="M 2203 2784 
Q 1831 2784 1636 2517 
Q 1441 2250 1441 1747 
Q 1441 1244 1636 976 
Q 1831 709 2203 709 
Q 2569 709 2762 976 
Q 2956 1244 2956 1747 
Q 2956 2250 2762 2517 
Q 2569 2784 2203 2784 
z
M 2203 3584 
Q 3106 3584 3614 3096 
Q 4122 2609 4122 1747 
Q 4122 884 3614 396 
Q 3106 -91 2203 -91 
Q 1297 -91 786 396 
Q 275 884 275 1747 
Q 275 2609 786 3096 
Q 1297 3584 2203 3584 
z
" transform="scale(0.015625)"/>
      <path id="DejaVuSans-Bold-72" d="M 3138 2547 
Q 2991 2616 2845 2648 
Q 2700 2681 2553 2681 
Q 2122 2681 1889 2404 
Q 1656 2128 1656 1613 
L 1656 0 
L 538 0 
L 538 3500 
L 1656 3500 
L 1656 2925 
Q 1872 3269 2151 3426 
Q 2431 3584 2822 3584 
Q 2878 3584 2943 3579 
Q 3009 3575 3134 3559 
L 3138 2547 
z
" transform="scale(0.015625)"/>
      <path id="DejaVuSans-Bold-74" d="M 1759 4494 
L 1759 3500 
L 2913 3500 
L 2913 2700 
L 1759 2700 
L 1759 1216 
Q 1759 972 1856 886 
Q 1953 800 2241 800 
L 2816 800 
L 2816 0 
L 1856 0 
Q 1194 0 917 276 
Q 641 553 641 1216 
L 641 2700 
L 84 2700 
L 84 3500 
L 641 3500 
L 641 4494 
L 1759 4494 
z
" transform="scale(0.015625)"/>
      <path id="DejaVuSans-Bold-2d" d="M 347 2297 
L 2309 2297 
L 2309 1388 
L 347 1388 
L 347 2297 
z
" transform="scale(0.015625)"/>
      <path id="DejaVuSans-Bold-43" d="M 4288 256 
Q 3956 84 3597 -3 
Q 3238 -91 2847 -91 
Q 1681 -91 1000 561 
Q 319 1213 319 2328 
Q 319 3447 1000 4098 
Q 1681 4750 2847 4750 
Q 3238 4750 3597 4662 
Q 3956 4575 4288 4403 
L 4288 3438 
Q 3953 3666 3628 3772 
Q 3303 3878 2944 3878 
Q 2300 3878 1931 3465 
Q 1563 3053 1563 2328 
Q 1563 1606 1931 1193 
Q 2300 781 2944 781 
Q 3303 781 3628 887 
Q 3953 994 4288 1222 
L 4288 256 
z
" transform="scale(0.015625)"/>
      <path id="DejaVuSans-Bold-63" d="M 3366 3391 
L 3366 2478 
Q 3138 2634 2908 2709 
Q 2678 2784 2431 2784 
Q 1963 2784 1702 2511 
Q 1441 2238 1441 1747 
Q 1441 1256 1702 982 
Q 1963 709 2431 709 
Q 2694 709 2930 787 
Q 3166 866 3366 1019 
L 3366 103 
Q 3103 6 2833 -42 
Q 2563 -91 2291 -91 
Q 1344 -91 809 395 
Q 275 881 275 1747 
Q 275 2613 809 3098 
Q 1344 3584 2291 3584 
Q 2566 3584 2833 3536 
Q 3100 3488 3366 3391 
z
" transform="scale(0.015625)"/>
      <path id="DejaVuSans-Bold-75" d="M 500 1363 
L 500 3500 
L 1625 3500 
L 1625 3150 
Q 1625 2866 1622 2436 
Q 1619 2006 1619 1863 
Q 1619 1441 1641 1255 
Q 1663 1069 1716 984 
Q 1784 875 1895 815 
Q 2006 756 2150 756 
Q 2500 756 2700 1025 
Q 2900 1294 2900 1772 
L 2900 3500 
L 4019 3500 
L 4019 0 
L 2900 0 
L 2900 506 
Q 2647 200 2364 54 
Q 2081 -91 1741 -91 
Q 1134 -91 817 281 
Q 500 653 500 1363 
z
" transform="scale(0.015625)"/>
      <path id="DejaVuSans-Bold-6e" d="M 4056 2131 
L 4056 0 
L 2931 0 
L 2931 347 
L 2931 1631 
Q 2931 2084 2911 2256 
Q 2891 2428 2841 2509 
Q 2775 2619 2662 2680 
Q 2550 2741 2406 2741 
Q 2056 2741 1856 2470 
Q 1656 2200 1656 1722 
L 1656 0 
L 538 0 
L 538 3500 
L 1656 3500 
L 1656 2988 
Q 1909 3294 2193 3439 
Q 2478 3584 2822 3584 
Q 3428 3584 3742 3212 
Q 4056 2841 4056 2131 
z
" transform="scale(0.015625)"/>
      <path id="DejaVuSans-Bold-2014" d="M 344 2156 
L 6056 2156 
L 6056 1350 
L 344 1350 
L 344 2156 
z
" transform="scale(0.015625)"/>
      <path id="DejaVuSans-Bold-57" d="M 191 4666 
L 1344 4666 
L 2150 1275 
L 2950 4666 
L 4109 4666 
L 4909 1275 
L 5716 4666 
L 6859 4666 
L 5759 0 
L 4372 0 
L 3525 3547 
L 2688 0 
L 1300 0 
L 191 4666 
z
" transform="scale(0.015625)"/>
      <path id="DejaVuSans-Bold-4d" d="M 588 4666 
L 2119 4666 
L 3181 2169 
L 4250 4666 
L 5778 4666 
L 5778 0 
L 4641 0 
L 4641 3413 
L 3566 897 
L 2803 897 
L 1728 3413 
L 1728 0 
L 588 0 
L 588 4666 
z
" transform="scale(0.015625)"/>
     </defs>
     <use xlink:href="#DejaVuSans-Bold-53"/>
     <use xlink:href="#DejaVuSans-Bold-68" transform="translate(72.021484 0)"/>
     <use xlink:href="#DejaVuSans-Bold-6f" transform="translate(143.212891 0)"/>
     <use xlink:href="#DejaVuSans-Bold-72" transform="translate(211.914062 0)"/>
     <use xlink:href="#DejaVuSans-Bold-74" transform="translate(261.230469 0)"/>
     <use xlink:href="#DejaVuSans-Bold-2d" transform="translate(309.033203 0)"/>
     <use xlink:href="#DejaVuSans-Bold-43" transform="translate(350.537109 0)"/>
     <use xlink:href="#DejaVuSans-Bold-69" transform="translate(423.925781 0)"/>
     <use xlink:href="#DejaVuSans-Bold-72" transform="translate(458.203125 0)"/>
     <use xlink:href="#DejaVuSans-Bold-63" transform="translate(507.519531 0)"/>
     <use xlink:href="#DejaVuSans-Bold-75" transform="translate(566.796875 0)"/>
     <use xlink:href="#DejaVuSans-Bold-69" transform="translate(637.988281 0)"/>
     <use xlink:href="#DejaVuSans-Bold-74" transform="translate(672.265625 0)"/>
     <use xlink:href="#DejaVuSans-Bold-20" transform="translate(720.068359 0)"/>
     <use xlink:href="#DejaVuSans-Bold-43" transform="translate(754.882812 0)"/>
     <use xlink:href="#DejaVuSans-Bold-75" transform="translate(828.271484 0)"/>
     <use xlink:href="#DejaVuSans-Bold-72" transform="translate(899.462891 0)"/>
     <use xlink:href="#DejaVuSans-Bold-72" transform="translate(948.779297 0)"/>
     <use xlink:href="#DejaVuSans-Bold-65" transform="translate(998.095703 0)"/>
     <use xlink:href="#DejaVuSans-Bold-6e" transform="translate(1065.917969 0)"/>
     <use xlink:href="#DejaVuSans-Bold-74" transform="translate(1137.109375 0)"/>
     <use xlink:href="#DejaVuSans-Bold-20" transform="translate(1184.912109 0)"/>
     <use xlink:href="#DejaVuSans-Bold-2014" transform="translate(1219.726562 0)"/>
     <use xlink:href="#DejaVuSans-Bold-20" transform="translate(1319.726562 0)"/>
     <use xlink:href="#DejaVuSans-Bold-57" transform="translate(1354.541016 0)"/>
     <use xlink:href="#DejaVuSans-Bold-69" transform="translate(1464.84375 0)"/>
     <use xlink:href="#DejaVuSans-Bold-74" transform="translate(1499.121094 0)"/>
     <use xlink:href="#DejaVuSans-Bold-68" transform="translate(1546.923828 0)"/>
     <use xlink:href="#DejaVuSans-Bold-6f" transform="translate(1618.115234 0)"/>
     <use xlink:href="#DejaVuSans-Bold-75" transform="translate(1686.816406 0)"/>
     <use xlink:href="#DejaVuSans-Bold-74" transform="translate(1758.007812 0)"/>
     <use xlink:href="#DejaVuSans-Bold-20" transform="translate(1805.810547 0)"/>
     <use xlink:href="#DejaVuSans-Bold-4d" transform="translate(1840.625 0)"/>
     <use xlink:href="#DejaVuSans-Bold-49" transform="translate(1940.136719 0)"/>
     <use xlink:href="#DejaVuSans-Bold-43" transform="translate(1977.34375 0)"/>
    </g>
   </g>
   <g id="text_20">
    <!-- 1 Hz -->
    <g style="fill: #4a90d9" transform="translate(92.987171 55.277069) scale(0.13 -0.13)">
     <defs>
      <path id="DejaVuSans-Bold-31" d="M 750 831 
L 1813 831 
L 1813 3847 
L 722 3622 
L 722 4441 
L 1806 4666 
L 2950 4666 
L 2950 831 
L 4013 831 
L 4013 0 
L 750 0 
L 750 831 
z
" transform="scale(0.015625)"/>
      <path id="DejaVuSans-Bold-48" d="M 588 4666 
L 1791 4666 
L 1791 2888 
L 3566 2888 
L 3566 4666 
L 4769 4666 
L 4769 0 
L 3566 0 
L 3566 1978 
L 1791 1978 
L 1791 0 
L 588 0 
L 588 4666 
z
" transform="scale(0.015625)"/>
      <path id="DejaVuSans-Bold-7a" d="M 366 3500 
L 3419 3500 
L 3419 2719 
L 1575 800 
L 3419 800 
L 3419 0 
L 288 0 
L 288 781 
L 2131 2700 
L 366 2700 
L 366 3500 
z
" transform="scale(0.015625)"/>
     </defs>
     <use xlink:href="#DejaVuSans-Bold-31"/>
     <use xlink:href="#DejaVuSans-Bold-20" transform="translate(69.580078 0)"/>
     <use xlink:href="#DejaVuSans-Bold-48" transform="translate(104.394531 0)"/>
     <use xlink:href="#DejaVuSans-Bold-7a" transform="translate(188.085938 0)"/>
    </g>
   </g>
   <g id="text_21">
    <!-- 2.5 Hz -->
    <g style="fill: #5cb85c" transform="translate(207.927762 55.277069) scale(0.13 -0.13)">
     <defs>
      <path id="DejaVuSans-Bold-32" d="M 1844 884 
L 3897 884 
L 3897 0 
L 506 0 
L 506 884 
L 2209 2388 
Q 2438 2594 2547 2791 
Q 2656 2988 2656 3200 
Q 2656 3528 2436 3728 
Q 2216 3928 1850 3928 
Q 1569 3928 1234 3808 
Q 900 3688 519 3450 
L 519 4475 
Q 925 4609 1322 4679 
Q 1719 4750 2100 4750 
Q 2938 4750 3402 4381 
Q 3866 4013 3866 3353 
Q 3866 2972 3669 2642 
Q 3472 2313 2841 1759 
L 1844 884 
z
" transform="scale(0.015625)"/>
      <path id="DejaVuSans-Bold-2e" d="M 653 1209 
L 1778 1209 
L 1778 0 
L 653 0 
L 653 1209 
z
" transform="scale(0.015625)"/>
      <path id="DejaVuSans-Bold-35" d="M 678 4666 
L 3669 4666 
L 3669 3781 
L 1638 3781 
L 1638 3059 
Q 1775 3097 1914 3117 
Q 2053 3138 2203 3138 
Q 3056 3138 3531 2711 
Q 4006 2284 4006 1522 
Q 4006 766 3489 337 
Q 2972 -91 2053 -91 
Q 1656 -91 1267 -14 
Q 878 63 494 219 
L 494 1166 
Q 875 947 1217 837 
Q 1559 728 1863 728 
Q 2300 728 2551 942 
Q 2803 1156 2803 1522 
Q 2803 1891 2551 2103 
Q 2300 2316 1863 2316 
Q 1603 2316 1309 2248 
Q 1016 2181 678 2041 
L 678 4666 
z
" transform="scale(0.015625)"/>
     </defs>
     <use xlink:href="#DejaVuSans-Bold-32"/>
     <use xlink:href="#DejaVuSans-Bold-2e" transform="translate(69.580078 0)"/>
     <use xlink:href="#DejaVuSans-Bold-35" transform="translate(107.568359 0)"/>
     <use xlink:href="#DejaVuSans-Bold-20" transform="translate(177.148438 0)"/>
     <use xlink:href="#DejaVuSans-Bold-48" transform="translate(211.962891 0)"/>
     <use xlink:href="#DejaVuSans-Bold-7a" transform="translate(295.654297 0)"/>
    </g>
   </g>
   <g id="text_22">
    <!-- 5 Hz -->
    <g style="fill: #f0ad4e" transform="translate(336.851478 55.277069) scale(0.13 -0.13)">
     <use xlink:href="#DejaVuSans-Bold-35"/>
     <use xlink:href="#DejaVuSans-Bold-20" transform="translate(69.580078 0)"/>
     <use xlink:href="#DejaVuSans-Bold-48" transform="translate(104.394531 0)"/>
     <use xlink:href="#DejaVuSans-Bold-7a" transform="translate(188.085938 0)"/>
    </g>
   </g>
  </g>
 </g>
 <defs>
  <clipPath id="p6db00fa863">
   <rect x="48.029375" y="34.3575" width="365.796461" height="276.04"/>
  </clipPath>
 </defs>
</svg>
