<?xml version="1.0" encoding="utf-8" standalone="no"?>
<!DOCTYPE svg PUBLIC "-//W3C//DTD SVG 1.1//EN"
  "http://www.w3.org/Graphics/SVG/1.1/DTD/svg11.dtd">
<svg xmlns:xlink="http://www.w3.org/1999/xlink" width="424.172301pt" height="351.86975pt" viewBox="0 0 424.172301 351.86975" xmlns="http://www.w3.org/2000/svg" version="1.1">
 <metadata>
  <rdf:RDF xmlns:dc="http://purl.org/dc/elements/1.1/" xmlns:cc="http://creativecommons.org/ns#" xmlns:rdf="http://www.w3.org/1999/02/22-rdf-syntax-ns#">
   <cc:Work>
    <dc:type rdf:resource="http://purl.org/dc/dcmitype/StillImage"/>
    <dc:date>2026-04-26T16:38:51.181298</dc:date>
    <dc:format>image/svg+xml</dc:format>
    <dc:creator>
     <cc:Agent>
      <dc:title>Matplotlib v3.10.8, https://matplotlib.org/</dc:title>
     </cc:Agent>
    </dc:creator>
   </cc:Work>
  </rdf:RDF>
 </metadata>
 <defs>
  <style type="text/css">*{stroke-linejoin: round; stroke-linecap: butt}</style>
 </defs>
 <g id="figure_1">
  <g id="patch_1">
   <path d="M 0 351.86975 
L 424.172301 351.86975 
L 424.172301 0 
L 0 0 
z
" style="fill: #ffffff"/>
  </g>
  <g id="axes_1">
   <g id="patch_2">
    <path d="M 58.479375 309.474437 
L 416.972301 309.474437 
L 416.972301 17.798437 
L 58.479375 17.798437 
z
" style="fill: #ffffff"/>
   </g>
   <g id="patch_3">
    <path d="M 58.479375 309.474437 
L 237.725838 309.474437 
L 237.725838 17.798437 
L 58.479375 17.798437 
z
" clip-path="url(#pa289adde7d)" style="fill: #cccccc; opacity: 0.12; stroke: #cccccc; stroke-linejoin: miter"/>
   </g>
   <g id="patch_4">
    <path d="M 237.725838 309.474437 
L 416.972301 309.474437 
L 416.972301 17.798437 
L 237.725838 17.798437 
z
" clip-path="url(#pa289adde7d)" style="fill: #d94452; opacity: 0.06; stroke: #d94452; stroke-linejoin: miter"/>
   </g>
   <g id="line2d_1">
    <path d="M 237.725838 309.474437 
L 237.725838 17.798437 
" clip-path="url(#pa289adde7d)" style="fill: none; stroke-dasharray: 3.7,1.6; stroke-dashoffset: 0; stroke: #999999"/>
   </g>
   <g id="matplotlib.axis_1">
    <g id="xtick_1">
     <g id="line2d_2">
      <defs>
       <path id="me17bddac45" d="M 0 0 
L 0 3.5 
" style="stroke: #000000; stroke-width: 0.8"/>
      </defs>
      <g>
       <use xlink:href="#me17bddac45" x="58.479375" y="309.474437" style="stroke: #000000; stroke-width: 0.8"/>
      </g>
     </g>
     <g id="text_1">
      <!-- 0.0 -->
      <g transform="translate(49.732656 324.832719) scale(0.11 -0.11)">
       <defs>
        <path id="DejaVuSans-30" d="M 2034 4250 
Q 1547 4250 1301 3770 
Q 1056 3291 1056 2328 
Q 1056 1369 1301 889 
Q 1547 409 2034 409 
Q 2525 409 2770 889 
Q 3016 1369 3016 2328 
Q 3016 3291 2770 3770 
Q 2525 4250 2034 4250 
z
M 2034 4750 
Q 2819 4750 3233 4129 
Q 3647 3509 3647 2328 
Q 3647 1150 3233 529 
Q 2819 -91 2034 -91 
Q 1250 -91 836 529 
Q 422 1150 422 2328 
Q 422 3509 836 4129 
Q 1250 4750 2034 4750 
z
" transform="scale(0.015625)"/>
        <path id="DejaVuSans-2e" d="M 684 794 
L 1344 794 
L 1344 0 
L 684 0 
L 684 794 
z
" transform="scale(0.015625)"/>
       </defs>
       <use xlink:href="#DejaVuSans-30"/>
       <use xlink:href="#DejaVuSans-2e" transform="translate(63.623047 0)"/>
       <use xlink:href="#DejaVuSans-30" transform="translate(95.410156 0)"/>
      </g>
     </g>
    </g>
    <g id="xtick_2">
     <g id="line2d_3">
      <g>
       <use xlink:href="#me17bddac45" x="103.313408" y="309.474437" style="stroke: #000000; stroke-width: 0.8"/>
      </g>
     </g>
     <g id="text_2">
      <!-- 0.5 -->
      <g transform="translate(94.566689 324.832719) scale(0.11 -0.11)">
       <defs>
        <path id="DejaVuSans-35" d="M 691 4666 
L 3169 4666 
L 3169 4134 
L 1269 4134 
L 1269 2991 
Q 1406 3038 1543 3061 
Q 1681 3084 1819 3084 
Q 2600 3084 3056 2656 
Q 3513 2228 3513 1497 
Q 3513 744 3044 326 
Q 2575 -91 1722 -91 
Q 1428 -91 1123 -41 
Q 819 9 494 109 
L 494 744 
Q 775 591 1075 516 
Q 1375 441 1709 441 
Q 2250 441 2565 725 
Q 2881 1009 2881 1497 
Q 2881 1984 2565 2268 
Q 2250 2553 1709 2553 
Q 1456 2553 1204 2497 
Q 953 2441 691 2322 
L 691 4666 
z
" transform="scale(0.015625)"/>
       </defs>
       <use xlink:href="#DejaVuSans-30"/>
       <use xlink:href="#DejaVuSans-2e" transform="translate(63.623047 0)"/>
       <use xlink:href="#DejaVuSans-35" transform="translate(95.410156 0)"/>
      </g>
     </g>
    </g>
    <g id="xtick_3">
     <g id="line2d_4">
      <g>
       <use xlink:href="#me17bddac45" x="148.14744" y="309.474437" style="stroke: #000000; stroke-width: 0.8"/>
      </g>
     </g>
     <g id="text_3">
      <!-- 1.0 -->
      <g transform="translate(139.400722 324.832719) scale(0.11 -0.11)">
       <defs>
        <path id="DejaVuSans-31" d="M 794 531 
L 1825 531 
L 1825 4091 
L 703 3866 
L 703 4441 
L 1819 4666 
L 2450 4666 
L 2450 531 
L 3481 531 
L 3481 0 
L 794 0 
L 794 531 
z
" transform="scale(0.015625)"/>
       </defs>
       <use xlink:href="#DejaVuSans-31"/>
       <use xlink:href="#DejaVuSans-2e" transform="translate(63.623047 0)"/>
       <use xlink:href="#DejaVuSans-30" transform="translate(95.410156 0)"/>
      </g>
     </g>
    </g>
    <g id="xtick_4">
     <g id="line2d_5">
      <g>
       <use xlink:href="#me17bddac45" x="192.981473" y="309.474437" style="stroke: #000000; stroke-width: 0.8"/>
      </g>
     </g>
     <g id="text_4">
      <!-- 1.5 -->
      <g transform="translate(184.234754 324.832719) scale(0.11 -0.11)">
       <use xlink:href="#DejaVuSans-31"/>
       <use xlink:href="#DejaVuSans-2e" transform="translate(63.623047 0)"/>
       <use xlink:href="#DejaVuSans-35" transform="translate(95.410156 0)"/>
      </g>
     </g>
    </g>
    <g id="xtick_5">
     <g id="line2d_6">
      <g>
       <use xlink:href="#me17bddac45" x="237.815506" y="309.474437" style="stroke: #000000; stroke-width: 0.8"/>
      </g>
     </g>
     <g id="text_5">
      <!-- 2.0 -->
      <g transform="translate(229.068787 324.832719) scale(0.11 -0.11)">
       <defs>
        <path id="DejaVuSans-32" d="M 1228 531 
L 3431 531 
L 3431 0 
L 469 0 
L 469 531 
Q 828 903 1448 1529 
Q 2069 2156 2228 2338 
Q 2531 2678 2651 2914 
Q 2772 3150 2772 3378 
Q 2772 3750 2511 3984 
Q 2250 4219 1831 4219 
Q 1534 4219 1204 4116 
Q 875 4013 500 3803 
L 500 4441 
Q 881 4594 1212 4672 
Q 1544 4750 1819 4750 
Q 2544 4750 2975 4387 
Q 3406 4025 3406 3419 
Q 3406 3131 3298 2873 
Q 3191 2616 2906 2266 
Q 2828 2175 2409 1742 
Q 1991 1309 1228 531 
z
" transform="scale(0.015625)"/>
       </defs>
       <use xlink:href="#DejaVuSans-32"/>
       <use xlink:href="#DejaVuSans-2e" transform="translate(63.623047 0)"/>
       <use xlink:href="#DejaVuSans-30" transform="translate(95.410156 0)"/>
      </g>
     </g>
    </g>
    <g id="xtick_6">
     <g id="line2d_7">
      <g>
       <use xlink:href="#me17bddac45" x="282.649539" y="309.474437" style="stroke: #000000; stroke-width: 0.8"/>
      </g>
     </g>
     <g id="text_6">
      <!-- 2.5 -->
      <g transform="translate(273.90282 324.832719) scale(0.11 -0.11)">
       <use xlink:href="#DejaVuSans-32"/>
       <use xlink:href="#DejaVuSans-2e" transform="translate(63.623047 0)"/>
       <use xlink:href="#DejaVuSans-35" transform="translate(95.410156 0)"/>
      </g>
     </g>
    </g>
    <g id="xtick_7">
     <g id="line2d_8">
      <g>
       <use xlink:href="#me17bddac45" x="327.483571" y="309.474437" style="stroke: #000000; stroke-width: 0.8"/>
      </g>
     </g>
     <g id="text_7">
      <!-- 3.0 -->
      <g transform="translate(318.736853 324.832719) scale(0.11 -0.11)">
       <defs>
        <path id="DejaVuSans-33" d="M 2597 2516 
Q 3050 2419 3304 2112 
Q 3559 1806 3559 1356 
Q 3559 666 3084 287 
Q 2609 -91 1734 -91 
Q 1441 -91 1130 -33 
Q 819 25 488 141 
L 488 750 
Q 750 597 1062 519 
Q 1375 441 1716 441 
Q 2309 441 2620 675 
Q 2931 909 2931 1356 
Q 2931 1769 2642 2001 
Q 2353 2234 1838 2234 
L 1294 2234 
L 1294 2753 
L 1863 2753 
Q 2328 2753 2575 2939 
Q 2822 3125 2822 3475 
Q 2822 3834 2567 4026 
Q 2313 4219 1838 4219 
Q 1578 4219 1281 4162 
Q 984 4106 628 3988 
L 628 4550 
Q 988 4650 1302 4700 
Q 1616 4750 1894 4750 
Q 2613 4750 3031 4423 
Q 3450 4097 3450 3541 
Q 3450 3153 3228 2886 
Q 3006 2619 2597 2516 
z
" transform="scale(0.015625)"/>
       </defs>
       <use xlink:href="#DejaVuSans-33"/>
       <use xlink:href="#DejaVuSans-2e" transform="translate(63.623047 0)"/>
       <use xlink:href="#DejaVuSans-30" transform="translate(95.410156 0)"/>
      </g>
     </g>
    </g>
    <g id="xtick_8">
     <g id="line2d_9">
      <g>
       <use xlink:href="#me17bddac45" x="372.317604" y="309.474437" style="stroke: #000000; stroke-width: 0.8"/>
      </g>
     </g>
     <g id="text_8">
      <!-- 3.5 -->
      <g transform="translate(363.570885 324.832719) scale(0.11 -0.11)">
       <use xlink:href="#DejaVuSans-33"/>
       <use xlink:href="#DejaVuSans-2e" transform="translate(63.623047 0)"/>
       <use xlink:href="#DejaVuSans-35" transform="translate(95.410156 0)"/>
      </g>
     </g>
    </g>
    <g id="text_9">
     <!-- Time (s) -->
     <g transform="translate(205.507244 341.758187) scale(0.14 -0.14)">
      <defs>
       <path id="DejaVuSans-Bold-54" d="M 31 4666 
L 4331 4666 
L 4331 3756 
L 2784 3756 
L 2784 0 
L 1581 0 
L 1581 3756 
L 31 3756 
L 31 4666 
z
" transform="scale(0.015625)"/>
       <path id="DejaVuSans-Bold-69" d="M 538 3500 
L 1656 3500 
L 1656 0 
L 538 0 
L 538 3500 
z
M 538 4863 
L 1656 4863 
L 1656 3950 
L 538 3950 
L 538 4863 
z
" transform="scale(0.015625)"/>
       <path id="DejaVuSans-Bold-6d" d="M 3781 2919 
Q 3994 3244 4286 3414 
Q 4578 3584 4928 3584 
Q 5531 3584 5847 3212 
Q 6163 2841 6163 2131 
L 6163 0 
L 5038 0 
L 5038 1825 
Q 5041 1866 5042 1909 
Q 5044 1953 5044 2034 
Q 5044 2406 4934 2573 
Q 4825 2741 4581 2741 
Q 4263 2741 4089 2478 
Q 3916 2216 3909 1719 
L 3909 0 
L 2784 0 
L 2784 1825 
Q 2784 2406 2684 2573 
Q 2584 2741 2328 2741 
Q 2006 2741 1831 2477 
Q 1656 2213 1656 1722 
L 1656 0 
L 531 0 
L 531 3500 
L 1656 3500 
L 1656 2988 
Q 1863 3284 2130 3434 
Q 2397 3584 2719 3584 
Q 3081 3584 3359 3409 
Q 3638 3234 3781 2919 
z
" transform="scale(0.015625)"/>
       <path id="DejaVuSans-Bold-65" d="M 4031 1759 
L 4031 1441 
L 1416 1441 
Q 1456 1047 1700 850 
Q 1944 653 2381 653 
Q 2734 653 3104 758 
Q 3475 863 3866 1075 
L 3866 213 
Q 3469 63 3072 -14 
Q 2675 -91 2278 -91 
Q 1328 -91 801 392 
Q 275 875 275 1747 
Q 275 2603 792 3093 
Q 1309 3584 2216 3584 
Q 3041 3584 3536 3087 
Q 4031 2591 4031 1759 
z
M 2881 2131 
Q 2881 2450 2695 2645 
Q 2509 2841 2209 2841 
Q 1884 2841 1681 2658 
Q 1478 2475 1428 2131 
L 2881 2131 
z
" transform="scale(0.015625)"/>
       <path id="DejaVuSans-Bold-20" transform="scale(0.015625)"/>
       <path id="DejaVuSans-Bold-28" d="M 2413 -844 
L 1484 -844 
Q 1006 -72 778 623 
Q 550 1319 550 2003 
Q 550 2688 779 3389 
Q 1009 4091 1484 4856 
L 2413 4856 
Q 2013 4116 1813 3408 
Q 1613 2700 1613 2009 
Q 1613 1319 1811 609 
Q 2009 -100 2413 -844 
z
" transform="scale(0.015625)"/>
       <path id="DejaVuSans-Bold-73" d="M 3272 3391 
L 3272 2541 
Q 2913 2691 2578 2766 
Q 2244 2841 1947 2841 
Q 1628 2841 1473 2761 
Q 1319 2681 1319 2516 
Q 1319 2381 1436 2309 
Q 1553 2238 1856 2203 
L 2053 2175 
Q 2913 2066 3209 1816 
Q 3506 1566 3506 1031 
Q 3506 472 3093 190 
Q 2681 -91 1863 -91 
Q 1516 -91 1145 -36 
Q 775 19 384 128 
L 384 978 
Q 719 816 1070 734 
Q 1422 653 1784 653 
Q 2113 653 2278 743 
Q 2444 834 2444 1013 
Q 2444 1163 2330 1236 
Q 2216 1309 1875 1350 
L 1678 1375 
Q 931 1469 631 1722 
Q 331 1975 331 2491 
Q 331 3047 712 3315 
Q 1094 3584 1881 3584 
Q 2191 3584 2531 3537 
Q 2872 3491 3272 3391 
z
" transform="scale(0.015625)"/>
       <path id="DejaVuSans-Bold-29" d="M 513 -844 
Q 913 -100 1113 609 
Q 1313 1319 1313 2009 
Q 1313 2700 1113 3408 
Q 913 4116 513 4856 
L 1441 4856 
Q 1916 4091 2145 3389 
Q 2375 2688 2375 2003 
Q 2375 1319 2147 623 
Q 1919 -72 1441 -844 
L 513 -844 
z
" transform="scale(0.015625)"/>
      </defs>
      <use xlink:href="#DejaVuSans-Bold-54"/>
      <use xlink:href="#DejaVuSans-Bold-69" transform="translate(68.212891 0)"/>
      <use xlink:href="#DejaVuSans-Bold-6d" transform="translate(102.490234 0)"/>
      <use xlink:href="#DejaVuSans-Bold-65" transform="translate(206.689453 0)"/>
      <use xlink:href="#DejaVuSans-Bold-20" transform="translate(274.511719 0)"/>
      <use xlink:href="#DejaVuSans-Bold-28" transform="translate(309.326172 0)"/>
      <use xlink:href="#DejaVuSans-Bold-73" transform="translate(355.029297 0)"/>
      <use xlink:href="#DejaVuSans-Bold-29" transform="translate(414.550781 0)"/>
     </g>
    </g>
   </g>
   <g id="matplotlib.axis_2">
    <g id="ytick_1">
     <g id="line2d_10">
      <defs>
       <path id="m33f974c405" d="M 0 0 
L -3.5 0 
" style="stroke: #000000; stroke-width: 0.8"/>
      </defs>
      <g>
       <use xlink:href="#m33f974c405" x="58.479375" y="263.846655" style="stroke: #000000; stroke-width: 0.8"/>
      </g>
     </g>
     <g id="text_10">
      <!-- $\mathdefault{−1.0}$ -->
      <g transform="translate(24.749375 268.025796) scale(0.11 -0.11)">
       <defs>
        <path id="DejaVuSans-2212" d="M 678 2272 
L 4684 2272 
L 4684 1741 
L 678 1741 
L 678 2272 
z
" transform="scale(0.015625)"/>
       </defs>
       <use xlink:href="#DejaVuSans-2212" transform="translate(0 0.78125)"/>
       <use xlink:href="#DejaVuSans-31" transform="translate(83.789062 0.78125)"/>
       <use xlink:href="#DejaVuSans-2e" transform="translate(147.412109 0.78125)"/>
       <use xlink:href="#DejaVuSans-30" transform="translate(179.199219 0.78125)"/>
      </g>
     </g>
    </g>
    <g id="ytick_2">
     <g id="line2d_11">
      <g>
       <use xlink:href="#m33f974c405" x="58.479375" y="213.741546" style="stroke: #000000; stroke-width: 0.8"/>
      </g>
     </g>
     <g id="text_11">
      <!-- $\mathdefault{−0.5}$ -->
      <g transform="translate(24.749375 217.920687) scale(0.11 -0.11)">
       <use xlink:href="#DejaVuSans-2212" transform="translate(0 0.78125)"/>
       <use xlink:href="#DejaVuSans-30" transform="translate(83.789062 0.78125)"/>
       <use xlink:href="#DejaVuSans-2e" transform="translate(147.412109 0.78125)"/>
       <use xlink:href="#DejaVuSans-35" transform="translate(179.199219 0.78125)"/>
      </g>
     </g>
    </g>
    <g id="ytick_3">
     <g id="line2d_12">
      <g>
       <use xlink:href="#m33f974c405" x="58.479375" y="163.636437" style="stroke: #000000; stroke-width: 0.8"/>
      </g>
     </g>
     <g id="text_12">
      <!-- $\mathdefault{0.0}$ -->
      <g transform="translate(33.879375 167.815578) scale(0.11 -0.11)">
       <use xlink:href="#DejaVuSans-30" transform="translate(0 0.78125)"/>
       <use xlink:href="#DejaVuSans-2e" transform="translate(63.623047 0.78125)"/>
       <use xlink:href="#DejaVuSans-30" transform="translate(95.410156 0.78125)"/>
      </g>
     </g>
    </g>
    <g id="ytick_4">
     <g id="line2d_13">
      <g>
       <use xlink:href="#m33f974c405" x="58.479375" y="113.531329" style="stroke: #000000; stroke-width: 0.8"/>
      </g>
     </g>
     <g id="text_13">
      <!-- $\mathdefault{0.5}$ -->
      <g transform="translate(33.879375 117.710469) scale(0.11 -0.11)">
       <use xlink:href="#DejaVuSans-30" transform="translate(0 0.78125)"/>
       <use xlink:href="#DejaVuSans-2e" transform="translate(63.623047 0.78125)"/>
       <use xlink:href="#DejaVuSans-35" transform="translate(95.410156 0.78125)"/>
      </g>
     </g>
    </g>
    <g id="ytick_5">
     <g id="line2d_14">
      <g>
       <use xlink:href="#m33f974c405" x="58.479375" y="63.42622" style="stroke: #000000; stroke-width: 0.8"/>
      </g>
     </g>
     <g id="text_14">
      <!-- $\mathdefault{1.0}$ -->
      <g transform="translate(33.879375 67.60536) scale(0.11 -0.11)">
       <use xlink:href="#DejaVuSans-31" transform="translate(0 0.78125)"/>
       <use xlink:href="#DejaVuSans-2e" transform="translate(63.623047 0.78125)"/>
       <use xlink:href="#DejaVuSans-30" transform="translate(95.410156 0.78125)"/>
      </g>
     </g>
    </g>
    <g id="text_15">
     <!-- I$_{sc}$ (mA/m²) -->
     <g transform="translate(17.837813 206.266437) rotate(-90) scale(0.14 -0.14)">
      <defs>
       <path id="DejaVuSans-Bold-49" d="M 588 4666 
L 1791 4666 
L 1791 0 
L 588 0 
L 588 4666 
z
" transform="scale(0.015625)"/>
       <path id="DejaVuSans-Oblique-73" d="M 3200 3397 
L 3091 2853 
Q 2863 2978 2609 3040 
Q 2356 3103 2088 3103 
Q 1634 3103 1373 2948 
Q 1113 2794 1113 2528 
Q 1113 2219 1719 2053 
Q 1766 2041 1788 2034 
L 1972 1978 
Q 2547 1819 2739 1644 
Q 2931 1469 2931 1166 
Q 2931 609 2489 259 
Q 2047 -91 1331 -91 
Q 1053 -91 747 -37 
Q 441 16 72 128 
L 184 722 
Q 500 559 806 475 
Q 1113 391 1394 391 
Q 1816 391 2080 572 
Q 2344 753 2344 1031 
Q 2344 1331 1650 1516 
L 1591 1531 
L 1394 1581 
Q 956 1697 753 1886 
Q 550 2075 550 2369 
Q 550 2928 970 3256 
Q 1391 3584 2113 3584 
Q 2397 3584 2667 3537 
Q 2938 3491 3200 3397 
z
" transform="scale(0.015625)"/>
       <path id="DejaVuSans-Oblique-63" d="M 3431 3366 
L 3316 2797 
Q 3109 2947 2876 3022 
Q 2644 3097 2394 3097 
Q 2119 3097 1870 3000 
Q 1622 2903 1453 2725 
Q 1184 2453 1037 2087 
Q 891 1722 891 1331 
Q 891 859 1127 628 
Q 1363 397 1844 397 
Q 2081 397 2348 469 
Q 2616 541 2906 684 
L 2797 116 
Q 2547 13 2283 -39 
Q 2019 -91 1741 -91 
Q 1044 -91 669 257 
Q 294 606 294 1253 
Q 294 1797 489 2255 
Q 684 2713 1069 3078 
Q 1331 3328 1684 3456 
Q 2038 3584 2456 3584 
Q 2700 3584 2940 3529 
Q 3181 3475 3431 3366 
z
" transform="scale(0.015625)"/>
       <path id="DejaVuSans-Bold-41" d="M 3419 850 
L 1538 850 
L 1241 0 
L 31 0 
L 1759 4666 
L 3194 4666 
L 4922 0 
L 3713 0 
L 3419 850 
z
M 1838 1716 
L 3116 1716 
L 2478 3572 
L 1838 1716 
z
" transform="scale(0.015625)"/>
       <path id="DejaVuSans-Bold-2f" d="M 1644 4666 
L 2338 4666 
L 691 -594 
L 0 -594 
L 1644 4666 
z
" transform="scale(0.015625)"/>
       <path id="DejaVuSans-Bold-b2" d="M 1288 2613 
L 2444 2613 
L 2444 2088 
L 341 2088 
L 341 2566 
L 1319 3397 
Q 1509 3563 1590 3688 
Q 1672 3813 1672 3938 
Q 1672 4094 1558 4191 
Q 1444 4288 1259 4288 
Q 1066 4288 844 4217 
Q 622 4147 359 4000 
L 359 4581 
Q 631 4666 886 4708 
Q 1141 4750 1375 4750 
Q 1869 4750 2150 4548 
Q 2431 4347 2431 4000 
Q 2431 3775 2320 3586 
Q 2209 3397 1894 3128 
L 1288 2613 
z
" transform="scale(0.015625)"/>
      </defs>
      <use xlink:href="#DejaVuSans-Bold-49" transform="translate(0 0.125)"/>
      <use xlink:href="#DejaVuSans-Oblique-73" transform="translate(38.164062 -16.28125) scale(0.7)"/>
      <use xlink:href="#DejaVuSans-Oblique-63" transform="translate(74.633789 -16.28125) scale(0.7)"/>
      <use xlink:href="#DejaVuSans-Bold-20" transform="translate(115.854492 0.125)"/>
      <use xlink:href="#DejaVuSans-Bold-28" transform="translate(150.668945 0.125)"/>
      <use xlink:href="#DejaVuSans-Bold-6d" transform="translate(196.37207 0.125)"/>
      <use xlink:href="#DejaVuSans-Bold-41" transform="translate(300.571289 0.125)"/>
      <use xlink:href="#DejaVuSans-Bold-2f" transform="translate(377.963867 0.125)"/>
      <use xlink:href="#DejaVuSans-Bold-6d" transform="translate(414.487305 0.125)"/>
      <use xlink:href="#DejaVuSans-Bold-b2" transform="translate(518.686523 0.125)"/>
      <use xlink:href="#DejaVuSans-Bold-29" transform="translate(562.485352 0.125)"/>
     </g>
    </g>
    <g id="text_16">
     <!-- $\times\mathdefault{10^{−3}}\mathdefault{}$ -->
     <g transform="translate(58.479375 14.798437) scale(0.1 -0.1)">
      <defs>
       <path id="DejaVuSans-d7" d="M 4488 3438 
L 3059 2003 
L 4488 575 
L 4116 197 
L 2681 1631 
L 1247 197 
L 878 575 
L 2303 2003 
L 878 3438 
L 1247 3816 
L 2681 2381 
L 4116 3816 
L 4488 3438 
z
" transform="scale(0.015625)"/>
      </defs>
      <use xlink:href="#DejaVuSans-d7" transform="translate(0 0.765625)"/>
      <use xlink:href="#DejaVuSans-31" transform="translate(83.789062 0.765625)"/>
      <use xlink:href="#DejaVuSans-30" transform="translate(147.412109 0.765625)"/>
      <use xlink:href="#DejaVuSans-2212" transform="translate(211.992188 39.046875) scale(0.7)"/>
      <use xlink:href="#DejaVuSans-33" transform="translate(270.644531 39.046875) scale(0.7)"/>
     </g>
    </g>
   </g>
   <g id="patch_5">
    <path d="M 58.479375 309.474437 
L 58.479375 17.798437 
" style="fill: none; stroke: #000000; stroke-width: 0.8; stroke-linejoin: miter; stroke-linecap: square"/>
   </g>
   <g id="patch_6">
    <path d="M 58.479375 309.474437 
L 416.972301 309.474437 
" style="fill: none; stroke: #000000; stroke-width: 0.8; stroke-linejoin: miter; stroke-linecap: square"/>
   </g>
   <g id="line2d_15">
    <path d="M 58.479375 154.229394 
L 58.658711 154.31008 
L 59.19672 155.923806 
L 59.286388 155.923806 
L 59.555392 156.649982 
L 59.64506 156.407921 
L 59.914064 157.05341 
L 60.0934 156.892039 
L 60.183068 156.972726 
L 60.452072 157.537528 
L 60.721077 158.183017 
L 60.900413 157.860273 
L 61.169417 158.263704 
L 61.348753 158.021646 
L 61.438421 158.021646 
L 61.886761 158.98988 
L 62.066098 159.070567 
L 62.155766 159.070567 
L 62.335102 159.473998 
L 62.42477 159.393311 
L 62.693774 159.070567 
L 62.783442 159.312625 
L 62.87311 159.231938 
L 63.680123 160.522919 
L 63.769791 160.522919 
L 63.859459 160.764976 
L 63.949127 160.68429 
L 64.128463 160.845663 
L 64.307799 161.087721 
L 64.397467 160.845663 
L 64.576803 161.087721 
L 64.75614 161.249094 
L 64.935476 161.571839 
L 65.114812 161.652525 
L 65.20448 161.733211 
L 65.294148 161.97527 
L 65.383816 161.813897 
L 65.563152 161.97527 
L 65.65282 161.813897 
L 65.832156 161.97527 
L 65.921824 161.733211 
L 66.818505 162.540073 
L 66.997841 162.378701 
L 67.266845 162.298015 
L 67.356513 162.217329 
L 67.53585 162.459387 
L 67.625518 162.459387 
L 67.894522 162.782132 
L 68.163526 162.943504 
L 68.253194 162.862818 
L 68.342862 162.943504 
L 68.522198 162.701446 
L 68.701534 162.62076 
L 68.791203 162.540073 
L 68.880871 162.62076 
L 68.970539 162.459387 
L 69.149875 162.701446 
L 69.329211 162.862818 
L 69.687883 163.104877 
L 70.225892 163.024191 
L 70.31556 162.943504 
L 70.494896 163.024191 
L 70.584564 162.943504 
L 70.853568 163.266249 
L 71.032904 163.508308 
L 71.122572 163.346935 
L 71.301908 163.508308 
L 71.481244 163.427622 
L 71.660581 163.346935 
L 72.288257 163.266249 
L 72.467593 163.66968 
L 72.557261 163.66968 
L 72.646929 163.911739 
L 72.736597 163.66968 
L 72.826265 163.750366 
L 72.915934 163.992425 
L 73.09527 163.66968 
L 73.274606 163.588994 
L 73.453942 163.346935 
L 73.633278 163.911739 
L 73.722946 163.992425 
L 73.812614 163.831053 
L 73.902282 164.234484 
L 73.99195 163.911739 
L 74.081618 164.153797 
L 74.171286 163.992425 
L 74.529959 164.234484 
L 74.709295 163.750366 
L 74.888631 163.911739 
L 75.067967 163.831053 
L 75.336971 164.476542 
L 75.426639 164.476542 
L 75.605976 164.799287 
L 75.695644 164.718601 
L 75.785312 165.202718 
L 75.964648 164.879973 
L 76.143984 165.36409 
L 76.233652 165.202718 
L 76.32332 165.283404 
L 76.502656 165.041346 
L 76.592324 165.36409 
L 76.681992 165.202718 
L 76.950996 165.928894 
L 77.220001 165.686835 
L 77.489005 166.332325 
L 77.847677 166.090266 
L 78.027013 166.816441 
L 78.116681 166.977814 
L 78.475354 168.510853 
L 78.565022 168.59154 
L 78.923694 169.882518 
L 79.013362 169.882518 
L 80.089379 176.095356 
L 80.806723 182.711623 
L 81.344732 190.69956 
L 82.241412 213.695124 
L 82.689753 231.204029 
L 83.765769 274.532472 
L 83.855438 274.290414 
L 84.034774 270.820911 
L 84.483114 249.358412 
L 84.931454 224.507055 
L 85.11079 214.421297 
L 85.469463 175.207807 
L 86.007471 125.424402 
L 86.455811 105.414226 
L 86.904152 95.731889 
L 87.262824 90.810014 
L 87.531828 89.276973 
L 87.621496 89.196304 
L 87.711164 89.357668 
L 87.980169 91.052072 
L 88.249173 94.360212 
L 89.32519 113.402158 
L 89.863198 122.196957 
L 90.939215 136.236358 
L 92.194568 146.806262 
L 92.284236 147.048322 
L 92.463572 147.935869 
L 92.911912 149.953025 
L 93.718925 154.068023 
L 93.808593 153.745276 
L 94.525937 155.520374 
L 94.705273 155.762432 
L 94.88461 156.085177 
L 95.063946 156.730666 
L 95.153614 156.730666 
L 95.243282 156.972726 
L 95.33295 156.892039 
L 95.512286 157.214784 
L 95.601954 157.214784 
L 95.78129 156.892039 
L 96.050294 157.134097 
L 96.408967 158.263704 
L 96.498635 158.183017 
L 96.588303 158.425078 
L 96.677971 158.344391 
L 96.857307 158.828509 
L 96.946975 158.747822 
L 97.215979 158.909193 
L 97.305647 158.828509 
L 97.574652 159.151254 
L 97.753988 159.231938 
L 97.843656 159.231938 
L 98.11266 160.119487 
L 98.291996 159.796743 
L 98.381664 160.0388 
L 98.471332 159.958114 
L 98.650668 160.361545 
L 98.919673 160.361545 
L 99.547349 161.410466 
L 99.637017 161.410466 
L 99.816353 161.652525 
L 99.906021 161.733211 
L 100.085357 161.571839 
L 100.175025 161.733211 
L 100.354362 161.571839 
L 100.44403 161.571839 
L 100.533698 161.813897 
L 100.713034 161.733211 
L 100.89237 162.136642 
L 100.982038 162.136642 
L 101.071706 162.298015 
L 101.251042 162.136642 
L 101.34071 162.298015 
L 101.609714 162.136642 
L 101.878719 162.217329 
L 101.968387 162.298015 
L 102.147723 162.217329 
L 102.327059 162.540073 
L 102.685731 162.862818 
L 102.775399 162.782132 
L 102.865067 162.943504 
L 102.954735 162.782132 
L 103.044404 162.862818 
L 103.22374 162.701446 
L 103.313408 162.862818 
L 103.403076 162.782132 
L 103.67208 162.943504 
L 103.761748 162.782132 
L 104.030752 162.943504 
L 104.389425 163.024191 
L 104.479093 163.104877 
L 104.658429 162.862818 
L 104.748097 163.104877 
L 104.837765 162.943504 
L 105.017101 163.104877 
L 105.196437 163.104877 
L 105.465441 163.427622 
L 105.734446 163.588994 
L 105.824114 163.588994 
L 106.00345 163.346935 
L 106.093118 163.588994 
L 106.362122 163.427622 
L 106.631126 163.588994 
L 106.720794 163.427622 
L 106.989798 163.750366 
L 107.169135 163.750366 
L 107.258803 163.992425 
L 107.438139 163.831053 
L 107.617475 163.750366 
L 107.707143 163.750366 
L 107.796811 163.266249 
L 107.886479 163.750366 
L 107.976147 163.66968 
L 108.065815 164.073111 
L 108.155483 163.831053 
L 108.334819 164.234484 
L 108.514156 164.153797 
L 108.603824 164.153797 
L 108.693492 163.911739 
L 108.78316 164.234484 
L 108.872828 164.153797 
L 109.052164 163.911739 
L 109.2315 163.992425 
L 109.321168 164.073111 
L 109.410836 163.911739 
L 109.769508 164.153797 
L 109.859177 164.153797 
L 110.038513 164.476542 
L 110.217849 164.31517 
L 110.397185 164.799287 
L 110.486853 164.395856 
L 110.666189 164.799287 
L 110.755857 164.718601 
L 111.114529 164.960659 
L 111.293866 165.444777 
L 111.473202 165.444777 
L 111.652538 165.767522 
L 111.742206 165.767522 
L 111.921542 165.525463 
L 112.01121 165.686835 
L 112.100878 165.444777 
L 112.280214 165.525463 
L 112.369882 165.525463 
L 112.638887 166.413012 
L 112.728555 166.493696 
L 112.818223 166.332325 
L 112.907891 166.735757 
L 112.997559 166.574383 
L 113.176895 166.897128 
L 113.266563 166.735757 
L 113.445899 167.139188 
L 115.059924 173.029279 
L 115.956605 181.178584 
L 116.494613 187.794854 
L 117.032622 198.284045 
L 117.57063 214.098545 
L 118.108639 236.045184 
L 119.094987 274.451803 
L 119.184655 274.209745 
L 119.363991 270.659547 
L 119.722664 254.360957 
L 120.619344 196.347583 
L 121.247021 130.426972 
L 121.695361 107.592746 
L 122.23337 95.570501 
L 122.68171 89.519031 
L 122.950714 88.873552 
L 123.219718 90.245205 
L 123.668059 96.135311 
L 124.385403 108.80306 
L 125.282084 123.972056 
L 126.447769 138.334209 
L 127.075445 143.498127 
L 127.972126 149.146163 
L 129.317147 154.794199 
L 129.586151 155.439688 
L 129.675819 155.439688 
L 129.944823 156.00449 
L 130.034491 155.923806 
L 130.393164 156.892039 
L 130.5725 156.811353 
L 130.841504 157.456842 
L 131.200176 157.456842 
L 131.379512 157.618215 
L 131.46918 157.537528 
L 131.558848 157.94096 
L 131.648516 157.779586 
L 131.917521 158.425078 
L 132.007189 158.344391 
L 132.276193 158.98988 
L 132.365861 158.828509 
L 132.545197 159.231938 
L 132.634865 158.909193 
L 132.814201 159.231938 
L 132.993537 159.151254 
L 133.531546 159.716056 
L 134.069554 160.764976 
L 134.159222 160.68429 
L 134.428226 160.764976 
L 134.517895 160.92635 
L 134.607563 160.764976 
L 134.786899 161.249094 
L 134.966235 161.32978 
L 135.235239 161.894584 
L 135.324907 161.894584 
L 135.504243 162.055956 
L 136.221588 162.055956 
L 136.490592 162.378701 
L 136.58026 162.217329 
L 136.849264 162.62076 
L 136.938932 162.540073 
L 137.118268 162.62076 
L 137.207936 162.540073 
L 137.297605 162.62076 
L 137.476941 162.459387 
L 137.656277 162.62076 
L 137.745945 162.459387 
L 137.835613 162.782132 
L 137.925281 162.62076 
L 138.373621 163.266249 
L 138.552957 163.427622 
L 138.642626 163.346935 
L 138.732294 163.104877 
L 138.821962 163.185563 
L 138.91163 163.024191 
L 139.001298 163.104877 
L 139.090966 163.024191 
L 139.180634 162.782132 
L 139.35997 163.024191 
L 139.628974 163.185563 
L 139.718642 163.104877 
L 139.80831 163.346935 
L 139.897978 163.266249 
L 139.987647 163.508308 
L 140.166983 163.266249 
L 140.346319 163.427622 
L 140.615323 163.266249 
L 140.794659 163.346935 
L 140.884327 163.346935 
L 140.973995 163.588994 
L 141.063663 163.508308 
L 141.332668 163.992425 
L 141.422336 163.911739 
L 141.512004 163.992425 
L 141.960344 163.588994 
L 142.050012 163.66968 
L 142.229348 163.588994 
L 142.319016 163.66968 
L 142.498352 163.992425 
L 142.857025 164.395856 
L 142.946693 163.992425 
L 143.036361 164.31517 
L 143.126029 163.992425 
L 143.305365 164.234484 
L 143.664037 163.992425 
L 143.753705 164.153797 
L 143.843373 163.911739 
L 143.933041 164.153797 
L 144.022709 164.073111 
L 144.202046 164.557228 
L 144.381382 164.476542 
L 144.47105 164.476542 
L 144.650386 164.637915 
L 144.740054 164.637915 
L 144.829722 164.476542 
L 144.91939 164.557228 
L 145.188394 164.395856 
L 145.36773 164.637915 
L 145.457399 164.799287 
L 145.547067 164.718601 
L 145.995407 165.444777 
L 146.085075 165.202718 
L 146.174743 165.525463 
L 146.264411 165.283404 
L 146.533415 165.848208 
L 146.712751 165.525463 
L 146.802419 165.848208 
L 146.892088 165.767522 
L 147.6991 166.574383 
L 147.968104 166.170952 
L 148.14744 166.574383 
L 148.237109 166.735757 
L 148.326777 167.139188 
L 148.416445 166.977814 
L 149.044121 168.833597 
L 149.133789 168.914284 
L 149.761466 170.850751 
L 150.389142 174.158886 
L 151.465159 183.59917 
L 151.913499 190.13475 
L 152.36184 199.413665 
L 152.81018 211.920025 
L 153.437856 237.65892 
L 154.334537 274.129051 
L 154.424205 275.097282 
L 154.513873 274.855224 
L 154.693209 272.0312 
L 155.051882 255.167799 
L 155.948562 194.411121 
L 156.576239 128.571179 
L 157.024579 105.979036 
L 157.562587 95.328443 
L 158.010928 90.003147 
L 158.190264 89.357668 
L 158.279932 89.357668 
L 158.459268 89.922478 
L 158.81794 93.634039 
L 159.355949 102.912954 
L 160.880306 128.409815 
L 161.418314 135.02607 
L 162.853003 146.967635 
L 164.018688 152.938416 
L 164.108356 153.0191 
L 164.198024 153.987336 
L 164.287692 153.825962 
L 164.736033 155.520374 
L 164.825701 155.359001 
L 165.274041 156.892039 
L 165.363709 156.892039 
L 165.632713 157.537528 
L 165.722381 157.456842 
L 165.812049 157.295471 
L 165.991386 157.618215 
L 166.170722 157.537528 
L 166.26039 157.537528 
L 166.439726 157.860273 
L 166.798398 158.344391 
L 166.888066 158.344391 
L 166.977734 158.747822 
L 167.15707 158.586449 
L 167.246738 158.828509 
L 167.336406 158.586449 
L 167.515743 158.98988 
L 167.695079 159.070567 
L 168.322755 160.280861 
L 168.412423 160.200174 
L 168.771096 160.603605 
L 168.860764 160.280861 
L 169.0401 160.522919 
L 169.129768 160.522919 
L 169.309104 160.845663 
L 169.578108 161.007037 
L 169.847112 161.652525 
L 169.93678 161.571839 
L 170.116117 161.813897 
L 170.743793 161.894584 
L 170.923129 162.217329 
L 171.012797 162.136642 
L 171.102465 162.378701 
L 171.192133 162.298015 
L 171.371469 162.62076 
L 171.461138 162.701446 
L 171.81981 162.378701 
L 171.909478 162.540073 
L 171.999146 162.459387 
L 172.088814 162.540073 
L 172.26815 162.459387 
L 172.447486 162.701446 
L 172.537154 162.701446 
L 172.71649 162.862818 
L 172.806158 162.862818 
L 172.985495 163.185563 
L 173.075163 163.024191 
L 173.164831 163.104877 
L 173.344167 162.943504 
L 173.523503 163.024191 
L 173.702839 163.104877 
L 173.882175 163.346935 
L 173.971843 163.508308 
L 174.061511 163.427622 
L 174.151179 163.588994 
L 174.330516 163.427622 
L 174.420184 163.588994 
L 174.689188 163.185563 
L 174.778856 163.266249 
L 174.868524 163.185563 
L 174.958192 163.266249 
L 175.137528 163.185563 
L 175.406532 163.588994 
L 175.585869 163.66968 
L 175.854873 163.911739 
L 175.944541 163.831053 
L 176.123877 163.911739 
L 176.213545 163.66968 
L 176.482549 163.831053 
L 176.661885 163.66968 
L 176.841221 164.073111 
L 177.110226 164.153797 
L 177.199894 164.234484 
L 177.289562 164.153797 
L 177.468898 164.31517 
L 177.558566 164.557228 
L 177.648234 164.153797 
L 177.737902 164.234484 
L 177.82757 164.153797 
L 178.006906 164.395856 
L 178.186242 164.153797 
L 178.455247 164.799287 
L 178.634583 164.637915 
L 178.724251 165.041346 
L 178.813919 164.718601 
L 178.903587 164.799287 
L 179.172591 164.637915 
L 179.351927 164.879973 
L 179.441595 164.637915 
L 179.531263 164.960659 
L 179.620931 164.557228 
L 179.800268 165.283404 
L 179.889936 165.041346 
L 179.979604 165.525463 
L 180.15894 165.36409 
L 180.248608 165.283404 
L 180.338276 165.525463 
L 180.427944 165.36409 
L 180.517612 165.444777 
L 180.696948 164.960659 
L 180.786616 164.637915 
L 180.965952 165.283404 
L 181.055621 165.686835 
L 181.145289 165.444777 
L 181.414293 165.928894 
L 181.683297 166.251639 
L 181.772965 166.413012 
L 181.862633 166.332325 
L 182.041969 166.735757 
L 182.131637 166.574383 
L 182.221305 166.977814 
L 182.310973 166.090266 
L 182.400641 166.251639 
L 182.49031 166.897128 
L 182.579978 166.493696 
L 182.669646 166.735757 
L 182.848982 166.493696 
L 183.028318 167.381246 
L 183.117986 167.381246 
L 183.207654 166.65507 
L 183.38699 167.623304 
L 183.476658 166.897128 
L 183.566326 167.70399 
L 183.655994 167.139188 
L 184.373339 169.317713 
L 184.552675 169.963205 
L 184.642343 170.68938 
L 184.732011 170.366636 
L 185.27002 172.303103 
L 185.628692 173.755455 
L 186.435704 180.129664 
L 187.242717 190.457502 
L 187.780725 202.237689 
L 188.408402 222.086477 
L 189.574087 273.402877 
L 189.753423 275.581397 
L 189.843091 275.823455 
L 190.022427 271.143663 
L 190.381099 254.764378 
L 191.367448 182.79231 
L 191.905456 128.732542 
L 192.443465 104.284631 
L 192.891805 94.925022 
L 193.250477 90.487287 
L 193.519482 89.519031 
L 193.60915 89.599726 
L 193.967822 91.85894 
L 194.416162 98.233162 
L 194.864503 106.05973 
L 196.030187 126.069907 
L 196.478528 132.605492 
L 197.016536 138.818327 
L 198.451225 149.630281 
L 198.899566 151.486064 
L 198.989234 151.405377 
L 199.078902 152.777042 
L 199.16857 152.373611 
L 199.61691 154.713512 
L 199.706578 154.95557 
L 199.796246 155.520374 
L 199.885914 155.278314 
L 200.154918 156.327234 
L 200.423923 156.892039 
L 200.603259 156.892039 
L 200.692927 157.134097 
L 200.872263 157.860273 
L 200.961931 158.021646 
L 201.051599 157.860273 
L 201.141267 158.425078 
L 201.230935 158.344391 
L 201.320603 158.263704 
L 201.410271 158.425078 
L 201.499939 158.344391 
L 201.589608 158.102333 
L 201.768944 158.425078 
L 201.858612 158.425078 
L 201.94828 158.828509 
L 202.037948 158.586449 
L 202.127616 159.070567 
L 202.217284 158.98988 
L 202.39662 159.231938 
L 202.665624 159.796743 
L 202.755292 159.635369 
L 202.84496 159.796743 
L 202.934628 159.716056 
L 203.024297 160.0388 
L 203.203633 159.635369 
L 203.382969 159.958114 
L 203.562305 159.877429 
L 203.741641 160.442232 
L 203.831309 160.361545 
L 204.279649 161.007037 
L 204.369318 161.087721 
L 204.548654 161.007037 
L 204.638322 161.168408 
L 204.817658 161.087721 
L 204.996994 161.652525 
L 205.086662 161.491153 
L 205.62467 162.459387 
L 205.714339 162.298015 
L 205.804007 162.540073 
L 206.073011 162.378701 
L 206.162679 162.459387 
L 206.252347 162.298015 
L 206.342015 162.378701 
L 206.521351 162.298015 
L 206.790355 162.62076 
L 206.969691 162.943504 
L 207.059359 162.862818 
L 207.238696 163.024191 
L 207.418032 162.943504 
L 207.5077 163.024191 
L 207.597368 162.62076 
L 207.776704 162.782132 
L 207.866372 162.862818 
L 207.95604 162.782132 
L 208.852721 163.588994 
L 208.942389 163.508308 
L 209.121725 163.588994 
L 209.301061 163.588994 
L 209.390729 163.427622 
L 209.480397 163.508308 
L 209.570065 163.427622 
L 209.659733 163.508308 
L 209.749401 163.750366 
L 209.928738 163.66968 
L 210.28741 163.66968 
L 210.377078 163.911739 
L 210.466746 163.66968 
L 210.73575 163.831053 
L 210.825418 163.750366 
L 210.915086 163.831053 
L 211.004754 163.588994 
L 211.094422 163.992425 
L 211.184091 163.911739 
L 211.273759 164.073111 
L 211.363427 163.911739 
L 211.632431 164.31517 
L 211.811767 164.234484 
L 212.080771 164.073111 
L 212.170439 164.234484 
L 212.349775 164.073111 
L 212.61878 164.234484 
L 212.708448 164.234484 
L 212.977452 164.557228 
L 213.336124 164.879973 
L 213.425792 164.637915 
L 213.51546 164.799287 
L 213.605128 164.476542 
L 213.784464 164.799287 
L 213.963801 164.637915 
L 214.053469 164.637915 
L 214.232805 164.960659 
L 214.770813 165.444777 
L 215.219153 165.122032 
L 215.308822 165.36409 
L 215.39849 165.041346 
L 215.577826 165.283404 
L 215.667494 165.202718 
L 215.84683 165.525463 
L 215.936498 165.36409 
L 216.205502 165.848208 
L 216.29517 165.848208 
L 216.384838 165.606149 
L 216.653843 166.170952 
L 216.743511 165.848208 
L 216.922847 166.413012 
L 217.102183 166.251639 
L 217.191851 166.413012 
L 217.281519 166.977814 
L 217.371187 166.897128 
L 217.729859 167.139188 
L 218.088532 167.219872 
L 218.1782 167.542617 
L 218.267868 167.300559 
L 218.447204 167.381246 
L 218.536872 167.300559 
L 218.716208 167.784677 
L 218.895544 168.349479 
L 218.985212 168.268793 
L 219.254216 168.833597 
L 219.343884 168.914284 
L 219.702557 169.963205 
L 219.792225 170.043889 
L 220.778574 173.755455 
L 221.047578 175.046436 
L 221.495918 177.951136 
L 222.123594 184.486719 
L 222.840939 196.186219 
L 223.468615 213.372372 
L 224.096292 238.627151 
L 224.992973 274.371108 
L 225.082641 274.935918 
L 225.172309 274.532472 
L 225.441313 266.302507 
L 225.799985 247.825371 
L 226.248326 224.426386 
L 226.427662 212.726893 
L 227.503678 114.209025 
L 227.772683 104.203937 
L 228.490027 91.052072 
L 228.759031 89.276973 
L 228.848699 88.954246 
L 228.938367 89.034916 
L 229.29704 91.697576 
L 229.74538 98.555889 
L 231.807746 132.28274 
L 232.794094 142.61058 
L 233.152767 145.35391 
L 233.690775 148.823418 
L 234.139115 151.728122 
L 234.228783 151.728122 
L 234.587456 153.341847 
L 234.677124 153.422531 
L 235.663472 157.05341 
L 235.75314 156.730666 
L 235.932477 157.134097 
L 236.022145 157.05341 
L 236.111813 157.134097 
L 236.649821 158.425078 
L 237.008493 158.747822 
L 237.098161 159.231938 
L 237.187829 158.98988 
L 237.367166 159.151254 
L 237.456834 158.98988 
L 237.546502 159.070567 
L 237.63617 158.98988 
L 237.725838 159.070567 
L 237.725838 159.070567 
" clip-path="url(#pa289adde7d)" style="fill: none; stroke: #333333; stroke-width: 0.8; stroke-linecap: square"/>
   </g>
   <g id="line2d_16">
    <path d="M 237.725838 159.877429 
L 238.08451 159.958114 
L 238.174178 160.0388 
L 238.353514 160.522919 
L 238.443182 160.280861 
L 238.622519 160.522919 
L 238.712187 160.522919 
L 238.801855 160.845663 
L 238.891523 160.764976 
L 238.981191 160.361545 
L 239.070859 160.442232 
L 239.250195 160.68429 
L 239.339863 160.522919 
L 239.519199 160.764976 
L 239.608867 160.68429 
L 239.698535 161.087721 
L 239.788203 161.007037 
L 240.057208 161.491153 
L 240.146876 161.410466 
L 240.326212 161.652525 
L 240.595216 161.652525 
L 240.684884 161.491153 
L 240.774552 161.652525 
L 240.953888 161.410466 
L 241.043556 161.813897 
L 241.222892 161.652525 
L 241.491897 162.136642 
L 241.760901 162.136642 
L 241.850569 162.298015 
L 242.029905 162.136642 
L 242.119573 162.298015 
L 242.298909 162.055956 
L 242.388577 162.217329 
L 242.478245 162.136642 
L 243.19559 162.701446 
L 243.285258 162.701446 
L 243.464594 162.540073 
L 243.64393 162.378701 
L 243.733598 162.540073 
L 243.823266 162.459387 
L 243.912934 162.540073 
L 244.002602 162.459387 
L 244.271607 162.782132 
L 244.540611 163.104877 
L 244.719947 163.104877 
L 244.899283 162.701446 
L 245.706296 162.62076 
L 245.885632 163.024191 
L 245.9753 163.024191 
L 246.064968 163.185563 
L 246.244304 163.024191 
L 246.333972 163.185563 
L 246.602976 162.943504 
L 246.692644 163.104877 
L 246.871981 163.024191 
L 247.140985 163.104877 
L 247.589325 163.588994 
L 247.678993 163.427622 
L 247.858329 163.588994 
L 248.037665 163.427622 
L 248.30667 163.346935 
L 248.396338 163.185563 
L 248.486006 163.266249 
L 248.575674 163.588994 
L 248.75501 163.346935 
L 248.844678 163.66968 
L 248.934346 163.588994 
L 249.024014 163.508308 
L 249.20335 163.750366 
L 249.382686 163.427622 
L 249.562023 163.588994 
L 249.651691 163.508308 
L 249.741359 163.66968 
L 249.920695 163.508308 
L 250.010363 163.588994 
L 250.100031 163.427622 
L 250.279367 163.588994 
L 250.369035 163.588994 
L 250.458703 163.911739 
L 250.548371 163.831053 
L 250.727707 163.508308 
L 250.817375 163.508308 
L 250.996712 163.266249 
L 251.08638 163.508308 
L 251.176048 163.266249 
L 251.355384 163.588994 
L 251.445052 163.266249 
L 251.624388 163.750366 
L 251.714056 163.66968 
L 251.803724 164.073111 
L 251.893392 163.831053 
L 251.98306 164.153797 
L 252.072728 163.992425 
L 252.252064 164.395856 
L 252.431401 163.992425 
L 252.610737 163.66968 
L 252.700405 163.992425 
L 252.790073 163.66968 
L 252.879741 163.911739 
L 252.969409 163.831053 
L 253.059077 164.073111 
L 253.238413 163.911739 
L 253.507417 164.234484 
L 253.597085 164.395856 
L 253.686754 164.31517 
L 253.86609 164.476542 
L 254.045426 164.31517 
L 254.31443 164.637915 
L 254.493766 164.476542 
L 254.583434 164.637915 
L 254.852438 165.606149 
L 255.121443 165.767522 
L 255.211111 165.686835 
L 255.390447 166.251639 
L 255.659451 166.413012 
L 255.749119 166.332325 
L 256.466464 169.075655 
L 256.735468 170.205262 
L 257.183808 172.222416 
L 257.54248 174.239573 
L 258.797833 187.552794 
L 260.232522 213.533736 
L 260.501527 214.663355 
L 260.680863 213.372372 
L 260.949867 207.320902 
L 261.846548 167.784677 
L 262.294888 143.094698 
L 262.65356 134.703343 
L 262.922564 132.121376 
L 263.281237 131.233814 
L 263.370905 131.153145 
L 263.729577 131.395203 
L 263.819245 131.395203 
L 263.998581 131.556566 
L 264.088249 131.637261 
L 264.357253 132.363434 
L 264.895262 134.703343 
L 265.88161 142.126462 
L 266.060947 143.094698 
L 266.957627 148.823418 
L 268.481984 155.359001 
L 268.840657 156.00449 
L 268.930325 156.488608 
L 269.019993 156.24655 
L 269.109661 156.488608 
L 269.199329 156.407921 
L 269.378665 157.214784 
L 269.468333 157.214784 
L 269.737337 157.779586 
L 270.09601 158.747822 
L 270.185678 158.667136 
L 270.275346 158.98988 
L 270.365014 158.586449 
L 270.634018 159.231938 
L 270.813354 158.909193 
L 271.082358 159.716056 
L 271.351362 159.877429 
L 271.530699 159.635369 
L 271.620367 160.119487 
L 271.710035 159.635369 
L 271.889371 159.958114 
L 272.068707 160.119487 
L 272.158375 160.119487 
L 272.337711 159.716056 
L 272.427379 159.796743 
L 272.517047 160.0388 
L 272.606715 159.877429 
L 272.786051 160.361545 
L 272.87572 160.119487 
L 273.234392 160.522919 
L 273.413728 160.361545 
L 273.503396 160.442232 
L 273.593064 160.361545 
L 273.682732 160.522919 
L 273.7724 160.280861 
L 273.951736 160.68429 
L 274.041404 160.68429 
L 274.131072 160.845663 
L 274.220741 160.68429 
L 274.400077 160.92635 
L 274.579413 160.845663 
L 274.669081 161.087721 
L 274.758749 161.007037 
L 274.848417 161.168408 
L 275.207089 160.845663 
L 275.386425 161.007037 
L 275.565762 161.249094 
L 275.834766 161.571839 
L 276.10377 161.813897 
L 276.193438 161.733211 
L 276.283106 161.894584 
L 276.372774 161.652525 
L 276.462442 161.813897 
L 276.55211 161.733211 
L 276.821114 162.055956 
L 277.090119 162.136642 
L 277.269455 162.378701 
L 277.359123 162.378701 
L 277.538459 162.540073 
L 277.628127 162.459387 
L 277.717795 162.540073 
L 277.807463 162.459387 
L 277.897131 162.217329 
L 278.076467 162.459387 
L 278.255803 162.298015 
L 278.345472 162.217329 
L 278.524808 162.540073 
L 278.614476 162.62076 
L 278.704144 162.540073 
L 278.973148 162.701446 
L 279.062816 162.701446 
L 279.242152 162.862818 
L 279.421488 162.782132 
L 279.511156 162.701446 
L 279.600824 162.782132 
L 279.690493 162.701446 
L 279.869829 162.782132 
L 280.049165 162.701446 
L 280.587173 163.185563 
L 280.676841 162.943504 
L 280.856177 163.024191 
L 281.394186 163.024191 
L 281.66319 163.427622 
L 281.842526 163.346935 
L 281.932194 163.427622 
L 282.021862 163.66968 
L 282.201198 163.508308 
L 282.290866 163.588994 
L 282.470203 163.185563 
L 282.828875 163.427622 
L 282.918543 163.427622 
L 283.008211 163.66968 
L 283.097879 163.508308 
L 283.277215 163.831053 
L 283.366883 163.750366 
L 283.456551 163.911739 
L 283.546219 163.750366 
L 283.725555 163.831053 
L 283.904892 163.588994 
L 283.99456 163.588994 
L 284.173896 163.427622 
L 284.353232 163.427622 
L 284.622236 163.750366 
L 284.89124 163.911739 
L 284.980908 163.911739 
L 285.070576 163.750366 
L 285.160245 163.911739 
L 285.339581 163.508308 
L 285.518917 163.750366 
L 285.608585 163.588994 
L 285.698253 163.66968 
L 285.877589 163.427622 
L 286.056925 163.508308 
L 286.325929 163.992425 
L 286.505266 163.750366 
L 286.594934 164.153797 
L 286.77427 163.911739 
L 287.043274 164.073111 
L 287.132942 163.508308 
L 287.22261 163.992425 
L 287.312278 163.911739 
L 287.401946 163.992425 
L 287.67095 164.476542 
L 287.760618 164.073111 
L 287.850286 164.395856 
L 287.939955 164.31517 
L 288.119291 164.637915 
L 288.477963 163.992425 
L 288.567631 164.234484 
L 288.657299 164.153797 
L 288.746967 164.31517 
L 288.836635 164.153797 
L 289.015971 164.395856 
L 289.105639 164.395856 
L 289.284976 164.718601 
L 289.464312 164.637915 
L 289.643648 165.202718 
L 289.733316 164.960659 
L 289.912652 165.283404 
L 290.091988 165.202718 
L 290.45066 165.928894 
L 290.540328 166.00958 
L 291.526677 168.833597 
L 291.616345 169.3984 
L 291.706013 169.317713 
L 291.885349 170.285949 
L 292.871698 176.17604 
L 293.499375 182.550249 
L 294.216719 193.684947 
L 295.472072 215.066776 
L 295.56174 215.228165 
L 295.741076 213.937182 
L 295.920412 210.790406 
L 296.099749 205.303746 
L 296.906761 170.043889 
L 297.444769 141.480973 
L 297.803442 134.138533 
L 298.162114 132.121376 
L 298.431118 131.637261 
L 298.700122 131.798624 
L 298.879459 131.395203 
L 299.058795 131.556566 
L 299.148463 131.556566 
L 299.507135 132.686186 
L 300.403816 137.930788 
L 300.762488 140.512739 
L 301.928173 148.097242 
L 302.376513 150.679201 
L 302.466181 150.759888 
L 302.824853 152.615671 
L 304.080206 156.892039 
L 304.169874 156.730666 
L 304.349211 157.295471 
L 304.438879 157.214784 
L 304.797551 158.102333 
L 304.887219 158.183017 
L 304.976887 158.102333 
L 305.066555 158.263704 
L 305.156223 158.747822 
L 305.245891 158.425078 
L 305.335559 158.505762 
L 305.425227 158.747822 
L 305.514895 158.667136 
L 305.694232 159.312625 
L 305.873568 159.877429 
L 306.052904 159.393311 
L 306.23224 160.119487 
L 306.321908 159.958114 
L 306.411576 160.280861 
L 306.590912 159.635369 
L 306.770248 159.958114 
L 306.949584 159.877429 
L 307.039253 160.361545 
L 307.128921 160.119487 
L 307.218589 160.200174 
L 307.308257 160.522919 
L 307.397925 160.200174 
L 307.487593 160.442232 
L 307.935933 160.119487 
L 308.115269 160.442232 
L 308.204937 160.280861 
L 308.294605 160.442232 
L 308.384273 160.361545 
L 308.56361 160.845663 
L 308.653278 160.845663 
L 308.832614 161.087721 
L 309.01195 161.168408 
L 309.101618 161.249094 
L 309.191286 161.168408 
L 309.280954 160.92635 
L 309.46029 161.087721 
L 309.549958 160.845663 
L 309.818963 161.410466 
L 309.908631 161.249094 
L 310.177635 161.571839 
L 310.536307 161.813897 
L 310.625975 161.652525 
L 310.805311 161.813897 
L 310.894979 161.571839 
L 311.074315 161.733211 
L 312.060664 162.62076 
L 312.150332 162.459387 
L 312.24 162.62076 
L 312.419336 162.298015 
L 312.509004 162.540073 
L 312.598673 162.378701 
L 313.047013 162.701446 
L 313.226349 162.782132 
L 313.316017 163.024191 
L 313.405685 162.862818 
L 313.495353 162.943504 
L 313.674689 162.782132 
L 313.764357 162.862818 
L 313.854025 162.701446 
L 314.033362 162.782132 
L 314.12303 162.701446 
L 314.661038 163.104877 
L 314.750706 163.104877 
L 314.840374 163.266249 
L 314.930042 163.185563 
L 315.01971 163.266249 
L 315.557719 162.862818 
L 316.006059 163.266249 
L 316.095727 163.185563 
L 316.275063 163.588994 
L 316.364731 163.508308 
L 316.544067 163.588994 
L 316.633736 163.588994 
L 316.813072 163.427622 
L 316.992408 163.427622 
L 317.171744 163.266249 
L 317.440748 163.588994 
L 317.620084 163.750366 
L 317.79942 163.831053 
L 317.889088 163.750366 
L 317.978756 163.831053 
L 318.068425 164.073111 
L 318.247761 163.911739 
L 318.337429 163.911739 
L 318.516765 163.750366 
L 318.696101 163.831053 
L 318.785769 163.911739 
L 318.875437 163.750366 
L 319.144441 164.073111 
L 319.234109 164.073111 
L 319.323777 163.911739 
L 319.413446 164.153797 
L 319.503114 163.992425 
L 319.68245 164.31517 
L 319.861786 163.831053 
L 320.041122 163.750366 
L 320.13079 163.911739 
L 320.220458 163.831053 
L 320.310126 163.992425 
L 320.399794 163.66968 
L 320.57913 164.153797 
L 320.758467 164.153797 
L 320.937803 163.992425 
L 321.027471 163.992425 
L 321.117139 163.831053 
L 321.296475 164.073111 
L 321.386143 163.992425 
L 321.475811 164.234484 
L 321.744815 163.911739 
L 322.193156 164.718601 
L 322.372492 164.637915 
L 322.46216 164.799287 
L 322.551828 164.557228 
L 322.731164 164.637915 
L 323.000168 164.31517 
L 323.089836 164.637915 
L 323.179504 164.476542 
L 323.269172 164.557228 
L 323.35884 164.31517 
L 323.448508 164.718601 
L 323.538177 164.557228 
L 323.717513 164.799287 
L 323.986517 164.799287 
L 324.076185 164.960659 
L 324.165853 164.637915 
L 324.345189 164.960659 
L 324.434857 164.799287 
L 325.062534 165.848208 
L 325.24187 165.928894 
L 325.510874 166.735757 
L 325.600542 166.493696 
L 325.69021 166.65507 
L 325.779878 166.413012 
L 327.035231 171.33487 
L 327.304235 172.303103 
L 327.393903 172.222416 
L 327.842244 175.611238 
L 328.290584 179.645548 
L 328.738924 184.809464 
L 329.366601 195.0566 
L 330.442618 213.61443 
L 330.621954 214.421297 
L 330.711622 214.421297 
L 330.980626 211.355215 
L 331.24963 202.963862 
L 331.877307 179.645548 
L 332.504983 142.36852 
L 332.863655 134.38059 
L 333.311996 131.798624 
L 333.581 131.475872 
L 334.208676 132.121376 
L 334.836353 133.815781 
L 335.553697 138.979701 
L 336.181374 143.175382 
L 337.167723 149.468907 
L 337.885067 152.777042 
L 339.050752 156.730666 
L 339.14042 156.730666 
L 339.319756 157.295471 
L 339.499092 157.537528 
L 339.58876 157.94096 
L 339.678428 157.860273 
L 339.768096 157.860273 
L 340.306105 159.070567 
L 340.485441 159.554685 
L 340.575109 159.473998 
L 340.664777 159.473998 
L 340.754445 159.796743 
L 340.844113 159.554685 
L 340.933781 159.877429 
L 341.023449 159.796743 
L 341.113117 159.877429 
L 341.292454 160.200174 
L 341.47179 160.280861 
L 341.651126 160.200174 
L 341.740794 160.200174 
L 341.830462 160.361545 
L 341.92013 160.764976 
L 342.189134 160.442232 
L 342.36847 160.522919 
L 342.547806 160.200174 
L 342.637474 160.522919 
L 342.727143 160.442232 
L 342.996147 160.522919 
L 343.085815 160.764976 
L 343.175483 160.68429 
L 343.265151 160.764976 
L 343.354819 160.68429 
L 343.713491 160.92635 
L 343.803159 160.845663 
L 343.892827 161.087721 
L 344.072164 161.007037 
L 344.2515 161.168408 
L 344.430836 161.249094 
L 344.69984 161.491153 
L 344.789508 161.813897 
L 344.879176 161.652525 
L 345.14818 161.894584 
L 345.327516 161.652525 
L 345.506853 161.813897 
L 345.596521 161.813897 
L 345.775857 161.97527 
L 345.865525 161.97527 
L 346.044861 162.136642 
L 346.224197 162.217329 
L 346.582869 162.459387 
L 346.762206 162.378701 
L 347.210546 162.459387 
L 347.300214 162.701446 
L 347.389882 162.62076 
L 347.47955 162.701446 
L 347.569218 162.943504 
L 347.658886 162.782132 
L 347.838222 163.024191 
L 347.92789 162.862818 
L 348.107226 163.104877 
L 348.286563 162.862818 
L 348.555567 162.701446 
L 348.645235 162.701446 
L 348.824571 162.862818 
L 349.272911 163.266249 
L 349.452247 163.185563 
L 349.541916 163.346935 
L 349.631584 163.266249 
L 349.721252 163.346935 
L 349.900588 163.104877 
L 349.990256 163.024191 
L 350.169592 163.266249 
L 350.25926 163.104877 
L 350.617932 163.346935 
L 350.7076 163.266249 
L 350.976605 163.427622 
L 351.604281 163.427622 
L 351.783617 163.750366 
L 351.873285 163.588994 
L 352.052621 163.750366 
L 352.231958 163.831053 
L 352.321626 163.750366 
L 352.411294 163.911739 
L 352.500962 163.831053 
L 352.680298 163.911739 
L 353.218306 163.992425 
L 353.397642 164.234484 
L 353.48731 164.395856 
L 353.576978 164.153797 
L 353.666647 164.31517 
L 353.756315 164.234484 
L 353.845983 164.395856 
L 354.025319 164.153797 
L 354.204655 164.234484 
L 354.473659 164.073111 
L 354.742663 164.153797 
L 354.832331 164.395856 
L 354.921999 164.234484 
L 355.101336 164.476542 
L 355.37034 164.637915 
L 355.639344 164.395856 
L 355.729012 164.476542 
L 355.998016 164.153797 
L 356.087684 164.153797 
L 356.177352 164.557228 
L 356.356689 164.31517 
L 356.536025 164.718601 
L 356.625693 164.476542 
L 356.715361 164.879973 
L 356.805029 164.799287 
L 356.894697 164.799287 
L 356.984365 165.041346 
L 357.253369 164.637915 
L 357.343037 165.122032 
L 357.432705 164.799287 
L 357.522373 164.960659 
L 357.612041 164.879973 
L 357.791378 164.960659 
L 357.881046 165.283404 
L 358.060382 164.960659 
L 358.239718 165.283404 
L 358.508722 164.960659 
L 358.59839 165.041346 
L 358.777726 164.799287 
L 358.867394 164.637915 
L 359.04673 164.960659 
L 359.674407 165.444777 
L 359.853743 166.090266 
L 360.033079 165.848208 
L 360.122747 165.928894 
L 360.212415 165.848208 
L 360.391751 166.00958 
L 360.660756 166.493696 
L 360.840092 166.65507 
L 361.198764 167.784677 
L 362.364449 172.303103 
L 362.812789 175.207807 
L 363.171461 177.628392 
L 363.799138 184.244661 
L 365.682167 216.035008 
L 365.771835 215.954338 
L 365.951172 214.824719 
L 366.220176 208.369828 
L 367.027188 175.530551 
L 367.565197 143.982245 
L 367.923869 134.864706 
L 368.282541 132.605492 
L 368.461877 132.363434 
L 368.551545 132.28274 
L 368.641213 132.363434 
L 368.730882 132.28274 
L 368.910218 132.040682 
L 368.999886 132.040682 
L 369.089554 131.879318 
L 369.179222 132.040682 
L 369.26889 131.798624 
L 369.358558 131.959988 
L 369.537894 132.605492 
L 369.627562 132.524797 
L 369.71723 133.654417 
L 369.806898 133.573723 
L 370.075903 134.9454 
L 370.613911 138.818327 
L 372.0486 148.58136 
L 372.138268 148.823418 
L 372.49694 151.082633 
L 372.586608 151.244004 
L 372.855613 152.857729 
L 372.945281 152.696355 
L 373.303953 155.116943 
L 373.393621 154.95557 
L 373.483289 155.278314 
L 373.572957 156.085177 
L 373.752293 155.843119 
L 373.841961 155.923806 
L 374.021297 156.972726 
L 374.200634 157.05341 
L 374.469638 158.183017 
L 374.648974 158.344391 
L 374.82831 158.747822 
L 374.917978 158.667136 
L 375.007646 159.231938 
L 375.186982 158.909193 
L 375.366318 159.554685 
L 375.545655 159.554685 
L 375.724991 160.119487 
L 375.904327 160.522919 
L 375.993995 160.522919 
L 376.083663 160.764976 
L 376.173331 160.68429 
L 376.262999 160.764976 
L 376.352667 161.087721 
L 376.442335 160.764976 
L 376.532003 160.845663 
L 376.621671 160.764976 
L 376.711339 161.168408 
L 376.890676 160.361545 
L 377.070012 160.92635 
L 377.15968 161.007037 
L 377.339016 160.764976 
L 377.428684 161.32978 
L 377.518352 161.249094 
L 377.60802 161.571839 
L 377.787356 161.168408 
L 377.966692 161.571839 
L 378.05636 160.845663 
L 378.235696 161.410466 
L 378.325365 161.491153 
L 378.415033 161.249094 
L 378.504701 161.571839 
L 378.594369 161.168408 
L 378.684037 161.652525 
L 378.773705 161.571839 
L 378.863373 161.007037 
L 379.042709 161.813897 
L 379.132377 161.97527 
L 379.222045 161.733211 
L 379.311713 161.97527 
L 379.491049 161.813897 
L 379.580717 161.894584 
L 379.760054 161.813897 
L 379.849722 161.813897 
L 380.029058 161.97527 
L 380.118726 161.97527 
L 380.208394 162.136642 
L 380.298062 162.055956 
L 380.38773 162.136642 
L 380.477398 162.459387 
L 380.567066 162.378701 
L 380.656734 162.540073 
L 380.83607 162.459387 
L 381.015407 162.540073 
L 381.105075 162.378701 
L 381.284411 162.459387 
L 381.553415 162.459387 
L 381.732751 162.701446 
L 381.912087 162.943504 
L 382.001755 162.943504 
L 382.091423 163.104877 
L 382.181091 162.943504 
L 382.270759 163.266249 
L 382.450096 162.862818 
L 382.539764 162.943504 
L 382.629432 162.943504 
L 382.808768 163.104877 
L 382.988104 162.943504 
L 383.077772 163.185563 
L 383.16744 163.104877 
L 383.705448 163.508308 
L 383.884785 163.266249 
L 383.974453 163.427622 
L 384.243457 163.104877 
L 384.422793 163.346935 
L 384.512461 163.185563 
L 384.691797 163.66968 
L 384.781465 163.508308 
L 384.960801 163.831053 
L 385.050469 163.66968 
L 385.140138 163.831053 
L 385.229806 163.750366 
L 385.319474 163.831053 
L 385.49881 163.588994 
L 385.588478 163.588994 
L 385.678146 163.427622 
L 385.767814 163.588994 
L 385.857482 163.346935 
L 386.036818 163.588994 
L 386.126486 163.427622 
L 386.39549 163.911739 
L 386.574827 164.073111 
L 386.664495 163.992425 
L 386.843831 164.073111 
L 387.112835 163.992425 
L 387.202503 163.911739 
L 387.471507 164.073111 
L 387.561175 163.992425 
L 387.740511 164.234484 
L 388.27852 164.799287 
L 388.457856 164.557228 
L 388.72686 164.476542 
L 388.816528 164.395856 
L 388.995864 164.557228 
L 389.085532 164.476542 
L 389.264869 164.718601 
L 389.354537 164.557228 
L 389.444205 164.799287 
L 389.533873 164.637915 
L 389.802877 164.879973 
L 389.892545 164.718601 
L 389.982213 164.799287 
L 390.340885 164.557228 
L 390.60989 164.637915 
L 390.699558 164.799287 
L 390.789226 164.557228 
L 391.05823 164.799287 
L 391.237566 164.718601 
L 391.327234 164.960659 
L 391.50657 164.637915 
L 391.596238 165.283404 
L 391.865242 164.799287 
L 391.954911 164.960659 
L 392.044579 164.799287 
L 392.223915 165.041346 
L 392.403251 165.525463 
L 392.582587 165.36409 
L 393.030927 165.36409 
L 393.120595 165.122032 
L 393.299931 165.283404 
L 393.479268 165.041346 
L 393.927608 165.525463 
L 394.017276 165.283404 
L 394.106944 165.36409 
L 394.196612 165.202718 
L 394.28628 165.525463 
L 394.375948 165.444777 
L 394.555284 165.36409 
L 394.644952 165.444777 
L 394.734621 165.283404 
L 395.182961 166.170952 
L 395.362297 166.493696 
L 395.451965 166.413012 
L 395.631301 167.139188 
L 395.720969 167.219872 
L 395.810637 167.139188 
L 396.258978 168.026735 
L 396.348646 167.865364 
L 396.438314 168.026735 
L 396.796986 169.64046 
L 397.962671 175.288493 
L 398.590347 181.178584 
L 399.128356 187.956225 
L 400.204373 208.12777 
L 400.563045 213.856488 
L 400.832049 215.228165 
L 401.011385 214.017851 
L 401.190721 211.274521 
L 401.459725 202.802474 
L 402.087402 178.273881 
L 402.62541 145.434597 
L 402.894415 137.608036 
L 403.163419 134.138533 
L 403.432423 132.84755 
L 403.611759 132.444128 
L 403.880763 132.040682 
L 404.329104 132.040682 
L 404.777444 133.331665 
L 404.867112 133.493029 
L 405.315452 135.752243 
L 406.570805 145.031165 
L 407.377818 150.195083 
L 407.467486 150.437143 
L 407.915826 152.615671 
L 409.440183 157.698902 
L 409.619519 157.698902 
L 409.798856 158.263704 
L 409.888524 158.183017 
L 410.157528 158.828509 
L 410.336864 159.473998 
L 410.5162 159.958114 
L 410.605868 160.119487 
L 410.695536 160.0388 
L 410.785204 160.200174 
L 410.874872 160.119487 
L 411.054208 160.442232 
L 411.412881 160.764976 
L 411.592217 161.007037 
L 411.681885 160.92635 
L 411.771553 161.168408 
L 411.861221 160.764976 
L 411.950889 161.007037 
L 412.040557 160.92635 
L 412.399229 161.571839 
L 412.488898 161.491153 
L 412.757902 160.764976 
L 413.116574 161.087721 
L 413.206242 161.32978 
L 413.29591 161.249094 
L 413.475246 161.652525 
L 413.74425 161.571839 
L 413.833918 161.249094 
L 413.923587 161.571839 
L 414.013255 161.32978 
L 414.102923 161.410466 
L 414.192591 161.894584 
L 414.371927 161.652525 
L 414.551263 161.571839 
L 414.730599 161.652525 
L 415.089271 162.055956 
L 415.178939 162.217329 
L 415.268608 161.97527 
L 415.447944 162.055956 
L 415.537612 161.894584 
L 415.806616 162.136642 
L 415.985952 161.97527 
L 416.165288 162.378701 
L 416.344624 162.378701 
L 416.52396 162.862818 
L 416.703297 162.701446 
L 416.792965 162.62076 
L 416.882633 162.782132 
L 416.972301 162.62076 
L 416.972301 162.62076 
" clip-path="url(#pa289adde7d)" style="fill: none; stroke: #d94452; stroke-width: 0.8; stroke-linecap: square"/>
   </g>
   <g id="text_17">
    <g id="patch_7">
     <path d="M 89.552606 297.890637 
L 206.652606 297.890637 
Q 209.652606 297.890637 209.652606 294.890637 
L 209.652606 284.290637 
Q 209.652606 281.290637 206.652606 281.290637 
L 89.552606 281.290637 
Q 86.552606 281.290637 86.552606 284.290637 
L 86.552606 294.890637 
Q 86.552606 297.890637 89.552606 297.890637 
z
" style="fill: #ffffff; opacity: 0.85; stroke: #333333; stroke-linejoin: miter"/>
    </g>
    <!-- I$_{p-p}$ = 1.87E-03 mA/m² -->
    <g style="fill: #333333" transform="translate(89.552606 291.790637) scale(0.1 -0.1)">
     <defs>
      <path id="DejaVuSans-49" d="M 628 4666 
L 1259 4666 
L 1259 0 
L 628 0 
L 628 4666 
z
" transform="scale(0.015625)"/>
      <path id="DejaVuSans-Oblique-70" d="M 3175 2156 
Q 3175 2616 2975 2859 
Q 2775 3103 2400 3103 
Q 2144 3103 1911 2972 
Q 1678 2841 1497 2591 
Q 1319 2344 1212 1994 
Q 1106 1644 1106 1300 
Q 1106 863 1306 627 
Q 1506 391 1875 391 
Q 2147 391 2380 519 
Q 2613 647 2778 891 
Q 2956 1147 3065 1494 
Q 3175 1841 3175 2156 
z
M 1394 2969 
Q 1625 3272 1939 3428 
Q 2253 3584 2638 3584 
Q 3175 3584 3472 3232 
Q 3769 2881 3769 2247 
Q 3769 1728 3584 1258 
Q 3400 788 3053 416 
Q 2822 169 2531 39 
Q 2241 -91 1919 -91 
Q 1547 -91 1294 64 
Q 1041 219 916 525 
L 556 -1331 
L -19 -1331 
L 922 3500 
L 1497 3500 
L 1394 2969 
z
" transform="scale(0.015625)"/>
      <path id="DejaVuSans-20" transform="scale(0.015625)"/>
      <path id="DejaVuSans-3d" d="M 678 2906 
L 4684 2906 
L 4684 2381 
L 678 2381 
L 678 2906 
z
M 678 1631 
L 4684 1631 
L 4684 1100 
L 678 1100 
L 678 1631 
z
" transform="scale(0.015625)"/>
      <path id="DejaVuSans-38" d="M 2034 2216 
Q 1584 2216 1326 1975 
Q 1069 1734 1069 1313 
Q 1069 891 1326 650 
Q 1584 409 2034 409 
Q 2484 409 2743 651 
Q 3003 894 3003 1313 
Q 3003 1734 2745 1975 
Q 2488 2216 2034 2216 
z
M 1403 2484 
Q 997 2584 770 2862 
Q 544 3141 544 3541 
Q 544 4100 942 4425 
Q 1341 4750 2034 4750 
Q 2731 4750 3128 4425 
Q 3525 4100 3525 3541 
Q 3525 3141 3298 2862 
Q 3072 2584 2669 2484 
Q 3125 2378 3379 2068 
Q 3634 1759 3634 1313 
Q 3634 634 3220 271 
Q 2806 -91 2034 -91 
Q 1263 -91 848 271 
Q 434 634 434 1313 
Q 434 1759 690 2068 
Q 947 2378 1403 2484 
z
M 1172 3481 
Q 1172 3119 1398 2916 
Q 1625 2713 2034 2713 
Q 2441 2713 2670 2916 
Q 2900 3119 2900 3481 
Q 2900 3844 2670 4047 
Q 2441 4250 2034 4250 
Q 1625 4250 1398 4047 
Q 1172 3844 1172 3481 
z
" transform="scale(0.015625)"/>
      <path id="DejaVuSans-37" d="M 525 4666 
L 3525 4666 
L 3525 4397 
L 1831 0 
L 1172 0 
L 2766 4134 
L 525 4134 
L 525 4666 
z
" transform="scale(0.015625)"/>
      <path id="DejaVuSans-45" d="M 628 4666 
L 3578 4666 
L 3578 4134 
L 1259 4134 
L 1259 2753 
L 3481 2753 
L 3481 2222 
L 1259 2222 
L 1259 531 
L 3634 531 
L 3634 0 
L 628 0 
L 628 4666 
z
" transform="scale(0.015625)"/>
      <path id="DejaVuSans-2d" d="M 313 2009 
L 1997 2009 
L 1997 1497 
L 313 1497 
L 313 2009 
z
" transform="scale(0.015625)"/>
      <path id="DejaVuSans-6d" d="M 3328 2828 
Q 3544 3216 3844 3400 
Q 4144 3584 4550 3584 
Q 5097 3584 5394 3201 
Q 5691 2819 5691 2113 
L 5691 0 
L 5113 0 
L 5113 2094 
Q 5113 2597 4934 2840 
Q 4756 3084 4391 3084 
Q 3944 3084 3684 2787 
Q 3425 2491 3425 1978 
L 3425 0 
L 2847 0 
L 2847 2094 
Q 2847 2600 2669 2842 
Q 2491 3084 2119 3084 
Q 1678 3084 1418 2786 
Q 1159 2488 1159 1978 
L 1159 0 
L 581 0 
L 581 3500 
L 1159 3500 
L 1159 2956 
Q 1356 3278 1631 3431 
Q 1906 3584 2284 3584 
Q 2666 3584 2933 3390 
Q 3200 3197 3328 2828 
z
" transform="scale(0.015625)"/>
      <path id="DejaVuSans-41" d="M 2188 4044 
L 1331 1722 
L 3047 1722 
L 2188 4044 
z
M 1831 4666 
L 2547 4666 
L 4325 0 
L 3669 0 
L 3244 1197 
L 1141 1197 
L 716 0 
L 50 0 
L 1831 4666 
z
" transform="scale(0.015625)"/>
      <path id="DejaVuSans-2f" d="M 1625 4666 
L 2156 4666 
L 531 -594 
L 0 -594 
L 1625 4666 
z
" transform="scale(0.015625)"/>
      <path id="DejaVuSans-b2" d="M 838 2444 
L 2163 2444 
L 2163 2088 
L 294 2088 
L 294 2431 
Q 400 2528 597 2703 
Q 1672 3656 1672 3950 
Q 1672 4156 1509 4282 
Q 1347 4409 1081 4409 
Q 919 4409 728 4354 
Q 538 4300 313 4191 
L 313 4575 
Q 553 4663 761 4706 
Q 969 4750 1147 4750 
Q 1600 4750 1872 4544 
Q 2144 4338 2144 4000 
Q 2144 3566 1109 2678 
Q 934 2528 838 2444 
z
" transform="scale(0.015625)"/>
     </defs>
     <use xlink:href="#DejaVuSans-49" transform="translate(0 0.78125)"/>
     <use xlink:href="#DejaVuSans-Oblique-70" transform="translate(30.449219 -15.625) scale(0.7)"/>
     <use xlink:href="#DejaVuSans-2212" transform="translate(88.520508 -15.625) scale(0.7)"/>
     <use xlink:href="#DejaVuSans-Oblique-70" transform="translate(160.810547 -15.625) scale(0.7)"/>
     <use xlink:href="#DejaVuSans-20" transform="translate(207.978516 0.78125)"/>
     <use xlink:href="#DejaVuSans-3d" transform="translate(239.765625 0.78125)"/>
     <use xlink:href="#DejaVuSans-20" transform="translate(323.554688 0.78125)"/>
     <use xlink:href="#DejaVuSans-31" transform="translate(355.341797 0.78125)"/>
     <use xlink:href="#DejaVuSans-2e" transform="translate(418.964844 0.78125)"/>
     <use xlink:href="#DejaVuSans-38" transform="translate(448.126953 0.78125)"/>
     <use xlink:href="#DejaVuSans-37" transform="translate(511.75 0.78125)"/>
     <use xlink:href="#DejaVuSans-45" transform="translate(575.373047 0.78125)"/>
     <use xlink:href="#DejaVuSans-2d" transform="translate(638.556641 0.78125)"/>
     <use xlink:href="#DejaVuSans-30" transform="translate(674.640625 0.78125)"/>
     <use xlink:href="#DejaVuSans-33" transform="translate(738.263672 0.78125)"/>
     <use xlink:href="#DejaVuSans-20" transform="translate(801.886719 0.78125)"/>
     <use xlink:href="#DejaVuSans-6d" transform="translate(833.673828 0.78125)"/>
     <use xlink:href="#DejaVuSans-41" transform="translate(931.085938 0.78125)"/>
     <use xlink:href="#DejaVuSans-2f" transform="translate(999.494141 0.78125)"/>
     <use xlink:href="#DejaVuSans-6d" transform="translate(1033.185547 0.78125)"/>
     <use xlink:href="#DejaVuSans-b2" transform="translate(1130.597656 0.78125)"/>
    </g>
   </g>
   <g id="text_18">
    <g id="patch_8">
     <path d="M 268.649069 297.890637 
L 386.049069 297.890637 
Q 389.049069 297.890637 389.049069 294.890637 
L 389.049069 284.290637 
Q 389.049069 281.290637 386.049069 281.290637 
L 268.649069 281.290637 
Q 265.649069 281.290637 265.649069 284.290637 
L 265.649069 294.890637 
Q 265.649069 297.890637 268.649069 297.890637 
z
" style="fill: #ffffff; opacity: 0.85; stroke: #d94452; stroke-linejoin: miter"/>
    </g>
    <!-- I$_{p-p}$ = 8.47E-04 mA/m² -->
    <g style="fill: #d94452" transform="translate(268.649069 291.790637) scale(0.1 -0.1)">
     <defs>
      <path id="DejaVuSans-34" d="M 2419 4116 
L 825 1625 
L 2419 1625 
L 2419 4116 
z
M 2253 4666 
L 3047 4666 
L 3047 1625 
L 3713 1625 
L 3713 1100 
L 3047 1100 
L 3047 0 
L 2419 0 
L 2419 1100 
L 313 1100 
L 313 1709 
L 2253 4666 
z
" transform="scale(0.015625)"/>
     </defs>
     <use xlink:href="#DejaVuSans-49" transform="translate(0 0.78125)"/>
     <use xlink:href="#DejaVuSans-Oblique-70" transform="translate(30.449219 -15.625) scale(0.7)"/>
     <use xlink:href="#DejaVuSans-2212" transform="translate(88.520508 -15.625) scale(0.7)"/>
     <use xlink:href="#DejaVuSans-Oblique-70" transform="translate(160.810547 -15.625) scale(0.7)"/>
     <use xlink:href="#DejaVuSans-20" transform="translate(207.978516 0.78125)"/>
     <use xlink:href="#DejaVuSans-3d" transform="translate(239.765625 0.78125)"/>
     <use xlink:href="#DejaVuSans-20" transform="translate(323.554688 0.78125)"/>
     <use xlink:href="#DejaVuSans-38" transform="translate(355.341797 0.78125)"/>
     <use xlink:href="#DejaVuSans-2e" transform="translate(418.964844 0.78125)"/>
     <use xlink:href="#DejaVuSans-34" transform="translate(450.751953 0.78125)"/>
     <use xlink:href="#DejaVuSans-37" transform="translate(514.375 0.78125)"/>
     <use xlink:href="#DejaVuSans-45" transform="translate(577.998047 0.78125)"/>
     <use xlink:href="#DejaVuSans-2d" transform="translate(641.181641 0.78125)"/>
     <use xlink:href="#DejaVuSans-30" transform="translate(677.265625 0.78125)"/>
     <use xlink:href="#DejaVuSans-34" transform="translate(740.888672 0.78125)"/>
     <use xlink:href="#DejaVuSans-20" transform="translate(804.511719 0.78125)"/>
     <use xlink:href="#DejaVuSans-6d" transform="translate(836.298828 0.78125)"/>
     <use xlink:href="#DejaVuSans-41" transform="translate(933.710938 0.78125)"/>
     <use xlink:href="#DejaVuSans-2f" transform="translate(1002.119141 0.78125)"/>
     <use xlink:href="#DejaVuSans-6d" transform="translate(1035.810547 0.78125)"/>
     <use xlink:href="#DejaVuSans-b2" transform="translate(1133.222656 0.78125)"/>
    </g>
   </g>
   <g id="text_19">
    <g id="patch_9">
     <path d="M 334.617982 50.1638 
L 406.217513 50.1638 
Q 411.417513 50.1638 411.417513 44.9638 
L 411.417513 32.382237 
Q 411.417513 27.182237 406.217513 27.182237 
L 334.617982 27.182237 
Q 329.417982 27.182237 329.417982 32.382237 
L 329.417982 44.9638 
Q 329.417982 50.1638 334.617982 50.1638 
z
" style="fill: #ffffff; opacity: 0.9; stroke: #5cb85c; stroke-width: 1.5; stroke-linejoin: miter"/>
    </g>
    <!-- f = 2.5 Hz -->
    <g style="fill: #5cb85c" transform="translate(334.617982 42.260206) scale(0.13 -0.13)">
     <defs>
      <path id="DejaVuSans-Bold-66" d="M 2841 4863 
L 2841 4128 
L 2222 4128 
Q 1984 4128 1890 4042 
Q 1797 3956 1797 3744 
L 1797 3500 
L 2753 3500 
L 2753 2700 
L 1797 2700 
L 1797 0 
L 678 0 
L 678 2700 
L 122 2700 
L 122 3500 
L 678 3500 
L 678 3744 
Q 678 4316 997 4589 
Q 1316 4863 1984 4863 
L 2841 4863 
z
" transform="scale(0.015625)"/>
      <path id="DejaVuSans-Bold-3d" d="M 678 3084 
L 4684 3084 
L 4684 2350 
L 678 2350 
L 678 3084 
z
M 678 1663 
L 4684 1663 
L 4684 922 
L 678 922 
L 678 1663 
z
" transform="scale(0.015625)"/>
      <path id="DejaVuSans-Bold-32" d="M 1844 884 
L 3897 884 
L 3897 0 
L 506 0 
L 506 884 
L 2209 2388 
Q 2438 2594 2547 2791 
Q 2656 2988 2656 3200 
Q 2656 3528 2436 3728 
Q 2216 3928 1850 3928 
Q 1569 3928 1234 3808 
Q 900 3688 519 3450 
L 519 4475 
Q 925 4609 1322 4679 
Q 1719 4750 2100 4750 
Q 2938 4750 3402 4381 
Q 3866 4013 3866 3353 
Q 3866 2972 3669 2642 
Q 3472 2313 2841 1759 
L 1844 884 
z
" transform="scale(0.015625)"/>
      <path id="DejaVuSans-Bold-2e" d="M 653 1209 
L 1778 1209 
L 1778 0 
L 653 0 
L 653 1209 
z
" transform="scale(0.015625)"/>
      <path id="DejaVuSans-Bold-35" d="M 678 4666 
L 3669 4666 
L 3669 3781 
L 1638 3781 
L 1638 3059 
Q 1775 3097 1914 3117 
Q 2053 3138 2203 3138 
Q 3056 3138 3531 2711 
Q 4006 2284 4006 1522 
Q 4006 766 3489 337 
Q 2972 -91 2053 -91 
Q 1656 -91 1267 -14 
Q 878 63 494 219 
L 494 1166 
Q 875 947 1217 837 
Q 1559 728 1863 728 
Q 2300 728 2551 942 
Q 2803 1156 2803 1522 
Q 2803 1891 2551 2103 
Q 2300 2316 1863 2316 
Q 1603 2316 1309 2248 
Q 1016 2181 678 2041 
L 678 4666 
z
" transform="scale(0.015625)"/>
      <path id="DejaVuSans-Bold-48" d="M 588 4666 
L 1791 4666 
L 1791 2888 
L 3566 2888 
L 3566 4666 
L 4769 4666 
L 4769 0 
L 3566 0 
L 3566 1978 
L 1791 1978 
L 1791 0 
L 588 0 
L 588 4666 
z
" transform="scale(0.015625)"/>
      <path id="DejaVuSans-Bold-7a" d="M 366 3500 
L 3419 3500 
L 3419 2719 
L 1575 800 
L 3419 800 
L 3419 0 
L 288 0 
L 288 781 
L 2131 2700 
L 366 2700 
L 366 3500 
z
" transform="scale(0.015625)"/>
     </defs>
     <use xlink:href="#DejaVuSans-Bold-66"/>
     <use xlink:href="#DejaVuSans-Bold-20" transform="translate(43.505859 0)"/>
     <use xlink:href="#DejaVuSans-Bold-3d" transform="translate(78.320312 0)"/>
     <use xlink:href="#DejaVuSans-Bold-20" transform="translate(162.109375 0)"/>
     <use xlink:href="#DejaVuSans-Bold-32" transform="translate(196.923828 0)"/>
     <use xlink:href="#DejaVuSans-Bold-2e" transform="translate(266.503906 0)"/>
     <use xlink:href="#DejaVuSans-Bold-35" transform="translate(304.492188 0)"/>
     <use xlink:href="#DejaVuSans-Bold-20" transform="translate(374.072266 0)"/>
     <use xlink:href="#DejaVuSans-Bold-48" transform="translate(408.886719 0)"/>
     <use xlink:href="#DejaVuSans-Bold-7a" transform="translate(492.578125 0)"/>
    </g>
   </g>
   <g id="text_20">
    <!-- Without MIC -->
    <g style="fill: #333333" transform="translate(99.370575 43.02005) scale(0.14 -0.14)">
     <defs>
      <path id="DejaVuSans-Bold-57" d="M 191 4666 
L 1344 4666 
L 2150 1275 
L 2950 4666 
L 4109 4666 
L 4909 1275 
L 5716 4666 
L 6859 4666 
L 5759 0 
L 4372 0 
L 3525 3547 
L 2688 0 
L 1300 0 
L 191 4666 
z
" transform="scale(0.015625)"/>
      <path id="DejaVuSans-Bold-74" d="M 1759 4494 
L 1759 3500 
L 2913 3500 
L 2913 2700 
L 1759 2700 
L 1759 1216 
Q 1759 972 1856 886 
Q 1953 800 2241 800 
L 2816 800 
L 2816 0 
L 1856 0 
Q 1194 0 917 276 
Q 641 553 641 1216 
L 641 2700 
L 84 2700 
L 84 3500 
L 641 3500 
L 641 4494 
L 1759 4494 
z
" transform="scale(0.015625)"/>
      <path id="DejaVuSans-Bold-68" d="M 4056 2131 
L 4056 0 
L 2931 0 
L 2931 347 
L 2931 1625 
Q 2931 2084 2911 2256 
Q 2891 2428 2841 2509 
Q 2775 2619 2662 2680 
Q 2550 2741 2406 2741 
Q 2056 2741 1856 2470 
Q 1656 2200 1656 1722 
L 1656 0 
L 538 0 
L 538 4863 
L 1656 4863 
L 1656 2988 
Q 1909 3294 2193 3439 
Q 2478 3584 2822 3584 
Q 3428 3584 3742 3212 
Q 4056 2841 4056 2131 
z
" transform="scale(0.015625)"/>
      <path id="DejaVuSans-Bold-6f" d="M 2203 2784 
Q 1831 2784 1636 2517 
Q 1441 2250 1441 1747 
Q 1441 1244 1636 976 
Q 1831 709 2203 709 
Q 2569 709 2762 976 
Q 2956 1244 2956 1747 
Q 2956 2250 2762 2517 
Q 2569 2784 2203 2784 
z
M 2203 3584 
Q 3106 3584 3614 3096 
Q 4122 2609 4122 1747 
Q 4122 884 3614 396 
Q 3106 -91 2203 -91 
Q 1297 -91 786 396 
Q 275 884 275 1747 
Q 275 2609 786 3096 
Q 1297 3584 2203 3584 
z
" transform="scale(0.015625)"/>
      <path id="DejaVuSans-Bold-75" d="M 500 1363 
L 500 3500 
L 1625 3500 
L 1625 3150 
Q 1625 2866 1622 2436 
Q 1619 2006 1619 1863 
Q 1619 1441 1641 1255 
Q 1663 1069 1716 984 
Q 1784 875 1895 815 
Q 2006 756 2150 756 
Q 2500 756 2700 1025 
Q 2900 1294 2900 1772 
L 2900 3500 
L 4019 3500 
L 4019 0 
L 2900 0 
L 2900 506 
Q 2647 200 2364 54 
Q 2081 -91 1741 -91 
Q 1134 -91 817 281 
Q 500 653 500 1363 
z
" transform="scale(0.015625)"/>
      <path id="DejaVuSans-Bold-4d" d="M 588 4666 
L 2119 4666 
L 3181 2169 
L 4250 4666 
L 5778 4666 
L 5778 0 
L 4641 0 
L 4641 3413 
L 3566 897 
L 2803 897 
L 1728 3413 
L 1728 0 
L 588 0 
L 588 4666 
z
" transform="scale(0.015625)"/>
      <path id="DejaVuSans-Bold-43" d="M 4288 256 
Q 3956 84 3597 -3 
Q 3238 -91 2847 -91 
Q 1681 -91 1000 561 
Q 319 1213 319 2328 
Q 319 3447 1000 4098 
Q 1681 4750 2847 4750 
Q 3238 4750 3597 4662 
Q 3956 4575 4288 4403 
L 4288 3438 
Q 3953 3666 3628 3772 
Q 3303 3878 2944 3878 
Q 2300 3878 1931 3465 
Q 1563 3053 1563 2328 
Q 1563 1606 1931 1193 
Q 2300 781 2944 781 
Q 3303 781 3628 887 
Q 3953 994 4288 1222 
L 4288 256 
z
" transform="scale(0.015625)"/>
     </defs>
     <use xlink:href="#DejaVuSans-Bold-57"/>
     <use xlink:href="#DejaVuSans-Bold-69" transform="translate(110.302734 0)"/>
     <use xlink:href="#DejaVuSans-Bold-74" transform="translate(144.580078 0)"/>
     <use xlink:href="#DejaVuSans-Bold-68" transform="translate(192.382812 0)"/>
     <use xlink:href="#DejaVuSans-Bold-6f" transform="translate(263.574219 0)"/>
     <use xlink:href="#DejaVuSans-Bold-75" transform="translate(332.275391 0)"/>
     <use xlink:href="#DejaVuSans-Bold-74" transform="translate(403.466797 0)"/>
     <use xlink:href="#DejaVuSans-Bold-20" transform="translate(451.269531 0)"/>
     <use xlink:href="#DejaVuSans-Bold-4d" transform="translate(486.083984 0)"/>
     <use xlink:href="#DejaVuSans-Bold-49" transform="translate(585.595703 0)"/>
     <use xlink:href="#DejaVuSans-Bold-43" transform="translate(622.802734 0)"/>
    </g>
   </g>
   <g id="text_21">
    <!-- With MIC -->
    <g style="fill: #d94452" transform="translate(291.755163 43.02005) scale(0.14 -0.14)">
     <use xlink:href="#DejaVuSans-Bold-57"/>
     <use xlink:href="#DejaVuSans-Bold-69" transform="translate(110.302734 0)"/>
     <use xlink:href="#DejaVuSans-Bold-74" transform="translate(144.580078 0)"/>
     <use xlink:href="#DejaVuSans-Bold-68" transform="translate(192.382812 0)"/>
     <use xlink:href="#DejaVuSans-Bold-20" transform="translate(263.574219 0)"/>
     <use xlink:href="#DejaVuSans-Bold-4d" transform="translate(298.388672 0)"/>
     <use xlink:href="#DejaVuSans-Bold-49" transform="translate(397.900391 0)"/>
     <use xlink:href="#DejaVuSans-Bold-43" transform="translate(435.107422 0)"/>
    </g>
   </g>
  </g>
 </g>
 <defs>
  <clipPath id="pa289adde7d">
   <rect x="58.479375" y="17.798437" width="358.492926" height="291.676"/>
  </clipPath>
 </defs>
</svg>
