<?xml version="1.0" encoding="utf-8" standalone="no"?>
<!DOCTYPE svg PUBLIC "-//W3C//DTD SVG 1.1//EN"
  "http://www.w3.org/Graphics/SVG/1.1/DTD/svg11.dtd">
<svg xmlns:xlink="http://www.w3.org/1999/xlink" width="424.174pt" height="352.875312pt" viewBox="0 0 424.174 352.875312" xmlns="http://www.w3.org/2000/svg" version="1.1">
 <metadata>
  <rdf:RDF xmlns:dc="http://purl.org/dc/elements/1.1/" xmlns:cc="http://creativecommons.org/ns#" xmlns:rdf="http://www.w3.org/1999/02/22-rdf-syntax-ns#">
   <cc:Work>
    <dc:type rdf:resource="http://purl.org/dc/dcmitype/StillImage"/>
    <dc:date>2026-04-26T16:38:53.353194</dc:date>
    <dc:format>image/svg+xml</dc:format>
    <dc:creator>
     <cc:Agent>
      <dc:title>Matplotlib v3.10.8, https://matplotlib.org/</dc:title>
     </cc:Agent>
    </dc:creator>
   </cc:Work>
  </rdf:RDF>
 </metadata>
 <defs>
  <style type="text/css">*{stroke-linejoin: round; stroke-linecap: butt}</style>
 </defs>
 <g id="figure_1">
  <g id="patch_1">
   <path d="M 0 352.875312 
L 424.174 352.875312 
L 424.174 0 
L 0 0 
z
" style="fill: #ffffff"/>
  </g>
  <g id="axes_1">
   <g id="patch_2">
    <path d="M 61.963281 310.48 
L 408.227281 310.48 
L 408.227281 7.2 
L 61.963281 7.2 
z
" style="fill: #ffffff"/>
   </g>
   <g id="patch_3">
    <path d="M 61.963281 310.48 
L 210.362138 310.48 
L 210.362138 7.2 
L 61.963281 7.2 
z
" clip-path="url(#p80abeb3401)" style="fill: #cccccc; opacity: 0.12; stroke: #cccccc; stroke-linejoin: miter"/>
   </g>
   <g id="patch_4">
    <path d="M 210.362138 310.48 
L 408.227281 310.48 
L 408.227281 7.2 
L 210.362138 7.2 
z
" clip-path="url(#p80abeb3401)" style="fill: #d94452; opacity: 0.06; stroke: #d94452; stroke-linejoin: miter"/>
   </g>
   <g id="line2d_1">
    <path d="M 210.362138 310.48 
L 210.362138 7.2 
" clip-path="url(#p80abeb3401)" style="fill: none; stroke-dasharray: 3.7,1.6; stroke-dashoffset: 0; stroke: #999999"/>
   </g>
   <g id="matplotlib.axis_1">
    <g id="xtick_1">
     <g id="line2d_2">
      <defs>
       <path id="m4fe51d2a25" d="M 0 0 
L 0 3.5 
" style="stroke: #000000; stroke-width: 0.8"/>
      </defs>
      <g>
       <use xlink:href="#m4fe51d2a25" x="61.963281" y="310.48" style="stroke: #000000; stroke-width: 0.8"/>
      </g>
     </g>
     <g id="text_1">
      <!-- 0.0 -->
      <g transform="translate(53.216563 325.838281) scale(0.11 -0.11)">
       <defs>
        <path id="DejaVuSans-30" d="M 2034 4250 
Q 1547 4250 1301 3770 
Q 1056 3291 1056 2328 
Q 1056 1369 1301 889 
Q 1547 409 2034 409 
Q 2525 409 2770 889 
Q 3016 1369 3016 2328 
Q 3016 3291 2770 3770 
Q 2525 4250 2034 4250 
z
M 2034 4750 
Q 2819 4750 3233 4129 
Q 3647 3509 3647 2328 
Q 3647 1150 3233 529 
Q 2819 -91 2034 -91 
Q 1250 -91 836 529 
Q 422 1150 422 2328 
Q 422 3509 836 4129 
Q 1250 4750 2034 4750 
z
" transform="scale(0.015625)"/>
        <path id="DejaVuSans-2e" d="M 684 794 
L 1344 794 
L 1344 0 
L 684 0 
L 684 794 
z
" transform="scale(0.015625)"/>
       </defs>
       <use xlink:href="#DejaVuSans-30"/>
       <use xlink:href="#DejaVuSans-2e" transform="translate(63.623047 0)"/>
       <use xlink:href="#DejaVuSans-30" transform="translate(95.410156 0)"/>
      </g>
     </g>
    </g>
    <g id="xtick_2">
     <g id="line2d_3">
      <g>
       <use xlink:href="#m4fe51d2a25" x="111.429567" y="310.48" style="stroke: #000000; stroke-width: 0.8"/>
      </g>
     </g>
     <g id="text_2">
      <!-- 0.5 -->
      <g transform="translate(102.682848 325.838281) scale(0.11 -0.11)">
       <defs>
        <path id="DejaVuSans-35" d="M 691 4666 
L 3169 4666 
L 3169 4134 
L 1269 4134 
L 1269 2991 
Q 1406 3038 1543 3061 
Q 1681 3084 1819 3084 
Q 2600 3084 3056 2656 
Q 3513 2228 3513 1497 
Q 3513 744 3044 326 
Q 2575 -91 1722 -91 
Q 1428 -91 1123 -41 
Q 819 9 494 109 
L 494 744 
Q 775 591 1075 516 
Q 1375 441 1709 441 
Q 2250 441 2565 725 
Q 2881 1009 2881 1497 
Q 2881 1984 2565 2268 
Q 2250 2553 1709 2553 
Q 1456 2553 1204 2497 
Q 953 2441 691 2322 
L 691 4666 
z
" transform="scale(0.015625)"/>
       </defs>
       <use xlink:href="#DejaVuSans-30"/>
       <use xlink:href="#DejaVuSans-2e" transform="translate(63.623047 0)"/>
       <use xlink:href="#DejaVuSans-35" transform="translate(95.410156 0)"/>
      </g>
     </g>
    </g>
    <g id="xtick_3">
     <g id="line2d_4">
      <g>
       <use xlink:href="#m4fe51d2a25" x="160.895853" y="310.48" style="stroke: #000000; stroke-width: 0.8"/>
      </g>
     </g>
     <g id="text_3">
      <!-- 1.0 -->
      <g transform="translate(152.149134 325.838281) scale(0.11 -0.11)">
       <defs>
        <path id="DejaVuSans-31" d="M 794 531 
L 1825 531 
L 1825 4091 
L 703 3866 
L 703 4441 
L 1819 4666 
L 2450 4666 
L 2450 531 
L 3481 531 
L 3481 0 
L 794 0 
L 794 531 
z
" transform="scale(0.015625)"/>
       </defs>
       <use xlink:href="#DejaVuSans-31"/>
       <use xlink:href="#DejaVuSans-2e" transform="translate(63.623047 0)"/>
       <use xlink:href="#DejaVuSans-30" transform="translate(95.410156 0)"/>
      </g>
     </g>
    </g>
    <g id="xtick_4">
     <g id="line2d_5">
      <g>
       <use xlink:href="#m4fe51d2a25" x="210.362138" y="310.48" style="stroke: #000000; stroke-width: 0.8"/>
      </g>
     </g>
     <g id="text_4">
      <!-- 1.5 -->
      <g transform="translate(201.61542 325.838281) scale(0.11 -0.11)">
       <use xlink:href="#DejaVuSans-31"/>
       <use xlink:href="#DejaVuSans-2e" transform="translate(63.623047 0)"/>
       <use xlink:href="#DejaVuSans-35" transform="translate(95.410156 0)"/>
      </g>
     </g>
    </g>
    <g id="xtick_5">
     <g id="line2d_6">
      <g>
       <use xlink:href="#m4fe51d2a25" x="259.828424" y="310.48" style="stroke: #000000; stroke-width: 0.8"/>
      </g>
     </g>
     <g id="text_5">
      <!-- 2.0 -->
      <g transform="translate(251.081705 325.838281) scale(0.11 -0.11)">
       <defs>
        <path id="DejaVuSans-32" d="M 1228 531 
L 3431 531 
L 3431 0 
L 469 0 
L 469 531 
Q 828 903 1448 1529 
Q 2069 2156 2228 2338 
Q 2531 2678 2651 2914 
Q 2772 3150 2772 3378 
Q 2772 3750 2511 3984 
Q 2250 4219 1831 4219 
Q 1534 4219 1204 4116 
Q 875 4013 500 3803 
L 500 4441 
Q 881 4594 1212 4672 
Q 1544 4750 1819 4750 
Q 2544 4750 2975 4387 
Q 3406 4025 3406 3419 
Q 3406 3131 3298 2873 
Q 3191 2616 2906 2266 
Q 2828 2175 2409 1742 
Q 1991 1309 1228 531 
z
" transform="scale(0.015625)"/>
       </defs>
       <use xlink:href="#DejaVuSans-32"/>
       <use xlink:href="#DejaVuSans-2e" transform="translate(63.623047 0)"/>
       <use xlink:href="#DejaVuSans-30" transform="translate(95.410156 0)"/>
      </g>
     </g>
    </g>
    <g id="xtick_6">
     <g id="line2d_7">
      <g>
       <use xlink:href="#m4fe51d2a25" x="309.29471" y="310.48" style="stroke: #000000; stroke-width: 0.8"/>
      </g>
     </g>
     <g id="text_6">
      <!-- 2.5 -->
      <g transform="translate(300.547991 325.838281) scale(0.11 -0.11)">
       <use xlink:href="#DejaVuSans-32"/>
       <use xlink:href="#DejaVuSans-2e" transform="translate(63.623047 0)"/>
       <use xlink:href="#DejaVuSans-35" transform="translate(95.410156 0)"/>
      </g>
     </g>
    </g>
    <g id="xtick_7">
     <g id="line2d_8">
      <g>
       <use xlink:href="#m4fe51d2a25" x="358.760996" y="310.48" style="stroke: #000000; stroke-width: 0.8"/>
      </g>
     </g>
     <g id="text_7">
      <!-- 3.0 -->
      <g transform="translate(350.014277 325.838281) scale(0.11 -0.11)">
       <defs>
        <path id="DejaVuSans-33" d="M 2597 2516 
Q 3050 2419 3304 2112 
Q 3559 1806 3559 1356 
Q 3559 666 3084 287 
Q 2609 -91 1734 -91 
Q 1441 -91 1130 -33 
Q 819 25 488 141 
L 488 750 
Q 750 597 1062 519 
Q 1375 441 1716 441 
Q 2309 441 2620 675 
Q 2931 909 2931 1356 
Q 2931 1769 2642 2001 
Q 2353 2234 1838 2234 
L 1294 2234 
L 1294 2753 
L 1863 2753 
Q 2328 2753 2575 2939 
Q 2822 3125 2822 3475 
Q 2822 3834 2567 4026 
Q 2313 4219 1838 4219 
Q 1578 4219 1281 4162 
Q 984 4106 628 3988 
L 628 4550 
Q 988 4650 1302 4700 
Q 1616 4750 1894 4750 
Q 2613 4750 3031 4423 
Q 3450 4097 3450 3541 
Q 3450 3153 3228 2886 
Q 3006 2619 2597 2516 
z
" transform="scale(0.015625)"/>
       </defs>
       <use xlink:href="#DejaVuSans-33"/>
       <use xlink:href="#DejaVuSans-2e" transform="translate(63.623047 0)"/>
       <use xlink:href="#DejaVuSans-30" transform="translate(95.410156 0)"/>
      </g>
     </g>
    </g>
    <g id="xtick_8">
     <g id="line2d_9">
      <g>
       <use xlink:href="#m4fe51d2a25" x="408.227281" y="310.48" style="stroke: #000000; stroke-width: 0.8"/>
      </g>
     </g>
     <g id="text_8">
      <!-- 3.5 -->
      <g transform="translate(399.480562 325.838281) scale(0.11 -0.11)">
       <use xlink:href="#DejaVuSans-33"/>
       <use xlink:href="#DejaVuSans-2e" transform="translate(63.623047 0)"/>
       <use xlink:href="#DejaVuSans-35" transform="translate(95.410156 0)"/>
      </g>
     </g>
    </g>
    <g id="text_9">
     <!-- Time (s) -->
     <g transform="translate(202.876687 342.76375) scale(0.14 -0.14)">
      <defs>
       <path id="DejaVuSans-Bold-54" d="M 31 4666 
L 4331 4666 
L 4331 3756 
L 2784 3756 
L 2784 0 
L 1581 0 
L 1581 3756 
L 31 3756 
L 31 4666 
z
" transform="scale(0.015625)"/>
       <path id="DejaVuSans-Bold-69" d="M 538 3500 
L 1656 3500 
L 1656 0 
L 538 0 
L 538 3500 
z
M 538 4863 
L 1656 4863 
L 1656 3950 
L 538 3950 
L 538 4863 
z
" transform="scale(0.015625)"/>
       <path id="DejaVuSans-Bold-6d" d="M 3781 2919 
Q 3994 3244 4286 3414 
Q 4578 3584 4928 3584 
Q 5531 3584 5847 3212 
Q 6163 2841 6163 2131 
L 6163 0 
L 5038 0 
L 5038 1825 
Q 5041 1866 5042 1909 
Q 5044 1953 5044 2034 
Q 5044 2406 4934 2573 
Q 4825 2741 4581 2741 
Q 4263 2741 4089 2478 
Q 3916 2216 3909 1719 
L 3909 0 
L 2784 0 
L 2784 1825 
Q 2784 2406 2684 2573 
Q 2584 2741 2328 2741 
Q 2006 2741 1831 2477 
Q 1656 2213 1656 1722 
L 1656 0 
L 531 0 
L 531 3500 
L 1656 3500 
L 1656 2988 
Q 1863 3284 2130 3434 
Q 2397 3584 2719 3584 
Q 3081 3584 3359 3409 
Q 3638 3234 3781 2919 
z
" transform="scale(0.015625)"/>
       <path id="DejaVuSans-Bold-65" d="M 4031 1759 
L 4031 1441 
L 1416 1441 
Q 1456 1047 1700 850 
Q 1944 653 2381 653 
Q 2734 653 3104 758 
Q 3475 863 3866 1075 
L 3866 213 
Q 3469 63 3072 -14 
Q 2675 -91 2278 -91 
Q 1328 -91 801 392 
Q 275 875 275 1747 
Q 275 2603 792 3093 
Q 1309 3584 2216 3584 
Q 3041 3584 3536 3087 
Q 4031 2591 4031 1759 
z
M 2881 2131 
Q 2881 2450 2695 2645 
Q 2509 2841 2209 2841 
Q 1884 2841 1681 2658 
Q 1478 2475 1428 2131 
L 2881 2131 
z
" transform="scale(0.015625)"/>
       <path id="DejaVuSans-Bold-20" transform="scale(0.015625)"/>
       <path id="DejaVuSans-Bold-28" d="M 2413 -844 
L 1484 -844 
Q 1006 -72 778 623 
Q 550 1319 550 2003 
Q 550 2688 779 3389 
Q 1009 4091 1484 4856 
L 2413 4856 
Q 2013 4116 1813 3408 
Q 1613 2700 1613 2009 
Q 1613 1319 1811 609 
Q 2009 -100 2413 -844 
z
" transform="scale(0.015625)"/>
       <path id="DejaVuSans-Bold-73" d="M 3272 3391 
L 3272 2541 
Q 2913 2691 2578 2766 
Q 2244 2841 1947 2841 
Q 1628 2841 1473 2761 
Q 1319 2681 1319 2516 
Q 1319 2381 1436 2309 
Q 1553 2238 1856 2203 
L 2053 2175 
Q 2913 2066 3209 1816 
Q 3506 1566 3506 1031 
Q 3506 472 3093 190 
Q 2681 -91 1863 -91 
Q 1516 -91 1145 -36 
Q 775 19 384 128 
L 384 978 
Q 719 816 1070 734 
Q 1422 653 1784 653 
Q 2113 653 2278 743 
Q 2444 834 2444 1013 
Q 2444 1163 2330 1236 
Q 2216 1309 1875 1350 
L 1678 1375 
Q 931 1469 631 1722 
Q 331 1975 331 2491 
Q 331 3047 712 3315 
Q 1094 3584 1881 3584 
Q 2191 3584 2531 3537 
Q 2872 3491 3272 3391 
z
" transform="scale(0.015625)"/>
       <path id="DejaVuSans-Bold-29" d="M 513 -844 
Q 913 -100 1113 609 
Q 1313 1319 1313 2009 
Q 1313 2700 1113 3408 
Q 913 4116 513 4856 
L 1441 4856 
Q 1916 4091 2145 3389 
Q 2375 2688 2375 2003 
Q 2375 1319 2147 623 
Q 1919 -72 1441 -844 
L 513 -844 
z
" transform="scale(0.015625)"/>
      </defs>
      <use xlink:href="#DejaVuSans-Bold-54"/>
      <use xlink:href="#DejaVuSans-Bold-69" transform="translate(68.212891 0)"/>
      <use xlink:href="#DejaVuSans-Bold-6d" transform="translate(102.490234 0)"/>
      <use xlink:href="#DejaVuSans-Bold-65" transform="translate(206.689453 0)"/>
      <use xlink:href="#DejaVuSans-Bold-20" transform="translate(274.511719 0)"/>
      <use xlink:href="#DejaVuSans-Bold-28" transform="translate(309.326172 0)"/>
      <use xlink:href="#DejaVuSans-Bold-73" transform="translate(355.029297 0)"/>
      <use xlink:href="#DejaVuSans-Bold-29" transform="translate(414.550781 0)"/>
     </g>
    </g>
   </g>
   <g id="matplotlib.axis_2">
    <g id="ytick_1">
     <g id="line2d_10">
      <defs>
       <path id="m1dbedfe6e1" d="M 0 0 
L -3.5 0 
" style="stroke: #000000; stroke-width: 0.8"/>
      </defs>
      <g>
       <use xlink:href="#m1dbedfe6e1" x="61.963281" y="292.384177" style="stroke: #000000; stroke-width: 0.8"/>
      </g>
     </g>
     <g id="text_10">
      <!-- −300 -->
      <g transform="translate(24.749375 296.563318) scale(0.11 -0.11)">
       <defs>
        <path id="DejaVuSans-2212" d="M 678 2272 
L 4684 2272 
L 4684 1741 
L 678 1741 
L 678 2272 
z
" transform="scale(0.015625)"/>
       </defs>
       <use xlink:href="#DejaVuSans-2212"/>
       <use xlink:href="#DejaVuSans-33" transform="translate(83.789062 0)"/>
       <use xlink:href="#DejaVuSans-30" transform="translate(147.412109 0)"/>
       <use xlink:href="#DejaVuSans-30" transform="translate(211.035156 0)"/>
      </g>
     </g>
    </g>
    <g id="ytick_2">
     <g id="line2d_11">
      <g>
       <use xlink:href="#m1dbedfe6e1" x="61.963281" y="247.869451" style="stroke: #000000; stroke-width: 0.8"/>
      </g>
     </g>
     <g id="text_11">
      <!-- −200 -->
      <g transform="translate(24.749375 252.048592) scale(0.11 -0.11)">
       <use xlink:href="#DejaVuSans-2212"/>
       <use xlink:href="#DejaVuSans-32" transform="translate(83.789062 0)"/>
       <use xlink:href="#DejaVuSans-30" transform="translate(147.412109 0)"/>
       <use xlink:href="#DejaVuSans-30" transform="translate(211.035156 0)"/>
      </g>
     </g>
    </g>
    <g id="ytick_3">
     <g id="line2d_12">
      <g>
       <use xlink:href="#m1dbedfe6e1" x="61.963281" y="203.354726" style="stroke: #000000; stroke-width: 0.8"/>
      </g>
     </g>
     <g id="text_12">
      <!-- −100 -->
      <g transform="translate(24.749375 207.533866) scale(0.11 -0.11)">
       <use xlink:href="#DejaVuSans-2212"/>
       <use xlink:href="#DejaVuSans-31" transform="translate(83.789062 0)"/>
       <use xlink:href="#DejaVuSans-30" transform="translate(147.412109 0)"/>
       <use xlink:href="#DejaVuSans-30" transform="translate(211.035156 0)"/>
      </g>
     </g>
    </g>
    <g id="ytick_4">
     <g id="line2d_13">
      <g>
       <use xlink:href="#m1dbedfe6e1" x="61.963281" y="158.84" style="stroke: #000000; stroke-width: 0.8"/>
      </g>
     </g>
     <g id="text_13">
      <!-- 0 -->
      <g transform="translate(47.964531 163.019141) scale(0.11 -0.11)">
       <use xlink:href="#DejaVuSans-30"/>
      </g>
     </g>
    </g>
    <g id="ytick_5">
     <g id="line2d_14">
      <g>
       <use xlink:href="#m1dbedfe6e1" x="61.963281" y="114.325274" style="stroke: #000000; stroke-width: 0.8"/>
      </g>
     </g>
     <g id="text_14">
      <!-- 100 -->
      <g transform="translate(33.967031 118.504415) scale(0.11 -0.11)">
       <use xlink:href="#DejaVuSans-31"/>
       <use xlink:href="#DejaVuSans-30" transform="translate(63.623047 0)"/>
       <use xlink:href="#DejaVuSans-30" transform="translate(127.246094 0)"/>
      </g>
     </g>
    </g>
    <g id="ytick_6">
     <g id="line2d_15">
      <g>
       <use xlink:href="#m1dbedfe6e1" x="61.963281" y="69.810549" style="stroke: #000000; stroke-width: 0.8"/>
      </g>
     </g>
     <g id="text_15">
      <!-- 200 -->
      <g transform="translate(33.967031 73.989689) scale(0.11 -0.11)">
       <use xlink:href="#DejaVuSans-32"/>
       <use xlink:href="#DejaVuSans-30" transform="translate(63.623047 0)"/>
       <use xlink:href="#DejaVuSans-30" transform="translate(127.246094 0)"/>
      </g>
     </g>
    </g>
    <g id="ytick_7">
     <g id="line2d_16">
      <g>
       <use xlink:href="#m1dbedfe6e1" x="61.963281" y="25.295823" style="stroke: #000000; stroke-width: 0.8"/>
      </g>
     </g>
     <g id="text_16">
      <!-- 300 -->
      <g transform="translate(33.967031 29.474964) scale(0.11 -0.11)">
       <use xlink:href="#DejaVuSans-33"/>
       <use xlink:href="#DejaVuSans-30" transform="translate(63.623047 0)"/>
       <use xlink:href="#DejaVuSans-30" transform="translate(127.246094 0)"/>
      </g>
     </g>
    </g>
    <g id="text_17">
     <!-- V$_{oc}$ (V) -->
     <g transform="translate(17.837813 184.53) rotate(-90) scale(0.14 -0.14)">
      <defs>
       <path id="DejaVuSans-Bold-56" d="M 31 4666 
L 1241 4666 
L 2478 1222 
L 3713 4666 
L 4922 4666 
L 3194 0 
L 1759 0 
L 31 4666 
z
" transform="scale(0.015625)"/>
       <path id="DejaVuSans-Oblique-6f" d="M 1625 -91 
Q 1009 -91 651 289 
Q 294 669 294 1325 
Q 294 1706 417 2101 
Q 541 2497 738 2766 
Q 1047 3184 1428 3384 
Q 1809 3584 2291 3584 
Q 2888 3584 3255 3212 
Q 3622 2841 3622 2241 
Q 3622 1825 3500 1412 
Q 3378 1000 3181 728 
Q 2875 309 2494 109 
Q 2113 -91 1625 -91 
z
M 891 1344 
Q 891 869 1089 633 
Q 1288 397 1691 397 
Q 2269 397 2648 901 
Q 3028 1406 3028 2181 
Q 3028 2634 2825 2865 
Q 2622 3097 2228 3097 
Q 1903 3097 1650 2945 
Q 1397 2794 1197 2484 
Q 1050 2253 970 1956 
Q 891 1659 891 1344 
z
" transform="scale(0.015625)"/>
       <path id="DejaVuSans-Oblique-63" d="M 3431 3366 
L 3316 2797 
Q 3109 2947 2876 3022 
Q 2644 3097 2394 3097 
Q 2119 3097 1870 3000 
Q 1622 2903 1453 2725 
Q 1184 2453 1037 2087 
Q 891 1722 891 1331 
Q 891 859 1127 628 
Q 1363 397 1844 397 
Q 2081 397 2348 469 
Q 2616 541 2906 684 
L 2797 116 
Q 2547 13 2283 -39 
Q 2019 -91 1741 -91 
Q 1044 -91 669 257 
Q 294 606 294 1253 
Q 294 1797 489 2255 
Q 684 2713 1069 3078 
Q 1331 3328 1684 3456 
Q 2038 3584 2456 3584 
Q 2700 3584 2940 3529 
Q 3181 3475 3431 3366 
z
" transform="scale(0.015625)"/>
      </defs>
      <use xlink:href="#DejaVuSans-Bold-56" transform="translate(0 0.125)"/>
      <use xlink:href="#DejaVuSans-Oblique-6f" transform="translate(78.349609 -16.28125) scale(0.7)"/>
      <use xlink:href="#DejaVuSans-Oblique-63" transform="translate(121.176758 -16.28125) scale(0.7)"/>
      <use xlink:href="#DejaVuSans-Bold-20" transform="translate(162.397461 0.125)"/>
      <use xlink:href="#DejaVuSans-Bold-28" transform="translate(197.211914 0.125)"/>
      <use xlink:href="#DejaVuSans-Bold-56" transform="translate(242.915039 0.125)"/>
      <use xlink:href="#DejaVuSans-Bold-29" transform="translate(320.307617 0.125)"/>
     </g>
    </g>
   </g>
   <g id="patch_5">
    <path d="M 61.963281 310.48 
L 61.963281 7.2 
" style="fill: none; stroke: #000000; stroke-width: 0.8; stroke-linejoin: miter; stroke-linecap: square"/>
   </g>
   <g id="patch_6">
    <path d="M 61.963281 310.48 
L 408.227281 310.48 
" style="fill: none; stroke: #000000; stroke-width: 0.8; stroke-linejoin: miter; stroke-linecap: square"/>
   </g>
   <g id="line2d_17">
    <path d="M 61.963281 51.739794 
L 62.260079 52.533099 
L 64.23873 56.143935 
L 64.634461 57.477944 
L 65.030191 59.689913 
L 65.425921 63.393593 
L 65.821652 69.938694 
L 66.118449 78.521665 
L 66.415247 93.194345 
L 66.810977 128.092085 
L 67.899236 225.611397 
L 68.393898 253.976992 
L 68.591764 256.607442 
L 68.690696 255.203125 
L 68.987494 243.308415 
L 69.383224 215.887682 
L 71.262943 62.824889 
L 71.658673 53.044444 
L 71.955471 49.480033 
L 72.252269 47.715236 
L 72.647999 46.3744 
L 73.142662 45.91289 
L 73.538392 46.037825 
L 73.83519 46.29384 
L 74.23092 46.4652 
L 74.428785 46.29384 
L 74.62665 46.247416 
L 75.714909 46.333437 
L 76.308504 46.310225 
L 76.605302 46.362111 
L 76.803167 46.350505 
L 77.001032 46.665916 
L 77.69356 46.584674 
L 77.792493 46.835227 
L 77.891425 46.772418 
L 78.08929 47.025702 
L 78.188223 46.943095 
L 78.682886 47.510424 
L 78.880751 47.687245 
L 78.979684 47.588253 
L 79.375414 48.146024 
L 80.859402 50.499315 
L 81.1562 51.220254 
L 81.255133 51.311054 
L 81.55193 52.201986 
L 83.332717 55.574558 
L 83.530582 55.493316 
L 83.82738 56.432037 
L 84.124177 57.326383 
L 84.717773 60.681884 
L 85.01457 64.068107 
L 85.311368 68.971983 
L 85.608166 76.887268 
L 85.904964 90.556377 
L 86.300694 124.126946 
L 87.487885 229.902182 
L 87.883615 252.690099 
L 88.08148 256.780165 
L 88.180413 256.116579 
L 88.378278 250.031661 
L 88.675076 233.456343 
L 89.268671 183.806797 
L 90.554794 73.126907 
L 90.950525 57.352319 
L 91.346255 50.302011 
L 91.741985 47.126743 
L 92.038783 46.030998 
L 92.335581 45.594066 
L 92.533446 45.41861 
L 92.731311 45.521698 
L 93.720637 45.947025 
L 95.204625 46.298619 
L 96.985412 46.353236 
L 97.381142 46.500018 
L 97.67794 46.628367 
L 98.07367 46.973816 
L 98.4694 47.548656 
L 99.557658 48.940013 
L 99.755524 49.079968 
L 99.953389 49.523044 
L 100.250186 49.884879 
L 101.437377 51.728188 
L 101.833108 52.877866 
L 101.93204 52.896982 
L 102.32777 53.666393 
L 102.822433 54.513632 
L 103.613894 56.246341 
L 104.306422 60.601325 
L 104.702152 65.697726 
L 105.097882 74.979107 
L 105.39468 87.702674 
L 105.691478 110.210044 
L 107.076534 233.98679 
L 107.472264 254.803744 
L 107.670129 256.867551 
L 107.867994 251.978043 
L 108.263725 230.084477 
L 108.85732 179.458661 
L 110.044511 75.975149 
L 110.440241 58.198191 
L 110.835972 50.682279 
L 111.231702 47.324045 
L 111.627432 45.957266 
L 111.92423 45.677356 
L 112.122095 45.540814 
L 112.31996 45.623422 
L 112.517825 45.914938 
L 112.913556 45.958631 
L 113.507151 46.077422 
L 113.803949 46.065816 
L 114.595409 46.213963 
L 115.090072 46.446766 
L 115.189005 46.4652 
L 115.38687 46.348457 
L 117.266589 46.22557 
L 117.464454 46.439257 
L 117.662319 46.515037 
L 118.255914 47.005221 
L 118.354847 47.01 
L 119.146308 48.527658 
L 119.838836 49.841186 
L 120.036701 49.94564 
L 120.432431 50.848862 
L 120.531364 50.94444 
L 120.630296 50.837255 
L 121.124959 51.730236 
L 121.421757 52.347403 
L 122.015352 53.346203 
L 123.10361 56.101607 
L 123.598273 58.591438 
L 123.994004 62.344274 
L 124.389734 68.766488 
L 124.686532 76.903653 
L 124.983329 90.968047 
L 125.37906 125.191962 
L 126.467318 223.187121 
L 126.961981 253.163894 
L 127.159846 256.831368 
L 127.258778 255.976625 
L 127.456644 249.332574 
L 127.852374 225.895416 
L 128.643834 154.671758 
L 129.534228 77.626609 
L 129.929958 58.579141 
L 130.325688 50.417389 
L 130.622486 47.635359 
L 131.018216 46.045335 
L 131.710744 45.708078 
L 131.908609 46.184607 
L 132.30434 46.617444 
L 132.601137 46.7376 
L 132.996868 46.784024 
L 133.689396 46.794264 
L 133.788328 46.818159 
L 133.986193 46.602424 
L 136.063777 46.435843 
L 136.95417 46.633146 
L 137.547766 47.05028 
L 137.943496 47.618975 
L 138.438159 48.537898 
L 139.130687 49.708741 
L 140.812541 52.742007 
L 141.208271 53.657517 
L 142.395462 55.697445 
L 142.69226 56.725601 
L 143.285855 60.247683 
L 143.681585 64.811573 
L 144.077316 72.881154 
L 144.374113 83.781222 
L 144.670911 103.025277 
L 146.352765 247.297436 
L 146.649562 257.010918 
L 146.748495 256.878474 
L 146.94636 251.610749 
L 147.34209 229.467314 
L 148.034618 168.430956 
L 149.122877 73.566564 
L 149.518607 56.346691 
L 149.914337 49.287509 
L 150.211135 47.177945 
L 150.507933 46.241272 
L 150.80473 45.871245 
L 150.903663 45.751088 
L 151.299393 46.082201 
L 151.794056 46.504114 
L 152.090854 46.519134 
L 152.288719 46.261753 
L 152.684449 46.181193 
L 153.574842 46.040556 
L 153.772708 46.020075 
L 153.970573 46.114971 
L 154.959898 46.130673 
L 155.553494 46.163443 
L 155.850292 46.269946 
L 156.246022 46.45769 
L 156.443887 46.440622 
L 157.73001 47.941213 
L 157.927876 48.28598 
L 158.026808 48.276421 
L 158.422538 49.08816 
L 160.500122 53.18167 
L 160.994785 53.885541 
L 161.093718 53.730567 
L 162.083044 55.715195 
L 162.478774 57.495011 
L 162.775572 59.505581 
L 163.171302 63.9302 
L 163.567032 71.509599 
L 163.86383 81.607489 
L 164.160628 99.594009 
L 166.040346 254.420065 
L 166.238212 257.413029 
L 166.337144 256.161638 
L 166.535009 249.224708 
L 166.831807 232.378356 
L 167.425402 181.5252 
L 168.711526 69.695628 
L 169.107256 54.649484 
L 169.502986 48.622553 
L 169.799784 46.790168 
L 170.096582 46.163443 
L 170.294447 45.792733 
L 170.492312 45.823455 
L 170.78911 46.123846 
L 171.18484 46.629732 
L 171.58057 46.706195 
L 172.273098 46.485681 
L 172.569896 46.444718 
L 173.85602 46.484998 
L 174.053885 46.526643 
L 174.548548 46.519816 
L 174.64748 46.577846 
L 174.845345 46.4652 
L 175.438941 46.404439 
L 175.636806 46.394198 
L 175.735738 46.39215 
L 175.933604 46.629049 
L 176.131469 46.742379 
L 176.527199 47.187504 
L 176.725064 47.411432 
L 177.021862 47.996511 
L 177.417592 48.68468 
L 177.912255 50.0617 
L 178.11012 50.402371 
L 178.307985 50.508873 
L 179.000513 51.596425 
L 179.297311 52.318729 
L 179.594109 52.647111 
L 179.693041 52.544022 
L 180.088772 52.923607 
L 180.583434 54.12722 
L 181.473828 55.280994 
L 181.770625 56.247024 
L 182.265288 58.850184 
L 182.562086 61.60149 
L 182.858884 65.793304 
L 183.155681 72.423058 
L 183.452479 83.551831 
L 183.749277 103.581677 
L 185.43113 248.025879 
L 185.727928 257.110593 
L 185.826861 256.723501 
L 186.024726 250.761469 
L 186.321524 235.339918 
L 186.915119 185.49307 
L 188.201242 72.185452 
L 188.596973 55.583426 
L 188.89377 50.411927 
L 189.289501 47.014096 
L 189.586298 46.048748 
L 189.784164 45.805705 
L 190.080961 45.78181 
L 190.179894 45.936102 
L 190.278826 45.873975 
L 190.575624 46.360745 
L 190.773489 46.42492 
L 190.971354 46.17778 
L 191.367085 46.235127 
L 191.56495 46.030998 
L 192.059613 45.89787 
L 192.257478 46.039191 
L 192.851073 46.068547 
L 193.048938 46.129308 
L 193.246804 45.969554 
L 193.444669 46.000276 
L 193.642534 46.164126 
L 194.335062 46.388737 
L 194.532927 46.618126 
L 195.126522 46.567606 
L 195.324388 46.940364 
L 196.115848 47.250995 
L 196.412646 47.556166 
L 196.511578 47.489943 
L 196.709444 47.762343 
L 197.006241 48.408867 
L 198.787028 51.750035 
L 198.88596 51.703611 
L 199.380623 52.502377 
L 199.479556 52.386317 
L 200.963544 54.825629 
L 201.359274 56.036067 
L 201.656072 57.682073 
L 202.051802 60.909908 
L 202.447533 66.611868 
L 202.74433 73.991915 
L 203.041128 86.493603 
L 203.337926 108.697855 
L 204.722982 233.422878 
L 205.118712 254.721137 
L 205.316577 257.310624 
L 205.514442 252.606811 
L 205.910173 231.184993 
L 206.503768 179.770654 
L 207.690959 73.977549 
L 208.086689 55.865383 
L 208.48242 49.065629 
L 208.779217 46.57375 
L 209.174948 45.424071 
L 209.372813 45.373551 
L 209.570678 45.496438 
L 209.867476 45.961362 
L 210.164273 46.356649 
L 210.362138 46.403074 
L 210.362138 46.403074 
" clip-path="url(#p80abeb3401)" style="fill: none; stroke: #333333; stroke-width: 0.8; stroke-linecap: square"/>
   </g>
   <g id="line2d_18">
    <path d="M 210.362138 62.245966 
L 211.648262 63.167619 
L 211.94506 63.507607 
L 212.439722 64.453155 
L 213.13225 65.922339 
L 214.319441 71.497999 
L 214.814104 75.316372 
L 215.308767 81.535819 
L 215.704497 89.761048 
L 216.001295 100.576449 
L 216.298093 120.604232 
L 217.386351 210.85138 
L 217.881014 240.148187 
L 218.078879 245.53539 
L 218.177812 245.58318 
L 218.375677 238.971894 
L 218.969272 195.285092 
L 220.354328 88.064512 
L 220.750058 74.050631 
L 221.244721 65.434202 
L 221.937249 59.808704 
L 222.33298 58.424175 
L 222.72871 57.770825 
L 223.12444 57.250603 
L 223.322305 57.258112 
L 223.421238 56.852584 
L 223.52017 56.916076 
L 223.619103 56.84371 
L 223.915901 57.122937 
L 225.399889 57.5981 
L 225.597754 57.942867 
L 225.894552 58.134708 
L 227.279608 59.71927 
L 227.972136 60.909226 
L 228.268934 61.081269 
L 229.159327 62.011115 
L 229.456125 61.884131 
L 229.555057 62.169502 
L 229.65399 62.01248 
L 229.851855 62.169502 
L 229.950788 61.909391 
L 230.742248 62.802371 
L 230.940113 63.153282 
L 231.236911 63.391547 
L 231.434776 63.639369 
L 231.533709 63.758843 
L 231.632641 63.681014 
L 233.215562 66.699259 
L 233.710225 68.644971 
L 234.105956 70.833043 
L 234.699551 75.149109 
L 235.194214 81.281169 
L 235.589944 89.736471 
L 235.886742 100.725278 
L 236.18354 120.75033 
L 237.271798 211.353166 
L 237.766461 240.538693 
L 237.964326 245.715623 
L 238.063258 245.547679 
L 238.261124 238.772544 
L 238.854719 194.990847 
L 240.239775 87.613927 
L 240.635505 73.961879 
L 241.031236 66.663074 
L 241.426966 62.72659 
L 241.921629 60.421774 
L 242.218426 59.698788 
L 242.910954 58.366145 
L 243.207752 58.069168 
L 243.306685 58.141535 
L 243.50455 57.966079 
L 243.702415 57.936723 
L 243.90028 57.557138 
L 244.098145 57.647255 
L 244.197078 57.625409 
L 244.394943 57.395336 
L 245.186404 57.550311 
L 245.483201 57.765363 
L 245.878932 57.997484 
L 246.57146 58.741634 
L 247.263988 59.474861 
L 247.461853 59.586824 
L 249.044774 60.957699 
L 249.242639 61.034162 
L 250.42983 62.309458 
L 250.726628 62.54977 
L 251.023425 62.855623 
L 251.122358 62.821487 
L 251.419156 63.288458 
L 252.012751 64.071522 
L 252.705279 65.446493 
L 253.199942 66.862425 
L 253.694605 68.877774 
L 254.189268 71.792928 
L 254.68393 76.081002 
L 255.079661 81.354219 
L 255.475391 89.874377 
L 255.772189 100.964908 
L 256.068986 121.183164 
L 257.058312 204.862029 
L 257.651908 240.785831 
L 257.849773 245.832365 
L 257.948705 245.904049 
L 258.14657 238.955508 
L 258.839098 186.543085 
L 260.125222 87.255506 
L 260.520952 73.415714 
L 261.015615 64.721457 
L 261.411345 61.314754 
L 262.004941 58.450801 
L 262.895334 57.150927 
L 263.093199 57.122937 
L 263.192132 57.057397 
L 263.291064 56.689418 
L 263.389997 56.750179 
L 263.587862 56.648455 
L 263.88466 56.935875 
L 264.082525 56.998684 
L 264.28039 56.982981 
L 264.775053 57.122937 
L 265.170783 57.332527 
L 265.467581 57.624043 
L 265.665446 57.881423 
L 265.962244 58.073264 
L 266.753704 58.91982 
L 269.227018 61.395313 
L 269.622749 61.720282 
L 269.820614 62.065731 
L 270.414209 62.454874 
L 272.096063 64.289989 
L 272.392861 65.008195 
L 272.887524 66.200883 
L 273.777917 70.070461 
L 274.173647 72.895497 
L 274.66831 77.553598 
L 275.06404 83.343622 
L 275.45977 93.341151 
L 275.756568 106.961094 
L 276.251231 148.829209 
L 277.141624 219.196734 
L 277.636287 244.36319 
L 277.73522 245.858308 
L 277.834152 245.523784 
L 278.032017 238.403203 
L 278.625613 194.104017 
L 280.010669 87.738862 
L 280.406399 74.221308 
L 280.802129 67.091813 
L 281.296792 62.250062 
L 281.692522 60.475025 
L 282.187185 58.481522 
L 282.780781 57.30795 
L 283.077578 57.047156 
L 283.572241 57.092215 
L 283.770106 56.832786 
L 283.967972 56.974106 
L 284.264769 56.997318 
L 284.462634 56.837565 
L 284.858365 56.99254 
L 285.05623 57.12635 
L 285.254095 57.379634 
L 285.649825 57.542118 
L 285.748758 57.475213 
L 286.342353 58.144948 
L 286.540218 58.610554 
L 287.232746 59.355387 
L 287.331679 59.30828 
L 287.727409 59.737703 
L 287.925274 60.090662 
L 288.12314 60.256559 
L 288.419937 60.740598 
L 289.211398 61.570769 
L 289.804993 62.510173 
L 290.101791 62.788717 
L 290.497521 62.655589 
L 290.695386 63.026299 
L 290.794319 62.950519 
L 291.091117 63.345805 
L 291.486847 63.549935 
L 291.684712 63.906307 
L 291.783645 63.810728 
L 292.871903 66.42959 
L 293.267633 67.824358 
L 293.861229 71.104078 
L 294.454824 75.962211 
L 294.850554 81.427269 
L 295.147352 87.657634 
L 295.44415 97.135621 
L 295.740948 114.031851 
L 297.224936 231.418473 
L 297.521734 244.111274 
L 297.620666 245.577718 
L 297.719599 245.170828 
L 297.917464 237.862503 
L 298.51106 193.557172 
L 299.896116 87.106678 
L 300.291846 73.433465 
L 300.786509 65.260795 
L 301.380104 59.999861 
L 301.874767 57.970175 
L 302.171565 57.288834 
L 302.270497 57.234218 
L 302.76516 56.386296 
L 302.963025 56.453201 
L 303.16089 56.363084 
L 303.556621 56.796603 
L 303.754486 56.780218 
L 304.447014 56.912663 
L 304.644879 56.942019 
L 305.337407 57.39124 
L 305.535272 57.727814 
L 306.029935 58.187276 
L 306.326733 58.58188 
L 307.612856 59.705615 
L 307.810721 59.767059 
L 308.701114 60.81433 
L 308.89898 61.145443 
L 309.393642 61.542778 
L 309.591508 61.789235 
L 310.185103 62.450095 
L 310.284036 62.501298 
L 310.481901 62.465797 
L 310.778698 62.806468 
L 310.877631 62.646715 
L 311.273361 63.035174 
L 311.669092 63.547204 
L 312.163754 64.376692 
L 312.658417 65.72845 
L 313.15308 67.607258 
L 314.142406 74.133926 
L 314.637069 79.891182 
L 315.032799 87.53543 
L 315.329597 97.087831 
L 315.626394 114.057111 
L 317.110383 231.686775 
L 317.407181 244.338613 
L 317.506113 245.807106 
L 317.605046 245.432302 
L 317.802911 237.760098 
L 318.495439 185.316951 
L 319.781562 86.718219 
L 320.177293 73.298971 
L 320.573023 66.129197 
L 321.067686 61.81586 
L 321.661281 58.956004 
L 322.452742 57.188476 
L 322.848472 56.867604 
L 323.639933 56.673715 
L 324.431393 56.855315 
L 325.618584 57.746247 
L 326.508977 58.796933 
L 326.706842 59.212701 
L 327.39937 59.726096 
L 327.894033 60.23403 
L 328.091898 60.533055 
L 328.487629 60.893524 
L 328.586561 60.944045 
L 328.784426 60.845735 
L 329.773752 61.886862 
L 330.169482 62.082799 
L 330.367348 62.249379 
L 330.763078 62.882248 
L 331.554538 63.894019 
L 332.939594 67.222211 
L 333.92892 73.02726 
L 334.423583 78.325738 
L 334.819313 85.150742 
L 335.116111 93.369823 
L 335.412909 107.593959 
L 335.907572 150.205538 
L 336.797965 219.861005 
L 337.292628 244.606233 
L 337.39156 245.940233 
L 337.490493 245.292348 
L 337.688358 237.317707 
L 338.380886 184.941464 
L 339.667009 86.362529 
L 340.06274 73.188373 
L 340.45847 65.902539 
L 340.8542 61.968786 
L 341.348863 59.158084 
L 341.645661 58.414617 
L 341.843526 58.021378 
L 342.041391 57.434933 
L 342.733919 56.81094 
L 344.217908 56.658013 
L 344.415773 56.717409 
L 344.613638 56.860777 
L 344.811503 56.905153 
L 345.405098 57.337306 
L 345.998694 57.958569 
L 346.196559 58.350443 
L 347.086952 59.237279 
L 347.482682 59.604575 
L 347.581615 59.751357 
L 347.77948 60.4484 
L 348.076278 60.770637 
L 348.17521 60.629999 
L 349.560266 61.871843 
L 349.659199 61.862967 
L 349.857064 61.430814 
L 350.054929 61.519566 
L 350.351727 61.778995 
L 351.143188 62.564107 
L 351.835716 63.929519 
L 353.121839 68.550075 
L 353.715434 72.448325 
L 354.605828 83.47948 
L 355.001558 93.801294 
L 355.298356 108.034304 
L 355.891951 159.292992 
L 356.683412 220.229663 
L 357.079142 241.622141 
L 357.277007 245.794134 
L 357.37594 244.974209 
L 357.573805 236.626813 
L 358.266333 183.548068 
L 359.552456 85.561717 
L 359.948186 72.395752 
L 360.442849 64.369181 
L 360.83858 61.066249 
L 361.432175 58.873396 
L 361.926838 57.822028 
L 362.322568 57.339354 
L 363.212961 57.106552 
L 363.410826 56.925634 
L 364.400152 57.221246 
L 364.894815 57.46429 
L 366.082006 58.501321 
L 369.742511 61.777629 
L 371.028634 63.273439 
L 371.127567 63.281631 
L 372.41369 66.143535 
L 372.908353 68.122018 
L 373.699814 72.868872 
L 374.194477 78.138676 
L 374.590207 84.904285 
L 374.887005 93.266735 
L 375.183802 107.837 
L 375.777398 159.875338 
L 376.568858 220.659083 
L 376.964589 241.992166 
L 377.162454 245.830318 
L 377.261386 244.867025 
L 377.459252 236.490272 
L 378.250712 175.51129 
L 379.437903 85.771307 
L 379.833633 72.615584 
L 380.328296 64.389662 
L 380.724026 61.251262 
L 381.119757 59.279606 
L 381.812285 57.477944 
L 382.306948 56.946115 
L 382.504813 56.858729 
L 382.702678 56.675763 
L 382.900543 56.7454 
L 383.494138 56.731063 
L 384.285599 56.769294 
L 385.47279 57.665005 
L 385.967453 58.39004 
L 386.066385 58.502687 
L 386.363183 59.1772 
L 387.055711 59.900187 
L 387.253576 60.306397 
L 387.550374 60.645702 
L 387.649306 60.73104 
L 387.847172 61.078538 
L 388.045037 61.102432 
L 388.242902 61.170703 
L 388.341834 61.132472 
L 388.836497 61.477238 
L 389.034362 61.757148 
L 389.133295 61.958546 
L 389.33116 61.843169 
L 389.72689 62.20159 
L 389.825823 62.116934 
L 390.914081 63.316449 
L 391.804474 64.876433 
L 392.299137 66.431638 
L 392.7938 68.449034 
L 393.486328 72.892766 
L 393.980991 77.845796 
L 394.376721 84.091184 
L 394.772452 94.522229 
L 395.069249 109.148476 
L 395.662845 161.003846 
L 396.454305 221.582096 
L 396.850036 242.697397 
L 397.047901 246.384671 
L 397.146833 245.185846 
L 397.344698 236.33325 
L 398.037226 182.822355 
L 399.32335 85.66344 
L 399.71908 72.639479 
L 400.11481 65.858163 
L 400.510541 61.918949 
L 401.005204 59.22499 
L 401.499866 57.926482 
L 401.895597 57.477261 
L 402.291327 57.202813 
L 402.884922 57.174822 
L 403.082788 56.961135 
L 403.973181 56.962501 
L 404.863574 57.33321 
L 404.962506 57.403529 
L 405.160372 57.725767 
L 405.358237 57.950377 
L 405.556102 58.4153 
L 407.237956 59.811435 
L 407.534753 60.13572 
L 408.227281 60.802042 
L 408.227281 60.802042 
" clip-path="url(#p80abeb3401)" style="fill: none; stroke: #d94452; stroke-width: 0.8; stroke-linecap: square"/>
   </g>
   <g id="text_18">
    <g id="patch_7">
     <path d="M 93.91271 298.316 
L 178.41271 298.316 
Q 181.41271 298.316 181.41271 295.316 
L 181.41271 284.716 
Q 181.41271 281.716 178.41271 281.716 
L 93.91271 281.716 
Q 90.91271 281.716 90.91271 284.716 
L 90.91271 295.316 
Q 90.91271 298.316 93.91271 298.316 
z
" style="fill: #ffffff; opacity: 0.85; stroke: #333333; stroke-linejoin: miter"/>
    </g>
    <!-- V$_{p-p}$ = 476.35 V -->
    <g style="fill: #333333" transform="translate(93.91271 292.216) scale(0.1 -0.1)">
     <defs>
      <path id="DejaVuSans-56" d="M 1831 0 
L 50 4666 
L 709 4666 
L 2188 738 
L 3669 4666 
L 4325 4666 
L 2547 0 
L 1831 0 
z
" transform="scale(0.015625)"/>
      <path id="DejaVuSans-Oblique-70" d="M 3175 2156 
Q 3175 2616 2975 2859 
Q 2775 3103 2400 3103 
Q 2144 3103 1911 2972 
Q 1678 2841 1497 2591 
Q 1319 2344 1212 1994 
Q 1106 1644 1106 1300 
Q 1106 863 1306 627 
Q 1506 391 1875 391 
Q 2147 391 2380 519 
Q 2613 647 2778 891 
Q 2956 1147 3065 1494 
Q 3175 1841 3175 2156 
z
M 1394 2969 
Q 1625 3272 1939 3428 
Q 2253 3584 2638 3584 
Q 3175 3584 3472 3232 
Q 3769 2881 3769 2247 
Q 3769 1728 3584 1258 
Q 3400 788 3053 416 
Q 2822 169 2531 39 
Q 2241 -91 1919 -91 
Q 1547 -91 1294 64 
Q 1041 219 916 525 
L 556 -1331 
L -19 -1331 
L 922 3500 
L 1497 3500 
L 1394 2969 
z
" transform="scale(0.015625)"/>
      <path id="DejaVuSans-20" transform="scale(0.015625)"/>
      <path id="DejaVuSans-3d" d="M 678 2906 
L 4684 2906 
L 4684 2381 
L 678 2381 
L 678 2906 
z
M 678 1631 
L 4684 1631 
L 4684 1100 
L 678 1100 
L 678 1631 
z
" transform="scale(0.015625)"/>
      <path id="DejaVuSans-34" d="M 2419 4116 
L 825 1625 
L 2419 1625 
L 2419 4116 
z
M 2253 4666 
L 3047 4666 
L 3047 1625 
L 3713 1625 
L 3713 1100 
L 3047 1100 
L 3047 0 
L 2419 0 
L 2419 1100 
L 313 1100 
L 313 1709 
L 2253 4666 
z
" transform="scale(0.015625)"/>
      <path id="DejaVuSans-37" d="M 525 4666 
L 3525 4666 
L 3525 4397 
L 1831 0 
L 1172 0 
L 2766 4134 
L 525 4134 
L 525 4666 
z
" transform="scale(0.015625)"/>
      <path id="DejaVuSans-36" d="M 2113 2584 
Q 1688 2584 1439 2293 
Q 1191 2003 1191 1497 
Q 1191 994 1439 701 
Q 1688 409 2113 409 
Q 2538 409 2786 701 
Q 3034 994 3034 1497 
Q 3034 2003 2786 2293 
Q 2538 2584 2113 2584 
z
M 3366 4563 
L 3366 3988 
Q 3128 4100 2886 4159 
Q 2644 4219 2406 4219 
Q 1781 4219 1451 3797 
Q 1122 3375 1075 2522 
Q 1259 2794 1537 2939 
Q 1816 3084 2150 3084 
Q 2853 3084 3261 2657 
Q 3669 2231 3669 1497 
Q 3669 778 3244 343 
Q 2819 -91 2113 -91 
Q 1303 -91 875 529 
Q 447 1150 447 2328 
Q 447 3434 972 4092 
Q 1497 4750 2381 4750 
Q 2619 4750 2861 4703 
Q 3103 4656 3366 4563 
z
" transform="scale(0.015625)"/>
     </defs>
     <use xlink:href="#DejaVuSans-56" transform="translate(0 0.78125)"/>
     <use xlink:href="#DejaVuSans-Oblique-70" transform="translate(69.365234 -15.625) scale(0.7)"/>
     <use xlink:href="#DejaVuSans-2212" transform="translate(127.436523 -15.625) scale(0.7)"/>
     <use xlink:href="#DejaVuSans-Oblique-70" transform="translate(199.726562 -15.625) scale(0.7)"/>
     <use xlink:href="#DejaVuSans-20" transform="translate(246.894531 0.78125)"/>
     <use xlink:href="#DejaVuSans-3d" transform="translate(278.681641 0.78125)"/>
     <use xlink:href="#DejaVuSans-20" transform="translate(362.470703 0.78125)"/>
     <use xlink:href="#DejaVuSans-34" transform="translate(394.257812 0.78125)"/>
     <use xlink:href="#DejaVuSans-37" transform="translate(457.880859 0.78125)"/>
     <use xlink:href="#DejaVuSans-36" transform="translate(521.503906 0.78125)"/>
     <use xlink:href="#DejaVuSans-2e" transform="translate(585.126953 0.78125)"/>
     <use xlink:href="#DejaVuSans-33" transform="translate(616.914062 0.78125)"/>
     <use xlink:href="#DejaVuSans-35" transform="translate(680.537109 0.78125)"/>
     <use xlink:href="#DejaVuSans-20" transform="translate(744.160156 0.78125)"/>
     <use xlink:href="#DejaVuSans-56" transform="translate(775.947266 0.78125)"/>
    </g>
   </g>
   <g id="text_19">
    <g id="patch_8">
     <path d="M 267.04471 298.316 
L 351.54471 298.316 
Q 354.54471 298.316 354.54471 295.316 
L 354.54471 284.716 
Q 354.54471 281.716 351.54471 281.716 
L 267.04471 281.716 
Q 264.04471 281.716 264.04471 284.716 
L 264.04471 295.316 
Q 264.04471 298.316 267.04471 298.316 
z
" style="fill: #ffffff; opacity: 0.85; stroke: #d94452; stroke-linejoin: miter"/>
    </g>
    <!-- V$_{p-p}$ = 426.94 V -->
    <g style="fill: #d94452" transform="translate(267.04471 292.216) scale(0.1 -0.1)">
     <defs>
      <path id="DejaVuSans-39" d="M 703 97 
L 703 672 
Q 941 559 1184 500 
Q 1428 441 1663 441 
Q 2288 441 2617 861 
Q 2947 1281 2994 2138 
Q 2813 1869 2534 1725 
Q 2256 1581 1919 1581 
Q 1219 1581 811 2004 
Q 403 2428 403 3163 
Q 403 3881 828 4315 
Q 1253 4750 1959 4750 
Q 2769 4750 3195 4129 
Q 3622 3509 3622 2328 
Q 3622 1225 3098 567 
Q 2575 -91 1691 -91 
Q 1453 -91 1209 -44 
Q 966 3 703 97 
z
M 1959 2075 
Q 2384 2075 2632 2365 
Q 2881 2656 2881 3163 
Q 2881 3666 2632 3958 
Q 2384 4250 1959 4250 
Q 1534 4250 1286 3958 
Q 1038 3666 1038 3163 
Q 1038 2656 1286 2365 
Q 1534 2075 1959 2075 
z
" transform="scale(0.015625)"/>
     </defs>
     <use xlink:href="#DejaVuSans-56" transform="translate(0 0.78125)"/>
     <use xlink:href="#DejaVuSans-Oblique-70" transform="translate(69.365234 -15.625) scale(0.7)"/>
     <use xlink:href="#DejaVuSans-2212" transform="translate(127.436523 -15.625) scale(0.7)"/>
     <use xlink:href="#DejaVuSans-Oblique-70" transform="translate(199.726562 -15.625) scale(0.7)"/>
     <use xlink:href="#DejaVuSans-20" transform="translate(246.894531 0.78125)"/>
     <use xlink:href="#DejaVuSans-3d" transform="translate(278.681641 0.78125)"/>
     <use xlink:href="#DejaVuSans-20" transform="translate(362.470703 0.78125)"/>
     <use xlink:href="#DejaVuSans-34" transform="translate(394.257812 0.78125)"/>
     <use xlink:href="#DejaVuSans-32" transform="translate(457.880859 0.78125)"/>
     <use xlink:href="#DejaVuSans-36" transform="translate(521.503906 0.78125)"/>
     <use xlink:href="#DejaVuSans-2e" transform="translate(585.126953 0.78125)"/>
     <use xlink:href="#DejaVuSans-39" transform="translate(616.914062 0.78125)"/>
     <use xlink:href="#DejaVuSans-34" transform="translate(680.537109 0.78125)"/>
     <use xlink:href="#DejaVuSans-20" transform="translate(744.160156 0.78125)"/>
     <use xlink:href="#DejaVuSans-56" transform="translate(775.947266 0.78125)"/>
    </g>
   </g>
   <g id="text_20">
    <g id="patch_9">
     <path d="M 340.222955 40.145562 
L 397.839361 40.145562 
Q 403.039361 40.145562 403.039361 34.945562 
L 403.039361 22.364 
Q 403.039361 17.164 397.839361 17.164 
L 340.222955 17.164 
Q 335.022955 17.164 335.022955 22.364 
L 335.022955 34.945562 
Q 335.022955 40.145562 340.222955 40.145562 
z
" style="fill: #ffffff; opacity: 0.9; stroke: #f0ad4e; stroke-width: 1.5; stroke-linejoin: miter"/>
    </g>
    <!-- f = 5 Hz -->
    <g style="fill: #f0ad4e" transform="translate(340.222955 32.241969) scale(0.13 -0.13)">
     <defs>
      <path id="DejaVuSans-Bold-66" d="M 2841 4863 
L 2841 4128 
L 2222 4128 
Q 1984 4128 1890 4042 
Q 1797 3956 1797 3744 
L 1797 3500 
L 2753 3500 
L 2753 2700 
L 1797 2700 
L 1797 0 
L 678 0 
L 678 2700 
L 122 2700 
L 122 3500 
L 678 3500 
L 678 3744 
Q 678 4316 997 4589 
Q 1316 4863 1984 4863 
L 2841 4863 
z
" transform="scale(0.015625)"/>
      <path id="DejaVuSans-Bold-3d" d="M 678 3084 
L 4684 3084 
L 4684 2350 
L 678 2350 
L 678 3084 
z
M 678 1663 
L 4684 1663 
L 4684 922 
L 678 922 
L 678 1663 
z
" transform="scale(0.015625)"/>
      <path id="DejaVuSans-Bold-35" d="M 678 4666 
L 3669 4666 
L 3669 3781 
L 1638 3781 
L 1638 3059 
Q 1775 3097 1914 3117 
Q 2053 3138 2203 3138 
Q 3056 3138 3531 2711 
Q 4006 2284 4006 1522 
Q 4006 766 3489 337 
Q 2972 -91 2053 -91 
Q 1656 -91 1267 -14 
Q 878 63 494 219 
L 494 1166 
Q 875 947 1217 837 
Q 1559 728 1863 728 
Q 2300 728 2551 942 
Q 2803 1156 2803 1522 
Q 2803 1891 2551 2103 
Q 2300 2316 1863 2316 
Q 1603 2316 1309 2248 
Q 1016 2181 678 2041 
L 678 4666 
z
" transform="scale(0.015625)"/>
      <path id="DejaVuSans-Bold-48" d="M 588 4666 
L 1791 4666 
L 1791 2888 
L 3566 2888 
L 3566 4666 
L 4769 4666 
L 4769 0 
L 3566 0 
L 3566 1978 
L 1791 1978 
L 1791 0 
L 588 0 
L 588 4666 
z
" transform="scale(0.015625)"/>
      <path id="DejaVuSans-Bold-7a" d="M 366 3500 
L 3419 3500 
L 3419 2719 
L 1575 800 
L 3419 800 
L 3419 0 
L 288 0 
L 288 781 
L 2131 2700 
L 366 2700 
L 366 3500 
z
" transform="scale(0.015625)"/>
     </defs>
     <use xlink:href="#DejaVuSans-Bold-66"/>
     <use xlink:href="#DejaVuSans-Bold-20" transform="translate(43.505859 0)"/>
     <use xlink:href="#DejaVuSans-Bold-3d" transform="translate(78.320312 0)"/>
     <use xlink:href="#DejaVuSans-Bold-20" transform="translate(162.109375 0)"/>
     <use xlink:href="#DejaVuSans-Bold-35" transform="translate(196.923828 0)"/>
     <use xlink:href="#DejaVuSans-Bold-20" transform="translate(266.503906 0)"/>
     <use xlink:href="#DejaVuSans-Bold-48" transform="translate(301.318359 0)"/>
     <use xlink:href="#DejaVuSans-Bold-7a" transform="translate(385.009766 0)"/>
    </g>
   </g>
   <g id="text_21">
    <!-- Without MIC -->
    <g style="fill: #333333" transform="translate(87.430679 33.001812) scale(0.14 -0.14)">
     <defs>
      <path id="DejaVuSans-Bold-57" d="M 191 4666 
L 1344 4666 
L 2150 1275 
L 2950 4666 
L 4109 4666 
L 4909 1275 
L 5716 4666 
L 6859 4666 
L 5759 0 
L 4372 0 
L 3525 3547 
L 2688 0 
L 1300 0 
L 191 4666 
z
" transform="scale(0.015625)"/>
      <path id="DejaVuSans-Bold-74" d="M 1759 4494 
L 1759 3500 
L 2913 3500 
L 2913 2700 
L 1759 2700 
L 1759 1216 
Q 1759 972 1856 886 
Q 1953 800 2241 800 
L 2816 800 
L 2816 0 
L 1856 0 
Q 1194 0 917 276 
Q 641 553 641 1216 
L 641 2700 
L 84 2700 
L 84 3500 
L 641 3500 
L 641 4494 
L 1759 4494 
z
" transform="scale(0.015625)"/>
      <path id="DejaVuSans-Bold-68" d="M 4056 2131 
L 4056 0 
L 2931 0 
L 2931 347 
L 2931 1625 
Q 2931 2084 2911 2256 
Q 2891 2428 2841 2509 
Q 2775 2619 2662 2680 
Q 2550 2741 2406 2741 
Q 2056 2741 1856 2470 
Q 1656 2200 1656 1722 
L 1656 0 
L 538 0 
L 538 4863 
L 1656 4863 
L 1656 2988 
Q 1909 3294 2193 3439 
Q 2478 3584 2822 3584 
Q 3428 3584 3742 3212 
Q 4056 2841 4056 2131 
z
" transform="scale(0.015625)"/>
      <path id="DejaVuSans-Bold-6f" d="M 2203 2784 
Q 1831 2784 1636 2517 
Q 1441 2250 1441 1747 
Q 1441 1244 1636 976 
Q 1831 709 2203 709 
Q 2569 709 2762 976 
Q 2956 1244 2956 1747 
Q 2956 2250 2762 2517 
Q 2569 2784 2203 2784 
z
M 2203 3584 
Q 3106 3584 3614 3096 
Q 4122 2609 4122 1747 
Q 4122 884 3614 396 
Q 3106 -91 2203 -91 
Q 1297 -91 786 396 
Q 275 884 275 1747 
Q 275 2609 786 3096 
Q 1297 3584 2203 3584 
z
" transform="scale(0.015625)"/>
      <path id="DejaVuSans-Bold-75" d="M 500 1363 
L 500 3500 
L 1625 3500 
L 1625 3150 
Q 1625 2866 1622 2436 
Q 1619 2006 1619 1863 
Q 1619 1441 1641 1255 
Q 1663 1069 1716 984 
Q 1784 875 1895 815 
Q 2006 756 2150 756 
Q 2500 756 2700 1025 
Q 2900 1294 2900 1772 
L 2900 3500 
L 4019 3500 
L 4019 0 
L 2900 0 
L 2900 506 
Q 2647 200 2364 54 
Q 2081 -91 1741 -91 
Q 1134 -91 817 281 
Q 500 653 500 1363 
z
" transform="scale(0.015625)"/>
      <path id="DejaVuSans-Bold-4d" d="M 588 4666 
L 2119 4666 
L 3181 2169 
L 4250 4666 
L 5778 4666 
L 5778 0 
L 4641 0 
L 4641 3413 
L 3566 897 
L 2803 897 
L 1728 3413 
L 1728 0 
L 588 0 
L 588 4666 
z
" transform="scale(0.015625)"/>
      <path id="DejaVuSans-Bold-49" d="M 588 4666 
L 1791 4666 
L 1791 0 
L 588 0 
L 588 4666 
z
" transform="scale(0.015625)"/>
      <path id="DejaVuSans-Bold-43" d="M 4288 256 
Q 3956 84 3597 -3 
Q 3238 -91 2847 -91 
Q 1681 -91 1000 561 
Q 319 1213 319 2328 
Q 319 3447 1000 4098 
Q 1681 4750 2847 4750 
Q 3238 4750 3597 4662 
Q 3956 4575 4288 4403 
L 4288 3438 
Q 3953 3666 3628 3772 
Q 3303 3878 2944 3878 
Q 2300 3878 1931 3465 
Q 1563 3053 1563 2328 
Q 1563 1606 1931 1193 
Q 2300 781 2944 781 
Q 3303 781 3628 887 
Q 3953 994 4288 1222 
L 4288 256 
z
" transform="scale(0.015625)"/>
     </defs>
     <use xlink:href="#DejaVuSans-Bold-57"/>
     <use xlink:href="#DejaVuSans-Bold-69" transform="translate(110.302734 0)"/>
     <use xlink:href="#DejaVuSans-Bold-74" transform="translate(144.580078 0)"/>
     <use xlink:href="#DejaVuSans-Bold-68" transform="translate(192.382812 0)"/>
     <use xlink:href="#DejaVuSans-Bold-6f" transform="translate(263.574219 0)"/>
     <use xlink:href="#DejaVuSans-Bold-75" transform="translate(332.275391 0)"/>
     <use xlink:href="#DejaVuSans-Bold-74" transform="translate(403.466797 0)"/>
     <use xlink:href="#DejaVuSans-Bold-20" transform="translate(451.269531 0)"/>
     <use xlink:href="#DejaVuSans-Bold-4d" transform="translate(486.083984 0)"/>
     <use xlink:href="#DejaVuSans-Bold-49" transform="translate(585.595703 0)"/>
     <use xlink:href="#DejaVuSans-Bold-43" transform="translate(622.802734 0)"/>
    </g>
   </g>
   <g id="text_22">
    <!-- With MIC -->
    <g style="fill: #d94452" transform="translate(273.700804 33.001812) scale(0.14 -0.14)">
     <use xlink:href="#DejaVuSans-Bold-57"/>
     <use xlink:href="#DejaVuSans-Bold-69" transform="translate(110.302734 0)"/>
     <use xlink:href="#DejaVuSans-Bold-74" transform="translate(144.580078 0)"/>
     <use xlink:href="#DejaVuSans-Bold-68" transform="translate(192.382812 0)"/>
     <use xlink:href="#DejaVuSans-Bold-20" transform="translate(263.574219 0)"/>
     <use xlink:href="#DejaVuSans-Bold-4d" transform="translate(298.388672 0)"/>
     <use xlink:href="#DejaVuSans-Bold-49" transform="translate(397.900391 0)"/>
     <use xlink:href="#DejaVuSans-Bold-43" transform="translate(435.107422 0)"/>
    </g>
   </g>
  </g>
 </g>
 <defs>
  <clipPath id="p80abeb3401">
   <rect x="61.963281" y="7.2" width="346.264" height="303.28"/>
  </clipPath>
 </defs>
</svg>
